<svg width="38" height="38" viewBox="0 0 38 38" fill="none" xmlns="http://www.w3.org/2000/svg">
<path d="M19.0019 1.625C9.40114 1.62101 1.625 9.60466 1.625 19.4586C1.625 27.2508 6.48946 33.8746 13.264 36.3072C14.1763 36.5425 14.0365 35.8765 14.0365 35.4219V32.3313C8.76834 32.9654 8.55481 29.3843 8.20153 28.7861C7.48719 27.534 5.79842 27.2149 6.30311 26.6168C7.50272 25.9827 8.72563 26.7763 10.1427 28.9257C11.1676 30.485 13.1669 30.2218 14.1802 29.9626C14.4015 29.0254 14.8751 28.188 15.5273 27.538C10.0689 26.533 7.79389 23.1115 7.79389 19.0439C7.79389 17.0699 8.4267 15.2554 9.66902 13.7919C8.87704 11.3792 9.74278 9.31355 9.85925 9.00648C12.1148 8.79912 14.4597 10.6654 14.6422 10.813C15.9233 10.4581 17.3869 10.2706 19.0252 10.2706C20.6713 10.2706 22.1388 10.466 23.4316 10.8249C23.8703 10.482 26.0443 8.87887 28.1408 9.07428C28.2533 9.38134 29.0997 11.3992 28.3543 13.7799C29.6121 15.2474 30.2527 17.0779 30.2527 19.0558C30.2527 23.1314 27.9622 26.5569 22.4882 27.5459C22.9571 28.0196 23.3293 28.5844 23.5833 29.2075C23.8373 29.8306 23.9678 30.4994 23.9673 31.1749V35.6612C23.9984 36.0201 23.9673 36.375 24.5497 36.375C31.4251 33.9943 36.375 27.3226 36.375 19.4626C36.375 9.60466 28.595 1.625 19.0019 1.625Z" fill="#626262"/>
</svg>
