<svg width="37" height="37" viewBox="0 0 37 37" fill="none" xmlns="http://www.w3.org/2000/svg">
<path d="M17.8086 0.433594C27.4065 0.433594 35.1836 8.21064 35.1836 17.8086C35.1836 27.4065 27.4065 35.1836 17.8086 35.1836C8.21064 35.1836 0.433594 27.4065 0.433594 17.8086C0.433594 8.21064 8.21064 0.433594 17.8086 0.433594Z" fill="#626262"/>
<g clip-path="url(#clip0_4431_39815)">
<path d="M12.6779 15.7603L8.46166 19.7749C6.51278 21.6307 6.51278 24.6501 8.46166 26.5059L8.56693 26.6061C9.51109 27.5049 10.7662 28 12.1015 28C13.4367 28 14.692 27.5049 15.636 26.6061L19.6929 22.7434C19.3957 22.7843 19.0935 22.8053 18.7878 22.8053C17.9468 22.8053 17.1315 22.6476 16.3788 22.347L13.8235 24.78C13.3635 25.2179 12.752 25.4591 12.1015 25.4591C11.4512 25.4591 10.8396 25.218 10.3796 24.7801C9.92028 24.3428 9.6673 23.7605 9.6673 23.1404C9.6673 22.5204 9.92028 21.938 10.3795 21.5007L14.4905 17.5865C14.9505 17.1484 15.562 16.9073 16.2125 16.9073C16.8415 16.9073 17.4337 17.1333 17.888 17.5443C17.9045 17.5571 17.9204 17.5706 17.9358 17.5853C18.1635 17.802 18.466 17.9213 18.7878 17.9213C19.1095 17.9213 19.4122 17.802 19.6397 17.5853L20.5602 16.709C20.3597 16.4029 20.1231 16.1183 19.8523 15.8606L19.7472 15.7605C18.803 14.8615 17.5477 14.3665 16.2127 14.3665C14.8774 14.3665 13.6221 14.8615 12.6779 15.7603Z" fill="#F4F4F4"/>
<path d="M26.5385 16.2251C27.4811 15.3279 28 14.1327 28 12.8596C28 11.5867 27.4809 10.3915 26.5385 9.49414L26.4334 9.39404C25.4893 8.49515 24.2339 8 22.8987 8C21.5636 8 20.3083 8.49515 19.3641 9.39404L15.3073 13.2567C15.6045 13.2158 15.9068 13.1947 16.2125 13.1947C17.0533 13.1947 17.8687 13.3526 18.6214 13.6531L21.1767 11.2201C21.6367 10.7821 22.2482 10.5409 22.8987 10.5409C23.5492 10.5409 24.1607 10.782 24.6207 11.2201C25.0801 11.6574 25.3329 12.2397 25.3329 12.8596C25.3329 13.4797 25.0801 14.062 24.6207 14.4992L20.5097 18.4135C20.0497 18.8516 19.4382 19.0927 18.7877 19.0927C18.1588 19.0927 17.5667 18.8667 17.1123 18.4558C17.0958 18.443 17.0798 18.4294 17.0644 18.4147C16.8369 18.1981 16.5342 18.0787 16.2125 18.0787C15.8906 18.0787 15.5881 18.1981 15.3606 18.4147L14.4402 19.2912C14.6405 19.5971 14.8771 19.8816 15.1479 20.1394L15.2531 20.2397C16.1973 21.1386 17.4524 21.6336 18.7877 21.6336C20.1229 21.6336 21.3782 21.1386 22.3222 20.2397L26.5385 16.2251Z" fill="#F4F4F4"/>
</g>
<defs>
<clipPath id="clip0_4431_39815">
<rect width="21" height="20" fill="white" transform="translate(7 8)"/>
</clipPath>
</defs>
</svg>
