<svg width="249" height="50" viewBox="0 0 249 50" fill="none" xmlns="http://www.w3.org/2000/svg">
<path d="M0 24.5086C0 38.0748 10.9981 49.0171 24.5086 49.0171C38.0748 49.0171 49.0171 38.019 49.0171 24.5086C49.0171 10.9423 38.019 0 24.5086 0C10.9981 0 0 10.9981 0 24.5086Z" fill="#121122"/>
<path fill-rule="evenodd" clip-rule="evenodd" d="M7.42631 18.3117C7.14717 20.2099 7.48214 22.2197 7.81711 24.1179C7.98459 24.397 8.26373 24.6203 8.65453 24.732C7.87294 26.4068 7.42631 28.1933 7.42631 30.0915C7.42631 38.0749 15.1306 44.5509 24.6772 44.5509C34.2238 44.5509 41.9281 38.0749 41.9281 30.0915C41.9281 28.2491 41.4815 26.4068 40.6999 24.732C41.0348 24.6203 41.2582 24.397 41.3698 24.1179C41.7606 22.2197 42.0956 20.2099 41.8164 18.3117C41.5373 15.7436 40.644 14.9062 37.9643 15.5761C36.6244 15.9111 34.8379 16.6927 33.4422 17.6418C30.8741 16.3577 27.8594 15.632 24.6772 15.632C21.4392 15.632 18.3686 16.4136 15.8005 17.6976C14.4048 16.7485 12.6183 15.9111 11.2226 15.5761C8.54287 14.9062 7.70545 15.7436 7.42631 18.3117ZM17.4754 29.7007C15.4656 28.8074 12.0042 29.0307 12.0042 29.0307C12.0042 29.0307 12.1717 32.2688 14.1257 33.3853C16.4705 34.6694 20.8809 34.0553 20.8809 34.0553C20.8809 34.0553 20.4901 31.0405 17.4754 29.7007ZM28.6968 34.1111C28.6968 34.1111 33.0514 34.781 35.452 33.4411C37.4618 32.3246 37.5735 29.0865 37.5735 29.0865C37.5735 29.0865 34.1122 28.8632 32.1023 29.7565C29.0876 31.0405 28.6968 34.0553 28.6968 34.1111ZM23.8398 36.4C23.8398 36.6234 24.2864 36.8467 24.8447 36.8467C25.403 36.8467 25.8496 36.6792 25.8496 36.4C25.8496 36.1767 25.403 35.9534 24.8447 35.9534C24.2864 35.9534 23.8398 36.1209 23.8398 36.4Z" fill="#F2F4F8"/>
<path fill-rule="evenodd" clip-rule="evenodd" d="M44.3849 34.3902C42.7659 33.7761 41.0352 33.4411 39.3045 33.4411C38.8579 33.4411 38.8579 32.7712 39.3045 32.7712C41.091 32.7712 42.8775 33.1061 44.5524 33.7761C44.7199 33.8319 44.8315 33.9994 44.7757 34.1669C44.7199 34.3344 44.5524 34.446 44.3849 34.3902ZM4.97024 33.7202C6.64509 33.0503 8.43159 32.7712 10.2181 32.7153C10.6647 32.7153 10.6647 33.3853 10.2181 33.3853C8.48741 33.3853 6.75674 33.7202 5.13773 34.3343C4.97024 34.3902 4.74693 34.2785 4.6911 34.111C4.6911 33.9994 4.80276 33.7761 4.97024 33.7202ZM8.43159 35.6742C9.26901 35.3951 10.1623 35.2834 10.9997 35.2276C11.4463 35.2276 11.4463 35.8975 10.9997 35.8975C10.2181 35.8975 9.38066 36.065 8.6549 36.2883C7.92913 36.5116 7.14754 36.7908 6.58926 37.2932C6.25429 37.5724 5.80766 37.1258 6.0868 36.7908C6.75674 36.2325 7.64999 35.9534 8.43159 35.6742ZM11.7813 36.9583C11.1113 37.2374 10.4414 37.6282 9.82729 38.019C9.21318 38.4098 8.6549 38.9123 8.20827 39.4705C8.09662 39.638 8.15245 39.8613 8.31993 39.9172C8.48741 40.0288 8.71073 39.973 8.76656 39.8055C9.15735 39.303 9.71563 38.8564 10.2181 38.5215C10.8322 38.1307 11.4463 37.7957 12.0604 37.5166C12.2279 37.4049 12.2837 37.2374 12.1721 37.0699C12.1721 36.9024 11.9488 36.8466 11.7813 36.9583ZM38.4671 35.9534C39.2487 35.9534 40.0861 36.1208 40.8119 36.3442C41.2027 36.4558 41.5935 36.6233 41.9843 36.7908C42.3193 36.9024 42.5984 37.1258 42.8775 37.3491C43.2125 37.6282 43.6591 37.1816 43.38 36.8466C42.7659 36.2883 41.8726 35.9534 41.091 35.73C40.2536 35.4509 39.3604 35.3393 38.5229 35.2834C38.0763 35.2276 38.0763 35.9534 38.4671 35.9534ZM39.2487 38.5215C38.6346 38.1307 38.0205 37.8515 37.4064 37.5724C37.2389 37.4607 37.1831 37.2932 37.2947 37.1258C37.4064 36.9583 37.5739 36.9024 37.7414 37.0141C39.0812 37.5724 40.4769 38.354 41.3144 39.5264C41.426 39.6938 41.3702 39.9172 41.2027 39.973C41.0352 40.0846 40.8119 40.0288 40.7561 39.8613C40.3653 39.3031 39.807 38.8564 39.2487 38.5215Z" fill="#F2F4F8"/>
<path d="M2.39919 25.8482C2.73415 25.3457 5.46973 23.8942 8.87525 23.001C9.60101 20.8795 10.5501 18.8697 11.6108 16.9157L14.3464 11.947C13.5648 11.612 12.7832 11.1654 12.0575 10.6629C11.9458 10.5513 11.8341 10.4396 11.7225 10.328C11.6667 10.2163 11.6108 10.0488 11.6108 9.93718C11.6108 9.82552 11.7783 9.60221 11.8341 9.54639C12.0016 9.32307 12.2249 9.15559 12.4482 8.93227C12.9507 8.48565 13.509 8.09486 14.1231 7.75989C14.4022 7.5924 14.6814 7.42492 14.9605 7.20161C16.9145 5.97339 18.0311 5.02431 19.8176 3.96357C21.5482 2.95867 22.3857 2.40039 24.3396 2.45621C26.8519 2.45621 33.0488 10.3838 35.8402 14.4593C37.5151 16.9157 39.804 21.3261 40.6415 23.001C40.8089 23.0568 41.0323 23.1126 41.1997 23.1684C43.7678 23.95 46.2243 25.0666 46.8384 25.7924C47.3967 26.4065 44.996 26.6856 42.6513 27.1322C40.3065 27.523 32.3231 27.7464 24.6746 27.8022C17.0262 27.858 8.09365 27.5789 6.13967 27.2997C4.18568 27.0206 2.00839 26.4623 2.39919 25.8482Z" fill="#6665DD"/>
<path d="M38.4646 19.0375C38.4646 19.0375 33.44 17.7534 24.5634 17.7534C15.0168 17.7534 10.4389 19.205 10.4389 19.205C10.4389 19.205 9.88058 20.2657 9.65727 20.824C9.43395 21.4381 8.87567 23.0013 8.87567 23.0013C8.87567 23.0013 15.7984 21.773 24.675 21.773C30.0345 21.773 35.3382 22.2197 40.6419 23.1129C40.6419 23.1129 39.8603 21.2148 39.3578 20.4332C39.0787 19.9865 38.7995 19.4841 38.4646 19.0375Z" fill="#FF99A5"/>
<path d="M8.48624 8.37412C9.04453 8.3183 9.82612 10.049 9.82612 10.049C9.82612 10.049 11.6126 9.54652 11.9476 10.049C12.2267 10.5514 10.6635 11.7238 10.6635 11.7238C10.6635 11.7238 11.6126 13.3987 11.2777 13.7336C10.9985 14.0686 9.32367 13.0079 9.32367 13.0079C9.32367 13.0079 8.03962 14.4594 7.64882 14.2361C7.2022 14.0128 7.70465 12.1146 7.70465 12.1146C7.70465 12.1146 5.86232 11.333 6.02981 10.8864C6.14146 10.4398 8.03962 10.2723 8.03962 10.2723C8.03962 10.2723 7.92796 8.48578 8.48624 8.37412Z" fill="#FFE600"/>
<path d="M74.9463 28.0983C76.0104 28.0983 76.7641 27.9196 77.2074 27.5622C77.6508 27.1601 77.9168 26.7134 77.9168 26.1773C77.9168 25.6859 77.7394 25.2838 77.3848 25.0158C77.0301 24.7031 76.4981 24.435 75.7887 24.2117L74.237 23.7203C73.3946 23.4522 72.5966 23.1842 71.9316 22.8715C71.2222 22.5588 70.6458 22.1567 70.1582 21.7546C69.6705 21.3079 69.2715 20.7718 69.0055 20.1911C68.7394 19.5656 68.6064 18.8509 68.6064 18.0021C68.6064 16.3045 69.2271 14.9196 70.5128 13.9368C71.7986 12.9539 73.6163 12.4179 75.8774 12.4179C76.7641 12.4179 77.5621 12.4625 78.2715 12.5966C79.0252 12.7306 79.6459 12.9093 80.1779 13.1773C80.7099 13.4007 81.1089 13.7134 81.4192 14.1155C81.7296 14.4728 81.8626 14.9196 81.8626 15.411C81.8626 15.8577 81.7296 16.3045 81.5079 16.6618C81.2862 17.0192 81.0202 17.2873 80.7099 17.5553C80.2665 17.2426 79.6459 16.9746 78.8478 16.7512C78.0498 16.5278 77.2518 16.3938 76.3207 16.3938C75.3454 16.3938 74.636 16.5278 74.1483 16.8405C73.6606 17.1533 73.439 17.5553 73.439 18.0021C73.439 18.4041 73.572 18.7168 73.8823 18.9402C74.1926 19.1636 74.6803 19.3423 75.301 19.5656L76.9414 20.1017C77.8725 20.4144 78.7148 20.7718 79.4242 21.1739C80.1335 21.5313 80.7542 21.978 81.2419 22.4694C81.7296 22.9161 82.0843 23.4969 82.3503 24.1223C82.572 24.7478 82.705 25.4179 82.705 26.222C82.705 27.0708 82.5276 27.8749 82.1729 28.5897C81.8626 29.3045 81.3749 29.8852 80.6656 30.3766C80.0005 30.868 79.2025 31.2701 78.2271 31.5828C77.2961 31.8508 76.1877 32.0295 74.902 32.0295C73.971 32.0295 73.1286 31.9402 72.3306 31.8062C71.5325 31.6721 70.8675 31.4488 70.2468 31.1807C69.6705 30.9127 69.2271 30.5553 68.8725 30.1533C68.5621 29.7065 68.3848 29.2598 68.3848 28.7237C68.3848 28.1876 68.5178 27.6962 68.8281 27.3388C69.1385 26.9814 69.4931 26.6687 69.8922 26.4453C70.4242 26.8921 71.1335 27.2941 71.9316 27.6515C72.9513 27.9196 73.8823 28.0983 74.9463 28.0983ZM93.5227 31.9402C92.9907 31.9402 92.503 31.8955 92.0596 31.8062C91.6163 31.7168 91.2173 31.6275 90.8626 31.4488V36.9436C90.6409 36.9883 90.3749 37.0777 90.0202 37.1223C89.6656 37.167 89.2665 37.2117 88.8232 37.2117C87.8922 37.2117 87.2715 37.0777 86.8281 36.7649C86.3848 36.4522 86.2074 35.8715 86.2074 35.0227V19.8783C86.2074 19.3423 86.3404 18.9402 86.5621 18.5828C86.7838 18.2254 87.0941 17.9127 87.4931 17.6447C88.1138 17.2426 88.8675 16.9299 89.8429 16.7065C90.7739 16.4385 91.838 16.3045 92.9907 16.3045C94.1434 16.3045 95.2518 16.4385 96.2271 16.7512C97.2025 17.0192 98.0892 17.5106 98.7986 18.1361C99.5079 18.7615 100.04 19.5656 100.439 20.5484C100.838 21.5313 101.06 22.6928 101.06 24.033C101.06 25.3285 100.882 26.4453 100.483 27.4728C100.129 28.4557 99.5966 29.2598 98.9316 29.9299C98.2665 30.6 97.4685 31.0914 96.5818 31.4488C95.6064 31.8062 94.6311 31.9402 93.5227 31.9402ZM92.8577 28.277C93.966 28.277 94.8084 27.9196 95.3848 27.2495C96.0055 26.5347 96.3158 25.5072 96.3158 24.0777C96.3158 22.6481 96.0055 21.5759 95.4291 20.9505C94.8527 20.3251 94.0547 20.0124 93.035 20.0124C92.5917 20.0124 92.1483 20.057 91.838 20.1911C91.4833 20.2804 91.1729 20.4144 90.9069 20.5484V27.7409C91.1729 27.9196 91.4833 28.0536 91.838 28.1429C92.0596 28.2323 92.4143 28.277 92.8577 28.277ZM119.37 24.1223C119.37 25.3285 119.193 26.4007 118.838 27.3835C118.483 28.3216 117.951 29.1704 117.242 29.8405C116.577 30.5106 115.779 31.0467 114.803 31.4041C113.828 31.7615 112.808 31.9402 111.611 31.9402C110.459 31.9402 109.35 31.7615 108.375 31.4041C107.444 31.0467 106.602 30.5106 105.936 29.8405C105.271 29.1704 104.739 28.3663 104.385 27.3835C104.03 26.4007 103.853 25.2838 103.853 24.0777C103.853 22.9161 104.03 21.844 104.385 20.8612C104.784 19.8783 105.316 19.0742 105.981 18.4041C106.69 17.734 107.488 17.1979 108.419 16.8405C109.395 16.4832 110.459 16.3045 111.611 16.3045C112.764 16.3045 113.828 16.4832 114.759 16.8405C115.69 17.1979 116.533 17.734 117.198 18.4488C117.907 19.1189 118.395 19.923 118.794 20.9058C119.193 21.8886 119.37 22.9608 119.37 24.1223ZM111.611 20.0124C110.68 20.0124 109.927 20.3697 109.395 21.0845C108.863 21.7993 108.597 22.8268 108.597 24.1223C108.597 25.5072 108.863 26.5347 109.35 27.2495C109.882 27.9642 110.636 28.277 111.611 28.277C112.587 28.277 113.34 27.9196 113.828 27.2048C114.36 26.49 114.626 25.4625 114.626 24.1223C114.626 22.8268 114.36 21.7993 113.828 21.0845C113.34 20.3697 112.587 20.0124 111.611 20.0124ZM137.725 24.1223C137.725 25.3285 137.547 26.4007 137.193 27.3835C136.838 28.3216 136.306 29.1704 135.597 29.8405C134.932 30.5106 134.134 31.0467 133.158 31.4041C132.227 31.7615 131.163 31.9402 129.966 31.9402C128.813 31.9402 127.705 31.7615 126.73 31.4041C125.799 31.0467 124.956 30.5106 124.291 29.8405C123.626 29.1704 123.094 28.3663 122.739 27.3835C122.385 26.4007 122.207 25.2838 122.207 24.0777C122.207 22.9161 122.385 21.844 122.739 20.8612C123.138 19.8783 123.67 19.0742 124.336 18.4041C125.045 17.734 125.843 17.1979 126.774 16.8405C127.749 16.4832 128.813 16.3045 129.966 16.3045C131.119 16.3045 132.183 16.4832 133.114 16.8405C134.045 17.1979 134.887 17.734 135.552 18.4488C136.262 19.1189 136.749 19.923 137.148 20.9058C137.547 21.8886 137.725 22.9608 137.725 24.1223ZM130.01 20.0124C129.079 20.0124 128.326 20.3697 127.794 21.0845C127.262 21.7993 126.996 22.8268 126.996 24.1223C126.996 25.5072 127.262 26.5347 127.749 27.2495C128.281 27.9642 129.035 28.277 130.01 28.277C130.986 28.277 131.739 27.9196 132.227 27.2048C132.759 26.49 133.025 25.4625 133.025 24.1223C133.025 22.8268 132.759 21.7993 132.227 21.0845C131.695 20.3697 130.941 20.0124 130.01 20.0124ZM149.917 23.9436L155.148 29.0811C155.06 29.9299 154.794 30.6 154.35 31.0914C153.951 31.5381 153.375 31.7615 152.577 31.7615C152.001 31.7615 151.469 31.6275 151.025 31.3148C150.582 31.0467 150.094 30.5553 149.518 29.9299L145.927 25.5966V31.4488C145.705 31.4935 145.439 31.5828 145.084 31.5828C144.73 31.6275 144.331 31.6722 143.887 31.6722C142.956 31.6722 142.335 31.5381 141.892 31.2254C141.493 30.9127 141.271 30.3319 141.271 29.4831V11.5244C141.493 11.4797 141.803 11.3904 142.158 11.3457C142.513 11.301 142.912 11.2563 143.355 11.2563C144.286 11.2563 144.907 11.3904 145.306 11.7031C145.705 12.0158 145.927 12.5966 145.927 13.4454V22.112L151.424 16.4832C152.355 16.4832 153.153 16.7065 153.685 17.1086C154.262 17.5553 154.528 18.0467 154.528 18.7168C154.528 19.2529 154.35 19.7443 153.951 20.1911C153.597 20.5931 153.02 21.1292 152.222 21.844L149.917 23.9436ZM160.38 27.8302C159.936 26.8027 159.36 25.5072 158.784 23.8543C158.207 22.2014 157.587 20.057 156.922 17.466C157.143 17.1979 157.498 16.9746 157.941 16.7959C158.385 16.5725 158.872 16.4832 159.36 16.4832C160.025 16.4832 160.513 16.6172 160.956 16.9299C161.355 17.1979 161.666 17.6893 161.887 18.4488C162.331 19.923 162.774 21.3972 163.217 22.8715C163.661 24.301 164.148 25.7752 164.592 27.2495H164.725C164.946 26.5347 165.212 25.8199 165.478 24.9711C165.744 24.1223 166.01 23.2735 166.232 22.3801C166.454 21.4866 166.675 20.5931 166.897 19.6996C167.119 18.7615 167.296 17.9127 167.473 17.0192C168.094 16.6618 168.759 16.4832 169.469 16.4832C170.134 16.4832 170.666 16.6172 171.153 16.9299C171.641 17.2426 171.863 17.6893 171.863 18.3148C171.863 19.0295 171.73 19.9677 171.464 21.1292C171.242 22.246 170.887 23.4522 170.444 24.6584C170.045 25.8646 169.557 27.1155 169.069 28.3216C168.582 29.5278 168.05 30.6 167.473 31.4935C166.321 33.4144 165.301 34.8886 164.414 35.8268C163.483 36.7649 162.597 37.2563 161.666 37.2563C160.912 37.2563 160.291 37.033 159.803 36.5416C159.316 36.0948 159.005 35.5141 158.917 34.7993C159.582 34.2185 160.247 33.5484 160.912 32.789C161.621 32.0295 162.198 31.2701 162.685 30.5106C162.331 30.4213 161.976 30.1979 161.577 29.8405C161.267 29.4832 160.823 28.813 160.38 27.8302ZM181.04 28.0983C182.104 28.0983 182.858 27.9196 183.301 27.5622C183.744 27.1601 184.01 26.7134 184.01 26.1773C184.01 25.6859 183.833 25.2838 183.478 25.0158C183.124 24.7031 182.592 24.435 181.882 24.2117L180.331 23.7203C179.488 23.4522 178.69 23.1842 178.025 22.8715C177.316 22.5588 176.739 22.1567 176.252 21.7546C175.764 21.3079 175.365 20.7718 175.099 20.1911C174.833 19.5656 174.7 18.8509 174.7 18.0021C174.7 16.3045 175.321 14.9196 176.606 13.9368C177.892 12.9539 179.71 12.4179 181.971 12.4179C182.858 12.4179 183.656 12.4625 184.365 12.5966C185.119 12.7306 185.739 12.9093 186.271 13.1773C186.803 13.4007 187.203 13.7134 187.513 14.1155C187.823 14.5175 187.956 14.9196 187.956 15.411C187.956 15.8577 187.823 16.3045 187.602 16.6618C187.38 17.0192 187.114 17.2873 186.803 17.5553C186.36 17.2426 185.739 16.9746 184.941 16.7512C184.143 16.5278 183.345 16.3938 182.414 16.3938C181.439 16.3938 180.73 16.5278 180.242 16.8405C179.754 17.1533 179.533 17.5553 179.533 18.0021C179.533 18.4041 179.666 18.7168 179.976 18.9402C180.286 19.1636 180.774 19.3423 181.395 19.5656L183.035 20.1017C183.966 20.4144 184.808 20.7718 185.518 21.1739C186.227 21.5313 186.848 21.978 187.335 22.4694C187.823 22.9161 188.178 23.4969 188.444 24.1223C188.666 24.7478 188.799 25.4179 188.799 26.222C188.799 27.0708 188.621 27.8749 188.267 28.5897C187.956 29.3045 187.469 29.8852 186.759 30.3766C186.094 30.868 185.296 31.2701 184.321 31.5828C183.39 31.8508 182.281 32.0295 180.996 32.0295C180.065 32.0295 179.222 31.9402 178.424 31.8062C177.626 31.6721 176.961 31.4488 176.34 31.1807C175.764 30.9127 175.321 30.5553 174.966 30.1533C174.656 29.7065 174.478 29.2598 174.478 28.7237C174.478 28.1876 174.611 27.6962 174.922 27.3388C175.232 26.9814 175.587 26.6687 175.986 26.4453C176.518 26.8921 177.227 27.2941 178.025 27.6515C179.089 27.9196 180.02 28.0983 181.04 28.0983ZM202.365 22.7375C202.188 23.4969 201.966 24.2563 201.744 25.0605C201.523 25.8646 201.301 26.624 201.079 27.3835C200.858 28.1429 200.636 28.813 200.459 29.4831C200.281 30.1533 200.104 30.6447 199.971 31.0467C199.439 31.5381 198.552 31.7615 197.355 31.7615C196.646 31.7615 195.981 31.6722 195.449 31.4488C194.917 31.2254 194.518 30.9574 194.34 30.5106C194.119 30.0192 193.853 29.2598 193.542 28.1876C193.232 27.1155 192.922 25.9539 192.611 24.7031C192.345 23.4522 192.035 22.1567 191.813 20.8612C191.547 19.5656 191.326 18.4041 191.193 17.4213C191.414 17.1533 191.769 16.9299 192.212 16.7512C192.656 16.5278 193.143 16.4385 193.631 16.4385C194.296 16.4385 194.784 16.5725 195.227 16.8852C195.626 17.1533 195.892 17.6893 195.981 18.4041C196.202 19.8337 196.336 21.0399 196.513 22.0673C196.69 23.0948 196.823 23.9436 196.956 24.6584C197.089 25.3732 197.178 25.9539 197.267 26.4007C197.355 26.8474 197.444 27.1601 197.488 27.4282H197.621C197.71 27.1155 197.843 26.624 197.976 25.9539C198.109 25.2838 198.331 24.5691 198.552 23.7649C198.774 22.9161 198.996 22.0227 199.262 21.0845C199.528 20.1464 199.794 19.1636 200.015 18.2254C200.37 18.0021 200.725 17.868 201.079 17.7787C201.478 17.6447 201.922 17.6 202.454 17.6C203.119 17.6 203.651 17.734 204.094 17.9574C204.537 18.1807 204.848 18.4935 204.981 18.8955C205.247 19.8337 205.513 20.7271 205.735 21.6206C205.956 22.5141 206.178 23.3182 206.4 24.0777C206.621 24.8371 206.754 25.5072 206.932 26.088C207.109 26.6687 207.198 27.1601 207.286 27.4728H207.419C207.685 25.8646 207.996 24.167 208.217 22.4247C208.483 20.6378 208.705 18.8508 208.927 17.0639C209.237 16.8852 209.592 16.7512 209.946 16.6618C210.301 16.5725 210.656 16.5278 211.055 16.5278C211.675 16.5278 212.207 16.6618 212.606 16.9746C213.05 17.2426 213.227 17.6893 213.227 18.3594C213.227 18.6722 213.183 19.1636 213.05 19.789C212.961 20.4591 212.828 21.1739 212.606 21.978C212.429 22.7821 212.252 23.6756 212.03 24.5691C211.808 25.4625 211.587 26.3113 211.365 27.1601C211.143 28.0089 210.922 28.7684 210.7 29.4385C210.478 30.1533 210.345 30.6447 210.168 31.0467C209.946 31.2701 209.592 31.4488 209.06 31.5828C208.528 31.7168 207.951 31.8062 207.375 31.8062C205.823 31.8062 204.936 31.4488 204.67 30.6893C204.537 30.2873 204.36 29.7959 204.138 29.1704C203.917 28.5897 203.739 27.9196 203.518 27.2495C203.296 26.5347 203.119 25.8199 202.897 25.0605C202.675 24.2563 202.542 23.4969 202.365 22.7375ZM222.537 28.545C222.981 28.545 223.424 28.5003 223.823 28.411C224.267 28.3216 224.621 28.1876 224.843 28.0536V25.2392L222.36 25.4625C221.695 25.5072 221.207 25.6859 220.764 25.9093C220.365 26.1326 220.188 26.49 220.188 26.9368C220.188 27.4282 220.365 27.8302 220.72 28.0983C221.074 28.3663 221.695 28.545 222.537 28.545ZM222.36 16.3491C223.424 16.3491 224.355 16.4832 225.198 16.7065C226.084 16.9299 226.794 17.2426 227.414 17.6893C228.035 18.1361 228.478 18.7168 228.789 19.3869C229.143 20.1017 229.321 20.9058 229.321 21.844V28.7684C229.321 29.3045 229.188 29.7065 228.877 30.0639C228.611 30.3766 228.301 30.6447 227.902 30.868C227.281 31.2701 226.528 31.5381 225.597 31.7615C224.666 31.9849 223.646 32.0742 222.493 32.0742C220.409 32.0742 218.769 31.6722 217.528 30.868C216.286 30.0639 215.666 28.813 215.666 27.1601C215.666 25.7752 216.065 24.7031 216.907 23.9436C217.749 23.2289 218.991 22.7374 220.72 22.5588L224.754 22.112V21.7546C224.754 21.0845 224.488 20.6378 223.956 20.3251C223.424 20.0124 222.67 19.8783 221.695 19.8783C220.941 19.8783 220.188 19.9677 219.434 20.1464C218.725 20.3251 218.06 20.5484 217.439 20.7718C217.217 20.5931 216.996 20.3698 216.818 20.057C216.641 19.6996 216.597 19.3423 216.597 18.9402C216.597 18.0467 217.04 17.4213 217.971 17.0192C218.547 16.7959 219.257 16.6172 220.01 16.5278C220.853 16.3938 221.606 16.3491 222.36 16.3491ZM240.803 31.9402C240.271 31.9402 239.784 31.8955 239.34 31.8062C238.897 31.7168 238.498 31.6275 238.143 31.4488V36.9436C237.922 36.9883 237.656 37.0777 237.301 37.1223C236.946 37.167 236.547 37.2117 236.104 37.2117C235.173 37.2117 234.552 37.0777 234.153 36.7649C233.754 36.4522 233.533 35.8715 233.533 35.0227V19.8783C233.533 19.3423 233.666 18.9402 233.887 18.5828C234.109 18.2254 234.419 17.9127 234.818 17.6447C235.439 17.2426 236.193 16.9299 237.168 16.7065C238.099 16.4385 239.163 16.3045 240.316 16.3045C241.469 16.3045 242.577 16.4385 243.552 16.7512C244.528 17.0192 245.414 17.5106 246.124 18.1361C246.833 18.7615 247.365 19.5656 247.764 20.5484C248.163 21.5313 248.385 22.6928 248.385 24.033C248.385 25.3285 248.207 26.4453 247.808 27.4728C247.454 28.4557 246.922 29.2598 246.257 29.9299C245.592 30.6 244.794 31.0914 243.907 31.4488C242.843 31.8062 241.868 31.9402 240.803 31.9402ZM240.094 28.277C241.202 28.277 242.045 27.9196 242.621 27.2495C243.242 26.5347 243.552 25.5072 243.552 24.0777C243.552 22.6481 243.242 21.5759 242.666 20.9505C242.089 20.3251 241.291 20.0124 240.271 20.0124C239.828 20.0124 239.385 20.057 239.074 20.1911C238.72 20.2804 238.409 20.4144 238.143 20.5484V27.7409C238.409 27.9196 238.72 28.0536 239.074 28.1429C239.34 28.2323 239.695 28.277 240.094 28.277Z" fill="black"/>
</svg>
