<svg xmlns="http://www.w3.org/2000/svg" viewBox="0 0 1977.23 328.1"><defs><style>.cls-1{fill:#fff;}.cls-2{fill:#ff9d00;}</style></defs><g id="Layer_2" data-name="Layer 2"><g id="Layer_1-2" data-name="Layer 1"><g id="CoinQuoraLogoFinal3"><path id="Path_33" data-name="Path 33" class="cls-1" d="M470.93,253.78q-30,0-52.86-11.6a82.7,82.7,0,0,1-35.18-33.35q-12.39-21.75-12.39-51t12.39-51a83.5,83.5,0,0,1,35.19-33.48q22.8-11.73,52.86-11.73a143.36,143.36,0,0,1,35.32,4A97.31,97.31,0,0,1,535,78v44.29a75.06,75.06,0,0,0-26.23-13.44,121.93,121.93,0,0,0-33.62-4.23q-27.16,0-41.92,14.11t-14.76,39.14q0,25.05,14.9,39.28t41.78,14.24a119.2,119.2,0,0,0,34-4.49,87.68,87.68,0,0,0,27.95-14.23v44Q512.06,253.79,470.93,253.78Zm171.88,0a104.91,104.91,0,0,1-50.49-12.13,91,91,0,0,1-35.58-33.87q-13.05-21.75-13-50a96,96,0,0,1,13-50.09,90.74,90.74,0,0,1,35.58-34,110.58,110.58,0,0,1,100.71,0,89.82,89.82,0,0,1,35.46,34,96.68,96.68,0,0,1,12.91,50.09q0,28.22-12.92,50A90.14,90.14,0,0,1,693,241.65a104.35,104.35,0,0,1-50.22,12.13Zm0-43.76a52.58,52.58,0,0,0,25.57-6.33,47.1,47.1,0,0,0,18.45-18.19,54.33,54.33,0,0,0,6.86-27.68A54.44,54.44,0,0,0,687,130.27a47.31,47.31,0,0,0-18.32-18.19,52.13,52.13,0,0,0-25.83-6.45,52.72,52.72,0,0,0-26.1,6.45,47.4,47.4,0,0,0-18.33,18.19,54.53,54.53,0,0,0-6.71,27.55,55.22,55.22,0,0,0,6.72,27.68,45.94,45.94,0,0,0,18.45,18.19,53.92,53.92,0,0,0,26,6.33Zm117-144.46h46.67V249.82H759.85Zm70.39,0h46.13l67.75,109.66V65.56h46.66V249.82H944.91l-68-109.92V249.82H830.23Z"/><path id="Path_32" data-name="Path 32" class="cls-2" d="M1119.43,249.82q-31.37,0-55.09-11.2a85.14,85.14,0,0,1-36.78-32q-13-20.82-13-49a95.89,95.89,0,0,1,13-50.09,89.82,89.82,0,0,1,35.59-33.87,111.65,111.65,0,0,1,100.71,0,88.9,88.9,0,0,1,35.46,33.87,96.76,96.76,0,0,1,12.91,50.09,70.79,70.79,0,0,1-7.52,31.24,73.13,73.13,0,0,1-18.59,24.64H1217v36.38Zm-5.8-39.8a52.62,52.62,0,0,0,25.58-6.33,47.1,47.1,0,0,0,18.45-18.19,54.32,54.32,0,0,0,6.85-27.68,54.54,54.54,0,0,0-6.72-27.55,47.37,47.37,0,0,0-18.32-18.19,52.17,52.17,0,0,0-25.84-6.45,52.75,52.75,0,0,0-26.1,6.45,47.37,47.37,0,0,0-18.32,18.19,54.54,54.54,0,0,0-6.72,27.55,55.22,55.22,0,0,0,6.72,27.68,46,46,0,0,0,18.46,18.19A53.86,53.86,0,0,0,1113.63,210ZM1314,253.78q-41.65,0-62.74-22.28t-21.09-58.92v-107h46.66V173.11q0,18.45,9.89,27.94t27.28,9.49q17.4,0,27.16-9.49t9.76-27.94V65.56h46.66v107q0,36.91-21,59.06T1314,253.78Zm199.82,0a104.94,104.94,0,0,1-50.49-12.13,91,91,0,0,1-35.59-33.87q-13-21.75-13-50a95.93,95.93,0,0,1,13-50.09,90.76,90.76,0,0,1,35.59-34,110.58,110.58,0,0,1,100.71,0,89.73,89.73,0,0,1,35.45,34,96.59,96.59,0,0,1,12.91,50.09q0,28.22-12.92,50A90.07,90.07,0,0,1,1564,241.65,104.35,104.35,0,0,1,1513.8,253.78Zm0-43.76a52.58,52.58,0,0,0,25.57-6.33,47,47,0,0,0,18.45-18.19,54.33,54.33,0,0,0,6.86-27.68,54.54,54.54,0,0,0-6.72-27.55,47.44,47.44,0,0,0-18.32-18.19,52.17,52.17,0,0,0-25.84-6.45,52.75,52.75,0,0,0-26.1,6.45,47.44,47.44,0,0,0-18.32,18.19,54.54,54.54,0,0,0-6.72,27.55,55.22,55.22,0,0,0,6.72,27.68,46,46,0,0,0,18.46,18.19,53.86,53.86,0,0,0,26,6.33Zm117-144.46h82.78q32.43,0,50.75,16.34t18.32,46.92q0,20.57-9,35.07a54.5,54.5,0,0,1-25.3,21.61l32.68,64.32h-48l-29.26-57.73H1677.5v57.73h-46.66Zm74.61,87.25q14,0,21.61-5.4t7.65-18.59q0-13.71-7.52-18.85t-21.74-5.13h-27.94v48Zm152.36-87.25h45.87l73.55,184.26h-47.71l-14.77-38h-68l-14.76,38h-48ZM1903.16,176l-22.41-62L1858.08,176Z"/><path id="Subtraction_49" data-name="Subtraction 49" class="cls-2" d="M162.23,328.1a159.81,159.81,0,0,1-63.15-12.89,161.7,161.7,0,0,1-51.56-35.16A165.68,165.68,0,0,1,12.75,100.19,163.61,163.61,0,0,1,47.52,48.05a160.9,160.9,0,0,1,229.42,0,165.17,165.17,0,0,1,9.12,222l-49.26.06A131.44,131.44,0,0,0,253,71.93a127,127,0,0,0-181.49,0A132,132,0,0,0,44,214.76a130.21,130.21,0,0,0,27.5,41.41,127.92,127.92,0,0,0,40.8,27.92,125.9,125.9,0,0,0,49.94,10.23c.93,0,1.7,0,2.42,0v0l96.16,0A160.35,160.35,0,0,1,162.23,328.1Zm0-57.9a101.89,101.89,0,0,1-40.52-8.34,104,104,0,0,1-33.1-22.75A106.07,106.07,0,0,1,66.3,205.37a108.42,108.42,0,0,1,0-82.64A106.07,106.07,0,0,1,88.61,89a103.82,103.82,0,0,1,33.1-22.75,102.63,102.63,0,0,1,81.05,0A103.67,103.67,0,0,1,235.85,89a105.79,105.79,0,0,1,22.31,33.74,108.42,108.42,0,0,1,0,82.64,105.9,105.9,0,0,1-22.31,33.74,103.83,103.83,0,0,1-33.09,22.75A102,102,0,0,1,162.23,270.2ZM161,82a77.6,77.6,0,0,0-31,6.42A79.46,79.46,0,0,0,104.61,106a81.56,81.56,0,0,0-17.09,26,83.92,83.92,0,0,0,0,63.62,81.67,81.67,0,0,0,17.09,26,79.74,79.74,0,0,0,25.33,17.52,78.22,78.22,0,0,0,62.07,0,79.67,79.67,0,0,0,25.34-17.52l0,0,0,0-16.83-17,0,0,0,.05a54.71,54.71,0,0,1-77.35,1.74q-.9-.85-1.74-1.74a59,59,0,0,1,0-81.6,54.71,54.71,0,0,1,77.36-1.72c.59.56,1.16,1.14,1.73,1.72l0,0,0,0,16.83-17,0,0,0,0A79.48,79.48,0,0,0,192,88.47,77.38,77.38,0,0,0,161,82Z"/></g></g></g></svg>