<svg xmlns="http://www.w3.org/2000/svg" width="129" height="30" viewBox="0 0 129 30" fill="none"><g clip-path="url(#clip0_2_7126)"><path d="M25.9733 25.2265C25.2926 25.9592 24.5393 26.621 23.7251 27.2018C21.1826 29.0254 18.132 30.0056 15.0031 30.0043C12.3319 30.0041 9.70915 29.2907 7.40588 27.9378C5.10262 26.5849 3.20236 24.6416 1.90141 22.3086C0.600462 19.9756 -0.0539796 17.3376 0.00569849 14.667C0.0653766 11.9965 0.83701 9.39033 2.24088 7.11777C2.30964 7.00526 2.3784 6.90941 2.44924 6.78856L2.6576 6.4656C2.91597 6.09055 3.19379 5.72939 3.49105 5.38212L3.66816 5.17375C3.69508 5.13852 3.72432 5.10511 3.75567 5.07374C3.82026 4.99665 3.88694 4.92372 3.96403 4.85079L4.04113 4.76953L6.2081 7.81787L6.2331 7.85538C6.18309 7.9158 6.13308 7.98039 6.08724 8.0429C6.03624 8.10247 5.98892 8.16509 5.94556 8.23043C4.32668 10.3904 3.53419 13.0584 3.71142 15.7518C3.88864 18.4453 5.02388 20.9865 6.91182 22.9157C8.79976 24.8449 11.3157 26.0348 14.0048 26.2703C16.6938 26.5057 19.3783 25.7711 21.5727 24.1993L20.3226 22.447L18.1827 19.4445C19.0398 18.8293 19.7022 17.981 20.0913 17.0004C20.4175 16.1712 20.5362 15.2749 20.437 14.3893C20.3378 13.5038 20.0238 12.6559 19.5223 11.9194C19.0207 11.1829 18.3469 10.5801 17.5592 10.1634C16.7716 9.74674 15.8941 9.52879 15.0031 9.52853H14.7655C13.7112 9.57354 12.693 9.9255 11.836 10.5412L9.68358 7.54492C10.5071 6.95671 11.4224 6.50892 12.3923 6.21973H12.4027C13.2463 5.96628 14.1222 5.83644 15.0031 5.83426C15.276 5.83426 15.5448 5.84676 15.8115 5.86968C17.4189 6.00999 18.9607 6.5729 20.2804 7.50132C21.6 8.42975 22.6507 9.69067 23.3258 11.1562C24.0009 12.6217 24.2765 14.2397 24.1245 15.8461C23.9725 17.4525 23.3984 18.9901 22.4604 20.3029L23.7689 22.1344L25.9733 25.2265Z" fill="#0059FF"></path><path fill-rule="evenodd" clip-rule="evenodd" d="M18.1734 19.4326C17.5918 19.8655 16.9297 20.1781 16.2259 20.352C15.522 20.526 14.7905 20.5578 14.0742 20.4456C13.3579 20.3335 12.6712 20.0796 12.0542 19.6989C11.4372 19.3181 10.9023 18.8182 10.4808 18.2282C10.0593 17.6383 9.75975 16.9702 9.59958 16.2631C9.4394 15.556 9.42185 14.824 9.54795 14.11C9.67405 13.396 9.94128 12.7144 10.334 12.1049C10.7267 11.4955 11.237 10.9704 11.8351 10.5605L18.1734 19.4326Z" fill="#04254E"></path><path d="M43.8255 16.4228L45.8403 17.9064C44.5297 19.6566 42.9878 20.4192 41.2834 20.4192C40.5596 20.4334 39.8403 20.3031 39.1674 20.0359C38.4946 19.7687 37.8818 19.37 37.3649 18.8631C36.848 18.3562 36.4374 17.7513 36.1571 17.0839C35.8768 16.4164 35.7324 15.6997 35.7324 14.9758C35.7324 14.2518 35.8768 13.5351 36.1571 12.8677C36.4374 12.2002 36.848 11.5953 37.3649 11.0884C37.8818 10.5816 38.4946 10.1829 39.1674 9.91566C39.8403 9.64846 40.5596 9.51813 41.2834 9.53229C43.017 9.53229 44.5881 10.3407 45.8966 12.0889L43.8546 13.587C43.0316 12.4848 42.1877 12.0451 41.2834 12.0451C40.5081 12.0451 39.7646 12.3531 39.2163 12.9014C38.6681 13.4496 38.3601 14.1932 38.3601 14.9685C38.3601 15.7438 38.6681 16.4873 39.2163 17.0356C39.7646 17.5838 40.5081 17.8918 41.2834 17.8918C42.194 17.8918 43.0024 17.5021 43.8255 16.4228Z" fill="#04254E"></path><path d="M49.4813 13.9259C50.1521 13.5916 50.8926 13.4209 51.642 13.4279L51.069 15.7491C50.2023 15.7491 49.4813 16.1887 49.4813 16.7326V20.2747H47.1602V13.5446H49.4813V13.9259Z" fill="#04254E"></path><path d="M53.5372 23.3755L55.052 19.6437L52.5684 13.5449H54.9041L56.2126 16.7183L57.4899 13.5449H59.8277L55.8417 23.3755H53.5372Z" fill="#04254E"></path><path d="M67.9088 16.9093C67.9086 17.8401 67.54 18.733 66.8836 19.393C66.5583 19.714 66.1726 19.9675 65.7489 20.1388C65.3251 20.3101 64.8716 20.3958 64.4145 20.391C63.9888 20.3787 63.5777 20.233 63.2394 19.9743V23.3831H60.9141V13.5442H63.2352V13.8526C63.5711 13.5894 63.9837 13.4431 64.4104 13.4359C64.8676 13.4294 65.3215 13.5135 65.746 13.6834C66.1705 13.8533 66.5571 14.1055 66.8836 14.4256C67.54 15.0856 67.9086 15.9785 67.9088 16.9093ZM65.5876 16.9093C65.5852 16.677 65.514 16.4506 65.3832 16.2587C65.2523 16.0667 65.0676 15.9178 64.8523 15.8306C64.637 15.7434 64.4007 15.7219 64.1731 15.7687C63.9456 15.8155 63.737 15.9286 63.5736 16.0938C63.4102 16.2589 63.2993 16.4687 63.2549 16.6967C63.2105 16.9247 63.2345 17.1608 63.324 17.3751C63.4135 17.5895 63.5643 17.7727 63.7577 17.9015C63.951 18.0303 64.1781 18.099 64.4104 18.099C64.5658 18.0982 64.7195 18.0668 64.8628 18.0066C65.0061 17.9463 65.1361 17.8585 65.2454 17.748C65.3547 17.6375 65.4412 17.5066 65.4999 17.3627C65.5587 17.2188 65.5885 17.0647 65.5876 16.9093Z" fill="#04254E"></path><path d="M69.4374 17.8192V15.7044H68.6289V13.5437H69.4374V11.4434H71.7585V13.5437H73.4358V15.7044H71.7585V17.788C71.7526 17.8371 71.7664 17.8866 71.7968 17.9257C71.8273 17.9647 71.8719 17.9901 71.921 17.9964H73.3316L73.9338 20.2738H71.8856C71.5633 20.2749 71.2439 20.2121 70.9459 20.089C70.648 19.966 70.3774 19.7852 70.1497 19.5569C69.9221 19.3287 69.7419 19.0576 69.6197 18.7594C69.4974 18.4611 69.4354 18.1416 69.4374 17.8192Z" fill="#04254E"></path><path d="M81.649 16.9086C81.6477 17.84 81.2776 18.7329 80.6197 19.3922C79.9682 20.0419 79.0853 20.4062 78.1652 20.4049C77.6998 20.4162 77.2369 20.3344 76.8036 20.1642C76.3704 19.994 75.9755 19.7388 75.6424 19.4137C75.3092 19.0886 75.0445 18.7001 74.8637 18.2711C74.683 17.8421 74.5898 17.3813 74.5898 16.9158C74.5898 16.4504 74.683 15.9896 74.8637 15.5606C75.0445 15.1316 75.3092 14.7431 75.6424 14.418C75.9755 14.0929 76.3704 13.8377 76.8036 13.6675C77.2369 13.4973 77.6998 13.4155 78.1652 13.4268C78.6199 13.4235 79.0707 13.5099 79.4919 13.6812C79.9131 13.8524 80.2964 14.1052 80.6197 14.4249C81.2776 15.0842 81.6477 15.9772 81.649 16.9086ZM79.3258 16.9086C79.313 16.6074 79.1844 16.3227 78.9668 16.1141C78.7492 15.9055 78.4594 15.789 78.1579 15.789C77.8564 15.789 77.5666 15.9055 77.349 16.1141C77.1313 16.3227 77.0027 16.6074 76.99 16.9086C76.9834 17.0661 77.0086 17.2233 77.0643 17.3708C77.12 17.5183 77.205 17.653 77.3141 17.7668C77.4232 17.8806 77.5542 17.9712 77.6992 18.033C77.8442 18.0949 78.0002 18.1268 78.1579 18.1268C78.3155 18.1268 78.4716 18.0949 78.6166 18.033C78.7616 17.9712 78.8926 17.8806 79.0017 17.7668C79.1108 17.653 79.1958 17.5183 79.2514 17.3708C79.3071 17.2233 79.3324 17.0661 79.3258 16.9086Z" fill="#04254E"></path><path d="M89.8326 16.9091C89.8322 17.8407 89.462 18.734 88.8033 19.3928C88.4782 19.7136 88.0929 19.967 87.6695 20.1383C87.2461 20.3096 86.793 20.3954 86.3363 20.3908C85.9099 20.379 85.498 20.2332 85.159 19.9741V23.3829H82.8379V13.5441H85.159V13.8524C85.4957 13.5892 85.909 13.4429 86.3363 13.4357C86.793 13.4312 87.2461 13.517 87.6695 13.6883C88.0929 13.8596 88.4782 14.1129 88.8033 14.4338C89.4599 15.0905 89.83 15.9804 89.8326 16.9091ZM87.5115 16.9091C87.509 16.6767 87.4378 16.4503 87.3069 16.2583C87.1759 16.0663 86.9911 15.9174 86.7756 15.8302C86.5602 15.7431 86.3238 15.7217 86.0962 15.7687C85.8686 15.8157 85.66 15.929 85.4967 16.0943C85.3334 16.2597 85.2227 16.4696 85.1785 16.6978C85.1343 16.9259 85.1586 17.1621 85.2484 17.3764C85.3382 17.5908 85.4894 17.7737 85.683 17.9023C85.8766 18.0309 86.1039 18.0993 86.3363 18.0989C86.4916 18.098 86.6453 18.0666 86.7884 18.0063C86.9316 17.9461 87.0614 17.8582 87.1706 17.7477C87.2797 17.6372 87.366 17.5062 87.4245 17.3623C87.483 17.2184 87.5126 17.0644 87.5115 16.9091Z" fill="#04254E"></path><path d="M97.768 16.9086C97.7675 17.8397 97.3981 18.7327 96.7408 19.3922C96.0889 20.0413 95.2062 20.4055 94.2863 20.4049C93.8209 20.4162 93.358 20.3344 92.9247 20.1642C92.4915 19.994 92.0966 19.7388 91.7635 19.4137C91.4303 19.0886 91.1656 18.7001 90.9848 18.2711C90.8041 17.8421 90.7109 17.3813 90.7109 16.9158C90.7109 16.4504 90.8041 15.9896 90.9848 15.5606C91.1656 15.1316 91.4303 14.7431 91.7635 14.418C92.0966 14.0929 92.4915 13.8377 92.9247 13.6675C93.358 13.4973 93.8209 13.4155 94.2863 13.4268C94.7409 13.4238 95.1917 13.5104 95.6128 13.6817C96.034 13.8529 96.4173 14.1055 96.7408 14.4249C97.3981 15.0844 97.7675 15.9774 97.768 16.9086ZM95.4469 16.9086C95.4341 16.6074 95.3055 16.3227 95.0879 16.1141C94.8703 15.9055 94.5805 15.789 94.279 15.789C93.9775 15.789 93.6877 15.9055 93.4701 16.1141C93.2524 16.3227 93.1238 16.6074 93.1111 16.9086C93.1045 17.0661 93.1297 17.2233 93.1854 17.3708C93.2411 17.5183 93.3261 17.653 93.4352 17.7668C93.5443 17.8806 93.6753 17.9712 93.8203 18.033C93.9653 18.0949 94.1213 18.1268 94.279 18.1268C94.4366 18.1268 94.5927 18.0949 94.7377 18.033C94.8827 17.9712 95.0137 17.8806 95.1228 17.7668C95.2319 17.653 95.3169 17.5183 95.3725 17.3708C95.4282 17.2233 95.4535 17.0661 95.4469 16.9086Z" fill="#04254E"></path><path d="M99.0918 20.2741V9.50391H101.43V20.2741H99.0918Z" fill="#04254E"></path><path d="M103.484 11.3114C103.484 11.1377 103.518 10.9655 103.584 10.8049C103.65 10.6442 103.747 10.4983 103.87 10.3753C103.993 10.2524 104.139 10.1549 104.299 10.0885C104.46 10.0221 104.632 9.98801 104.805 9.98828C105.156 9.98828 105.493 10.1277 105.741 10.3758C105.989 10.6239 106.129 10.9605 106.129 11.3114C106.129 11.6623 105.989 11.9988 105.741 12.247C105.493 12.4951 105.156 12.6345 104.805 12.6345C104.632 12.635 104.459 12.6012 104.299 12.5349C104.138 12.4685 103.992 12.3711 103.869 12.2481C103.747 12.1251 103.649 11.979 103.583 11.8182C103.517 11.6574 103.484 11.4852 103.484 11.3114ZM103.647 13.545H105.968V20.2751H103.647V13.545Z" fill="#04254E"></path><path d="M108.406 17.8192V15.7044H107.6V13.5437H108.406V11.4434H110.729V13.5437H112.396V15.7044H110.729V17.788C110.723 17.8368 110.737 17.886 110.767 17.925C110.797 17.964 110.841 17.9896 110.89 17.9964H112.307L112.909 20.2738H110.867C110.543 20.2765 110.223 20.215 109.923 20.0927C109.624 19.9704 109.352 19.7898 109.123 19.5614C108.894 19.333 108.713 19.0614 108.589 18.7623C108.466 18.4632 108.404 18.1426 108.406 17.8192Z" fill="#04254E"></path><path d="M118.283 13.8534V13.545H120.619V20.2751H118.283V19.9667C117.959 20.243 117.546 20.3912 117.12 20.3834C116.663 20.3834 116.21 20.2934 115.788 20.1184C115.366 19.9434 114.982 19.687 114.658 19.3637C114.335 19.0403 114.079 18.6565 113.904 18.2341C113.729 17.8117 113.639 17.3589 113.639 16.9017C113.639 16.4445 113.729 15.9917 113.904 15.5693C114.079 15.1469 114.335 14.7631 114.658 14.4397C114.982 14.1164 115.366 13.86 115.788 13.685C116.21 13.51 116.663 13.42 117.12 13.42C117.548 13.4168 117.962 13.5711 118.283 13.8534ZM118.283 16.91C118.279 16.6795 118.207 16.4554 118.076 16.2658C117.944 16.0762 117.76 15.9296 117.546 15.8445C117.331 15.7594 117.097 15.7396 116.871 15.7875C116.646 15.8355 116.439 15.949 116.278 16.1139C116.117 16.2788 116.008 16.4877 115.966 16.7142C115.923 16.9408 115.948 17.1749 116.038 17.3872C116.128 17.5995 116.279 17.7804 116.472 17.9072C116.664 18.034 116.89 18.101 117.12 18.0998C117.432 18.0954 117.729 17.9678 117.947 17.7448C118.165 17.5219 118.286 17.2217 118.283 16.91Z" fill="#04254E"></path><path d="M127.788 14.3962C128.395 15.0101 128.734 15.8396 128.73 16.7028V20.2741H126.409V16.7028C126.409 16.4513 126.309 16.2102 126.131 16.0324C125.953 15.8546 125.712 15.7547 125.461 15.7547C125.209 15.7547 124.968 15.8546 124.79 16.0324C124.613 16.2102 124.513 16.4513 124.513 16.7028V20.2741H122.189V13.544H124.513V13.8524C124.629 13.5732 125.138 13.4357 125.467 13.4357C125.897 13.4321 126.323 13.5135 126.721 13.6751C127.12 13.8367 127.482 14.0754 127.788 14.3775V14.3962Z" fill="#04254E"></path><path fill-rule="evenodd" clip-rule="evenodd" d="M29.9994 15.0007C29.9994 17.7299 29.2702 20.3965 27.8535 22.7299L25.4368 19.334C26.3118 17.2507 26.541 14.9382 26.0827 12.709C26.0618 12.6465 26.0618 12.5632 26.041 12.5007V12.4799C26.0202 12.3965 25.9993 12.334 25.9785 12.2507C25.9577 12.1674 25.9577 12.1257 25.9368 12.0632C25.8952 11.9174 25.8535 11.7924 25.8118 11.6465C25.8118 11.6049 25.791 11.5632 25.7702 11.5215C25.7702 11.5007 25.7493 11.4799 25.7493 11.459C25.7077 11.334 25.666 11.209 25.6243 11.084C25.6035 11.0007 25.5618 10.9174 25.5202 10.834C25.4785 10.7507 25.4577 10.6674 25.416 10.584C25.3743 10.5007 25.3535 10.4174 25.3118 10.334C25.2285 10.1674 25.166 10.0007 25.0827 9.83404C25.041 9.77154 25.0202 9.68821 24.9785 9.62571L24.9577 9.60488C24.9577 9.60488 24.9577 9.60488 24.9577 9.58404C24.916 9.50071 24.8743 9.43821 24.8327 9.35488C24.791 9.27154 24.7493 9.18821 24.6868 9.12571C24.5827 8.95904 24.4785 8.79238 24.3743 8.62571C23.7702 7.72988 23.041 6.93821 22.2285 6.27154L22.041 6.10488L21.791 5.91738C21.7285 5.85488 21.6452 5.81321 21.5619 5.75071C21.4785 5.68821 21.416 5.64654 21.3535 5.60488C21.2702 5.54238 21.1869 5.50071 21.1035 5.43821C21.0202 5.37571 20.9785 5.35488 20.9369 5.33404C20.8952 5.31321 20.8327 5.27154 20.7702 5.22988C17.8327 3.50071 14.291 3.18821 11.1035 4.35488C10.2702 4.66738 8.52018 5.70904 8.45768 5.75071L6.29102 2.79238L6.58268 2.60488C7.31185 2.10488 8.08268 1.66738 8.87435 1.31321C13.041 -0.56179 17.8119 -0.415957 21.8744 1.66738C22.0202 1.72988 22.166 1.81321 22.291 1.89654C22.3535 1.93821 22.4368 1.97988 22.4993 2.02154L22.6868 2.14654C22.7493 2.18821 22.8119 2.22988 22.8744 2.27154C23.0202 2.35488 23.1452 2.43821 23.291 2.52154L23.4577 2.62571C23.541 2.66738 23.6035 2.72988 23.6868 2.79238C23.7702 2.85488 23.8535 2.89654 23.916 2.95904L24.041 3.06321L24.2493 3.22988C24.4368 3.37571 24.6243 3.54238 24.8118 3.68821C24.9993 3.83404 25.166 4.00071 25.3535 4.16738L25.6035 4.41738C25.6868 4.50071 25.7702 4.58404 25.8535 4.66738C26.0202 4.83404 26.166 5.00071 26.3119 5.16738L26.4993 5.39654C26.5618 5.47988 26.6244 5.54238 26.6869 5.62571C26.7494 5.70904 26.791 5.75071 26.8327 5.81321C26.8744 5.87571 26.9369 5.93821 26.9785 6.00071L27.1243 6.18821C27.1868 6.27154 27.2494 6.35488 27.291 6.43821C27.3327 6.52154 27.416 6.60488 27.4577 6.68821C27.4785 6.72988 27.5202 6.77154 27.541 6.81321C27.5618 6.85488 27.6035 6.89654 27.6244 6.93821L27.7493 7.14654C27.8118 7.25071 27.8744 7.35488 27.9369 7.45904L28.0618 7.68821L28.1869 7.91738C28.1869 7.91738 28.1868 7.93821 28.2077 7.93821L28.2285 7.95904C28.2285 7.95904 28.2285 7.97988 28.2494 7.97988C28.2494 7.97988 28.2493 8.00071 28.2702 8.00071L28.3952 8.22988L28.416 8.25071C28.4577 8.33404 28.4994 8.41738 28.541 8.52154C28.5827 8.62571 28.6244 8.70904 28.666 8.81321L28.7702 9.06321L28.8744 9.29238L28.9577 9.50071C28.9994 9.60488 29.041 9.68821 29.0619 9.77154C29.0827 9.79238 29.0827 9.81321 29.0827 9.85488C29.1244 9.95904 29.166 10.0632 29.1869 10.1674C29.2702 10.3965 29.3327 10.6257 29.3952 10.8757C29.416 10.9799 29.4577 11.1049 29.4785 11.209V11.2507C29.541 11.5007 29.6035 11.7299 29.6452 11.9799C29.666 12.1049 29.6869 12.2299 29.7077 12.334C29.7077 12.3549 29.7077 12.3757 29.7077 12.3757C29.7285 12.4799 29.7493 12.584 29.7702 12.6882L29.8119 13.0424V13.0632C29.8327 13.1882 29.8327 13.3132 29.8535 13.4382C29.8744 13.6674 29.8952 13.8965 29.916 14.1465C29.9994 14.4382 29.9994 14.709 29.9994 15.0007Z" fill="#04254E"></path><path d="M25.9583 25.2298C25.2708 25.959 24.5208 26.6257 23.7083 27.209C21.1875 29.0215 18.125 30.0007 15 30.0007C6.70833 30.0007 0 23.2923 0 15.0007C0 12.209 0.770833 9.47982 2.22917 7.12565C2.29167 7.02148 2.375 6.91732 2.4375 6.79232L2.64583 6.47982C2.89583 6.10482 3.1875 5.75065 3.47917 5.39648L3.66667 5.18815C3.6875 5.14648 3.72917 5.12565 3.75 5.08398C3.8125 5.00065 3.875 4.93815 3.95833 4.85482L4.04167 4.77148L6.20833 7.81315L6.22917 7.85482C6.1875 7.91732 6.125 7.97982 6.08333 8.04232C6.04167 8.10482 5.97917 8.16732 5.9375 8.22982C2.1875 13.2298 3.20833 20.3132 8.20833 24.0423C12.1458 27.0007 17.5625 27.0632 21.5625 24.1882L20.3125 22.4382L18.1875 19.4382C19.0417 18.8132 19.7083 17.9798 20.1042 17.0007C21.2083 14.1882 19.8333 11.0215 17.0208 9.91732C16.375 9.66732 15.7083 9.54232 15.0208 9.54232H14.7917C13.7292 9.58398 12.7292 9.93815 11.8542 10.5632L9.6875 7.54232C10.5208 6.95898 11.4167 6.50065 12.3958 6.20898C13.2292 5.95898 14.125 5.83398 15 5.83398C15.2708 5.83398 15.5417 5.85482 15.8125 5.87565C20.8542 6.31315 24.5625 10.7507 24.125 15.7923C23.9792 17.4173 23.3958 18.9798 22.4583 20.3132L23.7708 22.1465L25.9583 25.2298Z" fill="#0059FF"></path><path fill-rule="evenodd" clip-rule="evenodd" d="M18.1659 19.4375C15.7492 21.2292 12.3326 20.7292 10.5409 18.3125C8.74925 15.8958 9.24925 12.4792 11.6659 10.6875C11.7284 10.6458 11.7909 10.6042 11.8326 10.5625L18.1659 19.4375Z" fill="#04254E"></path><path d="M43.8124 16.418L45.8332 17.8971C44.5207 19.6471 42.9791 20.418 41.2707 20.418C38.2707 20.4805 35.7707 18.0846 35.7291 15.0846C35.6874 12.0846 38.0624 9.58464 41.0624 9.54297C41.1249 9.54297 41.2082 9.54297 41.2707 9.54297C42.9999 9.54297 44.5832 10.3555 45.8749 12.1055L43.8332 13.6055C43.0207 12.5013 42.1666 12.0638 41.2707 12.0638C39.6666 12.0638 38.3541 13.3763 38.3541 14.9805C38.3541 16.5846 39.6666 17.8971 41.2707 17.8971C42.1874 17.8971 42.9999 17.5013 43.8124 16.418Z" fill="#04254E"></path><path d="M49.4792 13.918C50.1458 13.5846 50.8958 13.418 51.6458 13.418L51.0833 15.7305C50.2083 15.7305 49.5 16.168 49.5 16.7096V20.2513H47.1875V13.543H49.5V13.918H49.4792Z" fill="#04254E"></path><path d="M53.5208 23.3763L55.0417 19.6471L52.5625 13.543H54.8958L56.2083 16.7096L57.4792 13.543H59.8125L55.8333 23.3763H53.5208Z" fill="#04254E"></path><path d="M67.8965 16.8967C67.8965 17.8342 67.5215 18.73 66.8757 19.3759C66.209 20.0217 65.334 20.3759 64.3965 20.3759C63.9798 20.355 63.5632 20.2092 63.2298 19.9592V23.3759H60.8965V13.5425H63.209V13.855C63.5423 13.5842 63.959 13.4384 64.3757 13.4384C65.2923 13.4175 66.1882 13.7717 66.8548 14.4384C67.5215 15.0842 67.8965 15.98 67.8965 16.8967ZM65.584 16.8967C65.584 16.2509 65.0423 15.73 64.3965 15.73C63.7507 15.73 63.2298 16.2717 63.2298 16.9175C63.2298 17.5634 63.7715 18.0842 64.3965 18.0842C65.0632 18.0842 65.584 17.5634 65.584 16.8967Z" fill="#04254E"></path><path d="M69.416 17.8125V15.7083H68.6035V13.5417H69.416V11.4375H71.7285V13.5417H73.3952V15.7083H71.7285V17.7917C71.7077 17.8958 71.791 17.9792 71.8952 18H73.3119L73.916 20.2708H71.8744C70.5202 20.2708 69.4369 19.1875 69.416 17.8333C69.416 17.8333 69.416 17.8333 69.416 17.8125Z" fill="#04254E"></path><path d="M81.6454 16.8971C81.6454 17.8346 81.2704 18.7305 80.6245 19.3763C79.9787 20.0221 79.0829 20.3971 78.1662 20.3971C76.2495 20.4388 74.6454 18.918 74.5829 17.0013C74.5412 15.0846 76.062 13.4805 77.9787 13.418C78.0412 13.418 78.0829 13.418 78.1454 13.418C79.062 13.418 79.937 13.7721 80.6037 14.418C81.2704 15.0846 81.6245 15.9805 81.6454 16.8971ZM79.312 16.8971C79.2912 16.2513 78.7495 15.7513 78.1037 15.7721C77.4995 15.793 77.0204 16.293 76.9787 16.8971C76.9579 17.543 77.4579 18.0846 78.1037 18.1055C78.7495 18.1263 79.2912 17.6263 79.312 16.9805C79.312 16.9805 79.312 16.9388 79.312 16.8971Z" fill="#04254E"></path><path d="M89.8119 16.8958C89.8119 17.8333 89.4369 18.7292 88.791 19.375C88.1244 20.0208 87.2493 20.375 86.3327 20.375C85.916 20.3542 85.4993 20.2083 85.166 19.9583V23.375H82.8535V13.5417H85.166V13.8542C85.4993 13.5833 85.916 13.4375 86.3327 13.4375C87.2493 13.4375 88.1452 13.7917 88.791 14.4375C89.4369 15.0833 89.8119 15.9792 89.8119 16.8958ZM87.4993 16.8958C87.4993 16.25 86.9577 15.7292 86.3118 15.7292C85.666 15.7292 85.1452 16.2708 85.1452 16.9167C85.1452 17.5625 85.6868 18.0833 86.3327 18.0833C86.9785 18.0833 87.4993 17.5625 87.4993 16.8958C87.4993 16.9167 87.4993 16.8958 87.4993 16.8958Z" fill="#04254E"></path><path d="M97.7509 16.8971C97.7509 17.8346 97.3759 18.7305 96.73 19.3763C96.0842 20.0221 95.1884 20.3971 94.2717 20.3971C92.355 20.4388 90.7508 18.918 90.6883 17.0013C90.6467 15.0846 92.1675 13.4805 94.0842 13.418C94.1467 13.418 94.1883 13.418 94.2508 13.418C95.1675 13.418 96.0425 13.7721 96.7092 14.418C97.3759 15.0846 97.7509 15.9805 97.7509 16.8971ZM95.4384 16.8971C95.4175 16.2513 94.8758 15.7513 94.23 15.7721C93.6258 15.793 93.1467 16.293 93.105 16.8971C93.0842 17.543 93.5842 18.0846 94.23 18.1055C94.8758 18.1263 95.4175 17.6263 95.4384 16.9805C95.4384 16.9805 95.4384 16.9388 95.4384 16.8971Z" fill="#04254E"></path><path d="M99.084 20.2708V9.5H101.417V20.2708H99.084Z" fill="#04254E"></path><path d="M103.479 11.3125C103.479 10.5833 104.062 10 104.791 10C105.52 10 106.124 10.5833 106.124 11.3125C106.124 12.0417 105.541 12.6458 104.791 12.6458C104.062 12.625 103.479 12.0417 103.479 11.3125ZM103.624 13.5417H105.937V20.2708H103.624V13.5417Z" fill="#04254E"></path><path d="M108.396 17.8125V15.7083H107.584V13.5417H108.396V11.4375H110.73V13.5417H112.396V15.7083H110.73V17.7917C110.709 17.8958 110.792 17.9792 110.896 18H112.313L112.917 20.2708H110.876C109.521 20.2917 108.417 19.2083 108.417 17.8542C108.396 17.8333 108.396 17.8333 108.396 17.8125Z" fill="#04254E"></path><path d="M118.271 13.8555V13.543H120.604V20.2721H118.271V19.9596C117.938 20.2305 117.542 20.3763 117.104 20.3763C115.187 20.3763 113.625 18.8138 113.625 16.8971C113.625 14.9805 115.187 13.418 117.104 13.418C117.521 13.418 117.938 13.5638 118.271 13.8555ZM118.271 16.8971C118.25 16.2513 117.729 15.7305 117.083 15.7513C116.437 15.7721 115.917 16.293 115.937 16.9388C115.958 17.5846 116.479 18.0846 117.104 18.0846C117.75 18.0846 118.271 17.5638 118.271 16.8971Z" fill="#04254E"></path><path d="M127.77 14.3967C128.374 15.0009 128.708 15.8342 128.708 16.7092V20.2717H126.395V16.7092C126.395 16.1884 125.979 15.7509 125.458 15.7509C124.937 15.7509 124.499 16.1675 124.499 16.6884V20.2509H122.166V13.5425H124.499V13.855C124.624 13.5842 125.124 13.4384 125.458 13.4384C126.312 13.4175 127.145 13.7717 127.77 14.3967Z" fill="#04254E"></path></g><defs><clipPath id="clip0_2_7126"><rect width="129" height="30" fill="white"></rect></clipPath></defs></svg>