<svg width="251px" height="40px" id="Layer_1" data-name="Layer 1" xmlns:xlink="http://www.w3.org/1999/xlink" xmlns="http://www.w3.org/2000/svg" viewBox="0 0 249.99 40"><defs><style>.cls-1{fill:#111;}.cls-2{fill:#0059be;}.cls-3{fill:#ffd500;}</style></defs><g id="Group"><path id="Shape" class="cls-1" d="M80.39,20a13.64,13.64,0,0,1-.8,4.4,9.83,9.83,0,0,1-2.4,3.9,13,13,0,0,1-4,2.8,14.79,14.79,0,0,1-5.9,1.1h-10c-.8,0-1.7.1-2.5.1,0-.1-.1-.3-.1-.4v-.3c0-.3,0-.4.1-.5s.1-.1.3-.1a5.76,5.76,0,0,0,1.7-.5,1.13,1.13,0,0,0,.7-1.1v-19a1.17,1.17,0,0,0-.5-1.1,5.61,5.61,0,0,0-1.9-.5c-.3,0-.3-.1-.4-.2a4.33,4.33,0,0,1-.1-.5v-.3c0-.2,0-.3.1-.4.5,0,.9.1,1.5.1h11a18.77,18.77,0,0,1,5.6.9,12.8,12.8,0,0,1,4,2.7,11.35,11.35,0,0,1,2.5,3.9A11.94,11.94,0,0,1,80.39,20Zm-5.2.8a19,19,0,0,0-.7-5.1,8.06,8.06,0,0,0-2-3.5,7.58,7.58,0,0,0-3.2-2,15,15,0,0,0-4.4-.7h-2.4v19.3a1.7,1.7,0,0,0,.1.7l.4.4a4.71,4.71,0,0,1,.9.3c.4,0,.9.1,1.6.1,3.2,0,5.7-.8,7.2-2.5C74.39,26.17,75.19,23.77,75.19,20.77Z" transform="translate(-0.4)"/><path id="Shape-2" data-name="Shape" class="cls-1" d="M94.89,24H87l-2,5.2a.6.6,0,0,0-.1.4V30a.75.75,0,0,0,.4.7,4,4,0,0,0,1.6.4c.4,0,.5.3.5.7a2.25,2.25,0,0,1-.1.7c-.7,0-1.3-.1-2.1-.1h-3.9c-.5,0-1.2.1-1.9.1,0-.1-.1-.3-.1-.4v-.3c0-.5.1-.7.5-.8a4.94,4.94,0,0,0,1.7-.5,1.22,1.22,0,0,0,.8-.9l9.1-21.5c.3-.4.5-.7.9-.7h.8l9.2,22.4a1.09,1.09,0,0,0,.8.8c.4.1.9.3,1.3.4s.5.3.5.8a1.7,1.7,0,0,1-.1.7c-.8,0-1.6-.1-2.4-.1h-7.9c0-.1-.1-.3-.1-.4v-.3c0-.3,0-.4.1-.5l.3-.3a7.54,7.54,0,0,0,1.5-.4.75.75,0,0,0,.5-.7c0-.1,0-.4-.1-.5Zm-.8-1.8-3.2-8.5-3.3,8.5Z" transform="translate(-0.4)"/><path id="Path" class="cls-1" d="M114.09,29.57v.7a.54.54,0,0,0,.3.4,1.14,1.14,0,0,0,.7.3,7,7,0,0,1,1.2.3c.3,0,.4.3.4.7v.8c-.8,0-1.6-.1-2.5-.1h-4.8c-.9,0-1.7.1-2.5.1,0-.1-.1-.3-.1-.4V32c0-.4.1-.7.4-.7a3.5,3.5,0,0,0,1.2-.3c.3-.2.5-.1.7-.3s.3-.3.3-.4a5.64,5.64,0,0,0,.1-.7V10.67a1.7,1.7,0,0,0-.1-.7.54.54,0,0,0-.3-.4,1.14,1.14,0,0,0-.7-.3,7,7,0,0,1-1.2-.3c-.3-.1-.4-.3-.4-.7v-.4a.6.6,0,0,1,.1-.4c.8,0,1.6.1,2.5.1h4.8c.9,0,1.7-.1,2.5-.1v.8a.67.67,0,0,1-.4.7c-.3.1-.7.1-.9.3s-.5.1-.7.3-.3.3-.3.4v.7Z" transform="translate(-0.4)"/><path id="Path-2" data-name="Path" class="cls-1" d="M127.69,29.17c0,.5.4.9,1.1,1.1a19.43,19.43,0,0,0,3.3.3h1.5a2.56,2.56,0,0,0,1.6-.3,2.92,2.92,0,0,0,1.2-.7,3.45,3.45,0,0,0,.9-1.2,18.19,18.19,0,0,0,.8-1.9c.1-.3.3-.3.5-.3a.6.6,0,0,1,.4.1c.1.1.4.1.5.3a10.81,10.81,0,0,0-.5,2.7c-.1.9-.3,1.9-.4,2.8,0,.3-.1.5-.3.5a.6.6,0,0,1-.4.1h-15.5c-.9,0-1.7.1-2.5.1,0-.1-.1-.3-.1-.4V32a.67.67,0,0,1,.4-.7,11.34,11.34,0,0,0,2-.5,1,1,0,0,0,.7-1.1V11a1.7,1.7,0,0,0-.1-.7.54.54,0,0,0-.3-.4,1.14,1.14,0,0,0-.7-.3,7,7,0,0,1-1.2-.3c-.3-.1-.5-.2-.5-.6v-.4a.6.6,0,0,1,.1-.4c.8,0,1.6.1,2.5.1h6.6a5.28,5.28,0,0,0,1.3-.1v.8a.67.67,0,0,1-.4.7,3.52,3.52,0,0,0-2,.4,1.27,1.27,0,0,0-.5,1.1Z" transform="translate(-0.4)"/><path id="Path-3" data-name="Path" class="cls-1" d="M146.49,22.17l-6-11.5a2.89,2.89,0,0,0-1.1-1.1,2.54,2.54,0,0,0-1.6-.4c-.3,0-.4-.3-.4-.8v-.6c.5,0,1.2.1,2.1.1h7a3.75,3.75,0,0,0,1.1-.1,2,2,0,0,0,.1.5v.3c0,.4-.1.7-.4.7-.7.1-1.1.1-1.3.3a.51.51,0,0,0-.4.5,2,2,0,0,0,.3.8l4.4,8.8,4.4-8.1a2.38,2.38,0,0,0,.4-1.2.75.75,0,0,0-.4-.7,7.54,7.54,0,0,0-1.5-.4c-.3,0-.5-.3-.5-.7a2.64,2.64,0,0,1,.1-.7c.5,0,1.2.1,2,.1h4c.7,0,1.3-.1,2-.1,0,.1.1.3.1.4v.3c0,.4-.1.7-.4.7a5,5,0,0,0-1.9.5,1.59,1.59,0,0,0-.9.9l-6.3,11.5v7.5a1.48,1.48,0,0,0,.1.7c.1.2.3.3.4.4a1.49,1.49,0,0,0,.8.3,7.89,7.89,0,0,1,1.3.3,1,1,0,0,1,.3.1.75.75,0,0,1,.1.5v.7h-2.2c-.7,0-1.2-.1-1.9-.1h-3.2a9.7,9.7,0,0,0-1.7.1h-1.8V32c0-.3,0-.4.1-.5s.1-.1.3-.1a5,5,0,0,0,1.3-.3c.4-.2.7-.1.8-.3.3-.1.4-.3.4-.4s.1-.4.1-.7Z" transform="translate(-0.4)"/><path id="Path-4" data-name="Path" class="cls-1" d="M172.49,33a18.77,18.77,0,0,1-5.6-.9,11.29,11.29,0,0,1-3.9-2.7,12.28,12.28,0,0,1-2.3-4,16.22,16.22,0,0,1-.8-4.9,14.74,14.74,0,0,1,.8-4.5,12.27,12.27,0,0,1,2.4-4.1,10.2,10.2,0,0,1,4.1-2.9,14,14,0,0,1,6-1.2,20.16,20.16,0,0,1,3.6.3,29.81,29.81,0,0,1,3.6.8,12.07,12.07,0,0,0,.3,2.5,15.54,15.54,0,0,0,.7,3.1,1.09,1.09,0,0,0-.5.1h-.4c-.3,0-.4,0-.5-.1s-.3-.1-.3-.4a10.2,10.2,0,0,0-.9-2.1,5.12,5.12,0,0,0-1.2-1.3c-.4-.2-1.1-.5-1.7-.8a16,16,0,0,0-2.3-.3,10.48,10.48,0,0,0-3.6.7,6.59,6.59,0,0,0-2.7,2,9.08,9.08,0,0,0-1.6,3.1,12.8,12.8,0,0,0-.5,4.1,15.72,15.72,0,0,0,.7,4.5,12.08,12.08,0,0,0,1.7,3.6,7.57,7.57,0,0,0,2.7,2.4,7.88,7.88,0,0,0,3.5.9,8.07,8.07,0,0,0,2.5-.3,6.39,6.39,0,0,0,1.9-.8,6.39,6.39,0,0,0,1.3-1.5,13.39,13.39,0,0,0,1.1-2.1c.1-.3.1-.4.4-.4a.75.75,0,0,1,.5-.1h.5c.1,0,.4.1.5.1-.1.4-.3.9-.5,1.5s-.4,1.1-.5,1.6-.4,1.1-.5,1.7-.3,1.1-.4,1.6a23.48,23.48,0,0,1-3.7.5A21.23,21.23,0,0,1,172.49,33Z" transform="translate(-0.4)"/><path id="Shape-3" data-name="Shape" class="cls-1" d="M184.39,20.27a11.36,11.36,0,0,1,1.1-4.9,13.77,13.77,0,0,1,2.8-4,13.44,13.44,0,0,1,4-2.7,11.84,11.84,0,0,1,4.9-.9,14,14,0,0,1,5.1.9,11.31,11.31,0,0,1,4,2.7,13.44,13.44,0,0,1,2.7,4,12.19,12.19,0,0,1,.9,5.1,11.36,11.36,0,0,1-1.1,4.9,11.54,11.54,0,0,1-2.8,4,12.72,12.72,0,0,1-4.1,2.7,11.84,11.84,0,0,1-4.9.9,14,14,0,0,1-5.1-.9,11.31,11.31,0,0,1-4-2.7,15.64,15.64,0,0,1-2.7-4A16,16,0,0,1,184.39,20.27Zm13.2,10.8a6.1,6.1,0,0,0,2.8-.7,8,8,0,0,0,2.3-1.9,8.35,8.35,0,0,0,1.5-2.8,10.24,10.24,0,0,0,.5-3.5,18.93,18.93,0,0,0-.5-4.9,12.9,12.9,0,0,0-1.6-4,10.85,10.85,0,0,0-2.5-2.7,6.44,6.44,0,0,0-3.6-.9,5.34,5.34,0,0,0-2.5.5,5,5,0,0,0-2.1,1.7,7.87,7.87,0,0,0-1.5,2.7,10.46,10.46,0,0,0-.5,3.6,21.36,21.36,0,0,0,.5,5.2,15.25,15.25,0,0,0,1.6,4.1,8.16,8.16,0,0,0,2.5,2.7A5,5,0,0,0,197.59,31.07Z" transform="translate(-0.4)"/><path id="Path-5" data-name="Path" class="cls-1" d="M220,29.87v.7a.54.54,0,0,0,.3.4,1.49,1.49,0,0,0,.7.3,7,7,0,0,1,1.2.3c.3,0,.4.3.4.7v.8c-.8,0-1.6-.1-2.5-.1h-4.8c-.9,0-1.7.1-2.5.1,0-.1-.1-.3-.1-.4v-.4c0-.4.1-.7.4-.7a3.5,3.5,0,0,0,1.2-.3c.3-.1.5-.1.7-.3s.3-.3.3-.4a5.64,5.64,0,0,0,.1-.7V11a1.7,1.7,0,0,0-.1-.7.54.54,0,0,0-.3-.4,1.14,1.14,0,0,0-.7-.3,7,7,0,0,1-1.2-.3c-.3-.1-.4-.3-.4-.7v-.4a.6.6,0,0,1,.1-.4c.8,0,1.6.1,2.5.1h4.8c.9,0,1.7-.1,2.5-.1v.8a.67.67,0,0,1-.4.7,3.5,3.5,0,0,0-1.2.3c-.3.1-.5.1-.7.3s-.3.3-.3.4v19.6Z" transform="translate(-0.4)"/><path id="Path-6" data-name="Path" class="cls-1" d="M245.49,24.57V11.17A1.35,1.35,0,0,0,245,10a4.44,4.44,0,0,0-2-.5.67.67,0,0,1-.5-.7v-.3c0-.2,0-.3.1-.4a12.1,12.1,0,0,0,1.9.1h4.2c.5,0,1.2-.1,1.7-.1v.7c0,.4-.1.7-.4.7a4.94,4.94,0,0,0-1.7.5,1.25,1.25,0,0,0-.4,1.1v22h-1c-.1,0-.4,0-.5-.1a6.82,6.82,0,0,0-.7-.5l-15-18.9v17a.54.54,0,0,0,.3.4,1.49,1.49,0,0,0,.7.3,7,7,0,0,1,1.2.3,1,1,0,0,1,.3.1.75.75,0,0,1,.1.5,2.25,2.25,0,0,1-.1.7c-.7,0-1.2-.1-1.7-.1h-4c-.7,0-1.3.1-1.9.1,0-.1-.1-.3-.1-.4v-.3c0-.3,0-.4.1-.5s.1-.1.3-.1a9.79,9.79,0,0,0,1.9-.5,1.25,1.25,0,0,0,.4-1.1V10.77a1,1,0,0,0-.4-.9,3.79,3.79,0,0,0-1.7-.5c-.3-.1-.4-.3-.4-.7V8h5a5.76,5.76,0,0,1,1.5.1c.3,0,.4.1.7.4Z" transform="translate(-0.4)"/></g><circle id="Oval" class="cls-2" cx="3.2" cy="3.2" r="3.2"/><circle id="Oval-2" data-name="Oval" class="cls-2" cx="3.2" cy="11.6" r="3.2"/><circle id="Oval-3" data-name="Oval" class="cls-2" cx="3.2" cy="20" r="3.2"/><circle id="Oval-4" data-name="Oval" class="cls-3" cx="3.2" cy="28.4" r="3.2"/><circle id="Oval-5" data-name="Oval" class="cls-3" cx="3.2" cy="36.8" r="3.2"/><circle id="Oval-6" data-name="Oval" class="cls-2" cx="3.2" cy="3.2" r="3.2"/><circle id="Oval-7" data-name="Oval" class="cls-2" cx="3.2" cy="11.6" r="3.2"/><circle id="Oval-8" data-name="Oval" class="cls-2" cx="3.2" cy="20" r="3.2"/><circle id="Oval-9" data-name="Oval" class="cls-3" cx="3.2" cy="28.4" r="3.2"/><circle id="Oval-10" data-name="Oval" class="cls-3" cx="3.2" cy="36.8" r="3.2"/><circle id="Oval-11" data-name="Oval" class="cls-2" cx="11.6" cy="3.2" r="3.2"/><circle id="Oval-12" data-name="Oval" class="cls-2" cx="11.6" cy="11.6" r="3.2"/><circle id="Oval-13" data-name="Oval" class="cls-2" cx="11.6" cy="20" r="3.2"/><circle id="Oval-14" data-name="Oval" class="cls-3" cx="11.6" cy="28.4" r="3.2"/><circle id="Oval-15" data-name="Oval" class="cls-3" cx="11.6" cy="36.8" r="3.2"/><circle id="Oval-16" data-name="Oval" class="cls-2" cx="20" cy="3.2" r="3.2"/><circle id="Oval-17" data-name="Oval" class="cls-2" cx="20" cy="11.6" r="3.2"/><circle id="Oval-18" data-name="Oval" class="cls-2" cx="20" cy="20" r="3.2"/><circle id="Oval-19" data-name="Oval" class="cls-3" cx="20" cy="28.4" r="3.2"/><circle id="Oval-20" data-name="Oval" class="cls-2" cx="28.4" cy="11.6" r="3.2"/><circle id="Oval-21" data-name="Oval" class="cls-2" cx="28.4" cy="20" r="3.2"/><circle id="Oval-22" data-name="Oval" class="cls-3" cx="28.4" cy="28.4" r="3.2"/><circle id="Oval-23" data-name="Oval" class="cls-3" cx="20" cy="36.8" r="3.2"/><circle id="Oval-24" data-name="Oval" class="cls-1" cx="36.8" cy="36.8" r="3.2"/></svg>