<svg xmlns="http://www.w3.org/2000/svg" width="83.833" height="83.833" viewBox="0 0 83.833 83.833"><defs><style>.a{fill:#ff3ee1;}</style></defs><path class="a" d="M238.934,238.934h34.931v34.931H238.934Zm0,0" transform="translate(-190.031 -190.031)"/><path class="a" d="M41.917,76.847a34.93,34.93,0,1,1,34.93-34.93h6.987A41.917,41.917,0,1,0,41.917,83.833Zm0,0"/><path class="a" d="M96.21,117.168A20.958,20.958,0,1,1,117.168,96.21h6.987A27.945,27.945,0,1,0,96.21,124.155Zm0,0" transform="translate(-54.294 -54.294)"/><path class="a" d="M150.507,157.493a6.986,6.986,0,1,1,6.986-6.986h6.986a13.972,13.972,0,1,0-13.972,13.972Zm0,0" transform="translate(-108.59 -108.59)"/></svg>