<svg xmlns="http://www.w3.org/2000/svg" width="11.635" height="11.635" viewBox="0 0 11.635 11.635"><defs><style>.a{fill:#dafd73;}</style></defs><path class="a" d="M45.819,43.256V38.994c0-2.094-.451-3.694-2.894-3.694a2.525,2.525,0,0,0-2.283,1.251h-.029V35.489H38.3v7.767h2.414V39.4c0-1.018.189-1.993,1.44-1.993S43.4,38.558,43.4,39.46v3.781h2.414Z" transform="translate(-34.184 -31.62)"/><path class="a" d="M11.3,36.6h2.414v7.767H11.3Z" transform="translate(-11.111 -32.731)"/><path class="a" d="M11.4,10a1.4,1.4,0,1,0,1.4,1.4A1.4,1.4,0,0,0,11.4,10Z" transform="translate(-10 -10)"/></svg>