<svg xmlns="http://www.w3.org/2000/svg" width="12.534" height="10.913" viewBox="0 0 12.534 10.913"><defs><style>.a{fill:#dafd73;}</style></defs><g transform="translate(0 -19.401)"><path class="a" d="M.222,24.633,3.11,25.711l1.118,3.6a.34.34,0,0,0,.54.163l1.61-1.312a.48.48,0,0,1,.585-.016l2.9,2.108a.34.34,0,0,0,.533-.206l2.127-10.232a.34.34,0,0,0-.456-.387L.218,24A.341.341,0,0,0,.222,24.633Zm3.826.5,5.645-3.476a.1.1,0,0,1,.119.156l-4.658,4.33a.966.966,0,0,0-.3.578L4.694,27.9a.146.146,0,0,1-.285.021L3.8,25.777A.568.568,0,0,1,4.047,25.137Z" transform="translate(0 0)"/></g></svg>