<svg xmlns="http://www.w3.org/2000/svg" width="11.627" height="9.447" viewBox="0 0 11.627 9.447"><defs><style>.a{fill:#dafd73;}</style></defs><g transform="translate(0 0)"><path class="a" d="M11.627,49.118a4.97,4.97,0,0,1-1.373.376A2.37,2.37,0,0,0,11.3,48.177a4.763,4.763,0,0,1-1.511.577,2.383,2.383,0,0,0-4.123,1.63,2.454,2.454,0,0,0,.055.544A6.747,6.747,0,0,1,.809,48.435a2.384,2.384,0,0,0,.732,3.186,2.354,2.354,0,0,1-1.077-.294v.026a2.4,2.4,0,0,0,1.91,2.342,2.379,2.379,0,0,1-.625.078,2.108,2.108,0,0,1-.451-.041,2.406,2.406,0,0,0,2.227,1.66A4.789,4.789,0,0,1,.57,56.41,4.465,4.465,0,0,1,0,56.377a6.71,6.71,0,0,0,3.657,1.07,6.737,6.737,0,0,0,6.784-6.783c0-.105,0-.207-.009-.308A4.755,4.755,0,0,0,11.627,49.118Z" transform="translate(0 -48)"/></g></svg>