<svg width="52" height="50" viewBox="0 0 52 50" fill="none" xmlns="http://www.w3.org/2000/svg">
<g clip-path="url(#clip0_1424_6582)">
<path d="M51.6719 45.9736C51.7494 45.8355 51.7888 45.6792 51.7861 45.5208C51.7834 45.3624 51.7387 45.2076 51.6564 45.0722L26.6564 4.00032C26.5713 3.87666 26.4574 3.77556 26.3245 3.70571C26.1916 3.63586 26.0437 3.59937 25.8936 3.59937C25.7435 3.59937 25.5956 3.63586 25.4627 3.70571C25.3298 3.77556 25.2159 3.87666 25.1308 4.00032L0.129522 45.0728C0.0467578 45.2082 0.00159489 45.3633 -0.00131478 45.522C-0.00422444 45.6807 0.0352249 45.8373 0.112968 45.9757C0.190712 46.114 0.30394 46.2292 0.440989 46.3093C0.578037 46.3893 0.733952 46.4314 0.892673 46.4312H50.8933C51.052 46.4309 51.2078 46.3884 51.3446 46.308C51.4815 46.2276 51.5944 46.1122 51.6719 45.9736ZM25.8933 43.8188L14.982 25.8934H36.804L25.8933 43.8188ZM25.8933 6.18172L36.8046 24.1078H14.9813L25.8933 6.18172ZM2.48134 44.6406L13.3927 26.7177L24.3046 44.6406H2.48134ZM27.4813 44.6406L38.3933 26.7177L49.3046 44.6406H27.4813Z" fill="url(#paint0_linear_1424_6582)"/>
<path d="M35.7143 7.14312C36.4206 7.14312 37.1111 6.93368 37.6983 6.54129C38.2856 6.14891 38.7433 5.59119 39.0137 4.93867C39.284 4.28614 39.3547 3.56811 39.217 2.87538C39.0792 2.18264 38.7392 1.5463 38.2398 1.04682C37.7404 0.547352 37.1041 0.207175 36.4114 0.0693076C35.7187 -0.0685596 35.0007 0.00207585 34.3481 0.272281C33.6955 0.542486 33.1377 1.00013 32.7452 1.58733C32.3527 2.17454 32.1432 2.86495 32.1431 3.57125C32.144 4.51816 32.5206 5.42601 33.1901 6.09564C33.8596 6.76526 34.7674 7.14197 35.7143 7.14312ZM35.7143 1.78624C36.0675 1.78624 36.4127 1.89096 36.7064 2.08717C37 2.28338 37.2289 2.56225 37.364 2.88854C37.4992 3.21482 37.5345 3.57385 37.4656 3.92022C37.3967 4.2666 37.2267 4.58477 36.9769 4.83449C36.7272 5.08422 36.4091 5.25428 36.0627 5.32318C35.7163 5.39208 35.3573 5.35672 35.031 5.22157C34.7047 5.08642 34.4258 4.85755 34.2296 4.5639C34.0334 4.27026 33.9287 3.92503 33.9287 3.57186C33.9298 3.09858 34.1183 2.645 34.4529 2.31028C34.7875 1.97556 35.241 1.78692 35.7143 1.78562V1.78624Z" fill="url(#paint1_linear_1424_6582)"/>
<path d="M45.983 5.02907C46.1831 5.02907 46.3787 4.96974 46.545 4.85858C46.7113 4.74742 46.8409 4.58944 46.9175 4.4046C46.994 4.21976 47.014 4.01638 46.9749 3.82018C46.9358 3.62397 46.8395 3.44377 46.698 3.30235C46.5565 3.16093 46.3762 3.06466 46.18 3.02571C45.9837 2.98675 45.7804 3.00687 45.5956 3.08351C45.4108 3.16015 45.2529 3.28988 45.1418 3.45628C45.0308 3.62268 44.9716 3.81827 44.9717 4.01833C44.9718 4.28645 45.0785 4.54353 45.2681 4.73307C45.4578 4.9226 45.7149 5.02907 45.983 5.02907Z" fill="url(#paint2_linear_1424_6582)"/>
<path d="M43.3043 13.0644C43.5044 13.0644 43.6999 13.005 43.8663 12.8939C44.0326 12.7827 44.1622 12.6247 44.2388 12.4399C44.3153 12.255 44.3353 12.0517 44.2962 11.8555C44.2571 11.6593 44.1608 11.479 44.0192 11.3376C43.8777 11.1962 43.6975 11.0999 43.5013 11.061C43.305 11.022 43.1017 11.0421 42.9169 11.1188C42.7321 11.1954 42.5742 11.3252 42.4631 11.4916C42.3521 11.658 42.2928 11.8536 42.293 12.0536C42.2931 12.3217 42.3998 12.5788 42.5894 12.7683C42.7791 12.9579 43.0362 13.0644 43.3043 13.0644Z" fill="url(#paint3_linear_1424_6582)"/>
<path d="M2.67844 48.2144H0.892812C0.656024 48.2144 0.428933 48.3084 0.261498 48.4759C0.0940636 48.6433 0 48.8704 0 49.1072C0 49.344 0.0940636 49.571 0.261498 49.7385C0.428933 49.9059 0.656024 50 0.892812 50H2.67844C2.91523 50 3.14232 49.9059 3.30975 49.7385C3.47719 49.571 3.57125 49.344 3.57125 49.1072C3.57125 48.8704 3.47719 48.6433 3.30975 48.4759C3.14232 48.3084 2.91523 48.2144 2.67844 48.2144Z" fill="url(#paint4_linear_1424_6582)"/>
<path d="M9.82149 48.2144H6.25023C6.01345 48.2144 5.78636 48.3084 5.61892 48.4759C5.45149 48.6433 5.35742 48.8704 5.35742 49.1072C5.35742 49.344 5.45149 49.571 5.61892 49.7385C5.78636 49.9059 6.01345 50 6.25023 50H9.82149C10.0583 50 10.2854 49.9059 10.4528 49.7385C10.6202 49.571 10.7143 49.344 10.7143 49.1072C10.7143 48.8704 10.6202 48.6433 10.4528 48.4759C10.2854 48.3084 10.0583 48.2144 9.82149 48.2144Z" fill="url(#paint5_linear_1424_6582)"/>
<path d="M38.3928 48.2144H34.8215C34.5847 48.2144 34.3576 48.3084 34.1902 48.4759C34.0228 48.6433 33.9287 48.8704 33.9287 49.1072C33.9287 49.344 34.0228 49.571 34.1902 49.7385C34.3576 49.9059 34.5847 50 34.8215 50H38.3928C38.6296 50 38.8567 49.9059 39.0241 49.7385C39.1915 49.571 39.2856 49.344 39.2856 49.1072C39.2856 48.8704 39.1915 48.6433 39.0241 48.4759C38.8567 48.3084 38.6296 48.2144 38.3928 48.2144Z" fill="url(#paint6_linear_1424_6582)"/>
<path d="M31.2502 48.2144H27.6789C27.4422 48.2144 27.2151 48.3084 27.0476 48.4759C26.8802 48.6433 26.7861 48.8704 26.7861 49.1072C26.7861 49.344 26.8802 49.571 27.0476 49.7385C27.2151 49.9059 27.4422 50 27.6789 50H31.2502C31.487 50 31.7141 49.9059 31.8815 49.7385C32.0489 49.571 32.143 49.344 32.143 49.1072C32.143 48.8704 32.0489 48.6433 31.8815 48.4759C31.7141 48.3084 31.487 48.2144 31.2502 48.2144Z" fill="url(#paint7_linear_1424_6582)"/>
<path d="M45.5358 48.2144H41.9646C41.7278 48.2144 41.5007 48.3084 41.3333 48.4759C41.1658 48.6433 41.0718 48.8704 41.0718 49.1072C41.0718 49.344 41.1658 49.571 41.3333 49.7385C41.5007 49.9059 41.7278 50 41.9646 50H45.5358C45.7726 50 45.9997 49.9059 46.1672 49.7385C46.3346 49.571 46.4287 49.344 46.4287 49.1072C46.4287 48.8704 46.3346 48.6433 46.1672 48.4759C45.9997 48.3084 45.7726 48.2144 45.5358 48.2144Z" fill="url(#paint8_linear_1424_6582)"/>
<path d="M16.9641 48.2144H13.3928C13.156 48.2144 12.9289 48.3084 12.7615 48.4759C12.5941 48.6433 12.5 48.8704 12.5 49.1072C12.5 49.344 12.5941 49.571 12.7615 49.7385C12.9289 49.9059 13.156 50 13.3928 50H16.9641C17.2009 50 17.4279 49.9059 17.5954 49.7385C17.7628 49.571 17.8569 49.344 17.8569 49.1072C17.8569 48.8704 17.7628 48.6433 17.5954 48.4759C17.4279 48.3084 17.2009 48.2144 16.9641 48.2144Z" fill="url(#paint9_linear_1424_6582)"/>
<path d="M24.1071 48.2144H20.5359C20.2991 48.2144 20.072 48.3084 19.9046 48.4759C19.7371 48.6433 19.6431 48.8704 19.6431 49.1072C19.6431 49.344 19.7371 49.571 19.9046 49.7385C20.072 49.9059 20.2991 50 20.5359 50H24.1071C24.3439 50 24.571 49.9059 24.7384 49.7385C24.9059 49.571 24.9999 49.344 24.9999 49.1072C24.9999 48.8704 24.9059 48.6433 24.7384 48.4759C24.571 48.3084 24.3439 48.2144 24.1071 48.2144Z" fill="url(#paint10_linear_1424_6582)"/>
<path d="M50.8933 48.2144H49.1077C48.8709 48.2144 48.6438 48.3084 48.4763 48.4759C48.3089 48.6433 48.2148 48.8704 48.2148 49.1072C48.2148 49.344 48.3089 49.571 48.4763 49.7385C48.6438 49.9059 48.8709 50 49.1077 50H50.8933C51.1301 50 51.3572 49.9059 51.5246 49.7385C51.692 49.571 51.7861 49.344 51.7861 49.1072C51.7861 48.8704 51.692 48.6433 51.5246 48.4759C51.3572 48.3084 51.1301 48.2144 50.8933 48.2144Z" fill="url(#paint11_linear_1424_6582)"/>
</g>
<defs>
<linearGradient id="paint0_linear_1424_6582" x1="25.8924" y1="3.59937" x2="25.8924" y2="46.4312" gradientUnits="userSpaceOnUse">
<stop stop-color="#5E75E8"/>
<stop offset="1" stop-color="#DA88DE"/>
</linearGradient>
<linearGradient id="paint1_linear_1424_6582" x1="35.7143" y1="0.000610352" x2="35.7143" y2="7.14312" gradientUnits="userSpaceOnUse">
<stop stop-color="#5E75E8"/>
<stop offset="1" stop-color="#DA88DE"/>
</linearGradient>
<linearGradient id="paint2_linear_1424_6582" x1="45.983" y1="3.00635" x2="45.983" y2="5.02907" gradientUnits="userSpaceOnUse">
<stop stop-color="#5E75E8"/>
<stop offset="1" stop-color="#DA88DE"/>
</linearGradient>
<linearGradient id="paint3_linear_1424_6582" x1="43.3043" y1="11.0416" x2="43.3043" y2="13.0644" gradientUnits="userSpaceOnUse">
<stop stop-color="#5E75E8"/>
<stop offset="1" stop-color="#DA88DE"/>
</linearGradient>
<linearGradient id="paint4_linear_1424_6582" x1="1.78563" y1="48.2144" x2="1.78563" y2="50" gradientUnits="userSpaceOnUse">
<stop stop-color="#5E75E8"/>
<stop offset="1" stop-color="#DA88DE"/>
</linearGradient>
<linearGradient id="paint5_linear_1424_6582" x1="8.03586" y1="48.2144" x2="8.03586" y2="50" gradientUnits="userSpaceOnUse">
<stop stop-color="#5E75E8"/>
<stop offset="1" stop-color="#DA88DE"/>
</linearGradient>
<linearGradient id="paint6_linear_1424_6582" x1="36.6071" y1="48.2144" x2="36.6071" y2="50" gradientUnits="userSpaceOnUse">
<stop stop-color="#5E75E8"/>
<stop offset="1" stop-color="#DA88DE"/>
</linearGradient>
<linearGradient id="paint7_linear_1424_6582" x1="29.4646" y1="48.2144" x2="29.4646" y2="50" gradientUnits="userSpaceOnUse">
<stop stop-color="#5E75E8"/>
<stop offset="1" stop-color="#DA88DE"/>
</linearGradient>
<linearGradient id="paint8_linear_1424_6582" x1="43.7502" y1="48.2144" x2="43.7502" y2="50" gradientUnits="userSpaceOnUse">
<stop stop-color="#5E75E8"/>
<stop offset="1" stop-color="#DA88DE"/>
</linearGradient>
<linearGradient id="paint9_linear_1424_6582" x1="15.1784" y1="48.2144" x2="15.1784" y2="50" gradientUnits="userSpaceOnUse">
<stop stop-color="#5E75E8"/>
<stop offset="1" stop-color="#DA88DE"/>
</linearGradient>
<linearGradient id="paint10_linear_1424_6582" x1="22.3215" y1="48.2144" x2="22.3215" y2="50" gradientUnits="userSpaceOnUse">
<stop stop-color="#5E75E8"/>
<stop offset="1" stop-color="#DA88DE"/>
</linearGradient>
<linearGradient id="paint11_linear_1424_6582" x1="50.0005" y1="48.2144" x2="50.0005" y2="50" gradientUnits="userSpaceOnUse">
<stop stop-color="#5E75E8"/>
<stop offset="1" stop-color="#DA88DE"/>
</linearGradient>
<clipPath id="clip0_1424_6582">
<rect width="51.7862" height="50" fill="white"/>
</clipPath>
</defs>
</svg>
