<svg width="55" height="50" viewBox="0 0 55 50" fill="none" xmlns="http://www.w3.org/2000/svg">
<g clip-path="url(#clip0_1424_6499)">
<path d="M12.591 8.78208C12.4972 8.65891 12.3762 8.55907 12.2374 8.49034C12.0987 8.42162 11.9459 8.38586 11.7911 8.38586C11.6363 8.38586 11.4835 8.42162 11.3448 8.49034C11.206 8.55907 11.085 8.65891 10.9912 8.78208L3.72786 19.4319C3.62864 19.5774 3.57099 19.7472 3.5611 19.9231C3.55121 20.0989 3.58946 20.2741 3.67173 20.4299C3.754 20.5856 3.87718 20.716 4.02801 20.8069C4.17885 20.8979 4.35162 20.946 4.52776 20.946H19.0538C19.23 20.9461 19.4028 20.8981 19.5538 20.8072C19.7047 20.7163 19.828 20.5859 19.9103 20.4302C19.9927 20.2744 20.031 20.0991 20.0211 19.9232C20.0112 19.7473 19.9536 19.5774 19.8543 19.4319L12.591 8.78208ZM6.36305 19.0115L11.7937 11.0462L17.2217 19.0115H6.36305Z" fill="url(#paint0_linear_1424_6499)"/>
<path d="M21.9595 20.9486H36.4856C36.6617 20.9485 36.8345 20.9004 36.9853 20.8095C37.1361 20.7185 37.2593 20.5882 37.3416 20.4324C37.4239 20.2767 37.4621 20.1015 37.4522 19.9256C37.4423 19.7498 37.3847 19.5799 37.2855 19.4344L30.0195 8.78202C29.9307 8.6517 29.8113 8.54506 29.6719 8.47136C29.5324 8.39766 29.377 8.35913 29.2193 8.35913C29.0616 8.35913 28.9062 8.39766 28.7668 8.47136C28.6273 8.54506 28.5079 8.6517 28.4191 8.78202L21.1531 19.4344C21.0539 19.5799 20.9963 19.7498 20.9864 19.9256C20.9765 20.1015 21.0148 20.2767 21.097 20.4324C21.1793 20.5882 21.3025 20.7185 21.4533 20.8095C21.6041 20.9004 21.7769 20.9485 21.953 20.9486H21.9595ZM29.2255 11.0468L34.6555 19.0114H23.7916L29.2255 11.0468Z" fill="url(#paint1_linear_1424_6499)"/>
<path d="M39.3905 20.9486H53.9166C54.0927 20.9486 54.2655 20.9005 54.4163 20.8095C54.5671 20.7186 54.6903 20.5882 54.7726 20.4325C54.8549 20.2767 54.8931 20.1015 54.8832 19.9257C54.8733 19.7498 54.8157 19.58 54.7165 19.4345L47.4505 8.78208C47.3567 8.65891 47.2357 8.55907 47.097 8.49034C46.9582 8.42162 46.8055 8.38586 46.6506 8.38586C46.4958 8.38586 46.3431 8.42162 46.2043 8.49034C46.0656 8.55907 45.9445 8.65891 45.8507 8.78208L38.5848 19.4345C38.4856 19.58 38.4279 19.7498 38.418 19.9257C38.4081 20.1015 38.4464 20.2767 38.5287 20.4325C38.6109 20.5882 38.7341 20.7186 38.885 20.8095C39.0358 20.9005 39.2086 20.9486 39.3847 20.9486H39.3905ZM46.6565 11.0468L52.0865 19.0115H41.2232L46.6565 11.0468Z" fill="url(#paint2_linear_1424_6499)"/>
<path d="M12.591 23.3081C12.4972 23.1849 12.3762 23.0851 12.2374 23.0163C12.0987 22.9476 11.9459 22.9119 11.7911 22.9119C11.6363 22.9119 11.4835 22.9476 11.3448 23.0163C11.206 23.0851 11.085 23.1849 10.9912 23.3081L3.72786 33.9579C3.62864 34.1034 3.57099 34.2732 3.5611 34.4491C3.55121 34.6249 3.58946 34.8001 3.67173 34.9559C3.754 35.1116 3.87718 35.242 4.02801 35.3329C4.17885 35.4239 4.35162 35.472 4.52776 35.472H19.0538C19.2299 35.472 19.4027 35.4239 19.5535 35.3329C19.7044 35.242 19.8275 35.1116 19.9098 34.9559C19.9921 34.8001 20.0303 34.6249 20.0204 34.4491C20.0106 34.2732 19.9529 34.1034 19.8537 33.9579L12.591 23.3081ZM6.36305 33.5375L11.7937 25.5722L17.2243 33.5375H6.36305Z" fill="url(#paint3_linear_1424_6499)"/>
<path d="M21.9595 35.474H36.4856C36.6617 35.4739 36.8345 35.4258 36.9853 35.3348C37.1361 35.2439 37.2593 35.1135 37.3416 34.9578C37.4239 34.8021 37.4621 34.6268 37.4522 34.451C37.4423 34.2751 37.3847 34.1053 37.2855 33.9598L30.0195 23.3074C29.9307 23.1771 29.8113 23.0704 29.6719 22.9967C29.5324 22.923 29.377 22.8845 29.2193 22.8845C29.0616 22.8845 28.9062 22.923 28.7668 22.9967C28.6273 23.0704 28.5079 23.1771 28.4191 23.3074L21.1531 33.9598C21.0539 34.1053 20.9963 34.2751 20.9864 34.451C20.9765 34.6268 21.0148 34.8021 21.097 34.9578C21.1793 35.1135 21.3025 35.2439 21.4533 35.3348C21.6041 35.4258 21.7769 35.4739 21.953 35.474H21.9595ZM29.2255 25.5722L34.6555 33.5375H23.7916L29.2255 25.5722Z" fill="url(#paint4_linear_1424_6499)"/>
<path d="M47.4535 23.3081C47.3596 23.1849 47.2386 23.0851 47.0999 23.0163C46.9611 22.9476 46.8084 22.9119 46.6536 22.9119C46.4987 22.9119 46.346 22.9476 46.2072 23.0163C46.0685 23.0851 45.9475 23.1849 45.8537 23.3081L38.5877 33.9605C38.4885 34.106 38.4309 34.2758 38.421 34.4517C38.4111 34.6275 38.4493 34.8027 38.5316 34.9585C38.6139 35.1142 38.737 35.2446 38.8879 35.3355C39.0387 35.4265 39.2115 35.4746 39.3876 35.4746H53.9136C54.0898 35.4746 54.2626 35.4265 54.4134 35.3355C54.5642 35.2446 54.6874 35.1142 54.7697 34.9585C54.8519 34.8027 54.8902 34.6275 54.8803 34.4517C54.8704 34.2758 54.8128 34.106 54.7135 33.9605L47.4535 23.3081ZM41.2255 33.5375L46.6555 25.5722L52.0855 33.5375H41.2255Z" fill="url(#paint5_linear_1424_6499)"/>
<path d="M12.591 37.8335C12.4972 37.7103 12.3762 37.6105 12.2374 37.5417C12.0987 37.473 11.9459 37.4373 11.7911 37.4373C11.6363 37.4373 11.4835 37.473 11.3448 37.5417C11.206 37.6105 11.085 37.7103 10.9912 37.8335L3.72786 48.4832C3.62864 48.6288 3.57099 48.7986 3.5611 48.9745C3.55121 49.1503 3.58946 49.3255 3.67173 49.4813C3.754 49.637 3.87718 49.7674 4.02801 49.8583C4.17885 49.9493 4.35162 49.9973 4.52776 49.9974H19.0538C19.2299 49.9973 19.4027 49.9493 19.5535 49.8583C19.7044 49.7674 19.8275 49.637 19.9098 49.4813C19.9921 49.3255 20.0303 49.1503 20.0204 48.9745C20.0106 48.7986 19.9529 48.6288 19.8537 48.4832L12.591 37.8335ZM6.36305 48.0629L11.7937 40.0982L17.2243 48.0629H6.36305Z" fill="url(#paint6_linear_1424_6499)"/>
<path d="M30.0225 37.8341C29.9336 37.7038 29.8142 37.5972 29.6748 37.5235C29.5353 37.4498 29.38 37.4113 29.2222 37.4113C29.0645 37.4113 28.9092 37.4498 28.7697 37.5235C28.6302 37.5972 28.5109 37.7038 28.422 37.8341L21.1561 48.4865C21.0569 48.632 20.9992 48.8019 20.9893 48.9777C20.9794 49.1536 21.0177 49.3288 21.1 49.4845C21.1822 49.6403 21.3054 49.7706 21.4562 49.8616C21.6071 49.9525 21.7798 50.0006 21.956 50.0007H36.482C36.6581 50.0006 36.8309 49.9525 36.9818 49.8616C37.1326 49.7706 37.2558 49.6403 37.338 49.4845C37.4203 49.3288 37.4585 49.1536 37.4487 48.9777C37.4388 48.8019 37.3811 48.632 37.2819 48.4865L30.0225 37.8341ZM23.7945 48.0635L29.2258 40.0989L34.6558 48.0635H23.7945Z" fill="url(#paint7_linear_1424_6499)"/>
<path d="M47.4535 37.8335C47.3596 37.7103 47.2386 37.6105 47.0999 37.5417C46.9611 37.473 46.8084 37.4373 46.6536 37.4373C46.4987 37.4373 46.346 37.473 46.2072 37.5417C46.0685 37.6105 45.9475 37.7103 45.8537 37.8335L38.5877 48.4859C38.4885 48.6314 38.4309 48.8012 38.421 48.9771C38.4111 49.1529 38.4493 49.3281 38.5316 49.4839C38.6139 49.6396 38.737 49.77 38.8879 49.8609C39.0387 49.9518 39.2115 49.9999 39.3876 50H53.9136C54.0898 49.9999 54.2626 49.9518 54.4134 49.8609C54.5642 49.77 54.6874 49.6396 54.7697 49.4839C54.8519 49.3281 54.8902 49.1529 54.8803 48.9771C54.8704 48.8012 54.8128 48.6314 54.7135 48.4859L47.4535 37.8335ZM41.2255 48.0629L46.6555 40.0982L52.0855 48.0629H41.2255Z" fill="url(#paint8_linear_1424_6499)"/>
<path d="M17.5598 4.12989C17.7766 4.12989 17.9886 4.06559 18.1689 3.94512C18.3492 3.82464 18.4897 3.65341 18.5727 3.45308C18.6557 3.25274 18.6774 3.0323 18.6351 2.81962C18.5928 2.60694 18.4883 2.41159 18.335 2.25826C18.1817 2.10493 17.9863 2.00051 17.7736 1.9582C17.561 1.9159 17.3405 1.93761 17.1402 2.02059C16.9398 2.10357 16.7686 2.2441 16.6481 2.4244C16.5277 2.6047 16.4634 2.81667 16.4634 3.03351C16.4636 3.32423 16.5791 3.603 16.7847 3.80858C16.9903 4.01415 17.269 4.12972 17.5598 4.12989Z" fill="url(#paint9_linear_1424_6499)"/>
<path d="M7.87567 2.19337C8.09251 2.19337 8.30449 2.12906 8.48479 2.00859C8.66509 1.88812 8.80561 1.71689 8.88859 1.51655C8.97157 1.31622 8.99329 1.09577 8.95098 0.883095C8.90868 0.670419 8.80426 0.475064 8.65093 0.321733C8.4976 0.168402 8.30224 0.0639818 8.08956 0.0216778C7.87689 -0.0206262 7.65644 0.00108434 7.4561 0.0840666C7.25577 0.167049 7.08454 0.307575 6.96407 0.487873C6.8436 0.668172 6.7793 0.880144 6.7793 1.09699C6.77947 1.38771 6.89503 1.66648 7.10061 1.87205C7.30618 2.07763 7.58495 2.19319 7.87567 2.19337Z" fill="url(#paint10_linear_1424_6499)"/>
<path d="M1.09638 23.2412C0.879536 23.2412 0.667561 23.3055 0.487263 23.426C0.306965 23.5465 0.166438 23.7177 0.0834562 23.918C0.000473985 24.1184 -0.0212365 24.3388 0.0210674 24.5515C0.0633714 24.7642 0.167791 24.9595 0.321122 25.1128C0.474454 25.2662 0.669809 25.3706 0.882485 25.4129C1.09516 25.4552 1.31561 25.4335 1.51594 25.3505C1.71628 25.2675 1.88751 25.127 2.00798 24.9467C2.12845 24.7664 2.19276 24.5544 2.19276 24.3376C2.19258 24.0469 2.07702 23.7681 1.87144 23.5625C1.66587 23.357 1.3871 23.2414 1.09638 23.2412Z" fill="url(#paint11_linear_1424_6499)"/>
<path d="M38.9921 39.8316C38.9921 39.6148 38.9278 39.4028 38.8073 39.2225C38.6868 39.0422 38.5156 38.9017 38.3153 38.8187C38.1149 38.7357 37.8945 38.714 37.6818 38.7563C37.4691 38.7986 37.2738 38.903 37.1204 39.0564C36.9671 39.2097 36.8627 39.405 36.8204 39.6177C36.7781 39.8304 36.7998 40.0508 36.8828 40.2512C36.9658 40.4515 37.1063 40.6227 37.2866 40.7432C37.4669 40.8637 37.6789 40.928 37.8957 40.928C38.1865 40.928 38.4653 40.8125 38.671 40.6069C38.8766 40.4013 38.9921 40.1224 38.9921 39.8316Z" fill="url(#paint12_linear_1424_6499)"/>
</g>
<defs>
<linearGradient id="paint0_linear_1424_6499" x1="11.7911" y1="8.38586" x2="11.7911" y2="20.946" gradientUnits="userSpaceOnUse">
<stop stop-color="#5E75E8"/>
<stop offset="1" stop-color="#DA88DE"/>
</linearGradient>
<linearGradient id="paint1_linear_1424_6499" x1="29.2193" y1="8.35913" x2="29.2193" y2="20.9486" gradientUnits="userSpaceOnUse">
<stop stop-color="#5E75E8"/>
<stop offset="1" stop-color="#DA88DE"/>
</linearGradient>
<linearGradient id="paint2_linear_1424_6499" x1="46.6506" y1="8.38586" x2="46.6506" y2="20.9486" gradientUnits="userSpaceOnUse">
<stop stop-color="#5E75E8"/>
<stop offset="1" stop-color="#DA88DE"/>
</linearGradient>
<linearGradient id="paint3_linear_1424_6499" x1="11.7908" y1="22.9119" x2="11.7908" y2="35.472" gradientUnits="userSpaceOnUse">
<stop stop-color="#5E75E8"/>
<stop offset="1" stop-color="#DA88DE"/>
</linearGradient>
<linearGradient id="paint4_linear_1424_6499" x1="29.2193" y1="22.8845" x2="29.2193" y2="35.474" gradientUnits="userSpaceOnUse">
<stop stop-color="#5E75E8"/>
<stop offset="1" stop-color="#DA88DE"/>
</linearGradient>
<linearGradient id="paint5_linear_1424_6499" x1="46.6506" y1="22.9119" x2="46.6506" y2="35.4746" gradientUnits="userSpaceOnUse">
<stop stop-color="#5E75E8"/>
<stop offset="1" stop-color="#DA88DE"/>
</linearGradient>
<linearGradient id="paint6_linear_1424_6499" x1="11.7908" y1="37.4373" x2="11.7908" y2="49.9974" gradientUnits="userSpaceOnUse">
<stop stop-color="#5E75E8"/>
<stop offset="1" stop-color="#DA88DE"/>
</linearGradient>
<linearGradient id="paint7_linear_1424_6499" x1="29.219" y1="37.4113" x2="29.219" y2="50.0007" gradientUnits="userSpaceOnUse">
<stop stop-color="#5E75E8"/>
<stop offset="1" stop-color="#DA88DE"/>
</linearGradient>
<linearGradient id="paint8_linear_1424_6499" x1="46.6506" y1="37.4373" x2="46.6506" y2="50" gradientUnits="userSpaceOnUse">
<stop stop-color="#5E75E8"/>
<stop offset="1" stop-color="#DA88DE"/>
</linearGradient>
<linearGradient id="paint9_linear_1424_6499" x1="17.5598" y1="1.93713" x2="17.5598" y2="4.12989" gradientUnits="userSpaceOnUse">
<stop stop-color="#5E75E8"/>
<stop offset="1" stop-color="#DA88DE"/>
</linearGradient>
<linearGradient id="paint10_linear_1424_6499" x1="7.87567" y1="0.000610352" x2="7.87567" y2="2.19337" gradientUnits="userSpaceOnUse">
<stop stop-color="#5E75E8"/>
<stop offset="1" stop-color="#DA88DE"/>
</linearGradient>
<linearGradient id="paint11_linear_1424_6499" x1="1.09638" y1="23.2412" x2="1.09638" y2="25.434" gradientUnits="userSpaceOnUse">
<stop stop-color="#5E75E8"/>
<stop offset="1" stop-color="#DA88DE"/>
</linearGradient>
<linearGradient id="paint12_linear_1424_6499" x1="37.8957" y1="38.7352" x2="37.8957" y2="40.928" gradientUnits="userSpaceOnUse">
<stop stop-color="#5E75E8"/>
<stop offset="1" stop-color="#DA88DE"/>
</linearGradient>
<clipPath id="clip0_1424_6499">
<rect width="54.885" height="50" fill="white"/>
</clipPath>
</defs>
</svg>
