<svg width="50" height="50" viewBox="0 0 50 50" fill="none" xmlns="http://www.w3.org/2000/svg">
<g clip-path="url(#clip0_1424_6548)">
<path d="M43.0705 8.71784C43.7669 8.71784 44.4477 8.5118 45.0267 8.12576C45.6058 7.73972 46.0571 7.19103 46.3236 6.54908C46.5901 5.90712 46.6598 5.20073 46.524 4.51923C46.3881 3.83773 46.0528 3.21174 45.5603 2.72041C45.0679 2.22907 44.4405 1.89447 43.7574 1.75891C43.0744 1.62336 42.3664 1.69293 41.723 1.95884C41.0796 2.22474 40.5296 2.67504 40.1427 3.25279C39.7558 3.83053 39.5493 4.50978 39.5493 5.20463C39.5505 6.13603 39.9218 7.02896 40.5819 7.68756C41.242 8.34617 42.137 8.71668 43.0705 8.71784ZM43.0705 3.44802C43.4187 3.44802 43.7591 3.55104 44.0486 3.74406C44.3381 3.93708 44.5638 4.21142 44.697 4.5324C44.8303 4.85338 44.8651 5.20658 44.7972 5.54732C44.7293 5.88807 44.5616 6.20107 44.3154 6.44674C44.0692 6.6924 43.7555 6.8597 43.4139 6.92748C43.0724 6.99526 42.7184 6.96047 42.3967 6.82752C42.075 6.69457 41.8001 6.46942 41.6066 6.18055C41.4131 5.89167 41.3099 5.55205 41.3099 5.20463C41.3098 4.97389 41.3553 4.7454 41.4437 4.53221C41.5322 4.31902 41.6618 4.12529 41.8253 3.96211C41.9888 3.79893 42.1829 3.66948 42.3966 3.58116C42.6102 3.49285 42.8392 3.44739 43.0705 3.44739V3.44802Z" fill="url(#paint0_linear_1424_6548)"/>
<path d="M12.6994 4.00314C12.8965 4.00301 13.0891 3.94459 13.2529 3.83525C13.4167 3.72591 13.5444 3.57057 13.6197 3.38886C13.695 3.20716 13.7147 3.00724 13.6761 2.81439C13.6376 2.62155 13.5427 2.44443 13.4032 2.30543C13.2638 2.16642 13.0863 2.07178 12.893 2.03347C12.6997 1.99515 12.4993 2.01488 12.3172 2.09016C12.1352 2.16544 11.9795 2.29289 11.8701 2.4564C11.7606 2.6199 11.7021 2.81213 11.7021 3.00877C11.7023 3.27255 11.8075 3.52547 11.9945 3.71193C12.1815 3.89839 12.435 4.00314 12.6994 4.00314Z" fill="url(#paint1_linear_1424_6548)"/>
<path d="M5.65642 6.63815C5.85351 6.63802 6.04613 6.5796 6.20994 6.47026C6.37375 6.36092 6.50139 6.20558 6.57672 6.02387C6.65206 5.84217 6.6717 5.64225 6.63318 5.4494C6.59465 5.25656 6.49969 5.07944 6.36028 4.94044C6.22088 4.80143 6.0433 4.70679 5.84999 4.66848C5.65668 4.63016 5.45633 4.64989 5.27426 4.72517C5.09219 4.80044 4.93658 4.9279 4.8271 5.0914C4.71761 5.25491 4.65918 5.44714 4.65918 5.64378C4.65935 5.90756 4.76449 6.16048 4.95149 6.34694C5.13849 6.5334 5.39204 6.63815 5.65642 6.63815Z" fill="url(#paint2_linear_1424_6548)"/>
<path d="M49.1663 24.5278C49.1689 23.6397 48.9948 22.76 48.6542 21.9395C48.3136 21.119 47.8131 20.3741 47.1819 19.748L29.3737 1.97987C28.7446 1.3521 27.9977 0.854124 27.1757 0.514373C26.3538 0.174622 25.4727 -0.000244141 24.583 -0.000244141C23.6933 -0.000244141 22.8123 0.174622 21.9903 0.514373C21.1683 0.854124 20.4214 1.3521 19.7924 1.97987L1.9841 19.748C1.35492 20.3756 0.855813 21.1208 0.515294 21.9409C0.174776 22.7611 -0.000488281 23.6401 -0.000488281 24.5278C-0.000488281 25.4156 0.174776 26.2946 0.515294 27.1147C0.855813 27.9349 1.35492 28.68 1.9841 29.3077L17.9129 45.2012C14.5245 45.7552 14.0195 46.5959 14.0195 47.3656C14.0195 49.744 21.4071 50.0005 24.583 50.0005C34.1178 50.0005 35.1465 48.1574 35.1465 47.3656C35.1465 46.6341 34.656 45.7602 31.2531 45.2006L47.1813 29.3089C47.8128 28.6827 48.3134 27.9376 48.6542 27.1169C48.9949 26.2962 49.169 25.4162 49.1663 24.5278ZM19.4736 46.7571L19.793 47.0758C20.2039 47.4833 20.6654 47.8367 21.1662 48.1273C19.5289 48.057 17.9048 47.8028 16.3246 47.3694C17.3513 47.0614 18.4061 46.8563 19.4736 46.7571ZM32.8433 47.3681C31.2632 47.802 29.639 48.0565 28.0017 48.1266C28.5025 47.836 28.964 47.4827 29.3749 47.0752L29.6931 46.7577C30.7608 46.8566 31.816 47.0611 32.8433 47.3681ZM28.1274 45.833C27.6618 46.2976 27.1091 46.6662 26.5007 46.9177C25.8923 47.1691 25.2403 47.2985 24.5818 47.2985C23.9232 47.2985 23.2712 47.1691 22.6628 46.9177C22.0544 46.6662 21.5017 46.2976 21.0361 45.833L3.22971 28.0655C2.76403 27.601 2.39462 27.0495 2.14259 26.4425C1.89056 25.8355 1.76085 25.1849 1.76085 24.5278C1.76085 23.8708 1.89056 23.2202 2.14259 22.6132C2.39462 22.0062 2.76403 21.4547 3.22971 20.9901L21.0373 3.22267C21.5029 2.75804 22.0557 2.38947 22.6641 2.13801C23.2724 1.88655 23.9245 1.75712 24.583 1.75712C25.2415 1.75712 25.8936 1.88655 26.502 2.13801C27.1103 2.38947 27.6631 2.75804 28.1287 3.22267L45.9363 20.9901C46.402 21.4547 46.7714 22.0062 47.0234 22.6132C47.2755 23.2202 47.4052 23.8708 47.4052 24.5278C47.4052 25.1849 47.2755 25.8355 47.0234 26.4425C46.7714 27.0495 46.402 27.601 45.9363 28.0655L28.1274 45.833Z" fill="url(#paint3_linear_1424_6548)"/>
<path d="M30.7448 13.9877C29.4861 13.9888 28.2507 14.3263 27.1671 14.9651C26.0834 15.6039 25.1911 16.5207 24.5827 17.6201C23.9826 16.535 23.1055 15.6276 22.0405 14.9899C20.9754 14.3522 19.7602 14.0069 18.5182 13.989C17.2762 13.9712 16.0516 14.2814 14.9685 14.8883C13.8855 15.4951 12.9826 16.377 12.3514 17.4444C11.7203 18.5118 11.3833 19.7268 11.3747 20.9661C11.3661 22.2054 11.6862 23.4249 12.3025 24.501C12.9188 25.577 13.8093 26.4712 14.8838 27.093C15.9584 27.7147 17.1786 28.0419 18.4207 28.0412C18.6571 28.0412 18.8904 28.0286 19.1205 28.006C18.2802 29.0365 17.7498 30.2836 17.591 31.6026C17.4322 32.9216 17.6514 34.2585 18.2232 35.4582C18.795 36.658 19.696 37.6714 20.8217 38.381C21.9473 39.0905 23.2516 39.4671 24.583 39.4671C25.9145 39.4671 27.2188 39.0905 28.3444 38.381C29.4701 37.6714 30.3711 36.658 30.9429 35.4582C31.5147 34.2585 31.7339 32.9216 31.5751 31.6026C31.4163 30.2836 30.8859 29.0365 30.0456 28.006C30.2757 28.0286 30.509 28.0412 30.7454 28.0412C32.6131 28.0412 34.4044 27.3009 35.7251 25.9832C37.0457 24.6655 37.7877 22.8783 37.7877 21.0147C37.7877 19.1512 37.0457 17.364 35.7251 16.0463C34.4044 14.7286 32.6131 13.9883 30.7454 13.9883L30.7448 13.9877ZM13.139 21.0141C13.139 19.9718 13.4487 18.953 14.0291 18.0863C14.6095 17.2197 15.4344 16.5443 16.3995 16.1454C17.3646 15.7466 18.4266 15.6422 19.4511 15.8455C20.4757 16.0489 21.4168 16.5508 22.1555 17.2878C22.8941 18.0248 23.3972 18.9638 23.601 19.986C23.8048 21.0083 23.7002 22.0679 23.3004 23.0308C22.9006 23.9937 22.2237 24.8168 21.3551 25.3958C20.4865 25.9749 19.4653 26.2839 18.4207 26.2839C17.0205 26.2823 15.6782 25.7266 14.688 24.7388C13.6979 23.751 13.1408 22.4118 13.139 21.0147V21.0141ZM24.5827 24.4081C24.785 24.7723 25.0192 25.1178 25.2826 25.4408C25.0524 25.4182 24.8192 25.4056 24.5827 25.4056C24.3463 25.4056 24.113 25.4182 23.8829 25.4408C24.1462 25.118 24.3804 24.7727 24.5827 24.4088V24.4081ZM24.5827 37.7025C23.5381 37.7025 22.5169 37.3935 21.6484 36.8144C20.7798 36.2353 20.1028 35.4123 19.703 34.4494C19.3033 33.4864 19.1987 32.4269 19.4025 31.4046C19.6063 30.3824 20.1093 29.4434 20.848 28.7064C21.5866 27.9694 22.5278 27.4675 23.5523 27.2641C24.5769 27.0608 25.6389 27.1651 26.604 27.564C27.5691 27.9629 28.394 28.6383 28.9743 29.5049C29.5547 30.3716 29.8645 31.3904 29.8645 32.4327C29.863 33.8299 29.306 35.1695 28.3159 36.1576C27.3257 37.1457 25.9831 37.7015 24.5827 37.7031V37.7025ZM30.7448 26.2846C29.7001 26.2846 28.679 25.9755 27.8104 25.3964C26.9418 24.8174 26.2648 23.9943 25.8651 23.0314C25.4653 22.0685 25.3607 21.0089 25.5645 19.9866C25.7683 18.9644 26.2713 18.0254 27.01 17.2884C27.7487 16.5514 28.6898 16.0495 29.7143 15.8462C30.7389 15.6428 31.8009 15.7472 32.766 16.1461C33.7311 16.5449 34.556 17.2204 35.1364 18.087C35.7167 18.9536 36.0265 19.9725 36.0265 21.0147C36.0248 22.4119 35.4678 23.7513 34.4777 24.7392C33.4875 25.7272 32.1451 26.2829 30.7448 26.2846Z" fill="url(#paint4_linear_1424_6548)"/>
</g>
<defs>
<linearGradient id="paint0_linear_1424_6548" x1="43.0705" y1="1.69141" x2="43.0705" y2="8.71784" gradientUnits="userSpaceOnUse">
<stop stop-color="#5E75E8"/>
<stop offset="1" stop-color="#DA88DE"/>
</linearGradient>
<linearGradient id="paint1_linear_1424_6548" x1="12.6988" y1="2.0144" x2="12.6988" y2="4.00314" gradientUnits="userSpaceOnUse">
<stop stop-color="#5E75E8"/>
<stop offset="1" stop-color="#DA88DE"/>
</linearGradient>
<linearGradient id="paint2_linear_1424_6548" x1="5.65579" y1="4.64941" x2="5.65579" y2="6.63815" gradientUnits="userSpaceOnUse">
<stop stop-color="#5E75E8"/>
<stop offset="1" stop-color="#DA88DE"/>
</linearGradient>
<linearGradient id="paint3_linear_1424_6548" x1="24.5829" y1="-0.000244141" x2="24.5829" y2="50.0005" gradientUnits="userSpaceOnUse">
<stop stop-color="#5E75E8"/>
<stop offset="1" stop-color="#DA88DE"/>
</linearGradient>
<linearGradient id="paint4_linear_1424_6548" x1="24.5811" y1="13.9877" x2="24.5811" y2="39.4671" gradientUnits="userSpaceOnUse">
<stop stop-color="#5E75E8"/>
<stop offset="1" stop-color="#DA88DE"/>
</linearGradient>
<clipPath id="clip0_1424_6548">
<rect width="49.1667" height="50" fill="white"/>
</clipPath>
</defs>
</svg>
