<svg width="50" height="50" viewBox="0 0 50 50" fill="none" xmlns="http://www.w3.org/2000/svg">
<g clip-path="url(#clip0_1424_6555)">
<path d="M2.78254 18.3348C2.90176 18.3979 3.03404 18.4307 3.16824 18.4306C3.32433 18.4308 3.47745 18.3868 3.61062 18.3035C3.74379 18.2202 3.85182 18.1007 3.92275 17.9583C4.40901 16.9886 4.96849 16.0592 5.59607 15.1787C5.72863 14.9928 5.78365 14.7607 5.74902 14.5333C5.71439 14.3059 5.59295 14.102 5.41141 13.9663C5.22987 13.8306 5.0031 13.7742 4.781 13.8097C4.5589 13.8451 4.35965 13.9695 4.22708 14.1553C3.54733 15.1094 2.9414 16.1163 2.4148 17.167C2.36376 17.2684 2.33278 17.379 2.32365 17.4927C2.31451 17.6063 2.3274 17.7206 2.36158 17.8292C2.39575 17.9377 2.45053 18.0382 2.52277 18.125C2.59501 18.2118 2.68329 18.2831 2.78254 18.3348Z" fill="url(#paint0_linear_1424_6555)"/>
<path d="M1.22756 31.6479C1.33765 31.6308 1.44335 31.5916 1.53861 31.5326C1.63386 31.4736 1.71679 31.3959 1.78262 31.3039C1.84846 31.212 1.89591 31.1077 1.92225 30.9969C1.94858 30.8862 1.95329 30.7712 1.9361 30.6586C1.77587 29.5947 1.69533 28.5199 1.69516 27.4435V27.3997C1.69476 27.2871 1.67248 27.1757 1.62961 27.072C1.58674 26.9683 1.52414 26.8744 1.44546 26.7957C1.36678 26.717 1.27359 26.6551 1.17133 26.6137C1.06906 26.5722 0.959755 26.552 0.849785 26.5542C0.623107 26.5596 0.407545 26.6559 0.249455 26.8223C0.0913653 26.9886 0.00337353 27.2119 0.00440347 27.444C0.0044415 28.609 0.0915231 29.7722 0.264886 30.9236C0.295236 31.1284 0.396328 31.3153 0.549801 31.4502C0.703275 31.5852 0.89895 31.6594 1.10128 31.6592C1.14358 31.6585 1.18578 31.6547 1.22756 31.6479Z" fill="url(#paint1_linear_1424_6555)"/>
<path d="M0.977262 24.8656C1.02164 24.8729 1.06652 24.8765 1.11147 24.8764C1.31309 24.8766 1.50813 24.803 1.6614 24.6689C1.81467 24.5348 1.91608 24.349 1.94734 24.1451C2.11523 23.0687 2.36539 22.0075 2.6955 20.9711C2.76556 20.7525 2.74792 20.5143 2.64646 20.309C2.54499 20.1037 2.36801 19.9481 2.15445 19.8764C1.94089 19.8046 1.70825 19.8227 1.5077 19.9266C1.30714 20.0304 1.15511 20.2116 1.08505 20.4302C0.726443 21.553 0.45525 22.7032 0.274011 23.8698C0.256244 23.9824 0.260375 24.0974 0.286165 24.2083C0.311955 24.3192 0.358897 24.4238 0.424294 24.5161C0.489691 24.6084 0.572255 24.6865 0.667242 24.746C0.762228 24.8055 0.867765 24.8453 0.977791 24.8629L0.977262 24.8656Z" fill="url(#paint2_linear_1424_6555)"/>
<path d="M12.4387 8.96701C12.5723 8.9668 12.7039 8.93417 12.8228 8.87182C13.772 8.37698 14.758 7.9599 15.7716 7.62451C15.8774 7.58946 15.9755 7.5334 16.0602 7.45955C16.1449 7.38569 16.2145 7.29549 16.2651 7.19408C16.3158 7.09267 16.3464 6.98205 16.3553 6.86852C16.3641 6.755 16.3511 6.6408 16.3168 6.53244C16.2826 6.42408 16.2278 6.32368 16.1557 6.23699C16.0836 6.15029 15.9954 6.07899 15.8964 6.02716C15.7973 5.97532 15.6893 5.94397 15.5784 5.93489C15.4675 5.92581 15.3559 5.93918 15.2501 5.97423C14.1512 6.33789 13.0821 6.79005 12.053 7.32647C11.8814 7.41364 11.7439 7.55784 11.6629 7.73545C11.5819 7.91306 11.5622 8.11357 11.607 8.30415C11.6518 8.49473 11.7585 8.6641 11.9095 8.78452C12.0606 8.90494 12.2472 8.96928 12.4387 8.96701Z" fill="url(#paint3_linear_1424_6555)"/>
<path d="M38.4938 15.21C38.626 15.3961 38.8249 15.5208 39.0469 15.5567C39.2688 15.5926 39.4956 15.5368 39.6774 15.4015C39.8591 15.2662 39.9809 15.0626 40.016 14.8354C40.0511 14.6081 39.9966 14.376 39.8644 14.1899C39.1853 13.2346 38.4345 12.3349 37.6189 11.4989C37.5402 11.4184 37.4468 11.3545 37.344 11.3109C37.2412 11.2673 37.131 11.2449 37.0197 11.2449C36.9084 11.2449 36.7982 11.2673 36.6954 11.3109C36.5926 11.3545 36.4992 11.4184 36.4205 11.4989C36.3419 11.5795 36.2794 11.6751 36.2369 11.7804C36.1943 11.8856 36.1724 11.9984 36.1724 12.1123C36.1724 12.2262 36.1943 12.339 36.2369 12.4443C36.2794 12.5495 36.3419 12.6451 36.4205 12.7257C37.1734 13.4976 37.8666 14.3282 38.4938 15.21Z" fill="url(#paint4_linear_1424_6555)"/>
<path d="M2.67155 33.8348C2.60261 33.6157 2.45149 33.4337 2.25143 33.3287C2.05137 33.2237 1.81877 33.2044 1.60479 33.275C1.39081 33.3455 1.21299 33.5003 1.11043 33.7051C1.00787 33.9099 0.988991 34.148 1.05794 34.367C1.41254 35.4918 1.85314 36.5861 2.37567 37.64C2.47734 37.8452 2.65444 38.0005 2.86802 38.072C3.08161 38.1435 3.31417 38.1251 3.51456 38.0211C3.71494 37.917 3.86674 37.7357 3.93654 37.517C4.00635 37.2984 3.98845 37.0603 3.88679 36.8552C3.40507 35.8825 2.99874 34.8726 2.67155 33.8348Z" fill="url(#paint5_linear_1424_6555)"/>
<path d="M18.7423 6.88179C18.7863 6.88165 18.8303 6.87822 18.8738 6.87152C19.9195 6.70498 20.9762 6.62143 22.0345 6.62162H22.0561C22.1667 6.62141 22.2761 6.59881 22.3781 6.55513C22.48 6.51145 22.5726 6.44755 22.6503 6.36711C22.728 6.28667 22.7895 6.19128 22.831 6.08643C22.8726 5.98158 22.8935 5.86934 22.8925 5.75619C22.8896 5.52534 22.7979 5.30498 22.6372 5.14296C22.4766 4.98093 22.26 4.8903 22.0345 4.89075C20.8886 4.89065 19.7445 4.98106 18.6123 5.1612C18.3939 5.18541 18.1932 5.29571 18.0529 5.46874C17.9126 5.64177 17.8435 5.86393 17.8604 6.08817C17.8773 6.3124 17.9788 6.52109 18.1434 6.67004C18.308 6.81899 18.5228 6.89649 18.7423 6.88612V6.88179Z" fill="url(#paint6_linear_1424_6555)"/>
<path d="M41.3841 21.0117C41.4185 21.1201 41.4733 21.2205 41.5456 21.3071C41.6178 21.3938 41.706 21.465 41.8051 21.5168C41.9043 21.5685 42.0124 21.5998 42.1233 21.6088C42.2343 21.6178 42.3458 21.6043 42.4517 21.5691C42.5575 21.534 42.6556 21.4778 42.7402 21.4039C42.8249 21.3299 42.8945 21.2396 42.945 21.1381C42.9956 21.0366 43.0261 20.926 43.0349 20.8124C43.0437 20.6988 43.0305 20.5846 42.9962 20.4763C42.6402 19.3528 42.1985 18.2597 41.6753 17.2071C41.5732 17.0021 41.3957 16.8471 41.182 16.7761C40.9683 16.7051 40.7358 16.7239 40.5356 16.8284C40.3354 16.9329 40.184 17.1146 40.1146 17.3334C40.0453 17.5522 40.0636 17.7902 40.1657 17.9952C40.6483 18.9665 41.0557 19.9751 41.3841 21.0117Z" fill="url(#paint7_linear_1424_6555)"/>
<path d="M31.2817 8.89295C32.2297 9.38885 33.1379 9.96055 33.998 10.6027C34.1798 10.7382 34.4067 10.7943 34.6288 10.7585C34.8509 10.7227 35.05 10.5981 35.1824 10.4121C35.3147 10.226 35.3694 9.99374 35.3345 9.76636C35.2996 9.53899 35.1779 9.33513 34.9961 9.19964C34.0636 8.50497 33.0796 7.88575 32.0531 7.34761C31.954 7.29575 31.8459 7.2644 31.7349 7.25532C31.624 7.24624 31.5124 7.25963 31.4065 7.29471C31.3006 7.3298 31.2024 7.38589 31.1177 7.45979C31.033 7.53369 30.9633 7.62395 30.9127 7.72542C30.862 7.82689 30.8314 7.93758 30.8225 8.05117C30.8137 8.16476 30.8267 8.27902 30.861 8.38744C30.8953 8.49585 30.9501 8.59629 31.0222 8.68303C31.0944 8.76976 31.1826 8.8411 31.2817 8.89295Z" fill="url(#paint8_linear_1424_6555)"/>
<path d="M25.2349 6.87756C26.2866 7.04816 27.3234 7.30335 28.3359 7.64077C28.5496 7.712 28.7823 7.69337 28.9827 7.58899C29.183 7.48461 29.3347 7.30303 29.4042 7.08419C29.4738 6.86535 29.4556 6.62718 29.3536 6.42207C29.2517 6.21696 29.0743 6.06172 28.8605 5.99049C27.7631 5.62535 26.6394 5.34918 25.4996 5.16454C25.2777 5.12868 25.051 5.18452 24.8693 5.31979C24.6877 5.45506 24.5659 5.65867 24.5309 5.88583C24.4958 6.11299 24.5504 6.34509 24.6825 6.53108C24.8147 6.71707 25.0136 6.8417 25.2355 6.87756H25.2349Z" fill="url(#paint9_linear_1424_6555)"/>
<path d="M7.07708 12.954C7.18838 12.9541 7.2986 12.9317 7.40142 12.888C7.50424 12.8444 7.59764 12.7804 7.67624 12.6998C8.43002 11.9295 9.2416 11.2209 10.1035 10.5805C10.1937 10.5137 10.2702 10.4292 10.3285 10.3321C10.3869 10.235 10.4259 10.1271 10.4435 10.0145C10.4611 9.9019 10.4569 9.78687 10.431 9.67596C10.4052 9.56506 10.3583 9.46045 10.293 9.36811C10.2276 9.27577 10.1452 9.1975 10.0503 9.13778C9.95543 9.07806 9.85 9.03806 9.74003 9.02005C9.63005 9.00205 9.51769 9.00639 9.40935 9.03284C9.30102 9.05928 9.19883 9.10732 9.10863 9.1742C8.17438 9.8681 7.29477 10.636 6.47792 11.4708C6.35765 11.5917 6.27539 11.7465 6.24169 11.9155C6.20799 12.0845 6.22439 12.2599 6.28878 12.4193C6.35317 12.5787 6.46262 12.7148 6.60308 12.81C6.74354 12.9053 6.9086 12.9554 7.07708 12.954Z" fill="url(#paint10_linear_1424_6555)"/>
<path d="M5.54863 39.6418C5.4833 39.5494 5.40085 39.4712 5.30598 39.4115C5.21111 39.3517 5.10567 39.3117 4.9957 39.2937C4.88572 39.2757 4.77336 39.2801 4.66503 39.3065C4.55669 39.333 4.45451 39.381 4.36431 39.4479C4.2741 39.5148 4.19765 39.5992 4.13932 39.6963C4.08098 39.7934 4.0419 39.9013 4.02432 40.0139C4.00673 40.1265 4.01097 40.2415 4.03681 40.3524C4.06264 40.4633 4.10956 40.568 4.17489 40.6603C4.85171 41.6168 5.60019 42.518 6.41356 43.3556C6.57226 43.5187 6.78775 43.6106 7.01263 43.611C7.2375 43.6115 7.45335 43.5205 7.61268 43.358C7.77201 43.1956 7.86177 42.975 7.86221 42.7447C7.86266 42.5145 7.77375 42.2936 7.61506 42.1305C6.86388 41.3574 6.17296 40.5253 5.54863 39.6418Z" fill="url(#paint11_linear_1424_6555)"/>
<path d="M41.2697 36.5911C41.0698 36.4861 40.8375 36.4664 40.6234 36.5362C40.4094 36.606 40.231 36.7598 40.1273 36.9638C39.6387 37.9322 39.0773 38.8603 38.4482 39.7397C38.3823 39.8316 38.3347 39.9358 38.3081 40.0465C38.2816 40.1572 38.2766 40.2722 38.2935 40.3849C38.3103 40.4976 38.3487 40.6058 38.4064 40.7033C38.4641 40.8008 38.54 40.8857 38.6297 40.9532C38.7195 41.0207 38.8213 41.0694 38.9295 41.0966C39.0376 41.1237 39.1499 41.1289 39.26 41.1116C39.3701 41.0943 39.4757 41.0551 39.571 40.996C39.6662 40.9369 39.7492 40.8593 39.8151 40.7674C40.4961 39.8151 41.104 38.8101 41.6332 37.7616C41.6844 37.6603 41.7157 37.5497 41.7252 37.436C41.7346 37.3224 41.7221 37.2079 41.6884 37.0992C41.6546 36.9905 41.6002 36.8897 41.5284 36.8025C41.4566 36.7153 41.3686 36.6435 41.2697 36.5911Z" fill="url(#paint12_linear_1424_6555)"/>
<path d="M31.2091 46.0304C30.2588 46.5231 29.2719 46.9382 28.2577 47.2717C28.0437 47.3421 27.8658 47.4966 27.7631 47.7012C27.6604 47.9059 27.6413 48.1439 27.71 48.363C27.7788 48.582 27.9297 48.7642 28.1296 48.8693C28.3295 48.9745 28.562 48.994 28.776 48.9236C29.8756 48.5619 30.9455 48.1117 31.9758 47.5773C32.075 47.5258 32.1633 47.4548 32.2357 47.3683C32.3081 47.2818 32.3632 47.1816 32.3978 47.0733C32.4323 46.965 32.4457 46.8509 32.4372 46.7373C32.4286 46.6237 32.3983 46.513 32.348 46.4114C32.2977 46.3099 32.2283 46.2194 32.1438 46.1453C32.0593 46.0712 31.9614 46.0148 31.8556 45.9794C31.7499 45.9441 31.6384 45.9303 31.5274 45.9391C31.4165 45.9478 31.3083 45.9788 31.2091 46.0304Z" fill="url(#paint13_linear_1424_6555)"/>
<path d="M43.0838 30.0647C42.9739 30.0463 42.8615 30.0503 42.7531 30.0764C42.6447 30.1026 42.5424 30.1504 42.4521 30.2172C42.3618 30.2839 42.2853 30.3683 42.227 30.4654C42.1686 30.5625 42.1296 30.6705 42.1121 30.7831C41.9423 31.8589 41.6902 32.9194 41.3581 33.9549C41.3235 34.0631 41.3099 34.1773 41.3183 34.2909C41.3268 34.4045 41.3569 34.5153 41.4072 34.617C41.4574 34.7186 41.5267 34.8092 41.6112 34.8834C41.6956 34.9577 41.7934 35.0141 41.8992 35.0497C42.0049 35.0852 42.1165 35.099 42.2275 35.0904C42.3384 35.0818 42.4466 35.0509 42.5459 34.9994C42.6453 34.948 42.7337 34.8771 42.8062 34.7906C42.8787 34.7042 42.9339 34.604 42.9686 34.4958C43.3281 33.3734 43.6012 32.2239 43.7854 31.0578C43.8035 30.9453 43.7996 30.8303 43.774 30.7193C43.7485 30.6083 43.7018 30.5036 43.6366 30.4112C43.5714 30.3188 43.489 30.2404 43.3941 30.1807C43.2992 30.121 43.1938 30.081 43.0838 30.0631V30.0647Z" fill="url(#paint14_linear_1424_6555)"/>
<path d="M42.8314 23.1942C42.6093 23.23 42.4102 23.3546 42.2778 23.5406C42.1455 23.7266 42.0907 23.9588 42.1255 24.1862C42.2905 25.2635 42.3732 26.3524 42.3727 27.4429V27.53C42.3727 27.7601 42.462 27.9808 42.621 28.1435C42.7799 28.3062 42.9955 28.3976 43.2202 28.3976C43.445 28.3976 43.6606 28.3062 43.8195 28.1435C43.9784 27.9808 44.0677 27.7601 44.0677 27.53V27.4413C44.0678 26.2606 43.9784 25.0817 43.8004 23.9152C43.7641 23.6886 43.642 23.4858 43.4606 23.3508C43.2792 23.2158 43.0531 23.1595 42.8314 23.1942Z" fill="url(#paint15_linear_1424_6555)"/>
<path d="M36.3659 42.2175C35.6107 42.9858 34.798 43.6925 33.9354 44.3314C33.7533 44.4662 33.6309 44.6696 33.5952 44.8968C33.5595 45.1241 33.6135 45.3565 33.7452 45.543C33.877 45.7295 34.0756 45.8547 34.2976 45.8913C34.5196 45.9278 34.7466 45.8725 34.9288 45.7377C35.8639 45.0458 36.7447 44.2801 37.5632 43.4475C37.6421 43.3672 37.7047 43.2717 37.7476 43.1666C37.7904 43.0615 37.8126 42.9487 37.8129 42.8348C37.8132 42.7209 37.7916 42.6081 37.7493 42.5027C37.707 42.3973 37.6448 42.3015 37.5663 42.2208C37.4879 42.14 37.3946 42.0759 37.2919 42.032C37.1892 41.9881 37.0791 41.9654 36.9678 41.9651C36.8566 41.9648 36.7463 41.9869 36.6434 42.0302C36.5405 42.0736 36.4469 42.1372 36.368 42.2175H36.3659Z" fill="url(#paint16_linear_1424_6555)"/>
<path d="M18.7919 48.0008C17.7411 47.8293 16.7053 47.5726 15.6942 47.2333C15.4806 47.1616 15.248 47.1796 15.0474 47.2835C14.8468 47.3874 14.6948 47.5685 14.6247 47.7872C14.5547 48.0058 14.5723 48.244 14.6738 48.4493C14.7753 48.6546 14.9522 48.8102 15.1658 48.8819C16.2623 49.2498 17.3856 49.528 18.5251 49.7138C18.5695 49.7212 18.6144 49.7248 18.6593 49.7247C18.878 49.7341 19.0917 49.6563 19.2555 49.5077C19.4193 49.3591 19.5205 49.1513 19.5376 48.9279C19.5548 48.7046 19.4867 48.4831 19.3476 48.3101C19.2086 48.1371 19.0094 48.026 18.7919 48.0003V48.0008Z" fill="url(#paint17_linear_1424_6555)"/>
<path d="M25.1532 48.0203C24.1217 48.1828 23.0796 48.2644 22.0359 48.2642H21.972C21.8624 48.2648 21.7541 48.2877 21.6534 48.3318C21.5527 48.3758 21.4616 48.4401 21.3855 48.5207C21.3095 48.6014 21.2499 48.6968 21.2104 48.8014C21.171 48.906 21.1523 49.0176 21.1556 49.1297C21.1634 49.3628 21.2596 49.5836 21.4239 49.7453C21.5881 49.9069 21.8075 49.9965 22.0354 49.9951C23.1675 49.9954 24.298 49.907 25.4169 49.7306C25.639 49.6954 25.8383 49.5713 25.9711 49.3856C26.1038 49.1999 26.159 48.9679 26.1246 48.7405C26.0902 48.5131 25.969 48.3091 25.7876 48.1732C25.6062 48.0373 25.3796 47.9807 25.1575 48.016L25.1532 48.0203Z" fill="url(#paint18_linear_1424_6555)"/>
<path d="M12.7498 45.973C11.803 45.4749 10.8959 44.9016 10.0366 44.2583C9.85532 44.1221 9.62853 44.0651 9.40618 44.1C9.18383 44.1349 8.98412 44.2588 8.851 44.4444C8.71787 44.63 8.66223 44.8622 8.69632 45.0898C8.73041 45.3175 8.85143 45.5219 9.03276 45.6582C9.96372 46.3554 10.9467 46.9768 11.9726 47.5167C12.1725 47.6222 12.4052 47.6421 12.6195 47.5719C12.8338 47.5018 13.0121 47.3474 13.1151 47.1427C13.2182 46.938 13.2376 46.6997 13.1691 46.4804C13.1006 46.261 12.9497 46.0785 12.7498 45.973Z" fill="url(#paint19_linear_1424_6555)"/>
<path d="M46.6107 2.28369C45.9402 2.28369 45.2848 2.48723 44.7273 2.86856C44.1698 3.24989 43.7353 3.79189 43.4788 4.42603C43.2222 5.06016 43.155 5.75794 43.2858 6.43113C43.4166 7.10432 43.7395 7.72268 44.2136 8.20803C44.6877 8.69337 45.2917 9.02389 45.9493 9.1578C46.6069 9.29171 47.2885 9.22298 47.908 8.96032C48.5274 8.69765 49.0568 8.25284 49.4293 7.68214C49.8018 7.11143 50.0007 6.44047 50.0007 5.75409C49.9998 4.83395 49.6424 3.95174 49.0068 3.3011C48.3713 2.65046 47.5095 2.28455 46.6107 2.28369ZM46.6107 7.48929C46.2754 7.48929 45.9477 7.38752 45.669 7.19685C45.3903 7.00619 45.173 6.73519 45.0447 6.41812C44.9164 6.10105 44.8829 5.75216 44.9483 5.41557C45.0137 5.07897 45.1751 4.76979 45.4121 4.52712C45.6492 4.28445 45.9512 4.11918 46.28 4.05223C46.6088 3.98528 46.9496 4.01964 47.2593 4.15097C47.569 4.28231 47.8338 4.50471 48.02 4.79006C48.2063 5.07542 48.3057 5.4109 48.3057 5.75409C48.3051 6.21412 48.1263 6.65514 47.8086 6.98043C47.4908 7.30572 47.06 7.48871 46.6107 7.48929Z" fill="url(#paint20_linear_1424_6555)"/>
<path d="M38.5596 6.30304C38.7494 6.30304 38.9349 6.24543 39.0927 6.1375C39.2505 6.02957 39.3734 5.87616 39.4461 5.69667C39.5187 5.51718 39.5377 5.31968 39.5007 5.12914C39.4637 4.9386 39.3723 4.76358 39.2381 4.6262C39.1039 4.48883 38.9329 4.39528 38.7468 4.35738C38.5607 4.31947 38.3677 4.33893 38.1924 4.41327C38.0171 4.48762 37.8672 4.61352 37.7618 4.77505C37.6564 4.93658 37.6001 5.1265 37.6001 5.32077C37.6002 5.58124 37.7014 5.831 37.8813 6.01518C38.0612 6.19936 38.3052 6.3029 38.5596 6.30304Z" fill="url(#paint21_linear_1424_6555)"/>
<path d="M35.1695 1.96503C35.3592 1.96503 35.5448 1.90742 35.7025 1.79949C35.8603 1.69155 35.9833 1.53814 36.0559 1.35866C36.1286 1.17917 36.1476 0.981669 36.1105 0.791127C36.0735 0.600586 35.9821 0.425563 35.8479 0.28819C35.7137 0.150817 35.5428 0.0572639 35.3567 0.0193629C35.1705 -0.0185382 34.9776 0.000913607 34.8023 0.0752593C34.627 0.149605 34.4771 0.275505 34.3717 0.437038C34.2662 0.598572 34.21 0.788483 34.21 0.982758C34.2101 1.24323 34.3112 1.49299 34.4911 1.67717C34.6711 1.86135 34.915 1.96488 35.1695 1.96503Z" fill="url(#paint22_linear_1424_6555)"/>
<path d="M19.4919 12.6949V16.1653H16.0998C15.8756 16.1653 15.6605 16.2565 15.502 16.4188C15.3435 16.5811 15.2544 16.8012 15.2544 17.0307V20.5006C15.2544 20.7301 15.3435 20.9502 15.502 21.1125C15.6605 21.2749 15.8756 21.366 16.0998 21.366H19.4897V24.8364C19.4897 25.066 19.5788 25.2861 19.7374 25.4484C19.8959 25.6107 20.1109 25.7019 20.3351 25.7019H23.7251C23.9493 25.7019 24.1643 25.6107 24.3229 25.4484C24.4814 25.2861 24.5705 25.066 24.5705 24.8364V21.366H27.9605C28.1847 21.366 28.3997 21.2749 28.5582 21.1125C28.7168 20.9502 28.8058 20.7301 28.8058 20.5006V17.0329C28.8058 16.8034 28.7168 16.5832 28.5582 16.4209C28.3997 16.2586 28.1847 16.1675 27.9605 16.1675H24.5705V12.6949C24.5705 12.4654 24.4814 12.2453 24.3229 12.083C24.1643 11.9207 23.9493 11.8295 23.7251 11.8295H20.3351C20.1113 11.83 19.8968 11.9215 19.7387 12.0837C19.5806 12.246 19.4919 12.4658 19.4919 12.6949ZM21.1868 17.0329V13.5625H22.8818V17.0329C22.8818 17.2624 22.9709 17.4826 23.1294 17.6449C23.288 17.8072 23.503 17.8983 23.7272 17.8983H27.1172V19.6352H23.7272C23.503 19.6352 23.288 19.7263 23.1294 19.8886C22.9709 20.0509 22.8818 20.2711 22.8818 20.5006V23.971H21.1868V20.5006C21.1868 20.2711 21.0978 20.0509 20.9392 19.8886C20.7807 19.7263 20.5657 19.6352 20.3415 19.6352H16.9515V17.9H20.3415C20.4526 17.9 20.5627 17.8775 20.6653 17.8339C20.768 17.7903 20.8613 17.7264 20.9398 17.6459C21.0183 17.5654 21.0806 17.4698 21.123 17.3646C21.1653 17.2594 21.1871 17.1467 21.1868 17.0329Z" fill="url(#paint23_linear_1424_6555)"/>
<path d="M24.5763 42.1916V38.7212H27.9663C28.1905 38.7212 28.4055 38.63 28.564 38.4677C28.7226 38.3054 28.8116 38.0853 28.8116 37.8557V34.3853C28.8116 34.1558 28.7226 33.9357 28.564 33.7734C28.4055 33.6111 28.1905 33.5199 27.9663 33.5199H24.5763V30.0495C24.5763 29.82 24.4872 29.5999 24.3287 29.4376C24.1701 29.2753 23.9551 29.1841 23.7309 29.1841H20.3409C20.1167 29.1841 19.9017 29.2753 19.7432 29.4376C19.5846 29.5999 19.4956 29.82 19.4956 30.0495V33.5199H16.0998C15.8756 33.5199 15.6605 33.6111 15.502 33.7734C15.3435 33.9357 15.2544 34.1558 15.2544 34.3853V37.8514C15.2544 38.0809 15.3435 38.3011 15.502 38.4634C15.6605 38.6257 15.8756 38.7169 16.0998 38.7169H19.4897V42.1872C19.4897 42.4168 19.5788 42.6369 19.7374 42.7992C19.8959 42.9615 20.1109 43.0527 20.3351 43.0527H23.7251C23.8363 43.0535 23.9465 43.0318 24.0494 42.9889C24.1524 42.9461 24.2461 42.8828 24.3251 42.8028C24.4042 42.7229 24.4671 42.6277 24.5102 42.5228C24.5533 42.4179 24.5757 42.3054 24.5763 42.1916ZM22.8813 37.8536V41.324H21.1863V37.8514C21.1863 37.6219 21.0973 37.4018 20.9387 37.2395C20.7802 37.0772 20.5651 36.986 20.3409 36.986H16.951V35.2508H20.3409C20.5651 35.2508 20.7802 35.1596 20.9387 34.9973C21.0973 34.835 21.1863 34.6149 21.1863 34.3853V30.915H22.8813V34.3853C22.8813 34.6149 22.9704 34.835 23.1289 34.9973C23.2874 35.1596 23.5025 35.2508 23.7267 35.2508H27.1167V36.986H23.7267C23.5025 36.986 23.2874 37.0772 23.1289 37.2395C22.9704 37.4018 22.8813 37.6219 22.8813 37.8514V37.8536Z" fill="url(#paint24_linear_1424_6555)"/>
</g>
<defs>
<linearGradient id="paint0_linear_1424_6555" x1="4.03997" y1="13.7993" x2="4.03997" y2="18.4306" gradientUnits="userSpaceOnUse">
<stop stop-color="#5E75E8"/>
<stop offset="1" stop-color="#DA88DE"/>
</linearGradient>
<linearGradient id="paint1_linear_1424_6555" x1="0.975316" y1="26.5541" x2="0.975316" y2="31.6592" gradientUnits="userSpaceOnUse">
<stop stop-color="#5E75E8"/>
<stop offset="1" stop-color="#DA88DE"/>
</linearGradient>
<linearGradient id="paint2_linear_1424_6555" x1="1.50046" y1="19.8331" x2="1.50046" y2="24.8764" gradientUnits="userSpaceOnUse">
<stop stop-color="#5E75E8"/>
<stop offset="1" stop-color="#DA88DE"/>
</linearGradient>
<linearGradient id="paint3_linear_1424_6555" x1="13.9707" y1="5.93213" x2="13.9707" y2="8.96707" gradientUnits="userSpaceOnUse">
<stop stop-color="#5E75E8"/>
<stop offset="1" stop-color="#DA88DE"/>
</linearGradient>
<linearGradient id="paint4_linear_1424_6555" x1="38.0994" y1="11.2449" x2="38.0994" y2="15.5673" gradientUnits="userSpaceOnUse">
<stop stop-color="#5E75E8"/>
<stop offset="1" stop-color="#DA88DE"/>
</linearGradient>
<linearGradient id="paint5_linear_1424_6555" x1="2.49778" y1="33.2332" x2="2.49778" y2="38.1149" gradientUnits="userSpaceOnUse">
<stop stop-color="#5E75E8"/>
<stop offset="1" stop-color="#DA88DE"/>
</linearGradient>
<linearGradient id="paint6_linear_1424_6555" x1="20.3752" y1="4.89075" x2="20.3752" y2="6.88704" gradientUnits="userSpaceOnUse">
<stop stop-color="#5E75E8"/>
<stop offset="1" stop-color="#DA88DE"/>
</linearGradient>
<linearGradient id="paint7_linear_1424_6555" x1="41.5554" y1="16.7338" x2="41.5554" y2="21.6115" gradientUnits="userSpaceOnUse">
<stop stop-color="#5E75E8"/>
<stop offset="1" stop-color="#DA88DE"/>
</linearGradient>
<linearGradient id="paint8_linear_1424_6555" x1="33.0823" y1="7.25256" x2="33.0823" y2="10.769" gradientUnits="userSpaceOnUse">
<stop stop-color="#5E75E8"/>
<stop offset="1" stop-color="#DA88DE"/>
</linearGradient>
<linearGradient id="paint9_linear_1424_6555" x1="26.9832" y1="5.15393" x2="26.9832" y2="7.68337" gradientUnits="userSpaceOnUse">
<stop stop-color="#5E75E8"/>
<stop offset="1" stop-color="#DA88DE"/>
</linearGradient>
<linearGradient id="paint10_linear_1424_6555" x1="8.33939" y1="9.00916" x2="8.33939" y2="12.954" gradientUnits="userSpaceOnUse">
<stop stop-color="#5E75E8"/>
<stop offset="1" stop-color="#DA88DE"/>
</linearGradient>
<linearGradient id="paint11_linear_1424_6555" x1="5.93794" y1="39.2828" x2="5.93794" y2="43.611" gradientUnits="userSpaceOnUse">
<stop stop-color="#5E75E8"/>
<stop offset="1" stop-color="#DA88DE"/>
</linearGradient>
<linearGradient id="paint12_linear_1424_6555" x1="40.006" y1="36.4951" x2="40.006" y2="41.1216" gradientUnits="userSpaceOnUse">
<stop stop-color="#5E75E8"/>
<stop offset="1" stop-color="#DA88DE"/>
</linearGradient>
<linearGradient id="paint13_linear_1424_6555" x1="30.0546" y1="45.9365" x2="30.0546" y2="48.9652" gradientUnits="userSpaceOnUse">
<stop stop-color="#5E75E8"/>
<stop offset="1" stop-color="#DA88DE"/>
</linearGradient>
<linearGradient id="paint14_linear_1424_6555" x1="42.5562" y1="30.0533" x2="42.5562" y2="35.0929" gradientUnits="userSpaceOnUse">
<stop stop-color="#5E75E8"/>
<stop offset="1" stop-color="#DA88DE"/>
</linearGradient>
<linearGradient id="paint15_linear_1424_6555" x1="43.0915" y1="23.1842" x2="43.0915" y2="28.3976" gradientUnits="userSpaceOnUse">
<stop stop-color="#5E75E8"/>
<stop offset="1" stop-color="#DA88DE"/>
</linearGradient>
<linearGradient id="paint16_linear_1424_6555" x1="35.6987" y1="41.9651" x2="35.6987" y2="45.9023" gradientUnits="userSpaceOnUse">
<stop stop-color="#5E75E8"/>
<stop offset="1" stop-color="#DA88DE"/>
</linearGradient>
<linearGradient id="paint17_linear_1424_6555" x1="17.0614" y1="47.1901" x2="17.0614" y2="49.7254" gradientUnits="userSpaceOnUse">
<stop stop-color="#5E75E8"/>
<stop offset="1" stop-color="#DA88DE"/>
</linearGradient>
<linearGradient id="paint18_linear_1424_6555" x1="23.6449" y1="48.0057" x2="23.6449" y2="49.9951" gradientUnits="userSpaceOnUse">
<stop stop-color="#5E75E8"/>
<stop offset="1" stop-color="#DA88DE"/>
</linearGradient>
<linearGradient id="paint19_linear_1424_6555" x1="10.948" y1="44.09" x2="10.948" y2="47.6132" gradientUnits="userSpaceOnUse">
<stop stop-color="#5E75E8"/>
<stop offset="1" stop-color="#DA88DE"/>
</linearGradient>
<linearGradient id="paint20_linear_1424_6555" x1="46.6107" y1="2.28369" x2="46.6107" y2="9.22449" gradientUnits="userSpaceOnUse">
<stop stop-color="#5E75E8"/>
<stop offset="1" stop-color="#DA88DE"/>
</linearGradient>
<linearGradient id="paint21_linear_1424_6555" x1="38.5596" y1="4.3385" x2="38.5596" y2="6.30304" gradientUnits="userSpaceOnUse">
<stop stop-color="#5E75E8"/>
<stop offset="1" stop-color="#DA88DE"/>
</linearGradient>
<linearGradient id="paint22_linear_1424_6555" x1="35.1695" y1="0.000488281" x2="35.1695" y2="1.96503" gradientUnits="userSpaceOnUse">
<stop stop-color="#5E75E8"/>
<stop offset="1" stop-color="#DA88DE"/>
</linearGradient>
<linearGradient id="paint23_linear_1424_6555" x1="22.0301" y1="11.8295" x2="22.0301" y2="25.7019" gradientUnits="userSpaceOnUse">
<stop stop-color="#5E75E8"/>
<stop offset="1" stop-color="#DA88DE"/>
</linearGradient>
<linearGradient id="paint24_linear_1424_6555" x1="22.033" y1="29.1841" x2="22.033" y2="43.0527" gradientUnits="userSpaceOnUse">
<stop stop-color="#5E75E8"/>
<stop offset="1" stop-color="#DA88DE"/>
</linearGradient>
<clipPath id="clip0_1424_6555">
<rect width="50" height="50" fill="white"/>
</clipPath>
</defs>
</svg>
