<svg width="50" height="51" viewBox="0 0 50 51" fill="none" xmlns="http://www.w3.org/2000/svg">
<path d="M21.2803 16.9572C21.2803 16.7686 21.2244 16.5843 21.1196 16.4275C21.0149 16.2707 20.866 16.1485 20.6917 16.0764C20.5175 16.0042 20.3259 15.9853 20.1409 16.0221C19.956 16.0589 19.7861 16.1497 19.6528 16.283C19.5194 16.4164 19.4286 16.5862 19.3919 16.7712C19.3551 16.9561 19.3739 17.1478 19.4461 17.322C19.5183 17.4962 19.6405 17.6451 19.7972 17.7499C19.954 17.8546 20.1383 17.9105 20.3269 17.9105C20.5797 17.9104 20.8221 17.8099 21.0009 17.6311C21.1796 17.4524 21.2801 17.21 21.2803 16.9572Z" fill="url(#paint0_linear_1424_6408)"/>
<path d="M12.7459 1.90785C12.9346 1.90795 13.1191 1.85209 13.276 1.74731C13.433 1.64253 13.5553 1.49356 13.6276 1.31923C13.6999 1.1449 13.7188 0.953051 13.682 0.767957C13.6452 0.582862 13.5544 0.41284 13.4209 0.279398C13.2875 0.145957 13.1175 0.0550929 12.9324 0.0183031C12.7473 -0.0184868 12.5554 0.000450237 12.3811 0.0727184C12.2068 0.144987 12.0578 0.267338 11.953 0.424294C11.8482 0.58125 11.7924 0.765757 11.7925 0.954471C11.7926 1.20728 11.8931 1.44969 12.0719 1.62845C12.2506 1.80721 12.493 1.9077 12.7459 1.90785Z" fill="url(#paint1_linear_1424_6408)"/>
<path d="M0.954472 21.0566C0.765781 21.0565 0.581295 21.1124 0.424351 21.2171C0.267407 21.3219 0.145056 21.4708 0.0727714 21.6451C0.000487025 21.8194 -0.0184825 22.0112 0.0182628 22.1963C0.0550082 22.3814 0.145817 22.5514 0.279204 22.6849C0.412591 22.8184 0.582562 22.9093 0.76762 22.9461C0.952678 22.983 1.14451 22.9641 1.31885 22.8919C1.49319 22.8197 1.6422 22.6975 1.74704 22.5406C1.85188 22.3837 1.90785 22.1993 1.90785 22.0106C1.90785 21.7577 1.80742 21.5151 1.62864 21.3362C1.44987 21.1574 1.20737 21.0568 0.954472 21.0566Z" fill="url(#paint2_linear_1424_6408)"/>
<path d="M8.95572 32.5383C9.95518 32.5383 10.9322 32.2419 11.7632 31.6866C12.5942 31.1314 13.242 30.3421 13.6244 29.4187C14.0069 28.4954 14.107 27.4793 13.912 26.499C13.717 25.5188 13.2357 24.6183 12.529 23.9116C11.8223 23.2049 10.9218 22.7236 9.94159 22.5286C8.96133 22.3336 7.94526 22.4337 7.02188 22.8162C6.09849 23.1987 5.30926 23.8464 4.75399 24.6774C4.19872 25.5084 3.90234 26.4854 3.90234 27.4849C3.9038 28.8247 4.43667 30.1092 5.38405 31.0566C6.33143 32.004 7.61593 32.5368 8.95572 32.5383ZM8.95572 24.116C9.62203 24.116 10.2734 24.3136 10.8274 24.6837C11.3814 25.0539 11.8132 25.5801 12.0682 26.1957C12.3232 26.8113 12.3899 27.4886 12.2599 28.1421C12.1299 28.7956 11.8091 29.3959 11.3379 29.8671C10.8668 30.3382 10.2665 30.6591 9.61296 30.7891C8.95946 30.9191 8.28208 30.8524 7.66649 30.5974C7.0509 30.3424 6.52475 29.9106 6.15457 29.3566C5.78439 28.8026 5.5868 28.1512 5.5868 27.4849C5.58767 26.5917 5.94289 25.7353 6.5745 25.1037C7.2061 24.4721 8.0625 24.1169 8.95572 24.116Z" fill="url(#paint3_linear_1424_6408)"/>
<path d="M44.3293 22.4315C43.3298 22.4315 42.3528 22.7279 41.5217 23.2832C40.6907 23.8384 40.043 24.6277 39.6605 25.5511C39.2781 26.4744 39.178 27.4905 39.373 28.4708C39.568 29.451 40.0493 30.3514 40.756 31.0582C41.4627 31.7649 42.3631 32.2462 43.3434 32.4412C44.3236 32.6362 45.3397 32.5361 46.2631 32.1536C47.1865 31.7711 47.9757 31.1234 48.531 30.2924C49.0863 29.4614 49.3826 28.4844 49.3826 27.4849C49.3812 26.1451 48.8483 24.8606 47.9009 23.9132C46.9536 22.9658 45.6691 22.433 44.3293 22.4315ZM44.3293 30.8538C43.6629 30.8538 43.0116 30.6562 42.4576 30.286C41.9036 29.9159 41.4718 29.3897 41.2168 28.7741C40.9618 28.1585 40.8951 27.4812 41.0251 26.8277C41.1551 26.1741 41.4759 25.5739 41.9471 25.1027C42.4182 24.6316 43.0185 24.3107 43.672 24.1807C44.3255 24.0507 45.0029 24.1174 45.6185 24.3724C46.2341 24.6274 46.7602 25.0592 47.1304 25.6132C47.5006 26.1672 47.6982 26.8186 47.6982 27.4849C47.6973 28.3781 47.3421 29.2345 46.7105 29.8661C46.0789 30.4977 45.2225 30.8529 44.3293 30.8538Z" fill="url(#paint4_linear_1424_6408)"/>
<path d="M44.3296 40.1181C43.1364 40.12 41.9824 40.5438 41.0715 41.3145C40.1606 42.0852 39.5515 43.1531 39.352 44.3295H31.6196C31.4188 43.1548 30.809 42.089 29.8982 41.3206C28.9873 40.5521 27.8339 40.1306 26.6422 40.1306C25.4505 40.1306 24.2972 40.5521 23.3863 41.3206C22.4754 42.089 21.8656 43.1548 21.6649 44.3295H13.933C13.8068 43.5793 13.5118 42.8676 13.0702 42.2482L23.7182 31.6003C24.6901 32.2948 25.877 32.622 27.0675 32.5236C28.2581 32.4251 29.3751 31.9075 30.2197 31.0627C31.0644 30.218 31.582 29.1009 31.6803 27.9104C31.7787 26.7198 31.4514 25.533 30.7568 24.5611L41.4047 13.9132C42.2979 14.548 43.3734 14.875 44.4688 14.8448C45.5641 14.8147 46.62 14.4291 47.4769 13.7461C48.3339 13.0632 48.9454 12.12 49.2192 11.059C49.4931 9.99795 49.4143 8.87664 48.9948 7.8643C48.5754 6.85197 47.838 6.00355 46.894 5.44712C45.95 4.8907 44.8506 4.65646 43.7617 4.77976C42.6729 4.90306 41.6537 5.37721 40.858 6.13064C40.0623 6.88408 39.5333 7.8759 39.3509 8.95639H31.6196C31.4188 7.78171 30.809 6.71589 29.8982 5.94747C28.9873 5.17905 27.8339 4.75756 26.6422 4.75756C25.4505 4.75756 24.2972 5.17905 23.3863 5.94747C22.4754 6.71589 21.8656 7.78171 21.6649 8.95639H13.933C13.7219 7.70703 13.049 6.5826 12.0479 5.80592C11.0468 5.02923 9.7904 4.65699 8.52775 4.76295C7.26511 4.86891 6.08834 5.44535 5.23066 6.37802C4.37298 7.31069 3.89697 8.53154 3.89697 9.79862C3.89697 11.0657 4.37298 12.2866 5.23066 13.2192C6.08834 14.1519 7.26511 14.7283 8.52775 14.8343C9.7904 14.9403 11.0468 14.568 12.0479 13.7913C13.049 13.0147 13.7219 11.8902 13.933 10.6409H21.6649C21.8656 11.8155 22.4754 12.8814 23.3863 13.6498C24.2972 14.4182 25.4505 14.8397 26.6422 14.8397C27.8339 14.8397 28.9873 14.4182 29.8982 13.6498C30.809 12.8814 31.4188 11.8155 31.6196 10.6409H39.352C39.4782 11.391 39.7732 12.1027 40.2148 12.7221L29.5668 23.3701C28.595 22.6761 27.4084 22.3494 26.2183 22.448C25.0282 22.5466 23.9116 23.0641 23.0671 23.9085C22.2227 24.7529 21.7051 25.8694 21.6064 27.0595C21.5077 28.2496 21.8344 29.4362 22.5282 30.4081L11.8803 41.0561C10.9871 40.4213 9.91164 40.0943 8.81626 40.1244C7.72087 40.1545 6.66502 40.5402 5.80806 41.2231C4.95111 41.906 4.33957 42.8492 4.06576 43.9102C3.79194 44.9713 3.87071 46.0926 4.29017 47.1049C4.70963 48.1173 5.44702 48.9657 6.39104 49.5221C7.33505 50.0785 8.43445 50.3128 9.52329 50.1895C10.6121 50.0662 11.6313 49.592 12.427 48.8386C13.2227 48.0852 13.7517 47.0933 13.9341 46.0128H21.6654C21.8662 47.1875 22.476 48.2533 23.3868 49.0218C24.2977 49.7902 25.4511 50.2117 26.6428 50.2117C27.8345 50.2117 28.9878 49.7902 29.8987 49.0218C30.8096 48.2533 31.4194 47.1875 31.6201 46.0128H39.3525C39.5138 46.9618 39.9431 47.8449 40.5896 48.558C41.2361 49.2712 42.073 49.7847 43.0017 50.038C43.9303 50.2913 44.912 50.274 45.8311 49.9879C46.7502 49.7019 47.5684 49.1591 48.1893 48.4235C48.8102 47.6879 49.2079 46.7902 49.3355 45.8361C49.4632 44.882 49.3155 43.9113 48.9098 43.0384C48.5041 42.1655 47.8574 41.4267 47.0458 40.9091C46.2342 40.3915 45.2916 40.1167 44.329 40.117L44.3296 40.1181ZM8.95541 13.1667C8.2891 13.1667 7.63776 12.9691 7.08374 12.599C6.52973 12.2288 6.09792 11.7026 5.84294 11.087C5.58795 10.4714 5.52124 9.79406 5.65123 9.14056C5.78122 8.48705 6.10208 7.88677 6.57323 7.41562C7.04438 6.94447 7.64466 6.62361 8.29817 6.49362C8.95167 6.36363 9.62905 6.43034 10.2446 6.68533C10.8602 6.94031 11.3864 7.37211 11.7566 7.92613C12.1267 8.48015 12.3243 9.13149 12.3243 9.7978C12.3235 10.691 11.9682 11.5474 11.3366 12.179C10.705 12.8106 9.84864 13.1658 8.95541 13.1667ZM26.6425 13.1667C25.9762 13.1667 25.3248 12.9691 24.7708 12.599C24.2168 12.2288 23.785 11.7026 23.53 11.087C23.275 10.4714 23.2083 9.79406 23.3383 9.14056C23.4683 8.48705 23.7892 7.88677 24.2603 7.41562C24.7315 6.94447 25.3318 6.62361 25.9853 6.49362C26.6388 6.36363 27.3161 6.43034 27.9317 6.68533C28.5473 6.94031 29.0735 7.37211 29.4437 7.92613C29.8138 8.48015 30.0114 9.13149 30.0114 9.7978C30.0105 10.6906 29.6556 11.5467 29.0245 12.1782C28.3934 12.8098 27.5375 13.1653 26.6447 13.1667H26.6425ZM44.3296 6.42888C44.9959 6.42888 45.6472 6.62647 46.2013 6.99665C46.7553 7.36683 47.1871 7.89298 47.4421 8.50857C47.697 9.12416 47.7638 9.80154 47.6338 10.455C47.5038 11.1086 47.1829 11.7088 46.7118 12.18C46.2406 12.6511 45.6403 12.972 44.9868 13.102C44.3333 13.232 43.656 13.1653 43.0404 12.9103C42.4248 12.6553 41.8986 12.2235 41.5284 11.6695C41.1583 11.1155 40.9607 10.4641 40.9607 9.7978C40.9615 8.90458 41.3168 8.04819 41.9484 7.41658C42.58 6.78497 43.4364 6.42976 44.3296 6.42888ZM26.6447 24.116C27.3108 24.1164 27.9619 24.3143 28.5156 24.6847C29.0693 25.0551 29.5007 25.5813 29.7554 26.1968C30.0101 26.8123 30.0766 27.4896 29.9465 28.1429C29.8164 28.7962 29.4956 29.3963 29.0245 29.8673C28.5534 30.3383 27.9533 30.659 27.2999 30.789C26.6466 30.919 25.9694 30.8524 25.3539 30.5976C24.7384 30.3428 24.2123 29.9113 23.842 29.3575C23.4717 28.8038 23.2739 28.1527 23.2736 27.4865C23.274 26.5926 23.6293 25.7355 24.2615 25.1035C24.8936 24.4715 25.7508 24.1163 26.6447 24.116ZM8.95761 48.5404C8.2913 48.5404 7.63995 48.3428 7.08594 47.9726C6.53192 47.6024 6.10012 47.0763 5.84513 46.4607C5.59015 45.8451 5.52343 45.1677 5.65342 44.5142C5.78341 43.8607 6.10427 43.2604 6.57542 42.7892C7.04657 42.3181 7.64686 41.9972 8.30036 41.8672C8.95387 41.7373 9.63125 41.804 10.2468 42.059C10.8624 42.3139 11.3886 42.7457 11.7588 43.2998C12.1289 43.8538 12.3265 44.5051 12.3265 45.1714C12.3257 46.065 11.9701 46.9218 11.3381 47.5534C10.706 48.1851 9.84902 48.5401 8.95541 48.5404H8.95761ZM26.6447 48.5404C25.9784 48.5404 25.327 48.3428 24.773 47.9726C24.219 47.6024 23.7872 47.0763 23.5322 46.4607C23.2772 45.8451 23.2105 45.1677 23.3405 44.5142C23.4705 43.8607 23.7914 43.2604 24.2625 42.7892C24.7337 42.3181 25.3339 41.9972 25.9875 41.8672C26.641 41.7373 27.3183 41.804 27.9339 42.059C28.5495 42.3139 29.0757 42.7457 29.4458 43.2998C29.816 43.8538 30.0136 44.5051 30.0136 45.1714C30.0127 46.0647 29.6575 46.921 29.0259 47.5527C28.3943 48.1843 27.5379 48.5395 26.6447 48.5404ZM44.3318 48.5404C43.6655 48.5404 43.0141 48.3428 42.4601 47.9726C41.9061 47.6024 41.4743 47.0763 41.2193 46.4607C40.9643 45.8451 40.8976 45.1677 41.0276 44.5142C41.1576 43.8607 41.4785 43.2604 41.9496 42.7892C42.4208 42.3181 43.021 41.9972 43.6745 41.8672C44.3281 41.7373 45.0054 41.804 45.621 42.059C46.2366 42.3139 46.7628 42.7457 47.1329 43.2998C47.5031 43.8538 47.7007 44.5051 47.7007 45.1714C47.6998 46.0647 47.3446 46.921 46.713 47.5527C46.0814 48.1843 45.225 48.5395 44.3318 48.5404Z" fill="url(#paint5_linear_1424_6408)"/>
<defs>
<linearGradient id="paint0_linear_1424_6408" x1="20.3269" y1="16.0038" x2="20.3269" y2="17.9105" gradientUnits="userSpaceOnUse">
<stop stop-color="#5E75E8"/>
<stop offset="1" stop-color="#DA88DE"/>
</linearGradient>
<linearGradient id="paint1_linear_1424_6408" x1="12.7464" y1="0" x2="12.7464" y2="1.90785" gradientUnits="userSpaceOnUse">
<stop stop-color="#5E75E8"/>
<stop offset="1" stop-color="#DA88DE"/>
</linearGradient>
<linearGradient id="paint2_linear_1424_6408" x1="0.953923" y1="21.0566" x2="0.953923" y2="22.9645" gradientUnits="userSpaceOnUse">
<stop stop-color="#5E75E8"/>
<stop offset="1" stop-color="#DA88DE"/>
</linearGradient>
<linearGradient id="paint3_linear_1424_6408" x1="8.95572" y1="22.4315" x2="8.95572" y2="32.5383" gradientUnits="userSpaceOnUse">
<stop stop-color="#5E75E8"/>
<stop offset="1" stop-color="#DA88DE"/>
</linearGradient>
<linearGradient id="paint4_linear_1424_6408" x1="44.3293" y1="22.4315" x2="44.3293" y2="32.5383" gradientUnits="userSpaceOnUse">
<stop stop-color="#5E75E8"/>
<stop offset="1" stop-color="#DA88DE"/>
</linearGradient>
<linearGradient id="paint5_linear_1424_6408" x1="26.6386" y1="4.74524" x2="26.6386" y2="50.2216" gradientUnits="userSpaceOnUse">
<stop stop-color="#5E75E8"/>
<stop offset="1" stop-color="#DA88DE"/>
</linearGradient>
</defs>
</svg>
