<svg width="53" height="50" viewBox="0 0 53 50" fill="none" xmlns="http://www.w3.org/2000/svg">
<g clip-path="url(#clip0_1424_6533)">
<path d="M3.95137 19.0454C3.76585 19.2588 3.67298 19.5367 3.69314 19.8181C3.71331 20.0995 3.84487 20.3615 4.05894 20.5465C5.2461 21.574 6.62956 22.3524 8.12634 22.8349C8.39607 22.922 8.68951 22.8989 8.94212 22.7707C9.19473 22.6425 9.38581 22.4196 9.47333 22.1512C9.56085 21.8828 9.53763 21.5908 9.40879 21.3394C9.27995 21.088 9.05604 20.8978 8.78631 20.8107C7.56207 20.4152 6.43076 19.7775 5.46032 18.936C5.24601 18.7513 4.96682 18.6587 4.68402 18.6787C4.40123 18.6987 4.13795 18.8295 3.95198 19.0424L3.95137 19.0454Z" fill="url(#paint0_linear_1424_6533)"/>
<path d="M1.32985 9.12899C1.462 9.17611 1.60219 9.19683 1.74239 9.18996C1.88259 9.18308 2.02006 9.14874 2.14691 9.08891C2.27375 9.02908 2.38749 8.94493 2.48161 8.84129C2.57572 8.73764 2.64837 8.61654 2.69537 8.48491C3.12724 7.27753 3.7994 6.16926 4.67165 5.22641C4.77095 5.12435 4.8487 5.00354 4.90032 4.8711C4.95195 4.73865 4.97639 4.59726 4.97221 4.45527C4.96803 4.31327 4.93532 4.17355 4.876 4.04434C4.81668 3.91513 4.73196 3.79905 4.62683 3.70295C4.5217 3.60685 4.3983 3.53268 4.2639 3.48482C4.1295 3.43695 3.98682 3.41636 3.8443 3.42425C3.70177 3.43215 3.56228 3.46837 3.43404 3.53079C3.30581 3.5932 3.19144 3.68054 3.09768 3.78766C2.03182 4.93857 1.21059 6.29189 0.683249 7.76644C0.635403 7.89813 0.614185 8.03793 0.620815 8.17781C0.627445 8.31768 0.661791 8.45488 0.72188 8.5815C0.78197 8.70813 0.866616 8.82168 0.970953 8.91563C1.07529 9.00959 1.19726 9.0821 1.32985 9.12899Z" fill="url(#paint1_linear_1424_6533)"/>
<path d="M19.3603 19.2583C19.5798 19.4369 19.8615 19.5214 20.1436 19.4933C20.4256 19.4652 20.6849 19.3267 20.8644 19.1084C21.8616 17.8971 22.6035 16.4985 23.0461 14.9959C23.12 14.7269 23.0849 14.4397 22.9483 14.1962C22.8117 13.9527 22.5845 13.7722 22.3156 13.6937C22.0467 13.6152 21.7575 13.6448 21.5103 13.7763C21.2632 13.9077 21.0777 14.1305 20.9938 14.3966C20.6327 15.626 20.0254 16.77 19.2084 17.7597C19.1194 17.868 19.0527 17.9927 19.0122 18.1266C18.9717 18.2606 18.9581 18.4012 18.9722 18.5404C18.9863 18.6796 19.0279 18.8146 19.0944 18.9378C19.161 19.061 19.2514 19.1699 19.3603 19.2583Z" fill="url(#paint2_linear_1424_6533)"/>
<path d="M2.16528 17.4609C2.34693 17.4608 2.52554 17.4146 2.68426 17.3267C2.84298 17.2388 2.97655 17.1121 3.07235 16.9585C3.16816 16.8049 3.22303 16.6296 3.2318 16.449C3.24056 16.2684 3.20292 16.0887 3.12243 15.9266C2.55243 14.7792 2.22168 13.5288 2.15009 12.2508C2.14392 12.1101 2.10971 11.9719 2.04946 11.8444C1.98921 11.7169 1.9041 11.6026 1.7991 11.5081C1.69409 11.4136 1.57126 11.3409 1.43776 11.294C1.30425 11.2471 1.16271 11.2271 1.02137 11.2351C0.880026 11.2431 0.741691 11.279 0.614392 11.3406C0.487093 11.4023 0.373368 11.4885 0.279818 11.5942C0.186268 11.7 0.114757 11.8232 0.0694364 11.9566C0.024116 12.0901 0.0058891 12.2312 0.0158134 12.3718C0.101284 13.9355 0.505068 15.4657 1.20267 16.8694C1.29098 17.0476 1.42768 17.1977 1.59727 17.3025C1.76687 17.4074 1.96258 17.4629 2.16225 17.4627L2.16528 17.4609Z" fill="url(#paint3_linear_1424_6533)"/>
<path d="M11.609 22.3916C11.6315 22.657 11.7533 22.9043 11.9502 23.0846C12.1472 23.2649 12.4049 23.3651 12.6725 23.3653C12.7029 23.3653 12.7333 23.3653 12.7643 23.3617C14.3323 23.2308 15.8575 22.7855 17.2479 22.0524C17.4942 21.918 17.6775 21.6925 17.7582 21.4248C17.8389 21.157 17.8104 20.8684 17.6791 20.6213C17.5477 20.3742 17.3239 20.1885 17.0561 20.1042C16.7883 20.0199 16.4979 20.0439 16.2477 20.1709C15.1112 20.7704 13.8644 21.1344 12.5826 21.2408C12.3007 21.2652 12.04 21.3999 11.8578 21.6153C11.6755 21.8307 11.5865 22.1092 11.6102 22.3898L11.609 22.3916Z" fill="url(#paint4_linear_1424_6533)"/>
<path d="M7.31797 3.08794C7.47118 3.08778 7.62254 3.05456 7.7616 2.99057C8.9312 2.45731 10.1972 2.16519 11.4832 2.1318C11.6252 2.13034 11.7655 2.10075 11.8959 2.04473C12.0263 1.98872 12.1441 1.90742 12.2426 1.80557C12.341 1.70372 12.4181 1.58338 12.4693 1.45156C12.5205 1.31974 12.5448 1.17909 12.5407 1.03782C12.5367 0.896557 12.5044 0.757509 12.4458 0.628797C12.3871 0.500086 12.3033 0.384291 12.1992 0.288178C12.0951 0.192065 11.9728 0.117559 11.8394 0.0690115C11.7061 0.0204639 11.5643 -0.00115266 11.4224 0.00542557C9.84984 0.0463897 8.30187 0.403945 6.87191 1.05652C6.64984 1.15746 6.46918 1.33101 6.35997 1.54832C6.25076 1.76562 6.2196 2.01358 6.27165 2.25096C6.3237 2.48833 6.45583 2.70083 6.64608 2.8531C6.83633 3.00537 7.07322 3.08824 7.31737 3.08794H7.31797Z" fill="url(#paint5_linear_1424_6533)"/>
<path d="M15.2491 2.77713C16.4484 3.24063 17.5416 3.93996 18.4633 4.83335C18.5639 4.93076 18.6828 5.00749 18.8133 5.05916C18.9437 5.11082 19.0831 5.13642 19.2235 5.13448C19.3638 5.13254 19.5024 5.10311 19.6314 5.04786C19.7603 4.99261 19.8771 4.91263 19.9749 4.81249C20.0728 4.71234 20.1499 4.59398 20.2019 4.46418C20.2538 4.33438 20.2795 4.19568 20.2775 4.05598C20.2756 3.91629 20.246 3.77834 20.1905 3.65002C20.135 3.5217 20.0546 3.40553 19.954 3.30812C18.8278 2.21521 17.4918 1.35954 16.0257 0.792274C15.7616 0.689781 15.4673 0.695918 15.2077 0.809334C14.9481 0.922751 14.7444 1.13416 14.6414 1.39704C14.5384 1.65993 14.5446 1.95277 14.6585 2.21113C14.7725 2.46949 14.9849 2.67222 15.2491 2.77471V2.77713Z" fill="url(#paint6_linear_1424_6533)"/>
<path d="M21.1922 6.58049C20.9318 6.69027 20.7257 6.89834 20.6192 7.15909C20.5127 7.41984 20.5144 7.71198 20.624 7.97146C21.125 9.15092 21.3821 10.4187 21.38 11.6993C21.38 11.9814 21.4926 12.252 21.6931 12.4515C21.8936 12.651 22.1654 12.7631 22.4489 12.7631C22.7325 12.7631 23.0044 12.651 23.2048 12.4515C23.4053 12.252 23.5179 11.9814 23.5179 11.6993C23.5207 10.1342 23.2061 8.58473 22.593 7.14353C22.4822 6.88403 22.2724 6.67893 22.0098 6.57335C21.7471 6.46776 21.453 6.47033 21.1922 6.58049Z" fill="url(#paint7_linear_1424_6533)"/>
<path d="M22.4488 26.5959H1.06896C0.785455 26.5959 0.51356 26.708 0.313091 26.9075C0.112622 27.107 0 27.3776 0 27.6597V48.9362C0 49.2183 0.112622 49.4889 0.313091 49.6884C0.51356 49.8879 0.785455 50 1.06896 50H22.4488C22.5892 50 22.7283 49.9726 22.8581 49.9192C22.9878 49.8657 23.1057 49.7874 23.2051 49.6886C23.3044 49.5898 23.3832 49.4725 23.4369 49.3434C23.4907 49.2143 23.5184 49.0759 23.5184 48.9362V27.6597C23.5184 27.52 23.4907 27.3816 23.4369 27.2525C23.3832 27.1234 23.3044 27.0061 23.2051 26.9073C23.1057 26.8085 22.9878 26.7302 22.8581 26.6767C22.7283 26.6233 22.5892 26.5959 22.4488 26.5959ZM21.3798 47.8724H2.13792V28.7235H21.3798V47.8724Z" fill="url(#paint8_linear_1424_6533)"/>
<path d="M40.6225 26.5959C38.2967 26.5959 36.0232 27.2823 34.0894 28.5681C32.1556 29.854 30.6484 31.6817 29.7584 33.82C28.8684 35.9583 28.6355 38.3112 29.0892 40.5813C29.543 42.8513 30.6629 44.9364 32.3075 46.573C33.952 48.2096 36.0473 49.3242 38.3284 49.7757C40.6094 50.2272 42.9738 49.9955 45.1225 49.1098C47.2712 48.2241 49.1078 46.7241 50.3999 44.7997C51.692 42.8753 52.3817 40.6128 52.3817 38.2983C52.3783 35.1956 51.1383 32.2211 48.9337 30.0272C46.7292 27.8333 43.7402 26.5993 40.6225 26.5959ZM40.6225 47.8724C38.7196 47.8724 36.8594 47.3108 35.2772 46.2587C33.695 45.2067 32.4618 43.7113 31.7336 41.9617C31.0054 40.2122 30.8148 38.287 31.1861 36.4297C31.5573 34.5724 32.4737 32.8663 33.8192 31.5273C35.1648 30.1882 36.8791 29.2763 38.7455 28.9069C40.6118 28.5375 42.5463 28.7271 44.3044 29.4518C46.0624 30.1764 47.5651 31.4037 48.6223 32.9782C49.6795 34.5528 50.2437 36.4039 50.2437 38.2976C50.241 40.8362 49.2265 43.27 47.4227 45.065C45.619 46.86 43.1734 47.8697 40.6225 47.8724Z" fill="url(#paint9_linear_1424_6533)"/>
<path d="M51.3121 1.71919e-07H29.9322C29.6487 1.71919e-07 29.3768 0.112077 29.1764 0.311577C28.9759 0.511076 28.8633 0.781656 28.8633 1.06379V22.3402C28.8633 22.6224 28.9759 22.8929 29.1764 23.0924C29.3768 23.2919 29.6487 23.404 29.9322 23.404H51.3121C51.4525 23.4041 51.5916 23.3766 51.7213 23.3232C51.8511 23.2698 51.969 23.1914 52.0683 23.0926C52.1677 22.9939 52.2465 22.8766 52.3002 22.7475C52.354 22.6183 52.3817 22.48 52.3817 22.3402V1.06379C52.3817 0.924041 52.354 0.785661 52.3002 0.656556C52.2465 0.527452 52.1677 0.410154 52.0683 0.311364C51.969 0.212574 51.8511 0.134228 51.7213 0.0808034C51.5916 0.0273785 51.4525 -7.92766e-05 51.3121 1.71919e-07ZM50.2431 21.2764H31.0012V2.12758H50.2431V21.2764Z" fill="url(#paint10_linear_1424_6533)"/>
<path d="M40.6225 34.0425C39.7768 34.0425 38.9502 34.292 38.247 34.7596C37.5438 35.2272 36.9958 35.8917 36.6722 36.6693C36.3485 37.4468 36.2639 38.3024 36.4288 39.1278C36.5938 39.9532 37.0011 40.7114 37.599 41.3065C38.197 41.9016 38.9589 42.3069 39.7884 42.471C40.6178 42.6352 41.4775 42.551 42.2588 42.2289C43.0401 41.9068 43.7079 41.3614 44.1778 40.6617C44.6476 39.9619 44.8984 39.1392 44.8984 38.2976C44.8971 37.1695 44.4462 36.0879 43.6446 35.2902C42.843 34.4925 41.7562 34.0438 40.6225 34.0425ZM40.6225 40.4252C40.1997 40.4252 39.7863 40.3004 39.4348 40.0667C39.0832 39.8329 38.8092 39.5006 38.6473 39.1118C38.4855 38.7231 38.4432 38.2953 38.5257 37.8826C38.6082 37.4699 38.8118 37.0908 39.1108 36.7932C39.4098 36.4957 39.7907 36.293 40.2054 36.2109C40.6202 36.1289 41.05 36.171 41.4407 36.332C41.8313 36.4931 42.1652 36.7657 42.4001 37.1156C42.6351 37.4655 42.7605 37.8768 42.7605 38.2976C42.7598 38.8617 42.5344 39.4025 42.1336 39.8014C41.7328 40.2002 41.1893 40.4246 40.6225 40.4252Z" fill="url(#paint11_linear_1424_6533)"/>
</g>
<defs>
<linearGradient id="paint0_linear_1424_6533" x1="6.60798" y1="18.676" x2="6.60798" y2="22.8869" gradientUnits="userSpaceOnUse">
<stop stop-color="#5E75E8"/>
<stop offset="1" stop-color="#DA88DE"/>
</linearGradient>
<linearGradient id="paint1_linear_1424_6533" x1="2.79615" y1="3.42261" x2="2.79615" y2="9.19124" gradientUnits="userSpaceOnUse">
<stop stop-color="#5E75E8"/>
<stop offset="1" stop-color="#DA88DE"/>
</linearGradient>
<linearGradient id="paint2_linear_1424_6533" x1="21.0254" y1="13.6506" x2="21.0254" y2="19.4986" gradientUnits="userSpaceOnUse">
<stop stop-color="#5E75E8"/>
<stop offset="1" stop-color="#DA88DE"/>
</linearGradient>
<linearGradient id="paint3_linear_1424_6533" x1="1.62311" y1="11.2334" x2="1.62311" y2="17.4627" gradientUnits="userSpaceOnUse">
<stop stop-color="#5E75E8"/>
<stop offset="1" stop-color="#DA88DE"/>
</linearGradient>
<linearGradient id="paint4_linear_1424_6533" x1="14.7048" y1="20.0547" x2="14.7048" y2="23.3653" gradientUnits="userSpaceOnUse">
<stop stop-color="#5E75E8"/>
<stop offset="1" stop-color="#DA88DE"/>
</linearGradient>
<linearGradient id="paint5_linear_1424_6533" x1="9.39412" y1="0.00427246" x2="9.39412" y2="3.08794" gradientUnits="userSpaceOnUse">
<stop stop-color="#5E75E8"/>
<stop offset="1" stop-color="#DA88DE"/>
</linearGradient>
<linearGradient id="paint6_linear_1424_6533" x1="17.423" y1="0.719604" x2="17.423" y2="5.13458" gradientUnits="userSpaceOnUse">
<stop stop-color="#5E75E8"/>
<stop offset="1" stop-color="#DA88DE"/>
</linearGradient>
<linearGradient id="paint7_linear_1424_6533" x1="22.0292" y1="6.49597" x2="22.0292" y2="12.7631" gradientUnits="userSpaceOnUse">
<stop stop-color="#5E75E8"/>
<stop offset="1" stop-color="#DA88DE"/>
</linearGradient>
<linearGradient id="paint8_linear_1424_6533" x1="11.7592" y1="26.5959" x2="11.7592" y2="50" gradientUnits="userSpaceOnUse">
<stop stop-color="#5E75E8"/>
<stop offset="1" stop-color="#DA88DE"/>
</linearGradient>
<linearGradient id="paint9_linear_1424_6533" x1="40.6225" y1="26.5959" x2="40.6225" y2="50.0006" gradientUnits="userSpaceOnUse">
<stop stop-color="#5E75E8"/>
<stop offset="1" stop-color="#DA88DE"/>
</linearGradient>
<linearGradient id="paint10_linear_1424_6533" x1="40.6225" y1="0" x2="40.6225" y2="23.404" gradientUnits="userSpaceOnUse">
<stop stop-color="#5E75E8"/>
<stop offset="1" stop-color="#DA88DE"/>
</linearGradient>
<linearGradient id="paint11_linear_1424_6533" x1="40.6225" y1="34.0425" x2="40.6225" y2="42.5528" gradientUnits="userSpaceOnUse">
<stop stop-color="#5E75E8"/>
<stop offset="1" stop-color="#DA88DE"/>
</linearGradient>
<clipPath id="clip0_1424_6533">
<rect width="52.381" height="50" fill="white"/>
</clipPath>
</defs>
</svg>
