<svg width="47" height="50" viewBox="0 0 47 50" fill="none" xmlns="http://www.w3.org/2000/svg">
<g clip-path="url(#clip0_1424_6493)">
<path d="M44.5467 34.3774C46.1678 30.6229 46.8221 26.5293 46.4511 22.4633C46.08 18.3972 44.6952 14.4857 42.4206 11.0791C40.146 7.67252 37.0527 4.87727 33.4178 2.94372C29.7829 1.01018 25.72 -0.00126383 21.5929 1.18516e-06C21.3282 1.18516e-06 21.0743 0.104029 20.8871 0.289203C20.6999 0.474377 20.5947 0.725527 20.5947 0.987402V2.96091C20.5947 3.22278 20.6999 3.47393 20.8871 3.65911C21.0743 3.84428 21.3282 3.94831 21.5929 3.94831C21.8576 3.94831 22.1115 3.84428 22.2987 3.65911C22.4859 3.47393 22.591 3.22278 22.591 2.96091V2.00011C26.2649 2.15818 29.8467 3.18679 33.035 4.99938C36.2233 6.81198 38.9249 9.35555 40.9125 12.4161C42.9001 15.4766 44.1156 18.9646 44.4566 22.5866C44.7977 26.2087 44.2544 29.8587 42.8724 33.2298C41.5426 32.5961 40.0339 32.4304 38.596 32.7601C37.158 33.0898 35.8769 33.8952 34.9645 35.043C34.0521 36.1908 33.5631 37.6123 33.5783 39.0724C33.5936 40.5325 34.1122 41.9437 35.0484 43.0726C31.4187 45.6918 27.0836 47.1842 22.5943 47.3602V46.413C22.5943 46.1512 22.4892 45.9 22.302 45.7148C22.1148 45.5297 21.8609 45.4256 21.5962 45.4256C21.3314 45.4256 21.0775 45.5297 20.8904 45.7148C20.7032 45.9 20.598 46.1512 20.598 46.413V48.3878C20.598 48.6497 20.7032 48.9009 20.8904 49.086C21.0775 49.2712 21.3314 49.3753 21.5962 49.3753C27.0057 49.3895 32.2702 47.6458 36.5804 44.4123C37.9369 45.2717 39.5684 45.6005 41.1567 45.3345C42.7449 45.0684 44.1761 44.2267 45.171 42.9735C46.1659 41.7203 46.6532 40.1454 46.538 38.556C46.4227 36.9666 45.713 35.4766 44.5474 34.3767L44.5467 34.3774ZM40.0635 43.4502C39.175 43.4502 38.3065 43.1896 37.5677 42.7013C36.8289 42.2129 36.2531 41.5189 35.9131 40.7069C35.5731 39.8948 35.4841 39.0013 35.6575 38.1393C35.8308 37.2772 36.2586 36.4854 36.8869 35.8639C37.5152 35.2424 38.3157 34.8191 39.1871 34.6477C40.0585 34.4762 40.9618 34.5642 41.7827 34.9006C42.6036 35.2369 43.3052 35.8065 43.7988 36.5373C44.2924 37.2681 44.5559 38.1273 44.5559 39.0062C44.5547 40.1845 44.081 41.3141 43.2388 42.1473C42.3966 42.9804 41.2546 43.449 40.0635 43.4502Z" fill="url(#paint0_linear_1424_6493)"/>
<path d="M20.5984 24.9964C20.5984 25.2583 20.7035 25.5094 20.8907 25.6946C21.0779 25.8798 21.3318 25.9838 21.5965 25.9838C21.8612 25.9838 22.1151 25.8798 22.3023 25.6946C22.4895 25.5094 22.5947 25.2583 22.5947 24.9964V23.6755C24.4935 23.5587 26.2759 22.7301 27.5787 21.3587C28.8815 19.9872 29.6068 18.176 29.6068 16.294C29.6068 14.4121 28.8815 12.6009 27.5787 11.2294C26.2759 9.85795 24.4935 9.0294 22.5947 8.91253V7.5294C22.5947 7.26752 22.4895 7.01637 22.3023 6.8312C22.1151 6.64602 21.8612 6.54199 21.5965 6.54199C21.3318 6.54199 21.0779 6.64602 20.8907 6.8312C20.7035 7.01637 20.5984 7.26752 20.5984 7.5294V9.03645C18.9076 9.3781 17.3881 10.287 16.2968 11.6093C15.2054 12.9317 14.6094 14.5863 14.6094 16.2934C14.6094 18.0004 15.2054 19.6551 16.2968 20.9775C17.3881 22.2998 18.9076 23.2087 20.5984 23.5503V24.9964ZM16.605 16.294C16.605 15.2198 16.9271 14.1697 17.5304 13.2765C18.1337 12.3834 18.9912 11.6872 19.9945 11.2761C20.9977 10.865 22.1017 10.7575 23.1668 10.967C24.2318 11.1766 25.2101 11.6939 25.978 12.4535C26.7459 13.2131 27.2688 14.1809 27.4807 15.2344C27.6925 16.288 27.5838 17.3801 27.1682 18.3725C26.7527 19.365 26.0489 20.2132 25.146 20.81C24.2431 21.4069 23.1815 21.7254 22.0956 21.7254C20.6396 21.7242 19.2435 21.1515 18.2138 20.1331C17.1842 19.1147 16.6051 17.7337 16.6037 16.2934L16.605 16.294Z" fill="url(#paint1_linear_1424_6493)"/>
<path d="M21.5948 36.8583C21.3301 36.8583 21.0762 36.9623 20.889 37.1475C20.7018 37.3327 20.5967 37.5838 20.5967 37.8457V42.1274C20.5967 42.3893 20.7018 42.6405 20.889 42.8256C21.0762 43.0108 21.3301 43.1148 21.5948 43.1148C21.8596 43.1148 22.1135 43.0108 22.3007 42.8256C22.4878 42.6405 22.593 42.3893 22.593 42.1274V37.8457C22.593 37.5838 22.4878 37.3327 22.3007 37.1475C22.1135 36.9623 21.8596 36.8583 21.5948 36.8583Z" fill="url(#paint2_linear_1424_6493)"/>
<path d="M22.593 29.2795C22.593 29.0176 22.4878 28.7665 22.3007 28.5813C22.1135 28.3961 21.8596 28.2921 21.5948 28.2921C21.3301 28.2921 21.0762 28.3961 20.889 28.5813C20.7018 28.7665 20.5967 29.0176 20.5967 29.2795V33.5613C20.5967 33.8232 20.7018 34.0743 20.889 34.2595C21.0762 34.4447 21.3301 34.5487 21.5948 34.5487C21.8596 34.5487 22.1135 34.4447 22.3007 34.2595C22.4878 34.0743 22.593 33.8232 22.593 33.5613V29.2795Z" fill="url(#paint3_linear_1424_6493)"/>
<path d="M6.62124 0.987427C5.83144 0.987427 5.05938 1.2191 4.40268 1.65316C3.74598 2.08722 3.23415 2.70417 2.93191 3.42598C2.62966 4.1478 2.55058 4.94206 2.70466 5.70834C2.85874 6.47461 3.23907 7.17848 3.79754 7.73093C4.35602 8.28338 5.06756 8.65961 5.84219 8.81203C6.61681 8.96445 7.41974 8.88622 8.14942 8.58724C8.8791 8.28825 9.50277 7.78194 9.94156 7.13232C10.3804 6.48271 10.6146 5.71897 10.6146 4.93768C10.6127 3.89059 10.1913 2.88692 9.44284 2.14651C8.69436 1.4061 7.67975 0.989313 6.62124 0.987427ZM6.62124 6.91248C6.22646 6.91223 5.84063 6.79619 5.5125 6.57904C5.18438 6.36189 4.92871 6.05338 4.77781 5.69251C4.62692 5.33163 4.58757 4.93461 4.66475 4.55162C4.74193 4.16863 4.93216 3.81688 5.21141 3.54083C5.49065 3.26477 5.84636 3.07682 6.23357 3.00073C6.62079 2.92464 7.02212 2.96382 7.38682 3.11332C7.75153 3.26283 8.06323 3.51595 8.28254 3.84067C8.50184 4.1654 8.61889 4.54716 8.61889 4.93768C8.61837 5.4615 8.40769 5.96369 8.03314 6.33396C7.65858 6.70424 7.15077 6.91231 6.62124 6.91248Z" fill="url(#paint4_linear_1424_6493)"/>
<path d="M8.11843 41.8387C7.89481 41.8387 7.67622 41.9043 7.49028 42.0272C7.30435 42.1501 7.15943 42.3248 7.07386 42.5292C6.98828 42.7336 6.96589 42.9584 7.00952 43.1754C7.05314 43.3924 7.16082 43.5916 7.31895 43.7481C7.47707 43.9045 7.67853 44.011 7.89786 44.0542C8.11718 44.0973 8.34451 44.0752 8.55111 43.9905C8.75771 43.9059 8.93429 43.7625 9.05853 43.5786C9.18277 43.3946 9.24907 43.1784 9.24907 42.9572C9.24907 42.6606 9.12996 42.3761 8.91792 42.1663C8.70588 41.9566 8.4183 41.8387 8.11843 41.8387Z" fill="url(#paint5_linear_1424_6493)"/>
<path d="M1.13064 47.7638C0.907021 47.7638 0.688424 47.8294 0.502491 47.9523C0.316558 48.0752 0.17164 48.2499 0.086064 48.4542C0.000488461 48.6586 -0.0219001 48.8835 0.021726 49.1005C0.065352 49.3174 0.173035 49.5167 0.331158 49.6731C0.489281 49.8295 0.690742 49.9361 0.910065 49.9792C1.12939 50.0224 1.35672 50.0002 1.56332 49.9156C1.76992 49.8309 1.9465 49.6876 2.07073 49.5036C2.19497 49.3197 2.26128 49.1035 2.26128 48.8822C2.26128 48.5856 2.14216 48.3011 1.93012 48.0914C1.71809 47.8816 1.43051 47.7638 1.13064 47.7638Z" fill="url(#paint6_linear_1424_6493)"/>
<path d="M2.12869 36.901C1.90507 36.901 1.68647 36.9666 1.50054 37.0895C1.31461 37.2124 1.16969 37.3871 1.08411 37.5914C0.998535 37.7958 0.976147 38.0207 1.01977 38.2377C1.0634 38.4546 1.17108 38.6539 1.3292 38.8103C1.48733 38.9667 1.68879 39.0733 1.90811 39.1164C2.12743 39.1596 2.35477 39.1374 2.56137 39.0528C2.76796 38.9681 2.94454 38.8248 3.06878 38.6408C3.19302 38.4569 3.25933 38.2407 3.25933 38.0194C3.25933 37.7228 3.14021 37.4383 2.92817 37.2286C2.71614 37.0188 2.42855 36.901 2.12869 36.901Z" fill="url(#paint7_linear_1424_6493)"/>
</g>
<defs>
<linearGradient id="paint0_linear_1424_6493" x1="33.5747" y1="0" x2="33.5747" y2="49.3753" gradientUnits="userSpaceOnUse">
<stop stop-color="#5E75E8"/>
<stop offset="1" stop-color="#DA88DE"/>
</linearGradient>
<linearGradient id="paint1_linear_1424_6493" x1="22.1081" y1="6.54199" x2="22.1081" y2="25.9838" gradientUnits="userSpaceOnUse">
<stop stop-color="#5E75E8"/>
<stop offset="1" stop-color="#DA88DE"/>
</linearGradient>
<linearGradient id="paint2_linear_1424_6493" x1="21.5948" y1="36.8583" x2="21.5948" y2="43.1148" gradientUnits="userSpaceOnUse">
<stop stop-color="#5E75E8"/>
<stop offset="1" stop-color="#DA88DE"/>
</linearGradient>
<linearGradient id="paint3_linear_1424_6493" x1="21.5948" y1="28.2921" x2="21.5948" y2="34.5487" gradientUnits="userSpaceOnUse">
<stop stop-color="#5E75E8"/>
<stop offset="1" stop-color="#DA88DE"/>
</linearGradient>
<linearGradient id="paint4_linear_1424_6493" x1="6.62125" y1="0.987427" x2="6.62125" y2="8.88794" gradientUnits="userSpaceOnUse">
<stop stop-color="#5E75E8"/>
<stop offset="1" stop-color="#DA88DE"/>
</linearGradient>
<linearGradient id="paint5_linear_1424_6493" x1="8.11843" y1="41.8387" x2="8.11843" y2="44.0757" gradientUnits="userSpaceOnUse">
<stop stop-color="#5E75E8"/>
<stop offset="1" stop-color="#DA88DE"/>
</linearGradient>
<linearGradient id="paint6_linear_1424_6493" x1="1.13064" y1="47.7638" x2="1.13064" y2="50.0007" gradientUnits="userSpaceOnUse">
<stop stop-color="#5E75E8"/>
<stop offset="1" stop-color="#DA88DE"/>
</linearGradient>
<linearGradient id="paint7_linear_1424_6493" x1="2.12869" y1="36.901" x2="2.12869" y2="39.1379" gradientUnits="userSpaceOnUse">
<stop stop-color="#5E75E8"/>
<stop offset="1" stop-color="#DA88DE"/>
</linearGradient>
<clipPath id="clip0_1424_6493">
<rect width="46.5517" height="50" fill="white"/>
</clipPath>
</defs>
</svg>
