<svg width="52" height="50" viewBox="0 0 52 50" fill="none" xmlns="http://www.w3.org/2000/svg">
<g clip-path="url(#clip0_1424_6595)">
<path d="M4.72061 34.9299C3.97377 34.9299 3.2437 35.1513 2.62273 35.5663C2.00176 35.9812 1.51779 36.571 1.23201 37.261C0.946231 37.951 0.871484 38.7102 1.01722 39.4427C1.16296 40.1752 1.52265 40.848 2.05078 41.376C2.57891 41.9041 3.25178 42.2637 3.98428 42.4093C4.71679 42.555 5.47602 42.4801 6.16598 42.1942C6.85594 41.9084 7.44563 41.4243 7.86048 40.8033C8.27532 40.1822 8.49669 39.4521 8.49658 38.7053C8.4953 37.7043 8.09705 36.7447 7.38918 36.0369C6.68131 35.3291 5.72162 34.931 4.72061 34.9299V34.9299ZM4.72061 40.5938C4.3472 40.5938 3.98218 40.4831 3.6717 40.2756C3.36122 40.0682 3.11923 39.7733 2.97633 39.4283C2.83344 39.0833 2.79605 38.7037 2.8689 38.3375C2.94175 37.9713 3.12156 37.6349 3.3856 37.3708C3.64964 37.1068 3.98605 36.927 4.35228 36.8541C4.71852 36.7813 5.09813 36.8187 5.44311 36.9616C5.7881 37.1045 6.08296 37.3464 6.29041 37.6569C6.49787 37.9674 6.60859 38.3324 6.60859 38.7058C6.60788 39.2063 6.40872 39.686 6.0548 40.0399C5.70087 40.3937 5.22107 40.5927 4.72061 40.5933L4.72061 40.5938Z" fill="url(#paint0_linear_1424_6595)"/>
<path d="M44.0715 31.5119C43.9404 31.5115 43.8106 31.5384 43.6905 31.591C43.5703 31.6435 43.4625 31.7206 43.3739 31.8173C43.0335 32.1907 42.6212 32.4914 42.1616 32.7012C41.702 32.911 41.2047 33.0256 40.6997 33.0382C40.4495 33.0454 40.2124 33.1515 40.0405 33.3333C39.8685 33.5152 39.7757 33.7578 39.7825 34.008C39.7841 34.1325 39.8107 34.2555 39.8608 34.3696C39.9108 34.4836 39.9832 34.5865 40.0738 34.672C40.1643 34.7576 40.2711 34.8241 40.3879 34.8675C40.5046 34.911 40.6289 34.9306 40.7533 34.9251C41.5109 34.9063 42.2568 34.7343 42.9462 34.4195C43.6355 34.1047 44.254 33.6537 44.7644 33.0935C44.8885 32.9584 44.9706 32.79 45.0005 32.6089C45.0305 32.4278 45.007 32.242 44.933 32.0741C44.859 31.9062 44.7376 31.7635 44.5837 31.6634C44.4299 31.5634 44.2502 31.5104 44.0667 31.5109L44.0715 31.5119Z" fill="url(#paint1_linear_1424_6595)"/>
<path d="M37.668 26.8757C37.9865 26.4832 38.381 26.1593 38.828 25.9234C39.2749 25.6875 39.765 25.5444 40.2687 25.5029C40.5115 25.4828 40.7372 25.3695 40.8985 25.1868C41.0598 25.0041 41.1441 24.7661 41.1339 24.5226C41.1237 24.2791 41.0198 24.049 40.8438 23.8804C40.6678 23.7118 40.4335 23.6178 40.1898 23.6181C40.1629 23.6181 40.1361 23.6181 40.1087 23.6213C39.3545 23.6878 38.621 23.904 37.9513 24.2573C37.2816 24.6106 36.689 25.0939 36.2083 25.6789C36.1256 25.7742 36.0629 25.8852 36.0239 26.0051C35.9849 26.1251 35.9703 26.2517 35.981 26.3774C35.9917 26.5031 36.0275 26.6254 36.0863 26.737C36.1451 26.8487 36.2256 26.9474 36.3232 27.0274C36.4208 27.1073 36.5334 27.1669 36.6544 27.2026C36.7755 27.2383 36.9024 27.2494 37.0278 27.2352C37.1531 27.221 37.2744 27.1818 37.3843 27.12C37.4943 27.0581 37.5908 26.9749 37.668 26.8751L37.668 26.8757Z" fill="url(#paint2_linear_1424_6595)"/>
<path d="M37.9805 33.3087C38.1549 33.1292 38.2509 32.8878 38.2475 32.6376C38.244 32.3873 38.1414 32.1487 37.9622 31.974C37.5986 31.6231 37.3097 31.2022 37.1129 30.7367C36.916 30.2713 36.8154 29.7708 36.817 29.2655C36.817 29.0151 36.7175 28.775 36.5405 28.598C36.3634 28.4209 36.1233 28.3215 35.873 28.3215C35.6226 28.3215 35.3825 28.4209 35.2055 28.598C35.0284 28.775 34.929 29.0151 34.929 29.2655C34.9265 30.0233 35.0774 30.7739 35.3725 31.472C35.6677 32.17 36.1009 32.8012 36.6463 33.3275C36.8258 33.502 37.0673 33.5982 37.3177 33.5948C37.5681 33.5913 37.8068 33.4886 37.9815 33.3092L37.9805 33.3087Z" fill="url(#paint3_linear_1424_6595)"/>
<path d="M44.3634 29.0486C44.3689 29.1735 44.3991 29.2961 44.4523 29.4092C44.5055 29.5223 44.5806 29.6238 44.6734 29.7076C44.7661 29.7915 44.8746 29.8561 44.9925 29.8977C45.1104 29.9392 45.2353 29.957 45.3602 29.9499C45.485 29.9428 45.6072 29.911 45.7196 29.8562C45.832 29.8015 45.9324 29.725 46.015 29.6312C46.0976 29.5374 46.1608 29.4281 46.2008 29.3096C46.2408 29.1912 46.2569 29.066 46.2482 28.9413C46.2075 28.1849 46.0142 27.4446 45.6799 26.765C45.3456 26.0853 44.8771 25.4804 44.3028 24.9866C44.1136 24.8225 43.867 24.7403 43.6173 24.7581C43.3675 24.7759 43.1351 24.8921 42.971 25.0813C42.807 25.2704 42.7248 25.517 42.7426 25.7668C42.7603 26.0165 42.8766 26.249 43.0657 26.413C43.4487 26.7424 43.7611 27.1458 43.9841 27.599C44.2071 28.0522 44.3361 28.5458 44.3634 29.0502L44.3634 29.0486Z" fill="url(#paint4_linear_1424_6595)"/>
<path d="M0.944415 23.6008L11.8865 23.6009L27.0333 49.5647C27.1232 49.6986 27.2446 49.8084 27.3869 49.8843C27.5292 49.9602 27.688 49.9999 27.8493 49.9999C28.0106 49.9999 28.1694 49.9602 28.3117 49.8843C28.454 49.8084 28.5754 49.6986 28.6653 49.5647L35.3033 38.1842C36.4805 38.8907 37.7863 39.3564 39.1449 39.5544C40.5035 39.7523 41.8879 39.6786 43.2178 39.3375C44.5476 38.9963 45.7966 38.3945 46.8921 37.567C47.9876 36.7395 48.908 35.7027 49.5998 34.5168C50.2915 33.3309 50.741 32.0194 50.922 30.6585C51.1031 29.2975 51.0122 27.9142 50.6545 26.5886C50.2968 25.2631 49.6796 24.0218 48.8385 22.9366C47.9974 21.8514 46.9493 20.9441 45.7549 20.2671L51.794 9.9159C51.8776 9.77239 51.9219 9.60938 51.9224 9.4433C51.9229 9.27722 51.8796 9.11394 51.7968 8.96993C51.7141 8.82592 51.5949 8.70627 51.4512 8.62304C51.3074 8.53981 51.1443 8.49595 50.9782 8.49588L27.848 8.49588C27.5976 8.49588 27.3575 8.59534 27.1805 8.77237C27.0034 8.9494 26.904 9.18951 26.904 9.43988C26.904 9.69024 27.0034 9.93035 27.1805 10.1074C27.3575 10.2844 27.5976 10.3839 27.848 10.3839L49.3339 10.3839L44.0295 19.4766C41.7547 18.6733 39.271 18.6884 37.0062 19.5194C34.7414 20.3503 32.8372 21.945 31.6217 24.0288C30.4062 26.1126 29.9554 28.5551 30.3469 30.9356C30.7385 33.316 31.9479 35.4854 33.7668 37.0701L27.849 47.213L14.0745 23.5998L22.6568 23.5998C22.9072 23.5998 23.1473 23.5003 23.3243 23.3233C23.5013 23.1463 23.6008 22.9061 23.6008 22.6558L23.6008 0.943935C23.6008 0.693573 23.5013 0.453462 23.3243 0.276429C23.1473 0.0993955 22.9072 -5.99542e-05 22.6568 -5.99761e-05L0.943876 -6.18743e-05C0.693513 -6.18962e-05 0.453411 0.0993935 0.276378 0.276427C0.0993446 0.45346 -0.000110861 0.69357 -0.000110883 0.943933L-0.000112781 22.6563C-0.000183294 22.7803 0.0241803 22.9031 0.0715888 23.0177C0.118997 23.1323 0.188514 23.2365 0.276179 23.3242C0.363844 23.4119 0.467934 23.4815 0.5825 23.5289C0.697065 23.5764 0.819862 23.6008 0.943874 23.6008L0.944415 23.6008ZM32.0973 29.2648C32.0973 27.5844 32.5956 25.9417 33.5292 24.5444C34.4628 23.1472 35.7898 22.0582 37.3423 21.4151C38.8948 20.772 40.6032 20.6038 42.2513 20.9316C43.8995 21.2594 45.4134 22.0686 46.6017 23.2569C47.7899 24.4452 48.5991 25.9591 48.927 27.6072C49.2548 29.2554 49.0866 30.9638 48.4435 32.5163C47.8004 34.0688 46.7114 35.3958 45.3141 36.3294C43.9169 37.263 42.2742 37.7613 40.5938 37.7613C38.3411 37.7589 36.1814 36.8629 34.5885 35.2701C32.9956 33.6772 32.0997 31.5175 32.0973 29.2648V29.2648ZM1.88841 1.88793L21.7128 1.88793L21.7128 21.7123L1.88841 21.7123L1.88841 1.88793Z" fill="url(#paint5_linear_1424_6595)"/>
<path d="M10.8563 44.7165C10.6448 44.7165 10.4381 44.7792 10.2623 44.8967C10.0865 45.0142 9.94951 45.1811 9.8686 45.3765C9.78768 45.5718 9.76651 45.7868 9.80776 45.9941C9.84901 46.2015 9.95082 46.392 10.1003 46.5415C10.2498 46.691 10.4403 46.7928 10.6477 46.8341C10.8551 46.8753 11.07 46.8542 11.2654 46.7732C11.4607 46.6923 11.6277 46.5553 11.7451 46.3795C11.8626 46.2037 11.9253 45.997 11.9253 45.7856C11.9253 45.5021 11.8127 45.2301 11.6122 45.0297C11.4117 44.8292 11.1398 44.7165 10.8563 44.7165V44.7165Z" fill="url(#paint6_linear_1424_6595)"/>
</g>
<defs>
<linearGradient id="paint0_linear_1424_6595" x1="4.72061" y1="42.4818" x2="4.72061" y2="34.9299" gradientUnits="userSpaceOnUse">
<stop stop-color="#DA88DE"/>
<stop offset="1" stop-color="#5E75E8"/>
</linearGradient>
<linearGradient id="paint1_linear_1424_6595" x1="42.3977" y1="34.926" x2="42.3977" y2="31.5109" gradientUnits="userSpaceOnUse">
<stop stop-color="#DA88DE"/>
<stop offset="1" stop-color="#5E75E8"/>
</linearGradient>
<linearGradient id="paint2_linear_1424_6595" x1="38.5562" y1="27.2412" x2="38.5562" y2="23.6181" gradientUnits="userSpaceOnUse">
<stop stop-color="#DA88DE"/>
<stop offset="1" stop-color="#5E75E8"/>
</linearGradient>
<linearGradient id="paint3_linear_1424_6595" x1="36.5883" y1="33.5948" x2="36.5883" y2="28.3215" gradientUnits="userSpaceOnUse">
<stop stop-color="#DA88DE"/>
<stop offset="1" stop-color="#5E75E8"/>
</linearGradient>
<linearGradient id="paint4_linear_1424_6595" x1="44.4953" y1="29.9514" x2="44.4953" y2="24.7557" gradientUnits="userSpaceOnUse">
<stop stop-color="#DA88DE"/>
<stop offset="1" stop-color="#5E75E8"/>
</linearGradient>
<linearGradient id="paint5_linear_1424_6595" x1="25.9611" y1="49.9999" x2="25.9611" y2="-5.94901e-05" gradientUnits="userSpaceOnUse">
<stop stop-color="#DA88DE"/>
<stop offset="1" stop-color="#5E75E8"/>
</linearGradient>
<linearGradient id="paint6_linear_1424_6595" x1="10.8563" y1="46.8546" x2="10.8563" y2="44.7165" gradientUnits="userSpaceOnUse">
<stop stop-color="#DA88DE"/>
<stop offset="1" stop-color="#5E75E8"/>
</linearGradient>
<clipPath id="clip0_1424_6595">
<rect width="51.9218" height="50" fill="white" transform="translate(51.9219 50) rotate(-180)"/>
</clipPath>
</defs>
</svg>
