<svg xmlns="http://www.w3.org/2000/svg" width="144.642" height="49.433" viewBox="0 0 144.642 49.433"><defs><style>.a{fill:#40b9e3;}.b{fill:#abddf3;}</style></defs><g transform="translate(195.903 2321.676)"><g transform="translate(-195.903 -2321.676)"><path class="a" d="M-174.233-2272.243a4.869,4.869,0,0,0-.923-.181,8.643,8.643,0,0,1-2.456-1.037c-1.222-.727-2.458-1.431-3.686-2.148q-1.8-1.051-3.6-2.106c-1.219-.712-2.446-1.413-3.659-2.135-1.394-.83-2.831-1.589-4.187-2.481a6.98,6.98,0,0,1-2.832-3.783,6.6,6.6,0,0,1-.33-2.133c.012-1.46.01-2.92.017-4.38q.027-5.635.057-11.27a24.779,24.779,0,0,1,.068-2.813,7.224,7.224,0,0,1,1.4-3.441,11.075,11.075,0,0,1,3.248-2.553,2.715,2.715,0,0,1,2.738.017,5.239,5.239,0,0,1,3.281,4.119,3.7,3.7,0,0,1,.078,1.212c-.007.007-.021.014-.021.021a.29.29,0,0,0,.014.053c0,4.348.013,8.7-.006,13.043a7.733,7.733,0,0,0,.921,3.809,8.771,8.771,0,0,0,1.182,1.625,11.8,11.8,0,0,0,3.982,2.9,11.288,11.288,0,0,0,3.489.97,12.026,12.026,0,0,0,5.617-.638,12.309,12.309,0,0,0,3.587-2.085,11.776,11.776,0,0,0,3.659-5.3,12.2,12.2,0,0,0,.618-3.24,11.825,11.825,0,0,0-1.532-6.59,7.985,7.985,0,0,0-3.783-3.611,20.9,20.9,0,0,0-2.715-.828c-.93-.267-1.863-.527-2.8-.766-1.031-.262-2.038-.618-3.088-.805a1.183,1.183,0,0,0-1.307,1.06q-.029,1.931-.008,3.864a1.711,1.711,0,0,0,1.2,1.476c1.654.454,3.313.893,4.962,1.367a3.415,3.415,0,0,1,1.982,1.633,5.32,5.32,0,0,1,.747,3.286,5.232,5.232,0,0,1-1.338,3.086,5.366,5.366,0,0,1-3.6,1.822,5.22,5.22,0,0,1-3.691-1.048,4.143,4.143,0,0,1-1.546-1.951,3.168,3.168,0,0,1-.2-1.057c0-6.441-.02-12.882.019-19.323a10.758,10.758,0,0,1,2.269-6.356.546.546,0,0,1,.259-.182,7.023,7.023,0,0,1,6.323.411q7.6,4.382,15.155,8.843a7.066,7.066,0,0,1,3.549,5.352,14.989,14.989,0,0,1,.037,2.7c-.043,1.072-.014,2.146-.016,3.22-.005,2.855.018,5.711-.027,8.566-.022,1.416.041,2.835-.048,4.247a7.009,7.009,0,0,1-3.685,5.939c-4.615,2.653-9.247,5.276-13.874,7.908a13.308,13.308,0,0,1-2.641,1.324,6.42,6.42,0,0,1-1.54.308c-.063,0-.131,0-.174.059Z" transform="translate(195.903 2321.676)"/><path class="a" d="M1832.605-2036.888a17.767,17.767,0,0,0-.631,2.078c-1,3.488-1.989,6.98-2.986,10.47-.486,1.7-.963,3.4-1.485,5.088a8.674,8.674,0,0,1-1.911,3.428,5.02,5.02,0,0,1-3.54,1.538c-.835.047-1.676.016-2.513.014-.384,0-.565-.149-.579-.537-.023-.632-.024-1.267,0-1.9.016-.4.2-.54.615-.537a13.153,13.153,0,0,0,2.245-.136,2.994,2.994,0,0,0,2.3-1.991c.163-.373.281-.764.436-1.14.1-.244.013-.3-.219-.289-.3.012-.6,0-.9,0a.807.807,0,0,1-.925-.668c-.228-.747-.444-1.5-.666-2.248q-1.244-4.2-2.489-8.407-.7-2.372-1.406-4.744c-.15-.507-.007-.705.529-.713.709-.01,1.418-.008,2.127,0a.71.71,0,0,1,.807.626q1.41,5.058,2.814,10.117c.3,1.062.6,2.123.892,3.185.023.082.019.2.112.212.128.014.126-.125.15-.209q.552-1.963,1.1-3.928,1.311-4.719,2.621-9.437a.65.65,0,0,1,.747-.563c.719-.015,1.439-.007,2.159,0a.714.714,0,0,1,.6.3Z" transform="translate(-1687.963 2055.915)"/><path class="a" d="M729.254-2097.786a3.867,3.867,0,0,1,1.6.681,3.39,3.39,0,0,1,1.384,2.647,32.346,32.346,0,0,1,0,3.476,4.635,4.635,0,0,1-4.265,4.547,9.306,9.306,0,0,1-1.188.058h-8.348c-.537,0-.685-.149-.686-.689q0-10.432,0-20.864c0-.592.146-.735.742-.735,2.772,0,5.544-.005,8.315,0a5.463,5.463,0,0,1,3.329,1.009,4.436,4.436,0,0,1,1.771,3.1,15.321,15.321,0,0,1,.025,3.658,3.418,3.418,0,0,1-2.3,2.954C729.528-2097.9,729.43-2097.861,729.254-2097.786Zm-8.109,4.944c0,1.052,0,2.1,0,3.156,0,.278.1.419.395.418,1.73-.006,3.461.015,5.19-.015a2.048,2.048,0,0,0,2.178-1.932,18.518,18.518,0,0,0,.036-2.99,2.067,2.067,0,0,0-.773-1.635,2.707,2.707,0,0,0-1.722-.526c-1.612-.005-3.224,0-4.836,0-.411,0-.465.054-.466.466Q721.142-2094.372,721.145-2092.842Zm0-9.653c0,.965,0,1.93,0,2.9,0,.253.074.412.363.411,1.653-.005,3.306.017,4.959-.015a2.05,2.05,0,0,0,2.12-1.886,11.505,11.505,0,0,0,.03-2.6,1.96,1.96,0,0,0-1.58-1.977,3.463,3.463,0,0,0-.89-.109c-1.513,0-3.027,0-4.541,0-.4,0-.458.064-.459.479Q721.142-2103.895,721.144-2102.5Z" transform="translate(-658.8 2122.411)"/><path class="a" d="M1304.849-2021.637a.462.462,0,0,0-.08.088,3.08,3.08,0,0,1-2.723,1.675,12.926,12.926,0,0,1-3.878-.156,4.6,4.6,0,0,1-3.5-3.887,11.582,11.582,0,0,1-.113-1.633c0-2.211,0-4.422,0-6.633a6.272,6.272,0,0,1,.516-2.628,4.488,4.488,0,0,1,3.586-2.609,10.035,10.035,0,0,1,1.7-.119q3.545,0,7.091,0a2.634,2.634,0,0,1,.479.043.47.47,0,0,1,.417.492c0,.086,0,.172,0,.257q0,8.066,0,16.131c0,.648-.125.774-.765.774q-1,0-2,0c-.484,0-.65-.167-.655-.661,0-.372,0-.744,0-1.115Zm.077-8.065c0-1.471,0-2.941,0-4.412,0-.3-.107-.43-.415-.429-1.45.008-2.9-.012-4.352.011a2.059,2.059,0,0,0-2.2,2.151c-.034,2.458-.04,4.917,0,7.374a2,2,0,0,0,1.874,2.157,13.991,13.991,0,0,0,2.859.006,2.3,2.3,0,0,0,1.448-.624,2.792,2.792,0,0,0,.772-2.113C1304.933-2026.953,1304.927-2028.327,1304.927-2029.7Z" transform="translate(-1198.389 2055.87)"/><path class="a" d="M1578.358-2019.877c-.441,0-.882-.011-1.322,0a.845.845,0,0,1-.85-.517q-1.342-2.782-2.677-5.567c-.07-.145-.133-.293-.207-.436-.037-.072-.051-.182-.161-.175s-.119.112-.154.186c-.9,1.9-1.819,3.79-2.7,5.7a1.162,1.162,0,0,1-1.251.819c-.8-.05-1.611-.01-2.417-.013-.478,0-.585-.179-.357-.6,1.458-2.663,2.912-5.327,4.386-7.981a.774.774,0,0,0-.006-.872c-1.412-2.492-2.8-5-4.2-7.5-.047-.084-.1-.168-.137-.255-.138-.292-.084-.425.238-.47a6.3,6.3,0,0,1,.835-.028c.623,0,1.247,0,1.87,0a1.055,1.055,0,0,1,1.062.67c.86,1.871,1.747,3.729,2.63,5.589.05.106.055.292.215.282.133-.008.133-.176.179-.279q1.245-2.808,2.486-5.618a.977.977,0,0,1,.949-.643c.849-.006,1.7-.011,2.547,0,.549.008.63.191.362.682q-1.735,3.177-3.46,6.36c-.246.452-.483.91-.741,1.355a.442.442,0,0,0,0,.5c1,1.776,1.988,3.558,2.981,5.338.533.956,1.071,1.909,1.6,2.865.232.417.126.594-.352.6C1579.26-2019.875,1578.809-2019.877,1578.358-2019.877Z" transform="translate(-1452.464 2055.911)"/><path class="a" d="M1164.172-2128.557q0-5.714,0-11.429c0-.623.1-.722.731-.722.677,0,1.354,0,2.03,0,.416,0,.582.164.606.579,0,.086,0,.172,0,.258q0,11.349,0,22.7a2.187,2.187,0,0,1-.026.416.451.451,0,0,1-.47.4c-.806,0-1.612.009-2.417,0a.43.43,0,0,1-.45-.449c-.007-.107,0-.214,0-.322Q1164.172-2122.842,1164.172-2128.557Z" transform="translate(-1076.421 2152.385)"/><path class="a" d="M1025.234-2028.163q0-4.072,0-8.144c0-.6.093-.7.684-.7.688,0,1.375,0,2.062,0,.452,0,.619.166.62.625,0,1.384,0,2.768,0,4.152q0,6.036,0,12.071a3.306,3.306,0,0,1-.014.418.41.41,0,0,1-.453.4c-.795,0-1.59,0-2.385,0-.358,0-.513-.169-.515-.551-.005-.933,0-1.867,0-2.8Z" transform="translate(-946.447 2055.372)"/><path class="a" d="M1028.055-2138.378c0,.515,0,1.029,0,1.543-.005.454-.17.618-.626.621q-1.078.007-2.156,0c-.42,0-.6-.154-.611-.573q-.024-1.591,0-3.183c.006-.391.2-.555.6-.558q1.094-.008,2.188,0c.435,0,.6.174.609.606C1028.059-2139.407,1028.055-2138.892,1028.055-2138.378Z" transform="translate(-945.899 2152.219)"/><path class="b" d="M-27.4-2099.627a.284.284,0,0,1-.014-.054c0-.006.013-.014.021-.021Z" transform="translate(38.287 2114.024)"/></g></g></svg>