<svg xmlns="http://www.w3.org/2000/svg" xmlns:xlink="http://www.w3.org/1999/xlink" width="187.595" height="46.603" viewBox="0 0 187.595 46.603"><defs><style>.a{fill:#fff;}.b{fill:#d53127;}.c{fill:#f47320;}.d{fill:url(#a);}</style><linearGradient id="a" x1="0.921" y1="1.36" x2="0.24" y2="0.111" gradientUnits="objectBoundingBox"><stop offset="0.41" stop-color="#f47320"/><stop offset="0.5" stop-color="#f16d21"/><stop offset="0.62" stop-color="#e95c22"/><stop offset="0.75" stop-color="#dc4125"/><stop offset="0.81" stop-color="#d53127"/></linearGradient></defs><g transform="translate(-439.993 -700.667)"><g transform="translate(486.67 719.064)"><path class="a" d="M1168.1-228.848c.875-3.2,1.716-6.213,2.521-9.238a9.31,9.31,0,0,0,.592-3.059c-.089-.982-.478-2.348-1.194-2.766a2.759,2.759,0,0,0-3.569.586,15.106,15.106,0,0,0-2.389,4.2c-1,2.969-1.74,6.028-2.509,9.069a1.369,1.369,0,0,1-1.657,1.224c-1.489-.08-2.985-.021-4.667-.021.988-3.642,1.92-7.093,2.86-10.543.8-2.933,1.674-5.848,2.376-8.8.293-1.232.853-1.573,2.063-1.52,1.5.066,2.941.07,3.7,1.746,3.555-1.9,7.031-2.8,10.03.251,2.48-.65,4.784-1.443,7.154-1.834,4.131-.683,6.947,1.712,7.047,5.874a16.093,16.093,0,0,1-.463,4.135c-.776,3.2-1.73,6.347-2.544,9.534-.224.877-.6,1.224-1.526,1.181-1.543-.071-3.092-.02-4.854-.02.879-3.239,1.719-6.3,2.537-9.363a17.425,17.425,0,0,0,.613-2.767c.112-1.156.064-2.477-1.186-2.97a3,3,0,0,0-3.612.613,14.079,14.079,0,0,0-2.363,4.054c-1,2.971-1.756,6.029-2.494,9.079a1.5,1.5,0,0,1-1.836,1.378C1171.289-228.915,1169.835-228.848,1168.1-228.848Z" transform="translate(-1070.808 256.46)"/><path class="a" d="M880.6-271.525c.174-.091.216-.131.262-.134,4.071-.32,6.072.281,4.378,5.169-.3.875-.467,1.8-.612,2.372,2.04-.277,4.1-.92,6.076-.739,2.888.264,4.389,2.09,4.726,4.955.571,4.866-1.881,12.291-8.193,14.825a11.71,11.71,0,0,1-8.79.188c-2.524-.968-3.883-3.7-3.14-6.851,1.082-4.6,2.4-9.151,3.627-13.72C879.482-267.517,880.058-269.568,880.6-271.525Zm.91,19.74c.287.454.646,1.725,1.307,1.908a4.682,4.682,0,0,0,3.357-.393c2-1.234,2.584-3.452,2.988-5.641.235-1.274.162-2.546-1.011-3.371-.953-.671-2.911-.212-4,.767C882.306-256.851,881.888-254.619,881.507-251.786Z" transform="translate(-875.101 271.837)"/><path class="a" d="M1284.2-263.435c2.39-1.056,4.514-1.857,6.9-1.214a5.131,5.131,0,0,1,3.817,3.817c2.3,8.1-4.8,17.084-13.234,16.743-5.164-.209-7.669-3.232-6.452-8.234,1.483-6.1,3.27-12.119,4.886-18.184a1.128,1.128,0,0,1,1.373-.995c.448.039.9,0,1.352.009,2.25.06,3.167,1.248,2.619,3.452C1285.091-266.565,1284.658-265.108,1284.2-263.435Zm2.073,3.775a15.351,15.351,0,0,0-2.357,1.32c-1.7,1.378-2.137,3.406-2.494,5.423-.215,1.218-.151,2.435,1.02,3.2.975.64,2.794.265,3.861-.705a8.576,8.576,0,0,0,2.647-6.57C1288.971-258.722,1288.14-259.393,1286.271-259.659Z" transform="translate(-1154.432 271.684)"/><path class="a" d="M1025.778-244.185c.884-3.263,1.745-6.374,2.562-9.5a8.674,8.674,0,0,0,.507-2.917c-.094-.94-.45-2.266-1.127-2.641a2.809,2.809,0,0,0-3.581.556,12.718,12.718,0,0,0-2.257,3.771c-1.051,3.162-1.858,6.405-2.7,9.631-.214.817-.552,1.152-1.429,1.113-1.545-.069-3.095-.019-4.864-.019l7.5-27.462c1.026,0,2.014-.066,2.99.015a2.286,2.286,0,0,1,2.15,2.939c-.364,1.636-.829,3.251-1.265,4.93,1.439-.409,2.729-.89,4.063-1.133,3.457-.63,6.333,1.3,6.675,4.764a20.233,20.233,0,0,1-.508,6.041c-.613,2.917-1.568,5.761-2.3,8.655-.234.928-.607,1.328-1.615,1.273C1029.037-244.248,1027.486-244.185,1025.778-244.185Z" transform="translate(-971.364 271.797)"/><path class="a" d="M1093.463-247.81h6.04c-.414,1.561-.795,3.024-1.19,4.484-.626,2.309-1.286,4.61-1.884,6.926-.326,1.264-.656,2.589.79,3.461a3.805,3.805,0,0,0,4.427-.636,8.348,8.348,0,0,0,1.66-2.936c1.015-3.332,1.913-6.7,2.759-10.081a1.428,1.428,0,0,1,1.75-1.3c1.443.089,2.9.022,4.614.022-.341,1.227-.645,2.3-.938,3.374-.8,2.932-1.631,5.856-2.386,8.8-1.9,7.428-11.075,10.375-16.143,7.794a4.962,4.962,0,0,1-3.068-4.243,10.515,10.515,0,0,1,.253-3.254C1091.194-239.538,1092.344-243.657,1093.463-247.81Z" transform="translate(-1025.143 255.185)"/><path class="a" d="M983.673-263.552h3.6c-.259,2.98-1.379,4.192-4.2,4.742-.3.058-.753.238-.814.452-.913,3.193-1.771,6.4-2.7,9.823l3.389.287c-.384,1.445-.716,2.816-1.134,4.161a1,1,0,0,1-.776.514,51.685,51.685,0,0,1-5.7-.143c-2.044-.226-2.73-1.334-2.211-3.363.964-3.767,2-7.514,3.024-11.266,1.008-3.7,2.074-7.384,3.025-11.1.246-.961.641-1.378,1.621-1.24a6.764,6.764,0,0,0,.9.008c2.746.014,3.572,1.1,2.869,3.789C984.286-265.835,984-264.787,983.673-263.552Z" transform="translate(-943.466 271.124)"/><path class="a" d="M939.747-227.321c.993-3.686,1.947-7.235,2.906-10.782.69-2.551,1.411-5.094,2.066-7.654.231-.9.634-1.215,1.632-1.278,4.437-.281,4.613,1.54,3.669,4.68-1.349,4.486-2.545,9.02-3.694,13.561a1.653,1.653,0,0,1-2.056,1.5C942.828-227.4,941.372-227.321,939.747-227.321Z" transform="translate(-920.265 254.604)"/><path class="a" d="M962.908-265.985a2.107,2.107,0,0,1-2.345-2.281,4.14,4.14,0,0,1,3.9-3.818,2.13,2.13,0,0,1,2.433,2.216A4.161,4.161,0,0,1,962.908-265.985Z" transform="translate(-934.808 272.084)"/></g><g transform="translate(439.993 700.667)"><path class="b" d="M2.211,37.83H8.844L3.686,50.446a3.923,3.923,0,0,1-3.521-2.4A3.744,3.744,0,0,1,.11,45.884Z" transform="translate(0.023 -26.731)"/><path class="c" d="M30.072,11.369l-8.435-.147,1.9-6.261A3.84,3.84,0,0,0,19.874,0h-7.7l-8.8,31.613S.22,45.132,12.176,46.356c0,0,18.9,3.864,24.965-18.974C37.14,27.382,40.341,13.569,30.072,11.369ZM24.307,27.048S23.97,32.88,19.569,33.9a2.852,2.852,0,0,1-1.939-.2,2.632,2.632,0,0,1-1.385-2.614,4.935,4.935,0,0,1,.211-1.306l1.625-6.07h4.436A3.007,3.007,0,0,1,24.307,27.048Z" transform="translate(-2.111 0)"/><path class="d" d="M73.711,48.043c-.807-9.28-7.473-9.647-7.473-9.647L57.8,38.25,54.18,50.816H58.6c.813.044,2.294,1.385,1.813,3.758" transform="translate(-38.277 -27.028)"/></g></g></svg>