<svg xmlns="http://www.w3.org/2000/svg" xmlns:xlink="http://www.w3.org/1999/xlink" width="191.009" height="56.043" viewBox="0 0 191.009 56.043"><defs><style>.a{fill:#fff;}.b{fill:url(#a);}</style><linearGradient id="a" y1="0.5" x2="1" y2="0.5" gradientUnits="objectBoundingBox"><stop offset="0" stop-color="#00eba0"/><stop offset="1" stop-color="#006eff"/></linearGradient></defs><g transform="translate(-91.772 -430.034)"><path class="a" d="M161.247,479.219c0,3.883-3.163,6.42-7.078,6.42h-9.207V463.718h8.581c3.82,0,6.921,2.474,6.921,6.263a5.484,5.484,0,0,1-1.911,4.29A5.661,5.661,0,0,1,161.247,479.219Zm-11.274-10.8V472.3h3.57a1.942,1.942,0,0,0,0-3.883Zm6.263,10.428a1.981,1.981,0,0,0-2.067-2.1h-4.2v4.2h4.2A1.981,1.981,0,0,0,156.236,478.843Z"/><path class="a" d="M168.762,463.718v21.921h-5.011V463.718Z"/><path class="a" d="M187.238,468.54H181.6v17.1H176.59v-17.1h-5.636v-4.822h16.284Z"/><path class="a" d="M189.242,480.659l4.322-2.505a4.59,4.59,0,0,0,4.6,3.038c2.38,0,2.975-.939,2.975-1.785,0-1.347-1.252-1.879-4.541-2.787-3.256-.908-6.451-2.474-6.451-6.67,0-4.228,3.57-6.671,7.36-6.671a8.5,8.5,0,0,1,8.017,4.948L201.3,470.7a3.842,3.842,0,0,0-3.789-2.537c-1.566,0-2.349.783-2.349,1.66,0,1,.532,1.691,3.946,2.725,3.319,1,7.046,2.16,7.046,6.795,0,4.228-3.382,6.733-8.142,6.733C193.407,486.077,190.464,483.885,189.242,480.659Z"/><path class="a" d="M207.562,474.678a11.4,11.4,0,1,1,11.4,11.4A11.3,11.3,0,0,1,207.562,474.678Zm17.787,0a6.39,6.39,0,1,0-6.388,6.514A6.235,6.235,0,0,0,225.349,474.678Z"/><path class="a" d="M250.4,463.718v21.921h-3.758l-8.455-11.9v11.9h-5.011V463.718h3.758l8.456,11.9v-11.9Z"/><path class="a" d="M259.169,463.718v21.921h-5.011V463.718Z"/><path class="a" d="M261.987,474.678a11.113,11.113,0,0,1,11.4-11.4,10.932,10.932,0,0,1,9.4,5.073l-4.321,2.506a5.669,5.669,0,0,0-5.074-2.694c-3.883,0-6.388,2.6-6.388,6.514s2.505,6.514,6.388,6.514a5.633,5.633,0,0,0,5.074-2.693L282.781,481a10.855,10.855,0,0,1-9.4,5.073A11.113,11.113,0,0,1,261.987,474.678Z"/><path class="b" d="M128.156,431.8a22.412,22.412,0,0,0-5.1-.592c-.108,0-.214.006-.322.008L100.7,453.248h0l-5.26,5.259c0,.108-.008.214-.008.322a22.412,22.412,0,0,0,.592,5.1L122.9,437.057h0Z"/><path class="b" d="M142.641,442.779l-5.259,5.259h0L107,478.419a22.238,22.238,0,0,0,4.218,1.791l27.953-27.953,5.26-5.26A22.243,22.243,0,0,0,142.641,442.779Z"/><path class="b" d="M134.679,442.872l-5.259,5.259h0L97.814,479.737a22.519,22.519,0,0,0,3.382,2.628l5.26-5.26,25.592-25.592,5.26-5.26A22.4,22.4,0,0,0,134.679,442.872Z"/><path class="b" d="M139.648,430.034,108.8,460.886h0l-5.26,5.259a22.475,22.475,0,0,0,2.629,3.382l5.259-5.26h0l31.606-31.605A22.456,22.456,0,0,0,139.648,430.034Z"/><path class="b" d="M129.2,438.62a22.212,22.212,0,0,0-4.219-1.791l-5.26,5.259L97.031,464.781l-5.259,5.26a22.184,22.184,0,0,0,1.791,4.219L98.822,469h0Z"/><path class="b" d="M96.164,455.92l19.959-19.959A22.372,22.372,0,0,0,96.164,455.92Z"/><path class="b" d="M140.184,453.106l-5.26,5.259-21.616,21.616-5.26,5.26a22.418,22.418,0,0,0,5.1.592c.108,0,.215-.007.322-.008l5.26-5.26h0l22.034-22.033c0-.108.008-.215.008-.323A22.41,22.41,0,0,0,140.184,453.106Z"/></g></svg>