<svg xmlns="http://www.w3.org/2000/svg" width="144.642" height="34.66" viewBox="0 0 144.642 34.66"><defs><style>.a{fill:#0082d7;}.b{fill:#fff;}.c{fill:#101010;}</style></defs><g transform="translate(-20.4 -249.1)"><g transform="translate(20.4 249.1)"><g transform="translate(0)"><path class="a" d="M27.414,249.1v5.375h3.374v-2H51.059v20.295H30.812V261.875H27.438v14.293H54.482V249.1ZM20.4,256.717V283.76H47.443v-5.592H44.069v2.217H23.774V260.091H44.045v10.678h3.374V256.692H20.4Z" transform="translate(-20.4 -249.1)"/></g></g><path class="b" d="M214.343,270.89h-4.218v-6.628h4.387c2.314,0,3.784,1.35,3.784,3.4C218.271,269.661,216.825,270.89,214.343,270.89Zm-4.218-14.655h3.688c2.314,0,3.615,1.133,3.615,2.965a3.2,3.2,0,0,1-3.4,3.447H210.1l.024-6.411Zm6.435,7.038a4.066,4.066,0,0,0,2.965-4.242c0-2.844-2.121-4.531-5.712-4.531H208.1v18.053h6.243c3.784,0,6.026-1.832,6.026-4.941,0-2.121-1.422-3.76-3.808-4.339Z" transform="translate(-142.459 -4.098)"/><path class="b" d="M442.617,265.422c2.41-.554,3.929-2.386,3.929-5.3,0-3.471-2.338-5.52-6.339-5.52H435v18.053h2.025v-6.99h3.9l3.929,6.99h2.41l-4.122-6.7-.53-.53Z" transform="translate(-314.669 -4.174)"/><path class="b" d="M342.01,264.334h-7.592v6.556h8.46V272.6H332.393V254.524h10.412v1.711h-8.388v6.46h7.592Zm-64.21,8.243h2.025V254.5H277.8Zm11.473-16.342h-5.086v-1.711h12.172v1.711H291.3v16.342h-2.025V256.235Zm10,0h5.11v16.342h2.025V256.235h5.062v-1.711H299.3l-.024,1.711Zm55.557,7.134,5.375-8.822h-2.458l-4.025,7.159-.169.7-.169-.7-4.025-7.159h-2.434l5.375,8.822-5.52,9.231h2.483l4.146-7.424.169-.7.169.7,4.17,7.424H360.4l-5.568-9.231Z" transform="translate(-195.359 -4.098)"/><path class="c" d="M443.324,269.537h3.447c2.41,0,4.025-1.3,4.025-3.929,0-2.41-1.446-3.808-3.9-3.808H443.3l.024,7.737Z" transform="translate(-320.969 -9.639)"/><path class="b" d="M222.364,352.936h2.916v4a9.271,9.271,0,0,1-2.8.434,3.687,3.687,0,0,1-2.8-1.061,4.32,4.32,0,0,1-.988-3.013,4,4,0,0,1,1.109-3.013,4.182,4.182,0,0,1,3.037-1.085,6.087,6.087,0,0,1,2.362.482l-.458,1.085a4.5,4.5,0,0,0-1.928-.434,2.668,2.668,0,0,0-2.025.8,3.136,3.136,0,0,0-.747,2.193,3.213,3.213,0,0,0,.675,2.217,2.4,2.4,0,0,0,1.928.747,5.584,5.584,0,0,0,1.35-.169v-2.049h-1.639v-1.133Zm14.872,4.314V349.3h1.3v6.845h3.374v1.109Zm23.139-3.977a4.312,4.312,0,0,1-.964,3.013,3.507,3.507,0,0,1-2.748,1.085,3.6,3.6,0,0,1-2.772-1.061,4.377,4.377,0,0,1-.964-3.037,4.272,4.272,0,0,1,.964-3.013,4.121,4.121,0,0,1,5.52,0A4.272,4.272,0,0,1,260.374,353.273Zm-6.074,0a3.547,3.547,0,0,0,.6,2.242,2.084,2.084,0,0,0,1.76.747,2.037,2.037,0,0,0,1.735-.747,4.5,4.5,0,0,0,.024-4.459,2.037,2.037,0,0,0-1.735-.747,2.084,2.084,0,0,0-1.76.747,3.291,3.291,0,0,0-.627,2.217Zm17.812-3.977h2.362a4.494,4.494,0,0,1,2.362.482,1.676,1.676,0,0,1,.723,1.518,1.841,1.841,0,0,1-.362,1.157,1.542,1.542,0,0,1-1.036.578v.048a2,2,0,0,1,1.229.627,1.857,1.857,0,0,1,.386,1.253,2.034,2.034,0,0,1-.747,1.687,3.171,3.171,0,0,1-2.073.6h-2.868C272.112,357.25,272.112,349.3,272.112,349.3Zm1.3,3.3h1.253a1.9,1.9,0,0,0,1.181-.265,1.014,1.014,0,0,0,.386-.892.9.9,0,0,0-.41-.82,2.5,2.5,0,0,0-1.277-.241h-1.133V352.6Zm0,1.036v2.531h1.374a1.925,1.925,0,0,0,1.229-.313,1.123,1.123,0,0,0,.41-.988,1.03,1.03,0,0,0-.434-.916,2.331,2.331,0,0,0-1.277-.289C274.715,353.635,273.414,353.635,273.414,353.635Zm21.018,3.615-.8-2.217H290.6l-.771,2.217h-1.4l2.965-7.978h1.422l2.965,7.978Zm-1.133-3.326-.747-2.169q-.253-.687-.434-1.374a14.765,14.765,0,0,1-.434,1.47l-.723,2.073Zm13.594,3.326V349.3h1.3v6.845h3.374v1.109Z" transform="translate(-150.504 -75.973)"/></g></svg>