<svg xmlns="http://www.w3.org/2000/svg" width="112.808" height="27.032" viewBox="0 0 112.808 27.032"><defs><style>.a{fill:#0082d7;}.b{fill:#fff;}.c{fill:#101010;}</style></defs><g transform="translate(0 0)"><g transform="translate(0)"><path class="a" d="M25.87,249.1v4.192H28.5v-1.56H44.311V267.56H28.521v-8.5H25.889V270.21H46.981V249.1Zm-5.47,5.94v21.092H41.492v-4.361H38.86V273.5H23.032V257.672H38.841V266h2.632V255.021H20.4Z" transform="translate(-20.4 -249.1)"/></g></g><path class="b" d="M212.969,267.283h-3.29v-5.169H213.1a2.635,2.635,0,0,1,2.951,2.651C216.033,266.324,214.9,267.283,212.969,267.283Zm-3.29-11.429h2.876c1.8,0,2.82.884,2.82,2.312a2.5,2.5,0,0,1-2.651,2.688H209.66l.019-5Zm5.019,5.489a3.171,3.171,0,0,0,2.312-3.308c0-2.218-1.654-3.534-4.455-3.534H208.1v14.08h4.869c2.951,0,4.7-1.429,4.7-3.854a3.486,3.486,0,0,0-2.97-3.384Z" transform="translate(-172.816 -253.485)"/><path class="b" d="M440.94,263.04A3.869,3.869,0,0,0,444,258.9c0-2.707-1.823-4.3-4.944-4.3H435v14.08h1.579v-5.451h3.045l3.064,5.451h1.88l-3.214-5.226-.414-.414Z" transform="translate(-357.063 -253.566)"/><path class="b" d="M327.878,262.17h-5.921v5.113h6.6v1.335h-8.177v-14.1H328.5v1.335h-6.542v5.038h5.921ZM277.8,268.6h1.579V254.5H277.8Zm8.948-12.745h-3.966v-1.335h9.493v1.335h-3.948V268.6h-1.579V255.854Zm7.8,0h3.985V268.6h1.579V255.854h3.948v-1.335h-9.493l-.019,1.335Zm43.33,5.564,4.192-6.88h-1.917l-3.139,5.583-.132.545-.132-.545-3.139-5.583h-1.9l4.192,6.88-4.3,7.2h1.936l3.233-5.79.132-.545.132.545,3.252,5.79h1.936l-4.342-7.2Z" transform="translate(-229.413 -253.485)"/><path class="c" d="M443.319,267.834h2.688a2.829,2.829,0,0,0,3.139-3.064,2.75,2.75,0,0,0-3.045-2.97h-2.8l.019,6.034Z" transform="translate(-363.803 -259.413)"/><path class="b" d="M221.557,352.114h2.275v3.121a7.231,7.231,0,0,1-2.181.338,2.875,2.875,0,0,1-2.181-.827,3.369,3.369,0,0,1-.771-2.35,3.122,3.122,0,0,1,.865-2.35,3.261,3.261,0,0,1,2.369-.846,4.747,4.747,0,0,1,1.842.376l-.357.846a3.512,3.512,0,0,0-1.5-.338,2.081,2.081,0,0,0-1.579.62,2.445,2.445,0,0,0-.583,1.711,2.506,2.506,0,0,0,.526,1.729,1.875,1.875,0,0,0,1.5.583,4.353,4.353,0,0,0,1.053-.132V353h-1.278v-.884Zm11.6,3.365v-6.2h1.015v5.339H236.8v.865Zm18.046-3.1a3.363,3.363,0,0,1-.752,2.35,2.735,2.735,0,0,1-2.143.846,2.8,2.8,0,0,1-2.162-.827,3.414,3.414,0,0,1-.752-2.369,3.332,3.332,0,0,1,.752-2.35,3.214,3.214,0,0,1,4.3,0A3.332,3.332,0,0,1,251.2,352.377Zm-4.737,0a2.766,2.766,0,0,0,.47,1.748,1.625,1.625,0,0,0,1.372.583,1.588,1.588,0,0,0,1.353-.583,3.513,3.513,0,0,0,.019-3.478,1.589,1.589,0,0,0-1.353-.583,1.626,1.626,0,0,0-1.372.583,2.567,2.567,0,0,0-.489,1.729Zm13.892-3.1H262.2a3.5,3.5,0,0,1,1.842.376,1.307,1.307,0,0,1,.564,1.184,1.436,1.436,0,0,1-.282.9,1.2,1.2,0,0,1-.808.451v.038a1.561,1.561,0,0,1,.959.489,1.449,1.449,0,0,1,.3.978,1.586,1.586,0,0,1-.583,1.316,2.472,2.472,0,0,1-1.617.47h-2.237C260.357,355.479,260.357,349.275,260.357,349.275Zm1.015,2.575h.978a1.484,1.484,0,0,0,.921-.207.791.791,0,0,0,.3-.7.7.7,0,0,0-.32-.639,1.947,1.947,0,0,0-1-.188h-.883v1.729Zm0,.808v1.974h1.071a1.5,1.5,0,0,0,.959-.244.876.876,0,0,0,.32-.771.8.8,0,0,0-.338-.714,1.818,1.818,0,0,0-1-.226C262.387,352.659,261.372,352.659,261.372,352.659Zm16.392,2.82-.62-1.729h-2.369l-.6,1.729h-1.09l2.312-6.222H276.5l2.312,6.222Zm-.884-2.594-.583-1.692q-.2-.536-.338-1.072a11.5,11.5,0,0,1-.338,1.147l-.564,1.617Zm10.6,2.594v-6.2H288.5v5.339h2.632v.865Z" transform="translate(-181.423 -330.383)"/></svg>