<svg xmlns="http://www.w3.org/2000/svg" width="144.885" height="45.089" viewBox="0 0 144.885 45.089"><defs><style>.a{fill:#cafafc;}.b{fill:#00a8c5;}.c{fill:#1ecce0;}.d{fill:#98ecf5;}.e{fill:#1ccfe3;}</style></defs><g transform="translate(-1115.324 630.117)"><path class="a" d="M1408.431-577c-3.021,0-5.834-.016-8.647.012-.619.006-.832-.411-1.092-.8-1.763-2.619-3.513-5.246-5.339-7.975-1.7,2.6-3.358,5.1-4.986,7.623a2.112,2.112,0,0,1-2.081,1.173c-2.541-.109-5.09-.035-7.819-.035,1.926-2.668,3.743-5.189,5.563-7.708,1.379-1.908,2.74-3.83,4.156-5.71a1.167,1.167,0,0,0,.031-1.646c-3.054-4.232-6.061-8.5-9.081-12.756a1.4,1.4,0,0,1-.073-.352h6.3c2.657,0,2.639.011,4.105,2.22,1.2,1.806,2.454,3.576,3.668,5.373.546.808.768.075.975-.224q2.325-3.355,4.59-6.749a1.3,1.3,0,0,1,1.261-.636c2.521.039,5.042.017,7.771.017-1.039,1.453-1.977,2.786-2.936,4.1q-3.241,4.457-6.5,8.9a.892.892,0,0,0,.044,1.236C1401.671-586.367,1404.978-581.779,1408.431-577Z" transform="translate(-148.222 -14.039)"/><path class="b" d="M1168.011-630.1c5.829,0,11.659.017,17.488-.02.829-.005,1.064.2,1.051,1.039-.051,3.328-.041,6.657,0,9.985.008.738-.14,1.015-.959,1.012q-17.6-.04-35.2,0c-.724,0-.939-.193-.931-.922q.056-5.1,0-10.207c-.01-.767.268-.9.956-.9C1156.278-630.087,1162.144-630.1,1168.011-630.1Z" transform="translate(-19.225)"/><path class="a" d="M1262.376-591.089c0-4.363.026-8.726-.022-13.089-.01-.852.234-1.025,1.05-1.021q10.078.052,20.156,0c.8,0,1.11.141,1.061,1.014a42.609,42.609,0,0,0,0,4.324c.034.763-.242.9-.943.9-4.12-.031-8.24,0-12.361-.033-.745-.007-1.038.122-1,.943.075,1.475.057,2.958,0,4.435-.024.68.164.869.859.862,3.6-.038,7.2,0,10.8-.035.727-.007.944.184.913.911a39.562,39.562,0,0,0,.006,4.213c.059.91-.314,1-1.08.991-3.489-.037-6.979.014-10.468-.038-.848-.013-1.055.216-1.037,1.043.057,2.587-.007,5.177.039,7.764.013.739-.206.932-.93.915-2.04-.048-4.084-.06-6.124,0-.838.027-.946-.291-.941-1.015C1262.392-582.364,1262.376-586.727,1262.376-591.089Z" transform="translate(-82.818 -14.036)"/><path class="a" d="M1332.495-605.176c3.9,0,7.8.019,11.7-.017.728-.007.946.185.92.915-.057,1.552-.053,3.108,0,4.66.023.682-.165.88-.861.866-2.264-.046-4.532.035-6.795-.043-.924-.032-1.059.289-1.055,1.1.031,6.547,0,13.1.042,19.642.006.91-.274,1.087-1.109,1.062-1.929-.059-3.864-.072-5.792.005-.881.035-1.018-.262-1.014-1.055.032-6.547,0-13.1.037-19.643,0-.831-.148-1.147-1.071-1.116-2.225.076-4.456,0-6.684.038-.679.011-.988-.1-.955-.885.066-1.551.065-3.108,0-4.659-.032-.766.25-.9.942-.891C1324.7-605.161,1328.595-605.176,1332.495-605.176Z" transform="translate(-115.205 -14.039)"/><path class="c" d="M1127.385-586.212c0,1.665-.027,3.33.013,4.994.017.686-.131.979-.907.97q-5.125-.061-10.25,0c-.758.008-.922-.255-.915-.96q.051-5.1,0-10.21c-.007-.691.134-.978.905-.969q5.125.058,10.25,0c.763-.008.935.261.918.961C1127.356-589.69,1127.385-587.951,1127.385-586.212Z" transform="translate(0 -21.251)"/><path class="d" d="M1149.52-548.428c0-1.7.019-3.4-.01-5.1-.01-.611.185-.85.824-.846q5.176.033,10.352,0c.59,0,.875.134.87.8-.024,3.474-.019,6.948,0,10.422,0,.56-.174.791-.765.788q-5.232-.027-10.463,0c-.649,0-.825-.251-.815-.853C1149.538-544.953,1149.52-546.691,1149.52-548.428Z" transform="translate(-19.256 -42.664)"/><path class="e" d="M1149.573-580.448c-.192-3.763-.029-7.528-.088-11.292-.008-.472.173-.683.65-.647.221.017.445,0,.667,0,8.047,0,16.095.024,24.142-.028,1.11-.007,1.337.32,1.315,1.36-.069,3.286-.023,6.574-.029,9.862,0,.449.161,1.073-.694.844q-12.549.022-25.1,0A1.474,1.474,0,0,1,1149.573-580.448Z" transform="translate(-19.237 -21.238)"/><path class="c" d="M1149.7-565.037q12.436,0,24.873,0a2.238,2.238,0,0,1,1.092.1c-.406.023-.811.065-1.217.065q-11.794.006-23.588-.006C1150.473-564.878,1150.043-564.7,1149.7-565.037Z" transform="translate(-19.362 -36.649)"/><path class="c" d="M1163.1-580.152c-4.008,0-8.016-.022-12.023.018-.845.008-1.073-.26-1.062-1.077q.064-4.6,0-9.2c-.011-.816.217-1.08,1.061-1.077q12.023.043,24.046,0c.79,0,1.013.257,1,1.019-.035,3.068-.043,6.136,0,9.2.013.861-.219,1.146-1.119,1.135C1171.04-580.179,1167.069-580.152,1163.1-580.152Z" transform="translate(-19.539 -21.757)"/></g></svg>