<svg xmlns="http://www.w3.org/2000/svg" width="166.662" height="57.983" viewBox="0 0 166.662 57.983"><defs><style>.a{fill:#de5959;}</style></defs><g transform="translate(317.091 -552.714)"><path class="a" d="M-294.376,581.248l-.5-.505a.606.606,0,0,0-1.033.428v7.218a.607.607,0,0,0,.608.6h7.22a.6.6,0,0,0,.426-1.031.6.6,0,0,1,0-.854l7.679-7.7a.6.6,0,0,0,0-.854l-.7-.7a.605.605,0,0,1,.427-1.032h7.216a.607.607,0,0,1,.607.6v7.218a.607.607,0,0,1-1.035.427l-.487-.486a.59.59,0,0,0-.852,0l-12.947,12.941a.605.605,0,0,1-.855,0l-15.84-15.841a.6.6,0,0,1,0-.857l21.928-21.928a.607.607,0,0,0,0-.856l-5.156-5.156a.607.607,0,0,0-.855,0l-28.388,28.389a.608.608,0,0,0,0,.856l28.385,28.385a.609.609,0,0,0,.856,0l28.384-28.385a.607.607,0,0,0,0-.854l-16.7-16.7a.606.606,0,0,0-.854,0l-16.673,16.667a.606.606,0,0,1-.859,0Z" transform="translate(0 0)"/><g transform="translate(-252.106 566.619)"><path class="a" d="M212.276,674.035a2.2,2.2,0,0,0-2.186,2.17,2.307,2.307,0,0,0,1.358,2.092,2.271,2.271,0,0,0,2.386-.519,2.115,2.115,0,0,0,.646-1.557,2.059,2.059,0,0,0-.646-1.543,2.129,2.129,0,0,0-1.56-.638v-.006h0ZM177.109,657.4h-1.631a1.275,1.275,0,0,0-1.279,1.274v.91a7.986,7.986,0,0,0-5.9-2.708,8.164,8.164,0,0,0-6.336,2.825,10.16,10.16,0,0,0-2.532,7.056,10.511,10.511,0,0,0,2.529,7.192,8.349,8.349,0,0,0,12.237.3v1.8a1.585,1.585,0,0,0,1.582,1.584h2.785V658.858a1.461,1.461,0,0,0-1.459-1.458Zm-4.123,13.82a4.993,4.993,0,0,1-3.907,1.662,4.739,4.739,0,0,1-3.751-1.719,6.556,6.556,0,0,1-1.449-4.409,6.283,6.283,0,0,1,1.487-4.254,4.8,4.8,0,0,1,3.751-1.7,4.9,4.9,0,0,1,3.865,1.687,7.138,7.138,0,0,1,0,8.733h0v0Zm-13.553-10.641v-1.861a1.313,1.313,0,0,0-1.315-1.315H156.4a1.311,1.311,0,0,0-1.314,1.313v.81a7.594,7.594,0,0,0-5.916-2.65,8.006,8.006,0,0,0-6.535,3.055,10.849,10.849,0,0,0-2.3,7,10.312,10.312,0,0,0,2.477,7.056,8.006,8.006,0,0,0,6.3,2.783,8.119,8.119,0,0,0,5.973-2.646v2.629q0,5.86-4.774,5.86a4.667,4.667,0,0,1-3.942-1.762,3.8,3.8,0,0,1-.573-1.111,1.543,1.543,0,0,0-1.46-1.036h-1.648a1.28,1.28,0,0,0-1.239,1.6,7.9,7.9,0,0,0,2.617,4.184,9.367,9.367,0,0,0,6.205,2.031,8.819,8.819,0,0,0,7.019-2.936,7.971,7.971,0,0,0,1.815-3.654,15.779,15.779,0,0,0,.242-1.79q.085-1.011.085-2.347v-2.736a10.756,10.756,0,0,1-1.83-6.293,10.411,10.411,0,0,1,1.83-6.178h0Zm-5.509,10.493a4.775,4.775,0,0,1-3.944,1.811,4.684,4.684,0,0,1-3.907-1.8,7.574,7.574,0,0,1,0-8.466,4.691,4.691,0,0,1,3.907-1.834,4.858,4.858,0,0,1,3.807,1.68,6.336,6.336,0,0,1,1.472,4.39,6.486,6.486,0,0,1-1.335,4.216v0Zm41.669-13.658V657.4h-9.021v-5.525a1.284,1.284,0,0,0-1.286-1.285h-1.761a1.3,1.3,0,0,0-1.3,1.3V657.4h-1.858v4.055h1.856v16.178H184.7a1.863,1.863,0,0,0,1.867-1.868V661.458h4.46a9.134,9.134,0,0,1,1.286-1.86,8.019,8.019,0,0,1,3.274-2.184h0Zm22.2-6.823a2.848,2.848,0,0,0-2.822,2.807,2.838,2.838,0,0,0,2.844,2.861,2.651,2.651,0,0,0,1.987-.833,2.744,2.744,0,0,0,.835-2.01,2.663,2.663,0,0,0-.834-1.989,2.739,2.739,0,0,0-2.013-.838l0,0Zm.881,8.943h-1.578A1.466,1.466,0,0,0,215.623,661v13.807a2.2,2.2,0,0,1,0,2.778v.777h2.8a1.553,1.553,0,0,0,1.551-1.554V660.833a1.3,1.3,0,0,0-1.307-1.3v0Zm20.443,2.664a10.3,10.3,0,0,0-14.268-.014,9.348,9.348,0,0,0-2.919,6.937,9.755,9.755,0,0,0,2.861,7.194,9.577,9.577,0,0,0,7.095,2.9,9.977,9.977,0,0,0,7.21-2.841,10.091,10.091,0,0,0,.021-14.174Zm-3.077,11.485a5.864,5.864,0,0,1-8.158-.022,6.354,6.354,0,0,1-1.509-4.465,6.055,6.055,0,0,1,1.548-4.29,5.785,5.785,0,0,1,8.119,0,7.058,7.058,0,0,1,0,8.774v0Z" transform="translate(-140.332 -650.588)"/><path class="a" d="M504.145,719.31a5.662,5.662,0,0,1-1.512-3.693H515.1a1.044,1.044,0,0,0,1.046-1.022,10.415,10.415,0,0,0-2.4-7.288,9.429,9.429,0,0,0-13.184.078,10.431,10.431,0,0,0-2.474,7.231,10.168,10.168,0,0,0,2.549,7.229,8.3,8.3,0,0,0,4.37,2.461,9.171,9.171,0,0,0,2.234.25c3.1.064,5.791.128,8.888.192l.005-.455a2.125,2.125,0,0,1-.569-1.487,2.09,2.09,0,0,1,.585-1.466l0-.551c-2.442-.061-8.363-.119-8.6-.119a4.564,4.564,0,0,1-3.413-1.354v0Zm-.6-8.7a4.391,4.391,0,0,1,.978-1.091,4.168,4.168,0,0,1,1.267-.7,4.517,4.517,0,0,1,1.493-.242,4.173,4.173,0,0,1,4.39,3.477h-8.745a5.177,5.177,0,0,1,.617-1.451v0Z" transform="translate(-447.264 -696.976)"/></g></g></svg>