<svg xmlns="http://www.w3.org/2000/svg" width="174.655" height="52.064" viewBox="0 0 174.655 52.064"><defs><style>.a{fill:#fff;}.b{fill:#2ca6e0;}</style></defs><g transform="translate(-0.016 0.001)"><path class="a" d="M110.036,26.741v14.69H95.441V28.638a1.9,1.9,0,0,0-1.9-1.9H88.6V61.9a1.9,1.9,0,0,0,1.9,1.9h4.941V47.4h14.6V61.893a1.9,1.9,0,0,0,1.875,1.934h4.97V28.638a1.9,1.9,0,0,0-1.9-1.9h-4.948Zm28.983,9.191V53.555a4.514,4.514,0,0,1-2.206,3.919,5.1,5.1,0,0,1-7.874-4.242v-15.4a1.9,1.9,0,0,0-1.9-1.9h-4.941V53.864a10.515,10.515,0,0,0,10.47,10.485h2.809a10.521,10.521,0,0,0,10.492-10.492V37.836a1.9,1.9,0,0,0-1.9-1.9Z" transform="translate(-45.606 -13.764)"/><path class="b" d="M344.589,74.672h4.941V49.7a1.9,1.9,0,0,0-1.9-1.9h-4.941V72.753a1.9,1.9,0,0,0,1.89,1.919Z" transform="translate(-176.424 -24.61)"/><circle class="b" cx="3.816" cy="3.816" r="3.816" transform="translate(164.699 18.8) rotate(-67.5)"/><g transform="translate(0.016 -0.001)"><path class="a" d="M229.207,45.662c-7.169,0-13.036,5.125-13.036,12.293V61.83c0,7.169,5.867,12.264,13.036,12.264S242.243,69,242.243,61.83V57.955C242.25,50.787,236.383,45.662,229.207,45.662Zm6.161,16.631c0,3.389-2.772,5.647-6.169,5.647s-6.161-2.257-6.161-5.647V57.455c0-3.389,2.772-5.647,6.161-5.647s6.169,2.257,6.169,5.647Z" transform="translate(-111.303 -23.509)"/><path class="b" d="M292.471,35.956a14.031,14.031,0,0,0-6.2,1.4V28.713a1.9,1.9,0,0,0-1.9-1.9h-4.941V52.124c0,7.169,5.867,12.264,13.036,12.264s13.036-5.1,13.036-12.264V48.249c.007-7.169-5.845-12.293-13.028-12.293Zm6.169,16.631c0,3.389-2.772,5.647-6.169,5.647s-6.161-2.257-6.161-5.647V47.749c0-3.389,2.772-5.647,6.161-5.647s6.169,2.257,6.169,5.647Z" transform="translate(-143.871 -13.802)"/><path class="a" d="M22.3,16.013c0-7.47-3.639-13.9-6.411-15.992,0,0-.213-.118-.191.184C15.47,14.638,8.1,18.55,4.044,23.814-5.308,35.975,3.383,49.3,12.25,51.768c4.941,1.382-1.147-2.441-1.934-10.507C9.353,31.527,22.3,24.086,22.3,16.013Z" transform="translate(-0.016 0.001)"/><path class="b" d="M45.1,43.109c-.059-.037-.14-.066-.191.029-.154,1.816-2.007,5.7-4.36,9.271-7.977,12.1-3.434,17.94-.875,21.079,1.485,1.816,0,0,3.706-1.86A16.732,16.732,0,0,0,51.376,58.7,18.717,18.717,0,0,0,45.1,43.109Z" transform="translate(-18.569 -22.176)"/></g></g></svg>