<svg xmlns="http://www.w3.org/2000/svg" width="154.491" height="25.615" viewBox="0 0 154.491 25.615"><defs><style>.a{fill:#7d7f80;}.b{fill:#007fae;}</style></defs><g transform="translate(-25.6 -276.6)"><g transform="translate(25.6 276.6)"><g transform="translate(0.18 21.677)"><path class="a" d="M26.3,364.507h.566V360.8H26.3Z" transform="translate(-26.3 -360.8)"/></g><g transform="translate(3.604 21.419)"><path class="a" d="M39.6,363.765h0V359.8l2.677,2.832v-2.574h.566V364l-2.677-2.832v2.6Z" transform="translate(-39.6 -359.8)"/></g><g transform="translate(9.706 21.702)"><path class="a" d="M63.3,364.581h0V360.9h.772a2.613,2.613,0,0,1,.875.1,2.282,2.282,0,0,1,.644.36,1.751,1.751,0,0,1,.566,1.364,1.772,1.772,0,0,1-.592,1.364,1.473,1.473,0,0,1-.644.36,2.446,2.446,0,0,1-.85.1H63.3Zm.566-.515h.257a2.127,2.127,0,0,0,.618-.077,1.784,1.784,0,0,0,.438-.257,1.368,1.368,0,0,0,0-1.957,1.473,1.473,0,0,0-1.081-.335h-.257v2.626Z" transform="translate(-63.3 -360.9)"/></g><g transform="translate(15.06 21.599)"><path class="a" d="M84.1,362.405h0a1.911,1.911,0,0,1,3.27-1.339,1.772,1.772,0,0,1,.566,1.339,1.734,1.734,0,0,1-.566,1.339,1.845,1.845,0,0,1-1.39.566,1.92,1.92,0,0,1-1.287-.489A1.9,1.9,0,0,1,84.1,362.405Zm.566.026h0a1.344,1.344,0,0,0,.438,1,1.281,1.281,0,0,0,.953.386,1.3,1.3,0,0,0,.978-.412,1.432,1.432,0,0,0,0-1.957,1.266,1.266,0,0,0-.978-.412,1.213,1.213,0,0,0-.953.412A1.251,1.251,0,0,0,84.666,362.431Z" transform="translate(-84.1 -360.5)"/></g><g transform="translate(21.625 21.419)"><path class="a" d="M109.6,363.765h0V359.8l2.677,2.832v-2.574h.566V364l-2.677-2.832v2.6Z" transform="translate(-109.6 -359.8)"/></g><g transform="translate(27.727 21.677)"><path class="a" d="M135.334,361.315h-1.467v.9h1.442v.515h-1.442v1.261h1.467v.515H133.3V360.8h2.034Z" transform="translate(-133.3 -360.8)"/></g><g transform="translate(32.283 21.522)"><path class="a" d="M153.291,360.9h0l-.463.283a.679.679,0,0,0-.232-.283.549.549,0,0,0-.309-.077.579.579,0,0,0-.386.129.367.367,0,0,0-.154.309c0,.18.129.309.386.438l.386.154a1.241,1.241,0,0,1,.644.438.965.965,0,0,1,.206.644,1.145,1.145,0,0,1-.335.85,1.233,1.233,0,0,1-.85.309,1.128,1.128,0,0,1-.8-.283,1.238,1.238,0,0,1-.386-.8l.566-.129a1.108,1.108,0,0,0,.129.438.627.627,0,0,0,.927.051.672.672,0,0,0,.18-.438.477.477,0,0,0-.051-.18,1.259,1.259,0,0,1-.077-.18,1.088,1.088,0,0,0-.18-.129,1.859,1.859,0,0,0-.232-.129l-.335-.154a1.038,1.038,0,0,1-.772-.953.881.881,0,0,1,.309-.7,1.067,1.067,0,0,1,.8-.309A1.384,1.384,0,0,1,153.291,360.9Z" transform="translate(-151 -360.2)"/></g><g transform="translate(37.329 21.677)"><path class="a" d="M170.6,364.507h.566V360.8H170.6Z" transform="translate(-170.6 -360.8)"/></g><g transform="translate(40.315 21.471)"><path class="a" d="M184.8,363.012h-1.6l-.412.9H182.2L184.028,360l1.776,3.913h-.618Zm-.232-.515h0l-.541-1.261-.592,1.261Z" transform="translate(-182.2 -360)"/></g><g transform="translate(49.867 21.702)"><path class="a" d="M219.3,364.581h0V360.9h.772a2.71,2.71,0,0,1,.875.1,1.858,1.858,0,0,1,.618.36,1.868,1.868,0,0,1,0,2.729,1.547,1.547,0,0,1-.618.36,2.518,2.518,0,0,1-.875.1H219.3Zm.541-.515h.232a2.318,2.318,0,0,0,.644-.077,2.444,2.444,0,0,0,.438-.257,1.318,1.318,0,0,0,.412-.978,1.23,1.23,0,0,0-.412-.978,1.514,1.514,0,0,0-1.081-.335h-.232Z" transform="translate(-219.3 -360.9)"/></g><g transform="translate(55.376 21.677)"><path class="a" d="M240.7,364.507h.566V360.8H240.7Z" transform="translate(-240.7 -360.8)"/></g><g transform="translate(58.645 21.625)"><path class="a" d="M255.485,362.428H257v.129a3.167,3.167,0,0,1-.077.747,2.06,2.06,0,0,1-.335.541,1.644,1.644,0,0,1-1.313.566,1.811,1.811,0,0,1-1.339-.566,1.846,1.846,0,0,1-.541-1.339,1.734,1.734,0,0,1,.566-1.339,1.788,1.788,0,0,1,1.364-.566,1.655,1.655,0,0,1,.8.18,2.058,2.058,0,0,1,.721.566l-.386.386a1.316,1.316,0,0,0-1.107-.592,1.266,1.266,0,0,0-.978.412,1.339,1.339,0,0,0-.386.978,1.36,1.36,0,0,0,.438,1.03,1.383,1.383,0,0,0,.9.36,1.007,1.007,0,0,0,.747-.283,1.023,1.023,0,0,0,.36-.669h-.927v-.541Z" transform="translate(-253.4 -360.6)"/></g><g transform="translate(64.927 21.677)"><path class="a" d="M277.8,364.507h.541V360.8H277.8Z" transform="translate(-277.8 -360.8)"/></g><g transform="translate(67.965 21.677)"><path class="a" d="M291.016,361.315h0v3.192h-.566v-3.192h-.85V360.8h2.24v.515Z" transform="translate(-289.6 -360.8)"/></g><g transform="translate(72.058 21.471)"><path class="a" d="M308.1,363.012h-1.6l-.412.9H305.5L307.328,360l1.776,3.913h-.618Zm-.232-.515h0l-.541-1.261-.592,1.261Z" transform="translate(-305.5 -360)"/></g><g transform="translate(78.108 21.677)"><path class="a" d="M329.566,360.8h0v3.192h1.081v.515H329V360.8Z" transform="translate(-329 -360.8)"/></g><g transform="translate(85.342 21.471)"><path class="a" d="M359.674,363.012H358.1l-.412.9H357.1L358.928,360l1.751,3.913h-.592Zm-.232-.515h0l-.541-1.261-.566,1.261Z" transform="translate(-357.1 -360)"/></g><g transform="translate(91.16 21.522)"><path class="a" d="M381.991,360.9h0l-.463.283a.957.957,0,0,0-.232-.283.644.644,0,0,0-.335-.077.632.632,0,0,0-.386.129.367.367,0,0,0-.154.309c0,.18.129.309.412.438l.36.154a1.448,1.448,0,0,1,.669.438,1.127,1.127,0,0,1,.206.644,1.144,1.144,0,0,1-.335.85,1.233,1.233,0,0,1-.85.309,1.128,1.128,0,0,1-.8-.283,1.182,1.182,0,0,1-.386-.8l.566-.129a.8.8,0,0,0,.129.438.648.648,0,0,0,.515.232.565.565,0,0,0,.438-.18.672.672,0,0,0,.18-.438.438.438,0,0,0-.026-.18,1.475,1.475,0,0,0-.1-.18.815.815,0,0,0-.154-.129,1.859,1.859,0,0,0-.232-.129l-.36-.154a1.038,1.038,0,0,1-.772-.953.83.83,0,0,1,.335-.7,1.108,1.108,0,0,1,.8-.309A1.342,1.342,0,0,1,381.991,360.9Z" transform="translate(-379.7 -360.2)"/></g><g transform="translate(96 21.522)"><path class="a" d="M400.791,360.9h0l-.463.283a.7.7,0,0,0-.257-.283.5.5,0,0,0-.309-.077.632.632,0,0,0-.386.129.367.367,0,0,0-.154.309c0,.18.129.309.412.438l.36.154a1.448,1.448,0,0,1,.669.438,1.127,1.127,0,0,1,.206.644,1.144,1.144,0,0,1-.335.85,1.189,1.189,0,0,1-.85.309,1.088,1.088,0,0,1-.8-.283,1.238,1.238,0,0,1-.386-.8l.566-.129a.8.8,0,0,0,.129.438.614.614,0,0,0,.515.232.565.565,0,0,0,.438-.18.672.672,0,0,0,.18-.438.438.438,0,0,0-.026-.18,1.479,1.479,0,0,0-.1-.18.817.817,0,0,0-.154-.129,2.385,2.385,0,0,0-.257-.129l-.335-.154a1.038,1.038,0,0,1-.772-.953.83.83,0,0,1,.335-.7,1.067,1.067,0,0,1,.8-.309A1.342,1.342,0,0,1,400.791,360.9Z" transform="translate(-398.5 -360.2)"/></g><g transform="translate(101.046 21.677)"><path class="a" d="M420.134,361.315h-1.493v.9h1.442v.515h-1.442v1.261h1.493v.515H418.1V360.8h2.034Z" transform="translate(-418.1 -360.8)"/></g><g transform="translate(105.423 21.677)"><path class="a" d="M436.49,361.315h0v3.192h-.566v-3.192H435.1V360.8h2.24v.515Z" transform="translate(-435.1 -360.8)"/></g><g transform="translate(113.635 21.677)"><path class="a" d="M469.034,361.315h-1.467v.9h1.442v.515h-1.442v1.261h1.467v.515H467V360.8h2.034Z" transform="translate(-467 -360.8)"/></g><g transform="translate(117.986 21.677)"><path class="a" d="M485.084,362.576h0l-1.03-1.776h.644l.7,1.261.747-1.261h.644l-1.081,1.776,1.133,1.931h-.644l-.824-1.416-.824,1.416H483.9Z" transform="translate(-483.9 -360.8)"/></g><g transform="translate(123.109 21.621)"><path class="a" d="M506.709,360.846h0v.669a1.48,1.48,0,0,0-.978-.412,1.177,1.177,0,0,0-.953.412,1.4,1.4,0,0,0-.386,1,1.281,1.281,0,0,0,.386.953,1.25,1.25,0,0,0,.953.412,2.438,2.438,0,0,0,.489-.077,1.21,1.21,0,0,0,.232-.154,1.562,1.562,0,0,0,.257-.18v.7a2.012,2.012,0,0,1-1,.257,1.889,1.889,0,0,1-1.339-.541,1.915,1.915,0,0,1-.566-1.339,2.054,2.054,0,0,1,.463-1.261,1.908,1.908,0,0,1,1.467-.7A1.647,1.647,0,0,1,506.709,360.846Z" transform="translate(-503.8 -360.585)"/></g><g transform="translate(128.798 21.677)"><path class="a" d="M526.466,362.242h1.6V360.8h.566v3.707h-.566v-1.725h-1.6v1.725H525.9V360.8h.566Z" transform="translate(-525.9 -360.8)"/></g><g transform="translate(133.973 21.471)"><path class="a" d="M548.6,363.012H547l-.412.9H546L547.828,360l1.776,3.913h-.618Zm-.257-.515h0l-.541-1.261-.592,1.261Z" transform="translate(-546 -360)"/></g><g transform="translate(139.997 21.419)"><path class="a" d="M569.4,363.765h0V359.8l2.7,2.832v-2.574h.541V364l-2.677-2.832v2.6Z" transform="translate(-569.4 -359.8)"/></g><g transform="translate(145.944 21.625)"><path class="a" d="M594.611,362.428h1.519v.129a3.071,3.071,0,0,1-.1.747,1.937,1.937,0,0,1-.309.541,1.644,1.644,0,0,1-1.313.566,1.811,1.811,0,0,1-1.339-.566,1.869,1.869,0,0,1-.566-1.339,1.733,1.733,0,0,1,.566-1.339,1.788,1.788,0,0,1,1.364-.566,1.655,1.655,0,0,1,.8.18,2.651,2.651,0,0,1,.721.566l-.386.386a1.349,1.349,0,0,0-1.107-.592,1.266,1.266,0,0,0-.978.412,1.339,1.339,0,0,0-.386.978,1.275,1.275,0,0,0,.438,1.03,1.436,1.436,0,0,0,.9.36,1.047,1.047,0,0,0,.747-.283,1.023,1.023,0,0,0,.36-.669h-.927v-.541Z" transform="translate(-592.5 -360.6)"/></g><g transform="translate(152.277 21.677)"><path class="a" d="M619.134,361.315h-1.493v.9h1.442v.515h-1.442v1.261h1.493v.515H617.1V360.8h2.034Z" transform="translate(-617.1 -360.8)"/></g><g transform="translate(0 0.618)"><path class="b" d="M25.6,279h4.737v17.017H25.6Zm3.784.953H26.553V295.09h2.832Zm-2.368,13.7h0a1.019,1.019,0,0,1,.463-.824V282.167a.928.928,0,0,1-.463-.824.9.9,0,0,1,.283-.7.935.935,0,0,1,.669-.283,1,1,0,0,1,.7.283.932.932,0,0,1,.257.7.958.958,0,0,1-.463.824v10.658a.928.928,0,0,1,.463.824.912.912,0,0,1-.257.669.861.861,0,0,1-.7.283.842.842,0,0,1-.669-.283A.893.893,0,0,1,27.016,293.648Z" transform="translate(-25.6 -279)"/></g><g transform="translate(7.801 0.489)"><path class="b" d="M57.316,293.406h0a.917.917,0,0,1,.463-.8V280.637H61.9l12.28,12.28h2.755V279.684H75.98v12.28H74.59l-12.306-12.28H56.853v15.138h2.832V282.516h1.39l12.331,12.306h5.432V280.276a.9.9,0,0,1-.463-.824.888.888,0,0,1,.953-.953.912.912,0,0,1,.669.257.977.977,0,0,1-.18,1.519v15.5H73.046L60.791,283.469h-.129v12.306H55.9V278.757h6.745l12.28,12.28h.1v-12.28H77.86V293.9H73.766L61.461,281.589H58.732v11.019a.861.861,0,0,1,.463.8.972.972,0,0,1-.257.7.951.951,0,0,1-.7.283.935.935,0,0,1-.669-.283A1.015,1.015,0,0,1,57.316,293.406Z" transform="translate(-55.9 -278.5)"/></g><g transform="translate(34.497 0.309)"><path class="b" d="M164.8,290.646h0a.888.888,0,0,1,.953-.953.917.917,0,0,1,.8.463h9.113c.206,0,.386-.026.515-.026a.484.484,0,0,0,.283-.129.419.419,0,0,0,.129-.283,2.964,2.964,0,0,0,.026-.515v-5.689c0-.463-.051-.721-.154-.824a1.5,1.5,0,0,0-.8-.129H164.337v9.448h12.28a4.824,4.824,0,0,0,.978-.077,1.057,1.057,0,0,0,.566-.257.785.785,0,0,0,.257-.566,5,5,0,0,0,.077-.978v-7.569a5.3,5.3,0,0,0-.077-1,.961.961,0,0,0-.257-.592,1.057,1.057,0,0,0-.566-.257,5.313,5.313,0,0,0-.978-.051H162.432v14.159H159.6V277.8h17.017a11.609,11.609,0,0,1,2.343.206,3.082,3.082,0,0,1,1.442.747,3.194,3.194,0,0,1,.747,1.442,11.425,11.425,0,0,1,.206,2.343v7.569a11.608,11.608,0,0,1-.206,2.343,3.44,3.44,0,0,1-.747,1.467,3.054,3.054,0,0,1-1.442.721,11.851,11.851,0,0,1-2.343.18H164.672a.928.928,0,0,1-.824.463.953.953,0,0,1-.669-.257,1,1,0,0,1-.283-.7.935.935,0,0,1,.283-.669.981.981,0,0,1,.669-.283.928.928,0,0,1,.824.463h11.945a9.333,9.333,0,0,0,1.879-.154,2.45,2.45,0,0,0,1.158-.566,2.236,2.236,0,0,0,.566-1.159,9.331,9.331,0,0,0,.154-1.879v-7.569a9.157,9.157,0,0,0-.154-1.879,2.45,2.45,0,0,0-.566-1.159,1.908,1.908,0,0,0-1.158-.566,9.091,9.091,0,0,0-1.879-.18H160.553v15.138h.953V279.679h15.138a10.769,10.769,0,0,1,1.442.1,1.419,1.419,0,0,1,.85.438,1.761,1.761,0,0,1,.438.875,7.361,7.361,0,0,1,.1,1.442v7.569a7.361,7.361,0,0,1-.1,1.442,1.359,1.359,0,0,1-.438.85,1.573,1.573,0,0,1-.85.438,10.443,10.443,0,0,1-1.442.1H163.41V281.61h13.233a.845.845,0,0,1,.953.953v7.569a.856.856,0,0,1-.953.953H166.577a.917.917,0,0,1-.8.463.9.9,0,0,1-.7-.283A.747.747,0,0,1,164.8,290.646Z" transform="translate(-159.6 -277.8)"/></g><g transform="translate(83.489 0.309)"><path class="b" d="M355.075,290.646h0a.888.888,0,0,1,.953-.953.888.888,0,0,1,.8.463h9.139c.206,0,.386-.026.515-.026a.443.443,0,0,0,.412-.412,2.968,2.968,0,0,0,.026-.515v-5.689c0-.463-.051-.721-.154-.824a1.429,1.429,0,0,0-.8-.129H354.637v9.448h12.28a4.825,4.825,0,0,0,.978-.077,1.057,1.057,0,0,0,.566-.257.916.916,0,0,0,.283-.566,9.33,9.33,0,0,0,.051-.978v-7.569a9.892,9.892,0,0,0-.051-1,1.161,1.161,0,0,0-.283-.592,1.057,1.057,0,0,0-.566-.257,5.313,5.313,0,0,0-.978-.051H352.732v14.159H349.9V277.8h17.017a11.609,11.609,0,0,1,2.343.206,3.082,3.082,0,0,1,1.442.747,2.962,2.962,0,0,1,.747,1.442,11.427,11.427,0,0,1,.206,2.343v7.569a11.609,11.609,0,0,1-.206,2.343,3.176,3.176,0,0,1-.747,1.467,3.054,3.054,0,0,1-1.442.721,11.85,11.85,0,0,1-2.343.18H354.972a.917.917,0,0,1-.8.463.888.888,0,0,1-.953-.953.912.912,0,0,1,.257-.669,1,1,0,0,1,.7-.283.917.917,0,0,1,.8.463h11.945a9.158,9.158,0,0,0,1.879-.154,2.45,2.45,0,0,0,1.159-.566,1.908,1.908,0,0,0,.566-1.159,9.091,9.091,0,0,0,.18-1.879v-7.569a7.465,7.465,0,0,0-.18-1.879,2.058,2.058,0,0,0-.566-1.159,1.908,1.908,0,0,0-1.159-.566,8.9,8.9,0,0,0-1.879-.18H350.853v15.138h.953V279.679h15.138a10.444,10.444,0,0,1,1.442.1,1.575,1.575,0,0,1,.875.438,1.739,1.739,0,0,1,.412.875,7.358,7.358,0,0,1,.1,1.442v7.569a7.357,7.357,0,0,1-.1,1.442,1.335,1.335,0,0,1-.412.85,1.761,1.761,0,0,1-.875.438,10.133,10.133,0,0,1-1.442.1H353.71V281.61h13.233a.845.845,0,0,1,.953.953v7.569a.856.856,0,0,1-.953.953H356.877a.95.95,0,0,1-1.493.18A.65.65,0,0,1,355.075,290.646Z" transform="translate(-349.9 -277.8)"/></g><g transform="translate(107.997 0.618)"><path class="b" d="M464.975,290.353h0v2.5a.879.879,0,0,1,.463.824.912.912,0,0,1-.257.669.861.861,0,0,1-.7.283.967.967,0,0,1-.953-.953.958.958,0,0,1,.463-.824v-1.545H449.811v4.711H445.1v-12.28a11.851,11.851,0,0,1,.18-2.343,3.081,3.081,0,0,1,.747-1.442,2.85,2.85,0,0,1,1.442-.747,11.609,11.609,0,0,1,2.343-.206h12.306a11.608,11.608,0,0,1,2.343.206,2.681,2.681,0,0,1,2.188,2.188,11.851,11.851,0,0,1,.18,2.343v12.28h-4.711v-2.832H452.051a.861.861,0,0,1-.8.463.9.9,0,0,1-.7-.283.912.912,0,0,1-.257-.669.972.972,0,0,1,.257-.7.932.932,0,0,1,.7-.257.917.917,0,0,1,.8.463h11.018v2.832H465.9V283.711a9.158,9.158,0,0,0-.154-1.879,2.26,2.26,0,0,0-.592-1.159,2.083,2.083,0,0,0-1.158-.592,9.09,9.09,0,0,0-1.879-.18H449.811a9.088,9.088,0,0,0-1.879.18,2.009,2.009,0,0,0-1.159.592,2.473,2.473,0,0,0-.592,1.159,9.158,9.158,0,0,0-.154,1.879v11.327h2.832v-4.711h16.116Zm-3.3-3.321h0a.917.917,0,0,1,.463-.8v-1.57a1.418,1.418,0,0,0-.154-.824,1.5,1.5,0,0,0-.8-.129h-10.4a3.13,3.13,0,0,0-.541.026.725.725,0,0,0-.283.1.41.41,0,0,0-.1.309,2.654,2.654,0,0,0-.052.515v3.784H464v-4.711a8.928,8.928,0,0,0-.051-.978.848.848,0,0,0-.257-.592,1.057,1.057,0,0,0-.566-.257,9.759,9.759,0,0,0-.978-.052H449.837a9.329,9.329,0,0,0-.978.052,1.149,1.149,0,0,0-.592.257,1.257,1.257,0,0,0-.257.592,5.31,5.31,0,0,0-.052.978v9.113a.928.928,0,0,1,.463.824.912.912,0,0,1-.257.669.9.9,0,0,1-.7.283.842.842,0,0,1-.669-.283.935.935,0,0,1-.283-.669.958.958,0,0,1,.463-.824v-9.113a10.438,10.438,0,0,1,.1-1.442,1.575,1.575,0,0,1,.438-.875,1.9,1.9,0,0,1,.85-.438,7.363,7.363,0,0,1,1.442-.1h12.306a10.769,10.769,0,0,1,1.442.1,1.42,1.42,0,0,1,.85.438,1.761,1.761,0,0,1,.438.875,7.362,7.362,0,0,1,.1,1.442V289.4H448.884v-5.664a.835.835,0,0,1,.953-.953h12.306a.845.845,0,0,1,.953.953v2.5a.95.95,0,0,1,.18,1.493.912.912,0,0,1-.669.257.873.873,0,0,1-.669-.257A.972.972,0,0,1,461.679,287.032Z" transform="translate(-445.1 -279)"/></g><g transform="translate(131.759)"><path class="b" d="M554.082,287.1h0a.912.912,0,0,1,.257-.669.951.951,0,0,1,.7-.283.967.967,0,0,1,.953.953c0,.1-.026.18-.026.232l4.171,4.171-3.347,3.347-6.745-6.745h-2.549l-6.745,6.745-3.347-3.347,5.792-5.792-5.792-5.792,3.347-3.321,4.4,4.428a.572.572,0,0,1,.232-.026.912.912,0,0,1,.669.257.9.9,0,0,1,.283.7.842.842,0,0,1-.283.669.935.935,0,0,1-.669.283.9.9,0,0,1-.7-.283.912.912,0,0,1-.257-.669.646.646,0,0,1,.026-.257l-3.733-3.759-2.008,2.008,5.792,5.792-5.792,5.792,2.008,2.008,6.359-6.385h3.3l6.385,6.385,2.008-2.008-3.5-3.5a.647.647,0,0,1-.257.026.972.972,0,0,1-.7-.257A1.078,1.078,0,0,1,554.082,287.1Zm1.751-7.157h0a.967.967,0,0,1,.953-.953.9.9,0,0,1,.7.283.935.935,0,0,1,.283.669,1,1,0,0,1-.283.7.972.972,0,0,1-.7.257.717.717,0,0,1-.257-.026L551.2,286.2h-4.531l-5.072,5.123a.514.514,0,0,1,.077.206.967.967,0,0,1-.978.978.981.981,0,0,1-.669-.283.951.951,0,0,1-.283-.7.981.981,0,0,1,.283-.669.935.935,0,0,1,.669-.283,1.132,1.132,0,0,1,.257.052l5.381-5.406h4.454l5.072-5.046C555.859,280.127,555.833,280.05,555.833,279.947Zm0,11.559h0c0-.1.026-.18.026-.232l-4.2-4.222,7.131-7.105-2.008-2.008-6.385,6.385h-5.973l-3.45-3.45a.639.639,0,0,1-.232.026.972.972,0,0,1-.7-.257.994.994,0,0,1-.283-.7.935.935,0,0,1,.283-.669,1,1,0,0,1,.7-.283.842.842,0,0,1,.669.283.935.935,0,0,1,.283.669.232.232,0,0,1-.026.129c0,.051-.026.077-.026.129l3.192,3.167h5.2l6.745-6.745,3.347,3.321L553,287.078l3.527,3.553a.509.509,0,0,1,.257-.052.994.994,0,0,1,.7.283.935.935,0,0,1,.283.669.967.967,0,0,1-.978.978.935.935,0,0,1-.669-.283A1.107,1.107,0,0,1,555.833,291.506Z" transform="translate(-537.4 -276.6)"/></g><g transform="translate(0 0.618)"><path class="b" d="M25.6,279h4.737v17.017H25.6Zm3.784.953H26.553V295.09h2.832Zm-2.368,13.7h0a1.019,1.019,0,0,1,.463-.824V282.167a.928.928,0,0,1-.463-.824.9.9,0,0,1,.283-.7.935.935,0,0,1,.669-.283,1,1,0,0,1,.7.283.932.932,0,0,1,.257.7.958.958,0,0,1-.463.824v10.658a.928.928,0,0,1,.463.824.912.912,0,0,1-.257.669.861.861,0,0,1-.7.283.842.842,0,0,1-.669-.283A.893.893,0,0,1,27.016,293.648Z" transform="translate(-25.6 -279)"/></g><g transform="translate(7.801 0.489)"><path class="b" d="M57.316,293.406h0a.917.917,0,0,1,.463-.8V280.637H61.9l12.28,12.28h2.755V279.684H75.98v12.28H74.59l-12.306-12.28H56.853v15.138h2.832V282.516h1.39l12.331,12.306h5.432V280.276a.9.9,0,0,1-.463-.824.888.888,0,0,1,.953-.953.912.912,0,0,1,.669.257.977.977,0,0,1-.18,1.519v15.5H73.046L60.791,283.469h-.129v12.306H55.9V278.757h6.745l12.28,12.28h.1v-12.28H77.86V293.9H73.766L61.461,281.589H58.732v11.019a.861.861,0,0,1,.463.8.972.972,0,0,1-.257.7.951.951,0,0,1-.7.283.935.935,0,0,1-.669-.283A1.015,1.015,0,0,1,57.316,293.406Z" transform="translate(-55.9 -278.5)"/></g><g transform="translate(34.497 0.309)"><path class="b" d="M164.8,290.646h0a.888.888,0,0,1,.953-.953.917.917,0,0,1,.8.463h9.113c.206,0,.386-.026.515-.026a.484.484,0,0,0,.283-.129.419.419,0,0,0,.129-.283,2.964,2.964,0,0,0,.026-.515v-5.689c0-.463-.051-.721-.154-.824a1.5,1.5,0,0,0-.8-.129H164.337v9.448h12.28a4.824,4.824,0,0,0,.978-.077,1.057,1.057,0,0,0,.566-.257.785.785,0,0,0,.257-.566,5,5,0,0,0,.077-.978v-7.569a5.3,5.3,0,0,0-.077-1,.961.961,0,0,0-.257-.592,1.057,1.057,0,0,0-.566-.257,5.313,5.313,0,0,0-.978-.051H162.432v14.159H159.6V277.8h17.017a11.609,11.609,0,0,1,2.343.206,3.082,3.082,0,0,1,1.442.747,3.194,3.194,0,0,1,.747,1.442,11.425,11.425,0,0,1,.206,2.343v7.569a11.608,11.608,0,0,1-.206,2.343,3.44,3.44,0,0,1-.747,1.467,3.054,3.054,0,0,1-1.442.721,11.851,11.851,0,0,1-2.343.18H164.672a.928.928,0,0,1-.824.463.953.953,0,0,1-.669-.257,1,1,0,0,1-.283-.7.935.935,0,0,1,.283-.669.981.981,0,0,1,.669-.283.928.928,0,0,1,.824.463h11.945a9.333,9.333,0,0,0,1.879-.154,2.45,2.45,0,0,0,1.158-.566,2.236,2.236,0,0,0,.566-1.159,9.331,9.331,0,0,0,.154-1.879v-7.569a9.157,9.157,0,0,0-.154-1.879,2.45,2.45,0,0,0-.566-1.159,1.908,1.908,0,0,0-1.158-.566,9.091,9.091,0,0,0-1.879-.18H160.553v15.138h.953V279.679h15.138a10.769,10.769,0,0,1,1.442.1,1.419,1.419,0,0,1,.85.438,1.761,1.761,0,0,1,.438.875,7.361,7.361,0,0,1,.1,1.442v7.569a7.361,7.361,0,0,1-.1,1.442,1.359,1.359,0,0,1-.438.85,1.573,1.573,0,0,1-.85.438,10.443,10.443,0,0,1-1.442.1H163.41V281.61h13.233a.845.845,0,0,1,.953.953v7.569a.856.856,0,0,1-.953.953H166.577a.917.917,0,0,1-.8.463.9.9,0,0,1-.7-.283A.747.747,0,0,1,164.8,290.646Z" transform="translate(-159.6 -277.8)"/></g><g transform="translate(83.489 0.309)"><path class="b" d="M355.075,290.646h0a.888.888,0,0,1,.953-.953.888.888,0,0,1,.8.463h9.139c.206,0,.386-.026.515-.026a.443.443,0,0,0,.412-.412,2.968,2.968,0,0,0,.026-.515v-5.689c0-.463-.051-.721-.154-.824a1.429,1.429,0,0,0-.8-.129H354.637v9.448h12.28a4.825,4.825,0,0,0,.978-.077,1.057,1.057,0,0,0,.566-.257.916.916,0,0,0,.283-.566,9.33,9.33,0,0,0,.051-.978v-7.569a9.892,9.892,0,0,0-.051-1,1.161,1.161,0,0,0-.283-.592,1.057,1.057,0,0,0-.566-.257,5.313,5.313,0,0,0-.978-.051H352.732v14.159H349.9V277.8h17.017a11.609,11.609,0,0,1,2.343.206,3.082,3.082,0,0,1,1.442.747,2.962,2.962,0,0,1,.747,1.442,11.427,11.427,0,0,1,.206,2.343v7.569a11.609,11.609,0,0,1-.206,2.343,3.176,3.176,0,0,1-.747,1.467,3.054,3.054,0,0,1-1.442.721,11.85,11.85,0,0,1-2.343.18H354.972a.917.917,0,0,1-.8.463.888.888,0,0,1-.953-.953.912.912,0,0,1,.257-.669,1,1,0,0,1,.7-.283.917.917,0,0,1,.8.463h11.945a9.158,9.158,0,0,0,1.879-.154,2.45,2.45,0,0,0,1.159-.566,1.908,1.908,0,0,0,.566-1.159,9.091,9.091,0,0,0,.18-1.879v-7.569a7.465,7.465,0,0,0-.18-1.879,2.058,2.058,0,0,0-.566-1.159,1.908,1.908,0,0,0-1.159-.566,8.9,8.9,0,0,0-1.879-.18H350.853v15.138h.953V279.679h15.138a10.444,10.444,0,0,1,1.442.1,1.575,1.575,0,0,1,.875.438,1.739,1.739,0,0,1,.412.875,7.358,7.358,0,0,1,.1,1.442v7.569a7.357,7.357,0,0,1-.1,1.442,1.335,1.335,0,0,1-.412.85,1.761,1.761,0,0,1-.875.438,10.133,10.133,0,0,1-1.442.1H353.71V281.61h13.233a.845.845,0,0,1,.953.953v7.569a.856.856,0,0,1-.953.953H356.877a.95.95,0,0,1-1.493.18A.65.65,0,0,1,355.075,290.646Z" transform="translate(-349.9 -277.8)"/></g><g transform="translate(107.997 0.618)"><path class="b" d="M464.975,290.353h0v2.5a.879.879,0,0,1,.463.824.912.912,0,0,1-.257.669.861.861,0,0,1-.7.283.967.967,0,0,1-.953-.953.958.958,0,0,1,.463-.824v-1.545H449.811v4.711H445.1v-12.28a11.851,11.851,0,0,1,.18-2.343,3.081,3.081,0,0,1,.747-1.442,2.85,2.85,0,0,1,1.442-.747,11.609,11.609,0,0,1,2.343-.206h12.306a11.608,11.608,0,0,1,2.343.206,2.681,2.681,0,0,1,2.188,2.188,11.851,11.851,0,0,1,.18,2.343v12.28h-4.711v-2.832H452.051a.861.861,0,0,1-.8.463.9.9,0,0,1-.7-.283.912.912,0,0,1-.257-.669.972.972,0,0,1,.257-.7.932.932,0,0,1,.7-.257.917.917,0,0,1,.8.463h11.018v2.832H465.9V283.711a9.158,9.158,0,0,0-.154-1.879,2.26,2.26,0,0,0-.592-1.159,2.083,2.083,0,0,0-1.158-.592,9.09,9.09,0,0,0-1.879-.18H449.811a9.088,9.088,0,0,0-1.879.18,2.009,2.009,0,0,0-1.159.592,2.473,2.473,0,0,0-.592,1.159,9.158,9.158,0,0,0-.154,1.879v11.327h2.832v-4.711h16.116Zm-3.3-3.321h0a.917.917,0,0,1,.463-.8v-1.57a1.418,1.418,0,0,0-.154-.824,1.5,1.5,0,0,0-.8-.129h-10.4a3.13,3.13,0,0,0-.541.026.725.725,0,0,0-.283.1.41.41,0,0,0-.1.309,2.654,2.654,0,0,0-.052.515v3.784H464v-4.711a8.928,8.928,0,0,0-.051-.978.848.848,0,0,0-.257-.592,1.057,1.057,0,0,0-.566-.257,9.759,9.759,0,0,0-.978-.052H449.837a9.329,9.329,0,0,0-.978.052,1.149,1.149,0,0,0-.592.257,1.257,1.257,0,0,0-.257.592,5.31,5.31,0,0,0-.052.978v9.113a.928.928,0,0,1,.463.824.912.912,0,0,1-.257.669.9.9,0,0,1-.7.283.842.842,0,0,1-.669-.283.935.935,0,0,1-.283-.669.958.958,0,0,1,.463-.824v-9.113a10.438,10.438,0,0,1,.1-1.442,1.575,1.575,0,0,1,.438-.875,1.9,1.9,0,0,1,.85-.438,7.363,7.363,0,0,1,1.442-.1h12.306a10.769,10.769,0,0,1,1.442.1,1.42,1.42,0,0,1,.85.438,1.761,1.761,0,0,1,.438.875,7.362,7.362,0,0,1,.1,1.442V289.4H448.884v-5.664a.835.835,0,0,1,.953-.953h12.306a.845.845,0,0,1,.953.953v2.5a.95.95,0,0,1,.18,1.493.912.912,0,0,1-.669.257.873.873,0,0,1-.669-.257A.972.972,0,0,1,461.679,287.032Z" transform="translate(-445.1 -279)"/></g><g transform="translate(131.759)"><path class="b" d="M554.082,287.1h0a.912.912,0,0,1,.257-.669.951.951,0,0,1,.7-.283.967.967,0,0,1,.953.953c0,.1-.026.18-.026.232l4.171,4.171-3.347,3.347-6.745-6.745h-2.549l-6.745,6.745-3.347-3.347,5.792-5.792-5.792-5.792,3.347-3.321,4.4,4.428a.572.572,0,0,1,.232-.026.912.912,0,0,1,.669.257.9.9,0,0,1,.283.7.842.842,0,0,1-.283.669.935.935,0,0,1-.669.283.9.9,0,0,1-.7-.283.912.912,0,0,1-.257-.669.646.646,0,0,1,.026-.257l-3.733-3.759-2.008,2.008,5.792,5.792-5.792,5.792,2.008,2.008,6.359-6.385h3.3l6.385,6.385,2.008-2.008-3.5-3.5a.647.647,0,0,1-.257.026.972.972,0,0,1-.7-.257A1.078,1.078,0,0,1,554.082,287.1Zm1.751-7.157h0a.967.967,0,0,1,.953-.953.9.9,0,0,1,.7.283.935.935,0,0,1,.283.669,1,1,0,0,1-.283.7.972.972,0,0,1-.7.257.717.717,0,0,1-.257-.026L551.2,286.2h-4.531l-5.072,5.123a.514.514,0,0,1,.077.206.967.967,0,0,1-.978.978.981.981,0,0,1-.669-.283.951.951,0,0,1-.283-.7.981.981,0,0,1,.283-.669.935.935,0,0,1,.669-.283,1.132,1.132,0,0,1,.257.052l5.381-5.406h4.454l5.072-5.046C555.859,280.127,555.833,280.05,555.833,279.947Zm0,11.559h0c0-.1.026-.18.026-.232l-4.2-4.222,7.131-7.105-2.008-2.008-6.385,6.385h-5.973l-3.45-3.45a.639.639,0,0,1-.232.026.972.972,0,0,1-.7-.257.994.994,0,0,1-.283-.7.935.935,0,0,1,.283-.669,1,1,0,0,1,.7-.283.842.842,0,0,1,.669.283.935.935,0,0,1,.283.669.232.232,0,0,1-.026.129c0,.051-.026.077-.026.129l3.192,3.167h5.2l6.745-6.745,3.347,3.321L553,287.078l3.527,3.553a.509.509,0,0,1,.257-.052.994.994,0,0,1,.7.283.935.935,0,0,1,.283.669.967.967,0,0,1-.978.978.935.935,0,0,1-.669-.283A1.107,1.107,0,0,1,555.833,291.506Z" transform="translate(-537.4 -276.6)"/></g><g transform="translate(58.98 0.412)"><path class="b" d="M276.4,283.478h0l-5.252-5.278H259.72l-5.02,5.123v7.44l4.969,4.66,11.2-.129,3.527-5.226v-5.792l-4.068-4.068-9.783-.026-3.836,4.119.129,5.689,3.707,3.4,9.268-.026,2.626-4.145V285.1l-2.909-2.909h-8.109l-2.574,2.909.18,4.068,2.471,2.265,6.05-.051a.9.9,0,0,0,.824.489.973.973,0,0,0,.978-.953.973.973,0,0,0-1.879-.36l-5.561.052-1.957-1.828-.077-3.27,1.982-2.343,7.286.026,2.317,2.317v3.45l-2.24,3.372-8.135.052-3.115-2.806-.206-4.917,3.244-3.5h8.959l3.475,3.5-.051,4.814-2.935,4.711-10.272.18-4.376-4.068v-6.591l4.4-4.531,10.607.026,4.66,4.66-.129,6.513-2.008,3.089h-.026a.966.966,0,0,0,0,1.931.978.978,0,0,0,.978-.978.908.908,0,0,0-.077-.36l2.137-3.27Z" transform="translate(-254.7 -278.2)"/></g></g></g></svg>