<svg xmlns="http://www.w3.org/2000/svg" width="110.466" height="32.38" viewBox="0 0 110.466 32.38"><defs><style>.a{fill:#0093dd;}.a,.b{fill-rule:evenodd;}.b{fill:#68b92e;}.c{fill:#72706f;stroke:#72706f;stroke-width:0.052px;}</style></defs><g transform="translate(0 0)"><path class="a" d="M9.336,16.177l9.58,9.582,6.047-6.047A2.735,2.735,0,0,1,28.83,23.58L20.85,31.561a2.753,2.753,0,0,1-3.868,0L5.47,20.048v6.845a2.735,2.735,0,1,1-5.47,0V5.463a2.735,2.735,0,0,1,5.47,0v6.845L16.982.794a2.753,2.753,0,0,1,3.868,0L28.83,8.774a2.735,2.735,0,0,1-3.868,3.868L18.916,6.6l-9.58,9.582Zm9.584-2.738a2.738,2.738,0,1,1-2.738,2.738A2.738,2.738,0,0,1,18.92,13.439Z" transform="translate(0 0)"/><g transform="translate(39.44)"><path class="b" d="M23,0A1.4,1.4,0,0,0,21.61,1.393V18.2a1.393,1.393,0,1,0,2.787,0V1.393A1.4,1.4,0,0,0,23,0ZM33.831.406a1.4,1.4,0,0,0-1.97,0L25.627,6.639a1.346,1.346,0,0,0-.2,1.537l6.2,10.718A1.394,1.394,0,0,0,34.052,17.5L28.424,7.783l5.406-5.407a1.4,1.4,0,0,0,0-1.97Z" transform="translate(-21.61 0)"/><path class="b" d="M31.02,3.1a1.4,1.4,0,0,0-1.393,1.393v7.351a5.189,5.189,0,0,0,5.187,5.187h4.369a1.406,1.406,0,0,0,1.393-1.393V4.5a1.393,1.393,0,0,0-2.787,0v9.75H34.813a2.4,2.4,0,0,1-2.4-2.4V4.5A1.4,1.4,0,0,0,31.02,3.1Z" transform="translate(-14.995 2.56)"/><path class="b" d="M48.972,1.393A1.4,1.4,0,0,0,47.579,0H42.293a5.188,5.188,0,0,0-5.187,5.187V14.4a5.188,5.188,0,0,0,5.187,5.187h5.287a1.393,1.393,0,0,0,0-2.787H42.293a2.4,2.4,0,0,1-2.4-2.4V5.187a2.4,2.4,0,0,1,2.4-2.4h5.287a1.4,1.4,0,0,0,1.393-1.393Z" transform="translate(-8.823 0)"/><path class="b" d="M53.153,0a1.393,1.393,0,1,0,1.393,1.393A1.4,1.4,0,0,0,53.153,0Zm0,5.662a1.4,1.4,0,0,0-1.393,1.393V18.2a1.393,1.393,0,0,0,2.787,0V7.055a1.4,1.4,0,0,0-1.393-1.393Z" transform="translate(3.268 0)"/><path class="b" d="M64.067,17.032a1.4,1.4,0,0,0,1.394-1.393V8.288A5.188,5.188,0,0,0,60.274,3.1H55.905A1.406,1.406,0,0,0,54.512,4.5V15.639a1.393,1.393,0,0,0,2.787,0V5.889h2.975a2.4,2.4,0,0,1,2.4,2.4v7.35a1.4,1.4,0,0,0,1.393,1.393Z" transform="translate(5.539 2.559)"/><path class="b" d="M44.706,8.288A5.178,5.178,0,0,1,49.863,3.1h.347a5.17,5.17,0,0,1,5.132,5.186v3.558a5.17,5.17,0,0,1-5.132,5.186h-.347a5.176,5.176,0,0,1-5.157-5.186V8.288Zm7.85,0a2.4,2.4,0,0,0-2.4-2.4h-.273a2.4,2.4,0,0,0-2.395,2.4v3.558a2.4,2.4,0,0,0,2.395,2.4h.273a2.4,2.4,0,0,0,2.4-2.4Z" transform="translate(-2.552 2.559)"/></g><path class="c" d="M21.61,13.4h3.566v.348H23.567v5.74h-.348v-5.74H21.61V13.4Zm6.523,3.044a1.011,1.011,0,0,0-.257-.739.938.938,0,0,0-.7-.261.948.948,0,0,0-.687.261.981.981,0,0,0-.27.739v3.044h-.348V13.4h.348V15.6a1.888,1.888,0,0,1,.426-.344,1.011,1.011,0,0,1,.53-.152,1.381,1.381,0,0,1,.518.1,1.184,1.184,0,0,1,.413.274,1.3,1.3,0,0,1,.274.426,1.462,1.462,0,0,1,.1.552v3.044h-.348V16.448Zm2.087.87h.609a.948.948,0,0,0,.687-.261.871.871,0,0,0,.27-.652.912.912,0,0,0-.27-.713.986.986,0,0,0-.687-.243.975.975,0,0,0-.7.243.937.937,0,0,0-.257.713v1.783a1.01,1.01,0,0,0,.257.739.937.937,0,0,0,.7.261.964.964,0,0,0,.792-.383l.278.183a1.236,1.236,0,0,1-.461.4,1.311,1.311,0,0,1-.609.148,1.381,1.381,0,0,1-.517-.1,1.216,1.216,0,0,1-.413-.27,1.243,1.243,0,0,1-.274-.426,1.5,1.5,0,0,1-.1-.557v-1.74a1.441,1.441,0,0,1,.1-.544,1.3,1.3,0,0,1,.274-.426,1.238,1.238,0,0,1,.413-.278,1.327,1.327,0,0,1,.517-.1,1.274,1.274,0,0,1,.5.1,1.3,1.3,0,0,1,.413.278,1.317,1.317,0,0,1,.283.426,1.386,1.386,0,0,1,.1.544,1.1,1.1,0,0,1-.1.474,1.244,1.244,0,0,1-.283.387,1.352,1.352,0,0,1-.413.261,1.325,1.325,0,0,1-.5.1H30.22Zm6.715-3.566v5.74h-.348V13.4h1.957a1.385,1.385,0,0,1,.557.113,1.453,1.453,0,0,1,.765.765,1.5,1.5,0,0,1,.113.6,1.284,1.284,0,0,1-.113.513,1.453,1.453,0,0,1-.765.765,1.385,1.385,0,0,1-.557.113H37.283v-.348h1.261a1.026,1.026,0,0,0,.422-.087,1.126,1.126,0,0,0,.578-.578.93.93,0,0,0,.087-.378,1.079,1.079,0,0,0-.322-.809,1.126,1.126,0,0,0-.343-.235,1.028,1.028,0,0,0-.422-.087H36.935ZM41.5,17.318h.609a.948.948,0,0,0,.687-.261.871.871,0,0,0,.27-.652.912.912,0,0,0-.27-.713.986.986,0,0,0-.687-.243.976.976,0,0,0-.7.243.937.937,0,0,0-.257.713v1.783a1.01,1.01,0,0,0,.257.739.938.938,0,0,0,.7.261.965.965,0,0,0,.792-.383l.278.183a1.236,1.236,0,0,1-.461.4,1.311,1.311,0,0,1-.609.148,1.381,1.381,0,0,1-.518-.1,1.216,1.216,0,0,1-.413-.27,1.24,1.24,0,0,1-.274-.426,1.5,1.5,0,0,1-.1-.557v-1.74a1.439,1.439,0,0,1,.1-.544,1.3,1.3,0,0,1,.274-.426,1.238,1.238,0,0,1,.413-.278,1.328,1.328,0,0,1,.518-.1,1.273,1.273,0,0,1,.5.1,1.3,1.3,0,0,1,.413.278,1.319,1.319,0,0,1,.283.426,1.388,1.388,0,0,1,.1.544,1.1,1.1,0,0,1-.1.474,1.246,1.246,0,0,1-.283.387,1.351,1.351,0,0,1-.413.261,1.324,1.324,0,0,1-.5.1H41.5Zm4.149,2.218a1.33,1.33,0,0,1-.518-.1,1.24,1.24,0,0,1-.413-.278,1.3,1.3,0,0,1-.274-.426,1.439,1.439,0,0,1-.1-.544v-1.74a1.464,1.464,0,0,1,.1-.552,1.3,1.3,0,0,1,.274-.426,1.186,1.186,0,0,1,.413-.274,1.382,1.382,0,0,1,.518-.1,1.324,1.324,0,0,1,.5.1,1.24,1.24,0,0,1,.413.274,1.32,1.32,0,0,1,.283.426,1.411,1.411,0,0,1,.1.552v1.74a1.388,1.388,0,0,1-.1.544,1.321,1.321,0,0,1-.283.426,1.3,1.3,0,0,1-.413.278A1.275,1.275,0,0,1,45.65,19.536Zm-.957-1.348a1.013,1.013,0,0,0,.257.735.929.929,0,0,0,.7.265.939.939,0,0,0,.687-.265.984.984,0,0,0,.27-.735v-1.74a.981.981,0,0,0-.27-.739.948.948,0,0,0-.687-.261.938.938,0,0,0-.7.261,1.01,1.01,0,0,0-.257.739v1.74Zm4.044.774a.95.95,0,0,0,.278.135,1.125,1.125,0,0,0,.33.048.948.948,0,0,0,.687-.261.981.981,0,0,0,.27-.739v-1.7a1.013,1.013,0,0,0-.257-.735.929.929,0,0,0-.7-.265.938.938,0,0,0-.687.265.984.984,0,0,0-.27.735v5.306h-.348v-6.61h.348V15.6a1.985,1.985,0,0,1,.426-.348.991.991,0,0,1,.53-.157,1.327,1.327,0,0,1,.518.1,1.237,1.237,0,0,1,.413.278,1.3,1.3,0,0,1,.274.426,1.437,1.437,0,0,1,.1.544v1.7a1.444,1.444,0,0,1-.1.557,1.26,1.26,0,0,1-.283.426,1.276,1.276,0,0,1-.413.27,1.324,1.324,0,0,1-.5.1,1.276,1.276,0,0,1-.609-.148v-.383Zm3-5.558h.348v4.827q0,.243,0,.409a1.343,1.343,0,0,0,.035.287.4.4,0,0,0,.1.191.283.283,0,0,0,.209.07v.348a.646.646,0,0,1-.383-.1.609.609,0,0,1-.209-.27,1.318,1.318,0,0,1-.087-.4q-.017-.231-.017-.535Zm2.3,3.914h.609a.948.948,0,0,0,.687-.261.871.871,0,0,0,.27-.652.912.912,0,0,0-.27-.713.986.986,0,0,0-.687-.243.976.976,0,0,0-.7.243.937.937,0,0,0-.257.713v1.783a1.01,1.01,0,0,0,.257.739.938.938,0,0,0,.7.261.964.964,0,0,0,.792-.383l.278.183a1.236,1.236,0,0,1-.461.4,1.311,1.311,0,0,1-.609.148,1.381,1.381,0,0,1-.518-.1,1.216,1.216,0,0,1-.413-.27,1.242,1.242,0,0,1-.274-.426,1.5,1.5,0,0,1-.1-.557v-1.74a1.439,1.439,0,0,1,.1-.544,1.3,1.3,0,0,1,.274-.426,1.237,1.237,0,0,1,.413-.278,1.328,1.328,0,0,1,.518-.1,1.273,1.273,0,0,1,.5.1,1.3,1.3,0,0,1,.413.278,1.319,1.319,0,0,1,.283.426,1.388,1.388,0,0,1,.1.544,1.1,1.1,0,0,1-.1.474,1.246,1.246,0,0,1-.283.387,1.351,1.351,0,0,1-.413.261,1.324,1.324,0,0,1-.5.1h-.609Zm2.948-3.975a.308.308,0,0,1-.061-.157.3.3,0,0,1,.026-.161.334.334,0,0,1,.1-.126.267.267,0,0,1,.165-.052.312.312,0,0,1,.3.3.749.749,0,0,1-.1.452,1.492,1.492,0,0,1-.326.322h-.174a.481.481,0,0,0,.17-.326A.529.529,0,0,0,56.992,13.343Zm2.47,3.636a1.743,1.743,0,0,1,.491.139,1.489,1.489,0,0,1,.4.261,1.15,1.15,0,0,1,.265.361,1.042,1.042,0,0,1,.1.448,1.388,1.388,0,0,1-.1.544,1.322,1.322,0,0,1-.283.426,1.3,1.3,0,0,1-.413.278,1.33,1.33,0,0,1-1.022,0,1.294,1.294,0,0,1-.413-.283,1.334,1.334,0,0,1-.274-.413,1.273,1.273,0,0,1-.1-.5h.348a.957.957,0,0,0,.257.687.921.921,0,0,0,.7.27.939.939,0,0,0,.687-.265.984.984,0,0,0,.27-.735.707.707,0,0,0-.27-.587,1.481,1.481,0,0,0-.687-.283,1.67,1.67,0,0,1-.439-.126,1.385,1.385,0,0,1-.357-.226,1.08,1.08,0,0,1-.244-.309.811.811,0,0,1-.091-.383,1.276,1.276,0,0,1,.087-.478,1.054,1.054,0,0,1,.243-.37,1.171,1.171,0,0,1,.361-.239,1.111,1.111,0,0,1,.439-.087,1.255,1.255,0,0,1,.661.178,1.289,1.289,0,0,1,.461.465l-.278.183a.867.867,0,0,0-.331-.348.977.977,0,0,0-.513-.13.757.757,0,0,0-.557.226.811.811,0,0,0-.226.6.494.494,0,0,0,.07.257.75.75,0,0,0,.187.209,1.1,1.1,0,0,0,.27.152,1.488,1.488,0,0,0,.309.087ZM65.107,13.4h2.957v.348H65.455v2.174h1.739v.348H65.455v2.87h2.609v.348H65.107V13.4Zm4.74,4.349-.783,1.74h-.391l.974-2.175-.974-2.174h.391l.783,1.74.783-1.74h.391l-.983,2.174.983,2.175H70.63l-.783-1.74Zm2.262.435a1.013,1.013,0,0,0,.257.735.929.929,0,0,0,.7.265,1.135,1.135,0,0,0,.444-.091.709.709,0,0,0,.339-.291l.278.183a1.318,1.318,0,0,1-.457.4,1.257,1.257,0,0,1-.6.152,1.329,1.329,0,0,1-.518-.1,1.239,1.239,0,0,1-.413-.278,1.3,1.3,0,0,1-.274-.426,1.439,1.439,0,0,1-.1-.544v-1.74a1.464,1.464,0,0,1,.1-.552,1.3,1.3,0,0,1,.274-.426,1.185,1.185,0,0,1,.413-.274,1.381,1.381,0,0,1,.518-.1,1.326,1.326,0,0,1,.6.143,1.193,1.193,0,0,1,.47.422l-.278.165a.6.6,0,0,0-.139-.17.8.8,0,0,0-.2-.122,1.017,1.017,0,0,0-.23-.07,1.3,1.3,0,0,0-.226-.022.938.938,0,0,0-.7.261,1.01,1.01,0,0,0-.257.739v1.74Zm5.262-1.74a1.011,1.011,0,0,0-.257-.739.938.938,0,0,0-.7-.261.948.948,0,0,0-.687.261.981.981,0,0,0-.27.739v3.044H75.11V13.4h.348V15.6a1.888,1.888,0,0,1,.426-.344,1.012,1.012,0,0,1,.53-.152,1.38,1.38,0,0,1,.518.1,1.184,1.184,0,0,1,.413.274,1.3,1.3,0,0,1,.274.426,1.462,1.462,0,0,1,.1.552v3.044h-.348V16.448ZM80.65,17.5a.955.955,0,0,0-.278-.135,1.125,1.125,0,0,0-.33-.048,1,1,0,0,0-.687.239.8.8,0,0,0-.27.631.984.984,0,0,0,.27.735.939.939,0,0,0,.687.265.929.929,0,0,0,.7-.265A1.013,1.013,0,0,0,81,18.188v-1.74a1.01,1.01,0,0,0-.257-.739.938.938,0,0,0-.7-.261.973.973,0,0,0-.8.383l-.278-.165a1.093,1.093,0,0,1,.457-.413,1.359,1.359,0,0,1,.622-.152,1.381,1.381,0,0,1,.517.1,1.185,1.185,0,0,1,.413.274,1.3,1.3,0,0,1,.274.426,1.466,1.466,0,0,1,.1.552v1.74q0,.218,0,.391a1.443,1.443,0,0,0,.035.3.384.384,0,0,0,.1.2.287.287,0,0,0,.2.07v.348a.6.6,0,0,1-.417-.126.707.707,0,0,1-.2-.335,1.3,1.3,0,0,1-.444.365,1.325,1.325,0,0,1-1.1.039,1.3,1.3,0,0,1-.413-.278,1.32,1.32,0,0,1-.283-.426,1.386,1.386,0,0,1-.1-.544,1.1,1.1,0,0,1,.1-.474,1.245,1.245,0,0,1,.283-.387,1.353,1.353,0,0,1,.413-.261,1.324,1.324,0,0,1,.5-.1,1.279,1.279,0,0,1,.609.148V17.5Zm1.914-2.357h.348V15.6a1.985,1.985,0,0,1,.426-.348.991.991,0,0,1,.53-.157,1.327,1.327,0,0,1,.518.1,1.235,1.235,0,0,1,.413.278,1.3,1.3,0,0,1,.274.426,1.438,1.438,0,0,1,.1.544v3.044h-.348V16.448a1.013,1.013,0,0,0-.257-.735.929.929,0,0,0-.7-.265.938.938,0,0,0-.687.265.984.984,0,0,0-.27.735v3.044h-.348V15.144Zm5,3.653a1.329,1.329,0,0,1-.518-.1,1.235,1.235,0,0,1-.413-.278,1.3,1.3,0,0,1-.274-.426,1.439,1.439,0,0,1-.1-.544v-1a1.464,1.464,0,0,1,.1-.552,1.3,1.3,0,0,1,.274-.426,1.182,1.182,0,0,1,.413-.274,1.38,1.38,0,0,1,.518-.1,1.266,1.266,0,0,1,.574.135,1.347,1.347,0,0,1,.452.361.621.621,0,0,1,.2-.339.671.671,0,0,1,.422-.113v.348a.284.284,0,0,0-.209.07.4.4,0,0,0-.1.191,1.4,1.4,0,0,0-.035.3q0,.178,0,.4v1a1.386,1.386,0,0,1-.1.544,1.317,1.317,0,0,1-.283.426,1.3,1.3,0,0,1-.413.278,1.276,1.276,0,0,1-.5.1Zm-.957-1.348a1.013,1.013,0,0,0,.257.735.929.929,0,0,0,.7.265.939.939,0,0,0,.687-.265.984.984,0,0,0,.27-.735v-1a.981.981,0,0,0-.27-.739.948.948,0,0,0-.687-.261.938.938,0,0,0-.7.261,1.01,1.01,0,0,0-.257.739Zm0,3a.985.985,0,0,0,1.657.691,1.013,1.013,0,0,0,.257-.735.893.893,0,0,0-.257-.652.937.937,0,0,0-.7-.261v-.348a1.278,1.278,0,0,1,.517.1,1.328,1.328,0,0,1,.413.278,1.313,1.313,0,0,1,.274.4,1.171,1.171,0,0,1,.1.478,1.442,1.442,0,0,1-.1.544,1.3,1.3,0,0,1-.274.426,1.239,1.239,0,0,1-.413.278,1.327,1.327,0,0,1-.517.1,1.229,1.229,0,0,1-.5-.1,1.358,1.358,0,0,1-.7-.7,1.227,1.227,0,0,1-.1-.5h.348ZM90.7,17.318h.609a.948.948,0,0,0,.687-.261.871.871,0,0,0,.27-.652.912.912,0,0,0-.27-.713.986.986,0,0,0-.687-.243.975.975,0,0,0-.7.243.937.937,0,0,0-.257.713v1.783a1.01,1.01,0,0,0,.257.739.937.937,0,0,0,.7.261.964.964,0,0,0,.792-.383l.278.183a1.236,1.236,0,0,1-.461.4,1.311,1.311,0,0,1-.609.148,1.382,1.382,0,0,1-.518-.1,1.217,1.217,0,0,1-.413-.27,1.241,1.241,0,0,1-.274-.426,1.5,1.5,0,0,1-.1-.557v-1.74a1.439,1.439,0,0,1,.1-.544,1.3,1.3,0,0,1,.274-.426,1.239,1.239,0,0,1,.413-.278,1.328,1.328,0,0,1,.518-.1,1.274,1.274,0,0,1,.5.1,1.3,1.3,0,0,1,.413.278,1.319,1.319,0,0,1,.283.426,1.386,1.386,0,0,1,.1.544,1.1,1.1,0,0,1-.1.474,1.246,1.246,0,0,1-.283.387,1.354,1.354,0,0,1-.413.261,1.325,1.325,0,0,1-.5.1H90.7Z" transform="translate(17.831 10.601)"/></g></svg>