<svg xmlns="http://www.w3.org/2000/svg" width="141.632" height="41.511" viewBox="0 0 141.632 41.511"><defs><style>.a{fill:#0093dd;}.a,.b{fill-rule:evenodd;}.b{fill:#68b92e;}.c{fill:#72706f;stroke:#72706f;stroke-width:0.052px;}</style></defs><g transform="translate(0)"><g transform="translate(0 0)"><path class="a" d="M11.97,20.742,24.254,33.028l7.753-7.753a3.507,3.507,0,0,1,4.96,4.959L26.734,40.467a3.53,3.53,0,0,1-4.959,0L7.014,25.7v8.776a3.507,3.507,0,1,1-7.014,0V7A3.507,3.507,0,0,1,7.014,7V15.78L21.774,1.018a3.53,3.53,0,0,1,4.959,0L36.966,11.25a3.507,3.507,0,1,1-4.96,4.959L24.254,8.457,11.97,20.743Zm12.289-3.51a3.51,3.51,0,1,1-3.51,3.51A3.511,3.511,0,0,1,24.259,17.232Z" transform="translate(0 0)"/><g transform="translate(50.57)"><path class="b" d="M23.4,0A1.8,1.8,0,0,0,21.61,1.787V23.333a1.787,1.787,0,1,0,3.573,0V1.786A1.8,1.8,0,0,0,23.4,0ZM37.28.52a1.8,1.8,0,0,0-2.526,0L26.761,8.513a1.725,1.725,0,0,0-.25,1.971l7.954,13.743a1.787,1.787,0,0,0,3.1-1.783L30.348,9.979,37.28,3.047a1.8,1.8,0,0,0,0-2.526Z" transform="translate(-21.61 0)"/><path class="b" d="M31.413,3.1a1.8,1.8,0,0,0-1.787,1.786v9.425a6.653,6.653,0,0,0,6.65,6.65h5.6a1.8,1.8,0,0,0,1.786-1.786V4.888a1.786,1.786,0,0,0-3.573,0v12.5H36.277A3.077,3.077,0,0,1,33.2,14.313V4.888A1.8,1.8,0,0,0,31.413,3.1Z" transform="translate(-10.866 4.157)"/><path class="b" d="M52.321,1.787A1.8,1.8,0,0,0,50.535,0H43.756a6.652,6.652,0,0,0-6.65,6.65V18.47a6.651,6.651,0,0,0,6.65,6.65h6.779a1.786,1.786,0,0,0,0-3.573H43.756a3.078,3.078,0,0,1-3.078-3.078V6.651a3.078,3.078,0,0,1,3.078-3.078h6.779a1.8,1.8,0,0,0,1.786-1.786Z" transform="translate(-0.842 0)"/><path class="b" d="M53.546,0a1.787,1.787,0,1,0,1.786,1.787A1.8,1.8,0,0,0,53.546,0Zm0,7.26a1.8,1.8,0,0,0-1.787,1.786V23.334a1.786,1.786,0,0,0,3.573,0V9.046A1.8,1.8,0,0,0,53.546,7.26Z" transform="translate(18.796 0)"/><path class="b" d="M66.763,20.963a1.8,1.8,0,0,0,1.787-1.786V9.752A6.651,6.651,0,0,0,61.9,3.1H56.3a1.8,1.8,0,0,0-1.786,1.786V19.177a1.786,1.786,0,0,0,3.573,0V6.675H61.9a3.078,3.078,0,0,1,3.078,3.078v9.424a1.8,1.8,0,0,0,1.786,1.786Z" transform="translate(22.485 4.157)"/><path class="b" d="M44.706,9.752A6.639,6.639,0,0,1,51.318,3.1h.445a6.629,6.629,0,0,1,6.58,6.65v4.562a6.629,6.629,0,0,1-6.58,6.649h-.445a6.636,6.636,0,0,1-6.613-6.65V9.752Zm10.065,0A3.076,3.076,0,0,0,51.7,6.674h-.351a3.076,3.076,0,0,0-3.07,3.078v4.562a3.076,3.076,0,0,0,3.07,3.077H51.7a3.076,3.076,0,0,0,3.071-3.077Z" transform="translate(9.343 4.157)"/></g><path class="c" d="M21.61,13.561h4.572v.446H24.119v7.36h-.446v-7.36H21.61v-.446Zm8.364,3.9a1.3,1.3,0,0,0-.329-.948,1.2,1.2,0,0,0-.9-.334,1.215,1.215,0,0,0-.881.334,1.258,1.258,0,0,0-.346.948v3.9h-.446V13.561h.446v2.81a2.42,2.42,0,0,1,.547-.441,1.3,1.3,0,0,1,.68-.2,1.771,1.771,0,0,1,.664.123,1.518,1.518,0,0,1,.53.351,1.664,1.664,0,0,1,.351.546,1.875,1.875,0,0,1,.128.708v3.9h-.446v-3.9Zm2.677,1.115h.781a1.215,1.215,0,0,0,.881-.334,1.117,1.117,0,0,0,.346-.836,1.17,1.17,0,0,0-.346-.914,1.265,1.265,0,0,0-.881-.312,1.251,1.251,0,0,0-.9.312,1.2,1.2,0,0,0-.329.914v2.286a1.3,1.3,0,0,0,.329.948,1.2,1.2,0,0,0,.9.335,1.236,1.236,0,0,0,1.015-.491l.357.234a1.584,1.584,0,0,1-.591.513,1.682,1.682,0,0,1-.781.19,1.77,1.77,0,0,1-.663-.123,1.56,1.56,0,0,1-.53-.346,1.594,1.594,0,0,1-.351-.547,1.921,1.921,0,0,1-.128-.714v-2.23a1.848,1.848,0,0,1,.128-.7,1.668,1.668,0,0,1,.351-.547,1.587,1.587,0,0,1,.53-.357,1.7,1.7,0,0,1,.663-.128,1.633,1.633,0,0,1,.647.128,1.663,1.663,0,0,1,.53.357,1.689,1.689,0,0,1,.362.547,1.777,1.777,0,0,1,.134.7,1.41,1.41,0,0,1-.134.608,1.6,1.6,0,0,1-.362.5,1.734,1.734,0,0,1-.53.334,1.7,1.7,0,0,1-.647.123H32.65Zm8.61-4.572v7.36h-.446V13.561h2.509a1.776,1.776,0,0,1,.714.145,1.863,1.863,0,0,1,.981.981,1.921,1.921,0,0,1,.145.77,1.646,1.646,0,0,1-.145.658,1.863,1.863,0,0,1-.981.981,1.776,1.776,0,0,1-.714.145H41.706V16.8h1.617a1.316,1.316,0,0,0,.541-.112,1.444,1.444,0,0,0,.742-.742,1.193,1.193,0,0,0,.112-.485A1.384,1.384,0,0,0,44.3,14.42a1.444,1.444,0,0,0-.44-.3,1.318,1.318,0,0,0-.541-.111H41.26Zm5.855,4.572H47.9a1.215,1.215,0,0,0,.881-.334,1.116,1.116,0,0,0,.346-.836,1.17,1.17,0,0,0-.346-.914,1.265,1.265,0,0,0-.881-.312,1.251,1.251,0,0,0-.9.312,1.2,1.2,0,0,0-.329.914v2.286a1.3,1.3,0,0,0,.329.948,1.2,1.2,0,0,0,.9.335,1.237,1.237,0,0,0,1.015-.491l.357.234a1.584,1.584,0,0,1-.591.513,1.681,1.681,0,0,1-.781.19,1.771,1.771,0,0,1-.664-.123,1.559,1.559,0,0,1-.53-.346,1.59,1.59,0,0,1-.351-.547,1.919,1.919,0,0,1-.128-.714v-2.23a1.845,1.845,0,0,1,.128-.7,1.664,1.664,0,0,1,.351-.547,1.587,1.587,0,0,1,.53-.357,1.7,1.7,0,0,1,.664-.128,1.633,1.633,0,0,1,.647.128,1.662,1.662,0,0,1,.53.357,1.691,1.691,0,0,1,.363.547,1.779,1.779,0,0,1,.134.7,1.411,1.411,0,0,1-.134.608,1.6,1.6,0,0,1-.363.5,1.733,1.733,0,0,1-.53.334,1.7,1.7,0,0,1-.647.123h-.781Zm5.32,2.844a1.705,1.705,0,0,1-.664-.128,1.59,1.59,0,0,1-.53-.357,1.667,1.667,0,0,1-.351-.547,1.846,1.846,0,0,1-.128-.7v-2.23a1.877,1.877,0,0,1,.128-.708,1.666,1.666,0,0,1,.351-.546,1.52,1.52,0,0,1,.53-.351,1.771,1.771,0,0,1,.664-.123,1.7,1.7,0,0,1,.647.123,1.589,1.589,0,0,1,.53.351,1.693,1.693,0,0,1,.362.546,1.81,1.81,0,0,1,.134.708v2.23a1.78,1.78,0,0,1-.134.7,1.694,1.694,0,0,1-.362.547,1.666,1.666,0,0,1-.53.357A1.634,1.634,0,0,1,52.434,21.423Zm-1.227-1.729a1.3,1.3,0,0,0,.329.942,1.191,1.191,0,0,0,.9.34,1.2,1.2,0,0,0,.881-.34,1.262,1.262,0,0,0,.346-.942v-2.23a1.258,1.258,0,0,0-.346-.948,1.216,1.216,0,0,0-.881-.334,1.2,1.2,0,0,0-.9.334,1.3,1.3,0,0,0-.329.948v2.23Zm5.186.992a1.218,1.218,0,0,0,.357.173,1.443,1.443,0,0,0,.424.061,1.215,1.215,0,0,0,.881-.335,1.258,1.258,0,0,0,.346-.948V17.464a1.3,1.3,0,0,0-.329-.942,1.191,1.191,0,0,0-.9-.34,1.2,1.2,0,0,0-.881.34,1.262,1.262,0,0,0-.346.942v6.8H55.5V15.792h.446v.591a2.545,2.545,0,0,1,.547-.446,1.27,1.27,0,0,1,.68-.2,1.7,1.7,0,0,1,.664.128,1.586,1.586,0,0,1,.53.357,1.664,1.664,0,0,1,.351.547,1.843,1.843,0,0,1,.128.7v2.175a1.851,1.851,0,0,1-.134.714,1.616,1.616,0,0,1-.362.546,1.636,1.636,0,0,1-.53.346,1.7,1.7,0,0,1-.647.123,1.636,1.636,0,0,1-.781-.19v-.491Zm3.848-7.126h.446v6.19q0,.312.006.524a1.722,1.722,0,0,0,.045.368.514.514,0,0,0,.128.245.363.363,0,0,0,.268.089v.446a.828.828,0,0,1-.491-.128.781.781,0,0,1-.268-.346,1.689,1.689,0,0,1-.112-.513q-.022-.3-.022-.686ZM63.2,18.579h.781a1.215,1.215,0,0,0,.881-.334,1.116,1.116,0,0,0,.346-.836,1.17,1.17,0,0,0-.346-.914,1.265,1.265,0,0,0-.881-.312,1.251,1.251,0,0,0-.9.312,1.2,1.2,0,0,0-.329.914v2.286a1.3,1.3,0,0,0,.329.948,1.2,1.2,0,0,0,.9.335,1.237,1.237,0,0,0,1.015-.491l.357.234a1.584,1.584,0,0,1-.591.513,1.681,1.681,0,0,1-.781.19,1.771,1.771,0,0,1-.664-.123,1.559,1.559,0,0,1-.53-.346,1.592,1.592,0,0,1-.351-.547,1.919,1.919,0,0,1-.128-.714v-2.23a1.845,1.845,0,0,1,.128-.7,1.666,1.666,0,0,1,.351-.547,1.587,1.587,0,0,1,.53-.357,1.7,1.7,0,0,1,.664-.128,1.632,1.632,0,0,1,.647.128,1.662,1.662,0,0,1,.53.357,1.691,1.691,0,0,1,.363.547,1.779,1.779,0,0,1,.134.7,1.411,1.411,0,0,1-.134.608,1.6,1.6,0,0,1-.363.5,1.733,1.733,0,0,1-.53.334,1.7,1.7,0,0,1-.647.123H63.2Zm3.781-5.1a.4.4,0,0,1-.078-.2.386.386,0,0,1,.033-.206.428.428,0,0,1,.134-.162.343.343,0,0,1,.212-.067.4.4,0,0,1,.39.39.96.96,0,0,1-.128.58,1.913,1.913,0,0,1-.418.413H66.9a.617.617,0,0,0,.217-.418A.679.679,0,0,0,66.977,13.483Zm3.167,4.662a2.234,2.234,0,0,1,.63.178,1.909,1.909,0,0,1,.513.335,1.474,1.474,0,0,1,.34.463,1.336,1.336,0,0,1,.123.574,1.779,1.779,0,0,1-.134.7,1.7,1.7,0,0,1-.363.547,1.666,1.666,0,0,1-.53.357,1.705,1.705,0,0,1-1.31-.006,1.659,1.659,0,0,1-.53-.363,1.711,1.711,0,0,1-.351-.53,1.633,1.633,0,0,1-.128-.647h.446a1.227,1.227,0,0,0,.329.881,1.18,1.18,0,0,0,.9.346,1.2,1.2,0,0,0,.881-.34,1.262,1.262,0,0,0,.346-.942.907.907,0,0,0-.346-.753,1.9,1.9,0,0,0-.881-.363,2.141,2.141,0,0,1-.563-.162,1.776,1.776,0,0,1-.457-.29,1.385,1.385,0,0,1-.312-.4,1.04,1.04,0,0,1-.117-.491,1.636,1.636,0,0,1,.112-.613,1.351,1.351,0,0,1,.312-.474,1.5,1.5,0,0,1,.463-.307,1.424,1.424,0,0,1,.563-.111,1.61,1.61,0,0,1,.848.229,1.653,1.653,0,0,1,.591.6l-.357.234a1.112,1.112,0,0,0-.424-.446,1.253,1.253,0,0,0-.658-.167.971.971,0,0,0-.714.29,1.04,1.04,0,0,0-.29.769.633.633,0,0,0,.089.329.962.962,0,0,0,.24.268,1.415,1.415,0,0,0,.346.2,1.908,1.908,0,0,0,.4.112Zm7.238-4.584h3.792v.446H77.828V16.8h2.23v.446h-2.23v3.68h3.346v.446H77.382V13.561Zm6.078,5.576-1,2.231h-.5L83.2,18.579l-1.249-2.788h.5l1,2.23,1-2.23h.5l-1.26,2.788,1.26,2.788h-.5l-1-2.231Zm2.9.558a1.3,1.3,0,0,0,.329.942,1.191,1.191,0,0,0,.9.34,1.455,1.455,0,0,0,.569-.117.908.908,0,0,0,.435-.374l.357.234a1.69,1.69,0,0,1-.585.508,1.611,1.611,0,0,1-.775.195,1.7,1.7,0,0,1-.664-.128,1.589,1.589,0,0,1-.53-.357,1.666,1.666,0,0,1-.351-.547,1.846,1.846,0,0,1-.128-.7v-2.23a1.877,1.877,0,0,1,.128-.708,1.664,1.664,0,0,1,.351-.546,1.519,1.519,0,0,1,.53-.351,1.771,1.771,0,0,1,.664-.123,1.7,1.7,0,0,1,.77.184,1.529,1.529,0,0,1,.6.541l-.357.212a.766.766,0,0,0-.178-.217,1.019,1.019,0,0,0-.251-.156,1.3,1.3,0,0,0-.3-.089,1.664,1.664,0,0,0-.29-.028,1.2,1.2,0,0,0-.9.334,1.3,1.3,0,0,0-.329.948v2.23Zm6.747-2.23a1.3,1.3,0,0,0-.329-.948,1.2,1.2,0,0,0-.9-.334,1.215,1.215,0,0,0-.881.334,1.258,1.258,0,0,0-.346.948v3.9h-.446V13.561h.446v2.81a2.42,2.42,0,0,1,.547-.441,1.3,1.3,0,0,1,.68-.2,1.77,1.77,0,0,1,.664.123,1.518,1.518,0,0,1,.53.351,1.663,1.663,0,0,1,.351.546,1.875,1.875,0,0,1,.128.708v3.9h-.446v-3.9Zm4.2,1.349a1.224,1.224,0,0,0-.357-.173,1.443,1.443,0,0,0-.424-.061,1.278,1.278,0,0,0-.881.307,1.029,1.029,0,0,0-.346.809,1.262,1.262,0,0,0,.346.942,1.2,1.2,0,0,0,.881.34,1.191,1.191,0,0,0,.9-.34,1.3,1.3,0,0,0,.329-.942v-2.23a1.3,1.3,0,0,0-.329-.948,1.2,1.2,0,0,0-.9-.334,1.248,1.248,0,0,0-1.026.491l-.357-.212a1.4,1.4,0,0,1,.585-.53,1.743,1.743,0,0,1,.8-.2,1.77,1.77,0,0,1,.663.123,1.52,1.52,0,0,1,.53.351,1.666,1.666,0,0,1,.351.546,1.879,1.879,0,0,1,.128.708v2.23q0,.279.006.5a1.851,1.851,0,0,0,.045.385.493.493,0,0,0,.134.251.368.368,0,0,0,.262.089v.446a.774.774,0,0,1-.535-.162.906.906,0,0,1-.257-.429,1.671,1.671,0,0,1-.569.468,1.7,1.7,0,0,1-1.405.05,1.667,1.667,0,0,1-.53-.357,1.692,1.692,0,0,1-.362-.547,1.777,1.777,0,0,1-.134-.7,1.409,1.409,0,0,1,.134-.608,1.6,1.6,0,0,1,.362-.5,1.734,1.734,0,0,1,.53-.335,1.7,1.7,0,0,1,.647-.123,1.639,1.639,0,0,1,.781.19v.491Zm2.454-3.022h.446v.591a2.545,2.545,0,0,1,.547-.446,1.27,1.27,0,0,1,.68-.2,1.7,1.7,0,0,1,.664.128,1.583,1.583,0,0,1,.53.357,1.662,1.662,0,0,1,.351.547,1.843,1.843,0,0,1,.128.7v3.9h-.446v-3.9a1.3,1.3,0,0,0-.329-.942,1.191,1.191,0,0,0-.9-.34,1.2,1.2,0,0,0-.881.34,1.262,1.262,0,0,0-.346.942v3.9h-.446V15.792Zm6.413,4.684a1.7,1.7,0,0,1-.664-.128,1.584,1.584,0,0,1-.53-.357,1.661,1.661,0,0,1-.351-.546,1.845,1.845,0,0,1-.128-.7V17.464a1.877,1.877,0,0,1,.128-.708,1.664,1.664,0,0,1,.351-.546,1.516,1.516,0,0,1,.53-.351,1.77,1.77,0,0,1,.664-.123,1.623,1.623,0,0,1,.736.173,1.727,1.727,0,0,1,.58.463.8.8,0,0,1,.262-.435.861.861,0,0,1,.541-.145v.446a.364.364,0,0,0-.268.089.514.514,0,0,0-.128.245,1.79,1.79,0,0,0-.045.385q-.005.229-.006.507v1.283a1.777,1.777,0,0,1-.134.7,1.688,1.688,0,0,1-.362.546,1.666,1.666,0,0,1-.53.357,1.635,1.635,0,0,1-.647.128Zm-1.227-1.729a1.3,1.3,0,0,0,.329.942,1.191,1.191,0,0,0,.9.34,1.2,1.2,0,0,0,.881-.34,1.262,1.262,0,0,0,.346-.942V17.464a1.258,1.258,0,0,0-.346-.948,1.215,1.215,0,0,0-.881-.334,1.2,1.2,0,0,0-.9.334,1.3,1.3,0,0,0-.329.948Zm0,3.848a1.262,1.262,0,0,0,2.124.887,1.3,1.3,0,0,0,.329-.942,1.145,1.145,0,0,0-.329-.836,1.2,1.2,0,0,0-.9-.334v-.446a1.639,1.639,0,0,1,.663.134,1.7,1.7,0,0,1,.53.357,1.683,1.683,0,0,1,.351.513,1.5,1.5,0,0,1,.128.613,1.848,1.848,0,0,1-.128.7,1.669,1.669,0,0,1-.351.547,1.589,1.589,0,0,1-.53.357,1.7,1.7,0,0,1-.663.128,1.575,1.575,0,0,1-.647-.134,1.742,1.742,0,0,1-.892-.892,1.574,1.574,0,0,1-.134-.647h.446Zm5.242-4.015h.781a1.215,1.215,0,0,0,.881-.334,1.116,1.116,0,0,0,.346-.836,1.169,1.169,0,0,0-.346-.914,1.265,1.265,0,0,0-.881-.312,1.25,1.25,0,0,0-.9.312,1.2,1.2,0,0,0-.329.914v2.286a1.3,1.3,0,0,0,.329.948,1.2,1.2,0,0,0,.9.335,1.236,1.236,0,0,0,1.015-.491l.357.234a1.584,1.584,0,0,1-.591.513,1.681,1.681,0,0,1-.781.19,1.772,1.772,0,0,1-.664-.123,1.56,1.56,0,0,1-.53-.346,1.592,1.592,0,0,1-.351-.547,1.919,1.919,0,0,1-.128-.714v-2.23a1.845,1.845,0,0,1,.128-.7,1.666,1.666,0,0,1,.351-.547,1.588,1.588,0,0,1,.53-.357,1.7,1.7,0,0,1,.664-.128,1.633,1.633,0,0,1,.647.128,1.665,1.665,0,0,1,.53.357,1.691,1.691,0,0,1,.362.547,1.777,1.777,0,0,1,.134.7,1.41,1.41,0,0,1-.134.608,1.6,1.6,0,0,1-.362.5,1.736,1.736,0,0,1-.53.334,1.7,1.7,0,0,1-.647.123h-.781Z" transform="translate(28.961 17.218)"/></g></g></svg>