<svg xmlns="http://www.w3.org/2000/svg" width="152.684" height="36.333" viewBox="0 0 152.684 36.333"><defs><style>.a{fill:#fdfdfd;}.b{fill:#0096ac;}</style></defs><g transform="translate(0)"><path class="a" d="M1125.658-421.3c0-2.869-.005-5.738,0-8.606,0-1.208-.41-2.483,1.759-2.431,2.006.047,1.577,1.214,1.581,2.308.013,4.168.049,8.336-.032,12.5-.016.819.75,2.215-.818,2.39-1.357.152-2.758.4-3.684-1.389a65.292,65.292,0,0,0-6.245-9.747c0,3.073-.038,6.146.018,9.219.022,1.249-.1,2.017-1.7,2.021s-1.715-.738-1.7-2c.051-4.257-.03-8.517.059-12.773.017-.811-.787-2.255.789-2.39,1.3-.111,2.815-.643,3.772,1.177,1.76,3.352,3.758,6.578,5.656,9.857Z" transform="translate(-976.457 441.903)"/><path class="a" d="M1085.807-424.372c.25-2.315-1.224-6.022.555-7.6,1.542-1.37,5.172-.395,7.88-.444,1-.019,2,.06,2.993-.019,1.259-.1,1.5.5,1.488,1.615-.014,1.133-.346,1.65-1.562,1.607-1.994-.071-3.995.043-5.987-.04-1.236-.052-1.766.244-1.757,1.622.008,1.358.291,1.978,1.795,1.865,1.715-.128,3.45.037,5.169-.051,1.317-.067,1.463.614,1.455,1.67-.007.994-.263,1.508-1.379,1.469-1.813-.064-3.638.089-5.442-.047-1.785-.135-1.6.969-1.547,2.071s-.416,2.455,1.6,2.338c2.17-.125,4.355.011,6.531-.042,1.018-.024,1.5.278,1.473,1.369-.026.994-.063,1.787-1.4,1.769q-5.171-.069-10.343-.006c-1.182.014-1.577-.438-1.54-1.611C1085.86-419.2,1085.807-421.556,1085.807-424.372Z" transform="translate(-963.156 442.068)"/><path class="a" d="M1057.949-425.614c3.88-2.324,5.136-8.038,11.46-6.324-2.1,1.955-3.927,3.769-5.881,5.434-1.161.989-1.123,1.709-.2,2.869,2.089,2.609,4.015,5.348,6.187,8.277-2.549.486-4.641.777-6.1-1.893a51.648,51.648,0,0,0-3.562-5.069c-2.682,1.085-1.879,3.335-1.891,5.211-.009,1.367-.1,2.121-1.836,2.107s-1.865-.818-1.849-2.174c.052-4.357.071-8.716-.007-13.072-.027-1.477.338-2.005,1.941-2.059,1.869-.063,1.789.908,1.743,2.168C1057.908-428.72,1057.949-427.3,1057.949-425.614Z" transform="translate(-948.965 441.886)"/><path class="a" d="M996.839-422.376q0-1.222,0-2.445c0-3.78.006-3.857-3.739-4.154-1.3-.1-1.4-.7-1.448-1.724-.058-1.187.361-1.548,1.539-1.527q5.57.1,11.141,0c1.255-.022,1.521.512,1.489,1.622s-.349,1.729-1.577,1.6c-.538-.057-1.1.058-1.628-.025-1.667-.259-2.172.375-2.1,2.067.139,3.436-.027,6.883.074,10.322.042,1.4-.518,1.684-1.742,1.636-1.166-.045-2.157.023-2.042-1.669C996.935-418.566,996.836-420.475,996.839-422.376Z" transform="translate(-920.477 441.849)"/><path class="a" d="M939.26-423.828c0-2.267.1-4.539-.031-6.8-.1-1.727.925-1.543,2.055-1.624,1.3-.094,1.725.3,1.689,1.643-.094,3.534.021,7.073-.058,10.607-.03,1.363.292,1.986,1.791,1.88,1.714-.122,3.446.011,5.166-.042,1.112-.035,1.863,0,1.835,1.516-.027,1.394-.573,1.652-1.791,1.628q-4.486-.091-8.976.011c-1.318.032-1.746-.463-1.7-1.75C939.314-419.112,939.258-421.471,939.26-423.828Z" transform="translate(-896.626 441.865)"/><g transform="translate(86.1 9.193)"><path class="a" d="M1026.78-433.012c-4.6.056-7.72,3.656-7.747,8.947-.03,5.632,3.206,9.173,8.375,9.168,5.078,0,8.291-3.453,8.35-8.961C1035.82-429.64,1032.446-433.081,1026.78-433.012Zm4.076,13.406a4.414,4.414,0,0,1-4.91,1.434c-2.614-.951-3.193-3.213-3.2-6.2a6.833,6.833,0,0,1,.673-3.213c.88-1.755,2.418-2.285,4.26-2.34a3.813,3.813,0,0,1,3.671,2.308C1032.565-425.34,1032.347-421.214,1030.856-419.606Z" transform="translate(-1019.033 433.013)"/></g><g transform="translate(56.141 9.59)"><path class="a" d="M979.584-417.166c-1.507-4.439-3.179-8.822-4.675-13.264-.484-1.436-1.175-2.142-2.7-1.739-1.682-.435-2.347.388-2.863,1.923-1.436,4.272-3.1,8.467-4.589,12.722-.247.7-1.114,1.655-.422,2.179.592.448,1.717.231,2.607.235,1.163.006,1.015-1.1,1.348-1.757.311-.612.185-1.616,1.1-1.67a28.611,28.611,0,0,1,5.416.028c1.147.153.886,1.588,1.256,2.441.8,1.846,2.443,1.081,3.541.867C980.841-415.441,979.786-416.572,979.584-417.166Zm-5.954-4.474a14.038,14.038,0,0,1-3.217-.058c-.561-.085-.325-.708-.179-1.124.555-1.592,1.114-3.182,1.755-5.01,1.181,1.689,1.369,3.506,1.989,5.147C974.154-422.222,974.223-421.689,973.631-421.64Z" transform="translate(-964.071 432.284)"/></g><g transform="translate(0 0)"><path class="b" d="M897.945-418.056h3.537l-1.768-4.984Z" transform="translate(-877.849 437.669)"/><path class="b" d="M879.245-449.878a18.167,18.167,0,0,0-18.167,18.166,18.167,18.167,0,0,0,18.167,18.166,18.166,18.166,0,0,0,18.166-18.166A18.166,18.166,0,0,0,879.245-449.878Zm7.877,26.687L886-426.728h-6.109l-1.125,3.537H867.509l6.109-17.2h3.858l-4.823,13.665h3.376l4.984-13.665h3.858l6.109,17.2Z" transform="translate(-861.078 449.878)"/></g></g></svg>