<svg xmlns="http://www.w3.org/2000/svg" width="195.771" height="46.585" viewBox="0 0 195.771 46.585"><defs><style>.a{fill:#fdfdfd;}.b{fill:#0096ac;}</style></defs><g transform="translate(-861.078 449.878)"><path class="a" d="M1128.747-418.177c0-3.678-.007-7.357,0-11.035.005-1.549-.526-3.184,2.255-3.117,2.572.061,2.023,1.557,2.028,2.959.017,5.344.063,10.688-.041,16.03-.021,1.05.962,2.84-1.048,3.064-1.74.194-3.537.51-4.723-1.781a83.7,83.7,0,0,0-8.007-12.5c0,3.94-.048,7.881.023,11.82.029,1.6-.127,2.586-2.18,2.592s-2.2-.946-2.18-2.559c.066-5.458-.038-10.921.076-16.378.022-1.039-1.009-2.891,1.012-3.064,1.669-.143,3.609-.825,4.836,1.51,2.257,4.3,4.818,8.435,7.253,12.638Z" transform="translate(-76.365 -5.278)"/><path class="a" d="M1085.9-422.019c.321-2.968-1.57-7.722.712-9.749,1.977-1.756,6.632-.506,10.1-.57,1.28-.024,2.566.078,3.838-.024,1.614-.129,1.926.646,1.907,2.071-.018,1.453-.443,2.116-2,2.061-2.557-.091-5.122.055-7.677-.052-1.584-.066-2.264.313-2.253,2.079.01,1.742.373,2.536,2.3,2.392,2.2-.164,4.423.048,6.628-.065,1.689-.086,1.876.788,1.865,2.141-.009,1.274-.337,1.934-1.768,1.883-2.325-.082-4.664.115-6.977-.06-2.288-.173-2.048,1.242-1.984,2.655s-.533,3.147,2.051,3c2.783-.161,5.583.014,8.374-.054,1.306-.031,1.925.357,1.888,1.756-.034,1.274-.081,2.292-1.8,2.269q-6.63-.088-13.261-.008c-1.516.018-2.022-.562-1.974-2.066C1085.97-415.382,1085.9-418.409,1085.9-422.019Z" transform="translate(-67.561 -5.169)"/><path class="a" d="M1058.985-423.724c4.975-2.979,6.586-10.306,14.694-8.109-2.692,2.507-5.036,4.832-7.54,6.967-1.488,1.269-1.441,2.191-.25,3.678,2.678,3.346,5.147,6.858,7.933,10.613-3.268.623-5.951,1-7.819-2.427a66.228,66.228,0,0,0-4.567-6.5c-3.439,1.391-2.409,4.276-2.425,6.681-.011,1.753-.129,2.719-2.354,2.7-2.242-.018-2.392-1.048-2.371-2.787.067-5.586.091-11.176-.009-16.761-.034-1.893.433-2.571,2.489-2.641,2.4-.08,2.294,1.164,2.234,2.78C1058.933-427.706,1058.985-425.882,1058.985-423.724Z" transform="translate(-58.169 -5.289)"/><path class="a" d="M998.3-419.6q.006-1.567,0-3.135c0-4.847.008-4.945-4.794-5.326-1.671-.133-1.791-.9-1.856-2.211-.075-1.522.463-1.984,1.973-1.958q7.141.127,14.285,0c1.609-.028,1.95.657,1.909,2.079s-.448,2.217-2.022,2.05c-.689-.073-1.406.075-2.087-.031-2.137-.333-2.785.481-2.7,2.65.178,4.405-.034,8.826.1,13.235.053,1.8-.665,2.16-2.234,2.1-1.494-.058-2.766.03-2.618-2.14C998.427-414.71,998.3-417.158,998.3-419.6Z" transform="translate(-39.313 -5.314)"/><path class="a" d="M939.27-421.448c0-2.906.126-5.82-.04-8.717-.127-2.215,1.186-1.978,2.635-2.083,1.669-.12,2.211.381,2.165,2.107-.121,4.531.027,9.069-.074,13.6-.039,1.747.374,2.547,2.3,2.411,2.2-.157,4.418.015,6.624-.054,1.425-.045,2.389,0,2.353,1.944-.034,1.788-.735,2.118-2.3,2.087q-5.752-.116-11.508.015c-1.69.041-2.239-.593-2.185-2.244C939.34-415.4,939.269-418.425,939.27-421.448Z" transform="translate(-23.528 -5.303)"/><g transform="translate(971.475 -438.091)"><path class="a" d="M1028.966-433.012c-5.9.071-9.9,4.688-9.933,11.472-.038,7.221,4.11,11.761,10.739,11.755,6.511-.006,10.631-4.427,10.706-11.489C1040.557-428.689,1036.23-433.1,1028.966-433.012Zm5.226,17.189c-1.694,1.826-3.891,2.713-6.3,1.839-3.351-1.219-4.093-4.12-4.1-7.952a8.763,8.763,0,0,1,.863-4.12c1.129-2.25,3.1-2.93,5.463-3a4.889,4.889,0,0,1,4.707,2.959C1036.384-423.174,1036.1-417.885,1034.192-415.822Z" transform="translate(-1019.033 433.013)"/></g><g transform="translate(933.061 -437.582)"><path class="a" d="M983.962-412.9c-1.932-5.691-4.075-11.311-5.994-17.007-.62-1.842-1.506-2.746-3.465-2.229-2.156-.558-3.009.5-3.671,2.466-1.842,5.477-3.973,10.857-5.884,16.312-.317.9-1.428,2.122-.54,2.794.758.574,2.2.3,3.342.3,1.491.008,1.3-1.41,1.729-2.253.4-.784.238-2.072,1.408-2.141a36.688,36.688,0,0,1,6.944.036c1.47.2,1.136,2.036,1.61,3.13,1.025,2.367,3.132,1.387,4.541,1.112C985.574-410.688,984.221-412.138,983.962-412.9Zm-7.634-5.737a18,18,0,0,1-4.125-.075c-.72-.108-.417-.907-.23-1.441.712-2.041,1.428-4.08,2.25-6.424,1.515,2.166,1.755,4.5,2.55,6.6C977-419.383,977.088-418.7,976.328-418.636Z" transform="translate(-964.071 432.284)"/></g><g transform="translate(861.078 -449.878)"><path class="b" d="M897.945-416.65h4.535l-2.267-6.39Z" transform="translate(-872.178 441.797)"/><path class="b" d="M884.371-449.878a23.293,23.293,0,0,0-23.293,23.293,23.293,23.293,0,0,0,23.293,23.293,23.293,23.293,0,0,0,23.293-23.293A23.293,23.293,0,0,0,884.371-449.878Zm10.1,34.217-1.443-4.535H885.2l-1.443,4.535H869.324l7.833-22.056H882.1L875.919-420.2h4.329l6.39-17.522h4.947l7.833,22.056Z" transform="translate(-861.078 449.878)"/></g></g></svg>