<svg xmlns="http://www.w3.org/2000/svg" width="145.817" height="55.869" viewBox="0 0 145.817 55.869"><defs><style>.a{fill:#4927d0;}</style></defs><g transform="translate(-342.049 484.674)"><path class="a" d="M391.444-456.605c0,3.747-.121,7.5.047,11.239a4.434,4.434,0,0,1-2.591,4.457c-6.916,3.9-13.815,7.834-20.729,11.741-1.592.9-2.894-.063-4.176-.794-6.752-3.848-13.484-7.733-20.234-11.585a3.224,3.224,0,0,1-1.712-3.144q.064-12.031,0-24.062a3.163,3.163,0,0,1,1.741-3.1c6.262-3.546,12.46-7.206,18.738-10.723,4.908-2.749,3.41-2.87,8.65.085,6.21,3.5,12.343,7.144,18.556,10.641a3.156,3.156,0,0,1,1.709,3.126C391.434-464.685,391.443-460.645,391.444-456.605Zm-46.616-.154c0,3.4.114,6.8-.044,10.184a3.905,3.905,0,0,0,2.371,4c6.022,3.374,11.991,6.845,17.959,10.315a2.919,2.919,0,0,0,3.146.1c6.23-3.6,12.433-7.239,18.686-10.794a3.575,3.575,0,0,0,1.98-3.527c-.055-6.673-.1-13.349.021-20.02a4.3,4.3,0,0,0-2.531-4.3c-4.455-2.472-8.809-5.127-13.271-7.585-3.283-1.808-6.11-4.671-10.571-1.408-5.025,3.675-10.769,6.372-16.218,9.462a2.878,2.878,0,0,0-1.547,2.861C344.866-463.9,344.829-460.33,344.828-456.759Z"/><path class="a" d="M583.819-415.783c-1.2,0-2.006-.047-2.808.013a1.565,1.565,0,0,1-1.773-1.05c-.414-.963-.956-1.87-1.449-2.8a1.028,1.028,0,0,0-1.136-.624c-.644.1-.627.589-.638,1.059a8.326,8.326,0,0,0,0,1.4c.237,1.585-.358,2.149-1.993,2.049-1.172-.072-1.638-.312-1.61-1.579.079-3.5.071-7.012,0-10.517-.022-1.167.379-1.543,1.509-1.5,1.691.072,3.389,0,5.083.034a4.05,4.05,0,0,1,3.875,2.777,3.78,3.78,0,0,1-.818,4.523c-1.034.919-.744,1.6-.219,2.51C582.484-418.375,583.052-417.229,583.819-415.783Zm-7.784-9.056c-.222,1.146.1,1.729,1.426,1.648,1.2-.074,2.163-.374,2.12-1.723-.04-1.236-.972-1.508-2.1-1.574C576.177-426.565,575.813-426,576.035-424.839Z" transform="translate(-149.407 -35.894)"/><path class="a" d="M626.366-422.891a6.947,6.947,0,0,1-7.035,6.966,7.046,7.046,0,0,1-6.931-6.937,7.046,7.046,0,0,1,6.989-7.056A6.955,6.955,0,0,1,626.366-422.891Zm-6.934-3.6a3.415,3.415,0,0,0-3.456,3.589,3.391,3.391,0,0,0,3.32,3.54,3.361,3.361,0,0,0,3.53-3.49A3.4,3.4,0,0,0,619.431-426.493Z" transform="translate(-175.34 -35.512)"/><path class="a" d="M531.938-422.577c0-1.814.051-3.63-.019-5.441-.039-1.013.335-1.329,1.309-1.295,1.7.06,3.4-.029,5.089.04a4.3,4.3,0,0,1,4.114,4.216,4.433,4.433,0,0,1-3.949,4.588c-.963.117-2.27-.463-2.8.346-.466.7-.29,1.927-.181,2.9.18,1.6-.819,1.427-1.843,1.472-1.154.05-1.873-.078-1.75-1.561C532.048-419.058,531.938-420.822,531.938-422.577Zm3.552-2.458c-.1.963-.129,1.8,1.255,1.688,1.009-.081,1.952-.177,2-1.431.054-1.31-.785-1.607-1.951-1.643C535.7-426.457,535.272-426.086,535.49-425.036Z" transform="translate(-123.125 -35.904)"/><path class="a" d="M663.75-422.607c0-1.753.038-3.508-.015-5.26-.031-1.012.244-1.52,1.371-1.461,1.457.077,2.925-.032,4.382.041a3.368,3.368,0,0,1,2.747,5.5c-.516.74-.368.984.18,1.5a3.547,3.547,0,0,1,.924,4.306,3.55,3.55,0,0,1-3.642,2.207c-1.577-.036-3.157-.039-4.734,0-.9.025-1.25-.309-1.227-1.223C663.783-418.865,663.75-420.736,663.75-422.607Zm4.09.376v-.007c-.584,0-1.173.047-1.751-.01-1.017-.1-1.259.36-1.288,1.316-.126,4.081-.157,4.081,3.94,4.075.409,0,.818.014,1.226-.009a2.59,2.59,0,0,0,2.634-2.664,2.722,2.722,0,0,0-2.659-2.695C669.244-422.264,668.541-422.23,667.84-422.23Zm-.131-5.992v-.025c-.641,0-1.283-.01-1.924,0-.407.009-.9,0-.913.563-.034,1.28-.029,2.562,0,3.842.011.433.39.537.761.534a33.455,33.455,0,0,0,4.189-.09,2.268,2.268,0,0,0,2.058-2.6,2.206,2.206,0,0,0-2.252-2.219C668.995-428.263,668.351-428.222,667.71-428.222Z" transform="translate(-208.633 -35.893)"/><path class="a" d="M732.671-422.118c0-1.462-.079-2.93.023-4.384.089-1.261-.235-1.864-1.614-1.68a14.085,14.085,0,0,1-2.278,0c-.382-.011-.709-.162-.657-.62.042-.367.371-.414.663-.415q4.386-.015,8.772-.009c.369,0,.726.1.689.575-.027.353-.312.457-.621.479-.233.016-.468.007-.7.014-3.205.1-3.205.1-3.205,3.38,0,2.631.009,5.263-.012,7.895,0,.421.17,1.067-.535,1.087-.771.022-.5-.654-.511-1.053C732.655-418.609,732.672-420.364,732.671-422.118Z" transform="translate(-250.406 -35.957)"/><path class="a" d="M710.307-422.217c0,1.924,0,3.848-.005,5.772,0,.393.06.892-.573.844-.468-.036-.486-.425-.486-.781q0-5.859-.006-11.719c0-.448.067-.875.62-.841.633.04.437.6.441.953C710.32-426.065,710.308-424.141,710.307-422.217Z" transform="translate(-238.145 -36.145)"/><path class="a" d="M369.046-439.3c0-2.339.015-4.678-.006-7.017a2.619,2.619,0,0,1,1.3-2.5q6.237-3.665,12.483-7.316a2.7,2.7,0,0,1,2.694-.083c4.287,2.445,8.519,4.985,12.782,7.471,1.186.692.375,1.089-.207,1.44-2.419,1.458-4.863,2.872-7.29,4.317-1.431.852-2.85,1.723-4.266,2.6a4,4,0,0,1-4.566-.015c-2.288-1.426-4.593-2.827-6.941-4.151-1.334-.752-1.606.123-1.6,1.252q.009,6.491,0,12.982c-.006,2.3-.048,2.27-2.142,1.339a3.384,3.384,0,0,1-2.258-3.655C369.134-434.847,369.046-437.074,369.046-439.3Zm14.971-4.748a1.173,1.173,0,0,0,.35,0,26.24,26.24,0,0,0,6.262-3.532c.447-.3.3-.893-.182-1.179-1.675-1-3.326-2.069-5.079-2.918a3.359,3.359,0,0,0-3.189.392c-1.233.738-2.429,1.536-3.643,2.306-1.237.785-1.27,1.312.048,2.018a40.2,40.2,0,0,1,4.451,2.649A1.7,1.7,0,0,0,384.017-444.044Z" transform="translate(-17.486 -18.253)"/></g></svg>