<svg xmlns="http://www.w3.org/2000/svg" xmlns:xlink="http://www.w3.org/1999/xlink" width="144.642" height="32.976" viewBox="0 0 144.642 32.976"><defs><style>.a{fill:#3464af;}.b{clip-path:url(#a);}.c{clip-path:url(#b);}.d{clip-path:url(#c);}.e{fill:#243d83;}.f{clip-path:url(#d);}.g{clip-path:url(#e);}</style><clipPath id="a"><path d="M0,0H39.772V32.976H0ZM0,0"/></clipPath><clipPath id="b"><path d="M124,0h39.238V32.976H124Zm0,0" transform="translate(-124)"/></clipPath><clipPath id="c"><path d="M259,0h36.035V32.976H259Zm0,0" transform="translate(-259)"/></clipPath><clipPath id="d"><path d="M392,49h17.884V68.9H392Zm0,0" transform="translate(-392 -49)"/></clipPath><clipPath id="e"><path d="M462,0h21.322V32.976H462Zm0,0" transform="translate(-462)"/></clipPath></defs><g transform="translate(-197 -792.672)"><g transform="translate(197 792.672)"><path class="a" d="M68.383,101.078a.089.089,0,0,0,0,.013" transform="translate(-50.127 -74.098)"/><path class="a" d="M68.373,101.125s0,0,0,0v0s0,0,0,0" transform="translate(-50.121 -74.132)"/><path class="a" d="M68.364,101.152v0a0,0,0,0,0,0,0s0,0,0-.005" transform="translate(-50.115 -74.152)"/><path class="a" d="M68.354,101.18a.015.015,0,0,0,0,.007s0,0,0-.007" transform="translate(-50.107 -74.172)"/><path class="a" d="M68.36,101.172s0,0,0,0,0,0,0,0" transform="translate(-50.112 -74.166)"/><path class="a" d="M68.355,101.163v0a.107.107,0,0,0,0,.013.015.015,0,0,1,0-.007s0,0,0,0" transform="translate(-50.107 -74.158)"/><g class="b"><path class="a" d="M27.155.234c-7.747,23.433-8.788,26.581-8.9,26.918l0,.013,0,.005v0s0,.005,0,.007v0s0,0,0,.005,0,0,0,0,0,.006,0,.007,0,0,0,0H13.126a1.812,1.812,0,0,1-1.718-2.384l.013-.036a.079.079,0,0,1,0,.011L19.581.234H8.61l-8.3,25.03a6,6,0,0,0,5.573,7.881v0H27.266L35.478,8.261,31.055,9.415,39.769.234" transform="translate(-0.001 -0.172)"/></g><path class="a" d="M68.38,101.078a.065.065,0,0,0-.005.015s0,0,0,0a.089.089,0,0,1,0-.013" transform="translate(-50.124 -74.098)"/><path class="a" d="M42.809,92.056h0" transform="translate(-31.382 -67.482)"/><path class="a" d="M42.781,92.1a.136.136,0,0,0,.005-.016l-.005.016" transform="translate(-31.362 -67.506)"/><path class="a" d="M42.8,92.069a.041.041,0,0,0,0-.006s0,0,0,.006" transform="translate(-31.376 -67.489)"/><g class="c" transform="translate(33.099)"><path class="a" d="M150.237,6.138a1.812,1.812,0,0,1,1.718,2.385l-1.975,5.925a3.635,3.635,0,0,1-3.449,2.486h-6.11l3.6-10.795ZM156.791.324,133.3.369,136.1,9.482l-3.782-1.153-8.2,24.743h10.907l3.521-10.318H149.5a12.218,12.218,0,0,0,11.613-8.422l1.14-3.487c3.3-9.967-3.7-10.521-5.462-10.521" transform="translate(-124.086 -0.238)"/></g><g class="d" transform="translate(69.134)"><path class="e" d="M283.989,19.039l-1.956,5.844a3.592,3.592,0,0,1-3.4,2.451l-6.139.006,3.518-10.749,6.5-.014c.949,0,2.164.388,1.481,2.461m5.278-8.176H277.933L281.438.289H270.324L259.48,33.136h21.738a12.579,12.579,0,0,0,11.941-8.623l1.65-4.979c.817-2.441,1.231-8.671-5.542-8.671" transform="translate(-259.352 -0.212)"/></g><path class="e" d="M425.512.367H436.56L433.778,8.78l-11.047.027Zm0,0" transform="translate(-309.893 -0.269)"/><g class="f" transform="translate(104.635 13.079)"><path class="e" d="M399.09,49.145h11.065l-6.517,19.8H392.574Zm0,0" transform="translate(-392.421 -49.106)"/></g><g class="g" transform="translate(123.32)"><path class="e" d="M474.6,23.989l2.5-7.543h5.016l1.93-5.724-5.033-.019L482.6,0,471.437.095,463.3,25a6.078,6.078,0,0,0,5.827,7.963l10.291-.088,1.917-5.823h-4.512a2.334,2.334,0,0,1-2.215-3.065" transform="translate(-462.726)"/></g></g></g></svg>