<svg xmlns="http://www.w3.org/2000/svg" width="84.602" height="77.072" viewBox="0 0 84.602 77.072"><defs><style>.a{fill:#53fffa;}</style></defs><path class="a" d="M65.272,81.984a1.55,1.55,0,0,0-2.466,0L51.61,98.4a1.493,1.493,0,0,0,1.233,2.334H75.234A1.493,1.493,0,0,0,76.468,98.4Zm-9.6,15.768,8.371-12.278L72.41,97.752Z" transform="translate(-45.864 -68.447)"/><path class="a" d="M124.844,100.67h22.391a1.493,1.493,0,0,0,1.233-2.334l-11.2-16.42a1.493,1.493,0,0,0-2.467,0l-11.2,16.42a1.493,1.493,0,0,0,1.233,2.334Zm11.2-15.263,8.37,12.277H127.668Z" transform="translate(-90.995 -68.379)"/><path class="a" d="M196.845,100.738h22.391a1.493,1.493,0,0,0,1.233-2.334l-11.2-16.42a1.55,1.55,0,0,0-2.466,0l-11.2,16.42a1.493,1.493,0,0,0,1.233,2.334Zm11.2-15.263,8.37,12.277H199.67Z" transform="translate(-136.127 -68.447)"/><path class="a" d="M65.272,141.984a1.55,1.55,0,0,0-2.466,0L51.61,158.4a1.493,1.493,0,0,0,1.233,2.334H75.234a1.493,1.493,0,0,0,1.233-2.334Zm-9.6,15.768,8.371-12.278,8.371,12.278Z" transform="translate(-45.864 -106.056)"/><path class="a" d="M124.844,160.67h22.391a1.493,1.493,0,0,0,1.233-2.334l-11.2-16.42a1.493,1.493,0,0,0-2.467,0l-11.2,16.42a1.493,1.493,0,0,0,1.233,2.334Zm11.2-15.263,8.37,12.278H127.668Z" transform="translate(-90.995 -105.989)"/><path class="a" d="M209.274,141.984a1.55,1.55,0,0,0-2.466,0l-11.2,16.42a1.493,1.493,0,0,0,1.233,2.334h22.391a1.493,1.493,0,0,0,1.233-2.334Zm-9.6,15.768,8.37-12.278,8.37,12.278Z" transform="translate(-136.127 -106.056)"/><path class="a" d="M65.272,201.984a1.55,1.55,0,0,0-2.466,0L51.61,218.4a1.493,1.493,0,0,0,1.233,2.334H75.234a1.493,1.493,0,0,0,1.233-2.334Zm-9.6,15.768,8.371-12.277,8.371,12.277Z" transform="translate(-45.864 -143.666)"/><path class="a" d="M137.272,201.917a1.493,1.493,0,0,0-2.467,0l-11.2,16.42a1.493,1.493,0,0,0,1.233,2.334h22.391a1.493,1.493,0,0,0,1.233-2.334Zm-9.6,15.768,8.372-12.277,8.37,12.277Z" transform="translate(-90.994 -143.598)"/><path class="a" d="M209.274,201.984a1.55,1.55,0,0,0-2.466,0l-11.2,16.42a1.493,1.493,0,0,0,1.233,2.334h22.391a1.493,1.493,0,0,0,1.233-2.334Zm-9.6,15.768,8.37-12.277,8.37,12.277Z" transform="translate(-136.127 -143.666)"/><path class="a" d="M106.338,58.116a1.69,1.69,0,1,0-1.69-1.69A1.691,1.691,0,0,0,106.338,58.116Z" transform="translate(-79.271 -51.75)"/><path class="a" d="M66.338,50.116a1.69,1.69,0,1,0-1.69-1.69A1.691,1.691,0,0,0,66.338,50.116Z" transform="translate(-54.198 -46.735)"/><path class="a" d="M38.337,142.735a1.69,1.69,0,1,0,1.69,1.69A1.691,1.691,0,0,0,38.337,142.735Z" transform="translate(-36.647 -106.91)"/><path class="a" d="M192.027,208.425a1.69,1.69,0,1,0-1.69,1.69A1.69,1.69,0,0,0,192.027,208.425Z" transform="translate(-131.923 -147.027)"/></svg>