<svg xmlns="http://www.w3.org/2000/svg" width="78.194" height="79.699" viewBox="0 0 78.194 79.699"><defs><style>.a{fill:#53fffa;}</style></defs><path class="a" d="M223.6,55.051a5.6,5.6,0,1,0-5.6-5.6A5.607,5.607,0,0,0,223.6,55.051Zm0-8.4a2.8,2.8,0,1,1-2.8,2.8A2.8,2.8,0,0,1,223.6,46.65Z" transform="translate(-155.101 -41.155)"/><path class="a" d="M93.056,48.491a1.585,1.585,0,1,0-1.586-1.585A1.586,1.586,0,0,0,93.056,48.491Z" transform="translate(-72.859 -42.11)"/><path class="a" d="M61.056,60.491a1.585,1.585,0,1,0-1.586-1.585A1.586,1.586,0,0,0,61.056,60.491Z" transform="translate(-52.06 -49.91)"/><path class="a" d="M116.493,75.247a10.7,10.7,0,0,0-3.156-7.619L85.015,39.306a10.774,10.774,0,0,0-15.238,0L41.455,67.628a10.774,10.774,0,0,0,0,15.238L66.788,108.2c-5.389.883-6.192,2.223-6.192,3.45,0,3.791,11.749,4.2,16.8,4.2,15.164,0,16.8-2.938,16.8-4.2,0-1.166-.78-2.559-6.192-3.451l25.332-25.331A10.7,10.7,0,0,0,116.493,75.247ZM69.27,110.68l.508.508a10.8,10.8,0,0,0,2.184,1.676,34.669,34.669,0,0,1-7.7-1.208A25.647,25.647,0,0,1,69.27,110.68Zm21.263.974a34.614,34.614,0,0,1-7.7,1.209,10.8,10.8,0,0,0,2.184-1.676l.506-.506A25.756,25.756,0,0,1,90.533,111.654Zm-7.5-2.447a7.974,7.974,0,0,1-11.278,0L43.436,80.886a7.974,7.974,0,0,1,0-11.278L71.757,41.287a7.974,7.974,0,0,1,11.278,0l28.321,28.321a7.974,7.974,0,0,1,0,11.278Z" transform="translate(-38.299 -36.15)"/><path class="a" d="M120.8,99.85a11.206,11.206,0,0,0-9.8,5.79,11.2,11.2,0,1,0-9.8,16.611c.376,0,.747-.02,1.113-.056a11.2,11.2,0,1,0,17.375,0c.366.036.737.056,1.113.056a11.2,11.2,0,1,0,0-22.4Zm-28,11.2a8.4,8.4,0,1,1,8.4,8.4A8.41,8.41,0,0,1,92.8,111.051Zm18.2,5.41a11.237,11.237,0,0,0,1.113,1.646c-.366-.036-.737-.056-1.113-.056s-.747.02-1.113.056A11.239,11.239,0,0,0,111,116.461Zm0,21.191a8.4,8.4,0,1,1,8.4-8.4A8.41,8.41,0,0,1,111,137.652Zm9.8-18.2a8.4,8.4,0,1,1,8.4-8.4A8.41,8.41,0,0,1,120.8,119.451Z" transform="translate(-71.904 -77.554)"/></svg>