<svg xmlns="http://www.w3.org/2000/svg" width="66.532" height="78.5" viewBox="0 0 66.532 78.5"><defs><style>.a{opacity:0;}.b{fill:#0070ff;}.c{opacity:0.001;}.d{opacity:0.002;}.e{opacity:0.003;}.f{opacity:0.004;}.g{opacity:0.006;}.h{opacity:0.008;}.i{opacity:0.01;}.j{opacity:0.013;}.k{opacity:0.016;}.l{opacity:0.019;}.m{opacity:0.023;}.n{opacity:0.028;}.o{opacity:0.032;}.p{opacity:0.038;}.q{opacity:0.044;}.r{opacity:0.051;}.s{opacity:0.059;}.t{opacity:0.068;}.u{opacity:0.079;}.v{opacity:0.093;}.w{opacity:0.113;}.x{opacity:0.177;}.y{fill:#ddecff;}.z{fill:#fff;}.aa{fill:#5dffcd;}</style></defs><g transform="translate(0 0)"><g class="a"><path class="b" d="M58.846,95.776h0a7.617,7.617,0,0,1-5.547-2.4c-.813-.4-2.429-1.044-3.66-1.532-4.43-1.755-10.5-4.158-15.21-8.248A20.461,20.461,0,0,1,27.8,61.819c3.914-14.37,2.16-19.5,1.651-20.569a7.615,7.615,0,0,1-1.668-11.713l5.768-6.216a7.375,7.375,0,0,1,5.368-2.652h.011A6.96,6.96,0,0,1,44.2,22.8a4.56,4.56,0,0,0,3.209.619c3.531-.544,3.82-.953,4.778-2.31.165-.234.332-.469.5-.7a7.616,7.616,0,0,1,12.314,0c.171.235.337.47.5.7.958,1.357,1.247,1.766,4.777,2.31a4.892,4.892,0,0,0,3.112-.516,7.616,7.616,0,0,1,10.751.414l5.768,6.216A7.615,7.615,0,0,1,88.245,41.25c-.509,1.069-2.262,6.2,1.651,20.569A20.46,20.46,0,0,1,83.265,83.6c-4.714,4.091-10.781,6.494-15.211,8.249-1.231.487-2.847,1.127-3.66,1.531A7.619,7.619,0,0,1,58.846,95.776ZM44.617,38.621c1.727,6.7,1.027,15.628-2.125,27.2-1.158,4.252.409,6.974,12.755,11.863,1.279.507,2.484.984,3.6,1.483,1.115-.5,2.32-.976,3.6-1.483C74.792,72.8,76.359,70.073,75.2,65.822c-3.152-11.574-3.852-20.5-2.125-27.2a20.211,20.211,0,0,1-5.11-.144,25.211,25.211,0,0,1-9.119-2.962,25.2,25.2,0,0,1-9.119,2.962A20.236,20.236,0,0,1,44.617,38.621ZM44.3,22.907Z" transform="translate(-25.745 -17.276)"/></g><g class="c" transform="translate(0.293 0.293)"><path class="b" d="M59.053,95.69h0a7.322,7.322,0,0,1-5.37-2.344c-.813-.41-2.47-1.066-3.73-1.565-4.41-1.746-10.45-4.139-15.126-8.2A20.181,20.181,0,0,1,28.286,62.1c4.016-14.745,2.1-19.848,1.59-20.855a7.323,7.323,0,0,1-1.676-11.3l5.768-6.216a7.1,7.1,0,0,1,5.167-2.538h.006a6.726,6.726,0,0,1,5.077,2.047,4.817,4.817,0,0,0,3.443.682c3.654-.562,3.987-1.033,4.972-2.43.165-.233.33-.467.5-.7a7.323,7.323,0,0,1,11.84,0c.17.234.335.468.5.7.986,1.4,1.319,1.868,4.972,2.43A4.99,4.99,0,0,0,73.8,23.33a7.323,7.323,0,0,1,10.338.4l5.768,6.216a7.322,7.322,0,0,1-1.675,11.3c-.515,1.006-2.426,6.109,1.59,20.855A20.18,20.18,0,0,1,83.28,83.583c-4.676,4.059-10.716,6.451-15.126,8.2-1.26.5-2.917,1.155-3.73,1.565A7.323,7.323,0,0,1,59.053,95.69ZM44.43,38.49c1.852,6.7,1.19,15.7-2.014,27.462-1.353,4.966,1.547,7.705,12.929,12.213,1.343.532,2.581,1.022,3.708,1.527,1.128-.5,2.364-1,3.708-1.527,11.382-4.508,14.282-7.247,12.93-12.213-3.2-11.763-3.867-20.766-2.015-27.462a19.845,19.845,0,0,1-5.459-.1,24.666,24.666,0,0,1-9.164-3.018,24.662,24.662,0,0,1-9.164,3.018A19.84,19.84,0,0,1,44.43,38.49ZM31.282,41.881l.007,0Zm55.543,0-.007,0Zm.006,0h0Zm-55.556,0h0ZM44.3,23.33Z" transform="translate(-26.245 -17.776)"/></g><g class="d" transform="translate(0.586 0.586)"><path class="b" d="M59.26,95.6h0a7.03,7.03,0,0,1-5.19-2.289c-.813-.417-2.513-1.09-3.8-1.6-4.391-1.739-10.4-4.12-15.042-8.146-6.466-5.612-8.7-12.936-6.45-21.182,4.122-15.134,2.043-20.2,1.524-21.144A7.03,7.03,0,0,1,28.622,30.35l5.768-6.216a6.825,6.825,0,0,1,4.955-2.425,6.56,6.56,0,0,1,4.889,1.96,5.076,5.076,0,0,0,3.677.747c3.777-.582,4.156-1.118,5.167-2.551.164-.232.329-.465.5-.7a7.03,7.03,0,0,1,11.367,0c.17.233.334.466.5.7,1.012,1.433,1.39,1.969,5.167,2.551a5.222,5.222,0,0,0,3.6-.664,7.029,7.029,0,0,1,9.923.381L89.9,30.35a7.031,7.031,0,0,1-1.677,10.893c-.518.943-2.6,6.01,1.524,21.144,2.246,8.246.016,15.57-6.45,21.183-4.638,4.026-10.652,6.407-15.042,8.146-1.289.51-2.99,1.184-3.8,1.6A7.031,7.031,0,0,1,59.26,95.6ZM44.232,38.347c1.957,6.616,1.321,15.941-1.892,27.735-1.405,5.162,1.534,7.979,13.1,12.562,1.388.55,2.661,1.054,3.815,1.576,1.154-.523,2.428-1.027,3.816-1.576,11.571-4.583,14.51-7.4,13.1-12.562-3.212-11.794-3.848-21.119-1.891-27.735a19.514,19.514,0,0,1-5.821-.035,24.121,24.121,0,0,1-9.208-3.076,24.114,24.114,0,0,1-9.208,3.076A19.51,19.51,0,0,1,44.232,38.347ZM31.575,41.808l.013,0Zm55.372,0-.012,0Zm-55.384,0,.011,0Zm55.4,0-.011,0Zm.011,0-.007,0Zm-55.418,0,.006,0Z" transform="translate(-26.745 -18.276)"/></g><g class="e" transform="translate(0.879 0.879)"><path class="b" d="M59.467,95.519h0a6.738,6.738,0,0,1-5.009-2.232c-.811-.423-2.555-1.114-3.875-1.636-4.371-1.731-10.357-4.1-14.958-8.1-6.375-5.534-8.574-12.755-6.36-20.884,4.231-15.537,1.973-20.56,1.453-21.439a6.737,6.737,0,0,1-1.674-10.476l5.768-6.216a6.553,6.553,0,0,1,4.744-2.313H39.6A6.236,6.236,0,0,1,44.251,24.1a5.347,5.347,0,0,0,3.913.812c3.9-.6,4.3-1.164,5.363-2.671.162-.231.326-.462.494-.693a6.737,6.737,0,0,1,10.893,0c.169.231.333.463.5.694,1.063,1.507,1.462,2.071,5.361,2.671a5.58,5.58,0,0,0,3.842-.738,6.737,6.737,0,0,1,9.51.366l5.769,6.216a6.737,6.737,0,0,1-1.674,10.476c-.52.878-2.779,5.9,1.453,21.439,2.214,8.129.015,15.351-6.36,20.884-4.6,3.993-10.587,6.364-14.958,8.1-1.32.523-3.064,1.214-3.875,1.636A6.739,6.739,0,0,1,59.467,95.519ZM44.021,38.192c2.106,6.586,1.515,16.011-1.756,28.02-1.459,5.358,1.519,8.254,13.279,12.912,1.433.568,2.744,1.087,3.923,1.627,1.18-.54,2.49-1.059,3.924-1.627C75.15,74.466,78.129,71.57,76.67,66.212,73.4,54.2,72.808,44.777,74.913,38.192a19.166,19.166,0,0,1-6.193.038,23.569,23.569,0,0,1-9.253-3.136,23.566,23.566,0,0,1-9.253,3.136A19.167,19.167,0,0,1,44.021,38.192ZM31.88,41.739l.005,0Zm55.175,0-.006,0Zm.006,0,0,0Zm-55.187,0h0Zm55.193,0h0Zm-55.2,0h0Zm55.2,0h0ZM44.322,24.174Z" transform="translate(-27.245 -18.776)"/></g><g class="f" transform="translate(1.172 1.172)"><path class="b" d="M59.674,95.433h0a6.445,6.445,0,0,1-4.826-2.175c-.808-.429-2.6-1.138-3.95-1.673-4.351-1.723-10.311-4.084-14.874-8.044-6.283-5.455-8.452-12.573-6.269-20.585C34.1,47,31.651,42.031,31.132,41.218a6.444,6.444,0,0,1-1.666-10.055l5.768-6.216a6.275,6.275,0,0,1,4.534-2.2,5.952,5.952,0,0,1,4.5,1.787,5.61,5.61,0,0,0,4.149.879c4.023-.619,4.472-1.255,5.556-2.792.162-.229.325-.459.492-.689a6.444,6.444,0,0,1,10.419,0c.168.23.33.461.493.691,1.084,1.537,1.533,2.172,5.556,2.791a5.773,5.773,0,0,0,4.085-.813,6.444,6.444,0,0,1,9.1.35l5.768,6.216a6.444,6.444,0,0,1-1.665,10.055c-.52.814-2.968,5.785,1.376,21.738,2.183,8.013.015,15.131-6.269,20.585C78.762,87.5,72.8,89.862,68.451,91.585c-1.352.535-3.142,1.244-3.95,1.674A6.446,6.446,0,0,1,59.674,95.433ZM43.794,38.021c.025.071.049.142.073.215,2.184,6.541,1.62,16-1.677,28.106C40.7,71.829,43.839,74.928,55.643,79.6c1.48.586,2.827,1.119,4.031,1.677,1.205-.558,2.552-1.091,4.032-1.677,11.8-4.675,14.948-7.774,13.454-13.261-3.3-12.109-3.863-21.564-1.677-28.106.024-.073.048-.144.073-.216a18.818,18.818,0,0,1-6.584.127,23.037,23.037,0,0,1-9.3-3.17,23.034,23.034,0,0,1-9.3,3.17A18.854,18.854,0,0,1,43.794,38.021ZM32.172,41.666l.012,0Zm55,0-.012,0Zm-55.017,0,.011,0Zm55.028,0-.011,0Zm.011,0-.009,0Zm-55.05,0,.008,0Z" transform="translate(-27.745 -19.276)"/></g><g class="g" transform="translate(1.465 1.465)"><path class="b" d="M59.881,95.347h0a6.152,6.152,0,0,1-4.641-2.115c-.8-.435-2.642-1.163-4.027-1.712-4.331-1.716-10.264-4.066-14.789-7.993-6.193-5.375-8.329-12.391-6.179-20.287,4.462-16.38,1.81-21.29,1.293-22.04a6.151,6.151,0,0,1-1.65-9.63l5.768-6.217a6,6,0,0,1,4.324-2.094h.066a5.74,5.74,0,0,1,4.235,1.7,5.883,5.883,0,0,0,4.386.946c4.146-.639,4.649-1.351,5.751-2.913.161-.228.323-.457.49-.686a6.152,6.152,0,0,1,9.946,0c.167.229.329.459.49.687,1.1,1.562,1.606,2.274,5.752,2.913a5.981,5.981,0,0,0,4.329-.888,6.151,6.151,0,0,1,8.683.334l5.768,6.217a6.151,6.151,0,0,1-1.65,9.63c-.516.75-3.167,5.66,1.294,22.04,2.151,7.9.014,14.912-6.179,20.288C78.815,87.454,72.883,89.8,68.55,91.52c-1.384.548-3.222,1.276-4.027,1.712A6.154,6.154,0,0,1,59.881,95.347ZM43.547,37.832c.086.229.169.463.25.7,2.167,6.484,1.6,15.884-1.682,27.936-1.547,5.681,1.637,8.86,13.628,13.61,1.527.605,2.911,1.153,4.139,1.729,1.229-.576,2.613-1.124,4.139-1.729,11.992-4.749,15.176-7.929,13.628-13.61C74.367,54.42,73.8,45.022,75.967,38.537q.121-.362.25-.7a18.476,18.476,0,0,1-6.993.233,22.456,22.456,0,0,1-9.343-3.235,22.462,22.462,0,0,1-9.342,3.235A18.477,18.477,0,0,1,43.547,37.832ZM32.477,41.6l.006,0Zm54.81,0-.005,0Zm.005,0h0Zm-54.821,0h0Zm54.827,0,0,0Zm-54.832,0h0Zm54.838,0,0,0Zm-54.844,0h0Zm54.848,0h0ZM44.339,25.018Z" transform="translate(-28.245 -19.776)"/></g><g class="h" transform="translate(1.758 1.757)"><path class="b" d="M60.088,95.261h0a5.859,5.859,0,0,1-4.455-2.054c-.8-.443-2.687-1.19-4.106-1.752-4.312-1.708-10.218-4.047-14.706-7.942-6.1-5.3-8.206-12.209-6.087-19.99,4.58-16.817,1.715-21.659,1.205-22.346a5.859,5.859,0,0,1-1.63-9.2l5.768-6.216a5.721,5.721,0,0,1,4.115-1.986,5.5,5.5,0,0,1,4.1,1.614A6.251,6.251,0,0,0,48.919,26.4c4.269-.657,4.794-1.4,5.946-3.033.161-.227.321-.455.487-.682a5.858,5.858,0,0,1,9.472,0c.166.228.327.456.488.684C66.464,25,66.99,25.745,71.258,26.4a6.3,6.3,0,0,0,4.571-.961,5.858,5.858,0,0,1,8.27.318l5.768,6.216a5.857,5.857,0,0,1-1.63,9.2c-.51.687-3.375,5.529,1.206,22.346,2.119,7.781.014,14.693-6.088,19.99-4.487,3.9-10.393,6.234-14.705,7.942-1.419.562-3.306,1.309-4.107,1.753A5.859,5.859,0,0,1,60.088,95.261ZM43.274,37.621q.237.576.452,1.215c2.148,6.429,1.58,15.771-1.687,27.766-1.776,6.519,3.036,9.7,13.8,13.959,1.575.624,3,1.187,4.247,1.781,1.252-.594,2.672-1.157,4.247-1.781C75.1,76.3,79.914,73.121,78.139,66.6,74.872,54.608,74.3,45.266,76.452,38.836c.142-.425.293-.83.45-1.216a18.162,18.162,0,0,1-7.427.361,21.9,21.9,0,0,1-9.387-3.3,21.9,21.9,0,0,1-9.386,3.3A18.166,18.166,0,0,1,43.274,37.621Zm-10.5,3.9.011,0Zm54.638,0-.011,0Zm.011,0-.011,0Zm-54.659,0,.009,0Zm54.669,0-.009,0Zm-54.679,0,.006,0Zm54.688,0-.006,0ZM44.347,25.441Z" transform="translate(-28.745 -20.276)"/></g><g class="i" transform="translate(2.051 2.05)"><path class="b" d="M60.3,95.175h0a5.564,5.564,0,0,1-4.266-1.992c-.794-.451-2.733-1.218-4.186-1.794-4.293-1.7-10.172-4.029-14.621-7.891-6.011-5.217-8.085-12.027-6-19.691,4.7-17.266,1.611-22.032,1.11-22.657a5.565,5.565,0,0,1-1.6-8.769L36.5,26.165a5.447,5.447,0,0,1,3.906-1.88,5.292,5.292,0,0,1,3.9,1.53A6.538,6.538,0,0,0,49.171,26.9c4.392-.676,4.976-1.5,6.14-3.154.16-.226.32-.452.485-.679a5.565,5.565,0,0,1,9,0c.165.227.326.453.486.68,1.164,1.65,1.749,2.477,6.14,3.153a6.523,6.523,0,0,0,4.815-1.036,5.565,5.565,0,0,1,7.856.3l5.768,6.217a5.566,5.566,0,0,1-1.6,8.769c-.5.624-3.593,5.391,1.11,22.657,2.088,7.664.014,14.474-6,19.691-4.45,3.863-10.329,6.191-14.622,7.891-1.453.576-3.392,1.344-4.187,1.794A5.566,5.566,0,0,1,60.3,95.175Zm4.837-2.814,0,0ZM42.971,37.381a18.565,18.565,0,0,1,.684,1.755c2.129,6.374,1.56,15.658-1.692,27.6-1.834,6.733,3.046,9.979,13.978,14.308,1.623.643,3.081,1.221,4.354,1.834,1.274-.613,2.731-1.19,4.355-1.834,10.932-4.329,15.812-7.575,13.978-14.308-3.252-11.938-3.821-21.223-1.692-27.6a18.636,18.636,0,0,1,.684-1.755,17.8,17.8,0,0,1-7.894.519c-4.47-.688-7.355-1.895-9.432-3.378-2.077,1.483-4.961,2.689-9.431,3.378A17.837,17.837,0,0,1,42.971,37.381Zm-9.9,4.071.01,0Zm54.465,0-.021.007Zm-54.476,0,.011,0Zm54.486,0-.009,0Zm-54.495,0,.008,0Zm54.5,0-.006,0Zm-54.513,0,0,0Z" transform="translate(-29.246 -20.776)"/></g><g class="j" transform="translate(3.503 2.343)"><path class="b" d="M61.322,95.09h0a5.274,5.274,0,0,1-4.075-1.927,45.225,45.225,0,0,0-4.27-1.838c-8.162-3.233-25.148-9.96-20.443-27.233,3.513-12.9,2.679-18.89,1.869-21.314a4.218,4.218,0,0,0-.9-1.7c-.015-.016.052.027.084.048s.145.071.206.1c.089.032.4.159.4.159l1.64-5.01-3.865-3.586,5.768-6.216a5.164,5.164,0,0,1,3.7-1.774,5,5,0,0,1,3.7,1.446,6.81,6.81,0,0,0,5.1,1.152c4.515-.695,5.124-1.557,6.336-3.274.159-.225.318-.45.482-.676a5.273,5.273,0,0,1,8.525,0c.165.226.324.452.483.677C67.279,25.839,67.888,26.7,72.4,27.4a6.8,6.8,0,0,0,5.1-1.152,5,5,0,0,1,3.7-1.446,5.162,5.162,0,0,1,3.7,1.774l5.768,6.216A5.273,5.273,0,0,1,89.1,41.12c-.491.565-3.818,5.252,1.008,22.971,4.7,17.273-12.281,24-20.444,27.233A45.622,45.622,0,0,0,65.4,93.162,5.272,5.272,0,0,1,61.322,95.09ZM65.9,92.424l0,0ZM43.443,37.1a17.672,17.672,0,0,1,.961,2.332c2.111,6.317,1.54,15.545-1.7,27.426C40.815,73.811,45.763,77.126,56.86,81.52c1.674.663,3.168,1.255,4.462,1.887,1.294-.632,2.79-1.225,4.463-1.887,11.1-4.395,16.045-7.709,14.153-14.658-3.237-11.881-3.807-21.109-1.7-27.426A17.671,17.671,0,0,1,79.2,37.1a17.454,17.454,0,0,1-8.4.713c-4.538-.7-7.417-1.936-9.476-3.455-2.059,1.519-4.938,2.757-9.476,3.455A17.467,17.467,0,0,1,43.443,37.1Zm45.016,4.277-.01,0Zm.02-.006-.02.006Zm.009,0-.009,0Zm.007,0,0,0Z" transform="translate(-31.724 -21.276)"/></g><g class="k" transform="translate(3.8 2.636)"><path class="b" d="M61.533,95h0a4.981,4.981,0,0,1-3.882-1.861A43.331,43.331,0,0,0,53.3,91.259c-8.084-3.2-24.9-9.864-20.269-26.884,3.533-12.972,2.685-19.028,1.865-21.483a4.478,4.478,0,0,0-.977-1.822,1.265,1.265,0,0,1,.206.1c.08.029.378.148.378.148l1.549-4.732L32.4,33.194l5.768-6.216a4.884,4.884,0,0,1,3.49-1.67,4.754,4.754,0,0,1,3.5,1.363A7.082,7.082,0,0,0,50.5,27.892c4.638-.714,5.311-1.667,6.531-3.4.158-.224.316-.448.479-.672a4.979,4.979,0,0,1,8.051,0c.164.224.323.449.481.673,1.22,1.728,1.892,2.681,6.529,3.395a7.088,7.088,0,0,0,5.338-1.221,4.714,4.714,0,0,1,3.5-1.363,4.885,4.885,0,0,1,3.49,1.67l5.768,6.216a4.979,4.979,0,0,1-1.528,7.891c-.477.509-4.052,5.111.9,23.29C94.675,81.4,77.855,88.057,69.77,91.259a43.217,43.217,0,0,0-4.356,1.884A4.978,4.978,0,0,1,61.533,95Zm4.328-2.517,0,0Zm-8.656,0,0,0ZM43.018,36.767a16.455,16.455,0,0,1,1.319,2.969c2.091,6.262,1.52,15.432-1.7,27.257C40.7,74.114,45.938,77.634,56.963,82c1.757.7,3.279,1.3,4.57,1.935C62.824,83.3,64.346,82.7,66.1,82c11.024-4.366,16.267-7.886,14.328-15.007C77.21,55.168,76.638,46,78.73,39.736a16.413,16.413,0,0,1,1.318-2.969,17.132,17.132,0,0,1-8.995.968c-4.608-.709-7.481-1.98-9.521-3.535-2.039,1.555-4.912,2.826-9.521,3.535A17.147,17.147,0,0,1,43.018,36.767ZM88.577,41.31l-.009,0Zm.009,0-.009,0Zm.009,0-.008,0Zm.008,0h0Z" transform="translate(-32.232 -21.776)"/></g><g class="l" transform="translate(2.929 2.929)"><path class="b" d="M60.917,94.918h0a4.688,4.688,0,0,1-3.686-1.793,41.517,41.517,0,0,0-4.444-1.931c-4.233-1.677-10.032-3.974-14.368-7.737-5.739-4.981-7.718-11.481-5.725-18.8,5.077-18.641,1.245-23.157.783-23.612A4.687,4.687,0,0,1,32,33.6l5.768-6.216a4.6,4.6,0,0,1,3.282-1.566,4.469,4.469,0,0,1,3.3,1.279,7.353,7.353,0,0,0,5.578,1.291c4.761-.733,5.459-1.722,6.725-3.516.158-.223.315-.445.477-.668a4.686,4.686,0,0,1,7.577,0c.162.223.32.446.477.67,1.267,1.794,1.964,2.783,6.725,3.515A7.35,7.35,0,0,0,77.485,27.1a4.435,4.435,0,0,1,3.3-1.28,4.6,4.6,0,0,1,3.283,1.566L89.837,33.6a4.687,4.687,0,0,1-1.48,7.447c-.461.455-4.293,4.971.784,23.612,1.992,7.316.012,13.816-5.725,18.8-4.337,3.764-10.135,6.06-14.369,7.737A41.434,41.434,0,0,0,64.6,93.126,4.687,4.687,0,0,1,60.917,94.918Zm4.073-2.37v0Zm-8.147,0,0,0ZM41.917,36.69c2.7,4.447,4.506,13.228-.18,30.433-2,7.335,3.316,10.926,14.5,15.356,1.812.718,3.37,1.335,4.678,1.991,1.308-.656,2.867-1.273,4.679-1.991,11.185-4.43,16.5-8.022,14.5-15.356-4.686-17.2-2.882-25.985-.18-30.433l-.155-.167a16.838,16.838,0,0,1-9.281,1.129c-4.682-.721-7.546-2.027-9.565-3.621-2.019,1.595-4.882,2.9-9.565,3.621a16.833,16.833,0,0,1-9.281-1.129Zm-7.952,4.549.009,0ZM87.9,41.23l-.036.012Zm-53.94.006.008,0Zm-.009,0,.008,0Zm-.008,0,.006,0Zm53.964,0-.008,0Z" transform="translate(-30.745 -22.276)"/></g><g class="m" transform="translate(4.087 3.222)"><path class="b" d="M61.735,94.832h0a4.393,4.393,0,0,1-3.487-1.721,39.447,39.447,0,0,0-4.535-1.983c-4.449-1.762-9.986-3.955-14.284-7.686a17.174,17.174,0,0,1-5.635-18.5c3.574-13.121,2.7-19.3,1.855-21.823l-.766-1.95c-.617-1.572-3-5.926-1.854-7.164L38.8,27.791a4.32,4.32,0,0,1,3.076-1.463,4.236,4.236,0,0,1,3.1,1.2,7.637,7.637,0,0,0,5.816,1.361c4.884-.752,5.65-1.838,6.92-3.637.156-.221.313-.443.475-.665a4.394,4.394,0,0,1,7.1,0c.161.222.319.445.475.666,1.269,1.8,2.036,2.885,6.92,3.636a7.561,7.561,0,0,0,5.788-1.333,4.393,4.393,0,0,1,6.2.238l5.768,6.216a4.394,4.394,0,0,1-1.426,7c-.443.406-4.541,4.835.663,23.937a17.174,17.174,0,0,1-5.636,18.5c-4.3,3.732-9.836,5.924-14.284,7.686a39.51,39.51,0,0,0-4.535,1.983A4.393,4.393,0,0,1,61.735,94.832Zm3.819-2.221v0Zm-7.638,0,0,0ZM42.373,36.855c2.726,4.309,4.638,13-.1,30.4C40.216,74.8,45.6,78.464,56.949,82.959c1.869.74,3.463,1.371,4.786,2.047,1.323-.675,2.919-1.307,4.786-2.047C77.869,78.464,83.255,74.8,81.2,67.253c-4.739-17.4-2.827-26.089-.1-30.4l-.441-.475a16.545,16.545,0,0,1-9.311,1.19c-4.794-.738-7.618-2.049-9.61-3.688-1.991,1.639-4.815,2.95-9.609,3.688a16.548,16.548,0,0,1-9.311-1.19Zm46.248,4.3-.033.011Zm.007,0-.006,0Zm.424-.184Z" transform="translate(-32.721 -22.776)"/></g><g class="n" transform="translate(3.515 3.515)"><path class="b" d="M61.331,94.746h0A4.1,4.1,0,0,1,58.046,93.1a37.621,37.621,0,0,0-4.629-2.036c-4.428-1.754-9.939-3.937-14.2-7.635a16.9,16.9,0,0,1-5.544-18.2c5.267-19.337.95-24.111.9-24.128a4.1,4.1,0,0,1-1.729-6.686L38.608,28.2a4.034,4.034,0,0,1,2.869-1.361,3.954,3.954,0,0,1,2.9,1.115,7.889,7.889,0,0,0,6.056,1.431c5.008-.771,5.8-1.895,7.115-3.757.155-.22.312-.441.472-.661a4.1,4.1,0,0,1,6.63,0c.161.22.317.442.473.662,1.315,1.862,2.108,2.986,7.115,3.757a7.87,7.87,0,0,0,6.032-1.408,4.1,4.1,0,0,1,5.788.223l5.768,6.216a4.1,4.1,0,0,1-1.366,6.548c-.422.359-4.794,4.7.534,24.267a16.9,16.9,0,0,1-5.545,18.2c-4.261,3.7-9.772,5.882-14.2,7.635A37.533,37.533,0,0,0,64.616,93.1,4.1,4.1,0,0,1,61.331,94.746Zm3.564-2.073,0,0Zm-7.129,0,0,0ZM41.606,37.023c2.747,4.162,4.774,12.757-.02,30.36-2.114,7.763,3.343,11.5,14.852,16.055,1.927.763,3.559,1.41,4.894,2.1,1.336-.695,2.968-1.342,4.894-2.1,11.509-4.558,16.966-8.293,14.852-16.055-4.794-17.6-2.768-26.2-.021-30.36l-.732-.788a16.239,16.239,0,0,1-9.339,1.253c-4.877-.751-7.685-2.1-9.654-3.785-1.968,1.684-4.776,3.034-9.654,3.785a16.248,16.248,0,0,1-9.34-1.253ZM88.1,41.1l-.008,0Zm.016-.005L88.1,41.1Zm.007,0-.007,0Zm.006,0,0,0Z" transform="translate(-31.745 -23.276)"/></g><g class="o" transform="translate(3.808 3.808)"><path class="b" d="M61.538,94.66h0a3.808,3.808,0,0,1-3.08-1.569A35.769,35.769,0,0,0,53.732,91c-4.407-1.746-9.893-3.918-14.116-7.584a16.621,16.621,0,0,1-5.453-17.9c5.427-19.926.76-24.466.705-24.483a3.808,3.808,0,0,1-1.606-6.209L39.03,28.6a3.754,3.754,0,0,1,2.662-1.259,3.615,3.615,0,0,1,2.694,1.033,8.167,8.167,0,0,0,6.3,1.5c5.131-.79,6-2.018,7.31-3.877.154-.219.309-.439.469-.658a3.809,3.809,0,0,1,6.157,0c.161.22.315.44.47.66,1.312,1.859,2.18,3.087,7.309,3.877A8.187,8.187,0,0,0,78.671,28.4a3.808,3.808,0,0,1,5.375.207l5.769,6.216a3.808,3.808,0,0,1-1.3,6.094c-.4.317-5.053,4.579.4,24.6a16.621,16.621,0,0,1-5.454,17.9C79.237,87.08,73.752,89.252,69.344,91a35.84,35.84,0,0,0-4.726,2.093A3.808,3.808,0,0,1,61.538,94.66Zm3.31-1.926,0,0Zm-6.62,0,0,0ZM41.446,37.2c2.767,4.008,4.918,12.5.064,30.318-2.381,8.741,5.057,12.456,15.026,16.405a51.857,51.857,0,0,1,5,2.163,51.923,51.923,0,0,1,5-2.163c9.971-3.949,17.407-7.664,15.027-16.405-4.854-17.822-2.7-26.31.063-30.318L80.6,36.087a15.935,15.935,0,0,1-9.365,1.318c-4.967-.765-7.752-2.156-9.7-3.889-1.945,1.732-4.732,3.124-9.7,3.889a15.955,15.955,0,0,1-9.366-1.318Zm46.769,3.831-.006,0Zm.006,0-.006,0Zm.006,0h0Z" transform="translate(-32.245 -23.776)"/></g><g class="p" transform="translate(3.852 4.101)"><path class="b" d="M61.569,94.575h0A3.513,3.513,0,0,1,58.7,93.087a33.848,33.848,0,0,0-4.826-2.154c-8.278-3.278-23.687-9.381-19.4-25.137,5.315-19.515,1.074-24.229.34-24.868a3.055,3.055,0,0,1-2.346-2.2,3.534,3.534,0,0,1,1.038-3.5l5.768-6.217a3.514,3.514,0,0,1,4.961-.19,8.436,8.436,0,0,0,6.519,1.556c5.254-.808,6.149-2.077,7.5-4,.154-.218.308-.436.467-.654a3.515,3.515,0,0,1,5.683,0c.159.219.313.437.468.656,1.355,1.92,2.251,3.189,7.5,4a8.413,8.413,0,0,0,6.556-1.59,3.471,3.471,0,0,1,4.924.225l5.768,6.217a3.534,3.534,0,0,1,1.037,3.5,3.055,3.055,0,0,1-2.346,2.2c-.735.639-4.975,5.353.34,24.868,4.291,15.755-11.117,21.858-19.4,25.137a33.829,33.829,0,0,0-4.827,2.154A3.515,3.515,0,0,1,61.569,94.575ZM64.624,92.8l0,0Zm-6.111,0,0,0ZM41.108,37.371c2.783,3.845,5.069,12.215.151,30.272C38.819,76.6,46.7,80.531,56.46,84.4a49.041,49.041,0,0,1,5.109,2.224,49.3,49.3,0,0,1,5.11-2.224c9.761-3.866,17.641-7.795,15.2-16.754-4.918-18.057-2.633-26.428.151-30.272L80.7,35.932a15.994,15.994,0,0,1-9.384,1.391c-5.061-.779-7.821-2.216-9.743-4-1.922,1.784-4.682,3.22-9.743,4a15.988,15.988,0,0,1-9.384-1.391Zm-6.118,3.586Zm53.158,0Z" transform="translate(-32.321 -24.276)"/></g><g class="q" transform="translate(4.19 4.394)"><path class="b" d="M61.808,94.489h0a3.222,3.222,0,0,1-2.659-1.4,32.083,32.083,0,0,0-4.931-2.218C46.025,87.623,30.775,81.583,35,66.08c4.831-17.736,1.886-24.113.21-25.215a2.837,2.837,0,0,1-2.178-2.051,3.234,3.234,0,0,1,.932-3.183l5.768-6.216a3.22,3.22,0,0,1,4.548-.175,8.709,8.709,0,0,0,6.762,1.63c5.376-.827,6.351-2.208,7.7-4.118.153-.217.306-.435.464-.651a3.223,3.223,0,0,1,5.21,0c.158.217.312.435.465.653,1.349,1.91,2.323,3.291,7.7,4.118a8.662,8.662,0,0,0,6.762-1.63,3.222,3.222,0,0,1,4.548.175l5.768,6.216a3.234,3.234,0,0,1,.932,3.183,2.836,2.836,0,0,1-2.178,2.051c-1.675,1.1-4.62,7.478.211,25.215,4.223,15.5-11.027,21.543-19.221,24.787a32.076,32.076,0,0,0-4.931,2.219A3.222,3.222,0,0,1,61.808,94.489Zm2.8-1.629,0,0Zm-5.6,0,0,0ZM40.931,37.594a13.6,13.6,0,0,1,2.013,3.941c1.98,5.927,1.4,14.754-1.73,26.238-2.5,9.193,5.482,13.184,15.376,17.1a46.5,46.5,0,0,1,5.217,2.287,46.51,46.51,0,0,1,5.218-2.287c9.894-3.919,17.88-7.91,15.376-17.1-3.128-11.484-3.71-20.311-1.731-26.238a13.622,13.622,0,0,1,2.014-3.941l-1.694-1.825a15.423,15.423,0,0,1-9.4,1.471c-5.16-.794-7.889-2.278-9.788-4.116-1.9,1.838-4.627,3.323-9.788,4.116a15.426,15.426,0,0,1-9.4-1.471ZM35.32,40.885h0Zm52.976,0Z" transform="translate(-32.897 -24.776)"/></g><g class="r" transform="translate(4.522 4.686)"><path class="b" d="M62.043,94.4h0A2.93,2.93,0,0,1,59.6,93.091a30.119,30.119,0,0,0-5.04-2.288c-8.108-3.211-23.2-9.188-19.046-24.439,4.935-18.119,1.786-24.517.043-25.567a2.616,2.616,0,0,1-1.977-1.886,2.935,2.935,0,0,1,.83-2.873l5.768-6.217a2.929,2.929,0,0,1,4.135-.159,8.976,8.976,0,0,0,7.006,1.705c5.5-.847,6.5-2.27,7.893-4.24.152-.216.305-.432.462-.648a2.929,2.929,0,0,1,4.736,0c.158.216.311.433.463.648,1.39,1.97,2.395,3.392,7.893,4.239a8.979,8.979,0,0,0,7.005-1.705,2.93,2.93,0,0,1,4.135.159l5.768,6.217a2.935,2.935,0,0,1,.83,2.873A2.614,2.614,0,0,1,88.528,40.8c-1.743,1.049-4.892,7.447.043,25.567C92.726,81.614,77.634,87.591,69.526,90.8a30.14,30.14,0,0,0-5.041,2.288A2.93,2.93,0,0,1,62.043,94.4Zm2.546-1.481v0Zm-5.092,0,0,0ZM40.783,37.783A13.122,13.122,0,0,1,42.9,41.835c1.962,5.871,1.378,14.641-1.734,26.068C38.6,77.33,46.691,81.385,56.717,85.356a43.628,43.628,0,0,1,5.326,2.351,43.749,43.749,0,0,1,5.326-2.351C77.4,81.385,85.487,77.33,82.92,67.9c-3.112-11.427-3.7-20.2-1.735-26.068A13.147,13.147,0,0,1,83.3,37.783l-2.011-2.168a15.135,15.135,0,0,1-9.416,1.542c-5.3-.817-7.954-2.31-9.832-4.228-1.878,1.919-4.528,3.411-9.832,4.228A15.136,15.136,0,0,1,42.8,35.616Zm-5.137,3.031Zm52.794,0Z" transform="translate(-33.464 -25.276)"/></g><g class="s" transform="translate(4.98 4.979)"><path class="b" d="M62.366,94.317h0A2.637,2.637,0,0,1,60.146,93.1a28.307,28.307,0,0,0-5.154-2.364c-8.022-3.178-22.955-9.092-18.87-24.089,5.991-21.994,0-25.884-.06-25.905a2.636,2.636,0,0,1-1.112-4.3l5.768-6.217a2.637,2.637,0,0,1,3.722-.143,9.263,9.263,0,0,0,7.249,1.78c5.621-.865,6.657-2.332,8.088-4.36.152-.214.3-.429.46-.644a2.637,2.637,0,0,1,4.262,0c.157.215.309.43.46.645,1.432,2.029,2.466,3.494,8.088,4.36a9.289,9.289,0,0,0,7.249-1.78,2.636,2.636,0,0,1,3.721.143l5.768,6.217a2.637,2.637,0,0,1,.731,2.568,2.385,2.385,0,0,1-1.775,1.716c-1.811,1-5.165,7.426-.128,25.919,4.085,15-10.849,20.912-18.871,24.089A28.4,28.4,0,0,0,64.587,93.1,2.635,2.635,0,0,1,62.366,94.317Zm2.291-1.333v0Zm-4.583,0,0,0ZM40.721,37.976a12.681,12.681,0,0,1,2.227,4.159c1.942,5.815,1.357,14.529-1.74,25.9-2.631,9.661,5.565,13.777,15.726,17.8a41.064,41.064,0,0,1,5.433,2.418A41.146,41.146,0,0,1,67.8,85.835c10.16-4.024,18.357-8.141,15.726-17.8-3.1-11.37-3.682-20.083-1.739-25.9a12.651,12.651,0,0,1,2.227-4.159l-2.336-2.517a14.845,14.845,0,0,1-9.433,1.617c-5.418-.834-8.02-2.38-9.877-4.365-1.857,1.985-4.46,3.531-9.877,4.365a14.836,14.836,0,0,1-9.434-1.616Zm47.952,2.767Z" transform="translate(-34.245 -25.776)"/></g><g class="t" transform="translate(5.273 5.272)"><path class="b" d="M62.574,94.231h0a2.344,2.344,0,0,1-1.994-1.112c-.572-.585-3.285-1.66-5.273-2.448-7.938-3.143-22.713-9-18.7-23.739,6.162-22.622-.184-26.238-.252-26.26a2.343,2.343,0,0,1-.988-3.821l5.768-6.216a2.343,2.343,0,0,1,3.308-.128,9.522,9.522,0,0,0,7.492,1.854c5.745-.884,6.865-2.472,8.283-4.481.15-.213.3-.427.456-.64a2.344,2.344,0,0,1,3.789,0c.156.214.307.428.458.642,1.418,2.009,2.538,3.6,8.282,4.48A9.621,9.621,0,0,0,80.7,30.507a2.343,2.343,0,0,1,3.307.128l5.768,6.216a2.343,2.343,0,0,1,.637,2.268,2.149,2.149,0,0,1-1.562,1.538c-.6.353-6.282,4.367-.315,26.275,4.016,14.744-10.76,20.6-18.7,23.74-1.989.787-4.7,1.862-5.273,2.448A2.345,2.345,0,0,1,62.574,94.231Zm2.037-1.185h0Zm-4.073,0v0Zm-20-54.872c2.741,3.115,5.792,10.914.6,29.989-2.691,9.881,5.985,14.224,15.9,18.151A38.523,38.523,0,0,1,62.574,88.8a38.582,38.582,0,0,1,5.541-2.488c9.915-3.927,18.592-8.27,15.9-18.151-5.195-19.073-2.145-26.874.6-29.989L81.945,35.3A14.527,14.527,0,0,1,72.5,36.993c-5.537-.852-8.084-2.456-9.922-4.513-1.837,2.056-4.384,3.66-9.921,4.513A14.537,14.537,0,0,1,43.2,35.3Zm48.252,2.5Z" transform="translate(-34.746 -26.276)"/></g><g class="u" transform="translate(5.491 5.565)"><path class="b" d="M62.728,94.146h0a2.051,2.051,0,0,1-1.761-1c-.524-.609-3.339-1.723-5.4-2.54-8.4-3.328-22.469-8.9-18.522-23.39,6.111-22.437.05-26.332-.49-26.627a1.9,1.9,0,0,1-1.364-1.359,2.047,2.047,0,0,1,.547-1.972l5.768-6.217a2.051,2.051,0,0,1,2.894-.111,9.809,9.809,0,0,0,7.736,1.928c5.868-.9,7.02-2.535,8.478-4.6.149-.211.3-.424.454-.637a2.05,2.05,0,0,1,3.315,0c.155.213.306.425.456.638,1.458,2.066,2.61,3.7,8.477,4.6a9.953,9.953,0,0,0,7.736-1.928,2.05,2.05,0,0,1,2.894.111l5.769,6.217a2.049,2.049,0,0,1,.546,1.972A1.9,1.9,0,0,1,88.9,40.589c-.541.3-6.6,4.19-.49,26.627,3.947,14.492-10.118,20.062-18.522,23.391-2.06.815-4.874,1.93-5.4,2.539A2.051,2.051,0,0,1,62.728,94.146Zm1.782-1.037-.005.011Zm-3.564,0,.006.011ZM40.3,38.372c2.721,2.889,6,10.481.7,29.922-2.755,10.115,6.032,14.523,16.075,18.5a36.035,36.035,0,0,1,5.648,2.56,36.082,36.082,0,0,1,5.65-2.56c10.043-3.978,18.83-8.386,16.075-18.5-5.3-19.44-2.016-27.033.7-29.922l-3-3.234a14.227,14.227,0,0,1-9.461,1.773c-5.884-.906-8.361-2.745-9.966-4.644-1.605,1.9-4.081,3.739-9.966,4.644A14.234,14.234,0,0,1,43.3,35.138ZM36.6,40.6h0Zm52.247,0Z" transform="translate(-35.118 -26.776)"/></g><g class="v" transform="translate(5.858 5.858)"><path class="b" d="M62.983,94.067h0a1.756,1.756,0,0,1-1.516-.885c-.466-.636-3.392-1.795-5.53-2.641-8.312-3.292-22.225-8.8-18.346-23.041,6.4-23.515-.561-26.947-.634-26.971a1.758,1.758,0,0,1-.742-2.866l5.768-6.216a1.757,1.757,0,0,1,2.481-.1,10.088,10.088,0,0,0,7.979,2c5.991-.923,7.234-2.683,8.672-4.722.149-.211.3-.422.452-.634a1.758,1.758,0,0,1,2.842,0c.155.211.3.424.453.634,1.439,2.039,2.681,3.8,8.671,4.722a10.062,10.062,0,0,0,7.979-2,1.758,1.758,0,0,1,2.481.1l5.768,6.216a1.756,1.756,0,0,1,.46,1.681,1.652,1.652,0,0,1-1.168,1.176c-.477.243-6.921,4.02-.667,26.98,3.878,14.239-10.034,19.749-18.348,23.041-2.143.849-5.078,2.011-5.533,2.646A1.743,1.743,0,0,1,62.983,94.067ZM40.162,38.577c2.685,2.643,6.227,10,.82,29.847-2.819,10.348,6.078,14.821,16.249,18.85a33.483,33.483,0,0,1,5.757,2.637,33.546,33.546,0,0,1,5.757-2.637c10.172-4.029,19.069-8.5,16.25-18.85-5.406-19.85-1.866-27.2.819-29.847l-3.344-3.6A13.912,13.912,0,0,1,73,36.828c-6.06-.933-8.441-2.865-10.011-4.817-1.569,1.953-3.951,3.884-10.011,4.817a13.913,13.913,0,0,1-9.471-1.855Z" transform="translate(-35.745 -27.276)"/></g><g class="w" transform="translate(6.151 6.151)"><path class="b" d="M63.195,93.952a1.485,1.485,0,0,1-1.273-.719c-.395-.668-3.443-1.876-5.67-2.757C48.031,87.22,34.27,81.77,38.08,67.784c6.475-23.772-.75-27.3-.826-27.326a1.465,1.465,0,0,1-.618-2.388L42.4,31.853a1.465,1.465,0,0,1,2.067-.079,10.362,10.362,0,0,0,8.222,2.077c6.115-.941,7.391-2.749,8.867-4.843.148-.21.3-.42.45-.63a1.465,1.465,0,0,1,2.368,0c.153.21.3.421.45.632,1.477,2.093,2.754,3.9,8.867,4.842a10.386,10.386,0,0,0,8.222-2.077,1.465,1.465,0,0,1,2.068.079l5.768,6.217a1.465,1.465,0,0,1-.617,2.388c-.034.015-7.382,3.257-.826,27.326C92.12,81.77,78.36,87.22,70.139,90.476c-2.227.882-5.275,2.09-5.671,2.757A1.484,1.484,0,0,1,63.195,93.952ZM39.963,38.792c2.63,2.376,6.477,9.445.943,29.763-2.882,10.581,6.125,15.119,16.425,19.2a30.966,30.966,0,0,1,5.864,2.72,31,31,0,0,1,5.865-2.72c10.3-4.079,19.307-8.617,16.424-19.2-5.534-20.318-1.687-27.387.943-29.763l-3.7-3.988a13.584,13.584,0,0,1-9.477,1.942c-6.283-.967-8.481-2.937-10.055-5-1.572,2.063-3.771,4.033-10.055,5A13.6,13.6,0,0,1,43.663,34.8Z" transform="translate(-36.245 -27.776)"/></g><g class="x" transform="translate(6.456 6.444)"><path class="b" d="M63.411,93.888h0a1.171,1.171,0,0,1-1.018-.593c-.426-.75-3.29-1.883-5.817-2.885-8.131-3.22-21.737-8.609-18-22.342,6.655-24.433-.966-27.661-1.044-27.691a1.2,1.2,0,0,1-.736-.834,1.173,1.173,0,0,1,.268-1.068l5.768-6.216a1.171,1.171,0,0,1,1.654-.064,10.637,10.637,0,0,0,8.466,2.152c6.237-.96,7.546-2.815,9.062-4.963.147-.209.295-.418.447-.627a1.172,1.172,0,0,1,1.895,0c.152.21.3.419.448.628,1.516,2.148,2.825,4,9.062,4.962a10.64,10.64,0,0,0,8.469-2.155,1.176,1.176,0,0,1,1.65.067l5.769,6.216a1.171,1.171,0,0,1-.494,1.91c-.052.021-7.671,3.249-1.016,27.682,3.741,13.733-9.867,19.122-18,22.343-2.526,1-5.39,2.134-5.817,2.884A1.173,1.173,0,0,1,63.411,93.888ZM39.74,39.04A9.964,9.964,0,0,1,42.6,43.635c1.849,5.535,1.255,13.963-1.764,25.049-3.189,11.71,8.248,16.24,16.6,19.548a28.35,28.35,0,0,1,5.972,2.809,28.386,28.386,0,0,1,5.973-2.809c8.351-3.308,19.789-7.838,16.6-19.548C82.963,57.6,82.37,49.17,84.219,43.635a9.964,9.964,0,0,1,2.862-4.595L82.99,34.631a13.274,13.274,0,0,1-9.48,2.032c-6.483-1-8.538-3.074-10.1-5.2-1.562,2.127-3.617,4.2-10.1,5.2a13.284,13.284,0,0,1-9.48-2.032Z" transform="translate(-36.766 -28.276)"/></g><g transform="translate(6.744 6.757)"><path class="b" d="M63.614,93.817h0a.878.878,0,0,1-.763-.445c-.477-.839-3.267-1.944-5.964-3.012-8.039-3.184-21.494-8.513-17.822-21.993,6.753-24.8-1.142-28.012-1.223-28.042a.89.89,0,0,1-.559-.623.881.881,0,0,1,.2-.805l5.768-6.216a.879.879,0,0,1,1.241-.047A10.912,10.912,0,0,0,53.2,34.859c6.36-.979,7.7-2.881,9.257-5.084.146-.207.293-.415.444-.623a.911.911,0,0,1,1.421,0c.152.208.3.417.445.624,1.554,2.2,2.9,4.1,9.256,5.083a10.9,10.9,0,0,0,8.71-2.228.882.882,0,0,1,1.238.05L89.743,38.9a.879.879,0,0,1-.371,1.433c-.066.025-7.962,3.241-1.209,28.037,3.672,13.48-9.784,18.809-17.822,21.994-2.7,1.068-5.487,2.173-5.964,3.012A.879.879,0,0,1,63.614,93.817ZM39.512,39.3c2.338,1.795,7.051,8.229,1.248,29.532-3.259,11.963,8.8,16.738,16.774,19.9,2.745,1.087,4.9,1.939,6.08,2.914,1.185-.975,3.336-1.827,6.081-2.914,7.977-3.159,20.032-7.934,16.774-19.9-5.8-21.3-1.09-27.737,1.248-29.532l-4.48-4.828A12.933,12.933,0,0,1,73.758,36.6c-6.694-1.03-8.579-3.221-10.145-5.411-1.565,2.19-3.45,4.381-10.144,5.411a12.942,12.942,0,0,1-9.478-2.128Z" transform="translate(-37.257 -28.811)"/></g><g transform="translate(7.091 7.101)"><path class="y" d="M63.859,93.708h0a.527.527,0,0,1-.458-.267c-.538-.946-3.135-1.975-6.139-3.165-8.443-3.344-21.2-8.4-17.613-21.574,6.872-25.231-1.36-28.436-1.444-28.465a.531.531,0,0,1-.217-.858l5.768-6.216a.529.529,0,0,1,.743-.029,11.435,11.435,0,0,0,9,2.316c6.507-1,7.956-3.055,9.49-5.228.145-.206.291-.413.442-.619a.547.547,0,0,1,.852,0c.151.207.3.414.442.62,1.534,2.173,2.982,4.226,9.49,5.228a11.464,11.464,0,0,0,9-2.316.53.53,0,0,1,.744.029l5.768,6.216a.528.528,0,0,1-.223.86c-.078.028-8.31,3.233-1.438,28.463,3.589,13.177-9.17,18.23-17.612,21.574-3.006,1.19-5.6,2.218-6.14,3.165A.528.528,0,0,1,63.859,93.708ZM39.231,39.589c2.054,1.32,7.512,7.08,1.435,29.39C37.325,81.246,49.556,86.09,57.649,89.3c2.919,1.156,5.153,2.041,6.21,3.054,1.057-1.013,3.291-1.9,6.21-3.054,8.094-3.206,20.325-8.05,16.984-20.317-6.077-22.311-.62-28.07,1.434-29.39l-4.96-5.346a12.518,12.518,0,0,1-9.47,2.248c-6.949-1.07-8.6-3.4-10.191-5.661l-.007-.011-.006.009c-1.593,2.258-3.241,4.592-10.192,5.662a12.513,12.513,0,0,1-9.47-2.248Z" transform="translate(-37.849 -29.397)"/></g><g transform="translate(7.44 7.444)"><path class="z" d="M64.106,93.6h0a.175.175,0,0,1-.152-.088c-.6-1.054-3.123-2.053-6.316-3.319-8.327-3.3-20.909-8.281-17.4-21.154,6.99-25.667-1.582-28.861-1.669-28.89a.177.177,0,0,1-.115-.123.174.174,0,0,1,.042-.163l5.768-6.217a.176.176,0,0,1,.248-.009,11.807,11.807,0,0,0,9.293,2.4c6.656-1.025,8.146-3.137,9.724-5.373.145-.2.289-.41.439-.615a.182.182,0,0,1,.284,0c.15.205.295.411.439.616,1.579,2.236,3.07,4.348,9.724,5.372a11.815,11.815,0,0,0,9.293-2.4.176.176,0,0,1,.248.009l5.769,6.217a.176.176,0,0,1-.073.286c-.088.029-8.659,3.224-1.669,28.89,3.507,12.873-9.077,17.857-17.4,21.155-3.193,1.265-5.716,2.264-6.316,3.318A.176.176,0,0,1,64.106,93.6ZM38.921,39.916c1.436.691,8.164,5.309,1.653,29.214C37.151,81.7,49.557,86.614,57.767,89.866c3.046,1.206,5.494,2.176,6.339,3.246.846-1.07,3.293-2.04,6.34-3.246,8.21-3.252,20.617-8.166,17.194-20.736-6.511-23.905.216-28.523,1.652-29.214l-5.483-5.909a12.251,12.251,0,0,1-9.451,2.38c-6.8-1.047-8.334-3.218-9.957-5.517l-.294-.415c-.1.138-.2.277-.293.414-1.622,2.3-3.155,4.47-9.958,5.518a12.254,12.254,0,0,1-9.451-2.38Z" transform="translate(-38.446 -29.984)"/></g></g><path class="aa" d="M47.742,2.787,21.471,29.058a7.976,7.976,0,0,0-7.729,1.275,8.055,8.055,0,0,0-4.646-.8,8.465,8.465,0,0,0-4.02,1.711A10.266,10.266,0,0,0,1.131,37.2,10.024,10.024,0,0,0,2.58,44.96l.846,1.249-2.24,2.24a4.051,4.051,0,0,0,5.728,5.728L18.769,42.322a9.371,9.371,0,0,0,8.195,2.309l1.731-.346-1.3-1.189c-.019-.017-1-.911-2.053-1.887a7.968,7.968,0,0,0,.968-7.317L52.577,7.621A9.451,9.451,0,0,0,55.364.893V0h-.893a9.451,9.451,0,0,0-6.728,2.787ZM7.036,41.982a4.712,4.712,0,0,1-.785-2.654A4.561,4.561,0,0,1,8.068,35.7l.446-.334a2.689,2.689,0,0,1,1.607-.536h0a2.719,2.719,0,0,1,1.906.791l.995.995L7.283,42.353Zm7.252-4.108,3.2,3.2L8.037,50.529l-3.2-3.2ZM4.05,53.578a2.264,2.264,0,0,1-1.6-3.865L3.572,48.59l3.2,3.2L5.651,52.915A2.25,2.25,0,0,1,4.05,53.578ZM19.736,40.8l-6.444-6.444a4.513,4.513,0,0,0-3.167-1.314h0a4.491,4.491,0,0,0-2.679.892L7,34.266a6.454,6.454,0,0,0-1.448,8.706l.446.67L4.713,44.924l-.65-.96a8.252,8.252,0,0,1-1.186-6.388,8.527,8.527,0,0,1,3.312-4.936A6.63,6.63,0,0,1,9.316,31.3a6.267,6.267,0,0,1,5.236,1.785l7.14,7.14c.547.547,1.89,1.794,2.967,2.786A7.6,7.6,0,0,1,19.736,40.8Zm3.219-1.831-7.14-7.14c-.156-.156-.324-.3-.49-.438a6.244,6.244,0,0,1,8.688,8.588C23.566,39.558,23.184,39.194,22.955,38.966ZM51.314,6.359,25.466,32.206A8.1,8.1,0,0,0,23.157,29.9L49,4.05A7.676,7.676,0,0,1,53.52,1.843a7.676,7.676,0,0,1-2.207,4.516Z" transform="translate(11.581 6.185) rotate(7)"/></svg>