<svg xmlns="http://www.w3.org/2000/svg" width="89.973" height="91.506" viewBox="0 0 89.973 91.506"><defs><style>.a{fill:#53fffa;}</style></defs><g transform="translate(0 0)"><path class="a" d="M128.211,108.473a1.737,1.737,0,1,0-1.737,1.737A1.738,1.738,0,0,0,128.211,108.473Z" transform="translate(-89.442 -77.579)"/><path class="a" d="M90.473,34.21a1.738,1.738,0,1,0-1.737-1.737A1.738,1.738,0,0,0,90.473,34.21Z" transform="translate(-67.253 -30.735)"/><path class="a" d="M34.473,130.735a1.738,1.738,0,1,0,1.737,1.738A1.738,1.738,0,0,0,34.473,130.735Z" transform="translate(-32.736 -92.372)"/><path class="a" d="M60.472,155.679a9.207,9.207,0,1,0-9.207-9.207A9.217,9.217,0,0,0,60.472,155.679Zm0-15.345a6.138,6.138,0,1,1-6.138,6.138A6.144,6.144,0,0,1,60.472,140.334Z" transform="translate(-44.157 -96.397)"/><path class="a" d="M228.472,137.265a9.207,9.207,0,1,0,9.207,9.207A9.217,9.217,0,0,0,228.472,137.265Zm0,15.345a6.138,6.138,0,1,1,6.138-6.138A6.144,6.144,0,0,1,228.472,152.61Z" transform="translate(-147.708 -96.397)"/><path class="a" d="M124.921,117.714a9.214,9.214,0,0,0-9.069,7.673H101.764a9.2,9.2,0,0,0-18.137,0H69.54a9.149,9.149,0,0,0-1.572-3.792l19.4-19.4A9.193,9.193,0,0,0,100.192,89.37l19.4-19.4a9.2,9.2,0,1,0-3.742-9.031H101.764a9.2,9.2,0,0,0-18.137,0H69.54a9.207,9.207,0,1,0,0,3.069H83.627a9.2,9.2,0,0,0,18.137,0h14.088a9.148,9.148,0,0,0,1.572,3.792l-19.4,19.4A9.193,9.193,0,0,0,85.2,100.023l-19.4,19.4a9.2,9.2,0,1,0,3.742,9.031H83.628a9.2,9.2,0,0,0,18.137,0h14.088a9.2,9.2,0,1,0,9.067-10.742ZM60.471,68.61a6.138,6.138,0,1,1,6.138-6.138A6.144,6.144,0,0,1,60.471,68.61Zm32.225,0a6.138,6.138,0,1,1,6.138-6.138A6.144,6.144,0,0,1,92.7,68.61Zm32.225-12.276a6.138,6.138,0,1,1-6.138,6.138,6.144,6.144,0,0,1,6.138-6.138ZM92.7,88.559A6.138,6.138,0,1,1,86.558,94.7,6.144,6.144,0,0,1,92.7,88.559Zm-32.225,44.5a6.138,6.138,0,1,1,6.138-6.138A6.144,6.144,0,0,1,60.471,133.059Zm32.225,0a6.138,6.138,0,1,1,6.138-6.138A6.144,6.144,0,0,1,92.7,133.059Zm32.225,0a6.138,6.138,0,1,1,6.138-6.138,6.144,6.144,0,0,1-6.138,6.138Z" transform="translate(-44.156 -44.622)"/></g></svg>