<svg width="60" height="61" viewBox="0 0 60 61" fill="none" xmlns="http://www.w3.org/2000/svg">
<g clip-path="url(#clip0_1411_6635)">
<path d="M51.8763 8.31561C43.4174 8.31561 34.6512 0.474741 34.5644 0.39619C33.9817 -0.132063 33.0936 -0.132063 32.5111 0.39619C32.4237 0.475352 23.6805 8.31561 15.1991 8.31561C14.3551 8.31561 13.6709 8.99985 13.6709 9.84383V28.1456C13.6709 42.9717 24.6981 48.8961 32.9927 52.0627C33.1682 52.1297 33.3529 52.1631 33.5377 52.1631C33.7225 52.1631 33.9072 52.1296 34.0828 52.0627C45.7129 47.6227 53.4045 40.6969 53.4045 28.1456V9.84383C53.4045 8.99985 52.7203 8.31561 51.8763 8.31561Z" fill="url(#paint0_linear_1411_6635)"/>
</g>
<g clip-path="url(#clip1_1411_6635)">
<path d="M36.9963 16.8346C31.6294 17.8869 26.3122 21.1016 22.7508 25.1756L8.2124 41.6827L12.9728 46.3498L29.8101 32.0965C33.9656 28.6049 37.2446 23.392 38.3179 18.1303C38.4653 17.4079 37.7331 16.6901 36.9963 16.8346Z" fill="url(#paint1_linear_1411_6635)"/>
<path d="M16.2129 47.8492L6.68274 38.5059C6.24374 38.0755 5.53331 38.0755 5.09439 38.5059C4.65539 38.9363 4.65539 39.6328 5.09439 40.0631L7.47696 42.399L0.329251 49.4064C-0.10975 49.8368 -0.10975 50.5333 0.329251 50.9637L3.50596 54.0781C3.94496 54.5085 4.65539 54.5085 5.09431 54.0781L12.2419 47.0706L14.6245 49.4064C15.0635 49.8368 15.7739 49.8368 16.2129 49.4064C16.6519 48.9761 16.6519 48.2796 16.2129 47.8492Z" fill="url(#paint2_linear_1411_6635)"/>
</g>
<g clip-path="url(#clip2_1411_6635)">
<path d="M40.6368 44.8131L40.4269 46.041C40.3317 46.6059 40.5734 47.1934 41.0416 47.5348C41.5448 47.905 42.2097 47.9146 42.6577 47.6609L43.7723 47.0854L44.8553 47.6435C45.375 47.944 46.0438 47.8927 46.5016 47.5363C46.9713 47.1934 47.213 46.6059 47.1178 46.0387L46.9079 44.8123L47.7793 43.9515C48.2158 43.5437 48.3759 42.9153 48.1871 42.3543C48.0089 41.812 47.5271 41.402 46.9501 41.3061L45.7101 41.1188L45.1604 40.0079C44.9066 39.5012 44.375 39.1863 43.7723 39.1863C43.1697 39.1863 42.6381 39.5012 42.3828 40.0109L41.8346 41.1188L40.5825 41.3083C40.0176 41.4019 39.5358 41.812 39.3591 42.3505C39.1688 42.9153 39.3289 43.5437 39.7488 43.9363L40.6368 44.8131ZM53.6696 55.6959L49.6491 50.3447C49.4663 50.1001 49.1613 49.9852 48.8577 50.0555C48.5601 50.1242 48.3305 50.3614 48.2717 50.6612C48.2218 50.9172 48.1327 51.0984 48.0345 51.1558C47.8457 51.2623 47.2401 51.22 46.1783 50.3984C45.988 50.2512 45.7343 50.1983 45.5062 50.2632C45.2721 50.3259 45.0818 50.4936 44.9896 50.7171C44.5471 51.8007 44.0472 52.2939 43.7723 52.2939C43.4974 52.2939 42.9975 51.8007 42.555 50.717C42.4628 50.4935 42.2725 50.3259 42.0384 50.2632C41.8073 50.1982 41.5551 50.2511 41.3663 50.3983C40.3061 51.2192 39.7034 51.263 39.5161 51.1588C39.4119 51.0984 39.3228 50.9171 39.2729 50.6612C39.214 50.3614 38.9844 50.1242 38.6869 50.0555C38.3788 49.9853 38.0782 50.1001 37.8955 50.3447L33.875 55.6959C33.6983 55.93 33.6696 56.2434 33.801 56.5062C33.9324 56.7683 34.1997 56.9336 34.4927 56.9336H37.1086L38.4408 59.5994C38.56 59.8388 38.7957 59.9997 39.063 60.0238C39.3125 60.0488 39.5823 59.9419 39.7517 59.7172L43.7722 54.3565L47.7928 59.7172C47.9623 59.9421 48.2325 60.0487 48.4815 60.0238C48.7488 59.9996 48.9844 59.8388 49.1037 59.5994L50.436 56.9336H53.0519C53.3449 56.9336 53.6122 56.7683 53.7436 56.5062C53.875 56.2434 53.8463 55.93 53.6696 55.6959Z" fill="url(#paint3_linear_1411_6635)"/>
<path d="M53.8255 43.7876C53.8255 43.1689 53.5162 42.3183 52.1396 41.545C52.9438 40.1995 52.7894 39.3025 52.48 38.7611C52.1705 38.2198 51.4282 37.6785 49.8816 37.6785C49.9126 36.0855 49.3403 35.3896 48.7835 35.0648C48.2578 34.7709 47.3607 34.6163 46.0152 35.4204C45.2419 34.044 44.3913 33.6316 43.7726 33.6316C43.1539 33.6316 42.3033 34.044 41.53 35.4204C40.1845 34.6163 39.2875 34.7709 38.7462 35.0802C38.2049 35.3896 37.6327 36.0855 37.6636 37.6785C36.117 37.6785 35.3746 38.2198 35.0498 38.7767C34.7559 39.3179 34.6013 40.215 35.4056 41.545C34.0291 42.3183 33.7197 43.169 33.7197 43.7876C33.7197 44.4062 34.029 45.2569 35.4056 46.0302C34.6013 47.3757 34.7559 48.2727 35.0653 48.814C35.3746 49.3553 36.1014 49.9275 37.6636 49.8967C37.6248 50.9031 37.8842 51.9985 38.7617 52.5104C39.3029 52.8042 40.1845 52.9589 41.53 52.1546C42.3033 53.5311 43.154 53.8405 43.7726 53.8405C44.3913 53.8405 45.2419 53.5312 46.0152 52.1546C47.3607 52.9589 48.2578 52.8042 48.7991 52.4949C49.6677 52.0039 49.9197 50.8859 49.8816 49.8967C51.5056 49.9275 52.1705 49.3553 52.4955 48.7985C52.7894 48.2572 52.9439 47.3602 52.1396 46.0302C53.5163 45.2569 53.8255 44.4062 53.8255 43.7876ZM47.2525 43.3855L46.077 44.5454L46.3554 46.1694C46.4019 46.4477 46.2781 46.7416 46.0461 46.9117C45.7981 47.1046 45.4763 47.1075 45.2419 46.9736L43.7727 46.2157L42.3034 46.9736C42.056 47.1127 41.7312 47.0818 41.4992 46.9117C41.2672 46.7416 41.1435 46.4477 41.1899 46.1694L41.4683 44.5454L40.2929 43.3855C40.0763 43.1844 39.999 42.8751 40.0918 42.5967C40.1846 42.3183 40.4321 42.1173 40.7105 42.0709L42.3499 41.8234L43.0768 40.3541C43.3396 39.8283 44.2058 39.8283 44.4687 40.3541L45.1956 41.8234L46.835 42.0709C47.1134 42.1173 47.3609 42.3183 47.4537 42.5967C47.5465 42.8751 47.469 43.1844 47.2525 43.3855Z" fill="url(#paint4_linear_1411_6635)"/>
</g>
<defs>
<linearGradient id="paint0_linear_1411_6635" x1="33.5377" y1="52.1631" x2="33.5377" y2="-2.48733e-05" gradientUnits="userSpaceOnUse">
<stop stop-color="#72F8F4"/>
<stop offset="1" stop-color="#23CAC5"/>
</linearGradient>
<linearGradient id="paint1_linear_1411_6635" x1="10.5938" y1="44.0109" x2="37.4434" y2="16.6243" gradientUnits="userSpaceOnUse">
<stop stop-color="white"/>
<stop offset="0.5028" stop-color="white"/>
<stop offset="1" stop-color="#EAF6FF"/>
</linearGradient>
<linearGradient id="paint2_linear_1411_6635" x1="1.92011" y1="52.5143" x2="11.2602" y2="42.9874" gradientUnits="userSpaceOnUse">
<stop stop-color="#6467FB"/>
<stop offset="1" stop-color="#B5EDFF"/>
</linearGradient>
<linearGradient id="paint3_linear_1411_6635" x1="43.7723" y1="60.0274" x2="43.7723" y2="39.1863" gradientUnits="userSpaceOnUse">
<stop stop-color="#A93AFF"/>
<stop offset="1" stop-color="#FF81FF"/>
</linearGradient>
<linearGradient id="paint4_linear_1411_6635" x1="43.7726" y1="53.8405" x2="43.7726" y2="33.6316" gradientUnits="userSpaceOnUse">
<stop stop-color="white"/>
<stop offset="1" stop-color="#FFF1FF"/>
</linearGradient>
<clipPath id="clip0_1411_6635">
<rect width="52.1631" height="52.1631" fill="white" transform="translate(7.45605)"/>
</clipPath>
<clipPath id="clip1_1411_6635">
<rect width="38.3368" height="37.5851" fill="white" transform="translate(0 16.8159)"/>
</clipPath>
<clipPath id="clip2_1411_6635">
<rect width="26.3958" height="26.3958" fill="white" transform="translate(30.5742 33.6316)"/>
</clipPath>
</defs>
</svg>
