<svg xmlns="http://www.w3.org/2000/svg" width="58.245" height="68.834" viewBox="0 0 58.245 68.834"><defs><style>.a{opacity:0;}.b{fill:#0070ff;}.c{opacity:0.001;}.d{opacity:0.002;}.e{opacity:0.003;}.f{opacity:0.004;}.g{opacity:0.006;}.h{opacity:0.008;}.i{opacity:0.01;}.j{opacity:0.013;}.k{opacity:0.016;}.l{opacity:0.019;}.m{opacity:0.023;}.n{opacity:0.028;}.o{opacity:0.032;}.p{opacity:0.038;}.q{opacity:0.044;}.r{opacity:0.051;}.s{opacity:0.059;}.t{opacity:0.068;}.u{opacity:0.079;}.v{opacity:0.093;}.w{opacity:0.113;}.x{opacity:0.177;}.y{fill:#ddecff;}.z{fill:#fff;}.aa{fill:#5dffcd;}.ab{fill:#151515;}</style></defs><g transform="translate(0)"><g transform="translate(0)"><g transform="translate(0 0)"><g class="a"><path class="b" d="M54.716,85.983h0a6.667,6.667,0,0,1-4.855-2.1c-.712-.354-2.126-.914-3.2-1.341C42.78,81.008,37.47,78.9,33.345,75.324a17.909,17.909,0,0,1-5.8-19.062c3.426-12.577,1.891-17.067,1.445-18a6.665,6.665,0,0,1-1.46-10.252l5.049-5.441a6.455,6.455,0,0,1,4.7-2.321h.009A6.092,6.092,0,0,1,41.9,22.115a3.991,3.991,0,0,0,2.809.541c3.091-.476,3.344-.834,4.182-2.022.145-.2.29-.41.439-.616a6.666,6.666,0,0,1,10.778,0c.15.206.295.411.44.616.838,1.187,1.091,1.546,4.181,2.022A4.281,4.281,0,0,0,67.45,22.2a6.666,6.666,0,0,1,9.41.362l5.048,5.441a6.665,6.665,0,0,1-1.46,10.252c-.446.936-1.98,5.427,1.445,18a17.908,17.908,0,0,1-5.8,19.062c-4.126,3.581-9.436,5.684-13.313,7.22-1.078.427-2.492.987-3.2,1.34A6.669,6.669,0,0,1,54.716,85.983ZM42.263,35.958c1.512,5.867.9,13.678-1.86,23.808-1.013,3.721.358,6.1,11.164,10.383,1.12.444,2.174.861,3.15,1.3.976-.436,2.031-.854,3.151-1.3,10.806-4.28,12.177-6.662,11.164-10.383-2.759-10.13-3.372-17.941-1.86-23.808a17.69,17.69,0,0,1-4.473-.126,22.066,22.066,0,0,1-7.982-2.593,22.059,22.059,0,0,1-7.982,2.593A17.711,17.711,0,0,1,42.263,35.958ZM41.983,22.2Z" transform="translate(-25.745 -17.276)"/></g><g class="c" transform="translate(0.256 0.256)"><path class="b" d="M54.96,85.971h0a6.409,6.409,0,0,1-4.7-2.052c-.711-.359-2.162-.933-3.265-1.37-3.86-1.528-9.147-3.622-13.239-7.175a17.664,17.664,0,0,1-5.725-18.8C31.546,43.667,29.874,39.2,29.423,38.32a6.409,6.409,0,0,1-1.467-9.894L33,22.985a6.214,6.214,0,0,1,4.522-2.221h.005a5.887,5.887,0,0,1,4.443,1.792,4.216,4.216,0,0,0,3.013.6c3.2-.492,3.49-.9,4.352-2.127.145-.2.289-.409.437-.613a6.409,6.409,0,0,1,10.363,0c.149.2.293.41.437.614.863,1.223,1.154,1.635,4.352,2.127a4.367,4.367,0,0,0,2.936-.516,6.409,6.409,0,0,1,9.048.348l5.048,5.441A6.409,6.409,0,0,1,80.5,38.32c-.451.881-2.123,5.347,1.392,18.253a17.663,17.663,0,0,1-5.725,18.8c-4.093,3.552-9.379,5.646-13.239,7.175-1.1.436-2.553,1.011-3.265,1.37A6.41,6.41,0,0,1,54.96,85.971Zm-12.8-50.065c1.621,5.86,1.041,13.741-1.763,24.036-1.184,4.346,1.354,6.744,11.316,10.689,1.176.466,2.259.895,3.245,1.337.987-.442,2.069-.871,3.245-1.337,9.962-3.945,12.5-6.343,11.317-10.689-2.8-10.3-3.385-18.176-1.763-24.036a17.369,17.369,0,0,1-4.778-.084,21.589,21.589,0,0,1-8.021-2.641,21.585,21.585,0,0,1-8.021,2.641A17.365,17.365,0,0,1,42.162,35.906ZM30.653,38.874l.006,0Zm48.614,0-.006,0Zm.006,0h0Zm-48.625,0h0Zm11.4-16.235Z" transform="translate(-26.245 -17.776)"/></g><g class="d" transform="translate(0.513 0.513)"><path class="b" d="M55.2,85.958h0a6.153,6.153,0,0,1-4.542-2c-.711-.365-2.2-.954-3.328-1.4-3.843-1.522-9.106-3.606-13.165-7.13a17.211,17.211,0,0,1-5.646-18.54C32.13,43.637,30.31,39.2,29.856,38.377a6.153,6.153,0,0,1-1.468-9.534L33.437,23.4a5.973,5.973,0,0,1,4.337-2.122A5.742,5.742,0,0,1,42.053,23a4.443,4.443,0,0,0,3.218.654c3.306-.509,3.637-.978,4.522-2.232.144-.2.288-.407.435-.61a6.153,6.153,0,0,1,9.949,0c.149.2.293.408.436.611.885,1.254,1.217,1.724,4.522,2.232a4.57,4.57,0,0,0,3.15-.581,6.152,6.152,0,0,1,8.685.334l5.049,5.441a6.154,6.154,0,0,1-1.468,9.534c-.454.825-2.273,5.261,1.334,18.507a17.212,17.212,0,0,1-5.645,18.54c-4.06,3.524-9.323,5.608-13.166,7.13-1.129.447-2.617,1.036-3.328,1.4A6.154,6.154,0,0,1,55.2,85.958ZM42.051,35.843C43.763,41.634,43.207,49.8,40.4,60.118c-1.23,4.518,1.342,6.984,11.47,11,1.215.481,2.329.922,3.339,1.38,1.01-.457,2.125-.9,3.34-1.38,10.128-4.011,12.7-6.477,11.469-11C67.2,49.8,66.646,41.634,68.358,35.843a17.08,17.08,0,0,1-5.095-.031,21.112,21.112,0,0,1-8.06-2.692,21.106,21.106,0,0,1-8.059,2.692A17.076,17.076,0,0,1,42.051,35.843ZM30.972,38.872l.011,0Zm48.464,0-.011,0Zm-48.475,0,.009,0Zm48.486,0-.009,0Zm.01,0-.006,0Zm-48.5,0,.005,0Z" transform="translate(-26.745 -18.276)"/></g><g class="e" transform="translate(0.769 0.769)"><path class="b" d="M55.447,85.945h0a5.9,5.9,0,0,1-4.384-1.954c-.71-.37-2.237-.975-3.392-1.432-3.826-1.515-9.065-3.591-13.092-7.085A16.969,16.969,0,0,1,29.014,57.2c3.7-13.6,1.727-18,1.272-18.765a5.9,5.9,0,0,1-1.465-9.169l5.048-5.441A5.736,5.736,0,0,1,38.021,21.8h.036a5.458,5.458,0,0,1,4.073,1.64,4.68,4.68,0,0,0,3.425.711c3.414-.526,3.762-1.019,4.694-2.338.142-.2.285-.4.432-.607a5.9,5.9,0,0,1,9.534,0c.148.2.291.405.434.608.931,1.319,1.279,1.813,4.693,2.338A4.884,4.884,0,0,0,68.7,23.5a5.9,5.9,0,0,1,8.324.32l5.049,5.441a5.9,5.9,0,0,1-1.465,9.169c-.455.769-2.432,5.166,1.272,18.765a16.97,16.97,0,0,1-5.567,18.279c-4.026,3.5-9.266,5.57-13.092,7.085-1.155.457-2.682,1.062-3.392,1.432A5.9,5.9,0,0,1,55.447,85.945ZM41.928,35.77c1.843,5.765,1.326,14.014-1.537,24.525-1.277,4.69,1.33,7.224,11.622,11.3,1.255.5,2.4.951,3.434,1.424,1.033-.473,2.18-.927,3.434-1.424,10.293-4.077,12.9-6.611,11.623-11.3-2.863-10.511-3.38-18.76-1.538-24.525a16.775,16.775,0,0,1-5.421.033,20.629,20.629,0,0,1-8.1-2.745,20.626,20.626,0,0,1-8.1,2.745A16.776,16.776,0,0,1,41.928,35.77ZM31.3,38.874l0,0Zm48.292,0-.006,0Zm.005,0,0,0Zm-48.3,0h0Zm48.308,0h0Zm-48.313,0h0Zm48.316,0h0ZM42.192,23.5Z" transform="translate(-27.245 -18.776)"/></g><g class="f" transform="translate(1.026 1.025)"><path class="b" d="M55.691,85.932h0a5.641,5.641,0,0,1-4.224-1.9c-.708-.375-2.274-1-3.457-1.464-3.809-1.508-9.025-3.574-13.018-7.041A16.727,16.727,0,0,1,29.5,57.506c3.8-13.963,1.659-18.314,1.2-19.026a5.64,5.64,0,0,1-1.458-8.8L34.3,24.239a5.492,5.492,0,0,1,3.969-1.928,5.209,5.209,0,0,1,3.937,1.564,4.91,4.91,0,0,0,3.632.769c3.521-.542,3.914-1.1,4.863-2.444.142-.2.284-.4.431-.6a5.64,5.64,0,0,1,9.119,0c.147.2.289.4.432.6.949,1.345,1.342,1.9,4.863,2.443a5.053,5.053,0,0,0,3.575-.711,5.64,5.64,0,0,1,7.962.306l5.049,5.441a5.64,5.64,0,0,1-1.458,8.8c-.455.712-2.6,5.063,1.2,19.026a16.725,16.725,0,0,1-5.487,18.017c-3.993,3.467-9.21,5.532-13.018,7.041-1.183.469-2.75,1.089-3.457,1.465A5.642,5.642,0,0,1,55.691,85.932Zm-13.9-50.249c.022.062.043.125.064.188,1.912,5.725,1.418,14-1.468,24.6-1.308,4.8,1.443,7.515,11.775,11.607,1.3.513,2.474.98,3.528,1.468,1.055-.488,2.233-.955,3.529-1.468C69.552,67.985,72.3,65.273,71,60.471c-2.887-10.6-3.381-18.874-1.468-24.6.021-.064.042-.126.064-.189a16.47,16.47,0,0,1-5.763.111,20.163,20.163,0,0,1-8.138-2.774,20.161,20.161,0,0,1-8.138,2.774A16.5,16.5,0,0,1,41.792,35.683ZM31.62,38.873l.01,0Zm48.143,0-.01,0Zm-48.153,0,.009,0Zm48.164,0-.009,0Zm.01,0-.008,0Zm-48.183,0,.007,0Z" transform="translate(-27.745 -19.276)"/></g><g class="g" transform="translate(1.282 1.282)"><path class="b" d="M55.935,85.92h0a5.385,5.385,0,0,1-4.062-1.851c-.7-.381-2.312-1.018-3.525-1.5-3.791-1.5-8.984-3.558-12.944-7A16.485,16.485,0,0,1,30,57.817c3.905-14.337,1.584-18.634,1.132-19.291A5.383,5.383,0,0,1,29.683,30.1l5.049-5.441a5.251,5.251,0,0,1,3.785-1.833h.058a5.024,5.024,0,0,1,3.707,1.489,5.149,5.149,0,0,0,3.839.828c3.629-.559,4.069-1.183,5.034-2.55.141-.2.283-.4.429-.6a5.384,5.384,0,0,1,8.705,0c.146.2.288.4.429.6.965,1.367,1.405,1.99,5.034,2.549a5.235,5.235,0,0,0,3.789-.777,5.384,5.384,0,0,1,7.6.292L82.187,30.1a5.383,5.383,0,0,1-1.444,8.429c-.452.656-2.772,4.954,1.133,19.291a16.485,16.485,0,0,1-5.408,17.757c-3.96,3.437-9.153,5.494-12.945,7-1.212.48-2.82,1.117-3.525,1.5A5.386,5.386,0,0,1,55.935,85.92Zm-14.3-50.34c.075.2.148.406.218.617,1.9,5.675,1.4,13.9-1.472,24.451C39.03,65.619,41.817,68.4,52.312,72.559c1.336.53,2.548,1.009,3.622,1.513,1.076-.5,2.287-.983,3.623-1.513,10.5-4.156,13.283-6.94,11.928-11.912C68.613,50.1,68.118,41.872,70.014,36.2q.106-.317.219-.617a16.171,16.171,0,0,1-6.121.2,19.655,19.655,0,0,1-8.177-2.832,19.66,19.66,0,0,1-8.177,2.832A16.172,16.172,0,0,1,41.638,35.579Zm-9.689,3.295.005,0Zm47.973,0,0,0Zm0,0h0Zm-47.982,0h0Zm47.987,0,0,0Zm-47.992,0h0Zm48,0,0,0Zm-48,0h0Zm48.006,0h0Zm-37.61-14.5Z" transform="translate(-28.245 -19.776)"/></g><g class="h" transform="translate(1.538 1.538)"><path class="b" d="M56.178,85.907h0a5.128,5.128,0,0,1-3.9-1.8c-.7-.388-2.352-1.042-3.594-1.534-3.774-1.495-8.943-3.542-12.871-6.951a16.243,16.243,0,0,1-5.328-17.5c4.009-14.72,1.5-18.957,1.055-19.558a5.128,5.128,0,0,1-1.427-8.055l5.049-5.441a5.007,5.007,0,0,1,3.6-1.739,4.816,4.816,0,0,1,3.59,1.413,5.471,5.471,0,0,0,4.049.89c3.736-.575,4.2-1.227,5.2-2.655.141-.2.281-.4.426-.6a5.128,5.128,0,0,1,8.29,0c.145.2.287.4.427.6,1.008,1.428,1.468,2.08,5.2,2.655a5.518,5.518,0,0,0,4-.841,5.127,5.127,0,0,1,7.239.278l5.048,5.441a5.127,5.127,0,0,1-1.426,8.054c-.446.6-2.954,4.839,1.055,19.559a16.242,16.242,0,0,1-5.329,17.5c-3.928,3.409-9.1,5.456-12.871,6.951-1.242.492-2.894,1.146-3.594,1.534A5.128,5.128,0,0,1,56.178,85.907ZM41.462,35.458q.208.5.4,1.063c1.88,5.627,1.383,13.8-1.477,24.3-1.554,5.706,2.657,8.486,12.081,12.218,1.378.546,2.622,1.039,3.717,1.559,1.1-.52,2.339-1.013,3.717-1.559,9.424-3.732,13.635-6.512,12.082-12.218-2.86-10.5-3.356-18.675-1.477-24.3.124-.372.256-.727.394-1.064a15.9,15.9,0,0,1-6.5.316,19.17,19.17,0,0,1-8.216-2.892,19.167,19.167,0,0,1-8.216,2.892A15.9,15.9,0,0,1,41.462,35.458Zm-9.194,3.415.009,0Zm47.822,0-.01,0Zm.01,0-.009,0Zm-47.841,0,.008,0Zm47.849,0-.008,0Zm-47.858,0,.006,0Zm47.866,0-.006,0ZM42.4,24.8Z" transform="translate(-28.745 -20.276)"/></g><g class="i" transform="translate(1.795 1.795)"><path class="b" d="M56.422,85.894h0a4.87,4.87,0,0,1-3.734-1.743c-.695-.394-2.392-1.066-3.664-1.57-3.758-1.488-8.9-3.526-12.8-6.907a16,16,0,0,1-5.249-17.235c4.116-15.112,1.41-19.284.971-19.83a4.871,4.871,0,0,1-1.4-7.675l5.048-5.441a4.767,4.767,0,0,1,3.419-1.645,4.632,4.632,0,0,1,3.415,1.339,5.722,5.722,0,0,0,4.257.949c3.844-.592,4.356-1.317,5.374-2.761.14-.2.28-.4.425-.594a4.871,4.871,0,0,1,7.876,0c.145.2.285.4.425.6,1.019,1.444,1.531,2.168,5.374,2.76a5.709,5.709,0,0,0,4.214-.907,4.871,4.871,0,0,1,6.876.264L82.3,30.934a4.871,4.871,0,0,1-1.4,7.675c-.439.547-3.145,4.719.971,19.83a16,16,0,0,1-5.249,17.235c-3.895,3.381-9.041,5.419-12.8,6.907-1.272.5-2.969,1.176-3.665,1.57A4.872,4.872,0,0,1,56.422,85.894Zm4.234-2.463,0,0ZM41.259,35.31a16.247,16.247,0,0,1,.6,1.536c1.864,5.579,1.365,13.7-1.481,24.154-1.605,5.893,2.666,8.734,12.234,12.524,1.421.563,2.7,1.069,3.811,1.6,1.115-.537,2.39-1.042,3.812-1.6C69.8,69.734,74.074,66.893,72.468,61c-2.846-10.449-3.344-18.575-1.481-24.154a16.308,16.308,0,0,1,.6-1.536,15.579,15.579,0,0,1-6.909.454,18.678,18.678,0,0,1-8.255-2.956,18.676,18.676,0,0,1-8.254,2.956A15.612,15.612,0,0,1,41.259,35.31Zm-8.667,3.563.009,0Zm47.671,0-.018.006Zm-47.68,0,.009,0Zm47.689,0-.008,0Zm-47.7,0,.007,0Zm47.7,0-.006,0Zm-47.712,0,0,0Z" transform="translate(-29.246 -20.776)"/></g><g class="j" transform="translate(3.066 2.051)"><path class="b" d="M57.63,85.881h0a4.616,4.616,0,0,1-3.567-1.687,39.584,39.584,0,0,0-3.737-1.609c-7.144-2.83-22.011-8.717-17.893-23.835,3.075-11.289,2.345-16.534,1.636-18.655a3.692,3.692,0,0,0-.788-1.489c-.013-.014.046.024.074.042s.127.062.18.09c.078.028.354.139.354.139l1.436-4.385-3.383-3.139,5.048-5.441a4.52,4.52,0,0,1,3.237-1.553,4.379,4.379,0,0,1,3.24,1.265,5.96,5.96,0,0,0,4.464,1.009c3.952-.608,4.484-1.363,5.545-2.866.139-.2.278-.394.422-.592a4.615,4.615,0,0,1,7.461,0c.144.2.284.4.422.592,1.061,1.5,1.594,2.258,5.545,2.866a5.953,5.953,0,0,0,4.464-1.009,4.374,4.374,0,0,1,3.241-1.265,4.518,4.518,0,0,1,3.237,1.553l5.049,5.441a4.615,4.615,0,0,1-1.373,7.293c-.43.495-3.341,4.6.882,20.106,4.118,15.118-10.749,21.006-17.894,23.835A39.931,39.931,0,0,0,61.2,84.195,4.614,4.614,0,0,1,57.63,85.881Zm4.011-2.333,0,0ZM41.981,35.13a15.468,15.468,0,0,1,.841,2.041c1.848,5.529,1.348,13.606-1.484,24C39.681,67.257,44.012,70.158,53.724,74c1.465.58,2.773,1.1,3.905,1.652,1.133-.553,2.442-1.072,3.906-1.652,9.713-3.847,14.044-6.748,12.388-12.83-2.833-10.4-3.332-18.475-1.485-24a15.467,15.467,0,0,1,.841-2.041,15.277,15.277,0,0,1-7.356.624A18.174,18.174,0,0,1,57.63,32.73a18.166,18.166,0,0,1-8.294,3.024A15.288,15.288,0,0,1,41.981,35.13Zm39.4,3.743-.009,0Zm.017-.006-.017.006Zm.008,0-.008,0Zm.006,0,0,0Z" transform="translate(-31.724 -21.276)"/></g><g class="k" transform="translate(3.326 2.307)"><path class="b" d="M57.877,85.869h0a4.36,4.36,0,0,1-3.4-1.629,37.927,37.927,0,0,0-3.812-1.648c-7.075-2.8-21.8-8.633-17.741-23.53,3.092-11.353,2.35-16.655,1.632-18.8a3.919,3.919,0,0,0-.855-1.595,1.108,1.108,0,0,1,.18.084c.07.025.331.129.331.129l1.356-4.141L32.377,31.77l5.049-5.441a4.275,4.275,0,0,1,3.054-1.462,4.161,4.161,0,0,1,3.066,1.193,6.2,6.2,0,0,0,4.672,1.069c4.06-.625,4.648-1.459,5.716-2.972.138-.2.277-.392.419-.588a4.358,4.358,0,0,1,7.046,0c.144.2.283.393.421.589,1.068,1.513,1.656,2.346,5.715,2.971a6.2,6.2,0,0,0,4.673-1.069,4.126,4.126,0,0,1,3.066-1.193,4.276,4.276,0,0,1,3.055,1.462l5.049,5.441a4.358,4.358,0,0,1-1.337,6.907c-.417.446-3.547,4.473.787,20.384,4.057,14.9-10.665,20.728-17.741,23.53a37.827,37.827,0,0,0-3.813,1.649A4.357,4.357,0,0,1,57.877,85.869Zm3.788-2.2,0,0Zm-7.576,0,0,0ZM41.673,34.9a14.4,14.4,0,0,1,1.154,2.6c1.83,5.481,1.33,13.507-1.489,23.856-1.7,6.233,2.891,9.314,12.54,13.135,1.538.609,2.87,1.137,4,1.694,1.13-.557,2.463-1.084,4-1.694,9.649-3.821,14.238-6.9,12.54-13.135C71.6,51,71.1,42.976,72.929,37.5a14.365,14.365,0,0,1,1.154-2.6,15,15,0,0,1-7.873.847c-4.033-.621-6.548-1.733-8.333-3.094-1.785,1.361-4.3,2.473-8.333,3.094A15.008,15.008,0,0,1,41.673,34.9Zm39.875,3.976-.008,0Zm.008,0-.008,0Zm.008,0-.007,0Zm.007,0h0Z" transform="translate(-32.232 -21.776)"/></g><g class="l" transform="translate(2.564 2.564)"><path class="b" d="M57.153,85.856h0a4.1,4.1,0,0,1-3.226-1.569,36.336,36.336,0,0,0-3.89-1.69c-3.705-1.468-8.781-3.478-12.576-6.772a15.273,15.273,0,0,1-5.011-16.452c4.444-16.316,1.09-20.268.686-20.666a4.1,4.1,0,0,1-1.3-6.518l5.049-5.441a4.025,4.025,0,0,1,2.873-1.371,3.911,3.911,0,0,1,2.889,1.12,6.436,6.436,0,0,0,4.882,1.13c4.167-.642,4.778-1.507,5.886-3.077.138-.195.275-.39.418-.585a4.1,4.1,0,0,1,6.632,0c.142.2.28.391.418.586,1.109,1.571,1.719,2.435,5.886,3.077a6.433,6.433,0,0,0,4.882-1.13,3.881,3.881,0,0,1,2.889-1.12,4.027,4.027,0,0,1,2.873,1.371l5.048,5.441a4.1,4.1,0,0,1-1.3,6.518c-.4.4-3.757,4.351.687,20.666a15.275,15.275,0,0,1-5.011,16.452c-3.8,3.294-8.871,5.3-12.577,6.772a36.265,36.265,0,0,0-3.89,1.691A4.1,4.1,0,0,1,57.153,85.856Zm3.565-2.074v0Zm-7.131,0,0,0ZM40.523,34.892c2.365,3.892,3.944,11.578-.157,26.636-1.748,6.42,2.9,9.563,12.693,13.441,1.586.628,2.95,1.169,4.094,1.742,1.145-.574,2.509-1.114,4.1-1.742,9.79-3.878,14.442-7.021,12.693-13.441-4.1-15.058-2.522-22.744-.157-26.636l-.135-.146a14.737,14.737,0,0,1-8.123.989c-4.1-.631-6.6-1.774-8.372-3.169-1.767,1.4-4.273,2.539-8.372,3.169a14.733,14.733,0,0,1-8.123-.989Zm-6.96,3.981.008,0Zm47.2-.008-.031.01Zm-47.211.005.007,0Zm-.008,0,.007,0Zm-.007,0,.005,0Zm47.232,0-.007,0Z" transform="translate(-30.745 -22.276)"/></g><g class="m" transform="translate(3.577 2.82)"><path class="b" d="M58.116,85.843h0a3.845,3.845,0,0,1-3.052-1.506A34.526,34.526,0,0,0,51.095,82.6c-3.894-1.542-8.74-3.462-12.5-6.728A15.031,15.031,0,0,1,33.66,59.683c3.128-11.484,2.36-16.9,1.623-19.1l-.671-1.706c-.54-1.376-2.627-5.187-1.622-6.27l5.049-5.441a3.781,3.781,0,0,1,2.692-1.28,3.707,3.707,0,0,1,2.713,1.048,6.685,6.685,0,0,0,5.09,1.191c4.275-.658,4.945-1.608,6.056-3.183.137-.194.274-.388.416-.582a3.846,3.846,0,0,1,6.218,0c.141.194.279.389.416.583,1.111,1.575,1.782,2.525,6.056,3.183a6.618,6.618,0,0,0,5.066-1.167,3.845,3.845,0,0,1,5.429.209l5.048,5.441a3.846,3.846,0,0,1-1.249,6.126c-.388.355-3.974,4.232.58,20.951a15.032,15.032,0,0,1-4.933,16.191c-3.762,3.266-8.609,5.185-12.5,6.728a34.581,34.581,0,0,0-3.97,1.736A3.845,3.845,0,0,1,58.116,85.843ZM61.458,83.9v0Zm-6.685,0,0,0Zm-13.6-48.8c2.386,3.771,4.059,11.379-.088,26.606-1.8,6.607,2.914,9.813,12.846,13.747,1.636.648,3.031,1.2,4.189,1.791,1.158-.591,2.554-1.144,4.189-1.791,9.932-3.934,14.646-7.14,12.847-13.747C71,46.478,72.677,38.87,75.062,35.1l-.386-.416a14.481,14.481,0,0,1-8.149,1.041c-4.2-.646-6.668-1.793-8.411-3.228-1.742,1.435-4.214,2.582-8.41,3.228a14.484,14.484,0,0,1-8.15-1.041Zm40.478,3.768-.029.01Zm.006,0-.005,0Zm.371-.161Z" transform="translate(-32.721 -22.776)"/></g><g class="n" transform="translate(3.077 3.076)"><path class="b" d="M57.64,85.83h0a3.59,3.59,0,0,1-2.875-1.441,32.929,32.929,0,0,0-4.051-1.782c-3.876-1.535-8.7-3.446-12.429-6.683a14.789,14.789,0,0,1-4.853-15.93c4.61-16.925.831-21.1.786-21.118A3.589,3.589,0,0,1,32.7,33.024l5.048-5.441a3.531,3.531,0,0,1,2.511-1.191,3.461,3.461,0,0,1,2.535.976,6.9,6.9,0,0,0,5.3,1.253c4.383-.675,5.077-1.658,6.227-3.289.136-.192.273-.386.413-.579a3.589,3.589,0,0,1,5.8,0c.141.193.277.387.414.579,1.151,1.63,1.845,2.613,6.227,3.288a6.888,6.888,0,0,0,5.279-1.232,3.589,3.589,0,0,1,5.066.195l5.049,5.441a3.589,3.589,0,0,1-1.2,5.731c-.37.314-4.2,4.116.468,21.239A14.788,14.788,0,0,1,77,75.924c-3.729,3.237-8.553,5.148-12.429,6.683a32.851,32.851,0,0,0-4.052,1.783A3.591,3.591,0,0,1,57.64,85.83Zm3.119-1.815,0,0Zm-6.239,0,0,0ZM40.376,35.308c2.4,3.642,4.179,11.166-.018,26.572-1.85,6.794,2.926,10.063,13,14.052,1.686.668,3.115,1.234,4.283,1.842,1.17-.608,2.6-1.174,4.284-1.842,10.073-3.99,14.85-7.258,13-14.052-4.2-15.407-2.423-22.929-.018-26.572l-.64-.69a14.213,14.213,0,0,1-8.174,1.1c-4.269-.657-6.726-1.839-8.45-3.313-1.723,1.474-4.18,2.655-8.449,3.313a14.221,14.221,0,0,1-8.175-1.1ZM81.07,38.874l-.007,0Zm.014,0-.013,0Zm.006,0-.006,0Zm.005,0,0,0Z" transform="translate(-31.745 -23.276)"/></g><g class="o" transform="translate(3.333 3.333)"><path class="b" d="M57.884,85.818h0a3.333,3.333,0,0,1-2.7-1.374,31.308,31.308,0,0,0-4.136-1.832c-3.857-1.528-8.659-3.429-12.355-6.638a14.547,14.547,0,0,1-4.773-15.669c4.75-17.44.666-21.414.617-21.429a3.333,3.333,0,0,1-1.405-5.434L38.184,28a3.285,3.285,0,0,1,2.33-1.1,3.164,3.164,0,0,1,2.358.9,7.148,7.148,0,0,0,5.51,1.314c4.491-.691,5.249-1.766,6.4-3.394.135-.192.271-.384.411-.576a3.333,3.333,0,0,1,5.389,0c.14.193.276.385.412.577,1.149,1.627,1.908,2.7,6.4,3.393a7.166,7.166,0,0,0,5.492-1.3,3.333,3.333,0,0,1,4.7.181l5.049,5.441A3.333,3.333,0,0,1,81.5,38.775c-.35.277-4.423,4.008.35,21.53a14.547,14.547,0,0,1-4.774,15.669c-3.7,3.209-8.5,5.11-12.356,6.638a31.37,31.37,0,0,0-4.136,1.832A3.333,3.333,0,0,1,57.884,85.818Zm2.9-1.685,0,0Zm-5.794,0,0,0ZM40.3,35.521c2.422,3.508,4.3,10.937.056,26.535-2.084,7.65,4.426,10.9,13.152,14.359a45.387,45.387,0,0,1,4.378,1.894,45.446,45.446,0,0,1,4.378-1.894c8.727-3.456,15.236-6.708,13.153-14.359-4.249-15.6-2.367-23.028.055-26.535l-.9-.97a13.947,13.947,0,0,1-8.2,1.154c-4.347-.67-6.785-1.887-8.489-3.4-1.7,1.516-4.142,2.734-8.488,3.4a13.965,13.965,0,0,1-8.2-1.154Zm40.935,3.353-.006,0Zm.006,0-.005,0Zm.005,0h0Z" transform="translate(-32.245 -23.776)"/></g><g class="p" transform="translate(3.372 3.589)"><path class="b" d="M57.921,85.805h0a3.075,3.075,0,0,1-2.513-1.3,29.625,29.625,0,0,0-4.224-1.885c-7.245-2.869-20.732-8.211-16.976-22,4.652-17.081.94-21.207.3-21.766a2.674,2.674,0,0,1-2.054-1.929,3.093,3.093,0,0,1,.909-3.062l5.049-5.441a3.075,3.075,0,0,1,4.342-.167,7.383,7.383,0,0,0,5.706,1.362c4.6-.708,5.382-1.818,6.568-3.5.135-.191.27-.382.409-.573a3.076,3.076,0,0,1,4.974,0c.139.191.274.382.41.574,1.186,1.681,1.97,2.791,6.567,3.5a7.364,7.364,0,0,0,5.739-1.392,3.038,3.038,0,0,1,4.31.2l5.049,5.441a3.094,3.094,0,0,1,.908,3.062,2.674,2.674,0,0,1-2.053,1.929c-.643.559-4.354,4.685.3,21.766,3.756,13.79-9.73,19.132-16.976,22A29.608,29.608,0,0,0,60.434,84.5,3.077,3.077,0,0,1,57.921,85.805Zm2.674-1.556,0,0Zm-5.348,0,0,0ZM40.012,35.737c2.436,3.365,4.437,10.692.132,26.5-2.136,7.841,4.762,11.28,13.3,14.664a42.924,42.924,0,0,1,4.472,1.946A43.146,43.146,0,0,1,62.393,76.9c8.543-3.384,15.44-6.822,13.3-14.664-4.3-15.8-2.3-23.131.132-26.5l-1.169-1.259A14,14,0,0,1,66.448,35.7c-4.43-.682-6.845-1.939-8.528-3.5-1.682,1.562-4.1,2.818-8.528,3.5a13.993,13.993,0,0,1-8.213-1.217Zm-5.354,3.139Zm46.526,0Z" transform="translate(-32.321 -24.276)"/></g><g class="q" transform="translate(3.667 3.845)"><path class="b" d="M58.2,85.792h0a2.82,2.82,0,0,1-2.327-1.228,28.08,28.08,0,0,0-4.316-1.942c-7.171-2.84-20.518-8.126-16.822-21.7,4.228-15.524,1.65-21.105.184-22.069a2.483,2.483,0,0,1-1.906-1.8,2.831,2.831,0,0,1,.816-2.786l5.049-5.441a2.819,2.819,0,0,1,3.98-.153,7.623,7.623,0,0,0,5.918,1.427c4.705-.724,5.559-1.932,6.739-3.6.134-.19.268-.38.406-.57a2.821,2.821,0,0,1,4.56,0c.138.19.273.381.407.571,1.18,1.672,2.033,2.88,6.738,3.6a7.582,7.582,0,0,0,5.918-1.427,2.82,2.82,0,0,1,3.981.153l5.048,5.441a2.831,2.831,0,0,1,.816,2.786,2.482,2.482,0,0,1-1.906,1.8c-1.466.964-4.043,6.546.185,22.069,3.7,13.569-9.652,18.855-16.823,21.7a28.075,28.075,0,0,0-4.316,1.942A2.82,2.82,0,0,1,58.2,85.792Zm2.451-1.426,0,0Zm-4.9,0,0,0ZM39.929,36a11.9,11.9,0,0,1,1.762,3.45c1.733,5.187,1.223,12.914-1.514,22.965-2.191,8.046,4.8,11.54,13.458,14.969a40.7,40.7,0,0,1,4.566,2,40.709,40.709,0,0,1,4.567-2c8.66-3.43,15.65-6.923,13.458-14.969-2.737-10.051-3.247-17.777-1.515-22.965A11.923,11.923,0,0,1,76.474,36l-1.483-1.6a13.5,13.5,0,0,1-8.223,1.287c-4.516-.695-6.9-1.994-8.567-3.6-1.661,1.609-4.05,2.908-8.567,3.6A13.5,13.5,0,0,1,41.412,34.4Zm-4.911,2.881h0Zm46.367,0Z" transform="translate(-32.897 -24.776)"/></g><g class="r" transform="translate(3.958 4.102)"><path class="b" d="M58.478,85.78h0a2.565,2.565,0,0,1-2.138-1.149,26.362,26.362,0,0,0-4.411-2c-7.1-2.811-20.306-8.042-16.67-21.39,4.32-15.859,1.563-21.459.037-22.377a2.29,2.29,0,0,1-1.73-1.65,2.569,2.569,0,0,1,.726-2.514l5.049-5.441a2.564,2.564,0,0,1,3.619-.139,7.856,7.856,0,0,0,6.132,1.493C53.9,29.868,54.784,28.622,56,26.9c.133-.189.267-.378.4-.567a2.564,2.564,0,0,1,4.145,0c.138.189.272.379.405.568,1.217,1.724,2.1,2.969,6.909,3.71A7.859,7.859,0,0,0,74,29.116a2.564,2.564,0,0,1,3.619.139L82.663,34.7a2.569,2.569,0,0,1,.726,2.514,2.288,2.288,0,0,1-1.73,1.65c-1.525.918-4.281,6.518.038,22.377,3.636,13.348-9.573,18.579-16.669,21.39a26.381,26.381,0,0,0-4.412,2A2.564,2.564,0,0,1,58.478,85.78Zm2.228-1.3v0Zm-4.457,0,0,0ZM39.87,36.223a11.485,11.485,0,0,1,1.854,3.547c1.717,5.139,1.206,12.815-1.518,22.816-2.247,8.251,4.834,11.8,13.61,15.275a38.186,38.186,0,0,1,4.661,2.058,38.294,38.294,0,0,1,4.661-2.058C71.916,74.385,79,70.836,76.75,62.586c-2.724-10-3.235-17.678-1.519-22.816a11.507,11.507,0,0,1,1.854-3.547l-1.76-1.9a13.247,13.247,0,0,1-8.242,1.35c-4.642-.715-6.962-2.022-8.606-3.7-1.643,1.679-3.963,2.986-8.606,3.7a13.248,13.248,0,0,1-8.241-1.35Zm-4.5,2.653Zm46.208,0Z" transform="translate(-33.464 -25.276)"/></g><g class="s" transform="translate(4.358 4.358)"><path class="b" d="M58.858,85.767h0A2.308,2.308,0,0,1,56.915,84.7,24.776,24.776,0,0,0,52.4,82.634c-7.021-2.782-20.091-7.958-16.516-21.084,5.243-19.251,0-22.655-.053-22.674a2.307,2.307,0,0,1-.973-3.762l5.048-5.441a2.308,2.308,0,0,1,3.257-.125,8.108,8.108,0,0,0,6.345,1.558c4.92-.757,5.826-2.041,7.079-3.816.133-.188.266-.376.4-.564a2.308,2.308,0,0,1,3.731,0c.137.188.27.376.4.565,1.253,1.776,2.159,3.058,7.079,3.816a8.13,8.13,0,0,0,6.345-1.558,2.308,2.308,0,0,1,3.257.125l5.049,5.441a2.308,2.308,0,0,1,.64,2.247,2.088,2.088,0,0,1-1.554,1.5c-1.585.878-4.52,6.5-.112,22.686,3.575,13.126-9.5,18.3-16.517,21.084A24.854,24.854,0,0,0,60.8,84.7,2.306,2.306,0,0,1,58.858,85.767ZM60.864,84.6v0Zm-4.011,0,0,0ZM39.913,36.454a11.1,11.1,0,0,1,1.949,3.64c1.7,5.09,1.187,12.716-1.523,22.668C38.037,71.218,45.21,74.82,54.1,78.343a35.942,35.942,0,0,1,4.755,2.117,36.015,36.015,0,0,1,4.756-2.117c8.893-3.522,16.067-7.125,13.764-15.581-2.71-9.952-3.223-17.578-1.522-22.667a11.073,11.073,0,0,1,1.949-3.64l-2.044-2.2A12.993,12.993,0,0,1,67.5,35.666c-4.742-.73-7.02-2.083-8.645-3.82-1.625,1.737-3.9,3.09-8.645,3.82a12.986,12.986,0,0,1-8.257-1.415Zm41.97,2.422Z" transform="translate(-34.245 -25.776)"/></g><g class="t" transform="translate(4.615 4.615)"><path class="b" d="M59.1,85.754h0a2.051,2.051,0,0,1-1.745-.974,23.24,23.24,0,0,0-4.615-2.142c-6.948-2.751-19.879-7.873-16.364-20.778,5.393-19.8-.161-22.965-.22-22.984a2.051,2.051,0,0,1-.864-3.344l5.048-5.441a2.051,2.051,0,0,1,2.9-.112A8.334,8.334,0,0,0,49.795,31.6c5.028-.774,6.009-2.163,7.25-3.922.131-.187.264-.374.4-.56a2.051,2.051,0,0,1,3.316,0c.136.187.269.375.4.562C62.4,29.44,63.383,30.829,68.41,31.6a8.421,8.421,0,0,0,6.557-1.623,2.051,2.051,0,0,1,2.895.112l5.049,5.441a2.051,2.051,0,0,1,.558,1.985A1.881,1.881,0,0,1,82.1,38.863c-.525.309-5.5,3.822-.275,23,3.515,12.9-9.417,18.027-16.364,20.779a23.159,23.159,0,0,0-4.616,2.142A2.053,2.053,0,0,1,59.1,85.754Zm1.783-1.037h0Zm-3.565,0v0ZM39.814,36.69c2.4,2.727,5.069,9.553.522,26.248-2.355,8.648,5.238,12.449,13.916,15.887A33.717,33.717,0,0,1,59.1,81a33.77,33.77,0,0,1,4.85-2.178c8.678-3.437,16.273-7.238,13.917-15.887-4.547-16.694-1.878-23.521.521-26.248l-2.333-2.515a12.715,12.715,0,0,1-8.27,1.482c-4.846-.746-7.075-2.15-8.684-3.95-1.608,1.8-3.837,3.2-8.684,3.95a12.723,12.723,0,0,1-8.27-1.482Zm42.232,2.186Z" transform="translate(-34.746 -26.276)"/></g><g class="u" transform="translate(4.806 4.871)"><path class="b" d="M59.284,85.741h0a1.8,1.8,0,0,1-1.541-.875c-.458-.533-2.922-1.508-4.724-2.223-7.355-2.913-19.666-7.788-16.211-20.472,5.349-19.638.044-23.047-.429-23.305a1.666,1.666,0,0,1-1.194-1.19,1.792,1.792,0,0,1,.478-1.726l5.049-5.441a1.8,1.8,0,0,1,2.533-.1A8.585,8.585,0,0,0,50.015,32.1c5.136-.791,6.144-2.219,7.42-4.028.131-.185.263-.371.4-.557a1.795,1.795,0,0,1,2.9,0c.136.186.268.372.4.558,1.276,1.808,2.284,3.236,7.419,4.026a8.712,8.712,0,0,0,6.771-1.688,1.794,1.794,0,0,1,2.533.1l5.049,5.441a1.794,1.794,0,0,1,.478,1.726,1.665,1.665,0,0,1-1.194,1.19c-.473.258-5.777,3.668-.429,23.305,3.455,12.684-8.855,17.56-16.211,20.473-1.8.714-4.266,1.689-4.725,2.222A1.8,1.8,0,0,1,59.284,85.741Zm1.56-.908,0,.009Zm-3.119,0,.005.009ZM39.654,36.926c2.381,2.528,5.251,9.174.616,26.189-2.411,8.853,5.279,12.711,14.07,16.193a31.539,31.539,0,0,1,4.944,2.241,31.58,31.58,0,0,1,4.945-2.241c8.79-3.481,16.481-7.34,14.069-16.193-4.635-17.015-1.764-23.661.616-26.189L76.287,34.1a12.452,12.452,0,0,1-8.281,1.552c-5.15-.793-7.318-2.4-8.723-4.065-1.4,1.662-3.572,3.272-8.723,4.065A12.459,12.459,0,0,1,42.28,34.1Zm-3.234,1.95h0Zm45.729,0Z" transform="translate(-35.118 -26.776)"/></g><g class="v" transform="translate(5.128 5.127)"><path class="b" d="M59.585,85.735h0a1.537,1.537,0,0,1-1.326-.774c-.408-.556-2.969-1.571-4.84-2.312-7.275-2.882-19.452-7.7-16.058-20.167,5.606-20.582-.491-23.585-.555-23.606a1.538,1.538,0,0,1-.649-2.508L41.2,30.927a1.538,1.538,0,0,1,2.171-.084A8.829,8.829,0,0,0,50.36,32.6c5.244-.808,6.331-2.348,7.59-4.133.13-.185.261-.37.4-.555a1.539,1.539,0,0,1,2.487,0c.135.185.266.371.4.555,1.259,1.784,2.347,3.325,7.589,4.133A8.807,8.807,0,0,0,75.8,30.844a1.539,1.539,0,0,1,2.172.084l5.048,5.441a1.537,1.537,0,0,1,.4,1.472A1.446,1.446,0,0,1,82.4,38.868c-.418.212-6.057,3.519-.584,23.614,3.394,12.462-8.783,17.285-16.059,20.167-1.876.743-4.445,1.76-4.843,2.316A1.525,1.525,0,0,1,59.585,85.735ZM39.611,37.168c2.35,2.313,5.45,8.749.718,26.123-2.467,9.057,5.32,12.972,14.222,16.5A29.307,29.307,0,0,1,59.589,82.1a29.362,29.362,0,0,1,5.039-2.308c8.9-3.526,16.69-7.441,14.223-16.5-4.732-17.373-1.633-23.809.717-26.123l-2.927-3.155a12.177,12.177,0,0,1-8.289,1.624c-5.3-.816-7.388-2.507-8.762-4.216-1.374,1.709-3.458,3.4-8.762,4.216a12.178,12.178,0,0,1-8.289-1.624Z" transform="translate(-35.745 -27.276)"/></g><g class="w" transform="translate(5.384 5.384)"><path class="b" d="M59.833,85.7a1.3,1.3,0,0,1-1.114-.629c-.346-.585-3.014-1.642-4.963-2.413-7.2-2.85-19.239-7.62-15.9-19.861,5.667-20.807-.656-23.9-.723-23.917a1.282,1.282,0,0,1-.541-2.09l5.049-5.441a1.282,1.282,0,0,1,1.809-.069,9.07,9.07,0,0,0,7.2,1.818c5.352-.824,6.469-2.406,7.761-4.239.13-.184.26-.368.394-.552a1.283,1.283,0,0,1,2.073,0c.134.184.264.369.394.553,1.293,1.831,2.41,3.414,7.761,4.238a9.091,9.091,0,0,0,7.2-1.818,1.282,1.282,0,0,1,1.81.069l5.048,5.441a1.283,1.283,0,0,1-.54,2.09c-.03.013-6.461,2.85-.723,23.917C85.15,75.035,73.106,79.8,65.91,82.654c-1.949.772-4.617,1.829-4.963,2.413A1.3,1.3,0,0,1,59.833,85.7ZM39.5,37.417c2.3,2.08,5.669,8.267.826,26.05C37.8,72.728,45.686,76.7,54.7,80.271a27.1,27.1,0,0,1,5.132,2.381,27.133,27.133,0,0,1,5.133-2.381c9.015-3.57,16.9-7.542,14.375-16.8-4.843-17.783-1.477-23.97.825-26.05l-3.238-3.49a11.89,11.89,0,0,1-8.295,1.7c-5.5-.847-7.423-2.571-8.8-4.376-1.376,1.805-3.3,3.53-8.8,4.376a11.9,11.9,0,0,1-8.294-1.7Z" transform="translate(-36.245 -27.776)"/></g><g class="x" transform="translate(5.651 5.64)"><path class="b" d="M60.087,85.7h0a1.025,1.025,0,0,1-.891-.519c-.373-.656-2.88-1.648-5.091-2.525C46.988,79.841,35.079,75.124,38.352,63.1c5.825-21.385-.845-24.21-.914-24.236a1.047,1.047,0,0,1-.644-.73,1.027,1.027,0,0,1,.235-.935l5.048-5.441a1.025,1.025,0,0,1,1.447-.056,9.31,9.31,0,0,0,7.41,1.883c5.459-.84,6.605-2.464,7.931-4.344.129-.183.258-.366.391-.549a1.026,1.026,0,0,1,1.658,0c.133.184.263.367.392.55,1.327,1.88,2.473,3.5,7.931,4.343A9.313,9.313,0,0,0,76.652,31.7a1.029,1.029,0,0,1,1.444.059L83.144,37.2a1.025,1.025,0,0,1-.433,1.672c-.045.018-6.714,2.844-.89,24.229C85.1,75.124,73.186,79.841,66.069,82.66c-2.211.876-4.718,1.868-5.091,2.524A1.027,1.027,0,0,1,60.087,85.7ZM39.369,37.7a8.721,8.721,0,0,1,2.506,4.021c1.618,4.845,1.1,12.222-1.544,21.924C37.54,73.893,47.55,77.858,54.859,80.753a24.813,24.813,0,0,1,5.227,2.459,24.844,24.844,0,0,1,5.228-2.459c7.309-2.895,17.321-6.86,14.529-17.109-2.643-9.7-3.162-17.08-1.544-21.924A8.721,8.721,0,0,1,80.8,37.7l-3.581-3.859a11.618,11.618,0,0,1-8.3,1.779c-5.674-.874-7.473-2.69-8.84-4.552-1.367,1.862-3.166,3.678-8.84,4.552a11.627,11.627,0,0,1-8.3-1.779Z" transform="translate(-36.766 -28.276)"/></g><g transform="translate(5.903 5.914)"><path class="b" d="M60.326,85.707h0a.768.768,0,0,1-.668-.389c-.418-.734-2.86-1.7-5.22-2.636-7.036-2.787-18.813-7.451-15.6-19.25,5.911-21.7-1-24.518-1.071-24.544a.779.779,0,0,1-.489-.545.771.771,0,0,1,.177-.705L42.5,32.2a.769.769,0,0,1,1.086-.042A9.551,9.551,0,0,0,51.213,34.1c5.567-.857,6.741-2.522,8.1-4.45.128-.182.257-.364.389-.546a.8.8,0,0,1,1.244,0c.133.182.261.365.39.546,1.36,1.928,2.535,3.592,8.1,4.449a9.54,9.54,0,0,0,7.624-1.95.772.772,0,0,1,1.084.044L83.2,37.639a.77.77,0,0,1-.325,1.254c-.058.022-6.969,2.837-1.058,24.539,3.214,11.8-8.563,16.463-15.6,19.25-2.361.935-4.8,1.9-5.22,2.636A.77.77,0,0,1,60.326,85.707ZM39.23,37.988c2.046,1.571,6.171,7.2,1.093,25.848C37.471,74.307,48.022,78.487,55,81.252A22.625,22.625,0,0,1,60.326,83.8a22.641,22.641,0,0,1,5.322-2.551c6.982-2.765,17.533-6.944,14.682-17.415-5.079-18.646-.954-24.277,1.092-25.848L77.5,33.762a11.32,11.32,0,0,1-8.3,1.862c-5.859-.9-7.509-2.819-8.879-4.736-1.37,1.917-3.02,3.834-8.878,4.736a11.328,11.328,0,0,1-8.3-1.862Z" transform="translate(-37.257 -28.811)"/></g><g transform="translate(6.206 6.215)"><path class="y" d="M60.614,85.686h0a.461.461,0,0,1-.4-.234c-.471-.828-2.744-1.728-5.373-2.77-7.39-2.927-18.557-7.35-15.416-18.883,6.015-22.083-1.19-24.889-1.264-24.914a.464.464,0,0,1-.19-.751l5.049-5.441a.463.463,0,0,1,.651-.026,10.009,10.009,0,0,0,7.879,2.027c5.7-.877,6.964-2.674,8.306-4.576.127-.18.255-.361.387-.542a.478.478,0,0,1,.746,0c.132.181.26.362.387.542,1.343,1.9,2.61,3.7,8.306,4.576a10.034,10.034,0,0,0,7.879-2.027.464.464,0,0,1,.651.026l5.048,5.441a.462.462,0,0,1-.195.753C83,38.91,75.791,41.716,81.805,63.8c3.142,11.533-8.026,15.956-15.415,18.883-2.631,1.042-4.9,1.942-5.374,2.77A.462.462,0,0,1,60.614,85.686ZM39.058,38.318c1.8,1.155,6.575,6.2,1.256,25.724C37.39,74.778,48.1,79.018,55.179,81.824c2.555,1.012,4.511,1.786,5.435,2.673.925-.887,2.881-1.661,5.435-2.673,7.084-2.806,17.789-7.045,14.865-17.782C75.6,44.514,80.372,39.473,82.17,38.318l-4.341-4.679a10.956,10.956,0,0,1-8.289,1.967c-6.083-.936-7.524-2.979-8.92-4.955l-.006-.009-.005.008c-1.395,1.976-2.837,4.019-8.921,4.956A10.952,10.952,0,0,1,43.4,33.639Z" transform="translate(-37.849 -29.397)"/></g><g transform="translate(6.512 6.516)"><path class="z" d="M60.905,85.663h0a.153.153,0,0,1-.133-.077c-.525-.923-2.733-1.8-5.528-2.9-7.288-2.886-18.3-7.248-15.232-18.515C46.13,41.7,38.627,38.9,38.551,38.879a.155.155,0,0,1-.1-.108.153.153,0,0,1,.036-.143l5.048-5.441a.154.154,0,0,1,.217-.008,10.334,10.334,0,0,0,8.133,2.1c5.826-.9,7.13-2.746,8.511-4.7.127-.179.253-.359.384-.538a.16.16,0,0,1,.248,0c.131.179.258.36.385.539,1.382,1.957,2.687,3.806,8.511,4.7a10.341,10.341,0,0,0,8.133-2.1.154.154,0,0,1,.217.008l5.049,5.441a.154.154,0,0,1-.064.25c-.077.026-7.579,2.822-1.461,25.286,3.07,11.267-7.944,15.63-15.232,18.516-2.795,1.107-5,1.981-5.528,2.9A.154.154,0,0,1,60.905,85.663ZM38.862,38.677c1.257.605,7.146,4.646,1.446,25.569-3,11,7.863,15.3,15.049,18.149,2.666,1.056,4.808,1.9,5.548,2.841.74-.937,2.882-1.785,5.549-2.841C73.639,79.549,84.5,75.248,81.5,64.246c-5.7-20.923.189-24.964,1.446-25.569l-4.8-5.171a10.723,10.723,0,0,1-8.272,2.083c-5.953-.916-7.294-2.817-8.715-4.829l-.257-.363c-.087.121-.172.242-.257.363-1.42,2.012-2.761,3.913-8.715,4.829a10.726,10.726,0,0,1-8.272-2.083Z" transform="translate(-38.446 -29.984)"/></g></g></g><g transform="translate(30.639 41.053)"><g transform="translate(0 0)"><path class="aa" d="M29.146,24.108l-4.19-7.278a4.714,4.714,0,0,0,1.155-4.789,3.61,3.61,0,0,1,0-2.237,4.717,4.717,0,0,0-2.342-5.653,3.609,3.609,0,0,1-1.582-1.582A4.717,4.717,0,0,0,16.534.228h0a3.61,3.61,0,0,1-2.237,0A4.717,4.717,0,0,0,8.644,2.569,3.609,3.609,0,0,1,7.062,4.151,4.717,4.717,0,0,0,4.72,9.8a3.61,3.61,0,0,1,0,2.237,4.714,4.714,0,0,0,1.155,4.789l-4.19,7.278a.543.543,0,0,0,.47.813H5.123l1.514,2.59a.543.543,0,0,0,.468.269h0a.543.543,0,0,0,.468-.271l3.471-6.017a4.719,4.719,0,0,0,3.25.127,3.609,3.609,0,0,1,2.237,0,4.721,4.721,0,0,0,3.25-.127l3.471,6.017a.543.543,0,0,0,.468.271h0a.543.543,0,0,0,.468-.269l1.514-2.59h2.968a.543.543,0,0,0,.47-.813ZM7.1,26.157l-1.041-1.78,1.462-2.539a.543.543,0,1,0-.94-.542L5.12,23.837H3.093L6.736,17.51c.106.065.215.127.326.184a3.609,3.609,0,0,1,1.582,1.582A4.72,4.72,0,0,0,10.1,20.964Zm9.766-5.572a4.687,4.687,0,0,0-2.905,0,3.616,3.616,0,0,1-4.353-1.8,4.688,4.688,0,0,0-2.054-2.054,3.616,3.616,0,0,1-1.8-4.353,4.689,4.689,0,0,0,0-2.905,3.616,3.616,0,0,1,1.8-4.353A4.689,4.689,0,0,0,9.61,3.063a3.615,3.615,0,0,1,3.224-1.982,3.661,3.661,0,0,1,1.129.179,4.688,4.688,0,0,0,2.905,0h0a3.617,3.617,0,0,1,4.353,1.8,4.689,4.689,0,0,0,2.054,2.054,3.617,3.617,0,0,1,1.8,4.353,4.688,4.688,0,0,0,0,2.905,3.616,3.616,0,0,1-1.8,4.353,4.689,4.689,0,0,0-2.054,2.054A3.617,3.617,0,0,1,16.868,20.586Zm8.842,3.251L24.248,21.3a.543.543,0,1,0-.94.542l1.462,2.539-1.041,1.78-3-5.193a4.721,4.721,0,0,0,1.454-1.688,3.609,3.609,0,0,1,1.582-1.582c.112-.057.22-.119.326-.184l3.642,6.326Z" transform="translate(-1.612 0.001)"/><path class="aa" d="M246.4,58.469a.543.543,0,1,0-.384-.159A.545.545,0,0,0,246.4,58.469Z" transform="translate(-232.609 -54.27)"/><ellipse class="ab" cx="6.5" cy="7.5" rx="6.5" ry="7.5" transform="translate(7.36 3.198)"/><path class="aa" d="M180.947,151.063a.543.543,0,0,0,0,.767l3.538,3.538a.543.543,0,0,0,.767,0l3.538-3.538a.543.543,0,0,0,0-.767l-1.707-1.707a.543.543,0,0,0-.384-.159h-3.662a.543.543,0,0,0-.384.159Zm2.315-.781h3.213l1.164,1.164-2.771,2.771-2.771-2.771Z" transform="translate(-171.066 -141.101)"/><path class="aa" d="M127.674,72.267a7.82,7.82,0,0,0-5.23-7.374.543.543,0,1,0-.358,1.024,6.725,6.725,0,1,1-4.456,0,.543.543,0,0,0-.36-1.024,7.811,7.811,0,1,0,10.4,7.369Z" transform="translate(-106.06 -61.343)"/></g></g></g></svg>