<svg xmlns="http://www.w3.org/2000/svg" width="70.982" height="77.071" viewBox="0 0 70.982 77.071"><defs><style>.a{fill:#53fffa;}</style></defs><path class="a" d="M175.783,101.726a38.046,38.046,0,0,0-35-52.99,1.522,1.522,0,0,0-1.522,1.522V53.3a1.522,1.522,0,0,0,3.044,0V51.819A35.013,35.013,0,0,1,173.23,99.957,9.883,9.883,0,0,0,161.3,115.129a34.545,34.545,0,0,1-18.99,6.609v-1.46a1.522,1.522,0,1,0-3.044,0v3.044a1.522,1.522,0,0,0,1.522,1.522,37.646,37.646,0,0,0,22.848-7.65,9.88,9.88,0,0,0,12.148-15.469Zm-6.836,13.985a6.85,6.85,0,1,1,6.85-6.85A6.857,6.857,0,0,1,168.947,115.711Z" transform="translate(-107.858 -48.736)"/><path class="a" d="M124.4,103.681a1.522,1.522,0,1,0,3.044,0v-2.036a11.4,11.4,0,0,0,0-22.756V76.757a1.522,1.522,0,0,0-3.044,0V79.08a11.417,11.417,0,0,0,0,22.372Zm-6.089-13.414a8.372,8.372,0,1,1,8.372,8.372A8.381,8.381,0,0,1,118.309,90.266Z" transform="translate(-92.992 -65.151)"/><path class="a" d="M140.787,198.034a1.522,1.522,0,0,0-1.522,1.522v6.6a1.522,1.522,0,0,0,3.044,0v-6.6A1.522,1.522,0,0,0,140.787,198.034Z" transform="translate(-107.859 -141.22)"/><path class="a" d="M142.309,164.857a1.522,1.522,0,0,0-3.044,0v6.6a1.522,1.522,0,0,0,3.044,0Z" transform="translate(-107.859 -119.725)"/><path class="a" d="M73.354,52.735a6.089,6.089,0,1,0,6.089,6.089A6.1,6.1,0,0,0,73.354,52.735Zm0,9.133A3.044,3.044,0,1,1,76.4,58.824,3.047,3.047,0,0,1,73.354,61.868Z" transform="translate(-63.258 -51.213)"/><path class="a" d="M86.459,218.206a1.724,1.724,0,1,0,1.724,1.724A1.724,1.724,0,0,0,86.459,218.206Z" transform="translate(-74.08 -153.715)"/><path class="a" d="M58.459,242.206a1.724,1.724,0,1,0,1.724,1.724A1.724,1.724,0,0,0,58.459,242.206Z" transform="translate(-56.735 -168.582)"/><path class="a" d="M62.459,198.206a1.724,1.724,0,1,0,1.724,1.724A1.724,1.724,0,0,0,62.459,198.206Z" transform="translate(-59.213 -141.326)"/></svg>