<svg xmlns="http://www.w3.org/2000/svg" width="94.632" height="92.439" viewBox="0 0 94.632 92.439"><defs><style>.a{fill:#53fffa;}</style></defs><path class="a" d="M43.829,106.744a1.585,1.585,0,0,0,.73.177,1.6,1.6,0,0,0,1.428-.873,38.72,38.72,0,0,1,3.167-5.139,1.6,1.6,0,0,0-2.591-1.892,41.938,41.938,0,0,0-3.43,5.568A1.6,1.6,0,0,0,43.829,106.744Z" transform="translate(-38.563 -72.847)"/><path class="a" d="M34.323,166.582a1.6,1.6,0,0,0,1.341-1.829,39.047,39.047,0,0,1-.456-5.944v-.081a1.569,1.569,0,0,0-1.6-1.563,1.638,1.638,0,0,0-1.6,1.645,42.236,42.236,0,0,0,.493,6.433,1.6,1.6,0,0,0,1.583,1.36A1.712,1.712,0,0,0,34.323,166.582Z" transform="translate(-32 -108.072)"/><path class="a" d="M34.594,135.484a1.576,1.576,0,0,0,.254.02,1.6,1.6,0,0,0,1.582-1.352,38.518,38.518,0,0,1,1.416-5.868,1.6,1.6,0,0,0-3.048-1,41.371,41.371,0,0,0-1.535,6.359,1.6,1.6,0,0,0,1.332,1.836Z" transform="translate(-32.744 -89.513)"/><path class="a" d="M88.312,67.7a1.6,1.6,0,0,0,.727-.176,38.169,38.169,0,0,1,5.581-2.306,1.6,1.6,0,1,0-.987-3.051,41.409,41.409,0,0,0-6.051,2.5,1.6,1.6,0,0,0,.73,3.033Z" transform="translate(-64.77 -51.122)"/><path class="a" d="M207.128,93.911a1.6,1.6,0,0,0,2.594-1.886,42.058,42.058,0,0,0-4.25-4.975,1.6,1.6,0,0,0-2.268,2.268,38.939,38.939,0,0,1,3.924,4.593Z" transform="translate(-134.273 -65.791)"/><path class="a" d="M39.931,189.075a1.6,1.6,0,1,0-3.054.984,41.6,41.6,0,0,0,2.494,6.051,1.6,1.6,0,0,0,2.86-1.451A38.491,38.491,0,0,1,39.931,189.075Z" transform="translate(-34.875 -126.522)"/><path class="a" d="M118.067,60.954a1.712,1.712,0,0,0,.249-.019,38.872,38.872,0,0,1,5.982-.462h.041a1.586,1.586,0,0,0,1.583-1.6,1.621,1.621,0,0,0-1.624-1.6,42.154,42.154,0,0,0-6.477.5,1.6,1.6,0,0,0,.246,3.189Z" transform="translate(-82.595 -48.231)"/><path class="a" d="M223.618,119.795a1.6,1.6,0,1,0,3.051-.99,41.675,41.675,0,0,0-2.5-6.044,1.6,1.6,0,0,0-2.857,1.457A38.521,38.521,0,0,1,223.618,119.795Z" transform="translate(-145.293 -80.949)"/><path class="a" d="M178.342,71.209a38.3,38.3,0,0,1,5.141,3.161,1.6,1.6,0,1,0,1.889-2.594,42.015,42.015,0,0,0-5.57-3.424,1.6,1.6,0,1,0-1.46,2.857Z" transform="translate(-119.137 -54.768)"/><path class="a" d="M149.088,61.681a38.347,38.347,0,0,1,5.869,1.411,1.6,1.6,0,0,0,.993-3.051,41.629,41.629,0,0,0-6.361-1.527,1.6,1.6,0,0,0-.5,3.167Z" transform="translate(-101.327 -48.966)"/><path class="a" d="M63,83.569a1.6,1.6,0,0,0,1.134-.47,38.582,38.582,0,0,1,4.594-3.918,1.6,1.6,0,1,0-1.883-2.6,41.747,41.747,0,0,0-4.979,4.246A1.6,1.6,0,0,0,63,83.569Z" transform="translate(-49.606 -59.62)"/><path class="a" d="M53.855,216.517a1.6,1.6,0,1,0-2.6,1.883,42.1,42.1,0,0,0,4.237,4.983,1.6,1.6,0,0,0,2.274-2.265A38.634,38.634,0,0,1,53.855,216.517Z" transform="translate(-43.353 -143.228)"/><path class="a" d="M218.353,203.179a1.609,1.609,0,0,0-2.162.689A38.928,38.928,0,0,1,213.013,209a1.6,1.6,0,1,0,2.587,1.9,42.2,42.2,0,0,0,3.441-5.557A1.605,1.605,0,0,0,218.353,203.179Z" transform="translate(-140.244 -135.53)"/><path class="a" d="M169.3,246.7a38.277,38.277,0,0,1-5.586,2.295,1.6,1.6,0,0,0,.981,3.054,41.48,41.48,0,0,0,6.056-2.489,1.6,1.6,0,1,0-1.451-2.86Z" transform="translate(-110.232 -161.6)"/><path class="a" d="M230.356,173.318a1.6,1.6,0,0,0-1.839,1.328,38.468,38.468,0,0,1-1.427,5.864,1.6,1.6,0,0,0,3.048,1,41.831,41.831,0,0,0,1.546-6.356,1.6,1.6,0,0,0-1.328-1.839Z" transform="translate(-148.814 -117.735)"/><path class="a" d="M232.139,141.648a1.605,1.605,0,0,0-1.336,1.834,38.747,38.747,0,0,1,.468,6.021v.161a1.6,1.6,0,1,0,3.208,0V149.5a42.215,42.215,0,0,0-.506-6.519A1.612,1.612,0,0,0,232.139,141.648Z" transform="translate(-151.075 -98.767)"/><path class="a" d="M195.779,228.684a38.759,38.759,0,0,1-4.6,3.908,1.6,1.6,0,0,0,1.88,2.6,41.849,41.849,0,0,0,4.986-4.234,1.6,1.6,0,1,0-2.262-2.274Z" transform="translate(-126.951 -150.633)"/><path class="a" d="M108.794,253.81a38.075,38.075,0,0,1-5.863-1.419,1.6,1.6,0,1,0-1,3.048,41.263,41.263,0,0,0,6.358,1.538,1.576,1.576,0,0,0,.254.02,1.6,1.6,0,0,0,.251-3.188Z" transform="translate(-73.228 -165.067)"/><path class="a" d="M139.416,256.112a38.756,38.756,0,0,1-5.9.451h-.121a1.553,1.553,0,0,0-1.545,1.6,1.656,1.656,0,0,0,1.665,1.6,41.977,41.977,0,0,0,6.4-.489,1.6,1.6,0,0,0-.491-3.17Z" transform="translate(-91.81 -167.333)"/><path class="a" d="M80.7,241.5a38.554,38.554,0,0,1-5.135-3.17,1.6,1.6,0,0,0-1.9,2.588,41.749,41.749,0,0,0,5.564,3.436A1.6,1.6,0,0,0,80.7,241.5Z" transform="translate(-56.569 -156.506)"/><path class="a" d="M242.416,45.265a6.416,6.416,0,1,0,6.416,6.416A6.422,6.422,0,0,0,242.416,45.265Zm0,9.624a3.208,3.208,0,1,1,3.208-3.208A3.212,3.212,0,0,1,242.416,54.889Z" transform="translate(-154.199 -41.043)"/><path class="a" d="M211.286,58.368a1.816,1.816,0,1,0-1.816-1.816A1.817,1.817,0,0,0,211.286,58.368Z" transform="translate(-138.307 -46.715)"/><path class="a" d="M195.286,38.368a1.816,1.816,0,1,0-1.816-1.816A1.817,1.817,0,0,0,195.286,38.368Z" transform="translate(-128.723 -34.735)"/><path class="a" d="M112.02,90.869v6.416H105.6a1.6,1.6,0,0,0-1.6,1.6V105.3a1.6,1.6,0,0,0,1.6,1.6h6.416v6.416a1.6,1.6,0,0,0,1.6,1.6h6.416a1.6,1.6,0,0,0,1.6-1.6v-6.416h6.416a1.6,1.6,0,0,0,1.6-1.6V98.889a1.6,1.6,0,0,0-1.6-1.6h-6.416V90.869a1.6,1.6,0,0,0-1.6-1.6h-6.416A1.6,1.6,0,0,0,112.02,90.869Zm3.208,8.02V92.473h3.208v6.416a1.6,1.6,0,0,0,1.6,1.6h6.416V103.7h-6.416a1.6,1.6,0,0,0-1.6,1.6v6.416h-3.208V105.3a1.6,1.6,0,0,0-1.6-1.6h-6.416v-3.208h6.416A1.6,1.6,0,0,0,115.228,98.889Z" transform="translate(-75.129 -67.399)"/><path class="a" d="M121.643,193.324v-6.416h6.416a1.6,1.6,0,0,0,1.6-1.6v-6.416a1.6,1.6,0,0,0-1.6-1.6h-6.416v-6.416a1.6,1.6,0,0,0-1.6-1.6h-6.416a1.6,1.6,0,0,0-1.6,1.6v6.416H105.6a1.6,1.6,0,0,0-1.6,1.6V185.3a1.6,1.6,0,0,0,1.6,1.6h6.416v6.416a1.6,1.6,0,0,0,1.6,1.6h6.416A1.6,1.6,0,0,0,121.643,193.324Zm-3.208-8.02v6.416h-3.208V185.3a1.6,1.6,0,0,0-1.6-1.6h-6.416v-3.208h6.416a1.6,1.6,0,0,0,1.6-1.6v-6.416h3.208v6.416a1.6,1.6,0,0,0,1.6,1.6h6.416V183.7h-6.416A1.6,1.6,0,0,0,118.435,185.3Z" transform="translate(-75.129 -115.321)"/></svg>