<svg xmlns="http://www.w3.org/2000/svg" viewBox="0 0 340 340"><defs><style>.cls-1{fill:#8247e5;}.cls-2{fill:#fff;}</style></defs><g id="Layer_2" data-name="Layer 2"><g id="Layer_1-2" data-name="Layer 1"><circle class="cls-1" cx="170" cy="170" r="170"/><path class="cls-2" d="M231.42,129.16a15.84,15.84,0,0,0-15,0l-34.92,20.57-23.7,13.1-34.3,20.58a15.9,15.9,0,0,1-15,0L81.76,167.19a15.2,15.2,0,0,1-7.48-13.09V122.92a15.38,15.38,0,0,1,7.48-13.1l26.82-15.58a15.84,15.84,0,0,1,15,0l26.82,16.21a15.2,15.2,0,0,1,7.48,13.09v20.58l23.7-13.72V109.2a15.37,15.37,0,0,0-7.49-13.09L124.17,66.8a15.86,15.86,0,0,0-15,0L58.07,96.73a13.71,13.71,0,0,0-7.49,12.47v58.62a15.38,15.38,0,0,0,7.49,13.09l50.51,29.31a15.84,15.84,0,0,0,15,0l34.3-19.95,23.7-13.72,34.29-20a15.92,15.92,0,0,1,15,0l26.81,15.59a15.21,15.21,0,0,1,7.49,13.1v31.18a15.38,15.38,0,0,1-7.49,13.09l-26.19,15.59a15.84,15.84,0,0,1-15,0l-26.82-15.59a15.2,15.2,0,0,1-7.48-13.09v-20l-23.7,13.72V230.8A15.37,15.37,0,0,0,166,243.89l50.51,29.31a15.84,15.84,0,0,0,15,0l50.51-29.31a15.18,15.18,0,0,0,7.49-13.09V171.56a15.39,15.39,0,0,0-7.49-13.1Z"/></g></g></svg>