<svg xmlns="http://www.w3.org/2000/svg" width="61.698" height="61.698" viewBox="0 0 61.698 61.698"><defs><style>.a{fill:#5dffcd;}</style></defs><path class="a" d="M47.742,2.787,21.471,29.058a7.976,7.976,0,0,0-7.729,1.275,8.055,8.055,0,0,0-4.646-.8,8.465,8.465,0,0,0-4.02,1.711A10.266,10.266,0,0,0,1.131,37.2,10.024,10.024,0,0,0,2.58,44.96l.846,1.249-2.24,2.24a4.051,4.051,0,0,0,5.728,5.728L18.769,42.322a9.371,9.371,0,0,0,8.195,2.309l1.731-.346-1.3-1.189c-.019-.017-1-.911-2.053-1.887a7.968,7.968,0,0,0,.968-7.317L52.577,7.621A9.451,9.451,0,0,0,55.364.893V0h-.893a9.451,9.451,0,0,0-6.728,2.787ZM7.036,41.982a4.712,4.712,0,0,1-.785-2.654A4.561,4.561,0,0,1,8.068,35.7l.446-.334a2.689,2.689,0,0,1,1.607-.536h0a2.719,2.719,0,0,1,1.906.791l.995.995L7.283,42.353Zm7.252-4.108,3.2,3.2L8.037,50.529l-3.2-3.2ZM4.05,53.578a2.264,2.264,0,0,1-1.6-3.865L3.572,48.59l3.2,3.2L5.651,52.915A2.25,2.25,0,0,1,4.05,53.578ZM19.736,40.8l-6.444-6.444a4.513,4.513,0,0,0-3.167-1.314h0a4.491,4.491,0,0,0-2.679.892L7,34.266a6.454,6.454,0,0,0-1.448,8.706l.446.67L4.713,44.924l-.65-.96a8.252,8.252,0,0,1-1.186-6.388,8.527,8.527,0,0,1,3.312-4.936A6.63,6.63,0,0,1,9.316,31.3a6.267,6.267,0,0,1,5.236,1.785l7.14,7.14c.547.547,1.89,1.794,2.967,2.786A7.6,7.6,0,0,1,19.736,40.8Zm3.219-1.831-7.14-7.14c-.156-.156-.324-.3-.49-.438a6.244,6.244,0,0,1,8.688,8.588C23.566,39.558,23.184,39.194,22.955,38.966ZM51.314,6.359,25.466,32.206A8.1,8.1,0,0,0,23.157,29.9L49,4.05A7.676,7.676,0,0,1,53.52,1.843a7.676,7.676,0,0,1-2.207,4.516Z" transform="translate(6.747) rotate(7)"/></svg>