<svg xmlns="http://www.w3.org/2000/svg" width="86.194" height="82.676" viewBox="0 0 86.194 82.676"><defs><style>.a{fill:#53fffa;}</style></defs><g transform="translate(0)"><path class="a" d="M66.238,126.839a1.761,1.761,0,0,0,.177,2.482,19.229,19.229,0,0,0,6.693,3.784,1.759,1.759,0,0,0,1.086-3.347,15.722,15.722,0,0,1-5.473-3.1,1.761,1.761,0,0,0-2.482.176Z" transform="translate(-59.736 -95.347)"/><path class="a" d="M55.485,78.353a1.756,1.756,0,0,0,2.247-1.065A15.756,15.756,0,0,1,60.984,71.9a1.759,1.759,0,1,0-2.59-2.379A19.214,19.214,0,0,0,54.421,76.1,1.757,1.757,0,0,0,55.485,78.353Z" transform="translate(-53.297 -63.258)"/><path class="a" d="M123.618,116.563a1.759,1.759,0,0,0,2.475-.248,19.291,19.291,0,0,0,3.59-6.8,1.76,1.76,0,0,0-3.377-.991,15.7,15.7,0,0,1-2.938,5.561A1.76,1.76,0,0,0,123.618,116.563Z" transform="translate(-91.76 -84.719)"/><path class="a" d="M55.6,108.56a1.758,1.758,0,0,0,1.575-2.537,15.685,15.685,0,0,1-1.6-6.078,1.759,1.759,0,1,0-3.512.2,19.119,19.119,0,0,0,1.953,7.437,1.759,1.759,0,0,0,1.579.981Z" transform="translate(-52.037 -79.688)"/><path class="a" d="M95.43,135.256a1.758,1.758,0,0,0,1.75,1.61c.05,0,.1,0,.151-.006a19.185,19.185,0,0,0,7.378-2.165,1.76,1.76,0,0,0-1.646-3.111,15.657,15.657,0,0,1-6.031,1.769,1.759,1.759,0,0,0-1.6,1.9Z" transform="translate(-76.327 -98.231)"/><path class="a" d="M77.14,61.114a1.744,1.744,0,0,0,.73-.161,15.685,15.685,0,0,1,6.124-1.42,1.759,1.759,0,1,0-.1-3.516,19.167,19.167,0,0,0-7.488,1.738,1.759,1.759,0,0,0,.733,3.359Z" transform="translate(-65.098 -56.008)"/><path class="a" d="M107.632,62.112a15.753,15.753,0,0,1,5.289,3.4,1.759,1.759,0,0,0,2.453-2.522,19.25,19.25,0,0,0-6.464-4.16,1.759,1.759,0,1,0-1.278,3.278Z" transform="translate(-82.539 -57.52)"/><path class="a" d="M129.929,80.566a1.758,1.758,0,0,0-.935,2.3,15.763,15.763,0,0,1,1.244,6.164,1.759,1.759,0,1,0,3.518,0,19.235,19.235,0,0,0-1.522-7.533A1.758,1.758,0,0,0,129.929,80.566Z" transform="translate(-95.057 -69.685)"/><path class="a" d="M88.94,156H53.759A1.759,1.759,0,0,0,52,157.759V192.94a1.759,1.759,0,0,0,1.759,1.759H88.94A1.759,1.759,0,0,0,90.7,192.94V157.759A1.759,1.759,0,0,0,88.94,156Zm-1.759,35.181H55.518V159.518H87.181Z" transform="translate(-52 -112.023)"/><path class="a" d="M179.35,156a19.35,19.35,0,1,0,19.35,19.35A19.371,19.371,0,0,0,179.35,156Zm0,35.181a15.832,15.832,0,1,1,15.832-15.832A15.849,15.849,0,0,1,179.35,191.181Z" transform="translate(-112.505 -112.023)"/><path class="a" d="M196.94,56H161.759A1.759,1.759,0,0,0,160,57.759V92.94a1.759,1.759,0,0,0,1.759,1.759H196.94A1.759,1.759,0,0,0,198.7,92.94V57.759A1.759,1.759,0,0,0,196.94,56Zm-1.759,35.181H163.518V59.518h31.663Z" transform="translate(-112.505 -56)"/><path class="a" d="M195.036,184a7.036,7.036,0,1,0,7.036,7.036A7.044,7.044,0,0,0,195.036,184Zm0,10.554a3.518,3.518,0,1,1,3.518-3.518A3.522,3.522,0,0,1,195.036,194.554Z" transform="translate(-128.191 -127.71)"/></g></svg>