<svg xmlns="http://www.w3.org/2000/svg" width="96.749" height="93.168" viewBox="0 0 96.749 93.168"><defs><style>.a{fill:#53fffa;}</style></defs><path class="a" d="M231.036,90A7.036,7.036,0,1,0,224,82.965,7.044,7.044,0,0,0,231.036,90Zm0-10.554a3.518,3.518,0,1,1-3.518,3.518A3.522,3.522,0,0,1,231.036,79.447Z" transform="translate(-143.083 -61.919)"/><path class="a" d="M71.021,114.3a1.755,1.755,0,0,0,1.3-.569,6.977,6.977,0,0,1,4.983-2.275,1.76,1.76,0,0,0,1.709-1.807,1.733,1.733,0,0,0-1.809-1.709,10.463,10.463,0,0,0-7.474,3.413,1.759,1.759,0,0,0,1.3,2.949Z" transform="translate(-56.393 -79.85)"/><path class="a" d="M92.171,141.233a6.98,6.98,0,0,1-4.846,2.558,1.759,1.759,0,0,0,.147,3.512c.05,0,.1,0,.151-.006a10.614,10.614,0,0,0,7.268-3.834,1.759,1.759,0,1,0-2.72-2.229Z" transform="translate(-65.611 -98.144)"/><path class="a" d="M98.437,114.118a1.76,1.76,0,0,0,.034,2.487,6.984,6.984,0,0,1,2.134,5.047,1.759,1.759,0,0,0,3.518,0,10.472,10.472,0,0,0-3.2-7.569,1.76,1.76,0,0,0-2.488.034Z" transform="translate(-72.459 -83.016)"/><path class="a" d="M67.547,130.731a1.759,1.759,0,1,0-3.512.2A10.458,10.458,0,0,0,67.66,138.3a1.759,1.759,0,0,0,2.305-2.658,6.979,6.979,0,0,1-2.418-4.914Z" transform="translate(-53.463 -91.691)"/><path class="a" d="M134.989,93.262H114.6L86.376,44.882a1.831,1.831,0,0,0-3.041,0L70.966,66.088A19.327,19.327,0,1,0,51.491,99.474L40.238,118.762a1.76,1.76,0,0,0,1.52,2.646h43.1a1.759,1.759,0,1,0,0-3.518H44.822l9.884-16.943A19.319,19.319,0,0,0,73.829,68.164l11.027-18.9,25.667,44H94.531a1.759,1.759,0,0,0-1.759,1.759V135.48a1.759,1.759,0,0,0,1.759,1.759h40.459a1.759,1.759,0,0,0,1.759-1.759V95.022a1.759,1.759,0,0,0-1.759-1.76ZM76.94,82.708A15.832,15.832,0,1,1,61.108,66.876,15.849,15.849,0,0,1,76.94,82.708Zm56.29,51.013H96.29V96.781h36.94Z" transform="translate(-39.999 -44.071)"/><path class="a" d="M211.462,61.383a1.992,1.992,0,1,0-1.992-1.992A1.992,1.992,0,0,0,211.462,61.383Z" transform="translate(-134.942 -51.538)"/></svg>