<svg xmlns="http://www.w3.org/2000/svg" width="83.873" height="80.98" viewBox="0 0 83.873 80.98"><defs><style>.a{fill:#53fffa;}</style></defs><path class="a" d="M117.688,122.759a1.448,1.448,0,0,0-.025-1.46l-40.49-66.52a1.5,1.5,0,0,0-2.471,0L34.21,121.3a1.446,1.446,0,0,0,1.236,2.2h80.981A1.447,1.447,0,0,0,117.688,122.759Zm-41.751-3.49L58.265,90.237H93.608Zm0-60.957L93.609,87.345H58.264ZM38.019,120.6,55.691,91.572,73.364,120.6Zm40.49,0L96.182,91.572,113.854,120.6Z" transform="translate(-34 -48.3)"/><path class="a" d="M183.784,49.569A5.784,5.784,0,1,0,178,43.784,5.791,5.791,0,0,0,183.784,49.569Zm0-8.676a2.892,2.892,0,1,1-2.892,2.892A2.9,2.9,0,0,1,183.784,40.892Z" transform="translate(-125.941 -38)"/><path class="a" d="M237.108,54.745a1.638,1.638,0,1,0-1.638-1.637A1.638,1.638,0,0,0,237.108,54.745Z" transform="translate(-162.634 -46.6)"/><path class="a" d="M225.108,90.745a1.638,1.638,0,1,0-1.638-1.637A1.638,1.638,0,0,0,225.108,90.745Z" transform="translate(-154.972 -69.586)"/><path class="a" d="M38.338,254H35.446a1.446,1.446,0,1,0,0,2.892h2.892a1.446,1.446,0,1,0,0-2.892Z" transform="translate(-34 -175.912)"/><path class="a" d="M65.23,254H59.446a1.446,1.446,0,1,0,0,2.892H65.23a1.446,1.446,0,1,0,0-2.892Z" transform="translate(-49.323 -175.912)"/><path class="a" d="M193.23,254h-5.784a1.446,1.446,0,0,0,0,2.892h5.784a1.446,1.446,0,0,0,0-2.892Z" transform="translate(-131.049 -175.912)"/><path class="a" d="M161.23,254h-5.784a1.446,1.446,0,1,0,0,2.892h5.784a1.446,1.446,0,0,0,0-2.892Z" transform="translate(-110.617 -175.912)"/><path class="a" d="M225.23,254h-5.784a1.446,1.446,0,0,0,0,2.892h5.784a1.446,1.446,0,0,0,0-2.892Z" transform="translate(-151.48 -175.912)"/><path class="a" d="M97.23,254H91.446a1.446,1.446,0,1,0,0,2.892H97.23a1.446,1.446,0,1,0,0-2.892Z" transform="translate(-69.755 -175.912)"/><path class="a" d="M129.23,254h-5.784a1.446,1.446,0,1,0,0,2.892h5.784a1.446,1.446,0,0,0,0-2.892Z" transform="translate(-90.186 -175.912)"/><path class="a" d="M254.338,254h-2.892a1.446,1.446,0,0,0,0,2.892h2.892a1.446,1.446,0,1,0,0-2.892Z" transform="translate(-171.911 -175.912)"/></svg>