<svg color="#FFFFFF" xmlns="http://www.w3.org/2000/svg" width="235.479" height="52.329" viewBox="0 0 235.479 52.329" fill="none">
  <path d="M 40.751 3.54 C 44.891 5.87 48.168 9.026 50.581 12.979 C 52.994 16.961 54.215 21.327 54.215 26.076 C 54.215 30.825 52.994 35.22 50.581 39.232 C 48.168 43.243 44.862 46.429 40.751 48.789 C 36.61 51.149 32.082 52.329 27.108 52.329 C 22.163 52.329 17.605 51.149 13.464 48.789 C 9.324 46.429 6.047 43.243 3.634 39.232 C 1.221 35.22 0 30.825 0 26.076 C 0 21.327 1.221 16.961 3.634 12.979 C 6.047 8.997 9.354 5.87 13.464 3.54 C 17.605 1.209 22.133 0.059 27.108 0.059 C 32.082 0.03 36.61 1.209 40.751 3.54 Z M 16.205 7.463 C 12.839 9.38 10.158 11.976 8.192 15.25 C 6.196 18.524 5.213 22.153 5.213 26.076 C 5.213 29.999 6.196 33.627 8.192 36.96 C 10.158 40.294 12.839 42.919 16.205 44.866 C 19.571 46.813 23.235 47.786 27.197 47.786 C 31.099 47.786 34.734 46.813 38.07 44.866 C 41.406 42.919 44.087 40.294 46.053 36.96 C 48.019 33.627 49.032 29.999 49.032 26.076 C 49.032 21.297 47.543 16.961 44.594 13.126 C 43.164 11.268 41.406 9.616 39.44 8.318 C 35.717 5.841 31.636 4.602 27.197 4.602 C 23.235 4.602 19.571 5.546 16.205 7.463 Z" fill="currentColor" fill-rule="nonzero"></path>
  <path d="M 109.146 50.824 L 98.66 35.132 C 97.081 35.22 95.86 35.279 95.026 35.279 L 80.757 35.279 L 80.757 49.497 C 80.757 50.824 79.685 51.886 78.344 51.886 L 78.046 51.886 C 76.706 51.886 75.633 50.824 75.633 49.497 L 75.633 0.472 L 95.026 0.472 C 101.52 0.472 106.524 1.947 110.069 4.926 C 113.614 7.905 115.371 12.094 115.371 17.551 C 115.371 21.828 114.329 25.368 112.244 28.229 C 110.158 31.061 107.18 33.067 103.337 34.188 L 113.167 48.14 C 114.299 49.733 113.137 51.916 111.171 51.916 C 110.367 51.916 109.592 51.503 109.146 50.824 Z M 95.026 30.707 C 99.971 30.707 103.784 29.586 106.465 27.374 C 109.146 25.132 110.486 21.917 110.486 17.699 C 110.486 13.569 109.146 10.442 106.465 8.289 C 103.784 6.136 99.971 5.044 95.026 5.044 L 80.757 5.044 L 80.757 30.707 L 95.026 30.707 Z" fill="currentColor" fill-rule="nonzero"></path>
  <path d="M 173.429 3.835 C 176.379 6.106 177.838 9.262 177.838 13.274 C 177.838 16.312 176.974 18.878 175.276 20.914 C 173.578 22.979 171.165 24.336 168.097 24.955 C 171.91 25.456 174.889 26.843 177.004 29.144 C 179.119 31.444 180.191 34.365 180.191 37.904 C 180.191 42.329 178.523 45.751 175.217 48.199 C 171.91 50.647 167.293 51.886 161.395 51.886 L 139.411 51.886 L 139.411 0.413 L 161.186 0.413 C 166.399 0.413 170.48 1.534 173.429 3.835 Z M 169.527 20.737 C 171.553 19.144 172.566 16.873 172.566 13.923 C 172.566 11.091 171.553 8.879 169.527 7.315 C 167.501 5.752 164.642 4.985 160.978 5.044 L 144.564 5.044 L 144.564 23.126 L 160.978 23.126 C 164.642 23.126 167.501 22.33 169.527 20.737 Z M 171.344 44.718 C 173.787 42.978 175.008 40.53 175.008 37.403 C 175.008 34.306 173.757 31.916 171.285 30.206 C 168.812 28.495 165.357 27.639 160.948 27.639 L 144.534 27.639 L 144.534 47.344 L 160.948 47.344 C 165.446 47.344 168.902 46.459 171.344 44.718 Z" fill="currentColor" fill-rule="nonzero"></path>
  <path d="M 224.815 5.811 C 222.283 5.103 219.9 4.749 217.695 4.749 C 214.121 4.749 211.261 5.457 209.116 6.843 C 206.971 8.23 205.899 10.147 205.899 12.536 C 205.899 14.66 206.495 16.371 207.686 17.699 C 208.878 19.026 210.338 20.058 212.065 20.825 C 213.793 21.592 216.176 22.418 219.185 23.362 C 222.7 24.394 225.53 25.397 227.704 26.4 C 229.849 27.403 231.696 28.878 233.215 30.766 C 234.734 32.683 235.479 35.22 235.479 38.347 C 235.479 41.09 234.705 43.509 233.126 45.633 C 231.577 47.757 229.372 49.379 226.543 50.529 C 223.713 51.68 220.466 52.27 216.802 52.27 C 213.197 52.27 209.652 51.562 206.227 50.146 C 203.456 48.995 200.984 47.55 198.839 45.81 C 197.945 45.072 197.737 43.833 198.273 42.83 C 198.988 41.562 200.656 41.238 201.788 42.123 C 203.605 43.538 205.601 44.689 207.805 45.603 C 210.874 46.872 213.882 47.521 216.861 47.521 C 220.823 47.521 223.981 46.724 226.304 45.131 C 228.628 43.538 229.789 41.385 229.789 38.701 C 229.789 36.547 229.194 34.778 228.002 33.391 C 226.811 32.005 225.351 30.972 223.623 30.235 C 221.896 29.498 219.453 28.642 216.355 27.669 C 212.84 26.577 210.01 25.574 207.895 24.63 C 205.75 23.687 203.963 22.241 202.473 20.353 C 200.984 18.465 200.239 15.988 200.239 12.949 C 200.239 10.354 200.984 8.082 202.473 6.106 C 203.963 4.159 206.048 2.625 208.729 1.593 C 211.41 0.531 214.508 0 218.023 0 C 220.853 0 223.683 0.413 226.543 1.239 C 228.509 1.829 230.326 2.537 231.994 3.363 C 233.185 3.953 233.662 5.369 233.066 6.548 L 233.007 6.696 C 232.411 7.876 230.951 8.318 229.76 7.699 C 228.151 6.932 226.513 6.312 224.815 5.811 Z" fill="currentColor" fill-rule="nonzero"></path>
</svg>