<svg xmlns="http://www.w3.org/2000/svg" xmlns:xlink="http://www.w3.org/1999/xlink" width="13.619" height="13.089" viewBox="0 0 13.619 13.089"><defs><style>.a{fill:#4cfce2;}.b{clip-path:url(#a);}.c{clip-path:url(#b);}</style><clipPath id="a"><path class="a" d="M67.745-6.83v5.238H64.771V-6.48c0-1.228-.43-2.066-1.506-2.066a1.631,1.631,0,0,0-1.526,1.111,2.119,2.119,0,0,0-.1.74v5.1H58.665s.04-8.277,0-9.135H61.64v1.295l-.02.03h.02v-.03a2.945,2.945,0,0,1,2.681-1.509C66.277-10.942,67.745-9.636,67.745-6.83ZM55.953-14.682c-1.1,0-1.827.606-1.827,1.4,0,.779.7,1.4,1.784,1.4h.022c1.126,0,1.826-.624,1.826-1.4C57.736-14.076,57.057-14.682,55.953-14.682ZM54.126-1.592h2.724v-8.415H54.126Z" transform="translate(-54.126 14.682)"/></clipPath><clipPath id="b"><path class="a" d="M-174,11.04H1644.737V-1012H-174Z" transform="translate(174 1012)"/></clipPath></defs><g class="b"><g class="c" transform="translate(-216.094 -944.719)"><path class="a" d="M49.126-19.682H72.217V2.88H49.126Z" transform="translate(162.232 959.664)"/></g></g></svg>