<svg xmlns="http://www.w3.org/2000/svg" xmlns:xlink="http://www.w3.org/1999/xlink" width="14.241" height="13.089" viewBox="0 0 14.241 13.089"><defs><style>.a,.b{fill:#4cfce2;}.a{clip-rule:evenodd;}.c{clip-path:url(#a);}.d{clip-path:url(#b);}</style><clipPath id="a"><path class="a" d="M111.159-7.8l6.413-4.17c.115-.075.234.09.135.187L112.414-6.59a1.181,1.181,0,0,0-.34.693l-.18,1.41a.164.164,0,0,1-.324.025l-.693-2.572a.7.7,0,0,1,.282-.767m-4.347-.6,3.281,1.293,1.27,4.312a.379.379,0,0,0,.614.195l1.829-1.574a.523.523,0,0,1,.665-.02l3.3,2.529a.381.381,0,0,0,.606-.247l2.417-12.272a.394.394,0,0,0-.518-.464L106.808-9.169a.417.417,0,0,0,0,.764" transform="translate(-106.56 14.682)"/></clipPath><clipPath id="b"><path class="b" d="M-174,11.04H1644.737V-1012H-174Z" transform="translate(174 1012)"/></clipPath></defs><g class="c"><g class="d" transform="translate(-265.763 -944.719)"><path class="b" d="M101.56-19.682h23.714V2.88H101.56Z" transform="translate(159.467 959.664)"/></g></g></svg>