<svg xmlns="http://www.w3.org/2000/svg" xmlns:xlink="http://www.w3.org/1999/xlink" width="15.221" height="13.089" viewBox="0 0 15.221 13.089"><defs><style>.a{fill:#4cfce2;}.b{clip-path:url(#a);}.c{clip-path:url(#b);}</style><clipPath id="a"><path class="a" d="M15.221-13.132a5.979,5.979,0,0,1-1.794.52A3.288,3.288,0,0,0,14.8-14.44a6.048,6.048,0,0,1-1.983.8,3.042,3.042,0,0,0-2.279-1.043,3.217,3.217,0,0,0-3.123,3.3,3.5,3.5,0,0,0,.081.753A8.714,8.714,0,0,1,1.06-14.077a3.436,3.436,0,0,0-.423,1.661,3.357,3.357,0,0,0,1.389,2.75,2.981,2.981,0,0,1-1.414-.413c0,.014,0,.028,0,.042a3.265,3.265,0,0,0,2.5,3.24,2.968,2.968,0,0,1-.823.116,2.951,2.951,0,0,1-.588-.059A3.154,3.154,0,0,0,4.623-4.445,6.05,6.05,0,0,1,.745-3.031,5.978,5.978,0,0,1,0-3.077,8.489,8.489,0,0,0,4.787-1.592c5.744,0,8.885-5.035,8.885-9.4q0-.215-.009-.428A6.561,6.561,0,0,0,15.221-13.132Z" transform="translate(0 14.682)"/></clipPath><clipPath id="b"><path class="a" d="M-174,11.04H1644.737V-1012H-174Z" transform="translate(174 1012)"/></clipPath></defs><g class="b"><g class="c" transform="translate(-164.823 -944.719)"><path class="a" d="M-5-19.682H19.694V2.88H-5Z" transform="translate(165.087 959.664)"/></g></g></svg>