<svg xmlns="http://www.w3.org/2000/svg" width="50.831" height="60.998" viewBox="0 0 50.831 60.998"><defs><style>.a{fill:#53fffa;}</style></defs><g transform="translate(0 0)"><g transform="translate(0 25.414)"><g transform="translate(0)"><path class="a" d="M39.218,170.65H34.135a35.583,35.583,0,0,0,35.582,35.584v-5.083A30.5,30.5,0,0,1,39.218,170.65Z" transform="translate(-34.135 -170.65)"/></g></g><g transform="translate(10.166 0)"><g transform="translate(0)"><path class="a" d="M127.816,5.083V0a25.416,25.416,0,0,0,0,50.832V45.748a20.332,20.332,0,0,1,0-40.665Z" transform="translate(-102.4)"/></g></g><g transform="translate(20.332 10.166)"><path class="a" d="M185.915,68.265a15.249,15.249,0,1,0,0,30.5V93.681a10.166,10.166,0,1,1,10.167-10.167l5.083,0A15.246,15.246,0,0,0,185.915,68.265Z" transform="translate(-170.665 -68.265)"/></g></g></svg>