<svg xmlns="http://www.w3.org/2000/svg" width="72.531" height="71.272" viewBox="0 0 72.531 71.272"><defs><style>.a{fill:#51faf5;}</style></defs><g transform="translate(-34.735 -36.735)"><path class="a" d="M112.1,191.215a25.31,25.31,0,0,0-4.411,3.546,1.259,1.259,0,0,0,1.787,1.773,22.743,22.743,0,0,1,3.972-3.193,1.258,1.258,0,0,0-1.347-2.126Z" transform="translate(-49.749 -105.742)"/><path class="a" d="M93.6,215.321a1.258,1.258,0,0,0-1.734.4,25.138,25.138,0,0,0-2.433,5.112,1.259,1.259,0,1,0,2.38.819,22.6,22.6,0,0,1,2.188-4.6A1.258,1.258,0,0,0,93.6,215.321Z" transform="translate(-37.443 -122.267)"/><path class="a" d="M142.38,179.753a25.028,25.028,0,0,0-5.52,1.263,1.259,1.259,0,1,0,.836,2.374,22.477,22.477,0,0,1,4.964-1.136,1.258,1.258,0,0,0-.28-2.5Z" transform="translate(-69.417 -98.015)"/><path class="a" d="M203.756,191.176a1.258,1.258,0,0,0-1.345,2.128,22.808,22.808,0,0,1,3.975,3.189,1.258,1.258,0,0,0,1.785-1.775A25.233,25.233,0,0,0,203.756,191.176Z" transform="translate(-114.519 -105.716)"/><path class="a" d="M176.692,181a25.023,25.023,0,0,0-5.523-1.258,1.258,1.258,0,0,0-.278,2.5,22.559,22.559,0,0,1,4.966,1.132,1.258,1.258,0,0,0,.835-2.374Z" transform="translate(-92.55 -98.009)"/><path class="a" d="M228.1,215.661a1.259,1.259,0,1,0-2.135,1.334,22.6,22.6,0,0,1,2.193,4.594,1.258,1.258,0,0,0,2.38-.82A25.1,25.1,0,0,0,228.1,215.661Z" transform="translate(-130.934 -122.226)"/><path class="a" d="M126.932,63.265H66.524a1.259,1.259,0,0,0-1.259,1.259v60.408a1.259,1.259,0,0,0,1.259,1.259h60.408a1.259,1.259,0,0,0,1.259-1.259V64.524A1.259,1.259,0,0,0,126.932,63.265Zm-5.1,60.408c-.023-.464-.024-.931-.072-1.387a1.259,1.259,0,0,0-2.5.263c.039.37.038.749.059,1.124H74.14c.021-.376.02-.754.059-1.124a1.259,1.259,0,0,0-2.5-.263c-.048.457-.049.924-.072,1.387H67.782V76.848a31.469,31.469,0,0,0,45.389,14.5,1.258,1.258,0,1,0-1.318-2.144A28.953,28.953,0,0,1,67.809,65.782h57.838a28.736,28.736,0,0,1-8.491,19.249,1.258,1.258,0,0,0,1.776,1.783,31.426,31.426,0,0,0,6.742-9.931v46.79h-3.841Z" transform="translate(-20.924 -18.183)"/><path class="a" d="M154.3,95.265a5.034,5.034,0,1,0,5.034,5.034A5.04,5.04,0,0,0,154.3,95.265Zm0,7.551a2.517,2.517,0,1,1,2.517-2.517A2.52,2.52,0,0,1,154.3,102.816Z" transform="translate(-78.496 -40.115)"/><path class="a" d="M176.16,39.585a1.425,1.425,0,1,0-1.425-1.425A1.425,1.425,0,0,0,176.16,39.585Z" transform="translate(-95.952)"/><path class="a" d="M36.16,96.735a1.425,1.425,0,1,0,1.425,1.425A1.425,1.425,0,0,0,36.16,96.735Z" transform="translate(0 -41.122)"/><path class="a" d="M40.16,40.735a1.425,1.425,0,1,0,1.425,1.425A1.425,1.425,0,0,0,40.16,40.735Z" transform="translate(-2.741 -2.741)"/></g></svg>