<svg xmlns="http://www.w3.org/2000/svg" width="68.021" height="73.856" viewBox="0 0 68.021 73.856"><defs><style>.a{fill:#51faf5;}</style></defs><g transform="translate(-56.735 -48.736)"><path class="a" d="M174.259,99.516a36.459,36.459,0,0,0-33.536-50.78,1.459,1.459,0,0,0-1.459,1.459v2.917a1.459,1.459,0,0,0,2.917,0V51.69a33.553,33.553,0,0,1,29.632,46.13,9.47,9.47,0,0,0-11.434,14.54,33.1,33.1,0,0,1-18.2,6.333v-1.4a1.459,1.459,0,0,0-2.917,0v2.917a1.459,1.459,0,0,0,1.459,1.459,36.076,36.076,0,0,0,21.9-7.331,9.468,9.468,0,0,0,11.641-14.823Zm-6.551,13.4a6.564,6.564,0,1,1,6.564-6.564A6.571,6.571,0,0,1,167.709,112.917Z" transform="translate(-52.433)"/><path class="a" d="M124.017,102.494a1.459,1.459,0,0,0,2.917,0v-1.951a10.927,10.927,0,0,0,0-21.806V76.694a1.459,1.459,0,0,0-2.917,0V78.92a10.941,10.941,0,0,0,0,21.439Zm-5.835-12.855a8.023,8.023,0,1,1,8.023,8.023A8.032,8.032,0,0,1,118.182,89.639Z" transform="translate(-37.186 -16.836)"/><path class="a" d="M140.724,198.034a1.459,1.459,0,0,0-1.459,1.459v6.328a1.459,1.459,0,1,0,2.917,0v-6.328A1.459,1.459,0,0,0,140.724,198.034Z" transform="translate(-52.434 -94.854)"/><path class="a" d="M142.182,164.794a1.459,1.459,0,0,0-2.917,0v6.327a1.459,1.459,0,1,0,2.917,0Z" transform="translate(-52.434 -72.808)"/><path class="a" d="M73.1,52.735a5.835,5.835,0,1,0,5.835,5.835A5.842,5.842,0,0,0,73.1,52.735Zm0,8.752a2.917,2.917,0,1,1,2.917-2.917A2.92,2.92,0,0,1,73.1,61.487Z" transform="translate(-6.69 -2.541)"/><path class="a" d="M86.387,218.206a1.652,1.652,0,1,0,1.652,1.652A1.652,1.652,0,0,0,86.387,218.206Z" transform="translate(-17.789 -107.669)"/><path class="a" d="M58.387,242.206a1.652,1.652,0,1,0,1.652,1.652A1.652,1.652,0,0,0,58.387,242.206Z" transform="translate(0 -122.917)"/><path class="a" d="M62.387,198.206a1.652,1.652,0,1,0,1.652,1.652A1.652,1.652,0,0,0,62.387,198.206Z" transform="translate(-2.541 -94.963)"/></g></svg>