<svg id="SvgjsSvg1001" width="288" height="288" xmlns="http://www.w3.org/2000/svg" version="1.1" xmlns:xlink="http://www.w3.org/1999/xlink" xmlns:svgjs="http://svgjs.com/svgjs"><defs id="SvgjsDefs1002"></defs><g id="SvgjsG1008" transform="matrix(1,0,0,1,0,0)"><svg xmlns="http://www.w3.org/2000/svg" width="288" height="288" viewBox="0 0 88.448 88.448"><g transform="translate(18.125 7.211)" fill="#610c2b" class="color000 svgShape"><path fill="#53faf5" d="M382.973,54.934a7.77,7.77,0,0,1,0-10.995,7.97,7.97,0,0,1,10.995,0,7.774,7.774,0,1,1-10.995,10.992Z" transform="translate(-333.055 -41.741)" class="colorff3ee1 svgShape"></path><path fill="#53faf5" d="M107.2,330.706a7.77,7.77,0,0,1,0-10.995,7.969,7.969,0,0,1,10.995,0A7.774,7.774,0,1,1,107.2,330.706Z" transform="translate(-104.922 -269.874)" class="colorff3ee1 svgShape"></path><path fill="#53faf5" d="M193.956,206.912a12.956,12.956,0,1,1,12.956-12.956A12.971,12.971,0,0,1,193.956,206.912Z" transform="translate(-167.858 -156.943)" class="colorff3ee1 svgShape"></path></g><path fill="#53faf5" d="M83.131,23.547c-.151.167-.265.358-.425.518a12.932,12.932,0,0,1-3.849,2.628,38.644,38.644,0,0,1,4.408,17.53A39.041,39.041,0,1,1,44.224,5.182a38.64,38.64,0,0,1,17.53,4.408,12.922,12.922,0,0,1,2.625-3.846c.16-.159.357-.276.525-.426A43.8,43.8,0,0,0,44.224,0,44.224,44.224,0,1,0,88.447,44.224a43.8,43.8,0,0,0-5.317-20.677Z" class="colorff3ee1 svgShape"></path><path fill="#53faf5" d="M140.153,99.408A28.43,28.43,0,0,0,92.99,128.338a12.68,12.68,0,0,1,4.569-2.619,23.318,23.318,0,1,1,16.341,16.3,12.831,12.831,0,0,1-2.715,4.6,28.472,28.472,0,0,0,28.967-47.215Z" transform="translate(-75.774 -75.34)" class="colorff3ee1 svgShape"></path></svg></g></svg>