<svg xmlns="http://www.w3.org/2000/svg" xmlns:xlink="http://www.w3.org/1999/xlink" width="63.198" height="71.622" viewBox="0 0 63.198 71.622"><defs><style>.a{fill:#51faf5;}.b{clip-path:url(#a);}.c{clip-path:url(#b);}.d{clip-path:url(#c);}.e{clip-path:url(#e);}.f{clip-path:url(#g);}.g{clip-path:url(#i);}.h{clip-path:url(#k);}.i{clip-path:url(#m);}.j{clip-path:url(#o);}.k{clip-path:url(#q);}.l{clip-path:url(#s);}.m{clip-path:url(#u);}.n{clip-path:url(#w);}.o{clip-path:url(#y);}.p{clip-path:url(#aa);}.q{clip-path:url(#ac);}</style><clipPath id="a"><path class="a" d="M480.815-104.654a5.6,5.6,0,0,0,3.973-1.638,5.647,5.647,0,0,0,1.679-4,5.648,5.648,0,0,0-1.636-4.022A5.6,5.6,0,0,0,480.842-116h-.03a5.67,5.67,0,0,0-5.653,5.643,5.645,5.645,0,0,0,1.637,4.022,5.607,5.607,0,0,0,3.986,1.681Zm-3.88-5.693a3.884,3.884,0,0,1,3.877-3.862h.022a3.85,3.85,0,0,1,2.737,1.154,3.861,3.861,0,0,1,1.12,2.75,3.862,3.862,0,0,1-1.148,2.737,3.848,3.848,0,0,1-2.727,1.124h-.023a3.853,3.853,0,0,1-2.738-1.154,3.86,3.86,0,0,1-1.12-2.749Z" transform="translate(-475.159 116)"/></clipPath><clipPath id="b"><path class="a" d="M-417,8149.766H1884.988V-1497H-417Z" transform="translate(417 1497)"/></clipPath><clipPath id="c"><path class="a" d="M477.291-109.679l-11.261,6.555a.9.9,0,0,0-.325,1.223.887.887,0,0,0,.77.448.877.877,0,0,0,.443-.12l11.261-6.555a.9.9,0,0,0,.325-1.223A.884.884,0,0,0,477.291-109.679Z" transform="translate(-465.585 109.799)"/></clipPath><clipPath id="e"><path class="a" d="M457.306-98.489a5.616,5.616,0,0,0,2.6,3.468,5.54,5.54,0,0,0,2.82.771,5.655,5.655,0,0,0,4.891-2.829h0a5.72,5.72,0,0,0-2-7.783,5.537,5.537,0,0,0-4.273-.582,5.638,5.638,0,0,0-3.438,2.64,5.717,5.717,0,0,0-.595,4.316Zm2.128-3.412a3.867,3.867,0,0,1,2.36-1.813,3.858,3.858,0,0,1,.995-.132,3.783,3.783,0,0,1,1.927.529,3.919,3.919,0,0,1,1.369,5.334,3.853,3.853,0,0,1-5.281,1.416,3.838,3.838,0,0,1-1.778-2.372,3.926,3.926,0,0,1,.409-2.963Z" transform="translate(-457.123 105.638)"/></clipPath><clipPath id="g"><path class="a" d="M460.368-95.549v13.11a.891.891,0,0,0,.888.9.891.891,0,0,0,.888-.9v-13.11a.891.891,0,0,0-.888-.9.891.891,0,0,0-.888.9Z" transform="translate(-460.368 96.444)"/></clipPath><clipPath id="i"><path class="a" d="M457.76-76.185a5.652,5.652,0,0,0,4.92,2.882,5.535,5.535,0,0,0,2.768-.741,5.616,5.616,0,0,0,2.637-3.44,5.713,5.713,0,0,0-.55-4.322,5.621,5.621,0,0,0-7.688-2.141,5.718,5.718,0,0,0-2.087,7.762Zm2.967-6.207a3.782,3.782,0,0,1,1.891-.506,3.882,3.882,0,0,1,3.375,1.979,3.921,3.921,0,0,1,.377,2.967,3.84,3.84,0,0,1-1.8,2.352,3.851,3.851,0,0,1-5.266-1.472,3.919,3.919,0,0,1,1.424-5.32Z" transform="translate(-457.015 84.688)"/></clipPath><clipPath id="k"><path class="a" d="M465.435-77.93a.9.9,0,0,0,.325,1.223l11.262,6.555a.877.877,0,0,0,.443.12.887.887,0,0,0,.77-.448.9.9,0,0,0-.325-1.223l-11.262-6.555a.884.884,0,0,0-1.213.328Z" transform="translate(-465.316 78.378)"/></clipPath><clipPath id="m"><path class="a" d="M480.622-74.1h-.032a5.6,5.6,0,0,0-3.973,1.638,5.646,5.646,0,0,0-1.679,4,5.648,5.648,0,0,0,1.636,4.022,5.6,5.6,0,0,0,3.987,1.681h.03a5.67,5.67,0,0,0,5.653-5.643,5.645,5.645,0,0,0-1.637-4.022,5.607,5.607,0,0,0-3.987-1.681Zm-.03,9.555h-.022a3.849,3.849,0,0,1-2.737-1.154,3.861,3.861,0,0,1-1.12-2.75,3.861,3.861,0,0,1,1.148-2.737,3.847,3.847,0,0,1,2.727-1.124h.023a3.852,3.852,0,0,1,2.738,1.154,3.86,3.86,0,0,1,1.12,2.749,3.884,3.884,0,0,1-3.877,3.862Z" transform="translate(-474.939 74.105)"/></clipPath><clipPath id="o"><path class="a" d="M496.228-77.773a.884.884,0,0,0-1.213-.328l-11.261,6.555a.9.9,0,0,0-.325,1.223.887.887,0,0,0,.77.448.878.878,0,0,0,.443-.12L495.9-76.55A.9.9,0,0,0,496.228-77.773Z" transform="translate(-483.309 78.222)"/></clipPath><clipPath id="q"><path class="a" d="M493.776-81.667h0a5.72,5.72,0,0,0,2,7.783,5.538,5.538,0,0,0,2.82.775,5.625,5.625,0,0,0,1.453-.192,5.638,5.638,0,0,0,3.438-2.64,5.717,5.717,0,0,0,.595-4.316,5.616,5.616,0,0,0-2.6-3.468,5.622,5.622,0,0,0-7.711,2.058Zm6.814-.512a3.838,3.838,0,0,1,1.778,2.372,3.926,3.926,0,0,1-.409,2.963,3.868,3.868,0,0,1-2.36,1.813,3.79,3.79,0,0,1-2.922-.4,3.92,3.92,0,0,1-1.369-5.334,3.853,3.853,0,0,1,5.281-1.416Z" transform="translate(-493.002 84.496)"/></clipPath><clipPath id="s"><path class="a" d="M498.131-82.126v-13.11a.892.892,0,0,0-.888-.9.891.891,0,0,0-.888.9v13.11a.891.891,0,0,0,.888.9.891.891,0,0,0,.888-.9Z" transform="translate(-496.355 96.131)"/></clipPath><clipPath id="u"><path class="a" d="M503.633-102.562a5.621,5.621,0,0,0-7.688-2.141,5.616,5.616,0,0,0-2.637,3.44,5.712,5.712,0,0,0,.55,4.322,5.653,5.653,0,0,0,4.92,2.882,5.535,5.535,0,0,0,2.768-.741,5.718,5.718,0,0,0,2.087-7.762Zm-2.967,6.207a3.854,3.854,0,0,1-5.266-1.473,3.921,3.921,0,0,1-.377-2.967,3.841,3.841,0,0,1,1.8-2.352,3.782,3.782,0,0,1,1.891-.506,3.879,3.879,0,0,1,3.374,1.978,3.919,3.919,0,0,1-1.424,5.32Z" transform="translate(-493.109 105.443)"/></clipPath><clipPath id="w"><path class="a" d="M496.5-101.744a.9.9,0,0,0-.325-1.223l-11.262-6.555a.884.884,0,0,0-1.213.328.9.9,0,0,0,.325,1.223l11.262,6.555a.877.877,0,0,0,.443.12A.887.887,0,0,0,496.5-101.744Z" transform="translate(-483.578 109.642)"/></clipPath><clipPath id="y"><path class="a" d="M482.123-91.553a.891.891,0,0,0,.888.9,5.041,5.041,0,0,1,4.751,3.4.89.89,0,0,0,.839.6.884.884,0,0,0,.293-.051.9.9,0,0,0,.545-1.141,6.82,6.82,0,0,0-6.428-4.6.891.891,0,0,0-.888.9Z" transform="translate(-482.123 92.448)"/></clipPath><clipPath id="aa"><path class="a" d="M466.49-91.876A11.794,11.794,0,0,0,477.316-80.1,12.62,12.62,0,0,0,489.87-67.471a12.621,12.621,0,0,0,12.555-12.658A12.621,12.621,0,0,0,489.9-92.785,11.775,11.775,0,0,0,478.219-103.7,11.79,11.79,0,0,0,466.49-91.876Zm34.159,11.747A10.836,10.836,0,0,1,489.87-69.261,10.836,10.836,0,0,1,479.09-80.129,10.836,10.836,0,0,1,489.87-91a10.836,10.836,0,0,1,10.779,10.867ZM488.132-92.651a12.615,12.615,0,0,0-10.683,10.77,10.008,10.008,0,0,1-9.183-9.995,10.005,10.005,0,0,1,9.953-10.034A9.992,9.992,0,0,1,488.132-92.651Z" transform="translate(-466.49 103.7)"/></clipPath><clipPath id="ac"><path class="a" d="M474.025-99.2a.891.891,0,0,0,.888.9,4.2,4.2,0,0,1,3.956,2.831.89.89,0,0,0,.838.6.873.873,0,0,0,.293-.051.9.9,0,0,0,.545-1.14,5.976,5.976,0,0,0-5.633-4.031.891.891,0,0,0-.888.9Z" transform="translate(-474.025 100.096)"/></clipPath></defs><g transform="translate(-1095.384 -3608.624)"><g transform="translate(1095.384 3608.624)"><g class="b" transform="translate(26.103)"><g class="c" transform="translate(-1283.586 -1986.903)"><path class="a" d="M470.159-121h25.7v25.733h-25.7Z" transform="translate(806.234 2100.709)"/></g></g><g class="d" transform="translate(12.329 8.921)"><g class="c" transform="translate(-1269.813 -1995.824)"><path class="a" d="M460.585-114.8h27.426v22.734H460.585Z" transform="translate(802.034 2103.43)"/></g></g><g class="e" transform="translate(0.154 14.909)"><g class="c" transform="translate(-1257.637 -2001.812)"><path class="a" d="M452.123-110.638h25.656v25.775H452.123Z" transform="translate(798.321 2105.256)"/></g></g><g class="f" transform="translate(4.822 28.136)"><g class="c" transform="translate(-1262.306 -2015.039)"><path class="a" d="M455.368-101.444h16.163v29.288H455.368Z" transform="translate(799.744 2109.289)"/></g></g><g class="g" transform="translate(0 45.05)"><g class="c" transform="translate(-1257.483 -2031.952)"><path class="a" d="M452.015-89.688h25.655v25.772H452.015Z" transform="translate(798.274 2114.447)"/></g></g><g class="h" transform="translate(11.941 54.129)"><g class="c" transform="translate(-1269.425 -2041.031)"><path class="a" d="M460.316-83.378h27.426v22.733H460.316Z" transform="translate(801.915 2117.216)"/></g></g><g class="i" transform="translate(25.787 60.276)"><g class="c" transform="translate(-1283.27 -2047.179)"><path class="a" d="M469.939-79.1h25.7v25.733h-25.7Z" transform="translate(806.137 2119.09)"/></g></g><g class="j" transform="translate(37.83 54.354)"><g class="c" transform="translate(-1295.313 -2041.256)"><path class="a" d="M478.309-83.222h27.426v22.734H478.309Z" transform="translate(809.81 2117.284)"/></g></g><g class="k" transform="translate(51.775 45.327)"><g class="c" transform="translate(-1309.258 -2032.229)"><path class="a" d="M488-89.5h25.655v25.775H488Z" transform="translate(814.062 2114.531)"/></g></g><g class="l" transform="translate(56.599 28.586)"><g class="c" transform="translate(-1314.082 -2015.489)"><path class="a" d="M491.355-101.131h16.163v29.288H491.355Z" transform="translate(815.534 2109.427)"/></g></g><g class="m" transform="translate(51.93 15.187)"><g class="c" transform="translate(-1309.413 -2002.091)"><path class="a" d="M488.109-110.443h25.655v25.772H488.109Z" transform="translate(814.11 2105.341)"/></g></g><g class="n" transform="translate(38.217 9.147)"><g class="c" transform="translate(-1295.7 -1996.05)"><path class="a" d="M478.578-114.642H506v22.734H478.578Z" transform="translate(809.928 2103.499)"/></g></g><g class="o" transform="translate(36.123 33.885)"><g class="c" transform="translate(-1293.606 -2020.788)"><path class="a" d="M477.123-97.448h21.754v20.177H477.123Z" transform="translate(809.289 2111.042)"/></g></g><g class="p" transform="translate(13.631 17.697)"><g class="c" transform="translate(-1271.115 -2004.599)"><path class="a" d="M461.49-108.7h50.322v50.616H461.49Z" transform="translate(802.431 2106.106)"/></g></g><g class="q" transform="translate(24.472 22.882)"><g class="c" transform="translate(-1281.955 -2009.785)"><path class="a" d="M469.025-105.1h20.958v19.609H469.025Z" transform="translate(805.737 2107.687)"/></g></g></g></g></svg>