<svg xmlns="http://www.w3.org/2000/svg" xmlns:xlink="http://www.w3.org/1999/xlink" width="71.373" height="71.367" viewBox="0 0 71.373 71.367"><defs><style>.a{fill:#51faf5;}.b{clip-path:url(#a);}.c{clip-path:url(#b);}.d{clip-path:url(#c);}.e{clip-path:url(#e);}.f{clip-path:url(#g);}.g{clip-path:url(#i);}.h{clip-path:url(#k);}</style><clipPath id="a"><path class="a" d="M689.046-62.37a23.624,23.624,0,0,0,23.606-23.59,23.624,23.624,0,0,0-23.606-23.59A23.624,23.624,0,0,0,665.44-85.96,23.624,23.624,0,0,0,689.046-62.37Zm0-45.4A21.838,21.838,0,0,1,710.867-85.96a21.839,21.839,0,0,1-21.822,21.806A21.838,21.838,0,0,1,667.225-85.96,21.838,21.838,0,0,1,689.046-107.766Z" transform="translate(-665.44 109.55)"/></clipPath><clipPath id="b"><path class="a" d="M-417,9389.868H2180.91V-1497H-417Z" transform="translate(417 1497)"/></clipPath><clipPath id="c"><path class="a" d="M686.316-72.2a16.512,16.512,0,0,0,16.5-16.488,16.512,16.512,0,0,0-16.5-16.488,16.512,16.512,0,0,0-16.5,16.488A16.512,16.512,0,0,0,686.316-72.2Zm0-31.192a14.726,14.726,0,0,1,14.715,14.7,14.726,14.726,0,0,1-14.715,14.7,14.726,14.726,0,0,1-14.715-14.7A14.726,14.726,0,0,1,686.316-103.392Z" transform="translate(-669.817 105.176)"/></clipPath><clipPath id="e"><path class="a" d="M685.82-89.425a4.049,4.049,0,0,0,4.045-4.043,4.049,4.049,0,0,0-4.045-4.043,4.049,4.049,0,0,0-4.045,4.043A4.049,4.049,0,0,0,685.82-89.425Zm0-6.3a2.262,2.262,0,0,1,2.261,2.259,2.262,2.262,0,0,1-2.261,2.259,2.262,2.262,0,0,1-2.261-2.259A2.262,2.262,0,0,1,685.82-95.727Z" transform="translate(-681.775 97.512)"/></clipPath><clipPath id="g"><path class="a" d="M677.245-89.425a4.049,4.049,0,0,0,4.045-4.043,4.049,4.049,0,0,0-4.045-4.043,4.049,4.049,0,0,0-4.045,4.043A4.049,4.049,0,0,0,677.245-89.425Zm0-6.3a2.262,2.262,0,0,1,2.261,2.259,2.262,2.262,0,0,1-2.261,2.259,2.262,2.262,0,0,1-2.261-2.259A2.262,2.262,0,0,1,677.245-95.727Z" transform="translate(-673.2 97.512)"/></clipPath><clipPath id="i"><path class="a" d="M693.686-48.091a35.527,35.527,0,0,0,12.9-2.4.892.892,0,0,0,.51-1.154.891.891,0,0,0-1.154-.509,33.768,33.768,0,0,1-12.259,2.284,33.939,33.939,0,0,1-33.9-33.9,33.983,33.983,0,0,1,12.868-26.578v5.958a.892.892,0,0,0,.892.892.892.892,0,0,0,.892-.892v-7.773c0-.014-.007-.026-.008-.039a.854.854,0,0,0-.049-.242.859.859,0,0,0-.06-.136.844.844,0,0,0-.038-.086c-.015-.021-.037-.031-.054-.05a.871.871,0,0,0-.161-.151.912.912,0,0,0-.082-.055.866.866,0,0,0-.251-.094c-.018,0-.035-.008-.053-.011a.841.841,0,0,0-.136-.027H665.77a.892.892,0,0,0-.892.892.892.892,0,0,0,.892.892h5.194A35.767,35.767,0,0,0,658-83.774,35.726,35.726,0,0,0,693.686-48.091Z" transform="translate(-658 113.06)"/></clipPath><clipPath id="k"><path class="a" d="M684.857-117a35.591,35.591,0,0,0-12.11,2.108.892.892,0,0,0-.537,1.142.893.893,0,0,0,1.141.537,33.8,33.8,0,0,1,11.506-2,33.939,33.939,0,0,1,33.9,33.9,34.069,34.069,0,0,1-12.3,26.122v-5.9a.892.892,0,0,0-.892-.892.892.892,0,0,0-.892.892v7.605a.892.892,0,0,0,0,.149v.02s0,0,0,.006a.862.862,0,0,0,.059.293.859.859,0,0,0,.052.111.866.866,0,0,0,.047.1c.013.017.034.023.047.04a.879.879,0,0,0,.273.228l0,0a.871.871,0,0,0,.41.112h7.773a.892.892,0,0,0,.892-.892.892.892,0,0,0-.892-.892h-5.283a35.862,35.862,0,0,0,12.489-27.1A35.726,35.726,0,0,0,684.857-117Z" transform="translate(-672.157 117)"/></clipPath></defs><g transform="translate(-1421.721 -3607)"><g class="b" transform="translate(1433.802 3619.097)"><g class="c" transform="translate(-1757.552 -2252.794)"><path class="a" d="M660.44-114.55h63.448v63.417H660.44Z" transform="translate(1088.993 2359.226)"/></g></g><g class="d" transform="translate(1440.908 3626.198)"><g class="c" transform="translate(-1764.659 -2259.896)"><path class="a" d="M664.817-110.176h49.235v49.214H664.817Z" transform="translate(1091.723 2361.954)"/></g></g><g class="e" transform="translate(1460.323 3638.643)"><g class="c" transform="translate(-1784.073 -2272.341)"><path class="a" d="M676.775-102.512H701.1v24.324H676.775Z" transform="translate(1099.181 2366.734)"/></g></g><g class="f" transform="translate(1446.401 3638.643)"><g class="c" transform="translate(-1770.151 -2272.341)"><path class="a" d="M668.2-102.512h24.327v24.324H668.2Z" transform="translate(1093.833 2366.734)"/></g></g><g class="g" transform="translate(1421.721 3613.398)"><g class="c" transform="translate(-1745.471 -2247.096)"><path class="a" d="M653-118.06h65.4v81.206H653Z" transform="translate(1084.353 2357.037)"/></g></g><g class="h" transform="translate(1444.707 3607)"><g class="c" transform="translate(-1768.457 -2240.698)"><path class="a" d="M667.157-122H731.78v80.806H667.157Z" transform="translate(1093.182 2354.579)"/></g></g></g></svg>