<svg xmlns="http://www.w3.org/2000/svg" width="81.295" height="93.872" viewBox="0 0 81.295 93.872"><defs><style>.a{fill:#ff3ee1;}</style></defs><g transform="translate(0 -0.001)"><path class="a" d="M74.88,0,34.233,23.468V70.4L74.88,93.871,115.528,70.4V23.468Zm2.755,27.814h24.854L77.636,42.163V27.814ZM72.125,42.163,47.271,27.814H72.125Zm-2.663,4.826-12.5,7.179-12.468-21.6Zm2.663,4.825V80.433L59.716,58.939Zm5.511-.106,12.427,7.175L77.636,80.407Zm2.755-4.772,24.854-14.349L92.818,54.11ZM77.636,22.3V7.954L102.49,22.3H77.636Zm-5.511,0H47.271L72.125,7.954ZM39.744,35.369,52.181,56.911,39.744,64.053ZM54.937,61.684,67.33,83.149,42.51,68.819Zm39.9-.046,12.427,7.175L82.408,83.162Zm2.755-4.772,12.427-21.524v28.7Z" transform="translate(-34.233 0.001)"/></g></svg>