<svg xmlns="http://www.w3.org/2000/svg" width="74.18" height="71.622" viewBox="0 0 74.18 71.622"><defs><style>.a{fill:#51faf5;}</style></defs><g transform="translate(-34 -38)"><path class="a" d="M108.016,114.828a1.281,1.281,0,0,0-.022-1.291L72.183,54.7A1.331,1.331,0,0,0,70,54.7L34.186,113.537a1.279,1.279,0,0,0,1.093,1.944H106.9A1.28,1.28,0,0,0,108.016,114.828ZM71.09,111.741,55.461,86.064H86.719Zm0-53.912L86.72,83.507H55.46ZM37.555,112.923l15.63-25.677,15.63,25.677Zm35.811,0L89,87.245l15.63,25.677Z" transform="translate(0 -10.974)"/><path class="a" d="M183.116,48.232A5.116,5.116,0,1,0,178,43.116,5.121,5.121,0,0,0,183.116,48.232Zm0-7.674a2.558,2.558,0,1,1-2.558,2.558A2.561,2.561,0,0,1,183.116,40.558Z" transform="translate(-97.957)"/><path class="a" d="M236.918,54.367a1.448,1.448,0,1,0-1.448-1.448A1.448,1.448,0,0,0,236.918,54.367Z" transform="translate(-137.052 -9.163)"/><path class="a" d="M224.918,90.367a1.448,1.448,0,1,0-1.448-1.448A1.448,1.448,0,0,0,224.918,90.367Z" transform="translate(-128.889 -33.652)"/><path class="a" d="M37.837,254H35.279a1.279,1.279,0,0,0,0,2.558h2.558a1.279,1.279,0,1,0,0-2.558Z" transform="translate(0 -146.936)"/><path class="a" d="M64.395,254H59.279a1.279,1.279,0,0,0,0,2.558h5.116a1.279,1.279,0,0,0,0-2.558Z" transform="translate(-16.326 -146.936)"/><path class="a" d="M192.395,254h-5.116a1.279,1.279,0,1,0,0,2.558h5.116a1.279,1.279,0,0,0,0-2.558Z" transform="translate(-103.399 -146.936)"/><path class="a" d="M160.395,254h-5.116a1.279,1.279,0,1,0,0,2.558h5.116a1.279,1.279,0,0,0,0-2.558Z" transform="translate(-81.631 -146.936)"/><path class="a" d="M224.395,254h-5.116a1.279,1.279,0,0,0,0,2.558h5.116a1.279,1.279,0,0,0,0-2.558Z" transform="translate(-125.168 -146.936)"/><path class="a" d="M96.395,254H91.279a1.279,1.279,0,0,0,0,2.558h5.116a1.279,1.279,0,1,0,0-2.558Z" transform="translate(-38.094 -146.936)"/><path class="a" d="M128.395,254h-5.116a1.279,1.279,0,1,0,0,2.558h5.116a1.279,1.279,0,1,0,0-2.558Z" transform="translate(-59.863 -146.936)"/><path class="a" d="M253.837,254h-2.558a1.279,1.279,0,0,0,0,2.558h2.558a1.279,1.279,0,0,0,0-2.558Z" transform="translate(-146.936 -146.936)"/></g></svg>