<svg xmlns="http://www.w3.org/2000/svg" width="71.373" height="65.322" viewBox="0 0 71.373 65.322"><defs><style>.a{fill:#51faf5;}</style></defs><g transform="translate(-40.736 -50)"><path class="a" d="M88.491,92.451a5.226,5.226,0,1,0-5.226-5.226A5.231,5.231,0,0,0,88.491,92.451Zm0-7.839a2.613,2.613,0,1,1-2.613,2.613A2.616,2.616,0,0,1,88.491,84.613Z" transform="translate(-28.639 -21.549)"/><path class="a" d="M114.215,58.429a1.479,1.479,0,1,0-1.479-1.479A1.479,1.479,0,0,0,114.215,58.429Z" transform="translate(-48.484 -3.683)"/><path class="a" d="M42.215,115.47a1.479,1.479,0,1,0,1.479,1.48A1.479,1.479,0,0,0,42.215,115.47Z" transform="translate(0 -44.087)"/><path class="a" d="M123.28,50H106.062A15.46,15.46,0,0,0,90.619,65.442V81.354H74.707A15.46,15.46,0,0,0,59.265,96.8v17.218a1.306,1.306,0,0,0,1.306,1.306H77.79A15.46,15.46,0,0,0,93.232,99.879V83.967h15.912a15.46,15.46,0,0,0,15.442-15.442V51.306A1.306,1.306,0,0,0,123.28,50ZM90.619,99.879A12.844,12.844,0,0,1,77.79,112.709H61.878V96.8a12.844,12.844,0,0,1,12.83-12.83H90.619Zm31.354-31.354a12.844,12.844,0,0,1-12.829,12.83H93.232V65.442a12.844,12.844,0,0,1,12.829-12.829h15.912Z" transform="translate(-12.477)"/></g></svg>