<svg xmlns="http://www.w3.org/2000/svg" width="131.662" height="32.951" viewBox="0 0 131.662 32.951"><defs><style>.a{fill:#fff;}.b{opacity:0.75;}.c{fill:#08e4f4;}</style></defs><g transform="translate(0.001 -0.36)"><g transform="translate(56.584 13.103)"><path class="a" d="M93.866,20.846a4.268,4.268,0,0,1,1.487,3.446,4.237,4.237,0,0,1-1.487,3.436,6.227,6.227,0,0,1-4.112,1.242H86.073V33.3H84.625v-13.7h5.129A6.2,6.2,0,0,1,93.866,20.846Zm-1.038,5.961A3.083,3.083,0,0,0,93.9,24.292a3.129,3.129,0,0,0-1.077-2.555,4.772,4.772,0,0,0-3.113-.891H86.073V27.7h3.642A4.768,4.768,0,0,0,92.828,26.807Z" transform="translate(-84.625 -19.476)"/><path class="a" d="M120.274,33.3l-3.132-4.405a9.86,9.86,0,0,1-1.1.059h-3.681V33.3h-1.448v-13.7h5.129a6.2,6.2,0,0,1,4.112,1.252,4.268,4.268,0,0,1,1.487,3.446A4.458,4.458,0,0,1,120.832,27a4.509,4.509,0,0,1-2.32,1.6l3.348,4.7Zm-1.155-6.48a3.112,3.112,0,0,0,1.077-2.526,3.129,3.129,0,0,0-1.077-2.555,4.772,4.772,0,0,0-3.113-.891h-3.642v6.872h3.642A4.735,4.735,0,0,0,119.119,26.817Z" transform="translate(-93.336 -19.476)"/><path class="a" d="M137.647,19.594H139.1V33.3h-1.448Z" transform="translate(-102.194 -19.476)"/><path class="a" d="M152.253,32.867a5.375,5.375,0,0,1-2.164-1.291l.568-1.116a5.424,5.424,0,0,0,1.977,1.2,7.232,7.232,0,0,0,2.545.459,4.654,4.654,0,0,0,2.76-.675,2.08,2.08,0,0,0,.92-1.752,1.754,1.754,0,0,0-.5-1.312,3.368,3.368,0,0,0-1.224-.754,19.979,19.979,0,0,0-2.016-.578,21.136,21.136,0,0,1-2.467-.754,4.045,4.045,0,0,1-1.576-1.106,2.94,2.94,0,0,1-.656-2.017,3.415,3.415,0,0,1,.548-1.889,3.752,3.752,0,0,1,1.684-1.361,6.894,6.894,0,0,1,2.819-.509,8.3,8.3,0,0,1,2.3.323,6.6,6.6,0,0,1,1.948.891l-.49,1.154a6.755,6.755,0,0,0-1.84-.851,6.867,6.867,0,0,0-1.918-.284,4.436,4.436,0,0,0-2.712.695,2.157,2.157,0,0,0-.91,1.791,1.786,1.786,0,0,0,.5,1.321,3.28,3.28,0,0,0,1.253.764q.753.264,2.026.577a20.3,20.3,0,0,1,2.437.735,4,4,0,0,1,1.576,1.1,2.9,2.9,0,0,1,.646,1.987,3.375,3.375,0,0,1-.558,1.889,3.749,3.749,0,0,1-1.713,1.351,7.153,7.153,0,0,1-2.838.5A8.782,8.782,0,0,1,152.253,32.867Z" transform="translate(-106.316 -19.418)"/><path class="a" d="M189.852,19.594V33.3h-1.39V22.335l-5.384,9.221h-.685l-5.383-9.163V33.3H175.62v-13.7h1.194l5.951,10.16,5.893-10.16Z" transform="translate(-114.776 -19.476)"/></g><g transform="translate(-0.001 0.36)"><g class="b"><path class="c" d="M2.638,28.006h28.9a2.635,2.635,0,0,0,2.215-4.063L19.326,1.567a2.635,2.635,0,0,0-4.427,0L.425,23.939A2.635,2.635,0,0,0,2.638,28.006Z" transform="translate(0.001 -0.36)"/></g><g class="b" transform="translate(10.258 5.306)"><path class="c" d="M17.979,35.94h28.33A2.947,2.947,0,0,0,48.785,31.4L34.667,9.5a2.636,2.636,0,0,0-4.428,0L15.766,31.874A2.635,2.635,0,0,0,17.979,35.94Z" transform="translate(-15.34 -8.294)"/></g></g></g></svg>