<svg width="111" height="21" viewBox="0 0 111 21" fill="none" xmlns="http://www.w3.org/2000/svg">
<g clip-path="url(#clip0_4119_26391)">
<path d="M94.0723 0L100.754 10.2016L95.0118 21L111 9.71854L94.0723 0Z" fill="#B6BFD3"/>
<path d="M93.9507 11.6339H89.5295C88.9216 11.6339 88.4242 11.1224 88.4242 10.4973C88.4242 9.8721 88.9216 9.3606 89.5295 9.3606H93.9507C94.5586 9.3606 95.056 9.8721 95.056 10.4973C95.056 11.1224 94.5586 11.6339 93.9507 11.6339ZM85.1083 11.6339H80.6871C80.0792 11.6339 79.5818 11.1224 79.5818 10.4973C79.5818 9.8721 80.0792 9.3606 80.6871 9.3606H85.1083C85.7162 9.3606 86.2136 9.8721 86.2136 10.4973C86.2136 11.1224 85.7162 11.6339 85.1083 11.6339ZM76.2659 11.6339H71.8447C71.2367 11.6339 70.7394 11.1224 70.7394 10.4973C70.7394 9.8721 71.2367 9.3606 71.8447 9.3606H76.2659C76.8738 9.3606 77.3712 9.8721 77.3712 10.4973C77.3712 11.1224 76.8738 11.6339 76.2659 11.6339ZM67.4234 11.6339H63.0022C62.3943 11.6339 61.8969 11.1224 61.8969 10.4973C61.8969 9.8721 62.3943 9.3606 63.0022 9.3606H67.4234C68.0314 9.3606 68.5288 9.8721 68.5288 10.4973C68.5288 11.1224 68.0314 11.6339 67.4234 11.6339ZM58.581 11.6339H54.1598C53.5519 11.6339 53.0545 11.1224 53.0545 10.4973C53.0545 9.8721 53.5519 9.3606 54.1598 9.3606H58.581C59.1889 9.3606 59.6863 9.8721 59.6863 10.4973C59.6863 11.1224 59.1889 11.6339 58.581 11.6339ZM49.7386 11.6339H45.3174C44.7095 11.6339 44.2121 11.1224 44.2121 10.4973C44.2121 9.8721 44.7095 9.3606 45.3174 9.3606H49.7386C50.3465 9.3606 50.8439 9.8721 50.8439 10.4973C50.8439 11.1224 50.3465 11.6339 49.7386 11.6339ZM40.8962 11.6339H36.475C35.8671 11.6339 35.3697 11.1224 35.3697 10.4973C35.3697 9.8721 35.8671 9.3606 36.475 9.3606H40.8962C41.5041 9.3606 42.0015 9.8721 42.0015 10.4973C42.0015 11.1224 41.5041 11.6339 40.8962 11.6339ZM32.0538 11.6339H27.6326C27.0246 11.6339 26.5273 11.1224 26.5273 10.4973C26.5273 9.8721 27.0246 9.3606 27.6326 9.3606H32.0538C32.6617 9.3606 33.1591 9.8721 33.1591 10.4973C33.1591 11.1224 32.6617 11.6339 32.0538 11.6339ZM23.2114 11.6339H18.7901C18.1822 11.6339 17.6848 11.1224 17.6848 10.4973C17.6848 9.8721 18.1822 9.3606 18.7901 9.3606H23.2114C23.8193 9.3606 24.3167 9.8721 24.3167 10.4973C24.3167 11.1224 23.8193 11.6339 23.2114 11.6339ZM14.3689 11.6339H9.94772C9.33981 11.6339 8.84242 11.1224 8.84242 10.4973C8.84242 9.8721 9.33981 9.3606 9.94772 9.3606H14.3689C14.9768 9.3606 15.4742 9.8721 15.4742 10.4973C15.4742 11.1224 14.9768 11.6339 14.3689 11.6339ZM5.52651 11.6339H1.1053C0.497386 11.6339 0 11.1224 0 10.4973C0 9.8721 0.497386 9.3606 1.1053 9.3606H5.52651C6.13443 9.3606 6.63181 9.8721 6.63181 10.4973C6.63181 11.1224 6.13443 11.6339 5.52651 11.6339Z" fill="#B6BFD3"/>
</g>
<defs>
<clipPath id="clip0_4119_26391">
<rect width="111" height="21" fill="white"/>
</clipPath>
</defs>
</svg>
