<svg width="50" height="50" viewBox="0 0 50 50" fill="none" xmlns="http://www.w3.org/2000/svg">
<g clip-path="url(#clip0_4013_63465)">
<path d="M43.071 8.71784C43.7674 8.71784 44.4482 8.5118 45.0272 8.12576C45.6063 7.73972 46.0576 7.19103 46.3241 6.54908C46.5906 5.90712 46.6603 5.20073 46.5245 4.51923C46.3886 3.83773 46.0532 3.21174 45.5608 2.72041C45.0684 2.22907 44.4409 1.89447 43.7579 1.75891C43.0749 1.62336 42.3669 1.69293 41.7235 1.95884C41.0801 2.22474 40.5301 2.67504 40.1432 3.25279C39.7563 3.83053 39.5498 4.50978 39.5498 5.20463C39.551 6.13603 39.9223 7.02896 40.5824 7.68756C41.2425 8.34617 42.1375 8.71668 43.071 8.71784ZM43.071 3.44802C43.4192 3.44802 43.7596 3.55104 44.0491 3.74406C44.3386 3.93708 44.5643 4.21142 44.6975 4.5324C44.8308 4.85338 44.8656 5.20658 44.7977 5.54732C44.7298 5.88807 44.5621 6.20107 44.3159 6.44674C44.0697 6.6924 43.756 6.8597 43.4144 6.92748C43.0729 6.99526 42.7189 6.96047 42.3972 6.82752C42.0755 6.69457 41.8005 6.46942 41.6071 6.18055C41.4136 5.89167 41.3104 5.55205 41.3104 5.20463C41.3103 4.97389 41.3558 4.7454 41.4442 4.53221C41.5327 4.31902 41.6623 4.12529 41.8258 3.96211C41.9893 3.79893 42.1834 3.66948 42.3971 3.58116C42.6107 3.49285 42.8397 3.44739 43.071 3.44739V3.44802Z" fill="url(#paint0_linear_4013_63465)"/>
<path d="M12.6994 4.00314C12.8965 4.00301 13.0891 3.94459 13.2529 3.83525C13.4167 3.72591 13.5444 3.57057 13.6197 3.38886C13.695 3.20716 13.7147 3.00724 13.6761 2.81439C13.6376 2.62155 13.5427 2.44443 13.4032 2.30543C13.2638 2.16642 13.0863 2.07178 12.893 2.03347C12.6997 1.99515 12.4993 2.01488 12.3172 2.09016C12.1352 2.16544 11.9795 2.29289 11.8701 2.4564C11.7606 2.6199 11.7021 2.81213 11.7021 3.00877C11.7023 3.27255 11.8075 3.52547 11.9945 3.71193C12.1815 3.89839 12.435 4.00314 12.6994 4.00314Z" fill="url(#paint1_linear_4013_63465)"/>
<path d="M5.65642 6.63815C5.85351 6.63802 6.04613 6.5796 6.20994 6.47026C6.37375 6.36092 6.50139 6.20558 6.57672 6.02387C6.65206 5.84217 6.6717 5.64225 6.63318 5.4494C6.59465 5.25656 6.49969 5.07944 6.36028 4.94044C6.22088 4.80143 6.0433 4.70679 5.84999 4.66848C5.65668 4.63016 5.45633 4.64989 5.27426 4.72517C5.09219 4.80044 4.93658 4.9279 4.8271 5.0914C4.71761 5.25491 4.65918 5.44714 4.65918 5.64378C4.65935 5.90756 4.76449 6.16048 4.95149 6.34694C5.13849 6.5334 5.39204 6.63815 5.65642 6.63815Z" fill="url(#paint2_linear_4013_63465)"/>
<path d="M49.1668 24.5278C49.1694 23.6397 48.9953 22.76 48.6547 21.9395C48.3141 21.119 47.8136 20.3741 47.1824 19.748L29.3742 1.97987C28.7451 1.3521 27.9982 0.854124 27.1762 0.514373C26.3542 0.174622 25.4732 -0.000244141 24.5835 -0.000244141C23.6938 -0.000244141 22.8128 0.174622 21.9908 0.514373C21.1688 0.854124 20.4219 1.3521 19.7928 1.97987L1.98459 19.748C1.3554 20.3756 0.856301 21.1208 0.515782 21.9409C0.175264 22.7611 0 23.6401 0 24.5278C0 25.4156 0.175264 26.2946 0.515782 27.1147C0.856301 27.9349 1.3554 28.68 1.98459 29.3077L17.9134 45.2012C14.5249 45.7552 14.02 46.5959 14.02 47.3656C14.02 49.744 21.4075 50.0005 24.5835 50.0005C34.1183 50.0005 35.147 48.1574 35.147 47.3656C35.147 46.6341 34.6565 45.7602 31.2536 45.2006L47.1818 29.3089C47.8133 28.6827 48.3139 27.9376 48.6546 27.1169C48.9954 26.2962 49.1695 25.4162 49.1668 24.5278ZM19.474 46.7571L19.7935 47.0758C20.2044 47.4833 20.6659 47.8367 21.1667 48.1273C19.5294 48.057 17.9053 47.8028 16.3251 47.3694C17.3518 47.0614 18.4066 46.8563 19.474 46.7571ZM32.8438 47.3681C31.2637 47.802 29.6395 48.0565 28.0022 48.1266C28.503 47.836 28.9645 47.4827 29.3754 47.0752L29.6936 46.7577C30.7613 46.8566 31.8165 47.0611 32.8438 47.3681ZM28.1279 45.833C27.6623 46.2976 27.1096 46.6662 26.5012 46.9177C25.8928 47.1691 25.2407 47.2985 24.5822 47.2985C23.9237 47.2985 23.2717 47.1691 22.6633 46.9177C22.0549 46.6662 21.5022 46.2976 21.0366 45.833L3.2302 28.0655C2.76452 27.601 2.39511 27.0495 2.14308 26.4425C1.89105 25.8355 1.76133 25.1849 1.76133 24.5278C1.76133 23.8708 1.89105 23.2202 2.14308 22.6132C2.39511 22.0062 2.76452 21.4547 3.2302 20.9901L21.0378 3.22267C21.5034 2.75804 22.0562 2.38947 22.6646 2.13801C23.2729 1.88655 23.925 1.75712 24.5835 1.75712C25.242 1.75712 25.8941 1.88655 26.5024 2.13801C27.1108 2.38947 27.6636 2.75804 28.1292 3.22267L45.9368 20.9901C46.4025 21.4547 46.7719 22.0062 47.0239 22.6132C47.2759 23.2202 47.4057 23.8708 47.4057 24.5278C47.4057 25.1849 47.2759 25.8355 47.0239 26.4425C46.7719 27.0495 46.4025 27.601 45.9368 28.0655L28.1279 45.833Z" fill="url(#paint3_linear_4013_63465)"/>
<path d="M30.7443 13.9875C29.4856 13.9887 28.2502 14.3262 27.1666 14.965C26.0829 15.6038 25.1906 16.5206 24.5822 17.62C23.9821 16.5349 23.1051 15.6274 22.04 14.9897C20.9749 14.352 19.7597 14.0067 18.5177 13.9889C17.2757 13.9711 16.0511 14.2813 14.968 14.8881C13.885 15.495 12.9821 16.3769 12.3509 17.4443C11.7198 18.5117 11.3828 19.7267 11.3742 20.966C11.3656 22.2053 11.6857 23.4248 12.302 24.5008C12.9183 25.5769 13.8088 26.4711 14.8834 27.0929C15.9579 27.7146 17.1781 28.0417 18.4202 28.0411C18.6566 28.0411 18.8899 28.0285 19.1201 28.0059C18.2797 29.0364 17.7493 30.2834 17.5905 31.6025C17.4317 32.9215 17.6509 34.2584 18.2227 35.4581C18.7945 36.6579 19.6955 37.6713 20.8212 38.3808C21.9469 39.0904 23.2511 39.467 24.5826 39.467C25.9141 39.467 27.2183 39.0904 28.3439 38.3808C29.4696 37.6713 30.3706 36.6579 30.9424 35.4581C31.5142 34.2584 31.7334 32.9215 31.5746 31.6025C31.4158 30.2834 30.8854 29.0364 30.0451 28.0059C30.2752 28.0285 30.5085 28.0411 30.7449 28.0411C32.6126 28.0411 34.4039 27.3008 35.7246 25.9831C37.0453 24.6653 37.7872 22.8781 37.7872 21.0146C37.7872 19.1511 37.0453 17.3639 35.7246 16.0462C34.4039 14.7285 32.6126 13.9882 30.7449 13.9882L30.7443 13.9875ZM13.1385 21.014C13.1385 19.9717 13.4483 18.9528 14.0286 18.0862C14.609 17.2196 15.4339 16.5442 16.399 16.1453C17.3641 15.7464 18.4261 15.6421 19.4506 15.8454C20.4752 16.0488 21.4163 16.5507 22.155 17.2877C22.8936 18.0247 23.3967 18.9636 23.6005 19.9859C23.8043 21.0081 23.6997 22.0677 23.2999 23.0307C22.9001 23.9936 22.2232 24.8166 21.3546 25.3957C20.486 25.9747 19.4648 26.2838 18.4202 26.2838C17.02 26.2822 15.6777 25.7265 14.6875 24.7387C13.6974 23.7509 13.1403 22.4116 13.1385 21.0146V21.014ZM24.5822 24.408C24.7845 24.7722 25.0187 25.1177 25.2821 25.4406C25.0519 25.4181 24.8187 25.4055 24.5822 25.4055C24.3458 25.4055 24.1125 25.4181 23.8824 25.4406C24.1458 25.1179 24.3799 24.7726 24.5822 24.4086V24.408ZM24.5822 37.7024C23.5376 37.7024 22.5164 37.3933 21.6479 36.8143C20.7793 36.2352 20.1023 35.4122 19.7026 34.4493C19.3028 33.4863 19.1982 32.4267 19.402 31.4045C19.6058 30.3822 20.1088 29.4432 20.8475 28.7062C21.5862 27.9692 22.5273 27.4673 23.5518 27.264C24.5764 27.0607 25.6384 27.165 26.6035 27.5639C27.5686 27.9627 28.3935 28.6382 28.9738 29.5048C29.5542 30.3714 29.864 31.3903 29.864 32.4326C29.8625 33.8298 29.3056 35.1694 28.3154 36.1575C27.3252 37.1455 25.9826 37.7014 24.5822 37.703V37.7024ZM30.7443 26.2844C29.6996 26.2844 28.6785 25.9754 27.8099 25.3963C26.9413 24.8173 26.2643 23.9942 25.8646 23.0313C25.4648 22.0684 25.3602 21.0088 25.564 19.9865C25.7678 18.9643 26.2709 18.0253 27.0095 17.2883C27.7482 16.5513 28.6893 16.0494 29.7139 15.846C30.7384 15.6427 31.8004 15.7471 32.7655 16.1459C33.7306 16.5448 34.5555 17.2202 35.1359 18.0869C35.7162 18.9535 36.026 19.9723 36.026 21.0146C36.0243 22.4118 35.4673 23.7512 34.4772 24.7391C33.487 25.727 32.1446 26.2828 30.7443 26.2844Z" fill="url(#paint4_linear_4013_63465)"/>
</g>
<defs>
<linearGradient id="paint0_linear_4013_63465" x1="43.071" y1="1.69141" x2="43.071" y2="8.71784" gradientUnits="userSpaceOnUse">
<stop stop-color="#5E75E8"/>
<stop offset="1" stop-color="#DA88DE"/>
</linearGradient>
<linearGradient id="paint1_linear_4013_63465" x1="12.6988" y1="2.0144" x2="12.6988" y2="4.00314" gradientUnits="userSpaceOnUse">
<stop stop-color="#5E75E8"/>
<stop offset="1" stop-color="#DA88DE"/>
</linearGradient>
<linearGradient id="paint2_linear_4013_63465" x1="5.65579" y1="4.64941" x2="5.65579" y2="6.63815" gradientUnits="userSpaceOnUse">
<stop stop-color="#5E75E8"/>
<stop offset="1" stop-color="#DA88DE"/>
</linearGradient>
<linearGradient id="paint3_linear_4013_63465" x1="24.5834" y1="-0.000244141" x2="24.5834" y2="50.0005" gradientUnits="userSpaceOnUse">
<stop stop-color="#5E75E8"/>
<stop offset="1" stop-color="#DA88DE"/>
</linearGradient>
<linearGradient id="paint4_linear_4013_63465" x1="24.5806" y1="13.9875" x2="24.5806" y2="39.467" gradientUnits="userSpaceOnUse">
<stop stop-color="#5E75E8"/>
<stop offset="1" stop-color="#DA88DE"/>
</linearGradient>
<clipPath id="clip0_4013_63465">
<rect width="49.1667" height="50" fill="white"/>
</clipPath>
</defs>
</svg>
