<svg width="115" height="351" viewBox="0 0 115 351" fill="none" xmlns="http://www.w3.org/2000/svg">
<g clip-path="url(#clip0_3981_45264)">
<path d="M331.65 183.17C331.68 159.38 312.62 138.61 301.09 118.84C290.55 100.77 282.64 80.9001 266.76 66.5501C253.6 54.6601 236.27 51.1801 222.42 40.2801C205.98 27.3401 189.22 0.490053 167.08 0.380053C140.62 0.240053 112.71 22.4701 89.8501 35.7201C70.7801 46.7701 54.3301 57.1401 43.8001 77.2701C35.5001 93.13 34.1001 111.1 25.8301 126.96C16.8901 144.07 0.310104 160 0.380104 180.1C0.450104 201.71 16.9401 220.61 26.3201 239.41C34.7201 256.25 36.8401 276.24 49.6001 290.69C63.6101 306.57 84.4501 311 102.95 319.39C125.95 329.83 150.12 349.93 175.92 350.16C194.46 350.32 208.56 335.4 221.41 323.6C238.07 308.31 255.74 294.28 271.83 278.36C295.16 255.28 331.61 217.18 331.66 183.17H331.65Z" stroke="#6788EA" stroke-width="0.75" stroke-miterlimit="10"/>
<path d="M176.21 343.24C152.33 342.51 129.56 326.1 108.13 316.72C88.9004 308.3 65.3104 304.14 50.9704 287.56C38.3504 272.97 36.3804 251.34 28.3204 234.17C20.3004 217.08 7.32044 199.32 7.36044 180.71C7.40044 163.68 20.1604 148.48 27.5104 132.96C35.3004 116.54 36.0604 97.9998 44.5804 81.9998C55.7304 61.0498 75.7404 51.3398 95.5804 40.1498C117.06 28.0398 143.6 7.98981 167.08 8.40981C185.78 8.74981 201.41 29.9198 216.2 41.6198C230.21 52.6998 247.94 56.3898 261.19 68.1698C277.65 82.7998 285.94 104.58 297.27 122.96C308.35 140.94 324.97 160.61 324.87 182.68C324.73 214.5 291.88 245.78 270.58 267.14C254.42 283.35 237.36 298.49 221.4 314.9C209.23 327.4 195.24 343.83 176.22 343.25L176.21 343.24Z" stroke="#6788EA" stroke-width="0.75" stroke-miterlimit="10"/>
<path d="M318.52 181.41C318.63 159.18 301.61 139.01 290.25 121.08C280 104.9 272.02 85.52 258.14 72.01C245.84 60.05 228.74 56.88 214.82 47.17C199.93 36.79 184.63 18.27 167.08 17.92C143.83 17.45 116.71 36.86 94.8404 48.58C77.3604 57.95 58.1304 66.34 47.1604 83.76C37.5704 98.99 37.5304 117.66 31.3104 134.24C25.3704 150.07 14.2904 165.82 14.2104 182.22C14.1304 200.12 25.7304 217.92 32.7504 234.99C39.7504 252.03 41.2404 273.45 54.5904 287.05C68.1304 300.83 89.6704 304.54 106.97 311.5C129.05 320.38 152.82 335.67 176.97 336.54C197.09 337.27 211.27 317.66 223.1 304.05C237 288.06 251.79 273.43 266.75 258.45C286.98 238.18 318.36 212.16 318.51 181.4L318.52 181.41Z" stroke="#6788EA" stroke-width="0.75" stroke-miterlimit="10"/>
<path d="M178.12 329.92C155.96 329.21 133.79 317.04 113.22 309.22C95.0301 302.3 70.1201 298.4 56.0201 283.96C44.2801 271.94 42.9501 253.22 37.5801 237.97C31.4401 220.53 21.0201 202.44 21.1001 184.52C21.1701 167.75 30.7101 150.89 35.2901 134.11C39.4501 118.87 39.1901 102.25 48.3201 88.7903C60.2301 71.2103 82.9801 62.9303 101.24 53.8803C121.49 43.8503 145.83 28.4203 167.09 28.7403C184.2 29.0003 199.37 45.0802 214.81 53.8202C227.54 61.0302 241.81 63.2803 252.61 73.6803C266.95 87.4903 276.37 108.32 287.24 124.86C297.85 141.01 312.42 159.42 312.41 179.56C312.39 210.16 280.08 232.7 260.3 252.48C244.54 268.23 231.36 285.03 217.48 302.4C207.76 314.56 195.24 330.49 178.14 329.94L178.12 329.92Z" stroke="#6788EA" stroke-width="0.75" stroke-miterlimit="10"/>
<path d="M306.531 177.3C306.431 156.45 290.461 136.9 279.011 120.44C268.981 106.02 259.961 87.8799 247.181 75.7299C236.511 65.58 221.641 63.6999 208.691 57.3799C195.181 50.7899 181.771 40.3399 167.081 40.2499C145.321 40.1199 121.211 53.7699 100.631 63.1399C82.8905 71.2199 58.9605 79.0599 48.1105 96.5699C39.8205 109.95 40.3705 128.19 36.9505 143.24C33.6305 157.84 27.9005 172.66 27.8605 187.26C27.8205 202.3 34.4305 217.39 39.2105 231.99C43.9505 246.49 45.9005 266.04 55.6405 278.16C68.1805 293.76 94.7005 297.84 112.531 304.12C133.821 311.62 156.981 323.02 179.501 323.46C196.671 323.79 208.931 306.16 218.051 293.59C231.191 275.49 242.981 257.68 258.891 241.82C277.211 223.55 306.681 206.12 306.541 177.32L306.531 177.3Z" stroke="#6788EA" stroke-width="0.75" stroke-miterlimit="10"/>
<path d="M181.02 316.94C158.25 316.89 134.12 306.18 112.22 298.88C96.2699 293.56 72.7599 289.43 60.5899 276.84C50.1599 266.04 47.7899 247.4 43.7699 233.49C39.6899 219.38 34.6699 204.95 34.6699 190.29C34.6699 175.33 38.5599 160.31 40.9399 145.42C43.3699 130.25 42.5999 111.44 52.6599 98.9301C63.5599 85.3801 84.8999 78.9601 100.32 72.5701C121.13 63.9601 144.72 52.4501 167.06 52.3301C181.63 52.2601 195.01 60.0101 208.78 64.8001C220.49 68.8701 232.28 70.1501 241.83 78.5801C255.47 90.6201 266.28 109.87 276.81 124.6C287.2 139.15 300.48 156.41 300.7 174.8C301.06 203.85 269.75 218.4 252.08 237.05C232.71 257.51 212.92 317.01 181 316.94H181.02Z" stroke="#6788EA" stroke-width="0.75" stroke-miterlimit="10"/>
<path d="M294.98 172.29C294.65 154.1 281.03 136.9 270.35 122.73C260.16 109.21 248.39 90.1599 234.31 80.3599C218.9 69.6299 185.32 64.0399 167.09 64.3799C147.11 64.7499 126.84 72.3399 108.15 79.0199C92.2297 84.7099 68.2397 90.5999 56.5997 103.91C46.8897 115.01 47.1097 131.93 45.5197 145.79C43.7097 161.55 41.4097 177.59 41.4397 193.35C41.4897 215.12 47.7197 252.77 62.4297 270.1C73.9297 283.65 96.3798 288.32 112.48 293.55C134.77 300.79 159.71 310.88 182.57 310.52C214.76 310.02 230.26 249.13 250.02 228.62C266.58 211.43 295.49 199.57 294.99 172.3L294.98 172.29Z" stroke="#6788EA" stroke-width="0.75" stroke-miterlimit="10"/>
<path d="M184.02 303.99C163.89 304.59 141.64 296.66 121.7 290.47C103.9 284.95 80.7298 279.5 67.4698 265.29C52.3698 249.1 48.3398 216.94 48.2498 196.25C48.1598 173.61 44.6098 131.19 59.6698 111.82C70.2498 98.2099 93.1798 93.3099 108.69 88.4299C127.35 82.5499 147.98 76.7799 167.07 76.2399C184.74 75.7399 213.46 75.8699 229.4 85.7199C253 100.3 288.43 141.99 289.1 169.89C289.76 197.3 258.07 208.4 242.99 227.21C226.79 247.42 213.78 303.09 184 303.99H184.02Z" stroke="#6788EA" stroke-width="0.75" stroke-miterlimit="10"/>
<path d="M283.15 167.85C282.36 140.82 248.87 104.68 225.29 92.0099C208.68 83.0799 184.45 86.7399 167.08 87.3299C147.87 87.9799 126.32 92.5799 107.01 98.0399C92.83 102.05 75.77 105.91 66.02 118.03C50.27 137.63 54.94 176.02 55.04 198.73C55.14 220.35 58.5001 248.35 76.8001 263.22C103.1 284.61 153.53 298.68 185.26 297.45C213.69 296.35 225.87 241.33 241.39 221.63C255.11 204.22 283.86 192.61 283.14 167.84L283.15 167.85Z" stroke="#6788EA" stroke-width="0.75" stroke-miterlimit="10"/>
<path d="M186.22 290.77C154.75 292.08 107.67 277.86 81.6297 256.47C64.7997 242.64 62.0397 220.74 61.9497 200.63C61.8397 176.57 57.1197 140.9 76.4697 121.6C96.5497 101.58 141.48 98.3201 167.08 97.5101C186.07 96.9001 206.96 90.8801 225.38 100.86C246.77 112.46 276.15 141.36 276.87 166.31C277.53 189.08 250.22 202.93 237.94 219.95C224.5 238.57 212.07 289.69 186.21 290.77H186.22Z" stroke="#6788EA" stroke-width="0.75" stroke-miterlimit="10"/>
<path d="M270.33 165.46C269.69 142.53 242.97 117.69 222.92 108.09C204.05 99.0601 186.33 105.76 167.09 106.16C141.63 106.69 105.01 108.67 85.3001 128.09C66.0601 147.04 68.7801 177.39 68.8501 201.65C68.9101 222 73.1401 238.85 90.1901 251.81C115.51 271.05 156.62 284.82 186.75 283.99C209.41 283.36 221.85 239.17 232.48 222.56C243.61 205.18 270.94 187.08 270.34 165.47L270.33 165.46Z" stroke="#6788EA" stroke-width="0.75" stroke-miterlimit="10"/>
<path d="M186.87 276.81C147.19 277.58 76.0598 252.44 76.2298 201.65C76.2998 179.8 76.8998 155.07 92.1598 137.67C109.99 117.33 142.15 113.6 167.29 113.42C184.26 113.29 200.29 107.97 217.15 114.13C236.95 121.36 262.94 143.57 263.36 165.49C263.74 184.79 242.06 202.32 232 217.89C221.77 233.72 207.94 276.41 186.85 276.81H186.87Z" stroke="#6788EA" stroke-width="0.75" stroke-miterlimit="10"/>
<path d="M256.57 166.37C256.37 147.63 235.71 130.29 219.13 123.36C202.37 116.36 185.8 120.29 168.75 120.36C118.3 120.58 86.11 150.12 85.69 200.73C85.32 245.26 154.3 269.5 187.35 268.67C206.35 268.2 219.89 231.76 229.28 216.81C238.64 201.91 256.77 184.38 256.57 166.36V166.37Z" stroke="#6788EA" stroke-width="0.75" stroke-miterlimit="10"/>
<path d="M188.21 259.55C159.68 260.22 96.8704 237.76 97.2104 199.1C97.5904 156.59 129.1 127.66 171.36 127.39C198.49 127.22 249.49 130.41 249.82 167.96C249.98 185.7 233.41 204.21 224.21 219.14C216.25 232.05 204.39 259.17 188.22 259.55H188.21Z" stroke="#6788EA" stroke-width="0.75" stroke-miterlimit="10"/>
<path d="M243.21 170.05C243.06 138.09 198.33 134.13 174.75 134.36C139.6 134.69 110.28 161.6 110.03 196.98C109.78 230.29 164.49 250.44 189.33 249.86C203.54 249.53 214.15 228.56 221.32 217.19C229.97 203.48 243.29 186.37 243.21 170.06V170.05Z" stroke="#6788EA" stroke-width="0.75" stroke-miterlimit="10"/>
<path d="M196.5 183.36C182.38 155.06 152.64 139.24 136.41 112.26C120.37 85.5898 119.11 52.5898 111.7 23.0498" stroke="#6788EA" stroke-width="0.75" stroke-miterlimit="10"/>
<path d="M196.5 183.36C184.23 168.76 164.32 161.22 148.11 152.03C130.82 142.23 114.11 131.47 98.8096 118.76C76.5596 100.27 64.8196 83.4198 60.8896 54.5898" stroke="#6788EA" stroke-width="0.75" stroke-miterlimit="10"/>
<path d="M196.5 183.36C141.69 155.72 63.6197 161.4 36.6797 95.0801" stroke="#6788EA" stroke-width="0.75" stroke-miterlimit="10"/>
<path d="M196.5 183.36C156.18 175.86 112.42 186.24 72.9502 173.54C51.0602 166.5 39.6702 146.58 19.9902 136.88" stroke="#6788EA" stroke-width="0.75" stroke-miterlimit="10"/>
<path d="M196.5 183.36C155.39 186.08 113.51 203.35 72.3499 201.78C46.5399 200.8 26.1599 180.77 0.379883 180.1" stroke="#6788EA" stroke-width="0.75" stroke-miterlimit="10"/>
<path d="M196.5 183.36C156.13 197.37 115.96 212.13 74.7199 223.49C56.5599 228.49 37.6599 222.83 20.1699 228.17" stroke="#6788EA" stroke-width="0.75" stroke-miterlimit="10"/>
<path d="M196.5 183.36C162.05 207.7 125.29 225.99 86.6897 242.72C68.7097 250.51 52.8097 259.93 39.4297 274.34" stroke="#6788EA" stroke-width="0.75" stroke-miterlimit="10"/>
<path d="M196.5 183.36C173.34 213.73 146.03 239.3 114.18 260.4C93.8297 273.89 76.7897 281.94 71.9297 306.83" stroke="#6788EA" stroke-width="0.75" stroke-miterlimit="10"/>
</g>
<defs>
<clipPath id="clip0_3981_45264">
<rect width="332.03" height="350.54" fill="white"/>
</clipPath>
</defs>
</svg>
