<svg width="95" height="148" viewBox="0 0 95 148" fill="none" xmlns="http://www.w3.org/2000/svg">
<g clip-path="url(#clip0_3981_45314)">
<path d="M71.8458 0C71.8458 7.60708 65.662 13.7773 58.0381 13.7773C65.662 13.7773 71.8458 19.9475 71.8458 27.5545C71.8458 19.9475 78.0297 13.7773 85.6536 13.7773C78.0297 13.7773 71.8458 7.60708 71.8458 0Z" fill="#C685E0"/>
<path d="M28.0089 120.431C28.0089 128.038 21.8251 134.208 14.2012 134.208C21.8251 134.208 28.0089 140.379 28.0089 147.986C28.0089 140.379 34.1928 134.208 41.8167 134.208C34.1928 134.208 28.0089 128.038 28.0089 120.431Z" fill="#C685E0"/>
<path d="M93.3627 19.0038C96.977 27.428 79.3997 43.0225 54.0855 53.8556C28.7854 64.6886 5.33479 66.6467 1.70638 58.2226C-1.90792 49.8125 15.6694 34.2039 40.9836 23.3709C66.2978 12.5378 89.7484 10.5797 93.3627 19.0038Z" stroke="#C685E0" stroke-miterlimit="10"/>
<path d="M93.3627 43.8398C96.977 52.2639 79.3997 67.8584 54.0855 78.6915C28.7854 89.5245 5.33479 91.4827 1.70638 83.0585C-1.90792 74.6344 15.6694 59.0399 40.9836 48.2068C66.2978 37.3738 89.7484 35.4156 93.3627 43.8398V43.8398Z" stroke="#C685E0" stroke-miterlimit="10"/>
<path d="M93.3627 68.83C96.977 77.2542 79.3997 92.8487 54.0855 103.682C28.7854 114.515 5.33479 116.473 1.70638 108.049C-1.90792 99.6246 15.6694 84.0301 40.9836 73.197C66.2978 62.364 89.7484 60.4059 93.3627 68.83V68.83Z" stroke="#C685E0" stroke-miterlimit="10"/>
<path d="M93.3627 93.666C96.977 102.09 79.3997 117.685 54.0855 128.518C28.7854 139.351 5.33479 141.309 1.70638 132.885C-1.90792 124.475 15.6694 108.866 40.9836 98.033C66.2978 87.1999 89.7484 85.2418 93.3627 93.666Z" stroke="#C685E0" stroke-miterlimit="10"/>
</g>
<defs>
<clipPath id="clip0_3981_45314">
<rect width="94" height="148" fill="white" transform="translate(0.53418)"/>
</clipPath>
</defs>
</svg>
