<svg width="93" height="32" viewBox="0 0 93 32" fill="none" xmlns="http://www.w3.org/2000/svg">
<path d="M12.5013 4C5.87057 3.99725 0.5 9.51113 0.5 16.3167C0.5 21.6984 3.85962 26.2731 8.53843 27.9532C9.16853 28.1157 9.072 27.6557 9.072 27.3417V25.2073C5.43353 25.6452 5.28606 23.1719 5.04206 22.7588C4.54871 21.894 3.38236 21.6736 3.73092 21.2605C4.55943 20.8226 5.40403 21.3707 6.38269 22.8552C7.09055 23.9321 8.4714 23.7503 9.17121 23.5713C9.32404 22.924 9.65116 22.3456 10.1016 21.8967C6.33175 21.2027 4.76053 18.8396 4.76053 16.0303C4.76053 14.667 5.19758 13.4138 6.05558 12.403C5.5086 10.7367 6.10652 9.31008 6.18696 9.098C7.74478 8.95479 9.36426 10.2437 9.49028 10.3457C10.3751 10.1005 11.3859 9.97108 12.5174 9.97108C13.6543 9.97108 14.6678 10.106 15.5607 10.3539C15.8636 10.1171 17.3652 9.00987 18.813 9.14483C18.8908 9.3569 19.4753 10.7505 18.9605 12.3948C19.8292 13.4083 20.2716 14.6725 20.2716 16.0386C20.2716 18.8533 18.6897 21.2192 14.9091 21.9022C15.2329 22.2293 15.49 22.6195 15.6654 23.0498C15.8408 23.4801 15.931 23.942 15.9307 24.4085V27.507C15.9521 27.7549 15.9307 28 16.3329 28C21.0814 26.3557 24.5 21.748 24.5 16.3195C24.5 9.51113 19.1267 4 12.5013 4V4Z" fill="#626262"/>
<path d="M39.1929 23.18C37.7649 23.18 36.5649 22.916 35.5929 22.388C34.6209 21.86 33.8889 21.11 33.3969 20.138C32.9049 19.166 32.6589 18.014 32.6589 16.682C32.6589 15.338 32.9229 14.18 33.4509 13.208C33.9789 12.224 34.7349 11.468 35.7189 10.94C36.7149 10.4 37.9089 10.13 39.3009 10.13C40.2249 10.13 41.0349 10.256 41.7309 10.508C42.4269 10.748 43.0389 11.102 43.5669 11.57L42.7929 13.37C42.4089 13.07 42.0429 12.83 41.6949 12.65C41.3469 12.47 40.9869 12.344 40.6149 12.272C40.2429 12.188 39.8109 12.146 39.3189 12.146C37.9269 12.146 36.8709 12.542 36.1509 13.334C35.4429 14.114 35.0889 15.236 35.0889 16.7C35.0889 18.164 35.4249 19.28 36.0969 20.048C36.7809 20.816 37.8489 21.2 39.3009 21.2C39.7929 21.2 40.2849 21.152 40.7769 21.056C41.2809 20.96 41.7729 20.822 42.2529 20.642L41.8209 21.614V17.816H38.8509V16.124H43.7469V22.226C43.1589 22.526 42.4569 22.76 41.6409 22.928C40.8249 23.096 40.0089 23.18 39.1929 23.18ZM46.2172 23V13.91H48.4672V23H46.2172ZM46.0912 12.2V10.004H48.5932V12.2H46.0912ZM54.7985 23.18C53.7185 23.18 52.9025 22.898 52.3505 22.334C51.7985 21.77 51.5225 20.924 51.5225 19.796V15.602H49.7765V13.91H51.5225V11.588L53.7725 11.012V13.91H56.2025V15.602H53.7725V19.652C53.7725 20.276 53.8925 20.714 54.1325 20.966C54.3725 21.218 54.7025 21.344 55.1225 21.344C55.3505 21.344 55.5425 21.326 55.6985 21.29C55.8665 21.254 56.0285 21.206 56.1845 21.146V22.928C55.9805 23.012 55.7525 23.072 55.5005 23.108C55.2605 23.156 55.0265 23.18 54.7985 23.18ZM57.9108 23V10.31H60.2328V15.602H66.7308V10.31H69.0528V23H66.7308V17.528H60.2328V23H57.9108ZM74.9463 23.18C73.8303 23.18 72.9963 22.874 72.4443 22.262C71.8923 21.65 71.6163 20.714 71.6163 19.454V13.91H73.8663V19.436C73.8663 20.108 74.0043 20.606 74.2803 20.93C74.5563 21.242 74.9763 21.398 75.5403 21.398C76.1763 21.398 76.6923 21.182 77.0883 20.75C77.4963 20.318 77.7003 19.748 77.7003 19.04V13.91H79.9503V23H77.7543V21.146H78.0063C77.7423 21.794 77.3403 22.298 76.8003 22.658C76.2723 23.006 75.6543 23.18 74.9463 23.18ZM87.5949 23.18C86.8269 23.18 86.1549 22.994 85.5789 22.622C85.0029 22.238 84.6189 21.722 84.4269 21.074H84.6249V23H82.3929V9.752H84.6429V15.764H84.4269C84.6309 15.14 85.0209 14.648 85.5969 14.288C86.1729 13.916 86.8389 13.73 87.5949 13.73C88.3989 13.73 89.1009 13.922 89.7009 14.306C90.3009 14.69 90.7689 15.236 91.1049 15.944C91.4409 16.64 91.6089 17.48 91.6089 18.464C91.6089 19.448 91.4409 20.294 91.1049 21.002C90.7689 21.698 90.2949 22.238 89.6829 22.622C89.0829 22.994 88.3869 23.18 87.5949 23.18ZM86.9649 21.452C87.6729 21.452 88.2429 21.206 88.6749 20.714C89.1189 20.222 89.3409 19.472 89.3409 18.464C89.3409 17.456 89.1189 16.706 88.6749 16.214C88.2429 15.71 87.6729 15.458 86.9649 15.458C86.2569 15.458 85.6869 15.704 85.2549 16.196C84.8229 16.688 84.6069 17.438 84.6069 18.446C84.6069 19.454 84.8229 20.21 85.2549 20.714C85.6869 21.206 86.2569 21.452 86.9649 21.452Z" fill="#626262"/>
</svg>
