<svg width="24" height="24" viewBox="0 0 24 24" fill="none" xmlns="http://www.w3.org/2000/svg">
<path d="M12.0013 -0.00048725C5.37057 -0.00324144 0 5.51064 0 12.3162C0 17.6979 3.35962 22.2726 8.03843 23.9527C8.66853 24.1152 8.572 23.6552 8.572 23.3413V21.2068C4.93353 21.6447 4.78606 19.1714 4.54206 18.7583C4.04871 17.8935 2.88236 17.6731 3.23092 17.26C4.05943 16.8221 4.90403 17.3702 5.88269 18.8547C6.59055 19.9316 7.9714 19.7498 8.67121 19.5708C8.82404 18.9235 9.15116 18.3452 9.60161 17.8962C5.83175 17.2022 4.26053 14.8391 4.26053 12.0298C4.26053 10.6665 4.69758 9.41333 5.55558 8.40254C5.0086 6.73626 5.60652 5.30959 5.68696 5.09752C7.24478 4.9543 8.86426 6.24326 8.99028 6.34516C9.8751 6.10004 10.8859 5.97059 12.0174 5.97059C13.1543 5.97059 14.1678 6.10555 15.0607 6.35343C15.3636 6.11657 16.8652 5.00938 18.313 5.14434C18.3908 5.35641 18.9753 6.75003 18.4605 8.39428C19.3292 9.40782 19.7716 10.672 19.7716 12.0381C19.7716 14.8529 18.1897 17.2187 14.4091 17.9017C14.7329 18.2288 14.99 18.619 15.1654 19.0493C15.3408 19.4796 15.431 19.9415 15.4307 20.408V23.5065C15.4521 23.7544 15.4307 23.9995 15.8329 23.9995C20.5814 22.3553 24 17.7475 24 12.319C24 5.51064 18.6267 -0.00048725 12.0013 -0.00048725Z" fill="#626262"/>
</svg>
