<svg width="859" height="536" viewBox="0 0 859 536" fill="none" xmlns="http://www.w3.org/2000/svg">
<g opacity="0.4" clip-path="url(#clip0_4066_28183)">
<path opacity="0.42" d="M204.768 197.251L307.222 139.265L348.208 124.807L397.856 263.954L282.709 410.454L81.5645 440.776L131.885 214.859L431.524 314.091L540.099 158.638L547.38 148.213L728.463 75.9328L697.973 230.954L753.798 419.745L538.61 470.364L447.617 340.821L313.897 444.803L156.691 206.122L567.76 172.029L680.478 239.22L479.786 314.091L720.078 393.697L782.629 384.811L779.22 86.9072L693.788 54.415L346.385 88.0821" stroke="#D1D1D1" stroke-miterlimit="10"/>
<path style="mix-blend-mode:multiply" d="M107.162 522.491L48.2715 486.043L135.958 453.869L178.078 482.18" fill="url(#paint0_linear_4066_28183)"/>
<path d="M135.958 442.674V453.869C135.958 456.691 133.894 459.682 129.858 462.001L126.053 464.192L81.5705 489.855C74.2021 494.114 63.0392 494.57 56.6566 490.882L9.9046 463.91L4.31797 460.693C1.21144 458.897 -0.200623 456.45 0.0253067 453.931V443.818C0.194754 445.568 1.16522 447.22 2.96239 448.605C3.37317 448.934 3.8199 449.231 4.31797 449.519L9.83271 452.694L9.9046 452.735L56.6566 479.697C63.0443 483.386 74.2021 482.929 81.5705 478.671L126.053 453.007L127.362 452.253L129.858 450.817C131.085 450.119 132.122 449.349 132.98 448.539C134.962 446.702 135.958 444.665 135.958 442.685V442.674Z" fill="#C1C1C1"/>
<path d="M135.958 442.674C135.958 444.655 134.962 446.692 132.98 448.528C132.122 449.339 131.085 450.109 129.858 450.806L127.362 452.243L126.053 452.997L81.5706 478.66C74.2022 482.919 63.0392 483.375 56.6567 479.687L9.90468 452.725L9.83279 452.684L4.31805 449.508C3.81998 449.221 3.37839 448.923 2.96248 448.595C1.16531 447.215 0.194838 445.563 0.0253906 443.808V442.726C0.122951 441.53 0.59535 440.319 1.43745 439.139C2.449 437.703 4.0151 436.317 6.09982 435.122L9.90468 432.931L54.3871 407.268C61.7709 403.025 72.9185 402.553 79.301 406.242L126.053 433.213L131.64 436.43C132.908 437.159 133.904 438.011 134.618 438.924C135.516 440.078 135.958 441.361 135.958 442.669V442.674Z" fill="url(#paint1_linear_4066_28183)"/>
<path d="M135.958 423.732V434.927C135.958 437.749 133.894 440.74 129.858 443.059L126.053 445.25L81.5705 470.913C74.2021 475.171 63.0392 475.628 56.6566 471.939L9.9046 444.968L4.31797 441.751C1.21144 439.955 -0.200623 437.508 0.0253067 434.988V424.876C0.194754 426.626 1.16522 428.278 2.96239 429.663C3.37317 429.991 3.8199 430.289 4.31797 430.576L9.83271 433.752L9.9046 433.793L56.6566 460.754C63.0443 464.443 74.2021 463.987 81.5705 459.728L126.053 434.065L127.362 433.311L129.858 431.874C131.085 431.176 132.122 430.407 132.98 429.596C134.962 427.759 135.958 425.723 135.958 423.742V423.732Z" fill="#C1C1C1"/>
<path d="M135.958 423.732C135.958 425.712 134.962 427.749 132.98 429.586C132.122 430.397 131.085 431.166 129.858 431.864L127.362 433.3L126.053 434.055L81.5706 459.718C74.2022 463.976 63.0392 464.433 56.6567 460.744L9.90468 433.783L9.83279 433.742L4.31805 430.566C3.81998 430.279 3.37839 429.981 2.96248 429.653C1.16531 428.272 0.194838 426.62 0.0253906 424.866V423.783C0.122951 422.588 0.59535 421.377 1.43745 420.197C2.449 418.76 4.0151 417.375 6.09982 416.18L9.90468 413.989L54.3871 388.326C61.7709 384.083 72.9185 383.611 79.301 387.299L126.053 414.271L131.64 417.488C132.908 418.216 133.904 419.068 134.618 419.981C135.516 421.136 135.958 422.418 135.958 423.727V423.732Z" fill="url(#paint2_linear_4066_28183)"/>
<path d="M135.958 404.785V415.98C135.958 418.801 133.894 421.793 129.858 424.112L126.053 426.302L81.5705 451.966C74.2021 456.224 63.0392 456.681 56.6566 452.992L9.9046 426.02L4.31797 422.803C1.21144 421.008 -0.200623 418.56 0.0253067 416.041V405.929C0.194754 407.678 1.16522 409.33 2.96239 410.716C3.37317 411.044 3.8199 411.342 4.31797 411.629L9.83271 414.805L9.9046 414.846L56.6566 441.807C63.0443 445.496 74.2021 445.039 81.5705 440.781L126.053 415.118L127.362 414.364L129.858 412.927C131.085 412.229 132.122 411.46 132.98 410.649C134.962 408.812 135.958 406.775 135.958 404.795V404.785Z" fill="#C1C1C1"/>
<path d="M135.958 404.785C135.958 406.765 134.962 408.802 132.98 410.639C132.122 411.449 131.085 412.219 129.858 412.917L127.362 414.353L126.053 415.107L81.5706 440.771C74.2022 445.029 63.0392 445.486 56.6567 441.797L9.90468 414.835L9.83279 414.794L4.31805 411.619C3.81998 411.331 3.37839 411.034 2.96248 410.705C1.16531 409.325 0.194838 407.673 0.0253906 405.918V404.836C0.122951 403.64 0.59535 402.43 1.43745 401.25C2.449 399.813 4.0151 398.428 6.09982 397.232L9.90468 395.042L54.3871 369.378C61.7709 365.135 72.9185 364.663 79.301 368.352L126.053 395.324L131.64 398.541C132.908 399.269 133.904 400.121 134.618 401.034C135.516 402.189 135.958 403.471 135.958 404.779V404.785Z" fill="url(#paint3_linear_4066_28183)"/>
<path style="mix-blend-mode:multiply" d="M778.969 156.622L720.078 120.18L807.765 88.0005L849.89 116.316" fill="url(#paint4_linear_4066_28183)"/>
<path d="M807.765 76.8052V88.0002C807.765 90.822 805.7 93.8131 801.664 96.1322L797.86 98.323L753.377 123.986C746.009 128.245 734.846 128.701 728.463 125.012L681.711 98.0408L676.125 94.8239C673.018 93.0282 671.606 90.5809 671.832 88.0617V77.9493C672.001 79.6988 672.972 81.3509 674.769 82.7362C675.18 83.0645 675.627 83.3621 676.125 83.6494L681.639 86.8253L681.711 86.8663L728.463 113.828C734.851 117.517 746.009 117.06 753.377 112.802L797.86 87.1382L799.169 86.384L801.664 84.9475C802.892 84.2497 803.929 83.4801 804.786 82.6695C806.768 80.8327 807.765 78.7959 807.765 76.8154V76.8052Z" fill="#C1C1C1"/>
<path d="M807.765 76.8051C807.765 78.7855 806.768 80.8224 804.786 82.6592C803.929 83.4698 802.892 84.2394 801.665 84.9371L799.169 86.3737L797.86 87.1279L753.377 112.791C746.009 117.05 734.846 117.506 728.463 113.817L681.711 86.856L681.639 86.8149L676.125 83.6391C675.627 83.3518 675.185 83.0542 674.769 82.7259C672.972 81.3457 672.001 79.6937 671.832 77.939V76.8564C671.93 75.661 672.402 74.4502 673.244 73.2701C674.256 71.8336 675.822 70.4483 677.906 69.2529L681.711 67.0621L726.194 41.3988C733.578 37.1558 744.725 36.6838 751.108 40.3727L797.86 67.3443L803.446 70.5612C804.715 71.2897 805.711 72.1414 806.424 73.0546C807.323 74.209 807.765 75.4917 807.765 76.8V76.8051Z" fill="url(#paint5_linear_4066_28183)"/>
<path d="M807.765 57.8633V69.0583C807.765 71.8801 805.7 74.8713 801.664 77.1903L797.86 79.3811L753.377 105.044C746.009 109.303 734.846 109.759 728.463 106.07L681.711 79.0989L676.125 75.882C673.018 74.0863 671.606 71.639 671.832 69.1198V59.0074C672.001 60.7569 672.972 62.409 674.769 63.7943C675.18 64.1226 675.627 64.4202 676.125 64.7075L681.639 67.8834L681.711 67.9244L728.463 94.8858C734.851 98.5747 746.009 98.1181 753.377 93.8596L797.86 68.1963L799.169 67.4421L801.664 66.0056C802.892 65.3078 803.929 64.5382 804.786 63.7276C806.768 61.8908 807.765 59.854 807.765 57.8735V57.8633Z" fill="#C1C1C1"/>
<path d="M807.765 57.8632C807.765 59.8436 806.768 61.8805 804.786 63.7173C803.929 64.5279 802.892 65.2975 801.665 65.9953L799.169 67.4318L797.86 68.186L753.377 93.8493C746.009 98.1077 734.846 98.5644 728.463 94.8755L681.711 67.9141L681.639 67.8731L676.125 64.6972C675.627 64.4099 675.185 64.1123 674.769 63.784C672.972 62.4038 672.001 60.7518 671.832 58.9971V57.9145C671.93 56.7191 672.402 55.5083 673.244 54.3282C674.256 52.8917 675.822 51.5064 677.906 50.311L681.711 48.1202L726.194 22.4569C733.578 18.2139 744.725 17.7419 751.108 21.4308L797.86 48.4024L803.446 51.6193C804.715 52.3478 805.711 53.1995 806.424 54.1128C807.323 55.2671 807.765 56.5498 807.765 57.8581V57.8632Z" fill="url(#paint6_linear_4066_28183)"/>
<path d="M807.765 38.9209V50.1159C807.765 52.9377 805.7 55.9289 801.664 58.2479L797.86 60.4387L753.377 86.102C746.009 90.3604 734.846 90.817 728.463 87.1281L681.711 60.1565L676.125 56.9396C673.018 55.1439 671.606 52.6966 671.832 50.1775V40.065C672.001 41.8146 672.972 43.4666 674.769 44.8519C675.18 45.1802 675.627 45.4778 676.125 45.7651L681.639 48.941L681.711 48.982L728.463 75.9434C734.851 79.6323 746.009 79.1757 753.377 74.9173L797.86 49.2539L799.169 48.4997L801.664 47.0632C802.892 46.3654 803.929 45.5958 804.786 44.7852C806.768 42.9484 807.765 40.9116 807.765 38.9312V38.9209Z" fill="#C1C1C1"/>
<path d="M807.765 38.9208C807.765 40.9013 806.768 42.9381 804.786 44.7749C803.929 45.5855 802.892 46.3551 801.665 47.0529L799.169 48.4894L797.86 49.2436L753.377 74.907C746.009 79.1654 734.846 79.622 728.463 75.9331L681.711 48.9717L681.639 48.9307L676.125 45.7548C675.627 45.4675 675.185 45.1699 674.769 44.8416C672.972 43.4614 672.001 41.8094 671.832 40.0547V38.9722C671.93 37.7767 672.402 36.5659 673.244 35.3859C674.256 33.9493 675.822 32.564 677.906 31.3686L681.711 29.1778L726.194 3.51451C733.578 -0.728508 744.725 -1.20052 751.108 2.48839L797.86 29.46L803.446 32.6769C804.715 33.4054 805.711 34.2571 806.424 35.1704C807.323 36.3248 807.765 37.6074 807.765 38.9157V38.9208Z" fill="url(#paint7_linear_4066_28183)"/>
<path style="mix-blend-mode:multiply" d="M788.083 518.212L729.192 481.77L816.879 449.59L858.999 477.901" fill="url(#paint8_linear_4066_28183)"/>
<path d="M816.879 438.396V449.591C816.879 452.412 814.815 455.404 810.779 457.723L806.974 459.913L762.491 485.577C755.123 489.835 743.96 490.292 737.577 486.603L690.825 459.631L685.239 456.414C682.132 454.619 680.72 452.171 680.946 449.652V439.54C681.116 441.289 682.086 442.941 683.883 444.327C684.294 444.655 684.741 444.952 685.239 445.24L690.754 448.416L690.825 448.457L737.577 475.418C743.965 479.107 755.123 478.65 762.491 474.392L806.974 448.729L808.283 447.974L810.779 446.538C812.006 445.84 813.043 445.07 813.901 444.26C815.883 442.423 816.879 440.386 816.879 438.406V438.396Z" fill="#C1C1C1"/>
<path d="M816.879 438.395C816.879 440.376 815.883 442.413 813.901 444.249C813.043 445.06 812.006 445.83 810.779 446.527L808.283 447.964L806.974 448.718L762.491 474.382C755.123 478.64 743.96 479.097 737.578 475.408L690.826 448.446L690.754 448.405L685.239 445.229C684.741 444.942 684.299 444.645 683.883 444.316C682.086 442.936 681.116 441.284 680.946 439.529V438.447C681.044 437.251 681.516 436.041 682.358 434.86C683.37 433.424 684.936 432.039 687.021 430.843L690.826 428.652L735.308 402.989C742.692 398.746 753.839 398.274 760.222 401.963L806.974 428.935L812.561 432.151C813.829 432.88 814.825 433.732 815.539 434.645C816.437 435.799 816.879 437.082 816.879 438.39V438.395Z" fill="url(#paint9_linear_4066_28183)"/>
<path d="M816.879 419.453V430.648C816.879 433.47 814.815 436.461 810.779 438.78L806.974 440.971L762.491 466.634C755.123 470.893 743.96 471.349 737.577 467.66L690.825 440.689L685.239 437.472C682.132 435.676 680.72 433.229 680.946 430.71V420.597C681.116 422.347 682.086 423.999 683.883 425.384C684.294 425.712 684.741 426.01 685.239 426.297L690.754 429.473L690.825 429.514L737.577 456.476C743.965 460.165 755.123 459.708 762.491 455.45L806.974 429.786L808.283 429.032L810.779 427.595C812.006 426.898 813.043 426.128 813.901 425.317C815.883 423.481 816.879 421.444 816.879 419.463V419.453Z" fill="#C1C1C1"/>
<path d="M816.879 419.453C816.879 421.433 815.883 423.47 813.901 425.307C813.043 426.118 812.006 426.887 810.779 427.585L808.283 429.022L806.974 429.776L762.491 455.439C755.123 459.698 743.96 460.154 737.578 456.465L690.826 429.504L690.754 429.463L685.239 426.287C684.741 426 684.299 425.702 683.883 425.374C682.086 423.994 681.116 422.342 680.946 420.587V419.504C681.044 418.309 681.516 417.098 682.358 415.918C683.37 414.482 684.936 413.096 687.021 411.901L690.826 409.71L735.308 384.047C742.692 379.804 753.839 379.332 760.222 383.021L806.974 409.992L812.561 413.209C813.829 413.938 814.825 414.789 815.539 415.703C816.437 416.857 816.879 418.14 816.879 419.448V419.453Z" fill="url(#paint10_linear_4066_28183)"/>
<path d="M816.879 400.506V411.701C816.879 414.523 814.815 417.514 810.779 419.833L806.974 422.024L762.491 447.687C755.123 451.945 743.96 452.402 737.577 448.713L690.825 421.741L685.239 418.525C682.132 416.729 680.72 414.282 680.946 411.762V401.65C681.116 403.4 682.086 405.052 683.883 406.437C684.294 406.765 684.741 407.063 685.239 407.35L690.754 410.526L690.825 410.567L737.577 437.528C743.965 441.217 755.123 440.761 762.491 436.502L806.974 410.839L808.283 410.085L810.779 408.648C812.006 407.95 813.043 407.181 813.901 406.37C815.883 404.533 816.879 402.497 816.879 400.516V400.506Z" fill="#C1C1C1"/>
<path d="M816.879 400.506C816.879 402.486 815.883 404.523 813.901 406.36C813.043 407.17 812.006 407.94 810.779 408.638L808.283 410.074L806.974 410.829L762.491 436.492C755.123 440.75 743.96 441.207 737.578 437.518L690.826 410.557L690.754 410.516L685.239 407.34C684.741 407.052 684.299 406.755 683.883 406.427C682.086 405.046 681.116 403.394 680.946 401.64V400.557C681.044 399.362 681.516 398.151 682.358 396.971C683.37 395.534 684.936 394.149 687.021 392.954L690.826 390.763L735.308 365.099C742.692 360.856 753.839 360.384 760.222 364.073L806.974 391.045L812.561 394.262C813.829 394.99 814.825 395.842 815.539 396.755C816.437 397.91 816.879 399.192 816.879 400.501V400.506Z" fill="url(#paint11_linear_4066_28183)"/>
<path style="mix-blend-mode:multiply" d="M478.949 403.969L406.852 359.348L514.204 319.955L565.778 354.617" fill="url(#paint12_linear_4066_28183)"/>
<path d="M514.205 306.251V319.955C514.205 323.408 511.673 327.072 506.734 329.914L502.077 332.597L447.612 364.017C438.59 369.23 424.927 369.789 417.106 365.274L359.869 332.248L353.03 328.308C349.225 326.112 347.5 323.111 347.777 320.027V307.647C347.987 309.792 349.173 311.813 351.371 313.506C351.879 313.906 352.419 314.276 353.03 314.625L359.782 318.514L359.869 318.565L417.106 351.57C424.927 356.085 438.59 355.526 447.612 350.313L502.077 318.893L503.684 317.97L506.739 316.21C508.238 315.353 509.512 314.414 510.559 313.419C512.983 311.172 514.205 308.678 514.205 306.251Z" fill="#C1C1C1"/>
<path d="M514.205 306.252C514.205 308.673 512.983 311.167 510.56 313.419C509.512 314.414 508.239 315.353 506.739 316.21L503.684 317.97L502.077 318.893L447.613 350.313C438.591 355.526 424.927 356.085 417.107 351.57L359.87 318.565L359.782 318.514L353.03 314.625C352.419 314.276 351.88 313.912 351.372 313.506C349.174 311.813 347.988 309.792 347.777 307.647V306.323C347.901 304.861 348.476 303.378 349.503 301.932C350.74 300.172 352.661 298.479 355.207 297.016L359.865 294.333L414.329 262.913C423.366 257.716 437.014 257.141 444.835 261.656L502.072 294.682L508.911 298.622C510.462 299.51 511.684 300.557 512.557 301.675C513.656 303.086 514.195 304.656 514.195 306.262L514.205 306.252Z" fill="url(#paint13_linear_4066_28183)"/>
<path d="M514.205 283.056V296.76C514.205 300.212 511.673 303.876 506.734 306.718L502.077 309.401L447.612 340.821C438.59 346.034 424.927 346.593 417.106 342.078L359.869 309.052L353.03 305.112C349.225 302.916 347.5 299.915 347.777 296.831V284.451C347.987 286.596 349.173 288.617 351.371 290.31C351.879 290.711 352.419 291.08 353.03 291.429L359.782 295.318L359.869 295.369L417.106 328.374C424.927 332.889 438.59 332.33 447.612 327.117L502.077 295.697L503.684 294.774L506.739 293.014C508.238 292.157 509.512 291.218 510.559 290.223C512.983 287.976 514.205 285.482 514.205 283.056Z" fill="#C1C1C1"/>
<path d="M514.205 283.056C514.205 285.477 512.983 287.971 510.56 290.223C509.512 291.219 508.239 292.157 506.739 293.014L503.684 294.774L502.077 295.698L447.613 327.117C438.591 332.33 424.927 332.889 417.107 328.374L359.87 295.369L359.782 295.318L353.03 291.429C352.419 291.08 351.88 290.716 351.372 290.31C349.174 288.617 347.988 286.596 347.777 284.451V283.128C347.901 281.665 348.476 280.183 349.503 278.736C350.74 276.976 352.661 275.283 355.207 273.821L359.865 271.137L414.329 239.717C423.366 234.52 437.014 233.946 444.835 238.46L502.072 271.486L508.911 275.427C510.462 276.314 511.684 277.361 512.557 278.479C513.656 279.89 514.195 281.46 514.195 283.066L514.205 283.056Z" fill="url(#paint14_linear_4066_28183)"/>
<path d="M514.205 259.86V273.564C514.205 277.017 511.673 280.68 506.734 283.523L502.077 286.206L447.612 317.626C438.59 322.839 424.927 323.398 417.106 318.883L359.869 285.857L353.03 281.917C349.225 279.721 347.5 276.72 347.777 273.636V261.256C347.987 263.4 349.173 265.422 351.371 267.115C351.879 267.515 352.419 267.885 353.03 268.234L359.782 272.123L359.869 272.174L417.106 305.179C424.927 309.694 438.59 309.135 447.612 303.922L502.077 272.502L503.684 271.579L506.739 269.819C508.238 268.962 509.512 268.023 510.559 267.028C512.983 264.781 514.205 262.287 514.205 259.86Z" fill="#C1C1C1"/>
<path d="M514.205 259.86C514.205 262.282 512.983 264.776 510.56 267.028C509.512 268.023 508.239 268.962 506.739 269.819L503.684 271.579L502.077 272.502L447.613 303.922C438.591 309.135 424.927 309.694 417.107 305.179L359.87 272.174L359.782 272.123L353.03 268.234C352.419 267.885 351.88 267.52 351.372 267.115C349.174 265.422 347.988 263.401 347.777 261.256V259.932C347.901 258.47 348.476 256.987 349.503 255.54C350.74 253.781 352.661 252.088 355.207 250.625L359.865 247.942L414.329 216.522C423.366 211.325 437.014 210.75 444.835 215.265L502.072 248.291L508.911 252.231C510.462 253.119 511.684 254.165 512.557 255.284C513.656 256.695 514.195 258.265 514.195 259.871L514.205 259.86Z" fill="url(#paint15_linear_4066_28183)"/>
<path style="mix-blend-mode:multiply" d="M182.172 276.335L123.543 240.051L210.844 208.016L252.78 236.203" fill="url(#paint16_linear_4066_28183)"/>
<path d="M210.844 196.872V208.016C210.844 210.822 208.785 213.803 204.769 216.112L200.98 218.298L156.692 243.848C149.355 248.086 138.243 248.542 131.886 244.869L85.3448 218.015L79.7838 214.809C76.6927 213.023 75.2858 210.581 75.5117 208.072V198.006C75.6812 199.75 76.6465 201.392 78.4334 202.772C78.8442 203.101 79.2858 203.398 79.7838 203.68L85.278 206.841L85.3499 206.882L131.891 233.72C138.248 237.394 149.36 236.937 156.697 232.699L200.985 207.149L202.289 206.4L204.774 204.968C205.996 204.276 207.028 203.506 207.881 202.7C209.853 200.874 210.849 198.842 210.849 196.872H210.844Z" fill="#C1C1C1"/>
<path d="M210.843 196.872C210.843 198.842 209.852 200.869 207.875 202.7C207.023 203.511 205.985 204.275 204.768 204.968L202.283 206.399L200.979 207.149L156.692 232.699C149.354 236.937 138.242 237.394 131.886 233.72L85.3441 206.882L85.2722 206.841L79.778 203.68C79.2799 203.398 78.8435 203.101 78.4275 202.772C76.6406 201.397 75.6753 199.75 75.5059 198.006V196.928C75.6034 195.738 76.0758 194.532 76.9128 193.357C77.9192 191.926 79.4802 190.551 81.5546 189.361L85.3441 187.175L129.631 161.625C136.984 157.397 148.081 156.93 154.437 160.604L200.979 187.457L206.54 190.664C207.803 191.387 208.794 192.239 209.508 193.147C210.401 194.296 210.843 195.574 210.843 196.877V196.872Z" fill="url(#paint17_linear_4066_28183)"/>
<path d="M210.844 178.012V189.156C210.844 191.962 208.785 194.943 204.769 197.252L200.98 199.438L156.692 224.988C149.355 229.226 138.243 229.683 131.886 226.009L85.3448 199.155L79.7838 195.949C76.6927 194.163 75.2858 191.721 75.5117 189.212V179.146C75.6812 180.89 76.6465 182.532 78.4334 183.912C78.8442 184.241 79.2858 184.538 79.7838 184.821L85.278 187.981L85.3499 188.022L131.891 214.86C138.248 218.534 149.36 218.077 156.697 213.839L200.985 188.289L202.289 187.54L204.774 186.108C205.996 185.416 207.028 184.646 207.881 183.841C209.853 182.014 210.849 179.982 210.849 178.012H210.844Z" fill="#C1C1C1"/>
<path d="M210.843 178.012C210.843 179.982 209.852 182.009 207.875 183.84C207.023 184.651 205.985 185.416 204.768 186.108L202.283 187.54L200.979 188.289L156.692 213.839C149.354 218.077 138.242 218.534 131.886 214.86L85.3441 188.022L85.2722 187.981L79.778 184.82C79.2799 184.538 78.8435 184.241 78.4275 183.912C76.6406 182.537 75.6753 180.89 75.5059 179.146V178.069C75.6034 176.878 76.0758 175.673 76.9128 174.498C77.9192 173.066 79.4802 171.691 81.5546 170.501L85.3441 168.315L129.631 142.765C136.984 138.537 148.081 138.07 154.437 141.744L200.979 168.597L206.54 171.804C207.803 172.527 208.794 173.379 209.508 174.287C210.401 175.437 210.843 176.714 210.843 178.017V178.012Z" fill="url(#paint18_linear_4066_28183)"/>
<path d="M210.844 159.152V170.296C210.844 173.102 208.785 176.083 204.769 178.392L200.98 180.577L156.692 206.128C149.355 210.366 138.243 210.822 131.886 207.149L85.3448 180.295L79.7838 177.088C76.6927 175.303 75.2858 172.861 75.5117 170.352V160.286C75.6812 162.03 76.6465 163.672 78.4334 165.052C78.8442 165.38 79.2858 165.678 79.7838 165.96L85.278 169.121L85.3499 169.162L131.891 196C138.248 199.673 149.36 199.217 156.697 194.979L200.985 169.428L202.289 168.679L204.774 167.248C205.996 166.555 207.028 165.786 207.881 164.98C209.853 163.154 210.849 161.122 210.849 159.152H210.844Z" fill="#C1C1C1"/>
<path d="M210.843 159.152C210.843 161.122 209.852 163.148 207.875 164.98C207.023 165.791 205.985 166.555 204.768 167.248L202.283 168.679L200.979 169.428L156.692 194.979C149.354 199.217 138.242 199.673 131.886 196L85.3441 169.162L85.2722 169.121L79.778 165.96C79.2799 165.678 78.8435 165.38 78.4275 165.052C76.6406 163.677 75.6753 162.03 75.5059 160.286V159.208C75.6034 158.018 76.0758 156.812 76.9128 155.637C77.9192 154.206 79.4802 152.831 81.5546 151.641L85.3441 149.455L129.631 123.904C136.984 119.677 148.081 119.21 154.437 122.883L200.979 149.737L206.54 152.944C207.803 153.667 208.794 154.519 209.508 155.427C210.401 156.576 210.843 157.854 210.843 159.157V159.152Z" fill="url(#paint19_linear_4066_28183)"/>
<path style="mix-blend-mode:multiply" d="M318.669 508.1L260.035 471.816L347.336 439.781L389.272 467.968" fill="url(#paint20_linear_4066_28183)"/>
<path d="M347.336 428.637V439.781C347.336 442.587 345.277 445.568 341.261 447.877L337.472 450.063L293.185 475.613C285.847 479.851 274.735 480.308 268.378 476.634L221.837 449.78L216.276 446.574C213.185 444.788 211.778 442.346 212.004 439.837V429.771C212.173 431.515 213.139 433.157 214.926 434.537C215.336 434.866 215.778 435.163 216.276 435.446L221.77 438.606L221.842 438.647L268.384 465.485C274.74 469.159 285.852 468.702 293.19 464.464L337.477 438.914L338.781 438.165L341.266 436.733C342.489 436.041 343.521 435.271 344.373 434.466C346.345 432.639 347.341 430.607 347.341 428.637H347.336Z" fill="#C1C1C1"/>
<path d="M347.335 428.637C347.335 430.607 346.344 432.634 344.367 434.465C343.515 435.276 342.478 436.041 341.261 436.733L338.775 438.165L337.471 438.914L293.184 464.464C285.846 468.702 274.735 469.159 268.378 465.485L221.836 438.647L221.764 438.606L216.27 435.445C215.772 435.163 215.336 434.866 214.92 434.537C213.133 433.162 212.167 431.515 211.998 429.771V428.694C212.096 427.503 212.568 426.298 213.405 425.123C214.411 423.691 215.972 422.316 218.047 421.126L221.836 418.94L266.124 393.39C273.477 389.162 284.573 388.695 290.93 392.369L337.471 419.222L343.032 422.429C344.295 423.152 345.286 424.004 346 424.912C346.893 426.062 347.335 427.339 347.335 428.642V428.637Z" fill="url(#paint21_linear_4066_28183)"/>
<path d="M347.336 409.777V420.921C347.336 423.727 345.277 426.708 341.261 429.017L337.472 431.203L293.185 456.753C285.847 460.991 274.735 461.448 268.378 457.774L221.837 430.921L216.276 427.714C213.185 425.929 211.778 423.486 212.004 420.977V410.911C212.173 412.656 213.139 414.297 214.926 415.678C215.336 416.006 215.778 416.303 216.276 416.586L221.77 419.746L221.842 419.787L268.384 446.625C274.74 450.299 285.852 449.842 293.19 445.604L337.477 420.054L338.781 419.305L341.266 417.873C342.489 417.181 343.521 416.411 344.373 415.606C346.345 413.779 347.341 411.747 347.341 409.777H347.336Z" fill="#C1C1C1"/>
<path d="M347.335 409.777C347.335 411.747 346.344 413.774 344.367 415.606C343.515 416.416 342.478 417.181 341.261 417.873L338.775 419.305L337.471 420.054L293.184 445.604C285.846 449.842 274.735 450.299 268.378 446.625L221.836 419.787L221.764 419.746L216.27 416.586C215.772 416.303 215.336 416.006 214.92 415.677C213.133 414.302 212.167 412.656 211.998 410.911V409.834C212.096 408.643 212.568 407.438 213.405 406.263C214.411 404.831 215.972 403.456 218.047 402.266L221.836 400.08L266.124 374.53C273.477 370.302 284.573 369.835 290.93 373.509L337.471 400.363L343.032 403.569C344.295 404.293 345.286 405.144 346 406.052C346.893 407.202 347.335 408.479 347.335 409.782V409.777Z" fill="url(#paint22_linear_4066_28183)"/>
<path d="M347.336 390.917V402.061C347.336 404.867 345.277 407.848 341.261 410.157L337.472 412.342L293.185 437.893C285.847 442.131 274.735 442.587 268.378 438.914L221.837 412.06L216.276 408.854C213.185 407.068 211.778 404.626 212.004 402.117V392.051C212.173 393.795 213.139 395.437 214.926 396.817C215.336 397.146 215.778 397.443 216.276 397.725L221.77 400.886L221.842 400.927L268.384 427.765C274.74 431.439 285.852 430.982 293.19 426.744L337.477 401.194L338.781 400.445L341.266 399.013C342.489 398.32 343.521 397.551 344.373 396.745C346.345 394.919 347.341 392.887 347.341 390.917H347.336Z" fill="#C1C1C1"/>
<path d="M347.335 390.917C347.335 392.887 346.344 394.914 344.367 396.745C343.515 397.556 342.478 398.32 341.261 399.013L338.775 400.444L337.471 401.193L293.184 426.744C285.846 430.982 274.735 431.438 268.378 427.765L221.836 400.927L221.764 400.886L216.27 397.725C215.772 397.443 215.336 397.145 214.92 396.817C213.133 395.442 212.167 393.795 211.998 392.051V390.973C212.096 389.783 212.568 388.577 213.405 387.402C214.411 385.971 215.972 384.596 218.047 383.406L221.836 381.22L266.124 355.67C273.477 351.442 284.573 350.975 290.93 354.649L337.471 381.502L343.032 384.709C344.295 385.432 345.286 386.284 346 387.192C346.893 388.341 347.335 389.619 347.335 390.922V390.917Z" fill="url(#paint23_linear_4066_28183)"/>
<path style="mix-blend-mode:multiply" d="M734.096 309.812L693.788 284.872L753.798 262.846L782.63 282.225" fill="url(#paint24_linear_4066_28183)"/>
<path d="M753.799 255.187V262.847C753.799 264.776 752.387 266.823 749.624 268.413L747.021 269.917L716.577 287.479C711.534 290.393 703.894 290.706 699.524 288.181L667.529 269.722L663.704 267.521C661.578 266.294 660.613 264.617 660.767 262.893V255.972C660.885 257.172 661.547 258.301 662.775 259.245C663.057 259.471 663.36 259.676 663.699 259.871L667.473 262.046L667.519 262.077L699.514 280.527C703.884 283.051 711.524 282.738 716.566 279.824L747.01 262.262L747.909 261.743L749.614 260.758C750.451 260.281 751.164 259.753 751.75 259.199C753.105 257.942 753.788 256.546 753.788 255.192L753.799 255.187Z" fill="#C1C1C1"/>
<path d="M753.799 255.186C753.799 256.541 753.116 257.936 751.76 259.193C751.175 259.747 750.461 260.276 749.624 260.753L747.919 261.738L747.021 262.256L716.577 279.818C711.535 282.733 703.894 283.046 699.524 280.521L667.53 262.072L667.483 262.041L663.709 259.865C663.37 259.671 663.067 259.465 662.785 259.24C661.558 258.296 660.89 257.162 660.777 255.966V255.227C660.844 254.407 661.168 253.58 661.743 252.77C662.436 251.785 663.509 250.841 664.931 250.02L667.535 248.517L697.979 230.954C703.031 228.051 710.662 227.727 715.031 230.252L747.026 248.712L750.851 250.913C751.719 251.41 752.402 251.995 752.89 252.616C753.506 253.406 753.809 254.283 753.809 255.181L753.799 255.186Z" fill="url(#paint25_linear_4066_28183)"/>
<path d="M753.799 242.221V249.881C753.799 251.81 752.387 253.857 749.624 255.448L747.021 256.951L716.577 274.513C711.534 277.427 703.894 277.74 699.524 275.216L667.529 256.756L663.704 254.555C661.578 253.329 660.613 251.651 660.767 249.927V243.006C660.885 244.207 661.547 245.335 662.775 246.28C663.057 246.505 663.36 246.71 663.699 246.905L667.473 249.081L667.519 249.112L699.514 267.561C703.884 270.086 711.524 269.773 716.566 266.858L747.01 249.296L747.909 248.778L749.614 247.793C750.451 247.316 751.164 246.787 751.75 246.233C753.105 244.976 753.788 243.581 753.788 242.226L753.799 242.221Z" fill="#C1C1C1"/>
<path d="M753.799 242.221C753.799 243.576 753.116 244.971 751.76 246.228C751.175 246.782 750.461 247.311 749.624 247.788L747.919 248.773L747.021 249.291L716.577 266.853C711.535 269.767 703.894 270.08 699.524 267.556L667.53 249.106L667.483 249.076L663.709 246.9C663.37 246.705 663.067 246.5 662.785 246.274C661.558 245.33 660.89 244.196 660.777 243.001V242.262C660.844 241.441 661.168 240.615 661.743 239.805C662.436 238.819 663.509 237.875 664.931 237.055L667.535 235.551L697.979 217.989C703.031 215.085 710.662 214.762 715.031 217.286L747.026 235.746L750.851 237.947C751.719 238.445 752.402 239.03 752.89 239.651C753.506 240.441 753.809 241.318 753.809 242.216L753.799 242.221Z" fill="url(#paint26_linear_4066_28183)"/>
<path d="M753.799 229.256V236.916C753.799 238.845 752.387 240.893 749.624 242.483L747.021 243.986L716.577 261.548C711.534 264.463 703.894 264.776 699.524 262.251L667.529 243.791L663.704 241.59C661.578 240.364 660.613 238.686 660.767 236.963V230.041C660.885 231.242 661.547 232.371 662.775 233.315C663.057 233.54 663.36 233.746 663.699 233.941L667.473 236.116L667.519 236.147L699.514 254.596C703.884 257.121 711.524 256.808 716.566 253.894L747.01 236.331L747.909 235.813L749.614 234.828C750.451 234.351 751.164 233.823 751.75 233.268C753.105 232.011 753.788 230.616 753.788 229.261L753.799 229.256Z" fill="#C1C1C1"/>
<path d="M753.799 229.256C753.799 230.611 753.116 232.006 751.76 233.263C751.175 233.817 750.461 234.346 749.624 234.823L747.919 235.808L747.021 236.326L716.577 253.888C711.535 256.802 703.894 257.115 699.524 254.591L667.53 236.141L667.483 236.111L663.709 233.935C663.37 233.74 663.067 233.535 662.785 233.309C661.558 232.365 660.89 231.231 660.777 230.036V229.297C660.844 228.476 661.168 227.65 661.743 226.84C662.436 225.855 663.509 224.911 664.931 224.09L667.535 222.586L697.979 205.024C703.031 202.12 710.662 201.797 715.031 204.321L747.026 222.781L750.851 224.982C751.719 225.48 752.402 226.065 752.89 226.686C753.506 227.476 753.809 228.353 753.809 229.251L753.799 229.256Z" fill="url(#paint27_linear_4066_28183)"/>
<path style="mix-blend-mode:multiply" d="M588.701 214.228L540.521 184.415L612.259 158.089L646.719 181.249" fill="url(#paint28_linear_4066_28183)"/>
<path d="M612.258 148.931V158.089C612.258 160.398 610.569 162.845 607.267 164.744L604.156 166.539L567.76 187.534C561.732 191.018 552.603 191.392 547.375 188.375L509.127 166.309L504.557 163.677C502.015 162.209 500.86 160.203 501.044 158.141V149.87C501.183 151.301 501.979 152.656 503.448 153.785C503.786 154.051 504.146 154.298 504.557 154.529L509.07 157.125L509.127 157.161L547.375 179.217C552.598 182.234 561.732 181.865 567.76 178.376L604.156 157.381L605.229 156.766L607.267 155.591C608.269 155.021 609.121 154.39 609.819 153.728C611.442 152.225 612.258 150.558 612.258 148.941V148.931Z" fill="#C1C1C1"/>
<path d="M612.259 148.931C612.259 150.552 611.442 152.215 609.82 153.718C609.121 154.38 608.269 155.011 607.268 155.58L605.229 156.755L604.156 157.371L567.761 178.365C561.733 181.849 552.603 182.224 547.376 179.207L509.127 157.15L509.071 157.114L504.557 154.518C504.151 154.287 503.787 154.041 503.448 153.774C501.979 152.646 501.184 151.291 501.045 149.86V148.972C501.127 147.992 501.512 147.002 502.2 146.037C503.027 144.862 504.311 143.729 506.015 142.754L509.127 140.958L545.522 119.964C551.561 116.49 560.68 116.105 565.907 119.122L604.156 141.189L608.726 143.821C609.763 144.416 610.58 145.114 611.165 145.858C611.899 146.802 612.259 147.849 612.259 148.921V148.931Z" fill="url(#paint29_linear_4066_28183)"/>
<path d="M612.258 133.432V142.59C612.258 144.899 610.569 147.346 607.267 149.244L604.156 151.04L567.76 172.034C561.732 175.518 552.603 175.893 547.375 172.876L509.127 150.809L504.557 148.177C502.015 146.71 500.86 144.704 501.044 142.641V134.371C501.183 135.802 501.979 137.156 503.448 138.285C503.786 138.552 504.146 138.798 504.557 139.029L509.07 141.625L509.127 141.661L547.375 163.718C552.598 166.734 561.732 166.365 567.76 162.876L604.156 141.882L605.229 141.266L607.267 140.091C608.269 139.522 609.121 138.891 609.819 138.229C611.442 136.725 612.258 135.058 612.258 133.442V133.432Z" fill="#C1C1C1"/>
<path d="M612.259 133.432C612.259 135.053 611.442 136.715 609.82 138.218C609.121 138.88 608.269 139.511 607.268 140.081L605.229 141.256L604.156 141.871L567.761 162.866C561.733 166.35 552.603 166.724 547.376 163.707L509.127 141.651L509.071 141.615L504.557 139.019C504.151 138.788 503.787 138.542 503.448 138.275C501.979 137.146 501.184 135.792 501.045 134.36V133.473C501.127 132.493 501.512 131.502 502.2 130.538C503.027 129.363 504.311 128.229 506.015 127.254L509.127 125.459L545.522 104.464C551.561 100.991 560.68 100.606 565.907 103.623L604.156 125.689L608.726 128.321C609.763 128.917 610.58 129.614 611.165 130.358C611.899 131.302 612.259 132.349 612.259 133.421V133.432Z" fill="url(#paint30_linear_4066_28183)"/>
<path d="M612.258 117.932V127.09C612.258 129.399 610.569 131.846 607.267 133.745L604.156 135.54L567.76 156.535C561.732 160.019 552.603 160.393 547.375 157.376L509.127 135.31L504.557 132.678C502.015 131.21 500.86 129.204 501.044 127.142V118.871C501.183 120.302 501.979 121.657 503.448 122.786C503.786 123.052 504.146 123.299 504.557 123.53L509.07 126.126L509.127 126.162L547.375 148.218C552.598 151.235 561.732 150.866 567.76 147.377L604.156 126.382L605.229 125.767L607.267 124.592C608.269 124.022 609.121 123.391 609.819 122.729C611.442 121.226 612.258 119.559 612.258 117.942V117.932Z" fill="#C1C1C1"/>
<path d="M612.259 117.932C612.259 119.553 611.442 121.216 609.82 122.719C609.121 123.381 608.269 124.012 607.268 124.581L605.229 125.756L604.156 126.372L567.761 147.366C561.733 150.85 552.603 151.225 547.376 148.208L509.127 126.151L509.071 126.115L504.557 123.519C504.151 123.288 503.787 123.042 503.448 122.775C501.979 121.647 501.184 120.292 501.045 118.861V117.973C501.127 116.993 501.512 116.003 502.2 115.038C503.027 113.863 504.311 112.73 506.015 111.755L509.127 109.959L545.522 88.9646C551.561 85.4912 560.68 85.1064 565.907 88.1232L604.156 110.19L608.726 112.822C609.763 113.417 610.58 114.115 611.165 114.859C611.899 115.803 612.259 116.849 612.259 117.922V117.932Z" fill="url(#paint31_linear_4066_28183)"/>
<path style="mix-blend-mode:multiply" d="M559.171 536L511.869 506.73L582.298 480.882L616.136 503.626" fill="url(#paint32_linear_4066_28183)"/>
<path d="M582.298 471.888V480.877C582.298 483.14 580.639 485.546 577.399 487.408L574.344 489.168L538.611 509.783C532.691 513.205 523.73 513.569 518.601 510.609L481.05 488.942L476.562 486.357C474.067 484.915 472.932 482.95 473.117 480.923V472.801C473.256 474.207 474.031 475.536 475.474 476.644C475.808 476.906 476.162 477.147 476.562 477.378L480.994 479.928L481.05 479.964L518.601 501.62C523.73 504.58 532.696 504.216 538.611 500.794L574.344 480.179L575.396 479.574L577.399 478.419C578.385 477.86 579.222 477.239 579.905 476.588C581.497 475.11 582.298 473.479 582.298 471.888Z" fill="#C1C1C1"/>
<path d="M582.298 471.888C582.298 473.478 581.497 475.115 579.905 476.588C579.217 477.239 578.38 477.855 577.399 478.419L575.397 479.574L574.344 480.179L538.611 500.794C532.691 504.216 523.731 504.58 518.601 501.62L481.05 479.964L480.994 479.928L476.563 477.378C476.162 477.147 475.808 476.911 475.474 476.644C474.031 475.536 473.251 474.207 473.117 472.801V471.934C473.199 470.975 473.574 470 474.252 469.051C475.063 467.896 476.326 466.788 477.995 465.824L481.05 464.064L516.783 443.449C522.714 440.042 531.669 439.663 536.793 442.623L574.344 464.29L578.832 466.875C579.848 467.46 580.655 468.148 581.224 468.876C581.943 469.805 582.303 470.831 582.303 471.883L582.298 471.888Z" fill="url(#paint33_linear_4066_28183)"/>
<path d="M582.298 456.676V465.665C582.298 467.927 580.639 470.333 577.399 472.196L574.344 473.956L538.611 494.57C532.691 497.993 523.73 498.357 518.601 495.397L481.05 473.73L476.562 471.144C474.067 469.702 472.932 467.737 473.117 465.711V457.589C473.256 458.995 474.031 460.324 475.474 461.432C475.808 461.694 476.162 461.935 476.562 462.166L480.994 464.715L481.05 464.751L518.601 486.408C523.73 489.368 532.696 489.004 538.611 485.582L574.344 464.967L575.396 464.361L577.399 463.207C578.385 462.648 579.222 462.027 579.905 461.375C581.497 459.898 582.298 458.266 582.298 456.676Z" fill="#C1C1C1"/>
<path d="M582.298 456.676C582.298 458.266 581.497 459.903 579.905 461.375C579.217 462.027 578.38 462.642 577.399 463.207L575.397 464.361L574.344 464.967L538.611 485.581C532.691 489.004 523.731 489.368 518.601 486.407L481.05 464.751L480.994 464.715L476.563 462.165C476.162 461.934 475.808 461.698 475.474 461.432C474.031 460.323 473.251 458.995 473.117 457.589V456.722C473.199 455.762 473.574 454.788 474.252 453.838C475.063 452.684 476.326 451.576 477.995 450.611L481.05 448.851L516.783 428.237C522.714 424.83 531.669 424.45 536.793 427.411L574.344 449.077L578.832 451.663C579.848 452.248 580.655 452.935 581.224 453.664C581.943 454.593 582.303 455.619 582.303 456.67L582.298 456.676Z" fill="url(#paint34_linear_4066_28183)"/>
<path d="M582.298 441.458V450.447C582.298 452.71 580.639 455.116 577.399 456.979L574.344 458.738L538.611 479.353C532.691 482.775 523.73 483.14 518.601 480.179L481.05 458.513L476.562 455.927C474.067 454.485 472.932 452.52 473.117 450.493V442.372C473.256 443.778 474.031 445.106 475.474 446.215C475.808 446.476 476.162 446.717 476.562 446.948L480.994 449.498L481.05 449.534L518.601 471.19C523.73 474.151 532.696 473.786 538.611 470.364L574.344 449.75L575.396 449.144L577.399 447.99C578.385 447.431 579.222 446.81 579.905 446.158C581.497 444.681 582.298 443.049 582.298 441.458Z" fill="#C1C1C1"/>
<path d="M582.298 441.458C582.298 443.049 581.497 444.685 579.905 446.158C579.217 446.809 578.38 447.425 577.399 447.99L575.397 449.144L574.344 449.749L538.611 470.364C532.691 473.786 523.731 474.151 518.601 471.19L481.05 449.534L480.994 449.498L476.563 446.948C476.162 446.717 475.808 446.481 475.474 446.214C474.031 445.106 473.251 443.777 473.117 442.372V441.504C473.199 440.545 473.574 439.57 474.252 438.621C475.063 437.467 476.326 436.358 477.995 435.394L481.05 433.634L516.783 413.019C522.714 409.613 531.669 409.233 536.793 412.193L574.344 433.86L578.832 436.446C579.848 437.031 580.655 437.718 581.224 438.447C581.943 439.375 582.303 440.401 582.303 441.453L582.298 441.458Z" fill="url(#paint35_linear_4066_28183)"/>
<path style="mix-blend-mode:multiply" d="M368.768 181.455L321.461 152.179L391.895 126.336L425.727 149.075" fill="url(#paint36_linear_4066_28183)"/>
<path d="M391.895 117.342V126.331C391.895 128.594 390.237 131 386.997 132.862L383.941 134.622L348.209 155.237C342.288 158.659 333.328 159.023 328.198 156.063L290.648 134.396L286.16 131.811C283.665 130.369 282.53 128.404 282.715 126.377V118.256C282.853 119.661 283.629 120.99 285.072 122.098C285.405 122.36 285.76 122.601 286.16 122.832L290.591 125.382L290.648 125.418L328.198 147.074C333.328 150.035 342.293 149.67 348.209 146.248L383.941 125.633L384.994 125.028L386.997 123.874C387.983 123.314 388.819 122.694 389.502 122.042C391.094 120.564 391.895 118.933 391.895 117.342Z" fill="#C1C1C1"/>
<path d="M391.895 117.342C391.895 118.933 391.094 120.569 389.503 122.042C388.814 122.693 387.978 123.309 386.997 123.873L384.994 125.028L383.942 125.633L348.209 146.248C342.288 149.67 333.328 150.034 328.199 147.074L290.648 125.418L290.592 125.382L286.16 122.832C285.76 122.601 285.405 122.365 285.072 122.098C283.629 120.99 282.848 119.661 282.715 118.255V117.388C282.797 116.429 283.172 115.454 283.85 114.505C284.661 113.35 285.924 112.242 287.593 111.278L290.648 109.518L326.381 88.9031C332.312 85.4964 341.267 85.1167 346.391 88.0771L383.942 109.744L388.429 112.329C389.446 112.914 390.252 113.602 390.822 114.33C391.541 115.259 391.9 116.285 391.9 117.337L391.895 117.342Z" fill="url(#paint37_linear_4066_28183)"/>
<path d="M391.895 102.125V111.114C391.895 113.376 390.237 115.783 386.997 117.645L383.941 119.405L348.209 140.02C342.288 143.442 333.328 143.806 328.198 140.846L290.648 119.179L286.16 116.593C283.665 115.152 282.53 113.187 282.715 111.16V103.038C282.853 104.444 283.629 105.773 285.072 106.881C285.405 107.143 285.76 107.384 286.16 107.615L290.591 110.165L290.648 110.201L328.198 131.857C333.328 134.817 342.293 134.453 348.209 131.031L383.941 110.416L384.994 109.811L386.997 108.656C387.983 108.097 388.819 107.476 389.502 106.825C391.094 105.347 391.895 103.715 391.895 102.125Z" fill="#C1C1C1"/>
<path d="M391.895 102.125C391.895 103.715 391.094 105.352 389.503 106.824C388.814 107.476 387.978 108.092 386.997 108.656L384.994 109.81L383.942 110.416L348.209 131.031C342.288 134.453 333.328 134.817 328.199 131.857L290.648 110.2L290.592 110.164L286.16 107.615C285.76 107.384 285.405 107.148 285.072 106.881C283.629 105.773 282.848 104.444 282.715 103.038V102.171C282.797 101.212 283.172 100.237 283.85 99.2876C284.661 98.1332 285.924 97.025 287.593 96.0604L290.648 94.3006L326.381 73.6858C332.312 70.2791 341.267 69.8994 346.391 72.8598L383.942 94.5264L388.429 97.1122C389.446 97.6971 390.252 98.3846 390.822 99.1131C391.541 100.042 391.9 101.068 391.9 102.12L391.895 102.125Z" fill="url(#paint38_linear_4066_28183)"/>
<path d="M391.895 86.9077V95.8965C391.895 98.1591 390.237 100.565 386.997 102.428L383.941 104.188L348.209 124.802C342.288 128.225 333.328 128.589 328.198 125.628L290.648 103.962L286.16 101.376C283.665 99.9343 282.53 97.9693 282.715 95.9427V87.821C282.853 89.2268 283.629 90.5556 285.072 91.6638C285.405 91.9255 285.76 92.1666 286.16 92.3975L290.591 94.9474L290.648 94.9833L328.198 116.64C333.328 119.6 342.293 119.236 348.209 115.814L383.941 95.1988L384.994 94.5934L386.997 93.439C387.983 92.8797 388.819 92.2589 389.502 91.6074C391.094 90.1297 391.895 88.4982 391.895 86.9077Z" fill="#C1C1C1"/>
<path d="M391.895 86.9075C391.895 88.498 391.094 90.1347 389.503 91.6071C388.814 92.2587 387.978 92.8744 386.997 93.4388L384.994 94.5932L383.942 95.1986L348.209 115.813C342.288 119.235 333.328 119.6 328.199 116.639L290.648 94.9831L290.592 94.9472L286.16 92.3973C285.76 92.1664 285.405 91.9304 285.072 91.6636C283.629 90.5554 282.848 89.2265 282.715 87.8208V86.9537C282.797 85.9943 283.172 85.0194 283.85 84.0703C284.661 82.9159 285.924 81.8077 287.593 80.8431L290.648 79.0833L326.381 58.4685C332.312 55.0618 341.267 54.6821 346.391 57.6425L383.942 79.3091L388.429 81.8949C389.446 82.4798 390.252 83.1673 390.822 83.8958C391.541 84.8245 391.9 85.8506 391.9 86.9024L391.895 86.9075Z" fill="url(#paint39_linear_4066_28183)"/>
</g>
<defs>
<linearGradient id="paint0_linear_4066_28183" x1="86.9311" y1="452.864" x2="131.412" y2="505.919" gradientUnits="userSpaceOnUse">
<stop stop-color="#C1C1C1"/>
<stop offset="1" stop-color="#F7F7F7" stop-opacity="0.19"/>
</linearGradient>
<linearGradient id="paint1_linear_4066_28183" x1="50.5001" y1="443.541" x2="162.284" y2="439.872" gradientUnits="userSpaceOnUse">
<stop stop-color="#E9F2FA"/>
<stop offset="1" stop-color="#E2E2E2"/>
</linearGradient>
<linearGradient id="paint2_linear_4066_28183" x1="50.5001" y1="424.599" x2="162.284" y2="420.93" gradientUnits="userSpaceOnUse">
<stop stop-color="#E9F2FA"/>
<stop offset="1" stop-color="#E2E2E2"/>
</linearGradient>
<linearGradient id="paint3_linear_4066_28183" x1="35.825" y1="425.938" x2="116.012" y2="373.824" gradientUnits="userSpaceOnUse">
<stop stop-color="#E9F2FA"/>
<stop offset="1" stop-color="#E2E2E2"/>
</linearGradient>
<linearGradient id="paint4_linear_4066_28183" x1="758.743" y1="87" x2="803.224" y2="140.05" gradientUnits="userSpaceOnUse">
<stop stop-color="#C1C1C1"/>
<stop offset="1" stop-color="#F7F7F7" stop-opacity="0.19"/>
</linearGradient>
<linearGradient id="paint5_linear_4066_28183" x1="722.307" y1="77.6722" x2="834.096" y2="74.0082" gradientUnits="userSpaceOnUse">
<stop stop-color="#E9F2FA"/>
<stop offset="1" stop-color="#E2E2E2"/>
</linearGradient>
<linearGradient id="paint6_linear_4066_28183" x1="722.307" y1="58.7303" x2="834.096" y2="55.0611" gradientUnits="userSpaceOnUse">
<stop stop-color="#E9F2FA"/>
<stop offset="1" stop-color="#E2E2E2"/>
</linearGradient>
<linearGradient id="paint7_linear_4066_28183" x1="707.637" y1="60.0744" x2="787.819" y2="7.9599" gradientUnits="userSpaceOnUse">
<stop stop-color="#E9F2FA"/>
<stop offset="1" stop-color="#E2E2E2"/>
</linearGradient>
<linearGradient id="paint8_linear_4066_28183" x1="767.852" y1="448.585" x2="812.333" y2="501.64" gradientUnits="userSpaceOnUse">
<stop stop-color="#C1C1C1"/>
<stop offset="1" stop-color="#F7F7F7" stop-opacity="0.19"/>
</linearGradient>
<linearGradient id="paint9_linear_4066_28183" x1="731.421" y1="439.263" x2="843.205" y2="435.593" gradientUnits="userSpaceOnUse">
<stop stop-color="#E9F2FA"/>
<stop offset="1" stop-color="#E2E2E2"/>
</linearGradient>
<linearGradient id="paint10_linear_4066_28183" x1="731.421" y1="420.32" x2="843.205" y2="416.651" gradientUnits="userSpaceOnUse">
<stop stop-color="#E9F2FA"/>
<stop offset="1" stop-color="#E2E2E2"/>
</linearGradient>
<linearGradient id="paint11_linear_4066_28183" x1="716.746" y1="421.664" x2="796.933" y2="369.545" gradientUnits="userSpaceOnUse">
<stop stop-color="#E9F2FA"/>
<stop offset="1" stop-color="#E2E2E2"/>
</linearGradient>
<linearGradient id="paint12_linear_4066_28183" x1="454.184" y1="318.729" x2="508.643" y2="383.68" gradientUnits="userSpaceOnUse">
<stop stop-color="#C1C1C1"/>
<stop offset="1" stop-color="#F7F7F7" stop-opacity="0.19"/>
</linearGradient>
<linearGradient id="paint13_linear_4066_28183" x1="409.579" y1="307.314" x2="546.441" y2="302.822" gradientUnits="userSpaceOnUse">
<stop stop-color="#E9F2FA"/>
<stop offset="1" stop-color="#E2E2E2"/>
</linearGradient>
<linearGradient id="paint14_linear_4066_28183" x1="409.579" y1="284.118" x2="546.441" y2="279.626" gradientUnits="userSpaceOnUse">
<stop stop-color="#E9F2FA"/>
<stop offset="1" stop-color="#E2E2E2"/>
</linearGradient>
<linearGradient id="paint15_linear_4066_28183" x1="391.613" y1="285.765" x2="489.789" y2="221.955" gradientUnits="userSpaceOnUse">
<stop stop-color="#E9F2FA"/>
<stop offset="1" stop-color="#E2E2E2"/>
</linearGradient>
<linearGradient id="paint16_linear_4066_28183" x1="162.033" y1="207.015" x2="206.319" y2="259.834" gradientUnits="userSpaceOnUse">
<stop stop-color="#C1C1C1"/>
<stop offset="1" stop-color="#F7F7F7" stop-opacity="0.19"/>
</linearGradient>
<linearGradient id="paint17_linear_4066_28183" x1="125.76" y1="197.734" x2="237.051" y2="194.08" gradientUnits="userSpaceOnUse">
<stop stop-color="#E9F2FA"/>
<stop offset="1" stop-color="#E2E2E2"/>
</linearGradient>
<linearGradient id="paint18_linear_4066_28183" x1="125.76" y1="178.874" x2="237.051" y2="175.22" gradientUnits="userSpaceOnUse">
<stop stop-color="#E9F2FA"/>
<stop offset="1" stop-color="#E2E2E2"/>
</linearGradient>
<linearGradient id="paint19_linear_4066_28183" x1="111.151" y1="180.213" x2="190.984" y2="128.324" gradientUnits="userSpaceOnUse">
<stop stop-color="#E9F2FA"/>
<stop offset="1" stop-color="#E2E2E2"/>
</linearGradient>
<linearGradient id="paint20_linear_4066_28183" x1="298.53" y1="438.785" x2="342.812" y2="491.599" gradientUnits="userSpaceOnUse">
<stop stop-color="#C1C1C1"/>
<stop offset="1" stop-color="#F7F7F7" stop-opacity="0.19"/>
</linearGradient>
<linearGradient id="paint21_linear_4066_28183" x1="262.257" y1="429.499" x2="373.548" y2="425.85" gradientUnits="userSpaceOnUse">
<stop stop-color="#E9F2FA"/>
<stop offset="1" stop-color="#E2E2E2"/>
</linearGradient>
<linearGradient id="paint22_linear_4066_28183" x1="262.257" y1="410.639" x2="373.548" y2="406.991" gradientUnits="userSpaceOnUse">
<stop stop-color="#E9F2FA"/>
<stop offset="1" stop-color="#E2E2E2"/>
</linearGradient>
<linearGradient id="paint23_linear_4066_28183" x1="247.644" y1="411.978" x2="327.477" y2="360.095" gradientUnits="userSpaceOnUse">
<stop stop-color="#E9F2FA"/>
<stop offset="1" stop-color="#E2E2E2"/>
</linearGradient>
<linearGradient id="paint24_linear_4066_28183" x1="720.248" y1="262.164" x2="750.693" y2="298.472" gradientUnits="userSpaceOnUse">
<stop stop-color="#C1C1C1"/>
<stop offset="1" stop-color="#F7F7F7" stop-opacity="0.19"/>
</linearGradient>
<linearGradient id="paint25_linear_4066_28183" x1="695.314" y1="255.782" x2="771.822" y2="253.269" gradientUnits="userSpaceOnUse">
<stop stop-color="#E9F2FA"/>
<stop offset="1" stop-color="#E2E2E2"/>
</linearGradient>
<linearGradient id="paint26_linear_4066_28183" x1="695.314" y1="242.816" x2="771.822" y2="240.303" gradientUnits="userSpaceOnUse">
<stop stop-color="#E9F2FA"/>
<stop offset="1" stop-color="#E2E2E2"/>
</linearGradient>
<linearGradient id="paint27_linear_4066_28183" x1="685.27" y1="243.735" x2="740.15" y2="208.067" gradientUnits="userSpaceOnUse">
<stop stop-color="#E9F2FA"/>
<stop offset="1" stop-color="#E2E2E2"/>
</linearGradient>
<linearGradient id="paint28_linear_4066_28183" x1="572.152" y1="157.268" x2="608.543" y2="200.672" gradientUnits="userSpaceOnUse">
<stop stop-color="#C1C1C1"/>
<stop offset="1" stop-color="#F7F7F7" stop-opacity="0.19"/>
</linearGradient>
<linearGradient id="paint29_linear_4066_28183" x1="542.344" y1="149.639" x2="633.799" y2="146.638" gradientUnits="userSpaceOnUse">
<stop stop-color="#E9F2FA"/>
<stop offset="1" stop-color="#E2E2E2"/>
</linearGradient>
<linearGradient id="paint30_linear_4066_28183" x1="542.344" y1="134.14" x2="633.799" y2="131.138" gradientUnits="userSpaceOnUse">
<stop stop-color="#E9F2FA"/>
<stop offset="1" stop-color="#E2E2E2"/>
</linearGradient>
<linearGradient id="paint31_linear_4066_28183" x1="530.339" y1="135.238" x2="595.94" y2="92.605" gradientUnits="userSpaceOnUse">
<stop stop-color="#E9F2FA"/>
<stop offset="1" stop-color="#E2E2E2"/>
</linearGradient>
<linearGradient id="paint32_linear_4066_28183" x1="542.924" y1="480.076" x2="578.649" y2="522.689" gradientUnits="userSpaceOnUse">
<stop stop-color="#C1C1C1"/>
<stop offset="1" stop-color="#F7F7F7" stop-opacity="0.19"/>
</linearGradient>
<linearGradient id="paint33_linear_4066_28183" x1="513.656" y1="472.586" x2="603.448" y2="469.641" gradientUnits="userSpaceOnUse">
<stop stop-color="#E9F2FA"/>
<stop offset="1" stop-color="#E2E2E2"/>
</linearGradient>
<linearGradient id="paint34_linear_4066_28183" x1="513.656" y1="457.368" x2="603.448" y2="454.424" gradientUnits="userSpaceOnUse">
<stop stop-color="#E9F2FA"/>
<stop offset="1" stop-color="#E2E2E2"/>
</linearGradient>
<linearGradient id="paint35_linear_4066_28183" x1="501.872" y1="458.451" x2="566.277" y2="416.589" gradientUnits="userSpaceOnUse">
<stop stop-color="#E9F2FA"/>
<stop offset="1" stop-color="#E2E2E2"/>
</linearGradient>
<linearGradient id="paint36_linear_4066_28183" x1="352.516" y1="125.531" x2="388.246" y2="168.143" gradientUnits="userSpaceOnUse">
<stop stop-color="#C1C1C1"/>
<stop offset="1" stop-color="#F7F7F7" stop-opacity="0.19"/>
</linearGradient>
<linearGradient id="paint37_linear_4066_28183" x1="323.254" y1="118.04" x2="413.045" y2="115.095" gradientUnits="userSpaceOnUse">
<stop stop-color="#E9F2FA"/>
<stop offset="1" stop-color="#E2E2E2"/>
</linearGradient>
<linearGradient id="paint38_linear_4066_28183" x1="323.254" y1="102.823" x2="413.045" y2="99.878" gradientUnits="userSpaceOnUse">
<stop stop-color="#E9F2FA"/>
<stop offset="1" stop-color="#E2E2E2"/>
</linearGradient>
<linearGradient id="paint39_linear_4066_28183" x1="311.47" y1="103.9" x2="375.875" y2="62.0431" gradientUnits="userSpaceOnUse">
<stop stop-color="#E9F2FA"/>
<stop offset="1" stop-color="#E2E2E2"/>
</linearGradient>
<clipPath id="clip0_4066_28183">
<rect width="859" height="536" fill="white"/>
</clipPath>
</defs>
</svg>
