<svg width="662" height="413" viewBox="0 0 662 413" fill="none" xmlns="http://www.w3.org/2000/svg">
<g opacity="0.5" clip-path="url(#clip0_4092_26566)">
<path d="M380.527 380.55L380.385 380.351L316.29 289.121L221.772 362.604L203.085 334.237L200.015 338.142L199.874 338.164L57.1816 359.671L57.2978 359.156L92.9508 199.123L119.963 208.067L110.11 193.108L110.719 193.058L261.635 180.542L245.888 136.419L217.294 146.502L144.906 187.463L144.547 186.832L216.989 145.838L246.327 135.491L262.379 180.477L373.312 171.279L386.642 152.197L386.743 152.157L515.35 100.834L493.691 210.95L526.848 323.06L552.782 319.376L550.379 109.426L490.309 86.5817L244.857 110.365L244.788 109.644L490.411 85.8457L490.491 85.8747L551.105 108.926L553.518 320.003L527.058 323.763L533.235 344.643L532.861 344.73L380.53 380.558L380.527 380.55ZM316.446 288.08L316.664 288.392L380.839 379.731L532.317 344.106L526.329 323.861L508.905 326.337L508.825 326.312L338.011 269.735L338.976 269.376L480.115 216.733L401.198 169.698L373.711 171.978L305.138 270.145L264.139 256.57L203.554 333.639L221.943 361.556L316.443 288.084L316.446 288.08ZM93.4843 200.059L58.1216 358.793L199.623 337.468L202.664 333.599L120.609 209.043L93.4843 200.062V200.059ZM121.719 209.409L203.136 332.997L263.409 256.324L121.719 209.409ZM340.199 269.691L508.978 325.594L526.125 323.158L492.948 210.979L492.966 210.892L514.385 101.998L387.117 152.788L374.255 171.199L401.373 168.951L401.474 169.013L481.788 216.878L340.199 269.691ZM264.622 255.958L304.858 269.282L372.778 172.051L262.64 181.184L281.613 234.349L264.625 255.961L264.622 255.958ZM121.077 208.43L263.889 255.715L280.793 234.215L261.892 181.245L111.394 193.725L121.081 208.43H121.077Z" fill="url(#paint0_linear_4092_26566)" stroke="#7779E6"/>
<path style="mix-blend-mode:multiply" d="M75.7402 416.976L34.1172 391.22L96.0926 368.484L125.863 388.49" fill="url(#paint1_linear_4092_26566)"/>
<path d="M96.0936 360.574V368.485C96.0936 370.479 94.6347 372.593 91.7821 374.231L89.0929 375.779L57.6534 393.915C52.4455 396.924 44.5557 397.246 40.0446 394.64L7.00099 375.58L3.05245 373.307C0.856798 372.038 -0.141225 370.308 0.0184591 368.528V361.382C0.138222 362.619 0.824136 363.786 2.09435 364.765C2.38468 364.997 2.70042 365.207 3.05245 365.41L6.95018 367.654L7.00099 367.683L40.0446 386.736C44.5593 389.343 52.4455 389.02 57.6534 386.011L89.0929 367.876L90.0184 367.343L91.7821 366.328C92.6495 365.834 93.3826 365.291 93.9887 364.718C95.3895 363.42 96.0936 361.98 96.0936 360.581V360.574Z" fill="#C1C1C1"/>
<path d="M96.0927 360.574C96.0927 361.973 95.3887 363.412 93.9878 364.71C93.3817 365.283 92.6486 365.827 91.7812 366.32L90.0175 367.335L89.092 367.868L57.6525 386.003C52.4446 389.013 44.5548 389.335 40.0437 386.728L7.00011 367.676L6.9493 367.647L3.05157 365.403C2.69954 365.2 2.38743 364.99 2.09347 364.758C0.823255 363.782 0.137341 362.615 0.0175781 361.375V360.61C0.0865324 359.765 0.420416 358.909 1.0156 358.076C1.73055 357.06 2.83745 356.082 4.31089 355.237L7.00011 353.689L38.4396 335.554C43.6584 332.555 51.5373 332.222 56.0484 334.828L89.092 353.888L93.0406 356.161C93.937 356.676 94.641 357.278 95.1455 357.923C95.7806 358.739 96.0927 359.645 96.0927 360.57V360.574Z" fill="url(#paint2_linear_4092_26566)"/>
<path d="M96.0936 347.188V355.099C96.0936 357.093 94.6347 359.207 91.7821 360.846L89.0929 362.394L57.6534 380.529C52.4455 383.538 44.5557 383.861 40.0446 381.254L7.00099 362.194L3.05245 359.921C0.856798 358.652 -0.141225 356.923 0.0184591 355.142V347.996C0.138222 349.233 0.824136 350.4 2.09435 351.379C2.38468 351.611 2.70042 351.821 3.05245 352.024L6.95018 354.269L7.00099 354.298L40.0446 373.35C44.5593 375.957 52.4455 375.634 57.6534 372.625L89.0929 354.49L90.0184 353.957L91.7821 352.942C92.6495 352.449 93.3826 351.905 93.9887 351.332C95.3895 350.034 96.0936 348.595 96.0936 347.195V347.188Z" fill="#C1C1C1"/>
<path d="M96.0927 347.188C96.0927 348.587 95.3887 350.027 93.9878 351.325C93.3817 351.897 92.6486 352.441 91.7812 352.934L90.0175 353.95L89.092 354.483L57.6525 372.618C52.4446 375.627 44.5548 375.95 40.0437 373.343L7.00011 354.29L6.9493 354.261L3.05157 352.017C2.69954 351.814 2.38743 351.604 2.09347 351.372C0.823255 350.396 0.137341 349.229 0.0175781 347.989V347.224C0.0865324 346.379 0.420416 345.524 1.0156 344.69C1.73055 343.675 2.83745 342.696 4.31089 341.851L7.00011 340.303L38.4396 322.168C43.6584 319.169 51.5373 318.836 56.0484 321.443L89.092 340.502L93.0406 342.776C93.937 343.29 94.641 343.892 95.1455 344.538C95.7806 345.353 96.0927 346.26 96.0927 347.184V347.188Z" fill="url(#paint3_linear_4092_26566)"/>
<path d="M96.0936 333.799V341.71C96.0936 343.704 94.6347 345.818 91.7821 347.456L89.0929 349.004L57.6534 367.14C52.4455 370.149 44.5557 370.471 40.0446 367.865L7.00099 348.805L3.05245 346.532C0.856798 345.263 -0.141225 343.533 0.0184591 341.753V334.607C0.138222 335.844 0.824136 337.011 2.09435 337.99C2.38468 338.222 2.70042 338.432 3.05245 338.635L6.95018 340.88L7.00099 340.909L40.0446 359.961C44.5593 362.568 52.4455 362.245 57.6534 359.236L89.0929 341.101L90.0184 340.568L91.7821 339.553C92.6495 339.06 93.3826 338.516 93.9887 337.943C95.3895 336.645 96.0936 335.206 96.0936 333.806V333.799Z" fill="#C1C1C1"/>
<path d="M96.0927 333.799C96.0927 335.198 95.3887 336.638 93.9878 337.935C93.3817 338.508 92.6486 339.052 91.7812 339.545L90.0175 340.56L89.092 341.093L57.6525 359.228C52.4446 362.238 44.5548 362.56 40.0437 359.954L7.00011 340.901L6.9493 340.872L3.05157 338.628C2.69954 338.425 2.38743 338.215 2.09347 337.983C0.823255 337.007 0.137341 335.84 0.0175781 334.6V333.835C0.0865324 332.99 0.420416 332.135 1.0156 331.301C1.73055 330.286 2.83745 329.307 4.31089 328.462L7.00011 326.914L38.4396 308.779C43.6584 305.78 51.5373 305.447 56.0484 308.053L89.092 327.113L93.0406 329.386C93.937 329.901 94.641 330.503 95.1455 331.148C95.7806 331.964 96.0927 332.871 96.0927 333.795V333.799Z" fill="url(#paint4_linear_4092_26566)"/>
<path style="mix-blend-mode:multiply" d="M550.564 158.433L508.941 132.681L570.917 109.941L600.691 129.951" fill="url(#paint5_linear_4092_26566)"/>
<path d="M570.916 102.03V109.941C570.916 111.935 569.457 114.049 566.604 115.688L563.915 117.236L532.476 135.371C527.268 138.38 519.378 138.703 514.867 136.096L481.823 117.037L477.875 114.763C475.679 113.494 474.681 111.765 474.841 109.985V102.839C474.96 104.075 475.646 105.243 476.917 106.221C477.207 106.453 477.523 106.664 477.875 106.867L481.772 109.111L481.823 109.14L514.867 128.192C519.382 130.799 527.268 130.477 532.476 127.467L563.915 109.332L564.841 108.799L566.604 107.784C567.472 107.291 568.205 106.747 568.811 106.174C570.212 104.876 570.916 103.437 570.916 102.038V102.03Z" fill="#C1C1C1"/>
<path d="M570.917 102.03C570.917 103.43 570.213 104.869 568.812 106.167C568.206 106.74 567.473 107.284 566.605 107.777L564.842 108.792L563.916 109.325L532.477 127.46C527.269 130.469 519.379 130.792 514.868 128.185L481.824 109.133L481.774 109.104L477.876 106.859C477.524 106.656 477.212 106.446 476.918 106.214C475.647 105.239 474.962 104.071 474.842 102.831V102.066C474.911 101.222 475.245 100.366 475.84 99.5321C476.555 98.517 477.662 97.5381 479.135 96.6933L481.824 95.1452L513.264 77.0101C518.483 74.0117 526.362 73.6782 530.873 76.2849L563.916 95.3446L567.865 97.6178C568.761 98.1326 569.465 98.7345 569.97 99.3798C570.605 100.196 570.917 101.102 570.917 102.027V102.03Z" fill="url(#paint6_linear_4092_26566)"/>
<path d="M570.916 88.645V96.556C570.916 98.5501 569.457 100.664 566.604 102.303L563.915 103.851L532.476 121.986C527.268 124.995 519.378 125.318 514.867 122.711L481.823 103.651L477.875 101.378C475.679 100.109 474.681 98.3797 474.841 96.5995V89.4535C474.96 90.6898 475.646 91.8573 476.917 92.8362C477.207 93.0682 477.523 93.2785 477.875 93.4815L481.772 95.7258L481.823 95.7548L514.867 114.807C519.382 117.414 527.268 117.091 532.476 114.082L563.915 95.9469L564.841 95.414L566.604 94.3988C567.472 93.9057 568.205 93.3619 568.811 92.7891C570.212 91.4911 570.916 90.0517 570.916 88.6523V88.645Z" fill="#C1C1C1"/>
<path d="M570.917 88.6449C570.917 90.0444 570.213 91.4837 568.812 92.7817C568.206 93.3545 567.473 93.8983 566.605 94.3914L564.842 95.4066L563.916 95.9395L532.477 114.075C527.269 117.084 519.379 117.407 514.868 114.8L481.824 95.7474L481.774 95.7184L477.876 93.4742C477.524 93.2711 477.212 93.0608 476.918 92.8288C475.647 91.8535 474.962 90.6861 474.842 89.4461V88.6811C474.911 87.8364 475.245 86.9807 475.84 86.1469C476.555 85.1317 477.662 84.1528 479.135 83.308L481.824 81.7599L513.264 63.6248C518.483 60.6265 526.362 60.2929 530.873 62.8997L563.916 81.9593L567.865 84.2326C568.761 84.7474 569.465 85.3492 569.97 85.9946C570.605 86.8103 570.917 87.7167 570.917 88.6413V88.6449Z" fill="url(#paint7_linear_4092_26566)"/>
<path d="M570.916 75.2593V83.1703C570.916 85.1643 569.457 87.2781 566.604 88.9168L563.915 90.4649L532.476 108.6C527.268 111.609 519.378 111.932 514.867 109.325L481.823 90.2655L477.875 87.9923C475.679 86.7233 474.681 84.9939 474.841 83.2138V76.0678C474.96 77.3041 475.646 78.4715 476.917 79.4504C477.207 79.6825 477.523 79.8928 477.875 80.0958L481.772 82.34L481.823 82.369L514.867 101.421C519.382 104.028 527.268 103.706 532.476 100.696L563.915 82.5612L564.841 82.0282L566.604 81.0131C567.472 80.52 568.205 79.9761 568.811 79.4033C570.212 78.1054 570.916 76.666 570.916 75.2665V75.2593Z" fill="#C1C1C1"/>
<path d="M570.917 75.2591C570.917 76.6586 570.213 78.098 568.812 79.3959C568.206 79.9688 567.473 80.5126 566.605 81.0057L564.842 82.0208L563.916 82.5538L532.477 100.689C527.269 103.698 519.379 104.021 514.868 101.414L481.824 82.3616L481.774 82.3326L477.876 80.0884C477.524 79.8854 477.212 79.6751 476.918 79.4431C475.647 78.4678 474.962 77.3003 474.842 76.0604V75.2954C474.911 74.4506 475.245 73.595 475.84 72.7611C476.555 71.746 477.662 70.7671 479.135 69.9223L481.824 68.3742L513.264 50.2391C518.483 47.2407 526.362 46.9072 530.873 49.5139L563.916 68.5736L567.865 70.8468C568.761 71.3617 569.465 71.9635 569.97 72.6089C570.605 73.4246 570.917 74.331 570.917 75.2555V75.2591Z" fill="url(#paint8_linear_4092_26566)"/>
<path style="mix-blend-mode:multiply" d="M557.006 413.953L515.383 388.201L577.358 365.461L607.128 385.467" fill="url(#paint9_linear_4092_26566)"/>
<path d="M577.357 357.55V365.461C577.357 367.455 575.898 369.569 573.046 371.208L570.357 372.756L538.917 390.891C533.709 393.9 525.819 394.223 521.308 391.616L488.265 372.557L484.316 370.283C482.12 369.014 481.122 367.285 481.282 365.505V358.359C481.402 359.595 482.088 360.763 483.358 361.741C483.648 361.974 483.964 362.184 484.316 362.387L488.214 364.631L488.265 364.66L521.308 383.712C525.823 386.319 533.709 385.997 538.917 382.987L570.357 364.852L571.282 364.319L573.046 363.304C573.913 362.811 574.646 362.267 575.252 361.694C576.653 360.396 577.357 358.957 577.357 357.558V357.55Z" fill="#C1C1C1"/>
<path d="M577.358 357.55C577.358 358.95 576.654 360.389 575.253 361.687C574.647 362.26 573.914 362.804 573.047 363.297L571.283 364.312L570.358 364.845L538.918 382.98C533.71 385.989 525.82 386.312 521.309 383.705L488.266 364.653L488.215 364.624L484.317 362.379C483.965 362.176 483.653 361.966 483.359 361.734C482.089 360.759 481.403 359.591 481.283 358.351V357.586C481.352 356.742 481.686 355.886 482.281 355.052C482.996 354.037 484.103 353.058 485.577 352.213L488.266 350.665L519.705 332.53C524.924 329.532 532.803 329.198 537.314 331.805L570.358 350.865L574.306 353.138C575.203 353.653 575.907 354.254 576.411 354.9C577.046 355.716 577.358 356.622 577.358 357.547V357.55Z" fill="url(#paint10_linear_4092_26566)"/>
<path d="M577.357 344.165V352.076C577.357 354.07 575.898 356.183 573.046 357.822L570.357 359.37L538.917 377.505C533.709 380.515 525.819 380.837 521.308 378.23L488.265 359.171L484.316 356.898C482.12 355.629 481.122 353.899 481.282 352.119V344.973C481.402 346.209 482.088 347.377 483.358 348.356C483.648 348.588 483.964 348.798 484.316 349.001L488.214 351.245L488.265 351.274L521.308 370.327C525.823 372.933 533.709 372.611 538.917 369.602L570.357 351.466L571.282 350.933L573.046 349.918C573.913 349.425 574.646 348.881 575.252 348.309C576.653 347.011 577.357 345.571 577.357 344.172V344.165Z" fill="#C1C1C1"/>
<path d="M577.358 344.164C577.358 345.564 576.654 347.003 575.253 348.301C574.647 348.874 573.914 349.418 573.047 349.911L571.283 350.926L570.358 351.459L538.918 369.594C533.71 372.603 525.82 372.926 521.309 370.319L488.266 351.267L488.215 351.238L484.317 348.994C483.965 348.791 483.653 348.58 483.359 348.348C482.089 347.373 481.403 346.206 481.283 344.966V344.201C481.352 343.356 481.686 342.5 482.281 341.666C482.996 340.651 484.103 339.672 485.577 338.828L488.266 337.279L519.705 319.144C524.924 316.146 532.803 315.812 537.314 318.419L570.358 337.479L574.306 339.752C575.203 340.267 575.907 340.869 576.411 341.514C577.046 342.33 577.358 343.236 577.358 344.161V344.164Z" fill="url(#paint11_linear_4092_26566)"/>
<path d="M577.357 330.775V338.686C577.357 340.68 575.898 342.794 573.046 344.433L570.357 345.981L538.917 364.116C533.709 367.125 525.819 367.448 521.308 364.841L488.265 345.782L484.316 343.508C482.12 342.239 481.122 340.51 481.282 338.73V331.584C481.402 332.82 482.088 333.988 483.358 334.967C483.648 335.199 483.964 335.409 484.316 335.612L488.214 337.856L488.265 337.885L521.308 356.938C525.823 359.544 533.709 359.222 538.917 356.212L570.357 338.077L571.282 337.544L573.046 336.529C573.913 336.036 574.646 335.492 575.252 334.919C576.653 333.621 577.357 332.182 577.357 330.783V330.775Z" fill="#C1C1C1"/>
<path d="M577.358 330.775C577.358 332.175 576.654 333.614 575.253 334.912C574.647 335.485 573.914 336.029 573.047 336.522L571.283 337.537L570.358 338.07L538.918 356.205C533.71 359.214 525.82 359.537 521.309 356.93L488.266 337.878L488.215 337.849L484.317 335.605C483.965 335.401 483.653 335.191 483.359 334.959C482.089 333.984 481.403 332.816 481.283 331.577V330.812C481.352 329.967 481.686 329.111 482.281 328.277C482.996 327.262 484.103 326.283 485.577 325.438L488.266 323.89L519.705 305.755C524.924 302.757 532.803 302.423 537.314 305.03L570.358 324.09L574.306 326.363C575.203 326.878 575.907 327.48 576.411 328.125C577.046 328.941 577.358 329.847 577.358 330.772V330.775Z" fill="url(#paint12_linear_4092_26566)"/>
<path style="mix-blend-mode:multiply" d="M338.516 333.222L287.559 301.691L363.434 273.854L399.885 298.348" fill="url(#paint13_linear_4092_26566)"/>
<path d="M363.434 264.169V273.853C363.434 276.293 361.645 278.882 358.154 280.891L354.862 282.787L316.368 304.99C309.991 308.673 300.334 309.069 294.807 305.878L254.352 282.54L249.518 279.756C246.829 278.204 245.61 276.083 245.805 273.904V265.156C245.954 266.671 246.793 268.1 248.346 269.296C248.705 269.579 249.086 269.84 249.518 270.086L254.291 272.835L254.352 272.871L294.807 296.194C300.334 299.385 309.991 298.989 316.368 295.306L354.862 273.103L355.998 272.45L358.157 271.207C359.217 270.601 360.117 269.938 360.858 269.234C362.571 267.646 363.434 265.884 363.434 264.169Z" fill="#C1C1C1"/>
<path d="M363.435 264.169C363.435 265.881 362.572 267.643 360.859 269.234C360.118 269.938 359.218 270.601 358.159 271.207L355.999 272.45L354.863 273.103L316.369 295.306C309.992 298.989 300.335 299.385 294.808 296.194L254.353 272.871L254.292 272.834L249.519 270.086C249.087 269.84 248.706 269.582 248.347 269.296C246.794 268.099 245.955 266.671 245.807 265.155V264.22C245.894 263.187 246.3 262.139 247.026 261.117C247.901 259.873 249.258 258.677 251.058 257.643L254.35 255.747L292.844 233.544C299.232 229.871 308.878 229.465 314.405 232.656L354.86 255.994L359.694 258.778C360.79 259.405 361.654 260.145 362.27 260.935C363.047 261.932 363.428 263.042 363.428 264.177L363.435 264.169Z" fill="url(#paint14_linear_4092_26566)"/>
<path d="M363.434 247.778V257.462C363.434 259.902 361.645 262.49 358.154 264.499L354.862 266.395L316.368 288.598C309.991 292.282 300.334 292.677 294.807 289.486L254.352 266.149L249.518 263.364C246.829 261.812 245.61 259.691 245.805 257.512V248.764C245.954 250.279 246.793 251.708 248.346 252.904C248.705 253.187 249.086 253.448 249.518 253.695L254.291 256.443L254.352 256.479L294.807 279.803C300.334 282.993 309.991 282.598 316.368 278.914L354.862 256.711L355.998 256.059L358.157 254.815C359.217 254.21 360.117 253.546 360.858 252.843C362.571 251.255 363.434 249.493 363.434 247.778Z" fill="#C1C1C1"/>
<path d="M363.435 247.778C363.435 249.489 362.572 251.251 360.859 252.843C360.118 253.546 359.218 254.209 358.159 254.815L355.999 256.059L354.863 256.711L316.369 278.914C309.992 282.598 300.335 282.993 294.808 279.802L254.353 256.479L254.292 256.443L249.519 253.695C249.087 253.448 248.706 253.191 248.347 252.904C246.794 251.708 245.955 250.279 245.807 248.764V247.828C245.894 246.795 246.3 245.747 247.026 244.725C247.901 243.481 249.258 242.285 251.058 241.252L254.35 239.356L292.844 217.153C299.232 213.48 308.878 213.074 314.405 216.264L354.86 239.602L359.694 242.387C360.79 243.014 361.654 243.753 362.27 244.544C363.047 245.541 363.428 246.65 363.428 247.785L363.435 247.778Z" fill="url(#paint15_linear_4092_26566)"/>
<path d="M363.434 231.387V241.071C363.434 243.511 361.645 246.099 358.154 248.108L354.862 250.004L316.368 272.207C309.991 275.891 300.334 276.286 294.807 273.095L254.352 249.757L249.518 246.973C246.829 245.421 245.61 243.3 245.805 241.121V232.373C245.954 233.888 246.793 235.317 248.346 236.513C248.705 236.796 249.086 237.057 249.518 237.304L254.291 240.052L254.352 240.088L294.807 263.411C300.334 266.602 309.991 266.207 316.368 262.523L354.862 240.32L355.998 239.668L358.157 238.424C359.217 237.818 360.117 237.155 360.858 236.452C362.571 234.864 363.434 233.102 363.434 231.387Z" fill="#C1C1C1"/>
<path d="M363.435 231.387C363.435 233.098 362.572 234.86 360.859 236.452C360.118 237.155 359.218 237.818 358.159 238.424L355.999 239.667L354.863 240.32L316.369 262.523C309.992 266.207 300.335 266.602 294.808 263.411L254.353 240.088L254.292 240.052L249.519 237.304C249.087 237.057 248.706 236.8 248.347 236.513C246.794 235.317 245.955 233.888 245.807 232.373V231.437C245.894 230.404 246.3 229.356 247.026 228.334C247.901 227.09 249.258 225.894 251.058 224.861L254.35 222.964L292.844 200.761C299.232 197.089 308.878 196.683 314.405 199.873L354.86 223.211L359.694 225.995C360.79 226.623 361.654 227.362 362.27 228.153C363.047 229.15 363.428 230.259 363.428 231.394L363.435 231.387Z" fill="url(#paint16_linear_4092_26566)"/>
<path style="mix-blend-mode:multiply" d="M128.756 243.029L87.3184 217.389L149.022 194.751L178.661 214.67" fill="url(#paint17_linear_4092_26566)"/>
<path d="M149.023 186.876V194.751C149.023 196.734 147.567 198.84 144.729 200.472L142.051 202.016L110.749 220.072C105.563 223.066 97.7097 223.389 93.2167 220.793L60.3219 201.817L56.3915 199.551C54.2067 198.289 53.2123 196.564 53.372 194.791V187.677C53.4918 188.91 54.1741 190.07 55.437 191.045C55.7274 191.277 56.0395 191.488 56.3915 191.687L60.2747 193.92L60.3255 193.949L93.2204 212.915C97.7133 215.511 105.567 215.188 110.753 212.193L142.055 194.138L142.976 193.609L144.733 192.597C145.597 192.108 146.326 191.564 146.929 190.995C148.322 189.704 149.026 188.268 149.026 186.876H149.023Z" fill="#C1C1C1"/>
<path d="M149.021 186.876C149.021 188.269 148.321 189.701 146.924 190.995C146.321 191.568 145.588 192.108 144.728 192.598L142.972 193.609L142.05 194.138L110.748 212.194C105.562 215.188 97.7084 215.511 93.2155 212.915L60.3207 193.95L60.2699 193.921L56.3867 191.687C56.0346 191.488 55.7262 191.278 55.4322 191.046C54.1692 190.074 53.487 188.91 53.3672 187.678V186.916C53.4361 186.075 53.77 185.223 54.3616 184.393C55.0729 183.381 56.1762 182.41 57.6424 181.569L60.3207 180.024L91.6223 161.969C96.8193 158.981 104.662 158.651 109.155 161.247L142.05 180.223L145.98 182.489C146.873 183.001 147.573 183.602 148.078 184.244C148.709 185.056 149.021 185.959 149.021 186.88V186.876Z" fill="url(#paint18_linear_4092_26566)"/>
<path d="M149.023 173.548V181.423C149.023 183.406 147.567 185.512 144.729 187.144L142.051 188.688L110.749 206.744C105.563 209.738 97.7097 210.061 93.2167 207.465L60.3219 188.489L56.3915 186.223C54.2067 184.961 53.2123 183.235 53.372 181.462V174.349C53.4918 175.582 54.1741 176.742 55.437 177.717C55.7274 177.949 56.0395 178.16 56.3915 178.359L60.2747 180.592L60.3255 180.621L93.2204 199.587C97.7133 202.183 105.567 201.86 110.753 198.865L142.055 180.81L142.976 180.281L144.733 179.269C145.597 178.78 146.326 178.236 146.929 177.667C148.322 176.376 149.026 174.94 149.026 173.548H149.023Z" fill="#C1C1C1"/>
<path d="M149.021 173.548C149.021 174.94 148.321 176.373 146.924 177.667C146.321 178.24 145.588 178.78 144.728 179.269L142.972 180.281L142.05 180.81L110.748 198.866C105.562 201.86 97.7084 202.183 93.2155 199.587L60.3207 180.622L60.2699 180.593L56.3867 178.359C56.0346 178.16 55.7262 177.95 55.4322 177.718C54.1692 176.746 53.487 175.582 53.3672 174.349V173.588C53.4361 172.747 53.77 171.895 54.3616 171.065C55.0729 170.053 56.1762 169.082 57.6424 168.24L60.3207 166.696L91.6223 148.641C96.8193 145.653 104.662 145.323 109.155 147.919L142.05 166.895L145.98 169.161C146.873 169.672 147.573 170.274 148.078 170.916C148.709 171.728 149.021 172.631 149.021 173.552V173.548Z" fill="url(#paint19_linear_4092_26566)"/>
<path d="M149.023 160.221V168.095C149.023 170.079 147.567 172.185 144.729 173.817L142.051 175.361L110.749 193.416C105.563 196.411 97.7097 196.734 93.2167 194.138L60.3219 175.162L56.3915 172.896C54.2067 171.634 53.2123 169.908 53.372 168.135V161.022C53.4918 162.255 54.1741 163.415 55.437 164.39C55.7274 164.622 56.0395 164.832 56.3915 165.032L60.2747 167.265L60.3255 167.294L93.2204 186.26C97.7133 188.855 105.567 188.533 110.753 185.538L142.055 167.483L142.976 166.953L144.733 165.942C145.597 165.452 146.326 164.909 146.929 164.339C148.322 163.049 149.026 161.613 149.026 160.221H149.023Z" fill="#C1C1C1"/>
<path d="M149.021 160.221C149.021 161.613 148.321 163.045 146.924 164.34C146.321 164.913 145.588 165.453 144.728 165.942L142.972 166.954L142.05 167.483L110.748 185.538C105.562 188.533 97.7084 188.856 93.2155 186.26L60.3207 167.295L60.2699 167.266L56.3867 165.032C56.0346 164.833 55.7262 164.623 55.4322 164.39C54.1692 163.419 53.487 162.255 53.3672 161.022V160.261C53.4361 159.42 53.77 158.568 54.3616 157.738C55.0729 156.726 56.1762 155.754 57.6424 154.913L60.3207 153.369L91.6223 135.313C96.8193 132.326 104.662 131.996 109.155 134.592L142.05 153.568L145.98 155.834C146.873 156.345 147.573 156.947 148.078 157.589C148.709 158.401 149.021 159.304 149.021 160.225V160.221Z" fill="url(#paint20_linear_4092_26566)"/>
<path style="mix-blend-mode:multiply" d="M225.231 406.806L183.789 381.166L245.492 358.528L275.132 378.447" fill="url(#paint21_linear_4092_26566)"/>
<path d="M245.493 350.653V358.528C245.493 360.511 244.038 362.618 241.2 364.249L238.522 365.794L207.22 383.849C202.034 386.844 194.18 387.166 189.687 384.571L156.793 365.594L152.862 363.328C150.677 362.067 149.683 360.341 149.843 358.568V351.455C149.962 352.687 150.645 353.847 151.908 354.823C152.198 355.055 152.51 355.265 152.862 355.464L156.745 357.698L156.796 357.727L189.691 376.692C194.184 379.288 202.038 378.965 207.224 375.971L238.525 357.915L239.447 357.386L241.204 356.374C242.067 355.885 242.797 355.341 243.399 354.772C244.793 353.481 245.497 352.046 245.497 350.653H245.493Z" fill="#C1C1C1"/>
<path d="M245.492 350.654C245.492 352.046 244.792 353.478 243.394 354.772C242.792 355.345 242.059 355.885 241.199 356.375L239.442 357.386L238.52 357.916L207.219 375.971C202.033 378.966 194.179 379.288 189.686 376.693L156.791 357.727L156.741 357.698L152.857 355.465C152.505 355.265 152.197 355.055 151.903 354.823C150.64 353.851 149.958 352.688 149.838 351.455V350.694C149.907 349.852 150.241 349 150.832 348.17C151.544 347.159 152.647 346.187 154.113 345.346L156.791 343.801L188.093 325.746C193.29 322.759 201.133 322.429 205.626 325.025L238.52 344.001L242.451 346.267C243.344 346.778 244.044 347.38 244.548 348.022C245.18 348.834 245.492 349.736 245.492 350.657V350.654Z" fill="url(#paint22_linear_4092_26566)"/>
<path d="M245.493 337.326V345.2C245.493 347.184 244.038 349.29 241.2 350.922L238.522 352.466L207.22 370.521C202.034 373.516 194.18 373.839 189.687 371.243L156.793 352.267L152.862 350.001C150.677 348.739 149.683 347.013 149.843 345.24V338.127C149.962 339.36 150.645 340.52 151.908 341.495C152.198 341.727 152.51 341.937 152.862 342.137L156.745 344.37L156.796 344.399L189.691 363.365C194.184 365.96 202.038 365.638 207.224 362.643L238.525 344.588L239.447 344.058L241.204 343.047C242.067 342.557 242.797 342.014 243.399 341.444C244.793 340.154 245.497 338.718 245.497 337.326H245.493Z" fill="#C1C1C1"/>
<path d="M245.492 337.326C245.492 338.718 244.792 340.15 243.394 341.445C242.792 342.018 242.059 342.558 241.199 343.047L239.442 344.059L238.52 344.588L207.219 362.643C202.033 365.638 194.179 365.961 189.686 363.365L156.791 344.4L156.741 344.371L152.857 342.137C152.505 341.938 152.197 341.728 151.903 341.495C150.64 340.524 149.958 339.36 149.838 338.127V337.366C149.907 336.525 150.241 335.673 150.832 334.843C151.544 333.831 152.647 332.859 154.113 332.018L156.791 330.474L188.093 312.418C193.29 309.431 201.133 309.101 205.626 311.697L238.52 330.673L242.451 332.939C243.344 333.45 244.044 334.052 244.548 334.694C245.18 335.506 245.492 336.409 245.492 337.33V337.326Z" fill="url(#paint23_linear_4092_26566)"/>
<path d="M245.493 323.998V331.873C245.493 333.856 244.038 335.962 241.2 337.594L238.522 339.138L207.22 357.194C202.034 360.189 194.18 360.511 189.687 357.915L156.793 338.939L152.862 336.673C150.677 335.411 149.683 333.686 149.843 331.913V324.799C149.962 326.032 150.645 327.192 151.908 328.167C152.198 328.399 152.51 328.61 152.862 328.809L156.745 331.043L156.796 331.072L189.691 350.037C194.184 352.633 202.038 352.31 207.224 349.315L238.525 331.26L239.447 330.731L241.204 329.719C242.067 329.23 242.797 328.686 243.399 328.117C244.793 326.826 245.497 325.39 245.497 323.998H245.493Z" fill="#C1C1C1"/>
<path d="M245.492 323.998C245.492 325.391 244.792 326.823 243.394 328.117C242.792 328.69 242.059 329.23 241.199 329.72L239.442 330.731L238.52 331.26L207.219 349.316C202.033 352.311 194.179 352.633 189.686 350.037L156.791 331.072L156.741 331.043L152.857 328.81C152.505 328.61 152.197 328.4 151.903 328.168C150.64 327.196 149.958 326.032 149.838 324.8V324.038C149.907 323.197 150.241 322.345 150.832 321.515C151.544 320.503 152.647 319.532 154.113 318.691L156.791 317.146L188.093 299.091C193.29 296.103 201.133 295.773 205.626 298.369L238.52 317.345L242.451 319.611C243.344 320.123 244.044 320.725 244.548 321.366C245.18 322.178 245.492 323.081 245.492 324.002V323.998Z" fill="url(#paint24_linear_4092_26566)"/>
<path style="mix-blend-mode:multiply" d="M518.848 266.686L490.359 249.062L532.774 233.497L553.151 247.191" fill="url(#paint25_linear_4092_26566)"/>
<path d="M532.774 228.084V233.497C532.774 234.861 531.776 236.307 529.824 237.431L527.984 238.494L506.467 250.904C502.903 252.963 497.502 253.184 494.414 251.401L471.801 238.356L469.097 236.8C467.594 235.934 466.912 234.748 467.021 233.53V228.639C467.104 229.488 467.573 230.285 468.44 230.952C468.64 231.112 468.854 231.257 469.093 231.395L471.761 232.932L471.793 232.954L494.407 245.991C497.495 247.775 502.895 247.554 506.459 245.494L527.977 233.084L528.612 232.718L529.817 232.022C530.408 231.685 530.913 231.311 531.326 230.92C532.284 230.031 532.767 229.045 532.767 228.088L532.774 228.084Z" fill="#C1C1C1"/>
<path d="M532.773 228.084C532.773 229.042 532.291 230.028 531.333 230.916C530.919 231.308 530.415 231.681 529.823 232.018L528.618 232.714L527.983 233.08L506.466 245.491C502.902 247.55 497.502 247.771 494.413 245.988L471.8 232.95L471.767 232.928L469.1 231.391C468.86 231.253 468.646 231.108 468.446 230.949C467.579 230.282 467.107 229.48 467.027 228.636V228.113C467.075 227.533 467.303 226.95 467.71 226.377C468.2 225.681 468.958 225.014 469.963 224.433L471.803 223.371L493.321 210.961C496.892 208.909 502.285 208.68 505.373 210.464L527.987 223.509L530.69 225.064C531.304 225.416 531.786 225.829 532.131 226.268C532.567 226.826 532.781 227.446 532.781 228.081L532.773 228.084Z" fill="url(#paint26_linear_4092_26566)"/>
<path d="M532.774 218.922V224.335C532.774 225.699 531.776 227.145 529.824 228.269L527.984 229.331L506.467 241.742C502.903 243.801 497.502 244.022 494.414 242.238L471.801 229.194L469.097 227.638C467.594 226.772 466.912 225.586 467.021 224.368V219.477C467.104 220.325 467.573 221.123 468.44 221.79C468.64 221.95 468.854 222.095 469.093 222.233L471.761 223.77L471.793 223.792L494.407 236.829C497.495 238.613 502.895 238.392 506.459 236.332L527.977 223.922L528.612 223.556L529.817 222.86C530.408 222.523 530.913 222.149 531.326 221.758C532.284 220.869 532.767 219.883 532.767 218.926L532.774 218.922Z" fill="#C1C1C1"/>
<path d="M532.773 218.922C532.773 219.879 532.291 220.866 531.333 221.754C530.919 222.145 530.415 222.519 529.823 222.856L528.618 223.552L527.983 223.918L506.466 236.329C502.902 238.388 497.502 238.609 494.413 236.825L471.8 223.788L471.767 223.766L469.1 222.229C468.86 222.091 468.646 221.946 468.446 221.787C467.579 221.119 467.107 220.318 467.027 219.473V218.951C467.075 218.371 467.303 217.788 467.71 217.215C468.2 216.519 468.958 215.851 469.963 215.271L471.803 214.209L493.321 201.799C496.892 199.747 502.285 199.518 505.373 201.302L527.987 214.347L530.69 215.902C531.304 216.254 531.786 216.667 532.131 217.106C532.567 217.664 532.781 218.284 532.781 218.919L532.773 218.922Z" fill="url(#paint27_linear_4092_26566)"/>
<path d="M532.774 209.761V215.174C532.774 216.537 531.776 217.984 529.824 219.107L527.984 220.17L506.467 232.58C502.903 234.639 497.502 234.861 494.414 233.077L471.801 220.032L469.097 218.477C467.594 217.61 466.912 216.425 467.021 215.206V210.315C467.104 211.164 467.573 211.961 468.44 212.629C468.64 212.788 468.854 212.933 469.093 213.071L471.761 214.608L471.793 214.63L494.407 227.667C497.495 229.451 502.895 229.23 506.459 227.171L527.977 214.76L528.612 214.394L529.817 213.698C530.408 213.361 530.913 212.988 531.326 212.596C532.284 211.708 532.767 210.722 532.767 209.764L532.774 209.761Z" fill="#C1C1C1"/>
<path d="M532.773 209.761C532.773 210.718 532.291 211.704 531.333 212.592C530.919 212.984 530.415 213.357 529.823 213.694L528.618 214.391L527.983 214.757L506.466 227.167C502.902 229.226 497.502 229.448 494.413 227.664L471.8 214.626L471.767 214.604L469.1 213.067C468.86 212.929 468.646 212.784 468.446 212.625C467.579 211.958 467.107 211.157 467.027 210.312V209.79C467.075 209.21 467.303 208.626 467.71 208.053C468.2 207.357 468.958 206.69 469.963 206.11L471.803 205.047L493.321 192.637C496.892 190.585 502.285 190.357 505.373 192.14L527.987 205.185L530.69 206.741C531.304 207.092 531.786 207.506 532.131 207.944C532.567 208.503 532.781 209.123 532.781 209.757L532.773 209.761Z" fill="url(#paint28_linear_4092_26566)"/>
<path style="mix-blend-mode:multiply" d="M416.086 199.141L382.033 178.073L432.736 159.47L457.092 175.836" fill="url(#paint29_linear_4092_26566)"/>
<path d="M432.735 152.999V159.47C432.735 161.102 431.541 162.831 429.207 164.173L427.008 165.442L401.285 180.277C397.024 182.739 390.571 183.004 386.877 180.872L359.843 165.278L356.613 163.418C354.817 162.382 354 160.964 354.131 159.506V153.662C354.229 154.674 354.791 155.631 355.829 156.428C356.069 156.617 356.323 156.791 356.613 156.954L359.803 158.789L359.843 158.814L386.877 174.4C390.568 176.532 397.024 176.271 401.285 173.806L427.008 158.97L427.767 158.535L429.207 157.705C429.915 157.302 430.518 156.856 431.011 156.388C432.158 155.326 432.735 154.148 432.735 153.006V152.999Z" fill="#C1C1C1"/>
<path d="M432.735 152.999C432.735 154.144 432.158 155.319 431.011 156.381C430.518 156.849 429.915 157.295 429.208 157.697L427.767 158.528L427.008 158.963L401.285 173.799C397.024 176.26 390.571 176.525 386.877 174.393L359.843 158.807L359.803 158.781L356.613 156.947C356.327 156.784 356.069 156.61 355.829 156.421C354.791 155.624 354.229 154.666 354.131 153.655V153.028C354.189 152.335 354.461 151.635 354.947 150.954C355.532 150.124 356.439 149.322 357.644 148.633L359.843 147.364L385.567 132.529C389.835 130.074 396.28 129.802 399.975 131.934L427.008 147.528L430.238 149.388C430.971 149.808 431.548 150.301 431.962 150.827C432.481 151.494 432.735 152.234 432.735 152.991V152.999Z" fill="url(#paint30_linear_4092_26566)"/>
<path d="M432.735 142.046V148.518C432.735 150.149 431.541 151.878 429.207 153.22L427.008 154.489L401.285 169.325C397.024 171.786 390.571 172.051 386.877 169.919L359.843 154.326L356.613 152.466C354.817 151.429 354 150.011 354.131 148.554V142.709C354.229 143.721 354.791 144.678 355.829 145.476C356.069 145.664 356.323 145.838 356.613 146.001L359.803 147.836L359.843 147.861L386.877 163.448C390.568 165.58 397.024 165.318 401.285 162.853L427.008 148.017L427.767 147.582L429.207 146.752C429.915 146.349 430.518 145.904 431.011 145.436C432.158 144.374 432.735 143.195 432.735 142.053V142.046Z" fill="#C1C1C1"/>
<path d="M432.735 142.046C432.735 143.192 432.158 144.366 431.011 145.429C430.518 145.896 429.915 146.342 429.208 146.745L427.767 147.575L427.008 148.01L401.285 162.846C397.024 165.308 390.571 165.572 386.877 163.44L359.843 147.854L359.803 147.829L356.613 145.994C356.327 145.831 356.069 145.657 355.829 145.468C354.791 144.671 354.229 143.714 354.131 142.702V142.075C354.189 141.382 354.461 140.683 354.947 140.001C355.532 139.171 356.439 138.37 357.644 137.681L359.843 136.412L385.567 121.576C389.835 119.121 396.28 118.85 399.975 120.981L427.008 136.575L430.238 138.435C430.971 138.855 431.548 139.349 431.962 139.874C432.481 140.541 432.735 141.281 432.735 142.039V142.046Z" fill="url(#paint31_linear_4092_26566)"/>
<path d="M432.735 131.093V137.565C432.735 139.196 431.541 140.926 429.207 142.267L427.008 143.536L401.285 158.372C397.024 160.834 390.571 161.099 386.877 158.967L359.843 143.373L356.613 141.513C354.817 140.476 354 139.059 354.131 137.601V131.757C354.229 132.768 354.791 133.725 355.829 134.523C356.069 134.712 356.323 134.886 356.613 135.049L359.803 136.883L359.843 136.909L386.877 152.495C390.568 154.627 397.024 154.366 401.285 151.9L427.008 137.065L427.767 136.63L429.207 135.799C429.915 135.397 430.518 134.951 431.011 134.483C432.158 133.421 432.735 132.243 432.735 131.101V131.093Z" fill="#C1C1C1"/>
<path d="M432.735 131.093C432.735 132.239 432.158 133.414 431.011 134.476C430.518 134.944 429.915 135.39 429.208 135.792L427.767 136.622L427.008 137.057L401.285 151.893C397.024 154.355 390.571 154.62 386.877 152.488L359.843 136.901L359.803 136.876L356.613 135.042C356.327 134.878 356.069 134.704 355.829 134.516C354.791 133.718 354.229 132.761 354.131 131.75V131.122C354.189 130.43 354.461 129.73 354.947 129.048C355.532 128.218 356.439 127.417 357.644 126.728L359.843 125.459L385.567 110.623C389.835 108.169 396.28 107.897 399.975 110.029L427.008 125.622L430.238 127.482C430.971 127.903 431.548 128.396 431.962 128.922C432.481 129.589 432.735 130.328 432.735 131.086V131.093Z" fill="url(#paint32_linear_4092_26566)"/>
<path style="mix-blend-mode:multiply" d="M395.213 426.523L361.781 405.839L411.559 387.573L435.475 403.645" fill="url(#paint33_linear_4092_26566)"/>
<path d="M411.56 381.218V387.57C411.56 389.169 410.388 390.869 408.098 392.185L405.938 393.429L380.683 407.996C376.498 410.415 370.165 410.672 366.54 408.58L340 393.269L336.828 391.442C335.064 390.423 334.262 389.035 334.393 387.602V381.863C334.491 382.857 335.039 383.796 336.058 384.579C336.294 384.764 336.545 384.934 336.828 385.097L339.96 386.899L340 386.924L366.54 402.228C370.165 404.32 376.502 404.063 380.683 401.644L405.938 387.077L406.682 386.649L408.098 385.833C408.794 385.438 409.386 384.999 409.869 384.539C410.994 383.495 411.56 382.342 411.56 381.218Z" fill="#C1C1C1"/>
<path d="M411.56 381.218C411.56 382.342 410.994 383.498 409.869 384.539C409.382 384.999 408.791 385.434 408.097 385.833L406.682 386.649L405.938 387.077L380.683 401.644C376.498 404.062 370.165 404.32 366.54 402.228L340 386.924L339.96 386.899L336.828 385.097C336.545 384.934 336.294 384.767 336.058 384.579C335.039 383.796 334.487 382.856 334.393 381.863V381.25C334.451 380.572 334.716 379.883 335.195 379.213C335.768 378.397 336.661 377.614 337.84 376.932L340 375.689L365.255 361.121C369.447 358.714 375.776 358.445 379.398 360.537L405.938 375.848L409.11 377.676C409.829 378.089 410.398 378.575 410.801 379.09C411.309 379.746 411.563 380.471 411.563 381.214L411.56 381.218Z" fill="url(#paint34_linear_4092_26566)"/>
<path d="M411.56 370.468V376.82C411.56 378.419 410.388 380.119 408.098 381.435L405.938 382.679L380.683 397.246C376.498 399.665 370.165 399.922 366.54 397.83L340 382.519L336.828 380.692C335.064 379.673 334.262 378.285 334.393 376.852V371.113C334.491 372.107 335.039 373.046 336.058 373.829C336.294 374.014 336.545 374.184 336.828 374.347L339.96 376.149L340 376.174L366.54 391.478C370.165 393.57 376.502 393.313 380.683 390.894L405.938 376.327L406.682 375.899L408.098 375.083C408.794 374.688 409.386 374.249 409.869 373.789C410.994 372.745 411.56 371.592 411.56 370.468Z" fill="#C1C1C1"/>
<path d="M411.56 370.468C411.56 371.592 410.994 372.748 409.869 373.789C409.382 374.249 408.791 374.684 408.097 375.083L406.682 375.899L405.938 376.327L380.683 390.894C376.498 393.312 370.165 393.57 366.54 391.478L340 376.174L339.96 376.149L336.828 374.347C336.545 374.184 336.294 374.017 336.058 373.829C335.039 373.046 334.487 372.106 334.393 371.113V370.5C334.451 369.822 334.716 369.134 335.195 368.463C335.768 367.647 336.661 366.864 337.84 366.182L340 364.939L365.255 350.371C369.447 347.964 375.776 347.695 379.398 349.787L405.938 365.098L409.11 366.926C409.829 367.339 410.398 367.825 410.801 368.34C411.309 368.996 411.563 369.721 411.563 370.464L411.56 370.468Z" fill="url(#paint35_linear_4092_26566)"/>
<path d="M411.56 359.714V366.066C411.56 367.665 410.388 369.366 408.098 370.682L405.938 371.925L380.683 386.493C376.498 388.911 370.165 389.169 366.54 387.077L340 371.766L336.828 369.938C335.064 368.92 334.262 367.531 334.393 366.099V360.36C334.491 361.353 335.039 362.292 336.058 363.075C336.294 363.26 336.545 363.431 336.828 363.594L339.96 365.396L340 365.421L366.54 380.725C370.165 382.817 376.502 382.559 380.683 380.141L405.938 365.573L406.682 365.145L408.098 364.33C408.794 363.935 409.386 363.496 409.869 363.035C410.994 361.991 411.56 360.838 411.56 359.714Z" fill="#C1C1C1"/>
<path d="M411.56 359.714C411.56 360.838 410.994 361.995 409.869 363.035C409.382 363.496 408.791 363.931 408.097 364.33L406.682 365.145L405.938 365.573L380.683 380.141C376.498 382.559 370.165 382.816 366.54 380.725L340 365.421L339.96 365.396L336.828 363.594C336.545 363.431 336.294 363.264 336.058 363.075C335.039 362.292 334.487 361.353 334.393 360.36V359.747C334.451 359.069 334.716 358.38 335.195 357.709C335.768 356.894 336.661 356.11 337.84 355.429L340 354.185L365.255 339.618C369.447 337.21 375.776 336.942 379.398 339.034L405.938 354.345L409.11 356.172C409.829 356.585 410.398 357.071 410.801 357.586C411.309 358.242 411.563 358.967 411.563 359.711L411.56 359.714Z" fill="url(#paint36_linear_4092_26566)"/>
<path style="mix-blend-mode:multiply" d="M260.643 175.981L227.207 155.294L276.988 137.032L300.901 153.1" fill="url(#paint37_linear_4092_26566)"/>
<path d="M276.987 130.676V137.028C276.987 138.627 275.815 140.327 273.525 141.643L271.366 142.887L246.11 157.454C241.926 159.873 235.593 160.13 231.968 158.038L205.427 142.727L202.256 140.9C200.492 139.881 199.69 138.493 199.82 137.06V131.321C199.918 132.315 200.466 133.254 201.486 134.037C201.722 134.222 201.972 134.392 202.256 134.555L205.387 136.357L205.427 136.382L231.968 151.686C235.593 153.778 241.93 153.521 246.11 151.102L271.366 136.535L272.11 136.107L273.525 135.291C274.222 134.896 274.814 134.457 275.296 133.997C276.421 132.953 276.987 131.8 276.987 130.676Z" fill="#C1C1C1"/>
<path d="M276.987 130.676C276.987 131.8 276.421 132.956 275.296 133.997C274.81 134.457 274.218 134.892 273.525 135.291L272.11 136.107L271.366 136.535L246.11 151.102C241.926 153.52 235.593 153.778 231.968 151.686L205.427 136.382L205.387 136.357L202.255 134.555C201.972 134.392 201.722 134.225 201.486 134.037C200.466 133.254 199.915 132.314 199.82 131.321V130.708C199.878 130.03 200.143 129.342 200.622 128.671C201.196 127.855 202.089 127.072 203.268 126.39L205.427 125.147L230.683 110.579C234.875 108.172 241.204 107.903 244.826 109.995L271.366 125.306L274.538 127.134C275.256 127.547 275.826 128.033 276.229 128.548C276.737 129.204 276.991 129.929 276.991 130.672L276.987 130.676Z" fill="url(#paint38_linear_4092_26566)"/>
<path d="M276.987 119.922V126.274C276.987 127.873 275.815 129.574 273.525 130.89L271.366 132.133L246.11 146.701C241.926 149.119 235.593 149.377 231.968 147.285L205.427 131.974L202.256 130.146C200.492 129.128 199.69 127.739 199.82 126.307V120.568C199.918 121.561 200.466 122.5 201.486 123.283C201.722 123.468 201.972 123.639 202.256 123.802L205.387 125.604L205.427 125.629L231.968 140.933C235.593 143.025 241.93 142.767 246.11 140.349L271.366 125.781L272.11 125.353L273.525 124.538C274.222 124.143 274.814 123.704 275.296 123.243C276.421 122.199 276.987 121.046 276.987 119.922Z" fill="#C1C1C1"/>
<path d="M276.987 119.922C276.987 121.046 276.421 122.203 275.296 123.243C274.81 123.704 274.218 124.139 273.525 124.538L272.11 125.353L271.366 125.781L246.11 140.349C241.926 142.767 235.593 143.024 231.968 140.933L205.427 125.629L205.387 125.604L202.255 123.802C201.972 123.639 201.722 123.472 201.486 123.283C200.466 122.5 199.915 121.561 199.82 120.568V119.955C199.878 119.277 200.143 118.588 200.622 117.917C201.196 117.102 202.089 116.318 203.268 115.637L205.427 114.393L230.683 99.8258C234.875 97.4184 241.204 97.1501 244.826 99.242L271.366 114.553L274.538 116.38C275.256 116.793 275.826 117.279 276.229 117.794C276.737 118.45 276.991 119.175 276.991 119.919L276.987 119.922Z" fill="url(#paint39_linear_4092_26566)"/>
<path d="M276.987 109.169V115.521C276.987 117.12 275.815 118.82 273.525 120.136L271.366 121.38L246.11 135.947C241.926 138.366 235.593 138.623 231.968 136.531L205.427 121.22L202.256 119.393C200.492 118.374 199.69 116.986 199.82 115.554V109.814C199.918 110.808 200.466 111.747 201.486 112.53C201.722 112.715 201.972 112.885 202.256 113.048L205.387 114.85L205.427 114.876L231.968 130.179C235.593 132.271 241.93 132.014 246.11 129.595L271.366 115.028L272.11 114.6L273.525 113.784C274.222 113.389 274.814 112.95 275.296 112.49C276.421 111.446 276.987 110.293 276.987 109.169Z" fill="#C1C1C1"/>
<path d="M276.987 109.169C276.987 110.293 276.421 111.449 275.296 112.49C274.81 112.95 274.218 113.385 273.525 113.784L272.11 114.6L271.366 115.028L246.11 129.595C241.926 132.014 235.593 132.271 231.968 130.179L205.427 114.876L205.387 114.85L202.255 113.048C201.972 112.885 201.722 112.718 201.486 112.53C200.466 111.747 199.915 110.808 199.82 109.814V109.202C199.878 108.524 200.143 107.835 200.622 107.164C201.196 106.348 202.089 105.565 203.268 104.883L205.427 103.64L230.683 89.0723C234.875 86.665 241.204 86.3967 244.826 88.4886L271.366 103.799L274.538 105.627C275.256 106.04 275.826 106.526 276.229 107.041C276.737 107.697 276.991 108.422 276.991 109.165L276.987 109.169Z" fill="url(#paint40_linear_4092_26566)"/>
</g>
<defs>
<linearGradient id="paint0_linear_4092_26566" x1="57.1816" y1="233.193" x2="553.518" y2="233.193" gradientUnits="userSpaceOnUse">
<stop stop-color="#CD8BD8"/>
<stop offset="0.37" stop-color="#6374E0"/>
<stop offset="1" stop-color="#8FC3E6"/>
</linearGradient>
<linearGradient id="paint1_linear_4092_26566" x1="61.4412" y1="367.774" x2="92.8732" y2="405.271" gradientUnits="userSpaceOnUse">
<stop stop-color="#C1C1C1"/>
<stop offset="1" stop-color="#F7F7F7" stop-opacity="0.19"/>
</linearGradient>
<linearGradient id="paint2_linear_4092_26566" x1="35.6924" y1="361.186" x2="114.699" y2="358.593" gradientUnits="userSpaceOnUse">
<stop stop-color="#E9F2FA"/>
<stop offset="1" stop-color="#E2E2E2"/>
</linearGradient>
<linearGradient id="paint3_linear_4092_26566" x1="-0.000567795" y1="347.801" x2="114.699" y2="345.207" gradientUnits="userSpaceOnUse">
<stop stop-color="#E9F2FA"/>
<stop offset="1" stop-color="#E2E2E2"/>
</linearGradient>
<linearGradient id="paint4_linear_4092_26566" x1="25.3202" y1="348.747" x2="81.989" y2="311.91" gradientUnits="userSpaceOnUse">
<stop stop-color="#E9F2FA"/>
<stop offset="1" stop-color="#E2E2E2"/>
</linearGradient>
<linearGradient id="paint5_linear_4092_26566" x1="536.269" y1="109.234" x2="567.701" y2="146.728" gradientUnits="userSpaceOnUse">
<stop stop-color="#C1C1C1"/>
<stop offset="1" stop-color="#F7F7F7" stop-opacity="0.19"/>
</linearGradient>
<linearGradient id="paint6_linear_4092_26566" x1="510.517" y1="102.643" x2="589.527" y2="100.053" gradientUnits="userSpaceOnUse">
<stop stop-color="#E9F2FA"/>
<stop offset="1" stop-color="#E2E2E2"/>
</linearGradient>
<linearGradient id="paint7_linear_4092_26566" x1="510.517" y1="89.2576" x2="589.527" y2="86.6638" gradientUnits="userSpaceOnUse">
<stop stop-color="#E9F2FA"/>
<stop offset="1" stop-color="#E2E2E2"/>
</linearGradient>
<linearGradient id="paint8_linear_4092_26566" x1="500.148" y1="90.2074" x2="556.813" y2="53.3709" gradientUnits="userSpaceOnUse">
<stop stop-color="#E9F2FA"/>
<stop offset="1" stop-color="#E2E2E2"/>
</linearGradient>
<linearGradient id="paint9_linear_4092_26566" x1="542.707" y1="364.75" x2="574.139" y2="402.248" gradientUnits="userSpaceOnUse">
<stop stop-color="#C1C1C1"/>
<stop offset="1" stop-color="#F7F7F7" stop-opacity="0.19"/>
</linearGradient>
<linearGradient id="paint10_linear_4092_26566" x1="516.958" y1="358.163" x2="595.965" y2="355.569" gradientUnits="userSpaceOnUse">
<stop stop-color="#E9F2FA"/>
<stop offset="1" stop-color="#E2E2E2"/>
</linearGradient>
<linearGradient id="paint11_linear_4092_26566" x1="516.958" y1="344.777" x2="595.965" y2="342.183" gradientUnits="userSpaceOnUse">
<stop stop-color="#E9F2FA"/>
<stop offset="1" stop-color="#E2E2E2"/>
</linearGradient>
<linearGradient id="paint12_linear_4092_26566" x1="506.586" y1="345.727" x2="563.255" y2="308.887" gradientUnits="userSpaceOnUse">
<stop stop-color="#E9F2FA"/>
<stop offset="1" stop-color="#E2E2E2"/>
</linearGradient>
<linearGradient id="paint13_linear_4092_26566" x1="321.012" y1="272.987" x2="359.495" y2="318.892" gradientUnits="userSpaceOnUse">
<stop stop-color="#C1C1C1"/>
<stop offset="1" stop-color="#F7F7F7" stop-opacity="0.19"/>
</linearGradient>
<linearGradient id="paint14_linear_4092_26566" x1="289.487" y1="264.92" x2="386.219" y2="261.745" gradientUnits="userSpaceOnUse">
<stop stop-color="#E9F2FA"/>
<stop offset="1" stop-color="#E2E2E2"/>
</linearGradient>
<linearGradient id="paint15_linear_4092_26566" x1="289.487" y1="248.528" x2="386.219" y2="245.353" gradientUnits="userSpaceOnUse">
<stop stop-color="#E9F2FA"/>
<stop offset="1" stop-color="#E2E2E2"/>
</linearGradient>
<linearGradient id="paint16_linear_4092_26566" x1="276.789" y1="249.692" x2="346.17" y2="204.589" gradientUnits="userSpaceOnUse">
<stop stop-color="#E9F2FA"/>
<stop offset="1" stop-color="#E2E2E2"/>
</linearGradient>
<linearGradient id="paint17_linear_4092_26566" x1="114.523" y1="194.044" x2="145.817" y2="231.374" gradientUnits="userSpaceOnUse">
<stop stop-color="#C1C1C1"/>
<stop offset="1" stop-color="#F7F7F7" stop-opacity="0.19"/>
</linearGradient>
<linearGradient id="paint18_linear_4092_26566" x1="88.8859" y1="187.485" x2="167.544" y2="184.903" gradientUnits="userSpaceOnUse">
<stop stop-color="#E9F2FA"/>
<stop offset="1" stop-color="#E2E2E2"/>
</linearGradient>
<linearGradient id="paint19_linear_4092_26566" x1="88.8859" y1="174.157" x2="167.544" y2="171.574" gradientUnits="userSpaceOnUse">
<stop stop-color="#E9F2FA"/>
<stop offset="1" stop-color="#E2E2E2"/>
</linearGradient>
<linearGradient id="paint20_linear_4092_26566" x1="78.5609" y1="175.104" x2="134.979" y2="138.427" gradientUnits="userSpaceOnUse">
<stop stop-color="#E9F2FA"/>
<stop offset="1" stop-color="#E2E2E2"/>
</linearGradient>
<linearGradient id="paint21_linear_4092_26566" x1="210.997" y1="357.825" x2="242.288" y2="395.152" gradientUnits="userSpaceOnUse">
<stop stop-color="#C1C1C1"/>
<stop offset="1" stop-color="#F7F7F7" stop-opacity="0.19"/>
</linearGradient>
<linearGradient id="paint22_linear_4092_26566" x1="185.36" y1="351.263" x2="264.019" y2="348.684" gradientUnits="userSpaceOnUse">
<stop stop-color="#E9F2FA"/>
<stop offset="1" stop-color="#E2E2E2"/>
</linearGradient>
<linearGradient id="paint23_linear_4092_26566" x1="185.36" y1="337.935" x2="264.019" y2="335.356" gradientUnits="userSpaceOnUse">
<stop stop-color="#E9F2FA"/>
<stop offset="1" stop-color="#E2E2E2"/>
</linearGradient>
<linearGradient id="paint24_linear_4092_26566" x1="175.032" y1="338.881" x2="231.45" y2="302.208" gradientUnits="userSpaceOnUse">
<stop stop-color="#E9F2FA"/>
<stop offset="1" stop-color="#E2E2E2"/>
</linearGradient>
<linearGradient id="paint25_linear_4092_26566" x1="509.061" y1="233.015" x2="530.575" y2="258.676" gradientUnits="userSpaceOnUse">
<stop stop-color="#C1C1C1"/>
<stop offset="1" stop-color="#F7F7F7" stop-opacity="0.19"/>
</linearGradient>
<linearGradient id="paint26_linear_4092_26566" x1="491.437" y1="228.505" x2="545.512" y2="226.729" gradientUnits="userSpaceOnUse">
<stop stop-color="#E9F2FA"/>
<stop offset="1" stop-color="#E2E2E2"/>
</linearGradient>
<linearGradient id="paint27_linear_4092_26566" x1="491.437" y1="219.343" x2="545.512" y2="217.566" gradientUnits="userSpaceOnUse">
<stop stop-color="#E9F2FA"/>
<stop offset="1" stop-color="#E2E2E2"/>
</linearGradient>
<linearGradient id="paint28_linear_4092_26566" x1="484.339" y1="219.992" x2="523.122" y2="194.781" gradientUnits="userSpaceOnUse">
<stop stop-color="#E9F2FA"/>
<stop offset="1" stop-color="#E2E2E2"/>
</linearGradient>
<linearGradient id="paint29_linear_4092_26566" x1="404.389" y1="158.89" x2="430.104" y2="189.566" gradientUnits="userSpaceOnUse">
<stop stop-color="#C1C1C1"/>
<stop offset="1" stop-color="#F7F7F7" stop-opacity="0.19"/>
</linearGradient>
<linearGradient id="paint30_linear_4092_26566" x1="383.32" y1="153.499" x2="447.959" y2="151.377" gradientUnits="userSpaceOnUse">
<stop stop-color="#E9F2FA"/>
<stop offset="1" stop-color="#E2E2E2"/>
</linearGradient>
<linearGradient id="paint31_linear_4092_26566" x1="383.32" y1="142.546" x2="447.959" y2="140.425" gradientUnits="userSpaceOnUse">
<stop stop-color="#E9F2FA"/>
<stop offset="1" stop-color="#E2E2E2"/>
</linearGradient>
<linearGradient id="paint32_linear_4092_26566" x1="374.835" y1="143.322" x2="421.196" y2="113.188" gradientUnits="userSpaceOnUse">
<stop stop-color="#E9F2FA"/>
<stop offset="1" stop-color="#E2E2E2"/>
</linearGradient>
<linearGradient id="paint33_linear_4092_26566" x1="383.731" y1="387.004" x2="408.975" y2="417.121" gradientUnits="userSpaceOnUse">
<stop stop-color="#C1C1C1"/>
<stop offset="1" stop-color="#F7F7F7" stop-opacity="0.19"/>
</linearGradient>
<linearGradient id="paint34_linear_4092_26566" x1="363.045" y1="381.711" x2="426.508" y2="379.629" gradientUnits="userSpaceOnUse">
<stop stop-color="#E9F2FA"/>
<stop offset="1" stop-color="#E2E2E2"/>
</linearGradient>
<linearGradient id="paint35_linear_4092_26566" x1="363.045" y1="370.957" x2="426.508" y2="368.876" gradientUnits="userSpaceOnUse">
<stop stop-color="#E9F2FA"/>
<stop offset="1" stop-color="#E2E2E2"/>
</linearGradient>
<linearGradient id="paint36_linear_4092_26566" x1="354.716" y1="371.722" x2="400.232" y2="342.132" gradientUnits="userSpaceOnUse">
<stop stop-color="#E9F2FA"/>
<stop offset="1" stop-color="#E2E2E2"/>
</linearGradient>
<linearGradient id="paint37_linear_4092_26566" x1="249.156" y1="136.463" x2="274.404" y2="166.579" gradientUnits="userSpaceOnUse">
<stop stop-color="#C1C1C1"/>
<stop offset="1" stop-color="#F7F7F7" stop-opacity="0.19"/>
</linearGradient>
<linearGradient id="paint38_linear_4092_26566" x1="228.473" y1="131.169" x2="291.936" y2="129.087" gradientUnits="userSpaceOnUse">
<stop stop-color="#E9F2FA"/>
<stop offset="1" stop-color="#E2E2E2"/>
</linearGradient>
<linearGradient id="paint39_linear_4092_26566" x1="228.473" y1="120.415" x2="291.936" y2="118.334" gradientUnits="userSpaceOnUse">
<stop stop-color="#E9F2FA"/>
<stop offset="1" stop-color="#E2E2E2"/>
</linearGradient>
<linearGradient id="paint40_linear_4092_26566" x1="220.144" y1="121.177" x2="265.659" y2="91.5907" gradientUnits="userSpaceOnUse">
<stop stop-color="#E9F2FA"/>
<stop offset="1" stop-color="#E2E2E2"/>
</linearGradient>
<clipPath id="clip0_4092_26566">
<rect width="662" height="413" fill="white"/>
</clipPath>
</defs>
</svg>
