<svg width="817" height="510" viewBox="0 0 817 510" fill="none" xmlns="http://www.w3.org/2000/svg">
<g opacity="0.25" clip-path="url(#clip0_4092_26566)">
<path d="M469.623 469.929L469.448 469.683L390.346 357.026L273.698 447.768L250.636 412.739L246.847 417.561L246.672 417.588L70.5703 444.146L70.7136 443.51L114.714 245.891L148.051 256.936L135.891 238.463L136.643 238.401L322.894 222.946L303.46 168.459L268.171 180.91L178.834 231.493L178.391 230.713L267.794 180.091L304.002 167.313L323.812 222.865L460.719 211.507L477.17 187.944L477.295 187.894L636.014 124.517L609.284 260.495L650.203 398.936L682.21 394.387L679.245 135.127L605.11 106.917L302.188 136.287L302.103 135.396L605.235 106.008L605.334 106.044L680.14 134.51L683.119 395.162L650.463 399.805L658.086 425.588L657.625 425.696L469.627 469.938L469.623 469.929ZM390.539 355.741L390.808 356.126L470.008 468.918L656.953 424.926L649.563 399.926L628.06 402.983L627.961 402.952L417.153 333.087L418.344 332.644L592.529 267.636L495.135 209.555L461.211 212.371L376.583 333.593L325.984 316.831L251.214 412L273.908 446.474L390.534 355.745L390.539 355.741ZM115.373 247.046L71.7303 443.062L246.363 416.728L250.116 411.951L148.848 258.14L115.373 247.05V247.046ZM150.219 258.592L250.698 411.208L325.084 316.526L150.219 258.592ZM419.853 333.033L628.149 402.066L649.312 399.057L608.366 260.531L608.388 260.424L634.823 125.954L477.757 188.674L461.883 211.408L495.35 208.632L495.475 208.709L594.593 267.815L419.853 333.033ZM326.58 316.074L376.238 332.527L460.06 212.46L324.135 223.738L347.55 289.39L326.585 316.078L326.58 316.074ZM149.426 257.384L325.675 315.774L346.538 289.225L323.212 223.814L137.476 239.224L149.43 257.384H149.426Z" fill="url(#paint0_linear_4092_26566)" stroke="#DBDBDB" stroke-width="2"/>
<path style="mix-blend-mode:multiply" d="M93.474 514.911L42.1055 483.106L118.592 455.03L155.332 479.734" fill="url(#paint1_linear_4092_26566)"/>
<path d="M118.592 445.261V455.03C118.592 457.492 116.792 460.102 113.271 462.126L109.953 464.038L71.1518 486.432C64.7246 490.148 54.9875 490.547 49.4202 487.328L8.63974 463.791L3.76669 460.984C1.05695 459.417 -0.174748 457.282 0.0223237 455.084V446.259C0.170128 447.786 1.01664 449.227 2.58426 450.436C2.94257 450.723 3.33224 450.982 3.76669 451.233L8.57703 454.005L8.63974 454.04L49.4202 477.567C54.9919 480.787 64.7246 480.388 71.1518 476.672L109.953 454.278L111.095 453.619L113.271 452.366C114.342 451.757 115.247 451.085 115.995 450.378C117.723 448.775 118.592 446.998 118.592 445.27V445.261Z" fill="#C1C1C1"/>
<path d="M118.592 445.261C118.592 446.989 117.723 448.766 115.994 450.369C115.246 451.076 114.341 451.748 113.271 452.357L111.094 453.611L109.952 454.269L71.151 476.663C64.7238 480.379 54.9866 480.778 49.4193 477.559L8.6389 454.031L8.57619 453.996L3.76585 451.224C3.3314 450.974 2.94621 450.714 2.58342 450.427C1.0158 449.223 0.169288 447.781 0.0214844 446.25V445.306C0.106584 444.262 0.518643 443.206 1.25318 442.176C2.13553 440.922 3.50159 439.714 5.32003 438.67L8.6389 436.759L47.4397 414.364C53.8803 410.662 63.604 410.25 69.1713 413.469L109.952 437.005L114.825 439.812C115.931 440.448 116.8 441.191 117.423 441.988C118.206 442.995 118.592 444.115 118.592 445.256V445.261Z" fill="url(#paint2_linear_4092_26566)"/>
<path d="M118.592 428.731V438.5C118.592 440.963 116.792 443.573 113.271 445.597L109.953 447.508L71.1518 469.903C64.7246 473.619 54.9875 474.017 49.4202 470.798L8.63974 447.262L3.76669 444.455C1.05695 442.888 -0.174748 440.752 0.0223237 438.554V429.73C0.170128 431.257 1.01664 432.698 2.58426 433.907C2.94257 434.194 3.33224 434.453 3.76669 434.704L8.57703 437.475L8.63974 437.511L49.4202 461.038C54.9919 464.257 64.7246 463.859 71.1518 460.143L109.953 437.748L111.095 437.09L113.271 435.837C114.342 435.228 115.247 434.556 115.995 433.849C117.723 432.246 118.592 430.469 118.592 428.74V428.731Z" fill="#C1C1C1"/>
<path d="M118.592 428.731C118.592 430.46 117.723 432.237 115.994 433.84C115.246 434.547 114.341 435.219 113.271 435.828L111.094 437.081L109.952 437.739L71.151 460.134C64.7238 463.85 54.9866 464.248 49.4193 461.029L8.6389 437.502L8.57619 437.466L3.76585 434.695C3.3314 434.444 2.94621 434.185 2.58342 433.898C1.0158 432.694 0.169288 431.252 0.0214844 429.721V428.776C0.106584 427.733 0.518643 426.676 1.25318 425.647C2.13553 424.393 3.50159 423.184 5.32003 422.141L8.6389 420.229L47.4397 397.835C53.8803 394.132 63.604 393.721 69.1713 396.94L109.952 420.476L114.825 423.283C115.931 423.919 116.8 424.662 117.423 425.459C118.206 426.466 118.592 427.585 118.592 428.727V428.731Z" fill="url(#paint3_linear_4092_26566)"/>
<path d="M118.592 412.197V421.966C118.592 424.429 116.792 427.039 113.271 429.062L109.953 430.974L71.1518 453.369C64.7246 457.085 54.9875 457.483 49.4202 454.264L8.63974 430.728L3.76669 427.921C1.05695 426.354 -0.174748 424.218 0.0223237 422.02V413.196C0.170128 414.722 1.01664 416.164 2.58426 417.373C2.94257 417.659 3.33224 417.919 3.76669 418.17L8.57703 420.941L8.63974 420.977L49.4202 444.504C54.9919 447.723 64.7246 447.325 71.1518 443.609L109.953 421.214L111.095 420.556L113.271 419.302C114.342 418.694 115.247 418.022 115.995 417.315C117.723 415.712 118.592 413.934 118.592 412.206V412.197Z" fill="#C1C1C1"/>
<path d="M118.592 412.197C118.592 413.925 117.723 415.703 115.994 417.306C115.246 418.013 114.341 418.685 113.271 419.293L111.094 420.547L109.952 421.205L71.151 443.6C64.7238 447.316 54.9866 447.714 49.4193 444.495L8.6389 420.968L8.57619 420.932L3.76585 418.161C3.3314 417.91 2.94621 417.65 2.58342 417.364C1.0158 416.159 0.169288 414.718 0.0214844 413.187V412.242C0.106584 411.199 0.518643 410.142 1.25318 409.113C2.13553 407.859 3.50159 406.65 5.32003 405.607L8.6389 403.695L47.4397 381.301C53.8803 377.598 63.604 377.186 69.1713 380.405L109.952 403.941L114.825 406.749C115.931 407.384 116.8 408.128 117.423 408.925C118.206 409.932 118.592 411.051 118.592 412.193V412.197Z" fill="url(#paint4_linear_4092_26566)"/>
<path style="mix-blend-mode:multiply" d="M679.472 195.644L628.104 163.844L704.59 135.763L741.335 160.472" fill="url(#paint5_linear_4092_26566)"/>
<path d="M704.59 125.994V135.763C704.59 138.225 702.79 140.835 699.269 142.859L695.951 144.771L657.15 167.165C650.723 170.881 640.985 171.28 635.418 168.06L594.638 144.524L589.765 141.717C587.055 140.15 585.823 138.015 586.02 135.816V126.992C586.168 128.519 587.015 129.96 588.582 131.169C588.941 131.456 589.33 131.715 589.765 131.966L594.575 134.737L594.638 134.773L635.418 158.3C640.99 161.519 650.723 161.121 657.15 157.405L695.951 135.011L697.093 134.352L699.269 133.099C700.34 132.49 701.245 131.818 701.993 131.111C703.722 129.508 704.59 127.731 704.59 126.003V125.994Z" fill="#C1C1C1"/>
<path d="M704.592 125.994C704.592 127.722 703.723 129.499 701.994 131.102C701.246 131.809 700.341 132.481 699.271 133.09L697.094 134.343L695.952 135.002L657.151 157.396C650.724 161.112 640.987 161.51 635.419 158.291L594.639 134.764L594.576 134.728L589.766 131.957C589.331 131.706 588.946 131.447 588.583 131.16C587.016 129.956 586.169 128.514 586.021 126.983V126.038C586.107 124.995 586.519 123.939 587.253 122.909C588.136 121.655 589.502 120.447 591.32 119.403L594.639 117.492L633.44 95.0972C639.88 91.3946 649.604 90.9827 655.171 94.2018L695.952 117.738L700.825 120.545C701.931 121.181 702.8 121.924 703.423 122.721C704.206 123.728 704.592 124.848 704.592 125.989V125.994Z" fill="url(#paint6_linear_4092_26566)"/>
<path d="M704.59 109.465V119.234C704.59 121.697 702.79 124.307 699.269 126.331L695.951 128.242L657.15 150.637C650.723 154.353 640.985 154.751 635.418 151.532L594.638 127.996L589.765 125.189C587.055 123.622 585.823 121.486 586.02 119.288V110.464C586.168 111.99 587.015 113.432 588.582 114.641C588.941 114.927 589.33 115.187 589.765 115.438L594.575 118.209L594.638 118.245L635.418 141.772C640.99 144.991 650.723 144.593 657.15 140.877L695.951 118.482L697.093 117.824L699.269 116.57C700.34 115.962 701.245 115.29 701.993 114.583C703.722 112.98 704.59 111.202 704.59 109.474V109.465Z" fill="#C1C1C1"/>
<path d="M704.592 109.465C704.592 111.193 703.723 112.97 701.994 114.573C701.246 115.281 700.341 115.952 699.271 116.561L697.094 117.815L695.952 118.473L657.151 140.867C650.724 144.583 640.987 144.982 635.419 141.763L594.639 118.235L594.576 118.2L589.766 115.428C589.331 115.178 588.946 114.918 588.583 114.631C587.016 113.427 586.169 111.985 586.021 110.454V109.51C586.107 108.466 586.519 107.41 587.253 106.38C588.136 105.127 589.502 103.918 591.32 102.875L594.639 100.963L633.44 78.5684C639.88 74.8658 649.604 74.4539 655.171 77.673L695.952 101.209L700.825 104.016C701.931 104.652 702.8 105.395 703.423 106.192C704.206 107.199 704.592 108.319 704.592 109.46V109.465Z" fill="url(#paint7_linear_4092_26566)"/>
<path d="M704.59 92.9351V102.704C704.59 105.166 702.79 107.777 699.269 109.8L695.951 111.712L657.15 134.106C650.723 137.822 640.985 138.221 635.418 135.002L594.638 111.466L589.765 108.659C587.055 107.092 585.823 104.956 586.02 102.758V93.9335C586.168 95.4601 587.015 96.9018 588.582 98.1106C588.941 98.3971 589.33 98.6568 589.765 98.9075L594.575 101.679L594.638 101.715L635.418 125.242C640.99 128.461 650.723 128.062 657.15 124.346L695.951 101.952L697.093 101.294L699.269 100.04C700.34 99.4313 701.245 98.7598 701.993 98.0524C703.722 96.4496 704.59 94.6722 704.59 92.944V92.9351Z" fill="#C1C1C1"/>
<path d="M704.592 92.9351C704.592 94.6632 703.723 96.4406 701.994 98.0434C701.246 98.7508 700.341 99.4224 699.271 100.031L697.094 101.285L695.952 101.943L657.151 124.337C650.724 128.053 640.987 128.452 635.419 125.233L594.639 101.706L594.576 101.67L589.766 98.8986C589.331 98.6478 588.946 98.3882 588.583 98.1016C587.016 96.8973 586.169 95.4557 586.021 93.9245V92.9798C586.107 91.9367 586.519 90.8801 587.253 89.8503C588.136 88.5968 589.502 87.3879 591.32 86.3448L594.639 84.4331L633.44 62.0386C639.88 58.336 649.604 57.9241 655.171 61.1432L695.952 84.6793L700.825 87.4864C701.931 88.1222 702.8 88.8654 703.423 89.6623C704.206 90.6697 704.592 91.7889 704.592 92.9306V92.9351Z" fill="url(#paint8_linear_4092_26566)"/>
<path style="mix-blend-mode:multiply" d="M687.423 511.177L636.055 479.376L712.541 451.295L749.281 476" fill="url(#paint9_linear_4092_26566)"/>
<path d="M712.54 441.527V451.296C712.54 453.758 710.739 456.368 707.219 458.392L703.9 460.304L665.099 482.698C658.672 486.414 648.935 486.813 643.367 483.594L602.587 460.058L597.714 457.25C595.004 455.683 593.773 453.548 593.97 451.35V442.525C594.117 444.052 594.964 445.494 596.532 446.702C596.89 446.989 597.279 447.249 597.714 447.499L602.524 450.271L602.587 450.306L643.367 473.834C648.939 477.053 658.672 476.654 665.099 472.938L703.9 450.544L705.042 449.886L707.219 448.632C708.289 448.023 709.194 447.352 709.942 446.644C711.671 445.041 712.54 443.264 712.54 441.536V441.527Z" fill="#C1C1C1"/>
<path d="M712.541 441.527C712.541 443.255 711.672 445.032 709.943 446.635C709.195 447.343 708.29 448.014 707.22 448.623L705.043 449.877L703.901 450.535L665.1 472.929C658.673 476.645 648.936 477.044 643.369 473.825L602.588 450.297L602.525 450.262L597.715 447.49C597.281 447.24 596.895 446.98 596.533 446.693C594.965 445.489 594.119 444.047 593.971 442.516V441.572C594.056 440.528 594.468 439.472 595.202 438.442C596.085 437.189 597.451 435.98 599.269 434.937L602.588 433.025L641.389 410.63C647.83 406.928 657.553 406.516 663.121 409.735L703.901 433.271L708.774 436.078C709.88 436.714 710.749 437.457 711.372 438.254C712.156 439.261 712.541 440.381 712.541 441.522V441.527Z" fill="url(#paint10_linear_4092_26566)"/>
<path d="M712.54 424.997V434.766C712.54 437.229 710.739 439.839 707.219 441.862L703.9 443.774L665.099 466.168C658.672 469.884 648.935 470.283 643.367 467.064L602.587 443.528L597.714 440.721C595.004 439.154 593.773 437.018 593.97 434.82V425.995C594.117 427.522 594.964 428.964 596.532 430.173C596.89 430.459 597.279 430.719 597.714 430.97L602.524 433.741L602.587 433.777L643.367 457.304C648.939 460.523 658.672 460.124 665.099 456.408L703.9 434.014L705.042 433.356L707.219 432.102C708.289 431.493 709.194 430.822 709.942 430.114C711.671 428.512 712.54 426.734 712.54 425.006V424.997Z" fill="#C1C1C1"/>
<path d="M712.541 424.997C712.541 426.725 711.672 428.503 709.943 430.105C709.195 430.813 708.29 431.484 707.22 432.093L705.043 433.347L703.901 434.005L665.1 456.399C658.673 460.115 648.936 460.514 643.369 457.295L602.588 433.768L602.525 433.732L597.715 430.961C597.281 430.71 596.895 430.45 596.533 430.164C594.965 428.959 594.119 427.518 593.971 425.987V425.042C594.056 423.999 594.468 422.942 595.202 421.912C596.085 420.659 597.451 419.45 599.269 418.407L602.588 416.495L641.389 394.101C647.83 390.398 657.553 389.986 663.121 393.205L703.901 416.741L708.774 419.548C709.88 420.184 710.749 420.927 711.372 421.724C712.156 422.732 712.541 423.851 712.541 424.993V424.997Z" fill="url(#paint11_linear_4092_26566)"/>
<path d="M712.54 408.463V418.232C712.54 420.695 710.739 423.305 707.219 425.329L703.9 427.24L665.099 449.635C658.672 453.351 648.935 453.749 643.367 450.53L602.587 426.994L597.714 424.187C595.004 422.62 593.773 420.484 593.97 418.286V409.462C594.117 410.988 594.964 412.43 596.532 413.639C596.89 413.925 597.279 414.185 597.714 414.436L602.524 417.207L602.587 417.243L643.367 440.77C648.939 443.989 658.672 443.591 665.099 439.875L703.9 417.48L705.042 416.822L707.219 415.569C708.289 414.96 709.194 414.288 709.942 413.581C711.671 411.978 712.54 410.201 712.54 408.472V408.463Z" fill="#C1C1C1"/>
<path d="M712.541 408.463C712.541 410.192 711.672 411.969 709.943 413.572C709.195 414.279 708.29 414.951 707.22 415.56L705.043 416.813L703.901 417.471L665.1 439.866C658.673 443.582 648.936 443.98 643.369 440.761L602.588 417.234L602.525 417.198L597.715 414.427C597.281 414.176 596.895 413.916 596.533 413.63C594.965 412.426 594.119 410.984 593.971 409.453V408.508C594.056 407.465 594.468 406.408 595.202 405.379C596.085 404.125 597.451 402.916 599.269 401.873L602.588 399.961L641.389 377.567C647.83 373.864 657.553 373.452 663.121 376.671L703.901 400.208L708.774 403.015C709.88 403.651 710.749 404.394 711.372 405.191C712.156 406.198 712.541 407.317 712.541 408.459V408.463Z" fill="url(#paint12_linear_4092_26566)"/>
<path style="mix-blend-mode:multiply" d="M417.775 411.485L354.887 372.548L448.527 338.173L493.513 368.42" fill="url(#paint13_linear_4092_26566)"/>
<path d="M448.527 326.214V338.173C448.527 341.186 446.319 344.382 442.011 346.863L437.948 349.204L390.44 376.622C382.571 381.171 370.653 381.659 363.831 377.719L313.905 348.9L307.939 345.461C304.62 343.545 303.115 340.926 303.357 338.235V327.432C303.541 329.304 304.575 331.068 306.492 332.545C306.936 332.894 307.406 333.217 307.939 333.521L313.829 336.915L313.905 336.959L363.831 365.761C370.653 369.7 382.571 369.212 390.44 364.664L437.948 337.246L439.35 336.44L442.015 334.904C443.323 334.157 444.434 333.337 445.347 332.469C447.461 330.508 448.527 328.332 448.527 326.214Z" fill="#C1C1C1"/>
<path d="M448.528 326.215C448.528 328.328 447.462 330.504 445.348 332.469C444.434 333.338 443.323 334.157 442.015 334.905L439.35 336.44L437.949 337.246L390.441 364.664C382.571 369.213 370.653 369.701 363.832 365.761L313.905 336.96L313.829 336.915L307.939 333.521C307.406 333.217 306.936 332.899 306.493 332.545C304.576 331.068 303.541 329.304 303.357 327.432V326.277C303.465 325.001 303.967 323.707 304.862 322.445C305.942 320.909 307.617 319.432 309.838 318.156L313.901 315.814L361.409 288.396C369.291 283.861 381.196 283.36 388.018 287.3L437.944 316.119L443.91 319.557C445.263 320.332 446.329 321.245 447.09 322.221C448.048 323.452 448.519 324.822 448.519 326.223L448.528 326.215Z" fill="url(#paint14_linear_4092_26566)"/>
<path d="M448.527 305.973V317.931C448.527 320.945 446.319 324.141 442.011 326.622L437.948 328.963L390.44 356.381C382.571 360.93 370.653 361.418 363.831 357.478L313.905 328.659L307.939 325.22C304.62 323.304 303.115 320.685 303.357 317.994V307.191C303.541 309.062 304.575 310.826 306.492 312.304C306.936 312.653 307.406 312.975 307.939 313.28L313.829 316.673L313.905 316.718L363.831 345.519C370.653 349.459 382.571 348.971 390.44 344.422L437.948 317.005L439.35 316.199L442.015 314.663C443.323 313.916 444.434 313.096 445.347 312.228C447.461 310.267 448.527 308.091 448.527 305.973Z" fill="#C1C1C1"/>
<path d="M448.528 305.973C448.528 308.087 447.462 310.262 445.348 312.228C444.434 313.096 443.323 313.916 442.015 314.663L439.35 316.199L437.949 317.005L390.441 344.423C382.571 348.971 370.653 349.459 363.832 345.52L313.905 316.718L313.829 316.674L307.939 313.28C307.406 312.975 306.936 312.658 306.493 312.304C304.576 310.826 303.541 309.062 303.357 307.191V306.036C303.465 304.76 303.967 303.466 304.862 302.204C305.942 300.668 307.617 299.191 309.838 297.915L313.901 295.573L361.409 268.155C369.291 263.62 381.196 263.118 388.018 267.058L437.944 295.877L443.91 299.316C445.263 300.09 446.329 301.004 447.09 301.98C448.048 303.211 448.519 304.581 448.519 305.982L448.528 305.973Z" fill="url(#paint15_linear_4092_26566)"/>
<path d="M448.527 285.732V297.69C448.527 300.703 446.319 303.9 442.011 306.38L437.948 308.722L390.44 336.14C382.571 340.688 370.653 341.176 363.831 337.237L313.905 308.417L307.939 304.979C304.62 303.063 303.115 300.444 303.357 297.753V286.95C303.541 288.821 304.575 290.585 306.492 292.063C306.936 292.412 307.406 292.734 307.939 293.039L313.829 296.432L313.905 296.477L363.831 325.278C370.653 329.218 382.571 328.73 390.44 324.181L437.948 296.764L439.35 295.958L442.015 294.422C443.323 293.674 444.434 292.855 445.347 291.986C447.461 290.025 448.527 287.85 448.527 285.732Z" fill="#C1C1C1"/>
<path d="M448.528 285.732C448.528 287.845 447.462 290.021 445.348 291.987C444.434 292.855 443.323 293.674 442.015 294.422L439.35 295.958L437.949 296.764L390.441 324.181C382.571 328.73 370.653 329.218 363.832 325.278L313.905 296.477L313.829 296.432L307.939 293.039C307.406 292.734 306.936 292.416 306.493 292.063C304.576 290.585 303.541 288.821 303.357 286.95V285.795C303.465 284.519 303.967 283.225 304.862 281.962C305.942 280.427 307.617 278.949 309.838 277.673L313.901 275.332L361.409 247.914C369.291 243.379 381.196 242.877 388.018 246.817L437.944 275.636L443.91 279.075C445.263 279.849 446.329 280.763 447.09 281.739C448.048 282.97 448.519 284.34 448.519 285.741L448.528 285.732Z" fill="url(#paint16_linear_4092_26566)"/>
<path style="mix-blend-mode:multiply" d="M158.904 300.108L107.764 268.446L183.914 240.491L220.493 265.088" fill="url(#paint17_linear_4092_26566)"/>
<path d="M183.916 230.767V240.491C183.916 242.94 182.12 245.542 178.618 247.556L175.312 249.463L136.682 271.759C130.281 275.458 120.589 275.856 115.044 272.65L74.4472 249.217L69.5965 246.419C66.9002 244.861 65.673 242.73 65.87 240.541V231.757C66.0178 233.279 66.8599 234.711 68.4185 235.916C68.7769 236.202 69.162 236.462 69.5965 236.708L74.3889 239.466L74.4516 239.502L115.048 262.922C120.593 266.127 130.286 265.729 136.686 262.031L175.317 239.735L176.454 239.081L178.622 237.832C179.688 237.228 180.588 236.556 181.332 235.853C183.052 234.259 183.921 232.486 183.921 230.767H183.916Z" fill="#C1C1C1"/>
<path d="M183.916 230.767C183.916 232.486 183.051 234.255 181.327 235.853C180.583 236.56 179.679 237.228 178.617 237.832L176.449 239.081L175.312 239.735L136.681 262.031C130.281 265.729 120.589 266.127 115.044 262.922L74.4468 239.502L74.3841 239.466L69.5917 236.708C69.1572 236.462 68.7765 236.202 68.4137 235.916C66.8551 234.716 66.013 233.279 65.8652 231.757V230.816C65.9503 229.778 66.3624 228.726 67.0925 227.7C67.9703 226.451 69.3319 225.251 71.1414 224.213L74.4468 222.305L113.077 200.009C119.491 196.32 129.17 195.913 134.715 199.119L175.312 222.552L180.162 225.35C181.264 225.981 182.129 226.724 182.751 227.517C183.531 228.52 183.916 229.634 183.916 230.772V230.767Z" fill="url(#paint18_linear_4092_26566)"/>
<path d="M183.916 214.309V224.033C183.916 226.482 182.12 229.084 178.618 231.098L175.312 233.005L136.682 255.301C130.281 259 120.589 259.398 115.044 256.192L74.4472 232.759L69.5965 229.961C66.9002 228.403 65.673 226.272 65.87 224.083V215.299C66.0178 216.821 66.8599 218.253 68.4185 219.458C68.7769 219.744 69.162 220.004 69.5965 220.25L74.3889 223.008L74.4516 223.044L115.048 246.464C120.593 249.669 130.286 249.271 136.686 245.573L175.317 223.277L176.454 222.623L178.622 221.374C179.688 220.77 180.588 220.098 181.332 219.395C183.052 217.801 183.921 216.028 183.921 214.309H183.916Z" fill="#C1C1C1"/>
<path d="M183.916 214.309C183.916 216.028 183.051 217.797 181.327 219.395C180.583 220.102 179.679 220.77 178.617 221.374L176.449 222.623L175.312 223.277L136.681 245.573C130.281 249.271 120.589 249.669 115.044 246.464L74.4468 223.044L74.3841 223.008L69.5917 220.25C69.1572 220.004 68.7765 219.744 68.4137 219.458C66.8551 218.258 66.013 216.821 65.8652 215.299V214.358C65.9503 213.32 66.3624 212.268 67.0925 211.242C67.9703 209.993 69.3319 208.793 71.1414 207.755L74.4468 205.847L113.077 183.551C119.491 179.862 129.17 179.455 134.715 182.66L175.312 206.094L180.162 208.892C181.264 209.523 182.129 210.266 182.751 211.059C183.531 212.062 183.916 213.176 183.916 214.314V214.309Z" fill="url(#paint19_linear_4092_26566)"/>
<path d="M183.916 197.852V207.576C183.916 210.025 182.12 212.626 178.618 214.641L175.312 216.548L136.682 238.844C130.281 242.542 120.589 242.94 115.044 239.735L74.4472 216.302L69.5965 213.504C66.9002 211.945 65.673 209.814 65.87 207.625V198.841C66.0178 200.363 66.8599 201.796 68.4185 203C68.7769 203.287 69.162 203.546 69.5965 203.793L74.3889 206.551L74.4516 206.586L115.048 230.006C120.593 233.212 130.286 232.813 136.686 229.115L175.317 206.819L176.454 206.166L178.622 204.916C179.688 204.312 180.588 203.64 181.332 202.938C183.052 201.344 183.921 199.571 183.921 197.852H183.916Z" fill="#C1C1C1"/>
<path d="M183.916 197.852C183.916 199.571 183.051 201.339 181.327 202.938C180.583 203.645 179.679 204.312 178.617 204.916L176.449 206.166L175.312 206.819L136.681 229.115C130.281 232.813 120.589 233.212 115.044 230.006L74.4468 206.586L74.3841 206.551L69.5917 203.793C69.1572 203.546 68.7765 203.287 68.4137 203C66.8551 201.8 66.013 200.363 65.8652 198.841V197.901C65.9503 196.862 66.3624 195.81 67.0925 194.785C67.9703 193.536 69.3319 192.336 71.1414 191.297L74.4468 189.39L113.077 167.094C119.491 163.405 129.17 162.997 134.715 166.203L175.312 189.636L180.162 192.434C181.264 193.066 182.129 193.809 182.751 194.601C183.531 195.604 183.916 196.719 183.916 197.856V197.852Z" fill="url(#paint20_linear_4092_26566)"/>
<path style="mix-blend-mode:multiply" d="M277.965 502.352L226.82 470.69L302.971 442.735L339.55 467.333" fill="url(#paint21_linear_4092_26566)"/>
<path d="M302.973 433.011V442.735C302.973 445.184 301.177 447.785 297.674 449.8L294.369 451.707L255.738 474.003C249.338 477.701 239.645 478.1 234.101 474.894L193.504 451.461L188.653 448.663C185.957 447.105 184.73 444.974 184.927 442.784V434C185.074 435.522 185.917 436.955 187.475 438.159C187.833 438.446 188.219 438.706 188.653 438.952L193.446 441.71L193.508 441.746L234.105 465.165C239.65 468.371 249.342 467.972 255.743 464.274L294.373 441.978L295.511 441.325L297.679 440.076C298.745 439.471 299.645 438.8 300.388 438.097C302.108 436.503 302.977 434.73 302.977 433.011H302.973Z" fill="#C1C1C1"/>
<path d="M302.972 433.011C302.972 434.73 302.108 436.498 300.384 438.097C299.64 438.804 298.735 439.471 297.674 440.076L295.506 441.325L294.368 441.978L255.738 464.274C249.337 467.972 239.645 468.371 234.1 465.165L193.503 441.746L193.441 441.71L188.648 438.952C188.214 438.706 187.833 438.446 187.47 438.159C185.912 436.96 185.07 435.522 184.922 434V433.06C185.007 432.021 185.419 430.969 186.149 429.944C187.027 428.695 188.389 427.495 190.198 426.456L193.503 424.549L232.134 402.253C238.548 398.564 248.227 398.157 253.772 401.362L294.368 424.795L299.219 427.593C300.321 428.225 301.185 428.968 301.808 429.76C302.587 430.763 302.972 431.878 302.972 433.015V433.011Z" fill="url(#paint22_linear_4092_26566)"/>
<path d="M302.973 416.553V426.277C302.973 428.726 301.177 431.328 297.674 433.342L294.369 435.25L255.738 457.546C249.338 461.244 239.645 461.642 234.101 458.436L193.504 435.003L188.653 432.205C185.957 430.647 184.73 428.516 184.927 426.327V417.543C185.074 419.065 185.917 420.498 187.475 421.702C187.833 421.988 188.219 422.248 188.653 422.494L193.446 425.252L193.508 425.288L234.105 448.708C239.65 451.913 249.342 451.515 255.743 447.817L294.373 425.521L295.511 424.867L297.679 423.618C298.745 423.014 299.645 422.342 300.388 421.639C302.108 420.045 302.977 418.272 302.977 416.553H302.973Z" fill="#C1C1C1"/>
<path d="M302.972 416.553C302.972 418.272 302.108 420.041 300.384 421.639C299.64 422.347 298.735 423.014 297.674 423.618L295.506 424.867L294.368 425.521L255.738 447.817C249.337 451.515 239.645 451.913 234.1 448.708L193.503 425.288L193.441 425.252L188.648 422.494C188.214 422.248 187.833 421.988 187.47 421.702C185.912 420.502 185.07 419.065 184.922 417.543V416.603C185.007 415.564 185.419 414.512 186.149 413.486C187.027 412.237 188.389 411.037 190.198 409.999L193.503 408.092L232.134 385.796C238.548 382.106 248.227 381.699 253.772 384.905L294.368 408.338L299.219 411.136C300.321 411.767 301.185 412.51 301.808 413.303C302.587 414.306 302.972 415.421 302.972 416.558V416.553Z" fill="url(#paint23_linear_4092_26566)"/>
<path d="M302.973 400.095V409.819C302.973 412.268 301.177 414.87 297.674 416.884L294.369 418.792L255.738 441.088C249.338 444.786 239.645 445.184 234.101 441.978L193.504 418.545L188.653 415.747C185.957 414.189 184.73 412.058 184.927 409.869V401.085C185.074 402.607 185.917 404.04 187.475 405.244C187.833 405.53 188.219 405.79 188.653 406.036L193.446 408.794L193.508 408.83L234.105 432.25C239.65 435.455 249.342 435.057 255.743 431.359L294.373 409.063L295.511 408.409L297.679 407.16C298.745 406.556 299.645 405.884 300.388 405.181C302.108 403.587 302.977 401.814 302.977 400.095H302.973Z" fill="#C1C1C1"/>
<path d="M302.972 400.095C302.972 401.814 302.108 403.583 300.384 405.181C299.64 405.889 298.735 406.556 297.674 407.16L295.506 408.409L294.368 409.063L255.738 431.359C249.337 435.057 239.645 435.455 234.1 432.25L193.503 408.83L193.441 408.794L188.648 406.036C188.214 405.79 187.833 405.53 187.47 405.244C185.912 404.044 185.07 402.607 184.922 401.085V400.145C185.007 399.106 185.419 398.054 186.149 397.028C187.027 395.779 188.389 394.579 190.198 393.541L193.503 391.634L232.134 369.338C238.548 365.648 248.227 365.241 253.772 368.447L294.368 391.88L299.219 394.678C300.321 395.309 301.185 396.052 301.808 396.845C302.587 397.848 302.972 398.963 302.972 400.1V400.095Z" fill="url(#paint24_linear_4092_26566)"/>
<path style="mix-blend-mode:multiply" d="M640.331 329.322L605.172 307.559L657.517 288.338L682.666 305.248" fill="url(#paint25_linear_4092_26566)"/>
<path d="M657.518 281.654V288.339C657.518 290.022 656.286 291.808 653.877 293.196L651.606 294.508L625.051 309.833C620.652 312.376 613.988 312.649 610.176 310.447L582.268 294.338L578.931 292.417C577.077 291.347 576.235 289.883 576.369 288.379V282.339C576.472 283.387 577.05 284.372 578.121 285.196C578.367 285.393 578.631 285.572 578.927 285.742L582.219 287.64L582.259 287.667L610.167 303.767C613.979 305.969 620.643 305.696 625.042 303.153L651.597 287.828L652.381 287.376L653.868 286.516C654.598 286.1 655.22 285.639 655.731 285.155C656.914 284.059 657.509 282.841 657.509 281.659L657.518 281.654Z" fill="#C1C1C1"/>
<path d="M657.519 281.654C657.519 282.836 656.923 284.054 655.741 285.151C655.23 285.634 654.607 286.096 653.877 286.512L652.39 287.372L651.607 287.824L625.051 303.149C620.653 305.692 613.988 305.965 610.177 303.762L582.269 287.663L582.228 287.636L578.936 285.737C578.641 285.567 578.377 285.388 578.13 285.191C577.06 284.367 576.477 283.378 576.379 282.335V281.69C576.437 280.974 576.719 280.253 577.221 279.546C577.826 278.686 578.762 277.862 580.002 277.146L582.273 275.834L608.829 260.509C613.236 257.975 619.891 257.693 623.703 259.896L651.611 276.004L654.948 277.925C655.705 278.359 656.3 278.87 656.726 279.411C657.263 280.101 657.528 280.866 657.528 281.65L657.519 281.654Z" fill="url(#paint26_linear_4092_26566)"/>
<path d="M657.518 270.34V277.024C657.518 278.708 656.286 280.494 653.877 281.882L651.606 283.194L625.051 298.519C620.652 301.062 613.988 301.335 610.176 299.132L582.268 283.023L578.931 281.103C577.077 280.033 576.235 278.569 576.369 277.064V271.025C576.472 272.072 577.05 273.057 578.121 273.881C578.367 274.078 578.631 274.257 578.927 274.427L582.219 276.326L582.259 276.353L610.167 292.452C613.979 294.655 620.643 294.382 625.042 291.839L651.597 276.514L652.381 276.062L653.868 275.202C654.598 274.786 655.22 274.324 655.731 273.841C656.914 272.744 657.509 271.526 657.509 270.344L657.518 270.34Z" fill="#C1C1C1"/>
<path d="M657.519 270.34C657.519 271.522 656.923 272.74 655.741 273.836C655.23 274.32 654.607 274.781 653.877 275.198L652.39 276.057L651.607 276.509L625.051 291.834C620.653 294.377 613.988 294.651 610.177 292.448L582.269 276.348L582.228 276.321L578.936 274.423C578.641 274.253 578.377 274.074 578.13 273.877C577.06 273.053 576.477 272.064 576.379 271.02V270.376C576.437 269.659 576.719 268.939 577.221 268.231C577.826 267.372 578.762 266.548 580.002 265.831L582.273 264.52L608.829 249.195C613.236 246.66 619.891 246.378 623.703 248.581L651.611 264.69L654.948 266.61C655.705 267.045 656.3 267.555 656.726 268.097C657.263 268.786 657.528 269.552 657.528 270.335L657.519 270.34Z" fill="url(#paint27_linear_4092_26566)"/>
<path d="M657.518 259.027V265.711C657.518 267.395 656.286 269.181 653.877 270.569L651.606 271.881L625.051 287.206C620.652 289.749 613.988 290.022 610.176 287.819L582.268 271.71L578.931 269.79C577.077 268.72 576.235 267.256 576.369 265.751V259.712C576.472 260.759 577.05 261.744 578.121 262.568C578.367 262.765 578.631 262.944 578.927 263.114L582.219 265.013L582.259 265.04L610.167 281.139C613.979 283.342 620.643 283.069 625.042 280.526L651.597 265.201L652.381 264.749L653.868 263.889C654.598 263.473 655.22 263.011 655.731 262.528C656.914 261.431 657.509 260.213 657.509 259.031L657.518 259.027Z" fill="#C1C1C1"/>
<path d="M657.519 259.027C657.519 260.209 656.923 261.427 655.741 262.523C655.23 263.007 654.607 263.468 653.877 263.885L652.39 264.744L651.607 265.196L625.051 280.521C620.653 283.064 613.988 283.338 610.177 281.135L582.269 265.035L582.228 265.008L578.936 263.11C578.641 262.94 578.377 262.761 578.13 262.564C577.06 261.74 576.477 260.751 576.379 259.707V259.063C576.437 258.346 576.719 257.626 577.221 256.918C577.826 256.059 578.762 255.235 580.002 254.518L582.273 253.207L608.829 237.882C613.236 235.347 619.891 235.065 623.703 237.268L651.611 253.377L654.948 255.297C655.705 255.732 656.3 256.242 656.726 256.784C657.263 257.473 657.528 258.239 657.528 259.022L657.519 259.027Z" fill="url(#paint28_linear_4092_26566)"/>
<path style="mix-blend-mode:multiply" d="M513.506 245.913L471.48 219.897L534.055 196.925L564.113 217.134" fill="url(#paint29_linear_4092_26566)"/>
<path d="M534.055 188.933V196.924C534.055 198.939 532.581 201.075 529.701 202.731L526.987 204.298L495.24 222.618C489.982 225.658 482.019 225.985 477.459 223.353L444.096 204.097L440.11 201.8C437.892 200.519 436.885 198.769 437.046 196.969V189.752C437.167 191.001 437.861 192.183 439.142 193.168C439.438 193.401 439.751 193.616 440.11 193.817L444.046 196.083L444.096 196.114L477.459 215.361C482.014 217.993 489.982 217.671 495.24 214.627L526.987 196.306L527.923 195.769L529.701 194.744C530.575 194.247 531.318 193.696 531.927 193.119C533.342 191.807 534.055 190.352 534.055 188.942V188.933Z" fill="#C1C1C1"/>
<path d="M534.056 188.933C534.056 190.348 533.343 191.798 531.928 193.11C531.319 193.688 530.575 194.238 529.702 194.735L527.924 195.761L526.988 196.298L495.241 214.618C489.983 217.658 482.02 217.985 477.46 215.352L444.097 196.105L444.047 196.074L440.11 193.809C439.757 193.607 439.439 193.392 439.143 193.159C437.862 192.175 437.168 190.993 437.047 189.743V188.969C437.119 188.114 437.454 187.25 438.055 186.408C438.776 185.383 439.895 184.393 441.382 183.543L444.097 181.976L475.843 163.655C481.11 160.624 489.065 160.289 493.624 162.921L526.988 182.177L530.974 184.474C531.879 184.993 532.591 185.602 533.101 186.251C533.742 187.075 534.056 187.988 534.056 188.924V188.933Z" fill="url(#paint30_linear_4092_26566)"/>
<path d="M534.055 175.408V183.399C534.055 185.414 532.581 187.55 529.701 189.206L526.987 190.773L495.24 209.093C489.982 212.133 482.019 212.46 477.459 209.828L444.096 190.572L440.11 188.275C437.892 186.994 436.885 185.244 437.046 183.444V176.227C437.167 177.476 437.861 178.658 439.142 179.643C439.438 179.876 439.751 180.091 440.11 180.292L444.046 182.558L444.096 182.589L477.459 201.836C482.014 204.469 489.982 204.146 495.24 201.102L526.987 182.782L527.923 182.244L529.701 181.219C530.575 180.722 531.318 180.171 531.927 179.594C533.342 178.282 534.055 176.827 534.055 175.417V175.408Z" fill="#C1C1C1"/>
<path d="M534.056 175.408C534.056 176.823 533.343 178.274 531.928 179.585C531.319 180.163 530.575 180.714 529.702 181.211L527.924 182.236L526.988 182.773L495.241 201.093C489.983 204.133 482.02 204.46 477.46 201.828L444.097 182.581L444.047 182.549L440.11 180.284C439.757 180.082 439.439 179.867 439.143 179.635C437.862 178.65 437.168 177.468 437.047 176.219V175.444C437.119 174.589 437.454 173.725 438.055 172.883C438.776 171.858 439.895 170.868 441.382 170.018L444.097 168.451L475.843 150.13C481.11 147.099 489.065 146.764 493.624 149.396L526.988 168.652L530.974 170.949C531.879 171.468 532.591 172.077 533.101 172.726C533.742 173.55 534.056 174.464 534.056 175.399V175.408Z" fill="url(#paint31_linear_4092_26566)"/>
<path d="M534.055 161.882V169.874C534.055 171.889 532.581 174.024 529.701 175.681L526.987 177.248L495.24 195.568C489.982 198.608 482.019 198.935 477.459 196.302L444.096 177.046L440.11 174.75C437.892 173.469 436.885 171.719 437.046 169.919V162.702C437.167 163.951 437.861 165.133 439.142 166.118C439.438 166.35 439.751 166.565 440.11 166.767L444.046 169.032L444.096 169.064L477.459 188.311C482.014 190.943 489.982 190.621 495.24 187.576L526.987 169.256L527.923 168.719L529.701 167.694C530.575 167.197 531.318 166.646 531.927 166.068C533.342 164.757 534.055 163.302 534.055 161.891V161.882Z" fill="#C1C1C1"/>
<path d="M534.056 161.883C534.056 163.298 533.343 164.748 531.928 166.06C531.319 166.637 530.575 167.188 529.702 167.685L527.924 168.71L526.988 169.248L495.241 187.568C489.983 190.608 482.02 190.935 477.46 188.302L444.097 169.055L444.047 169.024L440.11 166.758C439.757 166.557 439.439 166.342 439.143 166.109C437.862 165.124 437.168 163.942 437.047 162.693V161.919C437.119 161.063 437.454 160.199 438.055 159.358C438.776 158.332 439.895 157.343 441.382 156.492L444.097 154.925L475.843 136.605C481.11 133.574 489.065 133.238 493.624 135.871L526.988 155.127L530.974 157.424C531.879 157.943 532.591 158.552 533.101 159.201C533.742 160.025 534.056 160.938 534.056 161.874V161.883Z" fill="url(#paint32_linear_4092_26566)"/>
<path style="mix-blend-mode:multiply" d="M487.75 526.699L446.49 501.157L507.923 478.602L537.439 498.449" fill="url(#paint33_linear_4092_26566)"/>
<path d="M507.922 470.753V478.597C507.922 480.571 506.475 482.671 503.649 484.296L500.984 485.832L469.815 503.821C464.651 506.807 456.835 507.125 452.361 504.542L419.607 485.635L415.692 483.378C413.515 482.12 412.526 480.406 412.687 478.637V471.55C412.808 472.777 413.484 473.936 414.743 474.903C415.034 475.132 415.343 475.342 415.692 475.543L419.557 477.769L419.607 477.8L452.361 496.698C456.835 499.281 464.656 498.963 469.815 495.977L500.984 477.988L501.902 477.46L503.649 476.452C504.509 475.964 505.239 475.423 505.835 474.854C507.223 473.565 507.922 472.141 507.922 470.753Z" fill="#C1C1C1"/>
<path d="M507.922 470.753C507.922 472.141 507.224 473.569 505.835 474.854C505.235 475.422 504.505 475.96 503.65 476.452L501.903 477.459L500.985 477.988L469.816 495.977C464.652 498.963 456.836 499.281 452.362 496.698L419.607 477.8L419.558 477.768L415.693 475.543C415.343 475.342 415.034 475.136 414.743 474.903C413.485 473.936 412.804 472.776 412.688 471.55V470.793C412.759 469.956 413.086 469.105 413.677 468.277C414.385 467.27 415.487 466.303 416.942 465.461L419.607 463.925L450.776 445.936C455.949 442.963 463.76 442.632 468.23 445.215L500.985 464.122L504.899 466.379C505.786 466.889 506.489 467.489 506.986 468.125C507.613 468.935 507.927 469.83 507.927 470.748L507.922 470.753Z" fill="url(#paint34_linear_4092_26566)"/>
<path d="M507.922 457.479V465.322C507.922 467.297 506.475 469.397 503.649 471.022L500.984 472.557L469.815 490.546C464.651 493.533 456.835 493.851 452.361 491.267L419.607 472.36L415.692 470.104C413.515 468.846 412.526 467.131 412.687 465.363V458.275C412.808 459.502 413.484 460.662 414.743 461.629C415.034 461.857 415.343 462.068 415.692 462.269L419.557 464.494L419.607 464.525L452.361 483.423C456.835 486.007 464.656 485.689 469.815 482.703L500.984 464.714L501.902 464.185L503.649 463.178C504.509 462.69 505.239 462.148 505.835 461.58C507.223 460.29 507.922 458.866 507.922 457.479Z" fill="#C1C1C1"/>
<path d="M507.922 457.478C507.922 458.866 507.224 460.294 505.835 461.579C505.235 462.148 504.505 462.685 503.65 463.178L501.903 464.185L500.985 464.713L469.816 482.702C464.652 485.689 456.836 486.006 452.362 483.423L419.607 464.525L419.558 464.494L415.693 462.269C415.343 462.067 415.034 461.861 414.743 461.629C413.485 460.662 412.804 459.502 412.688 458.275V457.519C412.759 456.681 413.086 455.831 413.677 455.003C414.385 453.995 415.487 453.028 416.942 452.186L419.607 450.651L450.776 432.662C455.949 429.689 463.76 429.358 468.23 431.941L500.985 450.848L504.899 453.104C505.786 453.615 506.489 454.215 506.986 454.85C507.613 455.661 507.927 456.556 507.927 457.474L507.922 457.478Z" fill="url(#paint35_linear_4092_26566)"/>
<path d="M507.922 444.2V452.044C507.922 454.018 506.475 456.118 503.649 457.743L500.984 459.279L469.815 477.268C464.651 480.254 456.835 480.572 452.361 477.988L419.607 459.082L415.692 456.825C413.515 455.567 412.526 453.852 412.687 452.084V444.997C412.808 446.223 413.484 447.383 414.743 448.35C415.034 448.578 415.343 448.789 415.692 448.99L419.557 451.215L419.607 451.247L452.361 470.145C456.835 472.728 464.656 472.41 469.815 469.424L500.984 451.435L501.902 450.906L503.649 449.899C504.509 449.411 505.239 448.869 505.835 448.301C507.223 447.011 507.922 445.588 507.922 444.2Z" fill="#C1C1C1"/>
<path d="M507.922 444.2C507.922 445.587 507.224 447.016 505.835 448.301C505.235 448.869 504.505 449.406 503.65 449.899L501.903 450.906L500.985 451.435L469.816 469.424C464.652 472.41 456.836 472.728 452.362 470.144L419.607 451.247L419.558 451.215L415.693 448.99C415.343 448.789 415.034 448.583 414.743 448.35C413.485 447.383 412.804 446.223 412.688 444.996V444.24C412.759 443.403 413.086 442.552 413.677 441.724C414.385 440.716 415.487 439.749 416.942 438.908L419.607 437.372L450.776 419.383C455.949 416.41 463.76 416.079 468.23 418.662L500.985 437.569L504.899 439.825C505.786 440.336 506.489 440.936 506.986 441.572C507.613 442.382 507.927 443.277 507.927 444.195L507.922 444.2Z" fill="url(#paint36_linear_4092_26566)"/>
<path style="mix-blend-mode:multiply" d="M321.667 217.313L280.402 191.767L341.839 169.216L371.351 189.058" fill="url(#paint37_linear_4092_26566)"/>
<path d="M341.84 161.367V169.211C341.84 171.185 340.393 173.285 337.567 174.91L334.902 176.446L303.733 194.435C298.569 197.421 290.753 197.739 286.279 195.156L253.525 176.249L249.61 173.993C247.433 172.735 246.444 171.02 246.605 169.251V162.164C246.726 163.391 247.402 164.55 248.661 165.517C248.952 165.746 249.261 165.956 249.61 166.158L253.475 168.383L253.525 168.414L286.279 187.312C290.753 189.895 298.574 189.577 303.733 186.591L334.902 168.602L335.82 168.074L337.567 167.067C338.427 166.579 339.157 166.037 339.753 165.468C341.141 164.179 341.84 162.755 341.84 161.367Z" fill="#C1C1C1"/>
<path d="M341.84 161.367C341.84 162.755 341.142 164.183 339.753 165.468C339.153 166.037 338.423 166.574 337.568 167.066L335.821 168.074L334.903 168.602L303.734 186.591C298.57 189.577 290.754 189.895 286.28 187.312L253.525 168.414L253.476 168.383L249.611 166.158C249.261 165.956 248.952 165.75 248.661 165.517C247.403 164.55 246.722 163.391 246.605 162.164V161.407C246.677 160.57 247.004 159.719 247.595 158.891C248.303 157.884 249.405 156.917 250.86 156.075L253.525 154.539L284.694 136.55C289.867 133.578 297.678 133.246 302.148 135.83L334.903 154.736L338.817 156.993C339.704 157.503 340.407 158.103 340.904 158.739C341.531 159.549 341.845 160.445 341.845 161.363L341.84 161.367Z" fill="url(#paint38_linear_4092_26566)"/>
<path d="M341.84 148.088V155.932C341.84 157.907 340.393 160.006 337.567 161.632L334.902 163.167L303.733 181.156C298.569 184.142 290.753 184.46 286.279 181.877L253.525 162.97L249.61 160.714C247.433 159.456 246.444 157.741 246.605 155.973V148.885C246.726 150.112 247.402 151.272 248.661 152.239C248.952 152.467 249.261 152.677 249.61 152.879L253.475 155.104L253.525 155.135L286.279 174.033C290.753 176.616 298.574 176.299 303.733 173.312L334.902 155.323L335.82 154.795L337.567 153.788C338.427 153.3 339.157 152.758 339.753 152.189C341.141 150.9 341.84 149.476 341.84 148.088Z" fill="#C1C1C1"/>
<path d="M341.84 148.088C341.84 149.476 341.142 150.904 339.753 152.189C339.153 152.758 338.423 153.295 337.568 153.788L335.821 154.795L334.903 155.323L303.734 173.312C298.57 176.298 290.754 176.616 286.28 174.033L253.525 155.135L253.476 155.104L249.611 152.879C249.261 152.677 248.952 152.471 248.661 152.239C247.403 151.271 246.722 150.112 246.605 148.885V148.129C246.677 147.291 247.004 146.441 247.595 145.612C248.303 144.605 249.405 143.638 250.86 142.796L253.525 141.261L284.694 123.272C289.867 120.299 297.678 119.968 302.148 122.551L334.903 141.458L338.817 143.714C339.704 144.225 340.407 144.824 340.904 145.46C341.531 146.271 341.845 147.166 341.845 148.084L341.84 148.088Z" fill="url(#paint39_linear_4092_26566)"/>
<path d="M341.84 134.809V142.653C341.84 144.627 340.393 146.727 337.567 148.352L334.902 149.888L303.733 167.877C298.569 170.863 290.753 171.181 286.279 168.598L253.525 149.691L249.61 147.435C247.433 146.176 246.444 144.462 246.605 142.693V135.606C246.726 136.833 247.402 137.992 248.661 138.959C248.952 139.188 249.261 139.398 249.61 139.6L253.475 141.825L253.525 141.856L286.279 160.754C290.753 163.337 298.574 163.019 303.733 160.033L334.902 142.044L335.82 141.516L337.567 140.508C338.427 140.02 339.157 139.479 339.753 138.91C341.141 137.621 341.84 136.197 341.84 134.809Z" fill="#C1C1C1"/>
<path d="M341.84 134.809C341.84 136.197 341.142 137.625 339.753 138.91C339.153 139.479 338.423 140.016 337.568 140.508L335.821 141.516L334.903 142.044L303.734 160.033C298.57 163.019 290.754 163.337 286.28 160.754L253.525 141.856L253.476 141.825L249.611 139.599C249.261 139.398 248.952 139.192 248.661 138.959C247.403 137.992 246.722 136.833 246.605 135.606V134.849C246.677 134.012 247.004 133.161 247.595 132.333C248.303 131.326 249.405 130.359 250.86 129.517L253.525 127.981L284.694 109.992C289.867 107.02 297.678 106.688 302.148 109.272L334.903 128.178L338.817 130.435C339.704 130.945 340.407 131.545 340.904 132.181C341.531 132.991 341.845 133.887 341.845 134.804L341.84 134.809Z" fill="url(#paint40_linear_4092_26566)"/>
</g>
<defs>
<linearGradient id="paint0_linear_4092_26566" x1="70.5703" y1="287.962" x2="683.119" y2="287.962" gradientUnits="userSpaceOnUse">
<stop stop-color="#CD8BD8"/>
<stop offset="0.37" stop-color="#6374E0"/>
<stop offset="1" stop-color="#8FC3E6"/>
</linearGradient>
<linearGradient id="paint1_linear_4092_26566" x1="75.8271" y1="454.152" x2="114.645" y2="500.434" gradientUnits="userSpaceOnUse">
<stop stop-color="#C1C1C1"/>
<stop offset="1" stop-color="#F7F7F7" stop-opacity="0.19"/>
</linearGradient>
<linearGradient id="paint2_linear_4092_26566" x1="44.0491" y1="446.017" x2="141.555" y2="442.818" gradientUnits="userSpaceOnUse">
<stop stop-color="#E9F2FA"/>
<stop offset="1" stop-color="#E2E2E2"/>
</linearGradient>
<linearGradient id="paint3_linear_4092_26566" x1="-0.000910212" y1="429.488" x2="141.555" y2="426.289" gradientUnits="userSpaceOnUse">
<stop stop-color="#E9F2FA"/>
<stop offset="1" stop-color="#E2E2E2"/>
</linearGradient>
<linearGradient id="paint4_linear_4092_26566" x1="31.2484" y1="430.656" x2="101.21" y2="385.206" gradientUnits="userSpaceOnUse">
<stop stop-color="#E9F2FA"/>
<stop offset="1" stop-color="#E2E2E2"/>
</linearGradient>
<linearGradient id="paint5_linear_4092_26566" x1="661.83" y1="134.89" x2="700.648" y2="181.167" gradientUnits="userSpaceOnUse">
<stop stop-color="#C1C1C1"/>
<stop offset="1" stop-color="#F7F7F7" stop-opacity="0.19"/>
</linearGradient>
<linearGradient id="paint6_linear_4092_26566" x1="630.049" y1="126.75" x2="727.559" y2="123.556" gradientUnits="userSpaceOnUse">
<stop stop-color="#E9F2FA"/>
<stop offset="1" stop-color="#E2E2E2"/>
</linearGradient>
<linearGradient id="paint7_linear_4092_26566" x1="630.049" y1="110.221" x2="727.559" y2="107.022" gradientUnits="userSpaceOnUse">
<stop stop-color="#E9F2FA"/>
<stop offset="1" stop-color="#E2E2E2"/>
</linearGradient>
<linearGradient id="paint8_linear_4092_26566" x1="617.253" y1="111.394" x2="687.21" y2="65.9437" gradientUnits="userSpaceOnUse">
<stop stop-color="#E9F2FA"/>
<stop offset="1" stop-color="#E2E2E2"/>
</linearGradient>
<linearGradient id="paint9_linear_4092_26566" x1="669.776" y1="450.418" x2="708.595" y2="496.7" gradientUnits="userSpaceOnUse">
<stop stop-color="#C1C1C1"/>
<stop offset="1" stop-color="#F7F7F7" stop-opacity="0.19"/>
</linearGradient>
<linearGradient id="paint10_linear_4092_26566" x1="637.998" y1="442.283" x2="735.504" y2="439.084" gradientUnits="userSpaceOnUse">
<stop stop-color="#E9F2FA"/>
<stop offset="1" stop-color="#E2E2E2"/>
</linearGradient>
<linearGradient id="paint11_linear_4092_26566" x1="637.998" y1="425.754" x2="735.504" y2="422.554" gradientUnits="userSpaceOnUse">
<stop stop-color="#E9F2FA"/>
<stop offset="1" stop-color="#E2E2E2"/>
</linearGradient>
<linearGradient id="paint12_linear_4092_26566" x1="625.198" y1="426.927" x2="695.159" y2="381.472" gradientUnits="userSpaceOnUse">
<stop stop-color="#E9F2FA"/>
<stop offset="1" stop-color="#E2E2E2"/>
</linearGradient>
<linearGradient id="paint13_linear_4092_26566" x1="396.173" y1="337.103" x2="443.699" y2="393.761" gradientUnits="userSpaceOnUse">
<stop stop-color="#C1C1C1"/>
<stop offset="1" stop-color="#F7F7F7" stop-opacity="0.19"/>
</linearGradient>
<linearGradient id="paint14_linear_4092_26566" x1="357.266" y1="327.141" x2="476.646" y2="323.225" gradientUnits="userSpaceOnUse">
<stop stop-color="#E9F2FA"/>
<stop offset="1" stop-color="#E2E2E2"/>
</linearGradient>
<linearGradient id="paint15_linear_4092_26566" x1="357.266" y1="306.9" x2="476.646" y2="302.984" gradientUnits="userSpaceOnUse">
<stop stop-color="#E9F2FA"/>
<stop offset="1" stop-color="#E2E2E2"/>
</linearGradient>
<linearGradient id="paint16_linear_4092_26566" x1="341.594" y1="308.337" x2="427.25" y2="252.686" gradientUnits="userSpaceOnUse">
<stop stop-color="#E9F2FA"/>
<stop offset="1" stop-color="#E2E2E2"/>
</linearGradient>
<linearGradient id="paint17_linear_4092_26566" x1="141.338" y1="239.618" x2="179.986" y2="285.694" gradientUnits="userSpaceOnUse">
<stop stop-color="#C1C1C1"/>
<stop offset="1" stop-color="#F7F7F7" stop-opacity="0.19"/>
</linearGradient>
<linearGradient id="paint18_linear_4092_26566" x1="109.7" y1="231.519" x2="206.776" y2="228.334" gradientUnits="userSpaceOnUse">
<stop stop-color="#E9F2FA"/>
<stop offset="1" stop-color="#E2E2E2"/>
</linearGradient>
<linearGradient id="paint19_linear_4092_26566" x1="109.7" y1="215.061" x2="206.776" y2="211.875" gradientUnits="userSpaceOnUse">
<stop stop-color="#E9F2FA"/>
<stop offset="1" stop-color="#E2E2E2"/>
</linearGradient>
<linearGradient id="paint20_linear_4092_26566" x1="96.9578" y1="216.23" x2="166.611" y2="170.977" gradientUnits="userSpaceOnUse">
<stop stop-color="#E9F2FA"/>
<stop offset="1" stop-color="#E2E2E2"/>
</linearGradient>
<linearGradient id="paint21_linear_4092_26566" x1="260.399" y1="441.867" x2="299.042" y2="487.938" gradientUnits="userSpaceOnUse">
<stop stop-color="#C1C1C1"/>
<stop offset="1" stop-color="#F7F7F7" stop-opacity="0.19"/>
</linearGradient>
<linearGradient id="paint22_linear_4092_26566" x1="228.761" y1="433.763" x2="325.837" y2="430.582" gradientUnits="userSpaceOnUse">
<stop stop-color="#E9F2FA"/>
<stop offset="1" stop-color="#E2E2E2"/>
</linearGradient>
<linearGradient id="paint23_linear_4092_26566" x1="228.761" y1="417.305" x2="325.837" y2="414.124" gradientUnits="userSpaceOnUse">
<stop stop-color="#E9F2FA"/>
<stop offset="1" stop-color="#E2E2E2"/>
</linearGradient>
<linearGradient id="paint24_linear_4092_26566" x1="216.014" y1="418.474" x2="285.667" y2="373.225" gradientUnits="userSpaceOnUse">
<stop stop-color="#E9F2FA"/>
<stop offset="1" stop-color="#E2E2E2"/>
</linearGradient>
<linearGradient id="paint25_linear_4092_26566" x1="628.252" y1="287.743" x2="654.821" y2="319.416" gradientUnits="userSpaceOnUse">
<stop stop-color="#C1C1C1"/>
<stop offset="1" stop-color="#F7F7F7" stop-opacity="0.19"/>
</linearGradient>
<linearGradient id="paint26_linear_4092_26566" x1="606.504" y1="282.174" x2="673.24" y2="279.983" gradientUnits="userSpaceOnUse">
<stop stop-color="#E9F2FA"/>
<stop offset="1" stop-color="#E2E2E2"/>
</linearGradient>
<linearGradient id="paint27_linear_4092_26566" x1="606.504" y1="270.859" x2="673.24" y2="268.668" gradientUnits="userSpaceOnUse">
<stop stop-color="#E9F2FA"/>
<stop offset="1" stop-color="#E2E2E2"/>
</linearGradient>
<linearGradient id="paint28_linear_4092_26566" x1="597.743" y1="271.661" x2="645.625" y2="240.555" gradientUnits="userSpaceOnUse">
<stop stop-color="#E9F2FA"/>
<stop offset="1" stop-color="#E2E2E2"/>
</linearGradient>
<linearGradient id="paint29_linear_4092_26566" x1="499.071" y1="196.208" x2="530.829" y2="234.07" gradientUnits="userSpaceOnUse">
<stop stop-color="#C1C1C1"/>
<stop offset="1" stop-color="#F7F7F7" stop-opacity="0.19"/>
</linearGradient>
<linearGradient id="paint30_linear_4092_26566" x1="473.071" y1="189.551" x2="552.844" y2="186.934" gradientUnits="userSpaceOnUse">
<stop stop-color="#E9F2FA"/>
<stop offset="1" stop-color="#E2E2E2"/>
</linearGradient>
<linearGradient id="paint31_linear_4092_26566" x1="473.071" y1="176.026" x2="552.844" y2="173.409" gradientUnits="userSpaceOnUse">
<stop stop-color="#E9F2FA"/>
<stop offset="1" stop-color="#E2E2E2"/>
</linearGradient>
<linearGradient id="paint32_linear_4092_26566" x1="462.599" y1="176.984" x2="519.835" y2="139.803" gradientUnits="userSpaceOnUse">
<stop stop-color="#E9F2FA"/>
<stop offset="1" stop-color="#E2E2E2"/>
</linearGradient>
<linearGradient id="paint33_linear_4092_26566" x1="473.579" y1="477.899" x2="504.755" y2="515.071" gradientUnits="userSpaceOnUse">
<stop stop-color="#C1C1C1"/>
<stop offset="1" stop-color="#F7F7F7" stop-opacity="0.19"/>
</linearGradient>
<linearGradient id="paint34_linear_4092_26566" x1="448.048" y1="471.362" x2="526.371" y2="468.794" gradientUnits="userSpaceOnUse">
<stop stop-color="#E9F2FA"/>
<stop offset="1" stop-color="#E2E2E2"/>
</linearGradient>
<linearGradient id="paint35_linear_4092_26566" x1="448.048" y1="458.083" x2="526.371" y2="455.515" gradientUnits="userSpaceOnUse">
<stop stop-color="#E9F2FA"/>
<stop offset="1" stop-color="#E2E2E2"/>
</linearGradient>
<linearGradient id="paint36_linear_4092_26566" x1="437.769" y1="459.028" x2="493.962" y2="422.519" gradientUnits="userSpaceOnUse">
<stop stop-color="#E9F2FA"/>
<stop offset="1" stop-color="#E2E2E2"/>
</linearGradient>
<linearGradient id="paint37_linear_4092_26566" x1="307.491" y1="168.513" x2="338.672" y2="205.685" gradientUnits="userSpaceOnUse">
<stop stop-color="#C1C1C1"/>
<stop offset="1" stop-color="#F7F7F7" stop-opacity="0.19"/>
</linearGradient>
<linearGradient id="paint38_linear_4092_26566" x1="281.966" y1="161.976" x2="360.289" y2="159.408" gradientUnits="userSpaceOnUse">
<stop stop-color="#E9F2FA"/>
<stop offset="1" stop-color="#E2E2E2"/>
</linearGradient>
<linearGradient id="paint39_linear_4092_26566" x1="281.966" y1="148.697" x2="360.289" y2="146.13" gradientUnits="userSpaceOnUse">
<stop stop-color="#E9F2FA"/>
<stop offset="1" stop-color="#E2E2E2"/>
</linearGradient>
<linearGradient id="paint40_linear_4092_26566" x1="271.687" y1="149.637" x2="327.88" y2="113.133" gradientUnits="userSpaceOnUse">
<stop stop-color="#E9F2FA"/>
<stop offset="1" stop-color="#E2E2E2"/>
</linearGradient>
<clipPath id="clip0_4092_26566">
<rect width="817" height="510" fill="white"/>
</clipPath>
</defs>
</svg>
