<svg width="52" height="50" viewBox="0 0 52 50" fill="none" xmlns="http://www.w3.org/2000/svg">
<g clip-path="url(#clip0_4013_63431)">
<path d="M4.72012 34.93C3.97328 34.93 3.24321 35.1515 2.62224 35.5664C2.00128 35.9813 1.5173 36.5711 1.23152 37.2611C0.945743 37.9511 0.870995 38.7103 1.01674 39.4428C1.16248 40.1753 1.52216 40.8481 2.05029 41.3762C2.57842 41.9042 3.25129 42.2638 3.9838 42.4094C4.7163 42.5551 5.47554 42.4802 6.1655 42.1943C6.85546 41.9085 7.44515 41.4244 7.85999 40.8034C8.27484 40.1824 8.4962 39.4523 8.49609 38.7054C8.49482 37.7044 8.09656 36.7448 7.38869 36.037C6.68082 35.3292 5.72113 34.9311 4.72012 34.93ZM4.72012 40.5939C4.34671 40.5939 3.98169 40.4832 3.67121 40.2758C3.36073 40.0683 3.11874 39.7734 2.97585 39.4285C2.83295 39.0835 2.79556 38.7039 2.86841 38.3376C2.94126 37.9714 3.12107 37.635 3.38511 37.3709C3.64915 37.1069 3.98556 36.9271 4.3518 36.8542C4.71803 36.7814 5.09764 36.8188 5.44262 36.9617C5.78761 37.1046 6.08247 37.3466 6.28993 37.657C6.49738 37.9675 6.6081 38.3325 6.6081 38.706C6.60739 39.2064 6.40824 39.6862 6.05431 40.04C5.70038 40.3938 5.22058 40.5928 4.72012 40.5934L4.72012 40.5939Z" fill="url(#paint0_linear_4013_63431)"/>
<path d="M44.072 31.5117C43.9409 31.5112 43.8111 31.5381 43.6909 31.5907C43.5708 31.6433 43.463 31.7204 43.3744 31.8171C43.034 32.1904 42.6217 32.4911 42.1621 32.7009C41.7025 32.9108 41.2052 33.0254 40.7002 33.038C40.45 33.0451 40.2129 33.1513 40.0409 33.3331C39.869 33.5149 39.7762 33.7576 39.783 34.0077C39.7846 34.1323 39.8112 34.2552 39.8612 34.3693C39.9113 34.4834 39.9837 34.5863 40.0743 34.6718C40.1648 34.7573 40.2716 34.8238 40.3884 34.8673C40.5051 34.9108 40.6294 34.9304 40.7538 34.9249C41.5114 34.906 42.2573 34.734 42.9467 34.4193C43.636 34.1045 44.2545 33.6534 44.7649 33.0932C44.889 32.9581 44.9711 32.7897 45.001 32.6087C45.031 32.4276 45.0075 32.2417 44.9335 32.0738C44.8594 31.9059 44.7381 31.7632 44.5842 31.6632C44.4304 31.5632 44.2507 31.5101 44.0672 31.5106L44.072 31.5117Z" fill="url(#paint1_linear_4013_63431)"/>
<path d="M37.668 26.8757C37.9865 26.4832 38.381 26.1593 38.828 25.9234C39.2749 25.6875 39.765 25.5444 40.2687 25.5029C40.5115 25.4828 40.7372 25.3695 40.8985 25.1868C41.0598 25.0041 41.1441 24.7661 41.1339 24.5226C41.1237 24.2791 41.0198 24.049 40.8438 23.8804C40.6678 23.7118 40.4335 23.6178 40.1898 23.6181C40.1629 23.6181 40.1361 23.6181 40.1087 23.6213C39.3545 23.6878 38.621 23.904 37.9513 24.2573C37.2816 24.6106 36.689 25.0939 36.2083 25.6789C36.1256 25.7742 36.0629 25.8852 36.0239 26.0051C35.9849 26.1251 35.9703 26.2517 35.981 26.3774C35.9917 26.5031 36.0275 26.6254 36.0863 26.737C36.1451 26.8487 36.2256 26.9474 36.3232 27.0274C36.4208 27.1073 36.5334 27.1669 36.6544 27.2026C36.7755 27.2383 36.9024 27.2494 37.0278 27.2352C37.1531 27.221 37.2744 27.1818 37.3843 27.12C37.4943 27.0581 37.5908 26.9749 37.668 26.8751L37.668 26.8757Z" fill="url(#paint2_linear_4013_63431)"/>
<path d="M37.98 33.3086C38.1544 33.1291 38.2504 32.8877 38.247 32.6374C38.2436 32.3872 38.141 32.1485 37.9617 31.9739C37.5981 31.6229 37.3092 31.2021 37.1124 30.7366C36.9156 30.2712 36.8149 29.7707 36.8165 29.2653C36.8165 29.015 36.717 28.7749 36.54 28.5978C36.3629 28.4208 36.1228 28.3213 35.8725 28.3213C35.6221 28.3213 35.382 28.4208 35.205 28.5978C35.0279 28.7749 34.9285 29.015 34.9285 29.2653C34.926 30.0232 35.0769 30.7738 35.3721 31.4718C35.6672 32.1699 36.1005 32.8011 36.6458 33.3273C36.8253 33.5019 37.0668 33.5981 37.3172 33.5946C37.5676 33.5912 37.8064 33.4885 37.981 33.3091L37.98 33.3086Z" fill="url(#paint3_linear_4013_63431)"/>
<path d="M44.3639 29.0488C44.3693 29.1737 44.3995 29.2963 44.4528 29.4094C44.506 29.5226 44.5811 29.624 44.6739 29.7079C44.7666 29.7917 44.875 29.8563 44.993 29.8979C45.1109 29.9395 45.2358 29.9572 45.3607 29.9501C45.4855 29.943 45.6076 29.9112 45.7201 29.8565C45.8325 29.8018 45.9329 29.7253 46.0155 29.6315C46.0981 29.5376 46.1613 29.4283 46.2013 29.3099C46.2413 29.1914 46.2574 29.0662 46.2487 28.9415C46.208 28.1852 46.0147 27.4449 45.6804 26.7652C45.346 26.0856 44.8776 25.4806 44.3032 24.9868C44.1141 24.8228 43.8675 24.7406 43.6178 24.7584C43.368 24.7761 43.1355 24.8924 42.9715 25.0815C42.8075 25.2707 42.7253 25.5173 42.7431 25.767C42.7608 26.0168 42.8771 26.2492 43.0662 26.4133C43.4492 26.7426 43.7615 27.146 43.9846 27.5992C44.2076 28.0524 44.3366 28.5461 44.3639 29.0504L44.3639 29.0488Z" fill="url(#paint4_linear_4013_63431)"/>
<path d="M0.943926 23.601L11.886 23.601L27.0328 49.5648C27.1227 49.6988 27.2441 49.8085 27.3864 49.8844C27.5287 49.9603 27.6875 50 27.8488 50C28.0101 50 28.1689 49.9603 28.3112 49.8844C28.4535 49.8085 28.575 49.6988 28.6648 49.5648L35.3028 38.1843C36.48 38.8908 37.7858 39.3565 39.1444 39.5545C40.503 39.7525 41.8874 39.6787 43.2173 39.3376C44.5472 38.9964 45.7961 38.3947 46.8916 37.5671C47.9871 36.7396 48.9075 35.7029 49.5993 34.5169C50.291 33.331 50.7405 32.0196 50.9216 30.6586C51.1026 29.2977 51.0117 27.9143 50.654 26.5888C50.2964 25.2632 49.6791 24.0219 48.838 22.9367C47.997 21.8516 46.9488 20.9442 45.7544 20.2672L51.7935 9.91602C51.8771 9.77251 51.9214 9.6095 51.9219 9.44342C51.9224 9.27734 51.8791 9.11406 51.7964 8.97005C51.7136 8.82604 51.5944 8.70639 51.4507 8.62316C51.3069 8.53993 51.1438 8.49607 50.9777 8.49601L27.8475 8.496C27.5971 8.496 27.357 8.59546 27.18 8.77249C27.0029 8.94953 26.9035 9.18963 26.9035 9.44C26.9035 9.69036 27.0029 9.93047 27.18 10.1075C27.357 10.2845 27.5971 10.384 27.8475 10.384L49.3334 10.384L44.029 19.4767C41.7542 18.6734 39.2705 18.6886 37.0057 19.5195C34.7409 20.3504 32.8368 21.9451 31.6212 24.0289C30.4057 26.1128 29.9549 28.5552 30.3464 30.9357C30.738 33.3161 31.9474 35.4855 33.7664 37.0702L27.8485 47.2132L14.074 23.5999L22.6563 23.5999C22.9067 23.5999 23.1468 23.5004 23.3238 23.3234C23.5009 23.1464 23.6003 22.9063 23.6003 22.6559L23.6003 0.944059C23.6003 0.693696 23.5009 0.453584 23.3238 0.276552C23.1468 0.0995191 22.9067 6.23133e-05 22.6563 6.22914e-05L0.943387 6.03932e-05C0.693024 6.03713e-05 0.452923 0.0995171 0.275891 0.27655C0.0988546 0.453582 -0.000598412 0.693694 -0.000598434 0.944057L-0.000600332 22.6564C-0.000672822 22.7805 0.0236916 22.9033 0.0711007 23.0179C0.11851 23.1324 0.188025 23.2366 0.275691 23.3243C0.363356 23.412 0.467448 23.4816 0.582011 23.5291C0.696577 23.5765 0.819373 23.601 0.943385 23.601L0.943926 23.601ZM32.0968 29.2649C32.0968 27.5845 32.5951 25.9418 33.5287 24.5445C34.4623 23.1473 35.7893 22.0583 37.3418 21.4152C38.8943 20.7721 40.6027 20.6039 42.2509 20.9317C43.899 21.2596 45.4129 22.0688 46.6012 23.257C47.7894 24.4453 48.5987 25.9592 48.9265 27.6074C49.2543 29.2555 49.0861 30.9639 48.443 32.5164C47.7999 34.0689 46.7109 35.3959 45.3137 36.3295C43.9164 37.2631 42.2737 37.7614 40.5933 37.7614C38.3406 37.759 36.1809 36.8631 34.588 35.2702C32.9951 33.6773 32.0992 31.5176 32.0968 29.2649ZM1.88792 1.88805L21.7123 1.88805L21.7123 21.7125L1.88792 21.7124L1.88792 1.88805Z" fill="url(#paint5_linear_4013_63431)"/>
<path d="M10.8567 44.7164C10.6453 44.7164 10.4386 44.7791 10.2628 44.8966C10.087 45.0141 9.95 45.181 9.86908 45.3764C9.78817 45.5717 9.767 45.7866 9.80825 45.994C9.8495 46.2014 9.95131 46.3919 10.1008 46.5414C10.2503 46.6909 10.4408 46.7927 10.6482 46.834C10.8556 46.8752 11.0705 46.854 11.2658 46.7731C11.4612 46.6922 11.6282 46.5552 11.7456 46.3794C11.8631 46.2036 11.9258 45.9969 11.9258 45.7855C11.9258 45.5019 11.8132 45.23 11.6127 45.0295C11.4122 44.829 11.1403 44.7164 10.8567 44.7164Z" fill="url(#paint6_linear_4013_63431)"/>
</g>
<defs>
<linearGradient id="paint0_linear_4013_63431" x1="4.72012" y1="42.4819" x2="4.72012" y2="34.93" gradientUnits="userSpaceOnUse">
<stop stop-color="#DA88DE"/>
<stop offset="1" stop-color="#5E75E8"/>
</linearGradient>
<linearGradient id="paint1_linear_4013_63431" x1="42.3982" y1="34.9258" x2="42.3982" y2="31.5106" gradientUnits="userSpaceOnUse">
<stop stop-color="#DA88DE"/>
<stop offset="1" stop-color="#5E75E8"/>
</linearGradient>
<linearGradient id="paint2_linear_4013_63431" x1="38.5562" y1="27.2412" x2="38.5562" y2="23.6181" gradientUnits="userSpaceOnUse">
<stop stop-color="#DA88DE"/>
<stop offset="1" stop-color="#5E75E8"/>
</linearGradient>
<linearGradient id="paint3_linear_4013_63431" x1="36.5878" y1="33.5947" x2="36.5878" y2="28.3213" gradientUnits="userSpaceOnUse">
<stop stop-color="#DA88DE"/>
<stop offset="1" stop-color="#5E75E8"/>
</linearGradient>
<linearGradient id="paint4_linear_4013_63431" x1="44.4958" y1="29.9517" x2="44.4958" y2="24.756" gradientUnits="userSpaceOnUse">
<stop stop-color="#DA88DE"/>
<stop offset="1" stop-color="#5E75E8"/>
</linearGradient>
<linearGradient id="paint5_linear_4013_63431" x1="25.9606" y1="50" x2="25.9606" y2="6.25802e-05" gradientUnits="userSpaceOnUse">
<stop stop-color="#DA88DE"/>
<stop offset="1" stop-color="#5E75E8"/>
</linearGradient>
<linearGradient id="paint6_linear_4013_63431" x1="10.8567" y1="46.8545" x2="10.8567" y2="44.7164" gradientUnits="userSpaceOnUse">
<stop stop-color="#DA88DE"/>
<stop offset="1" stop-color="#5E75E8"/>
</linearGradient>
<clipPath id="clip0_4013_63431">
<rect width="51.9218" height="50" fill="white" transform="translate(51.9219 50) rotate(-180)"/>
</clipPath>
</defs>
</svg>
