<svg width="619" height="387" viewBox="0 0 619 387" fill="none" xmlns="http://www.w3.org/2000/svg">
<path opacity="0.42" d="M148.02 142.62L221.74 100.86L251.23 90.4503L286.96 190.66L204.11 296.15L59.3701 317.99L95.5801 155.3L311.19 226.76L389.31 114.82L394.54 107.31L524.84 55.2603L502.9 166.89L543.07 302.85L388.24 339.3L322.76 246.01L226.55 320.89L113.43 149.01L409.21 124.46L490.31 172.85L345.91 226.76L518.81 284.09L563.82 277.69L561.36 63.1602L499.89 39.7603L249.92 64.0103" stroke="#6B51E8" stroke-miterlimit="10"/>
<path style="mix-blend-mode:multiply" d="M77.7899 376.83L35.4199 350.59L98.5099 327.42L128.82 347.81" fill="url(#paint0_linear_4092_26238)"/>
<path d="M98.5102 319.36V327.42C98.5102 329.45 97.0202 331.6 94.1202 333.28L91.3802 334.86L59.3702 353.34C54.0702 356.41 46.0402 356.73 41.4402 354.08L7.80022 334.66L3.78022 332.34C1.54022 331.05 0.530219 329.28 0.690219 327.47V320.19C0.810219 321.45 1.51022 322.64 2.80022 323.64C3.10022 323.88 3.42022 324.09 3.77022 324.3L7.74022 326.59L7.79021 326.62L41.4302 346.03C46.0202 348.69 54.0502 348.36 59.3602 345.29L91.3702 326.81L92.3102 326.27L94.1002 325.23C94.9802 324.73 95.7302 324.17 96.3502 323.59C97.7802 322.27 98.4902 320.8 98.4902 319.37L98.5102 319.36Z" fill="#7375EC"/>
<path d="M98.51 319.36C98.51 320.79 97.7899 322.25 96.3699 323.58C95.7499 324.16 95.0099 324.72 94.1199 325.22L92.3299 326.26L91.39 326.8L59.38 345.28C54.08 348.35 46.0499 348.67 41.45 346.02L7.80995 326.61L7.75995 326.58L3.78995 324.29C3.42995 324.08 3.10996 323.87 2.81996 323.63C1.52996 322.64 0.829961 321.45 0.709961 320.18V319.4C0.779961 318.54 1.11995 317.67 1.72995 316.82C2.45995 315.78 3.58996 314.79 5.07996 313.93L7.81996 312.35L39.83 293.87C45.14 290.81 53.16 290.48 57.7599 293.13L91.3999 312.55L95.42 314.87C96.33 315.39 97.0499 316.01 97.56 316.66C98.21 317.49 98.5199 318.41 98.5199 319.36H98.51Z" fill="url(#paint1_linear_4092_26238)"/>
<path d="M98.5102 305.71V313.77C98.5102 315.8 97.0202 317.95 94.1202 319.63L91.3802 321.21L59.3702 339.69C54.0702 342.76 46.0402 343.08 41.4402 340.43L7.80022 321.01L3.78022 318.69C1.54022 317.4 0.530219 315.63 0.690219 313.82V306.54C0.810219 307.8 1.51022 308.99 2.80022 309.99C3.10022 310.23 3.42022 310.44 3.77022 310.65L7.74022 312.94L7.79021 312.97L41.4302 332.38C46.0202 335.04 54.0502 334.71 59.3602 331.64L91.3702 313.16L92.3102 312.62L94.1002 311.58C94.9802 311.08 95.7302 310.52 96.3502 309.94C97.7802 308.62 98.4902 307.15 98.4902 305.72L98.5102 305.71Z" fill="#7375EC"/>
<path d="M98.51 305.71C98.51 307.14 97.7899 308.6 96.3699 309.93C95.7499 310.51 95.0099 311.07 94.1199 311.57L92.3299 312.61L91.39 313.15L59.38 331.63C54.08 334.7 46.0499 335.02 41.45 332.37L7.80995 312.96L7.75995 312.93L3.78995 310.64C3.42995 310.43 3.10996 310.22 2.81996 309.98C1.52996 308.99 0.829961 307.8 0.709961 306.53V305.75C0.779961 304.89 1.11995 304.02 1.72995 303.17C2.45995 302.13 3.58996 301.14 5.07996 300.28L7.81996 298.7L39.83 280.22C45.14 277.16 53.16 276.83 57.7599 279.48L91.3999 298.9L95.42 301.22C96.33 301.74 97.0499 302.36 97.56 303.01C98.21 303.84 98.5199 304.76 98.5199 305.71H98.51Z" fill="url(#paint2_linear_4092_26238)"/>
<path d="M98.5102 292.07V300.13C98.5102 302.16 97.0202 304.31 94.1202 305.99L91.3802 307.57L59.3702 326.05C54.0702 329.12 46.0402 329.44 41.4402 326.79L7.80022 307.37L3.78022 305.05C1.54022 303.76 0.530219 301.99 0.690219 300.18V292.9C0.810219 294.16 1.51022 295.35 2.80022 296.35C3.10022 296.59 3.42022 296.8 3.77022 297.01L7.74022 299.3L7.79021 299.33L41.4302 318.74C46.0202 321.4 54.0502 321.07 59.3602 318L91.3702 299.52L92.3102 298.98L94.1002 297.94C94.9802 297.44 95.7302 296.88 96.3502 296.3C97.7802 294.98 98.4902 293.51 98.4902 292.08L98.5102 292.07Z" fill="#7375EC"/>
<path d="M98.51 292.07C98.51 293.5 97.7899 294.96 96.3699 296.29C95.7499 296.87 95.0099 297.43 94.1199 297.93L92.3299 298.97L91.39 299.51L59.38 317.99C54.08 321.06 46.0499 321.38 41.45 318.73L7.80995 299.32L7.75995 299.29L3.78995 297C3.42995 296.79 3.10996 296.58 2.81996 296.34C1.52996 295.35 0.829961 294.16 0.709961 292.89V292.11C0.779961 291.25 1.11995 290.38 1.72995 289.53C2.45995 288.49 3.58996 287.5 5.07996 286.64L7.81996 285.06L39.83 266.58C45.14 263.52 53.16 263.19 57.7599 265.84L91.3999 285.26L95.42 287.58C96.33 288.1 97.0499 288.72 97.56 289.37C98.21 290.2 98.5199 291.12 98.5199 292.07H98.51Z" fill="url(#paint3_linear_4092_26238)"/>
<path style="mix-blend-mode:multiply" d="M561.18 113.37L518.81 87.1202L581.9 63.9502L612.21 84.3402" fill="url(#paint4_linear_4092_26238)"/>
<path d="M581.9 55.8901V63.9501C581.9 65.9801 580.41 68.1301 577.51 69.8101L574.77 71.3901L542.76 89.8701C537.46 92.9401 529.43 93.2601 524.83 90.6101L491.19 71.1901L487.17 68.8701C484.93 67.5801 483.92 65.8101 484.08 64.0001V56.7201C484.2 57.9801 484.9 59.1701 486.19 60.1701C486.49 60.4101 486.81 60.6201 487.16 60.8301L491.13 63.1201L491.18 63.1501L524.82 82.5601C529.41 85.2201 537.44 84.8901 542.75 81.8201L574.76 63.3401L575.7 62.8001L577.49 61.7601C578.37 61.2601 579.12 60.7001 579.74 60.1201C581.17 58.8001 581.88 57.3301 581.88 55.9001L581.9 55.8901Z" fill="#7375EC"/>
<path d="M581.9 55.8902C581.9 57.3202 581.18 58.7801 579.76 60.1101C579.14 60.6901 578.4 61.2501 577.51 61.7501L575.72 62.7901L574.78 63.3302L542.77 81.8101C537.47 84.8801 529.44 85.2001 524.84 82.5501L491.2 63.1402L491.15 63.1101L487.18 60.8202C486.82 60.6102 486.5 60.4001 486.21 60.1601C484.92 59.1701 484.22 57.9802 484.1 56.7102V55.9301C484.17 55.0701 484.51 54.2001 485.12 53.3501C485.85 52.3101 486.98 51.3202 488.47 50.4602L491.21 48.8801L523.22 30.4002C528.53 27.3402 536.55 27.0101 541.15 29.6601L574.79 49.0802L578.81 51.4002C579.72 51.9202 580.44 52.5401 580.95 53.1901C581.6 54.0201 581.91 54.9402 581.91 55.8902H581.9Z" fill="url(#paint5_linear_4092_26238)"/>
<path d="M581.9 42.25V50.31C581.9 52.34 580.41 54.49 577.51 56.17L574.77 57.75L542.76 76.23C537.46 79.3 529.43 79.62 524.83 76.97L491.19 57.55L487.17 55.23C484.93 53.94 483.92 52.17 484.08 50.36V43.08C484.2 44.34 484.9 45.53 486.19 46.53C486.49 46.77 486.81 46.98 487.16 47.19L491.13 49.48L491.18 49.51L524.82 68.92C529.41 71.58 537.44 71.25 542.75 68.18L574.76 49.7L575.7 49.16L577.49 48.12C578.37 47.62 579.12 47.06 579.74 46.48C581.17 45.16 581.88 43.69 581.88 42.26L581.9 42.25Z" fill="#7375EC"/>
<path d="M581.9 42.25C581.9 43.68 581.18 45.14 579.76 46.47C579.14 47.05 578.4 47.61 577.51 48.11L575.72 49.15L574.78 49.69L542.77 68.17C537.47 71.24 529.44 71.56 524.84 68.91L491.2 49.5L491.15 49.47L487.18 47.18C486.82 46.97 486.5 46.76 486.21 46.52C484.92 45.53 484.22 44.34 484.1 43.07V42.29C484.17 41.43 484.51 40.56 485.12 39.71C485.85 38.67 486.98 37.68 488.47 36.82L491.21 35.24L523.22 16.76C528.53 13.7 536.55 13.37 541.15 16.02L574.79 35.44L578.81 37.76C579.72 38.28 580.44 38.9 580.95 39.55C581.6 40.38 581.91 41.3 581.91 42.25H581.9Z" fill="url(#paint6_linear_4092_26238)"/>
<path d="M581.9 28.6001V36.6601C581.9 38.6901 580.41 40.8401 577.51 42.5201L574.77 44.1001L542.76 62.5801C537.46 65.6501 529.43 65.9701 524.83 63.3201L491.19 43.9001L487.17 41.5801C484.93 40.2901 483.92 38.5201 484.08 36.7101V29.4301C484.2 30.6901 484.9 31.8801 486.19 32.8801C486.49 33.1201 486.81 33.3301 487.16 33.5401L491.13 35.8301L491.18 35.8601L524.82 55.2701C529.41 57.9301 537.44 57.6002 542.75 54.5302L574.76 36.0501L575.7 35.5101L577.49 34.4701C578.37 33.9701 579.12 33.4101 579.74 32.8301C581.17 31.5101 581.88 30.0401 581.88 28.6101L581.9 28.6001Z" fill="#7375EC"/>
<path d="M581.9 28.6001C581.9 30.0301 581.18 31.4901 579.76 32.8201C579.14 33.4001 578.4 33.9601 577.51 34.4601L575.72 35.5001L574.78 36.0401L542.77 54.5201C537.47 57.5901 529.44 57.9101 524.84 55.2601L491.2 35.8501L491.15 35.8201L487.18 33.5301C486.82 33.3201 486.5 33.1101 486.21 32.8701C484.92 31.8801 484.22 30.6901 484.1 29.4201V28.6401C484.17 27.7801 484.51 26.9101 485.12 26.0601C485.85 25.0201 486.98 24.0301 488.47 23.1701L491.21 21.5901L523.22 3.11009C528.53 0.0500946 536.55 -0.279896 541.15 2.3701L574.79 21.7901L578.81 24.1101C579.72 24.6301 580.44 25.2501 580.95 25.9001C581.6 26.7301 581.91 27.6501 581.91 28.6001H581.9Z" fill="url(#paint7_linear_4092_26238)"/>
<path style="mix-blend-mode:multiply" d="M567.74 373.75L525.37 347.51L588.46 324.34L618.77 344.73" fill="url(#paint8_linear_4092_26238)"/>
<path d="M588.46 316.28V324.34C588.46 326.37 586.97 328.52 584.07 330.2L581.33 331.78L549.32 350.26C544.02 353.33 535.99 353.65 531.39 351L497.75 331.58L493.73 329.26C491.49 327.97 490.48 326.2 490.64 324.39V317.11C490.76 318.37 491.46 319.56 492.75 320.56C493.05 320.8 493.37 321.01 493.72 321.22L497.69 323.51L497.74 323.54L531.38 342.95C535.97 345.61 544 345.28 549.31 342.21L581.32 323.73L582.26 323.19L584.05 322.15C584.93 321.65 585.68 321.09 586.3 320.51C587.73 319.19 588.44 317.72 588.44 316.29L588.46 316.28Z" fill="#7375EC"/>
<path d="M588.46 316.28C588.46 317.71 587.74 319.17 586.32 320.5C585.7 321.08 584.96 321.64 584.07 322.14L582.28 323.18L581.34 323.72L549.33 342.2C544.03 345.27 536 345.59 531.4 342.94L497.76 323.53L497.71 323.5L493.74 321.21C493.38 321 493.06 320.79 492.77 320.55C491.48 319.56 490.78 318.37 490.66 317.1V316.32C490.73 315.46 491.07 314.59 491.68 313.74C492.41 312.7 493.54 311.71 495.03 310.85L497.77 309.27L529.78 290.79C535.09 287.73 543.11 287.4 547.71 290.05L581.35 309.47L585.37 311.79C586.28 312.31 587 312.93 587.51 313.58C588.16 314.41 588.47 315.33 588.47 316.28H588.46Z" fill="url(#paint9_linear_4092_26238)"/>
<path d="M588.46 302.63V310.69C588.46 312.72 586.97 314.87 584.07 316.55L581.33 318.13L549.32 336.61C544.02 339.68 535.99 340 531.39 337.35L497.75 317.93L493.73 315.61C491.49 314.32 490.48 312.55 490.64 310.74V303.46C490.76 304.72 491.46 305.91 492.75 306.91C493.05 307.15 493.37 307.36 493.72 307.57L497.69 309.86L497.74 309.89L531.38 329.3C535.97 331.96 544 331.63 549.31 328.56L581.32 310.08L582.26 309.54L584.05 308.5C584.93 308 585.68 307.44 586.3 306.86C587.73 305.54 588.44 304.07 588.44 302.64L588.46 302.63Z" fill="#7375EC"/>
<path d="M588.46 302.63C588.46 304.06 587.74 305.52 586.32 306.85C585.7 307.43 584.96 307.99 584.07 308.49L582.28 309.53L581.34 310.07L549.33 328.55C544.03 331.62 536 331.94 531.4 329.29L497.76 309.88L497.71 309.85L493.74 307.56C493.38 307.35 493.06 307.14 492.77 306.9C491.48 305.91 490.78 304.72 490.66 303.45V302.67C490.73 301.81 491.07 300.94 491.68 300.09C492.41 299.05 493.54 298.06 495.03 297.2L497.77 295.62L529.78 277.14C535.09 274.08 543.11 273.75 547.71 276.4L581.35 295.82L585.37 298.14C586.28 298.66 587 299.28 587.51 299.93C588.16 300.76 588.47 301.68 588.47 302.63H588.46Z" fill="url(#paint10_linear_4092_26238)"/>
<path d="M588.46 288.99V297.05C588.46 299.08 586.97 301.23 584.07 302.91L581.33 304.49L549.32 322.97C544.02 326.04 535.99 326.36 531.39 323.71L497.75 304.29L493.73 301.97C491.49 300.68 490.48 298.91 490.64 297.1V289.82C490.76 291.08 491.46 292.27 492.75 293.27C493.05 293.51 493.37 293.72 493.72 293.93L497.69 296.22L497.74 296.25L531.38 315.66C535.97 318.32 544 317.99 549.31 314.92L581.32 296.44L582.26 295.9L584.05 294.86C584.93 294.36 585.68 293.8 586.3 293.22C587.73 291.9 588.44 290.43 588.44 289L588.46 288.99Z" fill="#7375EC"/>
<path d="M588.46 288.99C588.46 290.42 587.74 291.88 586.32 293.21C585.7 293.79 584.96 294.35 584.07 294.85L582.28 295.89L581.34 296.43L549.33 314.91C544.03 317.98 536 318.3 531.4 315.65L497.76 296.24L497.71 296.21L493.74 293.92C493.38 293.71 493.06 293.5 492.77 293.26C491.48 292.27 490.78 291.08 490.66 289.81V289.03C490.73 288.17 491.07 287.3 491.68 286.45C492.41 285.41 493.54 284.42 495.03 283.56L497.77 281.98L529.78 263.5C535.09 260.44 543.11 260.11 547.71 262.76L581.35 282.18L585.37 284.5C586.28 285.02 587 285.64 587.51 286.29C588.16 287.12 588.47 288.04 588.47 288.99H588.46Z" fill="url(#paint11_linear_4092_26238)"/>
<path style="mix-blend-mode:multiply" d="M345.31 291.49L293.43 259.35L370.68 230.98L407.78 255.95" fill="url(#paint12_linear_4092_26238)"/>
<path d="M370.68 221.11V230.98C370.68 233.47 368.86 236.1 365.31 238.15L361.96 240.08L322.77 262.71C316.28 266.46 306.45 266.87 300.82 263.61L259.64 239.83L254.72 236.99C251.98 235.41 250.74 233.25 250.94 231.03V222.12C251.09 223.66 251.94 225.12 253.53 226.34C253.89 226.63 254.28 226.89 254.72 227.14L259.58 229.94L259.64 229.98L300.82 253.75C306.45 257 316.28 256.6 322.77 252.85L361.96 230.22L363.12 229.55L365.32 228.28C366.4 227.66 367.32 226.99 368.07 226.27C369.82 224.65 370.69 222.85 370.69 221.11H370.68Z" fill="#7375EC"/>
<path d="M370.68 221.11C370.68 222.86 369.8 224.65 368.06 226.27C367.31 226.99 366.39 227.66 365.31 228.28L363.11 229.55L361.95 230.22L322.76 252.85C316.27 256.6 306.44 257.01 300.81 253.75L259.63 229.98L259.57 229.94L254.71 227.14C254.27 226.89 253.88 226.63 253.52 226.34C251.94 225.12 251.08 223.67 250.93 222.12V221.17C251.02 220.12 251.43 219.05 252.17 218.01C253.06 216.74 254.44 215.52 256.28 214.47L259.63 212.54L298.82 189.91C305.32 186.17 315.14 185.75 320.77 189.01L361.95 212.79L366.87 215.63C367.99 216.27 368.87 217.02 369.49 217.83C370.28 218.85 370.67 219.98 370.67 221.13L370.68 221.11Z" fill="url(#paint13_linear_4092_26238)"/>
<path d="M370.68 204.41V214.28C370.68 216.77 368.86 219.4 365.31 221.45L361.96 223.38L322.77 246.01C316.28 249.76 306.45 250.17 300.82 246.91L259.64 223.13L254.72 220.29C251.98 218.71 250.74 216.55 250.94 214.33V205.42C251.09 206.96 251.94 208.42 253.53 209.64C253.89 209.93 254.28 210.19 254.72 210.44L259.58 213.24L259.64 213.28L300.82 237.05C306.45 240.3 316.28 239.9 322.77 236.15L361.96 213.52L363.12 212.85L365.32 211.58C366.4 210.96 367.32 210.29 368.07 209.57C369.82 207.95 370.69 206.15 370.69 204.41H370.68Z" fill="#7375EC"/>
<path d="M370.68 204.41C370.68 206.16 369.8 207.95 368.06 209.57C367.31 210.29 366.39 210.96 365.31 211.58L363.11 212.85L361.95 213.52L322.76 236.15C316.27 239.9 306.44 240.31 300.81 237.05L259.63 213.28L259.57 213.24L254.71 210.44C254.27 210.19 253.88 209.93 253.52 209.64C251.94 208.42 251.08 206.97 250.93 205.42V204.47C251.02 203.42 251.43 202.35 252.17 201.31C253.06 200.04 254.44 198.82 256.28 197.77L259.63 195.84L298.82 173.21C305.32 169.47 315.14 169.05 320.77 172.31L361.95 196.09L366.87 198.93C367.99 199.57 368.87 200.32 369.49 201.13C370.28 202.15 370.67 203.28 370.67 204.43L370.68 204.41Z" fill="url(#paint14_linear_4092_26238)"/>
<path d="M370.68 187.71V197.58C370.68 200.07 368.86 202.7 365.31 204.75L361.96 206.68L322.77 229.31C316.28 233.06 306.45 233.47 300.82 230.21L259.64 206.43L254.72 203.59C251.98 202.01 250.74 199.85 250.94 197.63V188.72C251.09 190.26 251.94 191.72 253.53 192.94C253.89 193.23 254.28 193.49 254.72 193.74L259.58 196.54L259.64 196.58L300.82 220.35C306.45 223.6 316.28 223.2 322.77 219.45L361.96 196.82L363.12 196.15L365.32 194.88C366.4 194.26 367.32 193.59 368.07 192.87C369.82 191.25 370.69 189.45 370.69 187.71H370.68Z" fill="#7375EC"/>
<path d="M370.68 187.71C370.68 189.46 369.8 191.25 368.06 192.87C367.31 193.59 366.39 194.26 365.31 194.88L363.11 196.15L361.95 196.82L322.76 219.45C316.27 223.2 306.44 223.61 300.81 220.35L259.63 196.58L259.57 196.54L254.71 193.74C254.27 193.49 253.88 193.23 253.52 192.94C251.94 191.72 251.08 190.27 250.93 188.72V187.77C251.02 186.72 251.43 185.65 252.17 184.61C253.06 183.34 254.44 182.12 256.28 181.07L259.63 179.14L298.82 156.51C305.32 152.77 315.14 152.35 320.77 155.61L361.95 179.39L366.87 182.23C367.99 182.87 368.87 183.62 369.49 184.43C370.28 185.45 370.67 186.58 370.67 187.73L370.68 187.71Z" fill="url(#paint15_linear_4092_26238)"/>
<path style="mix-blend-mode:multiply" d="M131.77 199.57L89.5801 173.44L152.39 150.37L182.57 170.67" fill="url(#paint16_linear_4092_26238)"/>
<path d="M152.391 142.35V150.38C152.391 152.4 150.911 154.55 148.021 156.21L145.291 157.78L113.421 176.18C108.141 179.23 100.151 179.56 95.5706 176.92L62.0805 157.58L58.0805 155.27C55.8505 153.98 54.8405 152.23 55.0105 150.42V143.17C55.1305 144.43 55.8305 145.61 57.1105 146.6C57.4105 146.83 57.7205 147.05 58.0805 147.25L62.0305 149.53L62.0805 149.56L95.5706 168.89C100.141 171.53 108.141 171.21 113.421 168.15L145.291 149.75L146.231 149.21L148.021 148.18C148.901 147.68 149.641 147.13 150.261 146.55C151.681 145.23 152.391 143.77 152.391 142.35Z" fill="#7375EC"/>
<path d="M152.391 142.35C152.391 143.77 151.681 145.23 150.261 146.55C149.651 147.13 148.901 147.68 148.021 148.18L146.231 149.21L145.291 149.75L113.421 168.15C108.141 171.2 100.151 171.53 95.5708 168.89L62.0807 149.56L62.0307 149.53L58.0807 147.25C57.7207 147.05 57.4107 146.83 57.1107 146.6C55.8207 145.61 55.1307 144.43 55.0107 143.17V142.39C55.0807 141.53 55.4208 140.66 56.0208 139.82C56.7408 138.79 57.8707 137.8 59.3607 136.94L62.0907 135.37L93.9607 116.97C99.2507 113.93 107.231 113.59 111.811 116.23L145.301 135.57L149.301 137.88C150.211 138.4 150.921 139.01 151.431 139.67C152.071 140.5 152.391 141.42 152.391 142.36V142.35Z" fill="url(#paint17_linear_4092_26238)"/>
<path d="M152.391 128.77V136.8C152.391 138.82 150.911 140.97 148.021 142.63L145.291 144.2L113.421 162.6C108.141 165.65 100.151 165.98 95.5706 163.34L62.0805 144L58.0805 141.69C55.8505 140.4 54.8405 138.65 55.0105 136.84V129.59C55.1305 130.85 55.8305 132.03 57.1105 133.02C57.4105 133.25 57.7205 133.47 58.0805 133.67L62.0305 135.95L62.0805 135.98L95.5706 155.31C100.141 157.95 108.141 157.63 113.421 154.57L145.291 136.17L146.231 135.63L148.021 134.6C148.901 134.1 149.641 133.55 150.261 132.97C151.681 131.65 152.391 130.19 152.391 128.77Z" fill="#7375EC"/>
<path d="M152.391 128.77C152.391 130.19 151.681 131.65 150.261 132.97C149.651 133.55 148.901 134.1 148.021 134.6L146.231 135.63L145.291 136.17L113.421 154.57C108.141 157.62 100.151 157.95 95.5708 155.31L62.0807 135.98L62.0307 135.95L58.0807 133.67C57.7207 133.47 57.4107 133.25 57.1107 133.02C55.8207 132.03 55.1307 130.85 55.0107 129.59V128.81C55.0807 127.95 55.4208 127.08 56.0208 126.24C56.7408 125.21 57.8707 124.22 59.3607 123.36L62.0907 121.79L93.9607 103.39C99.2507 100.35 107.231 100.01 111.811 102.65L145.301 121.99L149.301 124.3C150.211 124.82 150.921 125.43 151.431 126.09C152.071 126.92 152.391 127.84 152.391 128.78V128.77Z" fill="url(#paint18_linear_4092_26238)"/>
<path d="M152.391 115.18V123.21C152.391 125.23 150.911 127.38 148.021 129.04L145.291 130.61L113.421 149.01C108.141 152.06 100.151 152.39 95.5706 149.75L62.0805 130.41L58.0805 128.1C55.8505 126.81 54.8405 125.06 55.0105 123.25V116C55.1305 117.26 55.8305 118.44 57.1105 119.43C57.4105 119.66 57.7205 119.88 58.0805 120.08L62.0305 122.36L62.0805 122.39L95.5706 141.72C100.141 144.36 108.141 144.04 113.421 140.98L145.291 122.58L146.231 122.04L148.021 121.01C148.901 120.51 149.641 119.96 150.261 119.38C151.681 118.06 152.391 116.6 152.391 115.18Z" fill="#7375EC"/>
<path d="M152.391 115.18C152.391 116.6 151.681 118.06 150.261 119.38C149.651 119.96 148.901 120.51 148.021 121.01L146.231 122.04L145.291 122.58L113.421 140.98C108.141 144.03 100.151 144.36 95.5708 141.72L62.0807 122.39L62.0307 122.36L58.0807 120.08C57.7207 119.88 57.4107 119.66 57.1107 119.43C55.8207 118.44 55.1307 117.26 55.0107 116V115.22C55.0807 114.36 55.4208 113.49 56.0208 112.65C56.7408 111.62 57.8707 110.63 59.3607 109.77L62.0907 108.2L93.9607 89.8C99.2507 86.76 107.231 86.42 111.811 89.06L145.301 108.4L149.301 110.71C150.211 111.23 150.921 111.84 151.431 112.5C152.071 113.33 152.391 114.25 152.391 115.19V115.18Z" fill="url(#paint19_linear_4092_26238)"/>
<path style="mix-blend-mode:multiply" d="M229.98 366.47L187.79 340.34L250.61 317.27L280.78 337.57" fill="url(#paint20_linear_4092_26238)"/>
<path d="M250.61 309.25V317.28C250.61 319.3 249.13 321.45 246.24 323.11L243.51 324.68L211.64 343.08C206.36 346.13 198.37 346.46 193.79 343.82L160.3 324.48L156.3 322.17C154.07 320.88 153.06 319.13 153.23 317.32V310.07C153.35 311.33 154.05 312.51 155.33 313.5C155.63 313.73 155.94 313.95 156.3 314.15L160.25 316.43L160.3 316.46L193.79 335.79C198.36 338.43 206.36 338.11 211.64 335.05L243.51 316.65L244.45 316.11L246.24 315.08C247.12 314.58 247.86 314.03 248.48 313.45C249.9 312.13 250.61 310.67 250.61 309.25Z" fill="#7375EC"/>
<path d="M250.61 309.25C250.61 310.67 249.9 312.13 248.48 313.45C247.87 314.03 247.12 314.58 246.24 315.08L244.45 316.11L243.51 316.65L211.64 335.05C206.36 338.1 198.37 338.43 193.79 335.79L160.3 316.46L160.25 316.43L156.3 314.15C155.94 313.95 155.63 313.73 155.33 313.5C154.04 312.51 153.35 311.33 153.23 310.07V309.29C153.3 308.43 153.64 307.56 154.24 306.72C154.96 305.69 156.09 304.7 157.58 303.84L160.31 302.27L192.18 283.87C197.47 280.83 205.45 280.49 210.03 283.13L243.52 302.47L247.52 304.78C248.43 305.3 249.14 305.91 249.65 306.57C250.29 307.4 250.61 308.32 250.61 309.26V309.25Z" fill="url(#paint21_linear_4092_26238)"/>
<path d="M250.61 295.67V303.7C250.61 305.72 249.13 307.87 246.24 309.53L243.51 311.1L211.64 329.5C206.36 332.55 198.37 332.88 193.79 330.24L160.3 310.9L156.3 308.59C154.07 307.3 153.06 305.55 153.23 303.74V296.49C153.35 297.75 154.05 298.93 155.33 299.92C155.63 300.15 155.94 300.37 156.3 300.57L160.25 302.85L160.3 302.88L193.79 322.21C198.36 324.85 206.36 324.53 211.64 321.47L243.51 303.07L244.45 302.53L246.24 301.5C247.12 301 247.86 300.45 248.48 299.87C249.9 298.55 250.61 297.09 250.61 295.67Z" fill="#7375EC"/>
<path d="M250.61 295.67C250.61 297.09 249.9 298.55 248.48 299.87C247.87 300.45 247.12 301 246.24 301.5L244.45 302.53L243.51 303.07L211.64 321.47C206.36 324.52 198.37 324.85 193.79 322.21L160.3 302.88L160.25 302.85L156.3 300.57C155.94 300.37 155.63 300.15 155.33 299.92C154.04 298.93 153.35 297.75 153.23 296.49V295.71C153.3 294.85 153.64 293.98 154.24 293.14C154.96 292.11 156.09 291.12 157.58 290.26L160.31 288.69L192.18 270.29C197.47 267.25 205.45 266.91 210.03 269.55L243.52 288.89L247.52 291.2C248.43 291.72 249.14 292.33 249.65 292.99C250.29 293.82 250.61 294.74 250.61 295.68V295.67Z" fill="url(#paint22_linear_4092_26238)"/>
<path d="M250.61 282.08V290.11C250.61 292.13 249.13 294.28 246.24 295.94L243.51 297.51L211.64 315.91C206.36 318.96 198.37 319.29 193.79 316.65L160.3 297.31L156.3 295C154.07 293.71 153.06 291.96 153.23 290.15V282.9C153.35 284.16 154.05 285.34 155.33 286.33C155.63 286.56 155.94 286.78 156.3 286.98L160.25 289.26L160.3 289.29L193.79 308.62C198.36 311.26 206.36 310.94 211.64 307.88L243.51 289.48L244.45 288.94L246.24 287.91C247.12 287.41 247.86 286.86 248.48 286.28C249.9 284.96 250.61 283.5 250.61 282.08Z" fill="#7375EC"/>
<path d="M250.61 282.08C250.61 283.5 249.9 284.96 248.48 286.28C247.87 286.86 247.12 287.41 246.24 287.91L244.45 288.94L243.51 289.48L211.64 307.88C206.36 310.93 198.37 311.26 193.79 308.62L160.3 289.29L160.25 289.26L156.3 286.98C155.94 286.78 155.63 286.56 155.33 286.33C154.04 285.34 153.35 284.16 153.23 282.9V282.12C153.3 281.26 153.64 280.39 154.24 279.55C154.96 278.52 156.09 277.53 157.58 276.67L160.31 275.1L192.18 256.7C197.47 253.66 205.45 253.32 210.03 255.96L243.52 275.3L247.52 277.61C248.43 278.13 249.14 278.74 249.65 279.4C250.29 280.23 250.61 281.15 250.61 282.09V282.08Z" fill="url(#paint23_linear_4092_26238)"/>
<path style="mix-blend-mode:multiply" d="M528.891 223.68L499.891 205.72L543.071 189.86L563.821 203.81" fill="url(#paint24_linear_4092_26238)"/>
<path d="M543.07 184.34V189.86C543.07 191.25 542.05 192.72 540.07 193.87L538.2 194.95L516.29 207.6C512.66 209.7 507.17 209.92 504.02 208.11L481 194.82L478.25 193.23C476.72 192.35 476.03 191.14 476.14 189.9V184.92C476.22 185.78 476.7 186.6 477.59 187.28C477.79 187.44 478.01 187.59 478.26 187.73L480.98 189.3L481.02 189.32L504.04 202.61C507.18 204.43 512.68 204.2 516.31 202.1L538.22 189.45L538.87 189.08L540.1 188.37C540.7 188.03 541.22 187.65 541.64 187.25C542.62 186.34 543.11 185.34 543.11 184.37L543.07 184.34Z" fill="#7375EC"/>
<path d="M543.071 184.34C543.071 185.32 542.581 186.32 541.601 187.22C541.181 187.62 540.671 188 540.061 188.34L538.831 189.05L538.181 189.42L516.271 202.07C512.641 204.17 507.151 204.39 504.001 202.58L480.981 189.29L480.941 189.27L478.221 187.7C477.971 187.56 477.761 187.41 477.551 187.25C476.671 186.57 476.191 185.75 476.101 184.89V184.36C476.151 183.77 476.381 183.17 476.791 182.59C477.291 181.88 478.061 181.2 479.091 180.61L480.961 179.53L502.871 166.88C506.511 164.79 511.991 164.56 515.141 166.37L538.161 179.66L540.911 181.25C541.531 181.61 542.031 182.03 542.381 182.48C542.821 183.05 543.041 183.68 543.041 184.33L543.071 184.34Z" fill="url(#paint25_linear_4092_26238)"/>
<path d="M543.07 175.01V180.53C543.07 181.92 542.05 183.39 540.07 184.54L538.2 185.62L516.29 198.27C512.66 200.37 507.17 200.59 504.02 198.78L481 185.49L478.25 183.9C476.72 183.02 476.03 181.81 476.14 180.57V175.59C476.22 176.45 476.7 177.27 477.59 177.95C477.79 178.11 478.01 178.26 478.26 178.4L480.98 179.97L481.02 179.99L504.04 193.28C507.18 195.1 512.68 194.87 516.31 192.77L538.22 180.12L538.87 179.75L540.1 179.04C540.7 178.7 541.22 178.32 541.64 177.92C542.62 177.01 543.11 176.01 543.11 175.04L543.07 175.01Z" fill="#7375EC"/>
<path d="M543.071 175.01C543.071 175.99 542.581 176.99 541.601 177.89C541.181 178.29 540.671 178.67 540.061 179.01L538.831 179.72L538.181 180.09L516.271 192.74C512.641 194.84 507.151 195.06 504.001 193.25L480.981 179.96L480.941 179.94L478.221 178.37C477.971 178.23 477.761 178.08 477.551 177.92C476.671 177.24 476.191 176.42 476.101 175.56V175.03C476.151 174.44 476.381 173.84 476.791 173.26C477.291 172.55 478.061 171.87 479.091 171.28L480.961 170.2L502.871 157.55C506.511 155.46 511.991 155.23 515.141 157.04L538.161 170.33L540.911 171.92C541.531 172.28 542.031 172.7 542.381 173.15C542.821 173.72 543.041 174.35 543.041 175L543.071 175.01Z" fill="url(#paint26_linear_4092_26238)"/>
<path d="M543.07 165.67V171.19C543.07 172.58 542.05 174.05 540.07 175.2L538.2 176.28L516.29 188.93C512.66 191.03 507.17 191.25 504.02 189.44L481 176.15L478.25 174.56C476.72 173.68 476.03 172.47 476.14 171.23V166.25C476.22 167.11 476.7 167.93 477.59 168.61C477.79 168.77 478.01 168.92 478.26 169.06L480.98 170.63L481.02 170.65L504.04 183.94C507.18 185.76 512.68 185.53 516.31 183.43L538.22 170.78L538.87 170.41L540.1 169.7C540.7 169.36 541.22 168.98 541.64 168.58C542.62 167.67 543.11 166.67 543.11 165.7L543.07 165.67Z" fill="#7375EC"/>
<path d="M543.071 165.67C543.071 166.65 542.581 167.65 541.601 168.55C541.181 168.95 540.671 169.33 540.061 169.67L538.831 170.38L538.181 170.75L516.271 183.4C512.641 185.5 507.151 185.72 504.001 183.91L480.981 170.62L480.941 170.6L478.221 169.03C477.971 168.89 477.761 168.74 477.551 168.58C476.671 167.9 476.191 167.08 476.101 166.22V165.69C476.151 165.1 476.381 164.5 476.791 163.92C477.291 163.21 478.061 162.53 479.091 161.94L480.961 160.86L502.871 148.21C506.511 146.12 511.991 145.89 515.141 147.7L538.161 160.99L540.911 162.58C541.531 162.94 542.031 163.36 542.381 163.81C542.821 164.38 543.041 165.01 543.041 165.66L543.071 165.67Z" fill="url(#paint27_linear_4092_26238)"/>
<path style="mix-blend-mode:multiply" d="M424.28 154.85L389.61 133.38L441.23 114.42L466.02 131.1" fill="url(#paint28_linear_4092_26238)"/>
<path d="M441.231 107.82V114.41C441.231 116.07 440.011 117.83 437.641 119.2L435.401 120.49L409.211 135.61C404.871 138.12 398.301 138.39 394.541 136.21L367.021 120.32L363.731 118.42C361.901 117.36 361.071 115.92 361.201 114.43V108.47C361.301 109.5 361.871 110.48 362.931 111.29C363.171 111.48 363.431 111.66 363.731 111.83L366.981 113.7L367.021 113.73L394.541 129.61C398.301 131.78 404.871 131.51 409.211 129.01L435.401 113.89L436.171 113.45L437.641 112.6C438.361 112.19 438.971 111.74 439.481 111.26C440.651 110.18 441.231 108.98 441.231 107.81V107.82Z" fill="#7375EC"/>
<path d="M441.231 107.82C441.231 108.99 440.641 110.19 439.481 111.27C438.981 111.75 438.361 112.2 437.641 112.61L436.171 113.46L435.401 113.9L409.211 129.02C404.871 131.53 398.301 131.8 394.541 129.62L367.021 113.74L366.981 113.71L363.731 111.84C363.441 111.67 363.181 111.5 362.931 111.3C361.871 110.49 361.301 109.51 361.201 108.48V107.84C361.261 107.14 361.541 106.42 362.031 105.73C362.631 104.88 363.551 104.07 364.771 103.36L367.011 102.07L393.201 86.9501C397.551 84.4501 404.111 84.1701 407.871 86.3501L435.391 102.24L438.681 104.14C439.431 104.57 440.011 105.07 440.431 105.61C440.961 106.29 441.221 107.04 441.221 107.82H441.231Z" fill="url(#paint29_linear_4092_26238)"/>
<path d="M441.231 96.6599V103.25C441.231 104.91 440.011 106.67 437.641 108.04L435.401 109.33L409.211 124.45C404.871 126.96 398.301 127.23 394.541 125.05L367.021 109.16L363.731 107.26C361.901 106.2 361.071 104.76 361.201 103.27V97.3099C361.301 98.3399 361.871 99.3199 362.931 100.13C363.171 100.32 363.431 100.5 363.731 100.67L366.981 102.54L367.021 102.57L394.541 118.45C398.301 120.62 404.871 120.35 409.211 117.85L435.401 102.73L436.171 102.29L437.641 101.44C438.361 101.03 438.971 100.58 439.481 100.1C440.651 99.0199 441.231 97.8199 441.231 96.6499V96.6599Z" fill="#7375EC"/>
<path d="M441.231 96.66C441.231 97.83 440.641 99.03 439.481 100.11C438.981 100.59 438.361 101.04 437.641 101.45L436.171 102.3L435.401 102.74L409.211 117.86C404.871 120.37 398.301 120.64 394.541 118.46L367.021 102.58L366.981 102.55L363.731 100.68C363.441 100.51 363.181 100.34 362.931 100.14C361.871 99.33 361.301 98.35 361.201 97.32V96.68C361.261 95.98 361.541 95.26 362.031 94.57C362.631 93.72 363.551 92.91 364.771 92.2L367.011 90.91L393.201 75.79C397.551 73.29 404.111 73.01 407.871 75.19L435.391 91.08L438.681 92.98C439.431 93.41 440.011 93.91 440.431 94.45C440.961 95.13 441.221 95.88 441.221 96.66H441.231Z" fill="url(#paint30_linear_4092_26238)"/>
<path d="M441.231 85.5V92.09C441.231 93.75 440.011 95.51 437.641 96.88L435.401 98.17L409.211 113.29C404.871 115.8 398.301 116.07 394.541 113.89L367.021 98L363.731 96.1C361.901 95.04 361.071 93.6 361.201 92.11V86.15C361.301 87.18 361.871 88.16 362.931 88.97C363.171 89.16 363.431 89.34 363.731 89.51L366.981 91.38L367.021 91.41L394.541 107.29C398.301 109.46 404.871 109.19 409.211 106.69L435.401 91.57L436.171 91.13L437.641 90.28C438.361 89.87 438.971 89.42 439.481 88.94C440.651 87.86 441.231 86.66 441.231 85.49V85.5Z" fill="#7375EC"/>
<path d="M441.231 85.5C441.231 86.67 440.641 87.8701 439.481 88.9501C438.981 89.4301 438.361 89.88 437.641 90.29L436.171 91.1401L435.401 91.5801L409.211 106.7C404.871 109.21 398.301 109.48 394.541 107.3L367.021 91.42L366.981 91.3901L363.731 89.5201C363.441 89.3501 363.181 89.18 362.931 88.98C361.871 88.17 361.301 87.19 361.201 86.16V85.5201C361.261 84.8201 361.541 84.1 362.031 83.41C362.631 82.56 363.551 81.75 364.771 81.04L367.011 79.75L393.201 64.63C397.551 62.13 404.111 61.8501 407.871 64.0301L435.391 79.92L438.681 81.82C439.431 82.25 440.011 82.75 440.431 83.29C440.961 83.97 441.221 84.72 441.221 85.5H441.231Z" fill="url(#paint31_linear_4092_26238)"/>
<path style="mix-blend-mode:multiply" d="M403.03 386.56L368.99 365.48L419.67 346.87L444.02 363.25" fill="url(#paint32_linear_4092_26238)"/>
<path d="M419.67 340.4V346.87C419.67 348.5 418.48 350.23 416.14 351.57L413.94 352.84L388.23 367.68C383.97 370.14 377.52 370.41 373.83 368.27L346.81 352.67L343.58 350.81C341.78 349.77 340.97 348.36 341.1 346.9V341.05C341.2 342.06 341.76 343.02 342.8 343.82C343.04 344.01 343.29 344.18 343.58 344.35L346.77 346.19L346.81 346.21L373.83 361.8C377.52 363.93 383.97 363.67 388.23 361.21L413.94 346.37L414.7 345.93L416.14 345.1C416.85 344.7 417.45 344.25 417.94 343.78C419.09 342.72 419.66 341.54 419.66 340.39L419.67 340.4Z" fill="#7375EC"/>
<path d="M419.67 340.4C419.67 341.55 419.09 342.72 417.95 343.79C417.46 344.26 416.85 344.7 416.15 345.11L414.71 345.94L413.95 346.38L388.24 361.22C383.98 363.68 377.53 363.95 373.84 361.81L346.82 346.22L346.78 346.2L343.59 344.36C343.3 344.2 343.05 344.02 342.81 343.83C341.77 343.03 341.21 342.08 341.11 341.06V340.43C341.17 339.74 341.44 339.04 341.93 338.35C342.51 337.52 343.42 336.72 344.62 336.03L346.82 334.76L372.53 319.92C376.8 317.47 383.24 317.19 386.93 319.33L413.95 334.93L417.18 336.79C417.91 337.21 418.49 337.7 418.9 338.23C419.42 338.9 419.67 339.64 419.67 340.4Z" fill="url(#paint33_linear_4092_26238)"/>
<path d="M419.67 329.44V335.91C419.67 337.54 418.48 339.27 416.14 340.61L413.94 341.88L388.23 356.72C383.97 359.18 377.52 359.45 373.83 357.31L346.81 341.71L343.58 339.85C341.78 338.81 340.97 337.4 341.1 335.94V330.09C341.2 331.1 341.76 332.06 342.8 332.86C343.04 333.05 343.29 333.22 343.58 333.39L346.77 335.23L346.81 335.25L373.83 350.84C377.52 352.97 383.97 352.71 388.23 350.25L413.94 335.41L414.7 334.97L416.14 334.14C416.85 333.74 417.45 333.29 417.94 332.82C419.09 331.76 419.66 330.58 419.66 329.43L419.67 329.44Z" fill="#7375EC"/>
<path d="M419.67 329.44C419.67 330.59 419.09 331.76 417.95 332.83C417.46 333.3 416.85 333.74 416.15 334.15L414.71 334.98L413.95 335.42L388.24 350.26C383.98 352.72 377.53 352.99 373.84 350.85L346.82 335.26L346.78 335.24L343.59 333.4C343.3 333.24 343.05 333.06 342.81 332.87C341.77 332.07 341.21 331.12 341.11 330.1V329.47C341.17 328.78 341.44 328.08 341.93 327.39C342.51 326.56 343.42 325.76 344.62 325.07L346.82 323.8L372.53 308.96C376.8 306.51 383.24 306.23 386.93 308.37L413.95 323.97L417.18 325.83C417.91 326.25 418.49 326.74 418.9 327.27C419.42 327.94 419.67 328.68 419.67 329.44Z" fill="url(#paint34_linear_4092_26238)"/>
<path d="M419.67 318.48V324.95C419.67 326.58 418.48 328.31 416.14 329.65L413.94 330.92L388.23 345.76C383.97 348.22 377.52 348.49 373.83 346.35L346.81 330.75L343.58 328.89C341.78 327.85 340.97 326.44 341.1 324.98V319.13C341.2 320.14 341.76 321.1 342.8 321.9C343.04 322.09 343.29 322.26 343.58 322.43L346.77 324.27L346.81 324.29L373.83 339.88C377.52 342.01 383.97 341.75 388.23 339.29L413.94 324.45L414.7 324.01L416.14 323.18C416.85 322.78 417.45 322.33 417.94 321.86C419.09 320.8 419.66 319.62 419.66 318.47L419.67 318.48Z" fill="#7375EC"/>
<path d="M419.67 318.48C419.67 319.63 419.09 320.8 417.95 321.87C417.46 322.34 416.85 322.78 416.15 323.19L414.71 324.02L413.95 324.46L388.24 339.3C383.98 341.76 377.53 342.03 373.84 339.89L346.82 324.3L346.78 324.28L343.59 322.44C343.3 322.28 343.05 322.1 342.81 321.91C341.77 321.11 341.21 320.16 341.11 319.14V318.51C341.17 317.82 341.44 317.12 341.93 316.43C342.51 315.6 343.42 314.8 344.62 314.11L346.82 312.84L372.53 298C376.8 295.55 383.24 295.27 386.93 297.41L413.95 313.01L417.18 314.87C417.91 315.29 418.49 315.78 418.9 316.31C419.42 316.98 419.67 317.72 419.67 318.48Z" fill="url(#paint35_linear_4092_26238)"/>
<path style="mix-blend-mode:multiply" d="M266.03 131.25L231.99 110.17L282.67 91.55L307.01 107.93" fill="url(#paint36_linear_4092_26238)"/>
<path d="M282.67 85.0801V91.55C282.67 93.18 281.48 94.9101 279.14 96.2501L276.94 97.5201L251.23 112.36C246.97 114.82 240.52 115.09 236.83 112.95L209.81 97.35L206.58 95.4901C204.78 94.4501 203.97 93.0401 204.1 91.5801V85.73C204.2 86.74 204.76 87.7001 205.8 88.5001C206.04 88.6901 206.29 88.8601 206.58 89.0301L209.77 90.8701L209.81 90.8901L236.83 106.48C240.52 108.61 246.97 108.35 251.23 105.89L276.94 91.05L277.7 90.61L279.14 89.7801C279.85 89.3801 280.45 88.9301 280.94 88.4601C282.09 87.4001 282.66 86.2201 282.66 85.0701L282.67 85.0801Z" fill="#7375EC"/>
<path d="M282.67 85.0801C282.67 86.2301 282.09 87.4 280.95 88.47C280.46 88.94 279.85 89.38 279.15 89.79L277.71 90.62L276.95 91.06L251.24 105.9C246.98 108.36 240.53 108.63 236.84 106.49L209.82 90.9001L209.78 90.8801L206.59 89.04C206.3 88.88 206.05 88.7001 205.81 88.5101C204.77 87.7101 204.21 86.76 204.11 85.74V85.11C204.17 84.42 204.44 83.7201 204.93 83.0301C205.51 82.2001 206.42 81.4001 207.62 80.7101L209.82 79.4401L235.53 64.6C239.8 62.15 246.24 61.8701 249.93 64.0101L276.95 79.61L280.18 81.47C280.91 81.89 281.49 82.38 281.9 82.91C282.42 83.58 282.67 84.3201 282.67 85.0801Z" fill="url(#paint37_linear_4092_26238)"/>
<path d="M282.67 74.1201V80.5901C282.67 82.2201 281.48 83.9501 279.14 85.2901L276.94 86.5601L251.23 101.4C246.97 103.86 240.52 104.13 236.83 101.99L209.81 86.3901L206.58 84.5302C204.78 83.4902 203.97 82.0801 204.1 80.6201V74.7701C204.2 75.7801 204.76 76.7401 205.8 77.5401C206.04 77.7301 206.29 77.9001 206.58 78.0701L209.77 79.9101L209.81 79.9301L236.83 95.5201C240.52 97.6501 246.97 97.3901 251.23 94.9301L276.94 80.0901L277.7 79.6501L279.14 78.8201C279.85 78.4201 280.45 77.9701 280.94 77.5001C282.09 76.4401 282.66 75.2601 282.66 74.1101L282.67 74.1201Z" fill="#7375EC"/>
<path d="M282.67 74.1201C282.67 75.2701 282.09 76.4401 280.95 77.5101C280.46 77.9801 279.85 78.4201 279.15 78.8301L277.71 79.6601L276.95 80.1001L251.24 94.9401C246.98 97.4001 240.53 97.6701 236.84 95.5301L209.82 79.9401L209.78 79.9201L206.59 78.0801C206.3 77.9201 206.05 77.7401 205.81 77.5501C204.77 76.7501 204.21 75.8001 204.11 74.7801V74.1501C204.17 73.4601 204.44 72.7601 204.93 72.0701C205.51 71.2401 206.42 70.4401 207.62 69.7501L209.82 68.4801L235.53 53.6401C239.8 51.1901 246.24 50.9101 249.93 53.0501L276.95 68.6501L280.18 70.5101C280.91 70.9301 281.49 71.4201 281.9 71.9501C282.42 72.6201 282.67 73.3601 282.67 74.1201Z" fill="url(#paint38_linear_4092_26238)"/>
<path d="M282.67 63.1601V69.6301C282.67 71.2601 281.48 72.9901 279.14 74.3301L276.94 75.6001L251.23 90.4401C246.97 92.9001 240.52 93.1702 236.83 91.0302L209.81 75.4301L206.58 73.5701C204.78 72.5301 203.97 71.1201 204.1 69.6601V63.8101C204.2 64.8201 204.76 65.7801 205.8 66.5801C206.04 66.7701 206.29 66.9401 206.58 67.1101L209.77 68.9501L209.81 68.9701L236.83 84.5601C240.52 86.6901 246.97 86.4301 251.23 83.9701L276.94 69.1301L277.7 68.6901L279.14 67.8601C279.85 67.4601 280.45 67.0101 280.94 66.5401C282.09 65.4801 282.66 64.3001 282.66 63.1501L282.67 63.1601Z" fill="#7375EC"/>
<path d="M282.67 63.1601C282.67 64.3101 282.09 65.4801 280.95 66.5501C280.46 67.0201 279.85 67.4601 279.15 67.8701L277.71 68.7001L276.95 69.1401L251.24 83.9801C246.98 86.4401 240.53 86.7101 236.84 84.5701L209.82 68.9801L209.78 68.9601L206.59 67.1201C206.3 66.9601 206.05 66.7801 205.81 66.5901C204.77 65.7901 204.21 64.8401 204.11 63.8201V63.1901C204.17 62.5001 204.44 61.8001 204.93 61.1101C205.51 60.2801 206.42 59.4801 207.62 58.7901L209.82 57.5201L235.53 42.6801C239.8 40.2301 246.24 39.9501 249.93 42.0901L276.95 57.6901L280.18 59.5501C280.91 59.9701 281.49 60.4601 281.9 60.9901C282.42 61.6601 282.67 62.4001 282.67 63.1601Z" fill="url(#paint39_linear_4092_26238)"/>
<defs>
<linearGradient id="paint0_linear_4092_26238" x1="63.2399" y1="326.7" x2="95.2699" y2="364.87" gradientUnits="userSpaceOnUse">
<stop stop-color="#7375EC"/>
<stop offset="1" stop-color="#D7E9E8" stop-opacity="0.19"/>
</linearGradient>
<linearGradient id="paint1_linear_4092_26238" x1="37.02" y1="319.98" x2="117.45" y2="317.34" gradientUnits="userSpaceOnUse">
<stop stop-color="#E9F2FA"/>
<stop offset="1" stop-color="#898FF7"/>
</linearGradient>
<linearGradient id="paint2_linear_4092_26238" x1="37.02" y1="306.34" x2="117.45" y2="303.7" gradientUnits="userSpaceOnUse">
<stop stop-color="#E9F2FA"/>
<stop offset="1" stop-color="#898FF7"/>
</linearGradient>
<linearGradient id="paint3_linear_4092_26238" x1="26.46" y1="307.31" x2="84.1899" y2="269.82" gradientUnits="userSpaceOnUse">
<stop stop-color="#E9F2FA"/>
<stop offset="1" stop-color="#898FF7"/>
</linearGradient>
<linearGradient id="paint4_linear_4092_26238" x1="546.63" y1="63.2302" x2="578.66" y2="101.41" gradientUnits="userSpaceOnUse">
<stop stop-color="#7375EC"/>
<stop offset="1" stop-color="#D7E9E8" stop-opacity="0.19"/>
</linearGradient>
<linearGradient id="paint5_linear_4092_26238" x1="520.41" y1="56.5101" x2="600.85" y2="53.8801" gradientUnits="userSpaceOnUse">
<stop stop-color="#E9F2FA"/>
<stop offset="1" stop-color="#898FF7"/>
</linearGradient>
<linearGradient id="paint6_linear_4092_26238" x1="520.41" y1="42.87" x2="600.85" y2="40.23" gradientUnits="userSpaceOnUse">
<stop stop-color="#E9F2FA"/>
<stop offset="1" stop-color="#898FF7"/>
</linearGradient>
<linearGradient id="paint7_linear_4092_26238" x1="509.85" y1="43.8401" x2="567.58" y2="6.35013" gradientUnits="userSpaceOnUse">
<stop stop-color="#E9F2FA"/>
<stop offset="1" stop-color="#898FF7"/>
</linearGradient>
<linearGradient id="paint8_linear_4092_26238" x1="553.19" y1="323.61" x2="585.22" y2="361.79" gradientUnits="userSpaceOnUse">
<stop stop-color="#7375EC"/>
<stop offset="1" stop-color="#D7E9E8" stop-opacity="0.19"/>
</linearGradient>
<linearGradient id="paint9_linear_4092_26238" x1="526.97" y1="316.9" x2="607.4" y2="314.26" gradientUnits="userSpaceOnUse">
<stop stop-color="#E9F2FA"/>
<stop offset="1" stop-color="#898FF7"/>
</linearGradient>
<linearGradient id="paint10_linear_4092_26238" x1="526.97" y1="303.26" x2="607.4" y2="300.62" gradientUnits="userSpaceOnUse">
<stop stop-color="#E9F2FA"/>
<stop offset="1" stop-color="#898FF7"/>
</linearGradient>
<linearGradient id="paint11_linear_4092_26238" x1="516.41" y1="304.23" x2="574.14" y2="266.74" gradientUnits="userSpaceOnUse">
<stop stop-color="#E9F2FA"/>
<stop offset="1" stop-color="#898FF7"/>
</linearGradient>
<linearGradient id="paint12_linear_4092_26238" x1="327.49" y1="230.1" x2="366.71" y2="276.84" gradientUnits="userSpaceOnUse">
<stop stop-color="#7375EC"/>
<stop offset="1" stop-color="#D7E9E8" stop-opacity="0.19"/>
</linearGradient>
<linearGradient id="paint13_linear_4092_26238" x1="295.39" y1="221.88" x2="393.87" y2="218.65" gradientUnits="userSpaceOnUse">
<stop stop-color="#E9F2FA"/>
<stop offset="1" stop-color="#898FF7"/>
</linearGradient>
<linearGradient id="paint14_linear_4092_26238" x1="295.39" y1="205.18" x2="393.87" y2="201.95" gradientUnits="userSpaceOnUse">
<stop stop-color="#E9F2FA"/>
<stop offset="1" stop-color="#898FF7"/>
</linearGradient>
<linearGradient id="paint15_linear_4092_26238" x1="282.47" y1="206.36" x2="353.14" y2="160.47" gradientUnits="userSpaceOnUse">
<stop stop-color="#E9F2FA"/>
<stop offset="1" stop-color="#898FF7"/>
</linearGradient>
<linearGradient id="paint16_linear_4092_26238" x1="117.27" y1="149.66" x2="149.17" y2="187.66" gradientUnits="userSpaceOnUse">
<stop stop-color="#7375EC"/>
<stop offset="1" stop-color="#D7E9E8" stop-opacity="0.19"/>
</linearGradient>
<linearGradient id="paint17_linear_4092_26238" x1="91.1807" y1="142.97" x2="171.251" y2="140.34" gradientUnits="userSpaceOnUse">
<stop stop-color="#E9F2FA"/>
<stop offset="1" stop-color="#898FF7"/>
</linearGradient>
<linearGradient id="paint18_linear_4092_26238" x1="91.1807" y1="129.39" x2="171.251" y2="126.76" gradientUnits="userSpaceOnUse">
<stop stop-color="#E9F2FA"/>
<stop offset="1" stop-color="#898FF7"/>
</linearGradient>
<linearGradient id="paint19_linear_4092_26238" x1="80.6607" y1="130.35" x2="138.131" y2="93.03" gradientUnits="userSpaceOnUse">
<stop stop-color="#E9F2FA"/>
<stop offset="1" stop-color="#898FF7"/>
</linearGradient>
<linearGradient id="paint20_linear_4092_26238" x1="215.49" y1="316.56" x2="247.38" y2="354.56" gradientUnits="userSpaceOnUse">
<stop stop-color="#7375EC"/>
<stop offset="1" stop-color="#D7E9E8" stop-opacity="0.19"/>
</linearGradient>
<linearGradient id="paint21_linear_4092_26238" x1="189.39" y1="309.87" x2="269.47" y2="307.24" gradientUnits="userSpaceOnUse">
<stop stop-color="#E9F2FA"/>
<stop offset="1" stop-color="#898FF7"/>
</linearGradient>
<linearGradient id="paint22_linear_4092_26238" x1="189.39" y1="296.29" x2="269.47" y2="293.66" gradientUnits="userSpaceOnUse">
<stop stop-color="#E9F2FA"/>
<stop offset="1" stop-color="#898FF7"/>
</linearGradient>
<linearGradient id="paint23_linear_4092_26238" x1="178.88" y1="297.25" x2="236.35" y2="259.93" gradientUnits="userSpaceOnUse">
<stop stop-color="#E9F2FA"/>
<stop offset="1" stop-color="#898FF7"/>
</linearGradient>
<linearGradient id="paint24_linear_4092_26238" x1="518.931" y1="189.37" x2="540.861" y2="215.49" gradientUnits="userSpaceOnUse">
<stop stop-color="#7375EC"/>
<stop offset="1" stop-color="#D7E9E8" stop-opacity="0.19"/>
</linearGradient>
<linearGradient id="paint25_linear_4092_26238" x1="500.991" y1="184.77" x2="556.041" y2="182.97" gradientUnits="userSpaceOnUse">
<stop stop-color="#E9F2FA"/>
<stop offset="1" stop-color="#898FF7"/>
</linearGradient>
<linearGradient id="paint26_linear_4092_26238" x1="500.991" y1="175.43" x2="556.041" y2="173.63" gradientUnits="userSpaceOnUse">
<stop stop-color="#E9F2FA"/>
<stop offset="1" stop-color="#898FF7"/>
</linearGradient>
<linearGradient id="paint27_linear_4092_26238" x1="493.761" y1="176.1" x2="533.271" y2="150.44" gradientUnits="userSpaceOnUse">
<stop stop-color="#E9F2FA"/>
<stop offset="1" stop-color="#898FF7"/>
</linearGradient>
<linearGradient id="paint28_linear_4092_26238" x1="412.37" y1="113.83" x2="438.58" y2="145.06" gradientUnits="userSpaceOnUse">
<stop stop-color="#7375EC"/>
<stop offset="1" stop-color="#D7E9E8" stop-opacity="0.19"/>
</linearGradient>
<linearGradient id="paint29_linear_4092_26238" x1="390.921" y1="108.34" x2="456.731" y2="106.18" gradientUnits="userSpaceOnUse">
<stop stop-color="#E9F2FA"/>
<stop offset="1" stop-color="#898FF7"/>
</linearGradient>
<linearGradient id="paint30_linear_4092_26238" x1="390.921" y1="97.18" x2="456.731" y2="95.02" gradientUnits="userSpaceOnUse">
<stop stop-color="#E9F2FA"/>
<stop offset="1" stop-color="#898FF7"/>
</linearGradient>
<linearGradient id="paint31_linear_4092_26238" x1="382.281" y1="97.97" x2="429.511" y2="67.3001" gradientUnits="userSpaceOnUse">
<stop stop-color="#E9F2FA"/>
<stop offset="1" stop-color="#898FF7"/>
</linearGradient>
<linearGradient id="paint32_linear_4092_26238" x1="391.34" y1="346.29" x2="417.07" y2="376.96" gradientUnits="userSpaceOnUse">
<stop stop-color="#7375EC"/>
<stop offset="1" stop-color="#D7E9E8" stop-opacity="0.19"/>
</linearGradient>
<linearGradient id="paint33_linear_4092_26238" x1="370.28" y1="340.9" x2="434.89" y2="338.78" gradientUnits="userSpaceOnUse">
<stop stop-color="#E9F2FA"/>
<stop offset="1" stop-color="#898FF7"/>
</linearGradient>
<linearGradient id="paint34_linear_4092_26238" x1="370.28" y1="329.94" x2="434.89" y2="327.82" gradientUnits="userSpaceOnUse">
<stop stop-color="#E9F2FA"/>
<stop offset="1" stop-color="#898FF7"/>
</linearGradient>
<linearGradient id="paint35_linear_4092_26238" x1="361.8" y1="330.72" x2="408.17" y2="300.61" gradientUnits="userSpaceOnUse">
<stop stop-color="#E9F2FA"/>
<stop offset="1" stop-color="#898FF7"/>
</linearGradient>
<linearGradient id="paint36_linear_4092_26238" x1="254.34" y1="90.97" x2="280.07" y2="121.64" gradientUnits="userSpaceOnUse">
<stop stop-color="#7375EC"/>
<stop offset="1" stop-color="#D7E9E8" stop-opacity="0.19"/>
</linearGradient>
<linearGradient id="paint37_linear_4092_26238" x1="233.28" y1="85.58" x2="297.88" y2="83.46" gradientUnits="userSpaceOnUse">
<stop stop-color="#E9F2FA"/>
<stop offset="1" stop-color="#898FF7"/>
</linearGradient>
<linearGradient id="paint38_linear_4092_26238" x1="233.28" y1="74.6201" x2="297.88" y2="72.5001" gradientUnits="userSpaceOnUse">
<stop stop-color="#E9F2FA"/>
<stop offset="1" stop-color="#898FF7"/>
</linearGradient>
<linearGradient id="paint39_linear_4092_26238" x1="224.8" y1="75.4001" x2="271.16" y2="45.2901" gradientUnits="userSpaceOnUse">
<stop stop-color="#E9F2FA"/>
<stop offset="1" stop-color="#898FF7"/>
</linearGradient>
</defs>
</svg>
