<svg width="122" height="94" viewBox="0 0 122 94" fill="none" xmlns="http://www.w3.org/2000/svg">
<path d="M56.1508 69.2381C56.164 72.5409 55.4786 75.8076 54.1416 78.8143C52.8046 81.8211 50.8476 84.4969 48.4046 86.6585C43.1623 91.5483 36.2729 94.1758 29.1784 93.9909C20.1722 93.9909 13.0611 90.7866 7.84532 84.378C2.63496 78.0056 -0.148839 69.9242 0.00613908 61.6206C0.00613908 41.7403 5.34071 26.7799 16.0098 16.7394C26.679 6.69894 38.4894 1.14026 51.4411 0.0633604V21.8705C44.9143 22.5811 38.7354 25.2353 33.6712 29.5038C31.065 31.497 28.9181 34.0501 27.3816 36.9834C25.8452 39.9166 24.9566 43.1585 24.7786 46.4807C26.9296 45.4097 29.2957 44.8674 31.6882 44.8971C39.4241 44.8971 45.4352 47.1406 49.7214 51.6277C51.8866 53.9773 53.5706 56.7454 54.6747 59.7696C55.7788 62.7937 56.2807 66.0129 56.1508 69.2381ZM121.994 69.2381C122.01 72.5414 121.326 75.8091 119.989 78.8163C118.652 81.8236 116.693 84.499 114.248 86.6585C109.005 91.5483 102.116 94.1758 95.0214 93.9909C86.0358 93.9909 78.9815 90.7866 73.8587 84.378C68.711 77.9754 65.9646 69.9067 66.1124 61.6206C66.1124 41.7403 71.3902 26.7799 81.9457 16.7394C92.5013 6.69894 104.296 1.11913 117.331 0V21.8071C110.818 22.5452 104.661 25.2214 99.6226 29.5038C96.9969 31.4852 94.8306 34.0336 93.2775 36.9678C91.7245 39.902 90.8229 43.15 90.637 46.4807C92.7824 45.4093 95.1436 44.8669 97.5312 44.8971C105.257 44.8971 111.268 47.1406 115.564 51.6277C117.73 53.9765 119.413 56.7449 120.514 59.7695C121.616 62.7941 122.114 66.0136 121.978 69.2381H121.994Z" fill="#F3F5F7" fill-opacity="0.25"/>
</svg>
