<svg width="55" height="50" viewBox="0 0 55 50" fill="none" xmlns="http://www.w3.org/2000/svg">
<g clip-path="url(#clip0_4013_64092)">
<path d="M12.591 8.78196C12.4972 8.65879 12.3762 8.55895 12.2374 8.49022C12.0987 8.4215 11.9459 8.38574 11.7911 8.38574C11.6363 8.38574 11.4835 8.4215 11.3448 8.49022C11.206 8.55895 11.085 8.65879 10.9912 8.78196L3.72786 19.4317C3.62864 19.5773 3.57099 19.7471 3.5611 19.9229C3.55121 20.0988 3.58946 20.274 3.67173 20.4298C3.754 20.5855 3.87718 20.7158 4.02801 20.8068C4.17885 20.8977 4.35162 20.9458 4.52776 20.9459H19.0538C19.23 20.946 19.4028 20.8979 19.5538 20.807C19.7047 20.7161 19.828 20.5858 19.9103 20.43C19.9927 20.2743 20.031 20.099 20.0211 19.9231C20.0112 19.7472 19.9536 19.5773 19.8543 19.4317L12.591 8.78196ZM6.36305 19.0114L11.7937 11.0461L17.2217 19.0114H6.36305Z" fill="url(#paint0_linear_4013_64092)"/>
<path d="M21.959 20.9486H36.4851C36.6612 20.9485 36.834 20.9004 36.9848 20.8095C37.1357 20.7185 37.2588 20.5882 37.3411 20.4324C37.4234 20.2767 37.4616 20.1015 37.4517 19.9256C37.4418 19.7498 37.3842 19.5799 37.285 19.4344L30.019 8.78202C29.9302 8.6517 29.8108 8.54506 29.6714 8.47136C29.5319 8.39766 29.3766 8.35913 29.2188 8.35913C29.0611 8.35913 28.9057 8.39766 28.7663 8.47136C28.6268 8.54506 28.5075 8.6517 28.4186 8.78202L21.1527 19.4344C21.0534 19.5799 20.9958 19.7498 20.9859 19.9256C20.976 20.1015 21.0143 20.2767 21.0965 20.4324C21.1788 20.5882 21.302 20.7185 21.4528 20.8095C21.6037 20.9004 21.7764 20.9485 21.9526 20.9486H21.959ZM29.225 11.0468L34.655 19.0114H23.7911L29.225 11.0468Z" fill="url(#paint1_linear_4013_64092)"/>
<path d="M39.39 20.9485H53.9161C54.0922 20.9484 54.265 20.9003 54.4158 20.8094C54.5666 20.7184 54.6898 20.5881 54.7721 20.4324C54.8544 20.2766 54.8926 20.1014 54.8827 19.9255C54.8728 19.7497 54.8152 19.5799 54.716 19.4343L47.45 8.78196C47.3562 8.65879 47.2352 8.55895 47.0965 8.49022C46.9577 8.4215 46.805 8.38574 46.6501 8.38574C46.4953 8.38574 46.3426 8.4215 46.2038 8.49022C46.0651 8.55895 45.9441 8.65879 45.8502 8.78196L38.5843 19.4343C38.4851 19.5799 38.4274 19.7497 38.4175 19.9255C38.4077 20.1014 38.4459 20.2766 38.5282 20.4324C38.6104 20.5881 38.7336 20.7184 38.8845 20.8094C39.0353 20.9003 39.2081 20.9484 39.3842 20.9485H39.39ZM46.656 11.0467L52.086 19.0114H41.2227L46.656 11.0467Z" fill="url(#paint2_linear_4013_64092)"/>
<path d="M12.591 23.3081C12.4972 23.1849 12.3762 23.0851 12.2374 23.0163C12.0987 22.9476 11.9459 22.9119 11.7911 22.9119C11.6363 22.9119 11.4835 22.9476 11.3448 23.0163C11.206 23.0851 11.085 23.1849 10.9912 23.3081L3.72786 33.9579C3.62864 34.1034 3.57099 34.2732 3.5611 34.4491C3.55121 34.6249 3.58946 34.8001 3.67173 34.9559C3.754 35.1116 3.87718 35.242 4.02801 35.3329C4.17885 35.4239 4.35162 35.472 4.52776 35.472H19.0538C19.2299 35.472 19.4027 35.4239 19.5535 35.3329C19.7044 35.242 19.8275 35.1116 19.9098 34.9559C19.9921 34.8001 20.0303 34.6249 20.0204 34.4491C20.0106 34.2732 19.9529 34.1034 19.8537 33.9579L12.591 23.3081ZM6.36305 33.5375L11.7937 25.5722L17.2243 33.5375H6.36305Z" fill="url(#paint3_linear_4013_64092)"/>
<path d="M21.959 35.474H36.4851C36.6612 35.4739 36.834 35.4258 36.9848 35.3348C37.1357 35.2439 37.2588 35.1135 37.3411 34.9578C37.4234 34.8021 37.4616 34.6268 37.4517 34.451C37.4418 34.2751 37.3842 34.1053 37.285 33.9598L30.019 23.3074C29.9302 23.1771 29.8108 23.0704 29.6714 22.9967C29.5319 22.923 29.3766 22.8845 29.2188 22.8845C29.0611 22.8845 28.9057 22.923 28.7663 22.9967C28.6268 23.0704 28.5075 23.1771 28.4186 23.3074L21.1527 33.9598C21.0534 34.1053 20.9958 34.2751 20.9859 34.451C20.976 34.6268 21.0143 34.8021 21.0965 34.9578C21.1788 35.1135 21.302 35.2439 21.4528 35.3348C21.6037 35.4258 21.7764 35.4739 21.9526 35.474H21.959ZM29.225 25.5722L34.655 33.5375H23.7911L29.225 25.5722Z" fill="url(#paint4_linear_4013_64092)"/>
<path d="M47.4539 23.3081C47.3601 23.1849 47.2391 23.0851 47.1004 23.0163C46.9616 22.9476 46.8089 22.9119 46.654 22.9119C46.4992 22.9119 46.3465 22.9476 46.2077 23.0163C46.069 23.0851 45.948 23.1849 45.8541 23.3081L38.5882 33.9605C38.489 34.106 38.4313 34.2758 38.4215 34.4517C38.4116 34.6275 38.4498 34.8027 38.5321 34.9585C38.6144 35.1142 38.7375 35.2446 38.8884 35.3355C39.0392 35.4265 39.212 35.4746 39.3881 35.4746H53.9141C54.0903 35.4746 54.263 35.4265 54.4139 35.3355C54.5647 35.2446 54.6879 35.1142 54.7702 34.9585C54.8524 34.8027 54.8907 34.6275 54.8808 34.4517C54.8709 34.2758 54.8132 34.106 54.714 33.9605L47.4539 23.3081ZM41.226 33.5375L46.656 25.5722L52.086 33.5375H41.226Z" fill="url(#paint5_linear_4013_64092)"/>
<path d="M12.591 37.8335C12.4972 37.7103 12.3762 37.6105 12.2374 37.5417C12.0987 37.473 11.9459 37.4373 11.7911 37.4373C11.6363 37.4373 11.4835 37.473 11.3448 37.5417C11.206 37.6105 11.085 37.7103 10.9912 37.8335L3.72786 48.4832C3.62864 48.6288 3.57099 48.7986 3.5611 48.9745C3.55121 49.1503 3.58946 49.3255 3.67173 49.4813C3.754 49.637 3.87718 49.7674 4.02801 49.8583C4.17885 49.9493 4.35162 49.9973 4.52776 49.9974H19.0538C19.2299 49.9973 19.4027 49.9493 19.5535 49.8583C19.7044 49.7674 19.8275 49.637 19.9098 49.4813C19.9921 49.3255 20.0303 49.1503 20.0204 48.9745C20.0106 48.7986 19.9529 48.6288 19.8537 48.4832L12.591 37.8335ZM6.36305 48.0629L11.7937 40.0982L17.2243 48.0629H6.36305Z" fill="url(#paint6_linear_4013_64092)"/>
<path d="M30.023 37.834C29.9341 37.7037 29.8147 37.597 29.6753 37.5233C29.5358 37.4496 29.3805 37.4111 29.2227 37.4111C29.065 37.4111 28.9096 37.4496 28.7702 37.5233C28.6307 37.597 28.5114 37.7037 28.4225 37.834L21.1566 48.4864C21.0574 48.6319 20.9997 48.8018 20.9898 48.9776C20.9799 49.1535 21.0182 49.3287 21.1004 49.4844C21.1827 49.6401 21.3059 49.7705 21.4567 49.8614C21.6076 49.9524 21.7803 50.0005 21.9565 50.0006H36.4825C36.6586 50.0005 36.8314 49.9524 36.9822 49.8614C37.1331 49.7705 37.2562 49.6401 37.3385 49.4844C37.4208 49.3287 37.459 49.1535 37.4491 48.9776C37.4393 48.8018 37.3816 48.6319 37.2824 48.4864L30.023 37.834ZM23.795 48.0634L29.2263 40.0988L34.6563 48.0634H23.795Z" fill="url(#paint7_linear_4013_64092)"/>
<path d="M47.4539 37.8335C47.3601 37.7103 47.2391 37.6105 47.1004 37.5417C46.9616 37.473 46.8089 37.4373 46.654 37.4373C46.4992 37.4373 46.3465 37.473 46.2077 37.5417C46.069 37.6105 45.948 37.7103 45.8541 37.8335L38.5882 48.4859C38.489 48.6314 38.4313 48.8012 38.4215 48.9771C38.4116 49.1529 38.4498 49.3281 38.5321 49.4839C38.6144 49.6396 38.7375 49.77 38.8884 49.8609C39.0392 49.9518 39.212 49.9999 39.3881 50H53.9141C54.0903 49.9999 54.263 49.9518 54.4139 49.8609C54.5647 49.77 54.6879 49.6396 54.7702 49.4839C54.8524 49.3281 54.8907 49.1529 54.8808 48.9771C54.8709 48.8012 54.8132 48.6314 54.714 48.4859L47.4539 37.8335ZM41.226 48.0629L46.656 40.0982L52.086 48.0629H41.226Z" fill="url(#paint8_linear_4013_64092)"/>
<path d="M17.5593 4.13001C17.7761 4.13001 17.9881 4.06571 18.1684 3.94524C18.3487 3.82477 18.4892 3.65354 18.5722 3.4532C18.6552 3.25286 18.6769 3.03242 18.6346 2.81974C18.5923 2.60706 18.4879 2.41171 18.3345 2.25838C18.1812 2.10505 17.9858 2.00063 17.7732 1.95832C17.5605 1.91602 17.34 1.93773 17.1397 2.02071C16.9394 2.10369 16.7681 2.24422 16.6477 2.42452C16.5272 2.60482 16.4629 2.81679 16.4629 3.03363C16.4631 3.32436 16.5786 3.60312 16.7842 3.8087C16.9898 4.01427 17.2685 4.12984 17.5593 4.13001Z" fill="url(#paint9_linear_4013_64092)"/>
<path d="M7.87567 2.19349C8.09251 2.19349 8.30449 2.12919 8.48479 2.00871C8.66509 1.88824 8.80561 1.71701 8.88859 1.51667C8.97157 1.31634 8.99329 1.09589 8.95098 0.883218C8.90868 0.670541 8.80426 0.475186 8.65093 0.321855C8.4976 0.168524 8.30224 0.0641038 8.08956 0.0217999C7.87689 -0.0205041 7.65644 0.00120641 7.4561 0.0841886C7.25577 0.167171 7.08454 0.307697 6.96407 0.487996C6.8436 0.668294 6.7793 0.880266 6.7793 1.09711C6.77947 1.38783 6.89503 1.6666 7.10061 1.87217C7.30618 2.07775 7.58495 2.19332 7.87567 2.19349Z" fill="url(#paint10_linear_4013_64092)"/>
<path d="M1.09638 23.2412C0.879536 23.2412 0.667561 23.3055 0.487263 23.426C0.306965 23.5465 0.166438 23.7177 0.0834562 23.918C0.000473985 24.1184 -0.0212365 24.3388 0.0210674 24.5515C0.0633714 24.7642 0.167791 24.9595 0.321122 25.1128C0.474454 25.2662 0.669809 25.3706 0.882485 25.4129C1.09516 25.4552 1.31561 25.4335 1.51594 25.3505C1.71628 25.2675 1.88751 25.127 2.00798 24.9467C2.12845 24.7664 2.19276 24.5544 2.19276 24.3376C2.19258 24.0469 2.07702 23.7681 1.87144 23.5625C1.66587 23.357 1.3871 23.2414 1.09638 23.2412Z" fill="url(#paint11_linear_4013_64092)"/>
<path d="M38.9926 39.8315C38.9926 39.6146 38.9283 39.4027 38.8078 39.2224C38.6873 39.0421 38.5161 38.9015 38.3157 38.8186C38.1154 38.7356 37.895 38.7139 37.6823 38.7562C37.4696 38.7985 37.2743 38.9029 37.1209 39.0562C36.9676 39.2096 36.8632 39.4049 36.8209 39.6176C36.7786 39.8303 36.8003 40.0507 36.8833 40.251C36.9662 40.4514 37.1068 40.6226 37.2871 40.7431C37.4674 40.8636 37.6793 40.9279 37.8962 40.9279C38.187 40.9279 38.4658 40.8124 38.6714 40.6067C38.877 40.4011 38.9926 40.1223 38.9926 39.8315Z" fill="url(#paint12_linear_4013_64092)"/>
</g>
<defs>
<linearGradient id="paint0_linear_4013_64092" x1="11.7911" y1="8.38574" x2="11.7911" y2="20.9459" gradientUnits="userSpaceOnUse">
<stop stop-color="#5E75E8"/>
<stop offset="1" stop-color="#DA88DE"/>
</linearGradient>
<linearGradient id="paint1_linear_4013_64092" x1="29.2188" y1="8.35913" x2="29.2188" y2="20.9486" gradientUnits="userSpaceOnUse">
<stop stop-color="#5E75E8"/>
<stop offset="1" stop-color="#DA88DE"/>
</linearGradient>
<linearGradient id="paint2_linear_4013_64092" x1="46.6501" y1="8.38574" x2="46.6501" y2="20.9485" gradientUnits="userSpaceOnUse">
<stop stop-color="#5E75E8"/>
<stop offset="1" stop-color="#DA88DE"/>
</linearGradient>
<linearGradient id="paint3_linear_4013_64092" x1="11.7908" y1="22.9119" x2="11.7908" y2="35.472" gradientUnits="userSpaceOnUse">
<stop stop-color="#5E75E8"/>
<stop offset="1" stop-color="#DA88DE"/>
</linearGradient>
<linearGradient id="paint4_linear_4013_64092" x1="29.2188" y1="22.8845" x2="29.2188" y2="35.474" gradientUnits="userSpaceOnUse">
<stop stop-color="#5E75E8"/>
<stop offset="1" stop-color="#DA88DE"/>
</linearGradient>
<linearGradient id="paint5_linear_4013_64092" x1="46.6511" y1="22.9119" x2="46.6511" y2="35.4746" gradientUnits="userSpaceOnUse">
<stop stop-color="#5E75E8"/>
<stop offset="1" stop-color="#DA88DE"/>
</linearGradient>
<linearGradient id="paint6_linear_4013_64092" x1="11.7908" y1="37.4373" x2="11.7908" y2="49.9974" gradientUnits="userSpaceOnUse">
<stop stop-color="#5E75E8"/>
<stop offset="1" stop-color="#DA88DE"/>
</linearGradient>
<linearGradient id="paint7_linear_4013_64092" x1="29.2195" y1="37.4111" x2="29.2195" y2="50.0006" gradientUnits="userSpaceOnUse">
<stop stop-color="#5E75E8"/>
<stop offset="1" stop-color="#DA88DE"/>
</linearGradient>
<linearGradient id="paint8_linear_4013_64092" x1="46.6511" y1="37.4373" x2="46.6511" y2="50" gradientUnits="userSpaceOnUse">
<stop stop-color="#5E75E8"/>
<stop offset="1" stop-color="#DA88DE"/>
</linearGradient>
<linearGradient id="paint9_linear_4013_64092" x1="17.5593" y1="1.93726" x2="17.5593" y2="4.13001" gradientUnits="userSpaceOnUse">
<stop stop-color="#5E75E8"/>
<stop offset="1" stop-color="#DA88DE"/>
</linearGradient>
<linearGradient id="paint10_linear_4013_64092" x1="7.87567" y1="0.000732422" x2="7.87567" y2="2.19349" gradientUnits="userSpaceOnUse">
<stop stop-color="#5E75E8"/>
<stop offset="1" stop-color="#DA88DE"/>
</linearGradient>
<linearGradient id="paint11_linear_4013_64092" x1="1.09638" y1="23.2412" x2="1.09638" y2="25.434" gradientUnits="userSpaceOnUse">
<stop stop-color="#5E75E8"/>
<stop offset="1" stop-color="#DA88DE"/>
</linearGradient>
<linearGradient id="paint12_linear_4013_64092" x1="37.8962" y1="38.7351" x2="37.8962" y2="40.9279" gradientUnits="userSpaceOnUse">
<stop stop-color="#5E75E8"/>
<stop offset="1" stop-color="#DA88DE"/>
</linearGradient>
<clipPath id="clip0_4013_64092">
<rect width="54.885" height="50" fill="white"/>
</clipPath>
</defs>
</svg>
