<svg width="52" height="50" viewBox="0 0 52 50" fill="none" xmlns="http://www.w3.org/2000/svg">
<g clip-path="url(#clip0_4013_63433)">
<path d="M51.6724 45.9739C51.7499 45.8357 51.7893 45.6795 51.7866 45.5211C51.7839 45.3627 51.7391 45.2078 51.6569 45.0724L26.6569 4.00056C26.5718 3.87691 26.4579 3.7758 26.325 3.70595C26.1921 3.6361 26.0442 3.59961 25.8941 3.59961C25.744 3.59961 25.5961 3.6361 25.4632 3.70595C25.3303 3.7758 25.2164 3.87691 25.1312 4.00056L0.13001 45.0731C0.0472461 45.2085 0.00208317 45.3635 -0.000826497 45.5222C-0.00373616 45.6809 0.0357132 45.8375 0.113457 45.9759C0.1912 46.1143 0.304428 46.2294 0.441477 46.3095C0.578526 46.3896 0.73444 46.4316 0.893161 46.4314H50.8938C51.0525 46.4312 51.2083 46.3887 51.3451 46.3083C51.482 46.2279 51.5949 46.1124 51.6724 45.9739ZM25.8938 43.819L14.9824 25.8936H36.8045L25.8938 43.819ZM25.8938 6.18197L36.8051 24.108H14.9818L25.8938 6.18197ZM2.48183 44.6408L13.3932 26.7179L24.3051 44.6408H2.48183ZM27.4818 44.6408L38.3938 26.7179L49.3051 44.6408H27.4818Z" fill="url(#paint0_linear_4013_63433)"/>
<path d="M35.7148 7.14348C36.4211 7.14348 37.1115 6.93405 37.6988 6.54166C38.2861 6.14927 38.7438 5.59156 39.0142 4.93903C39.2845 4.28651 39.3552 3.56848 39.2175 2.87574C39.0797 2.183 38.7397 1.54666 38.2403 1.04719C37.7409 0.547718 37.1046 0.207541 36.4119 0.0696738C35.7192 -0.0681934 35.0012 0.00244206 34.3486 0.272647C33.696 0.542852 33.1382 1.00049 32.7457 1.5877C32.3532 2.17491 32.1437 2.86531 32.1436 3.57161C32.1445 4.51852 32.5211 5.42638 33.1906 6.096C33.8601 6.76563 34.7679 7.14234 35.7148 7.14348ZM35.7148 1.78661C36.068 1.78661 36.4132 1.89133 36.7069 2.08754C37.0005 2.28374 37.2294 2.56262 37.3645 2.8889C37.4997 3.21518 37.535 3.57421 37.4661 3.92059C37.3972 4.26697 37.2272 4.58513 36.9774 4.83486C36.7277 5.08458 36.4095 5.25465 36.0632 5.32354C35.7168 5.39244 35.3578 5.35708 35.0315 5.22193C34.7052 5.08678 34.4263 4.85792 34.2301 4.56427C34.0339 4.27063 33.9292 3.92539 33.9292 3.57223C33.9303 3.09895 34.1188 2.64536 34.4534 2.31064C34.788 1.97592 35.2415 1.78729 35.7148 1.78599V1.78661Z" fill="url(#paint1_linear_4013_63433)"/>
<path d="M45.983 5.02956C46.1831 5.02956 46.3787 4.97023 46.545 4.85907C46.7113 4.74791 46.8409 4.58992 46.9175 4.40509C46.994 4.22025 47.014 4.01687 46.9749 3.82066C46.9358 3.62446 46.8395 3.44426 46.698 3.30284C46.5565 3.16142 46.3762 3.06515 46.18 3.02619C45.9837 2.98724 45.7804 3.00736 45.5956 3.084C45.4108 3.16064 45.2529 3.29037 45.1418 3.45677C45.0308 3.62316 44.9716 3.81876 44.9717 4.01882C44.9718 4.28694 45.0785 4.54402 45.2681 4.73356C45.4578 4.92309 45.7149 5.02956 45.983 5.02956Z" fill="url(#paint2_linear_4013_63433)"/>
<path d="M43.3043 13.0647C43.5044 13.0647 43.6999 13.0054 43.8663 12.8942C44.0326 12.7831 44.1622 12.6251 44.2388 12.4402C44.3153 12.2554 44.3353 12.052 44.2962 11.8558C44.2571 11.6596 44.1608 11.4794 44.0192 11.338C43.8777 11.1966 43.6975 11.1003 43.5013 11.0614C43.305 11.0224 43.1017 11.0425 42.9169 11.1192C42.7321 11.1958 42.5742 11.3255 42.4631 11.4919C42.3521 11.6583 42.2928 11.8539 42.293 12.054C42.2931 12.3221 42.3998 12.5792 42.5894 12.7687C42.7791 12.9582 43.0362 13.0647 43.3043 13.0647Z" fill="url(#paint3_linear_4013_63433)"/>
<path d="M2.67844 48.2148H0.892812C0.656024 48.2148 0.428933 48.3089 0.261498 48.4763C0.0940636 48.6438 0 48.8709 0 49.1077C0 49.3444 0.0940636 49.5715 0.261498 49.739C0.428933 49.9064 0.656024 50.0005 0.892812 50.0005H2.67844C2.91523 50.0005 3.14232 49.9064 3.30975 49.739C3.47719 49.5715 3.57125 49.3444 3.57125 49.1077C3.57125 48.8709 3.47719 48.6438 3.30975 48.4763C3.14232 48.3089 2.91523 48.2148 2.67844 48.2148Z" fill="url(#paint4_linear_4013_63433)"/>
<path d="M9.82149 48.2148H6.25023C6.01345 48.2148 5.78636 48.3089 5.61892 48.4763C5.45149 48.6438 5.35742 48.8709 5.35742 49.1077C5.35742 49.3444 5.45149 49.5715 5.61892 49.739C5.78636 49.9064 6.01345 50.0005 6.25023 50.0005H9.82149C10.0583 50.0005 10.2854 49.9064 10.4528 49.739C10.6202 49.5715 10.7143 49.3444 10.7143 49.1077C10.7143 48.8709 10.6202 48.6438 10.4528 48.4763C10.2854 48.3089 10.0583 48.2148 9.82149 48.2148Z" fill="url(#paint5_linear_4013_63433)"/>
<path d="M38.3928 48.2148H34.8215C34.5847 48.2148 34.3576 48.3089 34.1902 48.4763C34.0228 48.6438 33.9287 48.8709 33.9287 49.1077C33.9287 49.3444 34.0228 49.5715 34.1902 49.739C34.3576 49.9064 34.5847 50.0005 34.8215 50.0005H38.3928C38.6296 50.0005 38.8567 49.9064 39.0241 49.739C39.1915 49.5715 39.2856 49.3444 39.2856 49.1077C39.2856 48.8709 39.1915 48.6438 39.0241 48.4763C38.8567 48.3089 38.6296 48.2148 38.3928 48.2148Z" fill="url(#paint6_linear_4013_63433)"/>
<path d="M31.2502 48.2148H27.6789C27.4422 48.2148 27.2151 48.3089 27.0476 48.4763C26.8802 48.6438 26.7861 48.8709 26.7861 49.1077C26.7861 49.3444 26.8802 49.5715 27.0476 49.739C27.2151 49.9064 27.4422 50.0005 27.6789 50.0005H31.2502C31.487 50.0005 31.7141 49.9064 31.8815 49.739C32.0489 49.5715 32.143 49.3444 32.143 49.1077C32.143 48.8709 32.0489 48.6438 31.8815 48.4763C31.7141 48.3089 31.487 48.2148 31.2502 48.2148Z" fill="url(#paint7_linear_4013_63433)"/>
<path d="M45.5363 48.2148H41.9651C41.7283 48.2148 41.5012 48.3089 41.3338 48.4763C41.1663 48.6438 41.0723 48.8709 41.0723 49.1077C41.0723 49.3444 41.1663 49.5715 41.3338 49.739C41.5012 49.9064 41.7283 50.0005 41.9651 50.0005H45.5363C45.7731 50.0005 46.0002 49.9064 46.1676 49.739C46.3351 49.5715 46.4291 49.3444 46.4291 49.1077C46.4291 48.8709 46.3351 48.6438 46.1676 48.4763C46.0002 48.3089 45.7731 48.2148 45.5363 48.2148Z" fill="url(#paint8_linear_4013_63433)"/>
<path d="M16.9641 48.2148H13.3928C13.156 48.2148 12.9289 48.3089 12.7615 48.4763C12.5941 48.6438 12.5 48.8709 12.5 49.1077C12.5 49.3444 12.5941 49.5715 12.7615 49.739C12.9289 49.9064 13.156 50.0005 13.3928 50.0005H16.9641C17.2009 50.0005 17.4279 49.9064 17.5954 49.739C17.7628 49.5715 17.8569 49.3444 17.8569 49.1077C17.8569 48.8709 17.7628 48.6438 17.5954 48.4763C17.4279 48.3089 17.2009 48.2148 16.9641 48.2148Z" fill="url(#paint9_linear_4013_63433)"/>
<path d="M24.1076 48.2148H20.5364C20.2996 48.2148 20.0725 48.3089 19.9051 48.4763C19.7376 48.6438 19.6436 48.8709 19.6436 49.1077C19.6436 49.3444 19.7376 49.5715 19.9051 49.739C20.0725 49.9064 20.2996 50.0005 20.5364 50.0005H24.1076C24.3444 50.0005 24.5715 49.9064 24.7389 49.739C24.9064 49.5715 25.0004 49.3444 25.0004 49.1077C25.0004 48.8709 24.9064 48.6438 24.7389 48.4763C24.5715 48.3089 24.3444 48.2148 24.1076 48.2148Z" fill="url(#paint10_linear_4013_63433)"/>
<path d="M50.8933 48.2148H49.1077C48.8709 48.2148 48.6438 48.3089 48.4763 48.4763C48.3089 48.6438 48.2148 48.8709 48.2148 49.1077C48.2148 49.3444 48.3089 49.5715 48.4763 49.739C48.6438 49.9064 48.8709 50.0005 49.1077 50.0005H50.8933C51.1301 50.0005 51.3572 49.9064 51.5246 49.739C51.692 49.5715 51.7861 49.3444 51.7861 49.1077C51.7861 48.8709 51.692 48.6438 51.5246 48.4763C51.3572 48.3089 51.1301 48.2148 50.8933 48.2148Z" fill="url(#paint11_linear_4013_63433)"/>
</g>
<defs>
<linearGradient id="paint0_linear_4013_63433" x1="25.8929" y1="3.59961" x2="25.8929" y2="46.4314" gradientUnits="userSpaceOnUse">
<stop stop-color="#5E75E8"/>
<stop offset="1" stop-color="#DA88DE"/>
</linearGradient>
<linearGradient id="paint1_linear_4013_63433" x1="35.7148" y1="0.000976562" x2="35.7148" y2="7.14348" gradientUnits="userSpaceOnUse">
<stop stop-color="#5E75E8"/>
<stop offset="1" stop-color="#DA88DE"/>
</linearGradient>
<linearGradient id="paint2_linear_4013_63433" x1="45.983" y1="3.00684" x2="45.983" y2="5.02956" gradientUnits="userSpaceOnUse">
<stop stop-color="#5E75E8"/>
<stop offset="1" stop-color="#DA88DE"/>
</linearGradient>
<linearGradient id="paint3_linear_4013_63433" x1="43.3043" y1="11.042" x2="43.3043" y2="13.0647" gradientUnits="userSpaceOnUse">
<stop stop-color="#5E75E8"/>
<stop offset="1" stop-color="#DA88DE"/>
</linearGradient>
<linearGradient id="paint4_linear_4013_63433" x1="1.78563" y1="48.2148" x2="1.78563" y2="50.0005" gradientUnits="userSpaceOnUse">
<stop stop-color="#5E75E8"/>
<stop offset="1" stop-color="#DA88DE"/>
</linearGradient>
<linearGradient id="paint5_linear_4013_63433" x1="8.03586" y1="48.2148" x2="8.03586" y2="50.0005" gradientUnits="userSpaceOnUse">
<stop stop-color="#5E75E8"/>
<stop offset="1" stop-color="#DA88DE"/>
</linearGradient>
<linearGradient id="paint6_linear_4013_63433" x1="36.6071" y1="48.2148" x2="36.6071" y2="50.0005" gradientUnits="userSpaceOnUse">
<stop stop-color="#5E75E8"/>
<stop offset="1" stop-color="#DA88DE"/>
</linearGradient>
<linearGradient id="paint7_linear_4013_63433" x1="29.4646" y1="48.2148" x2="29.4646" y2="50.0005" gradientUnits="userSpaceOnUse">
<stop stop-color="#5E75E8"/>
<stop offset="1" stop-color="#DA88DE"/>
</linearGradient>
<linearGradient id="paint8_linear_4013_63433" x1="43.7507" y1="48.2148" x2="43.7507" y2="50.0005" gradientUnits="userSpaceOnUse">
<stop stop-color="#5E75E8"/>
<stop offset="1" stop-color="#DA88DE"/>
</linearGradient>
<linearGradient id="paint9_linear_4013_63433" x1="15.1784" y1="48.2148" x2="15.1784" y2="50.0005" gradientUnits="userSpaceOnUse">
<stop stop-color="#5E75E8"/>
<stop offset="1" stop-color="#DA88DE"/>
</linearGradient>
<linearGradient id="paint10_linear_4013_63433" x1="22.322" y1="48.2148" x2="22.322" y2="50.0005" gradientUnits="userSpaceOnUse">
<stop stop-color="#5E75E8"/>
<stop offset="1" stop-color="#DA88DE"/>
</linearGradient>
<linearGradient id="paint11_linear_4013_63433" x1="50.0005" y1="48.2148" x2="50.0005" y2="50.0005" gradientUnits="userSpaceOnUse">
<stop stop-color="#5E75E8"/>
<stop offset="1" stop-color="#DA88DE"/>
</linearGradient>
<clipPath id="clip0_4013_63433">
<rect width="51.7862" height="50" fill="white"/>
</clipPath>
</defs>
</svg>
