<svg width="132" height="69" viewBox="0 0 132 69" fill="none" xmlns="http://www.w3.org/2000/svg">
<g clip-path="url(#clip0_3981_45308)">
<path d="M97.1841 0C97.1841 19.05 81.7441 34.48 62.7041 34.48C81.7441 34.48 97.1841 49.92 97.1841 68.96C97.1841 49.92 112.624 34.48 131.664 34.48C112.624 34.48 97.1841 19.04 97.1841 0Z" fill="url(#paint0_linear_3981_45308)"/>
<path d="M35.0142 0C35.0142 19.05 19.5742 34.48 0.53418 34.48C19.5742 34.48 35.0142 49.92 35.0142 68.96C35.0142 49.92 50.4542 34.48 69.4942 34.48C50.4542 34.48 35.0142 19.04 35.0142 0Z" fill="url(#paint1_linear_3981_45308)"/>
</g>
<defs>
<linearGradient id="paint0_linear_3981_45308" x1="97.1941" y1="26.47" x2="97.1941" y2="40.61" gradientUnits="userSpaceOnUse">
<stop stop-color="#FE9261"/>
<stop offset="1" stop-color="#7ED9DC"/>
</linearGradient>
<linearGradient id="paint1_linear_3981_45308" x1="35.0142" y1="68.96" x2="35.0142" y2="0" gradientUnits="userSpaceOnUse">
<stop stop-color="#FFE182"/>
<stop offset="0.52" stop-color="#FE9261"/>
<stop offset="0.99" stop-color="#7ED9DC"/>
</linearGradient>
<clipPath id="clip0_3981_45308">
<rect width="131.14" height="68.96" fill="white" transform="translate(0.53418)"/>
</clipPath>
</defs>
</svg>
