<svg width="561" height="351" viewBox="0 0 561 351" fill="none" xmlns="http://www.w3.org/2000/svg">
<path opacity="0.42" d="M511.93 167.19L492.41 209.13L415.23 291.26L320.56 204.92L224.87 279.39L112.37 108.45L406.54 84.04L499.4 173.1L343.58 185.78" stroke="#7F7F7F" stroke-miterlimit="10"/>
<path opacity="0.42" d="M146.769 102.1L220.089 60.5699L249.419 50.21L284.949 149.87L202.549 254.79L58.6094 276.51L94.6194 114.71L309.049 185.78L386.739 74.4399L391.949 66.98" stroke="#7F7F7F" stroke-miterlimit="10"/>
<path style="mix-blend-mode:multiply" d="M76.9203 335.04L34.7803 308.93L97.5303 285.89L127.67 306.17" fill="url(#paint0_linear_4092_26435)"/>
<path d="M97.5298 277.87V285.89C97.5298 287.91 96.0498 290.05 93.1598 291.71L90.4398 293.28L58.6098 311.66C53.3398 314.71 45.3498 315.04 40.7798 312.39L7.3198 293.07L3.3198 290.76C1.0998 289.47 0.0897959 287.72 0.249796 285.92V278.68C0.369796 279.93 1.06979 281.12 2.34979 282.11C2.64979 282.34 2.9598 282.56 3.3198 282.76L7.2698 285.03L7.3198 285.06L40.7798 304.37C45.3498 307.01 53.3398 306.69 58.6098 303.64L90.4398 285.26L91.3798 284.72L93.1598 283.69C94.0398 283.19 94.7798 282.64 95.3898 282.06C96.8098 280.74 97.5198 279.29 97.5198 277.87H97.5298Z" fill="#B7B7B7"/>
<path d="M97.5298 277.87C97.5298 279.29 96.8198 280.75 95.3998 282.06C94.7898 282.64 94.0398 283.19 93.1698 283.69L91.3898 284.72L90.4498 285.26L58.6198 303.64C53.3498 306.69 45.3598 307.02 40.7898 304.37L7.32977 285.06L7.27977 285.03L3.32977 282.76C2.96977 282.56 2.65977 282.34 2.35977 282.11C1.06977 281.12 0.379766 279.94 0.259766 278.68V277.9C0.329766 277.04 0.669768 276.18 1.26977 275.33C1.98977 274.3 3.11977 273.31 4.60977 272.45L7.32977 270.88L39.1598 252.5C44.4398 249.46 52.4198 249.12 56.9898 251.77L90.4498 271.09L94.4498 273.4C95.3598 273.92 96.0698 274.53 96.5798 275.18C97.2198 276.01 97.5398 276.92 97.5398 277.86L97.5298 277.87Z" fill="url(#paint1_linear_4092_26435)"/>
<path d="M97.5298 264.3V272.32C97.5298 274.34 96.0498 276.48 93.1598 278.14L90.4398 279.71L58.6098 298.09C53.3398 301.14 45.3498 301.47 40.7798 298.82L7.3198 279.5L3.3198 277.19C1.0998 275.9 0.0897959 274.15 0.249796 272.35V265.11C0.369796 266.36 1.06979 267.55 2.34979 268.54C2.64979 268.77 2.9598 268.99 3.3198 269.19L7.2698 271.46L7.3198 271.49L40.7798 290.8C45.3498 293.44 53.3398 293.12 58.6098 290.07L90.4398 271.69L91.3798 271.15L93.1598 270.12C94.0398 269.62 94.7798 269.07 95.3898 268.49C96.8098 267.17 97.5198 265.72 97.5198 264.3H97.5298Z" fill="#B7B7B7"/>
<path d="M97.5298 264.3C97.5298 265.72 96.8198 267.18 95.3998 268.49C94.7898 269.07 94.0398 269.62 93.1698 270.12L91.3898 271.15L90.4498 271.69L58.6198 290.07C53.3498 293.12 45.3598 293.45 40.7898 290.8L7.32977 271.49L7.27977 271.46L3.32977 269.19C2.96977 268.99 2.65977 268.77 2.35977 268.54C1.06977 267.55 0.379766 266.37 0.259766 265.11V264.33C0.329766 263.47 0.669768 262.61 1.26977 261.76C1.98977 260.73 3.11977 259.74 4.60977 258.88L7.32977 257.31L39.1598 238.93C44.4398 235.89 52.4198 235.55 56.9898 238.2L90.4498 257.52L94.4498 259.83C95.3598 260.35 96.0698 260.96 96.5798 261.61C97.2198 262.44 97.5398 263.35 97.5398 264.29L97.5298 264.3Z" fill="url(#paint2_linear_4092_26435)"/>
<path d="M97.5298 250.73V258.75C97.5298 260.77 96.0498 262.91 93.1598 264.57L90.4398 266.14L58.6098 284.52C53.3398 287.57 45.3498 287.9 40.7798 285.25L7.3198 265.93L3.3198 263.62C1.0998 262.33 0.0897959 260.58 0.249796 258.78V251.54C0.369796 252.79 1.06979 253.98 2.34979 254.97C2.64979 255.2 2.9598 255.42 3.3198 255.62L7.2698 257.89L7.3198 257.92L40.7798 277.23C45.3498 279.87 53.3398 279.55 58.6098 276.5L90.4398 258.12L91.3798 257.58L93.1598 256.55C94.0398 256.05 94.7798 255.5 95.3898 254.92C96.8098 253.6 97.5198 252.15 97.5198 250.73H97.5298Z" fill="#B7B7B7"/>
<path d="M97.5298 250.73C97.5298 252.15 96.8198 253.61 95.3998 254.92C94.7898 255.5 94.0398 256.05 93.1698 256.55L91.3898 257.58L90.4498 258.12L58.6198 276.5C53.3498 279.55 45.3598 279.88 40.7898 277.23L7.32977 257.92L7.27977 257.89L3.32977 255.62C2.96977 255.42 2.65977 255.2 2.35977 254.97C1.06977 253.98 0.379766 252.8 0.259766 251.54V250.76C0.329766 249.9 0.669768 249.04 1.26977 248.19C1.98977 247.16 3.11977 246.17 4.60977 245.31L7.32977 243.74L39.1598 225.36C44.4398 222.32 52.4198 221.98 56.9898 224.63L90.4498 243.95L94.4498 246.26C95.3598 246.78 96.0698 247.39 96.5798 248.04C97.2198 248.87 97.5398 249.78 97.5398 250.72L97.5298 250.73Z" fill="url(#paint3_linear_4092_26435)"/>
<path style="mix-blend-mode:multiply" d="M342.99 250.15L291.39 218.19L368.21 189.98L405.12 214.8" fill="url(#paint4_linear_4092_26435)"/>
<path d="M368.209 180.16V189.98C368.209 192.45 366.399 195.08 362.869 197.11L359.539 199.03L320.569 221.53C314.109 225.26 304.339 225.66 298.739 222.43L257.779 198.78L252.879 195.96C250.159 194.39 248.919 192.24 249.119 190.03V181.16C249.269 182.7 250.119 184.14 251.689 185.36C252.049 185.65 252.439 185.91 252.879 186.16L257.709 188.94L257.769 188.98L298.729 212.62C304.319 215.85 314.099 215.45 320.559 211.72L359.529 189.22L360.679 188.56L362.869 187.3C363.939 186.69 364.859 186.01 365.599 185.3C367.339 183.69 368.209 181.9 368.209 180.17V180.16Z" fill="#B7B7B7"/>
<path d="M368.209 180.16C368.209 181.9 367.339 183.68 365.599 185.29C364.849 186 363.939 186.68 362.869 187.29L360.679 188.55L359.529 189.21L320.559 211.71C314.099 215.44 304.329 215.84 298.729 212.61L257.769 188.97L257.709 188.93L252.879 186.15C252.439 185.9 252.059 185.64 251.689 185.35C250.119 184.14 249.269 182.69 249.119 181.15V180.2C249.209 179.15 249.619 178.09 250.359 177.05C251.249 175.79 252.619 174.58 254.439 173.53L257.769 171.61L296.739 149.11C303.209 145.39 312.969 144.98 318.569 148.21L359.529 171.86L364.429 174.68C365.539 175.32 366.419 176.07 367.039 176.87C367.829 177.88 368.209 179.01 368.209 180.15V180.16Z" fill="url(#paint5_linear_4092_26435)"/>
<path d="M368.209 163.55V173.37C368.209 175.84 366.399 178.47 362.869 180.5L359.539 182.42L320.569 204.92C314.109 208.65 304.339 209.05 298.739 205.82L257.779 182.17L252.879 179.35C250.159 177.78 248.919 175.63 249.119 173.42V164.55C249.269 166.09 250.119 167.53 251.689 168.75C252.049 169.04 252.439 169.3 252.879 169.55L257.709 172.33L257.769 172.37L298.729 196.01C304.319 199.24 314.099 198.84 320.559 195.11L359.529 172.61L360.679 171.95L362.869 170.69C363.939 170.08 364.859 169.4 365.599 168.69C367.339 167.08 368.209 165.29 368.209 163.56V163.55Z" fill="#B7B7B7"/>
<path d="M368.209 163.55C368.209 165.29 367.339 167.07 365.599 168.68C364.849 169.39 363.939 170.07 362.869 170.68L360.679 171.94L359.529 172.6L320.559 195.1C314.099 198.83 304.329 199.23 298.729 196L257.769 172.36L257.709 172.32L252.879 169.54C252.439 169.29 252.059 169.03 251.689 168.74C250.119 167.53 249.269 166.08 249.119 164.54V163.59C249.209 162.54 249.619 161.48 250.359 160.44C251.249 159.18 252.619 157.97 254.439 156.92L257.769 155L296.739 132.5C303.209 128.78 312.969 128.37 318.569 131.6L359.529 155.25L364.429 158.07C365.539 158.71 366.419 159.46 367.039 160.26C367.829 161.27 368.209 162.4 368.209 163.54V163.55Z" fill="url(#paint6_linear_4092_26435)"/>
<path d="M368.209 146.94V156.76C368.209 159.23 366.399 161.86 362.869 163.89L359.539 165.81L320.569 188.31C314.109 192.04 304.339 192.44 298.739 189.21L257.779 165.56L252.879 162.74C250.159 161.17 248.919 159.02 249.119 156.81V147.94C249.269 149.48 250.119 150.92 251.689 152.14C252.049 152.43 252.439 152.69 252.879 152.94L257.709 155.72L257.769 155.76L298.729 179.4C304.319 182.63 314.099 182.23 320.559 178.5L359.529 156L360.679 155.34L362.869 154.08C363.939 153.47 364.859 152.79 365.599 152.08C367.339 150.47 368.209 148.68 368.209 146.95V146.94Z" fill="#B7B7B7"/>
<path d="M368.209 146.94C368.209 148.68 367.339 150.46 365.599 152.07C364.849 152.78 363.939 153.46 362.869 154.07L360.679 155.33L359.529 155.99L320.559 178.49C314.099 182.22 304.329 182.62 298.729 179.39L257.769 155.75L257.709 155.71L252.879 152.93C252.439 152.68 252.059 152.42 251.689 152.13C250.119 150.92 249.269 149.47 249.119 147.93V146.98C249.209 145.93 249.619 144.87 250.359 143.83C251.249 142.57 252.619 141.36 254.439 140.31L257.769 138.39L296.739 115.89C303.209 112.17 312.969 111.76 318.569 114.99L359.529 138.64L364.429 141.46C365.539 142.1 366.419 142.85 367.039 143.65C367.829 144.66 368.209 145.79 368.209 146.93V146.94Z" fill="url(#paint7_linear_4092_26435)"/>
<path style="mix-blend-mode:multiply" d="M130.599 180.22L88.6494 154.23L151.119 131.29L181.129 151.48" fill="url(#paint8_linear_4092_26435)"/>
<path d="M151.119 123.31V131.29C151.119 133.3 149.649 135.43 146.769 137.09L144.059 138.65L112.369 156.95C107.119 159.99 99.1693 160.31 94.6193 157.68L61.3093 138.45L57.3293 136.16C55.1193 134.88 54.1093 133.13 54.2693 131.34V124.13C54.3893 125.38 55.0793 126.56 56.3593 127.54C56.6493 127.77 56.9693 127.99 57.3193 128.19L61.2493 130.45L61.2993 130.48L94.6093 149.7C99.1593 152.33 107.109 152.01 112.359 148.97L144.049 130.67L144.979 130.13L146.759 129.1C147.629 128.6 148.369 128.05 148.979 127.48C150.389 126.17 151.099 124.72 151.099 123.31H151.119Z" fill="#B7B7B7"/>
<path d="M151.119 123.31C151.119 124.72 150.409 126.17 148.999 127.48C148.389 128.06 147.649 128.61 146.779 129.1L144.999 130.13L144.069 130.67L112.379 148.97C107.129 152.01 99.1791 152.33 94.6291 149.7L61.3191 130.48L61.2691 130.45L57.3391 128.19C56.9791 127.99 56.6691 127.77 56.3791 127.54C55.0991 126.56 54.4091 125.38 54.2891 124.13V123.36C54.3591 122.51 54.6991 121.64 55.2991 120.8C56.0191 119.77 57.1391 118.79 58.6191 117.94L61.3291 116.38L93.0191 98.0799C98.2791 95.0499 106.219 94.7199 110.769 97.3499L144.079 116.58L148.059 118.87C148.959 119.39 149.669 120 150.179 120.65C150.819 121.47 151.129 122.39 151.129 123.32L151.119 123.31Z" fill="url(#paint9_linear_4092_26435)"/>
<path d="M151.119 109.8V117.78C151.119 119.79 149.649 121.92 146.769 123.58L144.059 125.14L112.369 143.44C107.119 146.48 99.1693 146.8 94.6193 144.17L61.3093 124.94L57.3293 122.65C55.1193 121.37 54.1093 119.62 54.2693 117.83V110.62C54.3893 111.87 55.0793 113.05 56.3593 114.03C56.6493 114.26 56.9693 114.48 57.3193 114.68L61.2493 116.94L61.2993 116.97L94.6093 136.19C99.1593 138.82 107.109 138.5 112.359 135.46L144.049 117.16L144.979 116.62L146.759 115.59C147.629 115.09 148.369 114.54 148.979 113.97C150.389 112.66 151.099 111.21 151.099 109.8H151.119Z" fill="#B7B7B7"/>
<path d="M151.119 109.8C151.119 111.21 150.409 112.66 148.999 113.97C148.389 114.55 147.649 115.1 146.779 115.59L144.999 116.62L144.069 117.16L112.379 135.46C107.129 138.5 99.1791 138.82 94.6291 136.19L61.3191 116.97L61.2691 116.94L57.3391 114.68C56.9791 114.48 56.6691 114.26 56.3791 114.03C55.0991 113.05 54.4091 111.87 54.2891 110.62V109.85C54.3591 109 54.6991 108.13 55.2991 107.29C56.0191 106.26 57.1391 105.28 58.6191 104.43L61.3291 102.87L93.0191 84.5699C98.2791 81.5399 106.219 81.2099 110.769 83.8399L144.079 103.07L148.059 105.36C148.959 105.88 149.669 106.49 150.179 107.14C150.819 107.96 151.129 108.88 151.129 109.81L151.119 109.8Z" fill="url(#paint10_linear_4092_26435)"/>
<path d="M151.119 96.29V104.27C151.119 106.28 149.649 108.41 146.769 110.07L144.059 111.63L112.369 129.93C107.119 132.97 99.1693 133.29 94.6193 130.66L61.3093 111.43L57.3293 109.14C55.1193 107.86 54.1093 106.11 54.2693 104.32V97.11C54.3893 98.36 55.0793 99.54 56.3593 100.52C56.6493 100.75 56.9693 100.97 57.3193 101.17L61.2493 103.43L61.2993 103.46L94.6093 122.68C99.1593 125.31 107.109 124.99 112.359 121.95L144.049 103.65L144.979 103.11L146.759 102.08C147.629 101.58 148.369 101.03 148.979 100.46C150.389 99.15 151.099 97.7 151.099 96.29H151.119Z" fill="#B7B7B7"/>
<path d="M151.119 96.2901C151.119 97.7001 150.409 99.15 148.999 100.46C148.389 101.04 147.649 101.59 146.779 102.08L144.999 103.11L144.069 103.65L112.379 121.95C107.129 124.99 99.1791 125.31 94.6291 122.68L61.3191 103.46L61.2691 103.43L57.3391 101.17C56.9791 100.97 56.6691 100.75 56.3791 100.52C55.0991 99.5401 54.4091 98.36 54.2891 97.11V96.34C54.3591 95.49 54.6991 94.6201 55.2991 93.7801C56.0191 92.7501 57.1391 91.7701 58.6191 90.9201L61.3291 89.36L93.0191 71.0601C98.2791 68.0301 106.219 67.7 110.769 70.33L144.079 89.5601L148.059 91.85C148.959 92.37 149.669 92.98 150.179 93.63C150.819 94.45 151.129 95.3701 151.129 96.3001L151.119 96.2901Z" fill="url(#paint11_linear_4092_26435)"/>
<path style="mix-blend-mode:multiply" d="M244.49 350.37L202.53 324.39L265 301.44L295.01 321.63" fill="url(#paint12_linear_4092_26435)"/>
<path d="M265 293.46V301.44C265 303.45 263.53 305.58 260.65 307.24L257.94 308.8L226.25 327.1C221 330.14 213.05 330.46 208.5 327.83L175.19 308.6L171.21 306.31C169 305.03 167.99 303.28 168.15 301.49V294.28C168.27 295.53 168.96 296.71 170.24 297.69C170.53 297.92 170.85 298.14 171.2 298.34L175.13 300.6L175.18 300.63L208.49 319.85C213.04 322.48 220.99 322.16 226.24 319.12L257.93 300.82L258.86 300.28L260.64 299.25C261.51 298.75 262.25 298.2 262.86 297.63C264.27 296.32 264.98 294.87 264.98 293.46H265Z" fill="#B7B7B7"/>
<path d="M265 293.46C265 294.87 264.29 296.32 262.88 297.63C262.27 298.21 261.53 298.76 260.66 299.25L258.88 300.28L257.95 300.82L226.26 319.12C221.01 322.16 213.06 322.48 208.51 319.85L175.2 300.63L175.15 300.6L171.22 298.34C170.86 298.14 170.55 297.92 170.26 297.69C168.98 296.71 168.29 295.53 168.17 294.28V293.51C168.24 292.66 168.58 291.79 169.18 290.95C169.9 289.92 171.02 288.94 172.5 288.09L175.21 286.53L206.9 268.23C212.16 265.2 220.1 264.87 224.65 267.5L257.96 286.73L261.94 289.02C262.84 289.54 263.55 290.15 264.06 290.8C264.7 291.62 265.01 292.54 265.01 293.47L265 293.46Z" fill="url(#paint13_linear_4092_26435)"/>
<path d="M265 279.95V287.93C265 289.94 263.53 292.07 260.65 293.73L257.94 295.29L226.25 313.59C221 316.63 213.05 316.95 208.5 314.32L175.19 295.09L171.21 292.8C169 291.52 167.99 289.77 168.15 287.98V280.77C168.27 282.02 168.96 283.2 170.24 284.18C170.53 284.41 170.85 284.63 171.2 284.83L175.13 287.09L175.18 287.12L208.49 306.34C213.04 308.97 220.99 308.65 226.24 305.61L257.93 287.31L258.86 286.77L260.64 285.74C261.51 285.24 262.25 284.69 262.86 284.12C264.27 282.81 264.98 281.36 264.98 279.95H265Z" fill="#B7B7B7"/>
<path d="M265 279.95C265 281.36 264.29 282.81 262.88 284.12C262.27 284.7 261.53 285.25 260.66 285.74L258.88 286.77L257.95 287.31L226.26 305.61C221.01 308.65 213.06 308.97 208.51 306.34L175.2 287.12L175.15 287.09L171.22 284.83C170.86 284.63 170.55 284.41 170.26 284.18C168.98 283.2 168.29 282.02 168.17 280.77V280C168.24 279.15 168.58 278.28 169.18 277.44C169.9 276.41 171.02 275.43 172.5 274.58L175.21 273.02L206.9 254.72C212.16 251.69 220.1 251.36 224.65 253.99L257.96 273.22L261.94 275.51C262.84 276.03 263.55 276.64 264.06 277.29C264.7 278.11 265.01 279.03 265.01 279.96L265 279.95Z" fill="url(#paint14_linear_4092_26435)"/>
<path d="M265 266.44V274.42C265 276.43 263.53 278.56 260.65 280.22L257.94 281.78L226.25 300.08C221 303.12 213.05 303.44 208.5 300.81L175.19 281.58L171.21 279.29C169 278.01 167.99 276.26 168.15 274.47V267.26C168.27 268.51 168.96 269.69 170.24 270.67C170.53 270.9 170.85 271.12 171.2 271.32L175.13 273.58L175.18 273.61L208.49 292.83C213.04 295.46 220.99 295.14 226.24 292.1L257.93 273.8L258.86 273.26L260.64 272.23C261.51 271.73 262.25 271.18 262.86 270.61C264.27 269.3 264.98 267.85 264.98 266.44H265Z" fill="#B7B7B7"/>
<path d="M265 266.44C265 267.85 264.29 269.3 262.88 270.61C262.27 271.19 261.53 271.74 260.66 272.23L258.88 273.26L257.95 273.8L226.26 292.1C221.01 295.14 213.06 295.46 208.51 292.83L175.2 273.61L175.15 273.58L171.22 271.32C170.86 271.12 170.55 270.9 170.26 270.67C168.98 269.69 168.29 268.51 168.17 267.26V266.49C168.24 265.64 168.58 264.77 169.18 263.93C169.9 262.9 171.02 261.92 172.5 261.07L175.21 259.51L206.9 241.21C212.16 238.18 220.1 237.85 224.65 240.48L257.96 259.71L261.94 262C262.84 262.52 263.55 263.13 264.06 263.78C264.7 264.6 265.01 265.52 265.01 266.45L265 266.44Z" fill="url(#paint15_linear_4092_26435)"/>
<path style="mix-blend-mode:multiply" d="M525.57 224.17L496.729 206.3L539.669 190.53L560.299 204.41" fill="url(#paint16_linear_4092_26435)"/>
<path d="M539.669 185.04V190.53C539.669 191.91 538.659 193.38 536.679 194.52L534.819 195.6L513.029 208.18C509.419 210.27 503.959 210.49 500.829 208.68L477.929 195.46L475.189 193.88C473.669 193 472.979 191.8 473.089 190.56V185.6C473.169 186.46 473.649 187.27 474.529 187.95C474.729 188.11 474.949 188.26 475.189 188.4L477.889 189.96L477.919 189.98L500.819 203.19C503.949 205 509.409 204.77 513.019 202.69L534.809 190.11L535.449 189.74L536.669 189.03C537.269 188.69 537.779 188.31 538.199 187.91C539.169 187.01 539.659 186.01 539.659 185.04H539.669Z" fill="#B7B7B7"/>
<path d="M539.67 185.04C539.67 186.01 539.18 187.01 538.21 187.91C537.79 188.31 537.28 188.68 536.68 189.03L535.46 189.74L534.82 190.11L513.03 202.69C509.42 204.78 503.96 205 500.83 203.19L477.93 189.98L477.9 189.96L475.2 188.4C474.96 188.26 474.74 188.11 474.54 187.95C473.66 187.27 473.19 186.46 473.1 185.6V185.07C473.15 184.48 473.38 183.89 473.79 183.31C474.29 182.6 475.05 181.93 476.07 181.34L477.93 180.26L499.72 167.68C503.34 165.6 508.79 165.37 511.92 167.18L534.82 180.4L537.56 181.98C538.18 182.34 538.67 182.75 539.02 183.2C539.46 183.77 539.68 184.39 539.68 185.04H539.67Z" fill="url(#paint17_linear_4092_26435)"/>
<path d="M539.669 175.76V181.25C539.669 182.63 538.659 184.1 536.679 185.24L534.819 186.32L513.029 198.9C509.419 200.99 503.959 201.21 500.829 199.4L477.929 186.18L475.189 184.6C473.669 183.72 472.979 182.52 473.089 181.28V176.32C473.169 177.18 473.649 177.99 474.529 178.67C474.729 178.83 474.949 178.98 475.189 179.12L477.889 180.68L477.919 180.7L500.819 193.91C503.949 195.72 509.409 195.49 513.019 193.41L534.809 180.83L535.449 180.46L536.669 179.75C537.269 179.41 537.779 179.03 538.199 178.63C539.169 177.73 539.659 176.73 539.659 175.76H539.669Z" fill="#B7B7B7"/>
<path d="M539.67 175.76C539.67 176.73 539.18 177.73 538.21 178.63C537.79 179.03 537.28 179.4 536.68 179.75L535.46 180.46L534.82 180.83L513.03 193.41C509.42 195.5 503.96 195.72 500.83 193.91L477.93 180.7L477.9 180.68L475.2 179.12C474.96 178.98 474.74 178.83 474.54 178.67C473.66 177.99 473.19 177.18 473.1 176.32V175.79C473.15 175.2 473.38 174.61 473.79 174.03C474.29 173.32 475.05 172.65 476.07 172.06L477.93 170.98L499.72 158.4C503.34 156.32 508.79 156.09 511.92 157.9L534.82 171.12L537.56 172.7C538.18 173.06 538.67 173.47 539.02 173.92C539.46 174.49 539.68 175.11 539.68 175.76H539.67Z" fill="url(#paint18_linear_4092_26435)"/>
<path d="M539.669 166.47V171.96C539.669 173.34 538.659 174.81 536.679 175.95L534.819 177.03L513.029 189.61C509.419 191.7 503.959 191.92 500.829 190.11L477.929 176.89L475.189 175.31C473.669 174.43 472.979 173.23 473.089 171.99V167.03C473.169 167.89 473.649 168.7 474.529 169.38C474.729 169.54 474.949 169.69 475.189 169.83L477.889 171.39L477.919 171.41L500.819 184.62C503.949 186.43 509.409 186.2 513.019 184.12L534.809 171.54L535.449 171.17L536.669 170.46C537.269 170.12 537.779 169.74 538.199 169.34C539.169 168.44 539.659 167.44 539.659 166.47H539.669Z" fill="#B7B7B7"/>
<path d="M539.67 166.47C539.67 167.44 539.18 168.44 538.21 169.34C537.79 169.74 537.28 170.11 536.68 170.46L535.46 171.17L534.82 171.54L513.03 184.12C509.42 186.21 503.96 186.43 500.83 184.62L477.93 171.41L477.9 171.39L475.2 169.83C474.96 169.69 474.74 169.54 474.54 169.38C473.66 168.7 473.19 167.89 473.1 167.03V166.5C473.15 165.91 473.38 165.32 473.79 164.74C474.29 164.03 475.05 163.36 476.07 162.77L477.93 161.69L499.72 149.11C503.34 147.03 508.79 146.8 511.92 148.61L534.82 161.83L537.56 163.41C538.18 163.77 538.67 164.18 539.02 164.63C539.46 165.2 539.68 165.82 539.68 166.47H539.67Z" fill="url(#paint19_linear_4092_26435)"/>
<path style="mix-blend-mode:multiply" d="M421.519 114.26L387.049 92.9L438.379 74.05L463.039 90.64" fill="url(#paint20_linear_4092_26435)"/>
<path d="M438.379 67.49V74.05C438.379 75.7 437.169 77.4501 434.809 78.8101L432.579 80.1L406.539 95.14C402.229 97.64 395.689 97.9 391.949 95.74L364.579 79.9399L361.309 78.05C359.489 77 358.659 75.56 358.799 74.09V68.17C358.899 69.2 359.469 70.16 360.519 70.97C360.759 71.16 361.019 71.34 361.309 71.5L364.539 73.36L364.579 73.38L391.949 89.1801C395.689 91.3401 402.219 91.07 406.539 88.58L432.579 73.54L433.349 73.1L434.809 72.26C435.529 71.85 436.139 71.4 436.639 70.92C437.799 69.84 438.379 68.65 438.379 67.49Z" fill="#B7B7B7"/>
<path d="M438.379 67.49C438.379 68.65 437.799 69.8401 436.639 70.9201C436.139 71.4001 435.529 71.85 434.809 72.26L433.349 73.1L432.579 73.5401L406.539 88.58C402.229 91.08 395.689 91.3401 391.949 89.1801L364.579 73.38L364.539 73.36L361.309 71.5C361.019 71.33 360.759 71.16 360.519 70.97C359.469 70.16 358.899 69.1901 358.799 68.1701V67.5401C358.859 66.8401 359.129 66.13 359.629 65.44C360.219 64.6 361.139 63.79 362.359 63.09L364.589 61.8001L390.629 46.76C394.949 44.27 401.479 44 405.219 46.16L432.589 61.96L435.859 63.85C436.599 64.28 437.189 64.7801 437.599 65.3101C438.129 65.9901 438.379 66.74 438.379 67.5V67.49Z" fill="url(#paint21_linear_4092_26435)"/>
<path d="M438.379 56.39V62.95C438.379 64.6 437.169 66.35 434.809 67.71L432.579 69L406.539 84.04C402.229 86.54 395.689 86.8 391.949 84.64L364.579 68.84L361.309 66.95C359.489 65.9 358.659 64.46 358.799 62.99V57.0699C358.899 58.0999 359.469 59.06 360.519 59.87C360.759 60.06 361.019 60.24 361.309 60.4L364.539 62.26L364.579 62.28L391.949 78.08C395.689 80.24 402.219 79.97 406.539 77.48L432.579 62.4399L433.349 62L434.809 61.16C435.529 60.75 436.139 60.2999 436.639 59.8199C437.799 58.7399 438.379 57.55 438.379 56.39Z" fill="#B7B7B7"/>
<path d="M438.379 56.39C438.379 57.55 437.799 58.74 436.639 59.82C436.139 60.3 435.529 60.75 434.809 61.16L433.349 62L432.579 62.44L406.539 77.48C402.229 79.98 395.689 80.24 391.949 78.08L364.579 62.28L364.539 62.26L361.309 60.4C361.019 60.23 360.759 60.06 360.519 59.87C359.469 59.06 358.899 58.09 358.799 57.07V56.44C358.859 55.74 359.129 55.03 359.629 54.34C360.219 53.5 361.139 52.69 362.359 51.99L364.589 50.7L390.629 35.66C394.949 33.17 401.479 32.9001 405.219 35.0601L432.589 50.86L435.859 52.75C436.599 53.18 437.189 53.68 437.599 54.21C438.129 54.89 438.379 55.64 438.379 56.4V56.39Z" fill="url(#paint22_linear_4092_26435)"/>
<path d="M438.379 45.29V51.85C438.379 53.5 437.169 55.25 434.809 56.61L432.579 57.9L406.539 72.9399C402.229 75.4399 395.689 75.7 391.949 73.54L364.579 57.74L361.309 55.85C359.489 54.8 358.659 53.36 358.799 51.89V45.97C358.899 47 359.469 47.96 360.519 48.77C360.759 48.96 361.019 49.14 361.309 49.3L364.539 51.16L364.579 51.1801L391.949 66.98C395.689 69.14 402.219 68.87 406.539 66.38L432.579 51.34L433.349 50.9L434.809 50.0601C435.529 49.6501 436.139 49.2 436.639 48.72C437.799 47.64 438.379 46.45 438.379 45.29Z" fill="#B7B7B7"/>
<path d="M438.379 45.29C438.379 46.45 437.799 47.6399 436.639 48.7199C436.139 49.1999 435.529 49.65 434.809 50.06L433.349 50.9L432.579 51.3399L406.539 66.38C402.229 68.88 395.689 69.1399 391.949 66.9799L364.579 51.18L364.539 51.16L361.309 49.3C361.019 49.13 360.759 48.96 360.519 48.77C359.469 47.96 358.899 46.9899 358.799 45.9699V45.3399C358.859 44.6399 359.129 43.93 359.629 43.24C360.219 42.4 361.139 41.59 362.359 40.89L364.589 39.5999L390.629 24.56C394.949 22.07 401.479 21.7999 405.219 23.9599L432.589 39.76L435.859 41.65C436.599 42.08 437.189 42.5799 437.599 43.1099C438.129 43.7899 438.379 44.54 438.379 45.3V45.29Z" fill="url(#paint23_linear_4092_26435)"/>
<path style="mix-blend-mode:multiply" d="M444.259 337.68L410.409 316.72L460.819 298.21L485.029 314.49" fill="url(#paint24_linear_4092_26435)"/>
<path d="M460.82 291.77V298.21C460.82 299.83 459.629 301.55 457.309 302.89L455.119 304.15L429.549 318.91C425.309 321.36 418.9 321.62 415.23 319.5L388.359 303.98L385.149 302.13C383.359 301.1 382.549 299.69 382.679 298.24V292.42C382.779 293.43 383.339 294.38 384.369 295.17C384.609 295.36 384.859 295.53 385.149 295.69L388.32 297.52L388.359 297.54L415.23 313.05C418.9 315.17 425.319 314.91 429.549 312.46L455.119 297.7L455.869 297.27L457.299 296.44C457.999 296.04 458.599 295.6 459.089 295.13C460.229 294.07 460.799 292.9 460.799 291.76L460.82 291.77Z" fill="#B7B7B7"/>
<path d="M460.819 291.77C460.819 292.91 460.249 294.08 459.109 295.14C458.619 295.61 458.019 296.05 457.319 296.45L455.889 297.28L455.139 297.71L429.569 312.47C425.329 314.92 418.919 315.18 415.249 313.06L388.379 297.55L388.339 297.53L385.169 295.7C384.879 295.54 384.629 295.36 384.389 295.18C383.359 294.39 382.799 293.43 382.699 292.43V291.81C382.759 291.12 383.029 290.43 383.509 289.75C384.089 288.92 384.989 288.13 386.189 287.44L388.379 286.18L413.949 271.42C418.189 268.98 424.599 268.71 428.269 270.83L455.139 286.35L458.349 288.2C459.079 288.62 459.649 289.11 460.059 289.63C460.579 290.29 460.829 291.03 460.829 291.78L460.819 291.77Z" fill="url(#paint25_linear_4092_26435)"/>
<path d="M460.82 280.87V287.31C460.82 288.93 459.629 290.65 457.309 291.99L455.119 293.25L429.549 308.01C425.309 310.46 418.9 310.72 415.23 308.6L388.359 293.08L385.149 291.23C383.359 290.2 382.549 288.79 382.679 287.34V281.52C382.779 282.53 383.339 283.48 384.369 284.27C384.609 284.46 384.859 284.63 385.149 284.79L388.32 286.62L388.359 286.64L415.23 302.15C418.9 304.27 425.319 304.01 429.549 301.56L455.119 286.8L455.869 286.37L457.299 285.54C457.999 285.14 458.599 284.7 459.089 284.23C460.229 283.17 460.799 282 460.799 280.86L460.82 280.87Z" fill="#B7B7B7"/>
<path d="M460.819 280.87C460.819 282.01 460.249 283.18 459.109 284.24C458.619 284.71 458.019 285.15 457.319 285.55L455.889 286.38L455.139 286.81L429.569 301.57C425.329 304.02 418.919 304.28 415.249 302.16L388.379 286.65L388.339 286.63L385.169 284.8C384.879 284.64 384.629 284.46 384.389 284.28C383.359 283.49 382.799 282.53 382.699 281.53V280.91C382.759 280.22 383.029 279.53 383.509 278.85C384.089 278.02 384.989 277.23 386.189 276.54L388.379 275.28L413.949 260.52C418.189 258.08 424.599 257.81 428.269 259.93L455.139 275.45L458.349 277.3C459.079 277.72 459.649 278.21 460.059 278.73C460.579 279.39 460.829 280.13 460.829 280.88L460.819 280.87Z" fill="url(#paint26_linear_4092_26435)"/>
<path d="M460.82 269.97V276.41C460.82 278.03 459.629 279.75 457.309 281.09L455.119 282.35L429.549 297.11C425.309 299.56 418.9 299.82 415.23 297.7L388.359 282.18L385.149 280.33C383.359 279.3 382.549 277.89 382.679 276.44V270.62C382.779 271.63 383.339 272.58 384.369 273.37C384.609 273.56 384.859 273.73 385.149 273.89L388.32 275.72L388.359 275.74L415.23 291.25C418.9 293.37 425.319 293.11 429.549 290.66L455.119 275.9L455.869 275.47L457.299 274.64C457.999 274.24 458.599 273.8 459.089 273.33C460.229 272.27 460.799 271.1 460.799 269.96L460.82 269.97Z" fill="#B7B7B7"/>
<path d="M460.819 269.97C460.819 271.11 460.249 272.28 459.109 273.34C458.619 273.81 458.019 274.25 457.319 274.65L455.889 275.48L455.139 275.91L429.569 290.67C425.329 293.12 418.919 293.38 415.249 291.26L388.379 275.75L388.339 275.73L385.169 273.9C384.879 273.74 384.629 273.56 384.389 273.38C383.359 272.59 382.799 271.63 382.699 270.63V270.01C382.759 269.32 383.029 268.63 383.509 267.95C384.089 267.12 384.989 266.33 386.189 265.64L388.379 264.38L413.949 249.62C418.189 247.18 424.599 246.91 428.269 249.03L455.139 264.55L458.349 266.4C459.079 266.82 459.649 267.31 460.059 267.83C460.579 268.49 460.829 269.23 460.829 269.98L460.819 269.97Z" fill="url(#paint27_linear_4092_26435)"/>
<path style="mix-blend-mode:multiply" d="M264.129 90.78L230.279 69.8199L280.689 51.3101L304.899 67.6" fill="url(#paint28_linear_4092_26435)"/>
<path d="M280.69 44.87V51.3101C280.69 52.9301 279.5 54.65 277.18 55.99L274.99 57.25L249.42 72.01C245.18 74.46 238.77 74.72 235.1 72.6L208.23 57.08L205.02 55.23C203.23 54.2 202.42 52.79 202.55 51.34V45.52C202.65 46.53 203.21 47.48 204.24 48.27C204.48 48.46 204.73 48.63 205.02 48.79L208.19 50.62L208.23 50.64L235.1 66.15C238.77 68.27 245.19 68.0101 249.42 65.5601L274.99 50.8L275.74 50.37L277.17 49.54C277.87 49.14 278.47 48.7 278.96 48.23C280.1 47.17 280.67 46 280.67 44.86L280.69 44.87Z" fill="#B7B7B7"/>
<path d="M280.689 44.87C280.689 46.01 280.119 47.18 278.979 48.24C278.489 48.71 277.889 49.1501 277.189 49.5501L275.759 50.38L275.009 50.8101L249.439 65.57C245.199 68.02 238.789 68.2801 235.119 66.1601L208.249 50.65L208.209 50.63L205.039 48.8001C204.749 48.6401 204.499 48.4601 204.259 48.2801C203.229 47.49 202.669 46.5301 202.569 45.5301V44.9101C202.629 44.2201 202.899 43.53 203.379 42.85C203.959 42.02 204.859 41.2301 206.059 40.5401L208.249 39.2801L233.819 24.52C238.059 22.08 244.469 21.8101 248.139 23.9301L275.009 39.45L278.219 41.3001C278.949 41.7201 279.519 42.21 279.929 42.73C280.449 43.39 280.699 44.13 280.699 44.88L280.689 44.87Z" fill="url(#paint29_linear_4092_26435)"/>
<path d="M280.69 33.97V40.41C280.69 42.03 279.5 43.75 277.18 45.09L274.99 46.35L249.42 61.11C245.18 63.56 238.77 63.82 235.1 61.7L208.23 46.1801L205.02 44.33C203.23 43.3 202.42 41.8899 202.55 40.4399V34.62C202.65 35.63 203.21 36.58 204.24 37.37C204.48 37.56 204.73 37.73 205.02 37.89L208.19 39.72L208.23 39.74L235.1 55.25C238.77 57.37 245.19 57.11 249.42 54.66L274.99 39.9L275.74 39.47L277.17 38.64C277.87 38.24 278.47 37.8 278.96 37.33C280.1 36.27 280.67 35.1 280.67 33.96L280.69 33.97Z" fill="#B7B7B7"/>
<path d="M280.689 33.97C280.689 35.11 280.119 36.28 278.979 37.34C278.489 37.81 277.889 38.25 277.189 38.65L275.759 39.48L275.009 39.9101L249.439 54.6701C245.199 57.1201 238.789 57.38 235.119 55.26L208.249 39.75L208.209 39.73L205.039 37.9C204.749 37.74 204.499 37.56 204.259 37.38C203.229 36.59 202.669 35.63 202.569 34.63V34.01C202.629 33.32 202.899 32.63 203.379 31.95C203.959 31.12 204.859 30.33 206.059 29.64L208.249 28.38L233.819 13.62C238.059 11.18 244.469 10.9101 248.139 13.0301L275.009 28.5501L278.219 30.4C278.949 30.82 279.519 31.31 279.929 31.83C280.449 32.49 280.699 33.23 280.699 33.98L280.689 33.97Z" fill="url(#paint30_linear_4092_26435)"/>
<path d="M280.69 23.0699V29.51C280.69 31.13 279.5 32.8499 277.18 34.1899L274.99 35.45L249.42 50.21C245.18 52.66 238.77 52.92 235.1 50.8L208.23 35.28L205.02 33.4301C203.23 32.4001 202.42 30.99 202.55 29.54V23.72C202.65 24.73 203.21 25.68 204.24 26.47C204.48 26.66 204.73 26.83 205.02 26.99L208.19 28.8199L208.23 28.84L235.1 44.35C238.77 46.47 245.19 46.21 249.42 43.76L274.99 29L275.74 28.5699L277.17 27.74C277.87 27.34 278.47 26.9001 278.96 26.4301C280.1 25.3701 280.67 24.2001 280.67 23.0601L280.69 23.0699Z" fill="#B7B7B7"/>
<path d="M280.689 23.07C280.689 24.21 280.119 25.38 278.979 26.44C278.489 26.91 277.889 27.35 277.189 27.75L275.759 28.58L275.009 29.01L249.439 43.77C245.199 46.22 238.789 46.48 235.119 44.36L208.249 28.85L208.209 28.83L205.039 27C204.749 26.84 204.499 26.66 204.259 26.48C203.229 25.69 202.669 24.73 202.569 23.73V23.11C202.629 22.42 202.899 21.7301 203.379 21.0501C203.959 20.2201 204.859 19.43 206.059 18.74L208.249 17.48L233.819 2.71999C238.059 0.279992 244.469 0.0100265 248.139 2.13003L275.009 17.65L278.219 19.5C278.949 19.92 279.519 20.4101 279.929 20.9301C280.449 21.5901 280.699 22.33 280.699 23.08L280.689 23.07Z" fill="url(#paint31_linear_4092_26435)"/>
<defs>
<linearGradient id="paint0_linear_4092_26435" x1="62.4503" y1="285.17" x2="94.3103" y2="323.14" gradientUnits="userSpaceOnUse">
<stop stop-color="#B7B7B7"/>
<stop offset="1" stop-color="#D7E9E8" stop-opacity="0.19"/>
</linearGradient>
<linearGradient id="paint1_linear_4092_26435" x1="36.3798" y1="278.49" x2="116.37" y2="275.87" gradientUnits="userSpaceOnUse">
<stop stop-color="#E9F2FA"/>
<stop offset="1" stop-color="#B7B7B7"/>
</linearGradient>
<linearGradient id="paint2_linear_4092_26435" x1="36.3798" y1="264.92" x2="116.37" y2="262.3" gradientUnits="userSpaceOnUse">
<stop stop-color="#E9F2FA"/>
<stop offset="1" stop-color="#B7B7B7"/>
</linearGradient>
<linearGradient id="paint3_linear_4092_26435" x1="25.8698" y1="265.89" x2="83.2798" y2="228.6" gradientUnits="userSpaceOnUse">
<stop stop-color="#E9F2FA"/>
<stop offset="1" stop-color="#A5A5A5"/>
</linearGradient>
<linearGradient id="paint4_linear_4092_26435" x1="325.26" y1="189.1" x2="364.27" y2="235.59" gradientUnits="userSpaceOnUse">
<stop stop-color="#B7B7B7"/>
<stop offset="1" stop-color="#D7E9E8" stop-opacity="0.19"/>
</linearGradient>
<linearGradient id="paint5_linear_4092_26435" x1="293.339" y1="180.92" x2="391.279" y2="177.71" gradientUnits="userSpaceOnUse">
<stop stop-color="#E9F2FA"/>
<stop offset="1" stop-color="#B7B7B7"/>
</linearGradient>
<linearGradient id="paint6_linear_4092_26435" x1="293.339" y1="164.31" x2="391.279" y2="161.1" gradientUnits="userSpaceOnUse">
<stop stop-color="#E9F2FA"/>
<stop offset="1" stop-color="#B7B7B7"/>
</linearGradient>
<linearGradient id="paint7_linear_4092_26435" x1="280.489" y1="165.49" x2="350.769" y2="119.84" gradientUnits="userSpaceOnUse">
<stop stop-color="#E9F2FA"/>
<stop offset="1" stop-color="#A5A5A5"/>
</linearGradient>
<linearGradient id="paint8_linear_4092_26435" x1="116.189" y1="130.57" x2="147.909" y2="168.37" gradientUnits="userSpaceOnUse">
<stop stop-color="#B7B7B7"/>
<stop offset="1" stop-color="#D7E9E8" stop-opacity="0.19"/>
</linearGradient>
<linearGradient id="paint9_linear_4092_26435" x1="90.2391" y1="123.92" x2="169.879" y2="121.31" gradientUnits="userSpaceOnUse">
<stop stop-color="#E9F2FA"/>
<stop offset="1" stop-color="#B7B7B7"/>
</linearGradient>
<linearGradient id="paint10_linear_4092_26435" x1="90.2391" y1="110.42" x2="169.879" y2="107.8" gradientUnits="userSpaceOnUse">
<stop stop-color="#E9F2FA"/>
<stop offset="1" stop-color="#B7B7B7"/>
</linearGradient>
<linearGradient id="paint11_linear_4092_26435" x1="79.7791" y1="111.37" x2="136.939" y2="74.26" gradientUnits="userSpaceOnUse">
<stop stop-color="#E9F2FA"/>
<stop offset="1" stop-color="#A5A5A5"/>
</linearGradient>
<linearGradient id="paint12_linear_4092_26435" x1="230.07" y1="300.73" x2="261.79" y2="338.53" gradientUnits="userSpaceOnUse">
<stop stop-color="#B7B7B7"/>
<stop offset="1" stop-color="#D7E9E8" stop-opacity="0.19"/>
</linearGradient>
<linearGradient id="paint13_linear_4092_26435" x1="204.12" y1="294.08" x2="283.76" y2="291.47" gradientUnits="userSpaceOnUse">
<stop stop-color="#E9F2FA"/>
<stop offset="1" stop-color="#B7B7B7"/>
</linearGradient>
<linearGradient id="paint14_linear_4092_26435" x1="204.12" y1="280.57" x2="283.76" y2="277.96" gradientUnits="userSpaceOnUse">
<stop stop-color="#E9F2FA"/>
<stop offset="1" stop-color="#B7B7B7"/>
</linearGradient>
<linearGradient id="paint15_linear_4092_26435" x1="193.66" y1="281.53" x2="250.82" y2="244.41" gradientUnits="userSpaceOnUse">
<stop stop-color="#E9F2FA"/>
<stop offset="1" stop-color="#A5A5A5"/>
</linearGradient>
<linearGradient id="paint16_linear_4092_26435" x1="515.659" y1="190.04" x2="537.47" y2="216.02" gradientUnits="userSpaceOnUse">
<stop stop-color="#B7B7B7"/>
<stop offset="1" stop-color="#D7E9E8" stop-opacity="0.19"/>
</linearGradient>
<linearGradient id="paint17_linear_4092_26435" x1="497.82" y1="185.47" x2="552.57" y2="183.67" gradientUnits="userSpaceOnUse">
<stop stop-color="#E9F2FA"/>
<stop offset="1" stop-color="#B7B7B7"/>
</linearGradient>
<linearGradient id="paint18_linear_4092_26435" x1="497.82" y1="176.18" x2="552.57" y2="174.39" gradientUnits="userSpaceOnUse">
<stop stop-color="#E9F2FA"/>
<stop offset="1" stop-color="#B7B7B7"/>
</linearGradient>
<linearGradient id="paint19_linear_4092_26435" x1="490.63" y1="176.84" x2="529.92" y2="151.32" gradientUnits="userSpaceOnUse">
<stop stop-color="#E9F2FA"/>
<stop offset="1" stop-color="#A5A5A5"/>
</linearGradient>
<linearGradient id="paint20_linear_4092_26435" x1="409.679" y1="73.4601" x2="435.749" y2="104.53" gradientUnits="userSpaceOnUse">
<stop stop-color="#B7B7B7"/>
<stop offset="1" stop-color="#D7E9E8" stop-opacity="0.19"/>
</linearGradient>
<linearGradient id="paint21_linear_4092_26435" x1="388.349" y1="68" x2="453.799" y2="65.85" gradientUnits="userSpaceOnUse">
<stop stop-color="#E9F2FA"/>
<stop offset="1" stop-color="#B7B7B7"/>
</linearGradient>
<linearGradient id="paint22_linear_4092_26435" x1="388.349" y1="56.9" x2="453.799" y2="54.75" gradientUnits="userSpaceOnUse">
<stop stop-color="#E9F2FA"/>
<stop offset="1" stop-color="#B7B7B7"/>
</linearGradient>
<linearGradient id="paint23_linear_4092_26435" x1="379.759" y1="57.69" x2="426.729" y2="27.1799" gradientUnits="userSpaceOnUse">
<stop stop-color="#E9F2FA"/>
<stop offset="1" stop-color="#A5A5A5"/>
</linearGradient>
<linearGradient id="paint24_linear_4092_26435" x1="432.639" y1="297.63" x2="458.229" y2="328.13" gradientUnits="userSpaceOnUse">
<stop stop-color="#B7B7B7"/>
<stop offset="1" stop-color="#D7E9E8" stop-opacity="0.19"/>
</linearGradient>
<linearGradient id="paint25_linear_4092_26435" x1="411.689" y1="292.27" x2="475.949" y2="290.16" gradientUnits="userSpaceOnUse">
<stop stop-color="#E9F2FA"/>
<stop offset="1" stop-color="#B7B7B7"/>
</linearGradient>
<linearGradient id="paint26_linear_4092_26435" x1="411.689" y1="281.37" x2="475.949" y2="279.26" gradientUnits="userSpaceOnUse">
<stop stop-color="#E9F2FA"/>
<stop offset="1" stop-color="#B7B7B7"/>
</linearGradient>
<linearGradient id="paint27_linear_4092_26435" x1="403.259" y1="282.14" x2="449.369" y2="252.19" gradientUnits="userSpaceOnUse">
<stop stop-color="#E9F2FA"/>
<stop offset="1" stop-color="#A5A5A5"/>
</linearGradient>
<linearGradient id="paint28_linear_4092_26435" x1="252.509" y1="50.7301" x2="278.099" y2="81.2301" gradientUnits="userSpaceOnUse">
<stop stop-color="#B7B7B7"/>
<stop offset="1" stop-color="#D7E9E8" stop-opacity="0.19"/>
</linearGradient>
<linearGradient id="paint29_linear_4092_26435" x1="231.569" y1="45.37" x2="295.819" y2="43.26" gradientUnits="userSpaceOnUse">
<stop stop-color="#E9F2FA"/>
<stop offset="1" stop-color="#B7B7B7"/>
</linearGradient>
<linearGradient id="paint30_linear_4092_26435" x1="231.569" y1="34.47" x2="295.819" y2="32.36" gradientUnits="userSpaceOnUse">
<stop stop-color="#E9F2FA"/>
<stop offset="1" stop-color="#B7B7B7"/>
</linearGradient>
<linearGradient id="paint31_linear_4092_26435" x1="223.129" y1="35.24" x2="269.239" y2="5.30002" gradientUnits="userSpaceOnUse">
<stop stop-color="#E9F2FA"/>
<stop offset="1" stop-color="#A5A5A5"/>
</linearGradient>
</defs>
</svg>
