<svg width="50" height="50" viewBox="0 0 50 50" fill="none" xmlns="http://www.w3.org/2000/svg">
<path d="M21.5448 16.8823C21.5448 16.6945 21.4882 16.511 21.3821 16.3549C21.2761 16.1989 21.1253 16.0772 20.9489 16.0054C20.7726 15.9335 20.5785 15.9147 20.3912 15.9513C20.204 15.988 20.032 16.0784 19.897 16.2111C19.762 16.3439 19.6701 16.513 19.6328 16.6971C19.5956 16.8812 19.6147 17.0721 19.6877 17.2455C19.7608 17.4189 19.8845 17.5672 20.0433 17.6715C20.202 17.7758 20.3886 17.8314 20.5795 17.8314C20.8355 17.8313 21.0809 17.7312 21.2619 17.5533C21.4429 17.3753 21.5447 17.134 21.5448 16.8823Z" fill="url(#paint0_linear_3981_62903)"/>
<path d="M12.9047 1.89943C13.0958 1.89954 13.2826 1.84392 13.4415 1.7396C13.6005 1.63529 13.7243 1.48697 13.7975 1.31341C13.8707 1.13985 13.8898 0.948847 13.8526 0.764569C13.8153 0.580292 13.7234 0.411019 13.5882 0.278166C13.4531 0.145313 13.281 0.0548499 13.0936 0.0182223C12.9062 -0.0184052 12.7119 0.000448251 12.5354 0.0723977C12.3589 0.144347 12.2081 0.266159 12.102 0.422422C11.9959 0.578686 11.9393 0.762379 11.9395 0.950262C11.9396 1.20195 12.0413 1.44329 12.2223 1.62127C12.4033 1.79924 12.6488 1.89929 12.9047 1.89943Z" fill="url(#paint1_linear_3981_62903)"/>
<path d="M0.966395 20.9639C0.775346 20.9638 0.588556 21.0194 0.429652 21.1237C0.270747 21.2279 0.146868 21.3762 0.0736804 21.5498C0.000493108 21.7233 -0.0187134 21.9143 0.018491 22.0985C0.0556953 22.2828 0.147639 22.4521 0.282692 22.5849C0.417745 22.7178 0.589839 22.8083 0.777209 22.845C0.964578 22.8817 1.1588 22.8629 1.33532 22.7911C1.51184 22.7192 1.66271 22.5975 1.76887 22.4413C1.87502 22.2851 1.93168 22.1014 1.93168 21.9136C1.93168 21.6618 1.83 21.4203 1.64899 21.2422C1.46798 21.0641 1.22246 20.964 0.966395 20.9639Z" fill="url(#paint2_linear_3981_62903)"/>
<path d="M9.06767 32.3947C10.0796 32.3947 11.0688 32.0996 11.9103 31.5468C12.7517 30.994 13.4074 30.2082 13.7947 29.2889C14.182 28.3696 14.2833 27.358 14.0859 26.3821C13.8884 25.4062 13.4011 24.5097 12.6856 23.8061C11.97 23.1025 11.0584 22.6233 10.0659 22.4292C9.07335 22.2351 8.04459 22.3347 7.10967 22.7155C6.17476 23.0963 5.37567 23.7411 4.81346 24.5685C4.25125 25.3958 3.95117 26.3686 3.95117 27.3636C3.95264 28.6975 4.49217 29.9763 5.45139 30.9195C6.4106 31.8627 7.71114 32.3933 9.06767 32.3947ZM9.06767 24.0096C9.74231 24.0096 10.4018 24.2063 10.9627 24.5748C11.5237 24.9434 11.9609 25.4672 12.219 26.0801C12.4772 26.6929 12.5447 27.3673 12.4131 28.018C12.2815 28.6686 11.9567 29.2662 11.4796 29.7353C11.0026 30.2044 10.3948 30.5238 9.73313 30.6532C9.07146 30.7826 8.38562 30.7162 7.76234 30.4624C7.13906 30.2085 6.60634 29.7786 6.23153 29.227C5.85672 28.6755 5.65667 28.027 5.65667 27.3636C5.65756 26.4743 6.01721 25.6217 6.65671 24.9929C7.2962 24.3641 8.16329 24.0104 9.06767 24.0096Z" fill="url(#paint3_linear_3981_62903)"/>
<path d="M44.8841 22.3325C43.8721 22.3325 42.8829 22.6276 42.0415 23.1804C41.2001 23.7332 40.5443 24.519 40.157 25.4383C39.7698 26.3576 39.6685 27.3692 39.8659 28.3451C40.0633 29.3211 40.5506 30.2175 41.2662 30.9211C41.9817 31.6247 42.8934 32.1039 43.8859 32.298C44.8784 32.4921 45.9072 32.3925 46.8421 32.0117C47.777 31.6309 48.5761 30.9861 49.1383 30.1587C49.7005 29.3314 50.0006 28.3587 50.0006 27.3636C49.9991 26.0297 49.4596 24.7509 48.5004 23.8077C47.5412 22.8645 46.2406 22.334 44.8841 22.3325ZM44.8841 30.7177C44.2095 30.7177 43.55 30.521 42.989 30.1524C42.4281 29.7839 41.9909 29.26 41.7327 28.6471C41.4746 28.0343 41.407 27.3599 41.5386 26.7093C41.6702 26.0586 41.9951 25.461 42.4721 24.9919C42.9492 24.5229 43.557 24.2034 44.2186 24.074C44.8803 23.9446 45.5661 24.011 46.1894 24.2649C46.8127 24.5187 47.3454 24.9486 47.7202 25.5002C48.095 26.0518 48.2951 26.7002 48.2951 27.3636C48.2942 28.2529 47.9345 29.1055 47.2951 29.7343C46.6556 30.3631 45.7885 30.7168 44.8841 30.7177Z" fill="url(#paint4_linear_3981_62903)"/>
<path d="M44.883 39.9409C43.6749 39.9429 42.5065 40.3648 41.5842 41.1321C40.6619 41.8994 40.0452 42.9626 39.8432 44.1338H32.0142C31.8109 42.9643 31.1936 41.9031 30.2713 41.1381C29.349 40.3731 28.1813 39.9535 26.9747 39.9535C25.7681 39.9535 24.6004 40.3731 23.6781 41.1381C22.7558 41.9031 22.1384 42.9643 21.9352 44.1338H14.1068C13.9789 43.3869 13.6802 42.6784 13.2332 42.0617L24.0141 31.4607C24.9982 32.1522 26.1999 32.4779 27.4053 32.3799C28.6107 32.2819 29.7417 31.7666 30.5969 30.9255C31.4521 30.0845 31.9762 28.9724 32.0757 27.7871C32.1753 26.6018 31.8439 25.4202 31.1406 24.4526L41.9216 13.8516C42.8259 14.4836 43.9148 14.8092 45.0239 14.7792C46.133 14.7492 47.202 14.3652 48.0697 13.6853C48.9373 13.0054 49.5565 12.0664 49.8337 11.01C50.111 9.95367 50.0312 8.8373 49.6065 7.82943C49.1818 6.82156 48.4352 5.97688 47.4794 5.42291C46.5236 4.86894 45.4105 4.63573 44.308 4.75849C43.2056 4.88124 42.1737 5.3533 41.3681 6.10341C40.5624 6.85352 40.0268 7.84097 39.8421 8.9167H32.0142C31.8109 7.7472 31.1936 6.68608 30.2713 5.92105C29.349 5.15602 28.1813 4.73639 26.9747 4.73639C25.7681 4.73639 24.6004 5.15602 23.6781 5.92105C22.7558 6.68608 22.1384 7.7472 21.9352 8.9167H14.1068C13.8929 7.67285 13.2117 6.55338 12.1981 5.78012C11.1844 5.00686 9.91236 4.63626 8.63394 4.74175C7.35552 4.84725 6.16406 5.42114 5.29566 6.3497C4.42727 7.27826 3.94531 8.49372 3.94531 9.75522C3.94531 11.0167 4.42727 12.2322 5.29566 13.1607C6.16406 14.0893 7.35552 14.6632 8.63394 14.7687C9.91236 14.8742 11.1844 14.5036 12.1981 13.7303C13.2117 12.9571 13.8929 11.8376 14.1068 10.5937H21.9352C22.1384 11.7632 22.7558 12.8244 23.6781 13.5894C24.6004 14.3544 25.7681 14.774 26.9747 14.774C28.1813 14.774 29.349 14.3544 30.2713 13.5894C31.1936 12.8244 31.8109 11.7632 32.0142 10.5937H39.8432C39.971 11.3406 40.2697 12.0491 40.7168 12.6658L29.9358 23.2668C28.9518 22.5759 27.7505 22.2506 26.5455 22.3488C25.3405 22.4469 24.21 22.9622 23.3549 23.8028C22.4999 24.6435 21.9759 25.7551 21.876 26.94C21.7761 28.1249 22.1068 29.3062 22.8093 30.2738L12.0284 40.8748C11.124 40.2428 10.0351 39.9172 8.92605 39.9472C7.81698 39.9772 6.74793 40.3612 5.88028 41.0411C5.01262 41.721 4.39344 42.66 4.1162 43.7164C3.83897 44.7727 3.91872 45.8891 4.34342 46.897C4.76812 47.9049 5.51473 48.7495 6.47053 49.3035C7.42634 49.8575 8.53947 50.0907 9.64191 49.9679C10.7443 49.8452 11.7763 49.3731 12.5819 48.623C13.3875 47.8729 13.9231 46.8854 14.1079 45.8097H21.9357C22.139 46.9792 22.7564 48.0403 23.6786 48.8054C24.6009 49.5704 25.7686 49.99 26.9753 49.99C28.1819 49.99 29.3496 49.5704 30.2718 48.8054C31.1941 48.0403 31.8115 46.9792 32.0148 45.8097H39.8437C40.0071 46.7545 40.4417 47.6337 41.0963 48.3437C41.7509 49.0537 42.5982 49.5649 43.5385 49.8171C44.4787 50.0693 45.4727 50.052 46.4033 49.7673C47.3339 49.4825 48.1623 48.9421 48.7909 48.2097C49.4196 47.4774 49.8222 46.5836 49.9515 45.6338C50.0807 44.6839 49.9312 43.7175 49.5204 42.8484C49.1097 41.9793 48.4549 41.2438 47.6332 40.7285C46.8114 40.2132 45.8571 39.9395 44.8824 39.9398L44.883 39.9409ZM9.06694 13.1085C8.39231 13.1085 7.73283 12.9117 7.17189 12.5432C6.61095 12.1746 6.17376 11.6508 5.91559 11.0379C5.65742 10.4251 5.58987 9.75068 5.72148 9.10005C5.85309 8.44943 6.17796 7.85179 6.655 7.38272C7.13204 6.91365 7.73982 6.5942 8.40149 6.46479C9.06316 6.33537 9.74899 6.40179 10.3723 6.65565C10.9956 6.90951 11.5283 7.33941 11.9031 7.89098C12.2779 8.44255 12.4779 9.09103 12.4779 9.7544C12.4771 10.6437 12.1174 11.4963 11.4779 12.1251C10.8384 12.7539 9.97132 13.1076 9.06694 13.1085ZM26.975 13.1085C26.3003 13.1085 25.6409 12.9117 25.0799 12.5432C24.519 12.1746 24.0818 11.6508 23.8236 11.0379C23.5654 10.4251 23.4979 9.75068 23.6295 9.10005C23.7611 8.44943 24.086 7.85179 24.563 7.38272C25.0401 6.91365 25.6478 6.5942 26.3095 6.46479C26.9712 6.33537 27.657 6.40179 28.2803 6.65565C28.9036 6.90951 29.4363 7.33941 29.8111 7.89098C30.1859 8.44255 30.386 9.09103 30.386 9.7544C30.3851 10.6433 30.0257 11.4956 29.3867 12.1243C28.7477 12.7531 27.8812 13.107 26.9772 13.1085H26.975ZM44.883 6.40034C45.5576 6.40034 46.2171 6.59705 46.778 6.9656C47.339 7.33415 47.7762 7.85798 48.0344 8.47086C48.2925 9.08373 48.3601 9.75812 48.2285 10.4087C48.0968 11.0594 47.772 11.657 47.2949 12.1261C46.8179 12.5951 46.2101 12.9146 45.5485 13.044C44.8868 13.1734 44.201 13.107 43.5777 12.8531C42.9544 12.5993 42.4217 12.1694 42.0469 11.6178C41.6721 11.0662 41.472 10.4178 41.472 9.7544C41.4729 8.86511 41.8325 8.0125 42.472 7.38368C43.1115 6.75486 43.9786 6.40121 44.883 6.40034ZM26.9772 24.0094C27.6517 24.0098 28.3109 24.2069 28.8715 24.5756C29.4321 24.9444 29.8689 25.4683 30.1268 26.0811C30.3847 26.6939 30.452 27.3681 30.3203 28.0186C30.1886 28.669 29.8637 29.2664 29.3867 29.7353C28.9098 30.2043 28.3021 30.5236 27.6406 30.653C26.9791 30.7825 26.2935 30.7162 25.6703 30.4625C25.0471 30.2088 24.5144 29.7792 24.1395 29.2279C23.7646 28.6765 23.5643 28.0283 23.564 27.3651C23.5644 26.4752 23.9242 25.6218 24.5642 24.9926C25.2042 24.3633 26.0721 24.0097 26.9772 24.0094ZM9.06916 48.3261C8.39453 48.3261 7.73505 48.1294 7.17411 47.7608C6.61318 47.3923 6.17598 46.8684 5.91781 46.2556C5.65964 45.6427 5.59209 44.9683 5.7237 44.3177C5.85532 43.667 6.18018 43.0694 6.65722 42.6003C7.13426 42.1313 7.74204 41.8118 8.40371 41.6824C9.06538 41.553 9.75122 41.6194 10.3745 41.8733C10.9978 42.1271 11.5305 42.557 11.9053 43.1086C12.2801 43.6602 12.4802 44.3086 12.4802 44.972C12.4793 45.8617 12.1193 46.7146 11.4793 47.3435C10.8394 47.9724 9.97171 48.3258 9.06694 48.3261H9.06916ZM26.9772 48.3261C26.3026 48.3261 25.6431 48.1294 25.0821 47.7608C24.5212 47.3923 24.084 46.8684 23.8258 46.2556C23.5677 45.6427 23.5001 44.9683 23.6317 44.3177C23.7633 43.667 24.0882 43.0694 24.5653 42.6003C25.0423 42.1313 25.6501 41.8118 26.3117 41.6824C26.9734 41.553 27.6593 41.6194 28.2825 41.8733C28.9058 42.1271 29.4385 42.557 29.8133 43.1086C30.1881 43.6602 30.3882 44.3086 30.3882 44.972C30.3873 45.8613 30.0277 46.7139 29.3882 47.3427C28.7487 47.9715 27.8816 48.3252 26.9772 48.3261ZM44.8852 48.3261C44.2106 48.3261 43.5511 48.1294 42.9902 47.7608C42.4292 47.3923 41.992 46.8684 41.7339 46.2556C41.4757 45.6427 41.4081 44.9683 41.5398 44.3177C41.6714 43.667 41.9962 43.0694 42.4733 42.6003C42.9503 42.1313 43.5581 41.8118 44.2198 41.6824C44.8814 41.553 45.5673 41.6194 46.1906 41.8733C46.8138 42.1271 47.3466 42.557 47.7214 43.1086C48.0962 43.6602 48.2962 44.3086 48.2962 44.972C48.2953 45.8613 47.9357 46.7139 47.2962 47.3427C46.6567 47.9715 45.7896 48.3252 44.8852 48.3261Z" fill="url(#paint5_linear_3981_62903)"/>
<defs>
<linearGradient id="paint0_linear_3981_62903" x1="20.5795" y1="15.9331" x2="20.5795" y2="17.8314" gradientUnits="userSpaceOnUse">
<stop stop-color="#5E75E8"/>
<stop offset="1" stop-color="#DA88DE"/>
</linearGradient>
<linearGradient id="paint1_linear_3981_62903" x1="12.9053" y1="0" x2="12.9053" y2="1.89943" gradientUnits="userSpaceOnUse">
<stop stop-color="#5E75E8"/>
<stop offset="1" stop-color="#DA88DE"/>
</linearGradient>
<linearGradient id="paint2_linear_3981_62903" x1="0.965839" y1="20.9639" x2="0.965839" y2="22.8633" gradientUnits="userSpaceOnUse">
<stop stop-color="#5E75E8"/>
<stop offset="1" stop-color="#DA88DE"/>
</linearGradient>
<linearGradient id="paint3_linear_3981_62903" x1="9.06768" y1="22.3325" x2="9.06768" y2="32.3947" gradientUnits="userSpaceOnUse">
<stop stop-color="#5E75E8"/>
<stop offset="1" stop-color="#DA88DE"/>
</linearGradient>
<linearGradient id="paint4_linear_3981_62903" x1="44.8841" y1="22.3325" x2="44.8841" y2="32.3947" gradientUnits="userSpaceOnUse">
<stop stop-color="#5E75E8"/>
<stop offset="1" stop-color="#DA88DE"/>
</linearGradient>
<linearGradient id="paint5_linear_3981_62903" x1="26.971" y1="4.72412" x2="26.971" y2="49.9999" gradientUnits="userSpaceOnUse">
<stop stop-color="#5E75E8"/>
<stop offset="1" stop-color="#DA88DE"/>
</linearGradient>
</defs>
</svg>
