<svg width="1088" height="686" viewBox="0 0 1088 686" fill="none" xmlns="http://www.w3.org/2000/svg">
<g clip-path="url(#clip0_5827_29650)">
<path d="M959.531 253.652C958.342 253.652 957.153 253.347 956.208 253.058C947.656 250.405 940.14 245.268 932.884 240.298C923.249 233.713 913.279 226.898 905.047 218.133C892.638 204.916 884.879 188.025 877.394 171.713C876.616 170.036 875.854 168.344 875.077 166.683C865.854 146.773 856.524 132.627 843.871 119.394C842.911 118.388 841.935 117.413 840.96 116.422C837.362 112.824 833.658 109.104 831.157 104.501C828.109 98.8754 827.011 90.7501 831.447 85.2926C835.533 80.2619 842.698 79.5454 848.475 79.4692C862.149 79.332 875.382 81.9845 888.172 84.5761C894.102 85.7804 900.245 87.0152 906.374 87.9604C923.707 90.6434 941.603 93.6923 961.116 97.2747C974.577 99.7443 984.821 107.809 991.529 121.239C1000.63 139.441 1009.43 162.689 996.605 181.165C994.197 184.625 991.026 187.446 987.977 190.174C986.376 191.592 984.73 193.071 983.206 194.611C971.742 206.257 969.531 220.114 967.184 234.81C966.498 239.14 965.781 243.621 964.806 248.103C964.455 249.75 963.952 251.609 962.534 252.707C961.635 253.408 960.583 253.652 959.531 253.652ZM849.588 80.4753C849.222 80.4753 848.856 80.4753 848.475 80.4753C842.911 80.5363 836.036 81.2071 832.209 85.9176C828.063 91.0093 829.13 98.6772 832.026 104.013C834.45 108.479 838.109 112.153 841.646 115.705C842.637 116.696 843.612 117.687 844.573 118.693C857.302 132.017 866.692 146.225 875.961 166.241C876.738 167.917 877.501 169.594 878.278 171.287C885.733 187.537 893.462 204.336 905.749 217.447C913.904 226.136 923.828 232.92 933.417 239.475C940.628 244.399 948.082 249.491 956.482 252.113C958.083 252.616 960.385 253.134 961.894 251.945C963.037 251.045 963.479 249.399 963.799 247.92C964.76 243.469 965.476 239.002 966.162 234.673C968.525 219.825 970.766 205.8 982.459 193.924C983.998 192.354 985.675 190.876 987.276 189.443C990.294 186.76 993.419 183.985 995.752 180.616C1008.27 162.582 999.578 139.67 990.599 121.712C984.044 108.586 974.044 100.705 960.903 98.2961C941.405 94.7137 923.508 91.6648 906.191 88.9817C900.032 88.0213 893.888 86.7865 887.943 85.5822C875.549 83.0821 862.744 80.4906 849.558 80.4906L849.588 80.4753Z" fill="#D3D3D3"/>
<path d="M968.007 618.711C966.726 618.711 965.431 618.421 964.257 617.674C962.61 616.638 961.513 614.869 960.568 613.132C953.006 599.03 950.552 581.042 953.281 559.654C954.714 548.434 957.366 537.26 959.943 526.467C961.513 519.851 963.144 513.021 964.47 506.237C967.839 489.072 969.47 471.48 969.318 453.964C969.318 452.196 969.303 450.412 969.287 448.644C969.242 430.93 969.196 414.207 959.683 399.923C955.247 393.261 951.116 386.188 947.107 379.343C940.811 368.595 934.301 357.467 926.481 347.634C913.371 331.17 897.456 317.572 882.211 305.331C879.36 303.044 876.494 300.758 873.613 298.471C849.024 278.928 823.611 258.713 807.544 231.03C802.056 221.563 797.711 211.273 793.504 201.318C792.421 198.727 791.324 196.15 790.211 193.574C768.975 144.395 743.624 113.434 712.693 98.9365C710.33 97.8236 707.845 96.7717 705.452 95.7656C697.342 92.3204 688.957 88.7684 682.829 82.1523C677.311 76.1917 673.85 64.9718 677.463 57.7612C680.969 50.764 686.442 51.0384 692.753 51.3738C693.927 51.4348 695.147 51.4957 696.397 51.511L794.937 52.944C803.992 53.0812 813.322 52.9592 822.346 52.8525C843.765 52.5933 865.915 52.3189 887.166 55.2459C897.41 56.6484 907.761 58.8283 917.776 60.932C923.249 62.0754 928.905 63.2644 934.469 64.3163C944.546 66.2219 955.369 67.5786 966.208 64.7279C970.614 63.5693 975.096 62.7766 979.501 62.3955C984.471 61.9534 989.014 63.7523 993.008 67.7311C997.871 72.5788 1000.58 78.9662 1002.75 84.5762C1009.01 100.812 1016.12 116.62 1023.85 131.544C1029.62 142.703 1033.47 153.146 1035.6 163.466C1039.37 181.683 1033.48 199.031 1027.8 215.8C1025.8 221.685 1023.74 227.752 1022.16 233.728C1015.3 259.567 1016.51 290.452 1017.51 315.27C1018.21 332.801 1019.7 350.577 1021.15 367.772C1022.8 387.346 1024.5 407.591 1025.04 427.576C1026.68 488.783 1017.09 542.855 996.56 588.298C991.666 599.122 985.218 610.967 974.425 616.836C972.9 617.659 970.476 618.711 968.007 618.711ZM688.942 52.2275C684.491 52.2275 680.908 53.1421 678.378 58.188C674.948 65.0176 678.301 75.7344 683.576 81.4358C689.552 87.8995 697.845 91.4057 705.848 94.8052C708.257 95.8266 710.742 96.8784 713.135 97.9913C744.295 112.595 769.814 143.725 791.156 193.132C792.269 195.708 793.367 198.3 794.449 200.891C798.641 210.815 802.971 221.075 808.428 230.496C824.404 258.027 849.74 278.181 874.254 297.663C877.135 299.95 880.001 302.236 882.851 304.523C898.142 316.795 914.103 330.439 927.274 346.994C935.155 356.888 941.68 368.031 947.991 378.824C951.985 385.654 956.116 392.712 960.537 399.359C970.217 413.902 970.263 430.777 970.309 448.644C970.309 450.412 970.309 452.181 970.339 453.964C970.492 471.541 968.845 489.209 965.476 506.436C964.15 513.235 962.519 520.079 960.949 526.696C958.388 537.473 955.735 548.602 954.317 559.776C951.604 580.951 954.028 598.741 961.482 612.659C962.29 614.168 963.281 615.86 964.821 616.821C967.854 618.726 971.849 617.08 973.967 615.937C984.501 610.22 990.843 598.543 995.676 587.872C1016.15 542.565 1025.71 488.63 1024.06 427.591C1023.53 407.636 1021.82 387.422 1020.17 367.848C1018.73 350.637 1017.23 332.847 1016.53 315.301C1015.54 290.422 1014.3 259.445 1021.21 233.453C1022.81 227.447 1024.87 221.349 1026.87 215.45C1032.51 198.803 1038.34 181.592 1034.64 163.634C1032.54 153.405 1028.71 143.054 1022.98 131.971C1015.23 117.016 1008.11 101.177 1001.83 84.9116C999.7 79.3931 997.032 73.1124 992.322 68.4171C988.495 64.606 984.349 62.9443 979.623 63.3712C975.278 63.7523 970.858 64.5297 966.498 65.6731C955.476 68.5695 944.515 67.1975 934.317 65.2767C928.737 64.2248 923.066 63.0358 917.593 61.8924C907.593 59.7887 897.257 57.624 887.044 56.2215C865.884 53.3098 843.765 53.5842 822.377 53.8434C813.352 53.9501 804.007 54.072 794.937 53.9348L696.397 52.5019C695.131 52.4866 693.897 52.4256 692.707 52.3494C691.396 52.2732 690.131 52.2122 688.942 52.2122V52.2275Z" fill="#D3D3D3"/>
<path d="M995.737 487.167C994.426 487.167 993.252 486.74 992.322 485.917C990.797 484.56 990.249 482.502 989.806 480.52C985.721 462.044 986.255 442.622 986.788 423.826C987.093 412.804 987.413 401.401 986.788 390.364C986.285 381.523 985.462 371.309 982.093 361.918C975.812 344.372 961.467 331.429 948.525 320.682C946.345 318.868 944.134 317.008 941.908 315.118C929.454 304.599 916.572 293.715 902.593 287.144C887.12 279.873 869.299 270.528 854.497 256.411C837.164 239.871 825.624 218.712 816.614 200.205C812.971 192.705 810.09 184.686 807.3 176.942C802.91 164.747 798.382 152.139 790.775 141.331C785.729 134.151 778.747 127.672 772.009 121.391C768.777 118.388 765.744 115.553 762.862 112.641C756.277 105.934 749.447 99.0126 743.7 91.2532C740.819 87.3811 736.535 80.018 740.27 74.3776C742.892 70.3988 748.03 69.7128 753.182 69.5756C757.893 69.4384 762.817 69.4993 767.573 69.5451C777.268 69.6365 787.284 69.7433 796.659 68.3865C808.367 66.6944 820.974 65.048 833.841 64.5144C866.235 63.1424 891.891 65.3071 914.606 71.3134C923.63 73.6916 933.25 76.1459 943.006 77.5484C950.217 78.585 957.595 78.9814 964.729 79.3778C967.458 79.5302 970.187 79.6674 972.916 79.8503C981.361 80.4144 987.749 83.8444 992.413 90.3233C995.142 94.1039 997.566 97.5339 999.502 101.315C1005.75 113.403 1011.36 124.334 1016.64 135.706C1021.74 146.728 1027.05 160.021 1027.54 175.189C1027.95 187.888 1021.35 198.833 1014.98 209.428C1012.17 214.078 1009.27 218.895 1007.09 223.712C994.593 251.244 998.389 282.967 1002.06 313.624C1002.66 318.578 1003.27 323.685 1003.8 328.67C1005.46 344.326 1006.1 360.272 1006.74 375.684C1007.06 383.703 1007.41 391.98 1007.89 400.121C1009.35 425.046 1008.28 450.184 1004.72 474.834C1004.21 478.355 1003.57 481.74 1001.51 484.316C1000.25 485.901 998.252 486.984 996.301 487.151C996.118 487.167 995.95 487.167 995.767 487.167H995.737ZM759.981 70.5055C757.695 70.5055 755.408 70.5207 753.167 70.5817C748.289 70.7189 743.441 71.3287 741.078 74.9264C737.572 80.2467 742.298 87.7012 744.478 90.6434C750.194 98.3418 756.978 105.248 763.548 111.925C766.399 114.836 769.448 117.657 772.665 120.644C779.448 126.956 786.461 133.48 791.583 140.737C799.266 151.652 803.824 164.32 808.23 176.576C811.004 184.305 813.886 192.293 817.499 199.748C826.462 218.178 837.957 239.246 855.168 255.665C869.863 269.689 887.593 278.973 902.989 286.214C917.091 292.846 930.018 303.761 942.518 314.325C944.744 316.215 946.954 318.075 949.134 319.889C962.184 330.728 976.635 343.777 983.008 361.552C986.422 371.08 987.261 381.385 987.764 390.288C988.404 401.356 988.084 412.789 987.764 423.826C987.245 442.561 986.712 461.922 990.767 480.276C991.178 482.105 991.666 483.996 992.977 485.139C994.044 486.084 995.295 486.191 996.163 486.115C997.84 485.978 999.578 485.032 1000.68 483.645C1002.58 481.267 1003.18 478.035 1003.66 474.651C1007.22 450.077 1008.27 425 1006.82 400.151C1006.35 391.996 1006 383.703 1005.68 375.684C1005.05 360.287 1004.4 344.357 1002.75 328.731C1002.22 323.761 1001.61 318.639 1001.01 313.7C997.322 282.891 993.511 251.045 1006.12 223.255C1008.33 218.392 1011.24 213.544 1014.06 208.864C1020.37 198.391 1026.88 187.568 1026.48 175.174C1026 160.189 1020.75 147.002 1015.68 136.087C1010.4 124.73 1004.81 113.815 998.557 101.726C996.636 98.0217 994.243 94.6222 991.544 90.8721C987.047 84.6523 980.919 81.3595 972.794 80.826C970.065 80.643 967.351 80.4906 964.623 80.3534C957.458 79.9723 950.049 79.5607 942.808 78.5241C932.99 77.1063 923.341 74.652 914.286 72.2586C891.678 66.2828 866.098 64.1333 833.825 65.5053C821.005 66.0541 808.428 67.6853 796.751 69.3774C787.299 70.7494 777.238 70.6427 767.512 70.5512C765.027 70.5207 762.481 70.5055 759.966 70.5055H759.981Z" fill="#D3D3D3"/>
<path d="M973.907 309.615C972.367 309.615 970.797 309.112 969.531 308.258C967.199 306.688 965.659 304.233 964.15 301.855L963.708 301.154C951.04 281.184 931.024 267.464 911.679 254.201C890.397 239.597 868.384 224.505 856.326 201.105C852.073 192.873 849.222 183.818 846.478 175.067C843.536 165.738 840.502 156.103 835.777 147.475C826.935 131.346 812.209 118.983 799.22 108.083C796.156 105.507 792.681 102.595 790.577 98.7231C788.214 94.3632 788.168 89.3782 790.455 86.0092C792.833 82.5335 797.162 81.2987 801.035 80.4145C821.965 75.643 844.1 73.4478 872.79 73.3411C872.897 73.3411 872.988 73.3411 873.08 73.3411C882.531 73.3411 891.8 75.1704 902.075 77.3656L908.31 78.7071C919.24 81.07 930.536 83.4939 941.665 85.6128C946.878 86.6037 952.214 87.3355 957.366 88.052C960.69 88.5093 964.104 88.9819 967.473 89.5154C973.541 90.4758 981.254 92.4576 987.002 99.2414C990.95 103.891 994.151 108.571 996.529 113.16C1000.71 121.239 1004.49 129.746 1008.15 137.962L1009.29 140.523C1013.79 150.615 1016.16 159.93 1016.55 168.985C1017.2 184.366 1010.72 191.47 1003.21 199.672C1000.34 202.812 997.368 206.044 994.502 210.023C985.111 222.996 979.577 238.865 978.907 254.735C978.617 261.579 979.181 268.561 979.715 275.33C980.446 284.416 981.193 293.806 979.898 302.983C979.669 304.554 979.334 306.337 978.251 307.694C977.154 309.051 975.538 309.645 973.876 309.645L973.907 309.615ZM873.095 74.3319C873.004 74.3319 872.897 74.3319 872.805 74.3319C844.192 74.4539 822.118 76.6186 801.263 81.3901C797.406 82.2743 793.458 83.4024 791.293 86.5732C788.93 90.049 789.677 94.9272 791.476 98.2352C793.489 101.94 796.873 104.79 799.876 107.306C812.925 118.266 827.728 130.691 836.661 146.987C841.432 155.692 844.496 165.387 847.439 174.762C850.183 183.467 853.018 192.476 857.226 200.632C869.177 223.804 891.068 238.835 912.258 253.363C931.695 266.686 951.787 280.467 964.562 300.605L965.004 301.306C966.437 303.593 967.931 305.956 970.08 307.42C972.291 308.898 975.736 309.173 977.474 307.023C978.404 305.88 978.709 304.249 978.907 302.8C980.203 293.745 979.456 284.4 978.724 275.376C978.175 268.592 977.611 261.564 977.901 254.658C978.587 238.606 984.197 222.523 993.694 209.398C996.606 205.373 999.593 202.111 1002.47 198.955C1010.14 190.586 1016.19 183.97 1015.55 168.985C1015.17 160.051 1012.83 150.859 1008.39 140.889L1007.25 138.328C1003.59 130.111 999.807 121.635 995.645 113.586C993.313 109.074 990.142 104.455 986.239 99.8512C980.69 93.3265 973.221 91.4057 967.321 90.4758C963.967 89.9423 960.537 89.4697 957.229 89.0124C952.061 88.2959 946.71 87.5641 941.482 86.5732C930.338 84.4543 919.027 82.0152 908.096 79.6675L901.861 78.326C891.647 76.1308 882.44 74.3167 873.08 74.3167L873.095 74.3319Z" fill="#D3D3D3"/>
<path d="M958.936 151.682C958.83 151.682 958.723 151.682 958.601 151.652C946.588 149.853 937.426 143.527 931.39 132.871C929.896 130.233 929.85 127.108 931.298 124.715C932.533 122.657 934.682 121.498 937.015 121.59C940.094 121.681 942.823 121.971 945.338 122.489C953.083 124.09 958.388 127.002 962.534 131.956C965.446 135.432 966.818 139.09 966.498 142.536C966.208 145.676 964.501 148.603 961.574 150.996C961.467 151.088 961.36 151.118 961.223 151.118C961.177 151.149 961.132 151.164 961.086 151.179C960.857 151.225 960.629 151.301 960.415 151.377C959.943 151.53 959.47 151.698 958.967 151.698L958.936 151.682ZM936.801 122.596C934.865 122.596 933.173 123.556 932.167 125.248C930.917 127.337 930.948 130.066 932.274 132.383C938.25 142.901 946.909 148.893 958.769 150.661C959.165 150.722 959.607 150.569 960.08 150.417C960.339 150.326 960.598 150.249 960.842 150.188C960.888 150.188 960.933 150.173 960.979 150.188C963.693 147.932 965.202 145.341 965.476 142.459C965.766 139.289 964.485 135.889 961.741 132.627C957.763 127.87 952.625 125.05 945.125 123.511C942.671 123.007 940.003 122.718 936.984 122.626C936.923 122.626 936.862 122.626 936.801 122.626V122.596Z" fill="#D3D3D3"/>
<path d="M948.204 210.8C944.256 210.8 939.972 208.773 936.542 206.623C927.929 201.242 917.212 193.604 910.718 182.202C907.364 176.317 905.322 169.701 903.325 163.298C902.456 160.478 901.541 157.551 900.535 154.731C895.901 141.743 888.583 129.593 879.376 119.593C878.979 119.166 878.583 118.739 878.171 118.297C875.809 115.766 873.369 113.159 871.769 109.973C869.635 105.705 869.619 100.888 871.769 97.7168C875.183 92.6252 882.272 92.7776 888.05 93.4941C894.27 94.2563 900.672 94.8661 906.877 95.4454C924.987 97.168 943.707 98.9516 961.116 104.623C970.629 107.717 977.809 112.916 983.099 120.492C991.499 132.535 999.136 156.911 988.846 170.951C985.843 175.052 981.239 177.186 976.788 179.259C974.288 180.418 971.696 181.622 969.425 183.162C964.623 186.409 960.994 191.333 959.226 197.004C958.952 197.903 958.708 198.833 958.464 199.763C957.61 203.01 956.726 206.379 954.241 208.59C952.473 210.16 950.384 210.785 948.204 210.785V210.8ZM882.867 94.1496C878.781 94.1496 874.802 95.0338 872.622 98.2961C870.686 101.177 870.717 105.583 872.699 109.546C874.223 112.611 876.632 115.156 878.934 117.641C879.33 118.068 879.742 118.51 880.138 118.937C889.437 129.044 896.815 141.316 901.495 154.411C902.517 157.246 903.416 160.173 904.3 163.009C906.267 169.35 908.31 175.921 911.602 181.714C917.99 192.918 928.57 200.464 937.076 205.785C942.122 208.94 949.073 211.852 953.57 207.858C955.842 205.846 956.68 202.644 957.488 199.534C957.732 198.589 957.991 197.644 958.266 196.729C960.11 190.83 963.86 185.738 968.861 182.354C971.208 180.769 973.83 179.549 976.361 178.375C980.888 176.271 985.172 174.274 988.023 170.387C998.023 156.743 990.508 132.916 982.261 121.102C977.108 113.708 970.08 108.647 960.781 105.613C943.479 99.973 924.804 98.1894 906.755 96.482C900.55 95.8875 894.132 95.2777 887.913 94.5307C886.281 94.3325 884.559 94.1801 882.836 94.1801L882.867 94.1496Z" fill="#D3D3D3"/>
<path d="M744.341 538.632C725.072 538.632 707.114 532.626 699.522 511.741C693.653 495.612 693.317 476.724 692.982 458.477C692.845 451.022 692.723 443.979 692.235 437.165V436.891C690.162 408.079 688.028 378.276 690.467 348.976C690.756 345.561 691.107 342.085 691.442 338.716C692.845 324.874 694.293 310.575 691.534 296.87C688.424 281.336 680.238 267.967 672.631 256.93C664.17 244.658 658.133 239.079 642.66 236.335C615.799 231.578 594.198 239.201 574.868 248.149C568.313 250.725 561.773 253.729 555.447 256.64C535.08 265.985 515.842 274.812 499.911 268.348C490.078 264.354 482.38 254.857 476.374 239.323C473.492 231.868 471.191 224.917 468.95 218.209C457.775 184.61 451.037 164.335 400.243 175.204C385.166 176.561 377.437 175.662 374.327 172.232C371.721 169.351 372.529 165.067 373.55 159.655C374.846 152.826 376.446 144.319 371.843 134.898C359.998 125.492 355.043 118.282 356.247 112.23C358.214 102.245 376.507 96.9548 401.828 89.6374C413.536 86.2532 426.784 82.4268 440.168 77.5638C517.991 54.2246 539.135 73.021 581.24 110.446C595.875 123.45 612.461 138.206 634.87 154.564C646.883 162.917 655.328 173.909 664.246 185.525C676.991 202.126 690.177 219.291 715.254 230.435C732.206 239.338 739.462 254.689 747.146 270.955L748.655 274.156C751.46 280.452 755.256 286.215 758.929 291.794C763.259 298.38 767.741 305.179 770.5 312.755C772.695 318.746 776.095 324.341 779.388 329.737C783.915 337.161 788.58 344.829 790.257 353.702C790.806 356.613 790.989 359.601 791.171 362.482C791.248 363.794 791.339 365.089 791.446 366.385C793.824 393.627 808.657 408.444 827.804 424.985C834.085 432.653 838.002 440.458 841.814 448.019C845.183 454.711 848.658 461.632 853.719 468.309C855.168 469.849 856.677 471.404 858.171 472.959C867.348 482.411 876.022 491.329 875.61 504.82C875.61 504.896 875.595 504.972 875.549 505.033C875.549 505.079 875.549 505.14 875.549 505.201C870.046 532.671 842.804 531.955 816.462 531.254C805.166 530.949 793.473 530.644 784.007 532.687C782.208 533.144 780.378 533.571 778.564 533.998C768 536.422 755.926 538.602 744.341 538.602V538.632ZM626.242 233.896C631.547 233.896 637.081 234.353 642.843 235.374C658.682 238.179 664.841 243.865 673.469 256.381C681.122 267.494 689.384 280.97 692.525 296.687C695.299 310.529 693.851 324.92 692.448 338.823C692.113 342.177 691.762 345.653 691.473 349.067C689.034 378.291 691.168 408.048 693.211 436.814V437.089C693.714 443.918 693.851 450.977 693.973 458.446C694.308 476.618 694.644 495.414 700.452 511.39C712.342 544.09 750.591 539.41 778.336 533.053C780.15 532.641 781.964 532.199 783.778 531.742C793.382 529.668 805.135 529.988 816.492 530.278C842.408 530.964 869.223 531.681 874.559 505.048C874.559 505.003 874.589 504.957 874.604 504.911C874.604 504.881 874.604 504.866 874.604 504.835C875.016 491.786 866.479 483.005 857.454 473.706C855.945 472.151 854.436 470.596 852.957 469.011C847.82 462.212 844.314 455.245 840.929 448.522C837.149 441.022 833.246 433.262 827.103 425.747C807.849 409.13 792.864 394.16 790.455 366.538C790.333 365.227 790.257 363.915 790.181 362.604C789.998 359.738 789.815 356.781 789.281 353.946C787.65 345.256 783.016 337.665 778.549 330.317C775.226 324.874 771.796 319.234 769.57 313.151C766.841 305.697 762.39 298.944 758.091 292.404C754.402 286.794 750.576 280.986 747.74 274.629L746.231 271.443C738.624 255.345 731.428 240.131 714.812 231.411C689.537 220.176 676.274 202.904 663.438 186.196C654.551 174.625 646.166 163.71 634.276 155.432C611.821 139.029 595.219 124.273 580.569 111.239C538.739 74.0576 517.747 55.3984 440.488 78.5547C427.104 83.4177 413.826 87.2593 402.103 90.6436C378.062 97.595 359.083 103.083 357.223 112.458C356.126 118.038 361.141 125.157 372.559 134.212C372.62 134.258 372.666 134.319 372.696 134.38C377.513 144.152 375.867 152.871 374.541 159.869C373.565 165.006 372.803 169.076 375.074 171.576C377.91 174.701 385.624 175.525 400.091 174.229C451.708 163.177 458.568 183.772 469.91 217.919C472.136 224.627 474.438 231.548 477.319 238.987C483.218 254.247 490.734 263.546 500.292 267.433C515.811 273.729 534.867 264.994 555.035 255.741C561.377 252.829 567.932 249.826 574.472 247.234C589.792 240.146 606.561 233.865 626.242 233.865V233.896Z" fill="#D3D3D3"/>
<path d="M538.266 213.803C531.635 213.803 526.116 209.763 523.647 202.782C520.933 195.129 521.68 187.583 522.778 179.9C523.449 175.128 524.5 170.341 525.522 165.722C526.101 163.1 526.696 160.387 527.214 157.719C527.915 154.121 529.394 150.6 531.894 146.651C535.598 140.782 542.992 138.343 549.471 140.874C553.724 142.52 558.008 145.066 561.865 148.237C567.002 152.46 571.59 157.368 575.005 161.179C578.039 164.564 579.96 167.902 581.652 172.704C582.246 174.412 582.978 176.973 582.399 179.473C581.957 181.317 580.874 182.888 579.899 184.29L579.152 185.388C577.993 187.095 576.774 188.863 575.264 190.373C574.075 191.562 572.917 192.766 571.743 193.97C566.407 199.473 560.904 205.175 553.724 208.986C549.882 211.029 545.995 212.507 542.199 213.361C540.858 213.666 539.562 213.819 538.281 213.819L538.266 213.803ZM544.303 140.904C539.73 140.904 535.248 143.206 532.732 147.17C530.309 151.011 528.876 154.426 528.19 157.902C527.671 160.585 527.077 163.298 526.497 165.936C525.476 170.54 524.439 175.311 523.769 180.037C522.702 187.598 521.97 195.007 524.592 202.446C527.397 210.358 534.043 214.169 541.94 212.37C545.66 211.517 549.456 210.084 553.221 208.087C560.264 204.352 565.721 198.711 570.996 193.254C572.17 192.049 573.344 190.83 574.517 189.641C575.966 188.193 577.094 186.546 578.283 184.793L579.045 183.695C580.005 182.308 580.996 180.875 581.393 179.229C581.804 177.521 581.576 175.555 580.676 173.024C579.03 168.344 577.17 165.113 574.228 161.835C570.828 158.054 566.285 153.176 561.194 148.999C557.428 145.905 553.236 143.42 549.074 141.804C547.52 141.194 545.888 140.92 544.288 140.92L544.303 140.904Z" fill="#D3D3D3"/>
<path d="M755.972 491.679C748.655 491.679 744.31 488.463 743.593 482.532C742.221 471.221 754.28 454.086 765.119 451.983C769.402 451.144 777.192 452.044 781.278 467.288C781.308 467.41 781.293 467.547 781.232 467.654C781.232 467.7 781.232 467.745 781.232 467.791C779.448 479.59 770.53 488.508 757.359 491.633C756.887 491.664 756.429 491.664 755.972 491.664V491.679ZM767.421 452.76C766.735 452.76 766.018 452.821 765.302 452.973C754.874 455.001 743.258 471.495 744.584 482.395C745.286 488.173 749.646 491.039 757.207 490.643C769.875 487.624 778.519 479.011 780.226 467.639C780.226 467.578 780.256 467.532 780.272 467.486C777.665 457.791 773.244 452.76 767.405 452.76H767.421Z" fill="#D3D3D3"/>
<path d="M859.909 554.761C859.558 554.761 859.207 554.761 858.857 554.761C844.893 554.578 830.914 551.956 817.392 549.41C812.285 548.449 806.995 547.459 801.781 546.605C788.915 544.516 772.055 542.535 755.865 545.812C754.707 546.041 753.563 546.285 752.42 546.513C739.782 549.135 727.831 551.605 714.751 548.495C700.696 545.157 689.201 536.193 684.003 524.485C679.048 513.326 679.841 500.658 680.603 488.386C680.771 485.719 680.939 482.944 681.045 480.261C681.686 464.087 679.887 447.699 678.149 431.845C676.868 420.198 675.542 408.155 675.192 396.249C674.963 388.276 675.542 378.291 676.152 367.727C678.545 326.841 681.823 270.848 640.953 261.32C630.51 258.881 619.397 260.833 608.939 263.302C591.454 267.433 574.029 273.12 557.2 278.623C548.907 281.336 540.339 284.141 531.848 286.718C514.256 292.084 501.344 289.492 491.206 278.577C483.981 270.787 478.05 262.189 472.318 253.881C466.648 245.664 463.675 235.999 460.794 226.654C455.702 210.13 450.9 194.519 432.226 187.552C418.719 182.507 404.039 185.418 389.831 188.208C377.315 190.678 364.373 193.223 351.964 190.556C349.265 189.976 345.454 188.833 343.518 185.662C341.277 181.988 342.497 177.369 343.564 173.299C343.716 172.735 343.854 172.186 343.991 171.653C347.36 158.115 343.351 143.023 333.792 133.206C331.81 131.163 329.57 129.319 327.405 127.535C325.057 125.599 322.633 123.602 320.499 121.331C315.529 116.056 313.212 109.958 314.142 104.592C315.438 97.0767 322.45 92.4576 328.594 90.6283C332.253 89.5307 336.079 89.0734 339.768 88.6313C342.68 88.2807 345.698 87.9148 348.595 87.244C358.26 85.0031 366.888 79.3474 375.227 73.8747C378.702 71.588 382.3 69.2251 385.928 67.1366C404.374 56.5265 426.875 51.0842 452.836 50.9623C475.84 50.8708 500.536 54.2398 528.22 61.3132C538.129 63.8438 547.687 68.3714 557.474 75.1857C565.111 80.506 572.276 87.0459 580.691 96.3907C594.975 112.26 609.473 125.233 625.007 136.057L627.736 137.947C637.492 144.716 647.584 151.713 655.511 160.616C661.944 167.841 667.768 175.723 673.393 183.345L675.329 185.967C685.649 199.916 699.034 211.7 715.102 220.984C721.519 224.703 728.944 229.322 735.224 235.42C742.023 242.006 745.606 250.314 749.097 258.332L750.24 260.97C754.935 271.687 759.783 282.769 767.619 292.267C774.265 300.316 780.958 308.563 787.497 316.78C796.705 328.335 800.089 342.71 803.367 356.598C806.629 370.425 809.998 384.724 819.038 396.63C825.807 405.563 833.886 413.567 841.691 421.296C844.054 423.643 846.432 425.991 848.765 428.369C859.238 439.01 867.195 446.921 875.366 454.788C886.876 465.886 893.202 476.846 894.666 488.31C895.215 492.609 895.138 497.304 894.422 503.097C893.949 506.878 893.279 510.689 892.394 514.424C890.397 522.9 887.394 531.056 883.446 538.708C880.748 543.937 876.845 550.294 870.534 553.038C867.195 554.486 863.476 554.761 859.878 554.761H859.909ZM774.57 543.053C784.494 543.053 793.992 544.303 801.949 545.599C807.163 546.452 812.468 547.443 817.575 548.404C831.051 550.95 844.984 553.572 858.872 553.739C863.232 553.8 866.86 553.541 870.153 552.108C876.159 549.486 879.94 543.327 882.562 538.236C886.464 530.659 889.452 522.58 891.419 514.18C892.288 510.476 892.958 506.71 893.431 502.96C894.132 497.259 894.208 492.64 893.675 488.417C892.227 477.197 886.022 466.434 874.665 455.504C866.494 447.623 858.536 439.726 848.048 429.07C845.716 426.692 843.353 424.36 840.99 422.012C833.154 414.253 825.06 406.219 818.245 397.24C809.068 385.151 805.684 370.76 802.391 356.827C798.992 342.406 795.775 328.777 786.705 317.405C780.165 309.188 773.488 300.956 766.841 292.907C758.914 283.303 754.036 272.159 749.31 261.366L748.151 258.714C744.721 250.786 741.154 242.585 734.508 236.121C728.303 230.1 720.955 225.526 714.583 221.837C698.394 212.477 684.902 200.602 674.506 186.546L672.57 183.924C666.96 176.317 661.151 168.451 654.749 161.256C646.898 152.429 636.852 145.478 627.156 138.74L624.428 136.849C608.832 125.98 594.274 112.961 579.929 97.031C571.56 87.7471 564.456 81.253 556.879 75.9784C547.199 69.2403 537.748 64.7585 527.961 62.2584C500.353 55.2155 475.718 51.8312 452.836 51.9532C427.058 52.0751 404.709 57.4564 386.431 67.9903C382.818 70.0635 379.236 72.4264 375.775 74.6979C367.361 80.2164 358.656 85.933 348.823 88.2197C345.881 88.9057 342.832 89.2715 339.89 89.6222C336.231 90.0643 332.451 90.5216 328.884 91.5887C323.03 93.3266 316.353 97.7017 315.148 104.76C314.279 109.806 316.505 115.599 321.246 120.629C323.335 122.855 325.743 124.837 328.06 126.742C330.24 128.541 332.512 130.401 334.524 132.49C344.326 142.551 348.427 158.024 344.982 171.896C344.844 172.445 344.692 172.994 344.555 173.558C343.488 177.628 342.375 181.836 344.387 185.144C346.125 187.979 349.662 189.031 352.177 189.58C364.388 192.217 377.224 189.687 389.648 187.232C403.978 184.397 418.811 181.47 432.591 186.623C451.739 193.757 456.602 209.596 461.769 226.365C464.62 235.633 467.577 245.222 473.157 253.317C478.874 261.595 484.773 270.162 491.953 277.906C501.786 288.501 514.378 291.001 531.558 285.772C540.034 283.196 548.602 280.391 556.895 277.678C573.755 272.159 591.195 266.458 608.726 262.326C619.305 259.842 630.556 257.875 641.196 260.345C682.89 270.071 679.582 326.551 677.173 367.788C676.548 378.337 675.969 388.307 676.213 396.234C676.564 408.094 677.89 420.122 679.155 431.753C680.908 447.638 682.707 464.071 682.052 480.322C681.945 483.02 681.777 485.78 681.609 488.463C680.847 500.597 680.07 513.159 684.933 524.089C690.009 535.507 701.244 544.257 714.995 547.52C727.846 550.568 739.691 548.129 752.222 545.523C753.365 545.279 754.524 545.05 755.682 544.806C761.978 543.526 768.366 543.038 774.585 543.038L774.57 543.053Z" fill="#D3D3D3"/>
<path d="M184 138.785C180.22 138.785 176.653 137.383 173.314 135.782C167.78 133.145 163.268 129.852 159.533 125.736C157.811 123.831 155.951 121.254 156.85 118.205C157.75 115.172 160.25 114.562 162.46 114.028C162.811 113.937 163.161 113.861 163.512 113.769C164.457 113.51 165.433 113.373 166.378 113.236C166.805 113.175 167.216 113.114 167.643 113.053C167.719 113.053 167.796 113.053 167.872 113.053C167.933 113.038 167.994 113.022 168.055 113.038C169.046 113.114 170.052 113.175 171.043 113.22C173.223 113.358 175.464 113.48 177.674 113.739C184.382 114.501 189.809 116.879 194.26 120.98C197.461 123.953 198.239 127.901 196.425 132.108C194.367 136.91 190.296 137.764 187.019 138.45C185.997 138.663 184.991 138.755 184 138.755V138.785ZM167.872 114.044C167.872 114.044 167.826 114.044 167.811 114.044C167.384 114.12 166.957 114.181 166.53 114.242C165.616 114.364 164.686 114.501 163.802 114.745C163.451 114.836 163.085 114.928 162.719 115.019C160.585 115.538 158.573 116.01 157.841 118.495C157.094 121.041 158.664 123.251 160.311 125.065C163.954 129.09 168.36 132.307 173.771 134.883C177.811 136.804 182.202 138.465 186.836 137.49C190.708 136.682 193.803 135.737 195.525 131.742C197.172 127.901 196.501 124.456 193.589 121.757C189.306 117.794 184.077 115.507 177.583 114.775C175.403 114.532 173.162 114.394 170.997 114.257C169.991 114.196 169 114.135 167.994 114.074C167.963 114.074 167.918 114.074 167.887 114.059L167.872 114.044Z" fill="#D3D3D3"/>
<path d="M189.092 156.012C188.635 156.012 188.193 156.012 187.735 156.012H187.613C183.193 155.966 178.802 155.28 174.549 154.625C173.116 154.396 171.698 154.182 170.265 153.984L168.604 153.756C166.454 153.466 164.228 153.176 162.033 152.658C156.606 151.484 151.179 148.572 146.347 144.243C142.383 140.691 138.694 136.103 135.081 130.218C131.895 124.684 128.77 118.099 129.746 110.995C130.706 104.409 135.096 99.0738 141.469 96.7109C144.578 95.5676 147.917 95.5523 151.393 96.6652C151.469 96.6499 151.56 96.6499 151.637 96.6652C154.716 97.4884 157.765 98.464 160.707 99.3939C162.033 99.8207 163.36 100.232 164.701 100.644C168.924 102.245 173.39 103.495 177.979 104.364L179.275 104.608C181.363 104.989 183.513 105.385 185.571 106.162C189.946 107.824 193.544 111.132 196.775 114.455C201.303 119.288 205.465 124.303 209.139 129.364C210.953 131.849 212.752 134.563 213.163 137.84C213.941 143.694 209.154 148.466 207.065 150.249C202.477 154.152 196.867 155.981 189.382 156.012H189.077H189.092ZM146.362 96.8328C144.807 96.8328 143.283 97.1072 141.834 97.6408C135.813 99.8817 131.666 104.912 130.752 111.117C129.807 117.901 132.855 124.303 135.95 129.685C139.517 135.478 143.13 139.99 147.017 143.481C151.713 147.688 156.987 150.524 162.262 151.667C164.411 152.185 166.607 152.475 168.741 152.749L170.402 152.978C171.835 153.176 173.268 153.405 174.701 153.618C178.924 154.274 183.284 154.96 187.613 154.99H187.735C188.284 154.99 188.833 154.99 189.382 154.99C196.608 154.96 202.019 153.207 206.41 149.472C208.376 147.795 212.873 143.328 212.172 137.962C211.776 134.929 210.053 132.337 208.331 129.959C204.687 124.928 200.556 119.959 196.059 115.157C192.919 111.925 189.412 108.693 185.235 107.108C183.254 106.361 181.15 105.964 179.122 105.598L177.827 105.354C173.162 104.47 168.649 103.205 164.396 101.589C163.085 101.193 161.759 100.766 160.433 100.339C157.506 99.4092 154.472 98.4488 151.423 97.6256C151.332 97.6408 151.24 97.6408 151.149 97.6256C149.518 97.092 147.932 96.8328 146.377 96.8328H146.362Z" fill="#D3D3D3"/>
<path d="M191.272 169.869C189.61 169.869 187.873 169.808 186.074 169.671C185.19 169.61 184.305 169.534 183.436 169.457C179.473 169.107 175.464 168.512 171.591 167.933C167.155 167.262 162.567 166.576 158.054 166.286C156.789 166.195 155.524 166.149 154.259 166.088C151.515 165.966 148.664 165.844 145.874 165.418C137.627 164.244 129.12 159.823 121.94 152.963C116.163 147.429 111.041 140.34 105.842 130.66C101.528 122.261 96.7108 111.163 97.8389 99.653C98.9822 88.6313 105.568 79.1797 114.638 75.5668C119.486 73.646 124.837 73.8594 130.127 76.2071C130.203 76.2071 130.294 76.2071 130.386 76.2376C133.679 77.4876 136.895 78.9663 140.005 80.4145C142.246 81.4512 144.548 82.5183 146.896 83.4939C153.009 86.4208 159.792 88.4636 166.546 89.424C167.46 89.546 168.36 89.6679 169.274 89.7746C172.156 90.1252 175.143 90.4759 177.979 91.4363C184.519 93.6315 189.732 98.7841 194.489 103.876C202.004 112.092 209.382 120.614 216.425 129.242C220.023 133.663 223.316 138.069 224.17 143.45C225.603 152.429 219.032 160.234 212.995 164.183C207.065 168.055 200.083 169.899 191.303 169.899L191.272 169.869ZM121.453 75.2314C119.257 75.2314 117.108 75.643 115.004 76.4815C106.406 79.8962 99.9121 89.2411 98.8298 99.7292C97.7322 110.919 102.199 121.407 106.726 130.172C111.864 139.746 116.925 146.758 122.626 152.216C129.654 158.923 137.947 163.253 146.011 164.396C148.755 164.823 151.576 164.945 154.289 165.067C155.57 165.128 156.835 165.174 158.115 165.265C162.674 165.57 167.277 166.256 171.729 166.927C175.586 167.506 179.58 168.101 183.513 168.451C184.382 168.527 185.266 168.604 186.135 168.665C197.217 169.488 205.556 167.78 212.401 163.299C218.194 159.518 224.49 152.079 223.133 143.572C222.325 138.435 219.108 134.151 215.602 129.837C208.575 121.224 201.196 112.718 193.711 104.516C189.031 99.5311 183.94 94.4699 177.613 92.3509C174.869 91.421 171.942 91.0704 169.107 90.735C168.192 90.6283 167.277 90.5216 166.363 90.3844C159.503 89.424 152.612 87.3508 146.438 84.3781C144.106 83.4024 141.789 82.3353 139.548 81.2987C136.484 79.881 133.313 78.4175 130.066 77.1827C129.974 77.198 129.867 77.1827 129.776 77.1522C126.941 75.8869 124.151 75.2467 121.422 75.2467L121.453 75.2314Z" fill="#D3D3D3"/>
<path d="M197.797 184.778C194.428 184.778 190.845 184.564 187.034 184.122C185.86 183.985 184.702 183.848 183.528 183.696C179.671 183.208 175.768 182.567 171.988 181.958C164.808 180.784 157.384 179.58 150.051 179.366C148.191 179.305 146.301 179.32 144.487 179.336C141.011 179.336 137.429 179.366 133.907 178.955C122.748 177.765 111.33 171.912 101.757 162.475C94.1802 155.006 87.5336 145.28 80.8261 131.91C75.1856 120.355 68.8897 105.049 70.1549 89.0733C71.4202 73.6612 80.2163 60.0479 92.046 55.1849C98.6468 52.4714 105.918 52.9287 113.099 56.4959C113.19 56.4959 113.266 56.4959 113.327 56.5416C117.184 58.2795 120.904 60.3528 124.501 62.365C127.337 63.9504 130.279 65.5968 133.267 67.0603C141.286 71.344 150.28 74.149 159.304 75.2008C160.631 75.3533 161.972 75.4752 163.314 75.5972C167.049 75.9326 170.921 76.268 174.595 77.4265C183.132 80.1096 189.778 86.8019 196.409 94.0125C206.943 105.629 217.553 117.687 227.935 129.852C233.438 136.316 238.103 142.276 239.368 149.807C241.472 162.216 232.432 173.558 223.133 178.833C216.09 182.842 207.873 184.778 197.781 184.778H197.797ZM146.53 178.33C147.719 178.33 148.908 178.33 150.097 178.375C157.49 178.589 164.945 179.808 172.156 180.982C175.921 181.592 179.823 182.232 183.65 182.72C184.808 182.872 185.967 183.01 187.141 183.147C202.157 184.839 213.437 183.192 222.645 177.964C231.639 172.857 240.405 161.926 238.377 149.99C237.143 142.718 232.569 136.865 227.173 130.523C216.791 118.373 206.196 106.315 195.662 94.6985C189.138 87.5946 182.598 81.009 174.29 78.4022C170.707 77.2741 166.896 76.9387 163.222 76.6186C161.881 76.4966 160.524 76.3747 159.198 76.2222C150.051 75.1551 140.935 72.3196 132.825 67.9902C129.822 66.5268 126.88 64.8804 124.029 63.2797C120.477 61.2979 116.818 59.2399 113.038 57.5325C112.946 57.5325 112.855 57.5325 112.778 57.4868C105.735 53.9653 98.8907 53.508 92.4576 56.1605C81.1614 60.8101 72.4111 74.3929 71.1916 89.1952C69.9415 104.928 76.1917 120.065 81.7712 131.499C88.4178 144.776 95.0034 154.411 102.504 161.805C111.909 171.088 123.114 176.836 134.06 177.994C137.535 178.39 141.087 178.39 144.533 178.36C145.203 178.36 145.889 178.36 146.56 178.36L146.53 178.33Z" fill="#D3D3D3"/>
<path d="M201.623 200.708C195.632 200.708 190.037 200.114 185.327 199.474C183.879 199.275 182.415 199.062 180.967 198.833C177.201 198.269 173.39 197.598 169.686 196.943C159.792 195.205 149.548 193.421 139.395 193.345C136.987 193.345 134.517 193.406 132.139 193.482C127.931 193.62 123.572 193.772 119.273 193.376C105.202 192.171 90.8722 184.9 78.9205 172.872C69.5452 163.451 61.3742 151.118 53.1727 134.044C46.2212 119.349 38.416 99.8663 39.8185 79.3778C41.1905 59.7277 52.2885 41.7698 66.786 35.7025C75.1399 32.2115 84.3323 32.8975 93.4028 37.6995C93.4637 37.6995 93.54 37.7147 93.6009 37.7452C98.0523 39.9862 102.336 42.6692 106.467 45.2607C109.867 47.395 113.388 49.6054 116.986 51.5414C126.91 57.1666 138.13 60.7491 149.426 61.8924C151.164 62.0754 152.917 62.1821 154.655 62.304C159.259 62.6242 164.03 62.9443 168.558 64.3163C179.107 67.5024 187.08 75.5819 195.662 85.0335C209.291 100.156 223.133 115.751 236.792 131.361C242.722 138.145 250.085 146.591 251.93 157.048C254.704 172.826 243.332 187.751 230.664 194.351C221.273 199.245 210.968 200.678 201.608 200.678L201.623 200.708ZM138.785 192.354C138.999 192.354 139.212 192.354 139.426 192.354C149.655 192.431 159.93 194.229 169.869 195.967C173.558 196.608 177.369 197.278 181.119 197.842C182.568 198.071 184.016 198.284 185.464 198.483C204.459 201.089 218.666 199.504 230.206 193.498C242.554 187.08 253.637 172.567 250.954 157.262C249.17 147.078 241.899 138.755 236.06 132.063C222.401 116.452 208.575 100.857 194.946 85.75C186.47 76.4204 178.604 68.4323 168.299 65.3224C163.878 63.9809 159.167 63.6608 154.609 63.3406C152.856 63.2187 151.088 63.0967 149.35 62.9138C137.917 61.7552 126.559 58.1423 116.513 52.4409C112.9 50.4896 109.364 48.2791 105.949 46.1297C101.863 43.5686 97.6407 40.9161 93.2656 38.7209C93.1893 38.7209 93.1284 38.7056 93.0521 38.6599C84.2256 33.9646 75.2771 33.2634 67.1823 36.6476C53.0202 42.5777 42.1814 60.185 40.8247 79.4693C39.4374 99.7139 47.1816 119.044 54.0873 133.633C62.2431 150.6 70.3532 162.856 79.6523 172.186C91.4362 184.031 105.553 191.211 119.379 192.4C123.617 192.781 127.947 192.644 132.124 192.507C134.304 192.431 136.56 192.354 138.785 192.354Z" fill="#D3D3D3"/>
<path d="M208.803 213.712C200.769 213.712 193.208 212.812 186.943 211.852C185.205 211.593 183.467 211.303 181.729 211.014C178.025 210.389 174.259 209.687 170.616 209.016C158.298 206.745 145.585 204.382 132.916 204.382C132.627 204.382 132.352 204.382 132.078 204.382C129.105 204.413 126.087 204.565 123.16 204.718C118.19 204.977 113.053 205.251 107.992 204.87C91.0247 203.65 73.768 194.946 59.4382 180.342C44.7578 165.402 34.9556 146.301 28.8578 133.252C20.5801 115.416 11.2962 91.7562 12.8207 66.7553C14.3146 42.6234 27.5011 20.6409 44.8798 13.2931C54.9868 9.02463 66.1153 9.95454 77.0913 15.9761C77.137 15.9761 77.1827 16.0066 77.2285 16.0218C82.3049 18.7506 87.1526 22.0434 91.8479 25.2295C95.7962 27.8973 99.8665 30.6717 104.043 33.0804C115.888 40.0623 129.319 44.407 142.902 45.6418C145.036 45.84 147.231 45.9619 149.35 46.0839C154.838 46.3888 160.494 46.7089 165.89 48.2943C179.473 52.2884 189.9 63.8589 198.285 73.1428C214.993 91.741 232.051 110.858 249.003 129.959C256.366 138.267 265.543 148.603 267.83 161.378C271.366 181.104 257.265 199.23 241.518 206.943C230.999 212.096 219.474 213.681 208.803 213.681V213.712ZM132.916 203.361C145.661 203.361 158.436 205.724 170.799 208.01C174.442 208.681 178.208 209.382 181.912 210.007C183.65 210.297 185.373 210.587 187.11 210.846C201.577 213.056 222.904 214.962 241.091 206.059C256.503 198.513 270.299 180.814 266.854 161.576C264.613 149.075 255.558 138.846 248.271 130.645C231.319 111.528 214.246 92.427 197.553 73.8288C189.26 64.6211 178.939 53.1725 165.631 49.27C160.356 47.715 154.746 47.4101 149.319 47.09C147.185 46.9681 144.99 46.8461 142.841 46.6479C129.121 45.3979 115.538 41.0075 103.571 33.9493C99.3634 31.5254 95.2626 28.7357 91.3143 26.0527C86.68 22.8971 81.878 19.65 76.8778 16.9517C76.8321 16.9517 76.7711 16.9213 76.7254 16.8908C66.0086 10.9759 55.1393 10.0308 45.3066 14.1925C28.2633 21.4031 15.336 43.035 13.8573 66.7858C12.3329 91.5581 21.571 115.065 29.7878 132.794C35.855 145.783 45.6115 164.777 60.1699 179.61C74.3473 194.031 91.3601 202.629 108.083 203.833C113.083 204.199 118.19 203.94 123.129 203.681C126.056 203.529 129.09 203.361 132.093 203.346C132.383 203.346 132.657 203.346 132.947 203.346L132.916 203.361Z" fill="#D3D3D3"/>
<path d="M10.7626 0H9.28387C5.8996 3.18609 2.78973 6.92098 0 11.0675V12.8968C3.1556 7.97284 6.78378 3.61293 10.7626 0Z" fill="#D3D3D3"/>
<path d="M1093.56 529.257C1091.38 535.659 1089.14 542.291 1087.2 548.907C1078.68 578.039 1075.62 609.214 1073.41 636.151C1072.07 652.539 1070.56 671.106 1059.84 684.171C1059.32 684.796 1058.76 685.39 1058.21 686H1059.57C1059.92 685.604 1060.3 685.223 1060.63 684.811C1071.55 671.503 1073.07 652.767 1074.43 636.227C1076.62 609.336 1079.69 578.222 1088.18 549.181C1090.11 542.58 1092.36 535.964 1094.52 529.577C1095.54 526.543 1096.59 523.464 1097.6 520.369V517.107C1096.29 521.208 1094.92 525.263 1093.56 529.257Z" fill="#D3D3D3"/>
<path d="M1087.13 36.0684C1091.3 43.4009 1094.78 51.2518 1097.6 59.4381V56.4044C1094.93 49.1328 1091.75 42.1356 1088 35.5653C1080.13 21.7233 1069.84 9.64973 1058.01 0H1056.39C1068.54 9.69547 1079.09 21.952 1087.11 36.0684H1087.13Z" fill="#D3D3D3"/>
<path d="M486.237 1.69213C518.906 7.98809 552.687 14.4975 585.951 10.3205C600.189 8.52164 614.321 4.75627 627.98 1.11284C629.367 0.746978 630.769 0.365867 632.172 0H628.254C628.071 0.0457333 627.903 0.0914667 627.72 0.1372C614.092 3.78062 599.991 7.53076 585.813 9.31435C552.718 13.4761 519.012 6.98196 486.42 0.701244C485.2 0.472578 483.965 0.228667 482.731 0H477.349C480.307 0.564044 483.264 1.12809 486.222 1.69213H486.237Z" fill="#D3D3D3"/>
<path d="M763.167 2.49998C767.634 4.11589 772.131 5.91474 776.491 7.66785C786.537 11.6924 796.918 15.8541 807.666 18.0493C814.206 19.3756 820.7 20.0006 827.163 20.0006C850.853 20.0006 874.193 11.7381 897.593 0.0151367H895.321C866.311 14.3297 837.392 23.08 807.849 17.0584C797.193 14.8937 786.857 10.7472 776.842 6.73794C772.482 4.98483 767.969 3.18598 763.487 1.57007C761.993 1.02127 760.484 0.518203 758.99 0.0151367H755.774C758.243 0.807848 760.713 1.63105 763.152 2.51523L763.167 2.49998Z" fill="#D3D3D3"/>
<path d="M289.355 16.9823C305.986 14.8786 322.328 9.8784 338.152 5.04591C343.716 3.33853 349.357 1.61591 355.058 0H351.43C346.872 1.32627 342.344 2.69827 337.863 4.07027C322.085 8.90276 305.773 13.8877 289.233 15.9762C266.32 18.8726 240.115 14.467 222.264 0H220.709C238.819 15.2749 265.817 19.955 289.37 16.9823H289.355Z" fill="#D3D3D3"/>
<path d="M1088.97 195.891C1086.41 204.306 1083.76 213.011 1081.4 221.624C1074.12 248.088 1065.94 287.327 1078.68 322.252C1081.12 328.929 1084.29 335.378 1087.37 341.628L1097.6 362.391V360.104L1088.27 341.171C1085.21 334.951 1082.04 328.518 1079.63 321.902C1066.99 287.236 1075.13 248.225 1082.37 221.883C1084.73 213.285 1087.39 204.596 1089.95 196.181C1092.55 187.598 1095.21 178.909 1097.6 170.128V166.241C1094.95 176.241 1091.94 186.135 1088.97 195.891Z" fill="#D3D3D3"/>
<path d="M877.302 652.142C875.61 651.7 874.101 651.334 872.516 651.487C870.427 651.685 868.354 652.767 866.006 654.871C855.686 664.139 855.137 674.948 857.256 686H858.293C856.189 675.161 856.692 664.582 866.677 655.618C868.857 653.651 870.747 652.66 872.607 652.478C874.025 652.34 875.443 652.676 877.028 653.103C903.691 660.206 927.579 672.905 949.47 685.985H951.436C929.073 672.554 904.651 659.414 877.287 652.127L877.302 652.142Z" fill="#D3D3D3"/>
<path d="M1089.69 659.292C1089.34 661.975 1089.08 664.703 1088.82 667.341C1088.3 672.676 1087.78 678.195 1086.55 683.454C1086.35 684.308 1086.12 685.146 1085.89 685.985H1086.94C1087.16 685.222 1087.36 684.445 1087.54 683.683C1088.79 678.347 1089.32 672.798 1089.84 667.432C1090.1 664.795 1090.36 662.066 1090.69 659.414C1091.91 649.962 1094.26 640.709 1097.6 631.867V629.138C1093.73 638.757 1091.03 648.91 1089.69 659.292Z" fill="#D3D3D3"/>
<path d="M883.842 575.874C881.845 575.874 879.863 575.752 877.973 575.645C824.938 572.52 771.216 568.389 718.303 563.389C708.958 562.505 698.348 561.499 688.957 557.215C667.6 547.489 655.953 521.695 655.481 501.237C655.252 491.267 656.578 481.206 657.859 471.495C658.499 466.663 659.154 461.663 659.612 456.739C662.722 423.521 657.173 390.136 651.807 357.863C649.627 344.738 647.142 329.844 639.169 318.228C620.083 290.468 579.685 293.654 563.191 296.306C559.822 296.855 556.376 297.48 553.053 298.09C539.958 300.498 526.406 302.999 513.113 300.834C495.231 297.937 477.639 286.336 463.583 268.165C451.007 251.914 442.516 232.722 434.314 214.154C425.869 195.068 399.587 198.94 378.458 202.05L376.873 202.279C363.58 204.23 350.439 208.193 337.725 212.02C330.499 214.2 323.03 216.456 315.606 218.316C312.785 219.017 303.41 220.831 301.032 214.337C299.599 210.434 302.099 206.379 304.553 202.873C313.609 189.961 317.679 178.467 316.993 167.765C316.063 153.268 306.474 139.532 287.693 125.782C285.635 124.273 283.531 122.779 281.428 121.285C269.08 112.504 256.32 103.418 249.338 89.6678C248.103 87.2287 246.503 83.57 246.899 79.7741C247.524 73.8136 252.707 69.7128 257.57 68.2951C262.845 66.7554 268.424 67.5176 273.363 68.1731L274.827 68.3713C295.925 71.2068 317.725 74.1489 338.244 68.3713C350.089 65.048 361.141 58.8588 371.842 52.8677C381.507 47.4559 391.492 41.8612 402.103 38.355C428.262 29.6809 457.227 36.4189 482.776 42.3643C493.554 44.8644 504.073 45.9467 514.241 46.9833C535.156 49.1176 554.898 51.1298 574.639 64.9108C582.124 70.1397 589.32 76.0545 596.286 81.7712C605.799 89.5916 615.647 97.6711 626.303 104.059C636.074 109.912 646.745 114.455 657.081 118.861C671.182 124.867 685.771 131.087 698.195 140.676C716.321 154.67 728.745 174.884 740.758 194.428C748.258 206.623 756.002 219.23 765.088 230.283C771.079 237.569 777.832 244.399 784.357 250.984C793.138 259.857 802.208 269.034 809.571 279.476C818.886 292.693 825.471 307.968 831.828 322.725C838.566 338.35 845.533 354.525 855.732 368.184C863.506 378.596 873.217 387.605 882.592 396.31C894.026 406.92 905.855 417.911 914.27 431.524C935.048 465.154 933.006 514.866 909.072 558.175C905.581 564.486 901.48 570.752 895.184 573.709C891.571 575.417 887.653 575.844 883.812 575.844L883.842 575.874ZM583.908 293.608C602.78 293.608 626.562 298.075 640.007 317.648C648.117 329.448 650.618 344.448 652.813 357.696C658.194 390.044 663.743 423.475 660.633 456.83C660.176 461.769 659.505 466.785 658.865 471.617C657.584 481.298 656.258 491.313 656.487 501.207C657.02 524.302 671.167 547.992 689.384 556.285C698.622 560.492 709.141 561.483 718.41 562.367C771.308 567.383 825.014 571.499 878.034 574.624C883.415 574.944 889.513 575.295 894.788 572.825C900.825 569.974 904.819 563.877 908.218 557.718C931.984 514.729 934.027 465.413 913.432 432.089C905.093 418.597 893.309 407.667 881.922 397.087C872.516 388.352 862.774 379.312 854.939 368.824C844.664 355.058 837.667 338.838 830.914 323.152C824.572 308.441 818.017 293.212 808.763 280.086C801.446 269.705 792.406 260.558 783.656 251.716C777.116 245.1 770.347 238.271 764.326 230.938C755.194 219.84 747.435 207.202 739.919 194.976C727.953 175.509 715.574 155.371 697.601 141.499C685.268 131.986 670.755 125.797 656.715 119.806C646.364 115.4 635.647 110.827 625.815 104.943C615.083 98.5248 605.22 90.4148 595.677 82.5791C588.725 76.8777 581.545 70.9781 574.09 65.7645C554.562 52.1512 534.943 50.1389 514.165 48.02C503.951 46.9833 493.402 45.901 482.563 43.3857C457.135 37.4708 428.308 30.7633 402.438 39.3459C391.919 42.8369 381.98 48.4011 372.345 53.7824C361.598 59.7887 350.485 66.0084 338.533 69.3774C317.816 75.2008 295.91 72.2434 274.72 69.3927L273.257 69.1945C268.424 68.539 262.936 67.8073 257.875 69.286C253.347 70.6122 248.515 74.3929 247.936 79.8961C247.57 83.4176 249.094 86.9085 250.268 89.2257C257.143 102.763 269.796 111.757 282.037 120.477C284.141 121.971 286.245 123.465 288.318 124.989C307.358 138.938 317.084 152.917 318.03 167.719C318.731 178.665 314.6 190.357 305.407 203.468C302.998 206.913 300.742 210.556 302.008 214.001C304.096 219.703 312.77 217.996 315.392 217.355C322.801 215.495 330.256 213.255 337.481 211.075C350.226 207.233 363.412 203.254 376.766 201.303L378.352 201.074C398.673 198.071 426.509 193.97 435.275 213.758C443.461 232.264 451.921 251.396 464.422 267.555C478.31 285.513 495.673 296.992 513.311 299.843C526.421 301.962 539.882 299.492 552.901 297.099C556.239 296.489 559.684 295.849 563.069 295.3C568.191 294.477 575.584 293.608 583.923 293.608H583.908Z" fill="#D3D3D3"/>
<path d="M970.964 659.505C970.842 659.505 970.705 659.505 970.583 659.505C952.458 659.276 938.189 642.69 932.091 626.333C919.591 592.811 929.774 556.498 939.622 521.375C941.725 513.86 943.905 506.1 945.796 498.569C948.692 487.014 951.208 474.59 950.003 462.013C948.281 443.842 938.814 427.226 930.49 412.56C913.371 382.468 895.672 351.369 873.476 324.31C861.418 309.615 847.789 295.849 834.618 282.54C814.16 261.869 793.001 240.481 777.284 215.16C771.552 205.907 766.46 195.998 761.536 186.424C753.152 170.113 744.493 153.237 732.45 139.334C711.519 115.172 681.975 101.421 653.392 88.1129C650.922 86.9543 648.453 85.8109 645.983 84.6524C630.968 77.6094 623.864 69.6213 624.26 60.2308C624.854 46.4193 641.303 40.6874 648.361 38.8581C684.613 29.4675 722.754 34.1323 759.615 38.6446C766.719 39.5136 774.052 40.413 781.247 41.1905C832.59 46.7547 874.315 45.7181 912.563 37.9586C917.517 36.9525 922.548 35.7939 927.426 34.6811C941.222 31.5102 955.507 28.2479 969.852 27.8973C992.2 27.3637 1011.58 34.8488 1022.95 48.4773C1032.51 59.9259 1036.48 75.277 1040.01 88.8293C1041.2 93.3874 1042.55 98.0827 1044 103.052C1048.62 118.983 1053.86 137.017 1053.35 152.993C1053.18 158.009 1053.27 163.253 1053.35 168.329C1053.57 182.674 1053.8 197.507 1048.88 210.998C1047.49 214.794 1045.71 218.483 1043.99 222.051C1043.07 223.941 1042.13 225.892 1041.26 227.843C1024.81 264.522 1025.98 310.209 1029.27 350.058C1030.92 369.967 1033.62 390.105 1036.23 409.588C1039.96 437.531 1043.83 466.419 1044.67 495.094C1046.38 552.901 1034.7 599.625 1009.93 633.94C1001.48 645.633 987.886 659.52 970.964 659.52V659.505ZM695.452 34.4219C679.658 34.4219 663.972 35.8701 648.636 39.8337C641.806 41.6021 625.845 47.1358 625.297 60.2613C624.915 69.1945 631.836 76.8777 646.441 83.7377C648.895 84.8963 651.365 86.0396 653.834 87.1982C682.509 100.537 712.159 114.349 733.227 138.663C745.347 152.658 754.051 169.594 762.451 185.952C767.36 195.51 772.451 205.404 778.153 214.611C793.793 239.826 814.922 261.168 835.335 281.809C848.521 295.132 862.165 308.913 874.254 323.655C896.51 350.775 914.225 381.919 931.359 412.042C939.744 426.783 949.256 443.507 951.009 461.891C952.214 474.62 949.683 487.151 946.771 498.783C944.881 506.329 942.701 514.104 940.597 521.619C930.795 556.59 920.658 592.734 933.036 625.952C939.012 641.974 952.945 658.255 970.583 658.469C987.23 658.651 1000.74 644.901 1009.11 633.315C1033.74 599.183 1045.37 552.672 1043.67 495.094C1042.81 466.48 1038.95 437.607 1035.22 409.694C1032.61 390.197 1029.91 370.044 1028.27 350.104C1024.96 310.133 1023.79 264.293 1040.33 227.401C1041.21 225.45 1042.16 223.484 1043.07 221.578C1044.78 218.041 1046.55 214.383 1047.92 210.617C1052.78 197.294 1052.55 182.552 1052.32 168.314C1052.25 163.237 1052.17 157.978 1052.32 152.932C1052.83 137.124 1047.84 119.928 1043.02 103.312C1041.58 98.3266 1040.22 93.6313 1039.03 89.058C1035.54 75.6124 1031.58 60.368 1022.17 49.1023C1011 35.7177 991.925 28.3546 969.867 28.8882C955.613 29.2388 941.39 32.5011 927.64 35.6567C922.761 36.7696 917.731 37.9281 912.761 38.9343C874.421 46.7242 832.59 47.7608 781.14 42.1813C773.945 41.4039 766.597 40.5045 759.509 39.6355C738.365 37.044 716.809 34.4067 695.452 34.4067V34.4219Z" fill="#D3D3D3"/>
<path d="M974.547 587.368C971.849 587.368 969.364 585.387 968.114 583.085C966.635 580.356 966.391 577.109 966.361 573.984C966.223 561.971 968.403 549.334 972.839 536.422C975.035 530.034 978.328 521.924 984.258 515.857C984.913 515.186 990.752 509.363 995.279 510.811C998.74 511.908 998.801 515.201 998.862 518.387C998.862 518.982 998.892 519.592 998.923 520.186C999.395 528.738 998.282 537.946 995.615 547.55C992.337 559.364 987.108 570.462 981.971 580.707C980.599 583.42 978.907 586.378 975.965 587.17C975.492 587.292 975.02 587.353 974.547 587.353V587.368ZM993.77 511.604C990.721 511.604 986.925 514.591 984.989 516.573C979.196 522.488 975.965 530.476 973.8 536.772C969.394 549.562 967.23 562.093 967.367 573.984C967.397 576.972 967.626 580.082 968.998 582.612C970.233 584.899 973.022 586.926 975.69 586.21C978.221 585.524 979.791 582.78 981.056 580.265C986.178 570.081 991.362 559.029 994.624 547.291C997.261 537.794 998.374 528.708 997.901 520.262C997.871 519.653 997.856 519.028 997.84 518.418C997.779 515.323 997.734 512.655 994.959 511.786C994.578 511.665 994.166 511.604 993.74 511.604H993.77Z" fill="#D3D3D3"/>
<path d="M950.049 179.412C948.509 179.412 947.015 179.061 945.933 178.726C935.536 175.479 927.289 166.256 924.896 155.249C924.545 153.649 924.316 152.018 924.103 150.432C923.874 148.771 923.63 147.048 923.249 145.386C922.121 140.417 919.743 135.843 916.359 132.139C915.612 131.316 914.804 130.523 914.011 129.761C912.715 128.495 911.374 127.184 910.246 125.69C908.081 122.809 907.212 119.608 907.852 116.894C908.859 112.58 913.356 110.263 917.106 109.928C920.033 109.669 922.944 110.248 925.749 110.812C926.725 111.01 927.716 111.208 928.692 111.361C932.198 111.94 935.826 112.062 939.347 112.199C944.317 112.382 949.454 112.58 954.333 113.998C961.772 116.163 966.97 121.087 971.086 125.614C976.285 131.346 976.468 137.718 976.178 144.289C975.98 148.71 975.599 152.917 972.946 155.874C971.589 157.384 969.806 158.344 968.098 159.259C967.412 159.625 966.711 159.99 966.056 160.402C961.894 162.948 958.677 167.155 957.26 171.957C957.153 172.293 957.061 172.643 956.97 172.994C956.543 174.579 956.101 176.211 954.988 177.461C953.647 178.955 951.817 179.412 950.034 179.412H950.049ZM918.6 110.873C918.142 110.873 917.67 110.888 917.212 110.934C913.813 111.239 909.743 113.312 908.843 117.123C908.279 119.532 909.087 122.443 911.069 125.081C912.151 126.514 913.462 127.794 914.728 129.044C915.52 129.822 916.343 130.614 917.106 131.468C920.597 135.294 923.066 140.035 924.225 145.158C924.606 146.85 924.85 148.603 925.094 150.295C925.307 151.865 925.536 153.481 925.887 155.051C928.204 165.707 936.192 174.625 946.238 177.781C948.311 178.436 952.122 179.168 954.241 176.805C955.202 175.738 955.613 174.229 956.01 172.75C956.101 172.399 956.208 172.049 956.299 171.698C957.793 166.652 961.162 162.231 965.537 159.564C966.223 159.152 966.925 158.771 967.626 158.39C969.348 157.475 970.964 156.606 972.199 155.234C974.623 152.521 974.989 148.511 975.172 144.273C975.507 136.453 974.836 131.27 970.339 126.315C966.117 121.666 961.223 117.077 954.043 114.989C949.287 113.602 944.21 113.419 939.302 113.22C935.75 113.083 932.091 112.946 928.524 112.367C927.533 112.199 926.542 112.001 925.536 111.803C923.249 111.345 920.902 110.873 918.569 110.873H918.6Z" fill="#D3D3D3"/>
<path d="M945.582 196.242C943.433 196.242 941.283 195.769 939.439 194.961C934.53 192.781 930.75 188.513 927.304 184.336C923.295 179.488 919.21 174.214 917.091 167.918C915.947 164.503 915.414 160.89 914.911 157.399C914.59 155.188 914.255 152.902 913.767 150.707C911.542 140.615 905.962 131.605 900.581 122.916L899.483 121.132C897.014 117.123 893.492 109.714 897.761 105.263C900.367 102.534 904.468 102.671 908.081 103.022L938.036 105.857C951.131 107.092 962.671 108.739 971.3 116.437C979.074 123.343 988.861 141.865 986.468 153.283C984.608 162.125 978.343 165.356 972.26 168.482C967.656 170.86 962.885 173.299 960.126 178.238C959.074 180.113 958.494 182.293 957.93 184.412C957.183 187.202 956.421 190.098 954.561 192.37C952.32 195.114 948.936 196.257 945.567 196.257L945.582 196.242ZM904.864 103.845C902.441 103.845 900.093 104.272 898.477 105.949C894.681 109.912 898.004 116.818 900.337 120.584L901.434 122.367C906.862 131.133 912.487 140.218 914.758 150.478C915.246 152.719 915.581 155.021 915.901 157.246C916.405 160.692 916.923 164.259 918.036 167.582C920.094 173.71 924.133 178.894 928.066 183.68C931.436 187.766 935.125 191.928 939.835 194.016C944.226 195.967 950.43 195.8 953.784 191.699C955.506 189.61 956.208 186.943 956.955 184.122C957.534 181.942 958.129 179.686 959.241 177.704C962.153 172.506 967.047 169.991 971.788 167.552C977.916 164.396 983.709 161.408 985.462 153.054C987.794 141.972 978.206 123.922 970.614 117.169C962.199 109.684 950.826 108.068 937.914 106.848L907.959 104.013C906.938 103.921 905.886 103.83 904.834 103.83L904.864 103.845Z" fill="#D3D3D3"/>
<path d="M746.505 532.123C745.499 532.123 744.508 532.092 743.502 532.046C701.717 526.696 704.004 499.24 706.641 467.456C707.434 457.897 708.257 448.004 708.074 437.866C707.861 426.555 706.763 415.914 705.681 405.624C703.897 388.474 702.22 372.285 704.354 353.381C709.446 323.762 702.479 301.002 694.4 274.659C691.259 264.4 688.012 253.79 685.268 242.082C685.268 242.036 685.268 241.99 685.268 241.945C685.68 232.417 690.131 229.947 693.79 229.551C708.897 227.935 737.023 256.762 743.212 280.117C744.737 285.894 748.182 290.94 751.505 295.818C753.03 298.044 754.6 300.346 755.942 302.663C758.808 307.602 761.414 312.923 763.93 318.075C765.363 320.987 766.826 324.005 768.335 326.917C770.363 330.85 772.467 334.905 774.006 339.174C776.415 345.896 777.421 353.122 778.381 360.104C778.976 364.464 779.601 368.977 780.577 373.321C784.129 389.313 792.315 404.008 803.032 413.628C811.447 421.173 818.962 430.93 826.676 444.345C829.176 448.69 831.325 453.202 833.414 457.577C836.173 463.37 839.039 469.376 842.713 474.971C845.869 479.758 848.887 484.728 851.677 489.743C853.384 492.807 854.924 495.841 854.954 499.24C855.015 504.591 851.311 509.378 844.801 512.396C843.368 513.067 841.859 513.601 840.335 513.997C834.633 515.476 828.719 515.811 822.987 516.116C820.898 516.238 818.81 516.345 816.721 516.512C811.614 516.924 807.087 518.25 802.285 519.637C799.769 520.369 797.162 521.131 794.479 521.726C789.495 522.854 784.418 524.333 779.509 525.766C768.808 528.891 757.756 532.107 746.49 532.107L746.505 532.123ZM686.259 241.929C688.988 253.576 692.235 264.14 695.36 274.37C703.47 300.834 710.467 323.701 705.345 353.534C703.226 372.3 704.903 388.444 706.687 405.517C707.754 415.823 708.867 426.494 709.08 437.851C709.263 448.034 708.44 457.943 707.647 467.532C704.934 500.094 702.799 525.827 743.594 531.04C755.698 531.681 767.68 528.19 779.25 524.805C784.174 523.372 789.266 521.878 794.281 520.75C796.934 520.156 799.525 519.393 802.025 518.677C806.66 517.335 811.447 515.948 816.66 515.521C818.749 515.354 820.852 515.232 822.941 515.125C828.612 514.805 834.481 514.485 840.091 513.037C841.57 512.655 843.018 512.137 844.39 511.497C847.286 510.155 854.04 506.268 853.963 499.271C853.933 496.115 852.454 493.204 850.808 490.261C848.033 485.276 845.03 480.322 841.89 475.55C838.17 469.895 835.289 463.873 832.514 458.035C830.441 453.69 828.292 449.193 825.822 444.879C818.169 431.57 810.715 421.89 802.376 414.42C791.492 404.664 783.199 389.785 779.601 373.58C778.625 369.205 778 364.662 777.391 360.272C776.43 353.336 775.439 346.171 773.061 339.555C771.552 335.347 769.463 331.323 767.451 327.42C765.942 324.508 764.463 321.49 763.03 318.563C760.515 313.426 757.923 308.121 755.073 303.212C753.731 300.925 752.176 298.639 750.667 296.428C747.298 291.474 743.792 286.352 742.222 280.422C735.651 255.619 707.342 229.155 693.881 230.603C689.14 231.121 686.579 234.932 686.259 241.975V241.929Z" fill="#D3D3D3"/>
<path d="M747.953 525.003C747.13 525.003 746.322 524.988 745.499 524.942C711.458 520.674 712.678 499.667 714.202 473.081C714.66 465.215 715.132 457.089 714.721 448.735C714.309 440.259 713.303 432.104 712.327 424.207C710.406 408.581 708.577 393.825 710.986 376.782C713.501 358.961 712.541 342.36 707.861 322.953C707.083 319.691 706.229 316.368 705.376 312.953C702.616 302.038 699.75 290.757 698.074 279.248C698.074 279.202 698.074 279.171 698.074 279.126C698.729 271.564 702.479 269.628 705.513 269.339C718.059 268.134 742.161 292.556 747.74 312.16C749.081 316.901 751.978 321.063 754.768 325.088C756.033 326.917 757.344 328.792 758.472 330.698C760.881 334.737 763.091 339.082 765.225 343.29C766.445 345.698 767.71 348.198 769.006 350.592C770.729 353.823 772.512 357.147 773.838 360.653C775.942 366.171 776.903 372.086 777.833 377.803C778.412 381.37 779.006 385.044 779.875 388.596C783.077 401.676 789.982 413.749 798.824 421.707C806.294 428.46 812.986 437.272 819.282 448.644C821.767 453.126 823.795 457.791 825.761 462.288C826.203 463.294 826.645 464.315 827.087 465.321C828.551 468.629 830.167 472.151 832.133 475.627C834.481 479.788 836.691 484.133 838.688 488.539C839.893 491.191 840.975 493.813 840.823 496.71C840.594 501.268 837.255 505.384 831.661 508.036C830.395 508.631 829.084 509.119 827.743 509.5C822.575 510.948 817.194 511.344 811.995 511.725C810.349 511.847 808.702 511.969 807.056 512.122C802.605 512.533 798.595 513.646 794.373 514.805C792.147 515.415 789.83 516.055 787.467 516.573C783.321 517.488 779.083 518.692 774.997 519.866C766.231 522.366 757.176 524.958 747.938 524.958L747.953 525.003ZM699.08 279.187C700.757 290.62 703.592 301.855 706.351 312.724C707.22 316.124 708.059 319.478 708.851 322.725C713.562 342.253 714.538 358.961 711.992 376.919C709.598 393.825 711.412 408.521 713.333 424.07C714.309 431.982 715.315 440.153 715.727 448.674C716.138 457.089 715.666 465.245 715.208 473.126C713.699 499.194 712.51 519.774 745.575 523.921C755.438 524.424 765.256 521.634 774.723 518.921C778.823 517.747 783.077 516.543 787.254 515.613C789.586 515.094 791.888 514.469 794.098 513.86C798.184 512.732 802.407 511.573 806.965 511.146C808.611 510.994 810.273 510.872 811.919 510.75C817.072 510.369 822.392 509.972 827.468 508.555C828.749 508.189 830.014 507.731 831.219 507.152C833.703 505.978 839.512 502.609 839.801 496.694C839.938 494.027 838.902 491.527 837.758 488.996C835.761 484.606 833.566 480.291 831.234 476.16C829.252 472.654 827.621 469.087 826.157 465.763C825.715 464.757 825.273 463.736 824.831 462.73C822.88 458.248 820.868 453.598 818.398 449.162C812.148 437.897 805.532 429.162 798.138 422.484C789.144 414.39 782.131 402.133 778.884 388.87C778.015 385.288 777.406 381.584 776.826 378.001C775.912 372.33 774.951 366.461 772.893 361.034C771.582 357.604 769.814 354.296 768.107 351.095C766.811 348.686 765.546 346.186 764.326 343.762C762.207 339.57 760.012 335.241 757.603 331.216C756.49 329.341 755.179 327.466 753.929 325.667C751.094 321.581 748.152 317.344 746.764 312.45C741.276 293.181 717.861 269.217 705.604 270.36C701.763 270.726 699.568 273.683 699.08 279.171V279.187Z" fill="#D3D3D3"/>
<path d="M749.417 517.899C748.777 517.899 748.152 517.899 747.511 517.854C721.169 514.652 721.443 498.722 721.794 478.569C721.901 472.471 722.007 466.16 721.398 459.635C720.879 454.025 720.102 448.476 719.355 443.11C717.373 428.948 715.513 415.548 717.663 400.228C719.843 384.678 719.37 370.333 716.154 353.732L715.62 350.958C713.44 339.86 710.986 327.268 710.925 316.459C710.925 316.429 710.925 316.398 710.925 316.383C711.809 310.773 714.858 309.386 717.266 309.203C727.541 308.395 747.191 328.121 752.298 344.311C753.457 348.015 755.789 351.293 758.045 354.464C759.051 355.881 760.103 357.36 761.018 358.839C762.969 361.979 764.768 365.348 766.506 368.611C767.543 370.562 768.594 372.498 769.662 374.403C771.079 376.919 772.543 379.526 773.671 382.254C775.454 386.569 776.384 391.188 777.268 395.639C777.817 398.398 778.397 401.249 779.174 404.008C782.025 414.13 787.665 423.582 794.632 429.924C801.111 435.823 806.934 443.613 811.904 453.08C814.48 457.973 816.431 463.263 818.017 467.501C819.175 470.611 820.258 473.538 821.538 476.419C823.093 479.971 824.496 483.691 825.7 487.487C826.417 489.728 827.026 491.938 826.691 494.331C826.173 498.097 823.2 501.542 818.535 503.798C817.453 504.317 816.325 504.759 815.181 505.125C810.517 506.558 805.623 507.03 800.897 507.503C799.739 507.625 798.58 507.731 797.422 507.853C793.626 508.265 790.013 509.195 786.507 510.094C784.555 510.597 782.528 511.116 780.47 511.542C777.177 512.228 773.808 513.158 770.561 514.058C763.701 515.948 756.628 517.915 749.417 517.915V517.899ZM711.916 316.49C711.977 327.191 714.431 339.707 716.596 350.759L717.144 353.534C720.391 370.257 720.864 384.709 718.669 400.38C716.535 415.563 718.394 428.887 720.361 442.988C721.108 448.37 721.885 453.918 722.419 459.559C723.029 466.129 722.922 472.471 722.815 478.599C722.465 498.249 722.206 513.768 747.603 516.863C755.301 517.244 762.923 515.125 770.302 513.097C773.564 512.198 776.948 511.253 780.272 510.567C782.299 510.14 784.311 509.622 786.263 509.119C789.799 508.204 793.443 507.274 797.315 506.847C798.474 506.725 799.647 506.603 800.806 506.481C805.486 506.024 810.318 505.536 814.892 504.149C815.989 503.814 817.072 503.387 818.108 502.884C822.468 500.78 825.243 497.609 825.715 494.179C826.02 491.999 825.441 489.911 824.755 487.776C823.566 484.026 822.179 480.337 820.624 476.816C819.328 473.904 818.185 470.825 817.087 467.837C815.105 462.471 813.383 458.004 811.035 453.522C806.111 444.162 800.364 436.464 793.976 430.64C786.873 424.161 781.125 414.542 778.229 404.252C777.451 401.462 776.872 398.596 776.308 395.807C775.424 391.386 774.509 386.828 772.756 382.605C771.659 379.937 770.195 377.361 768.793 374.861C767.71 372.955 766.674 371.004 765.622 369.053C763.884 365.806 762.1 362.452 760.164 359.342C759.265 357.894 758.228 356.43 757.222 355.028C754.92 351.796 752.542 348.457 751.322 344.601C746.429 329.082 727.023 309.447 717.327 310.209C714.355 310.438 712.541 312.557 711.9 316.505L711.916 316.49Z" fill="#D3D3D3"/>
<path d="M750.88 510.78C750.423 510.78 749.966 510.78 749.508 510.75C730.742 508.6 730.117 497.624 729.325 483.737C729.081 479.484 728.837 475.093 728.059 470.535C727.709 468.492 727.343 466.45 726.977 464.422C724.675 451.525 722.282 438.171 724.309 423.658C726.123 410.563 726.154 398.109 724.401 384.465C723.029 373.733 721.718 361.613 723.745 353.58C723.745 353.58 723.745 353.58 723.745 353.564C724.828 349.86 727.191 349.006 728.989 348.945C737.42 348.671 752.527 364.784 756.81 376.37C757.786 379.053 759.57 381.447 761.308 383.748C762.07 384.77 762.847 385.806 763.548 386.874C765.027 389.114 766.43 391.493 767.771 393.795C768.61 395.243 769.448 396.676 770.317 398.078C771.445 399.923 772.588 401.798 773.503 403.734C774.967 406.844 775.866 410.152 776.72 413.353C777.253 415.32 777.802 417.332 778.473 419.283C780.973 426.479 785.333 433.308 790.424 438.034C796.034 443.202 800.775 449.726 804.51 457.41C806.187 460.84 807.59 464.712 808.931 469.605C809.312 471.023 809.678 472.41 810.044 473.797C810.334 474.941 810.639 476.054 810.928 477.166C811.721 480.078 812.315 483.188 812.697 486.389C812.91 488.203 813.062 489.972 812.529 491.877C811.431 495.932 807.574 498.371 805.364 499.484C804.48 499.926 803.535 500.323 802.574 500.658C798.306 502.122 793.809 502.701 789.449 503.28L787.726 503.509C784.616 503.92 781.598 504.622 778.686 505.292C776.979 505.689 775.195 506.1 773.412 506.451C771.003 506.924 768.533 507.564 766.155 508.189C761.186 509.485 756.063 510.811 750.85 510.811L750.88 510.78ZM724.721 353.824C722.587 362.345 724.416 376.645 725.407 384.328C727.175 398.063 727.145 410.609 725.315 423.796C723.318 438.156 725.697 451.419 727.983 464.239C728.349 466.282 728.715 468.325 729.066 470.367C729.858 474.986 730.102 479.407 730.346 483.691C731.139 497.624 731.703 507.701 749.6 509.759C755.103 510.018 760.622 508.585 765.942 507.183C768.335 506.558 770.82 505.902 773.259 505.43C775.028 505.079 776.796 504.683 778.503 504.286C781.43 503.615 784.479 502.914 787.635 502.487L789.357 502.259C793.656 501.695 798.108 501.115 802.285 499.682C803.199 499.362 804.114 498.981 804.952 498.554C806.995 497.533 810.593 495.262 811.584 491.588C812.056 489.865 811.919 488.188 811.721 486.481C811.355 483.325 810.776 480.276 809.983 477.41C809.678 476.297 809.389 475.185 809.084 474.041C808.733 472.669 808.367 471.282 807.971 469.864C806.645 465.047 805.257 461.236 803.611 457.852C799.922 450.275 795.257 443.857 789.738 438.766C784.525 433.948 780.058 426.966 777.512 419.619C776.826 417.637 776.278 415.594 775.744 413.612C774.89 410.457 774.006 407.194 772.588 404.161C771.689 402.27 770.576 400.426 769.479 398.658C768.579 397.194 767.741 395.746 766.887 394.298C765.546 392.011 764.158 389.633 762.695 387.422C762.009 386.386 761.231 385.349 760.484 384.358C758.716 381.98 756.887 379.526 755.85 376.721C751.673 365.425 737.115 349.708 729.005 349.951C726.87 350.028 725.422 351.339 724.69 353.824H724.721Z" fill="#D3D3D3"/>
<path d="M752.344 503.676C752.069 503.676 751.795 503.677 751.521 503.661C740.026 502.533 738.502 496.222 736.581 488.234C736.063 486.069 735.514 483.828 734.736 481.481C730.742 469.483 729.477 457.913 730.956 447.089C732.435 436.342 732.983 425.915 732.663 415.182C732.389 406.204 732.602 395.304 736.657 390.639C737.633 389.16 739.005 388.474 740.789 388.566C747.298 388.962 757.588 400.7 761.353 408.414C762.161 410.076 763.411 411.6 764.616 413.079C765.119 413.689 765.606 414.298 766.079 414.908C767.07 416.219 768.03 417.591 768.96 418.933C769.631 419.893 770.287 420.838 770.973 421.783C771.811 422.942 772.634 424.07 773.335 425.229C774.479 427.119 775.348 429.116 776.171 431.037C776.674 432.211 777.192 433.415 777.772 434.573C779.921 438.918 782.924 443.034 786.247 446.174C790.867 450.55 794.647 455.946 797.162 461.785C798.489 464.879 799.403 468.233 799.891 471.755C800.15 473.691 800.318 475.718 800.364 477.959C800.425 480.368 800.196 482.868 799.708 485.353C799.449 486.664 799.114 488.066 798.397 489.453C797.284 491.633 795.105 493.661 792.269 495.155C791.553 495.536 790.806 495.887 790.028 496.191C786.217 497.716 782.223 498.448 778.107 499.149C776.003 499.5 773.899 499.911 771.872 500.307C770.073 500.658 768.259 501.009 766.43 501.329C764.951 501.588 763.442 501.923 761.978 502.259C758.853 502.96 755.621 503.692 752.344 503.692V503.676ZM740.438 389.557C739.173 389.557 738.197 390.105 737.48 391.203C737.48 391.218 737.45 391.249 737.435 391.264C733.105 396.203 733.502 409.481 733.669 415.137C733.989 425.93 733.425 436.418 731.947 447.211C730.483 457.882 731.749 469.3 735.682 481.145C736.474 483.523 737.023 485.795 737.541 487.975C739.447 495.871 740.819 501.573 751.566 502.64C754.966 502.777 758.411 502 761.734 501.237C763.213 500.902 764.738 500.567 766.232 500.307C768.061 499.987 769.86 499.637 771.643 499.286C773.686 498.89 775.79 498.478 777.909 498.128C781.964 497.442 785.912 496.71 789.616 495.231C790.348 494.941 791.065 494.606 791.751 494.24C794.403 492.853 796.431 490.978 797.452 488.981C798.077 487.761 798.397 486.572 798.672 485.139C799.144 482.715 799.373 480.307 799.312 477.959C799.266 475.749 799.114 473.767 798.839 471.861C798.367 468.431 797.467 465.169 796.172 462.151C793.717 456.434 790.013 451.144 785.501 446.876C782.101 443.659 779.006 439.436 776.811 434.985C776.217 433.796 775.698 432.576 775.195 431.403C774.372 429.512 773.534 427.546 772.421 425.716C771.735 424.588 770.942 423.491 770.165 422.424C769.418 421.402 768.747 420.442 768.076 419.481C767.146 418.155 766.201 416.783 765.21 415.487C764.753 414.878 764.265 414.283 763.777 413.673C762.542 412.149 761.247 410.579 760.393 408.81C756.81 401.478 746.734 389.892 740.667 389.526C740.575 389.526 740.468 389.526 740.377 389.526L740.438 389.557Z" fill="#D3D3D3"/>
<path d="M753.761 496.557C749.234 496.557 744.798 495.688 741.52 492.533C736.169 487.38 736.474 478.889 737.602 470.489L740.941 445.839L740.987 445.534C741.703 440.198 743.197 429.085 749.783 427.668C754.341 426.692 759.051 432.378 762.847 436.967C763.991 438.339 764.966 439.528 765.805 440.351C768.289 442.805 771.079 445.031 773.777 447.18C776.582 449.406 779.464 451.708 782.055 454.3C785.622 457.867 791.491 465.154 790.805 473.919C790.287 480.505 785.821 486.984 779.128 490.81C773.061 494.286 766.049 495.444 759.371 496.191C757.542 496.389 755.637 496.542 753.746 496.542L753.761 496.557ZM741.947 445.976L738.624 470.626C737.526 478.767 737.206 486.968 742.237 491.801C746.581 495.978 753.289 495.856 759.295 495.185C765.866 494.453 772.756 493.31 778.656 489.926C785.058 486.267 789.327 480.093 789.83 473.828C790.485 465.474 784.814 458.431 781.369 454.986C778.823 452.44 775.942 450.153 773.168 447.943C770.454 445.778 767.649 443.552 765.119 441.052C764.25 440.198 763.259 438.994 762.1 437.592C758.67 433.445 753.99 427.774 750.027 428.628C744.142 429.908 742.709 440.534 742.023 445.641L741.978 445.946L741.947 445.976Z" fill="#D3D3D3"/>
<path d="M520.781 259.72C516.634 259.72 512.838 258.653 509.317 256.503C502.899 252.57 497.594 247.814 493.585 242.371C488.508 235.511 485.825 226.807 483.234 218.392C482.136 214.825 480.993 211.151 479.712 207.751C477.715 202.462 475.459 196.867 472.532 191.79C466.632 181.577 457.928 173.436 448.004 168.863C440.565 165.433 432.409 164 424.451 164.701C421.235 164.991 417.972 165.677 414.832 166.347C409.801 167.415 404.603 168.512 399.298 168.04C395.959 167.735 393.154 166.073 391.798 163.588C389.953 160.219 390.944 156.332 391.904 152.566C392.133 151.652 392.377 150.737 392.56 149.838C394.298 141.56 391.645 132.413 385.806 126.529C385.288 126.011 384.739 125.492 384.175 124.959C381.325 122.26 378.367 119.471 378.565 115.538C378.642 114.15 379.129 112.717 380.059 111.163C384.556 103.723 393.459 101.452 402.194 99.7597L444.36 91.6039C448.385 90.8264 452.47 89.6374 456.434 88.494C461.282 87.0916 466.297 85.6281 471.374 84.8506C503.676 79.9419 538.281 89.1191 559.563 108.251C561.377 109.882 563.176 111.513 564.974 113.144C572.901 120.355 581.103 127.825 590.113 134.151C592.475 135.813 594.838 137.459 597.201 139.121C602.826 143.054 608.634 147.124 614.305 151.179C630.663 162.872 643.925 172.979 653.499 187.522C658.575 195.22 663.957 204.58 665.512 215.633C665.512 215.739 665.512 215.846 665.451 215.938C665.451 215.968 665.451 216.014 665.451 216.044C665.115 220.16 662.874 222.691 658.804 223.606C658.148 223.758 657.493 223.926 656.837 224.109C655.892 224.368 654.901 224.627 653.91 224.795C646.09 226.151 638.041 225.892 630.251 225.648C628.757 225.603 627.263 225.557 625.769 225.511C617.72 225.313 609.214 225.313 601.317 227.554C584.868 232.249 568.206 239.14 550.37 248.637C544.547 251.747 538.51 254.948 532.092 257.372C528.037 258.896 524.272 259.674 520.75 259.674L520.781 259.72ZM428.415 163.527C435.229 163.527 442.074 165.036 448.431 167.963C458.538 172.628 467.41 180.906 473.401 191.303C476.358 196.44 478.63 202.08 480.657 207.401C481.953 210.831 483.096 214.52 484.194 218.102C486.77 226.441 489.423 235.054 494.393 241.777C498.341 247.112 503.539 251.777 509.851 255.649C516.04 259.445 523.22 259.704 531.757 256.488C538.114 254.094 544.12 250.893 549.928 247.798C567.825 238.271 584.548 231.35 601.073 226.639C609.107 224.353 617.705 224.353 625.83 224.551C627.324 224.581 628.818 224.642 630.312 224.688C638.056 224.932 646.06 225.191 653.773 223.849C654.734 223.682 655.694 223.423 656.609 223.179C657.28 222.996 657.95 222.813 658.621 222.676C662.264 221.868 664.185 219.688 664.49 216.014C664.49 215.938 664.521 215.877 664.551 215.816C663.027 204.962 657.706 195.723 652.706 188.132C643.224 173.741 630.022 163.695 613.757 152.048C608.086 147.993 602.278 143.923 596.652 139.99C594.289 138.328 591.927 136.682 589.564 135.02C580.493 128.648 572.276 121.163 564.319 113.937C562.52 112.306 560.721 110.659 558.922 109.044C537.855 90.11 503.57 81.0395 471.556 85.9025C466.541 86.6647 461.556 88.1129 456.739 89.5154C452.76 90.674 448.644 91.8631 444.574 92.6558L402.408 100.812C393.901 102.458 385.227 104.653 380.943 111.742C380.09 113.144 379.648 114.425 379.587 115.644C379.419 119.12 382.194 121.742 384.892 124.288C385.456 124.822 386.02 125.34 386.538 125.873C392.621 131.986 395.38 141.499 393.566 150.097C393.383 151.012 393.139 151.926 392.895 152.871C391.98 156.439 391.035 160.143 392.697 163.161C393.901 165.357 396.401 166.82 399.404 167.094C404.557 167.567 409.679 166.469 414.634 165.418C417.805 164.747 421.097 164.046 424.375 163.756C425.716 163.634 427.073 163.573 428.43 163.573L428.415 163.527Z" fill="#D3D3D3"/>
<path d="M526.391 249.582C523.662 249.582 521.025 249.109 518.418 248.18C512.655 246.122 507.244 242.448 502.777 237.569C496.969 231.212 492.533 222.584 489.941 212.614C489.56 211.181 489.225 209.718 488.889 208.27C488.295 205.708 487.685 203.071 486.862 200.556C484.209 192.507 479.148 185.403 474.239 178.528C472.959 176.729 471.678 174.945 470.459 173.146C468.355 170.052 466.175 166.866 463.34 164.427C459.315 160.951 454.208 159.198 449.3 157.81C442.851 155.996 436.22 154.655 429.588 153.847L428.704 153.74C422.972 153.054 416.493 152.261 412.347 147.795C409.024 144.212 407.957 138.953 407.088 134.715C406.859 133.557 406.554 132.337 406.264 131.087C404.816 125.004 403.17 118.099 406.341 112.565C410.121 105.964 417.926 103.891 424.939 102.473C429.832 101.482 435.183 100.522 441.266 99.5157C447.546 98.4943 454.117 97.4882 460.779 96.5278C464.041 96.0552 467.349 95.3235 470.565 94.6222C474.819 93.6923 479.209 92.7167 483.66 92.3203C510.872 89.9117 539.272 98.4943 557.779 114.714C559.395 116.132 561.011 117.55 562.627 118.968C569.578 125.096 576.774 131.438 584.533 136.941L588.268 139.578C593.924 143.587 599.777 147.734 605.479 151.865C618.33 161.21 630.617 170.646 639.642 183.375C645.053 190.998 650.602 200.144 650.785 210.251C650.785 210.328 650.785 210.389 650.74 210.465C650.74 210.51 650.74 210.556 650.74 210.602C649.779 214.901 646.639 217.584 641.105 218.788C640.556 218.91 640.023 219.047 639.489 219.2C638.712 219.398 637.904 219.611 637.081 219.764C630.739 220.892 624.23 220.861 617.934 220.816C616.638 220.816 615.327 220.801 614.046 220.816C607.506 220.816 600.57 220.999 594.076 222.889C583.237 226.045 572.444 230.252 561.072 235.771C558.221 237.158 555.279 238.652 552.306 240.222C547.504 242.753 542.55 245.375 537.29 247.387C533.418 248.866 529.851 249.597 526.436 249.597L526.391 249.582ZM492.777 92.9148C489.758 92.9148 486.74 93.052 483.737 93.3112C479.362 93.7076 475.002 94.668 470.779 95.5979C467.562 96.3144 464.224 97.0461 460.931 97.5187C454.269 98.4791 447.714 99.4852 441.433 100.507C435.366 101.497 430.031 102.458 425.152 103.449C418.353 104.821 410.792 106.818 407.225 113.053C404.252 118.236 405.853 124.928 407.255 130.843C407.56 132.108 407.85 133.343 408.094 134.502C408.932 138.602 409.969 143.709 413.109 147.094C416.997 151.286 423.018 152.018 428.841 152.719L429.741 152.826C436.433 153.649 443.11 154.99 449.604 156.82C454.62 158.237 459.849 160.036 464.026 163.634C466.953 166.164 469.178 169.411 471.328 172.552C472.547 174.335 473.813 176.119 475.093 177.918C480.032 184.854 485.139 192.034 487.853 200.22C488.691 202.782 489.316 205.449 489.911 208.026C490.246 209.474 490.581 210.907 490.947 212.34C493.508 222.157 497.868 230.648 503.555 236.868C507.899 241.624 513.174 245.207 518.784 247.219C524.439 249.247 530.202 248.987 536.909 246.411C542.108 244.429 547.047 241.823 551.818 239.292C554.806 237.722 557.764 236.213 560.63 234.825C572.048 229.292 582.887 225.054 593.786 221.883C600.418 219.947 607.43 219.779 614.046 219.779C615.342 219.779 616.638 219.779 617.949 219.779C624.199 219.81 630.663 219.855 636.913 218.743C637.69 218.605 638.468 218.392 639.23 218.194C639.779 218.041 640.328 217.904 640.892 217.782C645.999 216.654 648.895 214.23 649.764 210.358C649.764 210.328 649.779 210.297 649.794 210.267C649.612 200.419 644.154 191.44 638.849 183.939C629.9 171.348 617.69 161.957 604.915 152.673C599.213 148.527 593.375 144.395 587.719 140.386L583.984 137.749C576.179 132.215 568.968 125.858 561.986 119.699C560.371 118.282 558.77 116.864 557.154 115.446C540.888 101.193 516.878 92.9148 492.838 92.9148H492.777Z" fill="#D3D3D3"/>
<path d="M533.708 239.14C531.62 239.14 529.653 238.758 527.793 238.011C523.692 236.35 518.067 233.682 514.546 230.359C511.314 227.295 508.738 222.828 506.268 218.499C505.155 216.563 504.103 214.718 503.021 213.072C500.338 208.971 497.579 204.733 495.414 200.175C494.072 197.324 492.944 194.336 491.862 191.44L491.71 191.028C484.712 172.338 476.557 153.161 460.916 142.078C457.653 139.761 453.827 137.855 450.138 135.996C444.071 132.947 437.79 129.791 433.323 124.669C430.976 121.986 430.259 119.227 431.174 116.468C433.095 110.675 441.982 106.345 447.668 105.126C451.723 104.257 456.114 103.54 461.129 102.93C466.328 102.321 471.724 101.802 477.182 101.406C479.59 101.238 482.029 100.949 484.392 100.659C488.127 100.217 491.984 99.7444 495.841 99.7444H495.902C517.671 99.8359 540.111 107.824 555.919 121.117C557.169 122.169 558.419 123.236 559.669 124.288C565.813 129.486 572.17 134.868 578.877 139.685C584.655 143.816 590.615 148.1 596.561 152.521C606.211 159.686 617.232 168.253 625.693 179.183C631.074 186.119 637.096 195.312 635.968 204.84C635.968 204.87 635.968 204.916 635.937 204.946C635.937 204.992 635.937 205.038 635.907 205.083C634.032 210.892 628.178 212.858 623.284 213.925C622.857 214.017 622.431 214.123 622.019 214.23C621.394 214.383 620.784 214.55 620.144 214.672C615.311 215.572 610.388 215.739 605.601 215.907C604.473 215.953 603.345 215.983 602.217 216.029C597.171 216.242 591.835 216.578 586.713 218.117C578.237 220.663 569.822 223.971 560.965 228.24C558.755 229.307 556.514 230.435 554.105 231.7C550.34 233.667 546.452 235.694 542.367 237.295C539.226 238.515 536.361 239.14 533.693 239.14H533.708ZM495.856 100.766C492.045 100.766 488.219 101.223 484.529 101.665C482.151 101.955 479.712 102.244 477.273 102.412C471.831 102.809 466.449 103.312 461.266 103.937C456.297 104.546 451.922 105.248 447.897 106.117C442.592 107.26 433.933 111.437 432.15 116.788C431.357 119.181 432.012 121.605 434.101 124.014C438.43 128.983 444.619 132.093 450.611 135.096C454.33 136.971 458.187 138.907 461.51 141.255C477.395 152.49 485.612 171.835 492.67 190.677L492.822 191.089C493.905 193.97 495.018 196.943 496.344 199.748C498.478 204.245 501.222 208.453 503.89 212.523C504.987 214.2 506.039 216.044 507.167 218.011C509.607 222.279 512.137 226.685 515.262 229.642C518.662 232.859 524.165 235.466 528.19 237.097C532.168 238.713 536.696 238.469 542.047 236.38C546.086 234.81 549.943 232.783 553.693 230.831C556.117 229.566 558.374 228.438 560.584 227.371C569.471 223.072 577.947 219.749 586.484 217.188C591.713 215.617 597.14 215.267 602.247 215.053C603.375 215.008 604.518 214.962 605.647 214.931C610.388 214.764 615.281 214.596 620.037 213.712C620.647 213.605 621.242 213.437 621.836 213.285C622.278 213.178 622.705 213.056 623.147 212.965C627.781 211.959 633.3 210.114 635.023 204.794C635.023 204.779 635.023 204.763 635.023 204.748C636.12 195.586 630.221 186.622 624.961 179.839C616.577 169.015 605.631 160.493 596.027 153.374C590.082 148.953 584.121 144.685 578.359 140.554C571.621 135.721 565.249 130.325 559.075 125.111C557.825 124.059 556.575 122.992 555.325 121.94C539.684 108.8 517.488 100.888 495.947 100.796H495.887L495.856 100.766Z" fill="#D3D3D3"/>
<path d="M539.592 229.002C538.723 229.002 537.885 228.926 537.062 228.773C534.455 228.285 531.741 227.401 528.784 226.075C524.836 224.291 522.808 223.026 520.476 220.846C510.323 211.395 503.25 199.565 498.813 184.686C498.127 182.384 497.487 180.052 496.832 177.704C493.798 166.774 490.658 155.463 483.432 146.682C478.676 140.904 472.441 136.712 466.953 133.389C462.821 130.873 458.05 127.078 457.867 119.928C457.821 118.266 458.157 116.711 458.858 115.278C461.266 110.431 466.587 108.693 470.383 107.793C473.553 107.062 477.121 106.574 480.993 106.36C485.093 106.147 489.347 106.132 493.6 106.299C494.743 106.345 495.871 106.376 496.999 106.421C500.658 106.528 504.439 106.65 508.189 107.199C524.074 109.592 540.797 117.016 554.075 127.55L557.078 129.928C562.307 134.09 567.734 138.404 573.267 142.444C577.551 145.569 582.612 149.273 587.704 153.176C595.387 159.06 604.259 166.256 611.79 174.991C620.007 184.519 623.086 192.507 621.181 199.412C621.181 199.458 621.181 199.504 621.15 199.55C618.681 205.754 611.79 207.705 605.54 209.062C605.22 209.138 604.9 209.215 604.579 209.291C604.137 209.398 603.711 209.504 603.268 209.596C600.067 210.236 596.82 210.587 593.664 210.922C592.597 211.044 591.53 211.151 590.448 211.273C586.271 211.76 582.795 212.309 579.396 213.392C573.267 215.328 567.215 217.752 560.904 220.77C559.242 221.563 557.596 222.386 555.95 223.224C553.221 224.612 550.401 226.06 547.489 227.249C544.593 228.423 541.971 229.017 539.562 229.017L539.592 229.002ZM487.975 107.199C485.642 107.199 483.34 107.26 481.069 107.367C477.258 107.565 473.752 108.037 470.627 108.769C464.91 110.111 461.465 112.306 459.772 115.705C459.147 116.986 458.843 118.388 458.873 119.882C459.01 125.065 461.663 128.968 467.486 132.505C473.035 135.889 479.377 140.127 484.225 146.026C491.588 154.975 494.758 166.393 497.823 177.43C498.478 179.778 499.118 182.11 499.804 184.397C504.18 199.092 511.177 210.785 521.192 220.114C523.464 222.233 525.339 223.407 529.226 225.16C532.107 226.456 534.745 227.325 537.275 227.782C540.172 228.316 543.404 227.828 547.154 226.304C550.035 225.13 552.84 223.697 555.538 222.325C557.184 221.486 558.846 220.648 560.508 219.855C566.865 216.806 572.947 214.383 579.121 212.431C582.597 211.334 586.134 210.77 590.356 210.267C591.423 210.145 592.506 210.023 593.573 209.901C596.698 209.565 599.93 209.215 603.085 208.59C603.512 208.498 603.924 208.407 604.351 208.3C604.671 208.224 605.006 208.132 605.342 208.071C611.333 206.776 617.903 204.931 620.205 199.214C620.205 199.199 620.205 199.169 620.205 199.153C622.019 192.598 619.016 184.9 611.028 175.646C603.543 166.972 594.732 159.823 587.094 153.969C582.018 150.081 576.957 146.362 572.688 143.252C567.139 139.212 561.712 134.898 556.468 130.721L553.465 128.343C540.324 117.9 523.769 110.568 508.052 108.205C504.362 107.656 500.78 107.549 496.984 107.443C495.856 107.412 494.713 107.367 493.569 107.321C491.694 107.245 489.819 107.214 487.959 107.214L487.975 107.199Z" fill="#D3D3D3"/>
<path d="M537.168 220.8C531.025 220.8 526.253 219.215 522.64 216.014C514.546 208.818 514.088 194.489 513.692 181.836C513.509 176.226 513.357 170.921 512.579 166.439C510.796 156.012 505.597 146.453 497.929 139.502C496.862 138.541 495.734 137.596 494.636 136.697C492.243 134.73 489.773 132.688 487.807 130.172C485.261 126.91 483.035 121.407 485.139 116.65C488.279 109.547 498.005 109.623 500.917 109.806C520.506 111.101 538.129 123.785 552.276 133.968C567.871 145.203 583.999 156.82 597.902 170.799C602.796 175.723 610.403 185.281 606.409 194.031C603.268 200.906 595.158 202.644 587.993 204.169L587.81 204.215C578.557 206.196 569.502 209.245 560.889 213.285C559.852 213.773 558.831 214.261 557.794 214.764C552.367 217.386 546.757 220.114 540.72 220.633C539.486 220.74 538.297 220.8 537.168 220.8ZM499.195 110.766C495.46 110.766 488.508 111.544 486.069 117.062C484.148 121.422 486.237 126.514 488.615 129.562C490.505 131.986 492.944 133.999 495.292 135.935C496.405 136.849 497.548 137.794 498.63 138.77C506.466 145.874 511.786 155.646 513.601 166.286C514.378 170.844 514.546 176.18 514.713 181.82C515.125 194.87 515.537 208.376 523.326 215.282C527.397 218.895 533.068 220.328 540.644 219.657C546.498 219.139 552.032 216.471 557.367 213.88C558.404 213.376 559.441 212.873 560.462 212.386C569.136 208.315 578.267 205.236 587.597 203.239L587.78 203.193C594.701 201.714 602.552 200.038 605.494 193.62C609.244 185.433 601.896 176.256 597.201 171.53C583.359 157.612 567.276 146.011 551.712 134.807C537.656 124.684 520.171 112.108 500.871 110.827C500.445 110.797 499.881 110.781 499.21 110.781L499.195 110.766Z" fill="#D3D3D3"/>
</g>
<defs>
<clipPath id="clip0_5827_29650">
<rect width="1097.6" height="686" fill="white"/>
</clipPath>
</defs>
</svg>
