<?xml version="1.0" encoding="utf-8"?>
<!-- Generator: Adobe Illustrator 25.2.0, SVG Export Plug-In . SVG Version: 6.00 Build 0)  -->
<svg version="1.1" id="Layer_1" xmlns="http://www.w3.org/2000/svg" xmlns:xlink="http://www.w3.org/1999/xlink" x="0px" y="0px"
	 viewBox="0 0 29.8 22.5" style="enable-background:new 0 0 29.8 22.5;" xml:space="preserve">
<style type="text/css">
	.st0{clip-path:url(#SVGID_2_);}
	.st1{clip-path:url(#SVGID_4_);}
	.st2{fill:#6687E9;}
	.st3{clip-path:url(#SVGID_6_);}
	.st4{clip-path:url(#SVGID_8_);}
</style>
<g transform="translate(0 0)">
	<g>
		<defs>
			<path id="SVGID_1_" d="M28.8,19.9L2.4,0.7C1.9,0.3,1.1,0.4,0.7,1S0.4,2.3,1,2.7c0,0,0,0,0,0l26.4,19.2c0.5,0.4,1.3,0.3,1.7-0.3
				C29.4,21,29.3,20.3,28.8,19.9C28.8,19.9,28.8,19.9,28.8,19.9z"/>
		</defs>
		<use xlink:href="#SVGID_1_"  style="overflow:visible;fill:#6687E9;"/>
		<clipPath id="SVGID_2_">
			<use xlink:href="#SVGID_1_"  style="overflow:visible;"/>
		</clipPath>
		<g transform="matrix(-0.809, -0.588, 0.588, -0.809, 28.337, 22.542)" class="st0">
			<g>
				<defs>
					
						<rect id="SVGID_3_" x="300.7" y="-1700.7" transform="matrix(0.5879 -0.8089 0.8089 0.5879 830.388 547.8942)" width="1304.6" height="2319.3"/>
				</defs>
				<use xlink:href="#SVGID_3_"  style="overflow:visible;fill:#6687E9;"/>
				<clipPath id="SVGID_4_">
					<use xlink:href="#SVGID_3_"  style="overflow:visible;"/>
				</clipPath>
				<g transform="translate(-206.536 -1193.322)" class="st1">
					<path class="st2" d="M200.5,1201.8h47.1v-14.5h-47.1V1201.8z"/>
				</g>
			</g>
		</g>
	</g>
	<g>
		<defs>
			<path id="SVGID_5_" d="M1,19.9L27.4,0.7C27.9,0.3,28.7,0.4,29,1s0.3,1.3-0.3,1.7c0,0,0,0,0,0L2.4,21.8c-0.5,0.4-1.3,0.3-1.7-0.3
				C0.3,21,0.4,20.3,1,19.9C1,19.9,1,19.9,1,19.9z"/>
		</defs>
		<use xlink:href="#SVGID_5_"  style="overflow:visible;fill:#6687E9;"/>
		<clipPath id="SVGID_6_">
			<use xlink:href="#SVGID_5_"  style="overflow:visible;"/>
		</clipPath>
		<g transform="matrix(0.809, -0.588, 0.588, 0.809, 0, 20.588)" class="st3">
			<g>
				<defs>
					
						<rect id="SVGID_7_" x="-206.7" y="-108.8" transform="matrix(0.8089 -0.5879 0.5879 0.8089 -137.4484 664.1395)" width="2319.3" height="1304.6"/>
				</defs>
				<use xlink:href="#SVGID_7_"  style="overflow:visible;fill:#6687E9;"/>
				<clipPath id="SVGID_8_">
					<use xlink:href="#SVGID_7_"  style="overflow:visible;"/>
				</clipPath>
				<g transform="translate(-206.538 -108.706)" class="st4">
					<path class="st2" d="M200.5,102.7h47.1v14.5h-47.1V102.7z"/>
				</g>
			</g>
		</g>
	</g>
</g>
</svg>
