<svg xmlns="http://www.w3.org/2000/svg" xmlns:xlink="http://www.w3.org/1999/xlink" width="29.757" height="22.543" viewBox="0 0 29.757 22.543"><defs><style>.a,.b{fill:#03fcf5;}.a{clip-rule:evenodd;}.c{clip-path:url(#a);}.d{clip-path:url(#b);}.e{clip-path:url(#c);}.f{clip-path:url(#d);}</style><clipPath id="a"><path class="a" d="M1.208,2.416H33.819a1.208,1.208,0,1,0,0-2.416H1.208a1.208,1.208,0,1,0,0,2.416Z" transform="translate(0 0)"/></clipPath><clipPath id="b"><path class="b" d="M0,0,2319.007,0l0,1304.438L0,1304.442Z" transform="translate(0 0)"/></clipPath><clipPath id="c"><path class="a" d="M1.208,0H33.819a1.208,1.208,0,1,1,0,2.416H1.208A1.208,1.208,0,1,1,1.208,0Z" transform="translate(0 0)"/></clipPath><clipPath id="d"><path class="b" d="M0,1304.442l2319,0V0L0,0Z" transform="translate(0 0)"/></clipPath></defs><g transform="translate(0 0)"><g class="c" transform="matrix(-0.809, -0.588, 0.588, -0.809, 28.337, 22.542)"><g class="d" transform="translate(-206.536 -1193.322)"><path class="b" d="M0,14.494H47.1V0H0Z" transform="translate(200.497 1187.283)"/></g></g><g class="e" transform="matrix(0.809, -0.588, 0.588, 0.809, 0, 20.588)"><g class="f" transform="translate(-206.538 -108.706)"><path class="b" d="M0,0H47.1V14.494H0Z" transform="translate(200.498 102.667)"/></g></g></g></svg>