<?xml version="1.0" encoding="utf-8"?>
<!-- Svg Vector Icons : http://www.onlinewebfonts.com/icon -->
<!DOCTYPE svg PUBLIC "-//W3C//DTD SVG 1.1//EN" "http://www.w3.org/Graphics/SVG/1.1/DTD/svg11.dtd">
<svg version="1.1" xmlns="http://www.w3.org/2000/svg" xmlns:xlink="http://www.w3.org/1999/xlink" x="0px" y="0px" viewBox="0 0 1000 1000" enable-background="new 0 0 1000 1000" xml:space="preserve">
<metadata> Svg Vector Icons : http://www.onlinewebfonts.com/icon </metadata>
<g><g><path d="M500,10C229.8,10,10,229.8,10,500c0,270.2,219.8,490,490,490c270.2,0,490-219.8,490-490C990,229.8,770.2,10,500,10z M730.8,512.5c-24.4,24.4-64.1,24.4-88.4,0l-79.9-79.8v285.7c0,34.5-28,62.6-62.6,62.6c-34.5,0-62.6-28-62.6-62.6V432.7l-79.8,79.8c-12.2,12.2-28.2,18.3-44.2,18.3c-16,0-32-6.1-44.2-18.3c-24.4-24.4-24.4-64,0-88.5L500,193.2L730.8,424C755.2,448.4,755.2,488.1,730.8,512.5z"/></g><g></g><g></g><g></g><g></g><g></g><g></g><g></g><g></g><g></g><g></g><g></g><g></g><g></g><g></g><g></g></g>
</svg>