<svg xmlns="http://www.w3.org/2000/svg" width="17.538" height="20.693" viewBox="0 0 17.538 20.693"><defs><style>.a{opacity:0;}.b{fill:#0070ff;}.c{opacity:0.001;}.d{opacity:0.002;}.e{opacity:0.003;}.f{opacity:0.004;}.g{opacity:0.006;}.h{opacity:0.008;}.i{opacity:0.01;}.j{opacity:0.013;}.k{opacity:0.016;}.l{opacity:0.019;}.m{opacity:0.023;}.n{opacity:0.028;}.o{opacity:0.032;}.p{opacity:0.038;}.q{opacity:0.044;}.r{opacity:0.051;}.s{opacity:0.059;}.t{opacity:0.068;}.u{opacity:0.079;}.v{opacity:0.093;}.w{opacity:0.113;}.x{opacity:0.177;}.y{fill:#ddecff;}.z{fill:#fff;}.aa{fill:#5dffcd;}</style></defs><g transform="translate(0 0)"><g class="a"><path class="b" d="M34.47,37.969h0a2.008,2.008,0,0,1-1.462-.632c-.214-.107-.64-.275-.965-.4a13.759,13.759,0,0,1-4.009-2.174,5.394,5.394,0,0,1-1.748-5.741c1.032-3.788.57-5.14.435-5.422a2.007,2.007,0,0,1-.44-3.087L27.8,18.869a1.944,1.944,0,0,1,1.415-.7h0a1.835,1.835,0,0,1,1.39.563,1.2,1.2,0,0,0,.846.163c.931-.143,1.007-.251,1.259-.609.044-.062.087-.124.132-.185a2.008,2.008,0,0,1,3.246,0c.045.062.089.124.132.186.252.358.329.466,1.259.609a1.289,1.289,0,0,0,.82-.136,2.008,2.008,0,0,1,2.834.109l1.52,1.639a2.007,2.007,0,0,1-.44,3.087c-.134.282-.6,1.634.435,5.422a5.393,5.393,0,0,1-1.748,5.741,13.762,13.762,0,0,1-4.01,2.174c-.325.128-.75.3-.965.4A2.008,2.008,0,0,1,34.47,37.969ZM30.72,22.9c.455,1.767.271,4.119-.56,7.17-.305,1.121.108,1.838,3.362,3.127.337.134.655.259.949.391.294-.131.612-.257.949-.391,3.255-1.289,3.667-2.006,3.362-3.127-.831-3.051-1.015-5.4-.56-7.17a5.328,5.328,0,0,1-1.347-.038,6.646,6.646,0,0,1-2.4-.781,6.644,6.644,0,0,1-2.4.781A5.334,5.334,0,0,1,30.72,22.9Zm-.084-4.142Z" transform="translate(-25.745 -17.276)"/></g><g class="c" transform="translate(0.077 0.077)"><path class="b" d="M34.893,38.314h0a1.93,1.93,0,0,1-1.415-.618c-.214-.108-.651-.281-.983-.413a13.693,13.693,0,0,1-3.987-2.161,5.32,5.32,0,0,1-1.724-5.662c1.059-3.887.555-5.232.419-5.5a1.93,1.93,0,0,1-.442-2.98l1.521-1.639a1.872,1.872,0,0,1,1.362-.669h0a1.773,1.773,0,0,1,1.338.54,1.27,1.27,0,0,0,.908.18c.963-.148,1.051-.272,1.311-.641.044-.061.087-.123.132-.185a1.93,1.93,0,0,1,3.121,0c.045.062.088.123.132.185.26.368.348.492,1.311.641a1.315,1.315,0,0,0,.884-.155,1.93,1.93,0,0,1,2.725.1l1.52,1.639a1.93,1.93,0,0,1-.442,2.98c-.136.265-.639,1.61.419,5.5a5.319,5.319,0,0,1-1.724,5.662,13.7,13.7,0,0,1-3.987,2.161c-.332.131-.769.3-.983.413A1.93,1.93,0,0,1,34.893,38.314ZM31.039,23.236c.488,1.765.314,4.138-.531,7.239-.357,1.309.408,2.031,3.408,3.219.354.14.68.269.977.4.3-.133.623-.262.977-.4,3-1.188,3.765-1.91,3.408-3.219-.845-3.1-1.019-5.474-.531-7.239a5.231,5.231,0,0,1-1.439-.025,6.5,6.5,0,0,1-2.416-.8,6.5,6.5,0,0,1-2.416.8A5.23,5.23,0,0,1,31.039,23.236Zm-3.466.894h0Zm14.641,0h0Zm0,0h0Zm-14.645,0h0Zm3.435-4.89Z" transform="translate(-26.245 -17.776)"/></g><g class="d" transform="translate(0.155 0.154)"><path class="b" d="M35.316,38.66h0a1.853,1.853,0,0,1-1.368-.6c-.214-.11-.662-.287-1-.422a13.627,13.627,0,0,1-3.965-2.147,5.184,5.184,0,0,1-1.7-5.584c1.087-3.989.538-5.325.4-5.574a1.853,1.853,0,0,1-.442-2.871l1.521-1.639a1.8,1.8,0,0,1,1.306-.639,1.729,1.729,0,0,1,1.289.517,1.338,1.338,0,0,0,.969.2c1-.153,1.1-.295,1.362-.672.043-.061.087-.122.131-.184a1.853,1.853,0,0,1,3,0c.045.061.088.123.131.184.267.378.366.519,1.362.672a1.376,1.376,0,0,0,.949-.175,1.853,1.853,0,0,1,2.616.1l1.521,1.639a1.853,1.853,0,0,1-.442,2.871c-.137.248-.685,1.584.4,5.574a5.184,5.184,0,0,1-1.7,5.584,13.636,13.636,0,0,1-3.965,2.147c-.34.135-.788.312-1,.422A1.853,1.853,0,0,1,35.316,38.66ZM31.355,23.567c.516,1.744.348,4.2-.5,7.311-.37,1.361.4,2.1,3.454,3.311.366.145.7.278,1.006.416.3-.138.64-.271,1.006-.416,3.05-1.208,3.825-1.951,3.454-3.311-.847-3.109-1.014-5.567-.5-7.311a5.144,5.144,0,0,1-1.534-.009,6.358,6.358,0,0,1-2.427-.811,6.356,6.356,0,0,1-2.427.811A5.143,5.143,0,0,1,31.355,23.567Zm-3.337.912h0Zm14.6,0h0Zm-14.6,0h0Zm14.6,0h0Zm0,0h0Zm-14.608,0h0Z" transform="translate(-26.745 -18.276)"/></g><g class="e" transform="translate(0.232 0.232)"><path class="b" d="M35.739,39.005h0a1.776,1.776,0,0,1-1.32-.588c-.214-.111-.674-.294-1.021-.431a13.569,13.569,0,0,1-3.943-2.134,5.111,5.111,0,0,1-1.676-5.505c1.115-4.1.52-5.42.383-5.651a1.776,1.776,0,0,1-.441-2.762L29.24,20.3a1.727,1.727,0,0,1,1.251-.61H30.5a1.644,1.644,0,0,1,1.227.494,1.409,1.409,0,0,0,1.031.214c1.028-.158,1.133-.307,1.414-.7.043-.061.086-.122.13-.183a1.776,1.776,0,0,1,2.871,0c.044.061.088.122.131.183.28.4.385.546,1.413.7a1.471,1.471,0,0,0,1.013-.195,1.776,1.776,0,0,1,2.507.1l1.521,1.639a1.776,1.776,0,0,1-.441,2.762c-.137.231-.732,1.556.383,5.651a5.111,5.111,0,0,1-1.677,5.505,13.566,13.566,0,0,1-3.943,2.134c-.348.138-.808.32-1.021.431A1.776,1.776,0,0,1,35.739,39.005ZM31.667,23.894c.555,1.736.4,4.22-.463,7.386-.385,1.412.4,2.176,3.5,3.4.378.15.723.286,1.034.429.311-.142.656-.279,1.034-.429,3.1-1.228,3.885-1.991,3.5-3.4-.862-3.166-1.018-5.65-.463-7.386a5.052,5.052,0,0,1-1.633.01,6.213,6.213,0,0,1-2.439-.827A6.212,6.212,0,0,1,33.3,23.9,5.052,5.052,0,0,1,31.667,23.894Zm-3.2.935h0Zm14.544,0h0Zm0,0h0Zm-14.547,0h0Zm14.549,0h0Zm-14.55,0h0Zm14.552,0h0ZM31.747,20.2Z" transform="translate(-27.245 -18.776)"/></g><g class="f" transform="translate(0.309 0.309)"><path class="b" d="M36.162,39.351h0a1.7,1.7,0,0,1-1.272-.573c-.213-.113-.685-.3-1.041-.441a13.507,13.507,0,0,1-3.921-2.121,5.038,5.038,0,0,1-1.652-5.426c1.145-4.205.5-5.516.363-5.73a1.7,1.7,0,0,1-.439-2.651l1.521-1.639a1.654,1.654,0,0,1,1.2-.581,1.569,1.569,0,0,1,1.186.471,1.479,1.479,0,0,0,1.094.232c1.061-.163,1.179-.331,1.465-.736.043-.06.086-.121.13-.182a1.7,1.7,0,0,1,2.747,0c.044.061.087.122.13.182.286.405.4.573,1.465.736a1.522,1.522,0,0,0,1.077-.214,1.7,1.7,0,0,1,2.4.092l1.521,1.639a1.7,1.7,0,0,1-.439,2.651c-.137.214-.782,1.525.363,5.73A5.037,5.037,0,0,1,42.4,36.216a13.506,13.506,0,0,1-3.921,2.121c-.356.141-.828.328-1.041.441A1.7,1.7,0,0,1,36.162,39.351ZM31.976,24.217l.019.057c.576,1.724.427,4.217-.442,7.409-.394,1.446.435,2.263,3.546,3.5.39.154.745.3,1.063.442.318-.147.673-.288,1.063-.442,3.112-1.232,3.94-2.049,3.546-3.5-.869-3.192-1.018-5.684-.442-7.409l.019-.057a4.96,4.96,0,0,1-1.736.033,6.073,6.073,0,0,1-2.451-.836,6.072,6.072,0,0,1-2.451.836A4.97,4.97,0,0,1,31.976,24.217Zm-3.064.961h0Zm14.5,0h0Zm-14.5,0h0Zm14.506,0h0Zm0,0h0Zm-14.511,0h0Z" transform="translate(-27.745 -19.276)"/></g><g class="g" transform="translate(0.386 0.386)"><path class="b" d="M36.585,39.7h0a1.622,1.622,0,0,1-1.223-.558c-.212-.115-.7-.307-1.061-.451a13.448,13.448,0,0,1-3.9-2.107,4.965,4.965,0,0,1-1.629-5.348c1.176-4.318.477-5.612.341-5.81a1.621,1.621,0,0,1-.435-2.539L30.2,21.246a1.582,1.582,0,0,1,1.14-.552h.017a1.513,1.513,0,0,1,1.116.449,1.551,1.551,0,0,0,1.156.249c1.093-.168,1.225-.356,1.516-.768.042-.06.085-.12.129-.181a1.622,1.622,0,0,1,2.622,0c.044.06.087.121.129.181.291.412.423.6,1.516.768a1.576,1.576,0,0,0,1.141-.234,1.621,1.621,0,0,1,2.289.088l1.52,1.639a1.621,1.621,0,0,1-.435,2.539c-.136.2-.835,1.492.341,5.81a4.965,4.965,0,0,1-1.629,5.348,13.442,13.442,0,0,1-3.9,2.107c-.365.145-.849.336-1.061.451A1.622,1.622,0,0,1,36.585,39.7ZM32.279,24.536c.023.06.045.122.066.186.571,1.709.422,4.187-.443,7.364-.408,1.5.431,2.336,3.592,3.588.4.16.767.3,1.091.456.324-.152.689-.3,1.091-.456,3.161-1.252,4-2.09,3.592-3.588-.865-3.177-1.014-5.654-.443-7.364q.032-.1.066-.186a4.87,4.87,0,0,1-1.843.061,5.92,5.92,0,0,1-2.463-.853,5.921,5.921,0,0,1-2.463.853A4.87,4.87,0,0,1,32.279,24.536Zm-2.918.992h0Zm14.448,0h0Zm0,0h0Zm-14.451,0h0Zm14.452,0h0Zm-14.454,0h0Zm14.455,0h0Zm-14.457,0h0Zm14.458,0h0ZM32.488,21.158Z" transform="translate(-28.245 -19.776)"/></g><g class="h" transform="translate(0.463 0.463)"><path class="b" d="M37.007,40.042h0a1.544,1.544,0,0,1-1.174-.542c-.211-.117-.708-.314-1.082-.462a13.386,13.386,0,0,1-3.876-2.093,4.892,4.892,0,0,1-1.6-5.269c1.207-4.433.452-5.709.318-5.89a1.544,1.544,0,0,1-.43-2.426l1.521-1.639a1.508,1.508,0,0,1,1.085-.524,1.45,1.45,0,0,1,1.081.425,1.648,1.648,0,0,0,1.219.268c1.125-.173,1.264-.37,1.567-.8.042-.06.085-.12.128-.18a1.544,1.544,0,0,1,2.5,0c.044.06.086.12.129.18.3.43.442.626,1.567.8a1.662,1.662,0,0,0,1.2-.253,1.544,1.544,0,0,1,2.18.084l1.52,1.639a1.544,1.544,0,0,1-.43,2.426c-.134.181-.89,1.457.318,5.891a4.892,4.892,0,0,1-1.6,5.269,13.381,13.381,0,0,1-3.876,2.093c-.374.148-.872.345-1.082.462A1.544,1.544,0,0,1,37.007,40.042ZM32.575,24.848q.063.152.119.32c.566,1.695.416,4.157-.445,7.319-.468,1.718.8,2.556,3.638,3.68.415.164.79.313,1.119.469.33-.157.7-.3,1.12-.469,2.838-1.124,4.107-1.961,3.639-3.68-.861-3.162-1.011-5.624-.445-7.319.037-.112.077-.219.119-.32a4.788,4.788,0,0,1-1.958.1,5.773,5.773,0,0,1-2.474-.871,5.773,5.773,0,0,1-2.474.871A4.789,4.789,0,0,1,32.575,24.848Zm-2.769,1.029h0Zm14.4,0h0Zm0,0h0Zm-14.408,0h0Zm14.411,0h0Zm-14.414,0h0Zm14.416,0h0ZM32.858,21.637Z" transform="translate(-28.745 -20.276)"/></g><g class="i" transform="translate(0.541 0.54)"><path class="b" d="M37.43,40.388h0a1.467,1.467,0,0,1-1.124-.525c-.209-.119-.72-.321-1.1-.473a13.317,13.317,0,0,1-3.854-2.08,4.819,4.819,0,0,1-1.581-5.191c1.24-4.551.425-5.808.292-5.972a1.467,1.467,0,0,1-.422-2.312l1.52-1.639a1.436,1.436,0,0,1,1.03-.5,1.4,1.4,0,0,1,1.029.4,1.723,1.723,0,0,0,1.282.286c1.158-.178,1.312-.4,1.619-.831.042-.06.084-.119.128-.179a1.467,1.467,0,0,1,2.372,0c.044.06.086.12.128.179.307.435.461.653,1.619.831a1.719,1.719,0,0,0,1.269-.273,1.467,1.467,0,0,1,2.071.08l1.521,1.639a1.467,1.467,0,0,1-.422,2.312c-.132.165-.947,1.421.292,5.972a4.819,4.819,0,0,1-1.581,5.191,13.319,13.319,0,0,1-3.854,2.08c-.383.152-.894.354-1.1.473A1.467,1.467,0,0,1,37.43,40.388Zm1.275-.742h0ZM32.864,25.153a4.9,4.9,0,0,1,.18.462c.561,1.68.411,4.128-.446,7.274-.483,1.775.8,2.631,3.685,3.772.428.17.812.322,1.148.483.336-.162.72-.314,1.148-.483,2.882-1.141,4.168-2,3.685-3.772-.857-3.147-1.007-5.594-.446-7.274a4.913,4.913,0,0,1,.18-.463,4.692,4.692,0,0,1-2.081.137,5.625,5.625,0,0,1-2.486-.89,5.625,5.625,0,0,1-2.486.89A4.7,4.7,0,0,1,32.864,25.153Zm-2.61,1.073h0Zm14.357,0-.005,0Zm-14.36,0h0Zm14.363,0h0Zm-14.365,0h0Zm14.367,0h0Zm-14.37,0h0Z" transform="translate(-29.246 -20.776)"/></g><g class="j" transform="translate(0.923 0.618)"><path class="b" d="M39.526,40.733h0a1.39,1.39,0,0,1-1.074-.508,11.921,11.921,0,0,0-1.126-.485c-2.152-.852-6.629-2.625-5.389-7.179.926-3.4.706-4.979.493-5.618a1.112,1.112,0,0,0-.237-.449s.014.007.022.013l.054.027.107.042.432-1.321-1.019-.945,1.52-1.639a1.361,1.361,0,0,1,.975-.468,1.319,1.319,0,0,1,.976.381,1.8,1.8,0,0,0,1.345.3c1.19-.183,1.351-.41,1.67-.863.042-.059.084-.119.127-.178a1.39,1.39,0,0,1,2.247,0c.043.06.085.119.127.178.319.453.48.68,1.67.863a1.793,1.793,0,0,0,1.345-.3,1.317,1.317,0,0,1,.976-.381,1.361,1.361,0,0,1,.975.468l1.521,1.639a1.39,1.39,0,0,1-.414,2.2c-.129.149-1.006,1.384.266,6.055,1.24,4.553-3.237,6.326-5.389,7.179a12.024,12.024,0,0,0-1.126.485A1.39,1.39,0,0,1,39.526,40.733Zm1.208-.7h0ZM34.813,25.448a4.659,4.659,0,0,1,.253.615c.557,1.665.406,4.1-.447,7.23-.5,1.832.805,2.705,3.731,3.864.441.175.835.331,1.176.5.341-.167.735-.323,1.176-.5,2.925-1.158,4.23-2.032,3.731-3.864-.853-3.132-1-5.564-.447-7.23a4.659,4.659,0,0,1,.253-.615,4.6,4.6,0,0,1-2.215.188,5.474,5.474,0,0,1-2.5-.911,5.471,5.471,0,0,1-2.5.911A4.6,4.6,0,0,1,34.813,25.448Zm11.866,1.127h0Zm.005,0-.005,0Zm0,0h0Zm0,0h0Z" transform="translate(-31.724 -21.276)"/></g><g class="k" transform="translate(1.002 0.695)"><path class="b" d="M39.956,41.079h0a1.313,1.313,0,0,1-1.023-.491,11.422,11.422,0,0,0-1.148-.5c-2.131-.844-6.565-2.6-5.343-7.087.931-3.419.708-5.016.492-5.663a1.18,1.18,0,0,0-.258-.48.333.333,0,0,1,.054.025l.1.039.408-1.247-.962-.893L33.8,23.147a1.287,1.287,0,0,1,.92-.44,1.253,1.253,0,0,1,.923.359,1.867,1.867,0,0,0,1.407.322c1.223-.188,1.4-.439,1.722-.9.042-.059.083-.118.126-.177a1.312,1.312,0,0,1,2.122,0c.043.059.085.118.127.177.322.456.5.707,1.721.895a1.868,1.868,0,0,0,1.407-.322,1.243,1.243,0,0,1,.923-.359,1.288,1.288,0,0,1,.92.44l1.521,1.639a1.312,1.312,0,0,1-.4,2.08c-.126.134-1.068,1.347.237,6.139,1.222,4.487-3.212,6.243-5.343,7.087a11.391,11.391,0,0,0-1.148.5A1.312,1.312,0,0,1,39.956,41.079Zm1.141-.664h0Zm-2.282,0h0Zm-3.74-14.688a4.338,4.338,0,0,1,.348.783c.551,1.651.4,4.068-.449,7.185-.511,1.877.871,2.805,3.777,3.956.463.183.864.342,1.2.51.34-.168.742-.327,1.2-.51,2.906-1.151,4.288-2.079,3.777-3.956-.849-3.117-1-5.534-.448-7.185a4.327,4.327,0,0,1,.347-.783,4.516,4.516,0,0,1-2.371.255,5.329,5.329,0,0,1-2.51-.932,5.327,5.327,0,0,1-2.51.932A4.52,4.52,0,0,1,35.075,25.728Zm12.009,1.2h0Zm0,0h0Zm0,0h0Zm0,0h0Z" transform="translate(-32.232 -21.776)"/></g><g class="l" transform="translate(0.772 0.772)"><path class="b" d="M38.7,41.425h0a1.236,1.236,0,0,1-.972-.473,10.944,10.944,0,0,0-1.171-.509,13.142,13.142,0,0,1-3.787-2.04,4.6,4.6,0,0,1-1.509-4.955c1.338-4.914.328-6.1.206-6.224a1.235,1.235,0,0,1-.39-1.963L32.6,23.623a1.212,1.212,0,0,1,.865-.413,1.178,1.178,0,0,1,.87.337,1.938,1.938,0,0,0,1.47.34c1.255-.193,1.439-.454,1.773-.927.042-.059.083-.117.126-.176a1.235,1.235,0,0,1,2,0c.043.059.084.118.126.177.334.473.518.734,1.773.927a1.938,1.938,0,0,0,1.47-.34,1.169,1.169,0,0,1,.87-.337,1.213,1.213,0,0,1,.865.413l1.52,1.639a1.235,1.235,0,0,1-.39,1.963c-.122.12-1.132,1.31.207,6.224A4.6,4.6,0,0,1,44.63,38.4a13.143,13.143,0,0,1-3.788,2.04,10.923,10.923,0,0,0-1.171.509A1.236,1.236,0,0,1,38.7,41.425Zm1.074-.625h0Zm-2.148,0h0ZM33.69,26.076c.712,1.172,1.188,3.487-.047,8.022-.527,1.934.874,2.88,3.823,4.048.478.189.888.352,1.233.525.345-.173.756-.336,1.233-.525,2.949-1.168,4.349-2.114,3.823-4.048-1.235-4.535-.76-6.85-.047-8.022l-.041-.044a4.438,4.438,0,0,1-2.446.3,5.181,5.181,0,0,1-2.521-.954,5.178,5.178,0,0,1-2.521.954,4.437,4.437,0,0,1-2.446-.3Zm-2.1,1.2h0Zm14.217,0-.009,0Zm-14.219,0h0Zm0,0h0Zm0,0h0Zm14.225,0h0Z" transform="translate(-30.745 -22.276)"/></g><g class="m" transform="translate(1.077 0.849)"><path class="b" d="M40.369,41.77h0a1.158,1.158,0,0,1-.919-.454,10.4,10.4,0,0,0-1.2-.523,12.879,12.879,0,0,1-3.765-2.026A4.527,4.527,0,0,1,33,33.891c.942-3.459.711-5.089.489-5.753l-.2-.514c-.163-.414-.791-1.562-.489-1.888L34.323,24.1a1.139,1.139,0,0,1,.811-.386,1.117,1.117,0,0,1,.817.315,2.013,2.013,0,0,0,1.533.359c1.288-.2,1.489-.484,1.824-.959.041-.058.082-.117.125-.175a1.158,1.158,0,0,1,1.873,0c.042.059.084.117.125.176.335.474.537.76,1.824.958a1.993,1.993,0,0,0,1.526-.351,1.158,1.158,0,0,1,1.635.063l1.52,1.639a1.158,1.158,0,0,1-.376,1.845c-.117.107-1.2,1.274.175,6.31a4.527,4.527,0,0,1-1.486,4.876,12.876,12.876,0,0,1-3.765,2.026,10.415,10.415,0,0,0-1.2.523A1.158,1.158,0,0,1,40.369,41.77Zm1.007-.586h0Zm-2.013,0h0Zm-4.1-14.7c.719,1.136,1.223,3.427-.027,8.013-.542,1.99.878,2.955,3.869,4.14.493.2.913.361,1.262.54.349-.178.769-.345,1.262-.54,2.991-1.185,4.411-2.15,3.869-4.14-1.249-4.586-.745-6.877-.027-8.013l-.116-.125a4.361,4.361,0,0,1-2.454.314,5,5,0,0,1-2.533-.972,5,5,0,0,1-2.533.972,4.362,4.362,0,0,1-2.455-.314Zm12.191,1.135-.009,0Zm0,0h0Zm.112-.048Z" transform="translate(-32.721 -22.776)"/></g><g class="n" transform="translate(0.927 0.927)"><path class="b" d="M39.544,42.116h0a1.081,1.081,0,0,1-.866-.434,9.917,9.917,0,0,0-1.22-.537,12.819,12.819,0,0,1-3.743-2.013,4.454,4.454,0,0,1-1.461-4.8c1.388-5.1.25-6.356.237-6.36a1.081,1.081,0,0,1-.456-1.763l1.52-1.639a1.063,1.063,0,0,1,.756-.359,1.042,1.042,0,0,1,.763.294,2.08,2.08,0,0,0,1.6.377c1.32-.2,1.529-.5,1.875-.99.041-.058.082-.116.124-.174a1.081,1.081,0,0,1,1.748,0c.042.058.084.116.125.174.347.491.556.787,1.875.99a2.075,2.075,0,0,0,1.59-.371,1.081,1.081,0,0,1,1.526.059l1.521,1.639a1.081,1.081,0,0,1-.36,1.726c-.111.095-1.264,1.24.141,6.4a4.454,4.454,0,0,1-1.462,4.8,12.816,12.816,0,0,1-3.743,2.013,9.894,9.894,0,0,0-1.22.537A1.081,1.081,0,0,1,39.544,42.116Zm.94-.547h0Zm-1.879,0h0ZM34.344,26.9c.724,1.1,1.259,3.363-.005,8-.557,2.046.881,3.031,3.915,4.232.508.2.938.372,1.29.555.352-.183.782-.354,1.29-.555,3.034-1.2,4.472-2.186,3.915-4.232-1.264-4.64-.73-6.906-.006-8l-.193-.208a4.281,4.281,0,0,1-2.462.33,4.853,4.853,0,0,1-2.545-1,4.85,4.85,0,0,1-2.545,1,4.283,4.283,0,0,1-2.462-.33ZM46.6,27.974h0Zm0,0h0Zm0,0h0Zm0,0h0Z" transform="translate(-31.745 -23.276)"/></g><g class="o" transform="translate(1.004 1.004)"><path class="b" d="M39.967,42.461h0a1,1,0,0,1-.812-.414,9.429,9.429,0,0,0-1.246-.552,12.758,12.758,0,0,1-3.721-2,4.381,4.381,0,0,1-1.438-4.719c1.431-5.252.2-6.449.186-6.454a1,1,0,0,1-.423-1.637l1.52-1.639a.989.989,0,0,1,.7-.332.953.953,0,0,1,.71.272,2.153,2.153,0,0,0,1.659.4c1.352-.208,1.581-.532,1.927-1.022.041-.058.082-.116.124-.174a1,1,0,0,1,1.623,0c.042.058.083.116.124.174.346.49.575.814,1.927,1.022a2.158,2.158,0,0,0,1.654-.391,1,1,0,0,1,1.417.055l1.521,1.639a1,1,0,0,1-.343,1.606c-.105.084-1.332,1.207.105,6.484A4.381,4.381,0,0,1,45.746,39.5a12.757,12.757,0,0,1-3.721,2,9.448,9.448,0,0,0-1.246.552A1,1,0,0,1,39.967,42.461Zm.872-.508h0Zm-1.745,0h0Zm-4.424-14.64c.729,1.056,1.3,3.294.017,7.992-.628,2.3,1.333,3.283,3.961,4.324a13.671,13.671,0,0,1,1.318.57,13.688,13.688,0,0,1,1.318-.57c2.628-1.041,4.589-2.02,3.961-4.324-1.28-4.7-.713-6.935.017-7.992l-.271-.292a4.2,4.2,0,0,1-2.469.347,4.7,4.7,0,0,1-2.557-1.025,4.7,4.7,0,0,1-2.556,1.025,4.206,4.206,0,0,1-2.469-.347ZM47,28.323h0Zm0,0h0Zm0,0h0Z" transform="translate(-32.245 -23.776)"/></g><g class="p" transform="translate(1.015 1.081)"><path class="b" d="M40.031,42.807h0a.926.926,0,0,1-.757-.392A8.923,8.923,0,0,0,38,41.847c-2.182-.864-6.244-2.473-5.113-6.626,1.4-5.144.283-6.387.09-6.555a.805.805,0,0,1-.618-.581.931.931,0,0,1,.274-.922l1.521-1.639a.926.926,0,0,1,1.308-.05,2.224,2.224,0,0,0,1.718.41c1.385-.213,1.621-.548,1.978-1.054.041-.057.081-.115.123-.172a.926.926,0,0,1,1.5,0c.042.058.083.115.123.173.357.506.593.841,1.978,1.054a2.218,2.218,0,0,0,1.728-.419.915.915,0,0,1,1.3.059l1.521,1.639a.932.932,0,0,1,.273.922.805.805,0,0,1-.618.581c-.194.168-1.311,1.411.09,6.555,1.131,4.153-2.93,5.762-5.113,6.626a8.918,8.918,0,0,0-1.272.568A.927.927,0,0,1,40.031,42.807Zm.805-.469h0Zm-1.611,0h0ZM34.637,27.728c.734,1.013,1.336,3.22.04,7.98-.643,2.362,1.434,3.4,4.007,4.416a12.927,12.927,0,0,1,1.347.586,13,13,0,0,1,1.347-.586c2.573-1.019,4.65-2.055,4.007-4.416-1.3-4.76-.694-6.966.04-7.98l-.352-.379a4.216,4.216,0,0,1-2.474.367,4.559,4.559,0,0,1-2.568-1.054,4.557,4.557,0,0,1-2.568,1.054,4.214,4.214,0,0,1-2.474-.367Zm-1.613.945Zm14.012,0Z" transform="translate(-32.321 -24.276)"/></g><g class="q" transform="translate(1.104 1.158)"><path class="b" d="M40.518,43.152h0a.849.849,0,0,1-.7-.37,8.458,8.458,0,0,0-1.3-.585c-2.16-.855-6.179-2.447-5.066-6.534,1.273-4.675.5-6.356.055-6.647a.748.748,0,0,1-.574-.541.853.853,0,0,1,.246-.839L34.7,26a.849.849,0,0,1,1.2-.046,2.3,2.3,0,0,0,1.782.43c1.417-.218,1.674-.582,2.03-1.086.04-.057.081-.115.122-.172a.85.85,0,0,1,1.373,0c.042.057.082.115.123.172.355.5.612.867,2.029,1.085a2.283,2.283,0,0,0,1.782-.43.849.849,0,0,1,1.2.046l1.52,1.639a.853.853,0,0,1,.246.839.747.747,0,0,1-.574.541c-.442.29-1.218,1.971.056,6.647,1.113,4.087-2.907,5.679-5.067,6.534a8.455,8.455,0,0,0-1.3.585A.849.849,0,0,1,40.518,43.152Zm.738-.429h0Zm-1.477,0h0ZM35.015,28.155a3.585,3.585,0,0,1,.531,1.039c.522,1.562.368,3.889-.456,6.916-.66,2.423,1.445,3.475,4.053,4.508a12.257,12.257,0,0,1,1.375.6,12.261,12.261,0,0,1,1.375-.6c2.608-1.033,4.713-2.085,4.053-4.508-.824-3.027-.978-5.354-.456-6.916a3.591,3.591,0,0,1,.531-1.039l-.447-.481a4.066,4.066,0,0,1-2.477.388,4.416,4.416,0,0,1-2.58-1.085,4.414,4.414,0,0,1-2.58,1.085,4.066,4.066,0,0,1-2.477-.388Zm-1.479.868h0Zm13.965,0Z" transform="translate(-32.897 -24.776)"/></g><g class="r" transform="translate(1.192 1.235)"><path class="b" d="M41,43.5h0a.772.772,0,0,1-.644-.346,7.94,7.94,0,0,0-1.328-.6c-2.137-.847-6.116-2.422-5.021-6.442,1.3-4.776.471-6.463.011-6.739a.69.69,0,0,1-.521-.5.774.774,0,0,1,.219-.757l1.521-1.639a.772.772,0,0,1,1.09-.042,2.366,2.366,0,0,0,1.847.45c1.449-.223,1.714-.6,2.081-1.118l.122-.171a.772.772,0,0,1,1.248,0c.042.057.082.114.122.171.366.519.631.894,2.081,1.117a2.367,2.367,0,0,0,1.847-.45.772.772,0,0,1,1.09.042l1.52,1.639a.774.774,0,0,1,.219.757.689.689,0,0,1-.521.5c-.459.277-1.289,1.963.011,6.739,1.095,4.02-2.883,5.6-5.02,6.442a7.946,7.946,0,0,0-1.329.6A.772.772,0,0,1,41,43.5Zm.671-.39h0Zm-1.342,0h0ZM35.394,28.573a3.459,3.459,0,0,1,.558,1.068c.517,1.548.363,3.859-.457,6.872-.677,2.485,1.456,3.554,4.1,4.6a11.5,11.5,0,0,1,1.4.62,11.532,11.532,0,0,1,1.4-.62c2.643-1.047,4.776-2.116,4.1-4.6-.82-3.012-.974-5.324-.457-6.872a3.466,3.466,0,0,1,.558-1.068L46.072,28a3.99,3.99,0,0,1-2.482.407A4.228,4.228,0,0,1,41,27.294a4.226,4.226,0,0,1-2.592,1.114A3.99,3.99,0,0,1,35.924,28Zm-1.354.8Zm13.917,0Z" transform="translate(-33.464 -25.276)"/></g><g class="s" transform="translate(1.313 1.313)"><path class="b" d="M41.658,43.844h0a.7.7,0,0,1-.585-.32,7.462,7.462,0,0,0-1.359-.623c-2.115-.838-6.051-2.4-4.974-6.35,1.579-5.8,0-6.823-.016-6.829a.695.695,0,0,1-.293-1.133l1.52-1.639a.7.7,0,0,1,.981-.038,2.442,2.442,0,0,0,1.911.469c1.482-.228,1.755-.615,2.132-1.149.04-.057.08-.113.121-.17a.695.695,0,0,1,1.124,0c.041.057.081.113.121.17.377.535.65.921,2.132,1.149a2.449,2.449,0,0,0,1.911-.469.7.7,0,0,1,.981.038l1.521,1.639a.7.7,0,0,1,.193.677.629.629,0,0,1-.468.452c-.477.264-1.361,1.958-.034,6.832,1.077,3.953-2.86,5.512-4.975,6.35a7.485,7.485,0,0,0-1.359.623A.7.7,0,0,1,41.658,43.844Zm.6-.351h0Zm-1.208,0h0Zm-5.1-14.5a3.343,3.343,0,0,1,.587,1.1c.512,1.533.358,3.83-.459,6.827-.694,2.547,1.467,3.632,4.145,4.693a10.826,10.826,0,0,1,1.432.637,10.847,10.847,0,0,1,1.432-.637c2.678-1.061,4.839-2.146,4.145-4.693-.816-3-.971-5.294-.458-6.827a3.335,3.335,0,0,1,.587-1.1l-.616-.664a3.913,3.913,0,0,1-2.487.426,4.09,4.09,0,0,1-2.6-1.151,4.09,4.09,0,0,1-2.6,1.151,3.911,3.911,0,0,1-2.487-.426Zm12.64.729Z" transform="translate(-34.245 -25.776)"/></g><g class="t" transform="translate(1.39 1.39)"><path class="b" d="M42.081,44.189h0a.618.618,0,0,1-.525-.293,7,7,0,0,0-1.39-.645c-2.092-.829-5.987-2.371-4.928-6.258,1.624-5.963-.048-6.916-.066-6.922a.618.618,0,0,1-.26-1.007l1.52-1.639a.618.618,0,0,1,.872-.034,2.51,2.51,0,0,0,1.975.489c1.514-.233,1.81-.652,2.184-1.181.04-.056.079-.113.12-.169a.618.618,0,0,1,1,0c.041.056.081.113.121.169.374.53.669.948,2.183,1.181a2.536,2.536,0,0,0,1.975-.489.618.618,0,0,1,.872.034l1.521,1.639a.618.618,0,0,1,.168.6.566.566,0,0,1-.412.406c-.158.093-1.656,1.151-.083,6.926,1.059,3.887-2.836,5.429-4.928,6.258a6.975,6.975,0,0,0-1.39.645A.618.618,0,0,1,42.081,44.189Zm.537-.312h0Zm-1.074,0h0ZM36.272,29.412c.723.821,1.527,2.877.157,7.905-.709,2.6,1.578,3.749,4.191,4.785a10.155,10.155,0,0,1,1.461.656,10.171,10.171,0,0,1,1.461-.656c2.614-1.035,4.9-2.18,4.191-4.785-1.369-5.028-.565-7.084.157-7.905l-.7-.758A3.829,3.829,0,0,1,44.7,29.1a3.959,3.959,0,0,1-2.615-1.19,3.958,3.958,0,0,1-2.615,1.19,3.832,3.832,0,0,1-2.491-.446Zm12.719.658Z" transform="translate(-34.746 -26.276)"/></g><g class="u" transform="translate(1.447 1.467)"><path class="b" d="M42.4,44.535h0a.541.541,0,0,1-.464-.264,6.5,6.5,0,0,0-1.423-.669c-2.215-.877-5.923-2.346-4.882-6.166,1.611-5.914.013-6.941-.129-7.019a.5.5,0,0,1-.359-.358.54.54,0,0,1,.144-.52L36.8,27.9a.541.541,0,0,1,.763-.029,2.586,2.586,0,0,0,2.039.508c1.547-.238,1.85-.668,2.235-1.213l.12-.168a.54.54,0,0,1,.874,0c.041.056.081.112.12.168.384.544.688.975,2.234,1.213a2.624,2.624,0,0,0,2.039-.508.54.54,0,0,1,.763.029l1.521,1.639a.54.54,0,0,1,.144.52.5.5,0,0,1-.359.358c-.143.078-1.74,1.1-.129,7.019,1.04,3.82-2.667,5.288-4.882,6.166a6.5,6.5,0,0,0-1.423.669A.541.541,0,0,1,42.4,44.535Zm.47-.273v0Zm-.94,0,0,0ZM36.484,29.833c.717.761,1.581,2.763.186,7.887-.726,2.666,1.59,3.828,4.237,4.877a9.5,9.5,0,0,1,1.489.675,9.512,9.512,0,0,1,1.489-.675c2.647-1.049,4.964-2.211,4.237-4.877-1.4-5.124-.531-7.126.185-7.887l-.791-.852a3.75,3.75,0,0,1-2.494.467A3.854,3.854,0,0,1,42.4,28.223a3.853,3.853,0,0,1-2.627,1.224,3.752,3.752,0,0,1-2.494-.467Zm-.974.587h0Zm13.772,0Z" transform="translate(-35.118 -26.776)"/></g><g class="v" transform="translate(1.544 1.544)"><path class="b" d="M42.925,44.882h0a.463.463,0,0,1-.4-.233,6.013,6.013,0,0,0-1.458-.7c-2.191-.868-5.858-2.32-4.836-6.074,1.688-6.2-.148-7.1-.167-7.11a.463.463,0,0,1-.2-.755l1.521-1.639a.463.463,0,0,1,.654-.025,2.659,2.659,0,0,0,2.1.528c1.579-.243,1.907-.707,2.286-1.245.039-.056.079-.111.119-.167a.463.463,0,0,1,.749,0c.041.056.08.112.12.167.379.537.707,1,2.286,1.245a2.652,2.652,0,0,0,2.1-.528.463.463,0,0,1,.654.025l1.52,1.639a.463.463,0,0,1,.121.443.435.435,0,0,1-.308.31c-.126.064-1.824,1.06-.176,7.112,1.022,3.753-2.645,5.206-4.836,6.074a5.96,5.96,0,0,0-1.459.7A.459.459,0,0,1,42.925,44.882ZM36.91,30.255c.708.7,1.641,2.635.216,7.868-.743,2.728,1.6,3.907,4.283,4.969a8.826,8.826,0,0,1,1.517.7,8.843,8.843,0,0,1,1.517-.7c2.681-1.062,5.027-2.241,4.284-4.969-1.425-5.232-.492-7.171.216-7.868l-.882-.95a3.667,3.667,0,0,1-2.5.489,3.72,3.72,0,0,1-2.639-1.27,3.719,3.719,0,0,1-2.639,1.27,3.668,3.668,0,0,1-2.5-.489Z" transform="translate(-35.745 -27.276)"/></g><g class="w" transform="translate(1.622 1.621)"><path class="b" d="M43.349,45.22a.391.391,0,0,1-.336-.189,5.519,5.519,0,0,0-1.495-.727c-2.167-.858-5.794-2.295-4.79-5.982,1.707-6.266-.2-7.2-.218-7.2a.386.386,0,0,1-.163-.63l1.521-1.639a.386.386,0,0,1,.545-.021,2.732,2.732,0,0,0,2.167.548c1.612-.248,1.948-.725,2.337-1.277.039-.055.078-.111.119-.166a.386.386,0,0,1,.624,0c.04.055.079.111.119.166.389.552.726,1.028,2.337,1.276a2.738,2.738,0,0,0,2.167-.548.386.386,0,0,1,.545.021l1.52,1.639a.386.386,0,0,1-.163.63c-.009,0-1.946.858-.218,7.2,1,3.687-2.623,5.123-4.79,5.982a5.528,5.528,0,0,0-1.495.727A.391.391,0,0,1,43.349,45.22ZM37.225,30.68c.693.626,1.707,2.49.249,7.846-.76,2.789,1.615,3.985,4.33,5.061a8.163,8.163,0,0,1,1.546.717,8.172,8.172,0,0,1,1.546-.717c2.715-1.075,5.089-2.271,4.33-5.061-1.459-5.356-.445-7.219.248-7.846L48.5,29.629a3.581,3.581,0,0,1-2.5.512,3.548,3.548,0,0,1-2.65-1.318A3.547,3.547,0,0,1,40.7,30.141a3.585,3.585,0,0,1-2.5-.512Z" transform="translate(-36.245 -27.776)"/></g><g class="x" transform="translate(1.702 1.699)"><path class="b" d="M43.79,45.571h0a.309.309,0,0,1-.268-.156,4.993,4.993,0,0,0-1.533-.76c-2.143-.849-5.73-2.269-4.744-5.889,1.754-6.441-.255-7.291-.275-7.3a.315.315,0,0,1-.194-.22.309.309,0,0,1,.071-.282l1.52-1.639a.309.309,0,0,1,.436-.017,2.8,2.8,0,0,0,2.232.567c1.644-.253,1.989-.742,2.389-1.308.039-.055.078-.11.118-.165a.309.309,0,0,1,.5,0c.04.055.079.11.118.166.4.566.745,1.055,2.389,1.308a2.8,2.8,0,0,0,2.232-.568.31.31,0,0,1,.435.018l1.521,1.639a.309.309,0,0,1-.13.5c-.014.006-2.022.856-.268,7.3.986,3.62-2.6,5.041-4.744,5.89a4.993,4.993,0,0,0-1.533.76A.309.309,0,0,1,43.79,45.571ZM37.55,31.113a2.626,2.626,0,0,1,.755,1.211c.487,1.459.331,3.681-.465,6.6-.841,3.087,2.174,4.281,4.376,5.153a7.473,7.473,0,0,1,1.574.74,7.483,7.483,0,0,1,1.574-.74c2.2-.872,5.217-2.066,4.376-5.153-.8-2.922-.952-5.144-.465-6.6a2.627,2.627,0,0,1,.755-1.211l-1.078-1.162a3.5,3.5,0,0,1-2.5.536,3.439,3.439,0,0,1-2.662-1.371,3.439,3.439,0,0,1-2.662,1.371,3.5,3.5,0,0,1-2.5-.536Z" transform="translate(-36.766 -28.276)"/></g><g transform="translate(1.778 1.781)"><path class="b" d="M44.2,45.947h0a.231.231,0,0,1-.2-.117,4.7,4.7,0,0,0-1.572-.794c-2.119-.839-5.666-2.244-4.7-5.8,1.78-6.536-.3-7.384-.322-7.392a.235.235,0,0,1-.147-.164.232.232,0,0,1,.053-.212l1.52-1.639a.232.232,0,0,1,.327-.013,2.876,2.876,0,0,0,2.3.587c1.677-.258,2.03-.759,2.44-1.34l.117-.164a.24.24,0,0,1,.375,0c.04.055.079.11.117.164.41.581.764,1.082,2.44,1.34a2.873,2.873,0,0,0,2.3-.587.232.232,0,0,1,.326.013l1.521,1.639a.232.232,0,0,1-.1.378c-.017.006-2.1.854-.319,7.391.968,3.553-2.579,4.958-4.7,5.8a4.7,4.7,0,0,0-1.572.794A.232.232,0,0,1,44.2,45.947ZM37.851,31.575c.616.473,1.859,2.169.329,7.785C37.321,42.513,40.5,43.772,42.6,44.6a6.814,6.814,0,0,1,1.6.768,6.819,6.819,0,0,1,1.6-.768c2.1-.833,5.281-2.091,4.422-5.245-1.53-5.616-.287-7.312.329-7.785L49.377,30.3a3.409,3.409,0,0,1-2.5.561A3.345,3.345,0,0,1,44.2,29.437a3.344,3.344,0,0,1-2.674,1.426,3.412,3.412,0,0,1-2.5-.561Z" transform="translate(-37.257 -28.811)"/></g><g transform="translate(1.869 1.872)"><path class="y" d="M44.705,46.35h0a.139.139,0,0,1-.121-.07,4.353,4.353,0,0,0-1.618-.834c-2.226-.882-5.589-2.214-4.643-5.687,1.812-6.651-.358-7.5-.381-7.5a.14.14,0,0,1-.057-.226l1.521-1.639a.139.139,0,0,1,.2-.008,3.014,3.014,0,0,0,2.373.61,3,3,0,0,0,2.5-1.378c.038-.054.077-.109.116-.163a.144.144,0,0,1,.225,0c.04.055.078.109.117.163a3,3,0,0,0,2.5,1.378,3.022,3.022,0,0,0,2.373-.61.14.14,0,0,1,.2.008l1.52,1.639a.139.139,0,0,1-.059.227c-.021.007-2.19.852-.379,7.5.946,3.474-2.417,4.805-4.643,5.687a4.353,4.353,0,0,0-1.618.834A.139.139,0,0,1,44.705,46.35ZM38.213,32.084c.542.348,1.98,1.866.378,7.747-.881,3.234,2.343,4.51,4.477,5.355a5.887,5.887,0,0,1,1.637.8,5.89,5.89,0,0,1,1.637-.8c2.133-.845,5.358-2.122,4.477-5.355-1.6-5.881-.164-7.4.378-7.747L49.89,30.675a3.3,3.3,0,0,1-2.5.593,3.258,3.258,0,0,1-2.686-1.492l0,0,0,0a3.258,3.258,0,0,1-2.687,1.493,3.3,3.3,0,0,1-2.5-.593Z" transform="translate(-37.849 -29.397)"/></g><g transform="translate(1.961 1.962)"><path class="z" d="M45.21,46.753h0a.046.046,0,0,1-.04-.023,4.167,4.167,0,0,0-1.665-.875c-2.195-.869-5.512-2.183-4.587-5.576,1.843-6.766-.417-7.608-.44-7.616a.047.047,0,0,1-.03-.032.046.046,0,0,1,.011-.043l1.52-1.639a.046.046,0,0,1,.065,0,3.112,3.112,0,0,0,2.45.634,3.073,3.073,0,0,0,2.563-1.416c.038-.054.076-.108.116-.162a.048.048,0,0,1,.075,0c.04.054.078.108.116.162a3.073,3.073,0,0,0,2.563,1.416,3.115,3.115,0,0,0,2.45-.634.046.046,0,0,1,.065,0l1.521,1.639a.046.046,0,0,1-.019.075c-.023.008-2.282.85-.44,7.616.925,3.393-2.393,4.707-4.588,5.576a4.163,4.163,0,0,0-1.665.875A.046.046,0,0,1,45.21,46.753ZM38.571,32.6c.378.182,2.152,1.4.436,7.7-.9,3.314,2.368,4.609,4.532,5.466a4.871,4.871,0,0,1,1.671.856,4.872,4.872,0,0,1,1.671-.856c2.164-.857,5.435-2.152,4.532-5.466-1.716-6.3.057-7.519.435-7.7L50.4,31.044a3.229,3.229,0,0,1-2.491.627,3.15,3.15,0,0,1-2.625-1.454l-.078-.109-.077.109c-.428.606-.832,1.178-2.625,1.454a3.23,3.23,0,0,1-2.491-.627Z" transform="translate(-38.446 -29.984)"/></g></g><path class="aa" d="M12.585.735,5.66,7.66A2.1,2.1,0,0,0,3.622,8,2.123,2.123,0,0,0,2.4,7.784a2.231,2.231,0,0,0-1.06.451A2.706,2.706,0,0,0,.3,9.8,2.642,2.642,0,0,0,.68,11.851l.223.329-.591.591a1.068,1.068,0,0,0,1.51,1.51l3.125-3.125a2.47,2.47,0,0,0,2.16.609l.456-.091L7.22,11.36s-.263-.24-.541-.5a2.1,2.1,0,0,0,.255-1.929l6.925-6.925A2.491,2.491,0,0,0,14.594.235V0h-.235a2.491,2.491,0,0,0-1.774.735ZM1.855,11.066a1.242,1.242,0,0,1-.207-.7,1.2,1.2,0,0,1,.479-.958l.117-.088a.709.709,0,0,1,.424-.141h0a.717.717,0,0,1,.5.209l.262.262L1.92,11.164ZM3.766,9.984l.844.844L2.118,13.32l-.844-.844Zm-2.7,4.139A.6.6,0,0,1,.645,13.1l.3-.3.844.844-.3.3A.593.593,0,0,1,1.067,14.123ZM5.2,10.754l-1.7-1.7a1.19,1.19,0,0,0-.835-.346h0a1.184,1.184,0,0,0-.706.235l-.117.088a1.7,1.7,0,0,0-.382,2.3l.118.177-.338.338-.171-.253A2.175,2.175,0,0,1,.758,9.905a2.248,2.248,0,0,1,.873-1.3,1.748,1.748,0,0,1,.824-.352,1.652,1.652,0,0,1,1.38.471L5.718,10.6c.144.144.5.473.782.734A2,2,0,0,1,5.2,10.754Zm.849-.483L4.169,8.389c-.041-.041-.085-.078-.129-.115a1.646,1.646,0,0,1,2.29,2.264C6.212,10.428,6.111,10.332,6.051,10.272Zm7.475-8.6L6.713,8.49A2.136,2.136,0,0,0,6.1,7.881l6.813-6.813a2.023,2.023,0,0,1,1.19-.582,2.023,2.023,0,0,1-.582,1.19Z" transform="translate(3.053 1.63) rotate(7)"/></svg>