<svg width="224" height="224" viewBox="0 0 224 224" fill="none" xmlns="http://www.w3.org/2000/svg">
<g clip-path="url(#clip0_1447_6446)">
<path d="M191.188 32.812C175.527 17.1515 155.575 6.4865 133.853 2.16575C112.131 -2.155 89.6158 0.0625436 69.1543 8.53796C48.6929 17.0134 31.2041 31.366 18.8997 49.7808C6.59529 68.1957 0.027832 89.8457 0.027832 111.993C0.027832 134.14 6.59529 155.79 18.8997 174.205C31.2041 192.62 48.6929 206.973 69.1543 215.448C89.6158 223.924 112.131 226.141 133.853 221.82C155.575 217.5 175.527 206.835 191.188 191.174C201.593 180.78 209.847 168.436 215.479 154.85C221.11 141.264 224.009 126.7 224.009 111.993C224.009 97.2857 221.11 82.7225 215.479 69.1361C209.847 55.5497 201.593 43.2065 191.188 32.812ZM186.515 175.203C181.344 170.56 175.753 166.406 169.814 162.797C173.84 148.564 176.107 133.892 176.564 119.108H209.489C208.048 139.795 200.005 159.472 186.543 175.245L186.515 175.203ZM14.5674 119.066H47.4776C47.9312 133.864 50.1983 148.551 54.2281 162.797C48.2801 166.401 42.6797 170.549 37.4993 175.189C24.054 159.439 16.0118 139.794 14.5534 119.136L14.5674 119.066ZM37.4993 48.783C42.6797 53.4229 48.2801 57.5715 54.2281 61.1752C50.2017 75.4076 47.9347 90.0798 47.4776 104.864H14.5534C16.0059 84.1968 24.0484 64.5406 37.4993 48.783V48.783ZM104.864 62.6488C93.364 61.8417 82.1007 58.9902 71.6024 54.2282C77.6512 38.6503 88.8084 19.9567 104.864 15.3254V62.6488ZM104.864 76.9496V104.878H61.7504C62.1752 92.3832 63.9921 79.9752 67.1676 67.8835C79.1062 73.0841 91.8652 76.148 104.864 76.9356V76.9496ZM104.864 119.136V147.065C91.8588 147.859 79.0948 150.933 67.1536 156.145C63.9818 144.048 62.1695 131.635 61.7504 119.136H104.864ZM104.864 161.351V208.675C88.8084 204.043 77.6512 185.364 71.6024 169.772C82.1034 165.024 93.3666 162.187 104.864 161.393V161.351ZM119.136 161.351C130.636 162.158 141.899 165.01 152.397 169.772C146.349 185.35 135.191 204.043 119.136 208.675V161.351ZM119.136 147.05V119.136H162.249C161.825 131.631 160.008 144.039 156.832 156.131C144.895 150.92 132.136 147.847 119.136 147.05V147.05ZM119.136 104.864V76.9356C132.141 76.1407 144.905 73.0673 156.846 67.8554C160.022 79.9471 161.839 92.3552 162.263 104.85L119.136 104.864ZM119.136 62.6488V15.3114C135.191 19.9427 146.349 38.6222 152.397 54.2142C141.899 58.9759 130.636 61.8274 119.136 62.6347V62.6488ZM151.19 22.4548C160.395 26.5012 168.917 31.9504 176.452 38.6082C172.844 41.7909 169.007 44.7038 164.972 47.3234C161.5 38.4599 156.866 30.0971 151.19 22.4548V22.4548ZM58.9436 47.3094C54.9084 44.6897 51.0714 41.7767 47.4636 38.5941C55.0252 31.934 63.5758 26.4893 72.8094 22.4548C67.1061 30.0883 62.4432 38.4465 58.9436 47.3094V47.3094ZM58.9436 176.691C62.4243 185.556 67.0682 193.918 72.7532 201.559C63.5484 197.513 55.0267 192.064 47.4917 185.406C51.0904 182.224 54.918 179.311 58.9436 176.691V176.691ZM164.958 176.691C168.993 179.31 172.83 182.223 176.438 185.406C168.903 192.064 160.381 197.513 151.176 201.559C156.862 193.919 161.505 185.556 164.986 176.691H164.958ZM176.48 104.864C176.052 90.0785 173.813 75.4016 169.814 61.1611C175.762 57.5574 181.362 53.4089 186.543 48.7689C200.005 64.5417 208.048 84.2193 209.489 104.906L176.48 104.864Z" fill="#5E75E8"/>
</g>
<defs>
<clipPath id="clip0_1447_6446">
<rect width="224" height="224" fill="white"/>
</clipPath>
</defs>
</svg>
