<svg xmlns="http://www.w3.org/2000/svg" width="15.961" height="15.961" viewBox="0 0 15.961 15.961"><defs><style>.a{fill:#03fcf5;}</style></defs><path class="a" d="M13.623,2.338a7.979,7.979,0,1,0,0,11.284A7.975,7.975,0,0,0,13.623,2.338Zm-.333,10.146A8,8,0,0,0,12.1,11.6a12.9,12.9,0,0,0,.481-3.113h2.346a6.9,6.9,0,0,1-1.635,4Zm-12.252-4H3.383A12.9,12.9,0,0,0,3.864,11.6a8,8,0,0,0-1.192.883A6.9,6.9,0,0,1,1.037,8.489ZM2.672,3.476a8,8,0,0,0,1.192.883,12.9,12.9,0,0,0-.481,3.113H1.037A6.9,6.9,0,0,1,2.672,3.476Zm4.8.988a6.908,6.908,0,0,1-2.37-.6c.431-1.11,1.226-2.442,2.37-2.772Zm0,1.019v1.99H4.4a11.98,11.98,0,0,1,.386-2.636A7.926,7.926,0,0,0,7.472,5.482Zm0,3.006v1.99a7.926,7.926,0,0,0-2.687.647A11.98,11.98,0,0,1,4.4,8.489Zm0,3.008v3.372c-1.144-.33-1.939-1.661-2.37-2.772A6.908,6.908,0,0,1,7.472,11.5Zm1.017,0a6.908,6.908,0,0,1,2.37.6c-.431,1.11-1.226,2.442-2.37,2.772Zm0-1.019V8.489h3.072a11.98,11.98,0,0,1-.386,2.636A7.926,7.926,0,0,0,8.489,10.478Zm0-3.006V5.482a7.926,7.926,0,0,0,2.687-.647,11.98,11.98,0,0,1,.386,2.636Zm0-3.008V1.091c1.144.33,1.939,1.661,2.37,2.772A6.909,6.909,0,0,1,8.489,4.463ZM10.773,1.6a6.931,6.931,0,0,1,1.8,1.151,6.988,6.988,0,0,1-.818.621A7.655,7.655,0,0,0,10.773,1.6ZM4.2,3.371a6.991,6.991,0,0,1-.818-.621A6.931,6.931,0,0,1,5.188,1.6,7.658,7.658,0,0,0,4.2,3.371Zm0,9.219a7.656,7.656,0,0,0,.984,1.772,6.931,6.931,0,0,1-1.8-1.151A6.988,6.988,0,0,1,4.2,12.59Zm7.554,0a6.991,6.991,0,0,1,.818.621,6.931,6.931,0,0,1-1.8,1.151,7.655,7.655,0,0,0,.984-1.772Zm.821-5.118A12.9,12.9,0,0,0,12.1,4.358a8,8,0,0,0,1.192-.883,6.9,6.9,0,0,1,1.635,4Z" transform="translate(0 0)"/></svg>