<svg width="13" height="13" viewBox="0 0 13 13" fill="none" xmlns="http://www.w3.org/2000/svg">
<path d="M11.095 1.90381C10.1861 0.99477 9.02803 0.375704 7.76728 0.124899C6.50654 -0.125905 5.19974 0.00281558 4.01214 0.494785C2.82455 0.986754 1.80949 1.81987 1.09533 2.88879C0.381179 3.95771 0 5.21442 0 6.5C0 7.78558 0.381179 9.04229 1.09533 10.1112C1.80949 11.1801 2.82455 12.0132 4.01214 12.5052C5.19974 12.9972 6.50654 13.1259 7.76728 12.8751C9.02803 12.6243 10.1861 12.0052 11.095 11.0962C11.699 10.4928 12.178 9.77634 12.5049 8.9877C12.8318 8.19905 13 7.35371 13 6.5C13 5.64629 12.8318 4.80095 12.5049 4.0123C12.178 3.22366 11.699 2.50717 11.095 1.90381ZM10.8238 10.1691C10.5237 9.8996 10.1992 9.65852 9.85448 9.44899C10.0882 8.62285 10.2198 7.77118 10.2463 6.91302H12.1572C12.0736 8.1138 11.6068 9.25602 10.8254 10.1716L10.8238 10.1691ZM0.843886 6.91058H2.75401C2.78034 7.76955 2.91193 8.62206 3.14581 9.44899C2.80059 9.65817 2.47554 9.89898 2.17487 10.1683C1.39449 9.25408 0.927719 8.11372 0.843071 6.91465L0.843886 6.91058ZM2.17487 2.83087C2.47554 3.1002 2.80059 3.34101 3.14581 3.5502C2.91212 4.37634 2.78054 5.22801 2.75401 6.08616H0.843071C0.927378 4.88652 1.39417 3.74555 2.17487 2.83087V2.83087ZM6.08473 3.63573C5.41729 3.58889 4.76356 3.42337 4.15423 3.14695C4.50531 2.2427 5.15288 1.1576 6.08473 0.888773V3.63573ZM6.08473 4.46585V6.08698H3.58242C3.60707 5.36172 3.71252 4.64147 3.89683 3.93959C4.58976 4.24147 5.3303 4.41932 6.08473 4.46503V4.46585ZM6.08473 6.91465V8.53578C5.32992 8.58192 4.58909 8.76032 3.89602 9.06285C3.71193 8.36068 3.60674 7.64015 3.58242 6.91465H6.08473ZM6.08473 9.36508V12.112C5.15288 11.8432 4.50531 10.7589 4.15423 9.85386C4.76371 9.57829 5.41744 9.4136 6.08473 9.36753V9.36508ZM6.91313 9.36508C7.58056 9.41193 8.2343 9.57745 8.84362 9.85386C8.49255 10.7581 7.84498 11.8432 6.91313 12.112V9.36508ZM6.91313 8.53497V6.91465H9.41544C9.39078 7.63991 9.28533 8.36016 9.10102 9.06204C8.4082 8.7596 7.66765 8.5812 6.91313 8.53497V8.53497ZM6.91313 6.08616V4.46503C7.66793 4.41889 8.40876 4.24049 9.10183 3.93796C9.28614 4.63984 9.3916 5.36009 9.41625 6.08535L6.91313 6.08616ZM6.91313 3.63573V0.887958C7.84498 1.15679 8.49255 2.24107 8.84362 3.14613C8.23429 3.42254 7.58056 3.58805 6.91313 3.63492V3.63573ZM8.77357 1.30261C9.30782 1.53749 9.80243 1.8538 10.2398 2.24026C10.0304 2.425 9.80767 2.59409 9.57346 2.74615C9.37195 2.23165 9.10297 1.74622 8.77357 1.30261V1.30261ZM3.4195 2.74533C3.1853 2.59327 2.9626 2.42418 2.7532 2.23944C3.19208 1.85285 3.68836 1.5368 4.22428 1.30261C3.89326 1.74571 3.62263 2.23087 3.4195 2.74533V2.74533ZM3.4195 10.2555C3.62153 10.7701 3.89106 11.2555 4.22103 11.699C3.68677 11.4641 3.19217 11.1478 2.75483 10.7614C2.9637 10.5767 3.18586 10.4076 3.4195 10.2555V10.2555ZM9.57264 10.2555C9.80685 10.4075 10.0295 10.5766 10.2389 10.7614C9.80161 11.1478 9.307 11.4641 8.77275 11.699C9.10272 11.2555 9.37226 10.7701 9.57427 10.2555H9.57264ZM10.2414 6.08616C10.2165 5.22794 10.0866 4.37599 9.85448 3.54938C10.1997 3.3402 10.5248 3.09939 10.8254 2.83006C11.6068 3.74561 12.0736 4.88783 12.1572 6.08861L10.2414 6.08616Z" fill="#FF8293"/>
</svg>
