<svg xmlns="http://www.w3.org/2000/svg" width="20.192" height="23.863" viewBox="0 0 20.192 23.863"><defs><style>.a{opacity:0;}.b{fill:#0070ff;}.c{opacity:0.001;}.d{opacity:0.002;}.e{opacity:0.003;}.f{opacity:0.004;}.g{opacity:0.006;}.h{opacity:0.008;}.i{opacity:0.01;}.j{opacity:0.013;}.k{opacity:0.016;}.l{opacity:0.019;}.m{opacity:0.023;}.n{opacity:0.028;}.o{opacity:0.032;}.p{opacity:0.038;}.q{opacity:0.044;}.r{opacity:0.051;}.s{opacity:0.059;}.t{opacity:0.068;}.u{opacity:0.079;}.v{opacity:0.093;}.w{opacity:0.113;}.x{opacity:0.177;}.y{fill:#ddecff;}.z{fill:#fff;}.aa{fill:#5dffcd;}.ab{fill:#151515;}</style></defs><g transform="translate(0 0)"><g transform="translate(0)"><g class="a"><path class="b" d="M35.789,41.1h0a2.311,2.311,0,0,1-1.683-.728c-.247-.123-.737-.317-1.111-.465a15.838,15.838,0,0,1-4.615-2.5,6.208,6.208,0,0,1-2.012-6.608c1.188-4.36.656-5.917.5-6.241A2.311,2.311,0,0,1,26.362,21l1.75-1.886a2.238,2.238,0,0,1,1.629-.8h0a2.112,2.112,0,0,1,1.6.648,1.384,1.384,0,0,0,.974.188c1.071-.165,1.159-.289,1.45-.7.05-.071.1-.142.152-.213a2.311,2.311,0,0,1,3.736,0c.052.071.1.143.153.214.291.412.378.536,1.45.7a1.484,1.484,0,0,0,.944-.156,2.311,2.311,0,0,1,3.262.125L45.215,21a2.311,2.311,0,0,1-.506,3.554c-.154.324-.686,1.881.5,6.241A6.208,6.208,0,0,1,43.2,37.4a15.842,15.842,0,0,1-4.615,2.5c-.374.148-.864.342-1.111.465A2.312,2.312,0,0,1,35.789,41.1ZM31.471,23.753c.524,2.034.312,4.742-.645,8.254-.351,1.29.124,2.116,3.87,3.6.388.154.754.3,1.092.45.338-.151.7-.3,1.092-.45,3.746-1.484,4.222-2.31,3.87-3.6-.956-3.512-1.169-6.22-.645-8.254a6.133,6.133,0,0,1-1.551-.044,7.65,7.65,0,0,1-2.767-.9,7.647,7.647,0,0,1-2.767.9A6.14,6.14,0,0,1,31.471,23.753Zm-.1-4.768Z" transform="translate(-25.745 -17.276)"/></g><g class="c" transform="translate(0.089 0.089)"><path class="b" d="M36.2,41.418h0a2.222,2.222,0,0,1-1.629-.711c-.247-.124-.75-.324-1.132-.475a15.762,15.762,0,0,1-4.59-2.487,6.124,6.124,0,0,1-1.985-6.518c1.218-4.474.639-6.023.482-6.328a2.222,2.222,0,0,1-.509-3.43l1.75-1.886a2.154,2.154,0,0,1,1.568-.77h0a2.041,2.041,0,0,1,1.54.621,1.462,1.462,0,0,0,1.045.207c1.109-.171,1.21-.314,1.509-.737.05-.071.1-.142.152-.212a2.222,2.222,0,0,1,3.593,0c.052.071.1.142.152.213.3.424.4.567,1.509.737a1.514,1.514,0,0,0,1.018-.179,2.222,2.222,0,0,1,3.137.121l1.75,1.886a2.222,2.222,0,0,1-.508,3.43c-.156.305-.736,1.854.483,6.328a6.123,6.123,0,0,1-1.985,6.518,15.765,15.765,0,0,1-4.59,2.487c-.382.151-.885.351-1.132.475A2.222,2.222,0,0,1,36.2,41.418ZM31.763,24.061c.562,2.032.361,4.764-.611,8.333-.41,1.507.469,2.338,3.923,3.706.408.161.783.31,1.125.463.342-.153.717-.3,1.125-.463,3.454-1.368,4.334-2.2,3.923-3.706-.972-3.569-1.173-6.3-.611-8.333a6.021,6.021,0,0,1-1.656-.029,7.484,7.484,0,0,1-2.781-.916,7.483,7.483,0,0,1-2.781.916A6.02,6.02,0,0,1,31.763,24.061Zm-3.99,1.029h0Zm16.853,0h0Zm0,0h0Zm-16.857,0h0Zm3.954-5.628Z" transform="translate(-26.245 -17.776)"/></g><g class="d" transform="translate(0.178 0.178)"><path class="b" d="M36.611,41.74h0a2.133,2.133,0,0,1-1.575-.694c-.247-.126-.762-.331-1.154-.486a15.685,15.685,0,0,1-4.564-2.472,5.967,5.967,0,0,1-1.957-6.427c1.251-4.592.62-6.13.463-6.416a2.133,2.133,0,0,1-.509-3.305l1.75-1.886a2.071,2.071,0,0,1,1.5-.736,1.991,1.991,0,0,1,1.484.595,1.54,1.54,0,0,0,1.116.227c1.146-.177,1.261-.339,1.568-.774.05-.07.1-.141.151-.211a2.133,2.133,0,0,1,3.449,0c.052.071.1.141.151.212.307.435.422.6,1.568.774a1.584,1.584,0,0,0,1.092-.2,2.133,2.133,0,0,1,3.011.116l1.75,1.886a2.133,2.133,0,0,1-.509,3.305c-.157.286-.788,1.824.463,6.416A5.967,5.967,0,0,1,43.9,38.088,15.7,15.7,0,0,1,39.34,40.56c-.391.155-.907.359-1.154.485A2.133,2.133,0,0,1,36.611,41.74Zm-4.56-17.374c.594,2.008.4,4.837-.574,8.416-.426,1.566.465,2.421,3.976,3.812.421.167.808.32,1.158.478.35-.159.737-.312,1.158-.478,3.511-1.391,4.4-2.246,3.976-3.812-.975-3.579-1.167-6.408-.574-8.416a5.921,5.921,0,0,1-1.766-.011,7.319,7.319,0,0,1-2.794-.933,7.317,7.317,0,0,1-2.794.933A5.92,5.92,0,0,1,32.051,24.366Zm-3.841,1.05h0Zm16.8,0h0Zm-16.805,0h0Zm16.809,0h0Zm0,0h0Zm-16.815,0h0Z" transform="translate(-26.745 -18.276)"/></g><g class="e" transform="translate(0.267 0.267)"><path class="b" d="M37.022,42.062h0a2.044,2.044,0,0,1-1.52-.677c-.246-.128-.775-.338-1.176-.5a15.619,15.619,0,0,1-4.539-2.456,5.883,5.883,0,0,1-1.93-6.337c1.284-4.714.6-6.239.441-6.505a2.044,2.044,0,0,1-.508-3.179l1.75-1.886a1.988,1.988,0,0,1,1.44-.7h.013a1.892,1.892,0,0,1,1.412.569,1.622,1.622,0,0,0,1.187.246c1.184-.182,1.3-.353,1.627-.811.049-.07.1-.14.15-.21a2.044,2.044,0,0,1,3.305,0c.051.07.1.14.15.211.323.457.443.628,1.627.81a1.693,1.693,0,0,0,1.166-.224,2.044,2.044,0,0,1,2.886.111l1.75,1.886a2.044,2.044,0,0,1-.508,3.179c-.158.266-.843,1.791.441,6.505a5.883,5.883,0,0,1-1.93,6.337,15.616,15.616,0,0,1-4.539,2.456c-.4.159-.93.368-1.176.5A2.045,2.045,0,0,1,37.022,42.062ZM32.335,24.667c.639,2,.46,4.858-.533,8.5-.443,1.626.461,2.5,4.029,3.918.435.172.833.33,1.19.494.358-.164.756-.321,1.191-.494,3.568-1.413,4.472-2.292,4.029-3.918-.993-3.644-1.172-6.5-.533-8.5a5.816,5.816,0,0,1-1.879.012,7.152,7.152,0,0,1-2.808-.952,7.151,7.151,0,0,1-2.808.952A5.816,5.816,0,0,1,32.335,24.667Zm-3.684,1.076h0Zm16.742,0h0Zm0,0h0Zm-16.745,0h0Zm16.747,0h0Zm-16.749,0h0Zm16.75,0h0ZM32.427,20.414Z" transform="translate(-27.245 -18.776)"/></g><g class="f" transform="translate(0.356 0.356)"><path class="b" d="M37.434,42.384h0a1.956,1.956,0,0,1-1.464-.66c-.245-.13-.789-.345-1.2-.508a15.548,15.548,0,0,1-4.513-2.441,5.8,5.8,0,0,1-1.9-6.246c1.318-4.841.575-6.349.418-6.6a1.955,1.955,0,0,1-.506-3.051L30.018,21a1.9,1.9,0,0,1,1.376-.668,1.806,1.806,0,0,1,1.365.542,1.7,1.7,0,0,0,1.259.267c1.221-.188,1.357-.381,1.686-.847.049-.069.1-.139.149-.209a1.955,1.955,0,0,1,3.162,0c.051.07.1.14.15.21.329.466.465.659,1.686.847a1.752,1.752,0,0,0,1.239-.247A1.955,1.955,0,0,1,44.85,21l1.75,1.886a1.955,1.955,0,0,1-.505,3.051c-.158.247-.9,1.755.418,6.6a5.8,5.8,0,0,1-1.9,6.246A15.547,15.547,0,0,1,40.1,41.217c-.41.162-.953.378-1.2.508A1.956,1.956,0,0,1,37.434,42.384Zm-4.819-17.42.022.065c.663,1.985.492,4.854-.509,8.528-.453,1.665.5,2.605,4.082,4.024.449.178.858.34,1.223.509.366-.169.774-.331,1.223-.509,3.582-1.419,4.536-2.359,4.082-4.024-1-3.674-1.172-6.543-.509-8.528l.022-.065a5.71,5.71,0,0,1-2,.038,6.99,6.99,0,0,1-2.821-.962A6.989,6.989,0,0,1,34.612,25,5.721,5.721,0,0,1,32.615,24.964ZM29.089,26.07h0Zm16.69,0h0Zm-16.694,0h0Zm16.7,0h0Zm0,0h0Zm-16.7,0h0Z" transform="translate(-27.745 -19.276)"/></g><g class="g" transform="translate(0.445 0.444)"><path class="b" d="M37.845,42.707h0a1.867,1.867,0,0,1-1.408-.642c-.244-.132-.8-.353-1.222-.519a15.48,15.48,0,0,1-4.488-2.425,5.715,5.715,0,0,1-1.875-6.156c1.354-4.97.549-6.46.392-6.688a1.866,1.866,0,0,1-.5-2.922l1.75-1.886a1.82,1.82,0,0,1,1.312-.635h.02a1.742,1.742,0,0,1,1.285.516,1.785,1.785,0,0,0,1.331.287c1.258-.194,1.411-.41,1.745-.884.049-.069.1-.139.149-.208a1.867,1.867,0,0,1,3.018,0c.051.07.1.139.149.209.335.474.487.69,1.745.884a1.815,1.815,0,0,0,1.313-.269,1.866,1.866,0,0,1,2.635.1l1.75,1.886a1.866,1.866,0,0,1-.5,2.922c-.157.228-.961,1.717.393,6.688a5.715,5.715,0,0,1-1.875,6.156,15.474,15.474,0,0,1-4.488,2.425c-.42.166-.978.387-1.222.52A1.867,1.867,0,0,1,37.845,42.707ZM32.888,25.255c.026.069.051.141.076.214.658,1.968.486,4.82-.51,8.477-.469,1.724.5,2.689,4.135,4.13.463.184.883.35,1.256.525.373-.175.793-.341,1.256-.525,3.639-1.441,4.6-2.406,4.135-4.13-1-3.657-1.168-6.509-.511-8.477q.037-.11.076-.214a5.606,5.606,0,0,1-2.122.071,6.814,6.814,0,0,1-2.835-.982,6.816,6.816,0,0,1-2.835.982A5.606,5.606,0,0,1,32.888,25.255ZM29.529,26.4h0Zm16.631,0h0Zm0,0h0Zm-16.634,0h0Zm16.636,0h0Zm-16.638,0h0Zm16.639,0h0Zm-16.641,0h0Zm16.643,0h0ZM33.129,21.367Z" transform="translate(-28.245 -19.776)"/></g><g class="h" transform="translate(0.533 0.533)"><path class="b" d="M38.256,43.029h0a1.778,1.778,0,0,1-1.352-.623c-.243-.134-.815-.361-1.246-.532a15.408,15.408,0,0,1-4.462-2.41A5.631,5.631,0,0,1,29.349,33.4c1.39-5.1.52-6.572.366-6.78a1.778,1.778,0,0,1-.495-2.792l1.75-1.886a1.736,1.736,0,0,1,1.249-.6,1.669,1.669,0,0,1,1.244.49,1.9,1.9,0,0,0,1.4.308c1.3-.2,1.455-.425,1.8-.92.049-.069.1-.138.148-.207a1.778,1.778,0,0,1,2.874,0c.05.069.1.138.148.207.349.5.509.721,1.8.92a1.913,1.913,0,0,0,1.387-.292,1.778,1.778,0,0,1,2.51.1l1.75,1.886a1.777,1.777,0,0,1-.495,2.792c-.155.208-1.024,1.678.366,6.781a5.631,5.631,0,0,1-1.847,6.065,15.4,15.4,0,0,1-4.462,2.41c-.431.171-1,.4-1.246.532A1.778,1.778,0,0,1,38.256,43.029Zm-5.1-17.49q.072.175.137.369c.652,1.951.479,4.785-.512,8.425-.539,1.978.921,2.942,4.188,4.236.478.189.909.36,1.289.54.38-.18.811-.351,1.289-.54,3.267-1.294,4.727-2.258,4.188-4.236-.991-3.639-1.164-6.474-.512-8.425.043-.129.089-.252.137-.369a5.511,5.511,0,0,1-2.254.11,6.646,6.646,0,0,1-2.848-1,6.645,6.645,0,0,1-2.848,1A5.512,5.512,0,0,1,33.154,25.539Zm-3.187,1.184h0Zm16.579,0h0Zm0,0h0Zm-16.585,0h0Zm16.588,0h0Zm-16.591,0h0Zm16.594,0h0ZM33.479,21.843Z" transform="translate(-28.745 -20.276)"/></g><g class="i" transform="translate(0.622 0.622)"><path class="b" d="M38.667,43.351h0a1.688,1.688,0,0,1-1.294-.6c-.241-.137-.829-.37-1.27-.544a15.33,15.33,0,0,1-4.437-2.394,5.547,5.547,0,0,1-1.82-5.975c1.427-5.239.489-6.685.337-6.875A1.689,1.689,0,0,1,29.7,24.3l1.75-1.886a1.653,1.653,0,0,1,1.185-.57,1.606,1.606,0,0,1,1.184.464,1.984,1.984,0,0,0,1.476.329c1.333-.205,1.51-.456,1.863-.957.049-.069.1-.137.147-.206a1.689,1.689,0,0,1,2.73,0c.05.069.1.138.147.206.353.5.531.752,1.863.957A1.979,1.979,0,0,0,43.5,22.32a1.689,1.689,0,0,1,2.384.092l1.75,1.886a1.689,1.689,0,0,1-.486,2.661c-.152.189-1.09,1.636.337,6.875a5.547,5.547,0,0,1-1.82,5.975A15.331,15.331,0,0,1,41.232,42.2c-.441.175-1.029.408-1.27.544A1.689,1.689,0,0,1,38.667,43.351Zm1.468-.854h0ZM33.41,25.815a5.634,5.634,0,0,1,.208.532c.646,1.934.473,4.751-.513,8.374-.557,2.043.924,3.028,4.241,4.342.493.2.935.37,1.321.556.386-.186.829-.361,1.321-.556,3.317-1.314,4.8-2.3,4.241-4.342-.987-3.622-1.159-6.44-.513-8.374a5.654,5.654,0,0,1,.208-.533,5.4,5.4,0,0,1-2.4.157,6.475,6.475,0,0,1-2.862-1.025,6.474,6.474,0,0,1-2.862,1.025A5.412,5.412,0,0,1,33.41,25.815Zm-3,1.235h0Zm16.526,0-.006,0Zm-16.53,0h0Zm16.533,0h0Zm-16.535,0h0Zm16.538,0h0Zm-16.541,0h0Z" transform="translate(-29.246 -20.776)"/></g><g class="j" transform="translate(1.063 0.711)"><path class="b" d="M40.7,43.673h0a1.6,1.6,0,0,1-1.237-.585,13.723,13.723,0,0,0-1.3-.558c-2.477-.981-7.631-3.022-6.2-8.263,1.066-3.914.813-5.732.567-6.467a1.28,1.28,0,0,0-.273-.516s.016.008.026.015l.062.031.123.048.5-1.52L31.8,24.769l1.75-1.886a1.567,1.567,0,0,1,1.122-.538,1.518,1.518,0,0,1,1.123.439,2.066,2.066,0,0,0,1.548.35c1.37-.211,1.555-.472,1.922-.993.048-.068.1-.137.146-.205a1.6,1.6,0,0,1,2.587,0c.05.069.1.137.146.205.368.521.552.783,1.922.993a2.064,2.064,0,0,0,1.548-.35,1.516,1.516,0,0,1,1.124-.439,1.566,1.566,0,0,1,1.122.538l1.75,1.886a1.6,1.6,0,0,1-.476,2.528c-.149.172-1.158,1.594.306,6.97,1.428,5.241-3.726,7.282-6.2,8.263a13.845,13.845,0,0,0-1.3.558A1.6,1.6,0,0,1,40.7,43.673Zm1.391-.809h0ZM35.28,26.079a5.362,5.362,0,0,1,.292.708c.641,1.917.467,4.717-.515,8.322-.574,2.109.927,3.114,4.294,4.448.508.2.961.381,1.354.573.393-.192.846-.372,1.354-.573,3.367-1.334,4.869-2.339,4.295-4.448-.982-3.605-1.155-6.4-.515-8.322a5.361,5.361,0,0,1,.292-.708,5.3,5.3,0,0,1-2.55.216A6.3,6.3,0,0,1,40.7,25.247,6.3,6.3,0,0,1,37.829,26.3,5.3,5.3,0,0,1,35.28,26.079Zm13.659,1.3h0Zm.006,0-.006,0Zm0,0h0Zm0,0h0Z" transform="translate(-31.724 -21.276)"/></g><g class="k" transform="translate(1.153 0.8)"><path class="b" d="M41.123,44h0a1.511,1.511,0,0,1-1.178-.565,13.149,13.149,0,0,0-1.321-.571c-2.453-.972-7.557-2.993-6.15-8.157,1.072-3.936.815-5.774.566-6.519a1.359,1.359,0,0,0-.3-.553.384.384,0,0,1,.063.029l.115.045.47-1.436-1.107-1.028,1.75-1.886a1.482,1.482,0,0,1,1.059-.507,1.443,1.443,0,0,1,1.063.414,2.149,2.149,0,0,0,1.62.371c1.407-.217,1.612-.506,1.982-1.03.048-.068.1-.136.145-.2a1.511,1.511,0,0,1,2.443,0c.05.068.1.136.146.2.37.524.574.813,1.981,1.03a2.151,2.151,0,0,0,1.62-.371,1.43,1.43,0,0,1,1.063-.414,1.482,1.482,0,0,1,1.059.507l1.75,1.886a1.511,1.511,0,0,1-.464,2.395c-.145.154-1.23,1.551.273,7.067,1.407,5.164-3.7,7.186-6.15,8.157a13.114,13.114,0,0,0-1.322.572A1.511,1.511,0,0,1,41.123,44Zm1.313-.764h0Zm-2.626,0h0ZM35.5,26.325a4.993,4.993,0,0,1,.4.9c.635,1.9.461,4.683-.516,8.27-.588,2.161,1,3.229,4.347,4.554.533.211.995.394,1.387.587.392-.193.854-.376,1.387-.587,3.345-1.325,4.936-2.393,4.347-4.554-.977-3.588-1.151-6.37-.516-8.27a4.98,4.98,0,0,1,.4-.9,5.2,5.2,0,0,1-2.729.294,6.134,6.134,0,0,1-2.889-1.073,6.132,6.132,0,0,1-2.889,1.073A5.2,5.2,0,0,1,35.5,26.325ZM49.329,27.7h0Zm0,0h0Zm0,0h0Zm0,0h0Z" transform="translate(-32.232 -21.776)"/></g><g class="l" transform="translate(0.889 0.889)"><path class="b" d="M39.9,44.318h0a1.423,1.423,0,0,1-1.118-.544,12.6,12.6,0,0,0-1.348-.586,15.127,15.127,0,0,1-4.36-2.348,5.3,5.3,0,0,1-1.737-5.7c1.541-5.656.378-7.026.238-7.165a1.422,1.422,0,0,1-.449-2.26l1.75-1.886a1.4,1.4,0,0,1,1-.475,1.356,1.356,0,0,1,1,.388,2.231,2.231,0,0,0,1.692.392c1.445-.223,1.656-.522,2.041-1.067.048-.068.1-.135.145-.2a1.422,1.422,0,0,1,2.3,0c.049.068.1.135.145.2.384.544.6.844,2.04,1.067a2.23,2.23,0,0,0,1.692-.392,1.346,1.346,0,0,1,1-.388,1.4,1.4,0,0,1,1,.475l1.75,1.886a1.422,1.422,0,0,1-.449,2.26c-.14.138-1.3,1.508.238,7.165a5.3,5.3,0,0,1-1.737,5.7,15.129,15.129,0,0,1-4.36,2.348,12.571,12.571,0,0,0-1.348.586A1.422,1.422,0,0,1,39.9,44.318Zm1.236-.719h0Zm-2.472,0h0ZM34.135,26.65c.82,1.349,1.367,4.014-.055,9.234-.606,2.226,1.006,3.315,4.4,4.66.55.218,1.023.405,1.419.6.4-.2.87-.386,1.42-.6,3.394-1.344,5.007-2.434,4.4-4.66-1.422-5.22-.874-7.885-.055-9.234l-.047-.051a5.109,5.109,0,0,1-2.816.343,5.964,5.964,0,0,1-2.9-1.1,5.96,5.96,0,0,1-2.9,1.1,5.107,5.107,0,0,1-2.816-.343Zm-2.413,1.38h0Zm16.365,0-.011,0Zm-16.367,0h0Zm0,0h0Zm0,0h0Zm16.374,0h0Z" transform="translate(-30.745 -22.276)"/></g><g class="m" transform="translate(1.24 0.978)"><path class="b" d="M41.525,44.64h0a1.333,1.333,0,0,1-1.058-.522,11.97,11.97,0,0,0-1.376-.6,14.826,14.826,0,0,1-4.334-2.332,5.211,5.211,0,0,1-1.71-5.613c1.084-3.981.818-5.858.563-6.622l-.233-.592c-.187-.477-.911-1.8-.562-2.174l1.75-1.886a1.311,1.311,0,0,1,.933-.444,1.285,1.285,0,0,1,.94.363,2.317,2.317,0,0,0,1.765.413c1.482-.228,1.714-.558,2.1-1.1.047-.067.095-.135.144-.2a1.333,1.333,0,0,1,2.156,0c.049.067.1.135.144.2.385.546.618.875,2.1,1.1a2.294,2.294,0,0,0,1.756-.4,1.333,1.333,0,0,1,1.882.072l1.75,1.886a1.333,1.333,0,0,1-.433,2.124c-.134.123-1.378,1.467.2,7.263a5.211,5.211,0,0,1-1.71,5.613,14.821,14.821,0,0,1-4.334,2.332,11.989,11.989,0,0,0-1.376.6A1.333,1.333,0,0,1,41.525,44.64Zm1.159-.674h0Zm-2.318,0h0ZM35.65,27.048c.827,1.307,1.407,3.945-.031,9.224-.624,2.291,1.01,3.4,4.453,4.766.567.225,1.051.416,1.452.621.4-.2.886-.4,1.452-.621,3.443-1.364,5.078-2.475,4.454-4.766-1.438-5.279-.858-7.916-.031-9.223l-.134-.144a5.02,5.02,0,0,1-2.825.361,5.755,5.755,0,0,1-2.916-1.119,5.754,5.754,0,0,1-2.916,1.119,5.021,5.021,0,0,1-2.825-.361Zm14.033,1.306-.01,0Zm0,0h0Zm.129-.056Z" transform="translate(-32.721 -22.776)"/></g><g class="n" transform="translate(1.067 1.067)"><path class="b" d="M40.722,44.962h0a1.245,1.245,0,0,1-1-.5,11.416,11.416,0,0,0-1.4-.618,14.755,14.755,0,0,1-4.309-2.317,5.127,5.127,0,0,1-1.682-5.522c1.6-5.867.288-7.316.272-7.321a1.244,1.244,0,0,1-.525-2.029l1.75-1.886a1.224,1.224,0,0,1,.87-.413,1.2,1.2,0,0,1,.879.338,2.394,2.394,0,0,0,1.837.434c1.519-.234,1.76-.575,2.159-1.14.047-.067.095-.134.143-.2a1.244,1.244,0,0,1,2.012,0c.049.067.1.134.143.2.4.565.64.906,2.159,1.14a2.388,2.388,0,0,0,1.83-.427,1.244,1.244,0,0,1,1.756.068l1.75,1.886a1.244,1.244,0,0,1-.415,1.987c-.128.109-1.455,1.427.162,7.363a5.127,5.127,0,0,1-1.682,5.522,14.752,14.752,0,0,1-4.309,2.317,11.389,11.389,0,0,0-1.4.618A1.245,1.245,0,0,1,40.722,44.962Zm1.081-.629h0Zm-2.163,0h0Zm-4.9-16.886c.834,1.263,1.449,3.871-.006,9.212-.642,2.355,1.014,3.489,4.506,4.872.585.232,1.08.428,1.485.639.405-.211.9-.407,1.485-.638,3.492-1.383,5.148-2.516,4.506-4.872-1.455-5.341-.84-7.949-.006-9.212l-.222-.239a4.927,4.927,0,0,1-2.834.38,5.586,5.586,0,0,1-2.929-1.148,5.583,5.583,0,0,1-2.929,1.148,4.93,4.93,0,0,1-2.834-.38Zm14.108,1.236h0Zm0,0,0,0Zm0,0h0Zm0,0h0Z" transform="translate(-31.745 -23.276)"/></g><g class="o" transform="translate(1.155 1.155)"><path class="b" d="M41.134,45.284h0a1.156,1.156,0,0,1-.935-.476,10.853,10.853,0,0,0-1.434-.635,14.686,14.686,0,0,1-4.283-2.3,5.043,5.043,0,0,1-1.655-5.432c1.647-6.046.231-7.424.214-7.429a1.155,1.155,0,0,1-.487-1.884l1.75-1.886a1.139,1.139,0,0,1,.808-.382,1.1,1.1,0,0,1,.817.314,2.478,2.478,0,0,0,1.91.456c1.557-.24,1.82-.612,2.218-1.177.047-.066.094-.133.142-.2a1.156,1.156,0,0,1,1.868,0c.049.067.1.133.143.2.4.564.661.937,2.218,1.176a2.484,2.484,0,0,0,1.9-.45,1.155,1.155,0,0,1,1.631.063l1.75,1.886a1.155,1.155,0,0,1-.394,1.849c-.121.1-1.533,1.389.121,7.464a5.043,5.043,0,0,1-1.655,5.432,14.684,14.684,0,0,1-4.283,2.3,10.875,10.875,0,0,0-1.434.635A1.156,1.156,0,0,1,41.134,45.284Zm1-.584h0Zm-2.009,0h0ZM35.037,27.848c.84,1.216,1.492,3.791.019,9.2-.722,2.652,1.534,3.78,4.559,4.978a15.733,15.733,0,0,1,1.518.656,15.753,15.753,0,0,1,1.518-.656c3.025-1.2,5.282-2.326,4.56-4.978-1.473-5.408-.821-7.983.019-9.2l-.312-.336a4.835,4.835,0,0,1-2.842.4,5.415,5.415,0,0,1-2.943-1.18,5.416,5.416,0,0,1-2.943,1.18,4.841,4.841,0,0,1-2.842-.4ZM49.228,29.01h0Zm0,0h0Zm0,0h0Z" transform="translate(-32.245 -23.776)"/></g><g class="p" transform="translate(1.169 1.244)"><path class="b" d="M41.2,45.607h0a1.066,1.066,0,0,1-.871-.451A10.27,10.27,0,0,0,38.86,44.5c-2.512-.995-7.187-2.847-5.885-7.627,1.613-5.921.326-7.352.1-7.546a.927.927,0,0,1-.712-.669,1.072,1.072,0,0,1,.315-1.061l1.75-1.886a1.066,1.066,0,0,1,1.505-.058,2.56,2.56,0,0,0,1.978.472c1.594-.245,1.866-.63,2.277-1.213.047-.066.093-.132.142-.2a1.066,1.066,0,0,1,1.724,0c.048.066.1.133.142.2.411.583.683.968,2.277,1.213a2.553,2.553,0,0,0,1.989-.483,1.053,1.053,0,0,1,1.494.068l1.75,1.886a1.072,1.072,0,0,1,.315,1.061.927.927,0,0,1-.712.669c-.223.194-1.509,1.624.1,7.546,1.3,4.781-3.373,6.632-5.885,7.627a10.265,10.265,0,0,0-1.465.654A1.067,1.067,0,0,1,41.2,45.607Zm.927-.539h0Zm-1.854,0h0ZM34.987,28.249c.845,1.167,1.538,3.707.046,9.186-.74,2.718,1.651,3.911,4.613,5.084a14.881,14.881,0,0,1,1.55.675,14.957,14.957,0,0,1,1.551-.675c2.962-1.173,5.353-2.365,4.613-5.084-1.492-5.479-.8-8.019.046-9.186L47,27.813a4.853,4.853,0,0,1-2.847.422A5.247,5.247,0,0,1,41.2,27.021a5.246,5.246,0,0,1-2.956,1.214,4.851,4.851,0,0,1-2.847-.422Zm-1.856,1.088Zm16.13,0Z" transform="translate(-32.321 -24.276)"/></g><g class="q" transform="translate(1.271 1.333)"><path class="b" d="M41.67,45.929h0a.978.978,0,0,1-.807-.426,9.735,9.735,0,0,0-1.5-.673c-2.486-.985-7.113-2.817-5.832-7.521,1.466-5.382.572-7.317.064-7.651a.861.861,0,0,1-.661-.622.981.981,0,0,1,.283-.966l1.75-1.886a.977.977,0,0,1,1.38-.053,2.643,2.643,0,0,0,2.052.495c1.631-.251,1.927-.67,2.336-1.25.046-.066.093-.132.141-.2a.978.978,0,0,1,1.581,0c.048.066.095.132.141.2.409.58.7,1,2.336,1.249a2.628,2.628,0,0,0,2.052-.495.978.978,0,0,1,1.38.053l1.75,1.886a.981.981,0,0,1,.283.966.86.86,0,0,1-.661.622c-.508.334-1.4,2.269.064,7.651,1.281,4.7-3.346,6.537-5.832,7.521a9.733,9.733,0,0,0-1.5.673A.978.978,0,0,1,41.67,45.929Zm.85-.494h0Zm-1.7,0h0ZM35.335,28.665a4.127,4.127,0,0,1,.611,1.2c.6,1.8.424,4.477-.525,7.961-.76,2.789,1.663,4,4.665,5.19a14.108,14.108,0,0,1,1.583.694,14.113,14.113,0,0,1,1.583-.694c3-1.189,5.425-2.4,4.666-5.19-.949-3.484-1.126-6.163-.525-7.961a4.134,4.134,0,0,1,.611-1.2l-.514-.554a4.68,4.68,0,0,1-2.851.446,5.083,5.083,0,0,1-2.97-1.249,5.08,5.08,0,0,1-2.97,1.249,4.681,4.681,0,0,1-2.851-.446Zm-1.7,1h0Zm16.075,0Z" transform="translate(-32.897 -24.776)"/></g><g class="r" transform="translate(1.372 1.422)"><path class="b" d="M42.136,46.251h0a.889.889,0,0,1-.741-.4,9.139,9.139,0,0,0-1.529-.694c-2.46-.974-7.04-2.788-5.779-7.416,1.5-5.5.542-7.439.013-7.758a.794.794,0,0,1-.6-.572.891.891,0,0,1,.252-.872l1.75-1.886a.889.889,0,0,1,1.255-.048,2.724,2.724,0,0,0,2.126.517c1.668-.257,1.973-.689,2.4-1.286.046-.065.093-.131.14-.2a.889.889,0,0,1,1.437,0c.048.066.094.131.14.2.422.6.727,1.029,2.4,1.286a2.725,2.725,0,0,0,2.126-.517.889.889,0,0,1,1.255.048l1.75,1.886a.891.891,0,0,1,.252.872.793.793,0,0,1-.6.572c-.529.318-1.484,2.26.013,7.758,1.26,4.627-3.319,6.441-5.779,7.416a9.145,9.145,0,0,0-1.53.694A.889.889,0,0,1,42.136,46.251Zm.773-.449h0Zm-1.545,0h0ZM35.685,29.071a3.981,3.981,0,0,1,.643,1.23c.6,1.781.418,4.443-.526,7.91-.779,2.86,1.676,4.091,4.718,5.3a13.239,13.239,0,0,1,1.616.714,13.275,13.275,0,0,1,1.616-.714c3.043-1.2,5.5-2.435,4.719-5.3-.944-3.467-1.122-6.128-.527-7.91a3.989,3.989,0,0,1,.643-1.23l-.61-.658a4.592,4.592,0,0,1-2.857.468A4.867,4.867,0,0,1,42.136,27.6a4.864,4.864,0,0,1-2.983,1.283,4.593,4.593,0,0,1-2.857-.468Zm-1.559.92Zm16.019,0Z" transform="translate(-33.464 -25.276)"/></g><g class="s" transform="translate(1.511 1.511)"><path class="b" d="M42.778,46.573h0A.8.8,0,0,1,42.1,46.2a8.589,8.589,0,0,0-1.564-.717c-2.434-.964-6.965-2.759-5.726-7.309,1.818-6.674,0-7.854-.018-7.86a.8.8,0,0,1-.337-1.3l1.75-1.886a.8.8,0,0,1,1.129-.043,2.811,2.811,0,0,0,2.2.54c1.706-.263,2.02-.707,2.454-1.323.046-.065.092-.13.14-.2a.8.8,0,0,1,1.293,0c.048.065.094.13.14.2.434.616.748,1.06,2.454,1.323a2.819,2.819,0,0,0,2.2-.54.8.8,0,0,1,1.129.043l1.75,1.886a.8.8,0,0,1,.222.779.724.724,0,0,1-.539.521c-.55.3-1.567,2.253-.039,7.865,1.239,4.551-3.292,6.345-5.726,7.309a8.616,8.616,0,0,0-1.564.717A.8.8,0,0,1,42.778,46.573Zm.7-.4h0Zm-1.391,0h0ZM36.21,29.478a3.848,3.848,0,0,1,.676,1.262c.589,1.765.412,4.408-.528,7.858-.8,2.931,1.689,4.18,4.772,5.4a12.461,12.461,0,0,1,1.648.734A12.486,12.486,0,0,1,44.427,44C47.51,42.779,50,41.53,49.2,38.6c-.94-3.45-1.117-6.094-.528-7.858a3.839,3.839,0,0,1,.676-1.262l-.709-.764a4.5,4.5,0,0,1-2.862.491,4.708,4.708,0,0,1-3-1.324,4.708,4.708,0,0,1-3,1.324,4.5,4.5,0,0,1-2.863-.49Zm14.55.84Z" transform="translate(-34.245 -25.776)"/></g><g class="t" transform="translate(1.6 1.6)"><path class="b" d="M43.19,46.9h0a.711.711,0,0,1-.6-.338,8.056,8.056,0,0,0-1.6-.743c-2.409-.954-6.892-2.729-5.673-7.2,1.87-6.864-.056-7.961-.076-7.968a.711.711,0,0,1-.3-1.159l1.75-1.886a.711.711,0,0,1,1-.039,2.889,2.889,0,0,0,2.273.563c1.743-.268,2.083-.75,2.513-1.36.046-.065.091-.13.138-.194a.711.711,0,0,1,1.15,0c.047.065.093.13.139.195.43.61.77,1.091,2.513,1.359a2.919,2.919,0,0,0,2.273-.563.711.711,0,0,1,1,.039l1.75,1.886a.711.711,0,0,1,.193.688.652.652,0,0,1-.474.467c-.182.107-1.906,1.325-.1,7.973,1.218,4.474-3.265,6.249-5.673,7.2a8.029,8.029,0,0,0-1.6.743A.712.712,0,0,1,43.19,46.9Zm.618-.359h0Zm-1.236,0h0ZM36.5,29.886c.832.945,1.757,3.312.181,9.1-.817,3,1.816,4.316,4.824,5.508a11.688,11.688,0,0,1,1.681.755,11.707,11.707,0,0,1,1.681-.755c3.008-1.191,5.641-2.509,4.825-5.508-1.576-5.787-.651-8.154.181-9.1l-.809-.872a4.408,4.408,0,0,1-2.867.514,4.557,4.557,0,0,1-3.011-1.369,4.556,4.556,0,0,1-3.01,1.369,4.411,4.411,0,0,1-2.867-.514Zm14.641.758Z" transform="translate(-34.746 -26.276)"/></g><g class="u" transform="translate(1.666 1.689)"><path class="b" d="M43.5,47.218h0a.622.622,0,0,1-.534-.3,7.485,7.485,0,0,0-1.638-.771c-2.55-1.01-6.818-2.7-5.62-7.1,1.854-6.808.015-7.99-.149-8.079a.578.578,0,0,1-.414-.412.621.621,0,0,1,.166-.6l1.75-1.886a.622.622,0,0,1,.878-.034,2.976,2.976,0,0,0,2.347.585c1.781-.274,2.13-.769,2.572-1.4.045-.064.091-.129.138-.193a.622.622,0,0,1,1.006,0c.047.065.093.129.138.194.442.627.792,1.122,2.572,1.4a3.02,3.02,0,0,0,2.347-.585.622.622,0,0,1,.878.034l1.75,1.886a.622.622,0,0,1,.166.6.577.577,0,0,1-.414.412c-.164.09-2,1.271-.149,8.079,1.2,4.4-3.07,6.088-5.62,7.1a7.48,7.48,0,0,0-1.638.77A.622.622,0,0,1,43.5,47.218Zm.541-.315,0,0Zm-1.081,0,0,0ZM36.69,30.295c.825.877,1.82,3.18.214,9.079-.836,3.069,1.83,4.407,4.878,5.614a10.934,10.934,0,0,1,1.714.777,10.948,10.948,0,0,1,1.714-.777c3.047-1.207,5.714-2.545,4.878-5.614-1.607-5.9-.612-8.2.213-9.079l-.91-.981a4.317,4.317,0,0,1-2.871.538A4.436,4.436,0,0,1,43.5,28.442a4.435,4.435,0,0,1-3.024,1.409,4.319,4.319,0,0,1-2.871-.538Zm-1.121.676h0Zm15.853,0Z" transform="translate(-35.118 -26.776)"/></g><g class="v" transform="translate(1.778 1.778)"><path class="b" d="M44.01,47.543h0a.533.533,0,0,1-.46-.268,6.922,6.922,0,0,0-1.678-.8c-2.522-1-6.744-2.671-5.567-6.991,1.943-7.135-.17-8.176-.193-8.184a.533.533,0,0,1-.225-.87l1.75-1.886a.533.533,0,0,1,.753-.029,3.061,3.061,0,0,0,2.421.608c1.818-.28,2.195-.814,2.631-1.433.045-.064.09-.128.137-.192a.533.533,0,0,1,.862,0c.047.064.092.129.138.193.437.619.814,1.153,2.631,1.433a3.053,3.053,0,0,0,2.421-.608.533.533,0,0,1,.753.029l1.75,1.886a.533.533,0,0,1,.14.51.5.5,0,0,1-.354.357c-.145.074-2.1,1.22-.2,8.186,1.177,4.32-3.045,5.992-5.567,6.991a6.86,6.86,0,0,0-1.679.8A.529.529,0,0,1,44.01,47.543ZM37.085,30.705c.815.8,1.889,3.033.249,9.056-.855,3.14,1.844,4.5,4.931,5.72a10.16,10.16,0,0,1,1.747.8,10.179,10.179,0,0,1,1.747-.8c3.087-1.222,5.786-2.58,4.931-5.72-1.64-6.023-.566-8.254.249-9.056l-1.015-1.094a4.221,4.221,0,0,1-2.874.563,4.282,4.282,0,0,1-3.038-1.461,4.281,4.281,0,0,1-3.038,1.461,4.222,4.222,0,0,1-2.874-.563Z" transform="translate(-35.745 -27.276)"/></g><g class="w" transform="translate(1.867 1.866)"><path class="b" d="M44.423,47.856a.451.451,0,0,1-.386-.218,6.353,6.353,0,0,0-1.72-.837c-2.494-.988-6.67-2.642-5.514-6.885,1.965-7.213-.228-8.284-.251-8.291a.445.445,0,0,1-.188-.725l1.75-1.886a.445.445,0,0,1,.627-.024,3.144,3.144,0,0,0,2.495.63c1.855-.286,2.243-.834,2.691-1.469.045-.064.09-.127.137-.191a.445.445,0,0,1,.719,0c.046.064.091.128.137.192.448.635.836,1.183,2.69,1.469a3.152,3.152,0,0,0,2.495-.63.444.444,0,0,1,.627.024l1.75,1.886a.445.445,0,0,1-.187.725c-.01,0-2.24.988-.251,8.291,1.156,4.244-3.019,5.9-5.514,6.885a6.363,6.363,0,0,0-1.721.837A.45.45,0,0,1,44.423,47.856ZM37.373,31.118c.8.721,1.965,2.866.286,9.031-.874,3.211,1.859,4.588,4.984,5.825a9.4,9.4,0,0,1,1.779.825,9.407,9.407,0,0,1,1.78-.825c3.125-1.238,5.858-2.615,4.984-5.825-1.679-6.165-.512-8.31.286-9.031l-1.123-1.21a4.122,4.122,0,0,1-2.876.589c-1.906-.293-2.574-.891-3.051-1.517-.477.626-1.144,1.224-3.051,1.517a4.127,4.127,0,0,1-2.876-.589Z" transform="translate(-36.245 -27.776)"/></g><g class="x" transform="translate(1.959 1.955)"><path class="b" d="M44.851,48.185h0a.355.355,0,0,1-.309-.18,5.747,5.747,0,0,0-1.765-.875c-2.467-.977-6.6-2.612-5.461-6.779,2.019-7.414-.293-8.393-.317-8.4a.363.363,0,0,1-.223-.253.356.356,0,0,1,.081-.324l1.75-1.886a.355.355,0,0,1,.5-.019,3.227,3.227,0,0,0,2.569.653c1.893-.291,2.29-.854,2.75-1.506.045-.063.089-.127.136-.19a.356.356,0,0,1,.575,0c.046.064.091.127.136.191.46.652.857,1.214,2.75,1.506a3.228,3.228,0,0,0,2.57-.654.357.357,0,0,1,.5.02l1.75,1.886a.355.355,0,0,1-.15.58c-.016.006-2.328.986-.308,8.4,1.135,4.167-2.994,5.8-5.461,6.78A5.747,5.747,0,0,0,45.16,48,.356.356,0,0,1,44.851,48.185ZM37.669,31.542a3.023,3.023,0,0,1,.869,1.394c.561,1.68.381,4.237-.535,7.6-.968,3.553,2.5,4.928,5.037,5.931a8.6,8.6,0,0,1,1.812.852,8.613,8.613,0,0,1,1.812-.852c2.534-1,6-2.378,5.037-5.931-.916-3.364-1.1-5.921-.535-7.6a3.023,3.023,0,0,1,.869-1.394L50.792,30.2a4.028,4.028,0,0,1-2.876.617c-1.967-.3-2.591-.933-3.065-1.578-.474.645-1.1,1.275-3.064,1.578A4.031,4.031,0,0,1,38.91,30.2Z" transform="translate(-36.766 -28.276)"/></g><g transform="translate(2.046 2.05)"><path class="b" d="M45.254,48.536h0a.266.266,0,0,1-.232-.135,5.415,5.415,0,0,0-1.81-.914c-2.439-.966-6.522-2.583-5.408-6.673,2.049-7.524-.347-8.5-.371-8.509a.27.27,0,0,1-.17-.189.267.267,0,0,1,.062-.244l1.75-1.886a.267.267,0,0,1,.376-.014,3.311,3.311,0,0,0,2.642.675c1.93-.3,2.337-.874,2.809-1.543.044-.063.089-.126.135-.189a.276.276,0,0,1,.431,0c.046.063.091.126.135.189.472.668.879,1.245,2.809,1.542a3.307,3.307,0,0,0,2.643-.676.268.268,0,0,1,.376.015l1.75,1.886a.267.267,0,0,1-.113.435c-.02.007-2.416.984-.367,8.507,1.114,4.09-2.969,5.707-5.408,6.674a5.41,5.41,0,0,0-1.81.914A.267.267,0,0,1,45.254,48.536ZM37.941,31.993c.709.545,2.139,2.5.379,8.961-.989,3.63,2.669,5.079,5.09,6.038a7.844,7.844,0,0,1,1.845.884,7.849,7.849,0,0,1,1.845-.884c2.42-.959,6.078-2.407,5.09-6.038-1.761-6.464-.331-8.416.379-8.961l-1.359-1.465a3.924,3.924,0,0,1-2.876.646c-2.031-.313-2.6-.977-3.078-1.642-.475.665-1.047,1.329-3.078,1.642a3.927,3.927,0,0,1-2.876-.646Z" transform="translate(-37.257 -28.811)"/></g><g transform="translate(2.152 2.155)"><path class="y" d="M45.741,48.911h0a.16.16,0,0,1-.139-.081,5.011,5.011,0,0,0-1.863-.96c-2.562-1.015-6.433-2.548-5.344-6.546,2.085-7.656-.413-8.628-.438-8.637a.161.161,0,0,1-.066-.26l1.75-1.886a.16.16,0,0,1,.226-.009,3.47,3.47,0,0,0,2.732.7c1.974-.3,2.414-.927,2.88-1.586.044-.063.088-.125.134-.188a.166.166,0,0,1,.259,0c.046.063.09.125.134.188.466.659.9,1.282,2.879,1.586a3.479,3.479,0,0,0,2.731-.7.161.161,0,0,1,.226.009l1.75,1.886a.16.16,0,0,1-.068.261c-.024.008-2.521.981-.436,8.637,1.089,4-2.782,5.532-5.344,6.546a5.01,5.01,0,0,0-1.863.96A.16.16,0,0,1,45.741,48.911ZM38.268,32.49c.623.4,2.279,2.148.435,8.918-1.014,3.722,2.7,5.192,5.153,6.165a6.776,6.776,0,0,1,1.884.927,6.781,6.781,0,0,1,1.884-.927c2.456-.973,6.167-2.443,5.153-6.165-1.844-6.77-.188-8.517.435-8.918l-1.505-1.622a3.8,3.8,0,0,1-2.874.682c-2.109-.325-2.609-1.033-3.092-1.718l0,0,0,0c-.483.685-.984,1.393-3.093,1.718a3.8,3.8,0,0,1-2.873-.682Z" transform="translate(-37.849 -29.397)"/></g><g transform="translate(2.258 2.259)"><path class="z" d="M46.232,49.286h0a.053.053,0,0,1-.046-.027,4.8,4.8,0,0,0-1.917-1.007c-2.527-1-6.345-2.513-5.281-6.419,2.121-7.788-.48-8.757-.506-8.766a.054.054,0,0,1-.035-.037.053.053,0,0,1,.013-.049l1.75-1.886a.053.053,0,0,1,.075,0,3.583,3.583,0,0,0,2.82.729c2.02-.311,2.472-.952,2.951-1.63.044-.062.088-.124.133-.187a.055.055,0,0,1,.086,0c.046.062.089.125.133.187.479.678.931,1.319,2.951,1.63a3.585,3.585,0,0,0,2.82-.729.053.053,0,0,1,.075,0L54,32.981a.053.053,0,0,1-.022.087c-.027.009-2.627.978-.506,8.766,1.064,3.906-2.754,5.418-5.281,6.419a4.792,4.792,0,0,0-1.916,1.007A.053.053,0,0,1,46.232,49.286ZM38.59,33c.436.21,2.477,1.611.5,8.864-1.039,3.814,2.726,5.305,5.217,6.292a5.607,5.607,0,0,1,1.923.985,5.608,5.608,0,0,1,1.924-.985c2.491-.987,6.256-2.478,5.217-6.292-1.976-7.254.066-8.655.5-8.864L52.21,31.2a3.717,3.717,0,0,1-2.868.722c-2.064-.318-2.529-.977-3.021-1.674l-.089-.126-.089.126c-.492.7-.957,1.356-3.021,1.674a3.718,3.718,0,0,1-2.868-.722Z" transform="translate(-38.446 -29.983)"/></g></g></g><g transform="translate(10.622 14.232)"><g transform="translate(0 0)"><path class="aa" d="M11.157,8.357,9.7,5.834a1.634,1.634,0,0,0,.4-1.66,1.252,1.252,0,0,1,0-.776,1.635,1.635,0,0,0-.812-1.96A1.251,1.251,0,0,1,8.745.89,1.635,1.635,0,0,0,6.785.078h0a1.251,1.251,0,0,1-.775,0A1.635,1.635,0,0,0,4.05.89a1.251,1.251,0,0,1-.548.548A1.635,1.635,0,0,0,2.69,3.4a1.251,1.251,0,0,1,0,.775,1.634,1.634,0,0,0,.4,1.66L1.637,8.357a.188.188,0,0,0,.163.282H2.829l.525.9a.188.188,0,0,0,.162.093h0a.188.188,0,0,0,.162-.094l1.2-2.086a1.636,1.636,0,0,0,1.127.044,1.251,1.251,0,0,1,.776,0A1.637,1.637,0,0,0,7.912,7.45l1.2,2.086a.188.188,0,0,0,.162.094h0a.188.188,0,0,0,.162-.093l.525-.9h1.029a.188.188,0,0,0,.163-.282Zm-7.642.71L3.155,8.45l.507-.88a.188.188,0,1,0-.326-.188l-.507.881h-.7L3.388,6.07c.037.023.074.044.113.064a1.251,1.251,0,0,1,.548.548,1.636,1.636,0,0,0,.5.585ZM6.9,7.136a1.625,1.625,0,0,0-1.007,0,1.254,1.254,0,0,1-1.509-.625A1.625,1.625,0,0,0,3.673,5.8,1.254,1.254,0,0,1,3.048,4.29a1.626,1.626,0,0,0,0-1.007,1.254,1.254,0,0,1,.625-1.509,1.626,1.626,0,0,0,.712-.712A1.253,1.253,0,0,1,5.5.374a1.269,1.269,0,0,1,.391.062A1.625,1.625,0,0,0,6.9.436h0a1.254,1.254,0,0,1,1.509.625,1.625,1.625,0,0,0,.712.712,1.254,1.254,0,0,1,.625,1.509,1.625,1.625,0,0,0,0,1.007A1.254,1.254,0,0,1,9.122,5.8a1.625,1.625,0,0,0-.712.712A1.254,1.254,0,0,1,6.9,7.136ZM9.966,8.263l-.507-.881a.188.188,0,0,0-.326.188l.507.88-.361.617-1.038-1.8a1.637,1.637,0,0,0,.5-.585,1.251,1.251,0,0,1,.548-.548c.039-.02.076-.041.113-.064l1.263,2.193Z" transform="translate(-1.612 0.001)"/><path class="aa" d="M246.05,57.76a.188.188,0,1,0-.133-.055A.189.189,0,0,0,246.05,57.76Z" transform="translate(-241.267 -56.305)"/><ellipse class="ab" cx="2.253" cy="2.6" rx="2.253" ry="2.6" transform="translate(2.552 1.109)"/><path class="aa" d="M180.843,149.844a.188.188,0,0,0,0,.266l1.227,1.227a.188.188,0,0,0,.266,0l1.227-1.227a.188.188,0,0,0,0-.266l-.592-.592a.188.188,0,0,0-.133-.055h-1.27a.188.188,0,0,0-.133.055Zm.8-.271h1.114l.4.4-.961.961-.961-.961Z" transform="translate(-177.418 -146.39)"/><path class="aa" d="M117.468,67.429a2.711,2.711,0,0,0-1.813-2.556.188.188,0,1,0-.124.355,2.332,2.332,0,1,1-1.545,0,.188.188,0,0,0-.125-.355,2.708,2.708,0,1,0,3.607,2.555Z" transform="translate(-109.975 -63.642)"/></g></g></svg>