<svg width="15" height="15" viewBox="0 0 15 15" fill="none" xmlns="http://www.w3.org/2000/svg">
<path d="M7.43775 4.60352C6.87683 4.60352 6.32851 4.76985 5.86212 5.0815C5.39573 5.39314 5.03223 5.8361 4.81757 6.35435C4.60292 6.8726 4.54675 7.44287 4.65618 7.99303C4.76561 8.5432 5.03572 9.04856 5.43235 9.44521C5.82898 9.84186 6.33432 10.112 6.88447 10.2214C7.43461 10.3309 8.00485 10.2747 8.52307 10.06C9.04129 9.84535 9.48422 9.48184 9.79585 9.01543C10.1075 8.54902 10.2738 8.00066 10.2738 7.43971C10.2728 6.6878 9.97374 5.96697 9.44208 5.43529C8.91043 4.90361 8.18962 4.60449 7.43775 4.60352V4.60352ZM7.43775 9.33027C7.06385 9.33027 6.69835 9.21939 6.38747 9.01166C6.07658 8.80392 5.83428 8.50865 5.69119 8.1632C5.54811 7.81774 5.51067 7.43762 5.58361 7.07089C5.65656 6.70415 5.83661 6.3673 6.101 6.1029C6.36538 5.8385 6.70222 5.65843 7.06894 5.58549C7.43565 5.51254 7.81576 5.54998 8.1612 5.69307C8.50664 5.83617 8.80189 6.07848 9.00961 6.38938C9.21734 6.70028 9.32821 7.0658 9.32821 7.43971C9.32763 7.94094 9.12827 8.42147 8.77386 8.77589C8.41946 9.13032 7.93895 9.32968 7.43775 9.33027V9.33027Z" fill="#FF8293"/>
<path d="M14.5311 7.03111H13.1015C12.9893 5.70744 12.4126 4.46612 11.4732 3.52678C10.5339 2.58745 9.29256 2.01066 7.96889 1.89846V0.468886C7.96889 0.34453 7.91949 0.225267 7.83155 0.137334C7.74362 0.0494004 7.62436 0 7.5 0C7.37564 0 7.25638 0.0494004 7.16845 0.137334C7.08051 0.225267 7.03111 0.34453 7.03111 0.468886V1.89846C5.70754 2.01094 4.46638 2.58782 3.5271 3.5271C2.58782 4.46638 2.01094 5.70754 1.89846 7.03111H0.468886C0.34453 7.03111 0.225267 7.08051 0.137334 7.16845C0.0494004 7.25638 0 7.37564 0 7.5C0 7.62436 0.0494004 7.74362 0.137334 7.83155C0.225267 7.91949 0.34453 7.96889 0.468886 7.96889H1.89846C2.01066 9.29256 2.58745 10.5339 3.52678 11.4732C4.46612 12.4126 5.70744 12.9893 7.03111 13.1015V14.5311C7.03111 14.6555 7.08051 14.7747 7.16845 14.8627C7.25638 14.9506 7.37564 15 7.5 15C7.62436 15 7.74362 14.9506 7.83155 14.8627C7.91949 14.7747 7.96889 14.6555 7.96889 14.5311V13.1015C9.29256 12.9893 10.5339 12.4126 11.4732 11.4732C12.4126 10.5339 12.9893 9.29256 13.1015 7.96889H14.5311C14.6555 7.96889 14.7747 7.91949 14.8627 7.83155C14.9506 7.74362 15 7.62436 15 7.5C15 7.37564 14.9506 7.25638 14.8627 7.16845C14.7747 7.08051 14.6555 7.03111 14.5311 7.03111V7.03111ZM7.49964 12.187C6.57255 12.187 5.66629 11.9121 4.89545 11.3971C4.12461 10.882 3.52381 10.1499 3.16903 9.29343C2.81426 8.43692 2.72143 7.49444 2.90229 6.58517C3.08316 5.6759 3.52959 4.84068 4.18514 4.18514C4.84068 3.52959 5.6759 3.08316 6.58517 2.90229C7.49444 2.72143 8.43692 2.81426 9.29343 3.16903C10.1499 3.52381 10.882 4.12461 11.3971 4.89545C11.9121 5.66629 12.187 6.57255 12.187 7.49964C12.1859 8.7424 11.6918 9.93396 10.8132 10.8129C9.93453 11.6918 8.74313 12.1862 7.50036 12.1878L7.49964 12.187Z" fill="#FF8293"/>
</svg>
