<svg width="289" height="289" viewBox="0 0 289 289" fill="none" xmlns="http://www.w3.org/2000/svg">
<g clip-path="url(#clip0_1447_6448)">
<path d="M144.5 90.3152C133.782 90.3152 123.305 93.4934 114.394 99.4481C105.483 105.403 98.537 113.867 94.4355 123.769C90.3341 133.671 89.2609 144.567 91.3518 155.079C93.4427 165.592 98.6038 175.248 106.182 182.826C113.761 190.405 123.416 195.567 133.928 197.658C144.44 199.749 155.335 198.675 165.237 194.574C175.139 190.472 183.602 183.526 189.557 174.615C195.511 165.703 198.689 155.225 198.689 144.507C198.671 130.14 192.956 116.367 182.797 106.208C172.639 96.0492 158.866 90.3337 144.5 90.3152V90.3152ZM144.5 180.63C137.356 180.63 130.372 178.512 124.432 174.542C118.492 170.573 113.862 164.931 111.128 158.331C108.394 151.73 107.679 144.467 109.072 137.46C110.466 130.453 113.907 124.016 118.958 118.964C124.01 113.912 130.446 110.472 137.453 109.078C144.46 107.684 151.723 108.4 158.323 111.134C164.923 113.868 170.565 118.498 174.534 124.438C178.503 130.379 180.621 137.363 180.621 144.507C180.61 154.084 176.801 163.266 170.029 170.038C163.258 176.81 154.076 180.619 144.5 180.63V180.63Z" fill="#5E75E8"/>
<path d="M279.959 135.466H252.416C250.254 109.962 239.142 86.0444 221.044 67.9457C202.946 49.847 179.03 38.7336 153.527 36.5719V9.02736C153.527 6.63131 152.575 4.33339 150.881 2.63913C149.187 0.944869 146.889 -0.00695801 144.493 -0.00695801C142.097 -0.00695801 139.799 0.944869 138.105 2.63913C136.411 4.33339 135.459 6.63131 135.459 9.02736V36.5719C109.958 38.739 86.0454 49.8542 67.9486 67.9518C49.8519 86.0495 38.7373 109.964 36.5702 135.466H9.02704C6.63111 135.466 4.33331 136.418 2.63913 138.112C0.944945 139.806 -0.00683594 142.104 -0.00683594 144.5C-0.00683594 146.896 0.944945 149.194 2.63913 150.888C4.33331 152.583 6.63111 153.534 9.02704 153.534H36.5702C38.7318 179.038 49.8447 202.956 67.9425 221.054C86.0404 239.153 109.957 250.267 135.459 252.428V279.973C135.459 282.369 136.411 284.667 138.105 286.361C139.799 288.055 142.097 289.007 144.493 289.007C146.889 289.007 149.187 288.055 150.881 286.361C152.575 284.667 153.527 282.369 153.527 279.973V252.428C179.03 250.267 202.946 239.153 221.044 221.054C239.142 202.956 250.254 179.038 252.416 153.534H279.959C282.355 153.534 284.653 152.583 286.347 150.888C288.041 149.194 288.993 146.896 288.993 144.5C288.993 142.104 288.041 139.806 286.347 138.112C284.653 136.418 282.355 135.466 279.959 135.466V135.466ZM144.486 234.808C126.624 234.808 109.164 229.511 94.3122 219.587C79.4607 209.663 67.8853 195.558 61.0499 179.055C54.2145 162.552 52.426 144.393 55.9107 126.873C59.3954 109.354 67.9966 93.2614 80.6268 80.6306C93.257 67.9998 109.349 59.3981 126.867 55.9133C144.386 52.4285 162.544 54.217 179.047 61.0527C195.549 67.8885 209.653 79.4644 219.577 94.3166C229.5 109.169 234.797 126.63 234.797 144.493C234.775 168.438 225.255 191.397 208.327 208.331C191.398 225.265 168.444 234.793 144.5 234.822L144.486 234.808Z" fill="#5E75E8"/>
</g>
<defs>
<clipPath id="clip0_1447_6448">
<rect width="289" height="289" fill="white"/>
</clipPath>
</defs>
</svg>
