<svg xmlns="http://www.w3.org/2000/svg" width="20.618" height="20.617" viewBox="0 0 20.618 20.617"><defs><style>.a{fill:#03fcf5;}</style></defs><g transform="translate(6.443 6.443)"><path class="a" d="M163.866,160a3.866,3.866,0,1,0,3.866,3.866A3.871,3.871,0,0,0,163.866,160Zm0,6.443a2.577,2.577,0,1,1,2.577-2.577A2.58,2.58,0,0,1,163.866,166.443Z" transform="translate(-160 -160)"/></g><path class="a" d="M19.973,9.664H18.008a7.736,7.736,0,0,0-7.055-7.055V.644a.644.644,0,0,0-1.289,0V2.609A7.738,7.738,0,0,0,2.609,9.664H.644a.644.644,0,1,0,0,1.289H2.609a7.736,7.736,0,0,0,7.055,7.055v1.965a.644.644,0,0,0,1.289,0V18.008a7.736,7.736,0,0,0,7.055-7.055h1.965a.644.644,0,1,0,0-1.289Zm-9.665,7.087a6.443,6.443,0,1,1,6.443-6.443A6.45,6.45,0,0,1,10.309,16.752Z"/></svg>