<svg width="301" height="60" viewBox="0 0 301 60" fill="none" xmlns="http://www.w3.org/2000/svg">
<path d="M300.119 39.2182H285.965C285.965 32.6318 285.965 26.0455 285.965 19.4591H299.874V21.3409H287.969V28.4182H299.342V30.2182H287.969V37.3364H300.119V39.2182Z" fill="white"/>
<path d="M277.415 19.6227L267.801 28.95L278.233 39.0954V39.2182H275.778L265.96 29.6455V39.2182H263.956V19.4591H265.96V28.3364L275.124 19.4591H277.456V19.6227H277.415Z" fill="white"/>
<path d="M252.951 34.6364H241.538L239.492 39.1773H237.406L246.242 19.4182H248.247L257.083 39.1773H254.997L252.951 34.6364ZM242.315 32.8364H252.174L247.224 21.6273L242.315 32.8364Z" fill="white"/>
<path d="M224.683 21.3H217.728V19.4591C223.292 19.4591 228.037 19.4591 233.601 19.4591V21.3409H226.647V39.2182H224.642V21.3409L224.683 21.3Z" fill="white"/>
<path d="M210.487 23.5091C209.301 21.6273 206.888 21.0546 204.801 21.0137C202.387 21.0137 199.278 21.7091 199.278 24.6137C199.278 26.9046 201.815 27.5591 204.924 28.0909C208.81 28.7864 212.738 29.6455 212.738 33.8591C212.697 38.3182 208.401 39.5455 204.842 39.5455C201.528 39.5455 198.133 38.3182 196.619 35.1682L198.337 34.2682C199.687 36.8046 202.469 37.7046 204.842 37.7046C207.256 37.7046 210.733 37.05 210.733 33.9C210.774 31.2 207.788 30.5455 204.719 30.0137C200.997 29.3591 197.315 28.5409 197.315 24.7364C197.274 20.5637 201.487 19.2955 204.801 19.2955C207.501 19.2955 210.447 20.0318 212.165 22.7318L210.487 23.5091Z" fill="white"/>
<path d="M184.51 35.4955L184.388 28.95V19.4591H186.392V39.2182H185.206L172.442 23.3455L172.483 29.1955V39.2591H170.478V19.4591H171.747L184.51 35.4955Z" fill="white"/>
<path d="M161.315 29.3591C161.274 34.5136 158.042 39.5455 151.374 39.5455C144.665 39.5455 141.392 34.5136 141.392 29.3182C141.392 23.7545 144.992 19.0909 151.374 19.0909C157.96 19.1318 161.315 24.1227 161.315 29.3591ZM151.333 37.7045C156.692 37.7045 159.31 33.6136 159.351 29.4C159.351 24.9818 156.692 21.0545 151.333 20.9727C146.056 20.9727 143.233 24.7364 143.274 29.4C143.356 33.6955 145.933 37.7045 151.333 37.7045Z" fill="white"/>
<path d="M133.374 29.3591C133.333 34.5136 130.101 39.5455 123.433 39.5455C116.724 39.5455 113.451 34.5136 113.451 29.3182C113.451 23.7545 117.051 19.0909 123.433 19.0909C130.101 19.1318 133.374 24.1227 133.374 29.3591ZM123.392 37.7045C128.751 37.7045 131.369 33.6136 131.41 29.4C131.41 24.9818 128.751 21.0545 123.392 20.9727C118.115 20.9727 115.292 24.7364 115.333 29.4C115.415 33.6955 118.033 37.7045 123.392 37.7045Z" fill="white"/>
<path d="M102.201 22.3636L94.8375 33.2045H94.2648L86.8602 22.2409V39.2182H84.8966V19.4591C85.7966 19.4591 86.4102 19.4591 87.3102 19.4591L94.5511 30.3409L101.669 19.4591H104.124V39.2182H102.119V22.3636H102.201Z" fill="white"/>
<path d="M57.036 30.1201C57.036 30.1201 57.036 30.0801 57.036 30.1201C57.036 30.0801 57.036 30.0801 57.036 30.04V30C57.036 30 57.036 30 57.036 29.9599V29.9199V29.8798C57.036 29.8798 57.036 29.8798 57.036 29.8398C57.036 29.8398 57.036 29.7997 56.996 29.7997C56.996 29.7997 56.996 29.7597 56.9559 29.7597L37.2497 0.480624C37.2497 0.440571 37.2096 0.440571 37.2096 0.400517C37.2096 0.400517 37.2096 0.400518 37.1696 0.360464C37.1295 0.320411 37.1295 0.320411 37.0895 0.320411C37.0494 0.320411 37.0093 0.280357 37.0093 0.280357C37.0093 0.280357 37.0093 0.280357 36.9693 0.280357C36.9292 0.280357 36.9292 0.280357 36.8892 0.280357H20.4272C20.267 0.280357 20.1068 0.360464 20.0267 0.480624L0.36048 29.7997C0.36048 29.7997 0.36048 29.7997 0.36048 29.8398C0.36048 29.8398 0.36048 29.8798 0.320427 29.8798C0.320427 29.8798 0.320427 29.8798 0.320427 29.9199C0.320427 29.9199 0.320427 29.9199 0.320427 29.9599C0.320427 29.9599 0.320427 29.9599 0.320427 30C0.320427 30 0.320427 30 0.320427 30.04C0.320427 30.04 0.320427 30.04 0.320427 30.0801V30.1201C0.320427 30.1201 0.320427 30.1201 0.320427 30.1602C0.320427 30.1602 0.320427 30.1602 0.320427 30.2002V30.2403C0.320427 30.2403 0.320427 30.2403 0.320427 30.2804C0.320427 30.2804 0.320427 30.2804 0.320427 30.3204C0.320427 30.3204 0.320427 30.3204 0.320427 30.3605C0.320427 30.3605 0.320427 30.4005 0.36048 30.4005V30.4406L20.0267 59.7196C20.0267 59.7597 20.0668 59.7597 20.0668 59.7997C20.1068 59.8398 20.1068 59.8398 20.1469 59.8398C20.1869 59.8398 20.227 59.8798 20.227 59.8798C20.267 59.8798 20.3071 59.8798 20.3471 59.8798H36.8091C36.9693 59.8798 37.1295 59.7997 37.2096 59.6795L56.9159 30.4005C56.9159 30.3605 56.9559 30.3605 56.9559 30.3204C56.996 30.1602 56.996 30.1602 57.036 30.1201C56.996 30.1201 57.036 30.1201 57.036 30.1201ZM41.7757 51.0681L37.2096 36.6488L55.3538 30.8812L41.7757 51.0681ZM37.0494 1.84244L55.2737 28.9185L32.0427 19.6662L37.0494 1.84244ZM2.00267 31.0013L25.2737 40.0534L20.1869 58.1175L2.00267 31.0013ZM2.16288 30L30.6809 20.7076L25.514 39.0921L2.16288 30ZM31.4419 21.6689L35.968 36.008L26.5955 39.012L31.4419 21.6689ZM32.2029 20.7877L55.0734 29.9199L36.8892 35.7276L32.2029 20.7877ZM20.6275 1.16153H36.2083L31.0414 19.546L1.92256 29.0387L20.6275 1.16153ZM36.5688 58.7583H20.988L26.235 40.1335L36.2483 36.9292L41.0547 52.1095L36.5688 58.7583Z" fill="url(#paint0_linear)"/>
<path d="M36.8491 60H20.3872V59.7597L20.3471 60C20.3471 60 20.267 60 20.227 60H20.1869C20.1869 60 20.1068 60 20.0668 59.9599L20.0267 59.9199C19.9866 59.8798 19.9466 59.8798 19.9065 59.8398L19.8665 59.7997C19.8665 59.7997 19.8264 59.7597 19.7864 59.7196L0.0801063 30.3605C0.0801063 30.3204 0.0400528 30.3204 0.0400528 30.2804L0 30C0 29.9599 0 29.9199 0 29.9199L0.0400528 29.7597L0.12016 29.5995L19.7864 0.320428C19.9065 0.120161 20.1469 0 20.3872 0H36.9292C36.9292 0 36.9693 0 37.0093 0H37.0494C37.0894 0 37.1295 0.0400536 37.2096 0.0400536C37.2497 0.080107 37.2897 0.120161 37.3298 0.120161C37.4099 0.160214 37.4099 0.200267 37.4499 0.240321L57.1963 29.5995C57.1963 29.5995 57.1963 29.6395 57.2363 29.6395C57.2363 29.6796 57.2764 29.6796 57.2764 29.7196V29.7997V29.8398V29.8798V29.9599V30C57.2764 30 57.2764 30.0401 57.2764 30.0801L57.1963 30.3204C57.1963 30.3204 57.1963 30.3605 57.1562 30.4005L37.4499 59.7196C37.3298 59.8798 37.0894 60 36.8491 60ZM20.3071 59.5194C20.3471 59.5194 20.3471 59.5194 20.3872 59.5194H36.8892C36.9693 59.5194 37.0494 59.4793 37.0895 59.3992L56.8358 30.0401V30L56.8758 30.0401L57.0761 30H56.8358L57.0761 29.9199L56.8358 29.9599L56.7957 29.8798L56.7557 29.8398L37.0494 0.560748L36.9292 0.480641C36.9292 0.480641 36.9292 0.480641 36.8892 0.480641H36.8091H20.3471C20.267 0.480641 20.1869 0.520694 20.1469 0.600801L0.48064 29.9199L0.440587 30.0401L0.320427 30.0801H0.440587V30.1202L0.24032 30.2403L0.48064 30.1602L20.1469 59.4793L20.3071 59.5194C20.267 59.4793 20.267 59.5194 20.3071 59.5194ZM0.320427 30L0.24032 30.0401H0.48064L0.320427 30ZM0.400534 29.9599H0.200267H0.24032H0.400534ZM36.729 59.0387H20.7076L26.0748 39.9733L36.4486 36.6889L41.3351 52.2296L36.729 59.0387ZM21.3485 58.518H36.4486L40.7744 52.0694L36.0881 37.2497L26.4352 40.3338L21.3485 58.518ZM20.267 58.6782L1.32176 30.4806L25.5541 39.8932L20.267 58.6782ZM2.64352 31.522L20.1068 57.5167L24.9933 40.1736L2.64352 31.522ZM41.6555 51.6689L36.8892 36.5287L55.9546 30.4406L41.6555 51.6689ZM37.53 36.8091L41.8558 50.5073L54.753 31.3218L37.53 36.8091ZM25.6742 39.4125L25.4339 39.3324L1.44192 30L31.0814 20.3471L25.6742 39.4125ZM2.9239 30.0401L25.3939 38.7717L30.3605 21.1081L2.9239 30.0401ZM26.1949 39.3725L31.4019 20.8278L36.2483 36.1682L26.1949 39.3725ZM31.4419 22.5501L26.9159 38.6115L35.6475 35.8478L31.4419 22.5501ZM36.729 36.008L31.8024 20.3471L55.8344 29.9199L36.729 36.008ZM32.6035 21.2283L37.0895 35.4072L54.3525 29.9199L32.6035 21.2283ZM1.32176 29.5194L20.5073 0.921229H36.5287L31.2417 19.7463L31.1215 19.7864L1.32176 29.5194ZM20.7477 1.40187L2.52336 28.5981L30.8411 19.3458L35.8878 1.40187H20.7477ZM55.9146 29.4393L31.7223 19.7864L36.9292 1.24166L55.9146 29.4393ZM32.3231 19.506L54.5928 28.3979L37.1295 2.4032L32.3231 19.506Z" fill="url(#paint1_linear)"/>
<defs>
<linearGradient id="paint0_linear" x1="3.33264" y1="53.7165" x2="62.9748" y2="-2.03594" gradientUnits="userSpaceOnUse">
<stop stop-color="#0085FF"/>
<stop offset="1" stop-color="#00E89E"/>
</linearGradient>
<linearGradient id="paint1_linear" x1="3.29779" y1="53.6793" x2="62.94" y2="-2.0732" gradientUnits="userSpaceOnUse">
<stop stop-color="#0085FF"/>
<stop offset="1" stop-color="#00E89E"/>
</linearGradient>
</defs>
</svg>
