<svg width="169" height="144" viewBox="0 0 169 144" fill="none" xmlns="http://www.w3.org/2000/svg">
<path d="M95.0568 44.8802L129.223 83.9778L90.0972 85.0792L95.0568 44.8802Z" fill="#15A4FC"/>
<path d="M76.3218 28.0845L16.2561 28.3598L66.4027 38.8225L89.2717 83.7021L76.3218 28.0845Z" fill="#15A4FC"/>
<path d="M149.337 27.8091L150.164 74.616L127.019 48.7345L149.337 27.8091Z" fill="url(#paint0_linear)"/>
<path d="M135.285 41.0252L149.337 27.8091L168.349 47.9085L135.285 41.0252Z" fill="#15A4FC"/>
<path d="M150.165 74.616L104.977 22.027L73.2914 15.4189L89.2722 83.702L90.6498 108.758L150.44 74.616H150.165Z" fill="url(#paint1_linear)"/>
<path d="M28.3795 144L94.5069 106.554L89.5474 83.7015L28.3795 144Z" fill="url(#paint2_linear)"/>
<path d="M0 0.275335L85.139 0L104.977 22.0268L0 0.275335Z" fill="#15A4FC"/>
<defs>
<linearGradient id="paint0_linear" x1="137.471" y1="26.7705" x2="140.299" y2="71.1137" gradientUnits="userSpaceOnUse">
<stop stop-color="#0094FF"/>
<stop offset="1" stop-color="#1145EA"/>
</linearGradient>
<linearGradient id="paint1_linear" x1="115.038" y1="82.5159" x2="81.4952" y2="25.5797" gradientUnits="userSpaceOnUse">
<stop stop-color="#15A4FC"/>
<stop offset="1" stop-color="#1145EA"/>
</linearGradient>
<linearGradient id="paint2_linear" x1="61.0139" y1="118.402" x2="103.193" y2="86.7449" gradientUnits="userSpaceOnUse">
<stop stop-color="#15A4FC"/>
<stop offset="1" stop-color="#1145EA"/>
</linearGradient>
</defs>
</svg>
