<svg width="43" height="43" viewBox="0 0 43 43" fill="none" xmlns="http://www.w3.org/2000/svg">
<path fill-rule="evenodd" clip-rule="evenodd" d="M42.9398 21.9391C42.9398 33.559 33.52 42.9788 21.9001 42.9788C10.2801 42.9788 0.860352 33.559 0.860352 21.9391C0.860352 10.3192 10.2801 0.899414 21.9001 0.899414C33.52 0.899414 42.9398 10.3192 42.9398 21.9391ZM25.2062 10.1419C25.1912 10.4424 25.116 10.758 24.9808 11.0886C24.8906 11.284 24.8004 11.4493 24.6802 11.5996C29.5344 12.2308 33.7724 17.0699 33.7123 24.554H30.4812C30.5262 18.2121 26.9495 14.8457 22.1705 14.8457C16.8354 14.8457 13.6344 18.3624 13.2887 24.554H10.0576C10.4784 17.0399 13.7696 12.4713 19.5555 11.5695C19.4503 11.4343 19.285 11.1638 19.2099 11.0135C18.759 10.0817 18.8342 9.13495 19.3602 8.87947C19.781 8.6841 20.3821 8.9997 20.8329 9.60083C20.8179 9.51066 20.8179 9.42049 20.8179 9.33032C20.8179 8.02286 21.4191 6.97087 22.1705 6.97087C22.9219 6.97087 23.523 8.03788 23.523 9.33032V9.42049C23.9288 8.95461 24.3947 8.71416 24.7554 8.86444C25.1311 9.01473 25.2813 9.51066 25.2062 10.1419ZM18.1124 19.1588V21.2477C18.1124 21.7136 18.5933 22.0893 19.1794 22.0893C19.7655 22.0893 20.2464 21.7136 20.2464 21.2477V19.1588C20.2464 18.6929 19.7655 18.3172 19.1794 18.3172C18.5933 18.3172 18.1124 18.6929 18.1124 19.1588ZM24.6948 18.3172C24.1538 18.3172 23.703 18.6929 23.703 19.1588V21.2477C23.703 21.7136 24.1388 22.0893 24.6948 22.0893C25.2359 22.0893 25.6867 21.7136 25.6867 21.2477V19.1588C25.6867 18.6929 25.2359 18.3172 24.6948 18.3172ZM19.4502 30.7608C19.6005 30.5955 19.7057 30.4001 19.7958 30.1596C19.886 29.9342 19.9311 29.6787 19.9161 29.4082C19.9161 29.1377 19.871 28.8973 19.7958 28.6568C19.7057 28.4163 19.6005 28.221 19.4502 28.0557C19.2999 27.8904 19.1196 27.7551 18.9242 27.6649C18.7288 27.5597 18.5034 27.5146 18.278 27.5146C18.0526 27.5146 17.8422 27.5748 17.6318 27.6649C17.4214 27.7551 17.2561 27.8904 17.1058 28.0557C16.9555 28.221 16.8503 28.4163 16.7601 28.6568C16.685 28.8973 16.6399 29.1377 16.6399 29.4082C16.6399 29.6637 16.6699 29.9192 16.7601 30.1596C16.8353 30.3851 16.9555 30.5804 17.1058 30.7608C17.2561 30.9261 17.4364 31.0613 17.6318 31.1515C17.8271 31.2567 18.0526 31.3018 18.278 31.3018C18.5034 31.3018 18.7288 31.2417 18.9242 31.1515C19.1346 31.0613 19.2999 30.9261 19.4502 30.7608ZM20.6525 27.1389C20.938 27.4395 21.1785 27.7852 21.3287 28.1609C21.4941 28.5516 21.5842 28.9724 21.5842 29.4232C21.5842 29.8741 21.4941 30.2949 21.3287 30.6856C21.1634 31.0764 20.938 31.422 20.6525 31.7076C20.0513 32.3087 19.2398 32.6393 18.3832 32.6393C17.5266 32.6393 16.7 32.3087 16.0989 31.7076C15.8133 31.422 15.5879 31.0764 15.4226 30.6856C15.2573 30.2799 15.1671 29.8741 15.1671 29.4232C15.1671 28.9874 15.2573 28.5516 15.4226 28.1609C15.5729 27.7852 15.8133 27.4245 16.0989 27.1389C16.715 26.5378 17.5266 26.2072 18.3832 26.2072C19.2248 26.2072 20.0513 26.5378 20.6525 27.1389ZM12.2666 30.7608C12.4019 30.5804 12.5071 30.37 12.5822 30.1596C12.6574 29.9342 12.7025 29.6938 12.7025 29.4232C12.7025 29.1527 12.6574 28.9123 12.5822 28.6718C12.5071 28.4464 12.4019 28.236 12.2666 28.0707C12.1314 27.9054 11.9661 27.7701 11.7857 27.6649C11.6054 27.5597 11.41 27.5146 11.1996 27.5146H10.2228V31.3018H11.1996C11.41 31.3018 11.6054 31.2417 11.7857 31.1515C11.9811 31.0613 12.1314 30.9261 12.2666 30.7608ZM13.5741 27.1389C13.8596 27.4395 14.1001 27.7852 14.2504 28.1609C14.4157 28.5516 14.5059 28.9724 14.4908 29.4383C14.4908 29.8741 14.4157 30.2949 14.2504 30.6856C14.0851 31.0764 13.8596 31.422 13.5741 31.7076C13.2886 31.9931 12.9579 32.2185 12.5672 32.3838C12.1765 32.5491 11.7557 32.6243 11.3198 32.6243H8.75V26.2072H11.3198C11.7557 26.2072 12.1765 26.2973 12.5672 26.4627C12.9429 26.6129 13.2886 26.8534 13.5741 27.1389ZM32.9306 30.7608C33.0809 30.5955 33.1861 30.4001 33.2763 30.1596C33.3665 29.9342 33.4115 29.6787 33.3965 29.4082C33.3965 29.1377 33.3665 28.8973 33.2763 28.6568C33.1861 28.4163 33.0809 28.221 32.9306 28.0557C32.7803 27.8904 32.615 27.7551 32.4046 27.6649C32.2093 27.5597 31.9989 27.5146 31.7584 27.5146C31.533 27.5146 31.3076 27.5748 31.1122 27.6649C30.9168 27.7551 30.7365 27.8904 30.5862 28.0557C30.4359 28.221 30.3307 28.4163 30.2406 28.6568C30.1654 28.8973 30.1203 29.1377 30.1203 29.4082C30.1203 29.6637 30.1504 29.9192 30.2406 30.1596C30.3157 30.3851 30.4359 30.5804 30.5862 30.7608C30.7365 30.9261 30.9168 31.0613 31.1122 31.1515C31.3076 31.2567 31.533 31.3018 31.7584 31.3018C31.9838 31.3018 32.2093 31.2417 32.4046 31.1515C32.615 31.0613 32.7803 30.9261 32.9306 30.7608ZM34.1179 27.1389C34.4034 27.4395 34.6439 27.7852 34.7941 28.1609C34.9745 28.5516 35.0496 28.9724 35.0496 29.4232C35.0496 29.8741 34.9595 30.2949 34.7941 30.6856C34.6288 31.0764 34.4034 31.422 34.1179 31.7076C33.5167 32.3087 32.7052 32.6393 31.8486 32.6393C30.992 32.6393 30.1654 32.3087 29.5643 31.7076C29.2787 31.422 29.0533 31.0764 28.888 30.6856C28.7227 30.2799 28.6475 29.8741 28.6475 29.4232C28.6325 28.9874 28.7227 28.5516 28.888 28.1609C29.0383 27.7852 29.2787 27.4245 29.5643 27.1389C30.1804 26.5378 30.992 26.2072 31.8486 26.2072C32.6902 26.2072 33.5167 26.5378 34.1179 27.1389ZM25.7471 30.7608C25.8823 30.5804 25.9875 30.37 26.0627 30.1596C26.1378 29.9342 26.1679 29.6938 26.1829 29.4232C26.1829 29.1527 26.1378 28.9123 26.0627 28.6718C25.9875 28.4464 25.8823 28.236 25.7471 28.0707C25.6118 27.9054 25.4465 27.7701 25.2662 27.6649C25.0858 27.5597 24.8905 27.5146 24.6801 27.5146H23.7032V31.3018H24.6801C24.8905 31.3018 25.0858 31.2417 25.2662 31.1515C25.4615 31.0613 25.6118 30.9261 25.7471 30.7608ZM27.0545 27.1389C27.3401 27.4395 27.5805 27.7852 27.7308 28.1609C27.8961 28.5516 27.9863 28.9724 27.9713 29.4383C27.9713 29.8741 27.8961 30.2949 27.7308 30.6856C27.5655 31.0764 27.3401 31.422 27.0545 31.7076C26.769 31.9931 26.4384 32.2185 26.0476 32.3838C25.6569 32.5491 25.2361 32.6243 24.8003 32.6243H22.2304V26.2072H24.8003C25.2361 26.2072 25.6569 26.2973 26.0476 26.4627C26.4234 26.6129 26.769 26.8534 27.0545 27.1389Z" fill="white"/>
</svg>
