<svg width="49" height="29" viewBox="0 0 49 29" fill="none" xmlns="http://www.w3.org/2000/svg">
<path fill-rule="evenodd" clip-rule="evenodd" d="M39.771 6.9125C45.1079 3.72437 44.6164 0.311523 44.6164 0.311523C42.622 3.2609 28.0718 10.2972 28.0718 10.2972L26.6533 14.4825C26.656 14.478 27.0408 14.2598 27.6963 13.8884C29.9971 12.5846 35.6315 9.3918 39.771 6.9125ZM22.1718 14.5669C22.1718 14.5669 14.3911 10.199 9.05413 7.01085C3.99414 3.96684 4.18842 0.745152 4.20789 0.422259C4.2089 0.405492 4.20944 0.39653 4.20874 0.395837C6.20308 3.3452 20.7393 10.3816 20.7393 10.3816L22.1718 14.5669ZM26.639 15.9572L36.1473 10.1989C36.1473 10.1989 47.5515 3.35915 48.3942 0.704722C48.3942 0.704722 48.2116 5.94337 43.928 8.87868C39.6444 11.814 28.4368 18.0919 28.4368 18.0919L24.4481 28.485V28.822L24.3778 28.6535L24.3498 28.7237V28.5692L20.3611 18.1763C20.3611 18.1763 9.13946 11.9123 4.86988 8.96299C0.600309 6.01359 0.403687 0.788989 0.403687 0.788989C1.26041 3.45747 12.6647 10.2972 12.6647 10.2972L22.1729 16.0555L24.3919 21.5188L26.639 15.9572ZM24.3634 5.12896L27.2144 10.3817L24.3634 19.9741L21.5123 10.3817L24.3634 5.12896ZM20.1919 19.5947L8.87187 12.8533C8.87187 12.8533 8.68933 19.693 20.1919 19.5947ZM28.5504 19.5947C40.053 19.693 39.8704 12.8533 39.8704 12.8533L28.5504 19.5947Z" fill="white"/>
</svg>
