<svg width="105" height="23" viewBox="0 0 105 23" fill="none" xmlns="http://www.w3.org/2000/svg">
<path d="M2.25892 15.477C2.17922 15.5624 2.08364 15.6297 1.97811 15.6747C1.87258 15.7198 1.75937 15.7415 1.64549 15.7387C1.53161 15.7415 1.4184 15.7198 1.31288 15.6747C1.20735 15.6297 1.11177 15.5624 1.03206 15.477C0.950685 15.3933 0.886553 15.293 0.843657 15.1822C0.80076 15.0715 0.780015 14.9526 0.782702 14.8331V8.39251C0.782262 8.27337 0.804228 8.15534 0.847342 8.04512C0.89045 7.93489 0.953863 7.83465 1.03394 7.75024C1.11401 7.66578 1.20917 7.59871 1.31397 7.55293C1.41877 7.50716 1.53115 7.48352 1.64466 7.48341C1.75859 7.48285 1.87151 7.50599 1.97689 7.55143C2.08227 7.59692 2.17802 7.66382 2.25862 7.74835C2.33922 7.83287 2.40308 7.93333 2.4465 8.04389C2.48992 8.15445 2.51205 8.27292 2.51161 8.39251V14.8331C2.51362 14.9528 2.49224 15.0717 2.44878 15.1825C2.40532 15.2933 2.34071 15.3934 2.25892 15.477Z" fill="white"/>
<path d="M16.5229 10.8654C16.4703 10.5966 16.3659 10.3419 16.2162 10.1169C16.0528 9.87745 15.84 9.68003 15.5936 9.53926C15.3287 9.38109 14.9918 9.30197 14.5829 9.30197H8.06955C7.64839 9.30197 7.30841 9.38109 7.04966 9.53926C6.80703 9.68187 6.59751 9.87913 6.43621 10.1169C6.28769 10.3422 6.18443 10.5968 6.13281 10.8654C6.08085 11.111 6.05297 11.3616 6.04968 11.6131V14.8334C6.04929 15.0131 5.99822 15.1887 5.903 15.3381C5.80771 15.4874 5.67246 15.6039 5.51427 15.6727C5.35609 15.7415 5.18204 15.7597 5.01404 15.7249C4.84604 15.6902 4.69159 15.604 4.57015 15.4773C4.48877 15.3936 4.42464 15.2933 4.38174 15.1826C4.33885 15.0718 4.3181 14.953 4.32079 14.8334V11.6131C4.32263 11.1206 4.39866 10.6315 4.54605 10.164C4.69111 9.68706 4.91231 9.23953 5.2002 8.84045C5.48483 8.44578 5.84033 8.11355 6.24671 7.86238C6.66876 7.60642 7.14907 7.47551 7.63646 7.48377H15.2004C15.6678 7.50077 16.1224 7.64768 16.5179 7.90949C16.9014 8.16696 17.235 8.49824 17.5012 8.88578C17.7752 9.28358 17.9855 9.72564 18.1238 10.1945C18.2652 10.6534 18.3384 11.1325 18.3408 11.6149V14.8352C18.3408 15.0763 18.2495 15.3075 18.0871 15.478C17.9246 15.6485 17.7043 15.7443 17.4746 15.7443C17.2449 15.7443 17.0246 15.6485 16.8622 15.478C16.6998 15.3075 16.6085 15.0763 16.6085 14.8352V11.6131C16.6044 11.3615 16.5757 11.1109 16.5229 10.8654Z" fill="white"/>
<path d="M34.166 7.74884C34.2875 7.87595 34.3704 8.03814 34.4039 8.21476C34.4375 8.39139 34.4204 8.57454 34.3547 8.7409C34.2889 8.90727 34.1776 9.04938 34.0348 9.14929C33.892 9.24914 33.7241 9.30222 33.5526 9.30183H28.2104V14.8332C28.2104 14.9526 28.188 15.0708 28.1445 15.1812C28.101 15.2915 28.0371 15.3916 27.9567 15.4761C27.8763 15.5605 27.7808 15.6275 27.6758 15.6731C27.5707 15.7189 27.458 15.7424 27.3443 15.7424C27.2306 15.7424 27.1179 15.7189 27.0129 15.6731C26.9078 15.6275 26.8123 15.5605 26.7319 15.4761C26.6514 15.3916 26.5876 15.2915 26.5441 15.1812C26.5006 15.0708 26.4782 14.9526 26.4782 14.8332V9.30183H21.0637C20.8497 9.27813 20.651 9.17404 20.5043 9.00868C20.4282 8.92745 20.3683 8.83116 20.328 8.72546C20.2878 8.61969 20.2681 8.50657 20.2699 8.39273C20.2694 8.27319 20.2916 8.15477 20.335 8.04427C20.3783 7.93377 20.4421 7.83336 20.5226 7.74884C20.6031 7.66432 20.6987 7.59736 20.8041 7.55186C20.9093 7.50631 21.0222 7.48312 21.136 7.48357H33.5526C33.6667 7.48122 33.7801 7.50353 33.8856 7.54919C33.9911 7.59479 34.0866 7.66276 34.166 7.74884Z" fill="white"/>
<path d="M39.9406 9.30202C39.5189 9.30202 39.1789 9.38107 38.9207 9.5393C38.6781 9.68192 38.4685 9.87917 38.3073 10.1169C38.1576 10.3419 38.0532 10.5966 38.0005 10.8654C37.8919 11.3577 37.8919 11.8695 38.0005 12.3617C38.0534 12.6302 38.1577 12.8846 38.3073 13.1094C38.4683 13.3474 38.6779 13.5447 38.9207 13.687C39.1795 13.8458 39.5194 13.9249 39.9406 13.9243H49.8843C49.998 13.9243 50.1107 13.9478 50.2158 13.9935C50.3208 14.0392 50.4163 14.1062 50.4967 14.1906C50.5772 14.275 50.6409 14.3752 50.6845 14.4855C50.728 14.5959 50.7504 14.714 50.7504 14.8334C50.7504 14.9528 50.728 15.071 50.6845 15.1813C50.6409 15.2916 50.5772 15.3918 50.4967 15.4763C50.4163 15.5607 50.3208 15.6277 50.2158 15.6733C50.1107 15.719 49.998 15.7425 49.8843 15.7425H39.3629C38.8983 15.7511 38.4411 15.6197 38.0454 15.3639C37.6594 15.1103 37.3251 14.7787 37.0621 14.3885C36.7871 13.9815 36.5768 13.5304 36.4395 13.0527C36.2991 12.587 36.2262 12.1017 36.2234 11.6131C36.2253 11.1207 36.3013 10.6316 36.4487 10.164C36.5951 9.68604 36.8177 9.23762 37.107 8.83782C37.3921 8.44415 37.7479 8.11275 38.1543 7.86242C38.5761 7.60657 39.0561 7.47567 39.5432 7.48375H49.8843C50.114 7.48375 50.3343 7.57953 50.4967 7.75003C50.6592 7.92052 50.7504 8.15178 50.7504 8.39291C50.7504 8.63399 50.6592 8.86525 50.4967 9.03574C50.3343 9.20623 50.114 9.30202 49.8843 9.30202H39.9406ZM49.7405 10.9693C49.8621 11.0965 49.9449 11.2587 49.9785 11.4355C50.012 11.6121 49.9948 11.7953 49.929 11.9618C49.8631 12.1282 49.7517 12.2703 49.6088 12.3701C49.4658 12.4699 49.2979 12.5229 49.1262 12.5223H40.1392C39.9095 12.5223 39.6892 12.4265 39.5268 12.256C39.3644 12.0855 39.2731 11.8543 39.2731 11.6131C39.2731 11.3721 39.3644 11.1408 39.5268 10.9703C39.6892 10.7998 39.9095 10.704 40.1392 10.704H49.1262C49.2404 10.7019 49.3539 10.7244 49.4595 10.77C49.5651 10.8156 49.6607 10.8834 49.7405 10.9693Z" fill="white"/>
<path d="M65.0969 7.74998C65.2179 7.62241 65.3723 7.53549 65.5407 7.5002C65.7091 7.46497 65.883 7.48298 66.0419 7.55194C66.2003 7.62096 66.3358 7.73777 66.4311 7.88768C66.5259 8.03755 66.5766 8.21373 66.576 8.39386V13.9061C66.5816 14.1483 66.5404 14.3891 66.4545 14.6141C66.3686 14.839 66.2404 15.0434 66.0776 15.2148C65.9176 15.3881 65.7253 15.5247 65.5123 15.616C65.2999 15.7073 65.0713 15.7513 64.8416 15.7453C64.5099 15.7437 64.1848 15.6456 63.9033 15.4617L55.6375 10.1571C55.4089 10.0184 55.2219 9.90844 55.069 9.82554C54.9563 9.7554 54.8297 9.71331 54.6991 9.70255C54.5187 9.70255 54.4041 9.82292 54.3567 10.0629C54.3005 10.4068 54.2763 10.7557 54.2844 11.1046V14.8361C54.2879 14.958 54.2682 15.0793 54.2263 15.1929C54.1843 15.3066 54.1211 15.4102 54.0403 15.4977C53.9594 15.5852 53.8627 15.6548 53.7558 15.7023C53.6488 15.7498 53.5339 15.7743 53.4178 15.7743C53.3017 15.7743 53.1867 15.7498 53.0799 15.7023C52.9729 15.6548 52.8762 15.5852 52.7954 15.4977C52.7145 15.4102 52.6513 15.3066 52.6094 15.1929C52.5674 15.0793 52.5477 14.958 52.5513 14.8361V9.32215C52.5457 9.07996 52.587 8.83905 52.6728 8.61409C52.7585 8.38918 52.8868 8.18479 53.05 8.01346C53.2099 7.84013 53.4023 7.70353 53.615 7.61221C53.8277 7.52094 54.0562 7.4769 54.286 7.48298C54.4548 7.48275 54.6229 7.50834 54.7847 7.55891C54.9406 7.60675 55.0894 7.67688 55.2269 7.76743L63.4918 13.0711C63.7204 13.2096 63.91 13.3201 64.0599 13.4027C64.1731 13.4729 64.3002 13.515 64.4307 13.5257C64.6113 13.5257 64.7251 13.4061 64.7736 13.1654C64.8293 12.8214 64.8538 12.4725 64.8455 12.1236V8.39386C64.8433 8.27416 64.8644 8.1553 64.9074 8.04452C64.9503 7.93374 65.015 7.83349 65.0969 7.74998Z" fill="white"/>
<path d="M82.2771 7.74884C82.3986 7.87595 82.4811 8.03814 82.5146 8.21476C82.5486 8.39139 82.5313 8.57454 82.4655 8.7409C82.3997 8.90727 82.2882 9.04938 82.1455 9.14929C82.0028 9.24914 81.835 9.30222 81.6632 9.30183H76.321V14.8332C76.321 15.0744 76.2301 15.3056 76.0673 15.4761C75.9051 15.6466 75.6849 15.7424 75.4552 15.7424C75.2255 15.7424 75.0053 15.6466 74.8425 15.4761C74.6802 15.3056 74.5888 15.0744 74.5888 14.8332V9.30183H69.1752C68.9611 9.27836 68.7621 9.17421 68.6154 9.00868C68.5391 8.92745 68.4794 8.83116 68.4387 8.72546C68.3986 8.61969 68.379 8.50657 68.3807 8.39273C68.3802 8.27319 68.4025 8.15477 68.4459 8.04427C68.4894 7.93377 68.553 7.83336 68.6333 7.74884C68.7141 7.66432 68.8095 7.59736 68.9148 7.55186C69.0202 7.50631 69.1328 7.48312 69.2471 7.48357H81.6632C81.7775 7.48122 81.8907 7.50353 81.9966 7.54919C82.102 7.59479 82.1974 7.66276 82.2771 7.74884Z" fill="white"/>
<path d="M98.7352 9.59061L99.9941 10.7606L104.299 6.97491V0.814453L102.978 1.82041L102.306 2.33516L101.591 2.88219L101.429 3.00521C100.233 3.91869 98.8774 4.95343 97.6268 6.09112L97.4412 6.25688C96.9834 6.66432 96.4644 7.12935 96.1694 7.87794C95.8595 8.65631 95.8411 9.52867 96.117 10.3209C96.5084 11.3992 97.3364 12.0518 98.0673 12.6276C98.2245 12.7515 98.3722 12.8684 98.5127 12.9862C99.4477 13.7715 100.403 14.5645 101.326 15.3297L102.412 16.2309V18.3083L95.9158 12.9417L95.9208 15.1229L104.077 21.9386V15.3847L103.762 15.1229L102.359 13.959C101.437 13.1947 100.484 12.4052 99.5531 11.6217C99.3931 11.4873 99.2275 11.36 99.0664 11.23C98.4637 10.7544 97.8933 10.3051 97.6731 9.69877C97.5465 9.32266 97.5594 8.91032 97.7088 8.54363C97.8504 8.18419 98.1442 7.92243 98.5178 7.59003C98.5841 7.53188 98.6504 7.47368 98.7174 7.41553C99.9138 6.32668 101.239 5.31463 102.409 4.4221L102.57 4.29908L102.635 4.24935V6.1592L98.7352 9.59061Z" fill="white"/>
<path d="M95.0076 9.93468L95.002 7.75352L86.8437 0.94043V7.48914L87.1587 7.7509C87.6259 8.14 88.0937 8.52826 88.562 8.91563C89.4825 9.67995 90.4364 10.4695 91.3664 11.2521C91.5275 11.3874 91.6931 11.5182 91.8531 11.6447C92.4569 12.1202 93.0272 12.5696 93.2475 13.1759C93.3735 13.5521 93.3606 13.9643 93.2118 14.3311C93.0702 14.6905 92.7752 14.9523 92.4028 15.2838L92.2032 15.4626C91.0062 16.5515 89.6815 17.5636 88.5118 18.4561L88.3507 18.5791L88.286 18.6279V16.7172L92.1881 13.2902L90.9298 12.1167L86.624 15.9059V22.0646L87.9459 21.0577L88.6183 20.543L89.333 19.9968L89.4942 19.8738C90.6906 18.9604 92.046 17.9256 93.2971 16.7879C93.3584 16.7321 93.4203 16.6762 93.4827 16.6222C93.9399 16.2147 94.459 15.7497 94.7544 15.0002C95.0639 14.2219 95.0828 13.3495 94.8069 12.5573C94.4144 11.479 93.587 10.8272 92.8566 10.2514C92.6994 10.1275 92.5517 10.0106 92.4112 9.89281C91.4762 9.10759 90.5211 8.31451 89.5968 7.54852L88.5163 6.64811V4.56553L95.0076 9.93468Z" fill="white"/>
</svg>
