<svg width="130" height="31" viewBox="0 0 130 31" fill="none" xmlns="http://www.w3.org/2000/svg">
<g clip-path="url(#clip0_648_2035)">
<path d="M21.6415 1.54276C27.0891 4.51759 30.0082 9.0542 29.971 15.227C29.9524 21.2882 27.1077 25.862 21.7345 28.6695C12.81 33.3362 1.78451 27.7027 0.204133 17.7184C-1.2275 8.5522 4.90808 1.69151 11.9733 0.315647C15.2828 -0.335097 18.5179 -0.0190211 21.6415 1.54276ZM20.9536 8.0502H22.0319V22.2736H5.91208V24.356H24.1143V5.93064H9.9281V16.1752H16.0079V14.0556H12.0105V8.0502C14.9667 8.0502 17.8858 8.0502 20.9536 8.0502ZM7.95728 7.13916V5.93064H5.91208V20.247H20.0797V10.0768H13.9813V12.1034H17.9787V18.1646H7.95728C7.95728 14.5019 7.95728 10.8949 7.95728 7.13916Z" fill="white"/>
<path d="M88.8728 16.1009C88.7799 16.6773 88.7241 17.1979 88.5939 17.6999C87.906 20.2843 86.2699 21.6415 83.5925 21.7531C81.789 21.8275 79.9855 21.7531 78.1077 21.7531V8.77539C80.376 8.86835 82.6257 8.77539 84.8382 9.09147C87.1437 9.42613 88.2779 11.1924 88.7055 13.3678C88.8728 14.2416 88.8356 15.1341 88.8728 16.1009ZM80.3946 15.6175V19.5591C81.5845 19.5591 82.6815 19.5963 83.7598 19.5591C84.801 19.5034 85.6005 18.9642 86.0096 17.9788C86.6975 16.3426 86.7161 14.6507 86.1583 12.9773C85.8794 12.1407 85.303 11.3784 84.3734 11.2482C83.0719 11.0623 81.7518 11.0809 80.3946 11.0065V15.6361V15.6175Z" fill="white"/>
<path d="M57.5996 19.9503C56.1308 21.8654 53.3047 22.4789 50.6645 21.5121C48.8053 20.8242 47.7269 19.188 47.8385 17.1243C48.5078 17.0685 49.1771 16.9941 49.9022 16.9383C49.958 17.0871 50.0138 17.2172 50.0324 17.3474C50.2927 18.8162 51.0736 19.6157 52.561 19.69C53.3605 19.7272 54.1786 19.5971 54.9594 19.4111C55.573 19.2624 55.9449 18.7232 55.9635 18.0725C55.9635 17.3845 55.573 16.9569 54.9594 16.7524C53.8997 16.4177 52.8213 16.1574 51.7615 15.8414C51.1665 15.6554 50.5716 15.4695 50.0324 15.1906C48.8796 14.5771 48.2289 13.5916 48.2847 12.2344C48.3219 10.8771 48.954 9.83592 50.1439 9.24095C52.0404 8.29273 53.974 8.32991 55.8519 9.25955C57.2835 9.96607 57.8041 11.2676 57.8599 12.9223C57.1162 12.9781 56.4097 13.0153 55.666 13.071C55.48 12.16 55.3499 11.156 54.3459 10.9701C53.4348 10.8027 52.4494 10.8585 51.5012 10.9701C50.9248 11.0444 50.5344 11.565 50.5344 12.2158C50.5344 12.8293 50.9248 13.164 51.464 13.3128C52.7283 13.666 53.9926 13.9821 55.2383 14.3539C56.4655 14.7258 57.5066 15.3765 57.9901 16.6408C58.4363 17.7936 58.2689 18.872 57.5996 19.9503Z" fill="white"/>
<path d="M95.8459 22.3669C95.8459 22.1438 95.8645 21.9765 95.8831 21.7533C96.4967 21.8463 97.0544 21.9021 97.6122 22.0136C97.761 22.0508 97.9283 22.2182 98.0027 22.3669C98.3931 23.2036 98.8207 23.4639 99.8991 23.3895C100.885 23.3337 101.442 22.9433 101.684 22.1066C101.758 21.8835 101.777 21.6418 101.796 21.5488C100.829 21.6046 99.8805 21.7905 98.9695 21.679C97.1846 21.4559 95.8459 20.0056 95.6414 17.9232C95.5298 16.8263 95.6414 15.6178 95.9947 14.5766C96.8499 12.0294 99.174 11.546 101.312 12.1223C101.628 12.2153 101.851 12.2711 102.242 12.1409C102.762 11.955 103.395 12.1037 104.064 12.1037C104.064 13.3309 104.064 14.4836 104.064 15.6363C104.045 17.7187 104.101 19.8011 103.934 21.8649C103.766 23.8729 102.669 24.9327 100.68 25.2116C99.8619 25.3231 98.9881 25.2859 98.1886 25.1C96.7198 24.7839 96.069 23.9287 95.8831 22.3111M101.665 18.5368C102.019 17.4956 102.056 16.4544 101.721 15.4132C101.424 14.4464 100.624 13.87 99.7504 13.9072C98.8951 13.9444 98.1142 14.5394 97.9469 15.5062C97.8167 16.3429 97.8167 17.2167 97.9097 18.072C98.0027 19.0202 98.5976 19.671 99.5645 19.8197C100.513 19.9684 101.163 19.485 101.647 18.5554L101.665 18.5368Z" fill="white"/>
<path d="M122.619 21.3256C121.429 21.9392 120.221 22.0879 118.975 21.7904C117.822 21.5115 116.986 20.6377 116.837 19.5779C116.67 18.3136 117.023 17.1794 118.194 16.6217C119.087 16.194 120.128 16.0639 121.095 15.8408C121.69 15.7106 122.303 15.6362 122.88 15.5433C122.954 14.5021 122.731 14.186 121.876 13.9815C120.444 13.6468 119.719 14.0559 119.087 15.6177C118.417 15.5247 117.711 15.4317 117.004 15.3388C117.339 13.3308 118.176 12.3825 120.072 12.1036C121.002 11.9735 122.006 11.9921 122.935 12.1408C124.404 12.3825 125.129 13.3679 125.166 14.8554C125.185 15.8408 125.166 16.8448 125.166 17.8302C125.166 19.1317 125.055 20.4703 125.966 21.8276C124.888 21.5115 123.791 22.3296 123.103 21.0467C122.972 21.1211 122.805 21.214 122.601 21.3256M119.105 19.1317C119.273 19.3734 119.384 19.708 119.607 19.8196C120.444 20.21 121.299 20.0985 122.061 19.5965C122.787 19.1317 123.047 18.388 122.842 17.5327C122.024 17.6628 121.188 17.793 120.37 17.9417C119.737 18.0533 119.142 18.2392 119.105 19.1503V19.1317Z" fill="white"/>
<path d="M59.8496 10.4487C59.8496 9.85373 59.8496 9.35173 59.8496 8.79395H70.2243V10.9135H66.2269V21.6601H63.8842V10.9135C62.6571 10.9135 61.5043 10.9135 60.3516 10.9135C60.0727 10.9135 59.7752 10.9507 59.8496 10.4487Z" fill="white"/>
<path d="M43.0238 13.907V8.75684H45.2549C45.2735 8.86839 45.3107 8.97995 45.3107 9.0915C45.3107 12.1407 45.3479 15.1899 45.2735 18.2391C45.1991 21.1582 42.6891 22.7385 39.956 21.6787C39.1007 21.3441 38.4686 20.7491 38.2083 19.8753C38.0038 19.1687 37.9294 18.425 37.7806 17.6255C38.5987 17.514 39.2866 17.421 39.9932 17.3095C40.0675 17.8487 40.1233 18.3135 40.2163 18.7597C40.3464 19.4848 40.8484 19.7823 41.555 19.7823C42.3358 19.7823 42.8378 19.429 42.8936 18.6853C42.9866 17.1235 42.9866 15.5618 43.0052 13.9256L43.0238 13.907Z" fill="white"/>
<path d="M113.806 9.03617C113.899 9.7241 113.954 10.412 113.992 11.1C113.992 11.4718 113.992 11.8251 113.992 12.2713H115.46V14.1492H114.01C114.01 15.9526 114.01 17.7004 114.029 19.4481C114.029 19.5782 114.363 19.7641 114.549 19.8013C114.81 19.8385 115.089 19.7641 115.423 19.727C115.535 20.3963 115.628 21.0284 115.739 21.7164C115.349 21.7907 115.014 21.8651 114.68 21.9023C112.709 22.1254 111.798 21.3073 111.779 19.3365C111.779 17.6446 111.779 15.9341 111.779 14.2049C111.389 14.1863 111.073 14.1678 110.701 14.1492V12.2899C111.054 12.2899 111.37 12.2527 111.686 12.2341C111.723 12.1783 111.76 12.1226 111.76 12.104C111.333 10.3748 112.43 9.63114 113.806 9.01758V9.03617Z" fill="white"/>
<path d="M127.898 8.88683C128.624 8.83106 129.293 8.83105 129.999 8.83105V21.7158H127.843C127.843 17.4767 127.843 13.2003 127.898 8.88683Z" fill="white"/>
<path d="M106.74 12.2716C107.447 12.2158 108.116 12.2158 108.841 12.2158V21.7353H106.703C106.703 18.5931 106.703 15.4509 106.74 12.2716Z" fill="white"/>
<path d="M93.4845 16.8825C93.4845 18.5373 93.4845 20.1176 93.4845 21.7538H91.3092V12.2529H93.4845C93.4845 13.7589 93.4845 15.2835 93.4845 16.8825Z" fill="white"/>
<path d="M108.432 8.77539C108.637 8.90554 108.86 9.0171 108.879 9.16584C108.916 9.81658 108.879 10.4859 108.879 11.1924H106.685V8.79398C107.242 8.79398 107.8 8.79398 108.414 8.79398L108.432 8.77539Z" fill="white"/>
<path d="M92.5921 8.79395C92.9082 8.79395 93.1499 8.79395 93.4474 8.79395V11.1924H91.3092V8.79395C91.7182 8.79395 92.1273 8.79395 92.5921 8.79395Z" fill="white"/>
</g>
<defs>
<clipPath id="clip0_648_2035">
<rect width="130" height="30.3247" fill="white"/>
</clipPath>
</defs>
</svg>
