<svg width="119" height="25" viewBox="0 0 119 25" fill="none" xmlns="http://www.w3.org/2000/svg">
<path d="M39.2784 16.9988H43.8233C44.1521 16.9988 44.4152 17.2619 44.4152 17.5907V20.4404C44.4152 20.7692 44.1521 21.0323 43.8233 21.0323H34.5434C34.2146 21.0323 33.9515 20.7692 33.9515 20.4404V4.628C33.9515 4.29919 34.2146 4.03613 34.5434 4.03613H38.6865C39.0153 4.03613 39.2784 4.29919 39.2784 4.628V16.9988Z" fill="white"/>
<path d="M63.663 4.89836L58.0074 15.8735V20.4404C58.0074 20.7692 57.7443 21.0323 57.4155 21.0323H53.2724C52.9436 21.0323 52.6805 20.7692 52.6805 20.4404V15.8735L47.0249 4.89836C46.8203 4.50378 47.1053 4.03613 47.551 4.03613H52.2933C52.5271 4.03613 52.739 4.17497 52.834 4.38687L55.3914 10.0644L57.9489 4.38687C58.0439 4.17497 58.2558 4.03613 58.4896 4.03613H63.1369C63.5826 4.03613 63.8676 4.50378 63.663 4.89836Z" fill="white"/>
<path d="M82.7047 21.0323H78.284C78.0867 21.0323 77.8967 20.93 77.7871 20.7692L72.3215 12.4904V20.4477C72.3215 20.7765 72.0584 21.0396 71.7296 21.0396H67.5865C67.2577 21.0396 66.9946 20.7765 66.9946 20.4477V4.628C66.9946 4.29919 67.2577 4.03613 67.5865 4.03613H71.9999C72.2045 4.03613 72.3872 4.13843 72.4968 4.30649L77.9625 12.7315V4.628C77.9625 4.29919 78.2255 4.03613 78.5543 4.03613H82.6974C83.0263 4.03613 83.2893 4.29919 83.2893 4.628V20.4404C83.2893 20.7692 83.0263 21.0323 82.6974 21.0323H82.7047Z" fill="white"/>
<path d="M92.7078 8.28152V10.3713H97.3989C97.7277 10.3713 97.9908 10.6344 97.9908 10.9632V13.7837C97.9908 14.1125 97.7277 14.3756 97.3989 14.3756H92.7078V16.7796H98.115C98.4438 16.7796 98.7069 17.0426 98.7069 17.3715V20.4331C98.7069 20.7619 98.4438 21.025 98.115 21.025H87.9655C87.6367 21.025 87.3737 20.7619 87.3737 20.4331V4.628C87.3737 4.29919 87.6367 4.03613 87.9655 4.03613H98.115C98.4438 4.03613 98.7069 4.29919 98.7069 4.628V7.68965C98.7069 8.01846 98.4438 8.28152 98.115 8.28152H92.7078Z" fill="white"/>
<path d="M113.066 20.7843L110.122 16.6193L107.703 20.7478C107.593 20.9305 107.403 21.0401 107.192 21.0401H102.537C102.069 21.0401 101.784 20.5213 102.04 20.1267L107.053 12.2716L101.879 4.9719C101.602 4.57732 101.879 4.0366 102.362 4.0366H107.221C107.411 4.0366 107.593 4.1316 107.703 4.28504L110.531 8.28199L112.854 4.32158C112.964 4.1389 113.154 4.0293 113.366 4.0293H118.021C118.488 4.0293 118.773 4.5481 118.517 4.94268L113.6 12.6297L118.89 20.0975C119.168 20.492 118.89 21.0328 118.408 21.0328H113.549C113.359 21.0328 113.176 20.9378 113.066 20.7843Z" fill="white"/>
<path d="M12.075 8.10637L5.769 12.2714C5.58632 12.3956 5.58632 12.666 5.769 12.7902L12.1334 16.9917C12.4549 17.2036 12.6522 17.569 12.6522 17.9562V24.5545C12.6522 24.8175 12.3526 24.9783 12.1334 24.8248L0.873289 16.9698C0.581008 16.7652 0.40564 16.4364 0.40564 16.0783V8.99052C0.40564 8.63248 0.581008 8.30366 0.873289 8.09906L12.1334 0.236703C12.3526 0.083255 12.6522 0.236702 12.6522 0.507062V7.03954C12.6522 7.47066 12.433 7.87254 12.075 8.11368V8.10637Z" fill="white"/>
<path d="M27.223 8.99032V16.0781C27.223 16.4362 27.0476 16.765 26.7554 16.9696L15.4879 24.832C15.2687 24.9854 14.9691 24.832 14.9691 24.5616V17.9634C14.9691 17.5761 15.1664 17.2107 15.4879 16.9988L21.8523 12.7973C22.035 12.6731 22.035 12.4027 21.8523 12.2785L15.5464 8.11348C15.1883 7.87235 14.9691 7.47046 14.9691 7.03935V0.506867C14.9691 0.243814 15.2687 0.0830594 15.4879 0.236507L26.7554 8.09887C27.0476 8.30346 27.223 8.63228 27.223 8.99032Z" fill="white"/>
</svg>
