<svg width="44" height="45" viewBox="0 0 44 45" fill="none" xmlns="http://www.w3.org/2000/svg">
<path d="M31.1797 23.4144C29.9213 15.4095 22.9322 9.70708 15.1428 10.1844C14.787 10.2042 14.4313 10.2386 14.0758 10.2877C8.78778 10.9925 4.50605 14.4068 2.37538 19.0034C2.0902 16.924 2.22121 14.8089 2.76077 12.7809C3.30034 10.7528 4.23765 8.8525 5.5182 7.19055C10.7704 0.318187 20.4433 -1.10489 27.1248 4.01083C28.2118 4.84188 29.1789 5.81928 29.9986 6.91522C33.4949 11.5918 34.0013 18.0445 31.1797 23.4144Z" fill="white"/>
<path d="M26.4199 40.9702C24.1551 43.0956 21.2821 44.4578 18.204 44.8652C9.86674 45.9775 2.18317 39.9253 1.04244 31.351C0.634718 28.3431 1.0971 25.2814 2.37485 22.5286C4.50522 17.9322 8.78714 14.5181 14.0753 13.8133C14.4309 13.7645 14.7866 13.7301 15.1423 13.71C11.5769 17.0345 9.61988 22.0576 10.3241 27.3532C10.6899 30.1517 11.7922 32.8025 13.5182 35.0342C16.5481 38.9414 21.3109 41.2846 26.4199 40.9702Z" fill="white"/>
<path d="M30.6895 39.2651C30.3346 39.313 29.9789 39.3489 29.6226 39.3677C24.5141 39.6821 19.7513 37.3388 16.7217 33.4311C22.5152 34.8863 28.9634 32.7996 32.9117 27.6353C33.4662 26.9122 33.9582 26.1431 34.3825 25.3365C37.2049 19.9672 36.6987 13.5138 33.2008 8.83691C38.6457 10.6418 42.8929 15.5236 43.7194 21.727C44.86 30.3019 39.0273 38.1561 30.6895 39.2651Z" fill="white"/>
</svg>
