<svg width="153" height="31" viewBox="0 0 153 31" fill="none" xmlns="http://www.w3.org/2000/svg">
<path d="M14.8659 0.282108C22.2096 -0.202854 28.5487 4.54285 30.4539 11.1938V11.263C30.4886 11.367 30.5925 11.4016 30.6964 11.4362H30.7311C31.9781 11.4362 32.8788 11.2284 33.433 11.0898C33.4676 11.0898 33.5023 11.0552 33.5369 11.0552H33.6408C33.9526 11.0552 34.1951 11.2977 34.1951 11.6094V14.1382C34.1604 14.346 34.0565 14.5192 33.8833 14.5885C33.814 14.5885 33.7794 14.6231 33.7101 14.6231C33.2252 14.7617 32.3592 14.9695 31.2853 15.0735H31.1814C31.0775 15.1081 30.9736 15.212 30.9736 15.3159V15.3506V15.3852C30.9736 15.7316 30.9736 16.078 30.9389 16.4244V16.4591C30.9389 16.5976 31.0428 16.7016 31.1814 16.7362H31.2507C32.2206 16.6669 32.9134 16.5284 33.3984 16.3898C33.433 16.3898 33.4676 16.3552 33.5023 16.3552H33.6062C33.8833 16.3552 34.1258 16.563 34.1604 16.8401V19.4381C34.1604 19.646 34.0219 19.8538 33.814 19.9231C33.7794 19.9231 33.7101 19.9577 33.6755 19.9577C33.052 20.1309 31.8049 20.4081 30.2807 20.4773H30.2461C30.1422 20.4773 30.0729 20.5466 30.0036 20.6159C30.0036 20.6159 30.0036 20.6505 29.969 20.6505C27.8559 26.4354 22.2789 30.5576 15.7665 30.5576C7.03718 30.5576 0.0745065 23.1793 0.69803 14.346C1.35619 6.79446 7.41822 0.801711 14.8659 0.282108ZM67.0686 11.7826C68.4889 11.7826 69.5974 12.233 70.3941 13.099C71.1908 13.965 71.5718 15.2467 71.5718 16.8748C71.5718 18.0179 71.3294 18.9878 70.879 19.8192C70.4287 20.6505 69.7706 21.2741 68.9392 21.7244C68.1078 22.1747 67.1379 22.3825 65.9948 22.3825C65.4405 22.3825 64.8863 22.3133 64.2628 22.1747V26.7472H61.3184V11.9559H63.57L64.0203 13.1683C64.4706 12.6833 64.9209 12.3369 65.3713 12.1291C65.8909 11.8866 66.4451 11.7826 67.0686 11.7826ZM15.9051 4.02325C9.6352 4.02325 4.57773 9.11536 4.57773 15.3506C4.57773 21.5858 9.66984 26.6779 15.9051 26.6779C20.4083 26.6779 24.3226 24.0453 26.1239 20.2002C26.1586 20.1656 26.1586 20.0963 26.1932 20.0617V20.027C26.1932 19.9231 26.1239 19.8192 26.02 19.7845H25.9507L25.8122 19.7499C22.556 18.6414 19.473 19.1957 18.122 19.5421H17.9835C17.7064 19.5421 17.4639 19.3342 17.4292 19.0917V16.2859C17.4639 16.1127 17.6024 15.9395 17.741 15.8702H17.7756C18.6763 15.5238 21.2743 14.831 25.7775 16.0088C26.0893 16.078 26.401 16.182 26.7128 16.2166C26.7474 16.2166 26.8167 16.2512 26.8514 16.2512C26.9899 16.2512 27.0938 16.1473 27.0938 16.0434V15.9395C27.0938 15.7316 27.1285 15.5584 27.1285 15.3506V14.9695C27.1285 14.8656 27.0592 14.7963 26.9553 14.7617H26.9206C26.5742 14.6924 26.2625 14.5885 25.9161 14.4846L25.7775 14.4499C22.6253 13.3415 19.6116 13.8611 18.226 14.2075C18.1567 14.2421 18.0528 14.2421 17.9835 14.2767H17.9488C17.6717 14.2767 17.4292 14.0689 17.3946 13.8264V11.0206C17.4292 10.8474 17.5332 10.7088 17.7064 10.6395C17.741 10.6395 17.7756 10.6049 17.8103 10.6049C18.7456 10.2585 21.2743 9.63496 25.5697 10.7434H25.6736C25.8468 10.7434 25.9507 10.6049 25.9507 10.4663V10.397C25.9507 10.3624 25.9161 10.3278 25.9161 10.2931C24.1841 6.55198 20.339 4.02325 15.9051 4.02325ZM125.507 11.7134C128.59 11.7134 130.114 13.4454 130.114 16.944V17.6022H123.186C123.324 19.3689 124.225 20.2349 125.888 20.2349C126.407 20.2349 126.927 20.1656 127.446 20.0617C127.966 19.9577 128.52 19.7499 129.178 19.5074L129.871 21.3433C128.312 22.0708 126.858 22.4172 125.541 22.4172C123.913 22.4172 122.631 21.9322 121.696 20.9969C120.761 20.0617 120.311 18.7453 120.311 17.048C120.311 15.3506 120.761 14.0689 121.662 13.1336C122.597 12.1637 123.879 11.7134 125.507 11.7134ZM78.0149 11.7134C81.0979 11.7134 82.6221 13.4454 82.6221 16.944V17.6022H75.694C75.8326 19.3689 76.7332 20.2349 78.396 20.2349C78.9156 20.2349 79.4352 20.1656 79.9548 20.0617C80.4744 19.9577 81.0286 19.7499 81.6868 19.5074L82.3796 21.3433C80.8208 22.0708 79.3659 22.4172 78.0496 22.4172C76.4215 22.4172 75.1398 21.9322 74.2045 20.9969C73.2692 20.0617 72.8189 18.7453 72.8189 17.048C72.8189 15.3506 73.2692 14.0689 74.1699 13.1336C75.1051 12.1637 76.3868 11.7134 78.0149 11.7134ZM102.921 8.07615C105.069 8.07615 106.732 8.69967 107.875 9.91208C109.018 11.1245 109.607 12.8911 109.607 15.1774C109.607 17.4636 109.053 19.2996 107.909 20.5466C106.766 21.7937 105.104 22.3825 102.956 22.3825C100.808 22.3825 99.1108 21.759 97.9677 20.5466C96.8245 19.2996 96.2703 17.5329 96.2703 15.1774C96.2703 12.8219 96.8592 11.1591 98.0023 9.91208C99.1108 8.69967 100.774 8.07615 102.921 8.07615ZM52.5197 8.07615C54.6674 8.07615 56.3302 8.69967 57.4733 9.91208C58.6164 11.1245 59.2053 12.8911 59.2053 15.1774C59.2053 17.4636 58.6511 19.2996 57.5079 20.5466C56.3648 21.7937 54.7021 22.3825 52.5544 22.3825C50.4067 22.3825 48.7093 21.759 47.5662 20.5466C46.4231 19.2996 45.8688 17.5329 45.8688 15.1774C45.8688 12.8219 46.4577 11.1591 47.6008 9.91208C48.6747 8.69967 50.3374 8.07615 52.5197 8.07615ZM136.037 11.7134C137.492 11.7134 138.601 12.0598 139.363 12.7872C140.125 13.5147 140.54 14.5539 140.54 15.9048V22.2093H138.116L137.769 20.9969C137.354 21.4473 136.869 21.7937 136.349 22.0015C135.829 22.244 135.241 22.3479 134.652 22.3479C133.578 22.3479 132.746 22.0708 132.123 21.5165C131.499 20.9623 131.188 20.2349 131.188 19.2996C131.188 18.2257 131.638 17.3944 132.539 16.7708C133.439 16.182 134.721 15.8702 136.349 15.8702H137.596V15.6277C137.561 14.4499 136.869 13.8264 135.587 13.8264C135.137 13.8264 134.617 13.8957 134.028 14.0343C133.439 14.1728 132.92 14.346 132.435 14.5539L131.811 12.5794C132.504 12.3023 133.197 12.0944 133.959 11.9559C134.721 11.8173 135.379 11.7134 136.037 11.7134ZM116.292 11.748C117.332 11.748 118.336 11.9905 119.271 12.4755L118.613 14.4153C117.92 14.0343 117.228 13.8611 116.604 13.8611C115.738 13.8611 115.08 14.1382 114.63 14.6924C114.179 15.2467 113.937 16.0088 113.937 17.0133C113.937 18.0179 114.179 18.78 114.664 19.3342C115.149 19.8885 115.842 20.1656 116.708 20.1656C117.435 20.1656 118.163 19.9924 118.856 19.6806L119.341 21.6897C118.856 21.8976 118.371 22.0708 117.816 22.1747C117.262 22.2786 116.743 22.3479 116.258 22.3479C114.56 22.3479 113.244 21.8976 112.343 20.9623C111.443 20.0617 110.992 18.7453 110.992 17.0133C110.992 15.2813 111.443 14.0343 112.378 13.099C113.279 12.1983 114.595 11.748 116.292 11.748ZM90.9704 11.748C92.0442 11.748 92.8756 12.0598 93.4644 12.6833C94.0533 13.3068 94.3305 14.2075 94.3305 15.3506V22.1747H91.386V15.4892C91.386 14.9003 91.2821 14.4499 91.0396 14.1728C90.7972 13.8957 90.4161 13.7571 89.8965 13.7571C89.4115 13.7571 88.9959 13.8611 88.5802 14.0689C88.1645 14.2767 87.8527 14.5885 87.5756 14.9349V22.1401H84.6312V11.8519H87.0906L87.4024 13.2722C88.3031 12.2676 89.5155 11.748 90.9704 11.748ZM149.374 11.748C150.448 11.748 151.279 12.0598 151.868 12.6833C152.457 13.3068 152.734 14.2075 152.734 15.3506V22.1747H149.789V15.4892C149.789 14.9003 149.685 14.4499 149.443 14.1728C149.201 13.8957 148.819 13.7571 148.3 13.7571C147.815 13.7571 147.399 13.8611 146.984 14.0689C146.568 14.2767 146.256 14.5885 145.979 14.9349V22.1401H143.035V11.8519H145.494L145.806 13.2722C146.706 12.2676 147.919 11.748 149.374 11.748ZM137.596 17.4983H136.591C135.76 17.4983 135.102 17.6368 134.652 17.914C134.201 18.1911 133.959 18.6068 133.959 19.1264C133.959 19.5421 134.097 19.8538 134.34 20.0963C134.582 20.3041 134.963 20.4427 135.414 20.4427C135.829 20.4427 136.245 20.3388 136.626 20.1656C137.007 19.9924 137.354 19.7153 137.596 19.4035V17.4983ZM66.4451 13.8611C65.9255 13.8611 65.4752 13.9996 65.0941 14.2767C64.7131 14.5539 64.436 14.9695 64.2974 15.4545V20.1309C64.6785 20.2349 64.9556 20.2695 65.1634 20.3041C65.3713 20.3388 65.5791 20.3388 65.8562 20.3388C66.7569 20.3388 67.415 20.0617 67.9 19.4728C68.3849 18.8839 68.6274 18.0525 68.6274 16.944C68.6274 14.8656 67.9 13.8611 66.4451 13.8611ZM52.5197 10.4317C51.342 10.4317 50.4413 10.8474 49.8524 11.6441C49.2636 12.4408 48.9518 13.6186 48.9518 15.1774C48.9518 16.7362 49.2636 17.9832 49.8524 18.78C50.4413 19.6113 51.342 20.027 52.5197 20.027C53.6975 20.027 54.5982 19.6113 55.187 18.78C55.7759 17.9486 56.0877 16.7362 56.0877 15.1774C56.0877 13.6186 55.7759 12.4408 55.187 11.6441C54.5635 10.8474 53.6629 10.4317 52.5197 10.4317ZM102.921 10.4317C101.743 10.4317 100.843 10.8474 100.254 11.6441C99.665 12.4408 99.3533 13.6186 99.3533 15.1774C99.3533 16.7362 99.665 17.9832 100.254 18.78C100.843 19.5767 101.743 20.027 102.921 20.027C104.099 20.027 105 19.6113 105.589 18.78C106.177 17.9486 106.489 16.7362 106.489 15.1774C106.489 13.6186 106.177 12.4408 105.589 11.6441C105 10.8474 104.099 10.4317 102.921 10.4317ZM78.0496 13.7571C77.3914 13.7571 76.8718 13.9303 76.5254 14.2767C76.1443 14.6231 75.9019 15.1774 75.798 15.9048H79.9548C79.8509 14.4499 79.2273 13.7571 78.0496 13.7571ZM125.507 13.7571C124.848 13.7571 124.329 13.9303 123.982 14.2767C123.601 14.6231 123.359 15.1774 123.255 15.9048H127.412C127.308 14.4499 126.684 13.7571 125.507 13.7571Z" fill="white"/>
</svg>
