<svg width="134" height="29" viewBox="0 0 134 29" fill="none" xmlns="http://www.w3.org/2000/svg">
<mask id="mask0_648_1895" style="mask-type:luminance" maskUnits="userSpaceOnUse" x="0" y="0" width="134" height="29">
<path d="M133.903 0.723633H0.462891V28.2906H133.903V0.723633Z" fill="white"/>
</mask>
<g mask="url(#mask0_648_1895)">
<path d="M28.0571 0.723633H23.9763L25.2034 4.46201L17.4983 10.0553L23.6053 14.5071L30.8537 9.25628L28.0571 0.723633Z" fill="white"/>
<path d="M6.1133 4.4337L7.3404 0.695312H3.25957L0.491455 9.19942L7.73992 14.4788L13.8469 10.0555L6.1133 4.4337Z" fill="white"/>
<path d="M14.9596 5.23252L8.76706 0.723633L7.71118 3.91981L14.9596 9.1992V5.23252Z" fill="white"/>
<path d="M22.5493 0.723633L16.3567 5.20398V9.17066L23.6052 3.91981L22.5493 0.723633Z" fill="white"/>
<path d="M7.73972 16.1628L7.71118 16.2198L14.9596 21.4992V10.9404L7.73972 16.1628Z" fill="white"/>
<path d="M23.5766 16.163L16.3567 10.9121V21.4709L23.6052 16.22L23.5766 16.163Z" fill="white"/>
<path d="M14.9594 23.1536L9.08075 18.873L7.7395 23.011L14.988 28.2903L14.9594 23.1536Z" fill="white"/>
<path d="M22.2366 18.873L16.3293 23.1536V28.2618L23.5778 23.011L22.2366 18.873Z" fill="white"/>
<path d="M48.6631 11.2259C48.2921 11.8823 47.7214 12.4245 47.065 12.7384C46.3516 13.1379 45.4384 13.3091 44.3825 13.3091H42.3849V18.0178H39.1887V4.89062H44.3825C45.4384 4.89062 46.323 5.06185 47.0365 5.43284C47.7214 5.74675 48.2921 6.28895 48.6631 6.91677C49.0341 7.57313 49.2338 8.34364 49.2053 9.11414C49.2053 9.85611 49.0055 10.5695 48.6631 11.2259ZM45.4955 10.3412C45.7808 10.0559 45.9521 9.65635 45.9521 9.11414C45.9521 8.57193 45.8094 8.17241 45.4955 7.88704C45.2101 7.60167 44.7535 7.45898 44.1257 7.45898H42.3849V10.7408H44.1257C44.725 10.7693 45.1815 10.6266 45.4955 10.3412Z" fill="white"/>
<path d="M59.0507 15.7063H54.1423L53.3433 18.0178H50.0044L54.7701 4.89062H58.48L63.2457 18.0178H59.8498L59.0507 15.7063ZM58.2231 13.252L56.5965 8.42925L54.9984 13.252H58.2231Z" fill="white"/>
<path d="M76.3992 18.0461H73.203L67.838 9.9415V18.0461H64.6418V4.91895H67.838L73.203 13.0521V4.91895H76.3992V18.0461Z" fill="white"/>
<path d="M87.4448 9.05679C87.2165 8.62874 86.8455 8.28629 86.4174 8.05799C85.9323 7.82969 85.3901 7.68701 84.8479 7.71554C83.8205 7.71554 82.993 8.05799 82.3651 8.74288C81.7373 9.42778 81.4234 10.341 81.4234 11.4825C81.4234 12.681 81.7373 13.6513 82.3937 14.3077C83.05 14.9925 83.9347 15.335 85.1047 15.335C85.8182 15.3635 86.503 15.1352 87.1023 14.7357C87.6731 14.3077 88.0726 13.7084 88.3009 13.0235H84.2486V10.6549H91.2117V13.6228C90.9549 14.4503 90.5553 15.1923 90.0131 15.8487C89.4138 16.5621 88.6719 17.1328 87.8443 17.5038C86.9311 17.9319 85.9038 18.1602 84.8764 18.1316C83.6779 18.1602 82.4793 17.8463 81.3949 17.2755C80.3961 16.7333 79.5685 15.9057 79.0263 14.9069C78.4555 13.8511 78.1702 12.6525 78.1702 11.4539C78.1702 10.2554 78.4555 9.0568 79.0263 8.00092C79.5685 7.00211 80.3961 6.17453 81.3949 5.63232C82.4508 5.06158 83.6493 4.74767 84.8479 4.7762C86.4174 4.7762 87.7587 5.14719 88.8146 5.91769C89.899 6.65966 90.6409 7.80115 90.9549 9.08533H87.4448V9.05679Z" fill="white"/>
<path d="M95.8051 17.3035C94.7778 16.7327 93.9502 15.9051 93.3509 14.9063C92.7516 13.8505 92.4377 12.6519 92.4377 11.4533C92.4377 10.2262 92.7516 9.0562 93.3509 8.00032C93.9502 7.00152 94.7778 6.17393 95.8051 5.60319C96.861 5.03244 98.0025 4.74707 99.2011 4.74707C100.4 4.74707 101.57 5.03244 102.597 5.60319C103.624 6.17393 104.452 7.00152 105.023 8.00032C105.622 9.0562 105.907 10.2548 105.907 11.4819C105.907 12.6804 105.593 13.879 105.023 14.9349C104.452 15.9337 103.596 16.7613 102.597 17.332C101.57 17.9028 100.4 18.1881 99.2011 18.1881C98.0025 18.1596 96.861 17.8742 95.8051 17.3035ZM101.712 14.1929C102.34 13.4795 102.654 12.5663 102.654 11.4248C102.654 10.2833 102.34 9.34157 101.712 8.65668C101.085 7.97178 100.257 7.62934 99.2011 7.62934C98.1452 7.62934 97.3176 7.97178 96.6613 8.65668C96.0334 9.34157 95.7195 10.2833 95.7195 11.4533C95.7195 12.6234 96.0334 13.5651 96.6613 14.2214C97.2891 14.9063 98.1452 15.2488 99.2011 15.2488C100.257 15.2488 101.113 14.9063 101.712 14.1929Z" fill="white"/>
<path d="M110.901 15.5633H115.096V18.0461H107.705V4.91895H110.901V15.5633Z" fill="white"/>
<path d="M119.834 4.89062V18.0178H116.638V4.89062H119.834Z" fill="white"/>
<path d="M133.903 18.0461H130.707L125.342 9.9415V18.0461H122.146V4.91895H125.342L130.707 13.0521V4.91895H133.903V18.0461Z" fill="white"/>
<path d="M39.8738 26.5497C39.6741 26.4641 39.5029 26.3214 39.3602 26.1502C39.246 25.9789 39.1604 25.7506 39.1604 25.5509H39.7311C39.7597 25.7506 39.8453 25.9219 39.988 26.036C40.1592 26.1787 40.3875 26.2643 40.6158 26.2358C40.8441 26.2358 41.0439 26.1787 41.2436 26.036C41.3292 25.9789 41.3863 25.8933 41.4148 25.8077C41.4434 25.7221 41.4719 25.6365 41.4719 25.5223C41.4719 25.3797 41.4434 25.237 41.3292 25.1228C41.2436 25.0087 41.1295 24.9516 40.9868 24.8945C40.8156 24.8374 40.6443 24.7804 40.4446 24.7233C40.2163 24.6662 39.988 24.6092 39.7882 24.495C39.617 24.4094 39.4743 24.2952 39.3602 24.1526C39.246 23.9813 39.1604 23.753 39.1889 23.5247C39.1889 23.2964 39.246 23.0967 39.3602 22.9255C39.4743 22.7542 39.6455 22.6115 39.8453 22.5259C40.0736 22.4403 40.3304 22.3832 40.5587 22.3832C40.9012 22.3547 41.2436 22.4689 41.529 22.6686C41.6431 22.7542 41.7573 22.8684 41.8144 23.0111C41.9 23.1538 41.9285 23.2964 41.9285 23.4391H41.3292C41.3007 23.2679 41.2151 23.1252 41.0724 23.0111C40.9012 22.8969 40.7014 22.8113 40.4731 22.8398C40.2734 22.8398 40.0736 22.8969 39.9024 23.0111C39.8168 23.0681 39.7597 23.1538 39.7311 23.2394C39.7026 23.325 39.6741 23.4106 39.6741 23.5247C39.6741 23.6674 39.7026 23.7816 39.8168 23.8957C39.9024 23.9813 40.0165 24.0669 40.1307 24.124C40.2448 24.1811 40.4446 24.2382 40.6729 24.2952C40.9012 24.3523 41.1295 24.4379 41.3292 24.5235C41.5005 24.6092 41.6431 24.7233 41.7573 24.866C41.9 25.0372 41.9571 25.2655 41.9285 25.4938C41.9285 25.6936 41.8714 25.8933 41.7573 26.0646C41.6431 26.2643 41.4719 26.407 41.2722 26.4926C41.0439 26.6068 40.787 26.6638 40.5302 26.6638C40.359 26.6924 40.1307 26.6353 39.8738 26.5497Z" fill="white"/>
<path d="M42.8123 24.1248C42.955 23.868 43.1262 23.6682 43.3831 23.5255C43.6684 23.3829 43.9823 23.2972 44.2962 23.3258C44.6102 23.3543 44.9241 23.4399 45.2094 23.6111C45.4663 23.8109 45.666 24.0963 45.7231 24.4387H45.1238C45.0668 24.239 44.9526 24.0677 44.8099 23.9536C44.6387 23.8395 44.4104 23.7824 44.2106 23.7824C44.068 23.7824 43.9253 23.8109 43.7826 23.868C43.6399 23.9251 43.5257 24.0107 43.4401 24.1248C43.2404 24.3817 43.1262 24.6956 43.1548 25.038C43.1262 25.3805 43.2404 25.6944 43.4401 25.9512C43.5257 26.0654 43.6399 26.151 43.7826 26.208C43.9253 26.2651 44.068 26.2937 44.2106 26.2937C44.4104 26.2937 44.6387 26.2366 44.8099 26.1224C44.9811 26.0083 45.0953 25.8371 45.1524 25.6373H45.7231C45.6375 25.9512 45.4663 26.2366 45.2094 26.4363C44.9241 26.6361 44.5816 26.7502 44.2106 26.7502C43.9253 26.7502 43.6399 26.6932 43.3831 26.5505C43.1548 26.4078 42.955 26.208 42.8123 25.9512C42.6696 25.6658 42.6125 25.3519 42.6125 25.038C42.6125 24.6956 42.6696 24.3817 42.8123 24.1248Z" fill="white"/>
<path d="M46.4647 24.1248C46.5788 23.868 46.7786 23.6682 47.0354 23.5255C47.2922 23.3829 47.5491 23.2972 47.8344 23.3258C48.0913 23.3258 48.3481 23.3829 48.5764 23.5255C48.7762 23.6397 48.9474 23.7824 49.0615 23.9821V23.3829H49.6038V26.6646H49.0615V26.0654C48.9474 26.2651 48.7762 26.4363 48.5764 26.5505C48.3481 26.6932 48.0913 26.7502 47.8344 26.7502C47.5491 26.7502 47.2922 26.6932 47.0354 26.522C46.8071 26.3793 46.6073 26.1795 46.4647 25.9227C46.322 25.6373 46.2649 25.3519 46.2649 25.038C46.2649 24.6956 46.322 24.3817 46.4647 24.1248ZM48.8903 24.3531C48.8047 24.1819 48.662 24.0392 48.4908 23.9251C48.3196 23.8394 48.1198 23.7824 47.9201 23.7824C47.7203 23.7824 47.5205 23.8394 47.3493 23.9251C47.1781 24.0107 47.0354 24.1819 46.9498 24.3531C46.8356 24.5529 46.8071 24.7812 46.8071 25.0095C46.8071 25.2378 46.8642 25.4661 46.9498 25.6658C47.0354 25.8371 47.1781 25.9797 47.3493 26.0939C47.5205 26.1795 47.7203 26.2366 47.9201 26.2366C48.1198 26.2366 48.3196 26.1795 48.4908 26.0939C48.662 25.9797 48.8047 25.8371 48.8903 25.6658C49.0045 25.4661 49.033 25.2378 49.033 25.0095C49.033 24.7812 48.9759 24.5529 48.8903 24.3531Z" fill="white"/>
<path d="M51.0591 22.2129V26.6362H50.5168V22.2129H51.0591Z" fill="white"/>
<path d="M54.9694 25.2087H52.344C52.344 25.3513 52.3725 25.494 52.4296 25.6082C52.4867 25.7223 52.5723 25.865 52.6579 25.9506C52.7435 26.0362 52.8862 26.1218 53.0003 26.1789C53.143 26.236 53.2572 26.2645 53.3999 26.236C53.5996 26.236 53.8279 26.1789 53.9992 26.0648C54.1418 25.9506 54.2845 25.8079 54.3416 25.6367H54.9409C54.8553 25.9506 54.684 26.2075 54.3987 26.4072C54.1133 26.607 53.7709 26.7211 53.4284 26.6926C53.143 26.6926 52.8577 26.6355 52.6008 26.4928C52.344 26.3501 52.1442 26.1504 52.0301 25.8935C51.8874 25.6082 51.8303 25.3228 51.8303 25.0089C51.8303 24.695 51.8874 24.3811 52.0301 24.1242C52.1728 23.8674 52.344 23.6676 52.6008 23.525C52.8577 23.3823 53.143 23.3252 53.4569 23.3252C53.7423 23.3252 54.0277 23.3823 54.2845 23.525C54.5128 23.6676 54.7126 23.8389 54.8267 24.0957C54.9694 24.3525 55.0265 24.6094 55.0265 24.8947C54.998 25.0089 54.9694 25.0945 54.9694 25.2087ZM54.2845 24.2384C54.1989 24.0957 54.0562 23.9815 53.9135 23.8959C53.7423 23.8103 53.5711 23.7818 53.3999 23.7818C53.143 23.7818 52.8862 23.8674 52.6864 24.0386C52.4867 24.2384 52.3725 24.4952 52.344 24.7806H54.4272C54.4272 24.5808 54.3701 24.3811 54.2845 24.2384Z" fill="white"/>
<path d="M60.1354 23.3535L58.1377 28.1763H57.567L58.2234 26.6068L56.9106 23.3535H57.5099L58.5373 26.0075L59.5646 23.3535H60.1354Z" fill="white"/>
<path d="M61.2767 26.4928C61.0198 26.3501 60.8201 26.1504 60.6774 25.8935C60.5347 25.6082 60.4491 25.3228 60.4776 25.0089C60.4776 24.695 60.5347 24.3811 60.7059 24.1242C60.8486 23.8674 61.0484 23.6676 61.3052 23.525C61.5621 23.3823 61.8474 23.3252 62.1613 23.3252C62.4467 23.3252 62.7321 23.3823 63.0175 23.525C63.2743 23.6676 63.474 23.8674 63.6167 24.1242C63.7594 24.4096 63.845 24.695 63.845 25.0089C63.845 25.3228 63.7594 25.6367 63.6167 25.8935C63.474 26.1504 63.2743 26.3501 63.0175 26.4928C62.7606 26.6355 62.4752 26.6926 62.1613 26.6926C61.8189 26.7211 61.5335 26.6355 61.2767 26.4928ZM62.675 26.0933C62.8462 26.0077 62.9889 25.865 63.1031 25.6938C63.2172 25.494 63.2457 25.2657 63.2457 25.0089C63.2457 24.7521 63.1887 24.5523 63.1031 24.324C63.0174 24.1528 62.8748 24.0101 62.7035 23.9245C62.5323 23.8389 62.3611 23.7818 62.1613 23.7818C61.9616 23.7818 61.7904 23.8389 61.6191 23.9245C61.4479 24.0101 61.3052 24.1528 61.2196 24.324C61.1055 24.5238 61.0484 24.7521 61.0769 25.0089C61.0769 25.2372 61.1055 25.4655 61.2196 25.6938C61.3052 25.865 61.4479 26.0077 61.6191 26.0933C61.7904 26.1789 61.9616 26.236 62.1613 26.236C62.304 26.236 62.5038 26.1789 62.675 26.0933Z" fill="white"/>
<path d="M67.439 23.3535V26.6353H66.8968V26.1502C66.7827 26.3214 66.64 26.4641 66.4687 26.5497C66.269 26.6353 66.0692 26.6924 65.8409 26.6924C65.6126 26.6924 65.3558 26.6353 65.156 26.5212C64.9563 26.407 64.785 26.2358 64.6709 26.036C64.5567 25.8077 64.4711 25.5224 64.4997 25.2655V23.3535H65.0419V25.2084C65.0133 25.4938 65.099 25.7506 65.2987 25.9504C65.3843 26.036 65.4985 26.1216 65.6126 26.1502C65.7268 26.2072 65.8409 26.2072 65.9836 26.2072C66.0978 26.2072 66.2404 26.2072 66.3546 26.1502C66.4687 26.0931 66.5829 26.036 66.6685 25.9504C66.8397 25.7221 66.9253 25.4367 66.9253 25.1514V23.3535H67.439Z" fill="white"/>
<path d="M69.3228 23.4681C69.5226 23.3539 69.7509 23.2969 69.9792 23.2969V23.8676H69.8365C69.2372 23.8676 68.9233 24.2101 68.9233 24.8664V26.6643H68.3811V23.3825H68.9233V23.9247C69.0089 23.7249 69.1516 23.5537 69.3228 23.4681Z" fill="white"/>
<path d="M74.6893 22.7259C75.0032 22.8971 75.2885 23.154 75.4598 23.4679C75.631 23.8103 75.7451 24.2098 75.7166 24.5808C75.7166 24.9803 75.631 25.3513 75.4598 25.6938C75.2885 26.0077 75.0032 26.2645 74.6893 26.4072C74.3183 26.5784 73.9188 26.664 73.4907 26.664H72.178V22.4976H73.4907C73.9188 22.4691 74.3183 22.5547 74.6893 22.7259ZM74.7463 25.7794C75.0317 25.494 75.1744 25.0945 75.1744 24.5808C75.1744 24.3525 75.1458 24.1242 75.0888 23.9245C75.0032 23.7247 74.889 23.5249 74.7463 23.3537C74.461 23.0683 74.0614 22.9257 73.5192 22.9257H72.7773V26.2074H73.5192C74.0329 26.2074 74.461 26.0648 74.7463 25.7794Z" fill="white"/>
<path d="M79.4257 25.2089H76.8003C76.8003 25.4086 76.8573 25.5799 76.9715 25.7511C77.0856 25.9223 77.2283 26.0365 77.371 26.1221C77.5422 26.2077 77.7135 26.2648 77.9132 26.2362C78.113 26.2362 78.2842 26.1791 78.4554 26.065C78.5981 25.9508 78.7408 25.8082 78.7979 25.6369H79.3972C79.3115 25.9508 79.1403 26.2077 78.8549 26.4074C78.5696 26.6072 78.2271 26.7213 77.8847 26.6928C77.5993 26.6928 77.2854 26.6357 77.0286 26.4645C76.7717 26.3218 76.572 26.1221 76.4578 25.8652C76.3151 25.5799 76.2581 25.2945 76.2581 24.9806C76.2581 24.6667 76.3151 24.3528 76.4578 24.0959C76.6005 23.8391 76.7717 23.6393 77.0286 23.4966C77.2854 23.3539 77.5708 23.2969 77.8847 23.2969C78.1701 23.2969 78.4554 23.3539 78.7123 23.4966C78.9406 23.6393 79.1403 23.8105 79.2545 24.0674C79.3972 24.3242 79.4542 24.5811 79.4542 24.8664C79.4257 24.9806 79.4257 25.0947 79.4257 25.2089ZM78.7408 24.2386C78.6552 24.0959 78.5125 23.9818 78.3698 23.8962C78.1986 23.8105 78.0274 23.782 77.8561 23.782C77.5993 23.782 77.3425 23.8676 77.1427 24.0388C76.943 24.2386 76.8288 24.4954 76.8003 24.7808H78.8835C78.8835 24.5811 78.8264 24.3813 78.7408 24.2386Z" fill="white"/>
<path d="M82.5073 22.4688V22.9253H80.6809V24.3237H82.1648V24.7803H80.6809V26.6637H80.1387V22.4973H82.5073V22.4688Z" fill="white"/>
<path d="M83.1914 22.7257C83.1343 22.6686 83.1058 22.6115 83.0772 22.5259C83.0487 22.4403 83.0773 22.3832 83.1058 22.2976C83.1343 22.2406 83.1914 22.1835 83.2485 22.1264C83.3055 22.0979 83.3912 22.0693 83.4482 22.0693C83.5053 22.0693 83.5339 22.0693 83.5909 22.0979C83.648 22.1264 83.6765 22.155 83.7051 22.1835C83.7621 22.2406 83.8192 22.3547 83.8192 22.4403C83.8192 22.5259 83.7907 22.6401 83.7051 22.6972C83.6765 22.7257 83.6195 22.7542 83.5909 22.7828C83.5339 22.8113 83.5053 22.8113 83.4482 22.8113C83.3912 22.8113 83.3626 22.8113 83.3056 22.7828C83.277 22.7828 83.2485 22.7542 83.1914 22.7257ZM83.7336 23.3535V26.6353H83.1914V23.3535H83.7336Z" fill="white"/>
<path d="M86.9305 23.8105V25.7511C86.9305 25.8081 86.9305 25.8652 86.959 25.9223C86.9875 25.9794 87.0161 26.0365 87.0446 26.0935C87.1588 26.1791 87.2729 26.2077 87.3871 26.1791H87.7866V26.6357H87.3015C87.0446 26.6643 86.8163 26.5787 86.6166 26.436C86.531 26.3504 86.4739 26.2362 86.4168 26.1221C86.3883 26.0079 86.3597 25.8652 86.3883 25.7511V23.8105H85.9602V23.3539H86.3883V22.5264H86.9305V23.3539H87.7866V23.8105H86.9305Z" fill="white"/>
<path d="M89.3863 23.4681C89.5861 23.3539 89.8144 23.2969 90.0427 23.2969V23.8676H89.9C89.3007 23.8676 88.9868 24.2101 88.9868 24.8664V26.6643H88.4446V23.3825H88.9868V23.9247C89.0724 23.7249 89.2151 23.5537 89.3863 23.4681Z" fill="white"/>
<path d="M90.6687 24.1248C90.8114 23.868 90.9827 23.6682 91.2395 23.5255C91.4963 23.3829 91.7532 23.2972 92.0385 23.3258C92.2954 23.3258 92.5522 23.3829 92.7805 23.5255C92.9803 23.6397 93.1515 23.7824 93.2656 23.9821V23.3829H93.8078V26.6646H93.2656V26.0654C93.1515 26.2651 92.9803 26.4363 92.7805 26.5505C92.5522 26.6932 92.2954 26.7502 92.0385 26.7502C91.7532 26.7502 91.4963 26.6932 91.2395 26.522C91.0112 26.3793 90.8114 26.1795 90.6687 25.9227C90.5261 25.6373 90.469 25.3519 90.469 25.038C90.469 24.6956 90.5261 24.3817 90.6687 24.1248ZM93.0944 24.3531C93.0088 24.1819 92.8661 24.0392 92.6949 23.9251C92.5237 23.8394 92.3239 23.7824 92.1242 23.7824C91.9244 23.7824 91.7246 23.8394 91.5534 23.9251C91.3822 24.0107 91.2395 24.1819 91.1539 24.3531C91.0397 24.5529 91.0112 24.7812 91.0112 25.0095C91.0112 25.2378 91.0683 25.4661 91.1539 25.6658C91.2395 25.8371 91.3822 25.9797 91.5534 26.0939C91.7246 26.1795 91.9244 26.2366 92.1242 26.2366C92.3239 26.2366 92.5237 26.1795 92.6949 26.0939C92.8661 25.9797 93.0088 25.8371 93.0944 25.6658C93.2086 25.4661 93.2371 25.2378 93.2371 25.0095C93.2656 24.7812 93.2086 24.5529 93.0944 24.3531Z" fill="white"/>
<path d="M94.7225 24.1249C94.8652 23.8681 95.0364 23.6683 95.2932 23.5256C95.5501 23.3829 95.8069 23.3258 96.0923 23.3258C96.3491 23.3258 96.5774 23.3829 96.8057 23.4971C97.0054 23.6112 97.1767 23.7539 97.3194 23.9537V22.2129H97.8616V26.6362H97.3194V26.0084C97.2052 26.2081 97.034 26.3793 96.8342 26.4935C96.6059 26.6362 96.3491 26.6932 96.0923 26.6932C95.8069 26.6932 95.5501 26.6076 95.2932 26.4649C95.0649 26.3223 94.8652 26.1225 94.7225 25.8657C94.5798 25.5803 94.5227 25.2949 94.5227 24.981C94.5227 24.6956 94.5798 24.3817 94.7225 24.1249ZM97.1481 24.3532C97.0625 24.182 96.9198 24.0393 96.7486 23.9251C96.5774 23.8395 96.3776 23.7824 96.1779 23.7824C95.9781 23.7824 95.7784 23.8395 95.6071 23.9251C95.4359 24.0107 95.2932 24.182 95.2076 24.3532C95.0934 24.5529 95.0649 24.7812 95.0649 25.0095C95.0649 25.2378 95.122 25.4661 95.2076 25.6659C95.2932 25.8371 95.4359 25.9798 95.6071 26.094C95.7784 26.1796 95.9781 26.2366 96.1779 26.2366C96.3776 26.2366 96.5774 26.1796 96.7486 26.094C96.9198 25.9798 97.0625 25.8371 97.1481 25.6659C97.2623 25.4661 97.2908 25.2378 97.2908 25.0095C97.3194 24.7812 97.2623 24.5529 97.1481 24.3532Z" fill="white"/>
<path d="M98.802 22.7257C98.7449 22.6686 98.7164 22.6115 98.6878 22.5259C98.6593 22.4403 98.6878 22.3832 98.7164 22.2976C98.7449 22.2406 98.802 22.1835 98.8591 22.1264C98.9161 22.0979 99.0018 22.0693 99.0588 22.0693C99.1159 22.0693 99.1444 22.0693 99.2015 22.0979C99.2586 22.1264 99.2871 22.155 99.3157 22.1835C99.3727 22.2406 99.4298 22.3547 99.4298 22.4403C99.4298 22.5259 99.4013 22.6401 99.3157 22.6972C99.2871 22.7257 99.2301 22.7542 99.2015 22.7828C99.1444 22.8113 99.1159 22.8113 99.0588 22.8113C99.0018 22.8113 98.9732 22.8113 98.9161 22.7828C98.8876 22.7828 98.8305 22.7542 98.802 22.7257ZM99.3157 23.3535V26.6353H98.7735V23.3535H99.3157Z" fill="white"/>
<path d="M102.827 23.6679C102.969 23.8105 103.055 23.9818 103.112 24.153C103.169 24.3242 103.198 24.524 103.198 24.7237V26.6643H102.655V24.8094C102.684 24.524 102.598 24.2671 102.399 24.0674C102.313 23.9818 102.199 23.8962 102.085 23.8676C101.971 23.8106 101.856 23.8105 101.714 23.8105C101.6 23.8105 101.457 23.8391 101.343 23.8676C101.229 23.9247 101.114 23.9818 101.029 24.0674C100.858 24.2957 100.743 24.5811 100.772 24.8379V26.6643H100.258V23.3825H100.801V23.8391C100.915 23.6679 101.057 23.5252 101.229 23.4396C101.428 23.354 101.628 23.2969 101.856 23.2969C102.028 23.2969 102.199 23.3254 102.37 23.3825C102.541 23.4396 102.713 23.5537 102.827 23.6679Z" fill="white"/>
<path d="M106.194 23.4966C106.393 23.6108 106.565 23.7535 106.679 23.9532V23.3539H107.221V26.7214C107.221 27.0067 107.164 27.2636 107.021 27.5204C106.907 27.7487 106.707 27.9484 106.479 28.0626C106.222 28.2053 105.937 28.2624 105.651 28.2624C105.28 28.2909 104.881 28.1767 104.567 27.9485C104.424 27.8628 104.31 27.7202 104.225 27.5775C104.139 27.4348 104.082 27.2636 104.053 27.1209H104.596C104.653 27.3206 104.795 27.4919 104.966 27.606C105.166 27.7201 105.395 27.8058 105.651 27.7772C105.794 27.7772 105.908 27.7487 106.051 27.7202C106.165 27.6631 106.279 27.606 106.393 27.4919C106.479 27.3777 106.565 27.2636 106.622 27.1209C106.679 26.9782 106.679 26.8355 106.679 26.6928V26.0079C106.565 26.2077 106.393 26.3789 106.194 26.493C105.965 26.6357 105.708 26.6928 105.452 26.6928C105.166 26.6928 104.909 26.6072 104.653 26.4645C104.424 26.3218 104.225 26.1221 104.082 25.8652C103.939 25.5799 103.882 25.2945 103.882 24.9806C103.882 24.6667 103.939 24.3813 104.082 24.0959C104.225 23.8391 104.396 23.6393 104.653 23.4966C104.909 23.3539 105.166 23.2969 105.452 23.2969C105.708 23.2969 105.965 23.3539 106.194 23.4966ZM106.508 24.3528C106.422 24.1815 106.279 24.0388 106.108 23.9247C105.937 23.8391 105.737 23.782 105.537 23.782C105.337 23.782 105.138 23.8391 104.966 23.9247C104.795 24.0103 104.653 24.1815 104.567 24.3528C104.453 24.5525 104.424 24.7808 104.424 25.0091C104.424 25.2374 104.481 25.4657 104.567 25.6655C104.653 25.8367 104.795 25.9794 104.966 26.0935C105.138 26.1791 105.337 26.2362 105.537 26.2362C105.737 26.2362 105.937 26.1791 106.108 26.0935C106.279 25.9794 106.422 25.8367 106.508 25.6655C106.622 25.4657 106.65 25.2374 106.65 25.0091C106.679 24.7808 106.622 24.5525 106.508 24.3528Z" fill="white"/>
</g>
</svg>
