<svg width="140" height="27" viewBox="0 0 140 27" fill="none" xmlns="http://www.w3.org/2000/svg">
<mask id="mask0_648_1947" style="mask-type:luminance" maskUnits="userSpaceOnUse" x="0" y="0" width="140" height="27">
<path d="M139.24 0.257812H0V26.4677H139.24V0.257812Z" fill="white"/>
</mask>
<g mask="url(#mask0_648_1947)">
<path d="M32.7624 26.4677L17.6101 0.257812L2.45718 26.4677H32.7624ZM6.96193 12.5437L13.924 0.257812H0L6.96193 12.5437ZM26.5742 22.9984H8.64588L17.6101 7.49215L26.5742 22.9984Z" fill="white"/>
<path d="M119.569 18.5496C120.12 18.5496 120.657 18.5305 121.182 18.4923C121.707 18.4547 122.183 18.4051 122.614 18.3448C123.043 18.2839 123.421 18.2272 123.749 18.1741C124.074 18.121 124.324 18.0716 124.497 18.0261V10.609C124.497 9.98764 124.412 9.41164 124.238 8.8805C124.066 8.34975 123.79 7.89071 123.414 7.50403C123.034 7.11667 122.539 6.81341 121.93 6.59372C121.32 6.37404 120.575 6.26367 119.699 6.26367C118.839 6.26367 118.103 6.31727 117.493 6.42302C116.882 6.5293 116.431 6.64271 116.139 6.7639L116.371 8.0609C116.595 7.98512 116.948 7.88715 117.428 7.76542C117.911 7.64423 118.641 7.58337 119.621 7.58337C120.308 7.58337 120.863 7.67777 121.285 7.86761C121.707 8.0579 122.033 8.30805 122.266 8.61894C122.497 8.92945 122.648 9.27804 122.716 9.66533C122.775 9.99597 122.804 10.3368 122.813 10.6844H122.819V10.8438C122.819 10.8495 122.82 10.8541 122.82 10.8598V11.5879H122.819V12.8845H122.82V17.0251C122.476 17.086 122.059 17.1355 121.569 17.1731C121.079 17.2112 120.506 17.2299 119.853 17.2299C119.321 17.2299 118.843 17.188 118.421 17.1045C118.001 17.0215 117.639 16.889 117.338 16.7069C117.037 16.5249 116.805 16.2825 116.642 15.9781C116.478 15.6749 116.397 15.3042 116.397 14.8638C116.397 14.363 116.517 13.9618 116.757 13.658C116.998 13.3548 117.308 13.1155 117.687 12.9411C118.064 12.7668 118.477 12.6534 118.924 12.5997C119.372 12.5472 119.802 12.5209 120.215 12.5209C120.539 12.5209 120.828 12.5302 121.089 12.5472V11.2878C121.067 11.2862 121.047 11.2826 121.027 11.2806C120.76 11.2573 120.506 11.2459 120.266 11.2459C119.459 11.2459 118.71 11.3146 118.022 11.4512C117.334 11.5879 116.741 11.804 116.242 12.0995C115.744 12.3956 115.356 12.7704 115.081 13.2259C114.806 13.6807 114.668 14.2263 114.668 14.8638C114.668 15.5315 114.793 16.0963 115.042 16.5584C115.291 17.0215 115.636 17.4006 116.074 17.6966C116.513 17.9921 117.028 18.2082 117.622 18.3448C118.215 18.4809 118.865 18.5496 119.569 18.5496ZM76.979 18.5496C77.5282 18.5496 78.0662 18.5305 78.5904 18.4923C79.1154 18.4547 79.5926 18.4051 80.0227 18.3448C80.4521 18.2839 80.8306 18.2272 81.1575 18.1741C81.4843 18.121 81.7341 18.0716 81.906 18.0261V10.609C81.906 9.98764 81.8204 9.41164 81.6485 8.8805C81.4766 8.34975 81.2006 7.89071 80.8229 7.50403C80.4444 7.11667 79.9495 6.81341 79.339 6.59372C78.7284 6.37404 77.9853 6.26367 77.108 6.26367C76.2474 6.26367 75.512 6.31727 74.9019 6.42302C74.2912 6.5293 73.8402 6.64271 73.5478 6.7639L73.7797 8.0609C74.0029 7.98512 74.3558 7.88715 74.8378 7.76542C75.3188 7.64423 76.0496 7.58337 77.0298 7.58337C77.7186 7.58337 78.2713 7.67777 78.6945 7.86761C79.1154 8.0579 79.4415 8.30805 79.6751 8.61894C79.9063 8.92945 80.0559 9.27804 80.1268 9.66533C80.1854 9.99597 80.2124 10.3368 80.2216 10.6844H80.2293V17.0251C79.8848 17.086 79.4692 17.1355 78.9782 17.1731C78.4879 17.2112 77.9159 17.2299 77.263 17.2299C76.7291 17.2299 76.2514 17.188 75.8309 17.1045C75.4092 17.0215 75.0478 16.889 74.7468 16.7069C74.4457 16.5249 74.2139 16.2825 74.0507 15.9781C73.8875 15.6749 73.8061 15.3042 73.8061 14.8638C73.8061 14.363 73.9261 13.9618 74.1672 13.658C74.4071 13.3548 74.7168 13.1155 75.0956 12.9411C75.4742 12.7668 75.8869 12.6534 76.3334 12.5997C76.7811 12.5472 77.2106 12.5209 77.623 12.5209C77.9475 12.5209 78.2351 12.5302 78.4979 12.5472V11.2878C78.4764 11.2862 78.4579 11.2826 78.4355 11.2806C78.1688 11.2573 77.9159 11.2459 77.6754 11.2459C76.8671 11.2459 76.1185 11.3146 75.4313 11.4512C74.7432 11.5879 74.1499 11.804 73.651 12.0995C73.1517 12.3956 72.7647 12.7704 72.4896 13.2259C72.2146 13.6807 72.0773 14.2263 72.0773 14.8638C72.0773 15.5315 72.2024 16.0963 72.451 16.5584C72.7007 17.0215 73.0444 17.4006 73.4827 17.6966C73.9215 17.9921 74.4382 18.2082 75.0304 18.3448C75.6239 18.4809 76.2735 18.5496 76.979 18.5496ZM56.5027 18.5496C57.0523 18.5496 57.5898 18.5305 58.1147 18.4923C58.6389 18.4547 59.1164 18.4051 59.5466 18.3448C59.9757 18.2839 60.3551 18.2272 60.6815 18.1741C61.008 18.121 61.2577 18.0716 61.4295 18.0261V10.609C61.4295 9.98764 61.3435 9.41164 61.1723 8.8805C60.9999 8.34975 60.7242 7.89071 60.3464 7.50403C59.9681 7.11667 59.4733 6.81341 58.8627 6.59372C58.2519 6.37404 57.5084 6.26367 56.6313 6.26367C55.771 6.26367 55.0361 6.31727 54.4255 6.42302C53.8147 6.5293 53.3636 6.64271 53.0712 6.7639L53.3037 8.0609C53.5269 7.98512 53.8793 7.88715 54.3615 7.76542C54.8424 7.64423 55.5737 7.58337 56.554 7.58337C57.2416 7.58337 57.7963 7.67777 58.2179 7.86761C58.6389 8.0579 58.9665 8.30805 59.1983 8.61894C59.4306 8.92945 59.5806 9.27804 59.6498 9.66533C59.7083 9.99597 59.7363 10.3368 59.7459 10.6844H59.7525L59.7528 10.8518L59.7531 10.8598V11.5879L59.7525 12.8845L59.7531 17.0251C59.4088 17.086 58.9924 17.1355 58.5015 17.1731C58.012 17.2112 57.4399 17.2299 56.7863 17.2299C56.253 17.2299 55.7756 17.188 55.3544 17.1045C54.9329 17.0215 54.5714 16.889 54.2708 16.7069C53.9698 16.5249 53.7375 16.2825 53.5748 15.9781C53.411 15.6749 53.3296 15.3042 53.3296 14.8638C53.3296 14.363 53.4497 13.9618 53.6906 13.658C53.9307 13.3548 54.2403 13.1155 54.6192 12.9411C54.9975 12.7668 55.4098 12.6534 55.8574 12.5997C56.3043 12.5472 56.7351 12.5209 57.1475 12.5209C57.4708 12.5209 57.7592 12.5302 58.0216 12.5472V11.2878C58.0002 11.2862 57.9814 11.2826 57.96 11.2806C57.693 11.2573 57.4398 11.2459 57.1988 11.2459C56.3903 11.2459 55.6423 11.3146 54.9548 11.4512C54.2668 11.5879 53.6733 11.804 53.1745 12.0995C52.6752 12.3956 52.2882 12.7704 52.013 13.2259C51.7385 13.6807 51.6008 14.2263 51.6008 14.8638C51.6008 15.5315 51.7257 16.0963 51.9745 16.5584C52.2242 17.0215 52.5678 17.4006 53.0062 17.6966C53.4455 17.9921 53.9617 18.2082 54.5551 18.3448C55.1484 18.4809 55.7969 18.5496 56.5027 18.5496ZM129.459 22.6449V17.6987C129.754 17.8984 130.225 18.1092 130.873 18.332C131.522 18.5536 132.288 18.6651 133.169 18.6651C134.138 18.6651 134.998 18.5117 135.75 18.2051C136.503 17.8984 137.138 17.4729 137.658 16.9279C138.176 16.3835 138.57 15.7321 138.837 14.9722C139.105 14.2128 139.24 13.3811 139.24 12.4761C139.24 11.5097 139.079 10.6435 138.76 9.87632C138.439 9.10961 137.99 8.45783 137.412 7.92055C136.832 7.38397 136.139 6.97395 135.336 6.68971C134.532 6.40599 133.637 6.26367 132.651 6.26367C131.457 6.26367 130.471 6.33296 129.694 6.47128C128.915 6.60893 128.274 6.75499 127.773 6.90827V22.6449H129.459ZM65.6225 18.5496V7.98898C65.7653 7.92718 66.0637 7.84953 66.5176 7.75591C66.9714 7.66298 67.5722 7.6159 68.3209 7.6159C69.0327 7.6159 69.6066 7.65135 70.0435 7.72101C70.4795 7.79136 70.7686 7.85683 70.9112 7.91865L71.2582 6.6135C71.0623 6.53585 70.7111 6.4586 70.2036 6.38041C69.6961 6.30276 69.1575 6.26367 68.5872 6.26367C67.4658 6.26367 66.5128 6.35349 65.7289 6.53206C64.9456 6.71076 64.3311 6.88622 63.8867 7.0568V18.5496H65.6225ZM39.3633 22.6449V17.6987C39.6568 17.8984 40.1283 18.1092 40.7767 18.332C41.4256 18.5536 42.1906 18.6651 43.0727 18.6651C44.0413 18.6651 44.9019 18.5117 45.6541 18.2051C46.4068 17.8984 47.0424 17.4729 47.5609 16.9279C48.0799 16.3835 48.4732 15.7321 48.7412 14.9722C49.0097 14.2128 49.1436 13.3811 49.1436 12.4761C49.1436 11.5097 48.9835 10.6435 48.664 9.87632C48.3433 9.10961 47.8938 8.45783 47.3149 7.92055C46.7351 7.38397 46.0437 6.97395 45.2394 6.68971C44.4344 6.40599 43.5401 6.26367 42.5542 6.26367C41.3606 6.26367 40.3748 6.33296 39.5964 6.47128C38.8181 6.60893 38.1784 6.75499 37.6768 6.90827V22.6449H39.3633ZM88.2989 18.5496C89.8692 18.5496 91.108 18.2723 92.0145 17.7175C92.9196 17.1625 93.3728 16.3462 93.3728 15.2668C93.3728 14.6972 93.2603 14.2236 93.0367 13.8451C92.8109 13.4674 92.5187 13.1446 92.1564 12.8747C91.7933 12.6049 91.3739 12.3739 90.9014 12.1821C90.4258 11.9908 89.9293 11.8028 89.4121 11.6188C88.9118 11.4344 88.4677 11.2661 88.0784 11.112C87.6907 10.9591 87.3623 10.7934 87.0948 10.6164C86.8265 10.4382 86.6246 10.2338 86.4873 10.0017C86.3478 9.7701 86.2792 9.49243 86.2792 9.1675C86.2792 9.14946 86.2815 7.01271 86.2831 6.41648L86.2838 6.26367H84.581C84.5779 6.32367 84.5717 8.7308 84.5709 9.21876V9.30325C84.5709 9.81157 84.6742 10.2433 84.8816 10.5975C85.0897 10.9522 85.3642 11.2567 85.7103 11.5108C86.0549 11.7651 86.4519 11.9882 86.8998 12.181C87.3492 12.3739 87.8233 12.5625 88.3251 12.7475C88.9457 12.9784 89.4683 13.1787 89.8915 13.3484C90.3132 13.5177 90.6547 13.6953 90.913 13.8803C91.1727 14.0653 91.357 14.2728 91.4711 14.5043C91.5821 14.7354 91.6384 15.0131 91.6384 15.3365C91.6384 16.0145 91.3231 16.496 90.6933 16.7811C90.0642 17.0666 89.2656 17.2087 88.2989 17.2087C87.7631 17.2087 87.2929 17.1783 86.8882 17.1164C86.4819 17.0551 86.1335 16.9812 85.839 16.8968C85.5453 16.8125 85.3125 16.7344 85.1406 16.6659C84.9679 16.5961 84.8554 16.5463 84.8037 16.5155L84.3636 17.8789C84.5709 17.9721 84.9849 18.1068 85.607 18.2833C86.2276 18.4611 87.1249 18.5496 88.2989 18.5496ZM100.509 18.5496C100.776 18.0348 101.059 17.4562 101.357 16.8126C101.653 16.1696 101.96 15.4824 102.274 14.751C102.589 14.019 102.895 13.2498 103.188 12.4424C103.484 11.636 103.766 10.8104 104.033 9.9659C104.302 10.8085 104.585 11.6319 104.881 12.4373C105.177 13.2422 105.483 14.0104 105.8 14.7414C106.116 15.4728 106.424 16.1596 106.722 16.8021C107.021 17.4445 107.306 18.0273 107.579 18.5496H109.201C110.119 16.8801 110.964 15.1149 111.728 13.2533C112.495 11.3921 113.201 9.33501 113.85 7.08273H112.124C111.926 7.86794 111.68 8.71553 111.382 9.62602C111.085 10.5365 110.765 11.4394 110.424 12.3328C110.08 13.2266 109.739 14.0758 109.396 14.8806C109.054 15.686 108.73 16.3688 108.424 16.9303C108.062 16.1908 107.707 15.3995 107.357 14.5559C107.005 13.7128 106.674 12.8587 106.361 11.9945C106.048 11.1292 105.762 10.2795 105.503 9.44448C105.243 8.609 105.034 7.82225 104.874 7.08273H103.365C103.151 7.82121 102.911 8.608 102.643 9.44402C102.374 10.28 102.089 11.1266 101.786 11.9845C101.483 12.8426 101.159 13.6937 100.813 14.5377C100.468 15.3824 100.123 16.1722 99.7789 16.9076C99.4736 16.3461 99.1444 15.6654 98.7944 14.866C98.4422 14.0672 98.096 13.2206 97.753 12.3263C97.4107 11.4323 97.09 10.531 96.794 9.62147C96.4964 8.71314 96.2475 7.8669 96.0493 7.08273H94.1923C94.836 9.33085 95.5382 11.3871 96.3022 13.2502C97.0646 15.1129 97.9056 16.8795 98.8268 18.5496H100.509ZM133.055 17.7305C132.647 17.7305 132.258 17.6951 131.886 17.6257C131.513 17.5559 131.167 17.466 130.848 17.3569C130.528 17.2483 130.249 17.132 130.01 17.0071C129.771 16.8827 129.571 16.7658 129.411 16.6568V8.2288C129.677 8.1511 130.073 8.07694 130.595 8.00648C131.118 7.93674 131.805 7.90179 132.656 7.90179C134.145 7.90179 135.341 8.32624 136.245 9.17444C137.151 10.0228 137.602 11.2404 137.602 12.828C137.602 13.497 137.523 14.132 137.363 14.7305C137.204 15.3301 136.946 15.8508 136.591 16.2948C136.238 16.7382 135.772 17.0885 135.196 17.3452C134.62 17.6018 133.906 17.7305 133.055 17.7305ZM42.9579 17.7305C42.5496 17.7305 42.16 17.6951 41.7879 17.6257C41.4153 17.5559 41.0698 17.466 40.7506 17.3569C40.4313 17.2483 40.1519 17.132 39.9129 17.0071C39.674 16.8827 39.4743 16.7658 39.3149 16.6568V8.2288C39.5801 8.1511 39.9754 8.07694 40.498 8.00648C41.0211 7.93674 41.7082 7.90179 42.5584 7.90179C44.0482 7.90179 45.2449 8.32624 46.1484 9.17444C47.0531 10.0228 47.5055 11.2404 47.5055 12.828C47.5055 13.497 47.4258 14.132 47.266 14.7305C47.1067 15.3301 46.8493 15.8508 46.4949 16.2948C46.1396 16.7382 45.6746 17.0885 45.0986 17.3452C44.5219 17.6018 43.8085 17.7305 42.9579 17.7305Z" fill="white"/>
</g>
</svg>
