<svg width="126" height="20" viewBox="0 0 126 20" fill="none" xmlns="http://www.w3.org/2000/svg">
<g clip-path="url(#clip0_648_2019)">
<path d="M13.7526 13.0575L13.3165 13.1021C13.0813 13.1245 12.8804 13.1021 12.8804 13.0575C12.8804 13.0008 12.7568 12.9682 12.6005 12.9682C12.331 12.9682 12.3207 12.9339 12.3207 12.3295C12.3207 11.5123 12.1524 10.8959 11.7936 10.3705C11.5584 10.0237 11.4347 9.94472 11.1326 9.94472C10.9145 9.94472 10.8201 9.95845 10.7806 10.0391L10.6518 9.88806V9.97734C10.5231 9.88978 10.3703 9.81938 10.1591 9.74384C9.98051 9.67688 9.78478 9.61678 9.58047 9.56356C9.47402 9.47428 9.18214 9.41762 8.49194 9.31976C8.18289 9.27683 8.04897 9.26997 7.99403 9.32147C7.81032 9.31117 7.63348 9.30945 7.46522 9.3146C7.40856 9.26825 7.27807 9.28198 6.97933 9.33006C6.39729 9.41934 5.94917 9.60992 5.72597 9.87947C5.61437 10.0134 5.61437 10.1147 5.76031 10.4049L5.932 10.7465C5.932 10.7465 5.92514 10.7568 5.91999 10.7603L5.43753 10.6967C4.81085 10.6074 4.09318 10.2606 3.62274 9.8005C3.53518 9.7198 3.46822 9.65971 3.41327 9.6185C3.37035 9.55154 3.33945 9.53265 3.29137 9.55154C3.25188 9.54467 3.22441 9.56699 3.20038 9.61335C3.18492 9.62537 3.16947 9.6391 3.1523 9.65456C2.85012 9.9224 2.7162 9.86745 2.62521 9.44166C2.54623 8.98324 2.61319 7.62858 2.74882 7.34873C2.76256 7.31782 2.76943 7.29035 2.77286 7.26631C2.78831 7.24056 2.80205 7.21652 2.81578 7.19249C3.29652 6.34089 4.68552 5.09955 4.4503 5.74855C4.41596 5.83611 4.42111 5.90136 4.45201 5.94085C4.45201 5.95458 4.45201 5.97003 4.4503 5.98377C4.42798 6.46451 4.46232 6.53319 4.6735 6.56581C4.9877 6.61045 5.55771 6.32029 6.00583 5.89449C6.28569 5.63695 6.41961 5.58029 6.62221 5.63695C6.87975 5.71593 6.89177 5.71593 6.68917 5.49101C6.45395 5.23347 6.40931 4.73041 6.58787 4.38188C6.75613 4.0797 7.3725 3.56462 7.57338 3.56462C7.8086 3.56462 9.37616 2.74737 9.93587 2.34389C10.1934 2.15331 10.4956 1.84083 10.5969 1.63823C10.7755 1.30172 10.7875 1.29141 10.9334 1.49229C11.0227 1.61591 11.1463 1.90607 11.2133 2.14129L11.3249 2.56709L11.6391 2.34389C11.8073 2.22027 12.3001 1.79447 12.7259 1.39271C12.9216 1.21243 13.071 1.0665 13.1774 0.949745C13.2101 0.929142 13.2598 0.886219 13.3302 0.820976C13.5088 0.664736 13.5208 0.597776 13.4195 0.518797C13.2976 0.446686 13.2186 0.420932 13.1723 0.451837C12.9439 0.374575 12.5542 0.273277 12.1438 0.18228C9.64743 -0.332798 6.57757 0.261258 4.51726 1.67085C3.4871 2.36793 1.73069 4.25483 1.4886 4.88494C1.44396 4.94331 1.39245 5.01714 1.33751 5.10642L1.30661 5.1545C1.2654 5.18883 1.22076 5.25408 1.18814 5.33477L1.10229 5.46526H1.14178C1.07654 5.63352 0.946053 5.93741 0.822434 6.19323C0.803548 6.23101 0.786379 6.2705 0.76921 6.30999C0.66276 6.47653 0.566613 6.67226 0.566613 6.75295C0.566613 6.75982 0.571763 6.76669 0.582065 6.77184C0.307357 7.51698 0.101326 8.41322 0.0412334 9.1927C0.0103287 9.59446 0.00689488 9.87947 0.0704211 10.1662H0.0017441L0.0292149 10.2349C-0.0171421 10.3276 -0.00340667 10.5405 0.0360826 11.0401C0.214643 13.1777 1.26712 15.4955 2.82437 17.1197C3.14887 17.4563 3.59699 17.858 3.80988 18.004C4.02278 18.1602 4.29062 18.3628 4.41424 18.4744C4.52584 18.5757 4.95164 18.8435 5.36542 19.0685L6.1037 19.4719L7.61459 19.4273C9.33838 19.3827 10.0217 19.1818 11.3438 18.3422C13.2032 17.1781 14.1097 15.432 13.8402 13.5846L13.7509 13.0592L13.7526 13.0575Z" fill="white"/>
<path d="M3.69724 7.52745C3.52899 7.74034 3.541 7.74034 3.83116 7.54977C3.99942 7.43817 4.19 7.38151 4.25696 7.42615C4.32392 7.46049 4.36856 7.39181 4.36856 7.26991C4.36856 6.90077 4.07668 7.01237 3.69724 7.52745Z" fill="white"/>
<path d="M9.34168 4.07969C9.24725 4.11918 9.15626 4.16039 9.06526 4.20331C9.00002 4.21705 8.87468 4.26855 8.65835 4.35955C8.05399 4.61709 7.72949 4.87463 7.72949 5.09783C7.72949 5.14075 7.73979 5.16822 7.76726 5.17852C7.80847 5.20771 7.88402 5.20771 7.98703 5.17852C8.07288 5.29184 8.33042 5.2369 8.86095 5.00683C9.28674 4.81625 9.47732 4.66001 9.64558 4.33551C9.7692 4.08999 9.84646 3.89941 9.81384 3.89941C9.79152 3.89941 9.57862 3.97839 9.3434 4.07797L9.34168 4.07969Z" fill="white"/>
<path d="M20.0024 7.5714C19.8839 7.07692 19.6985 6.56013 19.4598 6.04333C19.4598 6.01758 19.4495 5.98668 19.4323 5.9489C19.2709 5.51795 18.6202 4.43286 18.4932 4.35216C18.0296 3.68084 17.4974 3.06103 16.9359 2.55626C16.3608 2.02745 15.2465 1.27543 14.831 1.09687C14.8172 1.07284 14.8035 1.05567 14.7863 1.04365C14.7743 1.03678 14.7554 1.04365 14.7314 1.06082C14.7022 1.05395 14.6816 1.05567 14.673 1.06597C14.6438 1.09516 14.5923 1.19817 14.5374 1.32522C14.4893 1.40935 14.4395 1.50722 14.3932 1.61538C14.2369 1.9622 13.9347 2.4893 13.7098 2.79148L13.4334 3.16748C13.3613 3.2499 13.2926 3.32372 13.2274 3.38553C12.8582 3.74437 12.8685 3.90061 13.2497 3.90061C13.6858 3.90061 14.7846 4.22511 15.7135 4.63889C16.8226 5.11963 18.088 5.98152 19.0168 6.86746C19.2675 7.11126 19.4478 7.30356 19.5611 7.44606C19.5645 7.46495 19.5697 7.48383 19.5766 7.50444C19.6212 7.69502 19.5989 7.72764 19.4529 7.6727C19.4255 7.66239 19.4031 7.65553 19.3825 7.65209C19.3448 7.63492 19.3053 7.61604 19.2624 7.59372C19.1027 7.51131 18.7748 7.39799 18.4314 7.29497C18.1841 7.1662 17.7051 7.034 17.3926 7.034C17.3772 7.034 17.3634 7.034 17.3531 7.034C17.3428 7.034 17.3343 7.034 17.3257 7.03228C17.3205 7.03228 17.3188 7.03572 17.3205 7.04087C17.2553 7.06319 17.3136 7.13358 17.5265 7.31214C17.5403 7.32244 17.5523 7.33275 17.566 7.34305C17.645 7.42718 17.7377 7.52332 17.839 7.62634C18.0142 7.79803 18.1652 7.95599 18.3026 8.10708L18.4331 8.26504L18.6099 8.47278C18.8726 8.80758 19.0769 9.1441 19.295 9.57505C19.6092 10.1794 20.0333 11.5907 20.0573 12.0715C20.0693 12.2277 20.1243 12.0268 20.1809 11.6233C20.3148 10.6601 20.2153 8.51056 20.0024 7.5714Z" fill="white"/>
<path d="M25.8665 5.1494C27.0031 4.06087 28.4007 3.5166 30.0592 3.5166C31.7178 3.5166 33.0827 4.054 34.2245 5.13051C35.4813 6.31519 36.1097 7.90163 36.1097 9.89155C36.1097 11.466 35.7096 12.7983 34.9113 13.8851C34.0459 15.0578 32.8218 15.7961 31.2353 16.1034C31.9805 17.1765 32.8801 17.9371 33.9378 18.3869C34.5318 18.6393 35.3336 18.8247 36.3432 18.9449V19.2883H35.586C34.5885 19.2883 33.7043 19.2076 32.9317 19.0445C32.159 18.8814 31.4585 18.6358 30.8284 18.3045C30.1983 17.98 29.6128 17.5284 29.0754 16.9515C28.538 16.3747 28.2393 16.0708 28.1792 16.0416L27.944 15.9334C26.9207 15.4578 26.1292 14.917 25.5695 14.3109C24.529 13.1863 24.0088 11.7149 24.0088 9.89326C24.0088 7.92223 24.6286 6.34094 25.8665 5.15111V5.1494ZM27.2469 14.1976C28.0109 15.1265 28.9501 15.59 30.0627 15.59C31.1752 15.59 32.0835 15.1385 32.8561 14.2337C33.6287 13.3288 34.0167 11.8815 34.0167 9.89155C34.0167 7.90163 33.6253 6.42336 32.8424 5.52712C32.0595 4.63089 31.134 4.18449 30.0627 4.18449C28.9913 4.18449 28.0178 4.64806 27.2503 5.57691C26.4829 6.50577 26.1 7.94455 26.1 9.89155C26.1 11.8385 26.4812 13.2687 27.2469 14.1976Z" fill="white"/>
<path d="M41.9337 3.77882V4.12221C41.2246 4.17028 40.7644 4.28875 40.555 4.47761C40.3438 4.66647 40.239 5.10086 40.239 5.78076V11.687C40.239 12.6553 40.3712 13.4091 40.6357 13.9499C41.1284 14.9354 42.0624 15.4282 43.4394 15.4282C44.9486 15.4282 45.9616 14.9234 46.4784 13.9138C46.7668 13.349 46.911 12.4768 46.911 11.299V6.49328C46.911 5.48888 46.7908 4.86049 46.5505 4.60467C46.3101 4.34884 45.8534 4.18917 45.1804 4.12221V3.77882H49.4538V4.12221C48.7378 4.20119 48.2708 4.37288 48.0511 4.64072C47.8313 4.90856 47.7214 5.52665 47.7214 6.49328V11.299C47.7214 12.5729 47.5257 13.5687 47.1359 14.283C46.4148 15.5999 45.0447 16.2574 43.0239 16.2574C41.0031 16.2574 39.669 15.6084 38.9479 14.3104C38.5565 13.6134 38.3624 12.6931 38.3624 11.5513V5.77904C38.3624 5.10601 38.2594 4.67506 38.0517 4.48448C37.8439 4.29562 37.3924 4.17372 36.6953 4.11878V3.77539H41.9337V3.77882Z" fill="white"/>
<path d="M50.1133 15.6533C50.8653 15.6001 51.3512 15.4868 51.5744 15.3168C51.7959 15.1468 51.9075 14.7056 51.9075 13.9948V5.77928C51.9075 5.09938 51.7959 4.66328 51.5744 4.46755C51.3512 4.27182 50.8653 4.15678 50.1133 4.12073V3.77734H55.5765V4.12073C54.8245 4.15678 54.3386 4.27182 54.1154 4.46755C53.8922 4.66328 53.7823 5.10109 53.7823 5.77928V13.993C53.7823 14.7039 53.894 15.1451 54.1154 15.3151C54.3369 15.4851 54.8245 15.5984 55.5765 15.6516V15.995H50.1133V15.6516V15.6533Z" fill="white"/>
<path d="M64.5768 3.85929C65.2808 4.05846 65.6739 4.15632 65.7581 4.15632C65.9332 4.15632 66.098 4.10825 66.2543 4.0121C66.4105 3.91595 66.5187 3.76658 66.5788 3.56055H66.9668L67.1385 7.70864H66.7144C66.4672 6.88451 66.1461 6.22006 65.7495 5.71529C64.9923 4.76583 63.9725 4.29024 62.6934 4.29024C61.4142 4.29024 60.3446 4.80188 59.5239 5.82345C58.7032 6.84502 58.2929 8.25119 58.2929 10.0437C58.2929 11.6902 58.7238 13.0054 59.5874 13.9874C60.4493 14.9695 61.543 15.4623 62.865 15.4623C63.8214 15.4623 64.7022 15.2339 65.5074 14.7772C65.971 14.5197 66.4775 14.1282 67.0303 13.6046L67.3737 13.9479C66.9651 14.4647 66.4569 14.9197 65.8508 15.3095C64.8172 15.9705 63.696 16.3018 62.4873 16.3018C60.5043 16.3018 58.9281 15.6683 57.7623 14.3995C56.6858 13.2268 56.1484 11.764 56.1484 10.0093C56.1484 8.25462 56.7167 6.70424 57.8516 5.4835C59.0483 4.20268 60.6039 3.56226 62.5217 3.56226C63.1895 3.56226 63.8746 3.66185 64.5768 3.85929Z" fill="white"/>
<path d="M67.9668 15.6791C68.7188 15.619 69.1841 15.4851 69.3644 15.2773C69.5447 15.0696 69.6356 14.5751 69.6356 13.7922V5.78271C69.6356 5.11483 69.5344 4.68216 69.3335 4.48643C69.1326 4.2907 68.6759 4.1688 67.9668 4.12073V3.77734H73.224V4.12073C72.5029 4.15678 72.0376 4.27697 71.8264 4.48128C71.6153 4.6856 71.5105 5.11826 71.5105 5.77928V9.56338C72.6471 8.59504 73.5777 7.7692 74.2988 7.08929C75.5917 5.85997 76.2389 5.07191 76.2389 4.72337C76.2389 4.47785 76.1291 4.31646 75.9093 4.23748C75.6895 4.16022 75.3788 4.12073 74.9753 4.12073V3.77734H79.8136V4.12073C79.223 4.1791 78.7577 4.29242 78.4177 4.4624C78.0778 4.63066 77.6056 5.00151 77.0047 5.57325L73.4009 8.91438L77.7979 13.6651C78.598 14.5184 79.144 15.0524 79.4324 15.2636C79.7209 15.4765 80.1467 15.6138 80.7064 15.6808V15.9967H75.0577V15.6808C75.5693 15.6636 75.9144 15.6224 76.0947 15.5589C76.275 15.4954 76.366 15.37 76.366 15.1829C76.366 15.0799 76.3076 14.9236 76.1909 14.7124C76.0741 14.5013 75.8887 14.2575 75.6363 13.981L72.0806 10.1386L71.5105 10.6656V14.0085C71.5105 14.6953 71.6135 15.1297 71.8213 15.3134C72.029 15.4971 72.4806 15.619 73.1777 15.6791V15.995H67.9668V15.6791Z" fill="white"/>
<path d="M81.2729 12.2813C81.5854 13.1105 81.9511 13.7716 82.3718 14.2643C83.1032 15.1245 84.0131 15.5537 85.0999 15.5537C85.6888 15.5537 86.1971 15.3683 86.6263 14.994C87.0555 14.6214 87.2701 14.1012 87.2701 13.435C87.2701 12.8341 87.0538 12.3105 86.6229 11.8658C86.3413 11.5825 85.7472 11.1601 84.8407 10.5935L83.2663 9.61145C82.7924 9.31099 82.413 9.00709 82.1314 8.70148C81.6077 8.11772 81.3467 7.47559 81.3467 6.77166C81.3467 5.83937 81.6558 5.06503 82.2756 4.44522C82.8954 3.82541 83.7144 3.51637 84.7377 3.51637C85.1583 3.51637 85.6648 3.61938 86.2572 3.82713C86.8495 4.03488 87.1877 4.13789 87.2719 4.13789C87.5002 4.13789 87.6582 4.08467 87.7457 3.97478C87.8333 3.86662 87.9002 3.71381 87.9483 3.51465H88.3278L88.733 7.44641H88.2917C87.9912 6.26173 87.5088 5.43589 86.8443 4.96717C86.1799 4.49845 85.524 4.26323 84.875 4.26323C84.3702 4.26323 83.929 4.4126 83.5547 4.70963C83.1787 5.00666 82.9916 5.42044 82.9916 5.94925C82.9916 6.42484 83.1358 6.83003 83.4242 7.16655C83.7127 7.50993 84.1591 7.86705 84.7651 8.23963L86.3859 9.24059C87.4006 9.86555 88.1166 10.439 88.5338 10.9627C88.9441 11.4915 89.1502 12.1164 89.1502 12.8376C89.1502 13.8059 88.7845 14.6146 88.0548 15.2636C87.3251 15.9126 86.3911 16.2371 85.2562 16.2371C84.6844 16.2371 84.0887 16.1289 83.4672 15.9126C82.8456 15.6962 82.4885 15.5881 82.3992 15.5881C82.1829 15.5881 82.0369 15.655 81.9614 15.7872C81.8859 15.9194 81.8361 16.0602 81.812 16.2113H81.4068L80.8574 12.2796H81.2815H81.2729V12.2813Z" fill="white"/>
<path d="M93.7616 3.77859V4.12197C93.3942 4.13399 93.1332 4.16661 92.977 4.22156C92.7006 4.32457 92.5615 4.51 92.5615 4.78127C92.5615 4.90146 92.5787 5.01821 92.6113 5.13324C92.6439 5.24828 92.6937 5.39422 92.7607 5.57449L95.4322 12.516L97.3844 7.34121L96.5207 5.0783C96.3576 4.66967 96.1155 4.39496 95.791 4.25589C95.5987 4.17176 95.3069 4.12712 94.9171 4.12026V3.77687H99.8619V4.12026C99.3983 4.12712 99.0807 4.15975 98.9055 4.21984C98.6291 4.32285 98.4901 4.53232 98.4901 4.85167C98.4901 4.95983 98.5021 5.05426 98.5261 5.13496C98.5501 5.21565 98.6102 5.3822 98.7064 5.63458L101.374 12.5589L103.685 6.29217C103.818 5.93676 103.907 5.62257 103.957 5.34614C103.986 5.1899 104.001 5.06285 104.001 4.9667C104.001 4.62332 103.838 4.38638 103.514 4.25418C103.333 4.17692 103.062 4.13056 102.702 4.11854V3.77515H106.367V4.11854C106.036 4.16661 105.784 4.24216 105.61 4.34346C105.298 4.51858 105.062 4.81905 104.906 5.24656L102.973 10.751L102.228 12.8749L101.057 16.2074H100.772L99.9649 14.0939L97.8273 8.4057L94.991 16.2074H94.7128L93.3376 12.3821L91.7803 8.05202C91.1382 6.26813 90.6901 5.17445 90.4342 4.76925C90.1784 4.36406 89.7801 4.14601 89.2393 4.11682V3.77344H93.7634V3.77859H93.7616Z" fill="white"/>
<path d="M103.362 15.9945V15.6511C103.836 15.5979 104.193 15.4194 104.43 15.1155C104.667 14.8116 105.074 13.9806 105.651 12.6225L109.499 3.56055H109.866L114.467 14.0286C114.775 14.7223 115.019 15.1515 115.202 15.3146C115.386 15.4794 115.693 15.591 116.126 15.6511V15.9945H111.43V15.6511C111.969 15.6031 112.318 15.5447 112.474 15.476C112.63 15.4073 112.708 15.2374 112.708 14.9695C112.708 14.8802 112.677 14.7223 112.617 14.4939C112.556 14.2673 112.472 14.0269 112.364 13.7763L111.624 11.9992H106.758C106.279 13.208 105.993 13.9445 105.9 14.2106C105.807 14.4768 105.761 14.6879 105.761 14.8425C105.761 15.1532 105.886 15.3696 106.139 15.488C106.295 15.5601 106.588 15.6134 107.021 15.6494V15.9928H103.362V15.9945ZM111.315 11.2524L109.198 6.16684L107.073 11.2524H111.315Z" fill="white"/>
<path d="M116.298 15.6533C117.002 15.5881 117.44 15.449 117.615 15.2361C117.788 15.0232 117.876 14.5373 117.876 13.7784V5.77928C117.876 5.13543 117.778 4.71307 117.582 4.50875C117.386 4.30444 116.959 4.17567 116.298 4.12073V3.77734H121.167C122.729 3.77734 123.926 4.08124 124.755 4.68731C125.585 5.29511 126 6.09348 126 7.08586C126 8.34265 125.54 9.25262 124.622 9.81749C123.701 10.3824 122.551 10.6656 121.169 10.6656C120.97 10.6656 120.717 10.6605 120.406 10.6519C120.097 10.6433 119.867 10.6382 119.716 10.6382V13.993C119.716 14.6867 119.823 15.1228 120.036 15.3031C120.249 15.4816 120.726 15.5984 121.464 15.6533V15.9967H116.298V15.6533ZM122.529 4.8075C122.005 4.57915 121.344 4.46411 120.546 4.46411C120.168 4.46411 119.934 4.50189 119.847 4.57743C119.759 4.65298 119.716 4.81952 119.716 5.07706V9.89131C120.046 9.92222 120.262 9.93939 120.365 9.94626C120.468 9.95141 120.566 9.95484 120.662 9.95484C121.51 9.95484 122.177 9.83466 122.664 9.59429C123.548 9.15647 123.99 8.33578 123.99 7.13222C123.99 6.00248 123.502 5.22643 122.529 4.80578V4.8075Z" fill="white"/>
</g>
<defs>
<clipPath id="clip0_648_2019">
<rect width="126" height="19.4734" fill="white"/>
</clipPath>
</defs>
</svg>
