<svg width="99" height="37" viewBox="0 0 99 37" fill="none" xmlns="http://www.w3.org/2000/svg">
<mask id="mask0_648_1962" style="mask-type:luminance" maskUnits="userSpaceOnUse" x="0" y="0" width="99" height="37">
<path d="M98.8109 0.0810547H0.980469V36.0773H98.8109V0.0810547Z" fill="white"/>
</mask>
<g mask="url(#mask0_648_1962)">
<path d="M16.5232 12.3755C16.5232 12.3755 17.2766 12.7941 18.4208 13.4266L33.3445 7.2376C32.805 6.52444 32.2158 5.85468 31.5771 5.23145C31.4717 5.29036 31.3849 5.32447 31.3849 5.32447L15.8193 11.87C15.996 12.0499 16.2255 12.2205 16.5232 12.3755Z" fill="white"/>
<path d="M6.89018 30.8314L21.9938 24.5339L19.1845 22.9463L7.65605 27.8454L4.73828 29.0795C5.2747 29.7741 5.86074 30.4252 6.49019 31.033L6.89018 30.8314Z" fill="white"/>
<path d="M34.9302 9.74596L32.1799 10.8126C29.9784 11.6188 21.3181 15.0327 21.3181 15.0327C22.732 15.8141 24.2638 16.6543 25.6095 17.3892C29.0544 19.2714 26.8745 23.3984 26.4187 24.1829C26.4125 24.1953 26.4063 24.2046 26.4001 24.2139C26.3629 24.2759 26.3412 24.3131 26.3412 24.3131C26.3412 24.3131 26.6637 21.2279 24.4901 20.0869C22.2979 18.9489 17.2716 16.2699 15.16 15.1443C14.1647 14.6141 13.4423 13.6498 13.3058 12.5305C13.2035 11.6933 13.4144 10.7289 14.419 9.88554C15.005 9.34288 15.6344 9.05139 15.6344 9.05139L26.8621 4.44376C26.8621 4.44376 26.9335 4.41585 27.0358 4.36314L29.3706 3.39262C26.4373 1.30894 22.8529 0.0810547 18.9771 0.0810547C9.03922 0.0810547 0.980469 8.1398 0.980469 18.0776C0.980469 21.2775 1.82076 24.2791 3.2843 26.8837L7.6284 24.9891L16.2763 21.3613C14.7849 20.5427 13.4081 19.783 12.7539 19.4326C12.4283 19.259 12.019 18.983 11.6934 18.8094C9.94152 17.8823 8.79427 15.2715 11.4516 12.1676C11.4516 12.1676 11.1756 15.1102 12.8221 16.1118C14.3911 17.0637 20.4778 20.183 22.2855 21.1504C22.7475 21.3985 23.1754 21.7148 23.5165 22.1179C24.2203 22.9519 24.487 23.9783 24.1924 25.0666C24.18 25.1224 24.1614 25.172 24.1428 25.2247C24.1304 25.2589 24.1211 25.293 24.1087 25.3271C24.0901 25.3798 24.0715 25.4294 24.0498 25.4821C24.0436 25.4977 24.0374 25.5131 24.0312 25.5286C23.4111 27.0263 21.7615 27.4758 21.7615 27.4758L21.563 27.5441L11.0547 31.8572L8.73535 32.8742C11.6438 34.8897 15.1724 36.0741 18.9771 36.0741C28.9179 36.0741 36.9736 28.0154 36.9736 18.0776C36.9767 15.0699 36.2356 12.239 34.9302 9.74596Z" fill="white"/>
<g opacity="0.4">
<mask id="mask1_648_1962" style="mask-type:luminance" maskUnits="userSpaceOnUse" x="14" y="21" width="6" height="3">
<g opacity="0.4">
<path d="M19.1966 21.3486H14.6943V23.5502H19.1966V21.3486Z" fill="white"/>
</g>
</mask>
<g mask="url(#mask1_648_1962)">
<path d="M16.2881 21.3486L19.1966 22.9331L17.7423 23.5502L14.6943 22.0153L16.2881 21.3486Z" fill="#4D4D4D"/>
</g>
</g>
<g opacity="0.4">
<mask id="mask2_648_1962" style="mask-type:luminance" maskUnits="userSpaceOnUse" x="20" y="24" width="3" height="4">
<g opacity="0.4">
<path d="M22.9014 24.5215H20.613V27.4672H22.9014V24.5215Z" fill="white"/>
</g>
</mask>
<g mask="url(#mask2_648_1962)">
<path d="M21.7572 27.4672C21.7572 27.4672 24.1727 25.7556 21.9867 24.5215L20.613 25.0951C20.6162 25.0921 22.9045 25.706 21.7572 27.4672Z" fill="#4D4D4D"/>
</g>
</g>
<g opacity="0.4">
<mask id="mask3_648_1962" style="mask-type:luminance" maskUnits="userSpaceOnUse" x="18" y="12" width="5" height="4">
<g opacity="0.4">
<path d="M22.9751 12.8154H18.417V15.0201H22.9751V12.8154Z" fill="white"/>
</g>
</mask>
<g mask="url(#mask3_648_1962)">
<path d="M21.3255 15.017L18.417 13.4356L19.9022 12.8154L22.9751 14.3782L21.3255 15.017Z" fill="#4D4D4D"/>
</g>
</g>
<g opacity="0.4">
<mask id="mask4_648_1962" style="mask-type:luminance" maskUnits="userSpaceOnUse" x="14" y="8" width="4" height="4">
<g opacity="0.4">
<path d="M17.1702 8.90039H14.8818V11.8461H17.1702V8.90039Z" fill="white"/>
</g>
</mask>
<g mask="url(#mask4_648_1962)">
<path d="M16.0257 8.90039C16.0257 8.90039 13.6103 10.612 15.7963 11.8461L17.1699 11.2725C17.1699 11.2756 14.8785 10.6616 16.0257 8.90039Z" fill="#4D4D4D"/>
</g>
</g>
<path d="M49.8499 13.1439H48.4639V17.3424H45.543V4.56738H50.653C53.0808 4.56738 55.0312 6.52083 55.0312 8.94557C55.0312 10.5145 54.0824 11.9378 52.6777 12.6509L55.397 17.3424H52.2591L49.8499 13.1439ZM48.4639 10.589H50.653C51.4561 10.589 52.1134 9.87891 52.1134 8.94557C52.1134 8.01538 51.4561 7.30221 50.653 7.30221H48.4639V10.589Z" fill="white"/>
<path d="M65.5798 8.21729V17.3427H62.8418V16.4839C62.2403 17.1784 61.3441 17.597 60.1225 17.597C57.7319 17.597 55.7598 15.4978 55.7598 12.7785C55.7598 10.0592 57.7319 7.95996 60.1225 7.95996C61.3441 7.95996 62.2403 8.37855 62.8418 9.07312V8.21425H65.5798V8.21729ZM62.8418 12.7785C62.8418 11.411 61.9302 10.5522 60.6713 10.5522C59.4124 10.5522 58.5008 11.411 58.5008 12.7785C58.5008 14.1459 59.4124 15.0048 60.6713 15.0048C61.9302 15.0048 62.8418 14.149 62.8418 12.7785Z" fill="white"/>
<path d="M76.3464 11.7396V17.3425H73.6085V12.1396C73.6085 11.0078 72.8953 10.4776 72.0209 10.4776C71.0163 10.4776 70.3249 11.0605 70.3249 12.3566V17.3395H67.5869V8.21717H70.3249V9.07604C70.8179 8.40011 71.7294 7.96289 72.9356 7.96289C74.7774 7.96289 76.3464 9.2745 76.3464 11.7396Z" fill="white"/>
<path d="M87.5866 8.21698V16.8865C87.5866 19.9532 85.1957 21.2493 82.7679 21.2493C80.8704 21.2493 79.2828 20.5362 78.4425 19.0416L80.7774 17.6928C81.1249 18.3315 81.652 18.8431 82.8583 18.8431C84.1358 18.8431 84.9197 18.1858 84.9197 16.8897V16.0494C84.3182 16.7966 83.4406 17.237 82.2568 17.237C79.6642 17.237 77.7666 15.1192 77.7666 12.6014C77.7666 10.0836 79.6642 7.96582 82.2568 7.96582C83.4438 7.96582 84.3182 8.40304 84.9197 9.15336V8.22322H87.5866V8.21698ZM84.9229 12.5983C84.9229 11.3394 84.0118 10.4805 82.7151 10.4805C81.4193 10.4805 80.5076 11.3394 80.5076 12.5983C80.5076 13.8572 81.4193 14.7161 82.7151 14.7161C84.0118 14.713 84.9229 13.8572 84.9229 12.5983Z" fill="white"/>
<path d="M89.1357 12.7785C89.1357 10.0592 91.2875 7.95996 93.9696 7.95996C96.6517 7.95996 98.8067 10.0592 98.8067 12.7785C98.8067 15.4978 96.6549 17.597 93.9696 17.597C91.2907 17.597 89.1357 15.4978 89.1357 12.7785ZM96.0718 12.7785C96.0718 11.4824 95.1607 10.6266 93.9728 10.6266C92.785 10.6266 91.8739 11.4855 91.8739 12.7785C91.8739 14.0746 92.785 14.9335 93.9728 14.9335C95.1607 14.9335 96.0718 14.0746 96.0718 12.7785Z" fill="white"/>
<path d="M46.0642 29.1905H50.0332V29.7579H45.4658V21.8232H49.9773V22.3906H46.0642V25.4728H49.6921V26.0402H46.0642V29.1905Z" fill="white"/>
<path d="M56.2682 29.7579H55.5767L53.6605 27.2866L51.7442 29.7579H51.0527L53.3194 26.8464L51.1892 24.0898H51.8806L53.6605 26.3906L55.4496 24.0898H56.1317L54.0108 26.834L56.2682 29.7579Z" fill="white"/>
<path d="M59.9329 29.8849C59.0802 29.8849 58.3671 29.6027 57.8027 29.0353C57.2353 28.4679 56.9531 27.7671 56.9531 26.9268C56.9531 26.0896 57.2353 25.3858 57.8027 24.8183C58.3702 24.2509 59.0802 23.9688 59.9329 23.9688C60.4848 23.9688 60.9841 24.099 61.4306 24.3594C61.8771 24.6199 62.2027 24.9734 62.4041 25.4199L61.9391 25.6927C61.7717 25.33 61.5112 25.0416 61.1515 24.8307C60.7918 24.6199 60.3856 24.5145 59.9329 24.5145C59.2538 24.5145 58.6833 24.747 58.2213 25.2121C57.7593 25.6772 57.5299 26.2508 57.5299 26.9299C57.5299 27.609 57.7593 28.1826 58.2213 28.6477C58.6833 29.1128 59.2538 29.3454 59.9329 29.3454C60.3856 29.3454 60.7918 29.24 61.1515 29.0291C61.5112 28.8182 61.7841 28.5299 61.9732 28.1671L62.4476 28.4492C62.2212 28.8865 61.8832 29.2368 61.4337 29.4973C60.9841 29.7547 60.4817 29.8849 59.9329 29.8849Z" fill="white"/>
<path d="M66.5613 23.9658C67.2341 23.9658 67.7675 24.1704 68.1643 24.5829C68.5612 24.9952 68.7597 25.544 68.7597 26.2325V29.7579H68.1829V26.2325C68.1829 25.7022 68.0372 25.2836 67.7457 24.9735C67.4543 24.6635 67.045 24.5084 66.5148 24.5084C65.9318 24.5084 65.4574 24.7007 65.0853 25.0851C64.7163 25.4697 64.5303 26.0309 64.5303 26.7626V29.7548H63.9629V21.8232H64.5303V25.1658C64.9396 24.3658 65.6186 23.9658 66.5613 23.9658Z" fill="white"/>
<path d="M75.6167 24.0897H76.1934V29.7577H75.6167V28.4772C75.3748 28.9144 75.0431 29.2586 74.6182 29.5097C74.1966 29.7577 73.7159 29.8849 73.1795 29.8849C72.3702 29.8849 71.6788 29.5996 71.1052 29.0291C70.5315 28.4586 70.2432 27.7578 70.2432 26.9268C70.2432 26.0958 70.5315 25.3951 71.1052 24.8245C71.6788 24.254 72.3702 23.9688 73.1795 23.9688C73.7159 23.9688 74.1966 24.0927 74.6182 24.3439C75.0399 24.592 75.3748 24.9362 75.6167 25.3764V24.0897ZM71.5206 28.6353C71.9857 29.1035 72.5532 29.3391 73.2261 29.3391C73.8989 29.3391 74.4663 29.1035 74.9252 28.6353C75.3872 28.1671 75.6167 27.5966 75.6167 26.9237C75.6167 26.2508 75.3872 25.6803 74.9252 25.2121C74.4632 24.7439 73.8957 24.5083 73.2261 24.5083C72.5532 24.5083 71.9857 24.7439 71.5206 25.2121C71.0556 25.6803 70.8229 26.2508 70.8229 26.9237C70.8229 27.5966 71.0556 28.1671 71.5206 28.6353Z" fill="white"/>
<path d="M80.8113 23.9658C81.4839 23.9658 82.0175 24.1704 82.4142 24.5829C82.811 24.9952 83.0093 25.5441 83.0093 26.2325V29.7579H82.4326V26.2325C82.4326 25.7022 82.287 25.2836 81.9959 24.9736C81.7039 24.6634 81.2951 24.5084 80.7648 24.5084C80.1818 24.5084 79.7075 24.7007 79.3353 25.0851C78.9663 25.4697 78.7803 26.0309 78.7803 26.7626V29.7548H78.2129V24.0898H78.7803V25.1658C79.1896 24.3658 79.8655 23.9658 80.8113 23.9658Z" fill="white"/>
<path d="M89.9107 24.0898H90.4786V29.4851C90.4786 30.3099 90.2114 30.9579 89.6723 31.4354C89.1356 31.9099 88.4628 32.1486 87.6533 32.1486C87.0022 32.1486 86.447 32.0277 85.9887 31.7858C85.5263 31.544 85.1912 31.2122 84.9808 30.7873L85.4799 30.5052C85.8423 31.237 86.5686 31.606 87.6565 31.606C88.3604 31.606 88.9124 31.4138 89.3123 31.0324C89.7123 30.651 89.9139 30.1331 89.9139 29.4851V28.4433C89.6779 28.8897 89.3499 29.2401 88.922 29.4975C88.494 29.7548 88.0133 29.882 87.4765 29.882C86.6614 29.882 85.9671 29.5967 85.3959 29.0262C84.8256 28.4557 84.54 27.7549 84.54 26.9239C84.54 26.0929 84.8256 25.3921 85.3959 24.8216C85.9671 24.2511 86.6614 23.9658 87.4765 23.9658C88.0133 23.9658 88.494 24.0929 88.922 24.3503C89.3499 24.6077 89.6779 24.958 89.9139 25.4045V24.0898H89.9107ZM85.8023 28.6355C86.2679 29.1037 86.835 29.3393 87.5077 29.3393C88.1805 29.3393 88.7484 29.1037 89.2131 28.6355C89.6779 28.1673 89.9107 27.5967 89.9107 26.9239C89.9107 26.251 89.6779 25.6805 89.2131 25.2123C88.7484 24.7441 88.1805 24.5084 87.5077 24.5084C86.835 24.5084 86.2679 24.7441 85.8023 25.2123C85.3376 25.6805 85.1048 26.251 85.1048 26.9239C85.1048 27.5967 85.3376 28.1673 85.8023 28.6355Z" fill="white"/>
<path d="M95.0481 23.9658C95.8784 23.9658 96.5519 24.2603 97.0695 24.8495C97.587 25.4386 97.8446 26.1363 97.8446 26.9456C97.8446 26.9766 97.8414 27.02 97.8382 27.0821C97.835 27.144 97.8326 27.1875 97.8326 27.2184H92.6971C92.7659 27.8541 93.0203 28.3657 93.4635 28.7533C93.9066 29.144 94.4522 29.3362 95.1009 29.3362C95.5528 29.3362 95.9504 29.2432 96.2912 29.0541C96.6319 28.8649 96.8863 28.6169 97.0631 28.3068L97.5622 28.6013C97.327 28.9951 96.9951 29.3053 96.5639 29.5378C96.1328 29.7672 95.6432 29.882 95.0913 29.882C94.2234 29.882 93.5067 29.6029 92.9483 29.0478C92.3908 28.4929 92.1084 27.7828 92.1084 26.9239C92.1084 26.0774 92.3812 25.3735 92.9299 24.8092C93.4819 24.248 94.189 23.9658 95.0481 23.9658ZM95.0481 24.5115C94.4058 24.5115 93.8698 24.7131 93.4387 25.1131C93.0075 25.5131 92.7627 26.0309 92.7003 26.6665H97.2583C97.1999 25.9937 96.9575 25.4665 96.5391 25.0851C96.1208 24.7007 95.6248 24.5115 95.0481 24.5115Z" fill="white"/>
</g>
</svg>
