<svg width="146" height="31" viewBox="0 0 146 31" fill="none" xmlns="http://www.w3.org/2000/svg">
<path d="M45.9391 19.1828C46.5555 19.1828 46.9916 19.0782 47.2475 18.8691C47.5149 18.6484 47.6487 18.387 47.6487 18.085C47.6534 17.9575 47.6274 17.8308 47.5727 17.7155C47.5181 17.6003 47.4364 17.4998 47.3347 17.4228C47.137 17.2485 46.8346 17.0975 46.4275 16.9697L45.5379 16.6909C45.0494 16.5399 44.6075 16.3772 44.2121 16.203C43.8464 16.0362 43.5058 15.8192 43.2003 15.5582C42.9244 15.3071 42.6994 15.0054 42.5374 14.6695C42.3862 14.321 42.3106 13.9028 42.3106 13.4149C42.3106 12.439 42.6769 11.6665 43.4096 11.0973C44.1539 10.528 45.1832 10.2434 46.4973 10.2434C46.9974 10.2434 47.4568 10.2783 47.8755 10.348C48.3058 10.4177 48.6721 10.528 48.9745 10.679C49.2769 10.8184 49.5153 10.9927 49.6897 11.2018C49.8642 11.4109 49.9514 11.6549 49.9514 11.9337C49.9553 12.1875 49.8824 12.4365 49.7421 12.6481C49.6192 12.84 49.466 13.0107 49.2885 13.1535C49.021 12.9676 48.6663 12.8108 48.2244 12.683C47.7532 12.5513 47.2657 12.4867 46.7764 12.4913C46.2182 12.4913 45.8054 12.5784 45.5379 12.7527C45.2704 12.927 45.1366 13.1477 45.1366 13.4149C45.1366 13.6472 45.2239 13.8273 45.3983 13.9551C45.5728 14.0712 45.8461 14.1932 46.2182 14.321L47.1602 14.6347C47.6533 14.7976 48.1318 15.0016 48.5907 15.2446C49.0094 15.4537 49.3583 15.6976 49.6374 15.9765C49.9165 16.2436 50.1258 16.5573 50.2654 16.9174C50.405 17.266 50.4747 17.6667 50.4747 18.1198C50.4747 18.6077 50.3759 19.055 50.1782 19.4616C49.9818 19.8691 49.6883 20.2221 49.3234 20.4897C48.9512 20.7801 48.486 21.0067 47.9278 21.1693C47.3812 21.332 46.7474 21.4133 46.0263 21.4133C45.5286 21.4168 45.0318 21.3701 44.5435 21.2739C44.1333 21.2061 43.7343 21.083 43.3573 20.9079C43.0582 20.7655 42.7911 20.5639 42.5722 20.3155C42.3896 20.0816 42.2913 19.793 42.2931 19.4964C42.2931 19.1828 42.3804 18.9214 42.5548 18.7123C42.7299 18.5122 42.936 18.3416 43.1654 18.2069C43.4794 18.4625 43.869 18.6891 44.3342 18.8865C44.8443 19.0903 45.3898 19.191 45.9391 19.1828ZM56.6328 21.3784C56.3304 21.3784 56.0513 21.3494 55.7954 21.2913C55.5572 21.2497 55.3236 21.1855 55.0976 21.0996V24.2188C54.9813 24.2537 54.8185 24.2885 54.6092 24.3234C54.3784 24.3599 54.145 24.3773 53.9114 24.3756C53.388 24.3756 53.0101 24.2885 52.7775 24.1143C52.5449 23.94 52.4286 23.6089 52.4286 23.121V14.4953C52.4286 14.1932 52.4925 13.9493 52.6205 13.7634C52.7484 13.5659 52.9286 13.3916 53.1612 13.2406C53.5101 13.0199 53.9579 12.8398 54.5045 12.7004C55.0963 12.5436 55.7065 12.4674 56.3187 12.4739C56.9933 12.4739 57.6097 12.561 58.1679 12.7353C58.7094 12.8827 59.2104 13.1508 59.6333 13.5194C60.0403 13.8796 60.3543 14.3384 60.5753 14.8961C60.8079 15.4537 60.9242 16.1159 60.9242 16.8826C60.9242 17.6145 60.8137 18.265 60.5927 18.8343C60.4015 19.3633 60.098 19.8448 59.703 20.2458C59.3134 20.6212 58.8501 20.9119 58.3423 21.0996C57.7927 21.2898 57.2144 21.3842 56.6328 21.3784ZM56.2315 19.2699C56.8595 19.2699 57.3422 19.0724 57.6794 18.6774C58.0283 18.2825 58.2028 17.6842 58.2028 16.8826C58.2028 16.0578 58.0342 15.4653 57.6969 15.1052C57.3713 14.745 56.9119 14.565 56.3187 14.565C56.0513 14.565 55.8187 14.5998 55.621 14.6695C55.4233 14.7276 55.243 14.7973 55.0802 14.8786V18.9737C55.243 19.0666 55.4174 19.1421 55.6035 19.2002C55.7896 19.2467 55.9989 19.2699 56.2315 19.2699ZM71.4802 16.9174C71.4802 17.6029 71.3756 18.2244 71.1662 18.782C70.9701 19.3077 70.6604 19.7836 70.2591 20.176C69.8622 20.5678 69.3865 20.8707 68.8635 21.0648C68.3169 21.2739 67.7063 21.3784 67.0318 21.3784C66.403 21.3859 65.7776 21.2857 65.1826 21.0822C64.6558 20.8855 64.1749 20.5831 63.7696 20.1935C63.3775 19.797 63.0742 19.3219 62.8799 18.7994C62.6706 18.2418 62.5659 17.6145 62.5659 16.9174C62.5659 16.2436 62.6706 15.6337 62.8799 15.0877C63.1009 14.5301 63.4033 14.0596 63.7871 13.6763C64.1923 13.2867 64.6732 12.9842 65.2001 12.7876C65.7867 12.5735 66.4073 12.4672 67.0318 12.4739C67.6947 12.4739 68.2995 12.5784 68.8461 12.7876C69.3723 12.9834 69.8488 13.2928 70.2416 13.6937C70.6371 14.0771 70.9394 14.5417 71.1488 15.0877C71.3697 15.6337 71.4802 16.2436 71.4802 16.9174ZM67.0318 14.565C66.4852 14.565 66.0607 14.7683 65.7583 15.1749C65.4559 15.5815 65.3048 16.1623 65.3048 16.9174C65.3048 17.6958 65.4501 18.2883 65.7409 18.6949C66.0433 19.0898 66.4736 19.2873 67.0318 19.2873C67.59 19.2873 68.0145 19.084 68.3053 18.6774C68.6076 18.2708 68.7588 17.6842 68.7588 16.9174C68.7588 16.1739 68.6076 15.5989 68.3053 15.1923C68.0029 14.7741 67.5784 14.565 67.0318 14.565ZM82.0353 16.9174C82.0353 17.6029 81.9306 18.2244 81.7213 18.782C81.5255 19.3076 81.2161 19.7836 80.8151 20.176C80.4183 20.5678 79.9426 20.8707 79.4195 21.0648C78.8729 21.2739 78.2624 21.3784 77.5878 21.3784C76.9591 21.3859 76.3336 21.2857 75.7387 21.0822C75.2115 20.8856 74.7302 20.5832 74.3247 20.1935C73.9325 19.797 73.6293 19.3219 73.435 18.7994C73.2266 18.2418 73.122 17.6145 73.122 16.9174C73.122 16.2436 73.2266 15.6337 73.435 15.0877C73.656 14.5301 73.9584 14.0596 74.3431 13.6763C74.7484 13.2867 75.2293 12.9842 75.7561 12.7876C76.3428 12.5735 76.9633 12.4672 77.5878 12.4739C78.2507 12.4739 78.8555 12.5784 79.4021 12.7876C79.9283 12.9834 80.4049 13.2928 80.7977 13.6937C81.1921 14.0771 81.4955 14.5417 81.7038 15.0877C81.9258 15.6337 82.0353 16.2436 82.0353 16.9174ZM77.5869 14.565C77.0403 14.565 76.6158 14.7683 76.3134 15.1749C76.012 15.5815 75.8598 16.1623 75.8598 16.9174C75.8598 17.6958 76.0052 18.2883 76.296 18.6949C76.5993 19.0898 77.0296 19.2873 77.5878 19.2873C78.1461 19.2873 78.5706 19.084 78.8613 18.6774C79.1627 18.2708 79.3149 17.6842 79.3149 16.9174C79.3149 16.1739 79.1627 15.5989 78.8603 15.1923C78.5589 14.7741 78.1325 14.565 77.5869 14.565ZM89.0326 16.8129L92.0506 19.7404C91.9924 20.2283 91.8412 20.6059 91.597 20.8731C91.3644 21.1287 91.0271 21.2564 90.5852 21.2564C90.2479 21.2564 89.9514 21.1751 89.6955 21.0125C89.4396 20.8498 89.1547 20.5826 88.8407 20.2109L86.7648 17.7539V21.0996C86.6485 21.1345 86.4857 21.1635 86.2763 21.1867C86.0456 21.2232 85.8122 21.2407 85.5785 21.239C85.0552 21.239 84.6772 21.1577 84.4446 20.9951C84.212 20.8208 84.0957 20.4897 84.0957 20.0018V9.77291C84.2236 9.73806 84.3923 9.7032 84.6016 9.66835C84.811 9.6335 85.0436 9.61608 85.2994 9.61608C85.8228 9.61608 86.1949 9.7032 86.4159 9.87746C86.6485 10.0517 86.7648 10.3828 86.7648 10.8707V15.8022L89.9223 12.5959C90.4689 12.5959 90.905 12.7178 91.2306 12.9618C91.5563 13.2058 91.7191 13.5078 91.7191 13.8679C91.7191 14.1816 91.6086 14.4604 91.3876 14.7044C91.1783 14.9367 90.8469 15.2504 90.3933 15.6454L89.0326 16.8129ZM95.0578 19.026C94.7904 18.4451 94.4822 17.69 94.1333 16.7606C93.796 15.8196 93.4413 14.6056 93.0691 13.1186C93.2087 12.9676 93.4006 12.8398 93.6448 12.7353C93.9007 12.6191 94.174 12.561 94.4647 12.561C94.8369 12.561 95.1393 12.6423 95.3718 12.805C95.6044 12.956 95.7847 13.2406 95.9126 13.6588C96.1685 14.5069 96.4244 15.3433 96.6802 16.1681C96.9477 16.993 97.2152 17.8236 97.4827 18.66H97.5525C97.692 18.265 97.8374 17.8352 97.9886 17.3705C98.1398 16.8942 98.2851 16.4063 98.4247 15.9068C98.5636 15.3984 98.6915 14.8871 98.8085 14.3733C98.9364 13.8505 99.0469 13.3452 99.1399 12.8573C99.4864 12.6634 99.8768 12.5615 100.274 12.561C100.646 12.561 100.966 12.6423 101.233 12.805C101.501 12.9676 101.635 13.2348 101.635 13.6066C101.635 14.0248 101.559 14.5592 101.408 15.2097C101.268 15.8487 101.076 16.5225 100.832 17.2311C100.599 17.9281 100.332 18.6252 100.03 19.3222C99.7389 20.0076 99.4365 20.6117 99.1225 21.1345C98.4712 22.2381 97.8839 23.0571 97.3606 23.5915C96.8372 24.1375 96.3081 24.4105 95.7731 24.4105C95.3428 24.4105 94.9881 24.2769 94.709 24.0097C94.4273 23.7493 94.2479 23.3971 94.203 23.0164C94.5752 22.6912 94.959 22.3078 95.3544 21.8663C95.7391 21.465 96.0838 21.0273 96.3837 20.5594C96.1859 20.5013 95.9766 20.3735 95.7556 20.176C95.5463 19.9669 95.3137 19.5836 95.0578 19.026ZM106.921 19.1828C107.538 19.1828 107.974 19.0782 108.23 18.8691C108.497 18.6484 108.631 18.387 108.631 18.085C108.636 17.9575 108.61 17.8308 108.555 17.7155C108.5 17.6003 108.419 17.4998 108.317 17.4228C108.119 17.2485 107.817 17.0975 107.41 16.9697L106.52 16.6909C106.032 16.5399 105.59 16.3772 105.194 16.203C104.829 16.0362 104.488 15.8192 104.182 15.5582C103.907 15.3071 103.682 15.0054 103.52 14.6695C103.368 14.321 103.293 13.9028 103.293 13.4149C103.293 12.439 103.659 11.6665 104.392 11.0973C105.136 10.528 106.165 10.2434 107.48 10.2434C107.98 10.2434 108.439 10.2783 108.858 10.348C109.288 10.4177 109.654 10.528 109.957 10.679C110.259 10.8184 110.497 10.9927 110.672 11.2018C110.846 11.4109 110.934 11.6549 110.934 11.9337C110.938 12.1875 110.865 12.4365 110.724 12.6481C110.601 12.84 110.448 13.0107 110.271 13.1535C110.003 12.9676 109.648 12.8108 109.207 12.683C108.735 12.5513 108.248 12.4867 107.759 12.4913C107.2 12.4913 106.788 12.5784 106.52 12.7527C106.253 12.927 106.119 13.1477 106.119 13.4149C106.119 13.6472 106.206 13.8273 106.38 13.9551C106.555 14.0712 106.828 14.1932 107.2 14.321L108.142 14.6347C108.636 14.7976 109.114 15.0016 109.573 15.2446C109.992 15.4537 110.34 15.6976 110.62 15.9765C110.899 16.2436 111.108 16.5573 111.248 16.9174C111.387 17.266 111.457 17.6667 111.457 18.1198C111.457 18.6077 111.358 19.055 111.16 19.4616C110.964 19.8691 110.67 20.2221 110.306 20.4897C109.933 20.7801 109.468 21.0067 108.91 21.1693C108.363 21.332 107.73 21.4133 107.009 21.4133C106.511 21.4168 106.014 21.3701 105.526 21.2739C105.116 21.2061 104.716 21.083 104.339 20.9079C104.04 20.7655 103.773 20.5639 103.554 20.3155C103.372 20.0816 103.273 19.793 103.275 19.4964C103.275 19.1828 103.363 18.9214 103.537 18.7123C103.712 18.5122 103.918 18.3416 104.148 18.2069C104.462 18.4625 104.851 18.6891 105.316 18.8865C105.826 19.0903 106.372 19.191 106.921 19.1828ZM119.187 16.1333C119.082 16.5631 118.966 17.0046 118.838 17.4576C118.71 17.9107 118.582 18.3522 118.454 18.782C118.326 19.2118 118.204 19.6068 118.088 19.9669C117.992 20.2622 117.899 20.5585 117.809 20.8556C117.495 21.1345 116.995 21.2739 116.309 21.2739C115.89 21.2739 115.524 21.2158 115.21 21.0996C114.896 20.9834 114.686 20.8092 114.581 20.5768C114.454 20.298 114.302 19.8566 114.128 19.2525C113.953 18.6484 113.779 17.9862 113.605 17.266C113.442 16.5457 113.285 15.8138 113.134 15.0703C113 14.4219 112.878 13.7713 112.767 13.1186C112.907 12.9676 113.099 12.8398 113.343 12.7353C113.599 12.6191 113.872 12.561 114.163 12.561C114.535 12.561 114.837 12.6481 115.07 12.8224C115.303 12.985 115.448 13.2697 115.506 13.6763L115.803 15.7673C115.935 16.5934 116.074 17.4183 116.221 18.2418C116.279 18.4858 116.32 18.6774 116.343 18.8168H116.413L116.623 17.9804C116.716 17.6087 116.826 17.1904 116.954 16.7258C117.082 16.2495 117.216 15.7441 117.355 15.2097C117.506 14.6637 117.652 14.1177 117.791 13.5717C117.989 13.4555 118.193 13.3684 118.402 13.3103C118.623 13.2406 118.885 13.2058 119.187 13.2058C119.559 13.2058 119.873 13.2697 120.129 13.3975C120.396 13.5136 120.565 13.6937 120.635 13.9376C120.786 14.4604 120.931 14.9774 121.071 15.4885C121.211 15.9881 121.338 16.4528 121.455 16.8826C121.571 17.3124 121.67 17.6958 121.751 18.0327C121.844 18.3696 121.914 18.631 121.961 18.8168H122.048C122.396 16.8442 122.693 14.8628 122.938 12.8747C123.124 12.7701 123.321 12.6946 123.531 12.6481C123.74 12.5901 123.949 12.561 124.159 12.561C124.519 12.561 124.816 12.6423 125.048 12.805C125.293 12.956 125.415 13.2232 125.415 13.6066C125.415 13.7808 125.38 14.0538 125.31 14.4256C125.252 14.7973 125.17 15.2155 125.066 15.6802C124.973 16.1449 124.862 16.6386 124.734 17.1614C124.611 17.6562 124.483 18.15 124.351 18.6426C124.223 19.1189 124.095 19.5545 123.967 19.9495C123.85 20.3445 123.752 20.6465 123.67 20.8556C123.542 20.9834 123.327 21.0822 123.025 21.1519C122.706 21.2353 122.377 21.2763 122.048 21.2739C121.164 21.2739 120.646 21.0589 120.495 20.6291L120.199 19.7753C120.082 19.4384 119.96 19.0724 119.832 18.6774C119.716 18.2708 119.6 17.8526 119.483 17.4228C119.367 16.9813 119.268 16.5515 119.187 16.1333ZM130.776 19.4267C131.032 19.4267 131.282 19.4035 131.526 19.357C131.782 19.299 131.974 19.2292 132.102 19.1479V17.5448L130.671 17.6667C130.299 17.7016 129.997 17.7887 129.764 17.9281C129.543 18.0559 129.433 18.2534 129.433 18.5206C129.428 18.6481 129.454 18.7748 129.509 18.89C129.563 19.0053 129.645 19.1057 129.747 19.1828C129.956 19.3454 130.299 19.4267 130.776 19.4267ZM130.671 12.4739C131.276 12.4739 131.823 12.5378 132.311 12.6656C132.811 12.7817 133.236 12.9676 133.585 13.2232C133.934 13.4788 134.201 13.8041 134.387 14.199C134.585 14.594 134.684 15.0587 134.684 15.5931V19.5313C134.684 19.8333 134.602 20.0773 134.439 20.2632C134.288 20.4374 134.102 20.5885 133.881 20.7162C133.521 20.937 133.079 21.1054 132.555 21.2216C131.97 21.344 131.374 21.4024 130.776 21.3958C129.578 21.3958 128.625 21.1693 127.915 20.7162C127.206 20.2516 126.851 19.5487 126.851 18.6077C126.851 17.8062 127.089 17.1963 127.566 16.778C128.043 16.3598 128.776 16.0984 129.764 15.9939L132.084 15.7499V15.5582C132.084 15.1865 131.933 14.9135 131.631 14.7392C131.329 14.565 130.892 14.4778 130.323 14.4778C129.881 14.4778 129.444 14.5301 129.014 14.6347C128.628 14.7288 128.249 14.8511 127.88 15.0006C127.727 14.8921 127.601 14.7488 127.514 14.5824C127.421 14.3863 127.373 14.172 127.374 13.9551C127.374 13.4439 127.642 13.078 128.177 12.8573C128.554 12.7197 128.947 12.6262 129.346 12.5784C129.784 12.5099 130.227 12.475 130.671 12.4739ZM141.263 21.3784C140.961 21.3784 140.682 21.3494 140.426 21.2913C140.188 21.2497 139.954 21.1855 139.728 21.0996V24.2188C139.612 24.2537 139.449 24.2885 139.24 24.3234C139.009 24.3599 138.776 24.3773 138.542 24.3756C138.019 24.3756 137.641 24.2885 137.408 24.1143C137.175 23.94 137.059 23.6089 137.059 23.121V14.4953C137.059 14.1932 137.123 13.9493 137.251 13.7634C137.379 13.5659 137.559 13.3916 137.792 13.2406C138.141 13.0199 138.588 12.8398 139.135 12.7004C139.727 12.5436 140.337 12.4674 140.949 12.4739C141.624 12.4739 142.24 12.561 142.798 12.7353C143.34 12.8827 143.841 13.1508 144.264 13.5194C144.671 13.8796 144.985 14.3384 145.206 14.8961C145.438 15.4537 145.555 16.1159 145.555 16.8826C145.555 17.6145 145.444 18.265 145.223 18.8343C145.032 19.3633 144.729 19.8448 144.334 20.2458C143.944 20.6212 143.481 20.9119 142.973 21.0996C142.423 21.2898 141.845 21.3842 141.263 21.3784ZM140.862 19.2699C141.49 19.2699 141.973 19.0724 142.31 18.6774C142.659 18.2825 142.833 17.6842 142.833 16.8826C142.833 16.0578 142.665 15.4653 142.327 15.1052C142.002 14.745 141.542 14.565 140.949 14.565C140.682 14.565 140.449 14.5998 140.252 14.6695C140.054 14.7276 139.874 14.7973 139.711 14.8786V18.9737C139.874 19.0666 140.048 19.1421 140.234 19.2002C140.42 19.2467 140.629 19.2699 140.862 19.2699ZM32.2091 17.235C32.0453 17.0501 31.707 16.8216 31.2496 16.5815C31.206 16.5592 31.1517 16.5379 31.1081 16.505C30.3987 16.1459 29.4392 15.7761 28.4584 15.4595H28.4691C28.6871 14.2726 28.8509 13.0422 28.6649 11.8553C28.4691 10.014 27.8372 9.45828 25.9396 9.92683C25.6334 10.002 25.3313 10.0928 25.0344 10.1989C24.8163 9.84067 24.5983 9.50184 24.3909 9.20851C22.3964 6.311 17.9693 0.680566 16.1918 0.680566C14.9058 0.615703 14.2952 0.964217 13.2708 1.5625C13.1719 1.61768 13.0634 1.68254 12.9539 1.74837C12.2241 2.16175 11.6678 2.56448 11.0679 2.98947C10.5126 3.3876 9.94538 3.76888 9.36703 4.13279C9.22553 4.21992 9.0724 4.31866 8.93091 4.41644C8.52774 4.66718 8.13523 4.94986 7.75338 5.25481C7.59745 5.38524 7.45165 5.52731 7.31726 5.6798C7.28431 5.72337 7.21938 5.79985 7.18643 5.86471C6.76097 5.75628 5.88873 5.98475 5.88873 5.98475C5.88873 5.98475 5.33243 4.73204 4.9186 4.78528C4.5038 4.85112 4.58037 6.16869 4.58037 6.16869C4.58037 6.16869 3.25069 6.26647 3.15183 6.59369C3.06461 6.91993 4.35165 7.46497 4.35165 7.46497C4.35165 7.46497 4.02407 8.81546 4.32936 8.96745C4.62398 9.12041 5.5408 8.09617 5.5408 8.09617C5.5408 8.09617 6.73965 8.83676 6.94608 8.59764C7.15348 8.35755 6.48864 7.17067 6.48864 7.17067C6.48864 7.17067 7.08854 6.71373 7.32792 6.34295C7.37154 6.38651 7.42581 6.44073 7.48105 6.48429C7.99276 6.8328 8.52774 7.12711 9.0947 7.38849V7.39914C9.06174 7.46497 8.81073 7.91126 8.50545 8.46695C8.49475 8.49091 8.47999 8.51285 8.46184 8.53181C8.35329 8.72833 8.23312 8.93551 8.1236 9.14171C8.03638 9.29467 7.96078 9.43601 7.88422 9.57735C7.82995 9.67513 7.78633 9.76323 7.73109 9.85036C7.67682 9.94716 7.63418 10.0343 7.57894 10.1214C7.35514 10.0505 7.12958 9.98531 6.90246 9.92587C5.00583 9.45731 4.37297 10.013 4.1772 11.8533C3.99209 13.0412 4.15491 14.261 4.37297 15.4479C3.42049 15.7355 2.4942 16.1034 1.60409 16.5476C1.59343 16.5592 1.5818 16.5592 1.57114 16.5699C1.03713 16.8526 0.677577 17.0927 0.590353 17.2234C0.415905 17.4847 0.939249 17.7355 1.68065 17.9417C1.70197 17.9533 1.72427 17.9533 1.74559 17.964C2.21466 18.083 2.75932 18.1924 3.27201 18.2796C3.51236 18.3125 3.89324 18.356 4.39526 18.3889C4.26349 18.9971 4.19753 19.6177 4.19852 20.2399C4.19852 20.937 4.28574 21.6127 4.43887 22.2662C3.75174 22.3852 3.0869 22.5595 2.43272 22.8102C2.40183 22.8188 2.37317 22.834 2.34874 22.8547C2.3243 22.8754 2.30468 22.9012 2.29122 22.9303C2.25827 22.9951 2.24761 23.0493 2.26893 23.1152C2.28596 23.1746 2.32516 23.2252 2.37845 23.2565C2.40579 23.2735 2.43654 23.2844 2.46852 23.2882C2.50051 23.2921 2.53295 23.2888 2.56355 23.2788C3.21254 23.0311 3.88456 22.8486 4.56971 22.7338C4.7112 23.213 4.89631 23.6815 5.11437 24.1278C5.04944 24.1501 4.97288 24.1714 4.90794 24.1936C4.34099 24.3679 3.71879 24.5964 3.27201 25.0107C3.04329 25.2169 3.38152 25.5654 3.61024 25.3476C3.98046 25.0107 4.55905 24.7929 5.0601 24.6506C5.15798 24.6177 5.24521 24.5964 5.34406 24.5751C5.56212 24.9662 5.81216 25.3592 6.09613 25.7174C6.03022 25.762 5.96529 25.7949 5.89939 25.8384C5.45189 26.1153 5.05714 26.4693 4.73349 26.884C4.71659 26.9112 4.70584 26.9417 4.70199 26.9735C4.69814 27.0053 4.70129 27.0375 4.7112 27.0679C4.71737 27.0998 4.73034 27.1299 4.74924 27.1563C4.76814 27.1827 4.79252 27.2047 4.82072 27.2209C4.84806 27.2379 4.87881 27.2487 4.91079 27.2526C4.94278 27.2564 4.97522 27.2532 5.00583 27.2431C5.03755 27.2368 5.06756 27.2238 5.09381 27.205C5.12006 27.1861 5.14194 27.1618 5.15798 27.1337C5.43129 26.7639 5.82379 26.4696 6.20467 26.2189C6.27058 26.1753 6.33551 26.1424 6.40141 26.0998C8.61496 28.7679 12.3113 30.5105 16.4758 30.5105C20.6732 30.5105 24.3696 28.7563 26.5938 26.0669C26.6703 26.1105 26.7469 26.154 26.8225 26.2082C27.215 26.459 27.6191 26.7639 27.8915 27.1444C27.9244 27.1996 27.9787 27.2431 28.0436 27.2538C28.1095 27.2644 28.1745 27.2644 28.2287 27.2315C28.2568 27.2155 28.2811 27.1936 28.3 27.1674C28.3189 27.1412 28.332 27.1112 28.3383 27.0795C28.3489 27.0147 28.3489 26.9488 28.316 26.8946C27.9457 26.3825 27.4437 26.0011 26.8991 25.6748C27.1714 25.3147 27.4117 24.9342 27.6298 24.5528C27.7383 24.5857 27.8585 24.6177 27.968 24.6506C28.251 24.7271 28.5234 24.8365 28.785 24.9555C29.0147 25.0533 29.2328 25.184 29.4179 25.3476C29.6466 25.5548 29.9848 25.2169 29.7552 25.0107C29.3093 24.5964 28.6988 24.3679 28.1202 24.1936C28.033 24.1607 27.9351 24.1394 27.8479 24.1172C28.0659 23.6709 28.251 23.2023 28.3925 22.7231C29.1019 22.8325 29.7881 23.0174 30.4646 23.2788C30.4952 23.2888 30.5276 23.2921 30.5596 23.2882C30.5916 23.2844 30.6223 23.2735 30.6497 23.2565C30.6764 23.2414 30.6998 23.2211 30.7186 23.1968C30.7374 23.1725 30.7512 23.1448 30.7592 23.1152C30.7689 23.0493 30.7689 22.9845 30.7369 22.9303C30.7218 22.9035 30.7015 22.8801 30.6772 22.8613C30.6529 22.8425 30.6251 22.8288 30.5954 22.8209C29.927 22.5613 29.2322 22.3753 28.5234 22.2662C28.8401 20.9569 28.8437 19.5915 28.534 18.2805C28.818 18.2466 29.0574 18.2253 29.2434 18.1924C29.4722 18.1489 29.6902 18.1159 29.9189 18.083C30.2785 18.0288 30.6167 17.964 30.922 17.9088L31.0858 17.8768C31.2724 17.8381 31.4579 17.7946 31.6421 17.7461C32.1218 17.5932 32.3835 17.4421 32.2091 17.235ZM8.29805 11.5281L9.36703 9.58897C9.57443 9.21916 9.78086 8.84935 9.93398 8.56569C10.0212 8.40209 10.0978 8.26074 10.152 8.16297C10.1743 8.1194 10.2063 8.07584 10.2179 8.04292C10.2314 8.028 10.2389 8.00875 10.2393 7.98871C10.2393 7.97806 10.2499 7.96644 10.2616 7.94514C10.2616 7.9345 10.2829 7.90158 10.2935 7.85802C10.3192 7.79886 10.3375 7.73675 10.3478 7.67311C10.3594 7.60728 10.3808 7.42141 10.3808 7.30233C10.3372 7.06321 9.99989 6.55109 9.59575 6.25679L9.61804 6.20257C9.4213 6.11545 9.23619 6.01767 9.04042 5.91892C9.22456 5.78823 9.4213 5.65754 9.61804 5.52684L9.6287 5.5162L9.63936 5.50555C9.7702 5.41842 9.90103 5.34194 10.0435 5.24416C10.0978 5.21125 10.152 5.17833 10.2179 5.13477C10.7618 4.78633 11.296 4.42316 11.82 4.04566C11.8965 3.99145 11.9615 3.94788 12.0274 3.89367C12.5357 3.52979 13.0595 3.18806 13.5974 2.86943C13.7282 2.79392 13.8377 2.72808 13.9463 2.66322C14.3931 2.40184 14.6654 2.24888 14.96 2.12883C15.244 2.02041 15.5599 1.95458 16.1046 1.97684H16.1269C16.1492 1.98749 16.2141 1.99814 16.3236 2.06397C16.5194 2.1724 16.7694 2.34666 17.0864 2.59739C17.7076 3.10951 18.4383 3.85011 19.2127 4.71074C20.7711 6.45331 22.3421 8.5444 23.3229 9.95975C23.7154 10.5367 24.1622 11.2773 24.6099 12.0615C22.974 11.8001 20.1615 11.4845 16.3779 11.4845C12.3656 11.4845 9.57443 11.8543 7.97144 12.1486C8.06933 11.9308 8.17884 11.7236 8.29805 11.5281ZM8.94157 22.5934C7.52466 21.8092 7.41515 19.5003 7.41515 19.5003C7.41515 19.5003 9.87971 19.3367 11.3189 19.9689C13.4666 20.9166 13.7389 23.0726 13.7389 23.0726C13.7389 23.0726 10.6095 23.5189 8.94157 22.5934ZM16.563 25.0117C16.1705 25.0117 15.8546 24.8694 15.8546 24.7058C15.8546 24.5315 16.1705 24.4008 16.563 24.4008C16.9555 24.4008 17.2715 24.5431 17.2715 24.7067C17.2715 24.8694 16.9555 25.0117 16.563 25.0117ZM24.0972 22.604C22.4177 23.5295 19.3106 23.0726 19.3106 23.0726V23.0619C19.3106 23.0619 19.5722 20.9166 21.7315 19.9795C23.1707 19.3483 25.6343 19.511 25.6343 19.511C25.6343 19.511 25.5141 21.7986 24.0972 22.604ZM24.2164 17.2021C21.9273 17.2785 19.1574 17.3221 16.4438 17.3434C13.7538 17.3594 11.0637 17.3304 8.37461 17.2563C6.22696 17.2021 4.56971 17.1149 3.77403 17.0278C4.30803 16.8322 4.90794 16.6357 5.52917 16.4731L6.20467 16.2988L6.43436 15.6454C6.50996 15.4266 6.59718 15.2097 6.67374 14.9919C9.91543 14.5552 13.1825 14.333 16.4535 14.3268C19.7137 14.3375 22.9633 14.5776 26.1906 15.0355C26.3544 15.3617 26.4959 15.6337 26.6044 15.8632L26.8777 16.3956L27.4554 16.5379C27.5862 16.5709 27.6947 16.6028 27.7936 16.6251C28.0989 16.7122 28.4042 16.8216 28.6978 16.9194C27.8692 17.0385 26.2662 17.1256 24.2164 17.2021Z" fill="white"/>
</svg>
