<svg width="103" height="21" viewBox="0 0 103 21" fill="none" xmlns="http://www.w3.org/2000/svg">
<g clip-path="url(#clip0_648_2049)">
<path d="M100.189 12.6451C98.9016 11.0967 97.5806 9.5161 96.2936 7.96771C97.2758 6.80642 98.2242 5.67739 99.2064 4.5161C100.087 3.45158 101.002 2.38707 101.916 1.32255L103 0.0322266L101.239 0.0644846H97.9193C97.1403 0.0644846 96.4968 0.0644846 95.8871 0.0322266H95.7178C94.6678 0.0322266 93.9226 0.419323 93.313 1.22578C92.6694 2.06448 92.0259 2.87094 91.2807 3.70965C90.9759 4.06448 90.6711 4.41932 90.3662 4.77416L89.9598 5.25803L90.3662 5.7419C91.1791 6.7419 91.992 7.70965 92.8049 8.67739L94.2952 10.4838C93.7194 11.1613 93.1097 11.8709 92.5001 12.5806L92.0936 13.0645L92.5001 13.5484C92.6356 13.7096 92.771 13.8709 92.9065 14.0322C93.2791 14.4838 93.6517 14.9355 93.9904 15.3548C94.3291 15.7742 94.7694 16 95.3113 16H101.205L102.864 15.9677L101.814 14.7096L100.189 12.6451ZM84.0663 0.677388C83.6938 0.225775 83.2534 0.0322266 82.6777 0.0322266H74.8875L75.9713 1.32255C77.2923 2.87094 78.5793 4.41932 79.8664 5.93545C81.1196 7.41932 82.3728 8.9032 83.626 10.3871C81.0857 13.4516 78.5455 16.4838 75.9713 19.5806L74.9213 20.8709H82.6099C83.3212 20.8709 83.7276 20.5161 83.9647 20.2258L84.0325 20.1613C86.505 17.2258 89.0453 14.1935 91.5517 11.2258C91.8904 10.8387 92.1275 10.2258 91.5517 9.5161C88.8082 6.35481 86.3695 3.45158 84.0663 0.677388Z" fill="white"/>
<path d="M3.3193 15.9355C2.70964 15.9355 2.16771 15.8065 1.65965 15.5161C1.15159 15.2258 0.74515 14.8387 0.440316 14.3548C0.135482 13.871 0 13.3226 0 12.7419V11.3871H3.35317V12.5806C3.35317 12.6129 3.35317 12.6452 3.38704 12.6774C3.42091 12.7097 3.42091 12.7097 3.45478 12.7097H13.1756C13.2095 12.7097 13.2433 12.7097 13.2772 12.6774C13.3111 12.6452 13.3111 12.6129 13.3111 12.5806V9.67742C13.3111 9.64516 13.3111 9.6129 13.2772 9.6129C13.2433 9.58065 13.2095 9.58065 13.1756 9.58065H3.3193C2.70964 9.58065 2.16771 9.45161 1.65965 9.16129C1.15159 8.87097 0.74515 8.48387 0.440316 8C0.135482 7.51613 0 6.96774 0 6.3871V3.19355C0 2.6129 0.135482 2.06452 0.440316 1.58065C0.74515 1.09677 1.15159 0.709677 1.65965 0.419355C2.16771 0.16129 2.70964 0 3.3193 0H13.3788C13.9885 0 14.5304 0.129032 15.0385 0.419355C15.5465 0.709677 15.953 1.09677 16.2578 1.58065C16.5626 2.06452 16.732 2.58065 16.732 3.19355V4.54839H13.345V3.35484C13.345 3.32258 13.345 3.29032 13.3111 3.25806C13.2433 3.22581 13.2095 3.22581 13.1756 3.22581H3.45478C3.42091 3.22581 3.38704 3.22581 3.38704 3.25806C3.35317 3.29032 3.35317 3.32258 3.35317 3.35484V6.25806C3.35317 6.29032 3.35317 6.32258 3.38704 6.32258C3.40962 6.34409 3.4322 6.35484 3.45478 6.35484H13.3788C13.9885 6.35484 14.5304 6.48387 15.0385 6.77419C15.5465 7.06452 15.953 7.45161 16.2578 7.93548C16.5626 8.41936 16.732 8.96774 16.732 9.51613V12.7097C16.732 13.2903 16.5626 13.8387 16.2578 14.3226C15.953 14.8065 15.5465 15.1935 15.0385 15.4839C14.5304 15.7742 13.9885 15.9032 13.3788 15.9032H3.3193V15.9355Z" fill="white"/>
<path d="M23.4383 15.9354L18.1545 3.09668H21.6771L24.7593 10.1612L27.977 3.09668H31.2624L34.7172 10.258L37.5962 3.09668H41.1187L36.072 15.9354H33.5317L29.6366 7.83861L25.9786 15.9354H23.4383Z" fill="white"/>
<path d="M45.7591 15.9354C45.1833 15.9354 44.6413 15.8064 44.1333 15.516C43.6252 15.2257 43.2188 14.8386 42.9478 14.387C42.643 13.9031 42.5075 13.387 42.5075 12.8386V7.93539H52.838V6.387C52.838 6.35474 52.838 6.32249 52.8041 6.29023C52.7702 6.25797 52.7364 6.25797 52.7025 6.25797H42.4736V3.09668H52.838C53.4477 3.09668 53.9896 3.22571 54.4976 3.51603C55.0057 3.80636 55.3783 4.19345 55.6831 4.64507C55.9879 5.12894 56.1234 5.64507 56.1234 6.19345V15.9031H45.7591V15.9354ZM45.8945 12.7741H52.838V10.7096H45.7929V12.6451C45.7929 12.6773 45.7929 12.7096 45.8268 12.7418C45.8607 12.7741 45.8607 12.7741 45.8945 12.7741Z" fill="white"/>
<path d="M58.6296 20.9999V3.09668H68.994C69.6037 3.09668 70.1456 3.22571 70.6536 3.51603C71.1617 3.80636 71.5343 4.19345 71.8391 4.64507C72.1439 5.12894 72.2794 5.64507 72.2794 6.19345V12.7741C72.2794 13.3225 72.1439 13.8386 71.8391 14.3225C71.5343 14.8064 71.1617 15.1612 70.6536 15.4515C70.1456 15.7418 69.6037 15.8709 68.994 15.8709H61.9151V20.9676H58.6296V20.9999ZM62.0505 12.7741H68.8246C68.8585 12.7741 68.8924 12.7741 68.9262 12.7418C68.9601 12.7096 68.9601 12.6773 68.9601 12.6451V6.387C68.9601 6.35474 68.9601 6.32249 68.9262 6.29023C68.8924 6.25797 68.8585 6.25797 68.8246 6.25797H62.0505C62.0167 6.25797 61.9828 6.25797 61.9489 6.29023C61.9151 6.32249 61.9151 6.35474 61.9151 6.387V12.6773C61.9151 12.7096 61.9151 12.7418 61.9489 12.7741H62.0505Z" fill="white"/>
</g>
<defs>
<clipPath id="clip0_648_2049">
<rect width="103" height="21" fill="white"/>
</clipPath>
</defs>
</svg>
