<?xml version="1.0" encoding="utf-8"?>
<svg width="3194" height="647" viewBox="0 0 3194 647" fill="none" xmlns="http://www.w3.org/2000/svg">
  <path d="M864.077 210.929H898.799L995.958 436.464H950.086L929.062 384.859H831.266L810.879 436.464H765.963L864.077 210.929ZM915.045 350.455L880.323 258.712L844.964 350.455H915.045Z" style="fill: rgb(255, 255, 255);"/>
  <path d="M1039.01 210.929H1085.2L1146.68 381.355L1210.07 210.929H1253.4L1162.29 436.464H1127.57L1039.01 210.929Z" style="fill: rgb(255, 255, 255);"/>
  <path d="M1396.84 210.929H1431.57L1528.72 436.464H1482.85L1461.83 384.859H1364.03L1343.64 436.464H1298.73L1396.84 210.929ZM1447.81 350.455L1413.09 258.712L1377.73 350.455H1447.81Z" style="fill: rgb(255, 255, 255);"/>
  <path d="M1617.5 210.929H1657.64V400.149H1753.52V436.464H1617.5V210.929Z" style="fill: rgb(255, 255, 255);"/>
  <path d="M1919.34 210.929H1954.07L2051.22 436.464H2005.35L1984.33 384.859H1886.53L1866.15 436.464H1821.23L1919.34 210.929ZM1970.31 350.455L1935.59 258.712L1900.23 350.455H1970.31Z" style="fill: rgb(255, 255, 255);"/>
  <path d="M2140 210.929H2193.2L2302.46 378.488H2303.1V210.929H2343.23V436.464H2292.27L2180.77 263.49H2180.14V436.464H2140V210.929Z" style="fill: rgb(255, 255, 255);"/>
  <path d="M2612.06 263.809C2603.78 254.889 2595.71 248.943 2587.85 245.97C2580.21 242.997 2572.45 241.51 2564.6 241.51C2552.92 241.51 2542.3 243.634 2532.74 247.881C2523.4 251.916 2515.33 257.65 2508.53 265.083C2501.74 272.304 2496.43 280.798 2492.6 290.567C2488.99 300.336 2487.19 310.848 2487.19 322.104C2487.19 334.209 2488.99 345.358 2492.6 355.552C2496.43 365.746 2501.74 374.559 2508.53 381.992C2515.33 389.425 2523.4 395.265 2532.74 399.512C2542.3 403.76 2552.92 405.883 2564.6 405.883C2573.73 405.883 2582.54 403.76 2591.04 399.512C2599.74 395.052 2607.81 388.044 2615.25 378.488L2648.38 402.061C2638.18 416.077 2625.76 426.271 2611.1 432.642C2596.45 439.013 2580.84 442.198 2564.28 442.198C2546.86 442.198 2530.83 439.437 2516.18 433.916C2501.74 428.182 2489.21 420.218 2478.59 410.024C2468.18 399.618 2460 387.195 2454.06 372.754C2448.11 358.313 2445.14 342.279 2445.14 324.652C2445.14 306.601 2448.11 290.249 2454.06 275.595C2460 260.73 2468.18 248.094 2478.59 237.688C2489.21 227.282 2501.74 219.318 2516.18 213.796C2530.83 208.062 2546.86 205.195 2564.28 205.195C2579.57 205.195 2593.69 207.956 2606.65 213.478C2619.81 218.787 2632.02 227.919 2643.28 240.873L2612.06 263.809Z" style="fill: rgb(255, 255, 255);"/>
  <path d="M2739.03 210.929H2779.16V300.761H2884.6V210.929H2924.74V436.464H2884.6V337.076H2779.16V436.464H2739.03V210.929Z" style="fill: rgb(255, 255, 255);"/>
  <path d="M3038.85 210.929H3188.25V247.244H3078.99V302.672H3182.52V338.987H3078.99V400.149H3193.99V436.464H3038.85V210.929Z" style="fill: rgb(255, 255, 255);"/>
  <path fill-rule="evenodd" clip-rule="evenodd" d="M 342.514 646.159 C 521.178 646.159 666.014 501.323 666.014 322.659 C 666.014 143.995 521.178 -0.841 342.514 -0.841 C 163.85 -0.841 19.015 143.995 19.015 322.659 C 19.015 501.323 163.85 646.159 342.514 646.159 Z M 244.767 469.219 L 168.877 469.219 C 150.884 469.219 141.887 469.219 136.499 465.734 C 130.676 461.969 127.002 455.65 126.613 448.731 C 126.252 442.328 130.708 434.521 139.62 418.909 L 139.624 418.903 L 305.781 127.814 C 314.824 111.97 319.346 104.048 325.1 101.099 C 331.315 97.913 338.686 97.907 344.906 101.085 C 350.664 104.025 355.197 111.941 364.263 127.771 L 402.585 194.679 L 402.586 194.681 C 409.179 206.191 412.475 211.947 413.925 218.019 C 415.503 224.63 415.506 231.517 413.934 238.128 C 412.49 244.202 409.198 249.962 402.614 261.479 L 303.254 435.298 C 296.575 446.984 293.235 452.827 288.659 457.194 C 283.678 461.948 277.638 465.452 271.036 467.416 C 264.97 469.219 258.236 469.219 244.767 469.219 Z M 515.52 469.219 L 427.534 469.219 C 409.378 469.219 400.299 469.219 394.894 465.704 C 389.054 461.906 385.391 455.54 385.046 448.588 C 384.726 442.154 389.295 434.314 398.433 418.638 L 442.353 343.286 C 451.376 327.808 455.888 320.069 461.599 317.17 C 467.772 314.037 475.071 314.032 481.249 317.155 C 486.966 320.045 491.487 327.778 500.53 343.241 L 500.532 343.246 L 544.598 418.596 C 553.771 434.282 558.357 442.126 558.044 448.565 C 557.705 455.523 554.044 461.896 548.201 465.7 C 542.796 469.219 533.704 469.219 515.52 469.219 Z" style="fill: rgb(255, 255, 255);"/>
</svg>