<?xml version="1.0" encoding="utf-8"?>
<svg height="800" width="1200" preserveAspectRatio="none" xmlns="http://www.w3.org/2000/svg">
  <path d="M 306.2 155.7 C 306.2 157.6 304.6 159.2 302.6 159.2 C 302.6 159.2 290.514 159.2 284.471 159.2 C 268.414 159.2 236.3 159.2 236.3 159.2 C 238 175.6 250.3 190.6 267.7 190.6 C 279.6 190.6 288.4 186.1 295 176.6 C 295.7 175.6 296.7 174.9 297.9 174.9 C 299.8 174.9 301.2 176.3 301.2 178.2 C 301.2 178.9 301 179.4 300.7 179.9 C 294 191.5 280.7 197.2 267.7 197.2 C 245.4 197.2 229.4 177.2 229.4 155.9 C 229.4 134.5 245.3 114.6 267.7 114.6 C 290 114.6 306.1 134.4 306.2 155.7 Z M 299.1 152.6 C 297.7 136.2 285.1 121.2 267.7 121.2 C 250.3 121.2 238 136.2 236.3 152.6 L 299.1 152.6 Z M 386.7 116.2 C 388.6 116.2 390 117.9 390 119.5 C 390 121.4 388.6 122.8 386.7 122.8 L 368.9 122.8 L 368.9 192.7 C 368.9 194.4 367.5 196 365.6 196 C 363.7 196 362.3 194.3 362.3 192.7 L 362.3 122.8 L 345.2 122.8 C 343.3 122.8 341.9 121.4 341.9 119.5 C 341.9 117.8 343.3 116.2 345.2 116.2 L 362.3 116.2 L 362.3 90.7 C 362.3 89 363.6 87.4 365.3 87.2 C 367.4 87 369 88.5 369 90.5 L 369 116.2 L 386.7 116.2 Z M 495.3 150 L 495.3 192.3 C 495.3 194.2 493.6 195.6 492 195.6 C 490.1 195.6 488.7 194.2 488.7 192.3 L 488.7 150 C 488.7 135.7 480.6 121.5 464.7 121.5 C 444.3 121.5 435.5 139.3 436.7 157.6 C 436.7 158.1 436.9 160.2 436.9 160.5 L 436.9 192.2 C 436.9 193.9 435.6 195.5 433.9 195.7 C 431.8 195.9 430.2 194.4 430.2 192.4 L 430.2 53.3 C 430.2 51.6 431.6 50 433.5 50 C 435.4 50 436.8 51.7 436.8 53.3 L 436.8 131.9 C 442.5 121.7 452.7 114.8 464.6 114.8 C 484.2 114.8 495.3 131.9 495.3 150 Z M 614.4 155.7 C 614.4 157.6 612.8 159.2 610.8 159.2 L 544.5 159.2 C 546.2 175.6 558.5 190.6 575.9 190.6 C 587.8 190.6 596.6 186.1 603.2 176.6 C 603.9 175.6 604.9 174.9 606.1 174.9 C 608 174.9 609.4 176.3 609.4 178.2 C 609.4 178.9 609.2 179.4 608.9 179.9 C 602.2 191.5 588.9 197.2 575.9 197.2 C 553.6 197.2 537.6 177.2 537.6 155.9 C 537.6 134.5 553.5 114.6 575.9 114.6 C 598.1 114.6 614.2 134.4 614.4 155.7 Z M 607.2 152.6 C 605.8 136.2 593.2 121.2 575.8 121.2 C 558.5 121.2 546.1 136.2 544.4 152.6 L 607.2 152.6 Z M 695.8 119.3 C 695.8 121.4 694.6 122.6 692.7 122.9 C 673.2 125.8 664.4 141.7 664.4 160.2 L 664.4 191.9 C 664.4 193.6 663.1 195.2 661.4 195.4 C 659.3 195.6 657.7 194.1 657.7 192.1 L 657.7 119.8 C 657.7 118.1 659 116.5 660.7 116.3 C 662.8 116.1 664.4 117.6 664.4 119.6 L 664.4 134.3 C 669.9 125 680.8 116.2 692.2 116.2 C 693.9 116.2 695.8 117.4 695.8 119.3 Z M 804.9 155.7 C 804.9 157.6 803.3 159.2 801.3 159.2 L 735 159.2 C 736.7 175.6 749 190.6 766.4 190.6 C 778.3 190.6 787.1 186.1 793.7 176.6 C 794.4 175.6 795.4 174.9 796.6 174.9 C 798.5 174.9 799.9 176.3 799.9 178.2 C 799.9 178.9 799.7 179.4 799.4 179.9 C 792.7 191.5 779.4 197.2 766.4 197.2 C 744.1 197.2 728.1 177.2 728.1 155.9 C 728.1 134.5 744 114.6 766.4 114.6 C 788.7 114.6 804.8 134.4 804.9 155.7 Z M 797.8 152.6 C 796.4 136.2 783.8 121.2 766.4 121.2 C 749 121.2 736.7 136.2 735 152.6 L 797.8 152.6 Z M 912.1 120.1 L 912.1 192.7 C 912.1 194.6 910.4 196 908.8 196 C 906.9 196 905.5 194.6 905.5 192.7 L 905.5 178.9 C 900 189.8 890.3 197.7 877.9 197.7 C 858.2 197.7 847.3 180.6 847.3 162.5 L 847.3 120 C 847.3 118.3 848.7 116.7 850.6 116.7 C 852.5 116.7 853.9 118.4 853.9 120 L 853.9 162.5 C 853.9 176.8 862 191 877.9 191 C 900.2 191 905.5 170.1 905.5 147 L 905.5 119.9 C 905.5 117.9 907.6 115.9 910 116.8 C 911.2 117.4 912.1 118.7 912.1 120.1 Z M 1080 149.7 L 1080 192.2 C 1080 194.1 1078.3 195.5 1076.7 195.5 C 1074.8 195.5 1073.4 194.1 1073.4 192.2 L 1073.4 149.7 C 1073.4 135.4 1065.3 121.4 1049.4 121.4 C 1029.4 121.4 1021.8 142.8 1021.8 159.4 L 1021.8 192.2 C 1021.8 194.1 1020.1 195.5 1018.5 195.5 C 1016.6 195.5 1015.2 194.1 1015.2 192.2 L 1015.2 149.7 C 1015.2 135.4 1007.1 121.4 991.2 121.4 C 971 121.4 962.7 137.3 963.4 158.5 C 963.4 159 963.6 159.9 963.4 160.2 L 963.4 192.1 C 963.4 193.8 962.1 195.4 960.4 195.6 C 958.3 195.8 956.7 194.3 956.7 192.3 L 956.7 119.8 C 956.7 118.1 958 116.5 959.7 116.3 C 961.8 116.1 963.4 117.6 963.4 119.6 L 963.4 131.7 C 969.1 121.5 979.3 114.8 991.2 114.8 C 1004.7 114.8 1015.2 123.4 1019.5 135.9 C 1025 123.5 1035.7 114.8 1049.4 114.8 C 1068.9 114.8 1080 131.7 1080 149.7 Z" style="fill: rgb(255, 255, 255);"/>
  <path opacity=".6" d="M83 186.9l83.1-49.1L83 100.1 0 137.8z"/>
  <path opacity=".45" d="M83 100.1V0L0 137.8l83 49.1z"/>
  <path opacity=".8" d="M83 186.9l83.1-49.1L83 0v100.1z"/>
  <path opacity=".45" d="M83 202.6l-83-49 83 117z"/>
  <path opacity=".8" d="M166.1 153.6l-83.1 49v68z"/>
</svg>