<svg xmlns="http://www.w3.org/2000/svg" width="155.143" height="95.789" viewBox="0 0 155.143 95.789"><defs><style>.a{fill:#5d6065;}.a,.b{fill-rule:evenodd;}.b{fill:#00519b;}</style></defs><g transform="translate(-223.873 -347.958)"><path class="a" d="M274.614,363.7a8.169,8.169,0,0,1-.352-2.351,6.381,6.381,0,0,1,6.581-6.7,7.8,7.8,0,0,1,2.468.353,16.683,16.683,0,0,1,2.35-1.645,9.544,9.544,0,0,0-14.339,7.991,10.074,10.074,0,0,0,1.41,4.937,6.525,6.525,0,0,1,.7-.94,19.972,19.972,0,0,1,1.176-1.645Z" transform="translate(2.854 0.247)"/><path class="a" d="M287.154,354.388a15.02,15.02,0,0,0-2.233,1.528,6.61,6.61,0,0,1,2.35,5.289,6.425,6.425,0,0,1-6.581,6.582,6.3,6.3,0,0,1-5.171-2.469c-.235.353-.47.588-.705.94a9.8,9.8,0,0,0-.94,1.411,9.9,9.9,0,0,0,6.817,2.7,9.261,9.261,0,0,0,9.52-9.168,9.058,9.058,0,0,0-3.056-6.817Z" transform="translate(3.008 0.387)"/><path class="a" d="M270.78,383.874a6.578,6.578,0,0,1-4.113,6.229v2.821a9.345,9.345,0,0,0,7.051-9.051,9.5,9.5,0,0,0-4.348-7.757c-.353.94-.588,1.764-.94,2.586a6.71,6.71,0,0,1,2.35,5.171Z" transform="translate(2.574 1.694)"/><path class="a" d="M265.467,390.654h-.587a6.551,6.551,0,0,1-6.7-6.7,6.381,6.381,0,0,1,6.7-6.581,5.969,5.969,0,0,1,2.585.471,20.112,20.112,0,0,1,.824-2.468,10.912,10.912,0,0,0-3.408-.588,9.231,9.231,0,1,0,0,18.453h.587c0-.471-.118-1.058-.118-1.529,0-.352.118-.7.118-1.057Z" transform="translate(1.894 1.614)"/><path class="a" d="M270.976,400.211a6.351,6.351,0,0,1,6.581,6.581,6.467,6.467,0,0,1-4.819,6.465c.471.823.94,1.528,1.411,2.35a9.29,9.29,0,0,0,6.347-8.815,9.41,9.41,0,0,0-9.52-9.167,9.164,9.164,0,0,0-3.644.705,19.91,19.91,0,0,0,.471,2.586,7,7,0,0,1,3.173-.705Z" transform="translate(2.614 2.988)"/><path class="a" d="M264.727,406.7a6.878,6.878,0,0,1,1.763-4.7,24.042,24.042,0,0,1-.587-2.821,9.153,9.153,0,0,0-4.113,7.522,9.283,9.283,0,0,0,9.52,9.285,4.038,4.038,0,0,0,1.176-.117c-.471-.824-1.059-1.645-1.529-2.468a6.449,6.449,0,0,1-6.229-6.7Z" transform="translate(2.281 3.081)"/><path class="b" d="M345.2,425.7a50.6,50.6,0,0,1-31.616,11.166,49.918,49.918,0,0,1-32.2-11.635l-1.411,1.645a52.306,52.306,0,0,0,66.641.471L345.2,425.7Z" transform="translate(3.374 4.648)"/><path class="a" d="M314.958,397.958v10.695c0,2.468-.823,4.819-4,4.819s-4-2.351-4-4.819V397.958h-2.938V409.24c0,3.879,2.468,6.817,6.934,6.817s6.933-2.938,6.933-6.817V397.958Z" transform="translate(4.822 3.008)"/><path class="a" d="M316.722,367.672h7.992v2.468H313.784V352.393h2.938v15.279Z" transform="translate(5.408 0.267)"/><path class="a" d="M223.873,375.12h10.343V377.7h-7.4v4.232H234.1v2.586h-7.287v5.759h7.4v2.586H223.873V375.12Z" transform="translate(0 1.634)"/><path class="a" d="M278.973,374.233,291.2,386.809V375.173h2.938v18.452l-12.224-12.341V392.92h-2.938V374.233Z" transform="translate(3.314 1.581)"/><path class="a" d="M347.708,375.12h2.938v17.747h-2.938V375.12Z" transform="translate(7.449 1.634)"/><path class="a" d="M250.98,400.543v4.231h6.347v2.468H250.98V415.7h-2.938V397.958h9.52v2.586Z" transform="translate(1.454 3.008)"/><path class="a" d="M262.847,363.461h.117l2.821-11.048h2.821l-4.936,18.453-6.23-13.281-6.229,13.281-5.054-18.453H249.1l2.821,11.048h0l5.523-11.4,5.407,11.4Z" transform="translate(1.34 0.247)"/><path class="a" d="M326.305,381.859h-.117l-2.821,11.048h-2.821l4.936-18.453,6.23,13.4,6.229-13.4,5.053,18.453h-2.938l-2.821-11.048h-.118l-5.406,11.519-5.407-11.519Z" transform="translate(5.815 1.594)"/><path class="a" d="M327.747,404.7h0l-2.821,11.048h-2.938l4.937-18.453,6.347,13.281,6.229-13.281,4.936,18.453H341.5l-2.82-11.048h0l-5.407,11.4-5.524-11.4Z" transform="translate(5.902 2.968)"/><path class="a" d="M288.563,405.832h1.293c2.35,0,5.17.118,5.17-2.7s-2.938-2.7-5.288-2.7h-1.176v5.406Zm1.881-7.874c1.645,0,3.525,0,4.936.823a4.935,4.935,0,0,1,2.468,4.231,4.784,4.784,0,0,1-4.349,4.936l5.642,7.757h-3.292l-5.288-7.522h-2V415.7h-2.939V397.958Z" transform="translate(3.715 3.008)"/><path class="a" d="M297.986,360.267h1.293c2.35,0,5.054.118,5.054-2.7s-2.939-2.7-5.171-2.7h-1.176v5.406Zm1.881-7.874c1.645,0,3.526,0,4.936.823a4.824,4.824,0,0,1,2.35,4.231,4.7,4.7,0,0,1-4.348,4.936l5.759,7.757h-3.291l-5.407-7.522h-1.881v7.522h-2.938V352.393Z" transform="translate(4.281 0.267)"/><path class="a" d="M328.972,352.393h4.818c5.642,0,10.225,2.7,10.225,8.814s-4.465,8.933-10.225,8.933h-4.818V352.393Zm2.939,15.279h1.645c3.878,0,7.522-1.41,7.522-6.465,0-5.171-3.644-6.346-7.522-6.346h-1.645v12.811Z" transform="translate(6.322 0.267)"/><path class="a" d="M369.5,389.832a5.965,5.965,0,0,1-3.291.823,6.641,6.641,0,0,1,0-13.282,7.163,7.163,0,0,1,3.291.7l1.41-2.115a9.936,9.936,0,0,0-4.7-1.176,9.432,9.432,0,0,0-9.52,9.285,9.334,9.334,0,0,0,9.52,9.168,9.448,9.448,0,0,0,4.818-1.176l-1.528-2.233Z" transform="translate(7.989 1.614)"/><path class="a" d="M251.644,389.832a5.825,5.825,0,0,1-3.173.823,6.641,6.641,0,1,1,0-13.282,7,7,0,0,1,3.173.7l1.528-2.115a10.7,10.7,0,0,0-4.7-1.176,9.358,9.358,0,0,0-9.52,9.285,9.622,9.622,0,0,0,14.221,7.992l-1.528-2.233Z" transform="translate(0.907 1.614)"/><path class="b" d="M345.644,429.878a49.407,49.407,0,0,1-65.583-2.939,46.947,46.947,0,0,1-5.523-60.881A48.149,48.149,0,0,1,297.1,348.9l-.352-.94a49.222,49.222,0,0,0-22.919,17.513,47.564,47.564,0,0,0,5.524,62.174,50.406,50.406,0,0,0,66.876,2.939l-.587-.7Z" transform="translate(2.461 0)"/><path class="a" d="M318.079,384.072a9.523,9.523,0,1,1-9.52-9.285,9.432,9.432,0,0,1,9.52,9.285Zm-2.939,0a6.641,6.641,0,1,0-13.282,0,6.641,6.641,0,0,0,13.282,0Z" transform="translate(4.522 1.614)"/></g></svg>