<svg xmlns="http://www.w3.org/2000/svg" width="95.64" height="59.051" viewBox="0 0 95.64 59.051"><defs><style>.a{fill:#5d6065;}.a,.b{fill-rule:evenodd;}.b{fill:#00519b;}</style></defs><g transform="translate(0)"><path class="a" d="M273.352,359.233a5.035,5.035,0,0,1-.217-1.45,3.933,3.933,0,0,1,4.057-4.13,4.809,4.809,0,0,1,1.521.218,10.293,10.293,0,0,1,1.449-1.014,5.884,5.884,0,0,0-8.839,4.926,6.21,6.21,0,0,0,.869,3.044,4.02,4.02,0,0,1,.435-.58,12.3,12.3,0,0,1,.725-1.014Z" transform="translate(-240.312 -349.379)"/><path class="a" d="M282.06,354.388a9.26,9.26,0,0,0-1.376.942,4.075,4.075,0,0,1,1.449,3.261,3.961,3.961,0,0,1-4.057,4.058,3.884,3.884,0,0,1-3.188-1.522c-.145.218-.29.363-.435.58a6.044,6.044,0,0,0-.58.87,6.1,6.1,0,0,0,4.2,1.667,5.709,5.709,0,0,0,5.869-5.652,5.584,5.584,0,0,0-1.884-4.2Z" transform="translate(-241.196 -350.186)"/><path class="a" d="M269.2,380.9a4.055,4.055,0,0,1-2.536,3.84v1.739a5.761,5.761,0,0,0,4.347-5.579,5.859,5.859,0,0,0-2.68-4.782c-.218.58-.363,1.087-.58,1.594A4.136,4.136,0,0,1,269.2,380.9Z" transform="translate(-238.699 -357.714)"/><path class="a" d="M261.59,384.569h-.362a4.038,4.038,0,0,1-4.13-4.13,3.934,3.934,0,0,1,4.13-4.057,3.679,3.679,0,0,1,1.593.29,12.4,12.4,0,0,1,.508-1.521,6.726,6.726,0,0,0-2.1-.363,5.691,5.691,0,1,0,0,11.376h.362c0-.29-.073-.652-.073-.942,0-.217.073-.434.073-.652Z" transform="translate(-234.781 -357.253)"/><path class="a" d="M269.578,399.219a3.915,3.915,0,0,1,4.057,4.057,3.986,3.986,0,0,1-2.971,3.985c.29.507.58.942.87,1.449a5.727,5.727,0,0,0,3.913-5.434,5.8,5.8,0,0,0-5.869-5.651,5.649,5.649,0,0,0-2.246.435,12.274,12.274,0,0,0,.29,1.594,4.314,4.314,0,0,1,1.956-.435Z" transform="translate(-238.929 -365.165)"/><path class="a" d="M263.6,403.814a4.24,4.24,0,0,1,1.087-2.9,14.814,14.814,0,0,1-.362-1.739,5.643,5.643,0,0,0-2.536,4.637,5.723,5.723,0,0,0,5.869,5.724,2.489,2.489,0,0,0,.725-.072c-.29-.508-.653-1.014-.942-1.521a3.976,3.976,0,0,1-3.84-4.13Z" transform="translate(-237.009 -365.703)"/><path class="b" d="M320.182,425.519a31.19,31.19,0,0,1-19.49,6.883,30.773,30.773,0,0,1-19.852-7.173l-.87,1.014a32.245,32.245,0,0,0,41.082.29l-.87-1.015Z" transform="translate(-243.308 -374.729)"/><path class="a" d="M310.766,397.958v6.593c0,1.521-.507,2.971-2.463,2.971s-2.464-1.45-2.464-2.971v-6.593h-1.811v6.955a4.275,4.275,0,0,0,8.549,0v-6.955Z" transform="translate(-251.643 -365.281)"/><path class="a" d="M315.6,361.812h4.927v1.521h-6.738V352.393H315.6v9.419Z" transform="translate(-255.023 -349.494)"/><path class="a" d="M223.873,375.12h6.376v1.593h-4.565v2.609h4.492v1.594h-4.492v3.55h4.565v1.594h-6.376V375.12Z" transform="translate(-223.873 -357.368)"/><path class="a" d="M278.973,374.233l7.535,7.752v-7.173h1.811v11.375l-7.535-7.608v7.173h-1.811v-11.52Z" transform="translate(-242.962 -357.061)"/><path class="a" d="M347.708,375.12h1.811V386.06h-1.811V375.12Z" transform="translate(-266.776 -357.368)"/><path class="a" d="M249.853,399.552v2.608h3.912v1.522h-3.912V408.9h-1.811V397.958h5.869v1.594Z" transform="translate(-232.246 -365.28)"/><path class="a" d="M256.446,359.088h.072l1.739-6.811H260l-3.043,11.376-3.841-8.187-3.84,8.187-3.115-11.376h1.811l1.739,6.811h0l3.4-7.028,3.333,7.028Z" transform="translate(-231.593 -349.379)"/><path class="a" d="M324.1,379.019h-.072l-1.739,6.811h-1.739l3.043-11.375,3.84,8.26,3.84-8.26,3.115,11.375h-1.811l-1.739-6.811h-.073l-3.333,7.1-3.333-7.1Z" transform="translate(-257.366 -357.138)"/><path class="a" d="M325.538,401.857h0l-1.739,6.811h-1.811l3.043-11.375,3.912,8.187,3.84-8.187,3.043,11.375h-1.811l-1.739-6.811h0l-3.333,7.028-3.405-7.028Z" transform="translate(-257.865 -365.05)"/><path class="a" d="M287.436,402.812h.8c1.449,0,3.187.073,3.187-1.666s-1.811-1.667-3.26-1.667h-.725v3.332Zm1.159-4.854a6.151,6.151,0,0,1,3.043.507,3.042,3.042,0,0,1,1.521,2.608,2.949,2.949,0,0,1-2.681,3.043l3.478,4.782h-2.029l-3.26-4.637h-1.232V408.9h-1.812v-10.94Z" transform="translate(-245.267 -365.281)"/><path class="a" d="M296.859,357.247h.8c1.449,0,3.115.073,3.115-1.666s-1.812-1.667-3.188-1.667h-.725v3.332Zm1.159-4.854a6.15,6.15,0,0,1,3.043.507,2.974,2.974,0,0,1,1.449,2.608,2.9,2.9,0,0,1-2.68,3.043l3.55,4.782h-2.029l-3.333-4.637h-1.159v4.637h-1.811v-10.94Z" transform="translate(-248.532 -349.495)"/><path class="a" d="M328.972,352.393h2.97c3.478,0,6.3,1.666,6.3,5.434s-2.753,5.507-6.3,5.507h-2.97v-10.94Zm1.812,9.419H331.8c2.391,0,4.637-.869,4.637-3.985,0-3.188-2.246-3.912-4.637-3.912h-1.014v7.9Z" transform="translate(-260.285 -349.495)"/><path class="a" d="M364.585,384.061a3.677,3.677,0,0,1-2.029.507,4.094,4.094,0,0,1,0-8.188,4.415,4.415,0,0,1,2.029.435l.869-1.3a6.126,6.126,0,0,0-2.9-.725,5.815,5.815,0,0,0-5.869,5.724,5.754,5.754,0,0,0,5.869,5.652,5.825,5.825,0,0,0,2.97-.725l-.942-1.376Z" transform="translate(-269.887 -357.253)"/><path class="a" d="M246.776,384.061a3.591,3.591,0,0,1-1.956.507,4.094,4.094,0,1,1,0-8.188,4.318,4.318,0,0,1,1.956.435l.942-1.3a6.6,6.6,0,0,0-2.9-.725,5.769,5.769,0,0,0-5.869,5.724,5.932,5.932,0,0,0,8.767,4.927l-.942-1.376Z" transform="translate(-229.097 -357.253)"/><path class="b" d="M314.631,398.459a30.457,30.457,0,0,1-40.43-1.812,28.941,28.941,0,0,1-3.4-37.531,29.682,29.682,0,0,1,13.911-10.578l-.217-.58a30.344,30.344,0,0,0-14.129,10.8,29.322,29.322,0,0,0,3.406,38.328,31.073,31.073,0,0,0,41.226,1.812l-.362-.435Z" transform="translate(-238.046 -347.958)"/><path class="a" d="M310.777,380.511a5.871,5.871,0,1,1-5.869-5.724,5.815,5.815,0,0,1,5.869,5.724Zm-1.812,0a4.094,4.094,0,1,0-8.188,0,4.094,4.094,0,0,0,8.188,0Z" transform="translate(-249.914 -357.253)"/></g></svg>