<svg xmlns="http://www.w3.org/2000/svg" width="50.149" height="50.148" viewBox="0 0 50.149 50.148"><defs><style>.a{fill:#d0fb6e;}</style></defs><g transform="translate(-2179 -5903)"><g transform="translate(65.613 5310.45)"><g transform="translate(2113.387 592.55)"><g transform="translate(0)"><path class="a" d="M34.074,9A25.074,25.074,0,1,0,59.149,34.074,25.074,25.074,0,0,0,34.074,9Zm0,47.968A22.894,22.894,0,1,1,56.968,34.074,22.894,22.894,0,0,1,34.074,56.968Z" transform="translate(-9 -9)"/></g></g></g><g transform="translate(2194 5917)"><path class="a" d="M22.561,22.481h.005V14.492c0-3.908-.841-6.918-5.41-6.918a4.743,4.743,0,0,0-4.272,2.348h-.064V7.939H8.489V22.481H13v-7.2c0-1.9.359-3.729,2.707-3.729,2.313,0,2.348,2.164,2.348,3.851v7.08Z" transform="translate(-0.785 -0.7)"/><path class="a" d="M.4,7.977H4.912V22.519H.4Z" transform="translate(-0.037 -0.737)"/><path class="a" d="M2.616,0A2.628,2.628,0,1,0,5.231,2.616,2.616,2.616,0,0,0,2.616,0Z"/></g></g></svg>