<svg xmlns="http://www.w3.org/2000/svg" width="50.148" height="50.149" viewBox="0 0 50.148 50.149"><defs><style>.a{fill:#d0fb6e;}</style></defs><g transform="translate(-0.355 -0.451)"><g transform="translate(0.355 0.451)"><path class="a" d="M34.074,9A25.074,25.074,0,1,0,59.149,34.074,25.074,25.074,0,0,0,34.074,9Zm0,47.968A22.894,22.894,0,1,1,56.968,34.074,22.894,22.894,0,0,1,34.074,56.968Z" transform="translate(-9 -9)"/></g><path class="a" d="M27.308.642A1.8,1.8,0,0,0,25.879,0a2.8,2.8,0,0,0-1,.2L1.4,9.161C.157,9.637-.011,10.35,0,10.733s.219,1.086,1.49,1.49l.023.007,4.87,1.394,2.634,7.531a2.274,2.274,0,0,0,2.1,1.665A2.49,2.49,0,0,0,12.8,22.1l3.012-2.774,4.369,3.518h0l.041.033.012.009a2.522,2.522,0,0,0,1.534.576h0a2.153,2.153,0,0,0,2.052-1.908l3.847-19A2.269,2.269,0,0,0,27.308.642ZM8.012,13.359l9.4-4.8-5.851,6.217a.811.811,0,0,0-.2.362l-1.128,4.57ZM11.7,20.907c-.039.036-.078.068-.117.1l1.047-4.239,1.9,1.533ZM26.08,2.241l-3.847,19c-.037.182-.155.6-.459.6a.947.947,0,0,1-.532-.231L16.29,17.624l0,0L13.342,15.25,21.8,6.26a.813.813,0,0,0-.961-1.28L6.926,12.089,1.989,10.677l23.471-8.96a1.192,1.192,0,0,1,.418-.092c.05,0,.138.006.171.046A.775.775,0,0,1,26.08,2.241Zm0,0" transform="translate(11.355 13.451)"/></g></svg>