<svg xmlns="http://www.w3.org/2000/svg" width="50.149" height="50.149" viewBox="0 0 50.149 50.149"><defs><style>.a{fill:#d0fb6e;}.b{fill:#dafd73;}</style></defs><g transform="translate(-2113.387 -592.55)"><g transform="translate(2113.387 592.55)"><g transform="translate(0)"><path class="a" d="M34.074,9A25.074,25.074,0,1,0,59.149,34.074,25.074,25.074,0,0,0,34.074,9Zm0,47.968A22.894,22.894,0,1,1,56.968,34.074,22.894,22.894,0,0,1,34.074,56.968Z" transform="translate(-9 -9)"/></g></g><g transform="translate(2125.551 607.203)"><g transform="translate(0 0)"><path class="b" d="M28.175,50.71a12.043,12.043,0,0,1-3.328.912,5.744,5.744,0,0,0,2.541-3.193,11.543,11.543,0,0,1-3.663,1.4,5.776,5.776,0,0,0-9.992,3.95,5.948,5.948,0,0,0,.134,1.317A16.35,16.35,0,0,1,1.962,49.053a5.778,5.778,0,0,0,1.775,7.72,5.7,5.7,0,0,1-2.61-.711v.063A5.8,5.8,0,0,0,5.755,61.8a5.765,5.765,0,0,1-1.514.19,5.108,5.108,0,0,1-1.094-.1,5.831,5.831,0,0,0,5.4,4.024A11.606,11.606,0,0,1,1.382,68.38,10.819,10.819,0,0,1,0,68.3a16.262,16.262,0,0,0,8.861,2.592c10.629,0,16.44-8.8,16.44-16.437,0-.255-.009-.5-.021-.747A11.523,11.523,0,0,0,28.175,50.71Z" transform="translate(0 -48)"/></g></g></g></svg>