<svg width="262" height="183" viewBox="0 0 262 183" fill="none" xmlns="http://www.w3.org/2000/svg">
<g clip-path="url(#clip0_3902_25971)">
<path fill-rule="evenodd" clip-rule="evenodd" d="M162.446 38.7147H152.589C151.278 38.7147 150.206 37.6543 150.206 36.3574C150.206 35.0604 151.278 34 152.589 34H162.446V38.7147Z" fill="#15F9FF"/>
<path fill-rule="evenodd" clip-rule="evenodd" d="M145.626 35.1799L150.556 43.6252C151.211 44.7492 150.818 46.1962 149.684 46.8446C148.548 47.4931 147.086 47.104 146.43 45.9825L141.498 37.5373L145.626 35.1799Z" fill="#A3A4F5"/>
<path fill-rule="evenodd" clip-rule="evenodd" d="M150.941 51.3585L155.871 42.9132C156.526 41.7892 157.991 41.4027 159.125 42.0511C160.261 42.6996 160.652 44.1491 159.996 45.2705L155.066 53.7158L150.941 51.3585Z" fill="#F385FF"/>
<path fill-rule="evenodd" clip-rule="evenodd" d="M162.446 38.7147C163.762 38.7147 164.828 37.6594 164.828 36.3574C164.828 35.0553 163.762 34 162.446 34C161.13 34 160.063 35.0553 160.063 36.3574C160.063 37.6594 161.13 38.7147 162.446 38.7147Z" fill="#11D3D3"/>
<path fill-rule="evenodd" clip-rule="evenodd" d="M150.941 53.7158C151.599 54.8423 153.057 55.2288 154.195 54.5778C155.334 53.9268 155.724 52.485 155.066 51.3584C154.408 50.2319 152.951 49.8453 151.813 50.4963C150.674 51.1473 150.283 52.5892 150.941 53.7158Z" fill="#D46FE2"/>
<path fill-rule="evenodd" clip-rule="evenodd" d="M143.562 38.7147C144.878 38.7147 145.945 37.6594 145.945 36.3574C145.945 35.0553 144.878 34 143.562 34C142.246 34 141.179 35.0553 141.179 36.3574C141.179 37.6594 142.246 38.7147 143.562 38.7147Z" fill="#575CC1"/>
<path d="M143.192 61.5815C143.719 61.879 144.138 62.2783 144.446 62.7843C144.755 63.2904 144.909 63.8448 144.909 64.4525C144.909 65.0578 144.755 65.6172 144.446 66.1284C144.138 66.6395 143.719 67.0464 143.192 67.3465C142.665 67.6465 142.087 67.7966 141.454 67.7966C140.822 67.7966 140.244 67.6465 139.717 67.3465C139.19 67.0464 138.771 66.642 138.463 66.1284C138.154 65.6172 138 65.0578 138 64.4525C138 63.8473 138.154 63.2904 138.463 62.7843C138.771 62.2783 139.19 61.8765 139.717 61.5815C140.244 61.284 140.822 61.1365 141.454 61.1365C142.087 61.1365 142.665 61.284 143.192 61.5815ZM140.064 62.0825C139.635 62.3266 139.293 62.6572 139.041 63.0742C138.789 63.4938 138.663 63.9516 138.663 64.45C138.663 64.9484 138.789 65.4112 139.041 65.8359C139.293 66.2606 139.635 66.5963 140.064 66.8429C140.493 67.0896 140.961 67.2117 141.465 67.2117C141.963 67.2117 142.426 67.0896 142.853 66.8429C143.279 66.5963 143.619 66.2606 143.87 65.8359C144.122 65.4112 144.248 64.9484 144.248 64.45C144.248 63.8397 144.061 63.2904 143.683 62.7996C143.5 62.5605 143.277 62.3546 143.025 62.1867C142.552 61.8714 142.03 61.7137 141.465 61.7137C140.961 61.7163 140.493 61.8383 140.064 62.0825Z" fill="white"/>
<path d="M151.91 67.6031L150.571 65.6043C150.368 65.617 150.214 65.6221 150.108 65.6221H148.291V67.4327C148.291 67.6006 148.152 67.7379 147.983 67.7379H147.947C147.777 67.7379 147.638 67.6006 147.638 67.4327V61.1897H150.108C150.936 61.1897 151.573 61.3779 152.026 61.7568C152.478 62.1357 152.702 62.6697 152.702 63.364C152.702 63.9082 152.568 64.3608 152.303 64.7219C152.039 65.083 151.661 65.3373 151.167 65.4797L152.419 67.2573C152.563 67.4607 152.417 67.7379 152.165 67.7379C152.064 67.7379 151.967 67.687 151.91 67.6031ZM150.108 65.0423C150.741 65.0423 151.227 64.8999 151.566 64.6151C151.908 64.3303 152.077 63.9209 152.077 63.3843C152.077 62.8604 151.908 62.4612 151.566 62.1866C151.224 61.9119 150.738 61.7746 150.108 61.7746H148.291V65.0423H150.108Z" fill="white"/>
<path d="M160.102 61.6169C160.477 61.9068 160.665 62.3086 160.665 62.8197C160.665 63.2062 160.557 63.5317 160.338 63.7937C160.12 64.0556 159.816 64.2285 159.426 64.3099C159.911 64.3735 160.289 64.5515 160.562 64.8439C160.834 65.1364 160.968 65.5102 160.968 65.9577C160.968 66.5197 160.757 66.9571 160.333 67.2699C159.909 67.5827 159.323 67.7378 158.572 67.7378H155.771V61.182H158.544C159.207 61.182 159.726 61.327 160.102 61.6169ZM159.603 63.7708C159.863 63.5673 159.991 63.28 159.991 62.9036C159.991 62.5425 159.863 62.2602 159.603 62.0593C159.343 61.8584 158.981 61.7618 158.513 61.7694H156.421V64.0734H158.513C158.981 64.0759 159.346 63.9742 159.603 63.7708ZM159.837 66.8249C160.15 66.6037 160.305 66.2934 160.305 65.8942C160.305 65.5 160.148 65.1948 159.832 64.9761C159.516 64.7574 159.079 64.6481 158.516 64.6481H156.424V67.158H158.516C159.084 67.158 159.523 67.0461 159.837 66.8249Z" fill="white"/>
<path d="M166.648 61.8712C166.327 61.7796 166.023 61.7364 165.738 61.7364C165.283 61.7364 164.918 61.8254 164.646 62.0034C164.373 62.1814 164.235 62.423 164.235 62.7282C164.235 62.9977 164.309 63.2164 164.461 63.3843C164.612 63.5521 164.797 63.6843 165.018 63.7835C165.24 63.8802 165.543 63.987 165.928 64.1065C166.376 64.2387 166.738 64.3684 167.013 64.4956C167.288 64.6227 167.522 64.8083 167.715 65.0525C167.907 65.2966 168.003 65.617 168.003 66.0163C168.003 66.3672 167.902 66.6749 167.704 66.9445C167.506 67.214 167.226 67.42 166.866 67.5675C166.507 67.715 166.093 67.7887 165.625 67.7887C165.165 67.7887 164.715 67.6972 164.276 67.5166C163.921 67.3717 163.607 67.186 163.335 66.9623C163.222 66.8707 163.194 66.7105 163.266 66.5834C163.356 66.4231 163.569 66.3799 163.715 66.4918C163.947 66.6724 164.201 66.8199 164.481 66.9343C164.872 67.097 165.258 67.1784 165.635 67.1784C166.139 67.1784 166.54 67.0767 166.838 66.8733C167.134 66.6698 167.283 66.3977 167.283 66.0544C167.283 65.7798 167.208 65.556 167.057 65.3805C166.905 65.2051 166.72 65.0703 166.499 64.9787C166.278 64.8846 165.969 64.7753 165.571 64.6507C165.124 64.5134 164.764 64.3837 164.492 64.2616C164.219 64.1395 163.99 63.959 163.8 63.7174C163.61 63.4758 163.517 63.163 163.517 62.7765C163.517 62.4459 163.613 62.156 163.8 61.9043C163.99 61.655 164.255 61.4618 164.594 61.327C164.936 61.1922 165.329 61.1261 165.777 61.1261C166.137 61.1261 166.499 61.1795 166.861 61.2863C167.113 61.3601 167.345 61.4491 167.555 61.5559C167.707 61.6322 167.769 61.8127 167.692 61.9627L167.681 61.9805C167.604 62.1306 167.419 62.1865 167.267 62.1102C167.072 62.0111 166.866 61.9322 166.648 61.8712Z" fill="white"/>
<path d="M139.069 71.2802H139.745V75.3794H142.308V75.9618H139.069V71.2802V71.2802Z" fill="white"/>
<path d="M145.587 72.7449C145.852 72.9865 145.983 73.3451 145.983 73.8206V75.9618H145.369V75.4939C145.261 75.6592 145.107 75.7838 144.906 75.8728C144.706 75.9593 144.467 76.0025 144.194 76.0025C143.793 76.0025 143.472 75.9059 143.231 75.7151C142.989 75.5244 142.868 75.2727 142.868 74.9599C142.868 74.6471 142.984 74.3979 143.213 74.2071C143.441 74.0164 143.806 73.9223 144.308 73.9223H145.336V73.7952C145.336 73.518 145.253 73.3069 145.091 73.1594C144.93 73.0119 144.69 72.9382 144.374 72.9382C144.164 72.9382 143.955 72.9738 143.752 73.0425C143.549 73.1111 143.377 73.2052 143.238 73.3196L142.968 72.839C143.153 72.6915 143.375 72.5796 143.632 72.5008C143.889 72.422 144.161 72.3838 144.449 72.3838C144.945 72.3813 145.325 72.5033 145.587 72.7449ZM144.942 75.3413C145.122 75.232 145.253 75.0769 145.336 74.876V74.3826H144.336C143.786 74.3826 143.511 74.5657 143.511 74.9319C143.511 75.1099 143.58 75.2498 143.721 75.354C143.86 75.4558 144.056 75.5066 144.302 75.5066C144.549 75.5066 144.762 75.4507 144.942 75.3413Z" fill="white"/>
<path d="M152.877 72.7704C153.141 73.0298 153.273 73.4113 153.273 73.9199V75.9593H152.625V73.9936C152.625 73.6503 152.545 73.3909 152.386 73.218C152.226 73.0451 151.998 72.9561 151.7 72.9561C151.371 72.9561 151.108 73.0578 150.916 73.2612C150.723 73.4647 150.625 73.7546 150.625 74.1335V75.9593H149.977V73.9936C149.977 73.6503 149.898 73.3909 149.738 73.218C149.579 73.0451 149.35 72.9561 149.052 72.9561C148.723 72.9561 148.461 73.0578 148.268 73.2612C148.075 73.4647 147.978 73.7546 147.978 74.1335V75.9593H147.33V72.4144H147.952V72.9433C148.083 72.7603 148.253 72.6204 148.466 72.5263C148.677 72.4297 148.918 72.3813 149.188 72.3813C149.469 72.3813 149.715 72.4373 149.931 72.5492C150.147 72.6611 150.314 72.8238 150.432 73.0374C150.569 72.8315 150.756 72.6712 150.998 72.5568C151.239 72.4398 151.509 72.3839 151.813 72.3839C152.255 72.3813 152.612 72.511 152.877 72.7704Z" fill="white"/>
<path d="M157.434 72.6102C157.709 72.7628 157.925 72.9738 158.079 73.2459C158.233 73.518 158.313 73.8334 158.313 74.1894C158.313 74.5454 158.236 74.8607 158.079 75.1354C157.925 75.41 157.709 75.6236 157.434 75.7737C157.159 75.9263 156.848 76 156.501 76C156.236 76 155.992 75.9491 155.771 75.8474C155.55 75.7457 155.367 75.5957 155.223 75.3999V75.9619H154.601V71.0005H155.249V72.9535C155.393 72.7653 155.573 72.6255 155.789 72.5288C156.005 72.4322 156.241 72.3839 156.498 72.3839C156.85 72.3813 157.161 72.4576 157.434 72.6102ZM157.066 75.2829C157.249 75.1786 157.393 75.0311 157.498 74.8404C157.603 74.6497 157.657 74.4335 157.657 74.1894C157.657 73.9453 157.603 73.7266 157.498 73.5384C157.393 73.3477 157.249 73.2027 157.066 73.101C156.884 72.9993 156.678 72.9484 156.447 72.9484C156.221 72.9484 156.018 72.9993 155.832 73.101C155.647 73.2027 155.503 73.3502 155.401 73.5384C155.298 73.7291 155.246 73.9453 155.246 74.1894C155.246 74.4335 155.298 74.6522 155.401 74.8404C155.503 75.0311 155.647 75.1761 155.832 75.2829C156.018 75.3871 156.223 75.4405 156.447 75.4405C156.678 75.438 156.884 75.3871 157.066 75.2829Z" fill="white"/>
<path d="M162.729 70.9979V75.9593H162.107V75.3998C161.963 75.5956 161.78 75.7457 161.559 75.8474C161.338 75.9491 161.094 76 160.829 76C160.482 76 160.171 75.9237 159.896 75.7737C159.621 75.6211 159.405 75.41 159.251 75.1354C159.097 74.8607 159.017 74.5454 159.017 74.1894C159.017 73.8334 159.094 73.518 159.251 73.2459C159.405 72.9738 159.621 72.7628 159.896 72.6102C160.171 72.4576 160.482 72.3839 160.829 72.3839C161.086 72.3839 161.323 72.4322 161.539 72.5288C161.754 72.6254 161.934 72.7653 162.078 72.9535V71.0005H162.729V70.9979ZM161.497 75.2829C161.682 75.1786 161.826 75.0311 161.929 74.8404C162.032 74.6497 162.083 74.4335 162.083 74.1894C162.083 73.9452 162.032 73.7266 161.929 73.5384C161.826 73.3476 161.682 73.2027 161.497 73.101C161.312 72.9993 161.107 72.9484 160.883 72.9484C160.654 72.9484 160.446 72.9993 160.264 73.101C160.081 73.2027 159.937 73.3502 159.832 73.5384C159.726 73.7291 159.673 73.9452 159.673 74.1894C159.673 74.4335 159.726 74.6522 159.832 74.8404C159.937 75.0311 160.081 75.1761 160.264 75.2829C160.446 75.3871 160.652 75.4405 160.883 75.4405C161.107 75.438 161.312 75.3871 161.497 75.2829Z" fill="white"/>
<path d="M166.538 72.7449C166.802 72.9865 166.934 73.3451 166.934 73.8206V75.9618H166.319V75.4939C166.211 75.6592 166.057 75.7838 165.857 75.8728C165.656 75.9593 165.417 76.0025 165.145 76.0025C164.744 76.0025 164.422 75.9059 164.181 75.7151C163.939 75.5244 163.818 75.2727 163.818 74.9599C163.818 74.6471 163.934 74.3979 164.163 74.2071C164.392 74.0164 164.757 73.9223 165.258 73.9223H166.286V73.7952C166.286 73.518 166.204 73.3069 166.042 73.1594C165.88 73.0119 165.641 72.9382 165.325 72.9382C165.114 72.9382 164.906 72.9738 164.703 73.0425C164.499 73.1111 164.327 73.2052 164.188 73.3196L163.919 72.839C164.104 72.6915 164.325 72.5796 164.582 72.5008C164.839 72.422 165.111 72.3838 165.399 72.3838C165.893 72.3813 166.273 72.5033 166.538 72.7449ZM165.893 75.3413C166.072 75.232 166.204 75.0769 166.286 74.876V74.3826H165.286C164.736 74.3826 164.461 74.5657 164.461 74.9319C164.461 75.1099 164.53 75.2498 164.672 75.354C164.81 75.4558 165.006 75.5066 165.253 75.5066C165.497 75.5066 165.71 75.4507 165.893 75.3413Z" fill="white"/>
</g>
<g clip-path="url(#clip1_3902_25971)">
<path fill-rule="evenodd" clip-rule="evenodd" d="M215.505 15.934C213.474 13.5227 212.658 13.7106 209.708 12.5672L210.653 14.0627L215.505 21.6644C215.885 19.4649 216.794 17.6306 215.505 15.934Z" fill="#A3A4F5"/>
<path fill-rule="evenodd" clip-rule="evenodd" d="M209.708 12.5698L215.505 15.934C218.823 15.2643 218.716 14.78 221.303 12.5672H211.479H209.708V12.5698Z" fill="#15F9FF"/>
<path fill-rule="evenodd" clip-rule="evenodd" d="M213.25 9.40419H223.324C222.663 6.79176 223.112 6.45032 220.987 4.8728C217.444 5.30688 216.098 7.19143 213.25 9.40419Z" fill="#15F9FF"/>
<path fill-rule="evenodd" clip-rule="evenodd" d="M208.704 3.51765C212.14 2.83741 212.14 2.24716 214.833 0H201.689C204.736 2.14129 205.044 2.83741 208.704 3.51765Z" fill="#F385FF"/>
<path fill-rule="evenodd" clip-rule="evenodd" d="M221.306 12.5698L215.505 15.934V21.667L221.306 12.5698Z" fill="#F385FF"/>
<path fill-rule="evenodd" clip-rule="evenodd" d="M209.601 9.40421L214.833 0L208.704 3.51764C207.511 6.67267 208.196 7.65994 208.704 11.0029L209.601 9.40421Z" fill="#15F9FF"/>
<path fill-rule="evenodd" clip-rule="evenodd" d="M208.704 3.51764L201.689 0L207.676 9.40421L208.704 11.0029V3.51764Z" fill="#A3A4F5"/>
<path fill-rule="evenodd" clip-rule="evenodd" d="M218.483 0L213.25 9.40421L220.985 4.87283C220.453 1.81308 220.549 2.31863 218.483 0Z" fill="#A3A4F5"/>
<path fill-rule="evenodd" clip-rule="evenodd" d="M220.987 4.87283C225.144 3.72939 225.911 2.60184 229.311 0H218.483L220.987 4.87283Z" fill="#F385FF"/>
<path fill-rule="evenodd" clip-rule="evenodd" d="M220.987 4.87283L223.325 9.40421L229.311 0L220.987 4.87283Z" fill="#A3A4F5"/>
<path d="M205.365 27.7838C205.909 28.0935 206.342 28.509 206.661 29.0358C206.98 29.5625 207.139 30.1395 207.139 30.7721C207.139 31.402 206.98 31.9843 206.661 32.5164C206.342 33.0484 205.909 33.4719 205.365 33.7842C204.821 34.0965 204.223 34.2527 203.57 34.2527C202.916 34.2527 202.319 34.0965 201.774 33.7842C201.23 33.4719 200.797 33.051 200.478 32.5164C200.159 31.9843 200 31.402 200 30.7721C200 30.1421 200.159 29.5625 200.478 29.0358C200.797 28.509 201.23 28.0908 201.774 27.7838C202.319 27.4741 202.916 27.3206 203.57 27.3206C204.223 27.3206 204.821 27.4741 205.365 27.7838ZM202.133 28.3052C201.689 28.5593 201.336 28.9034 201.076 29.3375C200.815 29.7742 200.685 30.2507 200.685 30.7694C200.685 31.2882 200.815 31.77 201.076 32.212C201.336 32.654 201.689 33.0034 202.133 33.2601C202.576 33.5169 203.06 33.6439 203.58 33.6439C204.095 33.6439 204.574 33.5169 205.014 33.2601C205.455 33.0034 205.806 32.654 206.066 32.212C206.326 31.77 206.457 31.2882 206.457 30.7694C206.457 30.1342 206.263 29.5625 205.872 29.0516C205.684 28.8028 205.453 28.5885 205.192 28.4138C204.704 28.0856 204.164 27.9215 203.58 27.9215C203.06 27.9241 202.576 28.0511 202.133 28.3052Z" fill="white"/>
<path d="M214.374 34.0515L212.99 31.9711C212.78 31.9844 212.621 31.9897 212.512 31.9897H210.634V33.8742C210.634 34.0489 210.491 34.1918 210.316 34.1918H210.278C210.103 34.1918 209.96 34.0489 209.96 33.8742V27.3762H212.512C213.367 27.3762 214.026 27.5721 214.493 27.9665C214.961 28.3608 215.192 28.9167 215.192 29.6393C215.192 30.2057 215.054 30.6768 214.78 31.0527C214.507 31.4285 214.116 31.6932 213.606 31.8414L214.9 33.6916C215.048 33.9033 214.897 34.1918 214.637 34.1918C214.533 34.1918 214.432 34.1389 214.374 34.0515ZM212.512 31.3862C213.165 31.3862 213.667 31.238 214.018 30.9415C214.371 30.6451 214.547 30.2189 214.547 29.6604C214.547 29.1152 214.371 28.6996 214.018 28.4138C213.665 28.1279 213.163 27.985 212.512 27.985H210.634V31.3862H212.512Z" fill="white"/>
<path d="M222.838 27.8209C223.226 28.1226 223.42 28.5408 223.42 29.0728C223.42 29.4752 223.308 29.814 223.083 30.0866C222.857 30.3592 222.543 30.5392 222.14 30.6239C222.642 30.6901 223.032 30.8753 223.314 31.1797C223.595 31.4841 223.733 31.8732 223.733 32.339C223.733 32.924 223.516 33.3793 223.077 33.7048C222.639 34.0304 222.034 34.1918 221.258 34.1918H218.363V27.3683H221.229C221.914 27.3683 222.451 27.5192 222.838 27.8209ZM222.323 30.0654C222.591 29.8537 222.724 29.5546 222.724 29.1628C222.724 28.787 222.591 28.4932 222.323 28.2841C222.055 28.075 221.68 27.9744 221.197 27.9824H219.035V30.3804H221.197C221.68 30.3804 222.057 30.2745 222.323 30.0654ZM222.565 33.2416C222.889 33.0113 223.048 32.6884 223.048 32.2729C223.048 31.8626 222.886 31.545 222.559 31.3174C222.233 31.0897 221.781 30.9759 221.2 30.9759H219.038V33.5884H221.2C221.787 33.5884 222.241 33.4745 222.565 33.2416Z" fill="white"/>
<path d="M229.603 28.0856C229.271 27.9903 228.958 27.9453 228.663 27.9453C228.193 27.9453 227.815 28.0379 227.534 28.2232C227.252 28.4085 227.109 28.6599 227.109 28.9776C227.109 29.2581 227.186 29.4858 227.343 29.6604C227.499 29.8351 227.691 29.9728 227.919 30.076C228.147 30.1766 228.461 30.2877 228.859 30.4121C229.321 30.5498 229.696 30.6848 229.98 30.8171C230.264 30.9495 230.506 31.1427 230.705 31.3968C230.904 31.6509 231.003 31.9844 231.003 32.3999C231.003 32.7652 230.899 33.0855 230.694 33.366C230.49 33.6466 230.2 33.861 229.829 34.0145C229.457 34.168 229.029 34.2448 228.546 34.2448C228.07 34.2448 227.606 34.1495 227.151 33.9616C226.785 33.8107 226.461 33.6175 226.179 33.3845C226.063 33.2893 226.033 33.1225 226.108 32.9902C226.201 32.8234 226.421 32.7784 226.572 32.8949C226.812 33.0828 227.074 33.2363 227.364 33.3554C227.768 33.5248 228.166 33.6095 228.556 33.6095C229.077 33.6095 229.491 33.5037 229.799 33.2919C230.105 33.0802 230.259 32.7969 230.259 32.4396C230.259 32.1538 230.182 31.9208 230.025 31.7382C229.869 31.5556 229.677 31.4153 229.449 31.32C229.22 31.2221 228.902 31.1083 228.49 30.9786C228.028 30.8356 227.656 30.7007 227.375 30.5736C227.093 30.4466 226.857 30.2586 226.66 30.0072C226.464 29.7557 226.368 29.4302 226.368 29.0279C226.368 28.6838 226.466 28.382 226.66 28.12C226.857 27.8606 227.13 27.6594 227.481 27.5192C227.834 27.3789 228.24 27.3101 228.703 27.3101C229.074 27.3101 229.449 27.3656 229.823 27.4768C230.084 27.5536 230.323 27.6462 230.54 27.7574C230.697 27.8368 230.761 28.0247 230.681 28.1809L230.671 28.1994C230.591 28.3556 230.4 28.4138 230.243 28.3344C230.041 28.2312 229.829 28.1491 229.603 28.0856Z" fill="white"/>
<path d="M214.576 37.1272L212.43 42H211.739L209.588 37.1272H210.342L212.103 41.1292L213.877 37.1272H214.576Z" fill="white"/>
<path d="M219.869 42L219.861 38.4506L218.095 41.4098H217.773L216.007 38.4718V42H215.338V37.1272H215.909L217.949 40.5522L219.959 37.1272H220.533L220.541 42H219.869Z" fill="white"/>
</g>
<path d="M59.3536 28.6464C59.1583 28.4512 58.8417 28.4512 58.6464 28.6464L55.4645 31.8284C55.2692 32.0237 55.2692 32.3403 55.4645 32.5355C55.6597 32.7308 55.9763 32.7308 56.1716 32.5355L59 29.7071L61.8284 32.5355C62.0237 32.7308 62.3403 32.7308 62.5355 32.5355C62.7308 32.3403 62.7308 32.0237 62.5355 31.8284L59.3536 28.6464ZM59.5 178L59.5 29L58.5 29L58.5 178L59.5 178Z" fill="white"/>
<path d="M261.354 165.354C261.549 165.158 261.549 164.842 261.354 164.646L258.172 161.464C257.976 161.269 257.66 161.269 257.464 161.464C257.269 161.66 257.269 161.976 257.464 162.172L260.293 165L257.464 167.828C257.269 168.024 257.269 168.34 257.464 168.536C257.66 168.731 257.976 168.731 258.172 168.536L261.354 165.354ZM46 165.5L261 165.5L261 164.5L46 164.5L46 165.5Z" fill="white"/>
<line x1="65.7344" y1="157.576" x2="250.734" y2="41.5764" stroke="white"/>
<path d="M1.64003 95.304V93.496H4.44803V92.816H1.64003V91.096H4.79203V90.4H0.840033V96H4.90403V95.304H1.64003Z" fill="white"/>
<path d="M9.56966 96L7.88166 93.832L9.48166 91.76H8.64166L7.48166 93.288L6.31366 91.76H5.45766L7.04966 93.832L5.37766 96H6.23366L7.47366 94.376L8.69766 96H9.56966Z" fill="white"/>
<path d="M14.0991 93.904C14.0991 92.6 13.2271 91.72 12.0031 91.72C10.7791 91.72 9.8751 92.624 9.8751 93.88C9.8751 95.144 10.7871 96.048 12.1551 96.048C12.8591 96.048 13.4431 95.808 13.8271 95.36L13.4031 94.864C13.0911 95.208 12.6751 95.376 12.1791 95.376C11.3391 95.376 10.7391 94.88 10.6431 94.136H14.0831C14.0911 94.064 14.0991 93.968 14.0991 93.904ZM12.0031 92.368C12.7471 92.368 13.2831 92.872 13.3631 93.584H10.6431C10.7231 92.864 11.2671 92.368 12.0031 92.368Z" fill="white"/>
<path d="M17.0135 96.048C17.7735 96.048 18.4055 95.728 18.7415 95.136L18.1575 94.768C17.8855 95.184 17.4695 95.376 17.0055 95.376C16.1735 95.376 15.5495 94.8 15.5495 93.88C15.5495 92.976 16.1735 92.392 17.0055 92.392C17.4695 92.392 17.8855 92.584 18.1575 93L18.7415 92.624C18.4055 92.032 17.7735 91.72 17.0135 91.72C15.7095 91.72 14.7735 92.616 14.7735 93.88C14.7735 95.144 15.7095 96.048 17.0135 96.048Z" fill="white"/>
<path d="M22.9198 91.76V93.952C22.9198 94.864 22.4078 95.36 21.6078 95.36C20.8798 95.36 20.4638 94.944 20.4638 94.112V91.76H19.6958V94.2C19.6958 95.448 20.4238 96.048 21.5198 96.048C22.1198 96.048 22.6478 95.8 22.9598 95.36V96H23.6878V91.76H22.9198Z" fill="white"/>
<path d="M27.2939 95.2C27.1339 95.328 26.9179 95.4 26.6939 95.4C26.2699 95.4 26.0299 95.144 26.0299 94.688V92.392H27.2459V91.76H26.0299V90.832H25.2619V91.76H24.5419V92.392H25.2619V94.72C25.2619 95.576 25.7499 96.048 26.6059 96.048C26.9499 96.048 27.3019 95.952 27.5339 95.752L27.2939 95.2Z" fill="white"/>
<path d="M28.8464 90.944C29.1504 90.944 29.3664 90.72 29.3664 90.432C29.3664 90.16 29.1424 89.944 28.8464 89.944C28.5504 89.944 28.3264 90.168 28.3264 90.448C28.3264 90.728 28.5504 90.944 28.8464 90.944ZM28.4624 96H29.2304V91.76H28.4624V96Z" fill="white"/>
<path d="M32.5128 96.048C33.7848 96.048 34.7128 95.144 34.7128 93.88C34.7128 92.616 33.7848 91.72 32.5128 91.72C31.2408 91.72 30.3048 92.616 30.3048 93.88C30.3048 95.144 31.2408 96.048 32.5128 96.048ZM32.5128 95.376C31.6968 95.376 31.0808 94.784 31.0808 93.88C31.0808 92.976 31.6968 92.392 32.5128 92.392C33.3288 92.392 33.9368 92.976 33.9368 93.88C33.9368 94.784 33.3288 95.376 32.5128 95.376Z" fill="white"/>
<path d="M38.0389 91.72C37.3669 91.72 36.8229 91.968 36.5109 92.4V91.76H35.7749V96H36.5429V93.816C36.5429 92.896 37.0709 92.408 37.8869 92.408C38.6149 92.408 39.0309 92.816 39.0309 93.648V96H39.7989V93.56C39.7989 92.312 39.0709 91.72 38.0389 91.72Z" fill="white"/>
<path d="M3.34403 108.064C4.21603 108.064 4.96803 107.76 5.48003 107.184L4.96003 106.68C4.52803 107.136 4.00003 107.352 3.38403 107.352C2.12003 107.352 1.18403 106.44 1.18403 105.2C1.18403 103.96 2.12003 103.048 3.38403 103.048C4.00003 103.048 4.52803 103.256 4.96003 103.712L5.48003 103.208C4.96803 102.632 4.21603 102.336 3.35203 102.336C1.64803 102.336 0.384033 103.544 0.384033 105.2C0.384033 106.856 1.64803 108.064 3.34403 108.064Z" fill="white"/>
<path d="M7.9986 103.72C7.3186 103.72 6.6866 103.912 6.2466 104.264L6.5666 104.84C6.8946 104.56 7.4066 104.384 7.9106 104.384C8.6706 104.384 9.0466 104.76 9.0466 105.408V105.56H7.8306C6.5666 105.56 6.1266 106.12 6.1266 106.8C6.1266 107.536 6.7346 108.048 7.6946 108.048C8.3586 108.048 8.8306 107.824 9.0866 107.44V108H9.8146V105.44C9.8146 104.28 9.1586 103.72 7.9986 103.72ZM7.8226 107.456C7.2386 107.456 6.8866 107.192 6.8866 106.768C6.8866 106.408 7.1026 106.112 7.8626 106.112H9.0466V106.704C8.8546 107.192 8.3986 107.456 7.8226 107.456Z" fill="white"/>
<path d="M13.4838 103.72C12.8598 103.72 12.3158 103.96 11.9718 104.432V103.76H11.2358V109.552H12.0038V107.36C12.3558 107.816 12.8838 108.048 13.4838 108.048C14.7238 108.048 15.6278 107.184 15.6278 105.88C15.6278 104.584 14.7238 103.72 13.4838 103.72ZM13.4198 107.376C12.6118 107.376 11.9958 106.784 11.9958 105.88C11.9958 104.984 12.6118 104.392 13.4198 104.392C14.2358 104.392 14.8518 104.984 14.8518 105.88C14.8518 106.784 14.2358 107.376 13.4198 107.376Z" fill="white"/>
<path d="M18.1939 103.72C17.5139 103.72 16.8819 103.912 16.4419 104.264L16.7619 104.84C17.0899 104.56 17.6019 104.384 18.1059 104.384C18.8659 104.384 19.2419 104.76 19.2419 105.408V105.56H18.0259C16.7619 105.56 16.3219 106.12 16.3219 106.8C16.3219 107.536 16.9299 108.048 17.8899 108.048C18.5539 108.048 19.0259 107.824 19.2819 107.44V108H20.0099V105.44C20.0099 104.28 19.3539 103.72 18.1939 103.72ZM18.0179 107.456C17.4339 107.456 17.0819 107.192 17.0819 106.768C17.0819 106.408 17.2979 106.112 18.0579 106.112H19.2419V106.704C19.0499 107.192 18.5939 107.456 18.0179 107.456Z" fill="white"/>
<path d="M23.6792 103.72C23.0792 103.72 22.5512 103.944 22.1992 104.4V102.064H21.4312V108H22.1672V107.328C22.5112 107.808 23.0552 108.048 23.6792 108.048C24.9192 108.048 25.8232 107.176 25.8232 105.88C25.8232 104.584 24.9192 103.72 23.6792 103.72ZM23.6152 107.376C22.8072 107.376 22.1912 106.784 22.1912 105.88C22.1912 104.976 22.8072 104.392 23.6152 104.392C24.4312 104.392 25.0472 104.976 25.0472 105.88C25.0472 106.784 24.4312 107.376 23.6152 107.376Z" fill="white"/>
<path d="M27.2683 102.944C27.5723 102.944 27.7883 102.72 27.7883 102.432C27.7883 102.16 27.5643 101.944 27.2683 101.944C26.9723 101.944 26.7483 102.168 26.7483 102.448C26.7483 102.728 26.9723 102.944 27.2683 102.944ZM26.8843 108H27.6523V103.76H26.8843V108Z" fill="white"/>
<path d="M29.1187 108H29.8867V102.064H29.1187V108Z" fill="white"/>
<path d="M31.737 102.944C32.041 102.944 32.257 102.72 32.257 102.432C32.257 102.16 32.033 101.944 31.737 101.944C31.441 101.944 31.217 102.168 31.217 102.448C31.217 102.728 31.441 102.944 31.737 102.944ZM31.353 108H32.121V103.76H31.353V108Z" fill="white"/>
<path d="M35.7314 107.2C35.5714 107.328 35.3554 107.4 35.1314 107.4C34.7074 107.4 34.4674 107.144 34.4674 106.688V104.392H35.6834V103.76H34.4674V102.832H33.6994V103.76H32.9794V104.392H33.6994V106.72C33.6994 107.576 34.1874 108.048 35.0434 108.048C35.3874 108.048 35.7394 107.952 35.9714 107.752L35.7314 107.2Z" fill="white"/>
<path d="M37.2839 102.944C37.5879 102.944 37.8039 102.72 37.8039 102.432C37.8039 102.16 37.5799 101.944 37.2839 101.944C36.9879 101.944 36.7639 102.168 36.7639 102.448C36.7639 102.728 36.9879 102.944 37.2839 102.944ZM36.8999 108H37.6679V103.76H36.8999V108Z" fill="white"/>
<path d="M42.9663 105.904C42.9663 104.6 42.0943 103.72 40.8703 103.72C39.6463 103.72 38.7423 104.624 38.7423 105.88C38.7423 107.144 39.6543 108.048 41.0223 108.048C41.7263 108.048 42.3103 107.808 42.6943 107.36L42.2703 106.864C41.9583 107.208 41.5423 107.376 41.0463 107.376C40.2063 107.376 39.6063 106.88 39.5103 106.136H42.9503C42.9583 106.064 42.9663 105.968 42.9663 105.904ZM40.8703 104.368C41.6143 104.368 42.1503 104.872 42.2303 105.584H39.5103C39.5903 104.864 40.1343 104.368 40.8703 104.368Z" fill="white"/>
<path d="M45.2487 108.048C46.3767 108.048 47.0807 107.56 47.0807 106.792C47.0807 105.144 44.3927 105.96 44.3927 104.96C44.3927 104.624 44.7207 104.376 45.3927 104.376C45.8087 104.376 46.2327 104.464 46.6167 104.712L46.9447 104.104C46.5767 103.864 45.9527 103.72 45.4007 103.72C44.3127 103.72 43.6327 104.232 43.6327 104.992C43.6327 106.68 46.3127 105.856 46.3127 106.808C46.3127 107.168 46.0167 107.384 45.3047 107.384C44.7527 107.384 44.1767 107.2 43.8167 106.944L43.4967 107.552C43.8487 107.832 44.5447 108.048 45.2487 108.048Z" fill="white"/>
<path d="M138.952 182H139.744V177.096H141.664V176.4H137.032V177.096H138.952V182Z" fill="white"/>
<path d="M142.706 176.944C143.01 176.944 143.226 176.72 143.226 176.432C143.226 176.16 143.002 175.944 142.706 175.944C142.41 175.944 142.186 176.168 142.186 176.448C142.186 176.728 142.41 176.944 142.706 176.944ZM142.322 182H143.09V177.76H142.322V182Z" fill="white"/>
<path d="M149.86 177.72C149.14 177.72 148.548 178.024 148.228 178.504C147.948 177.976 147.404 177.72 146.756 177.72C146.116 177.72 145.596 177.96 145.292 178.392V177.76H144.556V182H145.324V179.816C145.324 178.896 145.828 178.408 146.596 178.408C147.292 178.408 147.692 178.816 147.692 179.648V182H148.46V179.816C148.46 178.896 148.964 178.408 149.732 178.408C150.428 178.408 150.828 178.816 150.828 179.648V182H151.596V179.56C151.596 178.312 150.892 177.72 149.86 177.72Z" fill="white"/>
<path d="M156.865 179.904C156.865 178.6 155.993 177.72 154.769 177.72C153.545 177.72 152.641 178.624 152.641 179.88C152.641 181.144 153.553 182.048 154.921 182.048C155.625 182.048 156.209 181.808 156.593 181.36L156.169 180.864C155.857 181.208 155.441 181.376 154.945 181.376C154.105 181.376 153.505 180.88 153.409 180.136H156.849C156.857 180.064 156.865 179.968 156.865 179.904ZM154.769 178.368C155.513 178.368 156.049 178.872 156.129 179.584H153.409C153.489 178.864 154.033 178.368 154.769 178.368Z" fill="white"/>
<path d="M157.931 182H158.699V176.064H157.931V182Z" fill="white"/>
<path d="M160.549 176.944C160.853 176.944 161.069 176.72 161.069 176.432C161.069 176.16 160.845 175.944 160.549 175.944C160.253 175.944 160.029 176.168 160.029 176.448C160.029 176.728 160.253 176.944 160.549 176.944ZM160.165 182H160.933V177.76H160.165V182Z" fill="white"/>
<path d="M164.664 177.72C163.992 177.72 163.448 177.968 163.136 178.4V177.76H162.4V182H163.168V179.816C163.168 178.896 163.696 178.408 164.512 178.408C165.24 178.408 165.656 178.816 165.656 179.648V182H166.424V179.56C166.424 178.312 165.696 177.72 164.664 177.72Z" fill="white"/>
<path d="M171.701 179.904C171.701 178.6 170.829 177.72 169.605 177.72C168.381 177.72 167.477 178.624 167.477 179.88C167.477 181.144 168.389 182.048 169.757 182.048C170.461 182.048 171.045 181.808 171.429 181.36L171.005 180.864C170.693 181.208 170.277 181.376 169.781 181.376C168.941 181.376 168.341 180.88 168.245 180.136H171.685C171.693 180.064 171.701 179.968 171.701 179.904ZM169.605 178.368C170.349 178.368 170.885 178.872 170.965 179.584H168.245C168.325 178.864 168.869 178.368 169.605 178.368Z" fill="white"/>
<g filter="url(#filter0_i_3902_25971)">
<circle cx="102.5" cy="134.5" r="4.5" fill="white"/>
</g>
<g filter="url(#filter1_i_3902_25971)">
<circle cx="158.5" cy="99.5" r="4.5" fill="white"/>
</g>
<g filter="url(#filter2_i_3902_25971)">
<circle cx="217.5" cy="62.5" r="4.5" fill="white"/>
</g>
<path d="M83.6441 99.478V98.122H85.7501V97.612H83.6441V96.322H86.0081V95.8H83.0441V100H86.0921V99.478H83.6441ZM90.053 95.8L88.529 99.25L87.017 95.8H86.369L88.217 100H88.811L90.653 95.8H90.053ZM95.6586 100L95.6526 95.8H95.1606L93.4326 98.752L91.6806 95.8H91.1886V100H91.7646V96.958L93.2826 99.49H93.5586L95.0766 96.94L95.0826 100H95.6586ZM99.7544 100.048C100.864 100.048 101.38 99.496 101.38 98.854C101.38 97.312 98.8364 97.954 98.8364 96.928C98.8364 96.562 99.1424 96.262 99.8564 96.262C100.228 96.262 100.642 96.37 101.008 96.604L101.206 96.124C100.858 95.884 100.348 95.752 99.8564 95.752C98.7524 95.752 98.2484 96.304 98.2484 96.952C98.2484 98.512 100.792 97.864 100.792 98.89C100.792 99.256 100.48 99.538 99.7544 99.538C99.2144 99.538 98.6804 99.334 98.3684 99.052L98.1464 99.52C98.4824 99.832 99.1124 100.048 99.7544 100.048ZM106.151 96.79C105.611 96.79 105.167 97.018 104.927 97.378C104.717 96.982 104.309 96.79 103.823 96.79C103.343 96.79 102.953 96.97 102.725 97.294V96.82H102.173V100H102.749V98.362C102.749 97.672 103.127 97.306 103.703 97.306C104.225 97.306 104.525 97.612 104.525 98.236V100H105.101V98.362C105.101 97.672 105.479 97.306 106.055 97.306C106.577 97.306 106.877 97.612 106.877 98.236V100H107.453V98.17C107.453 97.234 106.925 96.79 106.151 96.79ZM109.671 96.79C109.161 96.79 108.687 96.934 108.357 97.198L108.597 97.63C108.843 97.42 109.227 97.288 109.605 97.288C110.175 97.288 110.457 97.57 110.457 98.056V98.17H109.545C108.597 98.17 108.267 98.59 108.267 99.1C108.267 99.652 108.723 100.036 109.443 100.036C109.941 100.036 110.295 99.868 110.487 99.58V100H111.033V98.08C111.033 97.21 110.541 96.79 109.671 96.79ZM109.539 99.592C109.101 99.592 108.837 99.394 108.837 99.076C108.837 98.806 108.999 98.584 109.569 98.584H110.457V99.028C110.313 99.394 109.971 99.592 109.539 99.592ZM112.651 97.354V96.82H112.099V100H112.675V98.416C112.675 97.72 113.059 97.342 113.677 97.342C113.719 97.342 113.761 97.342 113.809 97.348V96.79C113.251 96.79 112.855 96.982 112.651 97.354ZM116.256 99.4C116.136 99.496 115.974 99.55 115.806 99.55C115.488 99.55 115.308 99.358 115.308 99.016V97.294H116.22V96.82H115.308V96.124H114.732V96.82H114.192V97.294H114.732V99.04C114.732 99.682 115.098 100.036 115.74 100.036C115.998 100.036 116.262 99.964 116.436 99.814L116.256 99.4ZM87.2307 108.048C87.8847 108.048 88.4487 107.82 88.8327 107.388L88.4427 107.01C88.1187 107.352 87.7227 107.514 87.2607 107.514C86.3127 107.514 85.6107 106.83 85.6107 105.9C85.6107 104.97 86.3127 104.286 87.2607 104.286C87.7227 104.286 88.1187 104.442 88.4427 104.784L88.8327 104.406C88.4487 103.974 87.8847 103.752 87.2367 103.752C85.9587 103.752 85.0107 104.658 85.0107 105.9C85.0107 107.142 85.9587 108.048 87.2307 108.048ZM90.8318 108.036C91.7858 108.036 92.4818 107.358 92.4818 106.41C92.4818 105.462 91.7858 104.79 90.8318 104.79C89.8778 104.79 89.1758 105.462 89.1758 106.41C89.1758 107.358 89.8778 108.036 90.8318 108.036ZM90.8318 107.532C90.2198 107.532 89.7578 107.088 89.7578 106.41C89.7578 105.732 90.2198 105.294 90.8318 105.294C91.4438 105.294 91.8998 105.732 91.8998 106.41C91.8998 107.088 91.4438 107.532 90.8318 107.532ZM94.9764 104.79C94.4724 104.79 94.0644 104.976 93.8304 105.3V104.82H93.2784V108H93.8544V106.362C93.8544 105.672 94.2504 105.306 94.8624 105.306C95.4084 105.306 95.7204 105.612 95.7204 106.236V108H96.2964V106.17C96.2964 105.234 95.7504 104.79 94.9764 104.79ZM98.9704 107.4C98.8504 107.496 98.6884 107.55 98.5204 107.55C98.2024 107.55 98.0224 107.358 98.0224 107.016V105.294H98.9344V104.82H98.0224V104.124H97.4464V104.82H96.9064V105.294H97.4464V107.04C97.4464 107.682 97.8124 108.036 98.4544 108.036C98.7124 108.036 98.9764 107.964 99.1504 107.814L98.9704 107.4ZM100.399 105.354V104.82H99.8468V108H100.423V106.416C100.423 105.72 100.807 105.342 101.425 105.342C101.467 105.342 101.509 105.342 101.557 105.348V104.79C100.999 104.79 100.603 104.982 100.399 105.354ZM103.419 104.79C102.909 104.79 102.435 104.934 102.105 105.198L102.345 105.63C102.591 105.42 102.975 105.288 103.353 105.288C103.923 105.288 104.205 105.57 104.205 106.056V106.17H103.293C102.345 106.17 102.015 106.59 102.015 107.1C102.015 107.652 102.471 108.036 103.191 108.036C103.689 108.036 104.043 107.868 104.235 107.58V108H104.781V106.08C104.781 105.21 104.289 104.79 103.419 104.79ZM103.287 107.592C102.849 107.592 102.585 107.394 102.585 107.076C102.585 106.806 102.747 106.584 103.317 106.584H104.205V107.028C104.061 107.394 103.719 107.592 103.287 107.592ZM107.25 108.036C107.82 108.036 108.294 107.796 108.546 107.352L108.108 107.076C107.904 107.388 107.592 107.532 107.244 107.532C106.62 107.532 106.152 107.1 106.152 106.41C106.152 105.732 106.62 105.294 107.244 105.294C107.592 105.294 107.904 105.438 108.108 105.75L108.546 105.468C108.294 105.024 107.82 104.79 107.25 104.79C106.272 104.79 105.57 105.462 105.57 106.41C105.57 107.358 106.272 108.036 107.25 108.036ZM110.941 107.4C110.821 107.496 110.659 107.55 110.491 107.55C110.173 107.55 109.993 107.358 109.993 107.016V105.294H110.905V104.82H109.993V104.124H109.417V104.82H108.877V105.294H109.417V107.04C109.417 107.682 109.783 108.036 110.425 108.036C110.683 108.036 110.947 107.964 111.121 107.814L110.941 107.4ZM112.729 108.036C113.575 108.036 114.103 107.67 114.103 107.094C114.103 105.858 112.087 106.47 112.087 105.72C112.087 105.468 112.333 105.282 112.837 105.282C113.149 105.282 113.467 105.348 113.755 105.534L114.001 105.078C113.725 104.898 113.257 104.79 112.843 104.79C112.027 104.79 111.517 105.174 111.517 105.744C111.517 107.01 113.527 106.392 113.527 107.106C113.527 107.376 113.305 107.538 112.771 107.538C112.357 107.538 111.925 107.4 111.655 107.208L111.415 107.664C111.679 107.874 112.201 108.036 112.729 108.036Z" fill="white"/>
<g clip-path="url(#clip2_3902_25971)">
<path d="M98.998 66L98.845 66.5243V81.7324L98.998 81.8862L105.996 77.7134L98.998 66Z" fill="#C7C7C7"/>
<path d="M98.998 66L92 77.7134L98.998 81.8862V74.5047V66Z" fill="#999999"/>
<path d="M98.998 83.2226L98.9119 83.3289V88.7462L98.998 89L106 79.052L98.998 83.2226Z" fill="#F5F5F5"/>
<path d="M98.998 89V83.2226L92 79.052L98.998 89Z" fill="#999999"/>
<path d="M98.998 81.8862L105.996 77.7134L98.998 74.5046V81.8862Z" fill="#F8F8F8"/>
<path d="M92 77.7134L98.998 81.8862V74.5046L92 77.7134Z" fill="#C8C8C8"/>
</g>
<defs>
<filter id="filter0_i_3902_25971" x="98" y="130" width="9" height="13" filterUnits="userSpaceOnUse" color-interpolation-filters="sRGB">
<feFlood flood-opacity="0" result="BackgroundImageFix"/>
<feBlend mode="normal" in="SourceGraphic" in2="BackgroundImageFix" result="shape"/>
<feColorMatrix in="SourceAlpha" type="matrix" values="0 0 0 0 0 0 0 0 0 0 0 0 0 0 0 0 0 0 127 0" result="hardAlpha"/>
<feOffset dy="4"/>
<feGaussianBlur stdDeviation="2"/>
<feComposite in2="hardAlpha" operator="arithmetic" k2="-1" k3="1"/>
<feColorMatrix type="matrix" values="0 0 0 0 0 0 0 0 0 0 0 0 0 0 0 0 0 0 0.25 0"/>
<feBlend mode="normal" in2="shape" result="effect1_innerShadow_3902_25971"/>
</filter>
<filter id="filter1_i_3902_25971" x="154" y="95" width="9" height="13" filterUnits="userSpaceOnUse" color-interpolation-filters="sRGB">
<feFlood flood-opacity="0" result="BackgroundImageFix"/>
<feBlend mode="normal" in="SourceGraphic" in2="BackgroundImageFix" result="shape"/>
<feColorMatrix in="SourceAlpha" type="matrix" values="0 0 0 0 0 0 0 0 0 0 0 0 0 0 0 0 0 0 127 0" result="hardAlpha"/>
<feOffset dy="4"/>
<feGaussianBlur stdDeviation="2"/>
<feComposite in2="hardAlpha" operator="arithmetic" k2="-1" k3="1"/>
<feColorMatrix type="matrix" values="0 0 0 0 0 0 0 0 0 0 0 0 0 0 0 0 0 0 0.25 0"/>
<feBlend mode="normal" in2="shape" result="effect1_innerShadow_3902_25971"/>
</filter>
<filter id="filter2_i_3902_25971" x="213" y="58" width="9" height="13" filterUnits="userSpaceOnUse" color-interpolation-filters="sRGB">
<feFlood flood-opacity="0" result="BackgroundImageFix"/>
<feBlend mode="normal" in="SourceGraphic" in2="BackgroundImageFix" result="shape"/>
<feColorMatrix in="SourceAlpha" type="matrix" values="0 0 0 0 0 0 0 0 0 0 0 0 0 0 0 0 0 0 127 0" result="hardAlpha"/>
<feOffset dy="4"/>
<feGaussianBlur stdDeviation="2"/>
<feComposite in2="hardAlpha" operator="arithmetic" k2="-1" k3="1"/>
<feColorMatrix type="matrix" values="0 0 0 0 0 0 0 0 0 0 0 0 0 0 0 0 0 0 0.25 0"/>
<feBlend mode="normal" in2="shape" result="effect1_innerShadow_3902_25971"/>
</filter>
<clipPath id="clip0_3902_25971">
<rect width="30" height="42" fill="white" transform="translate(138 34)"/>
</clipPath>
<clipPath id="clip1_3902_25971">
<rect width="31" height="42" fill="white" transform="translate(200)"/>
</clipPath>
<clipPath id="clip2_3902_25971">
<rect width="14" height="23" fill="white" transform="translate(92 66)"/>
</clipPath>
</defs>
</svg>
