<svg width="173" height="240" viewBox="0 0 173 240" fill="none" xmlns="http://www.w3.org/2000/svg">
<path fill-rule="evenodd" clip-rule="evenodd" d="M140.155 26.8289H83.6421C76.1266 26.8289 69.9817 20.7946 69.9817 13.4144C69.9817 6.03433 76.1266 0 83.6421 0H140.155V26.8289Z" fill="#15F9FF"/>
<path fill-rule="evenodd" clip-rule="evenodd" d="M43.7221 6.71445L71.986 54.772C75.7437 61.1681 73.4891 69.402 66.9905 73.0921C60.4771 76.7821 52.0922 74.5681 48.3345 68.1865L20.0559 20.1289L43.7221 6.71445Z" fill="#A3A4F5"/>
<path fill-rule="evenodd" clip-rule="evenodd" d="M74.1963 98.7778L102.46 50.7202C106.218 44.3241 114.617 42.1245 121.116 45.8146C127.629 49.5047 129.869 57.753 126.112 64.1347L97.8478 112.192L74.1963 98.7778Z" fill="#F385FF"/>
<path fill-rule="evenodd" clip-rule="evenodd" d="M140.155 26.8289C147.7 26.8289 153.816 20.8235 153.816 13.4144C153.816 6.00539 147.7 0 140.155 0C132.61 0 126.495 6.00539 126.495 13.4144C126.495 20.8235 132.61 26.8289 140.155 26.8289Z" fill="#11D3D3"/>
<path fill-rule="evenodd" clip-rule="evenodd" d="M74.1962 112.192C77.9687 118.603 86.3241 120.802 92.8522 117.098C99.3803 113.393 101.62 105.188 97.8477 98.7778C94.0753 92.3672 85.7199 90.1677 79.1918 93.8722C72.6637 97.5767 70.4238 105.782 74.1962 112.192Z" fill="#D46FE2"/>
<path fill-rule="evenodd" clip-rule="evenodd" d="M31.8889 26.8289C39.4338 26.8289 45.5493 20.8235 45.5493 13.4144C45.5493 6.00539 39.4338 0 31.8889 0C24.344 0 18.2285 6.00539 18.2285 13.4144C18.2285 20.8235 24.344 26.8289 31.8889 26.8289Z" fill="#575CC1"/>
<path d="M29.767 156.951C32.7879 158.645 35.1899 160.916 36.9582 163.796C38.7265 166.676 39.6107 169.83 39.6107 173.289C39.6107 176.733 38.7265 179.917 36.9582 182.825C35.1899 185.734 32.7879 188.049 29.767 189.757C26.7461 191.464 23.4304 192.318 19.8053 192.318C16.1803 192.318 12.8646 191.464 9.84373 189.757C6.82282 188.049 4.42084 185.748 2.6525 182.825C0.884167 179.917 0 176.733 0 173.289C0 169.845 0.884167 166.676 2.6525 163.796C4.42084 160.916 6.82282 158.63 9.84373 156.951C12.8646 155.258 16.1803 154.419 19.8053 154.419C23.4304 154.419 26.7461 155.258 29.767 156.951ZM11.8331 159.802C9.37217 161.191 7.41227 163.073 5.96813 165.446C4.52399 167.833 3.80192 170.438 3.80192 173.275C3.80192 176.111 4.52399 178.744 5.96813 181.161C7.41227 183.578 9.37217 185.488 11.8331 186.892C14.294 188.295 16.976 188.99 19.8643 188.99C22.7231 188.99 25.3756 188.295 27.8218 186.892C30.268 185.488 32.2132 183.578 33.6573 181.161C35.1014 178.744 35.8235 176.111 35.8235 173.275C35.8235 169.802 34.7478 166.676 32.5816 163.883C31.5353 162.523 30.2533 161.351 28.8091 160.395C26.0977 158.601 23.1062 157.704 19.8643 157.704C16.976 157.718 14.294 158.413 11.8331 159.802Z" fill="#4A5070"/>
<path d="M79.7519 191.217L72.0744 179.843C70.9103 179.916 70.0261 179.945 69.4219 179.945H59.0035V190.248C59.0035 191.203 58.2077 191.984 57.2351 191.984H57.0288C56.0562 191.984 55.2605 191.203 55.2605 190.248V154.722H69.4219C74.1669 154.722 77.8215 155.793 80.4151 157.949C83.0086 160.105 84.2907 163.144 84.2907 167.095C84.2907 170.191 83.5244 172.767 82.0066 174.822C80.4887 176.877 78.3225 178.324 75.4932 179.134L82.6697 189.249C83.4949 190.407 82.6549 191.984 81.2108 191.984C80.6361 191.984 80.0761 191.695 79.7519 191.217ZM69.4219 176.645C73.047 176.645 75.8321 175.835 77.7773 174.214C79.7372 172.593 80.7098 170.264 80.7098 167.21C80.7098 164.229 79.7372 161.957 77.7773 160.395C75.8174 158.832 73.0323 158.05 69.4219 158.05H59.0035V176.645H69.4219Z" fill="#4A5070"/>
<path d="M126.716 157.153C128.867 158.803 129.943 161.089 129.943 163.998C129.943 166.197 129.324 168.05 128.072 169.54C126.819 171.031 125.08 172.015 122.84 172.478C125.625 172.839 127.792 173.852 129.354 175.517C130.916 177.181 131.682 179.308 131.682 181.855C131.682 185.053 130.474 187.542 128.042 189.322C125.611 191.102 122.251 191.984 117.948 191.984H101.885V154.679H117.786C121.588 154.679 124.564 155.503 126.716 157.153ZM123.857 169.41C125.345 168.252 126.082 166.617 126.082 164.475C126.082 162.42 125.345 160.814 123.857 159.671C122.369 158.528 120.291 157.978 117.609 158.021H105.614V171.132H117.609C120.291 171.146 122.383 170.568 123.857 169.41ZM125.198 186.789C126.996 185.53 127.88 183.765 127.88 181.493C127.88 179.25 126.981 177.514 125.169 176.269C123.356 175.025 120.851 174.402 117.624 174.402H105.628V188.685H117.624C120.88 188.685 123.4 188.048 125.198 186.789Z" fill="#4A5070"/>
<path d="M164.249 158.6C162.407 158.079 160.668 157.833 159.032 157.833C156.424 157.833 154.331 158.34 152.769 159.353C151.207 160.366 150.412 161.74 150.412 163.477C150.412 165.011 150.839 166.255 151.708 167.21C152.578 168.165 153.639 168.918 154.906 169.482C156.173 170.032 157.912 170.64 160.123 171.32C162.687 172.073 164.765 172.811 166.341 173.534C167.918 174.258 169.259 175.314 170.364 176.703C171.47 178.092 172.015 179.916 172.015 182.188C172.015 184.185 171.44 185.936 170.305 187.469C169.171 189.003 167.564 190.176 165.501 191.015C163.438 191.854 161.066 192.274 158.384 192.274C155.746 192.274 153.167 191.753 150.647 190.725C148.614 189.901 146.816 188.844 145.254 187.571C144.606 187.05 144.443 186.138 144.856 185.415C145.372 184.503 146.595 184.257 147.435 184.894C148.761 185.921 150.22 186.76 151.826 187.412C154.066 188.338 156.277 188.801 158.443 188.801C161.331 188.801 163.63 188.222 165.339 187.064C167.034 185.907 167.889 184.358 167.889 182.405C167.889 180.842 167.461 179.568 166.592 178.57C165.722 177.571 164.661 176.804 163.394 176.284C162.127 175.748 160.358 175.126 158.074 174.417C155.51 173.635 153.447 172.897 151.885 172.203C150.323 171.508 149.012 170.481 147.921 169.106C146.831 167.731 146.3 165.951 146.3 163.752C146.3 161.871 146.845 160.221 147.921 158.788C149.012 157.37 150.529 156.27 152.475 155.503C154.435 154.736 156.689 154.36 159.253 154.36C161.316 154.36 163.394 154.664 165.472 155.272C166.916 155.692 168.242 156.198 169.451 156.806C170.32 157.24 170.674 158.267 170.232 159.121L170.173 159.222C169.731 160.076 168.67 160.395 167.8 159.96C166.68 159.396 165.501 158.947 164.249 158.6Z" fill="#4A5070"/>
<path d="M6.13013 212.142H10.0057V235.469H24.6976V238.783H6.13013V212.142V212.142Z" fill="#757DE0"/>
<path d="M43.501 220.477C45.0188 221.852 45.7703 223.892 45.7703 226.598V238.783H42.2484V236.12C41.6295 237.061 40.7453 237.77 39.5959 238.276C38.4465 238.768 37.076 239.014 35.514 239.014C33.2152 239.014 31.3731 238.465 29.988 237.379C28.6028 236.294 27.9102 234.861 27.9102 233.081C27.9102 231.301 28.5733 229.883 29.8848 228.798C31.1963 227.713 33.2888 227.177 36.1624 227.177H42.0568V226.454C42.0568 224.876 41.5853 223.675 40.6569 222.836C39.7285 221.997 38.3581 221.577 36.5455 221.577C35.3372 221.577 34.1435 221.78 32.9794 222.17C31.8152 222.561 30.8279 223.097 30.0322 223.748L28.4849 221.013C29.5459 220.173 30.8132 219.537 32.2868 219.088C33.7604 218.64 35.3224 218.422 36.9729 218.422C39.8169 218.408 41.9979 219.103 43.501 220.477ZM39.8022 235.252C40.8337 234.63 41.5853 233.747 42.0568 232.604V229.797H36.3245C33.171 229.797 31.5942 230.838 31.5942 232.922C31.5942 233.935 31.9921 234.731 32.8026 235.324C33.5983 235.903 34.7182 236.193 36.1329 236.193C37.5476 236.193 38.7707 235.874 39.8022 235.252Z" fill="#757DE0"/>
<path d="M85.2925 220.622C86.8103 222.098 87.5619 224.269 87.5619 227.163V238.768H83.8484V227.583C83.8484 225.629 83.3915 224.153 82.4779 223.169C81.5643 222.185 80.2527 221.678 78.5433 221.678C76.6571 221.678 75.154 222.257 74.0488 223.415C72.9436 224.573 72.3837 226.222 72.3837 228.378V238.768H68.6701V227.583C68.6701 225.629 68.2133 224.153 67.2997 223.169C66.3861 222.185 65.0745 221.678 63.3651 221.678C61.4789 221.678 59.9758 222.257 58.8706 223.415C57.7654 224.573 57.2054 226.222 57.2054 228.378V238.768H53.4919V218.596H57.0581V221.606C57.8096 220.564 58.7822 219.768 60.0053 219.233C61.2137 218.683 62.5989 218.408 64.1462 218.408C65.7524 218.408 67.1671 218.726 68.4049 219.363C69.6427 220 70.6006 220.926 71.2784 222.141C72.0595 220.969 73.1352 220.058 74.5204 219.406C75.9056 218.741 77.4529 218.422 79.1917 218.422C81.7264 218.408 83.7747 219.146 85.2925 220.622Z" fill="#757DE0"/>
<path d="M111.42 219.71C112.996 220.579 114.234 221.78 115.118 223.328C116.003 224.876 116.459 226.671 116.459 228.697C116.459 230.723 116.017 232.517 115.118 234.08C114.234 235.643 112.996 236.858 111.42 237.712C109.843 238.58 108.06 239 106.07 239C104.553 239 103.153 238.711 101.885 238.132C100.618 237.553 99.5718 236.699 98.7466 235.585V238.783H95.1804V210.55H98.8939V221.664C99.7191 220.593 100.751 219.797 101.989 219.247C103.226 218.697 104.582 218.422 106.056 218.422C108.075 218.408 109.858 218.842 111.42 219.71ZM109.312 234.919C110.359 234.326 111.184 233.487 111.788 232.401C112.392 231.316 112.702 230.086 112.702 228.697C112.702 227.308 112.392 226.063 111.788 224.992C111.184 223.907 110.359 223.082 109.312 222.503C108.266 221.924 107.087 221.635 105.761 221.635C104.464 221.635 103.3 221.924 102.239 222.503C101.178 223.082 100.353 223.921 99.7634 224.992C99.1739 226.078 98.8792 227.308 98.8792 228.697C98.8792 230.086 99.1739 231.33 99.7634 232.401C100.353 233.487 101.178 234.311 102.239 234.919C103.3 235.513 104.479 235.816 105.761 235.816C107.087 235.802 108.266 235.513 109.312 234.919Z" fill="#757DE0"/>
<path d="M141.776 210.536V238.768H138.21V235.585C137.385 236.699 136.338 237.553 135.071 238.132C133.804 238.711 132.404 239 130.886 239C128.897 239 127.114 238.566 125.537 237.712C123.96 236.844 122.722 235.643 121.838 234.08C120.954 232.517 120.497 230.723 120.497 228.697C120.497 226.671 120.939 224.876 121.838 223.328C122.722 221.78 123.96 220.579 125.537 219.71C127.114 218.842 128.897 218.422 130.886 218.422C132.36 218.422 133.715 218.697 134.953 219.247C136.191 219.797 137.223 220.593 138.048 221.664V210.55H141.776V210.536ZM134.717 234.919C135.778 234.326 136.604 233.487 137.193 232.401C137.783 231.316 138.077 230.086 138.077 228.697C138.077 227.308 137.783 226.063 137.193 224.992C136.604 223.907 135.778 223.082 134.717 222.503C133.656 221.924 132.478 221.635 131.195 221.635C129.884 221.635 128.69 221.924 127.644 222.503C126.598 223.082 125.773 223.921 125.168 224.992C124.564 226.078 124.255 227.308 124.255 228.697C124.255 230.086 124.564 231.33 125.168 232.401C125.773 233.487 126.598 234.311 127.644 234.919C128.69 235.513 129.869 235.816 131.195 235.816C132.478 235.802 133.656 235.513 134.717 234.919Z" fill="#757DE0"/>
<path d="M163.615 220.477C165.133 221.852 165.884 223.892 165.884 226.598V238.783H162.362V236.12C161.744 237.061 160.859 237.77 159.71 238.276C158.561 238.768 157.19 239.014 155.628 239.014C153.329 239.014 151.487 238.465 150.102 237.379C148.717 236.294 148.024 234.861 148.024 233.081C148.024 231.301 148.687 229.883 149.999 228.798C151.31 227.713 153.403 227.177 156.276 227.177H162.171V226.454C162.171 224.876 161.699 223.675 160.771 222.836C159.843 221.997 158.472 221.577 156.66 221.577C155.451 221.577 154.258 221.78 153.093 222.17C151.929 222.561 150.942 223.097 150.146 223.748L148.599 221.013C149.66 220.173 150.927 219.537 152.401 219.088C153.874 218.64 155.436 218.422 157.087 218.422C159.916 218.408 162.097 219.103 163.615 220.477ZM159.916 235.252C160.948 234.63 161.699 233.747 162.171 232.604V229.797H156.438C153.285 229.797 151.708 230.838 151.708 232.922C151.708 233.935 152.106 234.731 152.917 235.324C153.712 235.903 154.832 236.193 156.247 236.193C157.647 236.193 158.87 235.874 159.916 235.252Z" fill="#757DE0"/>
</svg>
