<svg width="209" height="280" viewBox="0 0 209 280" fill="none" xmlns="http://www.w3.org/2000/svg">
<path fill-rule="evenodd" clip-rule="evenodd" d="M187.519 41.5727H100.604C89.0455 41.5727 79.5947 32.2222 79.5947 20.7864C79.5947 9.3505 89.0455 0 100.604 0H187.519V41.5727Z" fill="#15F9FF"/>
<path fill-rule="evenodd" clip-rule="evenodd" d="M39.2084 10.4044L82.6773 84.8721C88.4566 94.7832 84.989 107.542 74.9944 113.26C64.977 118.978 52.0814 115.547 46.3021 105.658L2.81055 31.1908L39.2084 10.4044Z" fill="#A3A4F5"/>
<path fill-rule="evenodd" clip-rule="evenodd" d="M86.0762 153.061L129.545 78.5936C135.324 68.6825 148.243 65.2742 158.237 70.9921C168.255 76.71 171.7 89.4913 165.92 99.3799L122.451 173.848L86.0762 153.061Z" fill="#F385FF"/>
<path fill-rule="evenodd" clip-rule="evenodd" d="M187.519 41.5727C199.123 41.5727 208.528 32.2671 208.528 20.7864C208.528 9.30566 199.123 0 187.519 0C175.915 0 166.51 9.30566 166.51 20.7864C166.51 32.2671 175.915 41.5727 187.519 41.5727Z" fill="#11D3D3"/>
<path fill-rule="evenodd" clip-rule="evenodd" d="M86.0771 173.848C91.879 183.781 104.729 187.189 114.769 181.449C124.809 175.709 128.254 162.995 122.452 153.061C116.65 143.128 103.8 139.719 93.76 145.46C83.72 151.2 80.2752 163.914 86.0771 173.848Z" fill="#D46FE2"/>
<path fill-rule="evenodd" clip-rule="evenodd" d="M21.0092 41.5727C32.613 41.5727 42.0185 32.2671 42.0185 20.7864C42.0185 9.30566 32.613 0 21.0092 0C9.40543 0 0 9.30566 0 20.7864C0 32.2671 9.40543 41.5727 21.0092 41.5727Z" fill="#575CC1"/>
<path d="M62.9211 218.922C65.1458 220.179 66.9147 221.864 68.2169 224.001C69.5192 226.138 70.1703 228.478 70.1703 231.044C70.1703 233.6 69.5192 235.962 68.2169 238.12C66.9147 240.278 65.1458 241.996 62.9211 243.263C60.6965 244.53 58.2547 245.163 55.5851 245.163C52.9155 245.163 50.4738 244.53 48.2492 243.263C46.0245 241.996 44.2556 240.289 42.9534 238.12C41.6511 235.962 41 233.6 41 231.044C41 228.489 41.6511 226.138 42.9534 224.001C44.2556 221.864 46.0245 220.168 48.2492 218.922C50.4738 217.666 52.9155 217.043 55.5851 217.043C58.2547 217.043 60.6965 217.666 62.9211 218.922ZM49.7142 221.037C47.9019 222.068 46.4586 223.464 45.3951 225.225C44.3316 226.996 43.7998 228.929 43.7998 231.034C43.7998 233.138 44.3316 235.092 45.3951 236.885C46.4586 238.678 47.9019 240.096 49.7142 241.137C51.5265 242.178 53.5016 242.694 55.6286 242.694C57.7339 242.694 59.6872 242.178 61.4887 241.137C63.2901 240.096 64.7226 238.678 65.7861 236.885C66.8496 235.092 67.3813 233.138 67.3813 231.034C67.3813 228.457 66.5891 226.138 64.9939 224.065C64.2234 223.056 63.2792 222.186 62.2157 221.478C60.219 220.146 58.016 219.481 55.6286 219.481C53.5016 219.491 51.5265 220.007 49.7142 221.037Z" fill="#454545"/>
<path d="M99.7314 244.347L94.0775 235.908C93.2202 235.961 92.5691 235.983 92.1241 235.983H84.4517V243.628C84.4517 244.336 83.8657 244.916 83.1495 244.916H82.9976C82.2813 244.916 81.6953 244.336 81.6953 243.628V217.268H92.1241C95.6185 217.268 98.3098 218.063 100.22 219.663C102.13 221.263 103.074 223.517 103.074 226.449C103.074 228.746 102.51 230.657 101.392 232.182C100.274 233.707 98.6788 234.78 96.5952 235.382L101.88 242.887C102.488 243.746 101.869 244.916 100.806 244.916C100.383 244.916 99.9702 244.701 99.7314 244.347ZM92.1241 233.535C94.7937 233.535 96.8448 232.934 98.2772 231.731C99.7206 230.529 100.437 228.8 100.437 226.534C100.437 224.323 99.7206 222.637 98.2772 221.477C96.8339 220.318 94.7829 219.738 92.1241 219.738H84.4517V233.535H92.1241Z" fill="#454545"/>
<path d="M134.316 219.072C135.9 220.296 136.693 221.993 136.693 224.151C136.693 225.783 136.237 227.157 135.314 228.263C134.392 229.369 133.111 230.099 131.462 230.443C133.513 230.711 135.108 231.463 136.258 232.697C137.409 233.932 137.973 235.511 137.973 237.4C137.973 239.773 137.083 241.62 135.293 242.94C133.502 244.261 131.028 244.916 127.859 244.916H116.03V217.236H127.74C130.539 217.236 132.732 217.848 134.316 219.072ZM132.211 228.166C133.307 227.307 133.849 226.094 133.849 224.505C133.849 222.981 133.307 221.789 132.211 220.941C131.115 220.092 129.584 219.684 127.609 219.716H118.776V229.444H127.609C129.584 229.455 131.125 229.025 132.211 228.166ZM133.198 241.062C134.522 240.127 135.173 238.817 135.173 237.132C135.173 235.468 134.511 234.179 133.177 233.256C131.842 232.332 129.997 231.871 127.62 231.871H118.787V242.468H127.62C130.019 242.468 131.874 241.996 133.198 241.062Z" fill="#454545"/>
<path d="M161.957 220.146C160.6 219.759 159.32 219.577 158.115 219.577C156.194 219.577 154.653 219.953 153.503 220.704C152.353 221.456 151.767 222.476 151.767 223.764C151.767 224.902 152.081 225.826 152.722 226.534C153.362 227.243 154.143 227.801 155.077 228.22C156.01 228.628 157.29 229.079 158.918 229.584C160.807 230.142 162.337 230.69 163.498 231.226C164.659 231.763 165.647 232.547 166.46 233.578C167.274 234.609 167.676 235.961 167.676 237.647C167.676 239.129 167.253 240.428 166.417 241.566C165.581 242.704 164.399 243.574 162.879 244.197C161.36 244.819 159.613 245.131 157.638 245.131C155.695 245.131 153.796 244.744 151.94 243.982C150.443 243.37 149.119 242.586 147.969 241.641C147.491 241.255 147.372 240.578 147.676 240.041C148.055 239.365 148.956 239.182 149.575 239.655C150.551 240.417 151.626 241.04 152.809 241.523C154.458 242.21 156.086 242.554 157.681 242.554C159.808 242.554 161.501 242.124 162.76 241.265C164.008 240.407 164.637 239.258 164.637 237.808C164.637 236.649 164.323 235.704 163.682 234.963C163.042 234.222 162.261 233.653 161.327 233.266C160.394 232.869 159.092 232.408 157.41 231.881C155.522 231.302 154.002 230.754 152.852 230.239C151.702 229.723 150.736 228.961 149.933 227.941C149.13 226.921 148.739 225.6 148.739 223.968C148.739 222.572 149.141 221.348 149.933 220.286C150.736 219.233 151.854 218.417 153.286 217.848C154.729 217.279 156.39 217 158.278 217C159.797 217 161.327 217.225 162.858 217.676C163.921 217.988 164.898 218.364 165.788 218.815C166.428 219.137 166.688 219.899 166.363 220.532L166.319 220.608C165.994 221.241 165.212 221.477 164.572 221.155C163.747 220.736 162.879 220.404 161.957 220.146Z" fill="#454545"/>
<path d="M45.5146 259.872H48.3687V277.18H59.1882V279.639H45.5146V259.872V259.872Z" fill="#575CC1"/>
<path d="M73.0352 266.057C74.1529 267.077 74.7064 268.591 74.7064 270.599V279.639H72.1128V277.664C71.657 278.361 71.0058 278.888 70.1594 279.263C69.3129 279.628 68.3037 279.811 67.1534 279.811C65.4604 279.811 64.1039 279.403 63.0838 278.598C62.0638 277.792 61.5537 276.729 61.5537 275.409C61.5537 274.088 62.0421 273.036 63.0079 272.231C63.9737 271.425 65.5147 271.028 67.6309 271.028H71.9717V270.491C71.9717 269.321 71.6244 268.43 70.9407 267.807C70.2571 267.184 69.2478 266.873 67.913 266.873C67.0231 266.873 66.1441 267.023 65.2868 267.313C64.4295 267.603 63.7024 268 63.1164 268.484L61.9769 266.454C62.7583 265.832 63.6916 265.359 64.7768 265.026C65.862 264.693 67.0123 264.532 68.2277 264.532C70.3222 264.522 71.9283 265.037 73.0352 266.057ZM70.3113 277.019C71.071 276.558 71.6244 275.903 71.9717 275.055V272.972H67.7502C65.4279 272.972 64.2667 273.745 64.2667 275.291C64.2667 276.042 64.5597 276.633 65.1566 277.073C65.7426 277.503 66.5674 277.717 67.6092 277.717C68.6509 277.717 69.5517 277.481 70.3113 277.019Z" fill="#575CC1"/>
<path d="M103.811 266.164C104.929 267.26 105.483 268.87 105.483 271.017V279.628H102.748V271.329C102.748 269.879 102.411 268.784 101.739 268.054C101.066 267.324 100.1 266.948 98.8411 266.948C97.452 266.948 96.3451 267.378 95.5312 268.237C94.7173 269.096 94.3049 270.32 94.3049 271.919V279.628H91.5702V271.329C91.5702 269.879 91.2338 268.784 90.5609 268.054C89.8881 267.324 88.9223 266.948 87.6634 266.948C86.2744 266.948 85.1675 267.378 84.3536 268.237C83.5397 269.096 83.1273 270.32 83.1273 271.919V279.628H80.3926V264.661H83.0188V266.894C83.5722 266.121 84.2885 265.531 85.1892 265.134C86.0791 264.726 87.0991 264.522 88.2386 264.522C89.4215 264.522 90.4633 264.758 91.3748 265.23C92.2864 265.703 92.9918 266.39 93.491 267.292C94.0662 266.422 94.8584 265.746 95.8784 265.262C96.8985 264.769 98.038 264.532 99.3185 264.532C101.185 264.522 102.694 265.069 103.811 266.164Z" fill="#575CC1"/>
<path d="M123.053 265.488C124.214 266.132 125.125 267.023 125.777 268.172C126.428 269.321 126.764 270.652 126.764 272.156C126.764 273.659 126.439 274.99 125.777 276.15C125.125 277.309 124.214 278.211 123.053 278.845C121.892 279.489 120.578 279.8 119.113 279.8C117.996 279.8 116.965 279.586 116.031 279.156C115.098 278.727 114.328 278.093 113.72 277.266V279.639H111.094V258.691H113.828V266.937C114.436 266.143 115.196 265.552 116.107 265.144C117.019 264.736 118.017 264.532 119.103 264.532C120.589 264.522 121.902 264.844 123.053 265.488ZM121.501 276.772C122.271 276.332 122.879 275.709 123.324 274.904C123.769 274.099 123.997 273.186 123.997 272.156C123.997 271.125 123.769 270.201 123.324 269.407C122.879 268.602 122.271 267.99 121.501 267.56C120.73 267.131 119.862 266.916 118.886 266.916C117.931 266.916 117.073 267.131 116.292 267.56C115.511 267.99 114.903 268.612 114.469 269.407C114.035 270.212 113.818 271.125 113.818 272.156C113.818 273.186 114.035 274.11 114.469 274.904C114.903 275.709 115.511 276.322 116.292 276.772C117.073 277.213 117.941 277.438 118.886 277.438C119.862 277.427 120.73 277.213 121.501 276.772Z" fill="#575CC1"/>
<path d="M145.408 258.681V279.628H142.781V277.266C142.174 278.093 141.403 278.727 140.47 279.156C139.537 279.586 138.506 279.8 137.388 279.8C135.923 279.8 134.61 279.478 133.449 278.845C132.288 278.2 131.376 277.309 130.725 276.15C130.074 274.99 129.737 273.659 129.737 272.156C129.737 270.652 130.063 269.321 130.725 268.172C131.376 267.023 132.288 266.132 133.449 265.488C134.61 264.844 135.923 264.532 137.388 264.532C138.473 264.532 139.472 264.736 140.383 265.144C141.295 265.552 142.054 266.143 142.662 266.937V258.691H145.408V258.681ZM140.21 276.772C140.991 276.332 141.599 275.709 142.033 274.904C142.467 274.099 142.684 273.186 142.684 272.156C142.684 271.125 142.467 270.201 142.033 269.407C141.599 268.602 140.991 267.99 140.21 267.56C139.428 267.131 138.56 266.916 137.616 266.916C136.65 266.916 135.771 267.131 135.001 267.56C134.23 267.99 133.622 268.612 133.177 269.407C132.732 270.212 132.505 271.125 132.505 272.156C132.505 273.186 132.732 274.11 133.177 274.904C133.622 275.709 134.23 276.321 135.001 276.772C135.771 277.213 136.639 277.438 137.616 277.438C138.56 277.427 139.428 277.213 140.21 276.772Z" fill="#575CC1"/>
<path d="M161.49 266.057C162.608 267.077 163.161 268.591 163.161 270.599V279.639H160.568V277.664C160.112 278.361 159.461 278.888 158.614 279.263C157.768 279.628 156.759 279.811 155.608 279.811C153.916 279.811 152.559 279.403 151.539 278.598C150.519 277.792 150.009 276.729 150.009 275.409C150.009 274.088 150.497 273.036 151.463 272.231C152.429 271.425 153.97 271.028 156.086 271.028H160.427V270.491C160.427 269.321 160.079 268.43 159.396 267.807C158.712 267.184 157.703 266.873 156.368 266.873C155.478 266.873 154.599 267.023 153.742 267.313C152.885 267.603 152.157 268 151.571 268.484L150.432 266.454C151.213 265.832 152.147 265.359 153.232 265.026C154.317 264.693 155.467 264.532 156.683 264.532C158.766 264.522 160.372 265.037 161.49 266.057ZM158.766 277.019C159.526 276.558 160.079 275.903 160.427 275.055V272.972H156.205C153.883 272.972 152.722 273.745 152.722 275.291C152.722 276.042 153.015 276.633 153.612 277.073C154.198 277.503 155.022 277.717 156.064 277.717C157.095 277.717 157.996 277.481 158.766 277.019Z" fill="#575CC1"/>
</svg>
