<svg width="177" height="239" viewBox="0 0 177 239" fill="none" xmlns="http://www.w3.org/2000/svg">
<path fill-rule="evenodd" clip-rule="evenodd" d="M88.5301 90.6718C76.9293 76.9505 72.2738 78.0199 55.426 71.5132L60.8246 80.0231L88.5301 123.281C90.6986 110.764 95.8849 100.326 88.5301 90.6718Z" fill="#A3A4F5"/>
<path fill-rule="evenodd" clip-rule="evenodd" d="M55.426 71.5283L88.5301 90.6718C107.471 86.8612 106.864 84.1049 121.634 71.5132H65.5407H55.426V71.5283Z" fill="#15F9FF"/>
<path fill-rule="evenodd" clip-rule="evenodd" d="M75.6555 53.5144H133.174C129.398 38.6485 131.961 36.7055 119.83 27.7287C99.6003 30.1988 91.9119 40.9228 75.6555 53.5144Z" fill="#15F9FF"/>
<path fill-rule="evenodd" clip-rule="evenodd" d="M49.694 20.0171C69.3168 16.1462 69.3168 12.7874 84.6936 0H9.64453C27.0382 12.185 28.7973 16.1462 49.694 20.0171Z" fill="#F385FF"/>
<path fill-rule="evenodd" clip-rule="evenodd" d="M121.65 71.5283L88.5303 90.6718V123.296L121.65 71.5283Z" fill="#F385FF"/>
<path fill-rule="evenodd" clip-rule="evenodd" d="M54.8195 53.5144L84.6935 0L49.6939 20.0171C42.885 37.9707 46.7974 43.5887 49.6939 62.6117L54.8195 53.5144Z" fill="#15F9FF"/>
<path fill-rule="evenodd" clip-rule="evenodd" d="M49.694 20.0171L9.64453 0L43.8253 53.5144L49.694 62.6117V20.0171Z" fill="#A3A4F5"/>
<path fill-rule="evenodd" clip-rule="evenodd" d="M105.53 0L75.6555 53.5144L119.815 27.7287C116.782 10.3173 117.328 13.1941 105.53 0Z" fill="#A3A4F5"/>
<path fill-rule="evenodd" clip-rule="evenodd" d="M119.83 27.7287C143.562 21.222 147.945 14.8057 167.355 0H105.53L119.83 27.7287Z" fill="#F385FF"/>
<path fill-rule="evenodd" clip-rule="evenodd" d="M119.83 27.7287L133.175 53.5144L167.355 0L119.83 27.7287Z" fill="#A3A4F5"/>
<path d="M30.6323 158.103C33.741 159.866 36.2128 162.23 38.0326 165.227C39.8523 168.225 40.7622 171.508 40.7622 175.108C40.7622 178.693 39.8523 182.006 38.0326 185.034C36.2128 188.061 33.741 190.471 30.6323 192.248C27.5236 194.026 24.1115 194.914 20.3811 194.914C16.6506 194.914 13.2386 194.026 10.1299 192.248C7.02116 190.471 4.54935 188.076 2.72961 185.034C0.90987 182.006 0 178.693 0 175.108C0 171.523 0.90987 168.225 2.72961 165.227C4.54935 162.23 7.02116 159.85 10.1299 158.103C13.2386 156.341 16.6506 155.467 20.3811 155.467C24.1115 155.467 27.5236 156.341 30.6323 158.103ZM12.1771 161.07C9.64462 162.516 7.62774 164.474 6.14162 166.945C4.6555 169.43 3.91244 172.141 3.91244 175.093C3.91244 178.045 4.6555 180.786 6.14162 183.302C7.62774 185.817 9.64462 187.805 12.1771 189.266C14.7096 190.727 17.4695 191.45 20.4417 191.45C23.3837 191.45 26.1133 190.727 28.6306 189.266C31.1479 187.805 33.1496 185.817 34.6357 183.302C36.1218 180.786 36.8649 178.045 36.8649 175.093C36.8649 171.478 35.7579 168.225 33.5287 165.318C32.452 163.902 31.1327 162.682 29.6466 161.688C26.8563 159.82 23.7779 158.886 20.4417 158.886C17.4695 158.902 14.7096 159.625 12.1771 161.07Z" fill="#5E6077"/>
<path d="M82.0703 193.77L74.1696 181.931C72.9716 182.006 72.0618 182.036 71.44 182.036H60.7187V192.76C60.7187 193.754 59.8998 194.568 58.899 194.568H58.6867C57.6858 194.568 56.8669 193.754 56.8669 192.76V155.784H71.44C76.323 155.784 80.0838 156.898 82.7527 159.143C85.4217 161.387 86.741 164.55 86.741 168.662C86.741 171.885 85.9524 174.566 84.3905 176.705C82.8286 178.843 80.5994 180.349 77.6878 181.193L85.0729 191.721C85.9221 192.926 85.0577 194.568 83.5716 194.568C82.9802 194.568 82.404 194.267 82.0703 193.77ZM71.44 178.602C75.1705 178.602 78.0366 177.759 80.0383 176.072C82.0552 174.385 83.056 171.96 83.056 168.782C83.056 165.679 82.0552 163.315 80.0383 161.688C78.0214 160.061 75.1553 159.248 71.44 159.248H60.7187V178.602H71.44Z" fill="#5E6077"/>
<path d="M130.4 158.314C132.614 160.031 133.721 162.411 133.721 165.438C133.721 167.728 133.084 169.656 131.795 171.207C130.506 172.758 128.716 173.783 126.411 174.265C129.277 174.641 131.507 175.695 133.114 177.428C134.721 179.16 135.51 181.374 135.51 184.025C135.51 187.353 134.267 189.944 131.764 191.796C129.262 193.649 125.805 194.568 121.377 194.568H104.847V155.739H121.21C125.122 155.739 128.186 156.597 130.4 158.314ZM127.458 171.087C128.989 169.882 129.748 168.18 129.748 165.95C129.748 163.812 128.989 162.14 127.458 160.95C125.926 159.76 123.788 159.188 121.028 159.233H108.684V172.879H121.028C123.788 172.879 125.941 172.276 127.458 171.087ZM128.838 189.161C130.688 187.85 131.598 186.013 131.598 183.648C131.598 181.313 130.673 179.506 128.807 178.211C126.942 176.915 124.364 176.268 121.043 176.268H108.699V191.134H121.043C124.394 191.134 126.988 190.486 128.838 189.161Z" fill="#5E6077"/>
<path d="M169.023 159.82C167.128 159.278 165.339 159.022 163.655 159.022C160.971 159.022 158.818 159.549 157.21 160.604C155.603 161.658 154.784 163.089 154.784 164.896C154.784 166.493 155.224 167.788 156.119 168.782C157.013 169.776 158.105 170.559 159.409 171.147C160.713 171.719 162.503 172.352 164.777 173.06C167.416 173.843 169.554 174.611 171.177 175.364C172.799 176.117 174.179 177.217 175.317 178.663C176.454 180.108 177.015 182.006 177.015 184.371C177.015 186.45 176.424 188.272 175.256 189.869C174.088 191.465 172.435 192.685 170.312 193.559C168.189 194.432 165.748 194.869 162.988 194.869C160.274 194.869 157.62 194.327 155.027 193.257C152.934 192.399 151.084 191.299 149.476 189.974C148.809 189.432 148.642 188.483 149.067 187.73C149.598 186.781 150.856 186.525 151.721 187.188C153.086 188.257 154.587 189.13 156.24 189.808C158.545 190.772 160.819 191.254 163.049 191.254C166.021 191.254 168.387 190.652 170.146 189.447C171.89 188.242 172.769 186.63 172.769 184.597C172.769 182.97 172.329 181.645 171.435 180.606C170.54 179.566 169.448 178.768 168.144 178.226C166.84 177.669 165.02 177.021 162.67 176.283C160.031 175.469 157.908 174.701 156.3 173.978C154.693 173.255 153.343 172.186 152.221 170.755C151.099 169.324 150.553 167.472 150.553 165.182C150.553 163.224 151.114 161.507 152.221 160.016C153.343 158.54 154.905 157.395 156.907 156.597C158.924 155.799 161.244 155.407 163.883 155.407C166.006 155.407 168.144 155.724 170.282 156.356C171.768 156.793 173.133 157.32 174.377 157.953C175.271 158.405 175.635 159.474 175.18 160.363L175.12 160.468C174.665 161.357 173.573 161.688 172.678 161.236C171.526 160.649 170.312 160.182 169.023 159.82Z" fill="#5E6077"/>
<path d="M83.2228 211.271L70.9699 239H67.0271L54.7439 211.271H59.0506L69.1047 234.045L79.2346 211.271H83.2228Z" fill="#7078DB"/>
<path d="M113.446 239L113.4 218.802L103.316 235.641H101.481L91.3964 218.923V239H87.575V211.271H90.8353L102.482 230.761L113.961 211.271H117.237L117.282 239H113.446Z" fill="#7078DB"/>
</svg>
