<svg width="209" height="257" viewBox="0 0 209 257" fill="none" xmlns="http://www.w3.org/2000/svg">
<path fill-rule="evenodd" clip-rule="evenodd" d="M104.279 120.263C88.9437 102.064 82.7896 103.482 60.5186 94.8523L67.6549 106.139L104.279 163.514C107.145 146.913 114.001 133.069 104.279 120.263Z" fill="#A3A4F5"/>
<path fill-rule="evenodd" clip-rule="evenodd" d="M60.5186 94.8723L104.279 120.263C129.316 115.209 128.514 111.553 148.039 94.8523H73.8892H60.5186V94.8723Z" fill="#15F9FF"/>
<path fill-rule="evenodd" clip-rule="evenodd" d="M87.2598 70.9794H163.294C158.303 51.2618 161.69 48.6847 145.654 36.7783C118.912 40.0545 108.749 54.2784 87.2598 70.9794Z" fill="#15F9FF"/>
<path fill-rule="evenodd" clip-rule="evenodd" d="M52.9413 26.5498C78.8808 21.4157 78.8808 16.9607 99.2073 0H0C22.9927 16.1616 25.318 21.4157 52.9413 26.5498Z" fill="#F385FF"/>
<path fill-rule="evenodd" clip-rule="evenodd" d="M148.06 94.8723L104.279 120.263V163.534L148.06 94.8723Z" fill="#F385FF"/>
<path fill-rule="evenodd" clip-rule="evenodd" d="M59.7167 70.9794L99.2072 0L52.9412 26.5498C43.9406 50.3628 49.1124 57.8143 52.9412 83.0457L59.7167 70.9794Z" fill="#15F9FF"/>
<path fill-rule="evenodd" clip-rule="evenodd" d="M52.9413 26.5498L0 0L45.1835 70.9794L52.9413 83.0457V26.5498Z" fill="#A3A4F5"/>
<path fill-rule="evenodd" clip-rule="evenodd" d="M126.75 0L87.2598 70.9794L145.634 36.7782C141.624 13.6845 142.346 17.5001 126.75 0Z" fill="#A3A4F5"/>
<path fill-rule="evenodd" clip-rule="evenodd" d="M145.653 36.7782C177.025 28.148 182.818 19.6377 208.477 0H126.75L145.653 36.7782Z" fill="#F385FF"/>
<path fill-rule="evenodd" clip-rule="evenodd" d="M145.654 36.7782L163.295 70.9794L208.478 0L145.654 36.7782Z" fill="#A3A4F5"/>
<path d="M62.9128 198.935C65.1367 200.2 66.9049 201.897 68.2066 204.048C69.5084 206.2 70.1593 208.556 70.1593 211.14C70.1593 213.713 69.5084 216.092 68.2066 218.265C66.9049 220.438 65.1367 222.167 62.9128 223.443C60.689 224.719 58.2482 225.356 55.5796 225.356C52.911 225.356 50.4703 224.719 48.2464 223.443C46.0226 222.167 44.2544 220.448 42.9526 218.265C41.6509 216.092 41 213.713 41 211.14C41 208.567 41.6509 206.2 42.9526 204.048C44.2544 201.897 46.0226 200.189 48.2464 198.935C50.4703 197.67 52.911 197.043 55.5796 197.043C58.2482 197.043 60.689 197.67 62.9128 198.935ZM49.7109 201.065C47.8993 202.102 46.4565 203.508 45.3934 205.281C44.3303 207.065 43.7988 209.011 43.7988 211.129C43.7988 213.248 44.3303 215.216 45.3934 217.021C46.4565 218.827 47.8993 220.254 49.7109 221.302C51.5225 222.351 53.4968 222.87 55.623 222.87C57.7275 222.87 59.6802 222.351 61.4809 221.302C63.2817 220.254 64.7136 218.827 65.7767 217.021C66.8398 215.216 67.3714 213.248 67.3714 211.129C67.3714 208.535 66.5795 206.2 64.9848 204.113C64.2146 203.097 63.2708 202.221 62.2077 201.508C60.2117 200.167 58.0096 199.497 55.623 199.497C53.4968 199.508 51.5225 200.027 49.7109 201.065Z" fill="#454545"/>
<path d="M99.708 224.535L94.0562 216.038C93.1992 216.092 92.5484 216.113 92.1036 216.113H84.4341V223.811C84.4341 224.524 83.8483 225.108 83.1323 225.108H82.9805C82.2645 225.108 81.6787 224.524 81.6787 223.811V197.27H92.1036C95.5966 197.27 98.2869 198.07 100.196 199.681C102.105 201.292 103.049 203.562 103.049 206.514C103.049 208.827 102.485 210.751 101.368 212.286C100.25 213.822 98.6557 214.903 96.5729 215.508L101.856 223.065C102.463 223.93 101.845 225.108 100.782 225.108C100.359 225.108 99.9467 224.892 99.708 224.535ZM92.1036 213.649C94.7722 213.649 96.8224 213.043 98.2544 211.832C99.6971 210.622 100.413 208.881 100.413 206.6C100.413 204.373 99.6971 202.676 98.2544 201.508C96.8116 200.341 94.7613 199.757 92.1036 199.757H84.4341V213.649H92.1036Z" fill="#454545"/>
<path d="M134.281 199.086C135.865 200.319 136.656 202.027 136.656 204.2C136.656 205.843 136.201 207.227 135.279 208.34C134.357 209.454 133.077 210.189 131.428 210.535C133.478 210.805 135.073 211.562 136.223 212.805C137.372 214.049 137.936 215.638 137.936 217.54C137.936 219.93 137.047 221.789 135.257 223.119C133.467 224.449 130.994 225.108 127.826 225.108H116.002V197.238H127.707C130.506 197.238 132.697 197.854 134.281 199.086ZM132.176 208.254C133.272 207.389 133.814 206.168 133.814 204.568C133.814 203.032 133.272 201.832 132.176 200.978C131.081 200.124 129.551 199.713 127.577 199.746H118.746V209.54H127.577C129.551 209.54 131.091 209.108 132.176 208.254ZM133.163 221.227C134.487 220.286 135.138 218.968 135.138 217.27C135.138 215.595 134.476 214.297 133.142 213.368C131.807 212.438 129.963 211.973 127.588 211.973H118.757V222.643H127.588C129.985 222.643 131.84 222.178 133.163 221.227Z" fill="#454545"/>
<path d="M161.911 200.168C160.555 199.778 159.275 199.595 158.071 199.595C156.151 199.595 154.611 199.973 153.461 200.73C152.311 201.486 151.725 202.514 151.725 203.811C151.725 204.957 152.04 205.886 152.68 206.6C153.32 207.314 154.101 207.876 155.034 208.297C155.967 208.708 157.247 209.162 158.874 209.67C160.761 210.232 162.291 210.784 163.452 211.324C164.612 211.865 165.6 212.654 166.413 213.692C167.227 214.73 167.628 216.092 167.628 217.789C167.628 219.281 167.205 220.589 166.37 221.735C165.535 222.881 164.352 223.757 162.833 224.384C161.315 225.011 159.568 225.324 157.594 225.324C155.652 225.324 153.754 224.935 151.899 224.168C150.402 223.551 149.078 222.762 147.928 221.811C147.451 221.422 147.332 220.741 147.635 220.2C148.015 219.519 148.916 219.335 149.534 219.811C150.51 220.578 151.584 221.205 152.767 221.692C154.415 222.384 156.043 222.73 157.637 222.73C159.763 222.73 161.456 222.297 162.714 221.432C163.962 220.568 164.591 219.411 164.591 217.951C164.591 216.784 164.276 215.832 163.636 215.086C162.996 214.341 162.215 213.768 161.282 213.378C160.349 212.978 159.047 212.514 157.366 211.984C155.479 211.4 153.96 210.849 152.81 210.33C151.66 209.811 150.695 209.043 149.892 208.016C149.089 206.989 148.699 205.659 148.699 204.016C148.699 202.611 149.1 201.378 149.892 200.308C150.695 199.249 151.812 198.427 153.244 197.854C154.687 197.281 156.346 197 158.234 197C159.753 197 161.282 197.227 162.812 197.681C163.875 197.995 164.851 198.373 165.741 198.827C166.381 199.151 166.641 199.919 166.316 200.557L166.272 200.632C165.947 201.27 165.166 201.508 164.526 201.184C163.701 200.762 162.833 200.427 161.911 200.168Z" fill="#454545"/>
<path d="M100.534 237.097L91.7684 257H88.948L80.1611 237.097H83.2419L90.4341 253.443L97.6806 237.097H100.534Z" fill="#575CC1"/>
<path d="M122.153 257L122.121 242.503L114.907 254.589H113.594L106.38 242.589V257H103.646V237.097H105.979L114.31 251.086L122.522 237.097H124.865L124.898 257H122.153Z" fill="#575CC1"/>
</svg>
