<svg width="665" height="122" viewBox="0 0 665 122" fill="none" xmlns="http://www.w3.org/2000/svg">
<path d="M371.5 22.8H381.1V97H371.9V88.6C367.6 94.6 360.8 97.6 353 97.6C337.5 97.6 326.2 86.7 326.2 70.5C326.2 54.3 337.5 43.5 353 43.5C360.5 43.5 367.1 46.3 371.5 52V22.8ZM353.8 89.2C363.9 89.2 371.6 81.8 371.6 70.5C371.6 59.2 363.9 51.9 353.8 51.9C343.6 51.9 335.9 59.2 335.9 70.5C335.9 81.8 343.6 89.2 353.8 89.2ZM400.514 97V27H410.514V88.3H448.414V97H400.514ZM459.739 97V27H469.739V97H459.739ZM565.046 97H555.446L555.346 46L530.046 88.5H525.446L500.146 46.3V97H490.546V27H498.746L527.946 76.2L556.746 27H564.946L565.046 97ZM585.904 97V27H595.904V97H585.904ZM630.611 97V35.7H606.611V27H664.511V35.7H640.511V97H630.611Z" fill="#3F4971"/>
<path d="M42.1 97.8C63.4 97.8 79.2 82.6 79.2 62C79.2 41.4 63.4 26.2 42.1 26.2C20.6 26.2 4.8 41.5 4.8 62C4.8 82.5 20.6 97.8 42.1 97.8ZM42.1 88.9C26.4 88.9 14.8 77.5 14.8 62C14.8 46.5 26.4 35.1 42.1 35.1C57.6 35.1 69.2 46.5 69.2 62C69.2 77.5 57.6 88.9 42.1 88.9ZM152.034 97L135.434 73.5C145.234 70 150.834 62.2 150.834 51.4C150.834 36.2 139.834 27 121.634 27H94.3344V97H104.334V75.7H121.634C123.134 75.7 124.634 75.6 126.034 75.5L141.134 97H152.034ZM121.334 67.2H104.334V35.7H121.334C134.134 35.7 140.834 41.4 140.834 51.4C140.834 61.4 134.134 67.2 121.334 67.2ZM213.941 60.7C219.441 58 223.341 52.7 223.341 45.1C223.341 33.8 214.341 27 198.241 27H166.841V97H200.241C217.941 97 227.041 90.1 227.041 78.1C227.041 68.8 221.841 62.9 213.941 60.7ZM197.341 35.1C207.541 35.1 213.341 38.9 213.341 46.3C213.341 53.7 207.541 57.5 197.341 57.5H176.841V35.1H197.341ZM199.841 88.9H176.841V65.6H199.841C210.941 65.6 216.941 69.2 216.941 77.3C216.941 85.4 210.941 88.9 199.841 88.9ZM262.774 97.8C281.274 97.8 289.874 88.6 289.874 77.9C289.874 52.2 247.474 62.9 247.474 45.8C247.474 39.7 252.574 34.7 264.474 34.7C270.674 34.7 277.574 36.5 283.674 40.4L286.974 32.4C281.174 28.4 272.674 26.2 264.474 26.2C246.074 26.2 237.674 35.4 237.674 46.2C237.674 72.2 280.074 61.4 280.074 78.5C280.074 84.6 274.874 89.3 262.774 89.3C253.774 89.3 244.874 85.9 239.674 81.2L235.974 89C241.574 94.2 252.074 97.8 262.774 97.8Z" fill="#3F4971"/>
</svg>
