<svg width="142" height="41" viewBox="0 0 142 41" fill="none" xmlns="http://www.w3.org/2000/svg">
<path d="M55.5149 15.6682C56.2775 16.1149 56.8839 16.7144 57.3304 17.4742C57.7768 18.2341 58 19.0664 58 19.979C58 20.8877 57.7768 21.7278 57.3304 22.4952C56.8839 23.2627 56.2775 23.8736 55.5149 24.3242C54.7522 24.7747 53.9152 25 53 25C52.0848 25 51.2478 24.7747 50.4851 24.3242C49.7225 23.8736 49.1161 23.2665 48.6696 22.4952C48.2232 21.7278 48 20.8877 48 19.979C48 19.0703 48.2232 18.2341 48.6696 17.4742C49.1161 16.7144 49.7225 16.1111 50.4851 15.6682C51.2478 15.2215 52.0848 15 53 15C53.9152 15 54.7522 15.2215 55.5149 15.6682ZM50.9874 16.4204C50.3661 16.7869 49.8713 17.2833 49.5067 17.9095C49.1421 18.5395 48.9598 19.2268 48.9598 19.9752C48.9598 20.7236 49.1421 21.4185 49.5067 22.0561C49.8713 22.6938 50.3661 23.1978 50.9874 23.5682C51.6086 23.9385 52.2857 24.1218 53.0149 24.1218C53.7366 24.1218 54.4063 23.9385 55.0238 23.5682C55.6414 23.1978 56.1324 22.6938 56.497 22.0561C56.8616 21.4185 57.0439 20.7236 57.0439 19.9752C57.0439 19.0588 56.7723 18.2341 56.2254 17.4971C55.9613 17.1382 55.6376 16.8289 55.2731 16.5769C54.5885 16.1035 53.8333 15.8667 53.0149 15.8667C52.2857 15.8706 51.6086 16.0538 50.9874 16.4204Z" fill="#3F4971"/>
<path d="M67.9056 24.7942L66.0543 21.7418C65.7736 21.7612 65.5604 21.7689 65.4147 21.7689H62.9025V24.534C62.9025 24.7903 62.7107 25 62.4761 25H62.4264C62.1919 25 62 24.7903 62 24.534V15H65.4147C66.5589 15 67.4401 15.2874 68.0655 15.866C68.6909 16.4447 69 17.2602 69 18.3204C69 19.1515 68.8152 19.8427 68.4492 20.3942C68.0832 20.9456 67.5609 21.334 66.8787 21.5515L68.6091 24.266C68.8081 24.5767 68.6056 25 68.2574 25C68.1188 25 67.9838 24.9223 67.9056 24.7942ZM65.4147 20.8835C66.2888 20.8835 66.9604 20.666 67.4294 20.2311C67.902 19.7961 68.1365 19.1709 68.1365 18.3515C68.1365 17.5515 67.902 16.9418 67.4294 16.5223C66.9569 16.1029 66.2853 15.8932 65.4147 15.8932H62.9025V20.8835H65.4147Z" fill="#3F4971"/>
<path d="M79.8333 15.6633C80.3388 16.1055 80.5915 16.7184 80.5915 17.4981C80.5915 18.0877 80.4461 18.5842 80.1518 18.9837C79.8576 19.3832 79.4491 19.647 78.9228 19.7711C79.5772 19.8681 80.0861 20.1396 80.453 20.5857C80.82 21.0318 81 21.602 81 22.2847C81 23.142 80.7161 23.8092 80.1449 24.2863C79.5737 24.7634 78.7844 25 77.7735 25H74V15H77.7354C78.6286 15 79.3279 15.2211 79.8333 15.6633ZM79.1617 18.9488C79.5114 18.6385 79.6845 18.2002 79.6845 17.6261C79.6845 17.0753 79.5114 16.6447 79.1617 16.3382C78.8121 16.0318 78.3239 15.8844 77.6939 15.896H74.8759V19.4104H77.6939C78.3239 19.4143 78.8155 19.2591 79.1617 18.9488ZM79.4768 23.6075C79.8991 23.27 80.1068 22.7967 80.1068 22.1877C80.1068 21.5865 79.8956 21.121 79.4698 20.7874C79.044 20.4538 78.4555 20.287 77.6973 20.287H74.8793V24.1156H77.6973C78.4624 24.1156 79.0544 23.9449 79.4768 23.6075Z" fill="#3F4971"/>
<path d="M89.0149 16.1183C88.5441 15.9809 88.0996 15.916 87.6815 15.916C87.0148 15.916 86.4799 16.0496 86.0806 16.3168C85.6813 16.584 85.4779 16.9466 85.4779 17.4046C85.4779 17.8092 85.5872 18.1374 85.8094 18.3893C86.0317 18.6412 86.3029 18.8397 86.6268 18.9885C86.9507 19.1336 87.3952 19.2939 87.9602 19.4733C88.6156 19.6718 89.1468 19.8664 89.5498 20.0573C89.9528 20.2481 90.2956 20.5267 90.5781 20.8931C90.8606 21.2595 91 21.7405 91 22.3397C91 22.8664 90.8531 23.3282 90.5631 23.7328C90.273 24.1374 89.8624 24.4466 89.3351 24.6679C88.8078 24.8893 88.2013 25 87.5158 25C86.8415 25 86.1823 24.8626 85.5382 24.5916C85.0184 24.374 84.5589 24.0954 84.1596 23.7595C83.9938 23.6221 83.9524 23.3817 84.0579 23.1908C84.1897 22.9504 84.5024 22.8855 84.7171 23.0534C85.0561 23.3244 85.429 23.5458 85.8396 23.7176C86.4121 23.9618 86.9771 24.084 87.5308 24.084C88.2691 24.084 88.8567 23.9313 89.2937 23.626C89.7268 23.3206 89.9453 22.9122 89.9453 22.3969C89.9453 21.9847 89.8361 21.6489 89.6138 21.3855C89.3916 21.1221 89.1204 20.9198 88.7965 20.7824C88.4725 20.6412 88.0205 20.4771 87.4367 20.2901C86.7812 20.084 86.2539 19.8893 85.8546 19.7061C85.4553 19.5229 85.1201 19.2519 84.8414 18.8893C84.5626 18.5267 84.427 18.0573 84.427 17.4771C84.427 16.9809 84.5664 16.5458 84.8414 16.1679C85.1201 15.7939 85.5081 15.5038 86.0053 15.3015C86.5063 15.0992 87.0826 15 87.738 15C88.2653 15 88.7965 15.0802 89.3276 15.2405C89.6967 15.3511 90.0357 15.4847 90.3446 15.645C90.5668 15.7595 90.6572 16.0305 90.5442 16.2557L90.5292 16.2824C90.4162 16.5076 90.1449 16.5916 89.9227 16.4771C89.6364 16.3282 89.3351 16.2099 89.0149 16.1183Z" fill="#3F4971"/>
<path d="M100.748 15V18.9037C100.19 18.1417 99.3523 17.7674 98.4006 17.7674C96.4338 17.7674 95 19.2112 95 21.377C95 23.5428 96.4338 25 98.4006 25C99.3904 25 100.253 24.5989 100.799 23.7968V24.9198H101.966V15H100.748ZM98.5021 23.877C97.2079 23.877 96.2308 22.8877 96.2308 21.377C96.2308 19.8663 97.2079 18.8904 98.5021 18.8904C99.7837 18.8904 100.761 19.8663 100.761 21.377C100.761 22.8877 99.7837 23.877 98.5021 23.877Z" fill="#3F4971"/>
<path d="M106.193 24.9198H107.45V16.7246H110.495V15.5615H103.148V16.7246H106.193V24.9198Z" fill="#3F4971"/>
<path d="M123.103 15.5615L120.654 23.2086L118.205 15.5615H117.037L114.538 23.1685L112.139 15.5615H110.832L113.802 24.9198H115.159L117.583 17.4465L120.007 24.9198H121.339L124.308 15.5615H123.103Z" fill="#3F4971"/>
<path d="M132.192 24.9198H133.525L129.49 15.5615H128.234L124.211 24.9198H125.518L126.495 22.5802H131.215L132.192 24.9198ZM126.939 21.5107L128.855 16.9251L130.771 21.5107H126.939Z" fill="#3F4971"/>
<path d="M138.295 15.5615H134.831V24.9198H136.1V22.0856H138.295C140.604 22.0856 142 20.8556 142 18.8235C142 16.7914 140.604 15.5615 138.295 15.5615ZM138.257 20.9225H136.1V16.7246H138.257C139.881 16.7246 140.731 17.4866 140.731 18.8235C140.731 20.1604 139.881 20.9225 138.257 20.9225Z" fill="#3F4971"/>
<path d="M31.5902 9.40508V34.2824C31.5902 35.0223 30.9885 35.623 30.2459 35.623C29.5033 35.623 28.9017 35.0223 28.9017 34.2824V9.40508C28.9017 8.66516 29.5033 8.06557 30.2459 8.06557C30.6172 8.06557 30.9533 8.21497 31.1967 8.45761C31.4392 8.70024 31.5902 9.03512 31.5902 9.40508Z" fill="#27CFD3"/>
<path d="M28.9017 12.2664H31.5902V26.2131H28.9017V12.2664Z" fill="#7375E6"/>
<path d="M28.9017 15.7951H31.5902V23.3566H28.9017V15.7951Z" fill="#7375E6"/>
<path d="M33.2798 23.5246H27.212C26.6603 23.5246 26.2131 23.0736 26.2131 22.5171V13.2738C26.2131 12.7174 26.6603 12.2664 27.212 12.2664H33.2798C33.8315 12.2664 34.2787 12.7174 34.2787 13.2738V22.5171C34.2787 23.0736 33.8315 23.5246 33.2798 23.5246Z" fill="#15F9FF"/>
<path d="M33.2798 23.5246H27.212C26.6603 23.5246 26.2131 23.0734 26.2131 22.5168V20.332H34.2787V22.5168C34.2787 23.0734 33.8315 23.5246 33.2798 23.5246Z" fill="#15F9FF"/>
<path d="M10.7541 10.4129V39.6619C10.7541 40.4011 10.1527 41 9.41038 41C8.66806 41 8.06561 40.4011 8.06561 39.6619V10.4129C8.06561 9.67373 8.66806 9.07377 9.41038 9.07377C9.78155 9.07377 10.1174 9.22401 10.3608 9.46639C10.6043 9.70877 10.7541 10.0433 10.7541 10.4129Z" fill="#27CFD3"/>
<path d="M8.06561 23.6926H10.7541V31.2541H8.06561V23.6926Z" fill="#7375E6"/>
<path d="M21.1721 1.3399V38.6519C21.1721 39.392 20.5697 39.9918 19.8273 39.9918C19.085 39.9918 18.4836 39.392 18.4836 38.6519V1.3399C18.4836 0.599767 19.085 0 19.8273 0C20.1985 0 20.5345 0.150446 20.7778 0.392148C21.0212 0.634858 21.1721 0.969832 21.1721 1.3399Z" fill="#27CFD3"/>
<path d="M18.4836 8.56967H21.1721V28.2295H18.4836V8.56967Z" fill="#7375E6"/>
<path d="M22.8617 25.877H16.7939C16.2422 25.877 15.795 25.4278 15.795 24.8736V7.22064C15.795 6.66644 16.2422 6.21721 16.7939 6.21721H22.8617C23.4134 6.21721 23.8606 6.66644 23.8606 7.22064V24.8736C23.8606 25.4278 23.4134 25.877 22.8617 25.877Z" fill="#15F9FF"/>
<path d="M22.8617 25.8771H16.7939C16.2422 25.8771 15.795 25.4259 15.795 24.8693V22.6844H23.8606V24.8693C23.8606 25.4259 23.4134 25.8771 22.8617 25.8771Z" fill="#15F9FF"/>
<path d="M12.4437 28.7336H6.37598C5.82427 28.7336 5.37708 28.3842 5.37708 27.9532V14.2231C5.37708 13.792 5.82427 13.4426 6.37598 13.4426H12.4437C12.9955 13.4426 13.4426 13.792 13.4426 14.2231V27.9532C13.4426 28.3842 12.9955 28.7336 12.4437 28.7336Z" fill="#15F9FF"/>
<path d="M12.4437 28.7336H6.37598C5.82427 28.7336 5.37708 28.3774 5.37708 27.938V26.2131H13.4426V27.938C13.4426 28.3774 12.9955 28.7336 12.4437 28.7336Z" fill="#15F9FF"/>
<path fill-rule="evenodd" clip-rule="evenodd" d="M1.68934e-07 18.3996C7.56343e-08 17.3324 0.872449 16.4672 1.94867 16.4672L39.0513 16.4672C40.1276 16.4672 41 17.3324 41 18.3996C41 19.4668 40.1276 20.332 39.0513 20.332L1.94867 20.332C0.872449 20.332 2.62234e-07 19.4668 1.68934e-07 18.3996Z" fill="#F385FF"/>
</svg>
