<svg width="3447" height="3447" viewBox="0 0 3447 3447" fill="none" xmlns="http://www.w3.org/2000/svg">
<path d="M3447 1723.5C3447 2675.36 2675.36 3447 1723.5 3447C771.637 3447 0 2675.36 0 1723.5C0 771.637 771.637 0 1723.5 0C2675.36 0 3447 771.637 3447 1723.5Z" fill="white"/>
<path d="M2391 1056.49V2551.44C2391 2595.91 2355.19 2632 2311 2632C2266.81 2632 2231 2595.91 2231 2551.44V1056.49C2231 1012.03 2266.81 976 2311 976C2333.1 976 2353.1 984.977 2367.58 999.558C2382.02 1014.14 2391 1034.26 2391 1056.49Z" fill="#27CFD3"/>
<path d="M2232 1228H2392V2060H2232V1228Z" fill="#7375E6"/>
<path d="M2231 1443H2391V1895H2231V1443Z" fill="#7375E6"/>
<path d="M2492.93 1898H2128.07C2094.89 1898 2068 1871.16 2068 1838.04V1287.96C2068 1254.84 2094.89 1228 2128.07 1228H2492.93C2526.11 1228 2553 1254.84 2553 1287.96V1838.04C2553 1871.16 2526.11 1898 2492.93 1898Z" fill="#15F9FF"/>
<path d="M2492.93 1898H2128.07C2094.89 1898 2068 1871.01 2068 1837.71V1707H2553V1837.71C2553 1871.01 2526.11 1898 2492.93 1898Z" fill="#15F9FF"/>
<path d="M1137 1112.57V2872.49C1137 2916.96 1101.21 2953 1057.03 2953C1012.85 2953 977 2916.96 977 2872.49V1112.57C977 1068.1 1012.85 1032 1057.03 1032C1079.12 1032 1099.11 1041.04 1113.59 1055.62C1128.08 1070.21 1137 1090.34 1137 1112.57Z" fill="#27CFD3"/>
<path d="M977 1911H1137V2364H977V1911Z" fill="#7375E6"/>
<path d="M1764 570.511V2812.49C1764 2856.96 1728.15 2893 1683.97 2893C1639.79 2893 1604 2856.96 1604 2812.49V570.511C1604 526.038 1639.79 490 1683.97 490C1706.06 490 1726.05 499.04 1740.53 513.563C1755.02 528.147 1764 548.275 1764 570.511Z" fill="#27CFD3"/>
<path d="M1604 1008H1764V2183H1604V1008Z" fill="#7375E6"/>
<path d="M1866.06 2039H1501.94C1468.84 2039 1442 2012.13 1442 1978.98V923.023C1442 889.871 1468.84 863 1501.94 863H1866.06C1899.16 863 1926 889.871 1926 923.023V1978.98C1926 2012.13 1899.16 2039 1866.06 2039Z" fill="#15F9FF"/>
<path d="M1866.06 2039H1501.94C1468.84 2039 1442 2012.01 1442 1978.71V1848H1926V1978.71C1926 2012.01 1899.16 2039 1866.06 2039Z" fill="#15F9FF"/>
<path d="M1239.06 2215H874.942C841.835 2215 815 2193.96 815 2167.99V1341.01C815 1315.04 841.835 1294 874.942 1294H1239.06C1272.16 1294 1299 1315.04 1299 1341.01V2167.99C1299 2193.96 1272.16 2215 1239.06 2215Z" fill="#15F9FF"/>
<path d="M1239.06 2215H874.942C841.835 2215 815 2193.94 815 2167.97V2066H1299V2167.97C1299 2193.94 1272.16 2215 1239.06 2215Z" fill="#15F9FF"/>
<path fill-rule="evenodd" clip-rule="evenodd" d="M495 1593.5C495 1529.16 547.283 1477 611.778 1477L2835.22 1477C2899.72 1477 2952 1529.16 2952 1593.5C2952 1657.84 2899.72 1710 2835.22 1710L611.778 1710C547.283 1710 495 1657.84 495 1593.5Z" fill="#F385FF"/>
</svg>
