<svg width="135" height="19" viewBox="0 0 135 19" fill="none" xmlns="http://www.w3.org/2000/svg">
<mask id="mask0_4593_39691" style="mask-type:alpha" maskUnits="userSpaceOnUse" x="0" y="0" width="19" height="19">
<circle cx="9.5" cy="9.5" r="8.5" fill="white" stroke="white"/>
</mask>
<g mask="url(#mask0_4593_39691)">
<rect x="9.5" y="-3.22792" width="6" height="6" transform="rotate(45 9.5 -3.22792)" fill="white"/>
<rect x="13.7427" y="1.01472" width="6" height="6" transform="rotate(45 13.7427 1.01472)" fill="#E1F5FF"/>
<rect x="17.9853" y="5.25736" width="6" height="6" transform="rotate(45 17.9853 5.25736)" fill="#B2E1F8"/>
<rect x="13.7427" y="9.5" width="6" height="6" transform="rotate(45 13.7427 9.5)" fill="#E1F5FF"/>
<rect x="9.5" y="5.25736" width="6" height="6" transform="rotate(45 9.5 5.25736)" fill="#0088CC"/>
<rect x="5.25732" y="1.01472" width="6" height="6" transform="rotate(45 5.25732 1.01472)" fill="#E1F5FF"/>
<rect x="1.01471" y="5.25736" width="6" height="6" transform="rotate(45 1.01471 5.25736)" fill="#B2E1F8"/>
<rect x="5.25732" y="9.5" width="6" height="6" transform="rotate(45 5.25732 9.5)" fill="#E1F5FF"/>
<rect x="9.5" y="13.7426" width="6" height="6" transform="rotate(45 9.5 13.7426)" fill="white"/>
</g>
<path d="M34.7208 15.8184V6.27785H31V4.18157H41.033V6.27785H37.3121V15.8184H34.7208Z" fill="black"/>
<path d="M41.3974 9.99175C41.3974 8.78129 41.6244 7.7304 42.0784 6.83906C42.5435 5.93673 43.208 5.23796 44.0717 4.74278C44.9355 4.24759 45.9598 4 47.1447 4C48.3296 4 49.354 4.24759 50.2177 4.74278C51.0815 5.23796 51.7459 5.93673 52.211 6.83906C52.6872 7.7304 52.9253 8.77579 52.9253 9.97524C52.9253 11.1967 52.6872 12.2586 52.211 13.1609C51.7459 14.0523 51.0815 14.751 50.2177 15.2572C49.354 15.7524 48.3296 16 47.1447 16C45.9598 16 44.9355 15.7524 44.0717 15.2572C43.219 14.751 42.5601 14.0468 42.095 13.1444C41.6299 12.2421 41.3974 11.1912 41.3974 9.99175ZM44.1049 9.99175C44.1049 11.1912 44.3541 12.1321 44.8524 12.8143C45.3618 13.4856 46.1259 13.8212 47.1447 13.8212C48.1414 13.8212 48.8999 13.4856 49.4204 12.8143C49.9409 12.1321 50.2011 11.1912 50.2011 9.99175C50.2011 8.78129 49.9409 7.84594 49.4204 7.1857C48.911 6.51444 48.1525 6.17882 47.1447 6.17882C46.1259 6.17882 45.3618 6.51444 44.8524 7.1857C44.3541 7.84594 44.1049 8.78129 44.1049 9.99175Z" fill="black"/>
<path d="M54.9505 15.8184V4.18157H56.8774L63.2394 12.2201H62.7909V4.18157H65.1994V15.8184H63.2726L56.9272 7.77992H57.3591V15.8184H54.9505Z" fill="black"/>
<path d="M72.2755 15.8184V4.18157H74.5512L78.6209 13.26H78.0893L82.159 4.18157H84.4181V15.8184H82.0593V7.91197H82.7238L79.086 15.8184H77.591L73.9366 7.91197H74.6343V15.8184H72.2755Z" fill="black"/>
<path d="M86.8259 15.8184V4.18157H89.4172V15.8184H86.8259Z" fill="black"/>
<path d="M91.7897 15.8184V4.18157H93.7165L100.079 12.2201H99.63V4.18157H102.039V15.8184H100.112L93.7664 7.77992H94.1983V15.8184H91.7897Z" fill="black"/>
<path d="M107.118 15.8184V6.27785H103.397V4.18157H113.43V6.27785H109.709V15.8184H107.118Z" fill="black"/>
<path d="M114.841 15.8184V4.18157H122.98V6.17882H117.316V8.90234H122.581V10.9161H117.316V13.8212H122.98V15.8184H114.841Z" fill="black"/>
<path d="M124.784 15.8184V4.18157H130.1C131.418 4.18157 132.436 4.49519 133.156 5.12242C133.876 5.73865 134.236 6.60248 134.236 7.71389C134.236 8.44017 134.07 9.0674 133.738 9.5956C133.416 10.1128 132.951 10.5144 132.342 10.8006C131.744 11.0757 131.024 11.2132 130.183 11.2132L130.382 10.8501H131.063C131.539 10.8501 131.96 10.9766 132.326 11.2297C132.702 11.4828 133.012 11.8514 133.256 12.3356L135 15.8184H132.143L130.332 12.0715C130.199 11.7524 129.989 11.5433 129.701 11.4443C129.424 11.3343 129.103 11.2792 128.738 11.2792H127.376V15.8184H124.784ZM127.376 9.43054H129.651C130.327 9.43054 130.842 9.29298 131.196 9.01788C131.55 8.74278 131.728 8.33563 131.728 7.79642C131.728 7.25722 131.55 6.85557 131.196 6.59147C130.842 6.31637 130.327 6.17882 129.651 6.17882H127.376V9.43054Z" fill="black"/>
</svg>
