<?xml version="1.0" encoding="UTF-8" standalone="no"?>
<svg
   width="665"
   height="122"
   viewBox="0 0 665 122"
   fill="none"
   version="1.1"
   id="svg226"
   sodipodi:docname="dlimit.svg"
   inkscape:export-filename="../ton-vote.svg"
   inkscape:export-xdpi="96"
   inkscape:export-ydpi="96"
   inkscape:version="1.2.2 (b0a84865, 2022-12-01)"
   xmlns:inkscape="http://www.inkscape.org/namespaces/inkscape"
   xmlns:sodipodi="http://sodipodi.sourceforge.net/DTD/sodipodi-0.dtd"
   xmlns="http://www.w3.org/2000/svg"
   xmlns:svg="http://www.w3.org/2000/svg">
  <defs
     id="defs230" />
  <sodipodi:namedview
     id="namedview228"
     pagecolor="#ffffff"
     bordercolor="#000000"
     borderopacity="0.25"
     inkscape:showpageshadow="2"
     inkscape:pageopacity="0.0"
     inkscape:pagecheckerboard="0"
     inkscape:deskcolor="#d1d1d1"
     showgrid="false"
     inkscape:zoom="1.1349688"
     inkscape:cx="313.22447"
     inkscape:cy="25.991904"
     inkscape:window-width="1728"
     inkscape:window-height="1051"
     inkscape:window-x="0"
     inkscape:window-y="38"
     inkscape:window-maximized="1"
     inkscape:current-layer="svg226" />
  <g
     id="g1874"
     transform="translate(30.064077)">
    <g
       id="g878"
       transform="translate(1.6501241,3.3002481)">
      <g
         transform="matrix(0.48139403,-4.6096917e-5,2.2491611e-5,0.2348812,-53.711294,-0.87580916)"
         id="g234"
         style="clip-rule:evenodd;fill-rule:evenodd;stroke-linejoin:round;stroke-miterlimit:2">
        <path
   d="m 181.258,116.502 c -0.258,-0.594 -0.34,-1.424 -0.217,-2.177 0.123,-0.753 0.433,-1.314 0.813,-1.47 8.056,-3.303 40.093,-16.441 49.129,-20.146 0.419,-0.172 0.849,0.178 1.096,0.893 0.246,0.714 0.265,1.66 0.047,2.413 -4.465,15.398 -19.621,67.674 -23.187,79.973 -0.177,0.609 -0.484,1.008 -0.827,1.075 -0.344,0.067 -0.683,-0.206 -0.912,-0.734 -4.266,-9.839 -21.182,-48.849 -25.942,-59.827 z"
   style="fill:#0088cc"
   id="path232" />

    </g>
      <g
         transform="matrix(0.47876966,-4.5845675e-5,2.3520717e-5,0.24562814,-71.622688,10.443258)"
         id="g238"
         style="clip-rule:evenodd;fill-rule:evenodd;stroke-linejoin:round;stroke-miterlimit:2">
        <path
   d="m 212.297,74.934 c 0.118,-0.738 0.433,-1.292 0.821,-1.447 0.388,-0.154 0.789,0.115 1.046,0.704 4.766,10.921 21.436,49.116 25.714,58.918 0.23,0.527 0.314,1.239 0.224,1.909 -0.09,0.669 -0.341,1.211 -0.674,1.452 -6.419,4.647 -32.198,23.308 -39.729,28.76 -0.388,0.282 -0.825,0.108 -1.126,-0.448 -0.301,-0.556 -0.414,-1.398 -0.291,-2.17 2.532,-15.835 11.611,-72.64 14.015,-87.678 z"
   style="fill:#0088cc"
   id="path236" />

    </g>
      <g
         transform="matrix(0.49423996,-4.7327095e-5,2.3817209e-5,0.24872428,-83.266291,2.1204357)"
         id="g242"
         style="clip-rule:evenodd;fill-rule:evenodd;stroke-linejoin:round;stroke-miterlimit:2">
        <path
   d="m 198.133,153.649 c -0.181,-0.822 -0.078,-1.782 0.256,-2.386 2.783,-5.036 15.241,-27.579 20.88,-37.784 0.35,-0.632 0.868,-0.724 1.269,-0.226 0.4,0.499 0.585,1.467 0.451,2.368 -2.64,17.747 -9.424,63.348 -11.777,79.17 -0.126,0.843 -0.503,1.441 -0.945,1.496 -0.442,0.054 -0.854,-0.446 -1.031,-1.252 -2.392,-10.876 -7.771,-35.331 -9.103,-41.386 z"
   style="fill:#0088cc"
   id="path240" />

    </g>
      <g
         transform="matrix(0.51073345,-4.890667e-5,2.4447763e-5,0.25530919,-96.099196,10.577679)"
         id="g246"
         style="clip-rule:evenodd;fill-rule:evenodd;stroke-linejoin:round;stroke-miterlimit:2">
        <path
   d="m 214.01,147.618 c 0.039,-0.872 0.351,-1.598 0.777,-1.802 0.426,-0.205 0.869,0.157 1.102,0.898 2.422,7.719 6.862,21.872 8.229,26.229 0.243,0.776 0.198,1.78 -0.11,2.457 -1.73,3.802 -7.345,16.139 -10.407,22.866 -0.295,0.647 -0.763,0.846 -1.164,0.495 -0.4,-0.352 -0.644,-1.176 -0.605,-2.048 0.519,-11.705 1.658,-37.382 2.178,-49.095 z"
   style="fill:#0088cc"
   id="path244" />

    </g>
      <g
         transform="matrix(0.32134072,-3.0770852e-5,1.4685201e-5,0.15335854,-31.692802,34.406031)"
         id="g250"
         style="clip-rule:evenodd;fill-rule:evenodd;stroke-linejoin:round;stroke-miterlimit:2">
        <path
   d="m 238.385,87.829 c 0.84,-0.503 1.719,0.479 1.988,2.222 2.585,16.776 14.851,96.382 18.908,122.711 0.207,1.34 -0.003,2.809 -0.527,3.69 -0.524,0.882 -1.254,0.994 -1.834,0.282 -13.527,-16.61 -60.503,-74.294 -73.345,-90.063 -0.559,-0.687 -0.87,-2.007 -0.788,-3.355 0.081,-1.348 0.538,-2.465 1.161,-2.839 11.495,-6.894 46.716,-28.017 54.437,-32.648 z"
   style="fill:#0088cc"
   id="path248" />

    </g>
      <g
         transform="matrix(0.50374813,-4.8237558e-5,2.3111803e-5,0.2413578,-61.031441,-10.94236)"
         id="g254"
         style="clip-rule:evenodd;fill-rule:evenodd;stroke-linejoin:round;stroke-miterlimit:2">
        <path
   d="m 214.457,96.01 c 0.31,-0.484 0.724,-0.565 1.072,-0.211 2.537,2.585 12.946,13.187 17.973,18.308 0.399,0.405 0.629,1.295 0.572,2.213 -0.056,0.917 -0.386,1.657 -0.821,1.84 -8.18,3.444 -30.954,13.029 -40.684,17.125 -0.474,0.199 -0.951,-0.313 -1.148,-1.234 -0.198,-0.922 -0.063,-2.005 0.325,-2.609 6.582,-10.27 19.951,-31.126 22.711,-35.432 z"
   style="fill:#0088cc"
   id="path252" />

    </g>
      <g
         transform="matrix(0.51073345,-4.890667e-5,2.4447763e-5,0.25530919,-76.718878,-2.8157648)"
         id="g258"
         style="clip-rule:evenodd;fill-rule:evenodd;stroke-linejoin:round;stroke-miterlimit:2">
        <path
   d="m 202.152,105.796 c 0.252,-0.624 0.664,-0.893 1.052,-0.688 0.388,0.205 0.68,0.846 0.746,1.638 0.089,1.083 0.177,2.146 0.241,2.91 0.058,0.702 -0.071,1.414 -0.341,1.879 -1.36,2.343 -5.647,9.727 -8.988,15.481 -0.2,0.345 -0.498,0.327 -0.687,-0.04 -0.19,-0.368 -0.207,-0.964 -0.041,-1.374 2.643,-6.53 6.104,-15.08 8.018,-19.806 z"
   style="fill:#0088cc"
   id="path256" />

    </g>
      <g
         transform="matrix(0.51073345,-4.890667e-5,2.4447763e-5,0.25530919,-81.936918,-14.09524)"
         id="g262"
         style="clip-rule:evenodd;fill-rule:evenodd;stroke-linejoin:round;stroke-miterlimit:2">
        <path
   d="m 218.559,135.852 c 0.047,-0.736 0.29,-1.362 0.635,-1.637 1.73,-1.378 7.099,-5.653 10.591,-8.434 0.234,-0.186 0.501,-0.002 0.628,0.434 0.127,0.436 0.076,0.992 -0.12,1.308 -3,4.827 -7.825,12.592 -10.513,16.918 -0.324,0.521 -0.774,0.597 -1.137,0.19 -0.363,-0.406 -0.566,-1.212 -0.513,-2.038 0.156,-2.457 0.332,-5.21 0.429,-6.741 z"
   style="fill:#0088cc"
   id="path260" />

    </g>
      <g
         transform="matrix(0.51073345,-4.890667e-5,2.4447763e-5,0.25530919,-45.342178,-16.749011)"
         id="g266"
         style="clip-rule:evenodd;fill-rule:evenodd;stroke-linejoin:round;stroke-miterlimit:2">
        <path
   d="m 209.008,130.523 c 0.285,0.286 0.621,0.288 0.908,0.005 1.679,-1.657 7.64,-7.538 11.524,-11.371 0.416,-0.41 0.641,-1.329 0.548,-2.237 -0.092,-0.908 -0.48,-1.577 -0.942,-1.628 -6.313,-0.704 -18.808,-2.096 -25.734,-2.868 -0.482,-0.053 -0.918,0.578 -1.042,1.512 -0.124,0.935 0.097,1.915 0.529,2.348 4.878,4.888 12.312,12.338 14.209,14.239 z"
   style="fill:#0088cc"
   id="path264" />

    </g>
      <g
         transform="matrix(0.48101912,-4.6060988e-5,2.3423995e-5,0.24461822,-19.91939,-3.1657133)"
         id="g270"
         style="clip-rule:evenodd;fill-rule:evenodd;stroke-linejoin:round;stroke-miterlimit:2">
        <path
   d="m 180.313,103.692 c -0.293,-0.773 -0.284,-1.836 0.02,-2.591 0.304,-0.756 0.828,-1.015 1.278,-0.632 10.712,9.109 41.392,35.2 48.696,41.411 0.341,0.29 0.583,0.904 0.64,1.626 0.057,0.722 -0.078,1.451 -0.358,1.932 -4.076,6.997 -16.598,28.492 -20.038,34.397 -0.227,0.39 -0.527,0.576 -0.827,0.513 -0.3,-0.064 -0.573,-0.371 -0.754,-0.847 -3.797,-10.046 -22.033,-58.286 -28.657,-75.809 z"
   style="fill:#0088cc"
   id="path268" />

    </g>
      <g
         transform="matrix(0.51073345,-4.890667e-5,2.2873969e-5,0.23887401,-18.309716,-15.10536)"
         id="g274"
         style="clip-rule:evenodd;fill-rule:evenodd;stroke-linejoin:round;stroke-miterlimit:2">
        <path
   d="m 165.176,138.216 c -0.383,-0.306 -0.643,-1.072 -0.661,-1.945 -0.018,-0.874 0.21,-1.686 0.579,-2.063 3.868,-3.953 11.766,-12.023 13.944,-14.248 0.347,-0.356 0.759,-0.261 1.064,0.243 3.165,5.244 20.669,34.235 29.643,49.1 0.399,0.66 0.512,1.844 0.266,2.785 -0.245,0.941 -0.775,1.358 -1.247,0.98 -11.65,-9.314 -36.075,-28.844 -43.588,-34.852 z"
   style="fill:#0088cc"
   id="path272" />

    </g>
      <g
         transform="matrix(0.51073345,-4.890667e-5,2.4447763e-5,0.25530919,2.9713487,-11.115342)"
         id="g278"
         style="clip-rule:evenodd;fill-rule:evenodd;stroke-linejoin:round;stroke-miterlimit:2">
        <path
   d="m 177.286,160.771 c -0.3,-0.808 -0.261,-1.932 0.092,-2.649 0.353,-0.716 0.915,-0.811 1.323,-0.222 1.715,2.476 3.336,4.817 3.976,5.741 0.186,0.269 0.321,0.655 0.384,1.096 0.298,2.101 1.224,8.623 1.9,13.383 0.068,0.473 -0.044,0.976 -0.265,1.193 -0.22,0.218 -0.487,0.089 -0.634,-0.306 -1.725,-4.643 -4.488,-12.079 -6.776,-18.236 z"
   style="fill:#0088cc"
   id="path276" />

    </g>
      <g
         transform="matrix(0.47861084,-4.5830574e-5,2.3188608e-5,0.24215995,-36.442203,1.8381587)"
         id="g282"
         style="clip-rule:evenodd;fill-rule:evenodd;stroke-linejoin:round;stroke-miterlimit:2">
        <path
   d="m 204.895,82.466 c 0.175,-0.68 0.519,-1.125 0.904,-1.171 0.385,-0.046 0.754,0.315 0.969,0.948 4.499,13.257 22.369,65.908 26.966,79.451 0.219,0.647 0.245,1.477 0.066,2.171 -0.178,0.694 -0.532,1.144 -0.925,1.176 -8.25,0.666 -40.337,3.257 -48.42,3.909 -0.386,0.032 -0.752,-0.344 -0.96,-0.987 -0.209,-0.642 -0.23,-1.455 -0.054,-2.136 3.62,-14.067 17.837,-69.308 21.454,-83.361 z"
   style="fill:#0088cc"
   id="path280" />

    </g>
      <g
         transform="matrix(0.47798599,-4.5770692e-5,2.3307929e-5,0.24340601,-29.966125,17.982726)"
         id="g286"
         style="clip-rule:evenodd;fill-rule:evenodd;stroke-linejoin:round;stroke-miterlimit:2">
        <path
   d="m 219.849,114.235 c 0.446,-0.027 0.854,0.482 1.032,1.284 0.178,0.802 0.089,1.736 -0.224,2.358 -7.39,14.68 -33.956,67.448 -40.295,80.04 -0.277,0.55 -0.684,0.764 -1.064,0.558 -0.38,-0.205 -0.674,-0.797 -0.768,-1.548 -1.792,-14.203 -8.201,-65.021 -9.72,-77.064 -0.079,-0.627 -0.009,-1.292 0.19,-1.807 0.199,-0.515 0.506,-0.826 0.835,-0.845 7.105,-0.423 40.237,-2.394 50.014,-2.976 z"
   style="fill:#0088cc"
   id="path284" />

    </g>
      <g
         transform="matrix(0.48570291,-4.650958e-5,2.3611867e-5,0.24658,-12.799143,23.003156)"
         id="g290"
         style="clip-rule:evenodd;fill-rule:evenodd;stroke-linejoin:round;stroke-miterlimit:2">
        <path
   d="m 205.168,131.057 c 0.345,-0.928 1.005,-1.139 1.482,-0.475 2.398,3.336 9.189,12.782 12.287,17.092 0.318,0.442 0.489,1.189 0.448,1.951 -0.042,0.763 -0.291,1.421 -0.649,1.719 -5.145,4.279 -20.122,16.735 -27.042,22.491 -0.445,0.37 -0.96,0.109 -1.259,-0.636 -0.299,-0.746 -0.308,-1.793 -0.023,-2.559 4.091,-10.974 12.418,-33.311 14.756,-39.583 z"
   style="fill:#0088cc"
   id="path288" />

    </g>
      <g
         transform="matrix(0.48485155,-4.6428349e-5,2.3447635e-5,0.24486504,-10.765717,39.828711)"
         id="g294"
         style="clip-rule:evenodd;fill-rule:evenodd;stroke-linejoin:round;stroke-miterlimit:2">
        <path
   d="m 215.958,100.545 c 0.395,-0.321 0.849,-0.149 1.155,0.439 0.307,0.588 0.409,1.48 0.259,2.272 -3.135,16.619 -13.914,73.765 -16.762,88.867 -0.138,0.731 -0.468,1.254 -0.858,1.362 -0.391,0.107 -0.78,-0.218 -1.014,-0.847 -4.136,-11.144 -17.95,-48.361 -21.455,-57.804 -0.196,-0.527 -0.258,-1.204 -0.169,-1.834 0.089,-0.63 0.32,-1.144 0.626,-1.392 5.891,-4.788 30.565,-24.843 38.218,-31.063 z"
   style="fill:#0088cc"
   id="path292" />

    </g>
      <g
         transform="matrix(0.51073345,-4.890667e-5,2.4447763e-5,0.25530919,-9.3893236,55.506515)"
         id="g298"
         style="clip-rule:evenodd;fill-rule:evenodd;stroke-linejoin:round;stroke-miterlimit:2">
        <path
   d="m 186.775,147.06 c 0.372,-0.591 0.899,-0.589 1.27,0.003 0.226,0.361 0.488,0.779 0.744,1.188 0.263,0.42 0.405,1.071 0.381,1.742 -0.025,0.671 -0.213,1.275 -0.503,1.614 -2.374,2.77 -7.589,8.856 -11.788,13.756 -0.231,0.27 -0.527,0.137 -0.678,-0.305 -0.151,-0.442 -0.106,-1.042 0.104,-1.374 3.921,-6.226 8.759,-13.908 10.47,-16.624 z"
   style="fill:#0088cc"
   id="path296" />

    </g>
      <g
         transform="matrix(0.4812951,-4.6087545e-5,2.387532e-5,0.24933117,2.1686243,40.968285)"
         id="g302"
         style="clip-rule:evenodd;fill-rule:evenodd;stroke-linejoin:round;stroke-miterlimit:2">
        <path
   d="m 198.514,99.664 c 0.158,-0.837 0.574,-1.39 1.035,-1.375 0.462,0.015 0.868,0.594 1.011,1.441 1.791,10.611 5.509,32.644 6.435,38.125 0.129,0.766 0.018,1.608 -0.285,2.163 -2.601,4.757 -14.767,27.003 -20.738,37.921 -0.364,0.666 -0.917,0.762 -1.337,0.231 -0.419,-0.531 -0.595,-1.549 -0.424,-2.459 3.402,-18.084 11.405,-60.634 14.303,-76.047 z"
   style="fill:#0088cc"
   id="path300" />

    </g>
      <g
         transform="matrix(0.48372161,-4.6320042e-5,2.31004e-5,0.24123882,-25.72312,52.904006)"
         id="g306"
         style="clip-rule:evenodd;fill-rule:evenodd;stroke-linejoin:round;stroke-miterlimit:2">
        <path
   d="m 201.202,100.759 c 0.199,-0.525 0.507,-0.838 0.835,-0.851 0.329,-0.014 0.642,0.275 0.852,0.783 3.471,8.423 16.396,39.785 20.279,49.205 0.237,0.577 0.309,1.359 0.189,2.068 -0.119,0.708 -0.413,1.242 -0.777,1.41 -7.499,3.47 -37.708,17.449 -47.248,21.864 -0.442,0.205 -0.9,-0.168 -1.146,-0.932 -0.246,-0.764 -0.227,-1.755 0.047,-2.478 5.67,-14.94 22.988,-60.578 26.969,-71.069 z"
   style="fill:#0088cc"
   id="path304" />

    </g>
      <g
         transform="matrix(0.46733226,-4.4750621e-5,2.1222849e-5,0.22163147,-20.087186,67.897598)"
         id="g310"
         style="clip-rule:evenodd;fill-rule:evenodd;stroke-linejoin:round;stroke-miterlimit:2">
        <path
   d="m 212.51,119.056 c 0.508,-0.214 1.02,0.34 1.233,1.336 0.214,0.997 0.073,2.172 -0.339,2.836 -6.387,10.272 -18.783,30.207 -21.498,34.575 -0.329,0.528 -0.769,0.63 -1.144,0.264 -2.617,-2.555 -13.004,-12.697 -18.273,-17.842 -0.437,-0.427 -0.695,-1.399 -0.638,-2.409 0.057,-1.01 0.415,-1.828 0.888,-2.027 8.353,-3.514 30.121,-12.673 39.771,-16.733 z"
   style="fill:#0088cc"
   id="path308" />

    </g>
      <g
         transform="matrix(0.51073345,-4.890667e-5,2.0691385e-5,0.21608122,-42.875316,73.584274)"
         id="g314"
         style="clip-rule:evenodd;fill-rule:evenodd;stroke-linejoin:round;stroke-miterlimit:2">
        <path
   d="m 190.566,122.019 c 0.251,-0.255 0.535,-0.261 0.788,-0.016 1.671,1.614 8.28,8.002 13.109,12.67 0.458,0.443 0.715,1.598 0.611,2.74 -0.105,1.142 -0.541,1.943 -1.035,1.899 -6.647,-0.592 -17.445,-1.554 -23.516,-2.095 -0.477,-0.042 -0.877,-0.859 -0.964,-1.966 -0.087,-1.108 0.162,-2.211 0.599,-2.656 3.77,-3.83 8.954,-9.098 10.408,-10.576 z"
   style="fill:#0088cc"
   id="path312" />

    </g>
      <g
         transform="matrix(0.48153984,-4.6110977e-5,2.2721349e-5,0.23728038,-41.450129,48.737022)"
         id="g318"
         style="clip-rule:evenodd;fill-rule:evenodd;stroke-linejoin:round;stroke-miterlimit:2">
        <path
   d="m 280.985,-57.408 c 0.398,-0.796 1.03,-0.846 1.457,-0.113 0.427,0.732 0.508,2.004 0.188,2.934 -19.33,56.086 -73.802,214.142 -80.982,234.974 -0.189,0.55 -0.493,0.894 -0.823,0.933 -0.33,0.039 -0.651,-0.231 -0.871,-0.733 -6.752,-15.409 -49.219,-112.326 -64.106,-146.301 -0.359,-0.818 -0.365,-2.047 -0.016,-2.881 0.35,-0.833 0.949,-1.016 1.404,-0.429 16.859,21.767 60.498,78.11 60.498,78.11 0,0 60.586,-121.166 83.251,-166.494 z"
   style="fill:#0055ae"
   id="path316" />

    </g>
      <g
         transform="matrix(0.46512444,-4.4538952e-5,2.2302879e-5,0.23291005,-57.660623,53.449189)"
         id="g322"
         style="clip-rule:evenodd;fill-rule:evenodd;stroke-linejoin:round;stroke-miterlimit:2">
        <path
   d="m 204.735,107.548 c 0.467,-0.623 1.092,-0.46 1.463,0.382 3.557,8.071 20.804,47.205 27.623,62.679 0.335,0.761 0.372,1.877 0.09,2.72 -0.282,0.842 -0.813,1.201 -1.293,0.873 -10.915,-7.456 -41.031,-28.028 -49.328,-33.695 -0.403,-0.275 -0.693,-0.983 -0.748,-1.826 -0.055,-0.843 0.134,-1.675 0.488,-2.148 4.965,-6.629 18.276,-24.405 21.705,-28.985 z"
   style="fill:#0088cc"
   id="path320" />

    </g>
      <g
         transform="matrix(0.46791285,-4.4806076e-5,2.2826636e-5,0.23837985,-74.078619,37.880734)"
         id="g326"
         style="clip-rule:evenodd;fill-rule:evenodd;stroke-linejoin:round;stroke-miterlimit:2">
        <path
   d="m 208.797,105.228 c -0.02,-0.94 0.269,-1.8 0.718,-2.133 0.449,-0.333 0.956,-0.064 1.258,0.668 5.219,12.635 18.53,44.86 21.853,52.905 0.196,0.474 0.281,1.087 0.236,1.691 -0.045,0.604 -0.216,1.144 -0.473,1.488 -3.566,4.784 -15.714,21.079 -20.171,27.057 -0.333,0.448 -0.765,0.505 -1.126,0.149 -0.362,-0.356 -0.597,-1.069 -0.613,-1.862 -0.297,-14.113 -1.31,-62.273 -1.682,-79.963 z"
   style="fill:#0088cc"
   id="path324" />

    </g>
      <g
         transform="matrix(0.51073345,-4.890667e-5,2.4447763e-5,0.25530919,-90.804353,55.650752)"
         id="g330"
         style="clip-rule:evenodd;fill-rule:evenodd;stroke-linejoin:round;stroke-miterlimit:2">
        <path
   d="m 226.403,128.368 c 0.423,-0.569 0.991,-0.425 1.33,0.335 1.355,3.041 4.772,10.711 7.464,16.753 0.176,0.393 0.172,0.989 -0.007,1.374 -0.18,0.385 -0.476,0.434 -0.685,0.112 -3.142,-4.857 -7.158,-11.064 -9.077,-14.03 -0.259,-0.401 -0.407,-1.027 -0.396,-1.682 0.011,-0.655 0.179,-1.26 0.451,-1.625 0.311,-0.419 0.639,-0.86 0.92,-1.237 z"
   style="fill:#0088cc"
   id="path328" />

    </g>
      <g
         transform="matrix(0.46352847,-4.4386384e-5,2.399938e-5,0.2506267,-84.479028,31.265891)"
         id="g334"
         style="clip-rule:evenodd;fill-rule:evenodd;stroke-linejoin:round;stroke-miterlimit:2">
        <path
   d="m 208.92,142.286 c -0.261,-0.817 -0.19,-1.858 0.173,-2.528 2.27,-4.19 10.203,-18.836 13.765,-25.41 0.312,-0.577 0.778,-0.762 1.19,-0.474 0.413,0.288 0.696,0.996 0.725,1.809 0.5,14.264 2.038,58.097 2.697,76.86 0.034,0.959 -0.293,1.836 -0.79,2.12 -0.496,0.283 -1.033,-0.1 -1.298,-0.927 -4.568,-14.277 -14.274,-44.612 -16.462,-51.45 z"
   style="fill:#0088cc"
   id="path332" />

    </g>
      <g
         transform="matrix(0.51073345,-4.890667e-5,2.4447763e-5,0.25530919,-93.046269,47.766418)"
         id="g338"
         style="clip-rule:evenodd;fill-rule:evenodd;stroke-linejoin:round;stroke-miterlimit:2">
        <path
   d="m 226.603,153.182 c -0.224,0.472 -0.548,0.702 -0.87,0.618 -0.323,-0.083 -0.607,-0.47 -0.763,-1.041 -1.17,-4.258 -3.645,-13.274 -5.648,-20.567 -0.127,-0.465 -0.055,-1.049 0.166,-1.341 0.222,-0.293 0.518,-0.197 0.682,0.22 2.628,6.69 5.856,14.909 7.12,18.128 0.313,0.796 0.287,1.93 -0.062,2.665 -0.193,0.408 -0.413,0.87 -0.625,1.318 z"
   style="fill:#0088cc"
   id="path336" />

    </g>
      <g
         transform="matrix(0.4911183,-4.7028208e-5,2.3369633e-5,0.24405039,-63.159844,60.343133)"
         id="g342"
         style="clip-rule:evenodd;fill-rule:evenodd;stroke-linejoin:round;stroke-miterlimit:2">
        <path
   d="m 229.406,153.202 c 0.396,0.271 0.676,0.987 0.715,1.826 0.038,0.839 -0.173,1.645 -0.538,2.056 -3.711,4.182 -11.302,12.736 -13.564,15.284 -0.39,0.44 -0.875,0.34 -1.212,-0.25 -2.897,-5.055 -16.252,-28.368 -23.106,-40.334 -0.383,-0.668 -0.477,-1.789 -0.225,-2.674 0.252,-0.884 0.78,-1.286 1.26,-0.958 9.588,6.55 29.893,20.421 36.67,25.05 z"
   style="fill:#0088cc"
   id="path340" />

    </g>
      <g
         transform="matrix(0.48335711,-4.6284894e-5,2.3507204e-5,0.24548703,-4.1240289,7.6252831)"
         id="g346"
         style="clip-rule:evenodd;fill-rule:evenodd;stroke-linejoin:round;stroke-miterlimit:2">
        <path
   d="m 203.016,147.065 c 0.26,-0.741 0.728,-1.078 1.169,-0.842 0.441,0.237 0.759,0.996 0.792,1.894 0.417,11.322 1.309,35.575 1.681,45.667 0.03,0.823 -0.185,1.606 -0.551,2.007 -0.366,0.401 -0.817,0.347 -1.157,-0.138 -3.177,-4.545 -9.499,-13.585 -11.786,-16.856 -0.473,-0.677 -0.586,-1.974 -0.253,-2.922 1.809,-5.158 7.275,-20.742 10.105,-28.81 z"
   style="fill:#0088cc"
   id="path344" />

    </g>
      <g
         transform="matrix(0.47559072,-4.554132e-5,2.4447763e-5,0.25530919,9.1765461,5.6357143)"
         id="g350"
         style="clip-rule:evenodd;fill-rule:evenodd;stroke-linejoin:round;stroke-miterlimit:2">
        <path
   d="m 199.907,170.752 c 0.205,0.676 0.186,1.51 -0.049,2.152 -1.401,3.825 -6.295,17.191 -8.954,24.453 -0.262,0.715 -0.737,1.044 -1.186,0.822 -0.449,-0.223 -0.774,-0.949 -0.81,-1.811 -0.565,-13.366 -1.965,-46.525 -2.649,-62.712 -0.04,-0.954 0.281,-1.831 0.772,-2.111 0.491,-0.279 1.02,0.115 1.273,0.948 3.594,11.85 10.064,33.184 11.603,38.259 z"
   style="fill:#0088cc"
   id="path348" />

    </g>
      <g
         transform="matrix(0.46221107,-4.4260373e-5,2.3988445e-5,0.25051267,16.35467,22.439563)"
         id="g354"
         style="clip-rule:evenodd;fill-rule:evenodd;stroke-linejoin:round;stroke-miterlimit:2">
        <path
   d="m 187.91,134.052 c 0.294,-0.771 0.832,-1.08 1.312,-0.753 0.479,0.327 0.779,1.209 0.73,2.147 -0.594,11.503 -1.708,33.033 -2.375,45.937 -0.052,0.989 -0.475,1.773 -1.011,1.871 -0.536,0.097 -1.035,-0.519 -1.19,-1.471 -1.614,-9.913 -3.914,-24.039 -4.531,-27.832 -0.099,-0.611 -0.041,-1.272 0.158,-1.794 1.051,-2.755 4.504,-11.807 6.907,-18.105 z"
   style="fill:#0088cc"
   id="path352" />

    </g>
      <g
         transform="matrix(0.51073345,-4.890667e-5,2.4447763e-5,0.25530919,-1.8603766,53.417687)"
         id="g358"
         style="clip-rule:evenodd;fill-rule:evenodd;stroke-linejoin:round;stroke-miterlimit:2">
        <path
   d="m 186.289,129.687 c 0.2,-0.335 0.494,-0.314 0.682,0.049 0.187,0.364 0.207,0.952 0.046,1.362 -2.344,5.972 -5.531,14.092 -7.602,19.368 -0.279,0.708 -0.756,0.968 -1.175,0.638 -0.419,-0.329 -0.681,-1.169 -0.643,-2.067 0.071,-1.715 0.138,-3.337 0.177,-4.282 0.023,-0.542 0.153,-1.044 0.361,-1.394 1.15,-1.928 5.112,-8.573 8.154,-13.674 z"
   style="fill:#0088cc"
   id="path356" />

    </g>
    </g>
    <text
       xml:space="preserve"
       style="fill:#000000"
       x="155.6617"
       y="101.20761"
       id="text988"><tspan
         sodipodi:role="line"
         id="tspan986"
         x="155.6617"
         y="101.20761"></tspan></text>
    <text
       xml:space="preserve"
       style="fill:#000000"
       x="246.41853"
       y="163.91232"
       id="text992"><tspan
         sodipodi:role="line"
         id="tspan990"
         x="246.41853"
         y="163.91232"></tspan></text>
    <g
       id="g1064"
       transform="matrix(6.0805406,0,0,6.0805406,-800.11517,-182.65657)">
      <path
         d="m 156.19966,45.486619 v -8.7456 h -3.3688 v -1.92156 h 9.0837 v 1.92156 h -3.3688 v 8.7456 z"
         fill="#000000"
         id="path996" />
      <path
         d="m 162.24446,40.145419 c 0,-1.1095 0.2055,-2.0729 0.6166,-2.8899 0.4211,-0.82717 1.0227,-1.4677 1.8047,-1.92162 0.7821,-0.45392 1.7095,-0.68088 2.7823,-0.68088 1.0728,0 2.0002,0.22696 2.7822,0.68088 0.7821,0.45392 1.3836,1.09445 1.8047,1.92162 0.4312,0.817 0.6467,1.7753 0.6467,2.8748 0,1.1197 -0.2155,2.0931 -0.6467,2.9202 -0.4211,0.8171 -1.0226,1.4576 -1.8047,1.9216 -0.782,0.4539 -1.7094,0.6809 -2.7822,0.6809 -1.0728,0 -2.0002,-0.227 -2.7823,-0.6809 -0.772,-0.464 -1.3686,-1.1096 -1.7896,-1.9367 -0.4211,-0.8271 -0.6317,-1.7905 -0.6317,-2.89 z m 2.4514,0 c 0,1.0995 0.2256,1.962 0.6768,2.5874 0.4612,0.6153 1.153,0.923 2.0754,0.923 0.9023,0 1.5891,-0.3077 2.0603,-0.923 0.4713,-0.6254 0.7069,-1.4879 0.7069,-2.5874 0,-1.1095 -0.2356,-1.967 -0.7069,-2.5722 -0.4612,-0.6153 -1.148,-0.92295 -2.0603,-0.92295 -0.9224,0 -1.6142,0.30765 -2.0754,0.92295 -0.4512,0.6052 -0.6768,1.4627 -0.6768,2.5722 z"
         fill="#000000"
         id="path998" />
      <path
         d="m 174.51526,45.486619 v -10.66716 h 1.7446 l 5.76,7.36866 h -0.4061 v -7.36866 h 2.1807 v 10.66716 h -1.7445 l -5.745,-7.3687 h 0.391 v 7.3687 z"
         fill="#000000"
         id="path1000" />
    </g>
    <g
       id="g1107"
       transform="matrix(5.8415683,0,0,5.8415683,-1978.986,-250.99765)">
      <g
         id="g1113"
         transform="matrix(1.040229,0,0,1.040229,-20.617053,-2.0298395)">
        <path
           d="m 428.23012,58.674785 v -8.7456 h -3.3688 v -1.92156 h 9.0837 v 1.92156 h -3.3688 v 8.7456 z"
           fill="#000000"
           id="path996-0" />
        <path
           d="m 414.29837,53.367974 c 0,-1.07397 0.19892,-2.006519 0.59685,-2.797356 0.40762,-0.800681 0.98995,-1.420699 1.74691,-1.860083 0.75706,-0.439384 1.65476,-0.659076 2.6932,-0.659076 1.03845,0 1.93615,0.219692 2.69311,0.659076 0.75705,0.439384 1.33929,1.059402 1.74691,1.860083 0.41739,0.790837 0.62599,1.718449 0.62599,2.78274 0,1.083843 -0.2086,2.026071 -0.62599,2.826685 -0.40762,0.790934 -0.98986,1.410923 -1.74691,1.860064 -0.75696,0.439365 -1.65466,0.659095 -2.69311,0.659095 -1.03844,0 -1.93614,-0.21973 -2.6932,-0.659095 -0.74728,-0.449141 -1.32477,-1.074067 -1.73229,-1.87468 -0.40761,-0.800614 -0.61147,-1.733163 -0.61147,-2.797453 z m 2.3729,0 c 0,1.06429 0.21837,1.89917 0.65512,2.504543 0.44644,0.595596 1.11608,0.893442 2.00894,0.893442 0.87341,0 1.53822,-0.297846 1.99433,-0.893442 0.4562,-0.605373 0.68426,-1.440253 0.68426,-2.504543 0,-1.07397 -0.22806,-1.90401 -0.68426,-2.48983 -0.44644,-0.595596 -1.11124,-0.893394 -1.99433,-0.893394 -0.89286,0 -1.5625,0.297798 -2.00894,0.893394 -0.43675,0.58582 -0.65512,1.41586 -0.65512,2.48983 z"
           fill="#000000"
           id="path998-3"
           style="stroke-width:0.967977" />
        <path
           d="m 407.3171,58.687612 -4.7674,-10.66716 h 2.5266 l 3.6244,8.53366 h -0.7369 l 3.6245,-8.53366 h 2.4363 l -4.7674,10.66716 z"
           fill="#000000"
           id="path1002" />
        <path
           d="m 435.40542,58.674785 v -10.66716 h 7.3692 v 1.83081 h -5.1284 v 2.49655 h 4.7674 v 1.846 h -4.7674 v 2.663 h 5.1284 v 1.8308 z"
           fill="#000000"
           id="path1004" />
      </g>
    </g>
  </g>
</svg>
