<svg width="137" height="27" viewBox="0 0 137 27" fill="none" xmlns="http://www.w3.org/2000/svg">
<path fill-rule="evenodd" clip-rule="evenodd" d="M12.5897 14.3089L11.1146 12.8883C11.0405 12.8126 10.9521 12.7525 10.8544 12.7117C10.7568 12.6708 10.6519 12.65 10.546 12.6504C10.4402 12.6508 10.3355 12.6725 10.2381 12.7141C10.1408 12.7558 10.0528 12.8165 9.97938 12.8928C9.90595 12.969 9.84857 13.0592 9.81065 13.1581C9.77273 13.2569 9.75503 13.3624 9.7586 13.4682C9.76218 13.574 9.78695 13.678 9.83146 13.774C9.87597 13.8701 9.9393 13.9562 10.0177 14.0274L12.051 15.9859C12.1999 16.1302 12.3996 16.21 12.6069 16.2082C12.8142 16.2064 13.0125 16.123 13.1589 15.9762L16.9936 12.1414C17.142 11.993 17.2253 11.7918 17.2253 11.582C17.2253 11.3722 17.142 11.1709 16.9936 11.0226C16.8452 10.8742 16.644 10.7909 16.4342 10.7909C16.2244 10.7909 16.0232 10.8742 15.8749 11.0226L12.5899 14.3089H12.5897ZM13.5543 0C14.0198 0.012861 14.4628 0.203447 14.7922 0.532632L16.4123 2.15405C16.4411 2.18678 16.479 2.21031 16.5211 2.2217C16.5632 2.23308 16.6077 2.23182 16.6491 2.21807L18.8639 1.62484C19.3319 1.49967 19.8304 1.5654 20.2499 1.80758C20.6695 2.04977 20.9757 2.4486 21.1014 2.91645L21.6946 5.13135C21.7034 5.17386 21.7245 5.21287 21.7552 5.24356C21.7859 5.27426 21.8249 5.29531 21.8674 5.30412L24.0831 5.89739C24.5506 6.02361 24.949 6.32997 25.1911 6.74937C25.4332 7.16876 25.4992 7.66701 25.3747 8.13498L24.7803 10.3499C24.767 10.3913 24.766 10.4357 24.7773 10.4777C24.7887 10.5197 24.8119 10.5575 24.8443 10.5867L26.4654 12.208C26.8077 12.5506 27 13.0152 27 13.4996C27 13.9839 26.8077 14.4485 26.4654 14.7911L24.8441 16.4125C24.8117 16.4417 24.7885 16.4795 24.7771 16.5215C24.7658 16.5635 24.7668 16.6079 24.78 16.6494L25.3745 18.8643C25.499 19.3323 25.433 19.8305 25.1909 20.2499C24.9488 20.6693 24.5504 20.9757 24.0829 21.1019L21.8672 21.6951C21.8247 21.704 21.7857 21.725 21.755 21.7557C21.7243 21.7864 21.7032 21.8254 21.6944 21.8679L21.1012 24.0828C20.9755 24.5507 20.6692 24.9495 20.2497 25.1917C19.8302 25.4338 19.3316 25.4996 18.8637 25.3744L16.6489 24.7811C16.6075 24.7674 16.563 24.7661 16.5209 24.7775C16.4788 24.7889 16.4409 24.8124 16.4121 24.8452L14.792 26.4659C14.4489 26.808 13.9843 27 13.4999 27C13.0154 27 12.5508 26.808 12.2077 26.4659L10.5866 24.8445C10.5579 24.812 10.5203 24.7886 10.4784 24.7772C10.4365 24.7658 10.3922 24.767 10.351 24.7805L8.13582 25.3737C7.66787 25.4989 7.16939 25.4331 6.74988 25.191C6.33037 24.9488 6.02413 24.55 5.89845 24.0822L5.30514 21.8673C5.29633 21.8247 5.27525 21.7857 5.2445 21.755C5.21375 21.7243 5.17469 21.7033 5.13213 21.6945L2.91733 21.1013C2.44971 20.9752 2.05114 20.6689 1.80896 20.2495C1.56679 19.83 1.50076 19.3317 1.62536 18.8637L2.21908 16.649C2.23283 16.6076 2.23412 16.5631 2.22277 16.521C2.21143 16.4789 2.18796 16.4411 2.15528 16.4122L0.534359 14.791C0.192185 14.4482 0 13.9837 0 13.4994C0 13.0151 0.192185 12.5506 0.534359 12.2078L2.15591 10.5864C2.18841 10.5574 2.21172 10.5195 2.22296 10.4775C2.2342 10.4354 2.23289 10.391 2.21919 10.3496L1.62546 8.13471C1.50088 7.66669 1.56692 7.16836 1.80909 6.74893C2.05126 6.32951 2.44982 6.0232 2.91743 5.89713L5.13223 5.30385C5.17479 5.2951 5.21386 5.27408 5.24461 5.24338C5.27535 5.21267 5.29644 5.17364 5.30525 5.13109L5.89855 2.91645C6.0243 2.44867 6.33054 2.04991 6.75003 1.80774C7.16953 1.56557 7.66797 1.49979 8.13592 1.62484L10.3511 2.21807C10.3923 2.23182 10.4367 2.23307 10.4786 2.22168C10.5205 2.21029 10.5581 2.18676 10.5867 2.15405L12.208 0.532843C12.5374 0.203608 12.9803 0.0129467 13.4458 0H13.5543ZM13.4994 19.3846C12.3355 19.3846 11.1977 19.0395 10.2299 18.3928C9.26209 17.7461 8.50779 16.8269 8.06236 15.7515C7.61694 14.6761 7.50039 13.4928 7.72747 12.3511C7.95455 11.2095 8.51504 10.1608 9.33808 9.33777C10.1611 8.51469 11.2097 7.95417 12.3513 7.72708C13.4929 7.5 14.6762 7.61655 15.7515 8.06199C16.8269 8.50744 17.746 9.26177 18.3927 10.2296C19.0393 11.1974 19.3845 12.3353 19.3845 13.4993C19.3829 15.0597 18.7623 16.5557 17.659 17.6591C16.5557 18.7625 15.0598 19.383 13.4994 19.3846Z" fill="#0088CC"/>
<path d="M36.3688 18.8336V10.088H33V8.16644H42.0837V10.088H38.7149V18.8336H36.3688Z" fill="black"/>
<path d="M42.4136 13.4924C42.4136 12.3829 42.6191 11.4195 43.0302 10.6025C43.4513 9.77533 44.0529 9.1348 44.8349 8.68088C45.617 8.22696 46.5444 8 47.6172 8C48.69 8 49.6174 8.22696 50.3994 8.68088C51.1815 9.1348 51.783 9.77533 52.2041 10.6025C52.6353 11.4195 52.8508 12.3778 52.8508 13.4773C52.8508 14.597 52.6353 15.5704 52.2041 16.3975C51.783 17.2146 51.1815 17.8551 50.3994 18.3191C49.6174 18.773 48.69 19 47.6172 19C46.5444 19 45.617 18.773 44.8349 18.3191C44.0629 17.8551 43.4663 17.2095 43.0453 16.3824C42.6242 15.5553 42.4136 14.5919 42.4136 13.4924ZM44.865 13.4924C44.865 14.5919 45.0906 15.4544 45.5418 16.0798C46.003 16.6951 46.6948 17.0028 47.6172 17.0028C48.5195 17.0028 49.2063 16.6951 49.6775 16.0798C50.1488 15.4544 50.3844 14.5919 50.3844 13.4924C50.3844 12.3829 50.1488 11.5254 49.6775 10.9202C49.2163 10.3049 48.5295 9.99725 47.6172 9.99725C46.6948 9.99725 46.003 10.3049 45.5418 10.9202C45.0906 11.5254 44.865 12.3829 44.865 13.4924Z" fill="black"/>
<path d="M54.6844 18.8336V8.16644H56.429L62.189 15.5351H61.7829V8.16644H63.9636V18.8336H62.2191L56.4741 11.4649H56.8651V18.8336H54.6844Z" fill="black"/>
<path d="M73.8292 18.8336L69.0618 8.16644H71.5884L75.2128 16.7001H74.4759L78.1004 8.16644H80.5367L75.7693 18.8336H73.8292Z" fill="black"/>
<path d="M81.4143 18.8336V8.16644H88.7835V9.99725H83.6551V12.4938H88.4225V14.3398H83.6551V17.0028H88.7835V18.8336H81.4143Z" fill="black"/>
<path d="M90.4172 18.8336V8.16644H95.2298C96.4229 8.16644 97.3453 8.45392 97.997 9.02889C98.6487 9.59376 98.9745 10.3856 98.9745 11.4044C98.9745 12.0702 98.8241 12.6451 98.5234 13.1293C98.2326 13.6034 97.8115 13.9716 97.2601 14.2338C96.7187 14.486 96.067 14.6121 95.305 14.6121L95.4854 14.2792H96.102C96.5332 14.2792 96.9142 14.3952 97.245 14.6272C97.5859 14.8592 97.8666 15.1972 98.0872 15.641L99.6663 18.8336H97.0796L95.4403 15.3989C95.32 15.1064 95.1295 14.9147 94.8688 14.8239C94.6182 14.7231 94.3274 14.6726 93.9966 14.6726H92.7633V18.8336H90.4172ZM92.7633 12.978H94.8237C95.4353 12.978 95.9015 12.8519 96.2224 12.5997C96.5432 12.3475 96.7036 11.9743 96.7036 11.4801C96.7036 10.9858 96.5432 10.6176 96.2224 10.3755C95.9015 10.1233 95.4353 9.99725 94.8237 9.99725H92.7633V12.978Z" fill="black"/>
<path d="M101.065 18.8336V8.16644H103.411V18.8336H101.065Z" fill="black"/>
<path d="M105.559 18.8336V8.16644H112.763V9.99725H107.905V12.5997H112.417V14.4154H107.905V18.8336H105.559Z" fill="black"/>
<path d="M114.254 18.8336V8.16644H116.6V18.8336H114.254Z" fill="black"/>
<path d="M118.748 18.8336V8.16644H126.117V9.99725H120.989V12.4938H125.756V14.3398H120.989V17.0028H126.117V18.8336H118.748Z" fill="black"/>
<path d="M127.751 18.8336V8.16644H132.563C133.757 8.16644 134.679 8.45392 135.331 9.02889C135.982 9.59376 136.308 10.3856 136.308 11.4044C136.308 12.0702 136.158 12.6451 135.857 13.1293C135.566 13.6034 135.145 13.9716 134.594 14.2338C134.052 14.486 133.401 14.6121 132.639 14.6121L132.819 14.2792H133.436C133.867 14.2792 134.248 14.3952 134.579 14.6272C134.92 14.8592 135.2 15.1972 135.421 15.641L137 18.8336H134.413L132.774 15.3989C132.654 15.1064 132.463 14.9147 132.202 14.8239C131.952 14.7231 131.661 14.6726 131.33 14.6726H130.097V18.8336H127.751ZM130.097 12.978H132.157C132.769 12.978 133.235 12.8519 133.556 12.5997C133.877 12.3475 134.037 11.9743 134.037 11.4801C134.037 10.9858 133.877 10.6176 133.556 10.3755C133.235 10.1233 132.769 9.99725 132.157 9.99725H130.097V12.978Z" fill="black"/>
</svg>
