<svg width="1413" height="1371" viewBox="0 0 1413 1371" fill="none" xmlns="http://www.w3.org/2000/svg">
<path d="M405.719 876.742C401.714 891.884 388.697 895.547 377.182 884.801L148.633 676.724C136.867 665.979 139.371 652.546 154.39 646.685L475.06 521.644C490.08 515.782 498.841 523.597 494.836 538.739L405.719 876.742Z" fill="black"/>
<path d="M216.972 1074.56C204.706 1084.82 192.44 1080.67 189.686 1065.04L127.104 726.79C124.351 711.404 131.61 707.496 143.376 718.242L360.911 916.305C372.676 927.051 372.426 944.147 360.16 954.404L216.972 1074.56Z" fill="black"/>
<path d="M479.316 454.239C489.83 466.205 486.075 480.614 471.305 486.476L152.388 610.785C137.368 616.646 129.858 609.319 135.365 594.666L266.287 251.291C271.794 236.637 285.061 234.195 295.575 246.162L479.316 454.239Z" fill="black"/>
<path d="M145.378 1016.92C148.132 1032.31 143.376 1034.26 134.614 1021.08L10.9524 834.736C2.19089 821.548 2.94187 800.544 12.4543 787.845L67.7768 715.556C77.2892 703.1 87.5527 705.298 90.5566 720.684L145.378 1016.92Z" fill="black"/>
<path d="M106.327 573.663C100.82 588.316 92.0586 588.316 86.8017 573.419L44.4963 449.842C39.4897 434.945 44.9969 414.186 57.0127 403.685L207.71 270.584C219.726 260.082 224.732 263.502 219.225 278.155L106.327 573.663Z" fill="black"/>
<path d="M66.5251 621.286C71.5317 636.184 68.0271 658.652 58.2643 671.107L15.2079 727.767C5.69548 740.222 -0.813046 737.78 0.68892 722.15L21.4661 525.795C23.2184 510.165 28.7256 509.677 33.7322 524.574L66.5251 621.286Z" fill="black"/>
<path d="M236.498 179.245C241.755 185.351 236.498 198.783 224.482 209.529L156.893 269.363C144.878 279.864 143.125 278.155 152.638 265.7L209.462 191.212C218.975 178.513 231.241 173.14 236.498 179.245Z" fill="black"/>
<path d="M664.058 1224.02C656.047 1237.46 641.779 1238.19 632.767 1225.25L455.535 973.698C446.523 960.754 452.03 948.787 468.051 947.322L824.017 911.421C840.038 909.712 846.547 919.48 838.286 933.157L664.058 1224.02Z" fill="black"/>
<path d="M589.961 1224.27C598.973 1237.21 593.966 1243.56 578.946 1238.68L245.259 1128.05C229.989 1122.92 227.486 1110.46 239.752 1100.2L382.689 980.048C394.955 969.79 412.228 971.988 421.49 984.932L589.961 1224.27Z" fill="black"/>
<path d="M831.527 853.052C842.041 865.019 837.535 876.009 821.514 877.719L460.291 914.108C444.27 915.817 434.507 904.583 438.512 889.441L528.881 546.31C532.886 531.168 544.651 528.482 555.165 540.205L831.527 853.052Z" fill="black"/>
<path d="M1090.87 1147.09C1101.38 1159.06 1097.12 1171.27 1081.35 1174.69L713.873 1250.16C698.102 1253.33 691.844 1245.03 700.105 1231.35L873.332 942.193C881.342 928.761 896.612 927.296 907.126 939.262L1090.87 1147.09Z" fill="black"/>
<path d="M499.843 1340.03C485.574 1347.36 464.296 1344.91 452.28 1334.66L281.557 1187.64C269.541 1177.13 272.044 1172.98 287.314 1177.87L579.197 1274.58C594.466 1279.71 595.218 1289.72 581.199 1297.29L499.843 1340.03Z" fill="black"/>
<path d="M896.112 1353.95C883.595 1363.96 861.817 1366.16 847.298 1359.08L728.392 1299.98C714.123 1292.9 715.124 1284.35 730.895 1281.17L1047.56 1216.21C1063.33 1213.03 1066.08 1218.41 1053.57 1228.42L896.112 1353.95Z" fill="black"/>
<path d="M564.677 1361.03C548.656 1360.3 547.155 1353.71 561.173 1346.14L625.007 1312.68C639.275 1305.35 662.556 1305.11 676.824 1312.19L769.946 1358.35C784.215 1365.43 782.963 1370.8 766.692 1370.07L564.677 1361.03Z" fill="black"/>
<path d="M1150.19 1214.01C1155.45 1220.12 1148.44 1231.11 1134.17 1238.43L1050.31 1282.15C1036.04 1289.48 1034.79 1287.52 1047.06 1277.51L1117.9 1221.09C1130.17 1211.08 1144.69 1207.91 1150.19 1214.01Z" fill="black"/>
<path d="M937.916 849.389C922.896 855.25 914.135 847.435 918.14 832.293L1007.26 494.291C1011.26 479.149 1024.28 475.486 1036.04 486.232L1264.59 694.308C1276.36 705.054 1273.86 718.486 1258.84 724.347L937.916 849.389Z" fill="black"/>
<path d="M1286.12 644.243C1288.88 659.629 1281.62 663.536 1269.85 652.791L1052.32 454.727C1040.55 443.981 1040.8 426.886 1053.07 416.628L1196 296.471C1208.27 286.214 1220.54 290.366 1223.29 305.996L1286.12 644.243Z" fill="black"/>
<path d="M1146.69 1119.74C1141.18 1134.4 1127.92 1136.84 1117.4 1124.87L933.661 916.794C923.147 904.827 926.902 890.418 941.671 884.557L1260.59 760.248C1275.61 754.387 1283.12 761.713 1277.61 776.367L1146.69 1119.74Z" fill="black"/>
<path d="M1402.02 536.297C1410.79 549.485 1410.03 570.488 1400.52 583.188L1345.2 655.233C1335.69 667.688 1325.42 665.49 1322.42 650.104L1267.6 354.108C1264.84 338.722 1269.6 336.768 1278.36 349.956L1402.02 536.297Z" fill="black"/>
<path d="M1368.23 921.434C1373.24 936.332 1367.73 957.091 1355.71 967.592L1205.02 1100.69C1193 1111.19 1187.99 1107.78 1193.5 1093.12L1306.4 797.37C1311.91 782.716 1320.67 782.716 1325.92 797.614L1368.23 921.434Z" fill="black"/>
<path d="M1391.76 844.993C1390.01 860.623 1384.5 861.112 1379.49 846.214L1346.45 749.502C1341.44 734.605 1345.2 712.136 1354.71 699.681L1398.02 643.022C1407.53 630.566 1414.04 633.009 1412.54 648.639L1391.76 844.993Z" fill="black"/>
<path d="M1203.51 1179.82C1194 1192.52 1181.74 1197.65 1176.23 1191.79C1170.97 1185.68 1176.23 1172.25 1188.24 1161.5L1256.08 1101.67C1268.1 1091.17 1269.85 1092.88 1260.34 1105.33L1203.51 1179.82Z" fill="black"/>
<path d="M957.442 397.335C966.454 410.279 960.946 422.246 944.925 423.711L588.959 459.611C572.938 461.321 566.43 451.552 574.69 437.876L748.919 147.008C756.929 133.576 771.198 132.843 780.21 145.787L957.442 397.335Z" fill="black"/>
<path d="M1030.29 390.985C1018.02 401.243 1000.75 399.045 991.486 386.101L823.016 146.764C814.004 133.82 819.011 127.47 834.03 132.355L1167.72 242.987C1182.99 248.116 1185.49 260.571 1173.22 270.828L1030.29 390.985Z" fill="black"/>
<path d="M884.096 824.723C880.091 839.864 868.325 842.551 857.811 830.828L581.7 517.98C571.186 506.013 575.692 495.024 591.713 493.314L952.936 456.925C968.957 455.215 978.72 466.45 974.714 481.591L884.096 824.723Z" fill="black"/>
<path d="M539.645 429.084C531.634 442.516 516.364 443.981 505.85 432.014L322.11 223.938C311.596 211.971 315.852 199.76 331.622 196.341L699.104 120.876C714.874 117.701 721.132 126.005 712.872 139.681L539.645 429.084Z" fill="black"/>
<path d="M833.78 96.4541C818.51 91.3254 817.759 81.3123 831.777 73.7415L913.134 31.2469C927.403 23.9203 948.68 26.3625 960.946 36.6198L1131.42 183.641C1143.44 194.143 1140.93 198.294 1125.66 193.41L833.78 96.4541Z" fill="black"/>
<path d="M365.417 154.823C349.646 157.998 346.892 152.625 359.409 142.612L516.615 17.0821C529.131 7.06902 550.909 4.87103 565.428 11.9535L684.584 71.055C698.853 78.1375 697.852 86.6852 682.081 89.8601L365.417 154.823Z" fill="black"/>
<path d="M788.22 58.1113C773.951 65.438 750.671 65.6822 736.402 58.5998L643.28 12.4419C629.012 5.35947 630.263 -0.0133991 646.535 0.719265L848.549 9.75546C864.57 10.4881 866.072 17.0821 852.054 24.653L788.22 58.1113Z" fill="black"/>
<path d="M295.325 149.939C282.808 159.952 268.289 163.127 263.033 157.021C257.776 150.915 264.785 139.925 279.053 132.599L362.913 88.8832C377.182 81.5565 378.434 83.5103 366.168 93.5234L295.325 149.939Z" fill="black"/>
<path d="M187.684 1143.92C193.942 1138.79 207.71 1143.92 218.724 1155.64L280.055 1221.83C290.819 1233.55 289.067 1235.26 276.3 1225.98L199.7 1170.54C186.933 1161.26 181.426 1149.29 187.684 1143.92Z" fill="black"/>
<path d="M1248.07 252.756C1254.33 247.627 1265.6 254.465 1273.11 268.386L1317.91 350.2C1325.42 364.121 1323.42 365.342 1313.16 353.375L1255.33 284.26C1245.32 272.294 1242.06 257.884 1248.07 252.756Z" fill="black"/>
<path d="M1213.28 200.492C1226.29 209.773 1231.55 221.74 1225.54 227.113C1219.28 232.241 1205.52 227.113 1194.5 215.39L1133.17 149.206C1122.41 137.483 1124.16 135.774 1136.93 145.054L1213.28 200.492Z" fill="black"/>
<path d="M157.644 1086.77C167.908 1098.98 171.162 1113.15 164.904 1118.28C158.646 1123.41 147.381 1116.57 139.871 1102.65L95.0625 1020.83C87.5527 1006.91 89.5553 1005.69 99.8187 1017.66L157.644 1086.77Z" fill="black"/>
</svg>
