<svg width="4580" height="1371" viewBox="0 0 4580 1371" fill="none" xmlns="http://www.w3.org/2000/svg">
<path d="M405.246 876.883C401.241 892.025 388.224 895.688 376.709 884.943L148.159 676.866C136.394 666.12 138.897 652.688 153.917 646.827L474.587 521.785C489.607 515.924 498.368 523.739 494.363 538.881L405.246 876.883Z" fill="white"/>
<path d="M216.499 1074.7C204.233 1084.96 191.967 1080.81 189.213 1065.18L126.631 726.931C123.878 711.545 131.137 707.638 142.902 718.383L360.437 916.447C372.203 927.193 371.952 944.288 359.686 954.546L216.499 1074.7Z" fill="white"/>
<path d="M478.842 454.38C489.356 466.347 485.601 480.756 470.832 486.617L151.914 610.926C136.895 616.787 129.385 609.461 134.892 594.807L265.813 251.432C271.321 236.779 284.588 234.337 295.102 246.303L478.842 454.38Z" fill="white"/>
<path d="M144.905 1017.07C147.659 1032.45 142.902 1034.41 134.141 1021.22L10.479 834.877C1.7175 821.689 2.46848 800.686 11.9809 787.987L67.3034 715.697C76.8158 703.242 87.0793 705.44 90.0832 720.826L144.905 1017.07Z" fill="white"/>
<path d="M105.854 573.805C100.347 588.458 91.5852 588.458 86.3283 573.56L44.0229 449.984C39.0163 435.087 44.5236 414.328 56.5393 403.826L207.237 270.726C219.252 260.224 224.259 263.643 218.752 278.296L105.854 573.805Z" fill="white"/>
<path d="M66.0517 621.428C71.0583 636.325 67.5537 658.794 57.7909 671.249L14.7345 727.908C5.2221 740.364 -1.28643 737.921 0.215532 722.291L20.9927 525.937C22.745 510.307 28.2523 509.818 33.2588 524.716L66.0517 621.428Z" fill="white"/>
<path d="M236.024 179.387C241.281 185.492 236.024 198.925 224.009 209.67L156.42 269.505C144.404 280.006 142.652 278.296 152.165 265.841L208.989 191.354C218.501 178.654 230.767 173.281 236.024 179.387Z" fill="white"/>
<path d="M663.584 1224.17C655.574 1237.6 641.305 1238.33 632.293 1225.39L455.061 973.839C446.049 960.896 451.557 948.929 467.578 947.463L823.544 911.563C839.565 909.853 846.073 919.622 837.812 933.298L663.584 1224.17Z" fill="white"/>
<path d="M589.487 1224.41C598.499 1237.35 593.493 1243.7 578.473 1238.82L244.786 1128.19C229.516 1123.06 227.013 1110.6 239.279 1100.35L382.216 980.189C394.482 969.932 411.754 972.13 421.017 985.073L589.487 1224.41Z" fill="white"/>
<path d="M831.054 853.194C841.567 865.161 837.061 876.151 821.04 877.86L459.817 914.249C443.796 915.959 434.034 904.725 438.039 889.583L528.407 546.452C532.413 531.31 544.178 528.623 554.692 540.346L831.054 853.194Z" fill="white"/>
<path d="M1090.39 1147.24C1100.91 1159.2 1096.65 1171.41 1080.88 1174.83L713.399 1250.3C697.629 1253.47 691.371 1245.17 699.631 1231.49L872.858 942.335C880.869 928.903 896.139 927.437 906.653 939.404L1090.39 1147.24Z" fill="white"/>
<path d="M499.369 1340.17C485.101 1347.5 463.823 1345.06 451.807 1334.8L281.083 1187.78C269.068 1177.28 271.571 1173.12 286.841 1178.01L578.723 1274.72C593.993 1279.85 594.744 1289.86 580.726 1297.43L499.369 1340.17Z" fill="white"/>
<path d="M895.638 1354.09C883.122 1364.11 861.343 1366.3 846.824 1359.22L727.918 1300.12C713.65 1293.04 714.651 1284.49 730.422 1281.31L1047.09 1216.35C1062.86 1213.18 1065.61 1218.55 1053.09 1228.56L895.638 1354.09Z" fill="white"/>
<path d="M564.204 1361.17C548.183 1360.44 546.681 1353.85 560.7 1346.28L624.533 1312.82C638.802 1305.49 662.082 1305.25 676.351 1312.33L769.473 1358.49C783.742 1365.57 782.49 1370.94 766.219 1370.21L564.204 1361.17Z" fill="white"/>
<path d="M1149.72 1214.15C1154.98 1220.26 1147.97 1231.25 1133.7 1238.58L1049.84 1282.29C1035.57 1289.62 1034.32 1287.66 1046.59 1277.65L1117.43 1221.24C1129.69 1211.22 1144.21 1208.05 1149.72 1214.15Z" fill="white"/>
<path d="M937.443 849.53C922.423 855.392 913.662 847.577 917.667 832.435L1006.78 494.432C1010.79 479.291 1023.81 475.627 1035.57 486.373L1264.12 694.45C1275.89 705.195 1273.38 718.628 1258.36 724.489L937.443 849.53Z" fill="white"/>
<path d="M1285.65 644.384C1288.4 659.77 1281.14 663.678 1269.38 652.932L1051.84 454.869C1040.08 444.123 1040.33 427.027 1052.59 416.77L1195.53 296.613C1207.8 286.356 1220.06 290.508 1222.82 306.138L1285.65 644.384Z" fill="white"/>
<path d="M1146.22 1119.88C1140.71 1134.54 1127.44 1136.98 1116.93 1125.01L933.187 916.936C922.674 904.969 926.429 890.56 941.198 884.698L1260.12 760.39C1275.14 754.528 1282.65 761.855 1277.14 776.508L1146.22 1119.88Z" fill="white"/>
<path d="M1401.55 536.439C1410.31 549.627 1409.56 570.63 1400.05 583.329L1344.73 655.375C1335.21 667.83 1324.95 665.632 1321.95 650.246L1267.12 354.249C1264.37 338.863 1269.13 336.91 1277.89 350.098L1401.55 536.439Z" fill="white"/>
<path d="M1367.76 921.576C1372.76 936.473 1367.26 957.232 1355.24 967.734L1204.54 1100.83C1192.53 1111.34 1187.52 1107.92 1193.03 1093.26L1305.93 797.511C1311.43 782.858 1320.19 782.858 1325.45 797.756L1367.76 921.576Z" fill="white"/>
<path d="M1391.29 845.135C1389.53 860.765 1384.03 861.253 1379.02 846.356L1345.98 749.644C1340.97 734.746 1344.73 712.278 1354.24 699.823L1397.55 643.163C1407.06 630.708 1413.57 633.15 1412.06 648.78L1391.29 845.135Z" fill="white"/>
<path d="M1203.04 1179.96C1193.53 1192.66 1181.26 1197.79 1175.76 1191.93C1170.5 1185.82 1175.75 1172.39 1187.77 1161.65L1255.61 1101.81C1267.63 1091.31 1269.38 1093.02 1259.87 1105.47L1203.04 1179.96Z" fill="white"/>
<path d="M956.969 397.477C965.98 410.42 960.473 422.387 944.452 423.852L588.486 459.753C572.465 461.463 565.956 451.694 574.217 438.017L748.445 147.15C756.456 133.717 770.725 132.985 779.736 145.928L956.969 397.477Z" fill="white"/>
<path d="M1029.81 391.127C1017.55 401.384 1000.28 399.186 991.013 386.242L822.542 146.905C813.531 133.962 818.537 127.612 833.557 132.496L1167.24 243.129C1182.51 248.257 1185.02 260.713 1172.75 270.97L1029.81 391.127Z" fill="white"/>
<path d="M883.622 824.864C879.617 840.006 867.852 842.692 857.338 830.97L581.226 518.122C570.713 506.155 575.218 495.165 591.239 493.456L952.462 457.067C968.483 455.357 978.246 466.591 974.241 481.733L883.622 824.864Z" fill="white"/>
<path d="M539.171 429.225C531.161 442.658 515.891 444.123 505.377 432.156L321.636 224.079C311.123 212.112 315.378 199.901 331.149 196.482L698.63 121.018C714.401 117.843 720.659 126.146 712.398 139.823L539.171 429.225Z" fill="white"/>
<path d="M833.307 96.5957C818.036 91.467 817.286 81.4539 831.304 73.8831L912.66 31.3885C926.929 24.0619 948.207 26.5041 960.473 36.7614L1130.95 183.783C1142.96 194.284 1140.46 198.436 1125.19 193.552L833.307 96.5957Z" fill="white"/>
<path d="M364.943 154.965C349.173 158.139 346.419 152.767 358.935 142.754L516.141 17.2237C528.658 7.21062 550.436 5.01263 564.955 12.0951L684.111 71.1966C698.38 78.2791 697.378 86.8268 681.608 90.0017L364.943 154.965Z" fill="white"/>
<path d="M787.747 58.2529C773.478 65.5796 750.198 65.8238 735.929 58.7414L642.807 12.5835C628.538 5.50107 629.79 0.128202 646.061 0.860867L848.076 9.89706C864.097 10.6297 865.599 17.2237 851.58 24.7946L787.747 58.2529Z" fill="white"/>
<path d="M294.851 150.08C282.335 160.093 267.816 163.268 262.559 157.163C257.302 151.057 264.311 140.067 278.58 132.74L362.44 89.0248C376.709 81.6982 377.96 83.6519 365.694 93.665L294.851 150.08Z" fill="white"/>
<path d="M187.21 1144.06C193.469 1138.93 207.237 1144.06 218.251 1155.78L279.581 1221.97C290.345 1233.69 288.593 1235.4 275.826 1226.12L199.226 1170.68C186.459 1161.4 180.952 1149.43 187.21 1144.06Z" fill="white"/>
<path d="M1247.6 252.897C1253.86 247.769 1265.12 254.607 1272.63 268.528L1317.44 350.342C1324.95 364.262 1322.95 365.484 1312.68 353.517L1254.86 284.402C1244.85 272.435 1241.59 258.026 1247.6 252.897Z" fill="white"/>
<path d="M1212.8 200.634C1225.82 209.914 1231.08 221.881 1225.07 227.254C1218.81 232.383 1205.04 227.254 1194.03 215.532L1132.7 149.348C1121.93 137.625 1123.69 135.915 1136.45 145.196L1212.8 200.634Z" fill="white"/>
<path d="M157.171 1086.91C167.434 1099.12 170.689 1113.29 164.431 1118.42C158.172 1123.55 146.908 1116.71 139.398 1102.79L94.5891 1020.97C87.0793 1007.05 89.0819 1005.83 99.3454 1017.8L157.171 1086.91Z" fill="white"/>
<path d="M2243.46 414.154C2293.12 442.106 2332.43 479.965 2361.37 527.377C2390.31 575.143 2404.96 627.509 2404.96 684.474C2404.96 741.439 2390.31 794.159 2361.37 842.279C2332.43 890.398 2292.76 928.611 2243.46 956.916C2193.79 985.222 2139.48 999.375 2079.81 999.375C2020.49 999.375 1965.82 985.222 1916.16 956.916C1866.49 928.611 1827.19 890.398 1798.24 842.279C1769.3 794.159 1754.65 741.439 1754.65 684.474C1754.65 627.509 1769.3 575.143 1798.24 527.377C1827.19 479.611 1866.85 442.106 1916.16 414.154C1965.82 386.202 2020.13 372.403 2079.81 372.403C2139.48 372.049 2193.79 386.202 2243.46 414.154ZM1949.03 461.213C1908.65 484.211 1876.49 515.347 1852.91 554.621C1828.97 593.896 1817.18 637.416 1817.18 684.474C1817.18 731.532 1828.97 775.052 1852.91 815.034C1876.49 855.016 1908.65 886.506 1949.03 909.858C1989.41 933.21 2033.36 944.886 2080.88 944.886C2127.69 944.886 2171.28 933.21 2211.3 909.858C2251.32 886.506 2283.47 855.016 2307.06 815.034C2330.64 775.052 2342.79 731.532 2342.79 684.474C2342.79 627.155 2324.92 575.143 2289.55 529.146C2272.4 506.855 2251.32 487.041 2227.73 471.473C2183.07 441.752 2134.12 426.892 2080.88 426.892C2033.36 426.892 1989.41 438.214 1949.03 461.213Z" fill="white"/>
<path d="M3063.85 981.33L2938.07 793.097C2919.13 794.158 2904.48 794.866 2894.48 794.866H2723.33V965.408C2723.33 981.33 2710.46 994.068 2694.38 994.068H2690.81C2674.73 994.068 2661.87 981.33 2661.87 965.408V377.357H2894.48C2972.37 377.357 3032.4 395.048 3074.92 430.784C3117.44 466.52 3138.52 516.762 3138.52 582.219C3138.52 633.524 3126.02 675.982 3101.01 710.303C3075.99 744.27 3040.26 768.329 2994.17 781.775L3112.08 949.132C3125.66 968.239 3111.73 994.421 3088.14 994.421C3078.5 994.421 3069.21 989.468 3063.85 981.33ZM2894.48 740.024C2953.79 740.024 2999.53 726.579 3031.69 700.042C3063.85 673.152 3079.93 634.585 3079.93 583.989C3079.93 534.453 3063.85 496.948 3031.69 471.12C2999.53 445.291 2953.79 432.199 2894.48 432.199H2723.33V740.024H2894.48Z" fill="white"/>
<path d="M3834.93 417.692C3870.3 444.936 3887.81 482.795 3887.81 530.915C3887.81 567.359 3877.45 598.141 3857.08 622.555C3836.71 647.323 3807.77 663.599 3770.97 671.029C3816.71 677.044 3852.44 693.673 3877.81 721.271C3903.17 748.869 3916.04 783.898 3916.04 826.356C3916.04 879.429 3896.03 920.473 3856.37 949.84C3816.71 979.207 3761.32 994.068 3690.57 994.068H3426.88V376.649H3688.07C3750.6 376.649 3799.55 390.094 3834.93 417.692ZM3788.12 620.432C3812.42 601.326 3824.57 574.081 3824.57 538.699C3824.57 504.732 3812.42 478.196 3788.12 459.443C3763.82 440.691 3729.52 431.491 3685.57 432.199H3488.69V649.092H3685.57C3729.52 649.092 3763.82 639.539 3788.12 620.432ZM3809.92 908.089C3839.22 887.214 3853.87 857.846 3853.87 820.341C3853.87 783.19 3838.86 754.531 3809.2 734.009C3779.54 713.487 3738.1 703.226 3685.21 703.226H3488.33V939.579H3685.21C3739.17 939.579 3780.62 928.964 3809.92 908.089Z" fill="white"/>
<path d="M4451.29 441.398C4420.92 432.906 4392.34 428.661 4365.9 428.661C4323.02 428.661 4288.72 437.152 4262.99 453.782C4237.26 470.412 4224.4 493.41 4224.4 522.069C4224.4 547.545 4231.55 568.066 4245.84 583.988C4260.13 599.91 4277.64 612.294 4298.36 621.494C4319.09 630.693 4347.67 640.6 4383.76 651.922C4425.92 664.306 4459.87 676.336 4485.95 688.366C4511.68 700.396 4533.83 718.087 4552.05 740.731C4570.28 763.73 4579.21 794.158 4579.21 831.663C4579.21 864.569 4569.92 893.583 4550.98 919.058C4532.4 944.533 4505.96 963.993 4472.02 977.792C4438.07 991.591 4399.12 998.667 4355.18 998.667C4311.94 998.667 4269.42 990.176 4228.33 973.192C4195.1 959.393 4165.44 942.056 4139.72 921.181C4129 912.335 4126.5 897.474 4132.93 885.445C4141.5 870.23 4161.51 866.338 4175.09 876.953C4196.89 893.937 4220.83 907.735 4247.27 918.704C4284.07 933.918 4320.16 941.702 4355.89 941.702C4403.41 941.702 4441.29 932.149 4469.16 913.043C4497.03 893.936 4510.96 868.107 4510.96 835.909C4510.96 810.08 4503.82 788.851 4489.53 772.221C4475.23 755.592 4457.72 743.208 4437 734.363C4416.28 725.517 4386.98 715.256 4349.82 703.58C4307.65 690.489 4273.71 678.459 4248.34 667.136C4222.61 655.814 4201.17 638.477 4183.31 615.832C4165.44 593.187 4156.51 563.467 4156.51 527.023C4156.51 495.887 4165.44 468.642 4183.31 444.936C4201.17 421.584 4226.19 403.185 4258.34 390.802C4290.5 378.064 4327.66 371.695 4369.83 371.695C4403.77 371.695 4437.72 376.649 4472.02 386.556C4495.6 393.632 4517.4 402.124 4537.41 412.031C4551.7 419.108 4557.41 436.091 4550.27 450.244L4549.55 452.013C4542.41 466.166 4524.9 471.473 4510.61 464.043C4491.31 454.844 4471.66 447.413 4451.29 441.398Z" fill="white"/>
</svg>
