<svg width="141" height="119" viewBox="0 0 141 119" fill="none" xmlns="http://www.w3.org/2000/svg">
<path d="M55.0888 43.4294C54.8903 44.18 54.245 44.3616 53.6741 43.8289L42.3445 33.5141C41.7613 32.9815 41.8854 32.3156 42.6299 32.025L58.5262 25.8265C59.2707 25.5359 59.705 25.9234 59.5065 26.674L55.0888 43.4294Z" fill="url(#paint0_linear_3185_23122)"/>
<path d="M45.7322 53.2357C45.1242 53.7441 44.5161 53.5383 44.3796 52.7635L41.2773 35.996C41.1408 35.2333 41.5007 35.0396 42.0839 35.5723L52.8675 45.3906C53.4508 45.9233 53.4384 46.7708 52.8303 47.2793L45.7322 53.2357Z" fill="url(#paint1_linear_3185_23122)"/>
<path d="M58.7371 22.4851C59.2583 23.0783 59.0722 23.7926 58.34 24.0832L42.5307 30.2454C41.7861 30.5359 41.4138 30.1728 41.6868 29.4464L48.1769 12.4246C48.4499 11.6982 49.1076 11.5771 49.6287 12.1704L58.7371 22.4851Z" fill="url(#paint2_linear_3185_23122)"/>
<path d="M42.1832 50.3785C42.3197 51.1412 42.0839 51.2381 41.6496 50.5843L35.5195 41.3471C35.0851 40.6933 35.1224 39.6521 35.5939 39.0226L38.3364 35.4391C38.8079 34.8217 39.3167 34.9306 39.4656 35.6933L42.1832 50.3785Z" fill="url(#paint3_linear_3185_23122)"/>
<path d="M40.2474 28.4052C39.9744 29.1316 39.54 29.1316 39.2795 28.3931L37.1823 22.2672C36.9341 21.5287 37.2071 20.4996 37.8028 19.9791L45.2731 13.381C45.8687 12.8604 46.1169 13.0299 45.8439 13.7563L40.2474 28.4052Z" fill="url(#paint4_linear_3185_23122)"/>
<path d="M38.2743 30.766C38.5225 31.5045 38.3488 32.6183 37.8648 33.2357L35.7304 36.0444C35.2589 36.6618 34.9362 36.5408 35.0107 35.766L36.0406 26.0323C36.1275 25.2575 36.4005 25.2333 36.6487 25.9718L38.2743 30.766Z" fill="url(#paint5_linear_3185_23122)"/>
<path d="M46.7002 8.85318C46.9608 9.15584 46.7002 9.8217 46.1045 10.3544L42.754 13.3205C42.1584 13.8411 42.0715 13.7563 42.5431 13.1389L45.36 9.4464C45.8315 8.81686 46.4396 8.55052 46.7002 8.85318Z" fill="url(#paint6_linear_3185_23122)"/>
<path d="M67.8951 60.6448C67.498 61.3107 66.7907 61.347 66.344 60.7054L57.5582 48.2357C57.1115 47.594 57.3845 47.0008 58.1787 46.9282L75.8246 45.1485C76.6188 45.0638 76.9414 45.548 76.5319 46.226L67.8951 60.6448Z" fill="url(#paint7_linear_3185_23122)"/>
<path d="M64.222 60.657C64.6687 61.2986 64.4205 61.6134 63.676 61.3712L47.1345 55.887C46.3775 55.6328 46.2534 55.0153 46.8615 54.5068L53.9471 48.5504C54.5552 48.042 55.4114 48.1509 55.8706 48.7926L64.222 60.657Z" fill="url(#paint8_linear_3185_23122)"/>
<path d="M76.1969 42.2551C76.7181 42.8483 76.4947 43.3931 75.7005 43.4778L57.794 45.2817C56.9998 45.3664 56.5159 44.8095 56.7144 44.0589L61.1941 27.0493C61.3927 26.2987 61.9759 26.1655 62.4971 26.7466L76.1969 42.2551Z" fill="url(#paint9_linear_3185_23122)"/>
<path d="M89.0528 56.8313C89.574 57.4245 89.363 58.0298 88.5813 58.1993L70.3645 61.9402C69.5828 62.0976 69.2725 61.686 69.682 61.008L78.2692 46.6739C78.6663 46.0081 79.4233 45.9354 79.9445 46.5286L89.0528 56.8313Z" fill="url(#paint10_linear_3185_23122)"/>
<path d="M59.7547 66.3954C59.0473 66.7586 57.9926 66.6376 57.3969 66.1291L48.9338 58.841C48.3382 58.3204 48.4623 58.1146 49.2192 58.3567L63.6884 63.1509C64.4453 63.4051 64.4826 63.9015 63.7877 64.2768L59.7547 66.3954Z" fill="url(#paint11_linear_3185_23122)"/>
<path d="M79.3984 67.0855C78.778 67.5819 77.6984 67.6908 76.9787 67.3398L71.0843 64.41C70.3769 64.0589 70.4266 63.6351 71.2084 63.4778L86.906 60.2574C87.6878 60.1 87.8243 60.3664 87.2038 60.8628L79.3984 67.0855Z" fill="url(#paint12_linear_3185_23122)"/>
<path d="M62.9686 67.4366C62.1745 67.4003 62.1 67.0734 62.7949 66.6981L65.9593 65.0395C66.6666 64.6763 67.8206 64.6642 68.528 65.0153L73.1442 67.3034C73.8515 67.6545 73.7895 67.9208 72.9829 67.8845L62.9686 67.4366Z" fill="url(#paint13_linear_3185_23122)"/>
<path d="M91.9938 60.1485C92.2544 60.4511 91.9069 60.9959 91.1996 61.3591L87.0425 63.5262C86.3352 63.8894 86.2732 63.7925 86.8812 63.2962L90.393 60.4996C91.0011 60.0032 91.7208 59.8458 91.9938 60.1485Z" fill="url(#paint14_linear_3185_23122)"/>
<path d="M81.4708 42.0734C80.7262 42.364 80.2919 41.9766 80.4905 41.226L84.9081 24.4706C85.1067 23.72 85.752 23.5384 86.3352 24.0711L97.6648 34.3858C98.248 34.9185 98.124 35.5844 97.3794 35.8749L81.4708 42.0734Z" fill="url(#paint15_linear_3185_23122)"/>
<path d="M98.732 31.904C98.8685 32.6667 98.5086 32.8604 97.9254 32.3277L87.1418 22.5093C86.5586 21.9766 86.571 21.1292 87.179 20.6207L94.2647 14.6643C94.8728 14.1558 95.4808 14.3616 95.6173 15.1365L98.732 31.904Z" fill="url(#paint16_linear_3185_23122)"/>
<path d="M91.8201 55.4754C91.5471 56.2018 90.8894 56.3228 90.3682 55.7296L81.2598 45.4148C80.7386 44.8216 80.9248 44.1073 81.6569 43.8168L97.4663 37.6546C98.2108 37.364 98.5831 37.7272 98.3101 38.4536L91.8201 55.4754Z" fill="url(#paint17_linear_3185_23122)"/>
<path d="M104.477 26.5529C104.912 27.2067 104.875 28.2478 104.403 28.8774L101.661 32.4488C101.189 33.0662 100.68 32.9572 100.531 32.1945L97.8137 17.5214C97.6772 16.7587 97.913 16.6619 98.3473 17.3156L104.477 26.5529Z" fill="url(#paint18_linear_3185_23122)"/>
<path d="M102.802 45.6449C103.05 46.3834 102.777 47.4124 102.182 47.933L94.7114 54.5311C94.1158 55.0516 93.8676 54.8821 94.1406 54.1558L99.7372 39.4948C100.01 38.7684 100.444 38.7684 100.705 39.5069L102.802 45.6449Z" fill="url(#paint19_linear_3185_23122)"/>
<path d="M103.969 41.8555C103.882 42.6304 103.609 42.6546 103.361 41.9161L101.723 37.1219C101.474 36.3834 101.661 35.2696 102.132 34.6522L104.279 31.8434C104.75 31.226 105.073 31.3471 104.999 32.1219L103.969 41.8555Z" fill="url(#paint20_linear_3185_23122)"/>
<path d="M94.637 58.4536C94.1654 59.0831 93.5574 59.3373 93.2844 59.0468C93.0238 58.7441 93.2844 58.0783 93.88 57.5456L97.2429 54.5795C97.8386 54.0589 97.9254 54.1437 97.4539 54.7611L94.637 58.4536Z" fill="url(#paint21_linear_3185_23122)"/>
<path d="M82.4387 19.6643C82.8854 20.3059 82.6124 20.8992 81.8182 20.9718L64.1723 22.7515C63.3782 22.8362 63.0555 22.3519 63.465 21.674L72.1018 7.25512C72.4989 6.58926 73.2063 6.55294 73.653 7.19459L82.4387 19.6643Z" fill="url(#paint22_linear_3185_23122)"/>
<path d="M86.0498 19.3495C85.4417 19.858 84.5855 19.749 84.1264 19.1074L75.775 7.24301C75.3282 6.60137 75.5764 6.2866 76.321 6.52873L92.8625 12.013C93.6194 12.2672 93.7435 12.8846 93.1354 13.3931L86.0498 19.3495Z" fill="url(#paint23_linear_3185_23122)"/>
<path d="M78.8028 40.8507C78.6043 41.6013 78.021 41.7345 77.4998 41.1534L63.8125 25.6449C63.2913 25.0517 63.5147 24.5069 64.3088 24.4222L82.2153 22.6183C83.0095 22.5335 83.4935 23.0904 83.2949 23.841L78.8028 40.8507Z" fill="url(#paint24_linear_3185_23122)"/>
<path d="M61.7277 21.2381C61.3306 21.904 60.5737 21.9766 60.0525 21.3834L50.9441 11.0687C50.4229 10.4755 50.6339 9.87012 51.4157 9.70063L69.6324 5.95972C70.4142 5.80234 70.7244 6.21396 70.3149 6.89192L61.7277 21.2381Z" fill="url(#paint25_linear_3185_23122)"/>
<path d="M76.3086 4.74907C75.5516 4.49483 75.5144 3.99847 76.2093 3.62316L80.2423 1.51663C80.9496 1.15344 82.0044 1.2745 82.6124 1.78297L91.0631 9.07109C91.6588 9.59167 91.5347 9.79749 90.7777 9.55536L76.3086 4.74907Z" fill="url(#paint26_linear_3185_23122)"/>
<path d="M53.0909 7.64253C52.3091 7.79991 52.1726 7.53357 52.7931 7.0372L60.5861 0.814454C61.2065 0.318087 62.2861 0.209128 63.0059 0.560217L68.9127 3.48999C69.62 3.84108 69.5703 4.26481 68.7886 4.42219L53.0909 7.64253Z" fill="url(#paint27_linear_3185_23122)"/>
<path d="M74.0501 2.84835C73.3427 3.21154 72.1887 3.22365 71.4814 2.87256L66.8651 0.58443C66.1578 0.233341 66.2199 -0.0330021 67.0265 0.00331742L77.0407 0.451258C77.8349 0.487578 77.9093 0.814454 77.2144 1.18976L74.0501 2.84835Z" fill="url(#paint28_linear_3185_23122)"/>
<path d="M49.6163 7.4004C48.9959 7.89676 48.2761 8.05415 48.0155 7.75149C47.755 7.44882 48.1024 6.90403 48.8097 6.54083L52.9668 4.37377C53.6741 4.01057 53.7362 4.10742 53.1281 4.60379L49.6163 7.4004Z" fill="url(#paint29_linear_3185_23122)"/>
<path d="M44.2804 56.6739C44.5906 56.4197 45.2731 56.6739 45.8191 57.255L48.8594 60.5359C49.393 61.117 49.3061 61.2017 48.6732 60.7417L44.876 57.9935C44.2431 57.5335 43.9701 56.9402 44.2804 56.6739Z" fill="url(#paint30_linear_3185_23122)"/>
<path d="M96.8458 12.4972C97.156 12.243 97.7145 12.582 98.0867 13.2721L100.308 17.3277C100.68 18.0178 100.581 18.0783 100.072 17.4851L97.2057 14.059C96.7093 13.4658 96.548 12.7515 96.8458 12.4972Z" fill="url(#paint31_linear_3185_23122)"/>
<path d="M95.1209 9.90644C95.7662 10.3665 96.0268 10.9597 95.729 11.2261C95.4187 11.4803 94.7362 11.2261 94.1902 10.6449L91.15 7.36408C90.6164 6.78297 90.7032 6.69822 91.3361 7.15827L95.1209 9.90644Z" fill="url(#paint32_linear_3185_23122)"/>
<path d="M42.7913 53.841C43.3 54.4463 43.4614 55.1485 43.1511 55.4027C42.8409 55.657 42.2825 55.318 41.9102 54.6279L39.689 50.5722C39.3167 49.8822 39.416 49.8216 39.9247 50.4148L42.7913 53.841Z" fill="url(#paint33_linear_3185_23122)"/>
<path d="M24.2309 89.1048C26.693 90.4904 28.6414 92.3671 30.0761 94.7174C31.5108 97.0853 32.2371 99.6811 32.2371 102.505C32.2371 105.329 31.5108 107.942 30.0761 110.328C28.6414 112.713 26.6753 114.607 24.2309 116.01C21.7689 117.414 19.0765 118.115 16.1185 118.115C13.1782 118.115 10.4682 117.414 8.00613 116.01C5.54407 114.607 3.59567 112.713 2.16095 110.328C0.72622 107.942 0 105.329 0 102.505C0 99.6811 0.72622 97.0853 2.16095 94.7174C3.59567 92.3496 5.56178 90.4904 8.00613 89.1048C10.4682 87.7191 13.1605 87.0351 16.1185 87.0351C19.0765 87.0176 21.7689 87.7191 24.2309 89.1048ZM9.63569 91.4375C7.63416 92.5776 6.04002 94.1211 4.87099 96.068C3.68424 98.0149 3.09972 100.172 3.09972 102.505C3.09972 104.838 3.68424 106.995 4.87099 108.977C6.04002 110.959 7.63416 112.52 9.63569 113.678C11.6372 114.835 13.8159 115.414 16.1717 115.414C18.492 115.414 20.653 114.835 22.6368 113.678C24.6206 112.52 26.2148 110.959 27.3838 108.977C28.5528 106.995 29.1551 104.838 29.1551 102.505C29.1551 99.6636 28.2694 97.0853 26.5159 94.8051C25.6657 93.7001 24.6206 92.7179 23.4516 91.9462C21.2375 90.4729 18.8109 89.7362 16.1717 89.7362C13.8159 89.7362 11.6372 90.2975 9.63569 91.4375Z" fill="#6089DC"/>
<path d="M64.8992 117.221L58.6644 107.89C57.7256 107.942 56.9994 107.977 56.5034 107.977H48.0191V116.431C48.0191 117.221 47.3814 117.852 46.5843 117.852H46.4072C45.6101 117.852 44.9725 117.221 44.9725 116.431V87.2807H56.5034C60.3648 87.2807 63.3405 88.1576 65.4483 89.9291C67.5561 91.7006 68.6012 94.1912 68.6012 97.4361C68.6012 99.9793 67.9812 102.084 66.7414 103.785C65.5015 105.469 63.7302 106.662 61.4453 107.328L67.2905 115.625C67.9635 116.572 67.2727 117.87 66.1037 117.87C65.6255 117.87 65.1649 117.624 64.8992 117.221ZM56.5034 105.259C59.4437 105.259 61.711 104.592 63.3051 103.277C64.8992 101.944 65.6963 100.032 65.6963 97.5238C65.6963 95.0682 64.8992 93.209 63.3051 91.9286C61.711 90.6483 59.4437 89.9993 56.5034 89.9993H48.0191V105.259H56.5034Z" fill="#6089DC"/>
<path d="M103.123 89.2801C104.877 90.6307 105.745 92.5074 105.745 94.8928C105.745 96.6994 105.231 98.2254 104.221 99.4356C103.212 100.663 101.777 101.47 99.9526 101.839C102.22 102.137 103.991 102.961 105.249 104.329C106.506 105.697 107.144 107.434 107.144 109.538C107.144 112.169 106.152 114.204 104.186 115.66C102.22 117.115 99.4744 117.852 95.9673 117.852H82.8953V87.2456H95.8433C98.943 87.2456 101.37 87.9121 103.123 89.2801ZM100.803 99.3303C102.007 98.3832 102.61 97.0327 102.61 95.2787C102.61 93.5949 102.007 92.2794 100.803 91.3498C99.5984 90.4202 97.898 89.9642 95.7193 89.9993H85.9596V100.751H95.7193C97.898 100.751 99.5984 100.277 100.803 99.3303ZM101.883 113.59C103.336 112.555 104.062 111.099 104.062 109.24C104.062 107.399 103.318 105.978 101.848 104.961C100.378 103.943 98.3231 103.435 95.7016 103.435H85.9419V115.151H95.7016C98.3762 115.151 100.431 114.625 101.883 113.59Z" fill="#6089DC"/>
<path d="M133.678 90.4553C132.172 90.0343 130.755 89.8239 129.444 89.8239C127.319 89.8239 125.618 90.2448 124.343 91.0692C123.068 91.8935 122.43 93.0336 122.43 94.4543C122.43 95.7172 122.784 96.7345 123.493 97.5238C124.201 98.313 125.069 98.9269 126.097 99.383C127.124 99.839 128.541 100.33 130.33 100.891C132.42 101.505 134.103 102.102 135.396 102.698C136.671 103.294 137.769 104.171 138.673 105.294C139.576 106.434 140.019 107.942 140.019 109.801C140.019 111.433 139.558 112.871 138.619 114.134C137.698 115.397 136.388 116.361 134.705 117.045C133.022 117.729 131.091 118.08 128.913 118.08C126.77 118.08 124.662 117.659 122.625 116.817C120.978 116.133 119.507 115.274 118.232 114.239C117.701 113.801 117.577 113.064 117.896 112.468C118.321 111.713 119.313 111.52 119.986 112.047C121.066 112.888 122.253 113.573 123.564 114.116C125.388 114.87 127.177 115.256 128.948 115.256C131.304 115.256 133.182 114.783 134.563 113.836C135.945 112.888 136.636 111.608 136.636 110.012C136.636 108.732 136.281 107.679 135.573 106.855C134.864 106.03 133.996 105.417 132.969 104.978C131.942 104.54 130.489 104.031 128.647 103.452C126.557 102.803 124.874 102.207 123.617 101.646C122.341 101.084 121.279 100.225 120.393 99.1023C119.507 97.9798 119.065 96.5065 119.065 94.6999C119.065 93.1564 119.507 91.8059 120.393 90.6307C121.279 89.4731 122.519 88.561 124.113 87.9471C125.707 87.3157 127.549 87 129.639 87C131.322 87 133.004 87.2455 134.705 87.7367C135.874 88.0874 136.954 88.5084 137.946 88.9995C138.655 89.3503 138.938 90.1922 138.584 90.8938L138.549 90.9815C138.194 91.6831 137.326 91.9462 136.618 91.5778C135.661 91.1218 134.687 90.7535 133.678 90.4553Z" fill="#6089DC"/>
<defs>
<linearGradient id="paint0_linear_3185_23122" x1="70.0047" y1="2.99805e-09" x2="70.0703" y2="82.6942" gradientUnits="userSpaceOnUse">
<stop stop-color="#DA88DE"/>
<stop offset="0.373617" stop-color="#5E75E8"/>
<stop offset="1" stop-color="#80C6EB"/>
</linearGradient>
<linearGradient id="paint1_linear_3185_23122" x1="70.0047" y1="2.99805e-09" x2="70.0703" y2="82.6942" gradientUnits="userSpaceOnUse">
<stop stop-color="#DA88DE"/>
<stop offset="0.373617" stop-color="#5E75E8"/>
<stop offset="1" stop-color="#80C6EB"/>
</linearGradient>
<linearGradient id="paint2_linear_3185_23122" x1="70.0047" y1="2.99805e-09" x2="70.0703" y2="82.6942" gradientUnits="userSpaceOnUse">
<stop stop-color="#DA88DE"/>
<stop offset="0.373617" stop-color="#5E75E8"/>
<stop offset="1" stop-color="#80C6EB"/>
</linearGradient>
<linearGradient id="paint3_linear_3185_23122" x1="70.0047" y1="2.99805e-09" x2="70.0703" y2="82.6942" gradientUnits="userSpaceOnUse">
<stop stop-color="#DA88DE"/>
<stop offset="0.373617" stop-color="#5E75E8"/>
<stop offset="1" stop-color="#80C6EB"/>
</linearGradient>
<linearGradient id="paint4_linear_3185_23122" x1="70.0047" y1="2.99805e-09" x2="70.0703" y2="82.6942" gradientUnits="userSpaceOnUse">
<stop stop-color="#DA88DE"/>
<stop offset="0.373617" stop-color="#5E75E8"/>
<stop offset="1" stop-color="#80C6EB"/>
</linearGradient>
<linearGradient id="paint5_linear_3185_23122" x1="70.0047" y1="2.99805e-09" x2="70.0703" y2="82.6942" gradientUnits="userSpaceOnUse">
<stop stop-color="#DA88DE"/>
<stop offset="0.373617" stop-color="#5E75E8"/>
<stop offset="1" stop-color="#80C6EB"/>
</linearGradient>
<linearGradient id="paint6_linear_3185_23122" x1="70.0047" y1="2.99805e-09" x2="70.0703" y2="82.6942" gradientUnits="userSpaceOnUse">
<stop stop-color="#DA88DE"/>
<stop offset="0.373617" stop-color="#5E75E8"/>
<stop offset="1" stop-color="#80C6EB"/>
</linearGradient>
<linearGradient id="paint7_linear_3185_23122" x1="70.0047" y1="2.99805e-09" x2="70.0703" y2="82.6942" gradientUnits="userSpaceOnUse">
<stop stop-color="#DA88DE"/>
<stop offset="0.373617" stop-color="#5E75E8"/>
<stop offset="1" stop-color="#80C6EB"/>
</linearGradient>
<linearGradient id="paint8_linear_3185_23122" x1="70.0047" y1="2.99805e-09" x2="70.0703" y2="82.6942" gradientUnits="userSpaceOnUse">
<stop stop-color="#DA88DE"/>
<stop offset="0.373617" stop-color="#5E75E8"/>
<stop offset="1" stop-color="#80C6EB"/>
</linearGradient>
<linearGradient id="paint9_linear_3185_23122" x1="70.0047" y1="2.99805e-09" x2="70.0703" y2="82.6942" gradientUnits="userSpaceOnUse">
<stop stop-color="#DA88DE"/>
<stop offset="0.373617" stop-color="#5E75E8"/>
<stop offset="1" stop-color="#80C6EB"/>
</linearGradient>
<linearGradient id="paint10_linear_3185_23122" x1="70.0047" y1="2.99805e-09" x2="70.0703" y2="82.6942" gradientUnits="userSpaceOnUse">
<stop stop-color="#DA88DE"/>
<stop offset="0.373617" stop-color="#5E75E8"/>
<stop offset="1" stop-color="#80C6EB"/>
</linearGradient>
<linearGradient id="paint11_linear_3185_23122" x1="70.0047" y1="2.99805e-09" x2="70.0703" y2="82.6942" gradientUnits="userSpaceOnUse">
<stop stop-color="#DA88DE"/>
<stop offset="0.373617" stop-color="#5E75E8"/>
<stop offset="1" stop-color="#80C6EB"/>
</linearGradient>
<linearGradient id="paint12_linear_3185_23122" x1="70.0047" y1="2.99805e-09" x2="70.0703" y2="82.6942" gradientUnits="userSpaceOnUse">
<stop stop-color="#DA88DE"/>
<stop offset="0.373617" stop-color="#5E75E8"/>
<stop offset="1" stop-color="#80C6EB"/>
</linearGradient>
<linearGradient id="paint13_linear_3185_23122" x1="70.0047" y1="2.99805e-09" x2="70.0703" y2="82.6942" gradientUnits="userSpaceOnUse">
<stop stop-color="#DA88DE"/>
<stop offset="0.373617" stop-color="#5E75E8"/>
<stop offset="1" stop-color="#80C6EB"/>
</linearGradient>
<linearGradient id="paint14_linear_3185_23122" x1="70.0047" y1="2.99805e-09" x2="70.0703" y2="82.6942" gradientUnits="userSpaceOnUse">
<stop stop-color="#DA88DE"/>
<stop offset="0.373617" stop-color="#5E75E8"/>
<stop offset="1" stop-color="#80C6EB"/>
</linearGradient>
<linearGradient id="paint15_linear_3185_23122" x1="70.0047" y1="2.99805e-09" x2="70.0703" y2="82.6942" gradientUnits="userSpaceOnUse">
<stop stop-color="#DA88DE"/>
<stop offset="0.373617" stop-color="#5E75E8"/>
<stop offset="1" stop-color="#80C6EB"/>
</linearGradient>
<linearGradient id="paint16_linear_3185_23122" x1="70.0047" y1="2.99805e-09" x2="70.0703" y2="82.6942" gradientUnits="userSpaceOnUse">
<stop stop-color="#DA88DE"/>
<stop offset="0.373617" stop-color="#5E75E8"/>
<stop offset="1" stop-color="#80C6EB"/>
</linearGradient>
<linearGradient id="paint17_linear_3185_23122" x1="70.0047" y1="2.99805e-09" x2="70.0703" y2="82.6942" gradientUnits="userSpaceOnUse">
<stop stop-color="#DA88DE"/>
<stop offset="0.373617" stop-color="#5E75E8"/>
<stop offset="1" stop-color="#80C6EB"/>
</linearGradient>
<linearGradient id="paint18_linear_3185_23122" x1="70.0047" y1="2.99805e-09" x2="70.0703" y2="82.6942" gradientUnits="userSpaceOnUse">
<stop stop-color="#DA88DE"/>
<stop offset="0.373617" stop-color="#5E75E8"/>
<stop offset="1" stop-color="#80C6EB"/>
</linearGradient>
<linearGradient id="paint19_linear_3185_23122" x1="70.0047" y1="2.99805e-09" x2="70.0703" y2="82.6942" gradientUnits="userSpaceOnUse">
<stop stop-color="#DA88DE"/>
<stop offset="0.373617" stop-color="#5E75E8"/>
<stop offset="1" stop-color="#80C6EB"/>
</linearGradient>
<linearGradient id="paint20_linear_3185_23122" x1="70.0047" y1="2.99805e-09" x2="70.0703" y2="82.6942" gradientUnits="userSpaceOnUse">
<stop stop-color="#DA88DE"/>
<stop offset="0.373617" stop-color="#5E75E8"/>
<stop offset="1" stop-color="#80C6EB"/>
</linearGradient>
<linearGradient id="paint21_linear_3185_23122" x1="70.0047" y1="2.99805e-09" x2="70.0703" y2="82.6942" gradientUnits="userSpaceOnUse">
<stop stop-color="#DA88DE"/>
<stop offset="0.373617" stop-color="#5E75E8"/>
<stop offset="1" stop-color="#80C6EB"/>
</linearGradient>
<linearGradient id="paint22_linear_3185_23122" x1="70.0047" y1="2.99805e-09" x2="70.0703" y2="82.6942" gradientUnits="userSpaceOnUse">
<stop stop-color="#DA88DE"/>
<stop offset="0.373617" stop-color="#5E75E8"/>
<stop offset="1" stop-color="#80C6EB"/>
</linearGradient>
<linearGradient id="paint23_linear_3185_23122" x1="70.0047" y1="2.99805e-09" x2="70.0703" y2="82.6942" gradientUnits="userSpaceOnUse">
<stop stop-color="#DA88DE"/>
<stop offset="0.373617" stop-color="#5E75E8"/>
<stop offset="1" stop-color="#80C6EB"/>
</linearGradient>
<linearGradient id="paint24_linear_3185_23122" x1="70.0047" y1="2.99805e-09" x2="70.0703" y2="82.6942" gradientUnits="userSpaceOnUse">
<stop stop-color="#DA88DE"/>
<stop offset="0.373617" stop-color="#5E75E8"/>
<stop offset="1" stop-color="#80C6EB"/>
</linearGradient>
<linearGradient id="paint25_linear_3185_23122" x1="70.0047" y1="2.99805e-09" x2="70.0703" y2="82.6942" gradientUnits="userSpaceOnUse">
<stop stop-color="#DA88DE"/>
<stop offset="0.373617" stop-color="#5E75E8"/>
<stop offset="1" stop-color="#80C6EB"/>
</linearGradient>
<linearGradient id="paint26_linear_3185_23122" x1="70.0047" y1="2.99805e-09" x2="70.0703" y2="82.6942" gradientUnits="userSpaceOnUse">
<stop stop-color="#DA88DE"/>
<stop offset="0.373617" stop-color="#5E75E8"/>
<stop offset="1" stop-color="#80C6EB"/>
</linearGradient>
<linearGradient id="paint27_linear_3185_23122" x1="70.0047" y1="2.99805e-09" x2="70.0703" y2="82.6942" gradientUnits="userSpaceOnUse">
<stop stop-color="#DA88DE"/>
<stop offset="0.373617" stop-color="#5E75E8"/>
<stop offset="1" stop-color="#80C6EB"/>
</linearGradient>
<linearGradient id="paint28_linear_3185_23122" x1="70.0047" y1="2.99805e-09" x2="70.0703" y2="82.6942" gradientUnits="userSpaceOnUse">
<stop stop-color="#DA88DE"/>
<stop offset="0.373617" stop-color="#5E75E8"/>
<stop offset="1" stop-color="#80C6EB"/>
</linearGradient>
<linearGradient id="paint29_linear_3185_23122" x1="70.0047" y1="2.99805e-09" x2="70.0703" y2="82.6942" gradientUnits="userSpaceOnUse">
<stop stop-color="#DA88DE"/>
<stop offset="0.373617" stop-color="#5E75E8"/>
<stop offset="1" stop-color="#80C6EB"/>
</linearGradient>
<linearGradient id="paint30_linear_3185_23122" x1="70.0047" y1="2.99805e-09" x2="70.0703" y2="82.6942" gradientUnits="userSpaceOnUse">
<stop stop-color="#DA88DE"/>
<stop offset="0.373617" stop-color="#5E75E8"/>
<stop offset="1" stop-color="#80C6EB"/>
</linearGradient>
<linearGradient id="paint31_linear_3185_23122" x1="70.0047" y1="2.99805e-09" x2="70.0703" y2="82.6942" gradientUnits="userSpaceOnUse">
<stop stop-color="#DA88DE"/>
<stop offset="0.373617" stop-color="#5E75E8"/>
<stop offset="1" stop-color="#80C6EB"/>
</linearGradient>
<linearGradient id="paint32_linear_3185_23122" x1="70.0047" y1="2.99805e-09" x2="70.0703" y2="82.6942" gradientUnits="userSpaceOnUse">
<stop stop-color="#DA88DE"/>
<stop offset="0.373617" stop-color="#5E75E8"/>
<stop offset="1" stop-color="#80C6EB"/>
</linearGradient>
<linearGradient id="paint33_linear_3185_23122" x1="70.0047" y1="2.99805e-09" x2="70.0703" y2="82.6942" gradientUnits="userSpaceOnUse">
<stop stop-color="#DA88DE"/>
<stop offset="0.373617" stop-color="#5E75E8"/>
<stop offset="1" stop-color="#80C6EB"/>
</linearGradient>
</defs>
</svg>
