<svg width="2825" height="2383" viewBox="0 0 2825 2383" fill="none" xmlns="http://www.w3.org/2000/svg">
<path d="M1111.73 876.219C1107.73 891.361 1094.71 895.024 1083.19 884.279L854.645 676.202C842.879 665.456 845.382 652.024 860.402 646.163L1181.07 521.121C1196.09 515.26 1204.85 523.075 1200.85 538.217L1111.73 876.219Z" fill="white"/>
<path d="M922.984 1074.04C910.718 1084.3 898.452 1080.14 895.698 1064.51L833.116 726.267C830.363 710.881 837.622 706.974 849.388 717.719L1066.92 915.783C1078.69 926.529 1078.44 943.624 1066.17 953.882L922.984 1074.04Z" fill="white"/>
<path d="M1185.33 453.716C1195.84 465.683 1192.09 480.092 1177.32 485.953L858.4 610.262C843.38 616.123 835.87 608.797 841.377 594.143L972.299 250.768C977.806 236.115 991.073 233.673 1001.59 245.639L1185.33 453.716Z" fill="white"/>
<path d="M851.39 1016.4C854.144 1031.79 849.388 1033.74 840.626 1020.55L716.964 834.213C708.203 821.025 708.954 800.022 718.466 787.323L773.789 715.033C783.301 702.578 793.565 704.776 796.569 720.162L851.39 1016.4Z" fill="white"/>
<path d="M812.339 573.14C806.832 587.794 798.071 587.794 792.814 572.896L750.508 449.32C745.502 434.423 751.009 413.664 763.025 403.162L913.722 270.062C925.738 259.56 930.744 262.979 925.237 277.632L812.339 573.14Z" fill="white"/>
<path d="M772.537 620.764C777.544 635.661 774.039 658.13 764.276 670.585L721.22 727.244C711.707 739.699 705.199 737.257 706.701 721.627L727.478 525.273C729.23 509.643 734.738 509.154 739.744 524.052L772.537 620.764Z" fill="white"/>
<path d="M942.51 178.723C947.767 184.828 942.51 198.26 930.494 209.006L862.905 268.84C850.89 279.342 849.137 277.632 858.65 265.177L915.474 190.69C924.987 177.99 937.253 172.617 942.51 178.723Z" fill="white"/>
<path d="M1370.07 1223.5C1362.06 1236.93 1347.79 1237.67 1338.78 1224.72L1161.55 973.175C1152.53 960.231 1158.04 948.265 1174.06 946.799L1530.03 910.899C1546.05 909.189 1552.56 918.958 1544.3 932.634L1370.07 1223.5Z" fill="white"/>
<path d="M1295.97 1223.75C1304.98 1236.69 1299.98 1243.04 1284.96 1238.16L951.271 1127.52C936.001 1122.39 933.498 1109.94 945.764 1099.68L1088.7 979.525C1100.97 969.268 1118.24 971.466 1127.5 984.409L1295.97 1223.75Z" fill="white"/>
<path d="M1537.54 852.53C1548.05 864.497 1543.55 875.487 1527.53 877.196L1166.3 913.585C1150.28 915.295 1140.52 904.061 1144.52 888.919L1234.89 545.788C1238.9 530.646 1250.66 527.959 1261.18 539.682L1537.54 852.53Z" fill="white"/>
<path d="M1796.88 1146.57C1807.39 1158.54 1803.14 1170.75 1787.37 1174.17L1419.88 1249.63C1404.11 1252.81 1397.86 1244.51 1406.12 1230.83L1579.34 941.671C1587.35 928.238 1602.62 926.773 1613.14 938.74L1796.88 1146.57Z" fill="white"/>
<path d="M1205.85 1339.51C1191.59 1346.83 1170.31 1344.39 1158.29 1334.13L987.569 1187.11C975.553 1176.61 978.056 1172.46 993.326 1177.34L1285.21 1274.06C1300.48 1279.18 1301.23 1289.2 1287.21 1296.77L1205.85 1339.51Z" fill="white"/>
<path d="M1602.12 1353.43C1589.61 1363.44 1567.83 1365.64 1553.31 1358.56L1434.4 1299.46C1420.14 1292.37 1421.14 1283.82 1436.91 1280.65L1753.57 1215.69C1769.34 1212.51 1772.1 1217.89 1759.58 1227.9L1602.12 1353.43Z" fill="white"/>
<path d="M1270.69 1360.51C1254.67 1359.78 1253.17 1353.18 1267.18 1345.61L1331.02 1312.15C1345.29 1304.83 1368.57 1304.58 1382.84 1311.67L1475.96 1357.82C1490.23 1364.91 1488.98 1370.28 1472.7 1369.55L1270.69 1360.51Z" fill="white"/>
<path d="M1856.21 1213.49C1861.46 1219.59 1854.45 1230.58 1840.19 1237.91L1756.33 1281.63C1742.06 1288.95 1740.81 1287 1753.07 1276.99L1823.91 1220.57C1836.18 1210.56 1850.7 1207.38 1856.21 1213.49Z" fill="white"/>
<path d="M1643.93 848.866C1628.91 854.728 1620.15 846.913 1624.15 831.771L1713.27 493.768C1717.27 478.627 1730.29 474.963 1742.06 485.709L1970.61 693.786C1982.37 704.531 1979.87 717.964 1964.85 723.825L1643.93 848.866Z" fill="white"/>
<path d="M1992.13 643.72C1994.89 659.106 1987.63 663.014 1975.86 652.268L1758.33 454.204C1746.56 443.459 1746.81 426.363 1759.08 416.106L1902.02 295.949C1914.28 285.692 1926.55 289.843 1929.3 305.474L1992.13 643.72Z" fill="white"/>
<path d="M1852.7 1119.22C1847.19 1133.87 1833.93 1136.32 1823.41 1124.35L1639.67 916.272C1629.16 904.305 1632.91 889.896 1647.68 884.034L1966.6 759.726C1981.62 753.864 1989.13 761.191 1983.62 775.844L1852.7 1119.22Z" fill="white"/>
<path d="M2108.04 535.774C2116.8 548.962 2116.05 569.966 2106.53 582.665L2051.21 654.71C2041.7 667.166 2031.44 664.968 2028.43 649.582L1973.61 353.585C1970.86 338.199 1975.61 336.246 1984.37 349.434L2108.04 535.774Z" fill="white"/>
<path d="M2074.24 920.912C2079.25 935.809 2073.74 956.568 2061.73 967.07L1911.03 1100.17C1899.01 1110.67 1894.01 1107.25 1899.51 1092.6L2012.41 796.847C2017.92 782.194 2026.68 782.194 2031.94 797.091L2074.24 920.912Z" fill="white"/>
<path d="M2097.77 844.47C2096.02 860.101 2090.51 860.589 2085.51 845.692L2052.46 748.98C2047.46 734.082 2051.21 711.614 2060.72 699.159L2104.03 642.499C2113.54 630.044 2120.05 632.486 2118.55 648.116L2097.77 844.47Z" fill="white"/>
<path d="M1909.53 1179.3C1900.01 1192 1887.75 1197.13 1882.24 1191.26C1876.98 1185.16 1882.24 1171.73 1894.26 1160.98L1962.09 1101.15C1974.11 1090.65 1975.86 1092.36 1966.35 1104.81L1909.53 1179.3Z" fill="white"/>
<path d="M1663.45 396.812C1672.47 409.756 1666.96 421.723 1650.94 423.188L1294.97 459.089C1278.95 460.798 1272.44 451.03 1280.7 437.353L1454.93 146.485C1462.94 133.053 1477.21 132.321 1486.22 145.264L1663.45 396.812Z" fill="white"/>
<path d="M1736.3 390.463C1724.03 400.72 1706.76 398.522 1697.5 385.578L1529.03 146.241C1520.02 133.298 1525.02 126.948 1540.04 131.832L1873.73 242.465C1889 247.593 1891.5 260.048 1879.24 270.306L1736.3 390.463Z" fill="white"/>
<path d="M1590.11 824.2C1586.1 839.342 1574.34 842.028 1563.82 830.306L1287.71 517.458C1277.2 505.491 1281.7 494.501 1297.72 492.792L1658.95 456.402C1674.97 454.693 1684.73 465.927 1680.73 481.069L1590.11 824.2Z" fill="white"/>
<path d="M1245.66 428.561C1237.65 441.993 1222.38 443.459 1211.86 431.492L1028.12 223.415C1017.61 211.448 1021.86 199.237 1037.63 195.818L1405.12 120.354C1420.89 117.179 1427.14 125.482 1418.88 139.159L1245.66 428.561Z" fill="white"/>
<path d="M1539.79 95.9316C1524.52 90.803 1523.77 80.7899 1537.79 73.219L1619.15 30.7245C1633.41 23.3978 1654.69 25.8401 1666.96 36.0974L1837.43 183.119C1849.45 193.62 1846.94 197.772 1831.67 192.888L1539.79 95.9316Z" fill="white"/>
<path d="M1071.43 154.301C1055.66 157.475 1052.9 152.103 1065.42 142.089L1222.63 16.5596C1235.14 6.54656 1256.92 4.34857 1271.44 11.431L1390.6 70.5326C1404.87 77.615 1403.86 86.1628 1388.09 89.3376L1071.43 154.301Z" fill="white"/>
<path d="M1494.23 57.5888C1479.96 64.9155 1456.68 65.1597 1442.41 58.0773L1349.29 11.9194C1335.02 4.83701 1336.28 -0.53586 1352.55 0.196804L1554.56 9.233C1570.58 9.96566 1572.08 16.5596 1558.07 24.1305L1494.23 57.5888Z" fill="white"/>
<path d="M1001.34 149.416C988.82 159.429 974.301 162.604 969.044 156.499C963.788 150.393 970.797 139.403 985.065 132.076L1068.93 88.3607C1083.19 81.0341 1084.45 82.9879 1072.18 93.0009L1001.34 149.416Z" fill="white"/>
<path d="M893.696 1143.4C899.954 1138.27 913.722 1143.4 924.736 1155.12L986.067 1221.3C996.831 1233.03 995.079 1234.74 982.312 1225.46L905.711 1170.02C892.945 1160.74 887.438 1148.77 893.696 1143.4Z" fill="white"/>
<path d="M1954.08 252.233C1960.34 247.105 1971.61 253.943 1979.12 267.864L2023.93 349.678C2031.44 363.598 2029.43 364.819 2019.17 352.853L1961.34 283.738C1951.33 271.771 1948.08 257.362 1954.08 252.233Z" fill="white"/>
<path d="M1919.29 199.97C1932.31 209.25 1937.56 221.217 1931.55 226.59C1925.3 231.719 1911.53 226.59 1900.51 214.867L1839.18 148.683C1828.42 136.961 1830.17 135.251 1842.94 144.532L1919.29 199.97Z" fill="white"/>
<path d="M863.656 1086.25C873.92 1098.46 877.174 1112.63 870.916 1117.75C864.658 1122.88 853.393 1116.05 845.883 1102.12L801.074 1020.31C793.565 1006.39 795.567 1005.17 805.831 1017.14L863.656 1086.25Z" fill="white"/>
<path d="M489.244 1797.62C538.91 1825.57 578.215 1863.43 607.157 1910.84C636.099 1958.61 650.749 2010.97 650.749 2067.94C650.749 2124.9 636.099 2177.62 607.157 2225.74C578.215 2273.86 538.553 2312.07 489.244 2340.38C439.577 2368.68 385.266 2382.84 325.594 2382.84C266.28 2382.84 211.611 2368.68 161.945 2340.38C112.278 2312.07 72.974 2273.86 44.0317 2225.74C15.0893 2177.62 0.439453 2124.9 0.439453 2067.94C0.439453 2010.97 15.0893 1958.61 44.0317 1910.84C72.974 1863.07 112.636 1825.57 161.945 1797.62C211.611 1769.66 265.923 1755.87 325.594 1755.87C385.266 1755.51 439.577 1769.66 489.244 1797.62ZM194.818 1844.68C154.441 1867.67 122.283 1898.81 98.7006 1938.08C74.7606 1977.36 62.9692 2020.88 62.9692 2067.94C62.9692 2115 74.7606 2158.52 98.7006 2198.5C122.283 2238.48 154.441 2269.97 194.818 2293.32C235.194 2316.67 279.144 2328.35 326.666 2328.35C373.474 2328.35 417.066 2316.67 457.086 2293.32C497.105 2269.97 529.263 2238.48 552.846 2198.5C576.428 2158.52 588.577 2115 588.577 2067.94C588.577 2010.62 570.711 1958.61 535.337 1912.61C518.186 1890.32 497.105 1870.5 473.522 1854.94C428.858 1825.22 379.906 1810.35 326.666 1810.35C279.144 1810.35 235.194 1821.68 194.818 1844.68Z" fill="white"/>
<path d="M1309.63 2364.79L1183.86 2176.56C1164.92 2177.62 1150.27 2178.33 1140.27 2178.33H969.115V2348.87C969.115 2364.79 956.252 2377.53 940.173 2377.53H936.6C920.521 2377.53 907.657 2364.79 907.657 2348.87V1760.82H1140.27C1218.16 1760.82 1278.19 1778.51 1320.71 1814.25C1363.23 1849.98 1384.31 1900.23 1384.31 1965.68C1384.31 2016.99 1371.81 2059.45 1346.8 2093.77C1321.78 2127.73 1286.05 2151.79 1239.96 2165.24L1357.87 2332.6C1371.45 2351.7 1357.51 2377.88 1333.93 2377.88C1324.28 2377.88 1314.99 2372.93 1309.63 2364.79ZM1140.27 2123.49C1199.58 2123.49 1245.32 2110.04 1277.48 2083.5C1309.63 2056.61 1325.71 2018.05 1325.71 1967.45C1325.71 1917.92 1309.63 1880.41 1277.48 1854.58C1245.32 1828.75 1199.58 1815.66 1140.27 1815.66H969.115V2123.49H1140.27Z" fill="white"/>
<path d="M2080.72 1801.16C2116.09 1828.4 2133.6 1866.26 2133.6 1914.38C2133.6 1950.82 2123.24 1981.6 2102.87 2006.02C2082.5 2030.79 2053.56 2047.06 2016.76 2054.49C2062.49 2060.51 2098.22 2077.14 2123.59 2104.73C2148.96 2132.33 2161.83 2167.36 2161.83 2209.82C2161.83 2262.89 2141.82 2303.94 2102.16 2333.3C2062.49 2362.67 2007.11 2377.53 1936.36 2377.53H1672.66V1760.11H1933.86C1996.39 1760.11 2045.34 1773.56 2080.72 1801.16ZM2033.91 2003.9C2058.21 1984.79 2070.35 1957.54 2070.35 1922.16C2070.35 1888.2 2058.21 1861.66 2033.91 1842.91C2009.61 1824.15 1975.31 1814.95 1931.36 1815.66H1734.48V2032.55H1931.36C1975.31 2032.55 2009.61 2023 2033.91 2003.9ZM2055.7 2291.55C2085 2270.68 2099.65 2241.31 2099.65 2203.8C2099.65 2166.65 2084.65 2137.99 2054.99 2117.47C2025.33 2096.95 1983.88 2086.69 1931 2086.69H1734.12V2323.04H1931C1984.96 2323.04 2026.4 2312.43 2055.7 2291.55Z" fill="white"/>
<path d="M2697.08 1824.86C2666.71 1816.37 2638.12 1812.12 2611.68 1812.12C2568.81 1812.12 2534.5 1820.62 2508.78 1837.24C2483.05 1853.87 2470.19 1876.87 2470.19 1905.53C2470.19 1931.01 2477.33 1951.53 2491.63 1967.45C2505.92 1983.37 2523.43 1995.76 2544.15 2004.96C2564.88 2014.16 2593.46 2024.06 2629.55 2035.39C2671.71 2047.77 2705.66 2059.8 2731.74 2071.83C2757.47 2083.86 2779.62 2101.55 2797.84 2124.19C2816.07 2147.19 2825 2177.62 2825 2215.13C2825 2248.03 2815.71 2277.05 2796.77 2302.52C2778.19 2328 2751.75 2347.46 2717.81 2361.26C2683.86 2375.05 2644.91 2382.13 2600.96 2382.13C2557.73 2382.13 2515.21 2373.64 2474.12 2356.66C2440.89 2342.86 2411.23 2325.52 2385.5 2304.64C2374.78 2295.8 2372.28 2280.94 2378.72 2268.91C2387.29 2253.69 2407.3 2249.8 2420.88 2260.42C2442.67 2277.4 2466.61 2291.2 2493.06 2302.17C2529.86 2317.38 2565.95 2325.17 2601.68 2325.17C2649.2 2325.17 2687.08 2315.61 2714.95 2296.51C2742.82 2277.4 2756.75 2251.57 2756.75 2219.37C2756.75 2193.54 2749.61 2172.31 2735.31 2155.68C2721.02 2139.05 2703.51 2126.67 2682.79 2117.83C2662.06 2108.98 2632.76 2098.72 2595.6 2087.04C2553.44 2073.95 2519.5 2061.92 2494.13 2050.6C2468.4 2039.28 2446.96 2021.94 2429.1 1999.29C2411.23 1976.65 2402.3 1946.93 2402.3 1910.49C2402.3 1879.35 2411.23 1852.11 2429.1 1828.4C2446.96 1805.05 2471.97 1786.65 2504.13 1774.26C2536.29 1761.53 2573.45 1755.16 2615.61 1755.16C2649.56 1755.16 2683.5 1760.11 2717.81 1770.02C2741.39 1777.09 2763.18 1785.59 2783.19 1795.49C2797.49 1802.57 2803.2 1819.55 2796.06 1833.71L2795.34 1835.48C2788.2 1849.63 2770.69 1854.94 2756.4 1847.51C2737.1 1838.31 2717.45 1830.88 2697.08 1824.86Z" fill="white"/>
</svg>
