<svg width="1413" height="1370" viewBox="0 0 1413 1370" fill="none" xmlns="http://www.w3.org/2000/svg">
<path d="M405.719 876.314C401.714 891.456 388.697 895.119 377.182 884.373L148.632 676.297C136.867 665.551 139.37 652.119 154.39 646.257L475.06 521.216C490.08 515.354 498.841 523.17 494.836 538.311L405.719 876.314Z" fill="white"/>
<path d="M216.972 1074.13C204.706 1084.39 192.44 1080.24 189.686 1064.61L127.104 726.362C124.351 710.976 131.61 707.068 143.376 717.814L360.91 915.878C372.676 926.623 372.425 943.719 360.159 953.976L216.972 1074.13Z" fill="white"/>
<path d="M479.316 453.811C489.829 465.778 486.074 480.187 471.305 486.048L152.387 610.357C137.368 616.218 129.858 608.891 135.365 594.238L266.287 250.863C271.794 236.209 285.061 233.767 295.575 245.734L479.316 453.811Z" fill="white"/>
<path d="M145.378 1016.5C148.132 1031.88 143.376 1033.84 134.614 1020.65L10.9521 834.308C2.19064 821.12 2.94162 800.117 12.4541 787.417L67.7765 715.128C77.289 702.672 87.5524 704.87 90.5564 720.256L145.378 1016.5Z" fill="white"/>
<path d="M106.327 573.235C100.82 587.888 92.0583 587.888 86.8015 572.991L44.496 449.415C39.4895 434.517 44.9967 413.758 57.0124 403.257L207.71 270.156C219.726 259.655 224.732 263.074 219.225 277.727L106.327 573.235Z" fill="white"/>
<path d="M66.5249 620.858C71.5314 635.756 68.0268 658.224 58.2641 670.68L15.2077 727.339C5.69524 739.794 -0.81329 737.352 0.688676 721.722L21.4659 525.368C23.2182 509.737 28.7254 509.249 33.732 524.147L66.5249 620.858Z" fill="white"/>
<path d="M236.497 178.817C241.754 184.923 236.497 198.355 224.482 209.101L156.893 268.935C144.878 279.437 143.125 277.727 152.638 265.272L209.462 190.784C218.975 178.085 231.241 172.712 236.497 178.817Z" fill="white"/>
<path d="M664.057 1223.6C656.047 1237.03 641.778 1237.76 632.767 1224.82L455.534 973.27C446.523 960.326 452.03 948.359 468.051 946.894L824.017 910.993C840.038 909.284 846.546 919.053 838.286 932.729L664.057 1223.6Z" fill="white"/>
<path d="M589.96 1223.84C598.972 1236.78 593.966 1243.13 578.946 1238.25L245.259 1127.62C229.989 1122.49 227.486 1110.03 239.752 1099.78L382.689 979.62C394.955 969.362 412.228 971.56 421.49 984.504L589.96 1223.84Z" fill="white"/>
<path d="M831.527 852.625C842.04 864.591 837.535 875.581 821.514 877.291L460.291 913.68C444.27 915.389 434.507 904.155 438.512 889.014L528.88 545.882C532.886 530.741 544.651 528.054 555.165 539.777L831.527 852.625Z" fill="white"/>
<path d="M1090.87 1146.67C1101.38 1158.63 1097.12 1170.85 1081.35 1174.26L713.873 1249.73C698.102 1252.9 691.844 1244.6 700.105 1230.92L873.331 941.765C881.342 928.333 896.612 926.868 907.126 938.835L1090.87 1146.67Z" fill="white"/>
<path d="M499.842 1339.6C485.574 1346.93 464.296 1344.49 452.28 1334.23L281.556 1187.21C269.541 1176.71 272.044 1172.55 287.314 1177.44L579.196 1274.15C594.466 1279.28 595.217 1289.29 581.199 1296.86L499.842 1339.6Z" fill="white"/>
<path d="M896.111 1353.52C883.595 1363.54 861.816 1365.73 847.297 1358.65L728.392 1299.55C714.123 1292.47 715.124 1283.92 730.895 1280.74L1047.56 1215.78C1063.33 1212.61 1066.08 1217.98 1053.57 1227.99L896.111 1353.52Z" fill="white"/>
<path d="M564.677 1360.6C548.656 1359.87 547.154 1353.28 561.173 1345.71L625.006 1312.25C639.275 1304.92 662.555 1304.68 676.824 1311.76L769.946 1357.92C784.215 1365 782.963 1370.37 766.692 1369.64L564.677 1360.6Z" fill="white"/>
<path d="M1150.19 1213.58C1155.45 1219.69 1148.44 1230.68 1134.17 1238.01L1050.31 1281.72C1036.04 1289.05 1034.79 1287.09 1047.06 1277.08L1117.9 1220.67C1130.17 1210.65 1144.69 1207.48 1150.19 1213.58Z" fill="white"/>
<path d="M937.916 848.961C922.896 854.822 914.135 847.007 918.14 831.866L1007.26 493.863C1011.26 478.721 1024.28 475.058 1036.04 485.804L1264.59 693.88C1276.36 704.626 1273.86 718.058 1258.84 723.92L937.916 848.961Z" fill="white"/>
<path d="M1286.12 643.815C1288.88 659.201 1281.62 663.109 1269.85 652.363L1052.32 454.299C1040.55 443.553 1040.8 426.458 1053.07 416.201L1196 296.044C1208.27 285.786 1220.54 289.938 1223.29 305.568L1286.12 643.815Z" fill="white"/>
<path d="M1146.69 1119.31C1141.18 1133.97 1127.91 1136.41 1117.4 1124.44L933.66 916.366C923.147 904.399 926.902 889.99 941.671 884.129L1260.59 759.82C1275.61 753.959 1283.12 761.286 1277.61 775.939L1146.69 1119.31Z" fill="white"/>
<path d="M1402.02 535.869C1410.79 549.057 1410.03 570.06 1400.52 582.76L1345.2 654.805C1335.69 667.26 1325.42 665.062 1322.42 649.677L1267.6 353.68C1264.84 338.294 1269.6 336.34 1278.36 349.528L1402.02 535.869Z" fill="white"/>
<path d="M1368.23 921.006C1373.24 935.904 1367.73 956.663 1355.71 967.164L1205.02 1100.27C1193 1110.77 1187.99 1107.35 1193.5 1092.69L1306.4 796.942C1311.91 782.289 1320.67 782.289 1325.92 797.186L1368.23 921.006Z" fill="white"/>
<path d="M1391.76 844.565C1390.01 860.195 1384.5 860.684 1379.49 845.786L1346.45 749.075C1341.44 734.177 1345.2 711.709 1354.71 699.253L1398.02 642.594C1407.53 630.139 1414.04 632.581 1412.54 648.211L1391.76 844.565Z" fill="white"/>
<path d="M1203.51 1179.39C1194 1192.09 1181.74 1197.22 1176.23 1191.36C1170.97 1185.25 1176.23 1171.82 1188.24 1161.08L1256.08 1101.24C1268.1 1090.74 1269.85 1092.45 1260.34 1104.91L1203.51 1179.39Z" fill="white"/>
<path d="M957.442 396.907C966.453 409.851 960.946 421.818 944.925 423.283L588.959 459.184C572.938 460.893 566.429 451.124 574.69 437.448L748.918 146.58C756.929 133.148 771.198 132.415 780.21 145.359L957.442 396.907Z" fill="white"/>
<path d="M1030.29 390.557C1018.02 400.815 1000.75 398.617 991.486 385.673L823.016 146.336C814.004 133.392 819.01 127.042 834.03 131.927L1167.72 242.559C1182.99 247.688 1185.49 260.143 1173.22 270.4L1030.29 390.557Z" fill="white"/>
<path d="M884.096 824.295C880.09 839.437 868.325 842.123 857.811 830.4L581.7 517.553C571.186 505.586 575.692 494.596 591.713 492.886L952.936 456.497C968.957 454.788 978.719 466.022 974.714 481.164L884.096 824.295Z" fill="white"/>
<path d="M539.644 428.656C531.634 442.088 516.364 443.554 505.85 431.587L322.11 223.51C311.596 211.543 315.851 199.332 331.622 195.913L699.103 120.448C714.874 117.274 721.132 125.577 712.871 139.254L539.644 428.656Z" fill="white"/>
<path d="M833.78 96.0263C818.51 90.8977 817.759 80.8846 831.777 73.3137L913.134 30.8192C927.402 23.4926 948.68 25.9348 960.946 36.1921L1131.42 183.213C1143.44 193.715 1140.93 197.867 1125.66 192.982L833.78 96.0263Z" fill="white"/>
<path d="M365.416 154.395C349.646 157.57 346.892 152.197 359.408 142.184L516.614 16.6544C529.131 6.64129 550.909 4.44329 565.428 11.5257L684.584 70.6273C698.853 77.7097 697.852 86.2575 682.081 89.4324L365.416 154.395Z" fill="white"/>
<path d="M788.22 57.6836C773.951 65.0102 750.671 65.2544 736.402 58.172L643.28 12.0142C629.011 4.93174 630.263 -0.441133 646.534 0.291531L848.549 9.32772C864.57 10.0604 866.072 16.6544 852.054 24.2252L788.22 57.6836Z" fill="white"/>
<path d="M295.325 149.511C282.808 159.524 268.289 162.699 263.032 156.593C257.775 150.488 264.785 139.498 279.053 132.171L362.913 88.4555C377.182 81.1288 378.433 83.0826 366.167 93.0957L295.325 149.511Z" fill="white"/>
<path d="M187.684 1143.49C193.942 1138.36 207.71 1143.49 218.724 1155.21L280.055 1221.4C290.819 1233.12 289.066 1234.83 276.3 1225.55L199.699 1170.11C186.933 1160.83 181.425 1148.87 187.684 1143.49Z" fill="white"/>
<path d="M1248.07 252.328C1254.33 247.199 1265.6 254.038 1273.1 267.958L1317.91 349.772C1325.42 363.693 1323.42 364.914 1313.16 352.947L1255.33 283.833C1245.32 271.866 1242.06 257.457 1248.07 252.328Z" fill="white"/>
<path d="M1213.28 200.065C1226.29 209.345 1231.55 221.312 1225.54 226.685C1219.28 231.813 1205.52 226.685 1194.5 214.962L1133.17 148.778C1122.41 137.056 1124.16 135.346 1136.93 144.626L1213.28 200.065Z" fill="white"/>
<path d="M157.644 1086.34C167.908 1098.56 171.162 1112.72 164.904 1117.85C158.646 1122.98 147.381 1116.14 139.871 1102.22L95.0622 1020.4C87.5524 1006.48 89.5551 1005.26 99.8185 1017.23L157.644 1086.34Z" fill="white"/>
</svg>
