<?xml version="1.0" encoding="utf-8"?>
<!-- Generator: Adobe Illustrator 25.2.0, SVG Export Plug-In . SVG Version: 6.00 Build 0)  -->
<svg version="1.1" id="Layer_1" xmlns="http://www.w3.org/2000/svg" xmlns:xlink="http://www.w3.org/1999/xlink" x="0px" y="0px"
	 viewBox="0 0 19 11" style="enable-background:new 0 0 19 11;" xml:space="preserve">
<path d="M1.2,0h16.5C18.4,0,19,0.6,19,1.2l0,0c0,0.7-0.6,1.2-1.2,1.2H1.2C0.6,2.5,0,1.9,0,1.2l0,0C0,0.6,0.6,0,1.2,0z"/>
<path d="M1.2,4.1h16.5c0.7,0,1.2,0.6,1.2,1.2l0,0c0,0.7-0.6,1.2-1.2,1.2H1.2C0.6,6.6,0,6.1,0,5.4l0,0C0,4.7,0.6,4.1,1.2,4.1z"/>
<path d="M1.2,8.3h16.5c0.7,0,1.2,0.6,1.2,1.2l0,0c0,0.7-0.6,1.2-1.2,1.2H1.2C0.6,10.7,0,10.2,0,9.5l0,0C0,8.8,0.6,8.3,1.2,8.3z"/>
</svg>
