<svg xmlns="http://www.w3.org/2000/svg" xmlns:xlink="http://www.w3.org/1999/xlink" width="20" height="16.321" viewBox="0 0 20 16.321"><defs><style>.a{fill:none;}.b{clip-path:url(#a);}.c{fill:#fff4f4;}.d{clip-path:url(#b);}.e{fill:#eae0dc;}.f{clip-path:url(#c);}.g{clip-path:url(#d);}.h{fill:#ff3838;}.i{clip-path:url(#e);}.j{fill:#d10000;}</style><clipPath id="a"><path class="a" d="M1544-236.679h18.745V-253H1544Z" transform="translate(-1544 253)"/></clipPath><clipPath id="b"><path class="a" d="M1553.5-236.679h10.628V-253H1553.5Z" transform="translate(-1553.5 253)"/></clipPath><clipPath id="c"><path class="a" d="M1554.024-240.417a4.935,4.935,0,0,0,4.935-4.934,4.935,4.935,0,0,0-4.935-4.934,4.935,4.935,0,0,0-4.935,4.934A4.935,4.935,0,0,0,1554.024-240.417Z" transform="translate(-1549.089 250.286)"/></clipPath><clipPath id="d"><path class="a" d="M-171,872.218H1976.935V-336H-171Z" transform="translate(171 336)"/></clipPath><clipPath id="e"><path class="a" d="M1558.435-245.351a4.935,4.935,0,0,0-4.935-4.934v9.869A4.935,4.935,0,0,0,1558.435-245.351Z" transform="translate(-1553.5 250.286)"/></clipPath></defs><g transform="translate(-1356 -51.402)"><g class="b" transform="translate(1356 51.402)"><path class="c" d="M1539-258h28.61v27.509H1539Z" transform="translate(-1543.933 252.406)"/></g><g class="d" transform="translate(1365.372 51.402)"><path class="e" d="M1548.5-258h21.815v27.509H1548.5Z" transform="translate(-1554.093 252.406)"/></g><g class="f" transform="translate(1361.065 54.438)"><g class="g" transform="translate(-1924.292 -95.89)"><path class="h" d="M1544.089-255.286h21.057v21.056h-21.057Z" transform="translate(374.609 345.582)"/></g></g><g class="i" transform="translate(1365.81 54.438)"><g class="g" transform="translate(-1929.226 -95.89)"><path class="j" d="M1548.5-255.286h16.122v21.056H1548.5Z" transform="translate(375.133 345.582)"/></g></g></g></svg>