<svg xmlns="http://www.w3.org/2000/svg" xmlns:xlink="http://www.w3.org/1999/xlink" width="20" height="15.743" viewBox="0 0 20 15.743"><defs><style>.a{fill:none;}.b{clip-path:url(#a);}.c{fill:#fff4f4;}.d{clip-path:url(#b);}.e{fill:#eae0dc;}.f{clip-path:url(#c);}.g{clip-path:url(#d);}.h{fill:#1b77be;}.i{clip-path:url(#e);}.j{fill:#ff3838;}.k{clip-path:url(#g);}.l{fill:#1864a0;}.m{clip-path:url(#i);}.n{fill:#d10000;}.o{clip-path:url(#k);}.p{fill:#2d2d2d;}.q{clip-path:url(#m);}.r{clip-path:url(#o);}.s{fill:#454545;}.t{clip-path:url(#q);}</style><clipPath id="a"><path class="a" d="M1504-237.257h20V-253h-20Z" transform="translate(-1504 253)"/></clipPath><clipPath id="b"><path class="a" d="M1512.836-237.257h10.251V-253h-10.251Z" transform="translate(-1512.836 253)"/></clipPath><clipPath id="c"><path class="a" d="M1515.832-246.57a1.753,1.753,0,0,0-2.376.876,1.753,1.753,0,0,1-2.376.876,1.884,1.884,0,0,1-.914-2.291,3.812,3.812,0,0,0-.274,1.426,3.63,3.63,0,0,0,3.556,3.7,3.565,3.565,0,0,0,3.328-2.394A1.88,1.88,0,0,0,1515.832-246.57Z" transform="translate(-1509.891 247.109)"/></clipPath><clipPath id="d"><path class="a" d="M-171,872.218H1976.935V-336H-171Z" transform="translate(171 336)"/></clipPath><clipPath id="e"><path class="a" d="M1513.283-249.4a3.572,3.572,0,0,0-3.29,2.328,1.947,1.947,0,0,0,.917,2.346,1.742,1.742,0,0,0,2.382-.9,1.742,1.742,0,0,1,2.382-.9,1.944,1.944,0,0,1,.947,2.246,3.991,3.991,0,0,0,.228-1.337,3.682,3.682,0,0,0-3.564-3.789Z" transform="translate(-1509.891 249.4)"/></clipPath><clipPath id="g"><path class="a" d="M1515.4-246.6a1.951,1.951,0,0,0-2.558.875.117.117,0,0,1-.009.016v3.688a3.828,3.828,0,0,0,3.584-2.39A1.829,1.829,0,0,0,1515.4-246.6Z" transform="translate(-1512.836 246.782)"/></clipPath><clipPath id="i"><path class="a" d="M1512.845-245.623a1.808,1.808,0,0,1,2.446-.9,1.922,1.922,0,0,1,.972,2.246,3.884,3.884,0,0,0,.235-1.337,3.727,3.727,0,0,0-3.662-3.789v3.794l.009-.017Z" transform="translate(-1512.836 249.4)"/></clipPath><clipPath id="k"><path class="a" d="M1515.608-250.733l.832-.859,2.359,2.408-.832.859Z" transform="translate(-1515.608 251.592)"/></clipPath><clipPath id="m"><path class="a" d="M1515.611-240.882l2.359-2.408.832.859-2.359,2.408Z" transform="translate(-1515.611 243.291)"/></clipPath><clipPath id="o"><path class="a" d="M1507.288-242.348l.85-.871,2.411,2.442-.85.871Z" transform="translate(-1507.288 243.219)"/></clipPath><clipPath id="q"><path class="a" d="M1507.285-249.213l2.411-2.442.85.871-2.411,2.442Z" transform="translate(-1507.285 251.655)"/></clipPath></defs><g transform="translate(-1319.996 -51.402)"><g class="b" transform="translate(1319.996 51.402)"><path class="c" d="M1499-258h31.111v26.931H1499Z" transform="translate(-1504.555 252.406)"/></g><g class="d" transform="translate(1329.744 51.402)"><path class="e" d="M1507.836-258h21.439v26.931h-21.439Z" transform="translate(-1513.43 252.406)"/></g><g class="f" transform="translate(1326.518 57.992)"><g class="g" transform="translate(-1880.44 -99.444)"><path class="h" d="M1504.891-252.109h18.143V-235.8h-18.143Z" transform="translate(369.955 345.96)"/></g></g><g class="i" transform="translate(1326.518 55.429)"><g class="g" transform="translate(-1880.44 -96.881)"><path class="j" d="M1504.891-254.4h18.143v16.313h-18.143Z" transform="translate(369.955 345.688)"/></g></g><g class="k" transform="translate(1329.799 58.358)"><g class="g" transform="translate(-1883.735 -99.81)"><path class="l" d="M1507.836-251.782h14.849v15.947h-14.849Z" transform="translate(370.305 345.998)"/></g></g><g class="m" transform="translate(1329.799 55.429)"><g class="g" transform="translate(-1883.735 -96.881)"><path class="n" d="M1507.836-254.4h14.849v16.313h-14.849Z" transform="translate(370.305 345.688)"/></g></g><g class="o" transform="translate(1332.877 52.977)"><g class="g" transform="translate(-1886.836 -94.429)"><path class="p" d="M1508.5-249.851l8.762-8.812,10.334,10.276-8.763,8.812Z" transform="translate(370.384 345.181)"/></g></g><g class="q" transform="translate(1332.88 62.264)"><g class="g" transform="translate(-1886.839 -103.716)"><path class="p" d="M1508.5-240.085l10.333-10.276,8.763,8.812-10.335,10.276Z" transform="translate(370.384 346.167)"/></g></g><g class="r" transform="translate(1323.645 62.344)"><g class="g" transform="translate(-1877.528 -103.796)"><path class="s" d="M1500.19-241.471l8.769-8.818,10.374,10.316-8.768,8.818Z" transform="translate(369.397 346.176)"/></g></g><g class="t" transform="translate(1323.641 52.906)"><g class="g" transform="translate(-1877.525 -94.359)"><path class="s" d="M1500.187-248.41l10.374-10.316,8.769,8.818-10.374,10.316Z" transform="translate(369.397 345.174)"/></g></g></g></svg>