<svg xmlns="http://www.w3.org/2000/svg" xmlns:xlink="http://www.w3.org/1999/xlink" width="20" height="15.357" viewBox="0 0 20 15.357"><defs><style>.a{fill:none;}.b{clip-path:url(#a);}.c{fill:#ff3838;}.d{clip-path:url(#b);}.e{fill:#d10000;}.f{clip-path:url(#c);}.g{fill:#eae0dc;}.h{clip-path:url(#d);}.i{clip-path:url(#e);}.j{fill:#1b77be;}.k{clip-path:url(#f);}.l{fill:#fff4f4;}.m{clip-path:url(#g);}.n{clip-path:url(#h);}.o{clip-path:url(#i);}.p{clip-path:url(#j);}.q{clip-path:url(#k);}.r{clip-path:url(#l);}.s{clip-path:url(#m);}.t{clip-path:url(#n);}.u{clip-path:url(#p);}.v{clip-path:url(#r);}.w{clip-path:url(#t);}.x{clip-path:url(#v);}</style><clipPath id="a"><path class="a" d="M1463-237.643h20V-253h-20Z" transform="translate(-1463 253)"/></clipPath><clipPath id="b"><path class="a" d="M1472.5-237.643h10.628V-253H1472.5Z" transform="translate(-1472.5 253)"/></clipPath><clipPath id="c"><path class="a" d="M1471.482-250.125h11.766v-1.518h-11.766Z" transform="translate(-1471.482 251.643)"/></clipPath><clipPath id="d"><path class="a" d="M1471.482-247.41h11.766v-1.518h-11.766Z" transform="translate(-1471.482 248.929)"/></clipPath><clipPath id="e"><path class="a" d="M1463-245.029h10.628V-253H1463Z" transform="translate(-1463 253)"/></clipPath><clipPath id="f"><path class="a" d="M1463-245.035h20v-1.518h-20Z" transform="translate(-1463 246.554)"/></clipPath><clipPath id="g"><path class="a" d="M1463-242.321h20v-1.518h-20Z" transform="translate(-1463 243.839)"/></clipPath><clipPath id="h"><path class="a" d="M1463-239.607h20v-1.518h-20Z" transform="translate(-1463 241.125)"/></clipPath><clipPath id="i"><path class="a" d="M1472.5-245.035h10.628v-1.518H1472.5Z" transform="translate(-1472.5 246.554)"/></clipPath><clipPath id="j"><path class="a" d="M1472.5-242.321h10.628v-1.518H1472.5Z" transform="translate(-1472.5 243.839)"/></clipPath><clipPath id="k"><path class="a" d="M1472.5-239.607h10.628v-1.518H1472.5Z" transform="translate(-1472.5 241.125)"/></clipPath><clipPath id="l"><path class="a" d="M1465.648-251.613l.937.936-.937.936-.936-.936Z" transform="translate(-1464.712 251.613)"/></clipPath><clipPath id="m"><path class="a" d="M-171,872.218H1976.935V-336H-171Z" transform="translate(171 336)"/></clipPath><clipPath id="n"><path class="a" d="M1468.019-251.613l.936.936-.936.936-.937-.936Z" transform="translate(-1467.082 251.613)"/></clipPath><clipPath id="p"><path class="a" d="M1470.39-251.613l.936.936-.936.936-.937-.936Z" transform="translate(-1469.452 251.613)"/></clipPath><clipPath id="r"><path class="a" d="M1465.649-249.246l.936.936-.936.936-.937-.936Z" transform="translate(-1464.712 249.246)"/></clipPath><clipPath id="t"><path class="a" d="M1468.019-249.247l.936.936-.936.936-.937-.936Z" transform="translate(-1467.082 249.247)"/></clipPath><clipPath id="v"><path class="a" d="M1470.39-249.247l.937.936-.937.936-.937-.936Z" transform="translate(-1469.453 249.247)"/></clipPath></defs><g transform="translate(-1283.248 -51.402)"><g class="b" transform="translate(1283.248 51.402)"><path class="c" d="M1458-258h30.526v25.883H1458Z" transform="translate(-1463.263 252.737)"/></g><g class="d" transform="translate(1292.62 51.402)"><path class="e" d="M1467.5-258h21.815v25.883H1467.5Z" transform="translate(-1473.093 252.737)"/></g><g class="f" transform="translate(1291.481 52.92)"><path class="g" d="M1466.482-256.643h22.954v12.706h-22.954Z" transform="translate(-1472.076 251.049)"/></g><g class="h" transform="translate(1291.481 55.66)"><path class="g" d="M1466.482-253.929h22.954v12.706h-22.954Z" transform="translate(-1472.076 248.335)"/></g><g class="i" transform="translate(1283.248 51.402)"><path class="j" d="M1458-258h21.815v19.158H1458Z" transform="translate(-1463.593 252.406)"/></g><g class="k" transform="translate(1283.248 58.144)"><path class="l" d="M1458-251.554h30.526v12.706H1458Z" transform="translate(-1463.263 245.96)"/></g><g class="m" transform="translate(1283.248 60.982)"><path class="l" d="M1458-248.839h30.526v12.706H1458Z" transform="translate(-1463.263 243.246)"/></g><g class="n" transform="translate(1283.248 63.722)"><path class="l" d="M1458-246.125h30.526v12.705H1458Z" transform="translate(-1463.263 240.531)"/></g><g class="o" transform="translate(1292.62 58.144)"><path class="g" d="M1467.5-251.554h21.815v12.706H1467.5Z" transform="translate(-1473.093 245.96)"/></g><g class="p" transform="translate(1292.62 60.982)"><path class="g" d="M1467.5-248.839h21.815v12.706H1467.5Z" transform="translate(-1473.093 243.246)"/></g><g class="q" transform="translate(1292.62 63.722)"><path class="g" d="M1467.5-246.125h21.815v12.705H1467.5Z" transform="translate(-1473.093 240.531)"/></g><g class="r" transform="translate(1285.163 52.953)"><g class="s" transform="translate(-1829.898 -94.406)"><path class="l" d="M1466.488-258.685l8.848,8.847-8.848,8.847-8.847-8.847Z" transform="translate(364.346 345.179)"/></g></g><g class="t" transform="translate(1287.519 52.953)"><g class="s" transform="translate(-1832.549 -94.405)"><path class="l" d="M1468.859-258.685l8.847,8.847-8.847,8.847-8.848-8.847Z" transform="translate(364.628 345.179)"/></g></g><g class="u" transform="translate(1289.999 52.953)"><g class="s" transform="translate(-1835.2 -94.405)"><path class="l" d="M1471.229-258.685l8.847,8.847-8.847,8.847-8.848-8.847Z" transform="translate(364.909 345.179)"/></g></g><g class="v" transform="translate(1285.163 55.321)"><g class="s" transform="translate(-1829.898 -97.053)"><path class="l" d="M1466.489-256.318l8.847,8.847-8.847,8.847-8.848-8.847Z" transform="translate(364.346 345.46)"/></g></g><g class="w" transform="translate(1287.519 55.32)"><g class="s" transform="translate(-1832.549 -97.053)"><path class="l" d="M1468.859-256.319l8.847,8.847-8.847,8.847-8.848-8.847Z" transform="translate(364.628 345.46)"/></g></g><g class="x" transform="translate(1290 55.32)"><g class="s" transform="translate(-1835.201 -97.052)"><path class="l" d="M1471.229-256.319l8.848,8.847-8.848,8.847-8.847-8.847Z" transform="translate(364.909 345.46)"/></g></g></g></svg>