<svg width="225" height="37" viewBox="0 0 225 37" fill="none" xmlns="http://www.w3.org/2000/svg">
<g clip-path="url(#clip0_4085_29256)">
<path d="M135.188 15.9387L130.445 15.9426V15.8994H135.188V15.9387Z" fill="#7378E6"/>
<path d="M135.188 15.9429H130.445V16.0136H135.188V15.9429Z" fill="#7278E6"/>
<path d="M135.188 16.0093H130.445V16.08H135.188V16.0093Z" fill="#7178E6"/>
<path d="M135.188 16.0801H130.445V16.1508H135.188V16.0801Z" fill="#7078E7"/>
<path d="M135.188 16.147H130.445V16.2177H135.188V16.147Z" fill="#6F78E7"/>
<path d="M135.188 16.2178H130.445V16.2885H135.188V16.2178Z" fill="#6E77E7"/>
<path d="M135.188 16.2842H130.445V16.3549H135.188V16.2842Z" fill="#6D77E7"/>
<path d="M135.188 16.355H130.445V16.4257H135.188V16.355Z" fill="#6C77E7"/>
<path d="M135.188 16.4258H130.445V16.4965H135.188V16.4258Z" fill="#6B77E7"/>
<path d="M135.188 16.4927H130.445V16.5634H135.188V16.4927Z" fill="#6A77E7"/>
<path d="M135.188 16.5635H130.445V16.6342H135.188V16.5635Z" fill="#6977E7"/>
<path d="M135.188 16.6304H130.445V16.7011H135.188V16.6304Z" fill="#6877E7"/>
<path d="M135.188 16.7007H130.445V16.7714H135.188V16.7007Z" fill="#6776E7"/>
<path d="M135.188 16.7715H130.445V16.8422H135.188V16.7715Z" fill="#6676E7"/>
<path d="M135.188 16.8384H130.445V16.9091H135.188V16.8384Z" fill="#6576E7"/>
<path d="M135.188 16.9092H130.445V16.9799H135.188V16.9092Z" fill="#6476E8"/>
<path d="M135.188 16.9761H130.445V17.0468H135.188V16.9761Z" fill="#6376E8"/>
<path d="M135.188 17.0464H130.445V17.1171H135.188V17.0464Z" fill="#6276E8"/>
<path d="M135.188 17.1133H130.445V17.184H135.188V17.1133Z" fill="#6175E8"/>
<path d="M135.188 17.1841H130.445V17.2548H135.188V17.1841Z" fill="#6075E8"/>
<path d="M135.188 17.2549H130.445V17.3256H135.188V17.2549Z" fill="#5F75E8"/>
<path d="M135.188 17.3218H130.445V17.3925H135.188V17.3218Z" fill="#5E75E8"/>
<path d="M135.188 17.3921H130.445V17.5689H135.188V17.3921Z" fill="#5E75E8"/>
<path d="M135.188 17.5688H130.445V17.7456H135.188V17.5688Z" fill="#5E76E8"/>
<path d="M135.188 17.7461H130.445V17.9229H135.188V17.7461Z" fill="#5F77E8"/>
<path d="M135.188 17.9229H130.445V18.0996H135.188V17.9229Z" fill="#5F78E8"/>
<path d="M135.188 18.0996H130.445V18.2764H135.188V18.0996Z" fill="#6079E8"/>
<path d="M135.188 18.2764H130.445V18.4532H135.188V18.2764Z" fill="#607AE8"/>
<path d="M135.188 18.4531H130.445V18.6299H135.188V18.4531Z" fill="#617BE8"/>
<path d="M135.188 18.6338H130.445V18.8106H135.188V18.6338Z" fill="#617CE8"/>
<path d="M135.188 18.8105H130.445V18.9873H135.188V18.8105Z" fill="#617DE8"/>
<path d="M135.188 18.9873H130.445V19.1641H135.188V18.9873Z" fill="#627EE8"/>
<path d="M135.188 19.1641H130.445V19.3409H135.188V19.1641Z" fill="#627FE8"/>
<path d="M135.188 19.3408H130.445V19.5176H135.188V19.3408Z" fill="#6380E8"/>
<path d="M135.188 19.5176H130.445V19.6944H135.188V19.5176Z" fill="#6381E8"/>
<path d="M135.188 19.6943H130.445V19.8711H135.188V19.6943Z" fill="#6482E8"/>
<path d="M135.188 19.8711H130.445V20.0479H135.188V19.8711Z" fill="#6483E9"/>
<path d="M135.188 20.0518H130.445V20.2285H135.188V20.0518Z" fill="#6484E9"/>
<path d="M135.188 20.229H130.445V20.4058H135.188V20.229Z" fill="#6585E9"/>
<path d="M135.188 20.4058H130.445V20.5826H135.188V20.4058Z" fill="#6586E9"/>
<path d="M135.188 20.5825H130.445V20.7593H135.188V20.5825Z" fill="#6687E9"/>
<path d="M135.188 20.7593H130.445V20.9361H135.188V20.7593Z" fill="#6688E9"/>
<path d="M135.188 20.936H130.445V21.1128H135.188V20.936Z" fill="#6789E9"/>
<path d="M130.445 21.1167L135.188 21.1128V21.1206H130.445V21.1167Z" fill="#678AE9"/>
<path d="M133.535 18.5356H130.283V18.6339H133.535V18.5356Z" fill="#617BE8"/>
<path d="M133.535 18.6338H130.283V18.8106H133.535V18.6338Z" fill="#617CE8"/>
<path d="M133.535 18.8105H130.283V18.9873H133.535V18.8105Z" fill="#617DE8"/>
<path d="M133.535 18.9873H130.283V19.1641H133.535V18.9873Z" fill="#627EE8"/>
<path d="M133.535 19.1641H130.283V19.3409H133.535V19.1641Z" fill="#627FE8"/>
<path d="M133.535 19.3408H130.283V19.5176H133.535V19.3408Z" fill="#6380E8"/>
<path d="M133.535 19.5176H130.283V19.6944H133.535V19.5176Z" fill="#6381E8"/>
<path d="M133.535 19.6987H130.283V19.8755H133.535V19.6987Z" fill="#6482E8"/>
<path d="M133.535 19.8755H130.283V20.0523H133.535V19.8755Z" fill="#6483E9"/>
<path d="M133.535 20.0522H130.283V20.229H133.535V20.0522Z" fill="#6484E9"/>
<path d="M133.535 20.229H130.283V20.4058H133.535V20.229Z" fill="#6585E9"/>
<path d="M133.535 20.4058H130.283V20.5826H133.535V20.4058Z" fill="#6586E9"/>
<path d="M133.535 20.5825H130.283V20.7593H133.535V20.5825Z" fill="#6687E9"/>
<path d="M133.535 20.7593H130.283V20.9361H133.535V20.7593Z" fill="#6688E9"/>
<path d="M133.535 20.936H130.283V21.1128H133.535V20.936Z" fill="#6789E9"/>
<path d="M133.535 21.1167H130.283V21.2935H133.535V21.1167Z" fill="#678AE9"/>
<path d="M133.535 21.2935H130.283V21.4702H133.535V21.2935Z" fill="#678BE9"/>
<path d="M133.535 21.4702H130.283V21.647H133.535V21.4702Z" fill="#688CE9"/>
<path d="M133.535 21.647H130.283V21.8238H133.535V21.647Z" fill="#688DE9"/>
<path d="M133.535 21.8237H130.283V22.0005H133.535V21.8237Z" fill="#698EE9"/>
<path d="M133.535 22.0005H130.283V22.1773H133.535V22.0005Z" fill="#698FE9"/>
<path d="M133.535 22.1777H130.283V22.3545H133.535V22.1777Z" fill="#6990E9"/>
<path d="M133.535 22.3545H130.283V22.5313H133.535V22.3545Z" fill="#6A91E9"/>
<path d="M133.535 22.5352H130.283V22.7119H133.535V22.5352Z" fill="#6A92E9"/>
<path d="M133.535 22.7119H130.283V22.8887H133.535V22.7119Z" fill="#6B93E9"/>
<path d="M133.535 22.8887H130.283V23.0655H133.535V22.8887Z" fill="#6B94E9"/>
<path d="M133.535 23.0654H130.283V23.2422H133.535V23.0654Z" fill="#6C95E9"/>
<path d="M133.535 23.2422H130.283V23.419H133.535V23.2422Z" fill="#6C96E9"/>
<path d="M133.535 23.4189H130.283V23.5957H133.535V23.4189Z" fill="#6C97E9"/>
<path d="M133.535 23.5957H130.283V23.7214H133.535V23.5957Z" fill="#6D98E9"/>
<path d="M135.069 12.073L130.354 12.0769V12.0298H135.069V12.073Z" fill="#AC81E2"/>
<path d="M135.069 12.0732H130.354V12.144H135.069V12.0732Z" fill="#AB81E2"/>
<path d="M135.069 12.1436H130.354V12.2143H135.069V12.1436Z" fill="#AA81E2"/>
<path d="M135.069 12.2104H130.354V12.2812H135.069V12.2104Z" fill="#A980E2"/>
<path d="M135.069 12.2812H130.354V12.352H135.069V12.2812Z" fill="#A880E2"/>
<path d="M135.069 12.3481H130.354V12.4189H135.069V12.3481Z" fill="#A780E2"/>
<path d="M135.069 12.4189H130.354V12.4897H135.069V12.4189Z" fill="#A680E2"/>
<path d="M135.069 12.4893H130.354V12.56H135.069V12.4893Z" fill="#A580E2"/>
<path d="M135.069 12.5562H130.354V12.6269H135.069V12.5562Z" fill="#A480E2"/>
<path d="M135.069 12.627H130.354V12.6977H135.069V12.627Z" fill="#A380E2"/>
<path d="M135.069 12.6938H130.354V12.7646H135.069V12.6938Z" fill="#A27FE3"/>
<path d="M135.069 12.7646H130.354V12.8354H135.069V12.7646Z" fill="#A17FE3"/>
<path d="M135.069 12.8311H130.354V12.9018H135.069V12.8311Z" fill="#A07FE3"/>
<path d="M135.069 12.9019H130.354V12.9726H135.069V12.9019Z" fill="#9F7FE3"/>
<path d="M135.069 12.9727H130.354V13.0434H135.069V12.9727Z" fill="#9E7FE3"/>
<path d="M135.069 13.0396H130.354V13.1103H135.069V13.0396Z" fill="#9D7FE3"/>
<path d="M135.069 13.1104H130.354V13.1811H135.069V13.1104Z" fill="#9B7EE3"/>
<path d="M135.069 13.1768H130.354V13.2475H135.069V13.1768Z" fill="#9A7EE3"/>
<path d="M135.069 13.2476H130.354V13.3183H135.069V13.2476Z" fill="#997EE3"/>
<path d="M135.069 13.3145H130.354V13.3852H135.069V13.3145Z" fill="#987EE3"/>
<path d="M135.069 13.3853H130.354V13.456H135.069V13.3853Z" fill="#977EE3"/>
<path d="M135.069 13.4561H130.354V13.5268H135.069V13.4561Z" fill="#967EE3"/>
<path d="M135.069 13.5225H130.354V13.5932H135.069V13.5225Z" fill="#957DE4"/>
<path d="M135.069 13.5933H130.354V13.664H135.069V13.5933Z" fill="#947DE4"/>
<path d="M135.069 13.6602H130.354V13.7309H135.069V13.6602Z" fill="#937DE4"/>
<path d="M135.069 13.731H130.354V13.8017H135.069V13.731Z" fill="#927DE4"/>
<path d="M135.069 13.8018H130.354V13.8725H135.069V13.8018Z" fill="#917DE4"/>
<path d="M135.069 13.8682H130.354V13.9389H135.069V13.8682Z" fill="#907DE4"/>
<path d="M135.069 13.939H130.354V14.0097H135.069V13.939Z" fill="#8F7DE4"/>
<path d="M135.069 14.0059H130.354V14.0766H135.069V14.0059Z" fill="#8E7CE4"/>
<path d="M135.069 14.0767H130.354V14.1474H135.069V14.0767Z" fill="#8D7CE4"/>
<path d="M135.069 14.1436H130.354V14.2143H135.069V14.1436Z" fill="#8C7CE4"/>
<path d="M135.069 14.2144H130.354V14.2851H135.069V14.2144Z" fill="#8B7CE4"/>
<path d="M135.069 14.2847H130.354V14.3554H135.069V14.2847Z" fill="#8A7CE4"/>
<path d="M135.069 14.3516H130.354V14.4223H135.069V14.3516Z" fill="#897CE5"/>
<path d="M135.069 14.4224H130.354V14.4931H135.069V14.4224Z" fill="#887BE5"/>
<path d="M135.069 14.4893H130.354V14.56H135.069V14.4893Z" fill="#877BE5"/>
<path d="M135.069 14.5601H130.354V14.6308H135.069V14.5601Z" fill="#867BE5"/>
<path d="M135.069 14.6304H130.354V14.7011H135.069V14.6304Z" fill="#857BE5"/>
<path d="M135.069 14.6973H130.354V14.768H135.069V14.6973Z" fill="#847BE5"/>
<path d="M135.069 14.7681H130.354V14.8388H135.069V14.7681Z" fill="#837BE5"/>
<path d="M135.069 14.835H130.354V14.9057H135.069V14.835Z" fill="#827BE5"/>
<path d="M135.069 14.9058H130.354V14.9765H135.069V14.9058Z" fill="#817AE5"/>
<path d="M135.069 14.9722H130.354V15.0429H135.069V14.9722Z" fill="#807AE5"/>
<path d="M135.069 15.043H130.354V15.1137H135.069V15.043Z" fill="#7F7AE5"/>
<path d="M135.069 15.1138H130.354V15.1845H135.069V15.1138Z" fill="#7E7AE5"/>
<path d="M135.069 15.1807H130.354V15.2514H135.069V15.1807Z" fill="#7D7AE5"/>
<path d="M135.069 15.2515H130.354V15.3222H135.069V15.2515Z" fill="#7C7AE6"/>
<path d="M135.069 15.3179H130.354V15.3886H135.069V15.3179Z" fill="#7B79E6"/>
<path d="M135.069 15.3887H130.354V15.4594H135.069V15.3887Z" fill="#7A79E6"/>
<path d="M135.069 15.4595H130.354V15.5302H135.069V15.4595Z" fill="#7979E6"/>
<path d="M135.069 15.5264H130.354V15.5971H135.069V15.5264Z" fill="#7879E6"/>
<path d="M135.069 15.5972H130.354V15.6679H135.069V15.5972Z" fill="#7779E6"/>
<path d="M135.069 15.6636H130.354V15.7343H135.069V15.6636Z" fill="#7679E6"/>
<path d="M135.069 15.7344H130.354V15.8051H135.069V15.7344Z" fill="#7579E6"/>
<path d="M135.069 15.8013H130.354V15.872H135.069V15.8013Z" fill="#7478E6"/>
<path d="M135.069 15.8721H130.354V15.9428H135.069V15.8721Z" fill="#7378E6"/>
<path d="M135.069 15.9429H130.354V16.0136H135.069V15.9429Z" fill="#7278E6"/>
<path d="M135.069 16.0093H130.354V16.08H135.069V16.0093Z" fill="#7178E6"/>
<path d="M135.069 16.0801H130.354V16.1508H135.069V16.0801Z" fill="#7078E7"/>
<path d="M135.069 16.147H130.354V16.2177H135.069V16.147Z" fill="#6F78E7"/>
<path d="M135.069 16.2178H130.354V16.2885H135.069V16.2178Z" fill="#6E77E7"/>
<path d="M135.069 16.2847H130.354V16.3554H135.069V16.2847Z" fill="#6D77E7"/>
<path d="M135.069 16.3555H130.354V16.4262H135.069V16.3555Z" fill="#6C77E7"/>
<path d="M135.069 16.4258H130.354V16.4965H135.069V16.4258Z" fill="#6B77E7"/>
<path d="M135.069 16.4927H130.354V16.5634H135.069V16.4927Z" fill="#6A77E7"/>
<path d="M135.069 16.5635H130.354V16.6342H135.069V16.5635Z" fill="#6977E7"/>
<path d="M135.069 16.6304H130.354V16.7011H135.069V16.6304Z" fill="#6877E7"/>
<path d="M135.069 16.7012H130.354V16.7719H135.069V16.7012Z" fill="#6776E7"/>
<path d="M135.069 16.7715H130.354V16.8422H135.069V16.7715Z" fill="#6676E7"/>
<path d="M135.069 16.8384H130.354V16.9091H135.069V16.8384Z" fill="#6576E7"/>
<path d="M135.069 16.9092H130.354V16.9799H135.069V16.9092Z" fill="#6476E8"/>
<path d="M135.069 16.9761H130.354V17.0468H135.069V16.9761Z" fill="#6376E8"/>
<path d="M135.069 17.0469H130.354V17.1176H135.069V17.0469Z" fill="#6276E8"/>
<path d="M135.069 17.1133H130.354V17.184H135.069V17.1133Z" fill="#6175E8"/>
<path d="M135.069 17.1841H130.354V17.2548H135.069V17.1841Z" fill="#6075E8"/>
<path d="M130.354 17.2549L135.069 17.251V17.2863H130.354V17.2549Z" fill="#5F75E8"/>
<path d="M130.591 18.4766H128.68V18.6376H130.591V18.4766Z" fill="#617BE8"/>
<path d="M130.591 18.6338H128.68V18.8106H130.591V18.6338Z" fill="#617CE8"/>
<path d="M130.591 18.8105H128.68V18.9873H130.591V18.8105Z" fill="#617DE8"/>
<path d="M130.591 18.9912H128.68V19.168H130.591V18.9912Z" fill="#627EE8"/>
<path d="M130.591 19.168H128.68V19.3448H130.591V19.168Z" fill="#627FE8"/>
<path d="M130.591 19.3447H128.68V19.5215H130.591V19.3447Z" fill="#6380E8"/>
<path d="M130.591 19.5215H128.68V19.6983H130.591V19.5215Z" fill="#6381E8"/>
<path d="M130.591 19.6982H128.68V19.875H130.591V19.6982Z" fill="#6482E8"/>
<path d="M130.591 19.875H128.68V20.0518H130.591V19.875Z" fill="#6483E9"/>
<path d="M130.591 20.0518H128.68V20.2285H130.591V20.0518Z" fill="#6484E9"/>
<path d="M130.591 20.2285H128.68V20.4053H130.591V20.2285Z" fill="#6585E9"/>
<path d="M130.591 20.4097H128.68V20.5865H130.591V20.4097Z" fill="#6586E9"/>
<path d="M130.591 20.5864H128.68V20.7632H130.591V20.5864Z" fill="#6687E9"/>
<path d="M130.591 20.7632H128.68V20.94H130.591V20.7632Z" fill="#6688E9"/>
<path d="M130.591 20.9399H128.68V21.1167H130.591V20.9399Z" fill="#6789E9"/>
<path d="M130.591 21.1167H128.68V21.2935H130.591V21.1167Z" fill="#678AE9"/>
<path d="M130.591 21.2935H128.68V21.4702H130.591V21.2935Z" fill="#678BE9"/>
<path d="M130.591 21.4702H128.68V21.647H130.591V21.4702Z" fill="#688CE9"/>
<path d="M130.591 21.647H128.68V21.8238H130.591V21.647Z" fill="#688DE9"/>
<path d="M130.591 21.8276H128.68V22.0044H130.591V21.8276Z" fill="#698EE9"/>
<path d="M130.591 22.0044H128.68V22.1812H130.591V22.0044Z" fill="#698FE9"/>
<path d="M130.591 22.1812H128.68V22.3579H130.591V22.1812Z" fill="#6990E9"/>
<path d="M130.591 22.3579H128.68V22.5347H130.591V22.3579Z" fill="#6A91E9"/>
<path d="M130.591 22.5347H128.68V22.7115H130.591V22.5347Z" fill="#6A92E9"/>
<path d="M130.591 22.7114H128.68V22.8882H130.591V22.7114Z" fill="#6B93E9"/>
<path d="M130.591 22.8887H128.68V23.0262H130.591V22.8887Z" fill="#6B94E9"/>
<path d="M131.599 12.3872H129.172V12.4186H131.599V12.3872Z" fill="#A780E2"/>
<path d="M131.599 12.4185H129.172V12.4892H131.599V12.4185Z" fill="#A680E2"/>
<path d="M131.599 12.4893H129.172V12.56H131.599V12.4893Z" fill="#A580E2"/>
<path d="M131.599 12.5601H129.172V12.6308H131.599V12.5601Z" fill="#A480E2"/>
<path d="M131.599 12.627H129.172V12.6977H131.599V12.627Z" fill="#A380E2"/>
<path d="M131.599 12.6978H129.172V12.7685H131.599V12.6978Z" fill="#A27FE3"/>
<path d="M131.599 12.7642H129.172V12.8349H131.599V12.7642Z" fill="#A17FE3"/>
<path d="M131.599 12.835H129.172V12.9057H131.599V12.835Z" fill="#A07FE3"/>
<path d="M131.599 12.9019H129.172V12.9726H131.599V12.9019Z" fill="#9F7FE3"/>
<path d="M131.599 12.9727H129.172V13.0434H131.599V12.9727Z" fill="#9E7FE3"/>
<path d="M131.599 13.0435H129.172V13.1142H131.599V13.0435Z" fill="#9D7FE3"/>
<path d="M131.599 13.1099H129.172V13.1806H131.599V13.1099Z" fill="#9B7EE3"/>
<path d="M131.599 13.1807H129.172V13.2514H131.599V13.1807Z" fill="#9A7EE3"/>
<path d="M131.599 13.2476H129.172V13.3183H131.599V13.2476Z" fill="#997EE3"/>
<path d="M131.599 13.3184H129.172V13.3891H131.599V13.3184Z" fill="#987EE3"/>
<path d="M131.599 13.3892H129.172V13.4599H131.599V13.3892Z" fill="#977EE3"/>
<path d="M131.599 13.4556H129.172V13.5263H131.599V13.4556Z" fill="#967EE3"/>
<path d="M131.599 13.5264H129.172V13.5971H131.599V13.5264Z" fill="#957DE4"/>
<path d="M131.599 13.5933H129.172V13.664H131.599V13.5933Z" fill="#947DE4"/>
<path d="M131.599 13.6641H129.172V13.7348H131.599V13.6641Z" fill="#937DE4"/>
<path d="M131.599 13.731H129.172V13.8017H131.599V13.731Z" fill="#927DE4"/>
<path d="M131.599 13.8018H129.172V13.8725H131.599V13.8018Z" fill="#917DE4"/>
<path d="M131.599 13.8721H129.172V13.9428H131.599V13.8721Z" fill="#907DE4"/>
<path d="M131.599 13.939H129.172V14.0097H131.599V13.939Z" fill="#8F7DE4"/>
<path d="M131.599 14.0098H129.172V14.0805H131.599V14.0098Z" fill="#8E7CE4"/>
<path d="M131.599 14.0767H129.172V14.1474H131.599V14.0767Z" fill="#8D7CE4"/>
<path d="M131.599 14.1475H129.172V14.2182H131.599V14.1475Z" fill="#8C7CE4"/>
<path d="M131.599 14.2178H129.172V14.2885H131.599V14.2178Z" fill="#8B7CE4"/>
<path d="M131.599 14.2847H129.172V14.3554H131.599V14.2847Z" fill="#8A7CE4"/>
<path d="M131.599 14.3555H129.172V14.4262H131.599V14.3555Z" fill="#897CE5"/>
<path d="M131.599 14.4224H129.172V14.4931H131.599V14.4224Z" fill="#887BE5"/>
<path d="M131.599 14.4932H129.172V14.5639H131.599V14.4932Z" fill="#877BE5"/>
<path d="M131.599 14.5596H129.172V14.6303H131.599V14.5596Z" fill="#867BE5"/>
<path d="M131.599 14.6304H129.172V14.7011H131.599V14.6304Z" fill="#857BE5"/>
<path d="M131.599 14.7012H129.172V14.7719H131.599V14.7012Z" fill="#847BE5"/>
<path d="M131.599 14.7681H129.172V14.8388H131.599V14.7681Z" fill="#837BE5"/>
<path d="M131.599 14.8389H129.172V14.9096H131.599V14.8389Z" fill="#827BE5"/>
<path d="M131.599 14.9053H129.172V14.976H131.599V14.9053Z" fill="#817AE5"/>
<path d="M131.599 14.9761H129.172V15.0468H131.599V14.9761Z" fill="#807AE5"/>
<path d="M131.599 15.0469H129.172V15.1176H131.599V15.0469Z" fill="#7F7AE5"/>
<path d="M131.599 15.1138H129.172V15.1845H131.599V15.1138Z" fill="#7E7AE5"/>
<path d="M131.599 15.1846H129.172V15.2553H131.599V15.1846Z" fill="#7D7AE5"/>
<path d="M131.599 15.251H129.172V15.3217H131.599V15.251Z" fill="#7C7AE6"/>
<path d="M131.599 15.3218H129.172V15.3925H131.599V15.3218Z" fill="#7B79E6"/>
<path d="M131.599 15.3887H129.172V15.4594H131.599V15.3887Z" fill="#7A79E6"/>
<path d="M131.599 15.4595H129.172V15.5302H131.599V15.4595Z" fill="#7979E6"/>
<path d="M131.599 15.5303H129.172V15.601H131.599V15.5303Z" fill="#7879E6"/>
<path d="M131.599 15.5967H129.172V15.6674H131.599V15.5967Z" fill="#7779E6"/>
<path d="M131.599 15.6675H129.172V15.7382H131.599V15.6675Z" fill="#7679E6"/>
<path d="M131.599 15.7344H129.172V15.8051H131.599V15.7344Z" fill="#7579E6"/>
<path d="M131.599 15.8052H129.172V15.8759H131.599V15.8052Z" fill="#7478E6"/>
<path d="M131.599 15.8721H129.172V15.9428H131.599V15.8721Z" fill="#7378E6"/>
<path d="M131.599 15.9429H129.172V16.0136H131.599V15.9429Z" fill="#7278E6"/>
<path d="M131.599 16.0132H129.172V16.0839H131.599V16.0132Z" fill="#7178E6"/>
<path d="M131.599 16.0801H129.172V16.1508H131.599V16.0801Z" fill="#7078E7"/>
<path d="M131.599 16.1509H129.172V16.2216H131.599V16.1509Z" fill="#6F78E7"/>
<path d="M131.599 16.2178H129.172V16.2885H131.599V16.2178Z" fill="#6E77E7"/>
<path d="M131.599 16.2886H129.172V16.3593H131.599V16.2886Z" fill="#6D77E7"/>
<path d="M131.599 16.3589H129.172V16.4296H131.599V16.3589Z" fill="#6C77E7"/>
<path d="M131.599 16.4258H129.172V16.4965H131.599V16.4258Z" fill="#6B77E7"/>
<path d="M131.599 16.4966H129.172V16.5673H131.599V16.4966Z" fill="#6A77E7"/>
<path d="M131.599 16.5635H129.172V16.6342H131.599V16.5635Z" fill="#6977E7"/>
<path d="M131.599 16.6343H129.172V16.705H131.599V16.6343Z" fill="#6877E7"/>
<path d="M131.599 16.7007H129.172V16.7714H131.599V16.7007Z" fill="#6776E7"/>
<path d="M131.599 16.7715H129.172V16.8422H131.599V16.7715Z" fill="#6676E7"/>
<path d="M131.599 16.8423H129.172V16.9012H131.599V16.8423Z" fill="#6576E7"/>
<path d="M129.588 15.8169H128.641V15.8758H129.588V15.8169Z" fill="#7478E6"/>
<path d="M129.588 15.876H128.641V15.9467H129.588V15.876Z" fill="#7378E6"/>
<path d="M129.588 15.9424H128.641V16.0131H129.588V15.9424Z" fill="#7278E6"/>
<path d="M129.588 16.0132H128.641V16.0839H129.588V16.0132Z" fill="#7178E6"/>
<path d="M129.588 16.084H128.641V16.1547H129.588V16.084Z" fill="#7078E7"/>
<path d="M129.588 16.1509H128.641V16.2216H129.588V16.1509Z" fill="#6F78E7"/>
<path d="M129.588 16.2217H128.641V16.2924H129.588V16.2217Z" fill="#6E77E7"/>
<path d="M129.588 16.2886H128.641V16.3593H129.588V16.2886Z" fill="#6D77E7"/>
<path d="M129.588 16.3589H128.641V16.4296H129.588V16.3589Z" fill="#6C77E7"/>
<path d="M129.588 16.4258H128.641V16.4965H129.588V16.4258Z" fill="#6B77E7"/>
<path d="M129.588 16.4966H128.641V16.5673H129.588V16.4966Z" fill="#6A77E7"/>
<path d="M129.588 16.5674H128.641V16.6381H129.588V16.5674Z" fill="#6977E7"/>
<path d="M129.588 16.6343H128.641V16.705H129.588V16.6343Z" fill="#6877E7"/>
<path d="M129.588 16.7046H128.641V16.7753H129.588V16.7046Z" fill="#6776E7"/>
<path d="M129.588 16.7715H128.641V16.8422H129.588V16.7715Z" fill="#6676E7"/>
<path d="M129.588 16.8423H128.641V16.913H129.588V16.8423Z" fill="#6576E7"/>
<path d="M129.588 16.9092H128.641V16.9799H129.588V16.9092Z" fill="#6476E8"/>
<path d="M129.588 16.98H128.641V17.0507H129.588V16.98Z" fill="#6376E8"/>
<path d="M129.588 17.0503H128.641V17.121H129.588V17.0503Z" fill="#6276E8"/>
<path d="M129.588 17.1172H128.641V17.1879H129.588V17.1172Z" fill="#6175E8"/>
<path d="M129.588 17.188H128.641V17.2587H129.588V17.188Z" fill="#6075E8"/>
<path d="M129.588 17.2549H128.641V17.3256H129.588V17.2549Z" fill="#5F75E8"/>
<path d="M129.588 17.3257H128.641V17.3964H129.588V17.3257Z" fill="#5E75E8"/>
<path d="M129.588 17.396H128.641V17.5728H129.588V17.396Z" fill="#5E75E8"/>
<path d="M129.588 17.5732H128.641V17.75H129.588V17.5732Z" fill="#5E76E8"/>
<path d="M129.588 17.75H128.641V17.9268H129.588V17.75Z" fill="#5F77E8"/>
<path d="M129.588 17.9268H128.641V18.1035H129.588V17.9268Z" fill="#5F78E8"/>
<path d="M129.588 18.1035H128.641V18.2803H129.588V18.1035Z" fill="#6079E8"/>
<path d="M129.588 18.2803H128.641V18.4571H129.588V18.2803Z" fill="#607AE8"/>
<path d="M129.588 18.457H128.641V18.6338H129.588V18.457Z" fill="#617BE8"/>
<path d="M129.588 18.6338H128.641V18.8106H129.588V18.6338Z" fill="#617CE8"/>
<path d="M129.588 18.8145H128.641V18.9873H129.588V18.8145Z" fill="#617DE8"/>
<path d="M131.822 11.1929H130.529V11.2439H131.822V11.1929Z" fill="#B883E1"/>
<path d="M131.822 11.2441H130.529V11.3149H131.822V11.2441Z" fill="#B783E1"/>
<path d="M131.822 11.3145H130.529V11.3852H131.822V11.3145Z" fill="#B682E1"/>
<path d="M131.822 11.3853H130.529V11.456H131.822V11.3853Z" fill="#B582E1"/>
<path d="M131.822 11.4521H130.529V11.5229H131.822V11.4521Z" fill="#B482E1"/>
<path d="M131.822 11.5229H130.529V11.5937H131.822V11.5229Z" fill="#B382E1"/>
<path d="M131.822 11.5898H130.529V11.6606H131.822V11.5898Z" fill="#B282E1"/>
<path d="M131.822 11.6602H130.529V11.7309H131.822V11.6602Z" fill="#B182E1"/>
<path d="M131.822 11.7271H130.529V11.7978H131.822V11.7271Z" fill="#B082E1"/>
<path d="M131.822 11.7979H130.529V11.8686H131.822V11.7979Z" fill="#AF81E1"/>
<path d="M131.822 11.8687H130.529V11.9394H131.822V11.8687Z" fill="#AE81E2"/>
<path d="M131.822 11.9355H130.529V12.0063H131.822V11.9355Z" fill="#AD81E2"/>
<path d="M131.822 12.0059H130.529V12.0766H131.822V12.0059Z" fill="#AC81E2"/>
<path d="M131.822 12.0728H130.529V12.1435H131.822V12.0728Z" fill="#AB81E2"/>
<path d="M131.822 12.1436H130.529V12.2143H131.822V12.1436Z" fill="#AA81E2"/>
<path d="M131.822 12.2144H130.529V12.2851H131.822V12.2144Z" fill="#A980E2"/>
<path d="M131.822 12.2812H130.529V12.352H131.822V12.2812Z" fill="#A880E2"/>
<path d="M131.822 12.3521H130.529V12.4228H131.822V12.3521Z" fill="#A780E2"/>
<path d="M131.822 12.4185H130.529V12.4892H131.822V12.4185Z" fill="#A680E2"/>
<path d="M131.822 12.4893H130.529V12.56H131.822V12.4893Z" fill="#A580E2"/>
<path d="M131.822 12.5562H130.529V12.6269H131.822V12.5562Z" fill="#A480E2"/>
<path d="M131.822 12.627H130.529V12.6584H131.822V12.627Z" fill="#A380E2"/>
<path d="M139.741 21.4623L134.502 21.4662V21.313H139.741V21.4623Z" fill="#678BE9"/>
<path d="M139.741 21.4663H134.502V21.6431H139.741V21.4663Z" fill="#688CE9"/>
<path d="M139.741 21.6431H134.502V21.8199H139.741V21.6431Z" fill="#688DE9"/>
<path d="M139.741 21.8198H134.502V21.9966H139.741V21.8198Z" fill="#698EE9"/>
<path d="M139.741 21.9966H134.502V22.1734H139.741V21.9966Z" fill="#698FE9"/>
<path d="M139.741 22.1733H134.502V22.3501H139.741V22.1733Z" fill="#6990E9"/>
<path d="M139.741 22.3501H134.502V22.5269H139.741V22.3501Z" fill="#6A91E9"/>
<path d="M139.741 22.5269H134.502V22.7036H139.741V22.5269Z" fill="#6A92E9"/>
<path d="M139.741 22.7075H134.502V22.8843H139.741V22.7075Z" fill="#6B93E9"/>
<path d="M139.741 22.8843H134.502V23.0611H139.741V22.8843Z" fill="#6B94E9"/>
<path d="M139.741 23.061H134.502V23.2378H139.741V23.061Z" fill="#6C95E9"/>
<path d="M139.741 23.2378H134.502V23.4146H139.741V23.2378Z" fill="#6C96E9"/>
<path d="M139.741 23.415H134.502V23.5918H139.741V23.415Z" fill="#6C97E9"/>
<path d="M139.741 23.5918H134.502V23.7686H139.741V23.5918Z" fill="#6D98E9"/>
<path d="M139.741 23.7686H134.502V23.9453H139.741V23.7686Z" fill="#6D99E9"/>
<path d="M139.741 23.9453H134.502V24.1221H139.741V23.9453Z" fill="#6E9AE9"/>
<path d="M139.741 24.126H134.502V24.3028H139.741V24.126Z" fill="#6E9BE9"/>
<path d="M139.741 24.3027H134.502V24.4795H139.741V24.3027Z" fill="#6F9CE9"/>
<path d="M139.741 24.4795H134.502V24.6563H139.741V24.4795Z" fill="#6F9EEA"/>
<path d="M139.741 24.6562H134.502V24.833H139.741V24.6562Z" fill="#6F9FEA"/>
<path d="M139.741 24.833H134.502V25.0098H139.741V24.833Z" fill="#70A0EA"/>
<path d="M139.741 25.0098H134.502V25.1866H139.741V25.0098Z" fill="#70A1EA"/>
<path d="M139.741 25.1865H134.502V25.3633H139.741V25.1865Z" fill="#71A2EA"/>
<path d="M139.741 25.3633H134.502V25.5401H139.741V25.3633Z" fill="#71A3EA"/>
<path d="M139.741 25.5439H134.502V25.7207H139.741V25.5439Z" fill="#72A4EA"/>
<path d="M134.502 25.7207L139.741 25.7168V25.8268H134.502V25.7207Z" fill="#72A5EA"/>
<path d="M136.501 22.1735L131.631 22.1774V22.1421H136.501V22.1735Z" fill="#698FE9"/>
<path d="M136.497 22.1772H131.631V22.354H136.497V22.1772Z" fill="#6990E9"/>
<path d="M136.497 22.354H131.631V22.5308H136.497V22.354Z" fill="#6A91E9"/>
<path d="M136.497 22.5312H131.631V22.708H136.497V22.5312Z" fill="#6A92E9"/>
<path d="M136.497 22.708H131.631V22.8848H136.497V22.708Z" fill="#6B93E9"/>
<path d="M136.497 22.8848H131.631V23.0616H136.497V22.8848Z" fill="#6B94E9"/>
<path d="M136.497 23.0615H131.631V23.2383H136.497V23.0615Z" fill="#6C95E9"/>
<path d="M136.497 23.2422H131.631V23.419H136.497V23.2422Z" fill="#6C96E9"/>
<path d="M136.497 23.4189H131.631V23.5957H136.497V23.4189Z" fill="#6C97E9"/>
<path d="M136.497 23.5957H131.631V23.7725H136.497V23.5957Z" fill="#6D98E9"/>
<path d="M136.497 23.7725H131.631V23.9493H136.497V23.7725Z" fill="#6D99E9"/>
<path d="M136.497 23.9492H131.631V24.126H136.497V23.9492Z" fill="#6E9AE9"/>
<path d="M136.497 24.126H131.631V24.3028H136.497V24.126Z" fill="#6E9BE9"/>
<path d="M136.497 24.3027H131.631V24.4795H136.497V24.3027Z" fill="#6F9CE9"/>
<path d="M136.497 24.4795H131.631V24.6563H136.497V24.4795Z" fill="#6F9EEA"/>
<path d="M136.497 24.6602H131.631V24.8369H136.497V24.6602Z" fill="#6F9FEA"/>
<path d="M136.497 24.8369H131.631V25.0137H136.497V24.8369Z" fill="#70A0EA"/>
<path d="M136.497 25.0142H131.631V25.191H136.497V25.0142Z" fill="#70A1EA"/>
<path d="M136.497 25.1909H131.631V25.3677H136.497V25.1909Z" fill="#71A2EA"/>
<path d="M136.497 25.3677H131.631V25.5445H136.497V25.3677Z" fill="#71A3EA"/>
<path d="M136.497 25.5444H131.631V25.7212H136.497V25.5444Z" fill="#72A4EA"/>
<path d="M136.497 25.7212H131.631V25.898H136.497V25.7212Z" fill="#72A5EA"/>
<path d="M131.631 25.9019L136.501 25.8979V25.9019H131.631Z" fill="#72A6EA"/>
<path d="M139.686 16.143L134.344 16.1469V16.0762H136.771H139.686V16.143Z" fill="#7078E7"/>
<path d="M139.682 16.1431H134.344V16.2138H139.682V16.1431Z" fill="#6F78E7"/>
<path d="M139.682 16.2139H134.344V16.2846H139.682V16.2139Z" fill="#6E77E7"/>
<path d="M139.682 16.2842H134.344V16.3549H139.682V16.2842Z" fill="#6D77E7"/>
<path d="M139.682 16.3511H134.344V16.4218H139.682V16.3511Z" fill="#6C77E7"/>
<path d="M139.682 16.4219H134.344V16.4926H139.682V16.4219Z" fill="#6B77E7"/>
<path d="M139.682 16.4888H134.344V16.5595H139.682V16.4888Z" fill="#6A77E7"/>
<path d="M139.682 16.5596H134.344V16.6303H139.682V16.5596Z" fill="#6977E7"/>
<path d="M139.682 16.626H134.344V16.6967H139.682V16.626Z" fill="#6877E7"/>
<path d="M139.682 16.6968H134.344V16.7675H139.682V16.6968Z" fill="#6776E7"/>
<path d="M139.682 16.7676H134.344V16.8383H139.682V16.7676Z" fill="#6676E7"/>
<path d="M139.682 16.8345H134.344V16.9052H139.682V16.8345Z" fill="#6576E7"/>
<path d="M139.682 16.9053H134.344V16.976H139.682V16.9053Z" fill="#6476E8"/>
<path d="M139.682 16.9717H134.344V17.0424H139.682V16.9717Z" fill="#6376E8"/>
<path d="M139.682 17.0425H134.344V17.1132H139.682V17.0425Z" fill="#6276E8"/>
<path d="M139.682 17.1133H134.344V17.184H139.682V17.1133Z" fill="#6175E8"/>
<path d="M139.682 17.1802H134.344V17.2509H139.682V17.1802Z" fill="#6075E8"/>
<path d="M139.682 17.251H134.344V17.3217H139.682V17.251Z" fill="#5F75E8"/>
<path d="M139.682 17.3174H134.344V17.3881H139.682V17.3174Z" fill="#5E75E8"/>
<path d="M139.682 17.3882H134.344V17.565H139.682V17.3882Z" fill="#5E75E8"/>
<path d="M139.682 17.5649H134.344V17.7417H139.682V17.5649Z" fill="#5E76E8"/>
<path d="M139.682 17.7417H134.344V17.9185H139.682V17.7417Z" fill="#5F77E8"/>
<path d="M139.682 17.9189H134.344V18.0957H139.682V17.9189Z" fill="#5F78E8"/>
<path d="M139.682 18.0957H134.344V18.2725H139.682V18.0957Z" fill="#6079E8"/>
<path d="M139.682 18.2725H134.344V18.4493H139.682V18.2725Z" fill="#607AE8"/>
<path d="M139.682 18.4531H134.344V18.6299H139.682V18.4531Z" fill="#617BE8"/>
<path d="M139.682 18.6299H134.344V18.8067H139.682V18.6299Z" fill="#617CE8"/>
<path d="M139.682 18.8066H134.344V18.9834H139.682V18.8066Z" fill="#617DE8"/>
<path d="M139.682 18.9834H134.344V19.1602H139.682V18.9834Z" fill="#627EE8"/>
<path d="M139.682 19.1602H134.344V19.3369H139.682V19.1602Z" fill="#627FE8"/>
<path d="M139.682 19.3369H134.344V19.5137H139.682V19.3369Z" fill="#6380E8"/>
<path d="M139.682 19.5137H134.344V19.6905H139.682V19.5137Z" fill="#6381E8"/>
<path d="M139.682 19.6904H134.344V19.8672H139.682V19.6904Z" fill="#6482E8"/>
<path d="M139.682 19.8711H134.344V20.0479H139.682V19.8711Z" fill="#6483E9"/>
<path d="M139.682 20.0479H134.344V20.2246H139.682V20.0479Z" fill="#6484E9"/>
<path d="M139.682 20.2246H134.344V20.4014H139.682V20.2246Z" fill="#6585E9"/>
<path d="M139.682 20.4019H134.344V20.5786H139.682V20.4019Z" fill="#6586E9"/>
<path d="M139.682 20.5786H134.344V20.7554H139.682V20.5786Z" fill="#6687E9"/>
<path d="M139.682 20.7554H134.344V20.9322H139.682V20.7554Z" fill="#6688E9"/>
<path d="M139.682 20.9321H134.344V21.1089H139.682V20.9321Z" fill="#6789E9"/>
<path d="M139.682 21.1089H134.344V21.2857H139.682V21.1089Z" fill="#678AE9"/>
<path d="M134.344 21.2896L139.686 21.2856V21.3996H134.344V21.2896Z" fill="#678BE9"/>
<path d="M143.08 21.6391L137.715 21.6431V21.5566H143.08V21.6391Z" fill="#688CE9"/>
<path d="M143.08 21.6392H137.715V21.8159H143.08V21.6392Z" fill="#688DE9"/>
<path d="M143.08 21.8159H137.715V21.9927H143.08V21.8159Z" fill="#698EE9"/>
<path d="M143.08 21.9927H137.715V22.1695H143.08V21.9927Z" fill="#698FE9"/>
<path d="M143.08 22.1694H137.715V22.3462H143.08V22.1694Z" fill="#6990E9"/>
<path d="M143.08 22.3501H137.715V22.5269H143.08V22.3501Z" fill="#6A91E9"/>
<path d="M143.08 22.5269H137.715V22.7036H143.08V22.5269Z" fill="#6A92E9"/>
<path d="M143.08 22.7036H137.715V22.8804H143.08V22.7036Z" fill="#6B93E9"/>
<path d="M143.08 22.8804H137.715V23.0572H143.08V22.8804Z" fill="#6B94E9"/>
<path d="M143.08 23.0576H137.715V23.2344H143.08V23.0576Z" fill="#6C95E9"/>
<path d="M143.08 23.2344H137.715V23.4112H143.08V23.2344Z" fill="#6C96E9"/>
<path d="M143.08 23.4111H137.715V23.5879H143.08V23.4111Z" fill="#6C97E9"/>
<path d="M143.08 23.5879H137.715V23.7647H143.08V23.5879Z" fill="#6D98E9"/>
<path d="M143.08 23.7686H137.715V23.9453H143.08V23.7686Z" fill="#6D99E9"/>
<path d="M143.08 23.9453H137.715V24.1221H143.08V23.9453Z" fill="#6E9AE9"/>
<path d="M143.08 24.1221H137.715V24.2989H143.08V24.1221Z" fill="#6E9BE9"/>
<path d="M143.08 24.2988H137.715V24.4756H143.08V24.2988Z" fill="#6F9CE9"/>
<path d="M143.08 24.4756H137.715V24.6524H143.08V24.4756Z" fill="#6F9EEA"/>
<path d="M143.08 24.6523H137.715V24.8291H143.08V24.6523Z" fill="#6F9FEA"/>
<path d="M143.08 24.8291H137.715V25.0059H143.08V24.8291Z" fill="#70A0EA"/>
<path d="M143.08 25.0059H137.715V25.1826H143.08V25.0059Z" fill="#70A1EA"/>
<path d="M143.08 25.1865H137.715V25.3633H143.08V25.1865Z" fill="#71A2EA"/>
<path d="M143.08 25.3633H137.715V25.5401H143.08V25.3633Z" fill="#71A3EA"/>
<path d="M143.08 25.5405H137.715V25.7173H143.08V25.5405Z" fill="#72A4EA"/>
<path d="M143.08 25.7173H137.715V25.8941H143.08V25.7173Z" fill="#72A5EA"/>
<path d="M137.715 25.898L143.08 25.894V26.0355H137.715V25.898Z" fill="#72A6EA"/>
<path d="M136.449 25.0097L132.182 25.0137V24.9312H136.449V25.0097Z" fill="#70A0EA"/>
<path d="M136.449 25.0137H132.182V25.1905H136.449V25.0137Z" fill="#70A1EA"/>
<path d="M136.449 25.1904H132.182V25.3672H136.449V25.1904Z" fill="#71A2EA"/>
<path d="M136.449 25.3672H132.182V25.544H136.449V25.3672Z" fill="#71A3EA"/>
<path d="M136.449 25.5439H132.182V25.7207H136.449V25.5439Z" fill="#72A4EA"/>
<path d="M136.449 25.7207H132.182V25.8975H136.449V25.7207Z" fill="#72A5EA"/>
<path d="M136.449 25.8975H132.182V26.0743H136.449V25.8975Z" fill="#72A6EA"/>
<path d="M136.449 26.0742H132.182V26.251H136.449V26.0742Z" fill="#73A7EA"/>
<path d="M136.449 26.2549H132.182V26.4317H136.449V26.2549Z" fill="#73A8EA"/>
<path d="M136.449 26.4321H132.182V26.6089H136.449V26.4321Z" fill="#74A9EA"/>
<path d="M136.449 26.6089H132.182V26.7857H136.449V26.6089Z" fill="#74AAEA"/>
<path d="M136.449 26.7856H132.182V26.9624H136.449V26.7856Z" fill="#75ABEA"/>
<path d="M136.449 26.9624H132.182V27.1392H136.449V26.9624Z" fill="#75ACEA"/>
<path d="M136.449 27.1392H132.182V27.3159H136.449V27.1392Z" fill="#75ADEA"/>
<path d="M132.182 27.3198L136.449 27.3159V27.3277H132.182V27.3198Z" fill="#76AEEA"/>
<path d="M142.62 25.5364L138.008 25.5404V25.4814H142.62V25.5364Z" fill="#71A3EA"/>
<path d="M142.62 25.5405H138.008V25.7173H142.62V25.5405Z" fill="#72A4EA"/>
<path d="M142.62 25.7173H138.008V25.8941H142.62V25.7173Z" fill="#72A5EA"/>
<path d="M142.62 25.894H138.008V26.0708H142.62V25.894Z" fill="#72A6EA"/>
<path d="M142.62 26.0708H138.008V26.2476H142.62V26.0708Z" fill="#73A7EA"/>
<path d="M142.62 26.2476H138.008V26.4243H142.62V26.2476Z" fill="#73A8EA"/>
<path d="M142.62 26.4243H138.008V26.6011H142.62V26.4243Z" fill="#74A9EA"/>
<path d="M142.62 26.605H138.008V26.7818H142.62V26.605Z" fill="#74AAEA"/>
<path d="M142.62 26.7817H138.008V26.9585H142.62V26.7817Z" fill="#75ABEA"/>
<path d="M142.62 26.9585H138.008V27.1353H142.62V26.9585Z" fill="#75ACEA"/>
<path d="M142.62 27.1353H138.008V27.312H142.62V27.1353Z" fill="#75ADEA"/>
<path d="M142.62 27.312H138.008V27.4888H142.62V27.312Z" fill="#76AEEA"/>
<path d="M138.008 27.4927L142.62 27.4888V27.587H138.008V27.4927Z" fill="#76AFEA"/>
<path d="M138.924 26.7461H135.818V26.7815H138.924V26.7461Z" fill="#74AAEA"/>
<path d="M138.924 26.7812H135.818V26.958H138.924V26.7812Z" fill="#75ABEA"/>
<path d="M138.924 26.958H135.818V27.1348H138.924V26.958Z" fill="#75ACEA"/>
<path d="M138.924 27.1392H135.818V27.3159H138.924V27.1392Z" fill="#75ADEA"/>
<path d="M138.924 27.3159H135.818V27.4927H138.924V27.3159Z" fill="#76AEEA"/>
<path d="M138.924 27.4927H135.818V27.6498H138.924V27.4927Z" fill="#76AFEA"/>
<path d="M143.789 25.4106H142.207V25.5364H143.789V25.4106Z" fill="#71A3EA"/>
<path d="M143.789 25.5361H142.207V25.7129H143.789V25.5361Z" fill="#72A4EA"/>
<path d="M143.789 25.7134H142.207V25.8902H143.789V25.7134Z" fill="#72A5EA"/>
<path d="M143.789 25.894H142.207V26.0708H143.789V25.894Z" fill="#72A6EA"/>
<path d="M143.789 26.0708H142.207V26.2476H143.789V26.0708Z" fill="#73A7EA"/>
<path d="M143.789 26.2476H142.207V26.4243H143.789V26.2476Z" fill="#73A8EA"/>
<path d="M143.789 26.4243H142.207V26.5343H143.789V26.4243Z" fill="#74A9EA"/>
<path d="M145.372 15.3766L140.629 15.3806V15.3491H145.372V15.3766Z" fill="#7B79E6"/>
<path d="M145.376 15.3804H140.629V15.4511H145.376V15.3804Z" fill="#7A79E6"/>
<path d="M145.376 15.4473H140.629V15.518H145.376V15.4473Z" fill="#7979E6"/>
<path d="M145.376 15.5181H140.629V15.5888H145.376V15.5181Z" fill="#7879E6"/>
<path d="M145.376 15.585H140.629V15.6557H145.376V15.585Z" fill="#7779E6"/>
<path d="M145.376 15.6558H140.629V15.7265H145.376V15.6558Z" fill="#7679E6"/>
<path d="M145.376 15.7261H140.629V15.7968H145.376V15.7261Z" fill="#7579E6"/>
<path d="M145.376 15.793H140.629V15.8637H145.376V15.793Z" fill="#7478E6"/>
<path d="M145.376 15.8638H140.629V15.9345H145.376V15.8638Z" fill="#7378E6"/>
<path d="M145.376 15.9307H140.629V16.0014H145.376V15.9307Z" fill="#7278E6"/>
<path d="M145.376 16.0015H140.629V16.0722H145.376V16.0015Z" fill="#7178E6"/>
<path d="M145.376 16.0718H140.629V16.1425H145.376V16.0718Z" fill="#7078E7"/>
<path d="M145.376 16.1387H140.629V16.2094H145.376V16.1387Z" fill="#6F78E7"/>
<path d="M145.376 16.2095H140.629V16.2802H145.376V16.2095Z" fill="#6E77E7"/>
<path d="M145.376 16.2764H140.629V16.3471H145.376V16.2764Z" fill="#6D77E7"/>
<path d="M145.376 16.3472H140.629V16.4179H145.376V16.3472Z" fill="#6C77E7"/>
<path d="M145.376 16.4136H140.629V16.4843H145.376V16.4136Z" fill="#6B77E7"/>
<path d="M145.376 16.4844H140.629V16.5551H145.376V16.4844Z" fill="#6A77E7"/>
<path d="M145.376 16.5552H140.629V16.6259H145.376V16.5552Z" fill="#6977E7"/>
<path d="M145.376 16.6221H140.629V16.6928H145.376V16.6221Z" fill="#6877E7"/>
<path d="M145.376 16.6929H140.629V16.7636H145.376V16.6929Z" fill="#6776E7"/>
<path d="M145.376 16.7593H140.629V16.83H145.376V16.7593Z" fill="#6676E7"/>
<path d="M145.376 16.8301H140.629V16.9008H145.376V16.8301Z" fill="#6576E7"/>
<path d="M145.376 16.9009H140.629V16.9716H145.376V16.9009Z" fill="#6476E8"/>
<path d="M145.376 16.9678H140.629V17.0385H145.376V16.9678Z" fill="#6376E8"/>
<path d="M145.376 17.0386H140.629V17.1093H145.376V17.0386Z" fill="#6276E8"/>
<path d="M145.376 17.1055H140.629V17.1762H145.376V17.1055Z" fill="#6175E8"/>
<path d="M145.376 17.1758H140.629V17.2465H145.376V17.1758Z" fill="#6075E8"/>
<path d="M145.376 17.2427H140.629V17.3134H145.376V17.2427Z" fill="#5F75E8"/>
<path d="M145.376 17.3135H140.629V17.3842H145.376V17.3135Z" fill="#5E75E8"/>
<path d="M145.376 17.3843H140.629V17.5611H145.376V17.3843Z" fill="#5E75E8"/>
<path d="M145.376 17.561H140.629V17.7378H145.376V17.561Z" fill="#5E76E8"/>
<path d="M145.376 17.7378H140.629V17.9146H145.376V17.7378Z" fill="#5F77E8"/>
<path d="M145.376 17.9146H140.629V18.0913H145.376V17.9146Z" fill="#5F78E8"/>
<path d="M145.376 18.0913H140.629V18.2681H145.376V18.0913Z" fill="#6079E8"/>
<path d="M145.376 18.2681H140.629V18.4449H145.376V18.2681Z" fill="#607AE8"/>
<path d="M145.376 18.4448H140.629V18.6216H145.376V18.4448Z" fill="#617BE8"/>
<path d="M145.376 18.6216H140.629V18.7984H145.376V18.6216Z" fill="#617CE8"/>
<path d="M145.376 18.8022H140.629V18.979H145.376V18.8022Z" fill="#617DE8"/>
<path d="M145.376 18.979H140.629V19.1558H145.376V18.979Z" fill="#627EE8"/>
<path d="M145.376 19.1558H140.629V19.3326H145.376V19.1558Z" fill="#627FE8"/>
<path d="M145.376 19.333H140.629V19.5098H145.376V19.333Z" fill="#6380E8"/>
<path d="M145.376 19.5098H140.629V19.6866H145.376V19.5098Z" fill="#6381E8"/>
<path d="M145.376 19.6865H140.629V19.8633H145.376V19.6865Z" fill="#6482E8"/>
<path d="M145.376 19.8633H140.629V20.0401H145.376V19.8633Z" fill="#6483E9"/>
<path d="M145.376 20.04H140.629V20.2168H145.376V20.04Z" fill="#6484E9"/>
<path d="M145.376 20.2207H140.629V20.3975H145.376V20.2207Z" fill="#6585E9"/>
<path d="M140.629 20.3975L145.372 20.3936V20.5664H140.629V20.3975Z" fill="#6586E9"/>
<path d="M145.535 12.7446H142.283V12.7525H145.535V12.7446Z" fill="#A27FE3"/>
<path d="M145.535 12.7529H142.283V12.8236H145.535V12.7529Z" fill="#A17FE3"/>
<path d="M145.535 12.8232H142.283V12.894H145.535V12.8232Z" fill="#A07FE3"/>
<path d="M145.535 12.894H142.283V12.9648H145.535V12.894Z" fill="#9F7FE3"/>
<path d="M145.535 12.9609H142.283V13.0317H145.535V12.9609Z" fill="#9E7FE3"/>
<path d="M145.535 13.0312H142.283V13.102H145.535V13.0312Z" fill="#9D7FE3"/>
<path d="M145.535 13.0981H142.283V13.1689H145.535V13.0981Z" fill="#9B7EE3"/>
<path d="M145.535 13.1689H142.283V13.2397H145.535V13.1689Z" fill="#9A7EE3"/>
<path d="M145.535 13.2397H142.283V13.3105H145.535V13.2397Z" fill="#997EE3"/>
<path d="M145.535 13.3066H142.283V13.3774H145.535V13.3066Z" fill="#987EE3"/>
<path d="M145.535 13.377H142.283V13.4477H145.535V13.377Z" fill="#977EE3"/>
<path d="M145.535 13.4438H142.283V13.5146H145.535V13.4438Z" fill="#967EE3"/>
<path d="M145.535 13.5146H142.283V13.5854H145.535V13.5146Z" fill="#957DE4"/>
<path d="M145.535 13.5815H142.283V13.6523H145.535V13.5815Z" fill="#947DE4"/>
<path d="M145.535 13.6523H142.283V13.7231H145.535V13.6523Z" fill="#937DE4"/>
<path d="M145.535 13.7227H142.283V13.7934H145.535V13.7227Z" fill="#927DE4"/>
<path d="M145.535 13.7896H142.283V13.8603H145.535V13.7896Z" fill="#917DE4"/>
<path d="M145.535 13.8604H142.283V13.9311H145.535V13.8604Z" fill="#907DE4"/>
<path d="M145.535 13.9272H142.283V13.998H145.535V13.9272Z" fill="#8F7DE4"/>
<path d="M145.535 13.998H142.283V14.0688H145.535V13.998Z" fill="#8E7CE4"/>
<path d="M145.535 14.0645H142.283V14.1352H145.535V14.0645Z" fill="#8D7CE4"/>
<path d="M145.535 14.1353H142.283V14.206H145.535V14.1353Z" fill="#8C7CE4"/>
<path d="M145.535 14.2061H142.283V14.2768H145.535V14.2061Z" fill="#8B7CE4"/>
<path d="M145.535 14.2729H142.283V14.3437H145.535V14.2729Z" fill="#8A7CE4"/>
<path d="M145.535 14.3438H142.283V14.4145H145.535V14.3438Z" fill="#897CE5"/>
<path d="M145.535 14.4102H142.283V14.4809H145.535V14.4102Z" fill="#887BE5"/>
<path d="M145.535 14.481H142.283V14.5517H145.535V14.481Z" fill="#877BE5"/>
<path d="M145.535 14.5518H142.283V14.6225H145.535V14.5518Z" fill="#867BE5"/>
<path d="M145.535 14.6187H142.283V14.6894H145.535V14.6187Z" fill="#857BE5"/>
<path d="M145.535 14.6895H142.283V14.7602H145.535V14.6895Z" fill="#847BE5"/>
<path d="M145.535 14.7559H142.283V14.8266H145.535V14.7559Z" fill="#837BE5"/>
<path d="M145.535 14.8267H142.283V14.8974H145.535V14.8267Z" fill="#827BE5"/>
<path d="M145.535 14.8936H142.283V14.9643H145.535V14.8936Z" fill="#817AE5"/>
<path d="M145.535 14.9644H142.283V15.0351H145.535V14.9644Z" fill="#807AE5"/>
<path d="M145.535 15.0352H142.283V15.1059H145.535V15.0352Z" fill="#7F7AE5"/>
<path d="M145.535 15.1021H142.283V15.1728H145.535V15.1021Z" fill="#7E7AE5"/>
<path d="M145.535 15.1724H142.283V15.2431H145.535V15.1724Z" fill="#7D7AE5"/>
<path d="M145.535 15.2393H142.283V15.31H145.535V15.2393Z" fill="#7C7AE6"/>
<path d="M145.535 15.3101H142.283V15.3808H145.535V15.3101Z" fill="#7B79E6"/>
<path d="M145.535 15.3809H142.283V15.4516H145.535V15.3809Z" fill="#7A79E6"/>
<path d="M145.535 15.4478H142.283V15.5185H145.535V15.4478Z" fill="#7979E6"/>
<path d="M145.535 15.5181H142.283V15.5888H145.535V15.5181Z" fill="#7879E6"/>
<path d="M145.535 15.585H142.283V15.6557H145.535V15.585Z" fill="#7779E6"/>
<path d="M145.535 15.6558H142.283V15.7265H145.535V15.6558Z" fill="#7679E6"/>
<path d="M145.535 15.7227H142.283V15.7934H145.535V15.7227Z" fill="#7579E6"/>
<path d="M145.535 15.7935H142.283V15.8642H145.535V15.7935Z" fill="#7478E6"/>
<path d="M145.535 15.8638H142.283V15.9345H145.535V15.8638Z" fill="#7378E6"/>
<path d="M145.535 15.9307H142.283V16.0014H145.535V15.9307Z" fill="#7278E6"/>
<path d="M145.535 16.0015H142.283V16.0722H145.535V16.0015Z" fill="#7178E6"/>
<path d="M145.535 16.0684H142.283V16.1391H145.535V16.0684Z" fill="#7078E7"/>
<path d="M145.535 16.1392H142.283V16.2099H145.535V16.1392Z" fill="#6F78E7"/>
<path d="M145.535 16.2095H142.283V16.2802H145.535V16.2095Z" fill="#6E77E7"/>
<path d="M145.535 16.2764H142.283V16.3471H145.535V16.2764Z" fill="#6D77E7"/>
<path d="M145.535 16.3472H142.283V16.4179H145.535V16.3472Z" fill="#6C77E7"/>
<path d="M145.535 16.4141H142.283V16.4848H145.535V16.4141Z" fill="#6B77E7"/>
<path d="M145.535 16.4849H142.283V16.5556H145.535V16.4849Z" fill="#6A77E7"/>
<path d="M145.535 16.5513H142.283V16.622H145.535V16.5513Z" fill="#6977E7"/>
<path d="M145.535 16.6221H142.283V16.6928H145.535V16.6221Z" fill="#6877E7"/>
<path d="M145.535 16.6929H142.283V16.7636H145.535V16.6929Z" fill="#6776E7"/>
<path d="M145.535 16.7598H142.283V16.8305H145.535V16.7598Z" fill="#6676E7"/>
<path d="M145.535 16.8306H142.283V16.9013H145.535V16.8306Z" fill="#6576E7"/>
<path d="M145.535 16.897H142.283V16.9677H145.535V16.897Z" fill="#6476E8"/>
<path d="M145.535 16.9678H142.283V17.0385H145.535V16.9678Z" fill="#6376E8"/>
<path d="M145.535 17.0347H142.283V17.1054H145.535V17.0347Z" fill="#6276E8"/>
<path d="M145.535 17.1055H142.283V17.1762H145.535V17.1055Z" fill="#6175E8"/>
<path d="M145.535 17.1763H142.283V17.247H145.535V17.1763Z" fill="#6075E8"/>
<path d="M145.535 17.2432H142.283V17.3139H145.535V17.2432Z" fill="#5F75E8"/>
<path d="M145.535 17.3135H142.283V17.3842H145.535V17.3135Z" fill="#5E75E8"/>
<path d="M145.535 17.3804H142.283V17.5572H145.535V17.3804Z" fill="#5E75E8"/>
<path d="M145.535 17.561H142.283V17.7378H145.535V17.561Z" fill="#5E76E8"/>
<path d="M145.535 17.7378H142.283V17.9146H145.535V17.7378Z" fill="#5F77E8"/>
<path d="M145.535 17.9146H142.283V17.9342H145.535V17.9146Z" fill="#5F78E8"/>
<path d="M145.463 19.329L140.748 19.3329V19.1797H145.463V19.329Z" fill="#627FE8"/>
<path d="M145.463 19.333H140.748V19.5098H145.463V19.333Z" fill="#6380E8"/>
<path d="M145.463 19.5098H140.748V19.6866H145.463V19.5098Z" fill="#6381E8"/>
<path d="M145.463 19.6865H140.748V19.8633H145.463V19.6865Z" fill="#6482E8"/>
<path d="M145.463 19.8633H140.748V20.0401H145.463V19.8633Z" fill="#6483E9"/>
<path d="M145.463 20.04H140.748V20.2168H145.463V20.04Z" fill="#6484E9"/>
<path d="M145.463 20.2207H140.748V20.3975H145.463V20.2207Z" fill="#6585E9"/>
<path d="M145.463 20.3975H140.748V20.5743H145.463V20.3975Z" fill="#6586E9"/>
<path d="M145.463 20.5742H140.748V20.751H145.463V20.5742Z" fill="#6687E9"/>
<path d="M145.463 20.751H140.748V20.9278H145.463V20.751Z" fill="#6688E9"/>
<path d="M145.463 20.9277H140.748V21.1045H145.463V20.9277Z" fill="#6789E9"/>
<path d="M145.463 21.1045H140.748V21.2813H145.463V21.1045Z" fill="#678AE9"/>
<path d="M145.463 21.2817H140.748V21.4585H145.463V21.2817Z" fill="#678BE9"/>
<path d="M145.463 21.4585H140.748V21.6353H145.463V21.4585Z" fill="#688CE9"/>
<path d="M145.463 21.6392H140.748V21.8159H145.463V21.6392Z" fill="#688DE9"/>
<path d="M145.463 21.8159H140.748V21.9927H145.463V21.8159Z" fill="#698EE9"/>
<path d="M145.463 21.9927H140.748V22.1695H145.463V21.9927Z" fill="#698FE9"/>
<path d="M145.463 22.1694H140.748V22.3462H145.463V22.1694Z" fill="#6990E9"/>
<path d="M145.463 22.3462H140.748V22.523H145.463V22.3462Z" fill="#6A91E9"/>
<path d="M145.463 22.5229H140.748V22.6997H145.463V22.5229Z" fill="#6A92E9"/>
<path d="M145.463 22.6997H140.748V22.8765H145.463V22.6997Z" fill="#6B93E9"/>
<path d="M145.463 22.8765H140.748V23.0533H145.463V22.8765Z" fill="#6B94E9"/>
<path d="M145.463 23.0571H140.748V23.2339H145.463V23.0571Z" fill="#6C95E9"/>
<path d="M145.463 23.2339H140.748V23.4107H145.463V23.2339Z" fill="#6C96E9"/>
<path d="M145.463 23.4106H140.748V23.5874H145.463V23.4106Z" fill="#6C97E9"/>
<path d="M145.463 23.5874H140.748V23.7642H145.463V23.5874Z" fill="#6D98E9"/>
<path d="M145.463 23.7646H140.748V23.9414H145.463V23.7646Z" fill="#6D99E9"/>
<path d="M145.463 23.9414H140.748V24.1182H145.463V23.9414Z" fill="#6E9AE9"/>
<path d="M145.463 24.1182H140.748V24.295H145.463V24.1182Z" fill="#6E9BE9"/>
<path d="M140.748 24.2988L145.463 24.2949V24.4364H140.748V24.2988Z" fill="#6F9CE9"/>
<path d="M147.132 13.4438H145.221V13.5146H147.132V13.4438Z" fill="#967EE3"/>
<path d="M147.132 13.5107H145.221V13.5815H147.132V13.5107Z" fill="#957DE4"/>
<path d="M147.132 13.5815H145.221V13.6523H147.132V13.5815Z" fill="#947DE4"/>
<path d="M147.132 13.6519H145.221V13.7226H147.132V13.6519Z" fill="#937DE4"/>
<path d="M147.132 13.7188H145.221V13.7895H147.132V13.7188Z" fill="#927DE4"/>
<path d="M147.132 13.7896H145.221V13.8603H147.132V13.7896Z" fill="#917DE4"/>
<path d="M147.132 13.8564H145.221V13.9272H147.132V13.8564Z" fill="#907DE4"/>
<path d="M147.132 13.9272H145.221V13.998H147.132V13.9272Z" fill="#8F7DE4"/>
<path d="M147.132 13.9937H145.221V14.0644H147.132V13.9937Z" fill="#8E7CE4"/>
<path d="M147.132 14.0645H145.221V14.1352H147.132V14.0645Z" fill="#8D7CE4"/>
<path d="M147.132 14.1353H145.221V14.206H147.132V14.1353Z" fill="#8C7CE4"/>
<path d="M147.132 14.2021H145.221V14.2729H147.132V14.2021Z" fill="#8B7CE4"/>
<path d="M147.132 14.2729H145.221V14.3437H147.132V14.2729Z" fill="#8A7CE4"/>
<path d="M147.132 14.3398H145.221V14.4106H147.132V14.3398Z" fill="#897CE5"/>
<path d="M147.132 14.4102H145.221V14.4809H147.132V14.4102Z" fill="#887BE5"/>
<path d="M147.132 14.481H145.221V14.5517H147.132V14.481Z" fill="#877BE5"/>
<path d="M147.132 14.5479H145.221V14.6186H147.132V14.5479Z" fill="#867BE5"/>
<path d="M147.132 14.6187H145.221V14.6894H147.132V14.6187Z" fill="#857BE5"/>
<path d="M147.132 14.6855H145.221V14.7563H147.132V14.6855Z" fill="#847BE5"/>
<path d="M147.132 14.7559H145.221V14.8266H147.132V14.7559Z" fill="#837BE5"/>
<path d="M147.132 14.8228H145.221V14.8935H147.132V14.8228Z" fill="#827BE5"/>
<path d="M147.132 14.8936H145.221V14.9643H147.132V14.8936Z" fill="#817AE5"/>
<path d="M147.132 14.9644H145.221V15.0351H147.132V14.9644Z" fill="#807AE5"/>
<path d="M147.132 15.0312H145.221V15.102H147.132V15.0312Z" fill="#7F7AE5"/>
<path d="M147.132 15.1016H145.221V15.1723H147.132V15.1016Z" fill="#7E7AE5"/>
<path d="M147.132 15.1685H145.221V15.2392H147.132V15.1685Z" fill="#7D7AE5"/>
<path d="M147.132 15.2393H145.221V15.31H147.132V15.2393Z" fill="#7C7AE6"/>
<path d="M147.132 15.3062H145.221V15.3769H147.132V15.3062Z" fill="#7B79E6"/>
<path d="M147.132 15.377H145.221V15.4477H147.132V15.377Z" fill="#7A79E6"/>
<path d="M147.132 15.4473H145.221V15.518H147.132V15.4473Z" fill="#7979E6"/>
<path d="M147.132 15.5142H145.221V15.5849H147.132V15.5142Z" fill="#7879E6"/>
<path d="M147.132 15.585H145.221V15.6557H147.132V15.585Z" fill="#7779E6"/>
<path d="M147.132 15.6519H145.221V15.7226H147.132V15.6519Z" fill="#7679E6"/>
<path d="M147.132 15.7227H145.221V15.7934H147.132V15.7227Z" fill="#7579E6"/>
<path d="M147.132 15.793H145.221V15.8637H147.132V15.793Z" fill="#7478E6"/>
<path d="M147.132 15.8599H145.221V15.9306H147.132V15.8599Z" fill="#7378E6"/>
<path d="M147.132 15.9307H145.221V16.0014H147.132V15.9307Z" fill="#7278E6"/>
<path d="M147.132 15.9976H145.221V16.0683H147.132V15.9976Z" fill="#7178E6"/>
<path d="M147.132 16.0684H145.221V16.1391H147.132V16.0684Z" fill="#7078E7"/>
<path d="M147.132 16.1348H145.221V16.2055H147.132V16.1348Z" fill="#6F78E7"/>
<path d="M147.132 16.2056H145.221V16.2763H147.132V16.2056Z" fill="#6E77E7"/>
<path d="M147.132 16.2764H145.221V16.3471H147.132V16.2764Z" fill="#6D77E7"/>
<path d="M147.132 16.3433H145.221V16.414H147.132V16.3433Z" fill="#6C77E7"/>
<path d="M147.132 16.4141H145.221V16.4848H147.132V16.4141Z" fill="#6B77E7"/>
<path d="M147.132 16.481H145.221V16.5517H147.132V16.481Z" fill="#6A77E7"/>
<path d="M147.132 16.5513H145.221V16.622H147.132V16.5513Z" fill="#6977E7"/>
<path d="M147.132 16.6221H145.221V16.6928H147.132V16.6221Z" fill="#6877E7"/>
<path d="M147.132 16.689H145.221V16.7597H147.132V16.689Z" fill="#6776E7"/>
<path d="M147.132 16.7598H145.221V16.8305H147.132V16.7598Z" fill="#6676E7"/>
<path d="M147.132 16.8267H145.221V16.8974H147.132V16.8267Z" fill="#6576E7"/>
<path d="M147.132 16.897H145.221V16.9677H147.132V16.897Z" fill="#6476E8"/>
<path d="M147.132 16.9639H145.221V17.0346H147.132V16.9639Z" fill="#6376E8"/>
<path d="M147.132 17.0347H145.221V17.1054H147.132V17.0347Z" fill="#6276E8"/>
<path d="M147.132 17.1055H145.221V17.1762H147.132V17.1055Z" fill="#6175E8"/>
<path d="M147.132 17.1724H145.221V17.2431H147.132V17.1724Z" fill="#6075E8"/>
<path d="M147.132 17.2427H145.221V17.3134H147.132V17.2427Z" fill="#5F75E8"/>
<path d="M147.132 17.3096H145.221V17.3803H147.132V17.3096Z" fill="#5E75E8"/>
<path d="M147.132 17.3804H145.221V17.5572H147.132V17.3804Z" fill="#5E75E8"/>
<path d="M147.132 17.5571H145.221V17.7339H147.132V17.5571Z" fill="#5E76E8"/>
<path d="M147.132 17.7339H145.221V17.9107H147.132V17.7339Z" fill="#5F77E8"/>
<path d="M147.132 17.9106H145.221V17.9892H147.132V17.9106Z" fill="#5F78E8"/>
<path d="M146.642 19.5688H144.215V19.6867H146.642V19.5688Z" fill="#6381E8"/>
<path d="M146.642 19.6865H144.215V19.8633H146.642V19.6865Z" fill="#6482E8"/>
<path d="M146.642 19.8633H144.215V20.0401H146.642V19.8633Z" fill="#6483E9"/>
<path d="M146.642 20.0405H144.215V20.2173H146.642V20.0405Z" fill="#6484E9"/>
<path d="M146.642 20.2173H144.215V20.3941H146.642V20.2173Z" fill="#6585E9"/>
<path d="M146.642 20.394H144.215V20.5708H146.642V20.394Z" fill="#6586E9"/>
<path d="M146.642 20.5708H144.215V20.7476H146.642V20.5708Z" fill="#6687E9"/>
<path d="M146.642 20.7476H144.215V20.9243H146.642V20.7476Z" fill="#6688E9"/>
<path d="M146.642 20.9282H144.215V21.105H146.642V20.9282Z" fill="#6789E9"/>
<path d="M146.642 21.105H144.215V21.2818H146.642V21.105Z" fill="#678AE9"/>
<path d="M146.642 21.2817H144.215V21.4585H146.642V21.2817Z" fill="#678BE9"/>
<path d="M146.642 21.4585H144.215V21.6353H146.642V21.4585Z" fill="#688CE9"/>
<path d="M146.642 21.6353H144.215V21.812H146.642V21.6353Z" fill="#688DE9"/>
<path d="M146.642 21.812H144.215V21.9888H146.642V21.812Z" fill="#698EE9"/>
<path d="M146.642 21.9888H144.215V22.1656H146.642V21.9888Z" fill="#698FE9"/>
<path d="M146.642 22.1655H144.215V22.3423H146.642V22.1655Z" fill="#6990E9"/>
<path d="M146.642 22.3462H144.215V22.523H146.642V22.3462Z" fill="#6A91E9"/>
<path d="M146.642 22.5229H144.215V22.6997H146.642V22.5229Z" fill="#6A92E9"/>
<path d="M146.642 22.7002H144.215V22.877H146.642V22.7002Z" fill="#6B93E9"/>
<path d="M146.642 22.877H144.215V23.0537H146.642V22.877Z" fill="#6B94E9"/>
<path d="M146.642 23.0537H144.215V23.2305H146.642V23.0537Z" fill="#6C95E9"/>
<path d="M146.642 23.2305H144.215V23.4073H146.642V23.2305Z" fill="#6C96E9"/>
<path d="M146.642 23.4072H144.215V23.584H146.642V23.4072Z" fill="#6C97E9"/>
<path d="M146.642 23.584H144.215V23.7608H146.642V23.584Z" fill="#6D98E9"/>
<path d="M146.642 23.7646H144.215V23.9414H146.642V23.7646Z" fill="#6D99E9"/>
<path d="M146.642 23.9414H144.215V24.0828H146.642V23.9414Z" fill="#6E9AE9"/>
<path d="M147.176 17.4785H146.225V17.5571H147.176V17.4785Z" fill="#5E75E8"/>
<path d="M147.176 17.5571H146.225V17.7339H147.176V17.5571Z" fill="#5E76E8"/>
<path d="M147.176 17.7339H146.225V17.9107H147.176V17.7339Z" fill="#5F77E8"/>
<path d="M147.176 17.9106H146.225V18.0874H147.176V17.9106Z" fill="#5F78E8"/>
<path d="M147.176 18.0874H146.225V18.2642H147.176V18.0874Z" fill="#6079E8"/>
<path d="M147.176 18.2642H146.225V18.4409H147.176V18.2642Z" fill="#607AE8"/>
<path d="M147.176 18.4448H146.225V18.6216H147.176V18.4448Z" fill="#617BE8"/>
<path d="M147.176 18.6216H146.225V18.7984H147.176V18.6216Z" fill="#617CE8"/>
<path d="M147.176 18.7983H146.225V18.9751H147.176V18.7983Z" fill="#617DE8"/>
<path d="M147.176 18.9751H146.225V19.1519H147.176V18.9751Z" fill="#627EE8"/>
<path d="M147.176 19.1523H146.225V19.3291H147.176V19.1523Z" fill="#627FE8"/>
<path d="M147.176 19.3291H146.225V19.5059H147.176V19.3291Z" fill="#6380E8"/>
<path d="M147.176 19.5059H146.225V19.6826H147.176V19.5059Z" fill="#6381E8"/>
<path d="M147.176 19.6826H146.225V19.8594H147.176V19.6826Z" fill="#6482E8"/>
<path d="M147.176 19.8633H146.225V20.0401H147.176V19.8633Z" fill="#6483E9"/>
<path d="M147.176 20.04H146.225V20.2168H147.176V20.04Z" fill="#6484E9"/>
<path d="M147.176 20.2168H146.225V20.3936H147.176V20.2168Z" fill="#6585E9"/>
<path d="M147.176 20.3936H146.225V20.5703H147.176V20.3936Z" fill="#6586E9"/>
<path d="M147.176 20.5703H146.225V20.645H147.176V20.5703Z" fill="#6687E9"/>
<path d="M145.289 23.8076H143.992V23.9412H145.289V23.8076Z" fill="#6D99E9"/>
<path d="M145.289 23.9414H143.992V24.1182H145.289V23.9414Z" fill="#6E9AE9"/>
<path d="M145.289 24.1182H143.992V24.295H145.289V24.1182Z" fill="#6E9BE9"/>
<path d="M145.289 24.2949H143.992V24.4717H145.289V24.2949Z" fill="#6F9CE9"/>
<path d="M145.289 24.4717H143.992V24.6485H145.289V24.4717Z" fill="#6F9EEA"/>
<path d="M145.289 24.6484H143.992V24.8252H145.289V24.6484Z" fill="#6F9FEA"/>
<path d="M145.289 24.8252H143.992V25.002H145.289V24.8252Z" fill="#70A0EA"/>
<path d="M145.289 25.0059H143.992V25.1826H145.289V25.0059Z" fill="#70A1EA"/>
<path d="M145.289 25.1826H143.992V25.273H145.289V25.1826Z" fill="#71A2EA"/>
<path d="M141.315 10.6858L136.072 10.6897V10.6387H141.315V10.6858Z" fill="#C084E0"/>
<path d="M141.311 10.686H136.072V10.7568H141.311V10.686Z" fill="#BF84E0"/>
<path d="M141.311 10.7563H136.072V10.8271H141.311V10.7563Z" fill="#BE84E0"/>
<path d="M141.311 10.8232H136.072V10.894H141.311V10.8232Z" fill="#BD84E0"/>
<path d="M141.311 10.894H136.072V10.9648H141.311V10.894Z" fill="#BC83E0"/>
<path d="M141.311 10.9609H136.072V11.0317H141.311V10.9609Z" fill="#BB83E1"/>
<path d="M141.311 11.0317H136.072V11.1025H141.311V11.0317Z" fill="#BA83E1"/>
<path d="M141.311 11.1021H136.072V11.1728H141.311V11.1021Z" fill="#B983E1"/>
<path d="M141.311 11.1689H136.072V11.2397H141.311V11.1689Z" fill="#B883E1"/>
<path d="M141.311 11.2397H136.072V11.3105H141.311V11.2397Z" fill="#B783E1"/>
<path d="M141.311 11.3066H136.072V11.3774H141.311V11.3066Z" fill="#B682E1"/>
<path d="M141.311 11.3774H136.072V11.4482H141.311V11.3774Z" fill="#B582E1"/>
<path d="M141.311 11.4478H136.072V11.5185H141.311V11.4478Z" fill="#B482E1"/>
<path d="M141.311 11.5146H136.072V11.5854H141.311V11.5146Z" fill="#B382E1"/>
<path d="M141.311 11.5854H136.072V11.6562H141.311V11.5854Z" fill="#B282E1"/>
<path d="M141.311 11.6523H136.072V11.7231H141.311V11.6523Z" fill="#B182E1"/>
<path d="M141.311 11.7231H136.072V11.7939H141.311V11.7231Z" fill="#B082E1"/>
<path d="M141.311 11.7896H136.072V11.8603H141.311V11.7896Z" fill="#AF81E1"/>
<path d="M141.311 11.8604H136.072V11.9311H141.311V11.8604Z" fill="#AE81E2"/>
<path d="M141.311 11.9312H136.072V12.0019H141.311V11.9312Z" fill="#AD81E2"/>
<path d="M141.311 11.998H136.072V12.0688H141.311V11.998Z" fill="#AC81E2"/>
<path d="M141.311 12.0688H136.072V12.1396H141.311V12.0688Z" fill="#AB81E2"/>
<path d="M141.311 12.1353H136.072V12.206H141.311V12.1353Z" fill="#AA81E2"/>
<path d="M141.311 12.2061H136.072V12.2768H141.311V12.2061Z" fill="#A980E2"/>
<path d="M141.311 12.2769H136.072V12.3476H141.311V12.2769Z" fill="#A880E2"/>
<path d="M141.311 12.3438H136.072V12.4145H141.311V12.3438Z" fill="#A780E2"/>
<path d="M141.311 12.4146H136.072V12.4853H141.311V12.4146Z" fill="#A680E2"/>
<path d="M141.311 12.4814H136.072V12.5522H141.311V12.4814Z" fill="#A580E2"/>
<path d="M141.311 12.5518H136.072V12.6225H141.311V12.5518Z" fill="#A480E2"/>
<path d="M141.311 12.6187H136.072V12.6894H141.311V12.6187Z" fill="#A380E2"/>
<path d="M141.311 12.6895H136.072V12.7602H141.311V12.6895Z" fill="#A27FE3"/>
<path d="M141.311 12.7603H136.072V12.831H141.311V12.7603Z" fill="#A17FE3"/>
<path d="M141.311 12.8271H136.072V12.8979H141.311V12.8271Z" fill="#A07FE3"/>
<path d="M141.311 12.8975H136.072V12.9682H141.311V12.8975Z" fill="#9F7FE3"/>
<path d="M141.311 12.9644H136.072V13.0351H141.311V12.9644Z" fill="#9E7FE3"/>
<path d="M141.311 13.0352H136.072V13.1059H141.311V13.0352Z" fill="#9D7FE3"/>
<path d="M141.311 13.1021H136.072V13.1728H141.311V13.1021Z" fill="#9B7EE3"/>
<path d="M141.311 13.1729H136.072V13.2436H141.311V13.1729Z" fill="#9A7EE3"/>
<path d="M141.311 13.2432H136.072V13.3139H141.311V13.2432Z" fill="#997EE3"/>
<path d="M141.311 13.3101H136.072V13.3808H141.311V13.3101Z" fill="#987EE3"/>
<path d="M141.311 13.3809H136.072V13.4516H141.311V13.3809Z" fill="#977EE3"/>
<path d="M141.311 13.4478H136.072V13.5185H141.311V13.4478Z" fill="#967EE3"/>
<path d="M141.311 13.5186H136.072V13.5893H141.311V13.5186Z" fill="#957DE4"/>
<path d="M141.311 13.5889H136.072V13.6596H141.311V13.5889Z" fill="#947DE4"/>
<path d="M141.311 13.6558H136.072V13.7265H141.311V13.6558Z" fill="#937DE4"/>
<path d="M141.311 13.7266H136.072V13.7973H141.311V13.7266Z" fill="#927DE4"/>
<path d="M141.311 13.7935H136.072V13.8642H141.311V13.7935Z" fill="#917DE4"/>
<path d="M141.311 13.8643H136.072V13.935H141.311V13.8643Z" fill="#907DE4"/>
<path d="M141.311 13.9307H136.072V14.0014H141.311V13.9307Z" fill="#8F7DE4"/>
<path d="M141.311 14.0015H136.072V14.0722H141.311V14.0015Z" fill="#8E7CE4"/>
<path d="M141.311 14.0723H136.072V14.143H141.311V14.0723Z" fill="#8D7CE4"/>
<path d="M141.311 14.1392H136.072V14.2099H141.311V14.1392Z" fill="#8C7CE4"/>
<path d="M141.311 14.21H136.072V14.2807H141.311V14.21Z" fill="#8B7CE4"/>
<path d="M141.311 14.2764H136.072V14.3471H141.311V14.2764Z" fill="#8A7CE4"/>
<path d="M141.311 14.3472H136.072V14.4179H141.311V14.3472Z" fill="#897CE5"/>
<path d="M141.311 14.418H136.072V14.4887H141.311V14.418Z" fill="#887BE5"/>
<path d="M141.311 14.4849H136.072V14.5556H141.311V14.4849Z" fill="#877BE5"/>
<path d="M141.311 14.5557H136.072V14.6264H141.311V14.5557Z" fill="#867BE5"/>
<path d="M141.311 14.6226H136.072V14.6933H141.311V14.6226Z" fill="#857BE5"/>
<path d="M141.311 14.6929H136.072V14.7636H141.311V14.6929Z" fill="#847BE5"/>
<path d="M141.311 14.7598H136.072V14.8305H141.311V14.7598Z" fill="#837BE5"/>
<path d="M141.311 14.8306H136.072V14.9013H141.311V14.8306Z" fill="#827BE5"/>
<path d="M141.311 14.9014H136.072V14.9721H141.311V14.9014Z" fill="#817AE5"/>
<path d="M141.311 14.9683H136.072V15.039H141.311V14.9683Z" fill="#807AE5"/>
<path d="M141.311 15.0386H136.072V15.1093H141.311V15.0386Z" fill="#7F7AE5"/>
<path d="M136.072 15.1094L141.315 15.1055V15.1526H136.072V15.1094Z" fill="#7E7AE5"/>
<path d="M144.182 10.6111L139.316 10.615V10.564H144.182V10.6111Z" fill="#C184E0"/>
<path d="M144.182 10.6152H139.316V10.686H144.182V10.6152Z" fill="#C084E0"/>
<path d="M144.182 10.6816H139.316V10.7524H144.182V10.6816Z" fill="#BF84E0"/>
<path d="M144.182 10.7524H139.316V10.8232H144.182V10.7524Z" fill="#BE84E0"/>
<path d="M144.182 10.8232H139.316V10.894H144.182V10.8232Z" fill="#BD84E0"/>
<path d="M144.182 10.8901H139.316V10.9609H144.182V10.8901Z" fill="#BC83E0"/>
<path d="M144.182 10.9609H139.316V11.0317H144.182V10.9609Z" fill="#BB83E1"/>
<path d="M144.182 11.0273H139.316V11.0981H144.182V11.0273Z" fill="#BA83E1"/>
<path d="M144.182 11.0981H139.316V11.1689H144.182V11.0981Z" fill="#B983E1"/>
<path d="M144.182 11.1689H139.316V11.2397H144.182V11.1689Z" fill="#B883E1"/>
<path d="M144.182 11.2358H139.316V11.3066H144.182V11.2358Z" fill="#B783E1"/>
<path d="M144.182 11.3066H139.316V11.3774H144.182V11.3066Z" fill="#B682E1"/>
<path d="M144.182 11.373H139.316V11.4438H144.182V11.373Z" fill="#B582E1"/>
<path d="M144.182 11.4438H139.316V11.5146H144.182V11.4438Z" fill="#B482E1"/>
<path d="M144.182 11.5107H139.316V11.5815H144.182V11.5107Z" fill="#B382E1"/>
<path d="M144.182 11.5815H139.316V11.6523H144.182V11.5815Z" fill="#B282E1"/>
<path d="M144.182 11.6523H139.316V11.7231H144.182V11.6523Z" fill="#B182E1"/>
<path d="M144.182 11.7188H139.316V11.7895H144.182V11.7188Z" fill="#B082E1"/>
<path d="M144.182 11.7896H139.316V11.8603H144.182V11.7896Z" fill="#AF81E1"/>
<path d="M144.182 11.8564H139.316V11.9272H144.182V11.8564Z" fill="#AE81E2"/>
<path d="M144.182 11.9272H139.316V11.998H144.182V11.9272Z" fill="#AD81E2"/>
<path d="M144.182 11.998H139.316V12.0688H144.182V11.998Z" fill="#AC81E2"/>
<path d="M144.182 12.0649H139.316V12.1357H144.182V12.0649Z" fill="#AB81E2"/>
<path d="M144.182 12.1353H139.316V12.206H144.182V12.1353Z" fill="#AA81E2"/>
<path d="M144.182 12.2021H139.316V12.2729H144.182V12.2021Z" fill="#A980E2"/>
<path d="M144.182 12.2729H139.316V12.3437H144.182V12.2729Z" fill="#A880E2"/>
<path d="M144.182 12.3398H139.316V12.4106H144.182V12.3398Z" fill="#A780E2"/>
<path d="M144.182 12.4106H139.316V12.4814H144.182V12.4106Z" fill="#A680E2"/>
<path d="M144.182 12.481H139.316V12.5517H144.182V12.481Z" fill="#A580E2"/>
<path d="M144.182 12.5479H139.316V12.6186H144.182V12.5479Z" fill="#A480E2"/>
<path d="M144.182 12.6187H139.316V12.6894H144.182V12.6187Z" fill="#A380E2"/>
<path d="M144.182 12.6855H139.316V12.7563H144.182V12.6855Z" fill="#A27FE3"/>
<path d="M144.182 12.7563H139.316V12.8271H144.182V12.7563Z" fill="#A17FE3"/>
<path d="M144.182 12.8267H139.316V12.8974H144.182V12.8267Z" fill="#A07FE3"/>
<path d="M144.182 12.8936H139.316V12.9643H144.182V12.8936Z" fill="#9F7FE3"/>
<path d="M144.182 12.9644H139.316V13.0351H144.182V12.9644Z" fill="#9E7FE3"/>
<path d="M144.182 13.0312H139.316V13.102H144.182V13.0312Z" fill="#9D7FE3"/>
<path d="M144.182 13.1021H139.316V13.1728H144.182V13.1021Z" fill="#9B7EE3"/>
<path d="M144.182 13.1685H139.316V13.2392H144.182V13.1685Z" fill="#9A7EE3"/>
<path d="M144.182 13.2393H139.316V13.31H144.182V13.2393Z" fill="#997EE3"/>
<path d="M144.182 13.3101H139.316V13.3808H144.182V13.3101Z" fill="#987EE3"/>
<path d="M144.182 13.377H139.316V13.4477H144.182V13.377Z" fill="#977EE3"/>
<path d="M144.182 13.4478H139.316V13.5185H144.182V13.4478Z" fill="#967EE3"/>
<path d="M144.182 13.5142H139.316V13.5849H144.182V13.5142Z" fill="#957DE4"/>
<path d="M144.182 13.585H139.316V13.6557H144.182V13.585Z" fill="#947DE4"/>
<path d="M144.182 13.6519H139.316V13.7226H144.182V13.6519Z" fill="#937DE4"/>
<path d="M144.182 13.7227H139.316V13.7934H144.182V13.7227Z" fill="#927DE4"/>
<path d="M144.182 13.7935H139.316V13.8642H144.182V13.7935Z" fill="#917DE4"/>
<path d="M144.182 13.8599H139.316V13.9306H144.182V13.8599Z" fill="#907DE4"/>
<path d="M144.182 13.9307H139.316V14.0014H144.182V13.9307Z" fill="#8F7DE4"/>
<path d="M144.182 13.9976H139.316V14.0683H144.182V13.9976Z" fill="#8E7CE4"/>
<path d="M144.182 14.0684H139.316V14.1391H144.182V14.0684Z" fill="#8D7CE4"/>
<path d="M144.182 14.1392H139.316V14.2099H144.182V14.1392Z" fill="#8C7CE4"/>
<path d="M144.182 14.2061H139.316V14.2768H144.182V14.2061Z" fill="#8B7CE4"/>
<path d="M139.316 14.2764L144.182 14.2725V14.3275H139.316V14.2764Z" fill="#8A7CE4"/>
<path d="M141.475 15.1057L136.137 15.1096V15.0703H141.475V15.1057Z" fill="#7F7AE5"/>
<path d="M141.475 15.1055H136.137V15.1762H141.475V15.1055Z" fill="#7E7AE5"/>
<path d="M141.475 15.1763H136.137V15.247H141.475V15.1763Z" fill="#7D7AE5"/>
<path d="M141.475 15.2432H136.137V15.3139H141.475V15.2432Z" fill="#7C7AE6"/>
<path d="M141.475 15.314H136.137V15.3847H141.475V15.314Z" fill="#7B79E6"/>
<path d="M141.475 15.3848H136.137V15.4555H141.475V15.3848Z" fill="#7A79E6"/>
<path d="M141.475 15.4512H136.137V15.5219H141.475V15.4512Z" fill="#7979E6"/>
<path d="M141.475 15.522H136.137V15.5927H141.475V15.522Z" fill="#7879E6"/>
<path d="M141.475 15.5889H136.137V15.6596H141.475V15.5889Z" fill="#7779E6"/>
<path d="M141.475 15.6597H136.137V15.7304H141.475V15.6597Z" fill="#7679E6"/>
<path d="M141.475 15.7305H136.137V15.8012H141.475V15.7305Z" fill="#7579E6"/>
<path d="M141.475 15.7969H136.137V15.8676H141.475V15.7969Z" fill="#7478E6"/>
<path d="M141.475 15.8677H136.137V15.9384H141.475V15.8677Z" fill="#7378E6"/>
<path d="M141.475 15.9346H136.137V16.0053H141.475V15.9346Z" fill="#7278E6"/>
<path d="M141.475 16.0054H136.137V16.0761H141.475V16.0054Z" fill="#7178E6"/>
<path d="M141.475 16.0723H136.137V16.143H141.475V16.0723Z" fill="#7078E7"/>
<path d="M141.475 16.1431H136.137V16.2138H141.475V16.1431Z" fill="#6F78E7"/>
<path d="M141.475 16.2134H136.137V16.2841H141.475V16.2134Z" fill="#6E77E7"/>
<path d="M141.475 16.2803H136.137V16.351H141.475V16.2803Z" fill="#6D77E7"/>
<path d="M141.475 16.3511H136.137V16.4218H141.475V16.3511Z" fill="#6C77E7"/>
<path d="M141.475 16.418H136.137V16.4887H141.475V16.418Z" fill="#6B77E7"/>
<path d="M141.475 16.4888H136.137V16.5595H141.475V16.4888Z" fill="#6A77E7"/>
<path d="M141.475 16.5552H136.137V16.6259H141.475V16.5552Z" fill="#6977E7"/>
<path d="M141.475 16.626H136.137V16.6967H141.475V16.626Z" fill="#6877E7"/>
<path d="M141.475 16.6968H136.137V16.7675H141.475V16.6968Z" fill="#6776E7"/>
<path d="M141.475 16.7637H136.137V16.8344H141.475V16.7637Z" fill="#6676E7"/>
<path d="M141.475 16.8345H136.137V16.9052H141.475V16.8345Z" fill="#6576E7"/>
<path d="M141.475 16.9009H136.137V16.9716H141.475V16.9009Z" fill="#6476E8"/>
<path d="M141.475 16.9717H136.137V17.0424H141.475V16.9717Z" fill="#6376E8"/>
<path d="M141.475 17.0425H136.137V17.1132H141.475V17.0425Z" fill="#6276E8"/>
<path d="M141.475 17.1094H136.137V17.1801H141.475V17.1094Z" fill="#6175E8"/>
<path d="M141.475 17.1802H136.137V17.2509H141.475V17.1802Z" fill="#6075E8"/>
<path d="M141.475 17.2466H136.137V17.3173H141.475V17.2466Z" fill="#5F75E8"/>
<path d="M141.475 17.3174H136.137V17.3881H141.475V17.3174Z" fill="#5E75E8"/>
<path d="M141.475 17.3843H136.137V17.5611H141.475V17.3843Z" fill="#5E75E8"/>
<path d="M141.475 17.5649H136.137V17.7417H141.475V17.5649Z" fill="#5E76E8"/>
<path d="M141.475 17.7417H136.137V17.9185H141.475V17.7417Z" fill="#5F77E8"/>
<path d="M141.475 17.9185H136.137V18.0952H141.475V17.9185Z" fill="#5F78E8"/>
<path d="M141.475 18.0952H136.137V18.272H141.475V18.0952Z" fill="#6079E8"/>
<path d="M141.475 18.272H136.137V18.4488H141.475V18.272Z" fill="#607AE8"/>
<path d="M141.475 18.4487H136.137V18.6255H141.475V18.4487Z" fill="#617BE8"/>
<path d="M141.475 18.626H136.137V18.8028H141.475V18.626Z" fill="#617CE8"/>
<path d="M141.475 18.8027H136.137V18.9795H141.475V18.8027Z" fill="#617DE8"/>
<path d="M141.475 18.9834H136.137V19.1602H141.475V18.9834Z" fill="#627EE8"/>
<path d="M141.475 19.1602H136.137V19.3369H141.475V19.1602Z" fill="#627FE8"/>
<path d="M141.475 19.3369H136.137V19.5137H141.475V19.3369Z" fill="#6380E8"/>
<path d="M141.475 19.5137H136.137V19.6905H141.475V19.5137Z" fill="#6381E8"/>
<path d="M141.475 19.6904H136.137V19.8672H141.475V19.6904Z" fill="#6482E8"/>
<path d="M141.475 19.8672H136.137V20.044H141.475V19.8672Z" fill="#6483E9"/>
<path d="M141.475 20.0439H136.137V20.2207H141.475V20.0439Z" fill="#6484E9"/>
<path d="M136.137 20.2246L141.475 20.2207V20.3896H136.137V20.2246Z" fill="#6585E9"/>
<path d="M138.098 10.4817L132.732 10.4857V10.4307H138.098V10.4817Z" fill="#C384E0"/>
<path d="M138.098 10.4819H132.732V10.5526H138.098V10.4819Z" fill="#C284E0"/>
<path d="M138.098 10.5522H132.732V10.623H138.098V10.5522Z" fill="#C184E0"/>
<path d="M138.098 10.6191H132.732V10.6899H138.098V10.6191Z" fill="#C084E0"/>
<path d="M138.098 10.6899H132.732V10.7607H138.098V10.6899Z" fill="#BF84E0"/>
<path d="M138.098 10.7568H132.732V10.8276H138.098V10.7568Z" fill="#BE84E0"/>
<path d="M138.098 10.8276H132.732V10.8984H138.098V10.8276Z" fill="#BD84E0"/>
<path d="M138.098 10.8979H132.732V10.9687H138.098V10.8979Z" fill="#BC83E0"/>
<path d="M138.098 10.9648H132.732V11.0356H138.098V10.9648Z" fill="#BB83E1"/>
<path d="M138.098 11.0356H132.732V11.1064H138.098V11.0356Z" fill="#BA83E1"/>
<path d="M138.098 11.1025H132.732V11.1733H138.098V11.1025Z" fill="#B983E1"/>
<path d="M138.098 11.1733H132.732V11.2441H138.098V11.1733Z" fill="#B883E1"/>
<path d="M138.098 11.2397H132.732V11.3105H138.098V11.2397Z" fill="#B783E1"/>
<path d="M138.098 11.3105H132.732V11.3813H138.098V11.3105Z" fill="#B682E1"/>
<path d="M138.098 11.3813H132.732V11.4521H138.098V11.3813Z" fill="#B582E1"/>
<path d="M138.098 11.4482H132.732V11.519H138.098V11.4482Z" fill="#B482E1"/>
<path d="M138.098 11.519H132.732V11.5898H138.098V11.519Z" fill="#B382E1"/>
<path d="M138.098 11.5854H132.732V11.6562H138.098V11.5854Z" fill="#B282E1"/>
<path d="M138.098 11.6562H132.732V11.727H138.098V11.6562Z" fill="#B182E1"/>
<path d="M138.098 11.7271H132.732V11.7978H138.098V11.7271Z" fill="#B082E1"/>
<path d="M138.098 11.7939H132.732V11.8647H138.098V11.7939Z" fill="#AF81E1"/>
<path d="M138.098 11.8647H132.732V11.9355H138.098V11.8647Z" fill="#AE81E2"/>
<path d="M138.098 11.9316H132.732V12.0024H138.098V11.9316Z" fill="#AD81E2"/>
<path d="M138.098 12.002H132.732V12.0727H138.098V12.002Z" fill="#AC81E2"/>
<path d="M138.098 12.0688H132.732V12.1396H138.098V12.0688Z" fill="#AB81E2"/>
<path d="M138.098 12.1396H132.732V12.2104H138.098V12.1396Z" fill="#AA81E2"/>
<path d="M138.098 12.2104H132.732V12.2812H138.098V12.2104Z" fill="#A980E2"/>
<path d="M138.098 12.2773H132.732V12.3481H138.098V12.2773Z" fill="#A880E2"/>
<path d="M138.098 12.3477H132.732V12.4184H138.098V12.3477Z" fill="#A780E2"/>
<path d="M138.098 12.4146H132.732V12.4853H138.098V12.4146Z" fill="#A680E2"/>
<path d="M138.098 12.4854H132.732V12.5561H138.098V12.4854Z" fill="#A580E2"/>
<path d="M138.098 12.5562H132.732V12.6269H138.098V12.5562Z" fill="#A480E2"/>
<path d="M138.098 12.623H132.732V12.6938H138.098V12.623Z" fill="#A380E2"/>
<path d="M138.098 12.6934H132.732V12.7641H138.098V12.6934Z" fill="#A27FE3"/>
<path d="M138.098 12.7603H132.732V12.831H138.098V12.7603Z" fill="#A17FE3"/>
<path d="M138.098 12.8311H132.732V12.9018H138.098V12.8311Z" fill="#A07FE3"/>
<path d="M138.098 12.8979H132.732V12.9687H138.098V12.8979Z" fill="#9F7FE3"/>
<path d="M138.098 12.9688H132.732V13.0395H138.098V12.9688Z" fill="#9E7FE3"/>
<path d="M138.098 13.0391H132.732V13.1098H138.098V13.0391Z" fill="#9D7FE3"/>
<path d="M138.098 13.106H132.732V13.1767H138.098V13.106Z" fill="#9B7EE3"/>
<path d="M138.098 13.1768H132.732V13.2475H138.098V13.1768Z" fill="#9A7EE3"/>
<path d="M138.098 13.2437H132.732V13.3144H138.098V13.2437Z" fill="#997EE3"/>
<path d="M138.098 13.3145H132.732V13.3852H138.098V13.3145Z" fill="#987EE3"/>
<path d="M138.098 13.3809H132.732V13.4516H138.098V13.3809Z" fill="#977EE3"/>
<path d="M138.098 13.4517H132.732V13.5224H138.098V13.4517Z" fill="#967EE3"/>
<path d="M138.098 13.5225H132.732V13.5932H138.098V13.5225Z" fill="#957DE4"/>
<path d="M138.098 13.5894H132.732V13.6601H138.098V13.5894Z" fill="#947DE4"/>
<path d="M138.098 13.6602H132.732V13.7309H138.098V13.6602Z" fill="#937DE4"/>
<path d="M138.098 13.7266H132.732V13.7973H138.098V13.7266Z" fill="#927DE4"/>
<path d="M138.098 13.7974H132.732V13.8681H138.098V13.7974Z" fill="#917DE4"/>
<path d="M138.098 13.8682H132.732V13.9389H138.098V13.8682Z" fill="#907DE4"/>
<path d="M138.098 13.9351H132.732V14.0058H138.098V13.9351Z" fill="#8F7DE4"/>
<path d="M138.098 14.0059H132.732V14.0766H138.098V14.0059Z" fill="#8E7CE4"/>
<path d="M138.098 14.0728H132.732V14.1435H138.098V14.0728Z" fill="#8D7CE4"/>
<path d="M138.098 14.1431H132.732V14.2138H138.098V14.1431Z" fill="#8C7CE4"/>
<path d="M138.098 14.21H132.732V14.2807H138.098V14.21Z" fill="#8B7CE4"/>
<path d="M138.098 14.2808H132.732V14.3515H138.098V14.2808Z" fill="#8A7CE4"/>
<path d="M138.098 14.3516H132.732V14.4223H138.098V14.3516Z" fill="#897CE5"/>
<path d="M138.098 14.4185H132.732V14.4892H138.098V14.4185Z" fill="#887BE5"/>
<path d="M138.098 14.4888H132.732V14.5595H138.098V14.4888Z" fill="#877BE5"/>
<path d="M138.098 14.5557H132.732V14.6264H138.098V14.5557Z" fill="#867BE5"/>
<path d="M138.098 14.6265H132.732V14.6972H138.098V14.6265Z" fill="#857BE5"/>
<path d="M138.098 14.6973H132.732V14.768H138.098V14.6973Z" fill="#847BE5"/>
<path d="M138.098 14.7642H132.732V14.8349H138.098V14.7642Z" fill="#837BE5"/>
<path d="M138.098 14.8345H132.732V14.9052H138.098V14.8345Z" fill="#827BE5"/>
<path d="M132.732 14.9053L138.098 14.9014V14.9132H132.732V14.9053Z" fill="#817AE5"/>
<path d="M143.63 9.16173L139.363 9.16566V9.14209H143.63V9.16173Z" fill="#D687DE"/>
<path d="M143.63 9.16553H139.363V9.23624H143.63V9.16553Z" fill="#D587DE"/>
<path d="M143.63 9.23242H139.363V9.30314H143.63V9.23242Z" fill="#D487DE"/>
<path d="M143.63 9.30322H139.363V9.37394H143.63V9.30322Z" fill="#D387DF"/>
<path d="M143.63 9.37012H139.363V9.44083H143.63V9.37012Z" fill="#D287DF"/>
<path d="M143.63 9.44043H139.363V9.51114H143.63V9.44043Z" fill="#D187DF"/>
<path d="M143.63 9.51123H139.363V9.58195H143.63V9.51123Z" fill="#D086DF"/>
<path d="M143.63 9.57812H139.363V9.64884H143.63V9.57812Z" fill="#CF86DF"/>
<path d="M143.63 9.64893H139.363V9.71964H143.63V9.64893Z" fill="#CE86DF"/>
<path d="M143.63 9.71582H139.363V9.78654H143.63V9.71582Z" fill="#CD86DF"/>
<path d="M143.63 9.78662H139.363V9.85734H143.63V9.78662Z" fill="#CC86DF"/>
<path d="M143.63 9.85693H139.363V9.92765H143.63V9.85693Z" fill="#CB86DF"/>
<path d="M143.63 9.92383H139.363V9.99454H143.63V9.92383Z" fill="#CA86DF"/>
<path d="M143.63 9.99463H139.363V10.0653H143.63V9.99463Z" fill="#C985DF"/>
<path d="M143.63 10.0615H139.363V10.1322H143.63V10.0615Z" fill="#C885DF"/>
<path d="M143.63 10.1323H139.363V10.203H143.63V10.1323Z" fill="#C785E0"/>
<path d="M143.63 10.1987H139.363V10.2694H143.63V10.1987Z" fill="#C685E0"/>
<path d="M143.63 10.2695H139.363V10.3402H143.63V10.2695Z" fill="#C585E0"/>
<path d="M143.63 10.3403H139.363V10.411H143.63V10.3403Z" fill="#C485E0"/>
<path d="M143.63 10.4072H139.363V10.4779H143.63V10.4072Z" fill="#C384E0"/>
<path d="M143.63 10.478H139.363V10.5487H143.63V10.478Z" fill="#C284E0"/>
<path d="M143.63 10.5444H139.363V10.6151H143.63V10.5444Z" fill="#C184E0"/>
<path d="M143.63 10.6152H139.363V10.686H143.63V10.6152Z" fill="#C084E0"/>
<path d="M143.63 10.686H139.363V10.7568H143.63V10.686Z" fill="#BF84E0"/>
<path d="M143.63 10.7529H139.363V10.8236H143.63V10.7529Z" fill="#BE84E0"/>
<path d="M143.63 10.8237H139.363V10.8944H143.63V10.8237Z" fill="#BD84E0"/>
<path d="M143.63 10.8901H139.363V10.9609H143.63V10.8901Z" fill="#BC83E0"/>
<path d="M143.63 10.9609H139.363V11.0317H143.63V10.9609Z" fill="#BB83E1"/>
<path d="M143.63 11.0278H139.363V11.0985H143.63V11.0278Z" fill="#BA83E1"/>
<path d="M143.63 11.0986H139.363V11.1693H143.63V11.0986Z" fill="#B983E1"/>
<path d="M143.63 11.1694H139.363V11.2401H143.63V11.1694Z" fill="#B883E1"/>
<path d="M143.63 11.2358H139.363V11.3066H143.63V11.2358Z" fill="#B783E1"/>
<path d="M143.63 11.3066H139.363V11.3774H143.63V11.3066Z" fill="#B682E1"/>
<path d="M143.63 11.3735H139.363V11.4443H143.63V11.3735Z" fill="#B582E1"/>
<path d="M143.63 11.4443H139.363V11.5151H143.63V11.4443Z" fill="#B482E1"/>
<path d="M139.363 11.5152L143.63 11.5112V11.5387H139.363V11.5152Z" fill="#B382E1"/>
<path d="M137.809 8.89069L133.197 8.89462V8.87891H137.809V8.89069Z" fill="#DA88DE"/>
<path d="M137.809 8.89453H133.197V8.96525H137.809V8.89453Z" fill="#D988DE"/>
<path d="M137.809 8.96143H133.197V9.03214H137.809V8.96143Z" fill="#D888DE"/>
<path d="M137.809 9.03223H133.197V9.10294H137.809V9.03223Z" fill="#D788DE"/>
<path d="M137.809 9.09912H133.197V9.16984H137.809V9.09912Z" fill="#D687DE"/>
<path d="M137.809 9.16943H133.197V9.24015H137.809V9.16943Z" fill="#D587DE"/>
<path d="M137.809 9.24023H133.197V9.31095H137.809V9.24023Z" fill="#D487DE"/>
<path d="M137.809 9.30713H133.197V9.37784H137.809V9.30713Z" fill="#D387DF"/>
<path d="M137.809 9.37793H133.197V9.44864H137.809V9.37793Z" fill="#D287DF"/>
<path d="M137.809 9.44482H133.197V9.51554H137.809V9.44482Z" fill="#D187DF"/>
<path d="M137.809 9.51514H133.197V9.58585H137.809V9.51514Z" fill="#D086DF"/>
<path d="M137.809 9.58594H133.197V9.65665H137.809V9.58594Z" fill="#CF86DF"/>
<path d="M137.809 9.65283H133.197V9.72355H137.809V9.65283Z" fill="#CE86DF"/>
<path d="M137.809 9.72363H133.197V9.79435H137.809V9.72363Z" fill="#CD86DF"/>
<path d="M137.809 9.79053H133.197V9.86124H137.809V9.79053Z" fill="#CC86DF"/>
<path d="M137.809 9.86084H133.197V9.93156H137.809V9.86084Z" fill="#CB86DF"/>
<path d="M137.809 9.92773H133.197V9.99845H137.809V9.92773Z" fill="#CA86DF"/>
<path d="M137.809 9.99854H133.197V10.0693H137.809V9.99854Z" fill="#C985DF"/>
<path d="M137.809 10.0693H133.197V10.1401H137.809V10.0693Z" fill="#C885DF"/>
<path d="M137.809 10.1362H133.197V10.2069H137.809V10.1362Z" fill="#C785E0"/>
<path d="M137.809 10.207H133.197V10.2777H137.809V10.207Z" fill="#C685E0"/>
<path d="M137.809 10.2734H133.197V10.3442H137.809V10.2734Z" fill="#C585E0"/>
<path d="M137.809 10.3442H133.197V10.415H137.809V10.3442Z" fill="#C485E0"/>
<path d="M137.809 10.4111H133.197V10.4818H137.809V10.4111Z" fill="#C384E0"/>
<path d="M137.809 10.4819H133.197V10.5526H137.809V10.4819Z" fill="#C284E0"/>
<path d="M137.809 10.5527H133.197V10.6235H137.809V10.5527Z" fill="#C184E0"/>
<path d="M137.809 10.6191H133.197V10.6899H137.809V10.6191Z" fill="#C084E0"/>
<path d="M137.809 10.6899H133.197V10.7607H137.809V10.6899Z" fill="#BF84E0"/>
<path d="M137.809 10.7568H133.197V10.8276H137.809V10.7568Z" fill="#BE84E0"/>
<path d="M137.809 10.8276H133.197V10.8984H137.809V10.8276Z" fill="#BD84E0"/>
<path d="M137.809 10.8984H133.197V10.9692H137.809V10.8984Z" fill="#BC83E0"/>
<path d="M133.197 10.9688L137.809 10.9648V10.9845H133.197V10.9688Z" fill="#BB83E1"/>
<path d="M139.998 8.81201H136.893V8.81987H139.998V8.81201Z" fill="#DA88DE"/>
<path d="M139.998 8.82031H136.893V8.89103H139.998V8.82031Z" fill="#DA88DE"/>
<path d="M139.998 8.89062H136.893V8.96134H139.998V8.89062Z" fill="#D988DE"/>
<path d="M139.998 8.95752H136.893V9.02824H139.998V8.95752Z" fill="#D888DE"/>
<path d="M139.998 9.02832H136.893V9.09904H139.998V9.02832Z" fill="#D788DE"/>
<path d="M139.998 9.09863H136.893V9.16935H139.998V9.09863Z" fill="#D687DE"/>
<path d="M139.998 9.16553H136.893V9.23624H139.998V9.16553Z" fill="#D587DE"/>
<path d="M139.998 9.23633H136.893V9.30704H139.998V9.23633Z" fill="#D487DE"/>
<path d="M139.998 9.30322H136.893V9.37394H139.998V9.30322Z" fill="#D387DF"/>
<path d="M139.998 9.37402H136.893V9.44474H139.998V9.37402Z" fill="#D287DF"/>
<path d="M139.998 9.44434H136.893V9.51505H139.998V9.44434Z" fill="#D187DF"/>
<path d="M139.998 9.51123H136.893V9.58195H139.998V9.51123Z" fill="#D086DF"/>
<path d="M139.998 9.58203H136.893V9.65275H139.998V9.58203Z" fill="#CF86DF"/>
<path d="M139.998 9.64893H136.893V9.71571H139.998V9.64893Z" fill="#CE86DF"/>
<path d="M133.614 9.93555H132.031V10.0023H133.614V9.93555Z" fill="#CA86DF"/>
<path d="M133.614 10.0024H132.031V10.0732H133.614V10.0024Z" fill="#C985DF"/>
<path d="M133.614 10.0693H132.031V10.1401H133.614V10.0693Z" fill="#C885DF"/>
<path d="M133.614 10.1396H132.031V10.2104H133.614V10.1396Z" fill="#C785E0"/>
<path d="M133.614 10.2065H132.031V10.2773H133.614V10.2065Z" fill="#C685E0"/>
<path d="M133.614 10.2773H132.031V10.3481H133.614V10.2773Z" fill="#C585E0"/>
<path d="M133.614 10.3442H132.031V10.415H133.614V10.3442Z" fill="#C485E0"/>
<path d="M133.614 10.415H132.031V10.4858H133.614V10.415Z" fill="#C384E0"/>
<path d="M133.614 10.4854H132.031V10.5561H133.614V10.4854Z" fill="#C284E0"/>
<path d="M133.614 10.5522H132.031V10.623H133.614V10.5522Z" fill="#C184E0"/>
<path d="M133.614 10.623H132.031V10.6938H133.614V10.623Z" fill="#C084E0"/>
<path d="M133.614 10.6899H132.031V10.7607H133.614V10.6899Z" fill="#BF84E0"/>
<path d="M133.614 10.7607H132.031V10.8315H133.614V10.7607Z" fill="#BE84E0"/>
<path d="M133.614 10.8311H132.031V10.9018H133.614V10.8311Z" fill="#BD84E0"/>
<path d="M133.614 10.8979H132.031V10.9687H133.614V10.8979Z" fill="#BC83E0"/>
<path d="M133.614 10.9688H132.031V11.0395H133.614V10.9688Z" fill="#BB83E1"/>
<path d="M133.614 11.0356H132.031V11.0553H133.614V11.0356Z" fill="#BA83E1"/>
<path d="M132.459 24.4639H131.027V24.4835H132.459V24.4639Z" fill="#6F9CE9"/>
<path d="M132.459 24.4834H131.027V24.6602H132.459V24.4834Z" fill="#6F9EEA"/>
<path d="M132.459 24.6602H131.027V24.8369H132.459V24.6602Z" fill="#6F9FEA"/>
<path d="M132.459 24.8369H131.027V25.0137H132.459V24.8369Z" fill="#70A0EA"/>
<path d="M132.459 25.0137H131.027V25.1905H132.459V25.0137Z" fill="#70A1EA"/>
<path d="M132.459 25.1904H131.027V25.3672H132.459V25.1904Z" fill="#71A2EA"/>
<path d="M132.459 25.3716H131.027V25.5484H132.459V25.3716Z" fill="#71A3EA"/>
<path d="M132.459 25.5483H131.027V25.7251H132.459V25.5483Z" fill="#72A4EA"/>
<path d="M132.459 25.7251H131.027V25.788H132.459V25.7251Z" fill="#72A5EA"/>
<path d="M146.014 12.2144H144.924V12.2694H146.014V12.2144Z" fill="#A980E2"/>
<path d="M146.014 12.2695H144.924V12.3402H146.014V12.2695Z" fill="#A880E2"/>
<path d="M146.014 12.3398H144.924V12.4106H146.014V12.3398Z" fill="#A780E2"/>
<path d="M146.014 12.4067H144.924V12.4775H146.014V12.4067Z" fill="#A680E2"/>
<path d="M146.014 12.4775H144.924V12.5483H146.014V12.4775Z" fill="#A580E2"/>
<path d="M146.014 12.5444H144.924V12.6151H146.014V12.5444Z" fill="#A480E2"/>
<path d="M146.014 12.6152H144.924V12.686H146.014V12.6152Z" fill="#A380E2"/>
<path d="M146.014 12.686H144.924V12.7568H146.014V12.686Z" fill="#A27FE3"/>
<path d="M146.014 12.7524H144.924V12.8232H146.014V12.7524Z" fill="#A17FE3"/>
<path d="M146.014 12.8232H144.924V12.894H146.014V12.8232Z" fill="#A07FE3"/>
<path d="M146.014 12.8901H144.924V12.9609H146.014V12.8901Z" fill="#9F7FE3"/>
<path d="M146.014 12.9609H144.924V13.0317H146.014V12.9609Z" fill="#9E7FE3"/>
<path d="M146.014 13.0273H144.924V13.0981H146.014V13.0273Z" fill="#9D7FE3"/>
<path d="M146.014 13.0981H144.924V13.1689H146.014V13.0981Z" fill="#9B7EE3"/>
<path d="M146.014 13.1689H144.924V13.2397H146.014V13.1689Z" fill="#9A7EE3"/>
<path d="M146.014 13.2358H144.924V13.3066H146.014V13.2358Z" fill="#997EE3"/>
<path d="M146.014 13.3066H144.924V13.3774H146.014V13.3066Z" fill="#987EE3"/>
<path d="M146.014 13.3735H144.924V13.4443H146.014V13.3735Z" fill="#977EE3"/>
<path d="M146.014 13.4438H144.924V13.5146H146.014V13.4438Z" fill="#967EE3"/>
<path d="M146.014 13.5146H144.924V13.5854H146.014V13.5146Z" fill="#957DE4"/>
<path d="M146.014 13.5815H144.924V13.6523H146.014V13.5815Z" fill="#947DE4"/>
<path d="M146.014 13.6523H144.924V13.7231H146.014V13.6523Z" fill="#937DE4"/>
<path d="M146.014 13.7192H144.924V13.79H146.014V13.7192Z" fill="#927DE4"/>
<path d="M146.014 13.7896H144.924V13.8328H146.014V13.7896Z" fill="#917DE4"/>
<path d="M144.789 10.6821H143.357V10.7528H144.789V10.6821Z" fill="#BF84E0"/>
<path d="M144.789 10.7529H143.357V10.8236H144.789V10.7529Z" fill="#BE84E0"/>
<path d="M144.789 10.8198H143.357V10.8905H144.789V10.8198Z" fill="#BD84E0"/>
<path d="M144.789 10.8901H143.357V10.9609H144.789V10.8901Z" fill="#BC83E0"/>
<path d="M144.789 10.957H143.357V11.0277H144.789V10.957Z" fill="#BB83E1"/>
<path d="M144.789 11.0278H143.357V11.0985H144.789V11.0278Z" fill="#BA83E1"/>
<path d="M144.789 11.0947H143.357V11.1654H144.789V11.0947Z" fill="#B983E1"/>
<path d="M144.789 11.1655H143.357V11.2362H144.789V11.1655Z" fill="#B883E1"/>
<path d="M144.789 11.2363H143.357V11.307H144.789V11.2363Z" fill="#B783E1"/>
<path d="M144.789 11.3027H143.357V11.3735H144.789V11.3027Z" fill="#B682E1"/>
<path d="M144.789 11.3735H143.357V11.4443H144.789V11.3735Z" fill="#B582E1"/>
<path d="M144.789 11.4404H143.357V11.5111H144.789V11.4404Z" fill="#B482E1"/>
<path d="M144.789 11.5112H143.357V11.5819H144.789V11.5112Z" fill="#B382E1"/>
<path d="M144.789 11.582H143.357V11.6527H144.789V11.582Z" fill="#B282E1"/>
<path d="M144.789 11.6484H143.357V11.7192H144.789V11.6484Z" fill="#B182E1"/>
<path d="M144.789 11.7192H143.357V11.79H144.789V11.7192Z" fill="#B082E1"/>
<path d="M144.789 11.7861H143.357V11.8568H144.789V11.7861Z" fill="#AF81E1"/>
<path d="M144.789 11.8569H143.357V11.9276H144.789V11.8569Z" fill="#AE81E2"/>
<path d="M144.789 11.9238H143.357V11.9945H144.789V11.9238Z" fill="#AD81E2"/>
<path d="M144.789 11.9941H143.357V12.0059H144.789V11.9941Z" fill="#AC81E2"/>
<path d="M130.893 22.6328H129.799V22.7114H130.893V22.6328Z" fill="#6A92E9"/>
<path d="M130.893 22.7114H129.799V22.8882H130.893V22.7114Z" fill="#6B93E9"/>
<path d="M130.893 22.8882H129.799V23.065H130.893V22.8882Z" fill="#6B94E9"/>
<path d="M130.893 23.0649H129.799V23.2417H130.893V23.0649Z" fill="#6C95E9"/>
<path d="M130.893 23.2417H129.799V23.4185H130.893V23.2417Z" fill="#6C96E9"/>
<path d="M130.893 23.4185H129.799V23.5952H130.893V23.4185Z" fill="#6C97E9"/>
<path d="M130.893 23.5991H129.799V23.7759H130.893V23.5991Z" fill="#6D98E9"/>
<path d="M130.893 23.7759H129.799V23.9527H130.893V23.7759Z" fill="#6D99E9"/>
<path d="M130.893 23.9526H129.799V24.1294H130.893V23.9526Z" fill="#6E9AE9"/>
<path d="M130.893 24.1294H129.799V24.2512H130.893V24.1294Z" fill="#6E9BE9"/>
<path d="M165.061 12.2221C166.073 12.7918 166.874 13.5618 167.465 14.5322C168.056 15.5026 168.353 16.5712 168.353 17.7301C168.353 18.8891 168.056 19.9655 167.465 20.9477C166.87 21.9298 166.069 22.7077 165.061 23.2852C164.05 23.8588 162.94 24.1495 161.73 24.1495C160.521 24.1495 159.41 23.8627 158.399 23.2852C157.388 22.7116 156.587 21.9298 155.996 20.9477C155.401 19.9655 155.107 18.893 155.107 17.7301C155.107 16.5672 155.405 15.5026 155.996 14.5322C156.587 13.5618 157.392 12.7918 158.399 12.2221C159.41 11.6525 160.521 11.3696 161.73 11.3696C162.94 11.3696 164.05 11.6525 165.061 12.2221ZM159.065 13.1847C158.244 13.6522 157.59 14.2886 157.106 15.0901C156.622 15.8915 156.38 16.7754 156.38 17.734C156.38 18.6926 156.622 19.5805 157.106 20.3937C157.59 21.207 158.244 21.8513 159.065 22.3266C159.886 22.802 160.782 23.0377 161.75 23.0377C162.718 23.0377 163.59 22.802 164.407 22.3266C165.224 21.8552 165.874 21.2109 166.358 20.3937C166.842 19.5805 167.084 18.6926 167.084 17.734C167.084 16.5633 166.723 15.5065 166.001 14.5675C165.648 14.1118 165.224 13.7111 164.74 13.389C163.832 12.7839 162.837 12.4814 161.75 12.4814C160.782 12.4814 159.886 12.7132 159.065 13.1807V13.1847Z" fill="#546095"/>
<path d="M181.769 23.7762L179.203 19.9418C178.815 19.9654 178.521 19.9772 178.315 19.9772H174.829V23.454C174.829 23.7762 174.564 24.0394 174.238 24.0394H174.171C173.846 24.0394 173.58 23.7762 173.58 23.454V11.4756H178.315C179.901 11.4756 181.123 11.837 181.991 12.5638C182.856 13.2906 183.288 14.316 183.288 15.6478C183.288 16.6889 183.034 17.5611 182.527 18.2525C182.019 18.9479 181.293 19.4311 180.35 19.71L182.749 23.1201C183.022 23.509 182.741 24.0433 182.265 24.0433C182.067 24.0433 181.88 23.9451 181.773 23.7801L181.769 23.7762ZM178.315 18.8614C179.525 18.8614 180.457 18.5904 181.111 18.0443C181.765 17.4982 182.091 16.7125 182.091 15.6792C182.091 14.646 181.765 13.9074 181.111 13.3771C180.457 12.8506 179.525 12.5874 178.315 12.5874H174.829V18.8614H178.315Z" fill="#546095"/>
<path d="M197.469 12.2929C198.187 12.8507 198.548 13.6207 198.548 14.6029C198.548 15.3454 198.338 15.9701 197.921 16.4729C197.505 16.9758 196.922 17.3058 196.169 17.463C197.1 17.5847 197.826 17.9226 198.346 18.4883C198.865 19.0501 199.127 19.7651 199.127 20.6255C199.127 21.7059 198.722 22.5427 197.909 23.1438C197.1 23.7449 195.974 24.0434 194.535 24.0434H189.165V11.4561H194.483C195.752 11.4561 196.748 11.735 197.469 12.2929ZM196.518 16.4258C197.013 16.0369 197.263 15.4829 197.263 14.764C197.263 14.045 197.013 13.5304 196.518 13.1454C196.022 12.7604 195.328 12.5757 194.432 12.5875H190.422V17.0112H194.432C195.328 17.0112 196.022 16.8147 196.518 16.4258ZM196.962 22.2873C197.561 21.863 197.858 21.2659 197.858 20.4998C197.858 19.7337 197.557 19.1562 196.95 18.7398C196.343 18.3194 195.502 18.1112 194.428 18.1112H190.418V22.9277H194.428C195.518 22.9277 196.359 22.7156 196.958 22.2913L196.962 22.2873Z" fill="#546095"/>
<path d="M210.017 12.7801C209.398 12.6072 208.819 12.5208 208.276 12.5208C207.403 12.5208 206.705 12.6897 206.182 13.0315C205.658 13.3733 205.393 13.8369 205.393 14.4262C205.393 14.9409 205.539 15.3612 205.829 15.6834C206.118 16.0055 206.475 16.2609 206.9 16.4455C207.324 16.6302 207.903 16.8384 208.641 17.0663C209.501 17.3177 210.191 17.5652 210.719 17.8127C211.246 18.0602 211.694 18.4138 212.063 18.8813C212.432 19.3488 212.618 19.9656 212.618 20.7317C212.618 21.4035 212.428 21.9967 212.047 22.5114C211.667 23.026 211.131 23.4267 210.441 23.7057C209.751 23.9885 208.958 24.13 208.066 24.13C207.173 24.13 206.321 23.9571 205.48 23.6075C204.802 23.3285 204.199 22.9749 203.676 22.5467C203.457 22.3699 203.402 22.0635 203.541 21.8199C203.715 21.5135 204.124 21.431 204.401 21.6471C204.845 21.9928 205.333 22.2756 205.869 22.4956C206.618 22.806 207.356 22.9632 208.081 22.9632C209.049 22.9632 209.818 22.7667 210.386 22.3778C210.953 21.9889 211.238 21.4624 211.238 20.8063C211.238 20.2799 211.091 19.8477 210.802 19.5138C210.512 19.1799 210.156 18.9206 209.731 18.7399C209.307 18.5591 208.716 18.3509 207.955 18.1113C207.094 17.8481 206.404 17.6006 205.884 17.3648C205.365 17.133 204.925 16.7834 204.56 16.3237C204.195 15.8641 204.017 15.2591 204.017 14.5166C204.017 13.8801 204.199 13.3223 204.56 12.843C204.925 12.3637 205.432 11.9944 206.083 11.739C206.737 11.4797 207.491 11.354 208.351 11.354C209.041 11.354 209.731 11.4561 210.429 11.6604C210.913 11.8019 211.353 11.9747 211.758 12.179C212.047 12.3244 212.166 12.6701 212.019 12.9569L212.004 12.9922C211.857 13.279 211.504 13.3851 211.21 13.2398C210.838 13.0512 210.441 12.9019 210.021 12.784L210.017 12.7801Z" fill="#546095"/>
<path d="M23.1392 18.4217C23.1392 21.376 21.0533 23.3718 18.2574 23.3718C16.691 23.3718 15.3505 22.7078 14.5296 21.4506V26.8604H13.2051V13.5659H14.4741V15.487C15.2752 14.1944 16.6354 13.4912 18.2574 13.4912C21.0533 13.4912 23.1392 15.487 23.1392 18.4217ZM21.8147 18.4217C21.8147 16.1705 20.2284 14.6384 18.1622 14.6384C16.0961 14.6384 14.5098 16.1705 14.5098 18.4217C14.5098 20.6728 16.0763 22.205 18.1622 22.205C20.2482 22.205 21.8147 20.6924 21.8147 18.4217Z" fill="#878B96"/>
<path d="M24.8555 18.4217C24.8555 15.542 26.9811 13.4912 29.8483 13.4912C32.7156 13.4912 34.8253 15.542 34.8253 18.4217C34.8253 21.3014 32.7195 23.3718 29.8483 23.3718C26.9771 23.3718 24.8555 21.3053 24.8555 18.4217ZM33.4849 18.4217C33.4849 16.1509 31.9383 14.6384 29.8483 14.6384C27.7584 14.6384 26.1959 16.1509 26.1959 18.4217C26.1959 20.6924 27.7624 22.205 29.8483 22.205C31.9343 22.205 33.4849 20.6924 33.4849 18.4217Z" fill="#878B96"/>
<path d="M51.6378 13.5659L47.9298 23.2775H46.6806L43.5873 15.3181L40.494 23.2775H39.2448L35.5527 13.5659H36.8218L39.8952 21.82L43.044 13.5659H44.1822L47.3151 21.82L50.4282 13.5659H51.6378Z" fill="#878B96"/>
<path d="M61.8928 18.8263H53.6917C53.8424 20.8574 55.4049 22.205 57.5503 22.205C58.744 22.205 59.8069 21.7807 60.5524 20.9321L61.298 21.7807C60.4215 22.8139 59.0613 23.3679 57.5147 23.3679C54.4571 23.3679 52.3711 21.3014 52.3711 18.4178C52.3711 15.5341 54.4016 13.4873 57.1617 13.4873C59.9219 13.4873 61.9127 15.4988 61.9127 18.4178C61.9127 18.5278 61.8928 18.677 61.8928 18.8224V18.8263ZM53.6917 17.8481H60.6436C60.4771 15.9466 59.0772 14.6188 57.1577 14.6188C55.2383 14.6188 53.8582 15.9466 53.6917 17.8481Z" fill="#878B96"/>
<path d="M69.5507 13.4912V14.7641C69.4396 14.7641 69.3286 14.7445 69.2334 14.7445C67.1831 14.7445 65.9339 16.037 65.9339 18.3274V23.2736H64.6094V13.5619H65.8784V15.4634C66.4931 14.1709 67.7423 13.4873 69.5507 13.4873V13.4912Z" fill="#878B96"/>
<path d="M80.3811 18.8263H72.18C72.3307 20.8574 73.8932 22.205 76.0386 22.205C77.2323 22.205 78.2951 21.7807 79.0407 20.9321L79.7863 21.7807C78.9098 22.8139 77.5496 23.3679 76.0029 23.3679C72.9454 23.3679 70.8594 21.3014 70.8594 18.4178C70.8594 15.5341 72.8898 13.4873 75.65 13.4873C78.4101 13.4873 80.4009 15.4988 80.4009 18.4178C80.4009 18.5278 80.3811 18.677 80.3811 18.8224V18.8263ZM72.18 17.8481H79.1319C78.9653 15.9466 77.5654 14.6188 75.646 14.6188C73.7266 14.6188 72.3465 15.9466 72.18 17.8481Z" fill="#878B96"/>
<path d="M92.0475 9.57815V23.2773H90.7784V21.3562C89.9773 22.6684 88.6171 23.3677 86.9951 23.3677C84.1993 23.3677 82.1133 21.3562 82.1133 18.4176C82.1133 15.479 84.1993 13.4872 86.9951 13.4872C88.5616 13.4872 89.902 14.1511 90.7229 15.4083V9.57422H92.0475V9.57815ZM90.7427 18.4215C90.7427 16.1508 89.1763 14.6382 87.1061 14.6382C85.036 14.6382 83.4537 16.1508 83.4537 18.4215C83.4537 20.6923 85.0202 22.2048 87.1061 22.2048C89.1921 22.2048 90.7427 20.6923 90.7427 18.4215Z" fill="#878B96"/>
<path d="M110.555 18.4215C110.555 21.3562 108.469 23.3716 105.673 23.3716C104.051 23.3716 102.691 22.6684 101.89 21.3601V23.2812H100.621V9.57812H101.946V15.4122C102.767 14.155 104.107 13.4911 105.673 13.4911C108.469 13.4911 110.555 15.4868 110.555 18.4215ZM109.231 18.4215C109.231 16.1508 107.644 14.6382 105.578 14.6382C103.512 14.6382 101.926 16.1508 101.926 18.4215C101.926 20.6923 103.492 22.2048 105.578 22.2048C107.664 22.2048 109.231 20.6923 109.231 18.4215Z" fill="#878B96"/>
<path d="M121.221 13.5659L116.319 24.4404C115.498 26.3419 114.455 26.9508 113.059 26.9508C112.147 26.9508 111.271 26.6562 110.672 26.063L111.287 25.0847C111.77 25.564 112.369 25.8233 113.075 25.8233C113.952 25.8233 114.546 25.4187 115.106 24.1969L115.534 23.254L111.156 13.562H112.536L116.228 21.8161L119.92 13.562H121.225L121.221 13.5659Z" fill="#878B96"/>
<path d="M215.454 37H9.54553C4.28299 37 0 32.7571 0 27.5437V9.45625C0 4.24294 4.28299 0 9.54553 0H215.454C220.717 0 225 4.24294 225 9.45625V27.5398C225 32.7531 220.717 36.9961 215.454 36.9961V37ZM9.54553 0.392865C4.50111 0.392865 0.396574 4.45901 0.396574 9.45625V27.5398C0.396574 32.5371 4.50111 36.6032 9.54553 36.6032H215.454C220.499 36.6032 224.603 32.5371 224.603 27.5398V9.45625C224.603 4.45901 220.499 0.392865 215.454 0.392865H9.54553Z" fill="#727684"/>
</g>
<defs>
<clipPath id="clip0_4085_29256">
<rect width="225" height="37" fill="white"/>
</clipPath>
</defs>
</svg>
