<svg xmlns="http://www.w3.org/2000/svg" width="400.273" height="397.855" viewBox="0 0 400.273 397.855"><defs><style>.a{fill:#313030;}</style></defs><g transform="translate(-556.858 -888.43)"><path class="a" d="M90.656,162.83c-1.135,4.414-4.789,5.483-8.12,2.372L17.741,104.74c-3.336-3.109-2.6-7.039,1.637-8.73l90.887-36.331c4.233-1.691,6.766.536,5.631,4.95Z" transform="translate(581.12 980.07)"/><path class="a" d="M39.682,186.3c-3.453,2.976-6.944,1.742-7.755-2.744L14.169,85.3c-.811-4.483,1.252-5.611,4.585-2.5L80.42,140.34A7.286,7.286,0,0,1,80.2,151.4Z" transform="translate(578.551 1014.06)"/><path class="a" d="M112.807,89.751c2.976,3.453,1.946,7.666-2.285,9.357l-90.387,36.13c-4.231,1.691-6.394-.421-4.8-4.692L52.447,30.794c1.589-4.272,5.32-4.942,8.3-1.489Z" transform="translate(579.819 930.435)"/><path class="a" d="M40.307,170.384c.811,4.483-.553,5.024-3.03,1.2L2.226,117.45a12.825,12.825,0,0,1,.451-13.6L18.334,82.879c2.726-3.652,5.616-2.974,6.429,1.512Z" transform="translate(557.624 1013.27)"/><path class="a" d="M22.727,119.914c-1.589,4.269-4.07,4.228-5.511-.094L5.248,83.894A13.832,13.832,0,0,1,8.767,70.467L51.449,31.782c3.377-3.06,4.838-2.071,3.249,2.2Z" transform="translate(564.171 934.943)"/><path class="a" d="M18.776,89.666a17.83,17.83,0,0,1-2.339,14.506L4.178,120.6c-2.724,3.655-4.573,2.93-4.106-1.6L5.95,61.968c.467-4.534,2.03-4.708,3.468-.383Z" transform="translate(556.858 979.044)"/><path class="a" d="M41.764,20.776c1.515,1.76-.005,5.7-3.382,8.768L19.176,46.955c-3.382,3.06-3.917,2.568-1.2-1.089L34.059,24.224c2.716-3.66,6.184-5.21,7.7-3.448" transform="translate(582.045 919.51)"/><path class="a" d="M110.417,194.578c-2.3,3.935-6.3,4.086-8.875.324l-50.194-73.04c-2.586-3.756-.987-7.212,3.547-7.681l100.856-10.41c4.534-.467,6.363,2.369,4.063,6.3Z" transform="translate(634.539 1049.224)"/><path class="a" d="M127.187,183.634c2.581,3.756,1.163,5.631-3.152,4.165L29.489,155.673c-4.313-1.466-5.019-5.1-1.563-8.077l40.516-34.9a7.287,7.287,0,0,1,10.974,1.423Z" transform="translate(596.755 1060.242)"/><path class="a" d="M160.208,153.64c2.976,3.453,1.7,6.664-2.836,7.131L55.022,171.334c-4.534.469-7.314-2.762-6.179-7.174L74.455,64.506c1.135-4.415,4.5-5.2,7.472-1.75Z" transform="translate(632.182 982.382)"/><path class="a" d="M189.153,168.746c2.976,3.453,1.76,7.049-2.7,7.987L82.3,198.656c-4.461.939-6.228-1.512-3.928-5.447L127.5,109.175c2.3-3.933,6.615-4.33,9.589-.875Z" transform="translate(676.796 1052.674)"/><path class="a" d="M94.41,181.534A12.826,12.826,0,0,1,80.9,179.966l-48.34-42.686c-3.417-3.017-2.683-4.284,1.632-2.818l82.741,28.114c4.315,1.469,4.56,4.432.543,6.585Z" transform="translate(603.998 1095.934)"/><path class="a" d="M130.195,178.628a13.823,13.823,0,0,1-13.8,1.492l-33.75-17.158c-4.06-2.068-3.736-4.524.724-5.463l89.716-18.885c4.458-.941,5.223.653,1.7,3.54Z" transform="translate(680.572 1102.9)"/><path class="a" d="M64.971,164.479c-4.555-.209-4.991-2.144-.974-4.3l18.061-9.688a17.851,17.851,0,0,1,14.692-.164l26.38,13.415c4.065,2.066,3.662,3.583-.89,3.374Z" transform="translate(651.808 1119.15)"/><path class="a" d="M147,138.745c1.517,1.76-.53,4.958-4.552,7.1l-23.781,12.7c-4.022,2.145-4.427,1.54-.9-1.347l20.06-16.408c3.53-2.889,7.656-3.808,9.173-2.045" transform="translate(735.71 1102.132)"/><path class="a" d="M107.788,161.9c-4.233,1.693-6.766-.536-5.631-4.95l25.24-98.2c1.135-4.415,4.792-5.486,8.125-2.374l64.8,60.464c3.333,3.109,2.6,7.036-1.635,8.73Z" transform="translate(714.807 973.07)"/><path class="a" d="M184.645,135.685c.809,4.486-1.252,5.611-4.583,2.5L118.391,80.643a7.288,7.288,0,0,1,.219-11.066l40.516-34.9c3.456-2.976,6.947-1.742,7.758,2.744Z" transform="translate(736.626 939.679)"/><path class="a" d="M165.111,191.309c-1.589,4.272-5.322,4.94-8.3,1.487l-52.064-60.446c-2.974-3.456-1.946-7.666,2.29-9.357l90.384-36.13c4.236-1.691,6.4.421,4.807,4.692Z" transform="translate(716.609 1022.186)"/><path class="a" d="M179.072,95.456a12.834,12.834,0,0,1-.454,13.6l-15.651,20.976c-2.729,3.652-5.623,2.971-6.432-1.515L140.988,42.525c-.811-4.486.553-5.027,3.03-1.2Z" transform="translate(775.065 948.539)"/><path class="a" d="M182.479,128.7a13.829,13.829,0,0,1-3.519,13.427l-42.684,38.69c-3.374,3.058-4.841,2.068-3.249-2.2L165,92.679c1.589-4.272,4.07-4.228,5.509.1Z" transform="translate(762.091 1027.184)"/><path class="a" d="M162.809,133.232c-.469,4.534-2.027,4.708-3.468.38l-9.359-28.076a17.842,17.842,0,0,1,2.339-14.5L164.579,74.6c2.726-3.652,4.575-2.933,4.108,1.6Z" transform="translate(788.371 1000.472)"/><path class="a" d="M138.762,149.36c-2.718,3.66-6.187,5.21-7.7,3.45s.005-5.707,3.384-8.77l19.2-17.406c3.382-3.063,3.92-2.573,1.2,1.086Z" transform="translate(759.122 1081.627)"/><path class="a" d="M172.9,91.232c2.583,3.757.982,7.215-3.553,7.681L68.489,109.323c-4.532.467-6.363-2.367-4.06-6.3l49.4-84.506c2.3-3.938,6.3-4.083,8.875-.326Z" transform="translate(655.203 912.403)"/><path class="a" d="M150.963,90.4a7.283,7.283,0,0,1-10.974-1.423L92.222,19.466c-2.583-3.757-1.163-5.628,3.152-4.165l94.539,32.126c4.318,1.466,5.022,5.1,1.566,8.077Z" transform="translate(697.827 911.377)"/><path class="a" d="M151.323,158.844c-1.137,4.415-4.5,5.2-7.472,1.747L65.57,69.706c-2.976-3.453-1.7-6.659,2.836-7.131l102.35-10.563c4.534-.469,7.314,2.759,6.179,7.177Z" transform="translate(656.019 968.993)"/><path class="a" d="M98.4,103.313c-2.3,3.935-6.618,4.328-9.592.875L36.743,43.741c-2.976-3.453-1.76-7.046,2.7-7.985L143.594,13.831c4.463-.941,6.23,1.512,3.93,5.447Z" transform="translate(611.294 909.559)"/><path class="a" d="M94.686,23.176c-4.318-1.466-4.56-4.427-.543-6.585L117.205,4.219a12.835,12.835,0,0,1,13.516,1.563l48.338,42.686c3.417,3.02,2.68,4.29-1.635,2.823Z" transform="translate(698.369 893.033)"/><path class="a" d="M42.954,43.525c-4.46.938-5.223-.655-1.7-3.54L85.844,3.5a13.835,13.835,0,0,1,13.8-1.492L133.4,19.175c4.065,2.063,3.741,4.527-.719,5.463Z" transform="translate(617.381 889.69)"/><path class="a" d="M114.218,16.65a17.83,17.83,0,0,1-14.692.161L73.144,3.4C69.076,1.328,69.482-.189,74.031.02L131.3,2.659c4.552.209,4.993,2.145.979,4.3Z" transform="translate(665.902 888.43)"/><path class="a" d="M38.659,28.585c-3.53,2.887-7.656,3.808-9.173,2.045s.528-4.963,4.552-7.108l23.786-12.7c4.022-2.15,4.425-1.54.9,1.347Z" transform="translate(601.793 903.216)"/><path class="a" d="M21.247,130.588c1.76-1.517,5.708,0,8.768,3.382l17.411,19.2c3.06,3.379,2.571,3.917-1.089,1.2L24.7,138.289c-3.662-2.719-5.21-6.184-3.451-7.7" transform="translate(588.673 1089.963)"/><path class="a" d="M139.215,29.015c1.76-1.517,4.96.53,7.105,4.552l12.693,23.784c2.147,4.022,1.543,4.425-1.344.9L141.257,38.188c-2.884-3.527-3.8-7.656-2.043-9.173" transform="translate(771.293 932.633)"/><path class="a" d="M149.833,33.587c3.66,2.716,5.21,6.184,3.448,7.7s-5.707,0-8.768-3.382L127.1,18.7c-3.06-3.377-2.573-3.917,1.086-1.2Z" transform="translate(750.792 912.881)"/><path class="a" d="M29.058,137.359c2.884,3.527,3.805,7.656,2.043,9.173S26.141,146,24,141.98l-12.7-23.789c-2.145-4.022-1.538-4.425,1.349-.9Z" transform="translate(572.374 1066.541)"/></g></svg>