<svg xmlns="http://www.w3.org/2000/svg" width="153.081" height="54.266" viewBox="0 0 153.081 54.266"><defs><style>.a{fill:aqua;}.b{fill:#191919;}.c{fill:#fff;}.d{fill:#03fcf5;}</style></defs><g transform="translate(0)"><path class="a" d="M147.052,99.239,67,113.594V93.34l80.056-14.355Z" transform="translate(-66.995 -67.583)"/><g transform="translate(10.754 17.743)"><path class="b" d="M91,114.727a6.045,6.045,0,0,0,.346,2.458.962.962,0,0,0,1.136.547,10.769,10.769,0,0,0,2.233-.78l.514,2.727a10.245,10.245,0,0,1-3.142,1.144q-2.372.425-3.449-.972A7.526,7.526,0,0,1,87.56,115.3a9.689,9.689,0,0,1,1.127-5.022,5.075,5.075,0,0,1,3.676-2.329,6.229,6.229,0,0,1,2.866.127l-.533,3.2a7.584,7.584,0,0,0-2.154-.134,1.518,1.518,0,0,0-1.206.986A7.413,7.413,0,0,0,91,114.727Z" transform="translate(-87.56 -99.092)"/><path class="b" d="M104.188,107.309a5.354,5.354,0,0,1,3.725-2.167q2.588-.464,3.7.815t1.117,4.61a9.6,9.6,0,0,1-1.146,5.136,5.235,5.235,0,0,1-3.715,2.266q-2.569.461-3.7-.918t-1.126-4.708A9.116,9.116,0,0,1,104.188,107.309Zm4.861,1.439q-.286-.6-1.166-.441a1.354,1.354,0,0,0-1.136.854,8.309,8.309,0,0,0-.257,2.516v.48a6.7,6.7,0,0,0,.287,2.5q.286.559,1.166.4a1.372,1.372,0,0,0,1.136-.784,7.573,7.573,0,0,0,.257-2.446v-.64A6.665,6.665,0,0,0,109.049,108.747Z" transform="translate(-94.95 -97.744)"/><path class="b" d="M135.9,111.938l-3.1.556v-6.48l-.177.032-1.166,6.689-3.181.571-1.107-6.282-.2.036v6.48l-3.063.549.415-12.494,4.446-.8,1.107,6.521.158-.028,1.067-6.911,4.387-.786Z" transform="translate(-104.898 -95.156)"/><path class="b" d="M153.679,110.1l-3.359.6V98.277l3.359-.6Z" transform="translate(-117.497 -94.241)"/><path class="b" d="M169.4,106.362l-3.241.582-2.549-5.323-.158.028v5.78l-3,.539V95.547l3.34-.6,2.43,5.524.158-.028v-5.96l3.024-.542Z" transform="translate(-122.327 -92.461)"/><path class="b" d="M187.954,94.654a10.193,10.193,0,0,0-2.777-.083,1.5,1.5,0,0,0-1.206,1,7.4,7.4,0,0,0-.326,2.528,6.681,6.681,0,0,0,.306,2.405,1,1,0,0,0,1.255.545,7.454,7.454,0,0,0,1.067-.351v-1.52l-.889.16v-2.36l3.774-.677v6.86l-2.332.418-.316-.584-.078.014q-.337.341-.534.516a3,3,0,0,1-1.561.7q-4.13.741-4.13-5.579a9.967,9.967,0,0,1,1.087-5.025,4.975,4.975,0,0,1,3.656-2.325,8.451,8.451,0,0,1,3.538.006Z" transform="translate(-131.753 -91.109)"/></g><g transform="translate(83.679 1.892)"><path class="c" d="M68.386,146.778A6.43,6.43,0,0,1,72.4,144.52a27.6,27.6,0,0,1,5.222-.424l-.563,4.66a19.549,19.549,0,0,0-3.829.031q-1.323.237-1.323,1.32,0,.428.633.713a13.662,13.662,0,0,0,1.534.565,12,12,0,0,1,1.8.731,3.852,3.852,0,0,1,1.534,1.477,4.687,4.687,0,0,1,.633,2.507,6.75,6.75,0,0,1-1.436,4.446,6.558,6.558,0,0,1-4.068,2.211,15.7,15.7,0,0,1-5.137.1l.31-4.3a16.88,16.88,0,0,0,4.195.131q1.182-.212,1.182-1.266a1.009,1.009,0,0,0-.633-.884,9.436,9.436,0,0,0-1.534-.636,15.282,15.282,0,0,1-1.816-.729,3.7,3.7,0,0,1-1.548-1.46,4.857,4.857,0,0,1-.633-2.593A6.656,6.656,0,0,1,68.386,146.778Z" transform="translate(-66.922 -135.772)"/><path class="c" d="M102.043,141.324a7.626,7.626,0,0,1,5.307-3.088q3.688-.661,5.278,1.162t1.591,6.567q0,4.744-1.633,7.316a7.454,7.454,0,0,1-5.292,3.228q-3.66.656-5.265-1.307t-1.6-6.707Q100.424,143.751,102.043,141.324Zm6.925,2.049q-.408-.852-1.661-.628a1.926,1.926,0,0,0-1.619,1.216,11.819,11.819,0,0,0-.366,3.585v.684a9.562,9.562,0,0,0,.408,3.559q.408.8,1.661.571a1.955,1.955,0,0,0,1.619-1.116,10.771,10.771,0,0,0,.366-3.485v-.912A9.5,9.5,0,0,0,108.968,143.373Z" transform="translate(-88.178 -131.943)"/><path class="c" d="M143.477,133.894a7.627,7.627,0,0,1,5.306-3.088q3.688-.661,5.279,1.162t1.59,6.567q0,4.744-1.632,7.316a7.454,7.454,0,0,1-5.293,3.229q-3.66.656-5.264-1.307t-1.6-6.707Q141.858,136.321,143.477,133.894Zm6.925,2.049q-.408-.853-1.661-.628a1.926,1.926,0,0,0-1.619,1.216,11.827,11.827,0,0,0-.366,3.584v.684a9.551,9.551,0,0,0,.408,3.559q.408.8,1.661.571a1.954,1.954,0,0,0,1.619-1.116,10.782,10.782,0,0,0,.366-3.485v-.912A9.5,9.5,0,0,0,150.4,135.943Z" transform="translate(-114.467 -127.229)"/><path class="c" d="M197.586,139.019l-4.617.828-3.631-7.583-.225.04v8.234l-4.279.767V123.613l4.758-.853,3.463,7.869.225-.04V122.1l4.307-.772Z" transform="translate(-141.734 -121.326)"/></g><path class="a" d="M210.35,51.862l12.921-17.938,8.361.608Z" transform="translate(-78.551 -22.521)"/><path class="a" d="M221.677,62.192l14-8.129,2.312,5.512Z" transform="translate(-217.794 -44.449)"/><path class="a" d="M56.629,206.555,43.708,224.493l-8.361-.608Z" transform="translate(34.068 -170.226)"/><path class="a" d="M51.338,208.13l-14,8.129-2.312-5.512Z" transform="translate(34.244 -171.09)"/><g transform="translate(61.107 0)"><path class="d" d="M134.024,211.871a.226.226,0,0,1-.04-.448l44.692-8.057a.226.226,0,0,1,.08.445l-44.692,8.057A.258.258,0,0,1,134.024,211.871Z" transform="translate(-133.798 -203.362)"/></g><g transform="translate(10.754 41.043)"><path class="d" d="M134.024,211.871a.226.226,0,0,1-.04-.448l44.692-8.057a.226.226,0,0,1,.08.445l-44.692,8.057A.258.258,0,0,1,134.024,211.871Z" transform="translate(-133.798 -203.362)"/></g></g></svg>