<svg xmlns="http://www.w3.org/2000/svg" xmlns:xlink="http://www.w3.org/1999/xlink" width="36.002" height="33.701" viewBox="0 0 36.002 33.701"><defs><style>.a{fill:none;}.b{clip-path:url(#a);}.c{clip-path:url(#b);}.d{fill:#fff;}</style><clipPath id="a"><path class="a" d="M308.445-10.4a17.578,17.578,0,0,0-6.551-6.286A18.18,18.18,0,0,0,292.858-19a18.182,18.182,0,0,0-9.036,2.317,17.576,17.576,0,0,0-6.551,6.286,16.376,16.376,0,0,0-2.414,8.67,16.335,16.335,0,0,0,3.434,10.155,17.6,17.6,0,0,0,8.871,6.241,1.084,1.084,0,0,0,.937-.157.864.864,0,0,0,.3-.674q0-.067-.012-1.214t-.012-2l-.539.089a7.163,7.163,0,0,1-1.3.079,10.318,10.318,0,0,1-1.629-.157,3.715,3.715,0,0,1-1.57-.674,2.863,2.863,0,0,1-1.031-1.383l-.234-.518a5.588,5.588,0,0,0-.738-1.147,2.8,2.8,0,0,0-1.02-.855l-.164-.113a1.7,1.7,0,0,1-.3-.27,1.229,1.229,0,0,1-.211-.315q-.071-.158.117-.259a1.578,1.578,0,0,1,.68-.1l.468.067a3.487,3.487,0,0,1,1.16.54A3.7,3.7,0,0,1,283.2,6.774a4.024,4.024,0,0,0,1.3,1.406,2.839,2.839,0,0,0,1.535.483,6.937,6.937,0,0,0,1.336-.112,4.8,4.8,0,0,0,1.055-.338A3.589,3.589,0,0,1,289.576,5.9a16.669,16.669,0,0,1-2.4-.4,9.794,9.794,0,0,1-2.2-.878,6.258,6.258,0,0,1-1.887-1.507,7.135,7.135,0,0,1-1.23-2.362,10.806,10.806,0,0,1-.48-3.374,6.415,6.415,0,0,1,1.852-4.633,5.822,5.822,0,0,1,.164-4.588,3.409,3.409,0,0,1,2.016.3,14.393,14.393,0,0,1,1.957.866q.621.359,1,.607a17.616,17.616,0,0,1,9,0l.891-.54a12.853,12.853,0,0,1,2.156-.99,3.19,3.19,0,0,1,1.9-.247,5.765,5.765,0,0,1,.187,4.588,6.416,6.416,0,0,1,1.852,4.633,10.924,10.924,0,0,1-.481,3.385,6.858,6.858,0,0,1-1.242,2.362,6.5,6.5,0,0,1-1.9,1.5,9.815,9.815,0,0,1-2.2.877,16.647,16.647,0,0,1-2.4.405,3.919,3.919,0,0,1,1.218,3.193v4.745a.879.879,0,0,0,.293.674,1.052,1.052,0,0,0,.926.157,17.6,17.6,0,0,0,8.872-6.241,16.338,16.338,0,0,0,3.434-10.155A16.388,16.388,0,0,0,308.445-10.4Z" transform="translate(-274.857 19)"/></clipPath><clipPath id="b"><path class="a" d="M-174,903.659H3231.616V-1012H-174Z" transform="translate(174 1012)"/></clipPath></defs><g class="b"><g class="c" transform="translate(-796.164 -1761.343)"><path class="d" d="M269.857-24H323.6V27.439h-53.74Z" transform="translate(517.438 1776.474)"/></g></g></svg>