<svg xmlns="http://www.w3.org/2000/svg" width="150.875" height="30.176" viewBox="0 0 150.875 30.176"><defs><style>.a{fill:#f3ba2f;}</style></defs><g transform="translate(0)"><path class="a" d="M27.274,12.68l5.86-5.86L39,12.683l3.41-3.41L33.134,0l-9.27,9.27Z" transform="translate(-18.046)"/><rect class="a" width="4.822" height="4.822" transform="translate(3.41 11.677) rotate(45)"/><path class="a" d="M27.258,73.4l5.86,5.86L38.981,73.4,42.393,76.8l0,0-9.273,9.273-9.27-9.27,0,0Z" transform="translate(-18.03 -55.903)"/><rect class="a" width="4.822" height="4.822" transform="translate(30.176 15.089) rotate(135)"/><path class="a" d="M55.154,52.24h0L51.7,48.78l-2.557,2.557h0l-.294.294-.606.606h0l0,0,0,.005L51.7,55.7l3.46-3.46,0,0Z" transform="translate(-36.608 -37.154)"/><path class="a" d="M148.37,30.679h7.416a5.657,5.657,0,0,1,4.176,1.417,3.7,3.7,0,0,1,1.095,2.72v.046a3.926,3.926,0,0,1-.17,1.211,3.767,3.767,0,0,1-.454.949,3.614,3.614,0,0,1-.659.743,4.414,4.414,0,0,1-.806.549,5.4,5.4,0,0,1,2.185,1.429,3.657,3.657,0,0,1,.8,2.5v.046a4.153,4.153,0,0,1-.422,1.92,3.731,3.731,0,0,1-1.21,1.372,5.668,5.668,0,0,1-1.894.823,10.2,10.2,0,0,1-2.453.274h-7.6Zm6.675,6.469a3.665,3.665,0,0,0,1.852-.4,1.382,1.382,0,0,0,.686-1.292v-.046a1.409,1.409,0,0,0-.594-1.223,2.936,2.936,0,0,0-1.714-.423H151.8v3.383Zm.937,6.447a3.382,3.382,0,0,0,1.829-.423,1.449,1.449,0,0,0,.663-1.315v-.046a1.51,1.51,0,0,0-.617-1.269,3.326,3.326,0,0,0-1.989-.468H151.8v3.52h4.183Z" transform="translate(-112.878 -23.367)"/><path class="a" d="M223.875,30.679H227.4v16h-3.521Z" transform="translate(-170.388 -23.367)"/><path class="a" d="M261.02,30.679h3.246l7.5,9.853V30.679h3.475v16h-2.994l-7.75-10.173V46.681H261.02Z" transform="translate(-198.68 -23.367)"/><path class="a" d="M343.48,30.2h3.246l6.858,16.116H349.9l-1.463-3.589h-6.767l-1.463,3.589h-3.59Zm3.7,9.418-2.126-5.189-2.125,5.189Z" transform="translate(-256.263 -23.002)"/><path class="a" d="M423.738,30.679h3.246l7.5,9.853V30.679h3.475v16h-2.994l-7.75-10.173V46.681h-3.475Z" transform="translate(-322.617 -23.367)"/><path class="a" d="M510.33,46.078a8.289,8.289,0,0,1-3.269-.64,7.889,7.889,0,0,1-4.32-4.366,8.428,8.428,0,0,1-.617-3.223V37.8a8.342,8.342,0,0,1,.617-3.212,8.249,8.249,0,0,1,1.714-2.629,7.947,7.947,0,0,1,2.629-1.783,8.56,8.56,0,0,1,3.384-.651,10.61,10.61,0,0,1,2.045.183,8.569,8.569,0,0,1,1.681.5,7.322,7.322,0,0,1,1.395.777A9.506,9.506,0,0,1,516.776,32l-2.24,2.583a8.494,8.494,0,0,0-1.909-1.326,4.866,4.866,0,0,0-2.183-.48,4.431,4.431,0,0,0-3.338,1.463,5.023,5.023,0,0,0-.96,1.589,5.408,5.408,0,0,0-.342,1.932V37.8a5.5,5.5,0,0,0,.342,1.943,5.085,5.085,0,0,0,.949,1.6,4.4,4.4,0,0,0,3.349,1.486,4.9,4.9,0,0,0,2.32-.5,8.977,8.977,0,0,0,1.886-1.372l2.24,2.263a11.634,11.634,0,0,1-1.28,1.189,7.608,7.608,0,0,1-1.452.9,7.522,7.522,0,0,1-1.725.571A10.413,10.413,0,0,1,510.33,46.078Z" transform="translate(-382.32 -22.491)"/><path class="a" d="M581.467,30.679h12.047v3.132h-8.572v3.246h7.544v3.132h-7.544v3.36h8.687v3.132H581.467Z" transform="translate(-442.754 -23.367)"/></g></svg>