<svg xmlns="http://www.w3.org/2000/svg" width="252.619" height="34.366" viewBox="0 0 252.619 34.366"><defs><style>.a{fill:#1e4bc6;}.b{fill:#fff;}.c{fill:#45d2f9;fill-rule:evenodd;}</style></defs><g transform="translate(-18.429 -18.399)"><g transform="translate(18.429 18.399)"><path class="a" d="M52.479,30.459a14.6,14.6,0,0,0-3.544-8.2h0a14.6,14.6,0,0,0-8.2-3.544,31.627,31.627,0,0,0-5.123-.3,31.631,31.631,0,0,0-5.123.3,14.594,14.594,0,0,0-8.2,3.544h0a14.6,14.6,0,0,0-3.544,8.2,31.534,31.534,0,0,0-.3,5.123,31.535,31.535,0,0,0,.3,5.123,14.6,14.6,0,0,0,3.544,8.2h0a14.594,14.594,0,0,0,8.2,3.544,31.574,31.574,0,0,0,5.123.3,31.57,31.57,0,0,0,5.123-.3,14.6,14.6,0,0,0,8.2-3.544h0a14.6,14.6,0,0,0,3.544-8.2,31.65,31.65,0,0,0,.3-5.123,31.649,31.649,0,0,0-.3-5.123" transform="translate(-18.429 -18.399)"/><path class="b" d="M46.817,55.664l-9.59-5.537V39.053l9.59-5.537,9.59,5.537V50.127ZM39,49.1l7.817,4.513L54.634,49.1V40.077l-7.817-4.514L39,40.077Z" transform="translate(-29.63 -27.407)"/><path class="b" d="M60,33.173a2.144,2.144,0,1,1-2.144-2.144A2.145,2.145,0,0,1,60,33.173" transform="translate(-40.645 -25.925)"/><path class="b" d="M60,82.34a2.144,2.144,0,1,1-2.144-2.145A2.144,2.144,0,0,1,60,82.34" transform="translate(-40.645 -55.222)"/><path class="b" d="M38.612,45.507a2.144,2.144,0,1,1-2.144-2.144,2.144,2.144,0,0,1,2.144,2.144" transform="translate(-27.9 -33.275)"/><path class="b" d="M81.478,45.507a2.144,2.144,0,1,1-2.144-2.144,2.145,2.145,0,0,1,2.144,2.144" transform="translate(-53.443 -33.275)"/><path class="b" d="M38.612,70.006a2.144,2.144,0,1,1-2.144-2.145,2.144,2.144,0,0,1,2.144,2.145" transform="translate(-27.9 -47.873)"/><path class="b" d="M81.478,70.006a2.144,2.144,0,1,1-2.144-2.145,2.144,2.144,0,0,1,2.144,2.145" transform="translate(-53.443 -47.873)"/><path class="c" d="M60.042,54.628a2.148,2.148,0,1,0-3.082,1.931V59.3H58.83V56.56a2.146,2.146,0,0,0,1.213-1.931" transform="translate(-40.666 -38.708)"/></g><path class="b" d="M135.367,47.1a1.661,1.661,0,0,1-.013-.7,1.1,1.1,0,0,1,1.223-.9,1.142,1.142,0,0,1,1.242,1.214v.827h3.334V46.6c0-2.907-2.622-3.371-4.511-3.371-2.374,0-4.314.788-4.669,2.971A4.623,4.623,0,0,0,132,48c.579,2.732,5.329,3.523,6.02,5.252a1.722,1.722,0,0,1,.026.987,1.157,1.157,0,0,1-1.305.9,1.191,1.191,0,0,1-1.334-1.217l0-1.286h-3.586v1.022c0,2.988,2.347,3.887,4.859,3.887,2.415,0,4.4-.823,4.721-3.06a6.643,6.643,0,0,0-.014-2.188C140.817,49.5,135.748,48.665,135.367,47.1Zm43.466.033a1.793,1.793,0,0,1-.011-.691,1.1,1.1,0,0,1,1.211-.894,1.128,1.128,0,0,1,1.224,1.2v.817h3.3v-.931c0-2.88-2.582-3.332-4.451-3.332-2.354,0-4.277.776-4.628,2.943a4.464,4.464,0,0,0,.032,1.781c.573,2.7,5.276,3.486,5.959,5.194a1.8,1.8,0,0,1,.025.98c-.1.445-.4.892-1.288.892a1.183,1.183,0,0,1-1.332-1.2V52.613h-3.547v1.02c0,2.955,2.314,3.846,4.807,3.846,2.387,0,4.359-.816,4.675-3.027a6.515,6.515,0,0,0-.023-2.167C184.226,49.513,179.213,48.68,178.833,47.133Zm30.349,7.282-3.147-10.76h-4.96V56.881h3.281l-.191-11.105,3.38,11.105H212.3V43.655H209Zm-63.058-10.76L143.648,57.02h3.61l1.865-12.373,1.821,12.373h3.585l-2.466-13.365Zm20.188,0L164.625,54.1,162.94,43.655h-5.452L157.2,57.02h3.34l.09-12.373,2.3,12.373h3.389l2.3-12.373.091,12.373h3.349l-.3-13.365Zm31.058,0h-3.38v9.888a2.366,2.366,0,0,1-.029.508,1.329,1.329,0,0,1-2.559,0,2.163,2.163,0,0,1-.034-.508V43.655h-3.379v9.58c0,.247.015.752.03.884.233,2.5,2.2,3.307,4.658,3.307s4.428-.81,4.666-3.307a7.015,7.015,0,0,0,.029-.884Zm23.209,5.863v1.949h1.37V53.4a2.447,2.447,0,0,1-.035.508,1.444,1.444,0,0,1-2.731,0,3.311,3.311,0,0,1-.035-.508V47.293a2.72,2.72,0,0,1,.061-.631,1.4,1.4,0,0,1,2.665,0,3.537,3.537,0,0,1,.04.516v.742h3.366V47.48a8.072,8.072,0,0,0-.025-.885c-.253-2.507-2.319-3.3-4.688-3.3s-4.4.8-4.691,3.3c-.027.229-.067.64-.067.885V53.1a7.652,7.652,0,0,0,.053.881c.22,2.438,2.333,3.3,4.7,3.3s4.477-.864,4.7-3.3c.04-.447.044-.636.049-.881V49.518Z" transform="translate(-67.565 -14.796)"/><g transform="translate(169.211 26.831)"><path class="b" d="M391.542,43.247H396a5.784,5.784,0,0,1,3.637,1.009,3.517,3.517,0,0,1,1.29,2.948,2.989,2.989,0,0,1-1.551,2.755A3.468,3.468,0,0,1,400.9,51.22a3.568,3.568,0,0,1,.533,2,3.71,3.71,0,0,1-1.367,3.142,5.967,5.967,0,0,1-3.715,1.047h-4.811Zm2.638,2.425v3.22H396a2.606,2.606,0,0,0,1.765-.465,1.587,1.587,0,0,0,.5-1.222,1.324,1.324,0,0,0-.524-1.164A3.131,3.131,0,0,0,396,45.672Zm0,5.684v3.627h2.173a2.918,2.918,0,0,0,1.814-.475,1.609,1.609,0,0,0,.611-1.348,1.681,1.681,0,0,0-.533-1.338,3.155,3.155,0,0,0-2.008-.465Z" transform="translate(-391.542 -41.637)"/><path class="b" d="M418.9,42.768h2.638V57.122H418.9Z" transform="translate(-407.845 -41.352)"/><path class="b" d="M434.139,61.545a6.023,6.023,0,0,1-2.3-.439,5.7,5.7,0,0,1-3.123-3.029,5.658,5.658,0,0,1,0-4.45,5.7,5.7,0,0,1,3.123-3.028,6.03,6.03,0,0,1,2.3-.44,5.949,5.949,0,0,1,4.161,1.654,5.652,5.652,0,0,1,1.261,1.814,5.658,5.658,0,0,1,0,4.45,5.648,5.648,0,0,1-1.261,1.814,5.944,5.944,0,0,1-4.161,1.654Zm0-2.464a3.3,3.3,0,0,0,1.3-.255,3.337,3.337,0,0,0,1.047-.691,3.186,3.186,0,0,0,.951-2.274,3.2,3.2,0,0,0-.252-1.264,3.148,3.148,0,0,0-.7-1.028,3.344,3.344,0,0,0-1.047-.691,3.3,3.3,0,0,0-1.3-.255,3.372,3.372,0,0,0-1.31.255,3.207,3.207,0,0,0-1.988,2.984,3.143,3.143,0,0,0,.252,1.246,3.231,3.231,0,0,0,.689,1.028,3.2,3.2,0,0,0,1.047.691A3.372,3.372,0,0,0,434.139,59.082Z" transform="translate(-413.423 -45.756)"/><path class="b" d="M465.406,61.545a6,6,0,0,1-4.19-1.664,5.616,5.616,0,0,1-1.251-1.8,5.658,5.658,0,0,1,0-4.45,5.7,5.7,0,0,1,3.123-3.028,6.352,6.352,0,0,1,4.112-.182,5.973,5.973,0,0,1,1.542.715,5.5,5.5,0,0,1,1.222,1.086,5.722,5.722,0,0,1,.854,1.391l-2.347.927a3.142,3.142,0,0,0-1.193-1.393,3.343,3.343,0,0,0-1.852-.52,3.423,3.423,0,0,0-2.4.946,3.082,3.082,0,0,0-.708,1.028,3.188,3.188,0,0,0-.252,1.264,3.143,3.143,0,0,0,.252,1.246,3.082,3.082,0,0,0,.708,1.028,3.4,3.4,0,0,0,1.077.691,3.491,3.491,0,0,0,1.338.255,3.2,3.2,0,0,0,1.891-.555A3.413,3.413,0,0,0,468.51,57.1l2.347.946A6.048,6.048,0,0,1,470,59.453a5.558,5.558,0,0,1-1.212,1.113,5.629,5.629,0,0,1-1.542.723A6.367,6.367,0,0,1,465.406,61.545Z" transform="translate(-432.042 -45.756)"/><path class="b" d="M490.037,42.768h2.619v8.476l4.83-5.47h3.142l-4.384,4.908,4.539,6.44h-2.929l-3.395-4.888-1.8,2v2.89h-2.619Z" transform="translate(-450.233 -41.352)"/><path class="b" d="M520.75,61.545a6,6,0,0,1-4.19-1.664,5.616,5.616,0,0,1-1.251-1.8,5.663,5.663,0,0,1,0-4.45,5.7,5.7,0,0,1,3.123-3.028,6.352,6.352,0,0,1,4.112-.182,5.98,5.98,0,0,1,1.542.715,5.5,5.5,0,0,1,1.222,1.086,5.72,5.72,0,0,1,.854,1.391l-2.348.927a3.141,3.141,0,0,0-1.193-1.393,3.343,3.343,0,0,0-1.852-.52,3.426,3.426,0,0,0-2.4.946,3.088,3.088,0,0,0-.708,1.028,3.189,3.189,0,0,0-.252,1.264,3.143,3.143,0,0,0,.252,1.246,3.088,3.088,0,0,0,.708,1.028,3.4,3.4,0,0,0,1.077.691,3.49,3.49,0,0,0,1.338.255,3.2,3.2,0,0,0,1.891-.555,3.416,3.416,0,0,0,1.174-1.427l2.347.946a6.039,6.039,0,0,1-.854,1.408,5.538,5.538,0,0,1-1.212,1.113,5.62,5.62,0,0,1-1.542.723A6.368,6.368,0,0,1,520.75,61.545Z" transform="translate(-465.021 -45.756)"/><path class="b" d="M545.381,42.768H548v4.577a4.17,4.17,0,0,1,1.446-1.164,4.865,4.865,0,0,1,5.256.83,4.883,4.883,0,0,1,1.193,3.5v6.607h-2.677V50.83a3.062,3.062,0,0,0-.64-2.057,2.388,2.388,0,0,0-1.92-.749,2.682,2.682,0,0,0-1.028.2,2.4,2.4,0,0,0-.844.578,2.659,2.659,0,0,0-.562.948,3.808,3.808,0,0,0-.2,1.289v6.084h-2.638Z" transform="translate(-483.212 -41.352)"/><path class="b" d="M579.767,61.545a5.7,5.7,0,0,1-3.821-1.5,5.5,5.5,0,0,1-1.28-1.785,5.692,5.692,0,0,1-.485-2.4,5.849,5.849,0,0,1,.475-2.421,5.374,5.374,0,0,1,3.065-2.9,5.881,5.881,0,0,1,2.086-.384,5.22,5.22,0,0,1,2.075.407,4.336,4.336,0,0,1,1.572,1.109v-1.5h2.619V61.526h-2.619V59.914a4.282,4.282,0,0,1-1.591,1.2A5.054,5.054,0,0,1,579.767,61.545Zm.427-2.405a3.538,3.538,0,0,0,1.358-.255,3.15,3.15,0,0,0,1.067-.711,3.478,3.478,0,0,0,.708-1.056,3.2,3.2,0,0,0,.262-1.294,3.157,3.157,0,0,0-.262-1.275,3.372,3.372,0,0,0-.708-1.048,3.225,3.225,0,0,0-1.067-.7,3.722,3.722,0,0,0-2.706,0,3.507,3.507,0,0,0-1.1.692,3.113,3.113,0,0,0-.727,1.039,3.2,3.2,0,0,0-.262,1.293,3.258,3.258,0,0,0,.262,1.3,3.19,3.19,0,0,0,.727,1.057,3.4,3.4,0,0,0,1.1.7A3.557,3.557,0,0,0,580.193,59.14Z" transform="translate(-500.373 -45.756)"/><path class="b" d="M606.483,40.912a1.633,1.633,0,0,1,.447-1.193,1.827,1.827,0,0,1,2.415,0,1.652,1.652,0,0,1,.437,1.193A1.717,1.717,0,0,1,606.91,42.1,1.641,1.641,0,0,1,606.483,40.912Zm.33,2.774h2.638V55.033h-2.638Z" transform="translate(-519.621 -39.263)"/><path class="b" d="M617.571,50.178h2.6v1.55a4.148,4.148,0,0,1,1.426-1.14,4.886,4.886,0,0,1,5.276.827,4.883,4.883,0,0,1,1.193,3.5v6.607h-2.657V55.215a3.03,3.03,0,0,0-.64-2.037,2.389,2.389,0,0,0-1.92-.749,2.551,2.551,0,0,0-1.891.777,3.054,3.054,0,0,0-.766,2.237v6.084h-2.619Z" transform="translate(-526.228 -45.756)"/></g></g></svg>