<svg xmlns="http://www.w3.org/2000/svg" width="43.837" height="43.021" viewBox="0 0 43.837 43.021"><defs><style>.a{fill:#03fcf5;}.b{fill:#fcd462;}.c{fill:#469daf;}.d{fill:#fff;}</style></defs><g transform="translate(-638.163 -683.175)"><g transform="translate(639.163 683.175)"><path class="a" d="M55.072,24.239a21.508,21.508,0,0,0-42.693-.3.56.56,0,0,0,1.112.138,20.4,20.4,0,1,1,.437,7.574.558.558,0,0,0-.541-.428h0a.564.564,0,0,0-.55.693,21.508,21.508,0,0,0,42.235-7.68Z" transform="translate(-12.374 -5.21)"/><path class="a" d="M98.578,75.1c-.849-6.635-7.179-13.045-13.8-13.975a16.229,16.229,0,0,0-9.936,1.73.511.511,0,0,0-.168.729l.028.047a.5.5,0,0,0,.678.2,15.182,15.182,0,1,1-5.159,4.456.516.516,0,0,0-.125-.727l-.023-.018a.519.519,0,0,0-.742.073,16.2,16.2,0,0,0-3.095,11.058c.641,7.38,7.47,14.171,14.853,14.772A16.292,16.292,0,0,0,98.578,75.1Z" transform="translate(-61.116 -55.721)"/><path class="a" d="M142.333,124.573a9.895,9.895,0,0,1-7.932,12.988,9.92,9.92,0,1,1,3.472-18.4.567.567,0,0,0,.756-.175l.006-.009a.542.542,0,0,0-.176-.769,10.956,10.956,0,0,0-6.676-1.432,11.037,11.037,0,1,0,11.95,13.326,10.957,10.957,0,0,0-.344-5.9.551.551,0,0,0-.761-.327l-.01.005A.563.563,0,0,0,142.333,124.573Z" transform="translate(-111.623 -106.238)"/><path class="a" d="M186.507,180.872a.564.564,0,1,0-.589.962,4.672,4.672,0,0,1,2.074,5.155,4.558,4.558,0,0,1-3.588,3.4,4.687,4.687,0,0,1-5.623-4.586,4.638,4.638,0,0,1,1.585-3.488.565.565,0,0,0,.2-.423h0a.563.563,0,0,0-.926-.432,5.79,5.79,0,1,0,6.869-.583Z" transform="translate(-162.133 -164.288)"/></g><g transform="translate(638.163 698.314)"><circle class="b" cx="1.676" cy="1.676" r="1.676" transform="translate(0 6.003)"/><circle class="b" cx="1.467" cy="1.467" r="1.467" transform="translate(20.621)"/></g><circle class="c" cx="1.676" cy="1.676" r="1.676" transform="translate(648.824 691.158)"/><circle class="d" cx="1.676" cy="1.676" r="1.676" transform="translate(666.952 696.744)"/></g></svg>