<svg xmlns="http://www.w3.org/2000/svg" width="43.45" height="43.45" viewBox="0 0 43.45 43.45">
  <defs>
    <style>.a{fill:#db89df;}</style>
  </defs>
  <path class="a"
    d="M80.273,84.516h1.7v1.7a1.273,1.273,0,1,0,2.546,0v-1.7h1.7a1.273,1.273,0,1,0,0-2.546h-1.7v-1.7a1.273,1.273,0,1,0-2.546,0v1.7h-1.7a1.273,1.273,0,1,0,0,2.546Z"
    transform="translate(-72.296 -72.296)" />
  <path class="a"
    d="M313.273,116.546h5.092a1.273,1.273,0,0,0,0-2.546h-5.092a1.273,1.273,0,0,0,0,2.546Z"
    transform="translate(-285.523 -104.326)" />
  <path class="a" d="M314.213,367h-5.94a1.273,1.273,0,0,0,0,2.546h5.94a1.273,1.273,0,0,0,0-2.546Z"
    transform="translate(-280.947 -335.855)" />
  <path class="a" d="M314.213,317h-5.94a1.273,1.273,0,0,0,0,2.546h5.94a1.273,1.273,0,0,0,0-2.546Z"
    transform="translate(-280.947 -290.098)" />
  <path class="a"
    d="M95.416,317.372a1.273,1.273,0,0,0-1.8,0l-1.221,1.221-1.222-1.222a1.273,1.273,0,0,0-1.8,1.8l1.222,1.222-1.222,1.222a1.273,1.273,0,1,0,1.8,1.8l1.222-1.221,1.222,1.222a1.273,1.273,0,0,0,1.8-1.8l-1.221-1.221,1.222-1.222A1.273,1.273,0,0,0,95.416,317.372Z"
    transform="translate(-81.447 -290.098)" />
  <path class="a"
    d="M41.244,23.012V3.819A3.823,3.823,0,0,0,37.425,0H3.819A3.823,3.823,0,0,0,0,3.819V37.425a3.823,3.823,0,0,0,3.819,3.819H23.012A13.147,13.147,0,0,0,41.244,23.012ZM38.7,3.819V20.183a13.127,13.127,0,0,0-16.8,0V2.546h15.53A1.274,1.274,0,0,1,38.7,3.819ZM3.819,2.546h15.53v16.8H2.546V3.819A1.274,1.274,0,0,1,3.819,2.546ZM2.546,37.425V21.895h16.8v1.118A13.127,13.127,0,0,0,20.183,38.7H3.819A1.274,1.274,0,0,1,2.546,37.425ZM30.3,40.9A10.608,10.608,0,1,1,40.9,30.3,10.62,10.62,0,0,1,30.3,40.9Z" />
</svg>