<svg xmlns="http://www.w3.org/2000/svg" width="52.666" height="43.202" viewBox="0 0 52.666 43.202"><defs><style>.a{fill:#03fcf5;}</style></defs><g transform="translate(0 -46)"><path class="a" d="M247.029,386a1.029,1.029,0,1,0,1.029,1.029A1.029,1.029,0,0,0,247.029,386Z" transform="translate(-220.696 -305.027)"/><path class="a" d="M48.251,47.581A25.559,25.559,0,0,0,38.985,46a25.559,25.559,0,0,0-9.267,1.581,9.13,9.13,0,0,0-3.386,2.165,9.13,9.13,0,0,0-3.386-2.165A25.556,25.556,0,0,0,13.681,46a25.559,25.559,0,0,0-9.267,1.581C1.568,48.727,0,50.358,0,52.172V76.859c0,1.814,1.568,3.444,4.414,4.591a25.018,25.018,0,0,0,8.547,1.572v.009c0,3.519,5.749,6.172,13.372,6.172S39.7,86.549,39.7,83.03v-.009a25.017,25.017,0,0,0,8.547-1.572c2.847-1.146,4.414-2.777,4.414-4.591V52.172C52.665,50.358,51.1,48.727,48.251,47.581Zm2.357,23.106c0,.878-1.2,1.906-3.125,2.682A23.253,23.253,0,0,1,39.7,74.791v-4.1s0-.006,0-.009a25.015,25.015,0,0,0,8.547-1.572,11.2,11.2,0,0,0,2.357-1.259v2.84ZM25.3,58.343c0,.878-1.2,1.906-3.125,2.682a23.818,23.818,0,0,1-8.5,1.432,23.818,23.818,0,0,1-8.5-1.432c-1.928-.777-3.125-1.8-3.125-2.682V55.5a11.2,11.2,0,0,0,2.357,1.259,25.559,25.559,0,0,0,9.267,1.581,25.559,25.559,0,0,0,9.267-1.581A11.2,11.2,0,0,0,25.3,55.5ZM4.414,62.934a25.559,25.559,0,0,0,9.267,1.581,25.559,25.559,0,0,0,9.267-1.581A11.2,11.2,0,0,0,25.3,61.675v2.859a25.014,25.014,0,0,0-7.277,1.254,8.852,8.852,0,0,0-4.37,2.842A23.8,23.8,0,0,1,5.183,67.2c-1.928-.777-3.125-1.8-3.125-2.682v-2.84A11.2,11.2,0,0,0,4.414,62.934ZM2.057,67.847a11.2,11.2,0,0,0,2.357,1.259,25.02,25.02,0,0,0,8.547,1.572s0,.006,0,.009v4.1a23.253,23.253,0,0,1-7.778-1.422c-1.928-.777-3.126-1.8-3.126-2.682Zm13.069,2.335c.762-1.774,5.162-3.609,11.206-3.609s10.444,1.835,11.205,3.607a1.273,1.273,0,0,1,.11.507c0,.9-1.115,1.909-2.982,2.687A22.387,22.387,0,0,1,26.333,74.8,22.387,22.387,0,0,1,18,73.374c-1.868-.778-2.982-1.783-2.982-2.687A1.27,1.27,0,0,1,15.127,70.182Zm35.482-5.666c0,.878-1.2,1.906-3.125,2.682a23.8,23.8,0,0,1-8.474,1.432,8.852,8.852,0,0,0-4.371-2.842,25.011,25.011,0,0,0-7.277-1.254V61.675a11.2,11.2,0,0,0,2.357,1.259,25.559,25.559,0,0,0,9.267,1.581,25.559,25.559,0,0,0,9.267-1.581,11.2,11.2,0,0,0,2.357-1.259Zm0-6.172c0,.878-1.2,1.906-3.125,2.682a23.818,23.818,0,0,1-8.5,1.432,23.818,23.818,0,0,1-8.5-1.432c-1.928-.777-3.125-1.8-3.125-2.682V55.5a11.2,11.2,0,0,0,2.357,1.259,25.559,25.559,0,0,0,9.267,1.581,25.559,25.559,0,0,0,9.267-1.581A11.2,11.2,0,0,0,50.608,55.5ZM30.487,49.489a23.818,23.818,0,0,1,8.5-1.432,23.818,23.818,0,0,1,8.5,1.432c1.928.777,3.125,1.8,3.125,2.682s-1.2,1.906-3.125,2.682a23.818,23.818,0,0,1-8.5,1.432,23.818,23.818,0,0,1-8.5-1.432c-1.928-.777-3.125-1.8-3.125-2.682S28.559,50.266,30.487,49.489Zm-25.3,0a23.818,23.818,0,0,1,8.5-1.432,23.818,23.818,0,0,1,8.5,1.432c1.928.777,3.125,1.8,3.125,2.682s-1.2,1.906-3.125,2.682a23.818,23.818,0,0,1-8.5,1.432,23.818,23.818,0,0,1-8.5-1.432c-1.928-.777-3.125-1.8-3.125-2.682S3.255,50.266,5.183,49.489Zm0,30.052c-1.928-.777-3.125-1.8-3.125-2.682v-2.84a11.2,11.2,0,0,0,2.357,1.259,25.018,25.018,0,0,0,8.547,1.572v4.113A23.253,23.253,0,0,1,5.183,79.541Zm29.482,6.176a22.387,22.387,0,0,1-8.332,1.427A22.387,22.387,0,0,1,18,85.717c-1.868-.778-2.982-1.783-2.982-2.687V80.25a9.065,9.065,0,0,0,.776.5,18.015,18.015,0,0,0,6.285,1.977,1.041,1.041,0,0,0,.151.011,1.029,1.029,0,0,0,.148-2.046c-4.781-.7-7.36-2.5-7.36-3.834v-2.79c2.328,1.7,6.438,2.79,11.315,2.79s8.987-1.086,11.315-2.79v2.79c0,1.335-2.58,3.132-7.36,3.834a1.029,1.029,0,0,0,.148,2.046,1.041,1.041,0,0,0,.151-.011,18.014,18.014,0,0,0,6.285-1.977,9.079,9.079,0,0,0,.776-.5v2.78C37.648,83.935,36.533,84.939,34.665,85.717Zm12.818-6.176A23.253,23.253,0,0,1,39.7,80.963V76.85a25.018,25.018,0,0,0,8.547-1.572,11.2,11.2,0,0,0,2.357-1.259v2.841C50.608,77.737,49.411,78.765,47.483,79.541Z"/></g></svg>