<svg width="96" height="96" viewBox="0 0 96 96" fill="none" xmlns="http://www.w3.org/2000/svg">
  <path
    d="M65.0812 50.588C65.7242 50.1577 66.3092 50.4361 66.3776 51.2091L67.7291 66.2354C67.7975 67.0083 67.2605 67.4231 66.5305 67.1558L50.8789 61.4393C50.1489 61.1721 50.082 60.603 50.725 60.1727L65.0812 50.588Z"
    fill="#db89df" />
  <path
    d="M78.3973 49.3847C79.1748 49.4001 79.4771 49.953 79.0701 50.613L70.1612 65.0885C69.7542 65.7485 69.364 65.6567 69.2956 64.8837L68.01 50.5853C67.9416 49.8123 68.5192 49.1947 69.2934 49.207L78.3973 49.3847Z"
    fill="#db89df" />
  <path
    d="M48.5031 63.7843C48.5185 63.0067 49.13 62.5911 49.8565 62.8553L65.4191 68.5411C66.1491 68.8083 66.1805 69.3212 65.4949 69.6826L49.4572 78.1172C48.7716 78.4787 48.2222 78.14 48.2376 77.3625L48.5031 63.7843Z"
    fill="#db89df" />
  <path
    d="M79.0744 53.8071C79.4814 53.1471 79.716 53.2345 79.5962 53.9984L77.8924 64.8467C77.7727 65.6106 77.0537 66.3655 76.2918 66.5176L71.926 67.3991C71.1641 67.5511 70.8761 67.1398 71.2797 66.4767L79.0744 53.8071Z"
    fill="#db89df" />
  <path
    d="M65.8447 71.3943C66.5303 71.0329 66.8408 71.3232 66.5304 72.0329L63.9722 77.9444C63.6652 78.6571 62.7783 79.2433 62.0018 79.2472L52.1957 79.3057C51.4192 79.3097 51.3482 79.0191 52.0338 78.6576L65.8447 71.3943Z"
    fill="#db89df" />
  <path
    d="M68.8479 70.9185C69.1549 70.2058 70.0286 69.4974 70.7904 69.3453L74.2121 68.655C74.974 68.503 75.1231 68.8022 74.55 69.3257L67.3286 75.8891C66.7554 76.4127 66.5363 76.2532 66.8468 75.5435L68.8479 70.9185Z"
    fill="#db89df" />
  <path
    d="M48.1543 81.7296C48.1615 81.3311 48.8037 81.0044 49.5802 81.0005L53.9899 80.9742C54.7664 80.9702 54.7796 81.0924 54.0211 81.2475L49.5246 82.1654C48.7631 82.3239 48.1471 82.128 48.1543 81.7296Z"
    fill="#db89df" />
  <path
    d="M69.934 31.8605C70.034 31.0913 70.4279 31.0145 70.8049 31.6896L79.1448 46.502C79.5252 47.1801 79.2021 47.719 78.4245 47.7036L69.324 47.529C68.5465 47.5136 67.9933 46.8709 68.0933 46.1016L69.934 31.8605Z"
    fill="#db89df" />
  <path
    d="M49.3804 18.5822C49.3959 17.8046 49.9576 17.4856 50.6328 17.8756L66.3319 26.9229C67.0037 27.3098 66.951 27.8208 66.21 28.0591L50.4373 33.136C49.6964 33.3743 49.109 32.9341 49.1214 32.16L49.3804 18.5822Z"
    fill="#db89df" />
  <path
    d="M76.9854 30.5009C77.74 30.6859 78.43 31.4634 78.5209 32.2319L79.804 43.1356C79.8949 43.904 79.6566 43.9851 79.2762 43.3071L71.9768 30.3467C71.5964 29.6686 71.9012 29.2667 72.6557 29.4516L76.9854 30.5009Z"
    fill="#db89df" />
  <path
    d="M63.2026 17.2247C63.9778 17.2564 64.8438 17.8786 65.123 18.6011L67.4538 24.6087C67.7331 25.3312 67.4117 25.6078 66.7399 25.2209L53.2198 17.4256C52.548 17.0387 52.6292 16.7494 53.4078 16.7841L63.2026 17.2247Z"
    fill="#db89df" />
  <path
    d="M75.3583 27.6324C75.9126 28.1779 75.7475 28.4718 74.993 28.2868L71.6013 27.4641C70.8468 27.2792 70.0002 26.5394 69.721 25.8169L67.8991 21.1179C67.6199 20.3954 67.8417 20.2505 68.3956 20.7895L75.3583 27.6324Z"
    fill="#db89df" />
  <path
    d="M49.4603 14.2119C49.4675 13.8134 50.0925 13.643 50.847 13.828L55.3052 14.9188C56.0598 15.1037 56.0407 15.2277 55.2651 15.1896L50.8593 14.9924C50.0841 14.9607 49.4562 14.6069 49.4603 14.2119Z"
    fill="#db89df" />
  <path
    d="M25.7753 30.8226C26.1824 30.1626 26.5726 30.2544 26.641 31.0273L27.9265 45.3258C27.995 46.0988 27.4173 46.7164 26.6432 46.7041L17.5427 46.5294C16.7651 46.5141 16.4628 45.9611 16.8699 45.3011L25.7753 30.8226Z"
    fill="#db89df" />
  <path
    d="M46.4793 17.7941C47.1649 17.4327 47.7143 17.7713 47.6989 18.5489L47.4334 32.1271C47.4179 32.9047 46.8095 33.3169 46.08 33.0561L30.5143 27.3737C29.7844 27.1065 29.7529 26.5936 30.4385 26.2322L46.4793 17.7941Z"
    fill="#db89df" />
  <path
    d="M18.0475 31.0675C18.1704 30.3001 18.8863 29.5487 19.6512 29.3932L24.017 28.5117C24.7789 28.3597 25.0669 28.771 24.6633 29.434L16.8622 42.104C16.4552 42.764 16.2206 42.6766 16.3403 41.9127L18.0475 31.0675Z"
    fill="#db89df" />
  <path
    d="M31.9642 17.9665C32.2712 17.2537 33.1581 16.6676 33.9346 16.6636L43.7407 16.6052C44.5172 16.6012 44.5882 16.8918 43.9026 17.2532L30.0887 24.5199C29.403 24.8813 29.0895 24.5944 29.403 23.8813L31.9642 17.9665Z"
    fill="#db89df" />
  <path
    d="M28.6084 20.0285C29.1815 19.505 29.4007 19.6645 29.0902 20.3742L27.0922 24.9958C26.7851 25.7085 25.9081 26.4139 25.1496 26.569L21.728 27.2592C20.9661 27.4113 20.8169 27.1121 21.3901 26.5885L28.6084 20.0285Z"
    fill="#db89df" />
  <path
    d="M46.415 13.7421C47.1735 13.587 47.7895 13.7829 47.7853 14.1779C47.7781 14.5764 47.1359 14.9031 46.3594 14.9071L41.9497 14.9333C41.1732 14.9373 41.16 14.8151 41.9215 14.6566L46.415 13.7421Z"
    fill="#db89df" />
  <path
    d="M29.4446 50.5013C29.5446 49.732 30.1388 49.4727 30.7659 49.93L44.7383 60.0629C45.3655 60.5202 45.2768 61.085 44.5359 61.3233L28.6742 66.431C27.9333 66.6692 27.4142 66.2351 27.5109 65.4627L29.4446 50.5013Z"
    fill="#db89df" />
  <path
    d="M26.6095 48.3854C27.387 48.4008 27.9402 49.0435 27.8402 49.8127L26.0025 64.0504C25.9025 64.8197 25.5086 64.8965 25.1317 64.2214L16.7918 49.4089C16.4114 48.7308 16.7345 48.192 17.512 48.2074L26.6095 48.3854Z"
    fill="#db89df" />
  <path
    d="M45.5057 62.7746C46.2467 62.5363 46.8374 62.9795 46.8216 63.7506L46.5596 77.3318C46.5441 78.1094 45.9854 78.425 45.3102 78.035L29.6111 68.9877C28.9393 68.6008 28.9921 68.0898 29.733 67.8515L45.5057 62.7746Z"
    fill="#db89df" />
  <path
    d="M23.9597 65.5646C24.3401 66.2426 24.0353 66.6446 23.2808 66.4596L18.9511 65.4103C18.1965 65.2253 17.5065 64.4478 17.4156 63.6793L16.1325 52.7756C16.0416 52.0072 16.2799 51.9261 16.6603 52.6041L23.9597 65.5646Z"
    fill="#db89df" />
  <path
    d="M42.7199 78.4821C43.3917 78.869 43.3105 79.1583 42.5319 79.1236L32.7341 78.6864C31.9619 78.6513 31.0959 78.0291 30.8136 77.31L28.4828 71.3024C28.2036 70.5799 28.5249 70.3033 29.1937 70.6936L42.7199 78.4821Z"
    fill="#db89df" />
  <path
    d="M24.3351 68.4466C25.0897 68.6315 25.9363 69.3713 26.2155 70.0938L28.0374 74.7928C28.3166 75.5153 28.0948 75.6602 27.5439 75.1178L20.5816 68.2814C20.0273 67.7359 20.1924 67.442 20.9469 67.6269L24.3351 68.4466Z"
    fill="#db89df" />
  <path
    d="M45.0804 80.915C45.8557 80.9467 46.4836 81.3004 46.4764 81.6989C46.4692 82.0973 45.8442 82.2677 45.0897 82.0828L40.6315 80.992C39.8769 80.807 39.896 80.683 40.6716 80.7212L45.0804 80.915Z"
    fill="#db89df" />
  <path
    d="M81.7453 47.7696C81.3469 47.7624 81.0203 47.1202 81.0163 46.3437L80.9904 41.934C80.9865 41.1575 81.1088 41.1443 81.2672 41.9058L82.1846 46.4023C82.3363 47.1577 82.1404 47.7737 81.7453 47.7696Z"
    fill="#db89df" />
  <path
    d="M14.2252 46.4663C13.8268 46.4592 13.6564 45.8342 13.8414 45.0797L14.9326 40.6213C15.1176 39.8668 15.2416 39.8858 15.2034 40.6614L15.0058 45.0673C14.9741 45.8425 14.6203 46.4704 14.2252 46.4663Z"
    fill="#db89df" />
  <path
    d="M13.7553 49.5118C13.6003 48.7533 13.7962 48.1373 14.1946 48.1445C14.5931 48.1516 14.9197 48.7938 14.9236 49.5703L14.9496 53.9801C14.9535 54.7566 14.8312 54.7698 14.6762 54.0113L13.7553 49.5118Z"
    fill="#db89df" />
  <path
    d="M80.9307 50.8437C80.9659 50.0715 81.3163 49.4406 81.7147 49.4477C82.1132 49.4549 82.2835 50.0798 82.0985 50.8344L81.0073 55.2927C80.8223 56.0473 80.6983 56.0282 80.7365 55.2526L80.9307 50.8437Z"
    fill="#db89df" />
</svg>