<svg width="38" height="38" viewBox="0 0 38 38" fill="none" xmlns="http://www.w3.org/2000/svg">
<g clip-path="url(#clip0_1343_5988)">
<path d="M10.9075 24.3016C10.8011 24.7214 10.4492 24.8284 10.1383 24.5321L3.98498 18.7613C3.66586 18.4649 3.7395 18.0862 4.14045 17.9298L12.7649 14.4641C13.1659 14.2994 13.4032 14.5135 13.2968 14.9333L10.9075 24.3016Z" fill="white"/>
<path d="M5.82608 29.7926C5.49878 30.0807 5.16329 29.9572 5.08965 29.5292L3.40403 20.1444C3.33039 19.7163 3.52677 19.6093 3.83771 19.9057L9.68827 25.4048C10.0074 25.7012 9.99921 26.1786 9.66372 26.4585L5.82608 29.7926Z" fill="white"/>
<path d="M12.8876 12.5871C13.174 12.9164 13.0758 13.3198 12.6667 13.4844L4.09133 16.9255C3.69038 17.0901 3.48582 16.8843 3.6331 16.481L7.1598 6.95626C7.30709 6.54465 7.66713 6.48702 7.94533 6.81631L12.8876 12.5871Z" fill="white"/>
<path d="M3.90313 28.1955C3.97677 28.6236 3.85403 28.673 3.61674 28.3108L0.286417 23.1409C0.0491219 22.7787 0.0736697 22.1942 0.32733 21.8402L1.81656 19.8398C2.07841 19.494 2.34843 19.5599 2.43026 19.988L3.90313 28.1955Z" fill="white"/>
<path d="M2.84759 15.8964C2.7003 16.308 2.463 16.2997 2.3239 15.8881L1.18652 12.4553C1.04741 12.0437 1.20288 11.4674 1.522 11.1711L5.57239 7.47479C5.89151 7.17843 6.03062 7.27721 5.88333 7.68883L2.84759 15.8964Z" fill="white"/>
<path d="M1.78384 17.2217C1.92294 17.6333 1.82475 18.259 1.56291 18.6047L0.392798 20.1771C0.130955 20.5229 -0.0408796 20.457 3.33916e-05 20.0207L0.564633 14.5709C0.605546 14.1346 0.761015 14.1182 0.891937 14.538L1.78384 17.2217Z" fill="white"/>
<path d="M6.35791 4.95574C6.50519 5.12038 6.35791 5.49906 6.03879 5.79542L4.21407 7.4501C3.89494 7.74646 3.84585 7.69707 4.09951 7.34308L5.62966 5.27679C5.88332 4.93104 6.21062 4.78286 6.35791 4.95574Z" fill="white"/>
<path d="M17.8544 33.9416C17.6335 34.3203 17.2571 34.3285 17.0116 33.9745L12.2494 27.0018C12.0039 26.6396 12.1593 26.3103 12.5848 26.2691L22.1585 25.273C22.5922 25.2319 22.764 25.4953 22.5431 25.874L17.8544 33.9416Z" fill="white"/>
<path d="M15.8579 33.9498C16.1034 34.312 15.9643 34.4849 15.5551 34.345L6.587 31.2743C6.17787 31.1344 6.1124 30.7886 6.43971 30.5005L10.2855 27.1664C10.6128 26.8783 11.0792 26.9442 11.3247 27.2982L15.8579 33.9498Z" fill="white"/>
<path d="M22.3631 23.6511C22.6494 23.9804 22.5267 24.285 22.093 24.3344L12.3803 25.3469C11.9466 25.3881 11.6848 25.0835 11.7911 24.6637L14.2214 15.1472C14.3277 14.7274 14.6469 14.6533 14.9333 14.9826L22.3631 23.6511Z" fill="white"/>
<path d="M29.3428 31.8011C29.6292 32.1304 29.5065 32.4761 29.0892 32.5667L19.1964 34.6577C18.7709 34.7482 18.6073 34.5095 18.82 34.139L23.4841 26.1126C23.705 25.7339 24.1141 25.701 24.3924 26.0303L29.3428 31.8011Z" fill="white"/>
<path d="M13.4359 37.1604C13.0513 37.3662 12.4785 37.3004 12.1512 37.0122L7.56897 32.929C7.24167 32.6409 7.31531 32.5174 7.72444 32.6574L15.5797 35.3411C15.9889 35.481 16.0134 35.7609 15.6288 35.9667L13.4359 37.1604Z" fill="white"/>
<path d="M24.106 37.5472C23.7705 37.8189 23.1813 37.8847 22.7968 37.6871L19.5892 36.0489C19.2046 35.8514 19.2373 35.6126 19.6546 35.5303L28.1727 33.7274C28.5982 33.6369 28.6719 33.7933 28.3364 34.065L24.106 37.5472Z" fill="white"/>
<path d="M15.1788 37.7447C14.7451 37.7283 14.7042 37.5389 15.0888 37.3331L16.8071 36.4111C17.1917 36.2053 17.8136 36.1971 18.1981 36.3946L20.702 37.6789C21.0866 37.8764 21.0457 38.0246 20.6202 37.9999L15.1788 37.7447Z" fill="white"/>
<path d="M30.9303 33.6617C31.0775 33.8264 30.8812 34.1392 30.4966 34.3368L28.2382 35.5469C27.8536 35.7527 27.8209 35.6951 28.1564 35.4152L30.0629 33.8511C30.3984 33.5794 30.7912 33.4971 30.9303 33.6617Z" fill="white"/>
<path d="M25.2271 23.5442C24.8261 23.7088 24.5807 23.4948 24.6952 23.0749L27.0927 13.6984C27.1991 13.2786 27.5509 13.1715 27.8619 13.4679L34.0152 19.2387C34.3343 19.5351 34.2607 19.9137 33.8597 20.0701L25.2271 23.5442Z" fill="white"/>
<path d="M34.5961 17.8557C34.6697 18.2837 34.4734 18.3907 34.1624 18.0944L28.3037 12.5953C27.9845 12.2989 27.9927 11.8214 28.3282 11.5415L32.174 8.20747C32.5013 7.91934 32.8368 8.04283 32.9105 8.4709L34.5961 17.8557Z" fill="white"/>
<path d="M30.8403 31.0438C30.693 31.4554 30.333 31.513 30.0547 31.1837L25.1125 25.4129C24.8261 25.0836 24.9243 24.6802 25.3334 24.5156L33.9088 21.0745C34.3097 20.9099 34.5143 21.1157 34.367 21.5191L30.8403 31.0438Z" fill="white"/>
<path d="M37.7137 14.8592C37.951 15.2214 37.9264 15.8059 37.6728 16.1599L36.1835 18.1604C35.9217 18.5061 35.6517 18.4403 35.5698 18.0122L34.097 9.79641C34.0233 9.36833 34.1461 9.31894 34.3834 9.68115L37.7137 14.8592Z" fill="white"/>
<path d="M36.8054 25.5445C36.9445 25.9561 36.789 26.5324 36.4699 26.8288L32.4195 30.525C32.1004 30.8132 31.9613 30.7226 32.1086 30.311L35.1443 22.1035C35.2916 21.6918 35.5289 21.7001 35.668 22.1117L36.8054 25.5445Z" fill="white"/>
<path d="M37.4354 23.4289C37.3945 23.8652 37.2391 23.8817 37.1081 23.4619L36.2162 20.7782C36.0771 20.3665 36.1753 19.7409 36.4372 19.3951L37.5991 17.8228C37.8609 17.477 38.0328 17.5429 37.9919 17.9792L37.4354 23.4289Z" fill="white"/>
<path d="M32.3786 32.7149C32.1167 33.0606 31.7894 33.2088 31.6503 33.0441C31.503 32.8795 31.6503 32.5008 31.9695 32.2045L33.7942 30.5415C34.1133 30.2452 34.1624 30.2946 33.9087 30.6486L32.3786 32.7149Z" fill="white"/>
<path d="M25.7507 11.0066C25.9961 11.3688 25.8407 11.6981 25.4152 11.7393L15.8415 12.7354C15.4078 12.7765 15.236 12.5131 15.4569 12.1344L20.1456 4.06682C20.3665 3.68814 20.7429 3.67991 20.9884 4.03389L25.7507 11.0066Z" fill="white"/>
<path d="M27.7144 10.8255C27.3871 11.1136 26.9207 11.0477 26.6752 10.6938L22.142 4.05858C21.8966 3.69636 22.0357 3.52348 22.4448 3.66343L31.4211 6.73405C31.8302 6.874 31.8957 7.21975 31.5684 7.50788L27.7144 10.8255Z" fill="white"/>
<path d="M23.7787 22.8692C23.6723 23.289 23.3532 23.3631 23.0668 23.0338L15.637 14.357C15.3506 14.0277 15.4734 13.7232 15.9071 13.6738L25.6198 12.6612C26.0535 12.62 26.3153 12.9246 26.209 13.3445L23.7787 22.8692Z" fill="white"/>
<path d="M14.5078 11.8873C14.2869 12.266 13.8778 12.2989 13.5995 11.9696L8.65725 6.19881C8.37086 5.86952 8.4936 5.52377 8.91092 5.43321L18.7955 3.34222C19.221 3.25167 19.3846 3.4904 19.1719 3.86085L14.5078 11.8873Z" fill="white"/>
<path d="M22.4202 2.65083C22.0111 2.51088 21.9866 2.23099 22.3711 2.02518L24.5641 0.839739C24.9487 0.633933 25.5214 0.699791 25.8488 0.98792L30.4392 5.06288C30.7665 5.351 30.6929 5.47449 30.2837 5.33454L22.4202 2.65083Z" fill="white"/>
<path d="M9.82735 4.28087C9.40186 4.37143 9.32821 4.21501 9.6637 3.94335L13.8941 0.461113C14.2296 0.189449 14.8187 0.123591 15.2033 0.321165L18.4109 1.95115C18.7955 2.14872 18.7628 2.37922 18.3454 2.46978L9.82735 4.28087Z" fill="white"/>
<path d="M21.193 1.58883C20.8084 1.79463 20.1865 1.80287 19.8019 1.60529L17.2981 0.321065C16.9135 0.123491 16.9544 -0.0246894 17.3799 7.34581e-06L22.8131 0.255207C23.2468 0.271671 23.2877 0.461013 22.9031 0.666818L21.193 1.58883Z" fill="white"/>
<path d="M7.9371 4.14085C7.60162 4.41251 7.20885 4.50307 7.06975 4.33842C6.92246 4.17378 7.11884 3.86095 7.50342 3.66338L9.76182 2.45324C10.1464 2.24743 10.1791 2.30506 9.84365 2.58496L7.9371 4.14085Z" fill="white"/>
<path d="M5.04056 31.7188C5.20421 31.5706 5.58061 31.7188 5.87519 32.0399L7.52807 33.8756C7.82264 34.1967 7.77355 34.2461 7.4217 33.9909L5.36786 32.4515C5.01601 32.1963 4.86873 31.867 5.04056 31.7188Z" fill="white"/>
<path d="M33.5733 6.98923C33.737 6.84105 34.0479 7.03863 34.2443 7.42554L35.4472 9.69764C35.6517 10.0846 35.5944 10.1175 35.3162 9.77996L33.7615 7.86185C33.4915 7.53256 33.4097 7.13741 33.5733 6.98923Z" fill="white"/>
<path d="M32.6322 5.54019C32.9759 5.80362 33.1232 6.13291 32.9595 6.27286C32.7959 6.4128 32.4195 6.27286 32.1249 5.9518L30.472 4.11601C30.1774 3.79495 30.2265 3.74556 30.5784 4.00076L32.6322 5.54019Z" fill="white"/>
<path d="M4.2304 30.1301C4.50042 30.4676 4.59043 30.8627 4.42678 31.0027C4.26313 31.1509 3.95219 30.9533 3.7558 30.5664L2.55296 28.2943C2.3484 27.9074 2.40567 27.8744 2.68388 28.212L4.2304 30.1301Z" fill="white"/>
</g>
<defs>
<clipPath id="clip0_1343_5988">
<rect width="38" height="38" fill="white"/>
</clipPath>
</defs>
</svg>
