<svg width="73" height="73" viewBox="0 0 73 73" fill="none" xmlns="http://www.w3.org/2000/svg">
<path d="M67.6293 32.6977C66.3701 32.6977 65.3481 31.6757 65.3481 30.4164C65.3481 21.6807 61.9479 13.4714 55.7731 7.29372C54.882 6.4026 54.882 4.95789 55.7731 4.06677C56.6642 3.17566 58.1089 3.17566 59.0006 4.06677C66.0359 11.1049 69.9106 20.4644 69.9106 30.4164C69.9106 31.6757 68.8886 32.6977 67.6293 32.6977V32.6977Z" fill="#15F9FF"/>
<path d="M5.27539 32.6978C4.01614 32.6978 2.99414 31.6758 2.99414 30.4166C2.99414 20.4645 6.86937 11.105 13.9075 4.0697C14.7986 3.17859 16.2439 3.17859 17.135 4.0697C18.0261 4.96082 18.0261 6.40609 17.135 7.2972C10.9574 13.4715 7.55664 21.6809 7.55664 30.4166C7.55664 31.6758 6.53465 32.6978 5.27539 32.6978Z" fill="#15F9FF"/>
<path d="M36.4526 73C30.1625 73 25.0464 67.8839 25.0464 61.5938C25.0464 60.3345 26.0684 59.3125 27.3276 59.3125C28.5869 59.3125 29.6089 60.3345 29.6089 61.5938C29.6089 65.3687 32.6777 68.4375 36.4526 68.4375C40.2271 68.4375 43.2964 65.3687 43.2964 61.5938C43.2964 60.3345 44.3184 59.3125 45.5776 59.3125C46.8369 59.3125 47.8589 60.3345 47.8589 61.5938C47.8589 67.8839 42.7428 73 36.4526 73V73Z" fill="#15F9FF"/>
<path d="M61.5464 63.875H11.3589C8.42327 63.875 6.03564 61.4874 6.03564 58.5523C6.03564 56.9945 6.714 55.5197 7.89751 54.5066C12.5235 50.598 15.1606 44.9166 15.1606 38.8971V30.4165C15.1606 18.6761 24.7117 9.125 36.4527 9.125C48.1931 9.125 57.7442 18.6761 57.7442 30.4165V38.8971C57.7442 44.9166 60.3813 50.598 64.9772 54.4855C66.1908 55.5197 66.8692 56.9945 66.8692 58.5523C66.8692 61.4874 64.4815 63.875 61.5464 63.875V63.875ZM36.4527 13.6875C27.2269 13.6875 19.7231 21.1912 19.7231 30.4165V38.8971C19.7231 46.2605 16.4962 53.2139 10.8722 57.968C10.7658 58.0594 10.5981 58.2482 10.5981 58.5523C10.5981 58.9655 10.9451 59.3125 11.3589 59.3125H61.5464C61.9597 59.3125 62.3067 58.9655 62.3067 58.5523C62.3067 58.2482 62.1396 58.0594 62.0388 57.9742C56.4086 53.2139 53.1817 46.2605 53.1817 38.8971V30.4165C53.1817 21.1912 45.6779 13.6875 36.4527 13.6875V13.6875Z" fill="#15F9FF"/>
<path d="M36.4526 13.6875C35.1934 13.6875 34.1714 12.6655 34.1714 11.4062V2.28125C34.1714 1.022 35.1934 0 36.4526 0C37.7119 0 38.7339 1.022 38.7339 2.28125V11.4062C38.7339 12.6655 37.7119 13.6875 36.4526 13.6875Z" fill="#15F9FF"/>
</svg>
