<svg xmlns="http://www.w3.org/2000/svg" width="51.212" height="38.197" viewBox="0 0 51.212 38.197"><defs><style>.a{fill:#08e4f4;opacity:0.75;}</style></defs><g transform="translate(-0.001 -0.367)"><path class="a" d="M3.1,32.416H36.567A3.054,3.054,0,0,0,39.133,27.7L22.4,1.765a3.054,3.054,0,0,0-5.132,0L.5,27.7a3.054,3.054,0,0,0,2.6,4.721Z"/><path class="a" d="M18.408,40.345H51.246a3.419,3.419,0,0,0,2.876-5.271L37.75,9.693a3.047,3.047,0,0,0-5.132,0L15.858,35.631a3.054,3.054,0,0,0,2.55,4.713Z" transform="translate(-3.454 -1.781)"/></g></svg>