<?xml version="1.0" encoding="utf-8"?>
<!-- Generator: Adobe Illustrator 27.9.0, SVG Export Plug-In . SVG Version: 6.00 Build 0)  -->
<svg version="1.1" id="Layer_1" xmlns="http://www.w3.org/2000/svg" xmlns:xlink="http://www.w3.org/1999/xlink" x="0px" y="0px"
	 viewBox="0 0 512 512" style="enable-background:new 0 0 512 512;" xml:space="preserve">
<style type="text/css">
	.st0{fill:#03FCF5;}
</style>
<g>
	<path class="st0" d="M315.3,426.7H208.6c-38.4,0-110.9-19.4-110.9-93s72.5-93,110.9-93h94.7c3.2,0,78.9-1.1,78.9-61
		s-75.7-61-78.9-61H196.7c-4.2,0-8.3-1.7-11.3-4.7c-3-3-4.7-7.1-4.7-11.3c0-4.2,1.7-8.3,4.7-11.3s7.1-4.7,11.3-4.7h106.7
		c38.4,0,110.9,19.4,110.9,93s-72.5,93-110.9,93h-94.7c-3.2,0-78.9,1.1-78.9,61s75.7,61,78.9,61h106.7c4.2,0,8.3,1.7,11.3,4.7
		c3,3,4.7,7.1,4.7,11.3c0,4.2-1.7,8.3-4.7,11.3C323.6,425,319.5,426.7,315.3,426.7L315.3,426.7z"/>
	<path class="st0" d="M137.4,177.3c-14.9-0.1-29.4-4.7-41.7-13c-12.3-8.4-21.9-20.2-27.5-33.9c-5.6-13.8-7-28.9-4-43.5
		C67.2,72.3,74.4,59,85,48.5c10.6-10.5,24-17.6,38.6-20.4c14.6-2.9,29.7-1.3,43.4,4.4c13.7,5.7,25.4,15.4,33.7,27.7
		c8.2,12.4,12.6,26.9,12.6,41.8c0,9.9-2,19.8-5.8,29c-3.8,9.2-9.4,17.5-16.5,24.5c-7.1,7-15.4,12.5-24.6,16.3
		C157.2,175.5,147.3,177.4,137.4,177.3L137.4,177.3z M137.4,58.7c-8.4,0-16.7,2.5-23.7,7.2c-7,4.7-12.5,11.4-15.7,19.1
		c-3.2,7.8-4.1,16.4-2.4,24.7c1.6,8.3,5.7,15.9,11.7,21.8c6,6,13.6,10,21.8,11.7c8.3,1.6,16.9,0.8,24.7-2.4
		c7.8-3.2,14.5-8.7,19.1-15.7c4.7-7,7.2-15.3,7.2-23.7c0-5.6-1.1-11.2-3.2-16.3c-2.1-5.2-5.3-9.9-9.2-13.8c-4-4-8.7-7.1-13.8-9.2
		C148.5,59.8,143,58.7,137.4,58.7z"/>
	<path class="st0" d="M374.6,485.3c-14.9,0-29.5-4.3-41.9-12.6c-12.4-8.2-22.1-20-27.8-33.8c-5.7-13.8-7.3-28.9-4.4-43.5
		c2.9-14.6,10-28.1,20.6-38.6c10.5-10.6,23.9-17.7,38.6-20.7c14.6-2.9,29.8-1.4,43.5,4.2c13.8,5.7,25.5,15.3,33.8,27.7
		c8.3,12.4,12.7,27,12.7,41.9c0,19.9-7.9,39.1-22,53.2C413.6,477.3,394.5,485.3,374.6,485.3L374.6,485.3z M374.6,366.7
		c-8.4,0-16.7,2.5-23.7,7.2c-7,4.7-12.5,11.4-15.7,19.1c-3.2,7.8-4.1,16.4-2.4,24.7c1.6,8.3,5.7,15.9,11.7,21.8s13.6,10,21.8,11.7
		c8.3,1.6,16.9,0.8,24.7-2.4c7.8-3.2,14.5-8.7,19.1-15.7c4.7-7,7.2-15.3,7.2-23.7c0-11.3-4.5-22.2-12.5-30.2
		C396.8,371.2,385.9,366.7,374.6,366.7L374.6,366.7z"/>
</g>
</svg>
