<svg xmlns="http://www.w3.org/2000/svg" width="42.173" height="42.171" viewBox="0 0 42.173 42.171"><defs><style>.a{fill:#03fcf5;}</style></defs><g transform="translate(0 -0.011)"><g transform="translate(0 0.011)"><g transform="translate(0 0)"><path class="a" d="M270.936,405.323H256.879a.879.879,0,1,0,0,1.757h14.058a.879.879,0,1,0,0-1.757Z" transform="translate(-234.914 -371.938)"/><path class="a" d="M270.936,447.989H256.879a.879.879,0,1,0,0,1.757h14.058a.879.879,0,1,0,0-1.757Z" transform="translate(-234.914 -411.09)"/><path class="a" d="M45.3,405.323a2.636,2.636,0,1,0,2.636,2.636A2.639,2.639,0,0,0,45.3,405.323Zm0,3.514a.879.879,0,1,1,.879-.879A.879.879,0,0,1,45.3,408.837Z" transform="translate(-39.153 -371.938)"/><path class="a" d="M45.3,277.323a2.636,2.636,0,1,0,2.636,2.636A2.639,2.639,0,0,0,45.3,277.323Zm0,3.514a.879.879,0,1,1,.879-.879A.879.879,0,0,1,45.3,280.837Z" transform="translate(-39.153 -254.481)"/><path class="a" d="M270.936,191.989H256.879a.879.879,0,1,0,0,1.757h14.058a.879.879,0,1,0,0-1.757Z" transform="translate(-234.914 -176.176)"/><path class="a" d="M42.173,16.7V13.188a4.355,4.355,0,0,0-.666-2.3c-.012-.025-.014-.053-.028-.076L36.046,2.083A4.367,4.367,0,0,0,32.315.011H9.863A4.365,4.365,0,0,0,6.133,2.083L.7,10.816c-.009.014-.009.03-.018.046A4.358,4.358,0,0,0,0,13.188V16.7a4.377,4.377,0,0,0,1.785,3.514A4.379,4.379,0,0,0,0,23.731v3.514A4.377,4.377,0,0,0,1.785,30.76,4.379,4.379,0,0,0,0,34.275v3.514a4.4,4.4,0,0,0,4.393,4.393H37.78a4.4,4.4,0,0,0,4.393-4.393V34.275a4.377,4.377,0,0,0-1.785-3.514,4.376,4.376,0,0,0,1.785-3.514V23.731a4.377,4.377,0,0,0-1.785-3.514A4.374,4.374,0,0,0,42.173,16.7ZM7.624,3.011A2.617,2.617,0,0,1,9.861,1.766H32.313A2.617,2.617,0,0,1,34.55,3.011l3.625,5.825c-.132-.012-.26-.04-.4-.04H4.393c-.135,0-.262.028-.394.04ZM40.416,34.275v3.514a2.639,2.639,0,0,1-2.636,2.636H4.393a2.639,2.639,0,0,1-2.636-2.636V34.275a2.639,2.639,0,0,1,2.636-2.636H37.78A2.639,2.639,0,0,1,40.416,34.275Zm0-10.543v3.514a2.639,2.639,0,0,1-2.636,2.636H4.393a2.639,2.639,0,0,1-2.636-2.636V23.731A2.639,2.639,0,0,1,4.393,21.1H37.78A2.639,2.639,0,0,1,40.416,23.731Zm0-7.029a2.639,2.639,0,0,1-2.636,2.636H4.393A2.639,2.639,0,0,1,1.757,16.7V13.188a2.639,2.639,0,0,1,2.636-2.636H37.78a2.639,2.639,0,0,1,2.636,2.636V16.7Z" transform="translate(0 -0.011)"/><path class="a" d="M270.936,149.323H256.879a.879.879,0,0,0,0,1.757h14.058a.879.879,0,1,0,0-1.757Z" transform="translate(-234.914 -137.024)"/><path class="a" d="M270.936,319.989H256.879a.879.879,0,1,0,0,1.757h14.058a.879.879,0,1,0,0-1.757Z" transform="translate(-234.914 -293.633)"/><path class="a" d="M270.936,277.323H256.879a.879.879,0,0,0,0,1.757h14.058a.879.879,0,1,0,0-1.757Z" transform="translate(-234.914 -254.481)"/><path class="a" d="M45.3,149.323a2.636,2.636,0,1,0,2.636,2.636A2.639,2.639,0,0,0,45.3,149.323Zm0,3.514a.879.879,0,1,1,.879-.879A.879.879,0,0,1,45.3,152.837Z" transform="translate(-39.153 -137.024)"/></g></g></g></svg>