<svg xmlns="http://www.w3.org/2000/svg" width="43.047" height="45.154" viewBox="0 0 43.047 45.154">
  <defs>
    <style>.a{opacity:0.12;}.b{fill:#db89df;}.c{fill:#7289b7;}</style>
  </defs>
  <g transform="translate(-530 -710.759)">
    <g transform="translate(530 710.759)">
      <g class="a" transform="translate(0.568 25.397)">
        <path class="b" d="M241.579,697.272v18.92a.323.323,0,0,0,.4.314l41.515-9.857Z"
          transform="translate(-241.579 -697.272)" />
      </g>
      <g transform="translate(0.185 24.875)">
        <g transform="translate(0)">
          <path class="c"
            d="M281.877,703.461l-.029,0-1.255-.276a.133.133,0,1,1,.057-.26l1.255.276a.133.133,0,0,1-.029.263Zm-2.813-.62a.134.134,0,0,1-.029,0l-1.558-.343a.133.133,0,0,1,.057-.26l1.558.343a.133.133,0,0,1-.029.263Zm-3.116-.687a.129.129,0,0,1-.029,0l-1.558-.343a.133.133,0,0,1,.057-.26l1.558.343a.133.133,0,0,1-.029.263Zm-3.116-.686a.144.144,0,0,1-.029,0l-1.558-.343a.133.133,0,1,1,.057-.26l1.558.343a.133.133,0,0,1-.029.263Zm-3.116-.687a.135.135,0,0,1-.029,0l-1.558-.343a.133.133,0,1,1,.057-.26l1.558.343a.133.133,0,0,1-.029.263ZM266.6,700.1a.134.134,0,0,1-.029,0l-1.558-.343a.133.133,0,0,1,.057-.26l1.558.343a.133.133,0,0,1-.029.263Zm-3.116-.686a.136.136,0,0,1-.029,0l-1.558-.343a.133.133,0,0,1,.057-.26l1.558.343a.133.133,0,0,1-.029.263Zm-3.116-.687a.135.135,0,0,1-.029,0l-1.558-.343a.133.133,0,1,1,.057-.26l1.558.343a.133.133,0,0,1-.029.263Zm-3.116-.687a.134.134,0,0,1-.029,0l-1.558-.343a.133.133,0,0,1,.057-.26l1.558.343a.133.133,0,0,1-.029.263Zm-3.116-.686a.135.135,0,0,1-.029,0L252.548,697a.133.133,0,0,1,.057-.26l1.558.343a.133.133,0,0,1-.029.263Zm-3.116-.687a.136.136,0,0,1-.029,0l-1.558-.343a.133.133,0,1,1,.057-.26l1.558.343a.133.133,0,0,1-.029.263Zm-3.116-.687a.135.135,0,0,1-.029,0l-1.558-.343a.133.133,0,1,1,.057-.26l1.558.343a.133.133,0,0,1-.029.263Zm-3.116-.686a.135.135,0,0,1-.029,0l-1.558-.343a.133.133,0,0,1,.057-.26l1.558.343a.133.133,0,0,1-.029.263Zm-3.116-.687a.136.136,0,0,1-.029,0l-1.558-.343a.133.133,0,0,1,.057-.26l1.558.343a.133.133,0,0,1-.029.263Z"
            transform="translate(-239.73 -693.746)" />
          <path class="c"
            d="M279.125,700.962a.387.387,0,0,1-.081-.009l-1.256-.276a.383.383,0,0,1,.161-.748l1.258.277a.383.383,0,0,1-.082.756Zm-2.813-.62a.381.381,0,0,1-.081-.009l-1.559-.343a.383.383,0,0,1,.162-.748l1.561.344a.383.383,0,0,1-.082.756Zm-3.116-.687a.38.38,0,0,1-.083-.009l-1.558-.343a.383.383,0,0,1-.291-.456.384.384,0,0,1,.455-.291l1.559.344a.383.383,0,0,1-.082.756Zm-3.116-.686a.387.387,0,0,1-.081-.009l-1.559-.343a.383.383,0,1,1,.166-.747l1.557.343a.383.383,0,0,1-.082.756Zm-1.583-.612h0Zm-1.533-.075a.391.391,0,0,1-.081-.009l-1.559-.344a.383.383,0,1,1,.165-.747l1.558.343a.383.383,0,0,1-.082.756Zm-3.116-.687a.391.391,0,0,1-.081-.009l-1.559-.344a.382.382,0,0,1-.291-.456.383.383,0,0,1,.45-.292l1.564.345a.383.383,0,0,1-.082.756Zm-3.116-.686a.385.385,0,0,1-.081-.009l-1.559-.344a.383.383,0,0,1-.291-.456.385.385,0,0,1,.454-.292l1.56.344a.383.383,0,0,1-.082.756Zm-3.116-.686a.383.383,0,0,1-.081-.009l-1.559-.343a.383.383,0,0,1-.291-.456.385.385,0,0,1,.454-.292l1.56.344a.383.383,0,0,1-.082.756Zm-3.116-.687a.392.392,0,0,1-.082-.009l-1.558-.343a.383.383,0,0,1,.161-.748l1.561.344a.383.383,0,0,1-.082.756Zm-3.116-.686a.38.38,0,0,1-.081-.009l-1.559-.343a.383.383,0,0,1-.291-.456.384.384,0,0,1,.455-.291l1.559.343a.383.383,0,0,1-.082.756Zm-3.116-.687a.38.38,0,0,1-.081-.009l-1.559-.344a.383.383,0,1,1,.166-.747l1.557.343a.383.383,0,0,1-.082.756Zm-1.583-.612h0Zm-1.533-.075a.38.38,0,0,1-.081-.009l-1.559-.343a.383.383,0,0,1-.291-.456.383.383,0,0,1,.456-.291l1.558.343a.383.383,0,0,1-.082.756Zm-3.116-.686a.387.387,0,0,1-.081-.009l-1.559-.344a.383.383,0,0,1,.16-.748l1.563.344a.383.383,0,0,1-.082.756Zm-3.116-.687a.389.389,0,0,1-.081-.009l-1.559-.344a.383.383,0,0,1-.291-.456.386.386,0,0,1,.452-.292l1.562.344a.383.383,0,0,1-.082.756Z"
            transform="translate(-236.978 -690.998)" />
        </g>
      </g>
      <g transform="translate(0 0)">
        <g transform="translate(0.135 0.135)">
          <g transform="translate(0.166 0.167)">
            <path class="b"
              d="M238.649,440.288a.255.255,0,0,1-.039,0,.265.265,0,0,1-.227-.263V420.693a.267.267,0,0,1,.032-.127l13.4-24.689a.266.266,0,0,1,.488.2L238.9,440.1A.266.266,0,0,1,238.649,440.288Zm.266-19.527v17.475l12.116-39.8Z"
              transform="translate(-238.383 -395.738)" />
          </g>
          <path class="b"
            d="M236.816,438.616a.424.424,0,0,1-.065-.005.429.429,0,0,1-.367-.427V418.854a.434.434,0,0,1,.052-.206l13.4-24.689a.432.432,0,0,1,.794.332l-13.4,44.018A.43.43,0,0,1,236.816,438.616Zm13.4-44.549a.1.1,0,0,0-.087.052l-13.4,24.689a.1.1,0,0,0-.012.047v19.329a.1.1,0,0,0,.084.1h.015a.1.1,0,0,0,.1-.071l13.4-44.018a.1.1,0,0,0-.1-.128Zm-13.3,43.449V418.88l12.92-23.8Zm.333-18.551v16.314l11.311-37.153Z"
            transform="translate(-236.383 -393.732)" />
        </g>
        <g transform="translate(0.166 0.167)">
          <path class="b"
            d="M237.16,438.928a.393.393,0,0,1-.06,0,.4.4,0,0,1-.341-.4V419.2a.4.4,0,0,1,.048-.191l13.4-24.689a.4.4,0,0,1,.736.308l-13.4,44.018A.4.4,0,0,1,237.16,438.928Zm13.4-44.549a.131.131,0,0,0-.115.068l-13.4,24.689a.132.132,0,0,0-.016.062v19.329a.13.13,0,0,0,.111.129l.02,0a.132.132,0,0,0,.125-.093l13.4-44.018a.13.13,0,0,0-.075-.158A.128.128,0,0,0,250.561,394.379Zm-13.271,43.27V419.232l.016-.03,12.753-23.495Zm.27-18.349v16.532l11.462-37.649Z"
            transform="translate(-236.759 -394.108)" />
        </g>
        <path class="b"
          d="M235.327,437.259a.568.568,0,0,1-.568-.567V417.363a.568.568,0,0,1,.069-.27l13.4-24.689a.568.568,0,0,1,1.042.436l-13.4,44.018A.564.564,0,0,1,235.327,437.259Zm.567-19.752v15.372l10.658-35.006Z"
          transform="translate(-234.759 -392.106)" />
      </g>
      <g transform="translate(0 0.001)">
        <g transform="translate(0)">
          <g transform="translate(0.135 0.135)">
            <g transform="translate(0.166 0.166)">
              <path class="b"
                d="M238.649,440.287a.266.266,0,0,1-.255-.343l13.4-44.018a.266.266,0,0,1,.458-.093L280.765,429.9a.266.266,0,0,1-.142.43l-41.912,9.952A.273.273,0,0,1,238.649,440.287Zm13.512-43.736-13.123,43.1,41.043-9.746Z"
                transform="translate(-238.383 -395.737)" />
            </g>
            <path class="b"
              d="M236.816,438.619a.432.432,0,0,1-.414-.558l13.4-44.018a.432.432,0,0,1,.745-.152l28.511,34.066a.435.435,0,0,1,.079.414.429.429,0,0,1-.31.284l-41.912,9.952A.442.442,0,0,1,236.816,438.619Zm13.4-44.55-.02,0a.1.1,0,0,0-.076.069l-13.4,44.018a.1.1,0,0,0,.023.1.094.094,0,0,0,.1.028l41.911-9.952a.1.1,0,0,0,.071-.065.1.1,0,0,0-.018-.1l-28.511-34.066A.1.1,0,0,0,250.218,394.07ZM236.962,438.05l13.3-43.676,28.29,33.8ZM250.4,395.059l-12.949,42.533,40.5-9.617Z"
              transform="translate(-236.384 -393.737)" />
          </g>
          <g transform="translate(0.166 0.166)">
            <path class="b"
              d="M237.161,438.933a.4.4,0,0,1-.384-.518l13.4-44.018a.4.4,0,0,1,.691-.141l28.511,34.066a.4.4,0,0,1,.073.384.4.4,0,0,1-.288.264l-41.912,9.952A.419.419,0,0,1,237.161,438.933Zm13.4-44.55-.026,0a.132.132,0,0,0-.1.09l-13.4,44.018a.131.131,0,0,0,.125.169.14.14,0,0,0,.031,0l41.911-9.952a.131.131,0,0,0,.07-.211L250.662,394.43A.131.131,0,0,0,250.562,394.383Zm-13.21,43.969,13.264-43.569,28.22,33.718Zm13.378-43.012L237.748,437.98l40.6-9.641Z"
              transform="translate(-236.76 -394.112)" />
          </g>
          <path class="b"
            d="M235.328,437.265a.568.568,0,0,1-.543-.732l13.4-44.018a.568.568,0,0,1,.978-.2l28.511,34.066a.57.57,0,0,1,.1.543.563.563,0,0,1-.407.373l-41.912,9.952A.591.591,0,0,1,235.328,437.265Zm13.639-43.417-12.808,42.069,40.057-9.512Z"
            transform="translate(-234.761 -392.112)" />
        </g>
      </g>
    </g>
  </g>
</svg>