<svg width="29" height="40" viewBox="0 0 29 40" fill="none" xmlns="http://www.w3.org/2000/svg">
  <mask id="path-1-outside-1_2288_20598" maskUnits="userSpaceOnUse" x="0" y="0" width="29"
    height="40" fill="black">
    <rect fill="white" width="29" height="40" />
    <path fill-rule="evenodd" clip-rule="evenodd"
      d="M17.3791 25.0347H15.771V37.0551C15.771 37.7455 15.2155 38.305 14.5312 38.305C13.8468 38.305 13.2923 37.7455 13.2923 37.0551V25.0347H11.7214C11.207 25.0347 10.79 24.6177 10.79 24.1033V7.71777C10.79 7.20335 11.207 6.78638 11.7214 6.78638H17.3791C17.8935 6.78638 18.3104 7.20335 18.3104 7.71777V24.1033C18.3104 24.6177 17.8935 25.0347 17.3791 25.0347ZM13.6549 25.0347H15.4084V37.0551C15.4084 37.548 15.0126 37.9424 14.5312 37.9424C14.0501 37.9424 13.6549 37.5483 13.6549 37.0551V25.0347ZM13.6549 6.78626H13.2923V2.24988C13.2923 1.55947 13.8468 1 14.5312 1C14.8734 1 15.1831 1.14034 15.4074 1.3658C15.6319 1.59221 15.771 1.90467 15.771 2.24988V6.78626H15.4084V2.24988C15.4084 2.00414 15.3098 1.78248 15.1502 1.62131C14.9904 1.46085 14.7719 1.36259 14.5312 1.36259C14.0501 1.36259 13.6549 1.75668 13.6549 2.24988V6.78626ZM25.1394 22.8554V33.0046C25.1394 33.4981 24.7439 33.8928 24.2631 33.8928C23.7824 33.8928 23.3868 33.4981 23.3868 33.0046V22.8554H23.0243V33.0046C23.0243 33.695 23.5787 34.2554 24.2631 34.2554C24.9475 34.2554 25.502 33.695 25.502 33.0046V22.8554H25.1394ZM23.0243 9.79172V12.1677H21.4387C20.9242 12.1677 20.5073 12.5948 20.5073 13.1217V21.8739C20.5073 22.4008 20.9242 22.8278 21.4387 22.8278H27.0963C27.6107 22.8278 28.0277 22.4008 28.0277 21.8739V13.1217C28.0277 12.5948 27.6107 12.1677 27.0963 12.1677H25.502V9.79172C25.502 9.44652 25.3629 9.13405 25.1394 8.90765C24.9151 8.68124 24.6053 8.54184 24.2631 8.54184C23.5787 8.54184 23.0243 9.10132 23.0243 9.79172ZM25.1394 9.79172V12.1677H23.3868V9.79172C23.3868 9.29853 23.782 8.90443 24.2631 8.90443C24.5045 8.90443 24.7225 9.00219 24.8816 9.16263C25.0408 9.324 25.1394 9.54593 25.1394 9.79172ZM7.58904 27.3964H1.93139C1.81847 27.3964 1.68479 27.3344 1.56585 27.1711C1.44713 27.0082 1.36259 26.7652 1.36259 26.4806V14.7514C1.36259 14.4668 1.44713 14.2239 1.56585 14.061C1.68479 13.8977 1.81847 13.8356 1.93139 13.8356H7.58904C7.70196 13.8356 7.83564 13.8977 7.95458 14.061C8.07329 14.2239 8.15784 14.4668 8.15784 14.7514V26.4806C8.15784 26.7652 8.07329 27.0082 7.95458 27.1711C7.83564 27.3344 7.70196 27.3964 7.58904 27.3964ZM7.58904 27.759H1.93139C1.41697 27.759 1 27.1867 1 26.4806V14.7514C1 14.0454 1.41697 13.473 1.93139 13.473H3.53788V10.6629C3.53788 9.97254 4.09331 9.41212 4.77769 9.41212C5.11989 9.41212 5.42953 9.55246 5.65396 9.77887C5.87839 10.0053 6.01657 10.3177 6.01657 10.6629V13.473H7.58904C8.10346 13.473 8.52043 14.0454 8.52043 14.7514V26.4806C8.52043 27.1867 8.10346 27.759 7.58904 27.759ZM5.65398 13.473H3.90047V10.6629C3.90047 10.1698 4.29659 9.77471 4.77769 9.77471C5.01842 9.77471 5.23669 9.87296 5.39645 10.0341C5.55574 10.1948 5.65398 10.4164 5.65398 10.6629V13.473ZM21.4387 22.4652H27.0963C27.4024 22.4652 27.6651 22.2087 27.6651 21.8739V13.1217C27.6651 12.7868 27.4024 12.5303 27.0963 12.5303H21.4387C21.1326 12.5303 20.8699 12.7868 20.8699 13.1217V21.8739C20.8699 22.2087 21.1326 22.4652 21.4387 22.4652ZM11.7214 24.6721H17.3791C17.6932 24.6721 17.9479 24.4175 17.9479 24.1033V7.71777C17.9479 7.40361 17.6932 7.14897 17.3791 7.14897H11.7214C11.4072 7.14897 11.1526 7.40361 11.1526 7.71777V24.1033C11.1526 24.4175 11.4072 24.6721 11.7214 24.6721ZM5.65398 27.7797V37.984C5.65398 38.4772 5.2588 38.8713 4.77769 38.8713C4.29623 38.8713 3.90047 38.4768 3.90047 37.984V27.7797H3.53788V37.984C3.53788 38.6744 4.09331 39.2338 4.77769 39.2338C5.46208 39.2338 6.01657 38.6744 6.01657 37.984V27.7797H5.65398Z" />
  </mask>
  <path fill-rule="evenodd" clip-rule="evenodd"
    d="M17.3791 25.0347H15.771V37.0551C15.771 37.7455 15.2155 38.305 14.5312 38.305C13.8468 38.305 13.2923 37.7455 13.2923 37.0551V25.0347H11.7214C11.207 25.0347 10.79 24.6177 10.79 24.1033V7.71777C10.79 7.20335 11.207 6.78638 11.7214 6.78638H17.3791C17.8935 6.78638 18.3104 7.20335 18.3104 7.71777V24.1033C18.3104 24.6177 17.8935 25.0347 17.3791 25.0347ZM13.6549 25.0347H15.4084V37.0551C15.4084 37.548 15.0126 37.9424 14.5312 37.9424C14.0501 37.9424 13.6549 37.5483 13.6549 37.0551V25.0347ZM13.6549 6.78626H13.2923V2.24988C13.2923 1.55947 13.8468 1 14.5312 1C14.8734 1 15.1831 1.14034 15.4074 1.3658C15.6319 1.59221 15.771 1.90467 15.771 2.24988V6.78626H15.4084V2.24988C15.4084 2.00414 15.3098 1.78248 15.1502 1.62131C14.9904 1.46085 14.7719 1.36259 14.5312 1.36259C14.0501 1.36259 13.6549 1.75668 13.6549 2.24988V6.78626ZM25.1394 22.8554V33.0046C25.1394 33.4981 24.7439 33.8928 24.2631 33.8928C23.7824 33.8928 23.3868 33.4981 23.3868 33.0046V22.8554H23.0243V33.0046C23.0243 33.695 23.5787 34.2554 24.2631 34.2554C24.9475 34.2554 25.502 33.695 25.502 33.0046V22.8554H25.1394ZM23.0243 9.79172V12.1677H21.4387C20.9242 12.1677 20.5073 12.5948 20.5073 13.1217V21.8739C20.5073 22.4008 20.9242 22.8278 21.4387 22.8278H27.0963C27.6107 22.8278 28.0277 22.4008 28.0277 21.8739V13.1217C28.0277 12.5948 27.6107 12.1677 27.0963 12.1677H25.502V9.79172C25.502 9.44652 25.3629 9.13405 25.1394 8.90765C24.9151 8.68124 24.6053 8.54184 24.2631 8.54184C23.5787 8.54184 23.0243 9.10132 23.0243 9.79172ZM25.1394 9.79172V12.1677H23.3868V9.79172C23.3868 9.29853 23.782 8.90443 24.2631 8.90443C24.5045 8.90443 24.7225 9.00219 24.8816 9.16263C25.0408 9.324 25.1394 9.54593 25.1394 9.79172ZM7.58904 27.3964H1.93139C1.81847 27.3964 1.68479 27.3344 1.56585 27.1711C1.44713 27.0082 1.36259 26.7652 1.36259 26.4806V14.7514C1.36259 14.4668 1.44713 14.2239 1.56585 14.061C1.68479 13.8977 1.81847 13.8356 1.93139 13.8356H7.58904C7.70196 13.8356 7.83564 13.8977 7.95458 14.061C8.07329 14.2239 8.15784 14.4668 8.15784 14.7514V26.4806C8.15784 26.7652 8.07329 27.0082 7.95458 27.1711C7.83564 27.3344 7.70196 27.3964 7.58904 27.3964ZM7.58904 27.759H1.93139C1.41697 27.759 1 27.1867 1 26.4806V14.7514C1 14.0454 1.41697 13.473 1.93139 13.473H3.53788V10.6629C3.53788 9.97254 4.09331 9.41212 4.77769 9.41212C5.11989 9.41212 5.42953 9.55246 5.65396 9.77887C5.87839 10.0053 6.01657 10.3177 6.01657 10.6629V13.473H7.58904C8.10346 13.473 8.52043 14.0454 8.52043 14.7514V26.4806C8.52043 27.1867 8.10346 27.759 7.58904 27.759ZM5.65398 13.473H3.90047V10.6629C3.90047 10.1698 4.29659 9.77471 4.77769 9.77471C5.01842 9.77471 5.23669 9.87296 5.39645 10.0341C5.55574 10.1948 5.65398 10.4164 5.65398 10.6629V13.473ZM21.4387 22.4652H27.0963C27.4024 22.4652 27.6651 22.2087 27.6651 21.8739V13.1217C27.6651 12.7868 27.4024 12.5303 27.0963 12.5303H21.4387C21.1326 12.5303 20.8699 12.7868 20.8699 13.1217V21.8739C20.8699 22.2087 21.1326 22.4652 21.4387 22.4652ZM11.7214 24.6721H17.3791C17.6932 24.6721 17.9479 24.4175 17.9479 24.1033V7.71777C17.9479 7.40361 17.6932 7.14897 17.3791 7.14897H11.7214C11.4072 7.14897 11.1526 7.40361 11.1526 7.71777V24.1033C11.1526 24.4175 11.4072 24.6721 11.7214 24.6721ZM5.65398 27.7797V37.984C5.65398 38.4772 5.2588 38.8713 4.77769 38.8713C4.29623 38.8713 3.90047 38.4768 3.90047 37.984V27.7797H3.53788V37.984C3.53788 38.6744 4.09331 39.2338 4.77769 39.2338C5.46208 39.2338 6.01657 38.6744 6.01657 37.984V27.7797H5.65398Z"
    fill="#db89df" />
  <path
    d="M15.771 25.0347V24.7347H15.471V25.0347H15.771ZM13.2923 25.0347H13.5923V24.7347H13.2923V25.0347ZM15.4084 25.0347H15.7084V24.7347H15.4084V25.0347ZM13.6549 25.0347V24.7347H13.3549V25.0347H13.6549ZM13.2923 6.78626H12.9923V7.08626H13.2923V6.78626ZM13.6549 6.78626V7.08626H13.9549V6.78626H13.6549ZM15.4074 1.3658L15.6205 1.1546L15.6201 1.1542L15.4074 1.3658ZM15.771 6.78626V7.08626H16.071V6.78626H15.771ZM15.4084 6.78626H15.1084V7.08626H15.4084V6.78626ZM15.1502 1.62131L15.3633 1.41019L15.3627 1.40963L15.1502 1.62131ZM25.1394 22.8554V22.5554H24.8394V22.8554H25.1394ZM23.3868 22.8554H23.6868V22.5554H23.3868V22.8554ZM23.0243 22.8554V22.5554H22.7243V22.8554H23.0243ZM25.502 22.8554H25.802V22.5554H25.502V22.8554ZM23.0243 12.1677V12.4677H23.3243V12.1677H23.0243ZM25.502 12.1677H25.202V12.4677H25.502V12.1677ZM25.1394 8.90765L25.3529 8.69689L25.3525 8.69649L25.1394 8.90765ZM25.1394 12.1677V12.4677H25.4394V12.1677H25.1394ZM23.3868 12.1677H23.0868V12.4677H23.3868V12.1677ZM24.8816 9.16263L25.0952 8.95197L25.0946 8.9514L24.8816 9.16263ZM1.56585 27.1711L1.32337 27.3478L1.32338 27.3478L1.56585 27.1711ZM1.56585 14.061L1.80832 14.2376L1.80832 14.2376L1.56585 14.061ZM7.95458 14.061L7.71211 14.2376L7.71211 14.2376L7.95458 14.061ZM7.95458 27.1711L8.19705 27.3478L8.19705 27.3478L7.95458 27.1711ZM3.53788 13.473V13.773H3.83788V13.473H3.53788ZM5.65396 9.77887L5.86702 9.56767L5.86702 9.56767L5.65396 9.77887ZM6.01657 13.473H5.71657V13.773H6.01657V13.473ZM5.65398 13.473V13.773H5.95398V13.473H5.65398ZM3.90047 13.473H3.60047V13.773H3.90047V13.473ZM5.39645 10.0341L5.18339 10.2453L5.18339 10.2453L5.39645 10.0341ZM5.65398 27.7797V27.4797H5.35398V27.7797H5.65398ZM3.90047 27.7797H4.20047V27.4797H3.90047V27.7797ZM3.53788 27.7797V27.4797H3.23788V27.7797H3.53788ZM6.01657 27.7797H6.31657V27.4797H6.01657V27.7797ZM15.771 25.3347H17.3791V24.7347H15.771V25.3347ZM16.071 37.0551V25.0347H15.471V37.0551H16.071ZM14.5312 38.605C15.3834 38.605 16.071 37.909 16.071 37.0551H15.471C15.471 37.5821 15.0477 38.005 14.5312 38.005V38.605ZM12.9923 37.0551C12.9923 37.9087 13.6786 38.605 14.5312 38.605V38.005C14.015 38.005 13.5923 37.5824 13.5923 37.0551H12.9923ZM12.9923 25.0347V37.0551H13.5923V25.0347H12.9923ZM11.7214 25.3347H13.2923V24.7347H11.7214V25.3347ZM10.49 24.1033C10.49 24.7834 11.0413 25.3347 11.7214 25.3347V24.7347C11.3727 24.7347 11.09 24.452 11.09 24.1033H10.49ZM10.49 7.71777V24.1033H11.09V7.71777H10.49ZM11.7214 6.48638C11.0413 6.48638 10.49 7.03767 10.49 7.71777H11.09C11.09 7.36904 11.3727 7.08638 11.7214 7.08638V6.48638ZM17.3791 6.48638H11.7214V7.08638H17.3791V6.48638ZM18.6104 7.71777C18.6104 7.03767 18.0592 6.48638 17.3791 6.48638V7.08638C17.7278 7.08638 18.0104 7.36904 18.0104 7.71777H18.6104ZM18.6104 24.1033V7.71777H18.0104V24.1033H18.6104ZM17.3791 25.3347C18.0592 25.3347 18.6104 24.7834 18.6104 24.1033H18.0104C18.0104 24.452 17.7278 24.7347 17.3791 24.7347V25.3347ZM15.4084 24.7347H13.6549V25.3347H15.4084V24.7347ZM15.7084 37.0551V25.0347H15.1084V37.0551H15.7084ZM14.5312 38.2424C15.1802 38.2424 15.7084 37.7117 15.7084 37.0551H15.1084C15.1084 37.3842 14.845 37.6424 14.5312 37.6424V38.2424ZM13.3549 37.0551C13.3549 37.7118 13.8822 38.2424 14.5312 38.2424V37.6424C14.2179 37.6424 13.9549 37.3848 13.9549 37.0551H13.3549ZM13.3549 25.0347V37.0551H13.9549V25.0347H13.3549ZM13.2923 7.08626H13.6549V6.48626H13.2923V7.08626ZM12.9923 2.24988V6.78626H13.5923V2.24988H12.9923ZM14.5312 0.7C13.6786 0.7 12.9923 1.3963 12.9923 2.24988H13.5923C13.5923 1.72264 14.015 1.3 14.5312 1.3V0.7ZM15.6201 1.1542C15.3424 0.875073 14.9572 0.7 14.5312 0.7V1.3C14.7895 1.3 15.0238 1.4056 15.1948 1.5774L15.6201 1.1542ZM16.071 2.24988C16.071 1.82248 15.8984 1.43496 15.6205 1.1546L15.1944 1.577C15.3653 1.74945 15.471 1.98687 15.471 2.24988H16.071ZM16.071 6.78626V2.24988H15.471V6.78626H16.071ZM15.4084 7.08626H15.771V6.48626H15.4084V7.08626ZM15.1084 2.24988V6.78626H15.7084V2.24988H15.1084ZM14.937 1.83243C15.0432 1.9396 15.1084 2.08622 15.1084 2.24988H15.7084C15.7084 1.92206 15.5764 1.62537 15.3633 1.41019L14.937 1.83243ZM14.5312 1.66259C14.6882 1.66259 14.8313 1.72622 14.9376 1.83299L15.3627 1.40963C15.1495 1.19547 14.8556 1.06259 14.5312 1.06259V1.66259ZM13.9549 2.24988C13.9549 1.92017 14.2179 1.66259 14.5312 1.66259V1.06259C13.8822 1.06259 13.3549 1.5932 13.3549 2.24988H13.9549ZM13.9549 6.78626V2.24988H13.3549V6.78626H13.9549ZM25.4394 33.0046V22.8554H24.8394V33.0046H25.4394ZM24.2631 34.1928C24.912 34.1928 25.4394 33.6613 25.4394 33.0046H24.8394C24.8394 33.3349 24.5757 33.5928 24.2631 33.5928V34.1928ZM23.0868 33.0046C23.0868 33.6613 23.6142 34.1928 24.2631 34.1928V33.5928C23.9505 33.5928 23.6868 33.3349 23.6868 33.0046H23.0868ZM23.0868 22.8554V33.0046H23.6868V22.8554H23.0868ZM23.0243 23.1554H23.3868V22.5554H23.0243V23.1554ZM23.3243 33.0046V22.8554H22.7243V33.0046H23.3243ZM24.2631 33.9554C23.7472 33.9554 23.3243 33.5321 23.3243 33.0046H22.7243C22.7243 33.8578 23.4103 34.5554 24.2631 34.5554V33.9554ZM25.202 33.0046C25.202 33.5321 24.779 33.9554 24.2631 33.9554V34.5554C25.116 34.5554 25.802 33.8578 25.802 33.0046H25.202ZM25.202 22.8554V33.0046H25.802V22.8554H25.202ZM25.1394 23.1554H25.502V22.5554H25.1394V23.1554ZM23.3243 12.1677V9.79172H22.7243V12.1677H23.3243ZM21.4387 12.4677H23.0243V11.8677H21.4387V12.4677ZM20.8073 13.1217C20.8073 12.7537 21.0967 12.4677 21.4387 12.4677V11.8677C20.7518 11.8677 20.2073 12.4359 20.2073 13.1217H20.8073ZM20.8073 21.8739V13.1217H20.2073V21.8739H20.8073ZM21.4387 22.5278C21.0967 22.5278 20.8073 22.2419 20.8073 21.8739H20.2073C20.2073 22.5596 20.7518 23.1278 21.4387 23.1278V22.5278ZM27.0963 22.5278H21.4387V23.1278H27.0963V22.5278ZM27.7277 21.8739C27.7277 22.2419 27.4383 22.5278 27.0963 22.5278V23.1278C27.7831 23.1278 28.3277 22.5596 28.3277 21.8739H27.7277ZM27.7277 13.1217V21.8739H28.3277V13.1217H27.7277ZM27.0963 12.4677C27.4383 12.4677 27.7277 12.7537 27.7277 13.1217H28.3277C28.3277 12.4359 27.7831 11.8677 27.0963 11.8677V12.4677ZM25.502 12.4677H27.0963V11.8677H25.502V12.4677ZM25.202 9.79172V12.1677H25.802V9.79172H25.202ZM24.9259 9.1184C25.0963 9.29101 25.202 9.52866 25.202 9.79172H25.802C25.802 9.36438 25.6295 8.97709 25.3529 8.69689L24.9259 9.1184ZM24.2631 8.84184C24.522 8.84184 24.7559 8.94687 24.9263 9.1188L25.3525 8.69649C25.0742 8.41562 24.6887 8.24184 24.2631 8.24184V8.84184ZM23.3243 9.79172C23.3243 9.26449 23.7469 8.84184 24.2631 8.84184V8.24184C23.4106 8.24184 22.7243 8.93815 22.7243 9.79172H23.3243ZM25.4394 12.1677V9.79172H24.8394V12.1677H25.4394ZM23.3868 12.4677H25.1394V11.8677H23.3868V12.4677ZM23.0868 9.79172V12.1677H23.6868V9.79172H23.0868ZM24.2631 8.60443C23.6141 8.60443 23.0868 9.13505 23.0868 9.79172H23.6868C23.6868 9.46201 23.9499 9.20443 24.2631 9.20443V8.60443ZM25.0946 8.9514C24.8815 8.73647 24.5877 8.60443 24.2631 8.60443V9.20443C24.4213 9.20443 24.5635 9.26791 24.6686 9.37386L25.0946 8.9514ZM25.4394 9.79172C25.4394 9.46391 25.3075 9.16718 25.0952 8.95197L24.668 9.3733C24.7741 9.48082 24.8394 9.62794 24.8394 9.79172H25.4394ZM1.93139 27.6964H7.58904V27.0964H1.93139V27.6964ZM1.32338 27.3478C1.4844 27.5688 1.70052 27.6964 1.93139 27.6964V27.0964C1.93098 27.0964 1.92058 27.0965 1.90057 27.085C1.88008 27.0732 1.84706 27.0476 1.80832 26.9944L1.32338 27.3478ZM1.06259 26.4806C1.06259 26.8219 1.16348 27.1283 1.32337 27.3478L1.80832 26.9944C1.73079 26.888 1.66259 26.7085 1.66259 26.4806H1.06259ZM1.06259 14.7514V26.4806H1.66259V14.7514H1.06259ZM1.32337 13.8843C1.16347 14.1038 1.06259 14.4101 1.06259 14.7514H1.66259C1.66259 14.5236 1.73079 14.344 1.80832 14.2376L1.32337 13.8843ZM1.93139 13.5356C1.70052 13.5356 1.4844 13.6633 1.32337 13.8843L1.80832 14.2376C1.84707 14.1844 1.88008 14.1589 1.90057 14.1471C1.92058 14.1355 1.93098 14.1356 1.93139 14.1356V13.5356ZM7.58904 13.5356H1.93139V14.1356H7.58904V13.5356ZM8.19705 13.8843C8.03603 13.6633 7.81991 13.5356 7.58904 13.5356V14.1356C7.58945 14.1356 7.59985 14.1355 7.61986 14.1471C7.64035 14.1589 7.67336 14.1844 7.71211 14.2376L8.19705 13.8843ZM8.45784 14.7514C8.45784 14.4101 8.35695 14.1038 8.19705 13.8843L7.71211 14.2376C7.78963 14.344 7.85784 14.5236 7.85784 14.7514H8.45784ZM8.45784 26.4806V14.7514H7.85784V26.4806H8.45784ZM8.19705 27.3478C8.35695 27.1283 8.45784 26.8219 8.45784 26.4806H7.85784C7.85784 26.7085 7.78963 26.888 7.71211 26.9944L8.19705 27.3478ZM7.58904 27.6964C7.81991 27.6964 8.03603 27.5688 8.19705 27.3478L7.71211 26.9944C7.67336 27.0476 7.64035 27.0732 7.61986 27.085C7.59985 27.0965 7.58945 27.0964 7.58904 27.0964V27.6964ZM1.93139 28.059H7.58904V27.459H1.93139V28.059ZM0.7 26.4806C0.7 26.8903 0.82054 27.2733 1.03032 27.5613C1.2399 27.8489 1.5548 28.059 1.93139 28.059V27.459C1.79356 27.459 1.64277 27.383 1.51526 27.208C1.38795 27.0332 1.3 26.777 1.3 26.4806H0.7ZM0.7 14.7514V26.4806H1.3V14.7514H0.7ZM1.93139 13.173C1.5548 13.173 1.2399 13.3831 1.03032 13.6708C0.82054 13.9587 0.7 14.3418 0.7 14.7514H1.3C1.3 14.455 1.38795 14.1989 1.51526 14.0241C1.64277 13.8491 1.79356 13.773 1.93139 13.773V13.173ZM3.53788 13.173H1.93139V13.773H3.53788V13.173ZM3.23788 10.6629V13.473H3.83788V10.6629H3.23788ZM4.77769 9.11212C3.92512 9.11212 3.23788 9.80937 3.23788 10.6629H3.83788C3.83788 10.1357 4.2615 9.71212 4.77769 9.71212V9.11212ZM5.86702 9.56767C5.58909 9.28729 5.20384 9.11212 4.77769 9.11212V9.71212C5.03594 9.71212 5.26998 9.81764 5.4409 9.99007L5.86702 9.56767ZM6.31657 10.6629C6.31657 10.2361 6.14535 9.84844 5.86702 9.56767L5.4409 9.99007C5.61144 10.1621 5.71657 10.3994 5.71657 10.6629H6.31657ZM6.31657 13.473V10.6629H5.71657V13.473H6.31657ZM7.58904 13.173H6.01657V13.773H7.58904V13.173ZM8.82043 14.7514C8.82043 14.3418 8.69989 13.9587 8.49011 13.6708C8.28053 13.3831 7.96563 13.173 7.58904 13.173V13.773C7.72686 13.773 7.87766 13.8491 8.00517 14.0241C8.13248 14.1989 8.22043 14.455 8.22043 14.7514H8.82043ZM8.82043 26.4806V14.7514H8.22043V26.4806H8.82043ZM7.58904 28.059C7.96563 28.059 8.28053 27.8489 8.49011 27.5613C8.69989 27.2733 8.82043 26.8903 8.82043 26.4806H8.22043C8.22043 26.777 8.13248 27.0332 8.00517 27.208C7.87766 27.383 7.72686 27.459 7.58904 27.459V28.059ZM5.65398 13.173H3.90047V13.773H5.65398V13.173ZM4.20047 13.473V10.6629H3.60047V13.473H4.20047ZM4.20047 10.6629C4.20047 10.3332 4.46446 10.0747 4.77769 10.0747V9.47471C4.12871 9.47471 3.60047 10.0063 3.60047 10.6629H4.20047ZM4.77769 10.0747C4.93457 10.0747 5.07722 10.1382 5.18339 10.2453L5.60951 9.82293C5.39617 9.60771 5.10227 9.47471 4.77769 9.47471V10.0747ZM5.18339 10.2453C5.28874 10.3516 5.35398 10.498 5.35398 10.6629H5.95398C5.95398 10.3348 5.82274 10.038 5.60951 9.82293L5.18339 10.2453ZM5.35398 10.6629V13.473H5.95398V10.6629H5.35398ZM27.0963 22.1652H21.4387V22.7652H27.0963V22.1652ZM27.3651 21.8739C27.3651 22.0486 27.2312 22.1652 27.0963 22.1652V22.7652C27.5735 22.7652 27.9651 22.3689 27.9651 21.8739H27.3651ZM27.3651 13.1217V21.8739H27.9651V13.1217H27.3651ZM27.0963 12.8303C27.2312 12.8303 27.3651 12.947 27.3651 13.1217H27.9651C27.9651 12.6266 27.5735 12.2303 27.0963 12.2303V12.8303ZM21.4387 12.8303H27.0963V12.2303H21.4387V12.8303ZM21.1699 13.1217C21.1699 12.947 21.3038 12.8303 21.4387 12.8303V12.2303C20.9615 12.2303 20.5699 12.6266 20.5699 13.1217H21.1699ZM21.1699 21.8739V13.1217H20.5699V21.8739H21.1699ZM21.4387 22.1652C21.3038 22.1652 21.1699 22.0486 21.1699 21.8739H20.5699C20.5699 22.3689 20.9615 22.7652 21.4387 22.7652V22.1652ZM17.3791 24.3721H11.7214V24.9721H17.3791V24.3721ZM17.6479 24.1033C17.6479 24.2518 17.5275 24.3721 17.3791 24.3721V24.9721C17.8589 24.9721 18.2479 24.5832 18.2479 24.1033H17.6479ZM17.6479 7.71777V24.1033H18.2479V7.71777H17.6479ZM17.3791 7.44897C17.5275 7.44897 17.6479 7.56929 17.6479 7.71777H18.2479C18.2479 7.23792 17.8589 6.84897 17.3791 6.84897V7.44897ZM11.7214 7.44897H17.3791V6.84897H11.7214V7.44897ZM11.4526 7.71777C11.4526 7.56929 11.5729 7.44897 11.7214 7.44897V6.84897C11.2416 6.84897 10.8526 7.23792 10.8526 7.71777H11.4526ZM11.4526 24.1033V7.71777H10.8526V24.1033H11.4526ZM11.7214 24.3721C11.5729 24.3721 11.4526 24.2518 11.4526 24.1033H10.8526C10.8526 24.5832 11.2416 24.9721 11.7214 24.9721V24.3721ZM5.95398 37.984V27.7797H5.35398V37.984H5.95398ZM4.77769 39.1713C5.42668 39.1713 5.95398 38.6406 5.95398 37.984H5.35398C5.35398 38.3137 5.09092 38.5713 4.77769 38.5713V39.1713ZM3.60047 37.984C3.60047 38.6406 4.12861 39.1713 4.77769 39.1713V38.5713C4.46385 38.5713 4.20047 38.3131 4.20047 37.984H3.60047ZM3.60047 27.7797V37.984H4.20047V27.7797H3.60047ZM3.53788 28.0797H3.90047V27.4797H3.53788V28.0797ZM3.83788 37.984V27.7797H3.23788V37.984H3.83788ZM4.77769 38.9338C4.2612 38.9338 3.83788 38.5109 3.83788 37.984H3.23788C3.23788 38.8378 3.92541 39.5338 4.77769 39.5338V38.9338ZM5.71657 37.984C5.71657 38.5112 5.29389 38.9338 4.77769 38.9338V39.5338C5.63027 39.5338 6.31657 38.8375 6.31657 37.984H5.71657ZM5.71657 27.7797V37.984H6.31657V27.7797H5.71657ZM5.65398 28.0797H6.01657V27.4797H5.65398V28.0797Z"
    fill="#db89df" mask="url(#path-1-outside-1_2288_20598)" />
</svg>