<svg xmlns="http://www.w3.org/2000/svg" width="43.018" height="40.329" viewBox="0 0 43.018 40.329"><defs><style>.a{fill:#03fcf5;}</style></defs><g transform="translate(0 -16)"><g transform="translate(13.443 16)"><g transform="translate(0 0)"><path class="a" d="M174.787,16C167.62,16,160,18.355,160,22.722V28.1a1.344,1.344,0,0,0,2.689,0V26.7c2.853,1.8,7.563,2.745,12.1,2.745s9.246-.946,12.1-2.745v1.4c0,1.315-3.307,3.412-9.523,3.931a1.344,1.344,0,0,0,.11,2.683c.04,0,.075,0,.116-.005a21.543,21.543,0,0,0,9.3-2.67v1.438c0,1.148-2.436,2.8-6.955,3.6a1.344,1.344,0,0,0,.231,2.667,1.174,1.174,0,0,0,.237-.022,17.958,17.958,0,0,0,6.488-2.269v1.4c0,1.148-2.436,2.8-6.955,3.6a1.344,1.344,0,0,0,.231,2.667,1.174,1.174,0,0,0,.237-.022,18.009,18.009,0,0,0,6.488-2.269v1.4c0,1.148-2.436,2.8-6.955,3.6a1.344,1.344,0,0,0,.231,2.667,1.175,1.175,0,0,0,.237-.022,18.009,18.009,0,0,0,6.488-2.269v1.4c0,1.315-3.307,3.412-9.523,3.931a1.344,1.344,0,0,0,.11,2.683c.04,0,.075,0,.116-.005,5.966-.5,11.986-2.734,11.986-6.609V22.722C189.575,18.355,181.955,16,174.787,16Zm0,10.754c-7.386,0-12.1-2.39-12.1-4.033s4.713-4.033,12.1-4.033,12.1,2.39,12.1,4.033S182.173,26.754,174.787,26.754Z" transform="translate(-160 -16)"/></g></g><g transform="translate(0 32.132)"><path class="a" d="M14.787,208C7.62,208,0,210.355,0,214.722v10.754c0,4.366,7.62,6.722,14.787,6.722s14.787-2.355,14.787-6.722V214.722C29.575,210.355,21.955,208,14.787,208Zm12.1,17.476c0,1.643-4.713,4.033-12.1,4.033s-12.1-2.39-12.1-4.033v-1.4c2.853,1.8,7.563,2.745,12.1,2.745s9.246-.946,12.1-2.745Zm0-5.377c0,1.643-4.713,4.033-12.1,4.033s-12.1-2.39-12.1-4.033v-1.4c2.853,1.8,7.563,2.745,12.1,2.745s9.246-.946,12.1-2.745Zm-12.1-1.344c-7.386,0-12.1-2.39-12.1-4.033s4.713-4.033,12.1-4.033,12.1,2.39,12.1,4.033S22.173,218.754,14.787,218.754Z" transform="translate(0 -208)"/></g></g></svg>