<svg xmlns="http://www.w3.org/2000/svg" width="36.515" height="43.202" viewBox="0 0 36.515 43.202">
  <defs>
    <style>.a{fill:#db89df;}</style>
  </defs>
  <g transform="translate(-29.728 0)">
    <g transform="translate(29.728 0)">
      <g transform="translate(0 0)">
        <path class="a"
          d="M66.081,4.843a.9.9,0,0,0-1.206-.756,17.6,17.6,0,0,1-6.046,1.161A12.524,12.524,0,0,1,48.725.4a.9.9,0,0,0-1.494,0,12.677,12.677,0,0,1-10.1,4.859A17.6,17.6,0,0,1,31.081,4.1a.9.9,0,0,0-1.206.756c0,.315-2.978,31.176,17.815,38.3a.9.9,0,0,0,.585,0C69.059,35.992,66.117,5.149,66.081,4.843Zm-18.1,36.493c-16.96-6.073-16.69-29.691-16.393-35.18a18.713,18.713,0,0,0,5.542.9A14.5,14.5,0,0,0,47.978,2.324,14.5,14.5,0,0,0,58.829,7.047a18.72,18.72,0,0,0,5.542-.9C64.668,11.636,64.938,35.263,47.978,41.336Z"
          transform="translate(-29.728 0)" />
      </g>
    </g>
    <g transform="translate(34.781 6.067)">
      <g transform="translate(0)">
        <path class="a"
          d="M100.919,57.628a.957.957,0,0,0-1.251-.783,12.175,12.175,0,0,1-4.184.8,8.6,8.6,0,0,1-6.919-3.311.9.9,0,0,0-1.485-.009,8.6,8.6,0,0,1-6.928,3.32,12.172,12.172,0,0,1-4.148-.774.9.9,0,0,0-1.206.756c-.09.9-2.132,22.241,12.767,27.343a.9.9,0,0,0,.585,0C103.042,79.869,101.009,58.536,100.919,57.628ZM87.855,83.135C76.446,78.969,76.32,63.26,76.518,58.905a13.309,13.309,0,0,0,3.671.54,10.527,10.527,0,0,0,7.666-3.212,10.527,10.527,0,0,0,7.666,3.212,13.309,13.309,0,0,0,3.671-.54C99.389,63.26,99.264,78.969,87.855,83.135Z"
          transform="translate(-74.658 -53.939)" />
      </g>
    </g>
  </g>
</svg>