<svg xmlns="http://www.w3.org/2000/svg" xmlns:xlink="http://www.w3.org/1999/xlink" width="146.307" height="36.346" viewBox="0 0 146.307 36.346"><defs><style>.a{fill:#fff;}.b{fill:#d53127;}.c{fill:#f47320;}.d{fill:url(#a);}</style><linearGradient id="a" x1="0.921" y1="1.36" x2="0.24" y2="0.111" gradientUnits="objectBoundingBox"><stop offset="0.41" stop-color="#f47320"/><stop offset="0.5" stop-color="#f16d21"/><stop offset="0.62" stop-color="#e95c22"/><stop offset="0.75" stop-color="#dc4125"/><stop offset="0.81" stop-color="#d53127"/></linearGradient></defs><g transform="translate(36.404 14.348)"><path class="a" d="M1165.268-233.442c.683-2.494,1.338-4.846,1.966-7.2a7.263,7.263,0,0,0,.461-2.385,3.059,3.059,0,0,0-.931-2.157,2.152,2.152,0,0,0-2.784.457,11.78,11.78,0,0,0-1.863,3.279c-.78,2.315-1.357,4.7-1.957,7.073a1.068,1.068,0,0,1-1.293.954c-1.161-.062-2.328-.016-3.64-.016.77-2.84,1.5-5.532,2.231-8.223.623-2.287,1.306-4.561,1.853-6.866.229-.961.665-1.227,1.609-1.186,1.172.051,2.294.054,2.887,1.362,2.773-1.482,5.484-2.182,7.822.2,1.935-.507,3.731-1.125,5.579-1.431,3.222-.533,5.418,1.335,5.5,4.581a12.535,12.535,0,0,1-.361,3.225c-.605,2.492-1.349,4.95-1.984,7.436-.175.684-.467.954-1.19.921-1.2-.056-2.411-.015-3.785-.015.686-2.526,1.341-4.912,1.979-7.3a13.586,13.586,0,0,0,.478-2.158c.087-.9.05-1.932-.925-2.317a2.342,2.342,0,0,0-2.817.478,10.978,10.978,0,0,0-1.843,3.161c-.779,2.317-1.37,4.7-1.945,7.081a1.169,1.169,0,0,1-1.432,1.074C1167.754-233.494,1166.62-233.442,1165.268-233.442Z" transform="translate(-1089.388 254.977)"/><path class="a" d="M879.387-271.57c.135-.071.169-.1.2-.1,3.175-.25,4.736.22,3.415,4.031-.237.683-.364,1.4-.478,1.85a21.82,21.82,0,0,1,4.739-.576c2.253.206,3.423,1.63,3.686,3.865.446,3.8-1.467,9.586-6.39,11.562a9.132,9.132,0,0,1-6.855.146,4.362,4.362,0,0,1-2.449-5.343c.844-3.59,1.872-7.137,2.828-10.7C878.518-268.444,878.967-270.044,879.387-271.57Zm.71,15.4c.224.354.5,1.346,1.02,1.488a3.651,3.651,0,0,0,2.618-.306c1.56-.962,2.015-2.693,2.331-4.4a2.4,2.4,0,0,0-.788-2.629c-.744-.523-2.27-.165-3.116.6C880.72-260.126,880.395-258.385,880.1-256.175Z" transform="translate(-875.101 271.814)"/><path class="a" d="M1282.157-265.212c1.864-.823,3.521-1.448,5.379-.947a4,4,0,0,1,2.977,2.977c1.793,6.32-3.746,13.324-10.321,13.058-4.028-.163-5.981-2.52-5.032-6.422,1.156-4.755,2.551-9.452,3.811-14.182a.88.88,0,0,1,1.071-.776c.349.03.7,0,1.055.007,1.755.047,2.47.973,2.043,2.692C1282.854-267.654,1282.516-266.517,1282.157-265.212Zm1.616,2.945a11.978,11.978,0,0,0-1.838,1.029c-1.329,1.075-1.667,2.656-1.945,4.229a2.228,2.228,0,0,0,.8,2.5,2.774,2.774,0,0,0,3.011-.55,6.688,6.688,0,0,0,2.064-5.124C1285.88-261.537,1285.231-262.06,1283.774-262.268Z" transform="translate(-1180.951 271.646)"/><path class="a" d="M1022.941-250.235c.689-2.545,1.361-4.971,2-7.406a6.765,6.765,0,0,0,.4-2.275c-.073-.733-.351-1.767-.879-2.06a2.191,2.191,0,0,0-2.793.434,9.92,9.92,0,0,0-1.76,2.941c-.819,2.466-1.449,5-2.107,7.512-.167.637-.43.9-1.114.868-1.2-.054-2.414-.015-3.793-.015l5.85-21.418c.8,0,1.571-.052,2.332.012a1.783,1.783,0,0,1,1.677,2.293c-.284,1.276-.647,2.535-.986,3.845,1.123-.319,2.129-.694,3.169-.884a4.153,4.153,0,0,1,5.206,3.715,15.777,15.777,0,0,1-.4,4.712c-.478,2.275-1.223,4.493-1.793,6.75-.183.724-.473,1.036-1.26.993C1025.483-250.284,1024.273-250.235,1022.941-250.235Z" transform="translate(-980.502 271.77)"/><path class="a" d="M1092.671-247.829h4.71c-.323,1.217-.62,2.359-.928,3.5-.488,1.8-1,3.6-1.469,5.4-.255.986-.511,2.019.616,2.7a2.968,2.968,0,0,0,3.453-.5,6.512,6.512,0,0,0,1.295-2.29c.792-2.6,1.492-5.227,2.152-7.862a1.114,1.114,0,0,1,1.365-1.01c1.126.069,2.259.017,3.6.017-.266.957-.5,1.793-.732,2.631-.624,2.287-1.272,4.567-1.86,6.863-1.485,5.793-8.637,8.092-12.59,6.079a3.871,3.871,0,0,1-2.393-3.309,8.206,8.206,0,0,1,.2-2.538C1090.9-241.378,1091.8-244.59,1092.671-247.829Z" transform="translate(-1039.388 253.581)"/><path class="a" d="M981.314-265.127h2.807c-.2,2.324-1.075,3.27-3.279,3.7-.233.045-.587.185-.635.353-.712,2.49-1.381,4.993-2.107,7.661l2.643.224c-.3,1.127-.558,2.2-.885,3.245a.784.784,0,0,1-.6.4,40.312,40.312,0,0,1-4.446-.112c-1.594-.176-2.129-1.04-1.724-2.623.752-2.938,1.561-5.861,2.358-8.787.786-2.886,1.618-5.759,2.359-8.656.192-.75.5-1.075,1.265-.967a5.276,5.276,0,0,0,.7.006c2.141.011,2.786.861,2.237,2.955C981.793-266.908,981.571-266.09,981.314-265.127Z" transform="translate(-949.956 271.033)"/><path class="a" d="M939.747-231.667c.775-2.875,1.519-5.643,2.266-8.409.538-1.99,1.1-3.973,1.611-5.969.18-.7.495-.948,1.273-1,3.461-.219,3.6,1.2,2.861,3.65-1.052,3.5-1.985,7.035-2.881,10.577a1.289,1.289,0,0,1-1.6,1.168C942.15-231.731,941.014-231.667,939.747-231.667Z" transform="translate(-924.553 252.945)"/><path class="a" d="M962.392-267.327a1.644,1.644,0,0,1-1.829-1.779,3.229,3.229,0,0,1,3.042-2.978,1.661,1.661,0,0,1,1.9,1.728A3.245,3.245,0,0,1,962.392-267.327Z" transform="translate(-940.477 272.084)"/></g><g transform="translate(0 0)"><path class="b" d="M1.719,37.83H6.893L2.87,47.669A3.06,3.06,0,0,1,.124,45.8a2.92,2.92,0,0,1-.043-1.686Z" transform="translate(0.023 -29.174)"/><path class="c" d="M24.114,8.867l-6.579-.114,1.48-4.883A3,3,0,0,0,16.16,0h-6L3.291,24.655S.831,35.2,10.156,36.153c0,0,14.741,3.014,19.47-14.8C29.626,21.356,32.122,10.583,24.114,8.867Zm-4.5,12.228s-.263,4.549-3.7,5.348a2.224,2.224,0,0,1-1.512-.156,2.053,2.053,0,0,1-1.08-2.039,3.849,3.849,0,0,1,.165-1.018L14.762,18.5h3.46A2.345,2.345,0,0,1,19.617,21.095Z" transform="translate(-2.306 0)"/><path class="d" d="M69.412,45.888c-.629-7.238-5.828-7.524-5.828-7.524l-6.579-.114-2.826,9.8h3.451c.634.034,1.789,1.08,1.414,2.931" transform="translate(-41.777 -29.498)"/></g></svg>