<svg xmlns="http://www.w3.org/2000/svg" xmlns:xlink="http://www.w3.org/1999/xlink" width="148.97" height="43.709" viewBox="0 0 148.97 43.709"><defs><style>.a{fill:#fff;}.b{fill:url(#a);}</style><linearGradient id="a" y1="0.5" x2="1" y2="0.5" gradientUnits="objectBoundingBox"><stop offset="0" stop-color="#00eba0"/><stop offset="1" stop-color="#006eff"/></linearGradient></defs><g transform="translate(41.484 25.928)"><path class="a" d="M157.663,475.807c0,3.028-2.467,5.007-5.52,5.007h-7.181v-17.1h6.692c2.979,0,5.4,1.929,5.4,4.885a4.277,4.277,0,0,1-1.49,3.346A4.415,4.415,0,0,1,157.663,475.807Zm-8.793-8.426v3.028h2.784a1.514,1.514,0,0,0,0-3.028Zm4.885,8.133a1.545,1.545,0,0,0-1.612-1.636H148.87v3.272h3.273A1.545,1.545,0,0,0,153.755,475.514Z" transform="translate(-144.962 -463.376)"/><path class="a" d="M167.659,463.718v17.1h-3.908v-17.1Z" transform="translate(-149.097 -463.376)"/><path class="a" d="M183.654,467.479h-4.4v13.336H175.35V467.479h-4.4v-3.761h12.7Z" transform="translate(-150.683 -463.376)"/><path class="a" d="M189.242,476.834l3.371-1.954a3.58,3.58,0,0,0,3.59,2.369c1.856,0,2.32-.732,2.32-1.392,0-1.051-.976-1.465-3.542-2.174-2.539-.708-5.031-1.929-5.031-5.2,0-3.3,2.784-5.2,5.74-5.2a6.631,6.631,0,0,1,6.253,3.859l-3.3,1.93a3,3,0,0,0-2.955-1.979c-1.221,0-1.832.611-1.832,1.295,0,.781.415,1.319,3.078,2.125,2.589.781,5.5,1.685,5.5,5.3,0,3.3-2.638,5.251-6.35,5.251C192.49,481.059,190.2,479.35,189.242,476.834Z" transform="translate(-154.708 -463.279)"/><path class="a" d="M207.562,472.169a8.89,8.89,0,1,1,8.89,8.89A8.814,8.814,0,0,1,207.562,472.169Zm13.872,0a4.983,4.983,0,1,0-4.982,5.08A4.863,4.863,0,0,0,221.434,472.169Z" transform="translate(-158.74 -463.279)"/><path class="a" d="M246.61,463.718v17.1h-2.931l-6.594-9.281v9.281h-3.908v-17.1h2.931L242.7,473v-9.281Z" transform="translate(-164.377 -463.376)"/><path class="a" d="M258.066,463.718v17.1h-3.908v-17.1Z" transform="translate(-168.995 -463.376)"/><path class="a" d="M261.987,472.169a8.667,8.667,0,0,1,8.89-8.89,8.526,8.526,0,0,1,7.327,3.957l-3.37,1.954a4.421,4.421,0,0,0-3.957-2.1,5.081,5.081,0,0,0,0,10.161,4.393,4.393,0,0,0,3.957-2.1l3.37,1.954a8.466,8.466,0,0,1-7.327,3.957A8.667,8.667,0,0,1,261.987,472.169Z" transform="translate(-170.718 -463.279)"/></g><g transform="translate(0)"><path class="b" d="M120.953,431.668a17.479,17.479,0,0,0-3.981-.462c-.084,0-.167,0-.251.006L99.537,448.4h0l-4.1,4.1c0,.084-.006.167-.006.251a17.479,17.479,0,0,0,.462,3.981l20.961-20.961h0Z" transform="translate(-92.577 -430.292)"/><path class="b" d="M134.8,442.779l-4.1,4.1h0L107,470.575a17.346,17.346,0,0,0,3.29,1.4l21.8-21.8,4.1-4.1A17.348,17.348,0,0,0,134.8,442.779Z" transform="translate(-95.124 -432.839)"/><path class="b" d="M126.565,442.872l-4.1,4.1h0l-24.65,24.65a17.561,17.561,0,0,0,2.638,2.05l4.1-4.1,19.96-19.96,4.1-4.1A17.474,17.474,0,0,0,126.565,442.872Z" transform="translate(-93.102 -432.859)"/><path class="b" d="M131.7,430.034,107.638,454.1h0l-4.1,4.1a17.528,17.528,0,0,0,2.05,2.638l4.1-4.1h0l24.65-24.649A17.517,17.517,0,0,0,131.7,430.034Z" transform="translate(-94.361 -430.034)"/><path class="b" d="M120.965,438.226a17.324,17.324,0,0,0-3.29-1.4l-4.1,4.1-17.7,17.7-4.1,4.1a17.3,17.3,0,0,0,1.4,3.29l4.1-4.1h0Z" transform="translate(-91.772 -431.53)"/><path class="b" d="M96.164,451.527l15.566-15.566A17.448,17.448,0,0,0,96.164,451.527Z" transform="translate(-92.739 -431.338)"/><path class="b" d="M133.111,453.106l-4.1,4.1L112.15,474.066l-4.1,4.1a17.484,17.484,0,0,0,3.981.462c.084,0,.168-.005.251-.006l4.1-4.1h0l17.185-17.184c0-.084.006-.168.006-.252A17.477,17.477,0,0,0,133.111,453.106Z" transform="translate(-95.354 -435.112)"/></g></svg>