<svg xmlns="http://www.w3.org/2000/svg" xmlns:xlink="http://www.w3.org/1999/xlink" width="13.118" height="15.037" viewBox="0 0 13.118 15.037"><defs><style>.a{fill:url(#a);}</style><linearGradient id="a" x1="0.5" x2="0.5" y2="1" gradientUnits="objectBoundingBox"><stop offset="0" stop-color="#75a2ff"/><stop offset="1" stop-color="#4292d8"/></linearGradient></defs><path class="a" d="M10.725,15.036H4.966v-1.6H4.059a2.251,2.251,0,0,1-2.1-1.452l-.336-.9a.32.32,0,0,0-.3-.208h-.2a.96.96,0,0,1-.948-1.12.987.987,0,0,1,.98-.8h.72a1.6,1.6,0,0,1,1.472.968l.38.884a.64.64,0,0,0,.588.388h.648a2.769,2.769,0,0,1,.76-1.84l.088-.084A4.591,4.591,0,0,1,2.407,5.118a3.875,3.875,0,0,1,.64-2.112V1.675A3.367,3.367,0,0,1,3.4.175L3.491,0h.552A2.544,2.544,0,0,1,5.854.747L6.006.9A6.606,6.606,0,0,1,9.693.9L9.845.747A2.544,2.544,0,0,1,11.653,0H12.2l.088.176a3.367,3.367,0,0,1,.352,1.5V3.007a3.875,3.875,0,0,1,.64,2.112A4.591,4.591,0,0,1,9.877,9.273l.076.076a2.576,2.576,0,0,1,.772,1.832ZM5.606,14.4h4.479V11.181a1.932,1.932,0,0,0-.58-1.372l-.888-.868.568-.132a4.1,4.1,0,0,0,3.459-3.691,3.246,3.246,0,0,0-.584-1.836L12,3.2V1.675A2.728,2.728,0,0,0,11.8.639h-.148A1.907,1.907,0,0,0,10.3,1.2l-.432.428-.188-.064a5.952,5.952,0,0,0-3.663,0l-.188.064L5.394,1.2A1.907,1.907,0,0,0,4.039.639H3.891a2.728,2.728,0,0,0-.2,1.036V3.2l-.056.08a3.247,3.247,0,0,0-.584,1.836A4.093,4.093,0,0,0,6.506,8.805l.568.132-.9.88A2.16,2.16,0,0,0,5.6,11.249a.64.64,0,0,1-.636.588H4.319a1.28,1.28,0,0,1-1.176-.776l-.376-.884a.96.96,0,0,0-.884-.58h-.72a.345.345,0,0,0-.348.264.32.32,0,0,0,.312.376h.2a.964.964,0,0,1,.9.624l.336.9a1.608,1.608,0,0,0,1.5,1.04h.908a.64.64,0,0,1,.64.64Zm0,0" transform="translate(-0.166 0.001)"/></svg>