<svg xmlns="http://www.w3.org/2000/svg" xmlns:xlink="http://www.w3.org/1999/xlink" width="13.637" height="12.699" viewBox="0 0 13.637 12.699"><defs><style>.a{fill:url(#a);}</style><linearGradient id="a" x1="0.5" y1="-0.145" x2="0.5" y2="1" gradientUnits="objectBoundingBox"><stop offset="0" stop-color="#71a1fc"/><stop offset="1" stop-color="#61dfff"/></linearGradient></defs><g transform="translate(0 -16.6)"><g transform="translate(0 16.6)"><path class="a" d="M7.208,188.626a.38.38,0,0,0,0,.54,1.587,1.587,0,0,1,0,2.243L3.96,194.656a1.587,1.587,0,0,1-2.243,0l-.489-.489a1.587,1.587,0,0,1,0-2.243l3.248-3.248a.381.381,0,0,0-.54-.54L.689,191.386a2.346,2.346,0,0,0,0,3.322l.489.489a2.353,2.353,0,0,0,3.322,0l3.248-3.248a2.353,2.353,0,0,0,0-3.322A.38.38,0,0,0,7.208,188.626Z" transform="translate(0 -183.183)"/><path class="a" d="M192.045,17.775l-.489-.489a2.353,2.353,0,0,0-3.322,0l-3.248,3.248a2.353,2.353,0,0,0,0,3.322.381.381,0,1,0,.54-.54,1.587,1.587,0,0,1,0-2.243l3.248-3.248a1.587,1.587,0,0,1,2.243,0l.489.489a1.587,1.587,0,0,1,0,2.243l-3.248,3.248a.383.383,0,0,0,.268.652.372.372,0,0,0,.268-.113l3.248-3.248a2.349,2.349,0,0,0,0-3.322Z" transform="translate(-179.094 -16.6)"/></g></g></svg>