<svg xmlns="http://www.w3.org/2000/svg" width="41.419" height="35.283" viewBox="0 0 41.419 35.283"><defs><style>.a{fill:#53fffa;}</style></defs><path class="a" d="M61.068,172.136a3.068,3.068,0,1,1,3.068-3.068A3.071,3.071,0,0,1,61.068,172.136Zm0-4.6a1.534,1.534,0,1,0,1.534,1.534A1.536,1.536,0,0,0,61.068,167.534Z" transform="translate(-54.932 -145.29)"/><ellipse class="a" cx="0.868" cy="0.868" rx="0.868" ry="0.868" transform="translate(34.798 15.622)"/><ellipse class="a" cx="0.868" cy="0.868" rx="0.868" ry="0.868" transform="translate(39.4 10.253)"/><path class="a" d="M117.358,121.379a.765.765,0,0,1-.542-.225l-4.339-4.339-4.339,4.339a.767.767,0,0,1-1.085,0L103.8,117.9a.767.767,0,0,1,0-1.085l4.339-4.339-4.339-4.339a.767.767,0,0,1,0-1.085l3.254-3.254a.767.767,0,0,1,1.085,0l4.339,4.339,4.339-4.339a.767.767,0,0,1,1.085,0l3.254,3.254a.767.767,0,0,1,0,1.085l-4.339,4.339,4.339,4.339a.767.767,0,0,1,0,1.085l-3.254,3.254A.764.764,0,0,1,117.358,121.379Zm-4.881-6.416a.767.767,0,0,1,.542.225l4.339,4.339,2.17-2.169-4.339-4.339a.767.767,0,0,1,0-1.085l4.339-4.339-2.17-2.169-4.339,4.339a.789.789,0,0,1-1.085,0l-4.339-4.339-2.17,2.169,4.339,4.339a.767.767,0,0,1,0,1.085l-4.339,4.339,2.17,2.169,4.339-4.339A.767.767,0,0,1,112.476,114.964Z" transform="translate(-91.767 -94.835)"/><path class="a" d="M82.652,64.136H42.767A.767.767,0,0,1,42,63.369v-4.6A.767.767,0,0,1,42.767,58H82.652a.767.767,0,0,1,.767.767v4.6A.767.767,0,0,1,82.652,64.136ZM43.534,62.6H81.885V59.534H43.534Z" transform="translate(-42 -58)"/><path class="a" d="M82.652,216.136H42.767a.767.767,0,0,1-.767-.767v-4.6a.767.767,0,0,1,.767-.767H82.652a.767.767,0,0,1,.767.767v4.6A.767.767,0,0,1,82.652,216.136ZM43.534,214.6H81.885v-3.068H43.534Z" transform="translate(-42 -180.853)"/></svg>