<svg xmlns="http://www.w3.org/2000/svg" width="66.858" height="65.901" viewBox="0 0 66.858 65.901"><defs><style>.a{fill:#53fffa;}</style></defs><g transform="translate(0 0)"><path class="a" d="M100.511,73.708l5.06-10.121a1.277,1.277,0,0,0-1.713-1.713l-10.2,5.1a30.574,30.574,0,0,0-35.844.187L47.24,61.875a1.277,1.277,0,0,0-1.713,1.713l5.32,10.639a30.61,30.61,0,0,0,0,35.333l-5.324,10.647a1.277,1.277,0,0,0,1.713,1.713l10.576-5.288a30.573,30.573,0,0,0,35.844.188l10.2,5.1a1.277,1.277,0,0,0,1.713-1.713l-5.064-10.128a30.594,30.594,0,0,0,0-36.371ZM89.639,89.743,77.7,77.807l23.872-11.936Zm-14.09,14.789L62.914,91.9,75.549,79.262,88.184,91.9Zm.319-40.715a27.836,27.836,0,0,1,15.175,4.466l-4.1,2.052c-.026-.016-.042-.041-.07-.056A24.165,24.165,0,0,0,84.4,69.192a1.276,1.276,0,0,0-.9,2.389c.171.064.331.152.5.221l-8.456,4.228-8.182-4.091c.063-.027.123-.063.186-.09a1.276,1.276,0,0,0-.98-2.357c-.716.3-1.417.638-2.1,1l-4.055-2.027a27.816,27.816,0,0,1,15.449-4.648ZM73.395,77.807,61.459,89.743,49.523,65.871ZM47.788,91.9a27.873,27.873,0,0,1,4.379-15.03l2.05,4.1a24.183,24.183,0,0,0-1.043,2.366,1.276,1.276,0,1,0,2.388.9c.039-.1.094-.2.136-.306L59.682,91.9,55.7,99.858c-.063-.16-.145-.311-.2-.472a1.277,1.277,0,1,0-2.4.883,24.285,24.285,0,0,0,1.07,2.472c.014.028.036.048.051.074l-2.058,4.116A27.857,27.857,0,0,1,47.788,91.9Zm13.67,2.154,11.936,11.936L49.523,117.924Zm14.409,25.925a27.814,27.814,0,0,1-15.448-4.648l4.049-2.025a24.186,24.186,0,0,0,2.355,1.1,1.276,1.276,0,0,0,.951-2.368c-.135-.054-.263-.129-.4-.186l8.171-4.086L84.018,112c-.078.032-.153.075-.232.106a1.277,1.277,0,1,0,.932,2.377,24.456,24.456,0,0,0,2.234-1.016l4.091,2.045a27.836,27.836,0,0,1-15.174,4.465ZM77.7,105.988,89.639,94.052l11.936,23.872Zm19.487-2.542a24.27,24.27,0,0,0,1.055-2.186,1.276,1.276,0,0,0-2.355-.986c-.041.1-.1.192-.141.291L91.416,91.9l4.333-8.666c.043.1.1.194.143.294a1.276,1.276,0,1,0,2.354-.984A24.046,24.046,0,0,0,97.19,80.35l2.017-4.033a27.987,27.987,0,0,1,0,31.167Z" transform="translate(-45.236 -56.628)"/><path class="a" d="M66.8,152.4a1.277,1.277,0,0,0,1.124-1.413,22,22,0,0,1,.023-5.147,1.276,1.276,0,1,0-2.534-.31,24.617,24.617,0,0,0-.026,5.746,1.276,1.276,0,0,0,1.266,1.132A1.184,1.184,0,0,0,66.8,152.4Z" transform="translate(-58.853 -113.243)"/><path class="a" d="M128.324,84.048a1.29,1.29,0,0,0,.181-.012,22,22,0,0,1,5.429-.09,1.276,1.276,0,0,0,.274-2.538,24.606,24.606,0,0,0-6.062.1,1.276,1.276,0,0,0,.178,2.54Z" transform="translate(-100.943 -70.248)"/><path class="a" d="M211.16,144.932a1.276,1.276,0,0,0-2.531.332,22.024,22.024,0,0,1,0,5.713,1.276,1.276,0,0,0,1.1,1.432,1.315,1.315,0,0,0,.169.011,1.276,1.276,0,0,0,1.263-1.109,24.585,24.585,0,0,0,0-6.378Z" transform="translate(-156.483 -112.841)"/><path class="a" d="M134.76,224.7a22.158,22.158,0,0,1-5.451-.025,1.276,1.276,0,0,0-.329,2.531,24.549,24.549,0,0,0,6.085.027,1.276,1.276,0,1,0-.306-2.534Z" transform="translate(-101.501 -167.886)"/><path class="a" d="M129.34,141.265a5.105,5.105,0,1,0,5.105,5.105A5.111,5.111,0,0,0,129.34,141.265Zm0,7.658a2.553,2.553,0,1,1,2.553-2.553A2.555,2.555,0,0,1,129.34,148.923Z" transform="translate(-99.027 -111.101)"/><path class="a" d="M247.15,90.735A1.445,1.445,0,1,0,248.6,92.18,1.446,1.446,0,0,0,247.15,90.735Z" transform="translate(-181.737 -76.695)"/><path class="a" d="M247.15,53.626a1.445,1.445,0,1,0-1.445-1.445A1.446,1.446,0,0,0,247.15,53.626Z" transform="translate(-181.737 -49.458)"/><path class="a" d="M199.15,49.626a1.445,1.445,0,1,0-1.445-1.445A1.446,1.446,0,0,0,199.15,49.626Z" transform="translate(-149.054 -46.735)"/></g></svg>