<svg xmlns="http://www.w3.org/2000/svg" width="78.063" height="76.254" viewBox="0 0 78.063 76.254"><defs><style>.a{fill:#53fffa;}</style></defs><g transform="translate(0 0)"><path class="a" d="M43.677,105.276a1.308,1.308,0,0,0,.6.146,1.321,1.321,0,0,0,1.178-.72,31.942,31.942,0,0,1,2.612-4.239A1.323,1.323,0,1,0,45.932,98.9a34.6,34.6,0,0,0-2.83,4.593A1.324,1.324,0,0,0,43.677,105.276Z" transform="translate(-39.333 -77.314)"/><path class="a" d="M33.916,164.933a1.324,1.324,0,0,0,1.106-1.509,32.21,32.21,0,0,1-.376-4.9v-.067a1.294,1.294,0,0,0-1.323-1.289A1.352,1.352,0,0,0,32,158.521a34.842,34.842,0,0,0,.407,5.307,1.323,1.323,0,0,0,1.306,1.122A1.415,1.415,0,0,0,33.916,164.933Z" transform="translate(-32 -116.668)"/><path class="a" d="M34.357,133.855a1.3,1.3,0,0,0,.209.017,1.322,1.322,0,0,0,1.3-1.115,31.774,31.774,0,0,1,1.168-4.84,1.323,1.323,0,1,0-2.515-.822,34.126,34.126,0,0,0-1.266,5.246A1.323,1.323,0,0,0,34.357,133.855Z" transform="translate(-32.831 -95.933)"/><path class="a" d="M88.031,66.72a1.317,1.317,0,0,0,.6-.145,31.486,31.486,0,0,1,4.6-1.9,1.323,1.323,0,1,0-.814-2.517,34.157,34.157,0,0,0-4.991,2.062,1.323,1.323,0,0,0,.6,2.5Z" transform="translate(-68.611 -53.043)"/><path class="a" d="M206.359,92.628a1.323,1.323,0,0,0,2.14-1.556,34.692,34.692,0,0,0-3.506-4.1,1.323,1.323,0,1,0-1.871,1.871,32.121,32.121,0,0,1,3.237,3.789Z" transform="translate(-146.26 -69.432)"/><path class="a" d="M39.382,188.881a1.323,1.323,0,0,0-2.52.811,34.315,34.315,0,0,0,2.057,4.991,1.323,1.323,0,0,0,2.359-1.2,31.754,31.754,0,0,1-1.9-4.606Z" transform="translate(-35.212 -137.281)"/><path class="a" d="M117.786,60.308a1.413,1.413,0,0,0,.205-.016,32.064,32.064,0,0,1,4.935-.381h.034a1.308,1.308,0,0,0,1.306-1.323,1.337,1.337,0,0,0-1.34-1.323,34.772,34.772,0,0,0-5.343.412,1.323,1.323,0,0,0,.2,2.631Z" transform="translate(-88.525 -49.813)"/><path class="a" d="M223.183,118.41a1.323,1.323,0,1,0,2.517-.816,34.378,34.378,0,0,0-2.066-4.986,1.323,1.323,0,1,0-2.357,1.2A31.78,31.78,0,0,1,223.183,118.41Z" transform="translate(-158.572 -86.366)"/><path class="a" d="M178.189,70.678a31.6,31.6,0,0,1,4.241,2.608,1.324,1.324,0,1,0,1.558-2.14,34.66,34.66,0,0,0-4.595-2.824,1.323,1.323,0,1,0-1.2,2.357Z" transform="translate(-129.35 -57.116)"/><path class="a" d="M148.851,61.122a31.635,31.635,0,0,1,4.842,1.164,1.324,1.324,0,0,0,.819-2.517,34.339,34.339,0,0,0-5.247-1.26,1.323,1.323,0,0,0-.414,2.613Z" transform="translate(-109.453 -50.634)"/><path class="a" d="M62.714,82.293a1.319,1.319,0,0,0,.935-.388,31.825,31.825,0,0,1,3.79-3.232,1.323,1.323,0,0,0-1.553-2.142,34.437,34.437,0,0,0-4.108,3.5,1.323,1.323,0,0,0,.935,2.259Z" transform="translate(-51.67 -62.538)"/><path class="a" d="M53.347,216.4a1.323,1.323,0,1,0-2.142,1.553,34.727,34.727,0,0,0,3.495,4.11,1.324,1.324,0,1,0,1.876-1.868,31.869,31.869,0,0,1-3.229-3.795Z" transform="translate(-44.683 -155.945)"/><path class="a" d="M217.364,203.148a1.327,1.327,0,0,0-1.783.569,32.107,32.107,0,0,1-2.622,4.236,1.323,1.323,0,1,0,2.134,1.563,34.805,34.805,0,0,0,2.839-4.584A1.324,1.324,0,0,0,217.364,203.148Z" transform="translate(-152.931 -147.344)"/><path class="a" d="M168.127,246.669a31.573,31.573,0,0,1-4.608,1.893,1.323,1.323,0,0,0,.809,2.52,34.223,34.223,0,0,0,5-2.053,1.323,1.323,0,1,0-1.2-2.359Z" transform="translate(-119.401 -176.469)"/><path class="a" d="M229.77,173.314a1.318,1.318,0,0,0-1.517,1.1,31.733,31.733,0,0,1-1.177,4.838,1.324,1.324,0,0,0,2.515.827,34.5,34.5,0,0,0,1.275-5.243A1.322,1.322,0,0,0,229.77,173.314Z" transform="translate(-162.505 -127.464)"/><path class="a" d="M231.9,141.645a1.324,1.324,0,0,0-1.1,1.513,31.961,31.961,0,0,1,.386,4.967v.133a1.323,1.323,0,1,0,2.646,0v-.133a34.826,34.826,0,0,0-.417-5.378A1.33,1.33,0,0,0,231.9,141.645Z" transform="translate(-165.031 -106.272)"/><path class="a" d="M194.857,228.6a31.973,31.973,0,0,1-3.8,3.224,1.323,1.323,0,0,0,1.551,2.145,34.521,34.521,0,0,0,4.113-3.493,1.323,1.323,0,1,0-1.866-1.876Z" transform="translate(-138.08 -164.218)"/><path class="a" d="M107.4,253.548a31.408,31.408,0,0,1-4.836-1.171,1.323,1.323,0,1,0-.824,2.515,34.036,34.036,0,0,0,5.244,1.269,1.3,1.3,0,0,0,.209.017,1.323,1.323,0,0,0,.207-2.63Z" transform="translate(-78.061 -180.343)"/><path class="a" d="M138.091,256.109a31.962,31.962,0,0,1-4.87.372h-.1a1.281,1.281,0,0,0-1.274,1.323,1.366,1.366,0,0,0,1.373,1.323,34.622,34.622,0,0,0,5.276-.4,1.323,1.323,0,0,0-.405-2.615Z" transform="translate(-98.82 -182.874)"/><path class="a" d="M79.356,240.892a31.8,31.8,0,0,1-4.236-2.615,1.323,1.323,0,1,0-1.564,2.134,34.433,34.433,0,0,0,4.59,2.835,1.323,1.323,0,0,0,1.21-2.354Z" transform="translate(-59.449 -170.779)"/><path class="a" d="M241.292,45.265a5.292,5.292,0,1,0,5.292,5.292A5.3,5.3,0,0,0,241.292,45.265Zm0,7.939a2.646,2.646,0,1,1,2.646-2.646A2.65,2.65,0,0,1,241.292,53.2Z" transform="translate(-168.522 -41.782)"/><path class="a" d="M210.968,57.731a1.5,1.5,0,1,0-1.5-1.5A1.5,1.5,0,0,0,210.968,57.731Z" transform="translate(-150.767 -48.12)"/><path class="a" d="M194.968,37.731a1.5,1.5,0,1,0-1.5-1.5A1.5,1.5,0,0,0,194.968,37.731Z" transform="translate(-140.06 -34.735)"/><path class="a" d="M110.616,90.588v5.292h-5.292A1.322,1.322,0,0,0,104,97.2V102.5a1.322,1.322,0,0,0,1.323,1.323h5.292v5.292a1.322,1.322,0,0,0,1.323,1.323h5.292a1.322,1.322,0,0,0,1.323-1.323v-5.292h5.292a1.322,1.322,0,0,0,1.323-1.323V97.2a1.322,1.322,0,0,0-1.323-1.323h-5.292V90.588a1.322,1.322,0,0,0-1.323-1.323h-5.292A1.322,1.322,0,0,0,110.616,90.588Zm2.646,6.616V91.911h2.646V97.2a1.322,1.322,0,0,0,1.323,1.323h5.292v2.646h-5.292a1.322,1.322,0,0,0-1.323,1.323v5.292h-2.646V102.5a1.322,1.322,0,0,0-1.323-1.323h-5.292V98.527h5.292A1.322,1.322,0,0,0,113.262,97.2Z" transform="translate(-80.184 -71.228)"/><path class="a" d="M118.554,189.112v-5.292h5.292a1.322,1.322,0,0,0,1.323-1.323V177.2a1.322,1.322,0,0,0-1.323-1.323h-5.292v-5.292a1.322,1.322,0,0,0-1.323-1.323h-5.292a1.322,1.322,0,0,0-1.323,1.323v5.292h-5.292A1.322,1.322,0,0,0,104,177.2V182.5a1.322,1.322,0,0,0,1.323,1.323h5.292v5.292a1.322,1.322,0,0,0,1.323,1.323h5.292A1.322,1.322,0,0,0,118.554,189.112Zm-2.646-6.616v5.292h-2.646V182.5a1.322,1.322,0,0,0-1.323-1.323h-5.292v-2.646h5.292a1.322,1.322,0,0,0,1.323-1.323v-5.292h2.646V177.2a1.322,1.322,0,0,0,1.323,1.323h5.292v2.646h-5.292A1.322,1.322,0,0,0,115.908,182.5Z" transform="translate(-80.184 -124.766)"/></g></svg>