<svg xmlns="http://www.w3.org/2000/svg" width="74.684" height="76.553" viewBox="0 0 74.684 76.553"><defs><style>.a{fill:#53fffa;}</style></defs><g transform="translate(0)"><path class="a" d="M230.2,48.936a5.468,5.468,0,1,0-5.468-5.468A5.474,5.474,0,0,0,230.2,48.936Zm0-8.2a2.734,2.734,0,1,1-2.734,2.734A2.737,2.737,0,0,1,230.2,40.734Z" transform="translate(-161.852 -38)"/><path class="a" d="M70.523,78.824a1.366,1.366,0,0,0,1.933,0,33.083,33.083,0,0,1,3.918-3.339,1.367,1.367,0,1,0-1.606-2.214,35.8,35.8,0,0,0-4.242,3.616A1.367,1.367,0,0,0,70.523,78.824Z" transform="translate(-60.08 -61.048)"/><path class="a" d="M42.715,161.926a1.367,1.367,0,0,0,1.142-1.56,33.421,33.421,0,0,1-.389-5.105l-1.367-.03h1.367A1.337,1.337,0,0,0,42.1,153.9a1.4,1.4,0,0,0-1.367,1.4,35.962,35.962,0,0,0,.42,5.483,1.368,1.368,0,0,0,1.349,1.158A1.464,1.464,0,0,0,42.715,161.926Z" transform="translate(-40.735 -114.29)"/><path class="a" d="M52.433,102.24a1.367,1.367,0,0,0,1.84-.592,32.976,32.976,0,0,1,2.7-4.379,1.367,1.367,0,1,0-2.208-1.613A35.8,35.8,0,0,0,51.84,100.4,1.368,1.368,0,0,0,52.433,102.24Z" transform="translate(-47.946 -75.583)"/><path class="a" d="M43.13,130.845a1.415,1.415,0,0,0,.217.017A1.367,1.367,0,0,0,44.7,129.71a32.6,32.6,0,0,1,1.206-5,1.367,1.367,0,1,0-2.6-.849,35.435,35.435,0,0,0-1.308,5.419A1.368,1.368,0,0,0,43.13,130.845Z" transform="translate(-41.553 -93.897)"/><path class="a" d="M186.352,65.655a1.367,1.367,0,0,0,.6,1.84,33.074,33.074,0,0,1,4.381,2.695,1.367,1.367,0,1,0,1.61-2.209,35.64,35.64,0,0,0-4.747-2.919A1.368,1.368,0,0,0,186.352,65.655Z" transform="translate(-136.488 -55.714)"/><path class="a" d="M96.81,63.613a1.358,1.358,0,0,0,.619-.149,32.728,32.728,0,0,1,4.757-1.965,1.367,1.367,0,1,0-.841-2.6,35.563,35.563,0,0,0-5.156,2.131,1.367,1.367,0,0,0,.621,2.585Z" transform="translate(-76.746 -51.712)"/><path class="a" d="M126.564,57.144a1.438,1.438,0,0,0,.212-.016,33.145,33.145,0,0,1,5.1-.394h.035a1.352,1.352,0,0,0,1.35-1.367A1.382,1.382,0,0,0,131.875,54a36,36,0,0,0-5.519.426,1.367,1.367,0,0,0,.208,2.718Z" transform="translate(-96.333 -48.532)"/><path class="a" d="M157.624,57.949a32.708,32.708,0,0,1,5,1.2,1.352,1.352,0,0,0,.423.068,1.367,1.367,0,0,0,.423-2.667,35.417,35.417,0,0,0-5.421-1.3,1.367,1.367,0,0,0-.428,2.7Z" transform="translate(-116.918 -49.343)"/><path class="a" d="M215.215,89.566a1.367,1.367,0,1,0,2.211-1.608,35.641,35.641,0,0,0-3.622-4.239,1.367,1.367,0,1,0-1.933,1.933A33.15,33.15,0,0,1,215.215,89.566Z" transform="translate(-153.121 -67.831)"/><path class="a" d="M230.614,108.763a1.367,1.367,0,0,0-.6,1.838,32.884,32.884,0,0,1,1.971,4.756,1.367,1.367,0,1,0,2.6-.843,35.8,35.8,0,0,0-2.133-5.152,1.365,1.365,0,0,0-1.84-.6Z" transform="translate(-165.23 -84.48)"/><path class="a" d="M203.733,225.353a32.976,32.976,0,0,1-3.923,3.331,1.367,1.367,0,0,0,1.6,2.216,35.821,35.821,0,0,0,4.249-3.607,1.367,1.367,0,0,0-1.928-1.939Z" transform="translate(-145.073 -161.063)"/><path class="a" d="M226.248,199.887a1.365,1.365,0,0,0-1.841.588,33.008,33.008,0,0,1-2.709,4.375,1.367,1.367,0,1,0,2.205,1.616,35.776,35.776,0,0,0,2.933-4.738A1.366,1.366,0,0,0,226.248,199.887Z" transform="translate(-159.68 -144.461)"/><path class="a" d="M240.674,138.382a1.368,1.368,0,0,0-1.139,1.563,32.883,32.883,0,0,1,.4,5.091v.178a1.311,1.311,0,0,0,1.367,1.3,1.429,1.429,0,0,0,1.368-1.436,35.977,35.977,0,0,0-.431-5.555A1.367,1.367,0,0,0,240.674,138.382Z" transform="translate(-171.584 -104.065)"/><path class="a" d="M238.6,170.051a1.361,1.361,0,0,0-1.567,1.132,32.8,32.8,0,0,1-1.216,5,1.368,1.368,0,0,0,.872,1.726,1.385,1.385,0,0,0,.427.069,1.368,1.368,0,0,0,1.3-.941,35.6,35.6,0,0,0,1.317-5.415,1.367,1.367,0,0,0-1.132-1.568Z" transform="translate(-169.1 -124.909)"/><path class="a" d="M177.041,243.418a32.676,32.676,0,0,1-4.761,1.955,1.367,1.367,0,1,0,.836,2.6,35.449,35.449,0,0,0,5.161-2.119,1.367,1.367,0,1,0-1.237-2.439Z" transform="translate(-126.699 -173.118)"/><path class="a" d="M147.033,252.851a33.167,33.167,0,0,1-5.032.383h-.1a1.323,1.323,0,0,0-1.315,1.367A1.412,1.412,0,0,0,142,255.968a35.868,35.868,0,0,0,5.448-.415,1.367,1.367,0,0,0-.416-2.7Z" transform="translate(-106.459 -179.415)"/><path class="a" d="M116.349,250.322a32.785,32.785,0,0,1-5-1.212,1.367,1.367,0,0,0-.852,2.6,35.519,35.519,0,0,0,5.419,1.313,1.367,1.367,0,1,0,.433-2.7Z" transform="translate(-86.036 -176.917)"/><path class="a" d="M62.163,213.154a1.367,1.367,0,1,0-2.215,1.6A35.831,35.831,0,0,0,63.56,219a1.367,1.367,0,0,0,1.938-1.929,33,33,0,0,1-3.335-3.92Z" transform="translate(-53.211 -152.922)"/><path class="a" d="M88.3,237.724a32.911,32.911,0,0,1-4.378-2.7,1.367,1.367,0,1,0-1.614,2.207,35.676,35.676,0,0,0,4.74,2.928,1.367,1.367,0,0,0,1.251-2.431Z" transform="translate(-67.73 -167.514)"/><path class="a" d="M48.2,185.64a1.367,1.367,0,1,0-2.6.838,35.315,35.315,0,0,0,2.125,5.158,1.367,1.367,0,0,0,2.438-1.238A32.665,32.665,0,0,1,48.2,185.64Z" transform="translate(-43.894 -134.559)"/><path class="a" d="M116.026,111.81a1.367,1.367,0,1,0-2.16,1.675,22.531,22.531,0,0,1-5.55,32.692,15.037,15.037,0,1,0-24.582,0,22.546,22.546,0,1,1,25.181-37.4,1.367,1.367,0,1,0,1.565-2.243A25.28,25.28,0,1,0,94.489,152.5a15.173,15.173,0,0,0,3.071,0,25.3,25.3,0,0,0,23.754-25.212A25.048,25.048,0,0,0,116.026,111.81Zm-32.3,25.732a12.3,12.3,0,1,1,12.3,12.3A12.317,12.317,0,0,1,83.722,137.543Z" transform="translate(-60.483 -80.128)"/><path class="a" d="M251.753,247.47a1.548,1.548,0,1,0,1.548,1.548,1.548,1.548,0,0,0-1.548-1.548Z" transform="translate(-178.618 -175.882)"/><path class="a" d="M63.753,42.566A1.548,1.548,0,1,0,62.2,41.018,1.548,1.548,0,0,0,63.753,42.566Z" transform="translate(-54.868 -38.968)"/><path class="a" d="M187.753,46.566a1.548,1.548,0,1,0-1.548-1.548A1.548,1.548,0,0,0,187.753,46.566Z" transform="translate(-136.49 -41.601)"/></g></svg>