<svg xmlns="http://www.w3.org/2000/svg" width="63.732" height="63.732" viewBox="0 0 63.732 63.732"><defs><style>.a{fill:#5dffcd;}</style></defs><path class="a" d="M49.316,2.879,22.179,30.016a8.239,8.239,0,0,0-7.984,1.317A8.321,8.321,0,0,0,9.4,30.5a8.744,8.744,0,0,0-4.153,1.767,10.6,10.6,0,0,0-4.074,6.15,10.354,10.354,0,0,0,1.5,8.02l.874,1.29L1.224,50.047a4.184,4.184,0,0,0,5.917,5.917L19.388,43.717A9.68,9.68,0,0,0,27.853,46.1l1.788-.358-1.347-1.228c-.019-.018-1.03-.941-2.121-1.949a8.231,8.231,0,0,0,1-7.558L54.31,7.873A9.763,9.763,0,0,0,57.189.922V0h-.922a9.763,9.763,0,0,0-6.95,2.879ZM7.268,43.366a4.867,4.867,0,0,1-.811-2.741,4.711,4.711,0,0,1,1.877-3.752l.46-.345a2.778,2.778,0,0,1,1.66-.553h0a2.809,2.809,0,0,1,1.969.817l1.028,1.028L7.523,43.75Zm7.491-4.243,3.308,3.308L8.3,52.2,4.994,48.888ZM4.183,55.344a2.339,2.339,0,0,1-1.654-3.992l1.16-1.16L7,53.5l-1.16,1.16A2.324,2.324,0,0,1,4.183,55.344Zm16.2-13.2-6.656-6.656a4.662,4.662,0,0,0-3.272-1.358h0a4.639,4.639,0,0,0-2.767.921l-.459.345a6.667,6.667,0,0,0-1.5,8.993l.461.692L4.868,46.405,4.2,45.414a8.524,8.524,0,0,1-1.225-6.6,8.808,8.808,0,0,1,3.421-5.1,6.849,6.849,0,0,1,3.23-1.38,6.473,6.473,0,0,1,5.409,1.844l7.376,7.376c.565.565,1.953,1.853,3.065,2.878A7.85,7.85,0,0,1,20.387,42.143Zm3.325-1.892-7.376-7.376c-.161-.161-.335-.306-.506-.452A6.45,6.45,0,0,1,24.8,41.3C24.343,40.863,23.948,40.486,23.712,40.251ZM53.006,6.568l-26.7,26.7a8.37,8.37,0,0,0-2.385-2.385l26.7-26.7A7.929,7.929,0,0,1,55.285,1.9a7.929,7.929,0,0,1-2.279,4.665Z" transform="translate(6.97) rotate(7)"/></svg>