<svg xmlns="http://www.w3.org/2000/svg" width="61.036" height="58.545" viewBox="0 0 61.036 58.545"><defs><style>.a{fill:#53fffa;}</style></defs><g transform="translate(0)"><path class="a" d="M66.113,126.662a1.247,1.247,0,0,0,.125,1.757,13.617,13.617,0,0,0,4.739,2.68,1.246,1.246,0,0,0,.769-2.37,11.134,11.134,0,0,1-3.875-2.192,1.247,1.247,0,0,0-1.758.125Z" transform="translate(-61.508 -104.362)"/><path class="a" d="M55.144,75.61a1.244,1.244,0,0,0,1.591-.754,11.157,11.157,0,0,1,2.3-3.812A1.245,1.245,0,1,0,57.2,69.358a13.605,13.605,0,0,0-2.814,4.659A1.244,1.244,0,0,0,55.144,75.61Z" transform="translate(-53.595 -64.921)"/><path class="a" d="M123.429,113.849a1.246,1.246,0,0,0,1.753-.175,13.661,13.661,0,0,0,2.542-4.813,1.246,1.246,0,0,0-2.392-.7,11.114,11.114,0,0,1-2.08,3.938A1.246,1.246,0,0,0,123.429,113.849Z" transform="translate(-100.87 -91.299)"/><path class="a" d="M54.57,105.56a1.245,1.245,0,0,0,1.115-1.8,11.107,11.107,0,0,1-1.13-4.3,1.245,1.245,0,1,0-2.487.14,13.539,13.539,0,0,0,1.383,5.267,1.246,1.246,0,0,0,1.118.694Z" transform="translate(-52.045 -85.116)"/><path class="a" d="M95.428,134.125a1.245,1.245,0,0,0,1.239,1.14c.035,0,.071,0,.107,0A13.586,13.586,0,0,0,102,133.728a1.246,1.246,0,0,0-1.165-2.2,11.088,11.088,0,0,1-4.271,1.253,1.246,1.246,0,0,0-1.135,1.347Z" transform="translate(-81.901 -107.907)"/><path class="a" d="M76.626,59.626a1.235,1.235,0,0,0,.517-.114,11.107,11.107,0,0,1,4.337-1.006,1.246,1.246,0,1,0-.07-2.49,13.573,13.573,0,0,0-5.3,1.231,1.246,1.246,0,0,0,.519,2.379Z" transform="translate(-68.098 -56.01)"/><path class="a" d="M107.3,61.12a11.155,11.155,0,0,1,3.745,2.41,1.246,1.246,0,1,0,1.737-1.786A13.631,13.631,0,0,0,108.21,58.8a1.246,1.246,0,1,0-.9,2.321Z" transform="translate(-89.536 -57.869)"/><path class="a" d="M129.616,80.525a1.245,1.245,0,0,0-.662,1.632,11.162,11.162,0,0,1,.881,4.365,1.246,1.246,0,0,0,2.491,0,13.621,13.621,0,0,0-1.078-5.334A1.245,1.245,0,0,0,129.616,80.525Z" transform="translate(-104.922 -72.82)"/><path class="a" d="M78.158,156H53.246A1.245,1.245,0,0,0,52,157.246v24.913a1.245,1.245,0,0,0,1.246,1.246H78.158a1.245,1.245,0,0,0,1.246-1.246V157.246A1.245,1.245,0,0,0,78.158,156Zm-1.246,24.913H54.491V158.491H76.913Z" transform="translate(-52 -124.859)"/><path class="a" d="M173.7,156a13.7,13.7,0,1,0,13.7,13.7A13.717,13.717,0,0,0,173.7,156Zm0,24.913A11.211,11.211,0,1,1,184.913,169.7,11.223,11.223,0,0,1,173.7,180.913Z" transform="translate(-126.367 -124.859)"/><path class="a" d="M186.158,56H161.246A1.245,1.245,0,0,0,160,57.246V82.158a1.245,1.245,0,0,0,1.246,1.246h24.913a1.245,1.245,0,0,0,1.246-1.246V57.246A1.245,1.245,0,0,0,186.158,56Zm-1.246,24.913H162.491V58.491h22.421Z" transform="translate(-126.367 -56)"/><path class="a" d="M192.983,184a4.983,4.983,0,1,0,4.983,4.983A4.988,4.988,0,0,0,192.983,184Zm0,7.474a2.491,2.491,0,1,1,2.491-2.491A2.494,2.494,0,0,1,192.983,191.474Z" transform="translate(-145.648 -144.14)"/></g></svg>