<svg xmlns="http://www.w3.org/2000/svg" width="133.327" height="51.152" viewBox="0 0 133.327 51.152"><defs><style>.a{fill:#4360df;}.a,.b{fill-rule:evenodd;}.b,.c{fill:#fff;}</style></defs><g transform="translate(0 188.266)"><path class="a" d="M25.549-188.266A25.563,25.563,0,0,0,0-162.69a25.563,25.563,0,0,0,25.549,25.576A25.563,25.563,0,0,0,51.1-162.69,25.563,25.563,0,0,0,25.549-188.266Z" transform="translate(0)"/><path class="b" d="M81.2-115.03a24.476,24.476,0,0,0,4.143.179c4.273-.239,6.862-2.434,6.678-5.716-.187-3.339-3.631-5.4-7.077-5.2-5.616.313-9.745,5.249-10.21,10.89a13.659,13.659,0,0,1,2.322-.328A24.454,24.454,0,0,1,81.2-115.03Zm-11.008,7.3c.177,3.061,3.44,4.947,6.7,4.77,5.32-.287,9.232-4.811,9.673-9.982a13.325,13.325,0,0,1-2.2.3,23.933,23.933,0,0,1-3.925-.164,23.954,23.954,0,0,0-3.925-.164C72.468-112.751,70.016-110.738,70.19-107.73Z" transform="translate(-54.791 -48.781)"/><path class="c" d="M278.36-81.592h3.693a1.6,1.6,0,0,0,.529,1.349,2.158,2.158,0,0,0,1.359.409,2.2,2.2,0,0,0,1.119-.253.92.92,0,0,0,.445-.855.821.821,0,0,0-.192-.566,1.442,1.442,0,0,0-.565-.4,7.385,7.385,0,0,0-.987-.361q-.6-.181-1.444-.457-.758-.241-1.431-.494a4.93,4.93,0,0,1-1.167-.65,2.8,2.8,0,0,1-.794-.939,3.056,3.056,0,0,1-.277-1.373,3.355,3.355,0,0,1,.373-1.626,3.141,3.141,0,0,1,1.047-1.132,4.9,4.9,0,0,1,1.612-.662,8.728,8.728,0,0,1,2.069-.229,8.013,8.013,0,0,1,2.382.313,4.639,4.639,0,0,1,1.636.855,3.307,3.307,0,0,1,.938,1.276,3.988,3.988,0,0,1,.313,1.578H285.3a1.6,1.6,0,0,0-.385-1.144,1.471,1.471,0,0,0-1.143-.409,1.859,1.859,0,0,0-1.01.265.839.839,0,0,0-.421.771.822.822,0,0,0,.192.566,1.917,1.917,0,0,0,.59.373,10.008,10.008,0,0,0,.95.349q.565.169,1.3.409a15.209,15.209,0,0,1,1.48.482,5.044,5.044,0,0,1,1.2.65,2.637,2.637,0,0,1,.83.951A2.966,2.966,0,0,1,289.2-81.1a3.425,3.425,0,0,1-.433,1.77,3.493,3.493,0,0,1-1.167,1.18,4.917,4.917,0,0,1-1.684.65,9.7,9.7,0,0,1-2.021.2,6.68,6.68,0,0,1-4.09-1.1A3.793,3.793,0,0,1,278.36-81.592Z" transform="translate(-217.319 -76.851)"/><path class="c" d="M332.066-98.1v-2.806h1.865v-3.528h3.753v3.528h2.707V-98.1h-2.707v4.251a3.77,3.77,0,0,0,.12,1.06,1.552,1.552,0,0,0,.337.614,1.147,1.147,0,0,0,.541.289,3.974,3.974,0,0,0,.722.06q.241,0,.614-.012a6.1,6.1,0,0,0,.65-.072v2.89q-.421.072-1.058.132t-1.48.06a10.771,10.771,0,0,1-1.4-.1,3.217,3.217,0,0,1-1.359-.506,3.023,3.023,0,0,1-1.035-1.252,5.5,5.5,0,0,1-.409-2.336V-98.1Z" transform="translate(-259.248 -65.447)"/><path class="b" d="M376.647-85.961a7.129,7.129,0,0,0-.421,2.481A7.129,7.129,0,0,0,376.647-81a6.1,6.1,0,0,0,1.191,1.975,5.777,5.777,0,0,0,1.792,1.312,5.178,5.178,0,0,0,2.214.482,4.584,4.584,0,0,0,2.358-.578,3.7,3.7,0,0,0,1.432-1.4v1.674H389.4V-89.417h-3.765v1.7a3.866,3.866,0,0,0-1.48-1.433,4.52,4.52,0,0,0-2.31-.566,5.129,5.129,0,0,0-2.214.482,5.778,5.778,0,0,0-1.792,1.313A5.958,5.958,0,0,0,376.647-85.961Zm3.525,3.661a3.443,3.443,0,0,1-.2-1.18,3.245,3.245,0,0,1,.2-1.156,3.415,3.415,0,0,1,.577-.963,2.7,2.7,0,0,1,.89-.662,2.7,2.7,0,0,1,1.155-.241,2.733,2.733,0,0,1,1.167.241,2.567,2.567,0,0,1,.878.662,3.071,3.071,0,0,1,.577.963,3.092,3.092,0,0,1,.217,1.156,3.216,3.216,0,0,1-.217,1.18,2.9,2.9,0,0,1-.577.964,2.839,2.839,0,0,1-.89.65,2.7,2.7,0,0,1-1.155.241,2.7,2.7,0,0,1-1.155-.241,3.04,3.04,0,0,1-.89-.65A3.205,3.205,0,0,1,380.172-82.3Z" transform="translate(-293.724 -76.938)"/><path class="c" d="M445.511-98.1v-2.806h1.864v-3.528h3.754v3.528h2.706V-98.1h-2.706v4.251a3.806,3.806,0,0,0,.12,1.06,1.544,1.544,0,0,0,.337.614,1.144,1.144,0,0,0,.541.289,3.972,3.972,0,0,0,.722.06q.241,0,.613-.012a6.075,6.075,0,0,0,.65-.072v2.89q-.42.072-1.058.132t-1.48.06a10.77,10.77,0,0,1-1.4-.1,3.218,3.218,0,0,1-1.36-.506,3.014,3.014,0,0,1-1.034-1.252,5.491,5.491,0,0,1-.41-2.336V-98.1Z" transform="translate(-347.816 -65.447)"/><path class="c" d="M493.239-81.289v-7.057h3.741v6.094a4.2,4.2,0,0,0,.457,2.083,1.725,1.725,0,0,0,1.636.795,1.951,1.951,0,0,0,1.731-.807,3.814,3.814,0,0,0,.566-2.2v-5.961h3.765V-76.46h-3.765v-1.7a3.464,3.464,0,0,1-1.5,1.469,5.143,5.143,0,0,1-2.418.53,4.63,4.63,0,0,1-2.021-.385,3.85,3.85,0,0,1-1.275-.976,3.549,3.549,0,0,1-.746-1.589A12.12,12.12,0,0,1,493.239-81.289Z" transform="translate(-385.078 -78.009)"/><path class="c" d="M558.574-81.592h3.693a1.6,1.6,0,0,0,.53,1.349,2.152,2.152,0,0,0,1.358.409,2.207,2.207,0,0,0,1.12-.253.919.919,0,0,0,.445-.855.815.815,0,0,0-.193-.566,1.43,1.43,0,0,0-.565-.4,7.372,7.372,0,0,0-.986-.361q-.6-.181-1.444-.457-.759-.241-1.432-.494a4.923,4.923,0,0,1-1.166-.65,2.8,2.8,0,0,1-.794-.939,3.059,3.059,0,0,1-.276-1.373,3.353,3.353,0,0,1,.373-1.626,3.145,3.145,0,0,1,1.046-1.132,4.905,4.905,0,0,1,1.613-.662,8.719,8.719,0,0,1,2.069-.229,8.014,8.014,0,0,1,2.381.313,4.64,4.64,0,0,1,1.637.855,3.309,3.309,0,0,1,.938,1.276,3.972,3.972,0,0,1,.313,1.578h-3.717a1.6,1.6,0,0,0-.385-1.144,1.471,1.471,0,0,0-1.143-.409,1.859,1.859,0,0,0-1.01.265.838.838,0,0,0-.421.771.819.819,0,0,0,.192.566,1.915,1.915,0,0,0,.59.373,9.979,9.979,0,0,0,.949.349c.378.112.81.249,1.3.409a15.194,15.194,0,0,1,1.48.482,5.011,5.011,0,0,1,1.2.65,2.638,2.638,0,0,1,.831.951,2.971,2.971,0,0,1,.313,1.445,3.425,3.425,0,0,1-.433,1.77,3.5,3.5,0,0,1-1.167,1.18,4.91,4.91,0,0,1-1.683.65,9.7,9.7,0,0,1-2.021.2,6.681,6.681,0,0,1-4.09-1.1A3.792,3.792,0,0,1,558.574-81.592Z" transform="translate(-436.085 -76.851)"/></g></svg>