<svg width="522" height="456" viewBox="0 0 522 456" fill="none" xmlns="http://www.w3.org/2000/svg">
<g opacity="0.5" clip-path="url(#clip0_5439_39807)">
<path d="M349.756 18.1811H342.104C341.763 18.1811 341.496 17.9138 341.496 17.5735C341.496 17.2332 341.763 16.9658 342.104 16.9658H349.756C350.096 16.9658 350.364 17.2332 350.364 17.5735C350.364 17.9138 350.096 18.1811 349.756 18.1811Z" fill="#575657"/>
<path d="M345.936 22.0096C345.595 22.0096 345.328 21.7422 345.328 21.4019V13.7576C345.328 13.4173 345.595 13.1499 345.936 13.1499C346.277 13.1499 346.544 13.4173 346.544 13.7576V21.4019C346.544 21.7422 346.277 22.0096 345.936 22.0096Z" fill="#575657"/>
<path d="M224.821 138.632H217.17C216.829 138.632 216.561 138.364 216.561 138.024C216.561 137.684 216.829 137.416 217.17 137.416H224.821C225.162 137.416 225.43 137.684 225.43 138.024C225.43 138.364 225.162 138.632 224.821 138.632Z" fill="#575657"/>
<path d="M221.001 142.448C220.661 142.448 220.393 142.18 220.393 141.84V134.196C220.393 133.855 220.661 133.588 221.001 133.588C221.342 133.588 221.61 133.855 221.61 134.196V141.84C221.61 142.18 221.342 142.448 221.001 142.448Z" fill="#575657"/>
<path d="M302.714 90.3467H295.062C294.721 90.3467 294.454 90.0793 294.454 89.739C294.454 89.3987 294.721 89.1313 295.062 89.1313H302.714C303.054 89.1313 303.322 89.3987 303.322 89.739C303.322 90.0793 303.054 90.3467 302.714 90.3467Z" fill="#575657"/>
<path d="M298.894 94.1751C298.553 94.1751 298.286 93.9077 298.286 93.5675V85.9231C298.286 85.5828 298.553 85.3154 298.894 85.3154C299.235 85.3154 299.502 85.5828 299.502 85.9231V93.5675C299.502 93.9077 299.235 94.1751 298.894 94.1751Z" fill="#575657"/>
<path d="M513.01 265.693H505.358C505.018 265.693 504.75 265.426 504.75 265.086C504.75 264.745 505.018 264.478 505.358 264.478H513.01C513.351 264.478 513.618 264.745 513.618 265.086C513.618 265.426 513.351 265.693 513.01 265.693Z" fill="#575657"/>
<path d="M509.19 269.509C508.85 269.509 508.582 269.242 508.582 268.902V261.257C508.582 260.917 508.85 260.65 509.19 260.65C509.531 260.65 509.799 260.917 509.799 261.257V268.902C509.799 269.242 509.531 269.509 509.19 269.509Z" fill="#575657"/>
<path d="M24.5125 315.606H16.8607C16.5201 315.606 16.2524 315.339 16.2524 314.999C16.2524 314.658 16.5201 314.391 16.8607 314.391H24.5125C24.8531 314.391 25.1207 314.658 25.1207 314.999C25.1207 315.339 24.8531 315.606 24.5125 315.606Z" fill="#575657"/>
<path d="M20.6805 319.435C20.3399 319.435 20.0723 319.167 20.0723 318.827V311.183C20.0723 310.842 20.3399 310.575 20.6805 310.575C21.0211 310.575 21.2888 310.842 21.2888 311.183V318.827C21.2888 319.167 21.0211 319.435 20.6805 319.435Z" fill="#575657"/>
<path d="M276.583 438.451H268.932C268.591 438.451 268.323 438.184 268.323 437.843C268.323 437.503 268.591 437.236 268.932 437.236H276.583C276.924 437.236 277.192 437.503 277.192 437.843C277.192 438.184 276.924 438.451 276.583 438.451Z" fill="#575657"/>
<path d="M272.764 442.267C272.423 442.267 272.155 442 272.155 441.659V434.015C272.155 433.675 272.423 433.407 272.764 433.407C273.104 433.407 273.372 433.675 273.372 434.015V441.659C273.372 442 273.104 442.267 272.764 442.267Z" fill="#575657"/>
<path d="M233.75 452.184H226.099C225.758 452.184 225.49 451.916 225.49 451.576C225.49 451.236 225.758 450.969 226.099 450.969H233.75C234.091 450.969 234.359 451.236 234.359 451.576C234.359 451.916 234.091 452.184 233.75 452.184Z" fill="#575657"/>
<path d="M229.931 456C229.59 456 229.322 455.733 229.322 455.392V447.748C229.322 447.408 229.59 447.14 229.931 447.14C230.271 447.14 230.539 447.408 230.539 447.748V455.392C230.539 455.733 230.271 456 229.931 456Z" fill="#575657"/>
<path d="M357.408 166.633H349.756C349.415 166.633 349.148 166.365 349.148 166.025C349.148 165.685 349.415 165.417 349.756 165.417H357.408C357.748 165.417 358.016 165.685 358.016 166.025C358.016 166.365 357.748 166.633 357.408 166.633Z" fill="#575657"/>
<path d="M353.588 170.449C353.247 170.449 352.98 170.181 352.98 169.841V162.197C352.98 161.856 353.247 161.589 353.588 161.589C353.928 161.589 354.196 161.856 354.196 162.197V169.841C354.196 170.181 353.928 170.449 353.588 170.449Z" fill="#575657"/>
<path d="M205.637 114.13H197.985C197.645 114.13 197.377 113.863 197.377 113.523C197.377 113.182 197.645 112.915 197.985 112.915H205.637C205.978 112.915 206.245 113.182 206.245 113.523C206.245 113.863 205.978 114.13 205.637 114.13Z" fill="#575657"/>
<path d="M201.817 117.947C201.477 117.947 201.209 117.679 201.209 117.339V109.695C201.209 109.354 201.477 109.087 201.817 109.087C202.158 109.087 202.426 109.354 202.426 109.695V117.339C202.426 117.679 202.158 117.947 201.817 117.947Z" fill="#575657"/>
<path d="M34.2688 110.448H26.617C26.2764 110.448 26.0088 110.181 26.0088 109.841C26.0088 109.5 26.2764 109.233 26.617 109.233H34.2688C34.6094 109.233 34.8771 109.5 34.8771 109.841C34.8771 110.181 34.6094 110.448 34.2688 110.448Z" fill="#575657"/>
<path d="M30.4368 114.277C30.0962 114.277 29.8286 114.009 29.8286 113.669V106.025C29.8286 105.684 30.0962 105.417 30.4368 105.417C30.7775 105.417 31.0451 105.684 31.0451 106.025V113.669C31.0451 114.009 30.7775 114.277 30.4368 114.277Z" fill="#575657"/>
<path d="M83.2329 417.839H75.5811C75.2405 417.839 74.9729 417.572 74.9729 417.231C74.9729 416.891 75.2405 416.624 75.5811 416.624H83.2329C83.5735 416.624 83.8412 416.891 83.8412 417.231C83.8412 417.572 83.5735 417.839 83.2329 417.839Z" fill="#575657"/>
<path d="M79.4009 421.667C79.0603 421.667 78.7927 421.4 78.7927 421.06V413.415C78.7927 413.075 79.0603 412.808 79.4009 412.808C79.7416 412.808 80.0092 413.075 80.0092 413.415V421.06C80.0092 421.4 79.7416 421.667 79.4009 421.667Z" fill="#575657"/>
<path d="M52.6258 80.5635H44.974C44.6334 80.5635 44.3658 80.2961 44.3658 79.9558C44.3658 79.6155 44.6334 79.3481 44.974 79.3481H52.6258C52.9664 79.3481 53.234 79.6155 53.234 79.9558C53.234 80.2961 52.9664 80.5635 52.6258 80.5635Z" fill="#575657"/>
<path d="M48.806 84.3797C48.4654 84.3797 48.1977 84.1123 48.1977 83.772V76.1277C48.1977 75.7874 48.4654 75.52 48.806 75.52C49.1466 75.52 49.4142 75.7874 49.4142 76.1277V83.772C49.4142 84.1123 49.1466 84.3797 48.806 84.3797Z" fill="#575657"/>
<path d="M240.04 0L243.312 6.63564L250.648 7.70513L245.344 12.8702L246.597 20.1743L240.04 16.7228L233.471 20.1743L234.724 12.8702L229.42 7.70513L236.755 6.63564L240.04 0Z" fill="#E2E2E2"/>
<path d="M401.579 407.971L404.863 414.606L412.199 415.664L406.883 420.841L408.136 428.133L401.579 424.694L395.022 428.133L396.275 420.841L390.971 415.664L398.306 414.606L401.579 407.971Z" fill="#E2E2E2"/>
<path d="M488.608 397L491.892 403.636L499.228 404.693L493.912 409.87L495.165 417.162L488.608 413.723L482.051 417.162L483.304 409.87L478 404.693L485.335 403.636L488.608 397Z" fill="#E2E2E2"/>
<path d="M483.802 105.867L487.074 112.514L494.41 113.572L489.106 118.737L490.359 126.041L483.802 122.589L477.233 126.041L478.486 118.737L473.182 113.572L480.517 112.514L483.802 105.867Z" fill="#E2E2E2"/>
<path d="M10.6079 146.786L13.8924 153.422L21.2279 154.492L15.924 159.657L17.177 166.961L10.6079 163.509L4.05094 166.961L5.30394 159.657L0 154.492L7.33549 153.422L10.6079 146.786Z" fill="#E2E2E2"/>
<path d="M105.592 48.6733L109.485 56.5365L118.171 57.8004L111.881 63.9256L113.366 72.5787L105.592 68.4952L97.8187 72.5787L99.3029 63.9256L93.0135 57.8004L101.712 56.5365L105.592 48.6733Z" fill="#EAEAEA"/>
<path d="M113.366 73.1864C113.268 73.1864 113.171 73.1621 113.086 73.1135L105.592 69.1759L98.0985 73.1135C97.8917 73.2229 97.6484 73.1986 97.4538 73.0649C97.2713 72.9312 97.174 72.7003 97.2105 72.4694L98.6459 64.1323L92.5878 58.2258C92.4175 58.0678 92.3566 57.8248 92.4296 57.606C92.5026 57.3873 92.6973 57.2293 92.9162 57.1928L101.298 55.9775L105.045 48.3939C105.252 47.9807 105.933 47.9807 106.14 48.3939L109.886 55.9775L118.268 57.1928C118.499 57.2293 118.682 57.3873 118.755 57.606C118.828 57.8248 118.755 58.0678 118.597 58.2258L112.538 64.1323L113.974 72.4694C114.01 72.7003 113.925 72.9312 113.731 73.0649C113.621 73.1378 113.499 73.1864 113.378 73.1864H113.366ZM105.592 67.8876C105.689 67.8876 105.787 67.9119 105.872 67.9605L112.551 71.4728L111.273 64.0351C111.237 63.8406 111.31 63.634 111.444 63.5003L116.845 58.238L109.375 57.1563C109.181 57.132 109.011 56.9984 108.913 56.8282L105.568 50.0589L102.222 56.8282C102.137 57.0105 101.967 57.132 101.76 57.1563L94.2909 58.238L99.6921 63.5003C99.8381 63.634 99.8989 63.8406 99.8624 64.0351L98.5851 71.4728L105.264 67.9605C105.349 67.9119 105.446 67.8876 105.543 67.8876H105.592Z" fill="#575657"/>
<path d="M141.223 48.6733L145.104 56.5365L153.802 57.8004L147.513 63.9256L148.997 72.5787L141.223 68.4952L133.45 72.5787L134.934 63.9256L128.645 57.8004L137.331 56.5365L141.223 48.6733Z" fill="#EAEAEA"/>
<path d="M148.997 73.1865C148.9 73.1865 148.802 73.1622 148.717 73.1136L141.223 69.176L133.73 73.1136C133.523 73.223 133.28 73.1987 133.085 73.065C132.903 72.9313 132.805 72.7004 132.842 72.4695L134.277 64.1324L128.219 58.2259C128.049 58.0679 127.988 57.8249 128.061 57.6061C128.134 57.3874 128.329 57.2294 128.548 57.1929L136.917 55.9776L140.664 48.394C140.761 48.1874 140.98 48.0537 141.211 48.0537C141.442 48.0537 141.649 48.1874 141.759 48.394L145.506 55.9776L153.887 57.1929C154.118 57.2294 154.301 57.3874 154.374 57.6061C154.447 57.8249 154.374 58.0679 154.216 58.2259L148.157 64.1324L149.593 72.4695C149.629 72.7004 149.544 72.9313 149.35 73.065C149.24 73.1379 149.119 73.1865 148.997 73.1865ZM141.223 67.8877C141.321 67.8877 141.418 67.912 141.503 67.9606L148.182 71.4729L146.905 64.0352C146.868 63.8407 146.941 63.6341 147.075 63.5004L152.476 58.2381L145.007 57.1565C144.812 57.1321 144.642 56.9985 144.544 56.8283L141.199 50.059L137.854 56.8283C137.769 57.0106 137.598 57.1321 137.391 57.1565L129.922 58.2381L135.323 63.5004C135.469 63.6341 135.53 63.8407 135.494 64.0352L134.216 71.4729L140.895 67.9606C140.98 67.912 141.077 67.8877 141.175 67.8877H141.223Z" fill="#575657"/>
<path d="M176.855 48.6733L180.735 56.5365L189.433 57.8004L183.144 63.9256L184.628 72.5787L176.855 68.4952L169.069 72.5787L170.553 63.9256L164.264 57.8004L172.962 56.5365L176.855 48.6733Z" fill="#EAEAEA"/>
<path d="M184.628 73.1864C184.531 73.1864 184.433 73.1621 184.348 73.1135L176.855 69.1759L169.361 73.1135C169.154 73.2229 168.911 73.1986 168.716 73.0649C168.534 72.9312 168.437 72.7003 168.473 72.4694L169.908 64.1323L163.85 58.2258C163.68 58.0678 163.619 57.8248 163.692 57.606C163.765 57.3873 163.96 57.2293 164.179 57.1928L172.56 55.9775L176.307 48.3939C176.514 47.9807 177.195 47.9807 177.402 48.3939L181.149 55.9775L189.531 57.1928C189.762 57.2293 189.944 57.3873 190.017 57.606C190.09 57.8248 190.017 58.0678 189.859 58.2258L183.801 64.1323L185.236 72.4694C185.273 72.7003 185.188 72.9312 184.993 73.0649C184.884 73.1378 184.762 73.1864 184.64 73.1864H184.628ZM176.855 67.8876C176.952 67.8876 177.049 67.9119 177.135 67.9605L183.813 71.4728L182.536 64.0351C182.499 63.8406 182.572 63.634 182.706 63.5003L188.107 58.238L180.638 57.1563C180.443 57.132 180.273 56.9984 180.176 56.8282L176.83 50.0589L173.485 56.8282C173.4 57.0105 173.23 57.132 173.023 57.1563L165.553 58.238L170.955 63.5003C171.101 63.634 171.161 63.8406 171.125 64.0351L169.848 71.4728L176.526 67.9605C176.611 67.9119 176.709 67.8876 176.806 67.8876H176.855Z" fill="#575657"/>
<path d="M212.474 48.6733L216.367 56.5365L225.052 57.8004L218.763 63.9256L220.247 72.5787L212.474 68.4952L204.7 72.5787L206.185 63.9256L199.895 57.8004L208.593 56.5365L212.474 48.6733Z" fill="#EAEAEA"/>
<path d="M204.7 73.1864C204.579 73.1864 204.445 73.1499 204.348 73.0649C204.165 72.9312 204.068 72.7003 204.104 72.4694L205.54 64.1323L199.482 58.2258C199.311 58.0678 199.25 57.8248 199.323 57.606C199.396 57.3873 199.591 57.2293 199.81 57.1928L208.18 55.9775L211.926 48.3939C212.133 47.9807 212.814 47.9807 213.021 48.3939L216.768 55.9775L225.138 57.1928C225.369 57.2293 225.551 57.3873 225.624 57.606C225.697 57.8248 225.624 58.0678 225.466 58.2258L219.408 64.1323L220.843 72.4694C220.88 72.7003 220.795 72.9312 220.6 73.0649C220.418 73.1986 220.162 73.2229 219.955 73.1135L212.462 69.1759L204.968 73.1135C204.883 73.1621 204.786 73.1864 204.688 73.1864H204.7ZM212.474 67.8876C212.571 67.8876 212.668 67.9119 212.754 67.9605L219.432 71.4728L218.155 64.0351C218.118 63.8406 218.191 63.634 218.325 63.5003L223.726 58.238L216.257 57.1563C216.062 57.132 215.892 56.9984 215.795 56.8282L212.449 50.0589L209.104 56.8282C209.019 57.0105 208.849 57.132 208.642 57.1563L201.173 58.238L206.574 63.5003C206.72 63.634 206.781 63.8406 206.744 64.0351L205.467 71.4728L212.145 67.9605C212.231 67.9119 212.328 67.8876 212.425 67.8876H212.474Z" fill="#575657"/>
<path d="M179.422 161.492C179.422 164.506 178.74 166.827 177.39 168.48C176.04 170.133 174.105 170.947 171.599 170.947C169.239 170.947 167.378 170.096 166.004 168.395C164.629 166.693 163.935 164.396 163.935 161.492C163.935 158.587 164.605 156.169 165.943 154.552C167.281 152.936 169.166 152.122 171.587 152.122C174.008 152.122 175.881 152.96 177.293 154.649C178.704 156.327 179.409 158.611 179.409 161.504L179.422 161.492ZM170.115 161.577C170.115 163.145 170.249 164.287 170.505 164.98C170.76 165.672 171.149 166.025 171.672 166.025C172.195 166.025 172.585 165.685 172.828 165.004C173.084 164.323 173.205 163.181 173.205 161.577C173.205 159.973 173.084 158.867 172.828 158.174C172.573 157.481 172.183 157.129 171.672 157.129C171.161 157.129 170.748 157.481 170.492 158.198C170.237 158.915 170.115 160.033 170.115 161.589V161.577ZM194.384 152.547L177.731 182.541H171.636L188.29 152.547H194.384ZM202.255 173.438C202.255 176.428 201.574 178.761 200.211 180.402C198.849 182.043 196.927 182.869 194.433 182.869C192.073 182.869 190.212 182.018 188.837 180.317C187.463 178.616 186.769 176.319 186.769 173.438C186.769 170.558 187.438 168.115 188.776 166.499C190.115 164.882 192 164.068 194.421 164.068C196.842 164.068 198.715 164.907 200.126 166.596C201.537 168.273 202.243 170.558 202.243 173.45L202.255 173.438ZM192.949 173.523C192.949 175.091 193.083 176.234 193.338 176.926C193.594 177.619 193.983 177.971 194.506 177.971C195.09 177.971 195.504 177.57 195.723 176.768C195.954 175.966 196.063 174.885 196.063 173.511C196.063 172.138 195.954 171.056 195.723 170.254C195.491 169.452 195.09 169.051 194.506 169.051C193.971 169.051 193.582 169.403 193.326 170.12C193.071 170.837 192.949 171.956 192.949 173.511V173.523Z" fill="#E2E2E2"/>
<path d="M194.433 183.477C191.891 183.477 189.859 182.541 188.363 180.694C186.903 178.883 186.161 176.44 186.161 173.426C186.161 170.412 186.891 167.811 188.314 166.098C189.774 164.335 191.83 163.448 194.433 163.448C197.036 163.448 199.08 164.372 200.613 166.183C202.109 167.969 202.863 170.412 202.863 173.426C202.863 176.44 202.134 179.029 200.686 180.779C199.214 182.565 197.109 183.477 194.433 183.477ZM194.433 164.664C192.183 164.664 190.48 165.381 189.251 166.875C188.01 168.37 187.377 170.582 187.377 173.438C187.377 176.294 188.022 178.36 189.312 179.94C190.577 181.508 192.256 182.274 194.433 182.274C196.757 182.274 198.496 181.532 199.749 180.025C201.014 178.494 201.659 176.282 201.659 173.45C201.659 170.619 200.99 168.553 199.688 166.985C198.387 165.429 196.671 164.676 194.445 164.676L194.433 164.664ZM177.731 183.149H171.636C171.417 183.149 171.222 183.039 171.113 182.845C171.003 182.662 171.003 182.432 171.113 182.237L187.767 152.243C187.876 152.049 188.083 151.927 188.302 151.927H194.397C194.616 151.927 194.81 152.036 194.92 152.231C195.029 152.413 195.029 152.644 194.92 152.839L178.266 182.833C178.156 183.027 177.95 183.149 177.731 183.149ZM172.658 181.933H177.366L193.35 153.155H188.643L172.658 181.933ZM194.506 178.567C193.959 178.567 193.204 178.312 192.767 177.121C192.475 176.355 192.341 175.164 192.341 173.499C192.341 171.834 192.475 170.692 192.754 169.914C193.192 168.698 193.947 168.443 194.506 168.443C195.005 168.443 195.905 168.662 196.319 170.084C196.562 170.947 196.684 172.065 196.684 173.499C196.684 174.933 196.562 176.051 196.319 176.914C195.917 178.348 195.017 178.555 194.506 178.555V178.567ZM194.506 169.659C194.409 169.659 194.129 169.659 193.898 170.315C193.667 170.959 193.557 172.028 193.557 173.499C193.557 174.97 193.679 176.063 193.91 176.695C194.153 177.352 194.409 177.352 194.506 177.352C194.628 177.352 194.932 177.352 195.139 176.598C195.346 175.857 195.455 174.812 195.455 173.511C195.455 172.211 195.346 171.166 195.139 170.424C194.92 169.671 194.628 169.671 194.506 169.671V169.659ZM171.587 171.542C169.057 171.542 167.013 170.607 165.517 168.759C164.057 166.948 163.315 164.506 163.315 161.479C163.315 158.453 164.045 155.877 165.468 154.151C166.928 152.389 168.984 151.502 171.587 151.502C174.191 151.502 176.234 152.425 177.767 154.248C179.263 156.035 180.03 158.478 180.03 161.492C180.03 164.506 179.3 167.106 177.852 168.869C176.38 170.655 174.276 171.567 171.587 171.567V171.542ZM171.587 152.705C169.337 152.705 167.646 153.434 166.405 154.917C165.164 156.412 164.532 158.623 164.532 161.479C164.532 164.335 165.176 166.414 166.466 168.006C167.731 169.574 169.41 170.339 171.587 170.339C173.923 170.339 175.663 169.598 176.916 168.091C178.169 166.56 178.813 164.348 178.813 161.492C178.813 158.636 178.144 156.594 176.843 155.026C175.541 153.471 173.826 152.717 171.599 152.717L171.587 152.705ZM171.672 166.62C171.125 166.62 170.371 166.365 169.933 165.174C169.641 164.408 169.507 163.217 169.507 161.552C169.507 159.887 169.641 158.745 169.921 157.967C170.359 156.752 171.113 156.497 171.672 156.497C172.232 156.497 172.974 156.752 173.4 157.943C173.68 158.721 173.813 159.9 173.813 161.552C173.813 163.205 173.68 164.433 173.4 165.186C172.962 166.365 172.22 166.608 171.672 166.608V166.62ZM171.672 157.712C171.575 157.712 171.295 157.712 171.064 158.368C170.833 159.012 170.724 160.082 170.724 161.552C170.724 163.023 170.845 164.117 171.076 164.749C171.32 165.405 171.575 165.405 171.672 165.405C171.77 165.405 172.025 165.405 172.269 164.773C172.427 164.348 172.609 163.448 172.609 161.552C172.609 160.058 172.5 158.988 172.269 158.356C172.037 157.712 171.782 157.712 171.685 157.712H171.672Z" fill="#575657"/>
<path d="M67.2238 233.037C67.2238 233.037 79.2549 230.522 84.0236 225.198V201.694L64.7178 173.098C64.7178 173.098 59.0611 174.653 58.0635 184.291C57.066 193.94 56.5064 214.005 56.5064 214.005L67.2238 233.037Z" fill="#959595"/>
<path d="M125.51 101.83L57.2834 109.186L68.9181 216.882L137.145 209.526L125.51 101.83Z" fill="white"/>
<path d="M68.3794 217.542L56.6037 108.637L126.042 101.151L137.817 210.056L68.3794 217.542ZM57.9419 109.719L69.45 216.205L136.467 208.974L124.959 102.488L57.9419 109.719Z" fill="#575657"/>
<path d="M70.1677 157.761L68.5984 143.25L83.1234 141.682L84.6927 156.193L70.1677 157.761ZM69.9366 144.319L71.2382 156.412L83.3424 155.111L82.0286 143.019L69.9244 144.319H69.9366Z" fill="#575657"/>
<path d="M72.8075 182.14L71.2382 167.629L85.7632 166.061L87.3325 180.572L72.8075 182.14ZM72.5764 168.698L73.878 180.791L85.9822 179.49L84.6805 167.398L72.5764 168.698Z" fill="#575657"/>
<path d="M75.3378 205.547L73.7685 191.036L88.2935 189.468L89.8628 203.979L75.3378 205.547ZM75.1067 192.106L76.4083 204.198L88.5125 202.898L87.1987 190.805L75.0945 192.106H75.1067Z" fill="#575657"/>
<path d="M85.301 126.843L84.717 121.471L118.305 117.849L118.889 123.221L85.301 126.843ZM86.0552 122.553L86.3715 125.506L117.55 122.139L117.234 119.186L86.0552 122.553Z" fill="#575657"/>
<path d="M87.9408 151.222L87.3568 145.85L120.944 142.229L121.528 147.6L87.9408 151.222ZM88.695 146.932L89.0113 149.885L120.19 146.519L119.874 143.566L88.695 146.932Z" fill="#575657"/>
<path d="M90.5684 175.601L89.9845 170.23L123.572 166.608L124.156 171.98L90.5562 175.601H90.5684ZM91.3226 171.311L91.6389 174.264L122.818 170.898L122.502 167.945L91.3226 171.311Z" fill="#575657"/>
<path d="M93.0987 199.008L92.5148 193.637L126.102 190.015L126.686 195.387L93.0987 199.008ZM93.8529 194.718L94.1692 197.672L125.348 194.305L125.032 191.352L93.8529 194.718Z" fill="#575657"/>
<path d="M67.5279 133.381L65.9586 118.87L80.4836 117.302L82.0529 131.813L67.5279 133.381ZM67.2968 119.94L68.5984 132.032L80.7026 130.72L79.4009 118.627L67.2968 119.928V119.94Z" fill="#575657"/>
<path d="M74.4255 130.294C74.1335 130.294 73.4644 130.063 69.3405 126.247C69.0972 126.016 69.0729 125.64 69.304 125.384C69.5351 125.129 69.9122 125.117 70.1677 125.348C71.7005 126.77 73.5374 128.362 74.3038 128.909C75.6176 127.207 81.0554 120.098 83.2816 117.181C83.4884 116.914 83.8655 116.865 84.1331 117.072C84.4008 117.278 84.4494 117.655 84.2426 117.922C83.3181 119.138 75.1919 129.772 74.9486 130.051C74.8391 130.173 74.6566 130.27 74.4863 130.282C74.4741 130.282 74.4498 130.282 74.4255 130.282V130.294Z" fill="#575657"/>
<path d="M107.453 291.105L106.444 336.023H61.0075V303.137L28.8797 244.935C28.8797 244.935 26.3859 241.447 27.7119 233.633C29.0378 225.818 33.8673 184.74 33.8673 184.74C33.8673 184.74 34.1958 179.758 39.0253 173.766C42.6748 169.245 55.2291 153.264 61.1656 145.692L64.3893 175.553C63.7324 176.5 63.1242 177.388 62.5524 178.202C60.0829 181.763 58.7934 186.004 58.9029 190.343C59.134 198.862 59.0002 205.753 58.8542 209.934C58.7569 212.875 59.4382 215.78 60.8371 218.356C64.5475 225.247 68.4768 232.624 68.4768 232.624L80.6296 228.139C83.1234 226.146 82.722 219.523 82.722 219.523L81.7731 185.834C81.6028 179.745 86.4566 174.617 92.5513 174.447C98.646 174.276 103.78 179.126 103.95 185.214L104.582 207.588C104.631 209.168 105.033 222.075 106.432 229.185C106.432 229.185 113.986 244.68 113.755 262.12C113.524 279.56 107.441 291.105 107.441 291.105H107.453Z" fill="white"/>
<path d="M106.444 336.619H61.0075C60.6668 336.619 60.3992 336.352 60.3992 336.011V303.283L28.3566 245.227C28.2836 245.13 25.7655 241.496 27.1279 233.523C28.4418 225.818 33.2348 185.081 33.2834 184.668C33.2834 184.485 33.6849 179.454 38.5752 173.377C42.322 168.735 55.3021 152.206 60.7155 145.315C60.8736 145.121 61.1291 145.036 61.3602 145.109C61.6035 145.182 61.7739 145.376 61.7982 145.631L65.0219 175.492C65.0341 175.638 64.9976 175.784 64.9124 175.905C64.2555 176.853 63.6473 177.74 63.0755 178.567C60.679 182.006 59.426 186.187 59.5355 190.343C59.7666 198.826 59.6328 205.693 59.4868 209.97C59.3895 212.79 60.0464 215.597 61.3967 218.089C64.5596 223.947 67.8685 230.157 68.7931 231.895L80.3498 227.629C82.1259 226.086 82.2475 221.309 82.1381 219.584L81.1892 185.883C81.104 182.772 82.2354 179.806 84.3886 177.534C86.5418 175.261 89.4371 173.961 92.5513 173.863C95.6777 173.778 98.6338 174.909 100.909 177.06C103.184 179.211 104.485 182.103 104.582 185.214L105.215 207.601C105.252 209.047 105.653 221.893 107.04 229.027C107.599 230.218 114.619 245.397 114.387 262.156C114.168 278.551 108.743 289.938 108.074 291.287L107.064 336.06C107.064 336.388 106.784 336.655 106.456 336.655L106.444 336.619ZM61.6157 335.404H105.848L106.845 291.081C106.845 290.984 106.869 290.899 106.918 290.814C106.979 290.704 112.928 279.183 113.159 262.108C113.39 245.008 105.969 229.598 105.896 229.452C105.872 229.403 105.86 229.355 105.848 229.306C104.437 222.099 104.035 209.071 103.986 207.601L103.354 185.214C103.281 182.431 102.113 179.831 100.069 177.91C98.0256 175.978 95.3857 174.969 92.5756 175.042C89.7898 175.115 87.1865 176.282 85.2645 178.324C83.3302 180.365 82.3084 183.027 82.3935 185.81L83.3424 219.499C83.3546 219.766 83.7438 226.438 81.031 228.613C80.9824 228.65 80.9216 228.686 80.8607 228.711L68.7079 233.195C68.4281 233.305 68.0997 233.183 67.9658 232.916C67.9658 232.916 64.0365 225.539 60.3262 218.648C58.8786 215.962 58.173 212.948 58.2703 209.91C58.4163 205.656 58.538 198.802 58.319 190.355C58.1973 185.944 59.5355 181.508 62.078 177.85C62.6132 177.084 63.185 176.258 63.7932 175.382L60.752 147.236C54.9128 154.673 43.0763 169.731 39.5241 174.131C34.8892 179.879 34.4999 184.716 34.4999 184.765C34.4513 185.202 29.6583 225.976 28.3323 233.718C27.0671 241.143 29.3663 244.534 29.3906 244.571L61.5549 302.821C61.6035 302.906 61.6279 303.015 61.6279 303.113V335.391L61.6157 335.404Z" fill="#575657"/>
<path d="M92.235 194.67C91.201 194.67 90.1061 194.621 88.9748 194.475C87.4663 194.293 86.2498 193.175 85.9579 191.704C85.4226 188.958 84.7657 183.331 86.4323 176.391L87.6123 176.671C85.9943 183.379 86.6269 188.824 87.15 191.461C87.3325 192.409 88.1354 193.138 89.1208 193.26C93.7678 193.819 98.0499 192.895 98.9987 192.664C100.337 190.696 99.5705 181.86 98.7433 176.622L99.9476 176.428C100.179 177.911 102.162 190.975 99.8016 193.6L99.68 193.734L99.5097 193.783C99.3515 193.831 96.2494 194.645 92.235 194.645V194.67Z" fill="#575657"/>
<path d="M79.036 239.333C78.9143 239.333 78.8048 239.296 78.6954 239.236C78.4156 239.053 78.3426 238.676 78.5251 238.397C82.0407 233.183 81.9921 223.327 81.9921 223.23C81.9921 222.889 82.2597 222.622 82.6003 222.622C82.9288 222.622 83.2086 222.889 83.2086 223.23C83.2086 223.643 83.2572 233.56 79.5347 239.09C79.4131 239.26 79.2306 239.357 79.0238 239.357L79.036 239.333Z" fill="#575657"/>
<path d="M57.6621 185.166C53.4895 185.166 49.8765 183.039 49.7062 182.93C49.4142 182.76 49.3291 182.383 49.4994 182.091C49.6697 181.799 50.0468 181.714 50.3388 181.885C50.3874 181.909 55.0223 184.643 59.5477 183.768C59.8761 183.708 60.1924 183.926 60.2654 184.254C60.3262 184.583 60.1072 184.899 59.7788 184.971C59.0732 185.105 58.3555 185.166 57.6621 185.166Z" fill="#575657"/>
<path d="M52.8447 215.44C52.5041 215.44 52.2365 215.172 52.2365 214.832C52.2365 214.492 52.5041 214.224 52.8447 214.224C55.8373 214.224 58.8421 212.875 58.8786 212.863C59.1827 212.729 59.5477 212.863 59.6815 213.167C59.8153 213.471 59.6815 213.835 59.3774 213.969C59.2435 214.03 56.105 215.44 52.8447 215.44Z" fill="#575657"/>
<path d="M74.9972 235.128C74.7417 235.128 74.5106 234.97 74.4255 234.714C74.316 234.398 74.4863 234.058 74.8026 233.949C78.2088 232.782 81.0797 227.325 81.1162 227.265C81.2743 226.961 81.6393 226.851 81.9313 227.009C82.2354 227.167 82.3449 227.532 82.1867 227.824C82.0651 228.067 79.0482 233.766 75.1918 235.091C75.131 235.115 75.058 235.128 74.9972 235.128Z" fill="#575657"/>
<path d="M480.603 309.432L480.797 279.876C480.797 279.876 487.95 271.672 488.79 238.689C488.814 237.862 488.863 237.024 488.936 236.197L493.193 177.424C493.619 172.891 490.663 168.565 486.186 167.714C481.551 166.839 478.413 169.938 477.427 174.398L478.899 158.745C479.386 153.604 475.226 149.047 469.885 149.253C465.469 149.423 461.966 153.057 461.552 157.445L458.462 190.319V151.903C458.462 147.126 454.545 143.213 449.764 143.213C444.983 143.213 441.066 147.126 441.066 151.903V195.144L436.638 159.802C436.042 155.026 431.955 150.687 426.785 151.113C421.967 151.113 418.695 156.533 419.291 161.321L425.884 213.957C425.884 213.957 428.451 227.459 423.232 238.531C416.019 240.463 401.141 222.403 401.141 222.403C398.124 218.77 392.674 218.259 389.024 221.273C385.387 224.287 384.876 229.732 387.893 233.378L418.634 272.207C418.634 272.207 424.327 281.492 429.145 283.899V309.445H480.603V309.432Z" fill="white"/>
<path d="M481.199 310.04H428.536V284.251C423.707 281.565 418.342 272.888 418.111 272.511L387.419 233.742C385.862 231.871 385.132 229.477 385.351 227.022C385.582 224.567 386.75 222.355 388.635 220.799C390.521 219.231 392.917 218.502 395.375 218.733C397.832 218.964 400.046 220.131 401.603 222.014C405.605 226.876 417.113 239.078 422.807 238.008C427.721 227.289 425.313 214.2 425.288 214.078L418.695 161.406C418.33 158.502 419.303 155.354 421.225 153.179C422.734 151.465 424.717 150.517 426.785 150.517C432.453 150.055 436.638 154.941 437.246 159.741L440.458 185.397V151.903C440.458 146.774 444.631 142.605 449.764 142.605C454.898 142.605 459.07 146.774 459.07 151.903V177.351L460.944 157.384C461.394 152.571 465.226 148.816 469.861 148.633C472.549 148.536 475.14 149.594 476.99 151.538C478.839 153.495 479.751 156.132 479.508 158.794L478.413 170.4C480.189 167.738 483.011 166.487 486.296 167.106C490.967 167.993 494.264 172.551 493.802 177.473L489.544 236.234C489.471 237.024 489.422 237.85 489.398 238.701C488.619 269.315 482.476 278.685 481.405 280.095L481.199 310.052V310.04ZM429.753 308.825H479.994L480.189 279.645L480.335 279.475C480.408 279.39 487.354 270.919 488.169 238.664C488.193 237.789 488.242 236.939 488.315 236.136L492.573 177.376C492.974 173.049 490.116 169.075 486.052 168.309C481.32 167.41 478.802 170.935 477.999 174.532L476.795 174.35L478.267 158.696C478.486 156.387 477.683 154.09 476.077 152.389C474.471 150.7 472.233 149.776 469.873 149.861C465.846 150.019 462.513 153.3 462.124 157.505L459.034 190.368L457.817 190.307V151.891C457.817 147.43 454.192 143.809 449.728 143.809C445.263 143.809 441.638 147.43 441.638 151.891V195.132L440.422 195.204L435.993 159.863C435.458 155.622 431.809 151.295 426.797 151.708C424.546 151.708 423.001 152.936 422.101 153.957C420.398 155.877 419.546 158.672 419.863 161.236L426.456 213.872C426.553 214.394 428.986 227.654 423.755 238.786L423.634 239.041L423.366 239.114C415.86 241.107 401.262 223.534 400.642 222.78C399.292 221.152 397.37 220.143 395.229 219.936C393.1 219.742 391.019 220.374 389.389 221.735C387.747 223.096 386.737 225.016 386.543 227.143C386.348 229.27 386.981 231.348 388.343 232.977L419.096 271.806C419.194 271.952 424.79 281.03 429.4 283.327L429.741 283.497V308.813L429.753 308.825Z" fill="#575657"/>
<path d="M476.976 173.072L472.754 209.14L473.963 209.281L478.185 173.213L476.976 173.072Z" fill="#575657"/>
<path d="M457.866 189.119L457 206.44L458.215 206.501L459.081 189.18L457.866 189.119Z" fill="#575657"/>
<path d="M441.664 194.279L440.455 194.413L441.812 206.613L443.021 206.479L441.664 194.279Z" fill="#575657"/>
<path d="M457.805 263.323C457.538 263.323 457.294 263.141 457.221 262.874C450.823 239.126 423.001 239.272 422.721 239.284C422.344 239.284 422.113 239.017 422.101 238.689C422.101 238.348 422.369 238.081 422.697 238.069C422.989 238.069 451.747 237.887 458.389 262.558C458.474 262.886 458.28 263.214 457.963 263.299C457.915 263.311 457.854 263.323 457.805 263.323Z" fill="#575657"/>
<path d="M483.34 212.304C483.34 212.304 483.23 212.304 483.169 212.28C454.752 204.003 432.283 208.087 432.064 208.123C431.736 208.184 431.419 207.965 431.359 207.637C431.298 207.309 431.517 206.993 431.845 206.932C432.076 206.896 454.801 202.752 483.51 211.113C483.838 211.21 484.021 211.538 483.924 211.867C483.851 212.134 483.607 212.304 483.34 212.304Z" fill="#575657"/>
<path d="M460.494 255.047C460.263 255.047 460.032 254.913 459.934 254.682C457.659 249.347 451.492 242.906 445.884 240.038C445.58 239.88 445.47 239.515 445.616 239.223C445.774 238.92 446.139 238.81 446.431 238.956C452.343 241.994 458.633 248.545 461.041 254.196C461.175 254.5 461.041 254.865 460.725 254.998C460.652 255.035 460.567 255.047 460.482 255.047H460.494Z" fill="#575657"/>
<path d="M392.041 239.175C391.822 239.175 391.603 239.053 391.494 238.835C391.348 238.531 391.47 238.166 391.774 238.02C393.404 237.218 393.465 235.614 393.452 235.201C391.847 232.15 386.239 226.317 386.178 226.256C385.947 226.013 385.947 225.636 386.19 225.393C386.433 225.162 386.81 225.162 387.054 225.405C387.297 225.66 392.978 231.567 394.596 234.751C394.633 234.812 394.645 234.885 394.657 234.958C394.669 235.079 394.937 237.814 392.309 239.102C392.224 239.151 392.127 239.163 392.041 239.163V239.175Z" fill="#575657"/>
<path d="M429.558 285.211C429.205 285.211 428.853 285.199 428.5 285.199C408.634 285.199 391.457 296.696 383.27 313.407C368.709 313.868 356.325 322.886 350.972 335.586H393.379C393.379 312.179 408.537 292.309 429.57 285.223L429.558 285.211Z" fill="#98C5F8" fill-opacity="0.06"/>
<path d="M367.638 272.511H157.573V381.379H367.638V272.511Z" fill="#FDFDFD"/>
<path d="M368.247 381.987H156.965V271.903H368.247V381.987ZM158.181 380.772H367.03V273.119H158.181V380.772Z" fill="#575657"/>
<path d="M367.638 254.135H157.573V272.511H367.638V254.135Z" fill="#FAF8FD"/>
<path d="M368.247 273.119H156.965V253.528H368.247V273.119ZM158.181 271.903H367.03V254.743H158.181V271.903Z" fill="#575657"/>
<path d="M350.778 205.024H174.434L157.573 254.135H367.638L350.778 205.024Z" fill="#FAF8FD"/>
<path d="M368.49 254.743H156.722L173.996 204.417H351.216L351.362 204.83L368.502 254.743H368.49ZM158.425 253.528H366.787L350.34 205.632H174.872L158.425 253.528Z" fill="#575657"/>
<path d="M312.628 230.971H207.802L209.201 223.874H311.217L312.628 230.971Z" fill="#84A38A"/>
<path d="M313.37 231.579H207.06L208.703 223.266H311.728L313.37 231.579ZM208.545 230.364H311.898L310.731 224.482H209.712L208.545 230.364Z" fill="#575657"/>
<g style="mix-blend-mode:multiply" opacity="0.4">
<path d="M367.638 272.511H157.573V283.522H367.638V272.511Z" fill="#FAF8FD"/>
</g>
<path d="M306.448 230.971L329.306 125.409L248.652 107.981L222.023 230.971H306.448Z" fill="white"/>
<path d="M306.947 231.579H221.269L248.19 107.252L330.036 124.935L329.903 125.53L306.947 231.567V231.579ZM222.778 230.364H305.974L328.601 125.871L249.127 108.698L222.79 230.364H222.778Z" fill="#575657"/>
<path d="M264.929 132.239L267.022 132.689L257.363 148.111L255.441 147.698L253.068 129.675L255.124 130.124L256.621 141.779C256.791 143.116 256.888 144.404 256.888 145.632C257.436 144.453 258.056 143.298 258.762 142.168L264.917 132.239H264.929Z" fill="#575657"/>
<path d="M283.809 145.048C283.225 147.722 282.094 149.679 280.415 150.918C278.724 152.158 276.681 152.523 274.26 152C271.79 151.465 270.051 150.299 269.041 148.5C268.031 146.701 267.825 144.429 268.421 141.682C269.017 138.96 270.136 136.991 271.815 135.788C273.481 134.584 275.549 134.244 278.031 134.779C280.44 135.301 282.143 136.468 283.165 138.291C284.186 140.114 284.405 142.362 283.821 145.048H283.809ZM270.464 142.156C269.978 144.416 270.087 146.239 270.793 147.625C271.498 149.01 272.776 149.897 274.625 150.286C276.486 150.687 278.007 150.408 279.211 149.448C280.415 148.488 281.255 146.871 281.753 144.599C282.24 142.35 282.143 140.539 281.449 139.178C280.756 137.817 279.491 136.93 277.642 136.529C275.78 136.128 274.248 136.407 273.031 137.368C271.815 138.328 270.963 139.932 270.476 142.168L270.464 142.156Z" fill="#575657"/>
<path d="M292.629 155.743L290.683 155.318L293.931 140.321L288.627 139.178L289.004 137.453L301.558 140.175L301.181 141.901L295.877 140.758L292.629 155.755V155.743Z" fill="#575657"/>
<path d="M311.546 159.839L302.215 157.821L305.84 141.099L315.171 143.116L314.794 144.842L307.409 143.238L306.242 148.621L313.188 150.128L312.811 151.842L305.864 150.335L304.526 156.485L311.91 158.089L311.533 159.827L311.546 159.839Z" fill="#575657"/>
<path d="M284.673 191.17L261.608 186.272L266.511 163.229L289.576 168.127L284.673 191.17ZM263.044 185.336L283.736 189.723L288.128 169.051L267.435 164.664L263.044 185.336Z" fill="#575657"/>
<path d="M274.029 184.923C274.029 184.923 273.919 184.923 273.871 184.899C273.603 184.826 272.873 184.644 268.056 176.003C267.898 175.711 267.995 175.334 268.287 175.176C268.579 175.018 268.956 175.115 269.114 175.407C271.036 178.846 273.274 182.59 274.077 183.562C276.255 182.091 288.225 173.888 294.733 169.416C295.013 169.221 295.39 169.294 295.585 169.574C295.78 169.853 295.707 170.23 295.427 170.424C294.588 170.995 274.905 184.498 274.381 184.826C274.284 184.887 274.138 184.923 274.004 184.923H274.029Z" fill="#575657"/>
<path d="M277.715 221.212L254.65 216.315L259.552 193.272L282.617 198.17L277.715 221.212ZM256.097 215.379L276.79 219.778L281.194 199.106L260.501 194.718L256.11 215.391L256.097 215.379Z" fill="#575657"/>
</g>
<defs>
<clipPath id="clip0_5439_39807">
<rect width="522" height="456" fill="white"/>
</clipPath>
</defs>
</svg>
