<svg xmlns="http://www.w3.org/2000/svg" width="150.2" height="46.146" viewBox="0 0 150.2 46.146"><defs><style>.a{fill:#375bd2;}</style></defs><path class="a" d="M63.387,26.06a8.134,8.134,0,0,1,7.866-8.46h.334c4.148,0,6.6,2.44,7.321,5.3l-2.579.862a4.539,4.539,0,0,0-4.742-3.563c-2.684,0-5.377,1.96-5.377,5.914s2.627,5.84,5.409,5.84a4.881,4.881,0,0,0,4.84-3.587l2.53.813a7.321,7.321,0,0,1-7.4,5.393,8.061,8.061,0,0,1-8.208-7.907C63.371,26.466,63.379,26.263,63.387,26.06Z" transform="translate(-11.824 -3.284)"/><path class="a" d="M88.128,34.183H85.46V17.54h2.668v6.507a3.945,3.945,0,0,1,3.172-1.4c2.758,0,4.067,1.977,4.067,4.441v7.093H92.8V27.561a2.172,2.172,0,0,0-1.822-2.44,2.35,2.35,0,0,0-.48,0,2.326,2.326,0,0,0-2.326,2.326,1.7,1.7,0,0,0,0,.2Z" transform="translate(-15.944 -3.272)"/><path class="a" d="M104.231,28.946l2.863-.447c.651-.081.813-.415.813-.813,0-.944-.634-1.7-2.115-1.7a2.131,2.131,0,0,0-2.294,1.928v.122l-2.44-.545c.2-1.936,1.96-3.66,4.71-3.66,3.449,0,4.759,1.952,4.759,4.23v5.556a11.079,11.079,0,0,0,.138,1.8h-2.44a6.507,6.507,0,0,1-.106-1.432,3.888,3.888,0,0,1-3.449,1.765,3.514,3.514,0,0,1-3.791-3.2v-.163C100.839,30.321,102.311,29.215,104.231,28.946Zm3.693,1.8v-.512l-2.92.439a1.537,1.537,0,0,0-1.489,1.521,1.48,1.48,0,0,0,1.529,1.456h.122a2.538,2.538,0,0,0,2.79-2.278,2.619,2.619,0,0,0-.041-.626Z" transform="translate(-18.821 -4.446)"/><path class="a" d="M117.926,17.256a1.741,1.741,0,0,1,1.765,1.724h0a1.741,1.741,0,1,1-1.765-1.741Zm-1.3,16.919V22.934h2.668V34.127Z" transform="translate(-21.681 -3.216)"/><path class="a" d="M126.86,35.358H124.2V24.165h2.595v1.489a3.7,3.7,0,0,1,3.311-1.814c2.733,0,4.067,1.977,4.067,4.441v7.077h-2.66V28.736c0-1.375-.626-2.489-2.3-2.489a2.359,2.359,0,0,0-2.343,2.375q0,.134,0,.268Z" transform="translate(-23.172 -4.447)"/><path class="a" d="M140.42,34.183V17.54h2.668V34.183Z" transform="translate(-26.198 -3.272)"/><path class="a" d="M149.154,17.26a1.733,1.733,0,1,1-1.724,1.724,1.733,1.733,0,0,1,1.724-1.724Zm-1.31,16.919V22.938h2.644V34.131Z" transform="translate(-27.506 -3.22)"/><path class="a" d="M158.1,35.358H155.43V24.165h2.595v1.489a3.709,3.709,0,0,1,3.311-1.814c2.733,0,4.067,1.977,4.067,4.441v7.077h-2.668V28.736a2.172,2.172,0,0,0-1.822-2.44,2.44,2.44,0,0,0-.488,0,2.359,2.359,0,0,0-2.335,2.359,1.626,1.626,0,0,0,0,.285Z" transform="translate(-28.999 -4.447)"/><path class="a" d="M177.542,27.716l4.693,6.507h-3.254l-3.254-4.612-1.375,1.448v3.124H171.71V17.54h2.644v9.973l4.295-4.523h3.538Z" transform="translate(-32.036 -3.272)"/><path class="a" d="M19.978,9.761l11.534,6.621V29.69l-11.5,6.662L8.484,29.747v-13.3L19.978,9.761m0-9.761-4.23,2.44L4.23,9.127,0,11.567V34.644l4.23,2.44,11.534,6.621,4.23,2.44,4.23-2.44,11.494-6.67,4.23-2.44V11.486l-4.23-2.44L24.191,2.44,19.962,0Z"/></svg>