<svg xmlns="http://www.w3.org/2000/svg" width="50.148" height="50.149" viewBox="0 0 50.148 50.149"><defs><style>.a,.b{fill:#ae22ff;}.b{stroke:#ae22ff;}</style></defs><g transform="translate(0)"><path class="a" d="M34.074,9A25.074,25.074,0,1,0,59.149,34.074,25.074,25.074,0,0,0,34.074,9Zm0,47.968A22.894,22.894,0,1,1,56.968,34.074,22.894,22.894,0,0,1,34.074,56.968Z" transform="translate(-9 -9)"/></g><path class="b" d="M23.189,32.785H10.633V29.3H8.653a4.909,4.909,0,0,1-4.569-3.165L3.352,24.17a.7.7,0,0,0-.654-.453H2.262A2.093,2.093,0,0,1,.2,21.275a2.152,2.152,0,0,1,2.136-1.744H3.9a3.488,3.488,0,0,1,3.209,2.11l.828,1.927a1.4,1.4,0,0,0,1.282.846h1.413A6.037,6.037,0,0,1,12.289,20.4l.192-.183c-4.43-1.465-7.429-5.057-7.429-9.059a8.449,8.449,0,0,1,1.4-4.6v-2.9A7.342,7.342,0,0,1,7.215.383L7.415,0h1.2a5.546,5.546,0,0,1,3.95,1.631l.331.331a14.4,14.4,0,0,1,8.039,0l.331-.331A5.546,5.546,0,0,1,25.212,0h1.2l.192.384a7.342,7.342,0,0,1,.767,3.27v2.9a8.449,8.449,0,0,1,1.4,4.6c0,4-3,7.595-7.429,9.059l.166.166a5.616,5.616,0,0,1,1.683,3.993Zm-11.161-1.4h9.766v-7.01a4.212,4.212,0,0,0-1.264-2.991L18.594,19.5l1.238-.288c4.438-1.046,7.542-4.351,7.542-8.048a7.078,7.078,0,0,0-1.273-4l-.122-.174V3.653a5.948,5.948,0,0,0-.445-2.258h-.323a4.158,4.158,0,0,0-2.956,1.229l-.942.933-.41-.14a12.977,12.977,0,0,0-7.987,0l-.41.14-.942-.933A4.158,4.158,0,0,0,8.61,1.395H8.287a5.948,5.948,0,0,0-.445,2.258V6.984l-.122.174a7.08,7.08,0,0,0-1.273,4c0,3.7,3.1,7,7.542,8.039l1.238.288-1.962,1.918a4.711,4.711,0,0,0-1.247,3.121,1.4,1.4,0,0,1-1.386,1.282H9.22a2.79,2.79,0,0,1-2.563-1.692l-.819-1.927A2.093,2.093,0,0,0,3.91,20.926H2.34a.752.752,0,0,0-.758.576.7.7,0,0,0,.68.82h.427a2.1,2.1,0,0,1,1.962,1.36l.733,1.953A3.505,3.505,0,0,0,8.653,27.9h1.979a1.4,1.4,0,0,1,1.4,1.4Zm0,0" transform="translate(8.606 8.748)"/></svg>