<svg xmlns="http://www.w3.org/2000/svg" width="13.789" height="20.684" viewBox="0 0 13.789 20.684"><defs><style>.a{fill:#444;}.b{fill:#ae22ff;}</style></defs><g transform="translate(0)"><g transform="translate(0.001 0)"><g transform="translate(0)"><path class="a" d="M191.788,422.55a1.673,1.673,0,0,1-1.372-.914l-4.379-8.089c-1.9-3.517-.915-8.089,2.222-10.129a6.4,6.4,0,0,1,3.529-1.125,6.522,6.522,0,0,1,5.882,3.728,7.549,7.549,0,0,1,0,7.175v.141l-4.51,8.441A1.87,1.87,0,0,1,191.788,422.55Zm0-19.132a5.818,5.818,0,0,0-3.006.914,6.546,6.546,0,0,0-1.765,8.581l4.379,8.23c.131.352.327.352.392.352a.373.373,0,0,0,.392-.352l4.51-8.3V412.7a6.5,6.5,0,0,0,0-6.19A5.433,5.433,0,0,0,191.788,403.417Z" transform="translate(-185.072 -402.292)"/><g transform="translate(4.102 4.502)"><path class="a" d="M190.116,410.586a2.821,2.821,0,1,1,2.614-2.814A2.727,2.727,0,0,1,190.116,410.586Zm0-4.5a1.693,1.693,0,1,0,1.569,1.688A1.654,1.654,0,0,0,190.116,406.084Z" transform="translate(-187.502 -404.958)"/></g></g></g><path class="b" d="M5.457,19.75.984,11.489C-.95,7.9.05,3.231,3.254,1.149A6.534,6.534,0,0,1,6.857,0a6.658,6.658,0,0,1,6.007,3.805,7.719,7.719,0,0,1,0,7.327v.141L8.258,19.894a1.9,1.9,0,0,1-1.4.79A1.7,1.7,0,0,1,5.457,19.75ZM3.788,2.082a6.685,6.685,0,0,0-1.8,8.764l4.47,8.4c.134.36.333.36.4.36a.381.381,0,0,0,.4-.36l4.6-8.475v-.144a6.619,6.619,0,0,0,0-6.319,5.544,5.544,0,0,0-5-3.16A5.936,5.936,0,0,0,3.788,2.082Zm.4,5.386a2.786,2.786,0,0,1,2.67-2.874,2.786,2.786,0,0,1,2.67,2.874,2.786,2.786,0,0,1-2.67,2.874A2.786,2.786,0,0,1,4.188,7.468Zm1.07,0a1.687,1.687,0,0,0,1.6,1.724,1.728,1.728,0,0,0,0-3.447A1.688,1.688,0,0,0,5.258,7.468Z" transform="translate(0 0)"/></g></svg>