<svg xmlns="http://www.w3.org/2000/svg" width="35.434" height="35.573" viewBox="0 0 35.434 35.573"><defs><style>.a{fill:#fff;}</style></defs><g transform="translate(-1)"><path class="a" d="M36.128,7.253,29.181.305A1.042,1.042,0,0,0,28.444,0H12.464A3.13,3.13,0,0,0,9.337,3.126V16.872a9.379,9.379,0,0,0,1.042,18.7H33.307a3.13,3.13,0,0,0,3.126-3.126V7.99a1.042,1.042,0,0,0-.305-.737Zm-6.643-3.7L31.75,5.823l1.125,1.125h-3.39ZM3.084,26.193a7.3,7.3,0,1,1,7.3,7.3A7.3,7.3,0,0,1,3.084,26.193Zm30.223,7.3H16.268A9.375,9.375,0,0,0,19.7,27.235H30.528a1.042,1.042,0,1,0,0-2.084H19.7a9.321,9.321,0,0,0-1.526-4.169H30.528a1.042,1.042,0,1,0,0-2.084H16.268a9.337,9.337,0,0,0-4.846-2.026V3.126a1.043,1.043,0,0,1,1.042-1.042H27.4V7.99a1.042,1.042,0,0,0,1.042,1.042h5.906V32.446A1.043,1.043,0,0,1,33.307,33.488Z"/><path class="a" d="M207.327,182H192.042a1.042,1.042,0,1,0,0,2.084h15.285a1.042,1.042,0,1,0,0-2.084Z" transform="translate(-176.799 -169.355)"/><path class="a" d="M78.726,335.306a1.042,1.042,0,0,0-1.474,0l-4.126,4.127-1.347-1.347a1.042,1.042,0,0,0-1.474,1.474l2.084,2.084a1.042,1.042,0,0,0,1.474,0l4.863-4.863A1.042,1.042,0,0,0,78.726,335.306Z" transform="translate(-64.206 -311.726)"/></g></svg>