<svg width="342" height="343" viewBox="0 0 342 343" fill="none" xmlns="http://www.w3.org/2000/svg">
<path d="M339.046 69.9345L271.996 2.94085C271.061 2.00801 269.952 1.26816 268.732 0.763565C267.511 0.258968 266.203 -0.000492494 264.882 7.01797e-07H110.647C102.647 0.00765475 94.9761 3.1854 89.318 8.83607C83.6599 14.4867 80.4765 22.1488 80.4663 30.1413V162.682C57.4719 165.249 36.3341 176.514 21.3944 194.164C6.45467 211.814 -1.15281 234.509 0.13446 257.588C1.42173 280.667 11.506 302.377 28.3161 318.26C45.1262 334.142 67.3859 342.992 90.5234 342.99H311.819C319.817 342.98 327.486 339.801 333.142 334.151C338.798 328.5 341.98 320.84 341.99 312.849V77.0407C341.991 75.7211 341.731 74.4144 341.226 73.1951C340.721 71.9758 339.98 70.8678 339.046 69.9345V69.9345ZM274.93 34.2585L296.791 56.1462L307.649 66.9936H274.93V34.2585ZM20.1139 252.557C20.1139 238.635 24.2462 225.027 31.9882 213.451C39.7302 201.876 50.7342 192.854 63.6086 187.527C76.4831 182.199 90.6498 180.806 104.317 183.522C117.985 186.237 130.539 192.941 140.393 202.785C150.246 212.629 156.957 225.171 159.676 238.825C162.394 252.479 160.999 266.631 155.666 279.493C150.333 292.355 141.303 303.348 129.716 311.082C118.129 318.816 104.507 322.944 90.5716 322.944C81.319 322.944 72.157 321.124 63.6086 317.586C55.0603 314.049 47.2931 308.864 40.7505 302.328C34.2079 295.792 29.018 288.033 25.4772 279.493C21.9363 270.953 20.1139 261.8 20.1139 252.557V252.557ZM311.819 322.944H147.363C165.936 307.981 177.841 286.294 180.487 262.604H284.996C287.664 262.604 290.222 261.545 292.108 259.661C293.994 257.777 295.054 255.221 295.054 252.557C295.054 249.892 293.994 247.336 292.108 245.452C290.222 243.568 287.664 242.51 284.996 242.51H180.487C178.89 228.121 173.837 214.33 165.759 202.311H284.996C287.664 202.311 290.222 201.253 292.108 199.369C293.994 197.485 295.054 194.929 295.054 192.264C295.054 189.6 293.994 187.044 292.108 185.16C290.222 183.276 287.664 182.217 284.996 182.217H147.363C133.964 171.369 117.731 164.589 100.59 162.682V30.1413C100.593 27.4775 101.653 24.9234 103.539 23.0398C105.424 21.1561 107.981 20.0968 110.647 20.0942H254.806V77.0407C254.806 79.7054 255.865 82.2609 257.751 84.1451C259.638 86.0293 262.196 87.0878 264.863 87.0878H321.866V312.849C321.864 315.511 320.805 318.064 318.921 319.947C317.038 321.831 314.484 322.891 311.819 322.896V322.944Z" fill="#FF8B97"/>
<path d="M284.997 121.925H137.47C134.802 121.925 132.244 122.983 130.358 124.868C128.472 126.752 127.413 129.307 127.413 131.972C127.413 134.637 128.472 137.192 130.358 139.076C132.244 140.961 134.802 142.019 137.47 142.019H284.997C287.664 142.019 290.222 140.961 292.108 139.076C293.994 137.192 295.054 134.637 295.054 131.972C295.054 129.307 293.994 126.752 292.108 124.868C290.222 122.983 287.664 121.925 284.997 121.925V121.925Z" fill="#FF8B97"/>
<path d="M130.491 227.362C129.557 226.428 128.449 225.688 127.228 225.182C126.007 224.677 124.699 224.417 123.378 224.417C122.057 224.417 120.749 224.677 119.528 225.182C118.308 225.688 117.199 226.428 116.265 227.362L76.4416 267.155L63.4407 254.167C61.5541 252.282 58.9954 251.223 56.3273 251.223C53.6593 251.223 51.1006 252.282 49.214 254.167C47.3274 256.052 46.2676 258.608 46.2676 261.273C46.2676 263.938 47.3274 266.495 49.214 268.379L69.3283 288.474C70.2622 289.407 71.3712 290.148 72.5917 290.653C73.8122 291.158 75.1204 291.418 76.4416 291.418C77.7628 291.418 79.071 291.158 80.2915 290.653C81.5121 290.148 82.621 289.407 83.5549 288.474L130.491 241.584C131.427 240.651 132.17 239.542 132.676 238.322C133.183 237.102 133.444 235.794 133.444 234.473C133.444 233.152 133.183 231.844 132.676 230.624C132.17 229.403 131.427 228.295 130.491 227.362Z" fill="#FF8B97"/>
</svg>
