<svg width="325" height="289" viewBox="0 0 325 289" fill="none" xmlns="http://www.w3.org/2000/svg">
<path d="M162.264 0C72.6629 0 0 66.3336 0 148.162C0 213.61 46.4945 269.134 111.003 288.743C119.117 290.108 122.079 285.533 122.079 281.604C122.079 278.081 121.937 268.765 121.855 256.406C76.7201 265.353 67.1858 236.539 67.1858 236.539C59.8222 219.421 49.1722 214.865 49.1722 214.865C34.4246 205.678 50.2677 205.863 50.2677 205.863C66.557 206.914 75.1175 221.137 75.1175 221.137C89.6014 243.77 113.112 237.24 122.363 233.44C123.823 223.867 128.022 217.337 132.668 213.629C96.6405 209.884 58.747 197.175 58.747 140.415C58.747 124.237 65.0761 111.011 75.4623 100.644C73.7786 96.8995 68.2204 81.8287 77.0446 61.4453C77.0446 61.4453 90.6765 57.4608 121.673 76.6268C134.615 73.3433 148.49 71.7015 162.305 71.6462C176.079 71.72 189.974 73.3433 202.937 76.6452C233.913 57.4793 247.525 61.4637 247.525 61.4637C256.369 81.8656 250.811 96.9179 249.147 100.663C259.554 111.029 265.822 124.256 265.822 140.433C265.822 197.341 227.888 209.866 191.739 213.537C197.561 218.111 202.754 227.15 202.754 240.967C202.754 260.778 202.551 276.753 202.551 281.604C202.551 285.57 205.473 290.182 213.709 288.725C278.115 269.098 324.569 213.592 324.569 148.162C324.569 66.3336 251.906 0 162.264 0Z" fill="#FF8B97"/>
</svg>
