<svg width="341" height="339" viewBox="0 0 341 339" fill="none" xmlns="http://www.w3.org/2000/svg">
<g clip-path="url(#clip0_1447_6545)">
<path d="M97.9017 216.875C97.8432 217.656 97.5477 218.401 97.0546 219.01C96.5616 219.619 95.8945 220.063 95.1424 220.283C94.3904 220.503 93.5892 220.488 92.8459 220.24C92.1027 219.992 91.4527 219.523 90.9829 218.896L35.7871 167.377C35.1263 166.923 34.6117 166.287 34.3056 165.545C33.9996 164.804 33.9153 163.99 34.0631 163.202C34.2109 162.414 34.5844 161.686 35.1381 161.107C35.6919 160.527 36.402 160.121 37.1823 159.937L114.607 128.975C118.215 127.532 120.38 129.428 119.418 133.191L97.9017 216.875Z" fill="#FF8B97"/>
<path d="M52.2801 265.786C49.3356 268.318 46.3622 267.269 45.6693 263.448L30.5424 179.715C29.8496 175.866 31.6106 174.903 34.4493 177.588L86.9796 226.625C87.647 227.221 88.1775 227.955 88.5347 228.776C88.8919 229.597 89.0673 230.485 89.049 231.38C89.0308 232.275 88.8192 233.156 88.4287 233.961C88.0383 234.767 87.4783 235.478 86.7872 236.047L52.2801 265.786Z" fill="#FF8B97"/>
<path d="M115.656 112.269C116.257 112.842 116.697 113.563 116.931 114.36C117.166 115.157 117.186 116.001 116.992 116.809C116.797 117.616 116.393 118.358 115.82 118.96C115.248 119.562 114.528 120.003 113.731 120.238L36.7494 151.036C33.1409 152.48 31.303 150.68 32.6598 147.042L64.28 62.0491C64.4284 61.2873 64.8035 60.5881 65.3561 60.0433C65.9087 59.4985 66.6131 59.1335 67.3768 58.9961C68.1405 58.8587 68.9279 58.9554 69.6357 59.2735C70.3435 59.5916 70.9386 60.1163 71.3431 60.7786L115.656 112.269Z" fill="#FF8B97"/>
<path d="M34.9784 251.554C35.6712 255.403 34.5069 255.836 32.3995 252.574L2.54023 206.483C1.51836 204.714 1.01273 202.694 1.08077 200.653C1.14881 198.611 1.78778 196.63 2.92514 194.933L16.2622 177.061C18.5813 173.952 21.0736 174.53 21.7375 178.351L34.9784 251.554Z" fill="#FF8B97"/>
<path d="M25.5967 141.815C24.2399 145.453 22.1325 145.415 20.9008 141.738L10.7007 111.123C10.1487 109.12 10.1356 107.007 10.6629 104.997C11.1901 102.988 12.2389 101.153 13.703 99.6795L50.0672 66.7159C52.9541 64.1077 54.1858 64.9547 52.8386 68.6408L25.5967 141.815Z" fill="#FF8B97"/>
<path d="M15.9929 153.624C16.5587 155.709 16.6737 157.89 16.3302 160.022C15.9868 162.155 15.1927 164.19 14.001 165.991L3.56031 179.975C1.24124 183.094 -0.288772 182.468 0.0576461 178.609L5.06146 130.015C5.45599 126.166 6.79354 126.002 8.01563 129.688L15.9929 153.624Z" fill="#FF8B97"/>
<path d="M57.0049 44.1847C58.2943 45.6861 57.0049 49.045 54.118 51.6532L37.7594 66.4844C34.8726 69.0926 34.4203 68.6692 36.7394 65.522L50.4422 47.0816C52.7516 43.9633 55.7154 42.6448 57.0049 44.1462" fill="#FF8B97"/>
<path d="M160.257 302.804C159.96 303.548 159.453 304.191 158.798 304.653C158.142 305.115 157.367 305.377 156.566 305.406C155.765 305.436 154.972 305.232 154.285 304.82C153.597 304.407 153.044 303.804 152.693 303.083L109.93 240.851C109.379 240.294 109.012 239.582 108.877 238.81C108.742 238.038 108.845 237.244 109.174 236.532C109.502 235.821 110.04 235.227 110.715 234.829C111.39 234.431 112.17 234.249 112.951 234.307L198.873 225.433C202.722 225.038 204.29 227.454 202.337 230.803L160.257 302.804Z" fill="#FF8B97"/>
<path d="M142.339 302.871C144.533 306.076 143.302 307.683 139.655 306.422L59.1125 279.05C58.3447 278.948 57.6286 278.607 57.0653 278.075C56.502 277.543 56.12 276.848 55.9732 276.088C55.8264 275.327 55.9223 274.539 56.2473 273.836C56.5724 273.133 57.1101 272.55 57.7845 272.169L92.3012 242.43C92.9666 241.829 93.7541 241.38 94.6095 241.113C95.465 240.846 96.3682 240.767 97.2569 240.882C98.1457 240.998 98.999 241.304 99.7581 241.78C100.517 242.257 101.164 242.892 101.654 243.642L142.339 302.871Z" fill="#FF8B97"/>
<path d="M200.662 210.976C203.193 213.921 202.106 216.655 198.247 217.049L111.055 226.048C110.249 226.219 109.411 226.171 108.63 225.907C107.849 225.644 107.153 225.175 106.615 224.55C106.077 223.926 105.717 223.168 105.572 222.356C105.427 221.545 105.503 220.709 105.792 219.937L127.616 135.021C128.578 131.257 131.465 130.584 133.986 133.529L200.662 210.976Z" fill="#FF8B97"/>
<path d="M263.335 283.736C263.932 284.233 264.365 284.9 264.576 285.648C264.787 286.396 264.767 287.191 264.518 287.927C264.269 288.663 263.803 289.307 263.181 289.774C262.56 290.24 261.812 290.507 261.035 290.54L172.285 309.221C168.484 310.02 166.983 307.932 168.936 304.582L210.785 232.977C211.134 232.222 211.675 231.572 212.355 231.092C213.034 230.613 213.828 230.321 214.656 230.246C215.484 230.171 216.318 230.315 217.072 230.664C217.827 231.014 218.476 231.556 218.955 232.236L263.335 283.736Z" fill="#FF8B97"/>
<path d="M120.602 331.492C118.746 332.379 116.678 332.724 114.635 332.487C112.593 332.25 110.658 331.442 109.055 330.154L67.8693 293.783C64.9825 291.214 65.5791 290.136 69.2646 291.387L139.751 315.342C143.427 316.593 143.6 319.115 140.213 320.953L120.602 331.492Z" fill="#FF8B97"/>
<path d="M216.299 334.947C214.625 336.177 212.656 336.943 210.591 337.166C208.526 337.389 206.438 337.062 204.54 336.218L175.788 321.598C172.333 319.837 172.603 317.749 176.404 316.94L252.837 300.848C256.638 300.049 257.282 301.406 254.28 303.86L216.299 334.947Z" fill="#FF8B97"/>
<path d="M136.238 336.748C132.389 336.565 131.985 334.919 135.411 333.081L150.807 324.824C152.764 323.915 154.891 323.433 157.048 323.41C159.204 323.386 161.341 323.822 163.317 324.689L185.795 336.123C189.26 337.884 188.913 339.173 185.035 339.01L136.238 336.748Z" fill="#FF8B97"/>
<path d="M277.605 300.319C278.895 301.82 277.153 304.544 273.756 306.373L253.501 317.19C250.075 319.019 249.728 318.499 252.731 316.045L269.821 302.061C272.823 299.597 276.345 298.817 277.634 300.319" fill="#FF8B97"/>
<path d="M226.393 210.101C222.785 211.545 220.62 209.649 221.582 205.885L243.089 122.211C243.147 121.429 243.443 120.685 243.936 120.076C244.429 119.467 245.096 119.023 245.848 118.803C246.6 118.583 247.401 118.598 248.145 118.846C248.888 119.094 249.538 119.563 250.008 120.19L305.213 171.709C305.874 172.163 306.389 172.799 306.695 173.54C307.001 174.281 307.085 175.095 306.937 175.883C306.789 176.671 306.416 177.399 305.862 177.979C305.308 178.559 304.598 178.965 303.818 179.149L226.393 210.101Z" fill="#FF8B97"/>
<path d="M310.457 159.284C311.15 163.134 309.389 164.096 306.551 161.411L254.011 112.384C253.341 111.788 252.808 111.054 252.449 110.233C252.09 109.412 251.913 108.522 251.931 107.626C251.948 106.73 252.159 105.848 252.55 105.041C252.941 104.234 253.501 103.522 254.193 102.952L288.71 73.2225C291.655 70.6913 294.628 71.7403 295.321 75.5612L310.457 159.284Z" fill="#FF8B97"/>
<path d="M276.769 276.981C276.622 277.745 276.248 278.447 275.694 278.995C275.141 279.542 274.434 279.908 273.668 280.046C272.903 280.184 272.113 280.086 271.404 279.765C270.694 279.445 270.099 278.917 269.696 278.251L225.354 226.742C224.753 226.169 224.313 225.447 224.079 224.651C223.844 223.854 223.824 223.009 224.019 222.202C224.214 221.394 224.617 220.653 225.19 220.051C225.762 219.449 226.483 219.008 227.279 218.773L304.261 187.974C307.869 186.531 309.707 188.331 308.36 191.969L276.769 276.981Z" fill="#FF8B97"/>
<path d="M338.45 132.557C339.471 134.326 339.976 136.345 339.908 138.386C339.84 140.428 339.201 142.409 338.065 144.106L324.728 161.979C322.399 165.087 319.916 164.51 319.253 160.689L306.012 87.4184C305.319 83.5687 306.483 83.1356 308.591 86.3982L338.45 132.557Z" fill="#FF8B97"/>
<path d="M330.3 227.896C330.853 229.899 330.866 232.012 330.339 234.022C329.812 236.032 328.763 237.866 327.298 239.339L290.933 272.303C288.047 274.911 286.805 274.064 288.162 270.378L315.404 197.156C316.761 193.518 318.868 193.556 320.1 197.242L330.3 227.896Z" fill="#FF8B97"/>
<path d="M335.929 208.993C335.525 212.842 334.206 213.006 332.975 209.32L324.997 185.394C324.434 183.31 324.32 181.131 324.663 179C325.006 176.87 325.799 174.836 326.989 173.036L337.43 159.042C339.749 155.933 341.327 156.54 340.932 160.409L335.929 208.993Z" fill="#FF8B97"/>
<path d="M290.49 291.889C288.171 295.007 285.217 296.325 283.928 294.824C282.638 293.323 283.928 289.964 286.815 287.356L303.173 272.524C306.06 269.916 306.512 270.33 304.193 273.487L290.49 291.889Z" fill="#FF8B97"/>
<path d="M231.08 98.1586C231.631 98.7166 231.999 99.4297 232.134 100.203C232.269 100.975 232.164 101.771 231.835 102.483C231.505 103.195 230.966 103.789 230.289 104.186C229.613 104.582 228.831 104.763 228.049 104.703L142.128 113.577C138.279 113.971 136.71 111.556 138.673 108.206L180.801 36.2063C181.098 35.4615 181.605 34.819 182.26 34.357C182.916 33.8949 183.691 33.6332 184.492 33.6036C185.293 33.5741 186.086 33.7779 186.773 34.1904C187.461 34.603 188.014 35.2063 188.365 35.9272L231.08 98.1586Z" fill="#FF8B97"/>
<path d="M248.718 96.6279C248.053 97.2284 247.265 97.6776 246.41 97.9447C245.554 98.2119 244.651 98.2905 243.763 98.1753C242.874 98.06 242.02 97.7537 241.261 97.2772C240.502 96.8008 239.855 96.1656 239.365 95.4153L198.671 36.1867C196.467 32.9818 197.708 31.3745 201.355 32.6353L281.897 60.0071C282.666 60.108 283.383 60.4481 283.948 60.9791C284.512 61.5101 284.896 62.2052 285.043 62.9661C285.191 63.7271 285.096 64.5152 284.772 65.2191C284.447 65.923 283.91 66.507 283.235 66.8886L248.718 96.6279Z" fill="#FF8B97"/>
<path d="M213.422 203.989C212.46 207.752 209.573 208.425 207.052 205.48L140.29 128.042C137.759 125.097 138.837 122.364 142.705 121.97L229.896 112.971C230.703 112.799 231.54 112.848 232.321 113.112C233.103 113.375 233.799 113.844 234.337 114.468C234.875 115.093 235.235 115.851 235.38 116.663C235.525 117.474 235.449 118.31 235.16 119.082L213.422 203.989Z" fill="#FF8B97"/>
<path d="M130.195 106.041C129.847 106.796 129.306 107.446 128.626 107.926C127.947 108.405 127.153 108.697 126.325 108.772C125.496 108.848 124.663 108.703 123.908 108.354C123.154 108.004 122.504 107.462 122.026 106.782L77.6651 55.3208C77.0679 54.8233 76.6353 54.1567 76.4241 53.4086C76.2129 52.6606 76.2331 51.8661 76.482 51.1297C76.7309 50.3934 77.1968 49.7496 77.8185 49.2831C78.4402 48.8167 79.1884 48.5493 79.9649 48.5163L168.696 29.8354C172.545 29.0365 174.008 31.125 172.045 34.4743L130.195 106.041Z" fill="#FF8B97"/>
<path d="M201.23 23.6752C197.554 22.424 197.381 19.9024 200.768 18.0642L220.418 7.47734C222.273 6.59021 224.34 6.24425 226.383 6.47919C228.425 6.71412 230.36 7.52042 231.965 8.8055L273.102 45.2435C275.989 47.8132 275.383 48.9007 271.707 47.6496L201.23 23.6752Z" fill="#FF8B97"/>
<path d="M88.1536 38.1697C84.3526 38.9685 83.7079 37.6115 86.7102 35.1572L124.701 4.07044C126.368 2.85025 128.326 2.08972 130.38 1.86506C132.434 1.64041 134.51 1.95951 136.402 2.7904L165.155 17.4195C168.619 19.1807 168.34 21.2692 164.539 22.0777L88.1536 38.1697Z" fill="#FF8B97"/>
<path d="M190.203 14.1863C188.246 15.0956 186.119 15.5779 183.962 15.6011C181.805 15.6243 179.668 15.188 177.693 14.3211L155.205 2.88728C151.741 1.12601 152.087 -0.163657 155.965 -4.26402e-05L204.752 2.25207C208.601 2.43493 209.005 4.0807 205.589 5.91896L190.203 14.1863Z" fill="#FF8B97"/>
<path d="M71.2271 36.957C68.2248 39.4209 64.7029 40.2005 63.4135 38.6991C62.124 37.1977 63.8658 34.4739 67.2626 32.6453L87.528 21.8275C90.9537 19.9989 91.3001 20.5186 88.2882 22.9728L71.2271 36.957Z" fill="#FF8B97"/>
<path d="M45.1978 282.996C46.6989 281.706 50.0572 282.996 52.665 285.883L67.4936 302.245C70.1013 305.132 69.6876 305.584 66.5313 303.265L48.0942 289.56C44.9765 287.24 43.6581 284.285 45.1593 282.996" fill="#FF8B97"/>
<path d="M301.287 62.3945C302.788 61.1049 305.512 62.8469 307.34 66.2443L318.156 86.5132C319.984 89.9395 319.474 90.286 317.011 87.2736L303.019 70.2095C300.566 67.2067 299.777 63.6842 301.278 62.3945" fill="#FF8B97"/>
<path d="M292.858 49.4592C295.975 51.7691 297.294 54.7334 295.793 56.0231C294.291 57.3127 290.933 56.0231 288.325 53.1357L273.497 36.7743C270.889 33.887 271.303 33.4346 274.459 35.7541L292.858 49.4592Z" fill="#FF8B97"/>
<path d="M38.0098 268.81C40.4636 271.813 41.2527 275.335 39.7516 276.625C38.2504 277.915 35.5272 276.173 33.6989 272.775L22.8733 252.506C21.045 249.08 21.5646 248.734 24.0184 251.746L38.0098 268.81Z" fill="#FF8B97"/>
</g>
<defs>
<clipPath id="clip0_1447_6545">
<rect width="341" height="339" fill="white"/>
</clipPath>
</defs>
</svg>
