<svg xmlns="http://www.w3.org/2000/svg" width="35.437" height="35.223" viewBox="0 0 35.437 35.223"><defs><style>.a{fill:#fff;}</style></defs><g transform="translate(-259 -2744.427)"><path class="a" d="M22.291,68.3a.4.4,0,0,1-.719.21l-5.736-5.353a.43.43,0,0,1,.145-.773l8.046-3.217c.375-.15.6.047.5.438Z" transform="translate(246.883 2698.661)"/><path class="a" d="M16.267,90.357c-.306.263-.615.154-.687-.243l-1.572-8.7c-.072-.4.111-.5.406-.221l5.459,5.095a.645.645,0,0,1-.02.979Z" transform="translate(248.166 2681.686)"/><path class="a" d="M23.484,32.643a.492.492,0,0,1-.2.828l-8,3.2c-.375.15-.566-.037-.425-.415l3.286-8.831a.4.4,0,0,1,.734-.132Z" transform="translate(247.535 2723.449)"/><path class="a" d="M4.018,88.483c.072.4-.049.445-.268.106L.647,83.8a1.135,1.135,0,0,1,.04-1.2l1.386-1.857c.241-.323.5-.263.569.134Z" transform="translate(258.617 2682.081)"/><path class="a" d="M6.31,37.964c-.141.378-.36.374-.488-.008l-1.06-3.181a1.225,1.225,0,0,1,.312-1.189l3.779-3.425c.3-.271.428-.183.288.2Z" transform="translate(255.35 2721.198)"/><path class="a" d="M1.662,61.215A1.579,1.579,0,0,1,1.455,62.5L.37,63.953c-.241.324-.4.259-.364-.142l.52-5.049c.041-.4.18-.417.307-.034Z" transform="translate(259 2699.174)"/><path class="a" d="M18.5,20.113c.134.156,0,.505-.3.776l-1.7,1.541c-.3.271-.347.227-.106-.1l1.424-1.916c.24-.324.548-.461.682-.305" transform="translate(246.424 2728.905)"/><path class="a" d="M55.449,111.764a.43.43,0,0,1-.786.029l-4.444-6.466a.4.4,0,0,1,.314-.68l8.929-.922c.4-.041.563.21.36.558Z" transform="translate(220.205 2664.125)"/><path class="a" d="M34.714,117.273c.228.333.1.5-.279.369l-8.37-2.844a.384.384,0,0,1-.138-.715l3.587-3.09a.645.645,0,0,1,.972.126Z" transform="translate(239.078 2658.623)"/><path class="a" d="M58.47,68.841c.263.306.15.59-.251.631l-9.061.935a.478.478,0,0,1-.547-.635l2.268-8.823c.1-.391.4-.461.662-.155Z" transform="translate(221.383 2697.507)"/><path class="a" d="M87.262,111.506a.4.4,0,0,1-.239.707L77.8,114.154c-.395.083-.551-.134-.348-.482l4.349-7.44a.492.492,0,0,1,.849-.077Z" transform="translate(199.104 2662.402)"/><path class="a" d="M36.074,138.072a1.135,1.135,0,0,1-1.2-.139l-4.28-3.779c-.3-.267-.238-.379.145-.249l7.325,2.489c.382.13.4.392.048.583Z" transform="translate(235.459 2640.798)"/><path class="a" d="M84.259,141.91a1.224,1.224,0,0,1-1.222.132l-2.988-1.519c-.359-.183-.331-.4.064-.484l7.943-1.672c.395-.083.462.058.15.313Z" transform="translate(197.219 2637.319)"/><path class="a" d="M61.578,150.212c-.4-.019-.442-.19-.086-.381l1.6-.858a1.58,1.58,0,0,1,1.3-.014l2.336,1.188c.36.183.324.317-.079.3Z" transform="translate(211.58 2629.204)"/><path class="a" d="M118.165,137.928c.134.156-.047.439-.4.629l-2.105,1.124c-.356.19-.392.136-.08-.119l1.776-1.453c.312-.256.678-.337.812-.181" transform="translate(169.684 2637.703)"/><path class="a" d="M102.408,64.1c-.375.15-.6-.047-.5-.438l2.235-8.694a.4.4,0,0,1,.719-.21l5.737,5.353a.43.43,0,0,1-.145.773Z" transform="translate(180.119 2702.157)"/><path class="a" d="M122.036,42.144c.072.4-.111.5-.406.221l-5.46-5.094a.645.645,0,0,1,.019-.98l3.587-3.089c.306-.263.615-.154.687.243Z" transform="translate(169.227 2718.833)"/><path class="a" d="M108.543,95.578a.4.4,0,0,1-.735.132L103.2,90.358a.492.492,0,0,1,.2-.828l8-3.2c.375-.15.566.037.426.415Z" transform="translate(179.219 2677.628)"/><path class="a" d="M144.147,43.792a1.136,1.136,0,0,1-.04,1.2l-1.386,1.857c-.242.323-.5.263-.569-.134l-1.376-7.613c-.072-.4.049-.445.268-.106Z" transform="translate(150.025 2714.408)"/><path class="a" d="M136.819,92.974a1.224,1.224,0,0,1-.312,1.189l-3.779,3.425c-.3.271-.429.183-.288-.2l2.831-7.608c.141-.378.36-.374.488.009Z" transform="translate(156.506 2675.132)"/><path class="a" d="M150.529,77.67c-.042.4-.179.417-.307.034l-.829-2.486a1.58,1.58,0,0,1,.207-1.284l1.085-1.454c.241-.323.405-.26.364.142Z" transform="translate(143.381 2688.472)"/><path class="a" d="M131.2,126.812c-.241.324-.548.461-.682.305s0-.505.3-.776l1.7-1.541c.3-.271.347-.228.106.1Z" transform="translate(157.988 2647.943)"/><path class="a" d="M73.125,22.172a.4.4,0,0,1-.315.68l-8.929.922c-.4.041-.563-.21-.359-.558L67.9,15.735a.43.43,0,0,1,.786-.029Z" transform="translate(209.889 2732.454)"/><path class="a" d="M96.247,21.5a.645.645,0,0,1-.972-.126l-4.229-6.154c-.229-.333-.1-.5.279-.369l8.37,2.844a.384.384,0,0,1,.139.715Z" transform="translate(188.6 2732.967)"/><path class="a" d="M71.7,61.429c-.1.391-.4.461-.662.155L64.1,53.538c-.263-.306-.151-.59.251-.631l9.061-.935a.478.478,0,0,1,.547.635Z" transform="translate(209.479 2704.193)"/><path class="a" d="M40.716,21.57a.492.492,0,0,1-.849.077L35.257,16.3a.4.4,0,0,1,.239-.707l9.221-1.941c.4-.083.552.134.348.482Z" transform="translate(231.814 2733.875)"/><path class="a" d="M91.584,4.759c-.382-.13-.4-.392-.048-.583l2.042-1.1a1.136,1.136,0,0,1,1.2.138L99.053,7c.3.267.237.38-.145.25Z" transform="translate(188.328 2742.128)"/><path class="a" d="M39.386,4.595c-.395.083-.462-.058-.15-.313l3.948-3.23A1.225,1.225,0,0,1,44.4.919l2.988,1.52c.36.183.331.4-.064.484Z" transform="translate(228.775 2743.798)"/><path class="a" d="M74.223,1.474a1.579,1.579,0,0,1-1.3.014L70.586.3c-.36-.183-.324-.317.079-.3l5.07.234c.4.019.442.19.087.381Z" transform="translate(204.543 2744.427)"/><path class="a" d="M29.841,11.225c-.312.256-.678.337-.812.181s.047-.439.4-.629l2.106-1.124c.356-.19.392-.136.079.119Z" transform="translate(236.561 2737.042)"/><path class="a" d="M20.584,130.051c.156-.134.505,0,.776.3l1.541,1.7c.271.3.228.347-.1.106l-1.916-1.424c-.324-.241-.461-.548-.305-.682" transform="translate(243.113 2643.78)"/><path class="a" d="M138.4,28.558c.156-.134.439.047.629.4l1.124,2.106c.19.356.137.392-.119.079L138.58,29.37c-.255-.312-.337-.678-.181-.812" transform="translate(151.91 2722.352)"/><path class="a" d="M127.284,17.35c.324.24.461.548.305.682s-.505,0-.776-.3l-1.541-1.7c-.271-.3-.228-.347.1-.106Z" transform="translate(162.15 2732.216)"/><path class="a" d="M11.7,116.88c.255.312.337.678.181.812s-.439-.047-.629-.4l-1.125-2.106c-.19-.356-.136-.392.119-.079Z" transform="translate(251.25 2655.477)"/></g></svg>