<svg xmlns="http://www.w3.org/2000/svg" xmlns:xlink="http://www.w3.org/1999/xlink" width="50.148" height="50.149" viewBox="0 0 50.148 50.149"><defs><style>.a{fill:url(#a);}.b{fill:url(#b);}</style><linearGradient id="a" x1="0.038" y1="1.038" x2="0.876" y2="0.063" gradientUnits="objectBoundingBox"><stop offset="0" stop-color="#fff33b"/><stop offset="0" stop-color="#72a1fd"/><stop offset="1" stop-color="#60e5ff"/></linearGradient><linearGradient id="b" x1="-0.209" y1="1.625" x2="1.076" y2="-0.415" gradientUnits="objectBoundingBox"><stop offset="0" stop-color="#6fa0fa"/><stop offset="1" stop-color="#63d6fe"/></linearGradient></defs><g transform="translate(0)"><path class="a" d="M34.074,9A25.074,25.074,0,1,0,59.149,34.074,25.074,25.074,0,0,0,34.074,9Zm0,47.968A22.894,22.894,0,1,1,56.968,34.074,22.894,22.894,0,0,1,34.074,56.968Z" transform="translate(-9 -9)"/></g><g transform="translate(8.721 13.082)"><path class="b" d="M44.364,21H22.342A5.35,5.35,0,0,0,17,26.342v13.3a5.35,5.35,0,0,0,5.342,5.342H44.364a5.35,5.35,0,0,0,5.342-5.342v-13.3A5.35,5.35,0,0,0,44.364,21Zm3.162,18.642A3.162,3.162,0,0,1,44.364,42.8H22.342a3.162,3.162,0,0,1-3.162-3.162v-13.3a3.162,3.162,0,0,1,3.162-3.162H44.364a3.162,3.162,0,0,1,3.162,3.162Z" transform="translate(-17 -21)"/><path class="b" d="M44.665,25.319a1.09,1.09,0,0,0-1.542,0L32.992,35.451,22.861,25.319a1.09,1.09,0,1,0-1.542,1.542l5.77,5.77-5.77,5.77a1.09,1.09,0,1,0,1.542,1.542l5.77-5.77,3.59,3.59a1.09,1.09,0,0,0,1.542,0l3.59-3.59,5.77,5.77A1.09,1.09,0,1,0,44.665,38.4l-5.77-5.77,5.77-5.77a1.09,1.09,0,0,0,0-1.542Z" transform="translate(-16.639 -20.639)"/></g></svg>