<svg xmlns="http://www.w3.org/2000/svg" xmlns:xlink="http://www.w3.org/1999/xlink" width="50.148" height="50.149" viewBox="0 0 50.148 50.149"><defs><style>.a{fill:url(#a);}.b{fill:url(#b);}</style><linearGradient id="a" x1="0.038" y1="1.038" x2="0.876" y2="0.063" gradientUnits="objectBoundingBox"><stop offset="0" stop-color="#fff33b"/><stop offset="0" stop-color="#72a1fd"/><stop offset="1" stop-color="#60e5ff"/></linearGradient><linearGradient id="b" x1="0.5" y1="-0.145" x2="0.5" y2="1" gradientUnits="objectBoundingBox"><stop offset="0" stop-color="#71a1fc"/><stop offset="1" stop-color="#61dfff"/></linearGradient></defs><g transform="translate(0)"><path class="a" d="M34.074,9A25.074,25.074,0,1,0,59.149,34.074,25.074,25.074,0,0,0,34.074,9Zm0,47.968A22.894,22.894,0,1,1,56.968,34.074,22.894,22.894,0,0,1,34.074,56.968Z" transform="translate(-9 -9)"/></g><g transform="translate(10.902 9.602)"><g transform="translate(0 0)"><path class="b" d="M15.717,189.335a.829.829,0,0,0,0,1.176,3.461,3.461,0,0,1,0,4.89l-7.082,7.082a3.461,3.461,0,0,1-4.89,0l-1.065-1.065a3.461,3.461,0,0,1,0-4.89l7.082-7.083a.832.832,0,0,0-1.176-1.176L1.5,195.352a5.115,5.115,0,0,0,0,7.243l1.065,1.065a5.13,5.13,0,0,0,7.243,0l7.082-7.082a5.13,5.13,0,0,0,0-7.243A.829.829,0,0,0,15.717,189.335Z" transform="translate(0 -177.467)"/><path class="b" d="M201.187,19.162,200.122,18.1a5.13,5.13,0,0,0-7.243,0L185.8,25.179a5.13,5.13,0,0,0,0,7.243.832.832,0,0,0,1.176-1.176,3.461,3.461,0,0,1,0-4.89l7.082-7.082a3.461,3.461,0,0,1,4.89,0l1.065,1.065a3.461,3.461,0,0,1,0,4.89l-7.083,7.082a.835.835,0,0,0,.585,1.423.811.811,0,0,0,.585-.246l7.082-7.082a5.122,5.122,0,0,0,.006-7.243Z" transform="translate(-172.95 -16.6)"/></g></g></svg>