<svg width="44" height="44" viewBox="0 0 44 44" fill="none" xmlns="http://www.w3.org/2000/svg">
<path d="M20.4355 43.9999C18.8088 43.9999 17.271 43.6667 15.8222 43.0002C14.3989 42.3082 13.2424 41.3085 12.3528 40.0012C11.4632 38.694 11.0184 37.1047 11.0184 35.2335V24.8139C11.0184 24.3012 10.8659 23.9039 10.5609 23.6219C10.2559 23.34 9.88731 23.199 9.45522 23.199C8.99771 23.199 8.61645 23.34 8.31144 23.6219C8.00643 23.9039 7.85393 24.3012 7.85393 24.8139V43.5001H0V24.8908C0 23.0196 0.432093 21.4304 1.29628 20.1231C2.18588 18.8158 3.35508 17.8161 4.80386 17.1241C6.25264 16.432 7.8031 16.0859 9.45522 16.0859C11.1073 16.0859 12.6451 16.432 14.0684 17.1241C15.4918 17.8161 16.6483 18.8158 17.5379 20.1231C18.4275 21.4304 18.8723 23.0196 18.8723 24.8908V35.3104C18.8723 35.8231 19.0248 36.2332 19.3298 36.5408C19.6602 36.8228 20.0161 36.9638 20.3973 36.9638C20.8294 36.9638 21.2107 36.8228 21.5411 36.5408C21.8715 36.2332 22.0368 35.8231 22.0368 35.3104V16.5858H29.8526V35.2335C29.8526 37.1047 29.4078 38.694 28.5182 40.0012C27.6285 41.3085 26.4594 42.3082 25.0106 43.0002C23.5872 43.6667 22.0622 43.9999 20.4355 43.9999Z" fill="url(#paint0_linear)"/>
<path d="M37.8577 43.0537C36.1641 43.0537 34.4211 42.7004 33.1067 41.9939C31.7923 41.2622 30.756 40.2781 29.9977 39.0417C29.2394 37.78 28.8602 36.3544 28.8602 34.7647V23.1827H22V16.5591L44 16.5591V22.9556H37.289V35.181C37.289 35.5847 37.428 35.938 37.706 36.2408C37.9841 36.5184 38.3253 36.6571 38.7298 36.6571H43.6357V43.0537H37.8577Z" fill="url(#paint1_linear)"/>
<path d="M11.0307 25.5484V7.81051C11.0307 6.32627 11.3932 5.00018 12.1183 3.83226C12.8433 2.64 13.8341 1.70323 15.0908 1.02194C16.3717 0.340646 17.8217 0 19.4409 0H29.4823V6.16811H20.6372C20.1297 6.16811 19.7067 6.33843 19.3684 6.67908C19.0301 7.01972 18.8609 7.44553 18.8609 7.9565V10.7668H29.2458V16.7889H18.8609V25.5484H11.0307Z" fill="url(#paint2_linear)"/>
<g style="mix-blend-mode:overlay" opacity="0.8">
<rect x="21.7637" y="23.1826" width="7.09678" height="1.89247" fill="white" fill-opacity="0.5"/>
</g>
<g style="mix-blend-mode:overlay">
<rect x="14.6665" y="25.5483" width="10.8817" height="1.89247" transform="rotate(90 14.6665 25.5483)" fill="white" fill-opacity="0.5"/>
</g>
<g style="mix-blend-mode:overlay" opacity="0.8">
<rect width="10.4086" height="1.89247" transform="matrix(1 0 0 -1 18.9248 16.5591)" fill="white" fill-opacity="0.5"/>
</g>
<rect x="1.41943" y="34.5376" width="1.89247" height="7.09677" fill="white"/>
<rect x="41.1611" y="17.5054" width="1.89248" height="1.89247" fill="white"/>
<g style="mix-blend-mode:overlay" opacity="0.5">
<rect x="40.688" y="40.2148" width="1.89247" height="1.89247" fill="white"/>
</g>
<path fill-rule="evenodd" clip-rule="evenodd" d="M38.3224 0.473145C35.187 0.473145 32.645 3.01508 32.645 6.15056C32.645 9.28605 35.187 11.828 38.3224 11.828C41.4579 11.828 43.9999 9.28605 43.9999 6.15056C43.9999 3.01508 41.4579 0.473145 38.3224 0.473145ZM40.7833 5.19056C40.8287 5.13877 40.8632 5.07843 40.8848 5.0131C40.9065 4.94777 40.9148 4.87878 40.9094 4.81017C40.904 4.74156 40.8849 4.67473 40.8533 4.6136C40.8217 4.55247 40.7782 4.49828 40.7253 4.45422C40.6724 4.41017 40.6113 4.37712 40.5455 4.35705C40.4796 4.33697 40.4105 4.33026 40.342 4.33731C40.2735 4.34437 40.2072 4.36504 40.1468 4.39812C40.0865 4.43119 40.0333 4.47601 39.9906 4.52992L37.7712 7.19263L36.6228 6.04372C36.5255 5.94971 36.3951 5.89768 36.2598 5.89886C36.1245 5.90004 35.995 5.95432 35.8993 6.05001C35.8036 6.14571 35.7493 6.27516 35.7482 6.41049C35.747 6.54581 35.799 6.67619 35.893 6.77353L37.4414 8.32192C37.4921 8.3726 37.5528 8.41216 37.6197 8.43808C37.6865 8.46399 37.7581 8.4757 37.8297 8.47245C37.9013 8.46919 37.9715 8.45105 38.0357 8.41918C38.0999 8.38731 38.1568 8.34241 38.2027 8.28734L40.7833 5.19056Z" fill="url(#paint3_linear)"/>
<rect width="3.2328" height="1.89248" transform="matrix(0.707107 0.707106 -0.707107 0.707106 36.7393 5.12158)" fill="white"/>
<rect x="41.6392" y="4.87451" width="5.47452" height="1.89247" transform="rotate(135 41.6392 4.87451)" fill="white"/>
<rect x="26.4946" y="0.946289" width="1.89248" height="1.89247" fill="white"/>
<defs>
<linearGradient id="paint0_linear" x1="4.63158" y1="39.9473" x2="7.04375" y2="19.1492" gradientUnits="userSpaceOnUse">
<stop stop-color="white" stop-opacity="0.85"/>
<stop offset="1" stop-color="white" stop-opacity="0.5"/>
</linearGradient>
<linearGradient id="paint1_linear" x1="30.6842" y1="23.1578" x2="41.6842" y2="13.3157" gradientUnits="userSpaceOnUse">
<stop stop-color="white"/>
<stop offset="1" stop-color="white" stop-opacity="0"/>
</linearGradient>
<linearGradient id="paint2_linear" x1="13.8947" y1="16.7895" x2="30.1052" y2="0.578944" gradientUnits="userSpaceOnUse">
<stop stop-color="white"/>
<stop offset="1" stop-color="white" stop-opacity="0"/>
</linearGradient>
<linearGradient id="paint3_linear" x1="38.559" y1="2.83874" x2="33.3547" y2="9.46239" gradientUnits="userSpaceOnUse">
<stop stop-color="white" stop-opacity="0.6"/>
<stop offset="1" stop-color="white" stop-opacity="0.2"/>
</linearGradient>
</defs>
</svg>
