<svg width="140" height="130" viewBox="0 0 140 130" fill="none" xmlns="http://www.w3.org/2000/svg">
  <path
    d="M70 0C31.4125 0 0 24.8589 0 55.4096C0 82.7725 24.9083 105.698 58.5375 110.056C60.8183 110.525 63.9217 111.526 64.7092 113.414C65.4092 115.126 65.17 117.772 64.9308 119.558L63.9742 125.357C63.7117 127.07 62.5742 132.1 70.0933 129.025C77.6242 125.962 110.437 105.828 125.137 89.3518C135.193 78.6124 140 67.6073 140 55.4096C140 24.8589 108.588 0 70 0ZM42.6008 73.5762H28.6825C26.67 73.5762 25.0075 71.9539 25.0075 69.9983V42.8615C25.0075 40.9001 26.67 39.2779 28.6825 39.2779C30.7125 39.2779 32.3575 40.9001 32.3575 42.8615V66.4147H42.6008C44.6308 66.4147 46.27 68.0256 46.27 69.9983C46.27 71.9539 44.625 73.5762 42.6008 73.5762ZM56.9858 69.9983C56.9858 71.9539 55.3408 73.5762 53.305 73.5762C51.2925 73.5762 49.6475 71.9539 49.6475 69.9983V42.8615C49.6475 40.9001 51.2925 39.2779 53.3225 39.2779C55.3408 39.2779 56.9858 40.9001 56.9858 42.8615V69.9983ZM90.475 69.9983C90.475 71.5357 89.46 72.8979 87.955 73.3896C87.5817 73.5083 87.1792 73.5649 86.7942 73.5649C85.5633 73.5649 84.5133 73.0505 83.8192 72.1405L69.5683 53.2731V69.9926C69.5683 71.9483 67.9408 73.5705 65.8875 73.5705C63.8692 73.5705 62.2358 71.9483 62.2358 69.9926V42.8615C62.2358 41.3241 63.245 39.9619 64.7442 39.4758C65.0942 39.3458 65.5375 39.2892 65.8758 39.2892C67.0133 39.2892 68.0633 39.8827 68.7633 40.7362L83.125 59.6771V42.8615C83.125 40.9001 84.77 39.2779 86.8 39.2779C88.8125 39.2779 90.475 40.9001 90.475 42.8615V69.9983ZM112.963 52.8435C114.998 52.8435 116.638 54.4657 116.638 56.4327C116.638 58.3941 114.998 60.0163 112.963 60.0163H102.725V66.4147H112.963C114.998 66.4147 116.638 68.0256 116.638 69.9983C116.638 71.9539 114.998 73.5762 112.963 73.5762H99.0442C97.0317 73.5762 95.3867 71.9539 95.3867 69.9983V42.8615C95.3867 40.9001 97.0317 39.2779 99.0617 39.2779H112.98C114.998 39.2779 116.638 40.9001 116.638 42.8615C116.638 44.8455 114.998 46.4451 112.963 46.4451H102.725V52.8435H112.963Z"
    fill="#7988e8" />
</svg>