<svg width="134" height="130" viewBox="0 0 134 130" fill="none" xmlns="http://www.w3.org/2000/svg">
<path d="M100.314 0H33.5797C15.0896 0 0 14.6508 0 32.6032V97.5C0 115.349 15.0896 130 33.5797 130H100.42C118.91 130 134 115.349 134 97.3968V32.6032C133.894 14.6508 118.804 0 100.314 0ZM44.6312 105.238H25.5036V51.5873H44.6312V105.238ZM34.9611 43.3333C29.5416 43.3333 25.1848 39.1032 25.1848 33.8413C25.1848 28.5794 29.5416 24.3492 34.9611 24.3492C40.3806 24.3492 44.7375 28.5794 44.7375 33.8413C44.6312 39.1032 40.2744 43.3333 34.9611 43.3333ZM108.496 105.238H108.39H92.4504V79.2381C92.4504 72.9444 91.6003 64.8968 82.7803 64.8968C73.7478 64.8968 72.2601 71.7063 72.2601 78.8254V105.238H56.3204V51.5873H71.1975V58.8095H71.6225C73.9604 54.6825 79.3799 51.4841 87.881 51.4841C105.415 51.4841 108.496 61.2857 108.496 75.8333V105.238Z" fill="#FF8B97"/>
</svg>
