<svg width="154" height="130" viewBox="0 0 154 130" fill="none" xmlns="http://www.w3.org/2000/svg">
  <path
    d="M137.359 130H16.6405C7.45036 130 0 123.711 0 115.953V14.0472C0 6.28926 7.45036 0 16.6405 0H137.359C146.55 0 154 6.28926 154 14.0472V115.953C154 123.711 146.55 130 137.359 130Z"
    fill="#7988e8" />
  <path
    d="M137.359 130H16.6405C7.45036 130 0 123.711 0 115.953V14.0472C0 6.28926 7.45036 0 16.6405 0H137.359C146.55 0 154 6.28926 154 14.0472V115.953C154 123.711 146.55 130 137.359 130Z"
    fill="#7988e8" />
  <path
    d="M84.4861 64.9998C84.4861 80.4715 69.7296 93.0138 51.5263 93.0138C33.3232 93.0138 18.5664 80.4715 18.5664 64.9998C18.5664 49.5281 33.3229 36.9858 51.5263 36.9858C69.7293 36.9858 84.4861 49.5281 84.4861 64.9998Z"
    fill="#E5E5E5" />
  <path
    d="M120.644 65C120.644 79.564 113.265 91.3703 104.164 91.3703C95.0623 91.3703 87.6841 79.564 87.6841 65C87.6841 50.4359 95.0623 38.6296 104.164 38.6296C113.265 38.6296 120.644 50.4362 120.644 65Z"
    fill="#E5E5E5" />
  <path
    d="M135.433 64.9998C135.433 78.0485 132.838 88.6266 129.637 88.6266C126.436 88.6266 123.841 78.0485 123.841 64.9998C123.841 51.9511 126.436 41.373 129.637 41.373C132.839 41.373 135.433 51.9511 135.433 64.9998Z"
    fill="#E5E5E5" />
</svg>