<?xml version="1.0" encoding="UTF-8"?>
<svg version="1.1" xmlns="http://www.w3.org/2000/svg" width="590" height="547">
<path d="M0 0 C1.88882805 -0.00417801 3.77765359 -0.00965808 5.66647452 -0.01631981 C10.83237437 -0.03073188 15.99811411 -0.02654294 21.16402256 -0.019153 C26.7449429 -0.0144131 32.325829 -0.02693848 37.90673828 -0.03717041 C48.83094673 -0.05434789 59.75509763 -0.05520055 70.67931608 -0.04995751 C79.56096323 -0.04591246 88.44259339 -0.04736335 97.32423973 -0.05270576 C98.58939846 -0.05345419 99.85455718 -0.05420261 101.15805405 -0.05497371 C103.72841568 -0.05650522 106.2987773 -0.05804357 108.86913892 -0.05958868 C126.12148831 -0.06941411 143.37382956 -0.07358473 160.6261797 -0.06596279 C161.30025923 -0.06566562 161.97433876 -0.06536844 162.66884494 -0.06506227 C168.14218714 -0.06261355 173.61552926 -0.06000185 179.08887138 -0.05737813 C200.4323803 -0.04727818 221.77581053 -0.05562876 243.11930847 -0.07887268 C267.12290198 -0.10497152 291.12644178 -0.11773663 315.13005465 -0.11068493 C327.83057167 -0.10719471 340.53102409 -0.1094118 353.23153114 -0.12693596 C364.04366937 -0.14166983 374.85569751 -0.14227784 385.6678336 -0.12486505 C391.18059461 -0.11636236 396.69315906 -0.11418778 402.20590973 -0.1295166 C407.25984926 -0.14339527 412.31342441 -0.13855959 417.36734303 -0.11927737 C419.18823409 -0.1155268 421.00915456 -0.11841188 422.83001933 -0.12888902 C436.95194913 -0.20431894 449.88066502 1.40328876 462.58293152 8.13768005 C463.24679871 8.48057068 463.91066589 8.8234613 464.59465027 9.17674255 C470.38925853 12.26569715 475.42285996 15.95210824 480.27043152 20.38768005 C481.29330261 21.27326599 481.29330261 21.27326599 482.33683777 22.17674255 C495.25829211 34.06144615 504.26269295 52.62652606 505.45732188 70.12521291 C505.53209743 73.12258269 505.54670603 76.11414947 505.53785706 79.11244202 C505.54238817 80.25309187 505.54691928 81.39374173 505.5515877 82.56895673 C505.56419207 86.37006389 505.56261386 90.17102704 505.56095886 93.97215271 C505.56586318 96.7062585 505.57369679 99.44035435 505.58131409 102.17445374 C505.59787554 108.81863799 505.60342145 115.46278675 505.60453884 122.10698994 C505.60549174 127.51279774 505.60961409 132.91859392 505.61594009 138.32439804 C505.63354021 153.67877981 505.64278103 169.0331337 505.64127915 184.38752563 C505.64115928 185.62727736 505.64115928 185.62727736 505.64103699 186.89207458 C505.64095523 187.71959474 505.64087346 188.54711489 505.64078923 189.39971142 C505.63997695 202.79989086 505.6591031 216.19995774 505.68731372 229.60010464 C505.71610682 243.38665777 505.72985045 257.17315612 505.72812617 270.95974004 C505.72746442 278.68880622 505.73286157 286.41775442 505.75448227 294.14679337 C505.77277903 300.72935839 505.77697236 307.31175196 505.76346342 313.89433153 C505.75697573 317.24636857 505.75887639 320.59781192 505.77416992 323.94985962 C505.84585774 340.75940087 505.65994336 356.65989473 497.45793152 371.82518005 C497.11101257 372.48856384 496.76409363 373.15194763 496.40666199 373.83543396 C493.55211399 379.15497731 490.35092715 383.92096468 486.27043152 388.38768005 C485.52019714 389.2178363 484.76996277 390.04799255 483.99699402 390.90330505 C478.33329308 396.87073759 472.42579734 401.35503169 465.27043152 405.38768005 C464.48152527 405.84916443 463.69261902 406.3106488 462.87980652 406.78611755 C448.56076613 414.60943432 432.89453854 415.53018428 416.95011902 415.59300232 C415.40215806 415.60259392 413.85419966 415.61260474 412.3062439 415.6230011 C408.12298314 415.64991738 403.93971126 415.67099838 399.75641251 415.69100308 C395.37752023 415.71294503 390.99866173 415.74029338 386.61979675 415.76705933 C378.33628695 415.81687563 370.05275829 415.86185527 361.76921177 415.90508169 C352.33508428 415.9545489 342.9009907 416.00943172 333.46689606 416.06476128 C314.06810607 416.1784114 294.66928403 416.28528707 275.27043152 416.38768005 C274.89924761 417.27337111 274.5280637 418.15906216 274.14563179 419.07159233 C272.74847427 422.40523402 271.35105125 425.73876437 269.95355415 429.07226372 C269.35248296 430.50612028 268.75148066 431.94000573 268.15055275 433.37392235 C263.51524524 444.43436915 258.84917485 455.48114717 254.14543152 466.51268005 C249.45151517 477.52844299 244.77533439 488.55124674 240.13761902 499.59080505 C239.27582953 501.64013278 238.41401331 503.68944926 237.5521698 505.73875427 C236.29801513 508.72117258 235.04497951 511.70403281 233.79576111 514.68852234 C232.63924298 517.4514766 231.47862311 520.21267742 230.31730652 522.97361755 C229.98149567 523.77930176 229.64568481 524.58498596 229.29969788 525.41508484 C221.50597709 543.89731634 221.50597709 543.89731634 216.27043152 547.38768005 C211.14810719 548.41902052 207.69087715 548.30291564 203.23918152 545.43455505 C199.41796071 541.98002013 197.68849186 537.68319836 195.70793152 533.01268005 C195.28431335 532.04773621 194.86069519 531.08279236 194.42424011 530.08860779 C193.01819393 526.86373354 191.64069708 523.62791051 190.27043152 520.38768005 C189.80814148 519.29697205 189.34585144 518.20626404 188.86955261 517.08250427 C186.83306131 512.26398936 184.80690208 507.44131345 182.79606628 502.61204529 C177.2386278 489.26548261 171.57395086 475.96516774 165.90525818 462.6655426 C164.6909006 459.8164729 163.47670661 456.96733357 162.26261902 454.1181488 C161.89148357 453.24719637 161.52034813 452.37624393 161.13796616 451.478899 C157.90003135 443.87559405 154.67703388 436.26602693 151.4584198 428.65452576 C150.95629471 427.46737221 150.45416962 426.28021866 149.93682861 425.05709076 C148.71458102 422.1673359 147.49245048 419.2775316 146.27043152 416.38768005 C145.0633894 416.38409752 145.0633894 416.38409752 143.83196259 416.38044262 C124.19000606 416.32113014 104.54817346 416.24547716 84.90634918 416.15196514 C75.40744135 416.10713016 65.90856998 416.06768762 56.40959167 416.04124451 C48.12368713 416.01816432 39.83789919 415.98465581 31.55208731 415.93897849 C27.17079576 415.91518048 22.78961871 415.89636429 18.40826416 415.89006615 C14.27137027 415.88395386 10.13476885 415.86373703 5.99798393 415.83340454 C4.49214661 415.8247215 2.98627091 415.82088111 1.48040962 415.82267189 C-19.7984529 415.83996324 -38.44838969 411.27623045 -55.72956848 398.38768005 C-56.35992004 397.94166443 -56.99027161 397.4956488 -57.63972473 397.03611755 C-66.60987105 390.12295514 -73.39149515 379.9325788 -78.22956848 369.82518005 C-78.54337463 369.17831238 -78.85718079 368.5314447 -79.18049622 367.86497498 C-83.73072469 357.76787242 -85.1801535 347.20055654 -85.11724854 336.21949768 C-85.12263407 335.06741188 -85.12801961 333.91532608 -85.13356835 332.72832859 C-85.14776116 328.90649663 -85.14076555 325.0850153 -85.13362122 321.26316833 C-85.13768957 318.50728977 -85.14619577 315.75142857 -85.15441895 312.99555969 C-85.17154055 306.30999066 -85.17246083 299.62451589 -85.16720604 292.93893065 C-85.16315067 287.5002867 -85.16462405 282.06167044 -85.1699543 276.6230278 C-85.17070272 275.84646814 -85.17145114 275.06990849 -85.17222225 274.26981672 C-85.17375386 272.69180862 -85.1752922 271.11380054 -85.17683721 269.53579246 C-85.19053823 254.76588606 -85.18514147 239.99603277 -85.173652 225.22612761 C-85.16372213 211.74139404 -85.17666028 198.25679773 -85.20058619 184.77208532 C-85.22502291 170.89390479 -85.23457385 157.01578807 -85.22793347 143.13758647 C-85.22445138 135.35886128 -85.22660615 127.58024157 -85.24418449 119.80153275 C-85.25896384 113.17984347 -85.25946758 106.55833399 -85.24211358 99.93664803 C-85.23364782 96.56446977 -85.23354401 93.192873 -85.24676514 89.82067108 C-85.3073313 73.08831464 -84.96120054 58.09593218 -76.91706848 43.01268005 C-76.57014954 42.34478455 -76.22323059 41.67688904 -75.86579895 40.98875427 C-73.01584059 35.64134268 -69.82041875 30.87578232 -65.72956848 26.38768005 C-65.00253723 25.56912537 -64.27550598 24.75057068 -63.52644348 23.9072113 C-46.26981571 5.50941944 -24.25346358 -0.08761629 0 0 Z M112.27043152 121.38768005 C112.27043152 132.60768005 112.27043152 143.82768005 112.27043152 155.38768005 C115.57043152 157.03768005 118.87043152 158.68768005 122.27043152 160.38768005 C125.7690139 164.05692499 127.38630896 166.55600583 127.4286499 171.57643127 C127.43843872 172.45425262 127.44822754 173.33207397 127.45831299 174.23649597 C127.46406845 175.20178223 127.46982391 176.16706848 127.47575378 177.16160583 C127.48565338 178.17626923 127.49555298 179.19093262 127.50575256 180.23634338 C127.53742821 183.60186909 127.56214896 186.96740893 127.58683777 190.33299255 C127.60740206 192.66184361 127.62839838 194.99069089 127.64981079 197.3195343 C127.70508568 203.4581446 127.75447105 209.59678889 127.80265808 215.73545837 C127.85283359 221.99586523 127.90854025 228.25622255 127.96379089 234.5165863 C128.07143873 246.8069102 128.17235804 259.09727602 128.27043152 271.38768005 C139.49043152 271.38768005 150.71043152 271.38768005 162.27043152 271.38768005 C162.33836032 257.51348318 162.39333595 243.63939779 162.42586803 229.76507187 C162.44148621 223.32182864 162.46265413 216.87870566 162.49674988 210.43553162 C162.52948057 204.21096371 162.54731345 197.98651107 162.55506325 191.76186371 C162.56058219 189.3937575 162.57135902 187.0256572 162.58762169 184.6576004 C162.60957803 181.32628015 162.61239084 177.99542885 162.61100769 174.66404724 C162.62179352 173.69731079 162.63257935 172.73057434 162.64369202 171.73454285 C162.58084856 157.63550964 158.2411524 144.73882043 148.48918152 134.4228363 C138.17126893 124.95869465 125.85083708 122.62226238 112.27043152 121.38768005 Z M-12.72956848 126.38768005 C-12.72956848 173.90768005 -12.72956848 221.42768005 -12.72956848 270.38768005 C-1.17956848 270.38768005 10.37043152 270.38768005 22.27043152 270.38768005 C22.60043152 268.07768005 22.93043152 265.76768005 23.27043152 263.38768005 C23.74351746 263.7743988 24.21660339 264.16111755 24.70402527 264.55955505 C35.27733886 272.88629714 44.88704111 275.33589597 58.27043152 274.38768005 C70.45266824 272.1990964 83.7888762 266.72983005 91.27043152 256.38768005 C100.91092167 240.18849578 103.16619793 222.08615497 98.58293152 203.70018005 C96.94649465 197.75453227 94.91774455 192.38863503 91.27043152 187.38768005 C90.66715027 186.5575238 90.06386902 185.72736755 89.44230652 184.87205505 C82.18361502 175.89278483 72.46897558 171.00600045 61.27043152 168.38768005 C48.71251078 167.40199209 37.49463178 168.50745584 27.27043152 176.38768005 C25.95043152 177.70768005 24.63043152 179.02768005 23.27043152 180.38768005 C22.94043152 162.56768005 22.61043152 144.74768005 22.27043152 126.38768005 C10.72043152 126.38768005 -0.82956848 126.38768005 -12.72956848 126.38768005 Z M334.23527527 182.19236755 C324.27949501 193.31592323 321.06081628 206.31716882 320.9752655 220.79270935 C320.95825294 222.78749271 320.91440388 224.78198937 320.87004089 226.77635193 C320.78005552 240.66870887 323.62834514 251.41722278 333.27043152 261.47361755 C342.36587719 270.21174214 353.92729796 274.79893289 366.52043152 274.70018005 C367.26478455 274.6952655 368.00913757 274.69035095 368.77604675 274.68528748 C379.01698049 274.46918726 388.44405676 272.00218664 395.98918152 264.73143005 C396.41199402 264.28799255 396.83480652 263.84455505 397.27043152 263.38768005 C397.96878983 272.3305462 396.16708162 279.75303988 391.39543152 287.38768005 C386.41961109 292.07080517 381.41760774 292.86719734 374.89543152 293.07518005 C371.12105652 293.22986755 371.12105652 293.22986755 367.27043152 293.38768005 C367.27043152 303.94768005 367.27043152 314.50768005 367.27043152 325.38768005 C394.93854236 326.16146762 394.93854236 326.16146762 418.61808777 313.1572113 C429.90327552 301.07165563 433.44091208 286.61791899 433.38395691 270.51707458 C433.38410294 269.43355209 433.38424896 268.3500296 433.38439941 267.2336731 C433.38370436 263.66259235 433.37593099 260.09156416 433.36808777 256.52049255 C433.36622214 254.04042082 433.36479892 251.56034872 433.36380005 249.08027649 C433.35998626 242.56027708 433.35016566 236.04030004 433.33909607 229.52030945 C433.32831557 222.86412477 433.32429719 216.20793358 433.31925964 209.55174255 C433.30854239 196.49704366 433.29095478 183.44236722 433.27043152 170.38768005 C422.05043152 170.38768005 410.83043152 170.38768005 399.27043152 170.38768005 C398.94043152 173.68768005 398.61043152 176.98768005 398.27043152 180.38768005 C397.73675964 179.8565863 397.20308777 179.32549255 396.65324402 178.77830505 C389.49346647 171.99014226 382.14526554 167.92186773 372.16105652 167.29393005 C357.84949716 167.75808874 344.74016905 172.20037093 334.23527527 182.19236755 Z M198.27824402 190.50486755 C188.87484511 201.52258387 186.23210755 215.28987286 187.27043152 229.38768005 C188.96682185 237.95687466 192.30873752 245.23969872 197.27043152 252.38768005 C197.97168152 253.39830505 198.67293152 254.40893005 199.39543152 255.45018005 C208.68922704 265.90198844 222.69264919 273.318109 236.66740417 274.6091156 C254.90020713 275.43723729 270.44708205 272.27078235 284.58293152 260.01268005 C295.47881029 249.66849135 301.91968876 237.24685817 302.58293152 222.07518005 C302.13876118 207.26079272 296.03903171 195.47385132 285.97746277 184.8993988 C279.10935574 178.52682619 271.13575515 174.29410411 262.27043152 171.38768005 C261.60140808 171.16209412 260.93238464 170.93650818 260.24308777 170.7040863 C237.05204922 164.24976655 214.14162129 173.64614112 198.27824402 190.50486755 Z " fill="#7988E8" transform="translate(84.72956848144531,-0.3876800537109375)"/>
<path d="M0 0 C5.80663993 4.798374 8.57025963 11.06071326 9.375 18.4375 C8.5864604 25.92862615 6.6298477 31.4329982 0.9453125 36.55859375 C-4.31606272 40.45708262 -9.91489449 41.65231175 -16.4140625 41.40234375 C-22.21340283 40.50002947 -27.0641618 38.24211686 -30.92578125 33.76953125 C-35.61805235 26.90470504 -36.78297863 21.27233939 -36 13 C-34.19085417 6.351101 -29.59522032 1.79675665 -24 -2 C-15.4478721 -5.45085863 -7.921386 -4.43127039 0 0 Z " fill="#7988E8" transform="translate(343,203)"/>
<path d="M0 0 C5.22733945 3.12551338 8.60746939 7.40688704 10.5078125 13.18359375 C12.15437009 20.69731541 11.60118477 25.95649628 7.8125 32.75 C3.65453731 37.9771531 -0.55909739 40.92727405 -7.0625 42.25 C-13.64456914 42.89721645 -19.2046927 41.60819161 -24.6875 37.875 C-29.53865544 33.84689489 -31.93755648 29.88107387 -32.75 23.6015625 C-33.01290335 17.07827309 -32.39990072 11.77238457 -28.375 6.5 C-20.87933829 -1.45747973 -10.43763434 -4.54509703 0 0 Z " fill="#7988E8" transform="translate(474.375,201.5)"/>
<path d="M0 0 C5.34306567 3.97425909 7.94067936 8.1000323 9.0625 14.75 C9.51727888 21.43524956 7.48268817 27.00801724 3.375 32.25 C-0.94047309 36.80874731 -5.53781772 38.5047758 -11.75 38.8125 C-17.98685653 38.57553737 -23.33708875 37.02487792 -27.734375 32.43359375 C-32.74376574 25.95716715 -33.65276191 20.4859456 -32.875 12.375 C-31.11935215 6.17735156 -27.22671256 1.83320409 -21.875 -1.625 C-14.39775774 -4.86984098 -6.8990102 -4.24379904 0 0 Z " fill="#7988E8" transform="translate(140.875,204.625)"/>
</svg>
