<?xml version="1.0" encoding="UTF-8"?>
<svg id="Layer_2" data-name="Layer 2" xmlns="http://www.w3.org/2000/svg" viewBox="0 0 203.54 242.48">
  <defs>
    <style>
      .cls-1 {
        fill: #ff8b97;
      }
    </style>
  </defs>
  <g id="Layer_1-2" data-name="Layer 1">
    <path class="cls-1" d="M43.82,227.41c14.4-27.91,28.01-56.49,43.35-83.89,1.91-3.4-1.23-2.93-3.03-2.94-25.27-.16-50.57-.31-75.84,0-3.89,.05-6.49-1.34-7.88-4.73-1.37-3.35,.74-5.63,3.08-7.68C50.6,86.83,98.2,46.09,145.69,5.21c2.97-2.55,15.55-9.32,17.12-1.68,.49,2.4-.66,4.8-1.79,6.98-14.98,29.02-28.85,59.02-45.22,87.28-1.82,3.14,1.19,2.64,2.77,2.64,25.17,0,50.34-.04,75.51-.09,7.64-.02,13.25,5.96,6.3,12.2-48.07,43.14-97.59,84.65-146.63,126.67-1.8,1.54-3.5,3.04-5.96,3.29-7.66-4.11-7.73-4.35-4.36-12.68,.3-.73,.27-1.6,.39-2.4Z"/>
  </g>
</svg>