<svg width="161" height="130" viewBox="0 0 161 130" fill="none" xmlns="http://www.w3.org/2000/svg">
  <path
    d="M161 15.3763C154.963 17.9724 148.724 19.7696 142.083 20.5684C148.925 16.5745 154.158 10.1843 156.572 2.39631C150.132 6.19048 143.089 8.78648 135.643 10.384C129.605 3.99386 120.951 0 111.493 0C93.1788 0 78.4875 14.7773 78.4875 32.7496C78.4875 35.3456 78.6888 37.7419 79.2925 40.1382C51.9225 38.9401 27.7725 25.7604 11.4713 5.99078C-0.201249 26.7588 12.88 43.9324 21.5338 49.7235C16.3013 49.7235 11.0688 48.126 6.64125 45.7297C6.64125 61.9048 18.1125 75.2842 33.005 78.2796C29.785 79.278 22.54 79.8771 18.1125 78.8786C22.3388 91.8587 34.615 101.444 48.9038 101.644C37.6338 110.43 21.1313 117.419 0 115.223C14.6913 124.608 31.9987 130 50.715 130C111.493 130 144.497 80.0768 144.497 36.9432C144.497 35.5453 144.497 34.1475 144.296 32.7496C151.139 27.7573 156.774 21.9662 161 15.3763Z"
    fill="#7988e8" />
</svg>