<svg width="194" height="130" viewBox="0 0 194 130" fill="none" xmlns="http://www.w3.org/2000/svg">
  <path
    d="M189.482 20.3419C187.257 12.3876 180.734 6.1173 172.461 3.97545C157.349 0 96.897 0 96.897 0C96.897 0 36.4477 0 21.335 3.82473C13.2217 5.96431 6.53945 12.3887 4.31399 20.3419C0.336914 34.8702 0.336914 65 0.336914 65C0.336914 65 0.336914 95.2817 4.31399 109.658C6.54181 117.611 13.0626 123.882 21.3362 126.023C36.6068 130 96.8994 130 96.8994 130C96.8994 130 157.349 130 172.461 126.175C180.735 124.035 187.257 117.764 189.485 109.811C193.461 95.2817 193.461 65.153 193.461 65.153C193.461 65.153 193.62 34.8702 189.482 20.3419ZM77.6506 92.835V37.165L127.919 65L77.6506 92.835Z"
    fill="#7988e8" />
</svg>