<svg width="55" height="55" viewBox="0 0 55 55" fill="none" xmlns="http://www.w3.org/2000/svg">
<g clip-path="url(#clip0_636_2603)">
<path d="M27.3478 8.02985C29.1259 8.02985 30.5673 6.58845 30.5673 4.8104C30.5673 3.03234 29.1259 1.59094 27.3478 1.59094C25.5698 1.59094 24.1284 3.03234 24.1284 4.8104C24.1284 6.58845 25.5698 8.02985 27.3478 8.02985Z" stroke="url(#paint0_linear_636_2603)" stroke-width="2" stroke-miterlimit="10" stroke-linecap="round" stroke-linejoin="round"/>
<path d="M27.3478 53.1041C29.1259 53.1041 30.5673 51.6627 30.5673 49.8847C30.5673 48.1066 29.1259 46.6652 27.3478 46.6652C25.5698 46.6652 24.1284 48.1066 24.1284 49.8847C24.1284 51.6627 25.5698 53.1041 27.3478 53.1041Z" stroke="url(#paint1_linear_636_2603)" stroke-width="2" stroke-miterlimit="10" stroke-linecap="round" stroke-linejoin="round"/>
<path d="M6.85987 10.0767C8.63792 10.0767 10.0793 8.63527 10.0793 6.85721C10.0793 5.07916 8.63792 3.63776 6.85987 3.63776C5.08181 3.63776 3.64041 5.07916 3.64041 6.85721C3.64041 8.63527 5.08181 10.0767 6.85987 10.0767Z" stroke="url(#paint2_linear_636_2603)" stroke-width="2" stroke-miterlimit="10" stroke-linecap="round" stroke-linejoin="round"/>
<path d="M47.8364 51.0552C49.6145 51.0552 51.0559 49.6138 51.0559 47.8358C51.0559 46.0577 49.6145 44.6163 47.8364 44.6163C46.0583 44.6163 44.6169 46.0577 44.6169 47.8358C44.6169 49.6138 46.0583 51.0552 47.8364 51.0552Z" stroke="url(#paint3_linear_636_2603)" stroke-width="2" stroke-miterlimit="10" stroke-linecap="round" stroke-linejoin="round"/>
<path d="M6.85987 51.0552C8.63792 51.0552 10.0793 49.6138 10.0793 47.8358C10.0793 46.0577 8.63792 44.6163 6.85987 44.6163C5.08181 44.6163 3.64041 46.0577 3.64041 47.8358C3.64041 49.6138 5.08181 51.0552 6.85987 51.0552Z" stroke="url(#paint4_linear_636_2603)" stroke-width="2" stroke-miterlimit="10" stroke-linecap="round" stroke-linejoin="round"/>
<path d="M47.8364 10.0767C49.6145 10.0767 51.0559 8.63527 51.0559 6.85721C51.0559 5.07916 49.6145 3.63776 47.8364 3.63776C46.0583 3.63776 44.6169 5.07916 44.6169 6.85721C44.6169 8.63527 46.0583 10.0767 47.8364 10.0767Z" stroke="url(#paint5_linear_636_2603)" stroke-width="2" stroke-miterlimit="10" stroke-linecap="round" stroke-linejoin="round"/>
<path d="M4.81226 30.5666C6.59032 30.5666 8.03171 29.1252 8.03171 27.3471C8.03171 25.5691 6.59032 24.1277 4.81226 24.1277C3.0342 24.1277 1.5928 25.5691 1.5928 27.3471C1.5928 29.1252 3.0342 30.5666 4.81226 30.5666Z" stroke="url(#paint6_linear_636_2603)" stroke-width="2" stroke-miterlimit="10" stroke-linecap="round" stroke-linejoin="round"/>
<path d="M49.8846 30.5666C51.6627 30.5666 53.1041 29.1252 53.1041 27.3471C53.1041 25.5691 51.6627 24.1277 49.8846 24.1277C48.1066 24.1277 46.6652 25.5691 46.6652 27.3471C46.6652 29.1252 48.1066 30.5666 49.8846 30.5666Z" stroke="url(#paint7_linear_636_2603)" stroke-width="2" stroke-miterlimit="10" stroke-linecap="round" stroke-linejoin="round"/>
<path d="M33.8865 16.9342C32.8731 13.5254 31.3477 10.277 29.3078 7.34857" stroke="url(#paint8_linear_636_2603)" stroke-width="2" stroke-miterlimit="10" stroke-linecap="round" stroke-linejoin="round"/>
<path d="M36.8491 32.3077C42.3415 26.022 46.1765 18.3062 47.461 10.0413" stroke="url(#paint9_linear_636_2603)" stroke-width="2" stroke-miterlimit="10" stroke-linecap="round" stroke-linejoin="round"/>
<path d="M10.0432 47.4591C18.3076 46.1745 26.022 42.3402 32.3071 36.8491" stroke="url(#paint10_linear_636_2603)" stroke-width="2" stroke-miterlimit="10" stroke-linecap="round" stroke-linejoin="round"/>
<path d="M20.8098 37.7615C21.8232 41.1702 23.348 44.4193 25.3878 47.3477" stroke="url(#paint11_linear_636_2603)" stroke-width="2" stroke-miterlimit="10" stroke-linecap="round" stroke-linejoin="round"/>
<path d="M7.23651 10.042C8.52107 18.307 12.3554 26.0227 17.8472 32.3084C12.3554 26.0221 8.52107 18.3063 7.23651 10.042Z" stroke="url(#paint12_linear_636_2603)" stroke-width="2" stroke-miterlimit="10" stroke-linecap="round" stroke-linejoin="round"/>
<path d="M22.3879 36.8496C28.6736 42.3401 36.3874 46.1757 44.653 47.4603" stroke="url(#paint13_linear_636_2603)" stroke-width="2" stroke-miterlimit="10" stroke-linecap="round" stroke-linejoin="round"/>
<path d="M7.34918 29.3077C10.2776 31.3482 13.5292 32.864 16.9387 33.8742" stroke="url(#paint14_linear_636_2603)" stroke-width="2" stroke-miterlimit="10" stroke-linecap="round" stroke-linejoin="round"/>
<path d="M23.2256 35.1382C25.9622 35.4415 28.7341 35.4434 31.47 35.1376C28.7335 35.4428 25.9622 35.4408 23.2256 35.1382Z" stroke="url(#paint15_linear_636_2603)" stroke-width="2" stroke-miterlimit="10" stroke-linecap="round" stroke-linejoin="round"/>
<path d="M37.7621 33.8858C41.1689 32.8723 44.4193 31.3469 47.347 29.3077" stroke="url(#paint16_linear_636_2603)" stroke-width="2" stroke-miterlimit="10" stroke-linecap="round" stroke-linejoin="round"/>
<path d="M29.3071 47.3464C31.3476 44.418 32.8633 41.167 33.8736 37.757" stroke="url(#paint17_linear_636_2603)" stroke-width="2" stroke-miterlimit="10" stroke-linecap="round" stroke-linejoin="round"/>
<path d="M35.1376 31.47C35.4422 28.7341 35.4441 25.9608 35.1376 23.2243C35.4435 25.9615 35.4415 28.7341 35.1376 31.47Z" stroke="url(#paint18_linear_636_2603)" stroke-width="2" stroke-miterlimit="10" stroke-linecap="round" stroke-linejoin="round"/>
<path d="M10.0426 7.23523C18.3082 8.52044 26.0227 12.3555 32.3071 17.8459C26.0227 12.3548 18.3082 8.51979 10.0426 7.23523Z" stroke="url(#paint19_linear_636_2603)" stroke-width="2" stroke-miterlimit="10" stroke-linecap="round" stroke-linejoin="round"/>
<path d="M36.8491 22.3879C42.3389 28.6723 46.1732 36.3874 47.4585 44.6518" stroke="url(#paint20_linear_636_2603)" stroke-width="2" stroke-miterlimit="10" stroke-linecap="round" stroke-linejoin="round"/>
<path d="M47.3464 25.3878C44.4193 23.3479 41.1689 21.8232 37.7621 20.8091" stroke="url(#paint21_linear_636_2603)" stroke-width="2" stroke-miterlimit="10" stroke-linecap="round" stroke-linejoin="round"/>
<path d="M44.653 7.23651C36.3887 8.52172 28.6736 12.3554 22.3879 17.8459C28.6736 12.3548 36.3887 8.52107 44.653 7.23651Z" stroke="url(#paint22_linear_636_2603)" stroke-width="2" stroke-miterlimit="10" stroke-linecap="round" stroke-linejoin="round"/>
<path d="M7.23779 44.6518C8.52171 36.3861 12.3561 28.6723 17.8472 22.3879" stroke="url(#paint23_linear_636_2603)" stroke-width="2" stroke-miterlimit="10" stroke-linecap="round" stroke-linejoin="round"/>
<path d="M25.3878 7.34784C23.3473 10.2763 21.8309 13.5279 20.822 16.9367" stroke="url(#paint24_linear_636_2603)" stroke-width="2" stroke-miterlimit="10" stroke-linecap="round" stroke-linejoin="round"/>
<path d="M19.5574 23.225C19.2541 25.9602 19.2509 28.7348 19.5581 31.4706C19.2516 28.7341 19.2548 25.9602 19.5574 23.225Z" stroke="url(#paint25_linear_636_2603)" stroke-width="2" stroke-miterlimit="10" stroke-linecap="round" stroke-linejoin="round"/>
<path d="M16.938 20.8214C13.5292 21.8297 10.2782 23.3467 7.34982 25.3878" stroke="url(#paint26_linear_636_2603)" stroke-width="2" stroke-miterlimit="10" stroke-linecap="round" stroke-linejoin="round"/>
<path d="M31.4693 19.5581C28.7334 19.2503 25.9608 19.2541 23.2249 19.5561" stroke="url(#paint27_linear_636_2603)" stroke-width="2" stroke-miterlimit="10" stroke-linecap="round" stroke-linejoin="round"/>
<path d="M20.0558 23.2739C21.8338 23.2739 23.2752 21.8325 23.2752 20.0545C23.2752 18.2764 21.8338 16.835 20.0558 16.835C18.2777 16.835 16.8363 18.2764 16.8363 20.0545C16.8363 21.8325 18.2777 23.2739 20.0558 23.2739Z" stroke="url(#paint28_linear_636_2603)" stroke-width="2" stroke-miterlimit="10" stroke-linecap="round" stroke-linejoin="round"/>
<path d="M20.0558 37.8593C21.8338 37.8593 23.2752 36.4179 23.2752 34.6399C23.2752 32.8618 21.8338 31.4204 20.0558 31.4204C18.2777 31.4204 16.8363 32.8618 16.8363 34.6399C16.8363 36.4179 18.2777 37.8593 20.0558 37.8593Z" stroke="url(#paint29_linear_636_2603)" stroke-width="2" stroke-miterlimit="10" stroke-linecap="round" stroke-linejoin="round"/>
<path d="M34.6399 37.8593C36.418 37.8593 37.8593 36.4179 37.8593 34.6399C37.8593 32.8618 36.418 31.4204 34.6399 31.4204C32.8618 31.4204 31.4204 32.8618 31.4204 34.6399C31.4204 36.4179 32.8618 37.8593 34.6399 37.8593Z" stroke="url(#paint30_linear_636_2603)" stroke-width="2" stroke-miterlimit="10" stroke-linecap="round" stroke-linejoin="round"/>
<path d="M37.8593 20.0544C37.8593 21.8341 36.4176 23.2738 34.6392 23.2738C32.8601 23.2738 31.4197 21.8347 31.4197 20.0544C31.4197 18.2753 32.8601 16.8356 34.6392 16.8356C36.4176 16.8356 37.8593 18.276 37.8593 20.0544Z" stroke="url(#paint31_linear_636_2603)" stroke-width="2" stroke-miterlimit="10" stroke-linecap="round" stroke-linejoin="round"/>
</g>
<defs>
<linearGradient id="paint0_linear_636_2603" x1="27.3478" y1="1.59094" x2="27.3478" y2="8.02985" gradientUnits="userSpaceOnUse">
<stop stop-color="#5E75E8"/>
<stop offset="1" stop-color="#DA88DE"/>
</linearGradient>
<linearGradient id="paint1_linear_636_2603" x1="27.3478" y1="46.6652" x2="27.3478" y2="53.1041" gradientUnits="userSpaceOnUse">
<stop stop-color="#5E75E8"/>
<stop offset="1" stop-color="#DA88DE"/>
</linearGradient>
<linearGradient id="paint2_linear_636_2603" x1="6.85987" y1="3.63776" x2="6.85987" y2="10.0767" gradientUnits="userSpaceOnUse">
<stop stop-color="#5E75E8"/>
<stop offset="1" stop-color="#DA88DE"/>
</linearGradient>
<linearGradient id="paint3_linear_636_2603" x1="47.8364" y1="44.6163" x2="47.8364" y2="51.0552" gradientUnits="userSpaceOnUse">
<stop stop-color="#5E75E8"/>
<stop offset="1" stop-color="#DA88DE"/>
</linearGradient>
<linearGradient id="paint4_linear_636_2603" x1="6.85987" y1="44.6163" x2="6.85987" y2="51.0552" gradientUnits="userSpaceOnUse">
<stop stop-color="#5E75E8"/>
<stop offset="1" stop-color="#DA88DE"/>
</linearGradient>
<linearGradient id="paint5_linear_636_2603" x1="47.8364" y1="3.63776" x2="47.8364" y2="10.0767" gradientUnits="userSpaceOnUse">
<stop stop-color="#5E75E8"/>
<stop offset="1" stop-color="#DA88DE"/>
</linearGradient>
<linearGradient id="paint6_linear_636_2603" x1="4.81226" y1="24.1277" x2="4.81226" y2="30.5666" gradientUnits="userSpaceOnUse">
<stop stop-color="#5E75E8"/>
<stop offset="1" stop-color="#DA88DE"/>
</linearGradient>
<linearGradient id="paint7_linear_636_2603" x1="49.8847" y1="24.1277" x2="49.8847" y2="30.5666" gradientUnits="userSpaceOnUse">
<stop stop-color="#5E75E8"/>
<stop offset="1" stop-color="#DA88DE"/>
</linearGradient>
<linearGradient id="paint8_linear_636_2603" x1="31.5972" y1="7.34857" x2="31.5972" y2="16.9342" gradientUnits="userSpaceOnUse">
<stop stop-color="#5E75E8"/>
<stop offset="1" stop-color="#DA88DE"/>
</linearGradient>
<linearGradient id="paint9_linear_636_2603" x1="42.1551" y1="10.0413" x2="42.1551" y2="32.3076" gradientUnits="userSpaceOnUse">
<stop stop-color="#5E75E8"/>
<stop offset="1" stop-color="#DA88DE"/>
</linearGradient>
<linearGradient id="paint10_linear_636_2603" x1="21.1752" y1="36.8491" x2="21.1752" y2="47.4591" gradientUnits="userSpaceOnUse">
<stop stop-color="#5E75E8"/>
<stop offset="1" stop-color="#DA88DE"/>
</linearGradient>
<linearGradient id="paint11_linear_636_2603" x1="23.0988" y1="37.7615" x2="23.0988" y2="47.3477" gradientUnits="userSpaceOnUse">
<stop stop-color="#5E75E8"/>
<stop offset="1" stop-color="#DA88DE"/>
</linearGradient>
<linearGradient id="paint12_linear_636_2603" x1="12.5419" y1="10.042" x2="12.5419" y2="32.3084" gradientUnits="userSpaceOnUse">
<stop stop-color="#5E75E8"/>
<stop offset="1" stop-color="#DA88DE"/>
</linearGradient>
<linearGradient id="paint13_linear_636_2603" x1="33.5205" y1="36.8496" x2="33.5205" y2="47.4603" gradientUnits="userSpaceOnUse">
<stop stop-color="#5E75E8"/>
<stop offset="1" stop-color="#DA88DE"/>
</linearGradient>
<linearGradient id="paint14_linear_636_2603" x1="12.1439" y1="29.3077" x2="12.1439" y2="33.8742" gradientUnits="userSpaceOnUse">
<stop stop-color="#5E75E8"/>
<stop offset="1" stop-color="#DA88DE"/>
</linearGradient>
<linearGradient id="paint15_linear_636_2603" x1="27.3478" y1="35.1376" x2="27.3478" y2="35.3663" gradientUnits="userSpaceOnUse">
<stop stop-color="#5E75E8"/>
<stop offset="1" stop-color="#DA88DE"/>
</linearGradient>
<linearGradient id="paint16_linear_636_2603" x1="42.5546" y1="29.3077" x2="42.5546" y2="33.8858" gradientUnits="userSpaceOnUse">
<stop stop-color="#5E75E8"/>
<stop offset="1" stop-color="#DA88DE"/>
</linearGradient>
<linearGradient id="paint17_linear_636_2603" x1="31.5904" y1="37.757" x2="31.5904" y2="47.3464" gradientUnits="userSpaceOnUse">
<stop stop-color="#5E75E8"/>
<stop offset="1" stop-color="#DA88DE"/>
</linearGradient>
<linearGradient id="paint18_linear_636_2603" x1="35.2522" y1="23.2243" x2="35.2522" y2="31.47" gradientUnits="userSpaceOnUse">
<stop stop-color="#5E75E8"/>
<stop offset="1" stop-color="#DA88DE"/>
</linearGradient>
<linearGradient id="paint19_linear_636_2603" x1="21.1748" y1="7.23523" x2="21.1748" y2="17.8459" gradientUnits="userSpaceOnUse">
<stop stop-color="#5E75E8"/>
<stop offset="1" stop-color="#DA88DE"/>
</linearGradient>
<linearGradient id="paint20_linear_636_2603" x1="42.1538" y1="22.3879" x2="42.1538" y2="44.6517" gradientUnits="userSpaceOnUse">
<stop stop-color="#5E75E8"/>
<stop offset="1" stop-color="#DA88DE"/>
</linearGradient>
<linearGradient id="paint21_linear_636_2603" x1="42.5542" y1="20.8091" x2="42.5542" y2="25.3878" gradientUnits="userSpaceOnUse">
<stop stop-color="#5E75E8"/>
<stop offset="1" stop-color="#DA88DE"/>
</linearGradient>
<linearGradient id="paint22_linear_636_2603" x1="33.5205" y1="7.23651" x2="33.5205" y2="17.8459" gradientUnits="userSpaceOnUse">
<stop stop-color="#5E75E8"/>
<stop offset="1" stop-color="#DA88DE"/>
</linearGradient>
<linearGradient id="paint23_linear_636_2603" x1="12.5425" y1="22.3879" x2="12.5425" y2="44.6517" gradientUnits="userSpaceOnUse">
<stop stop-color="#5E75E8"/>
<stop offset="1" stop-color="#DA88DE"/>
</linearGradient>
<linearGradient id="paint24_linear_636_2603" x1="23.1049" y1="7.34784" x2="23.1049" y2="16.9367" gradientUnits="userSpaceOnUse">
<stop stop-color="#5E75E8"/>
<stop offset="1" stop-color="#DA88DE"/>
</linearGradient>
<linearGradient id="paint25_linear_636_2603" x1="19.4434" y1="23.225" x2="19.4434" y2="31.4706" gradientUnits="userSpaceOnUse">
<stop stop-color="#5E75E8"/>
<stop offset="1" stop-color="#DA88DE"/>
</linearGradient>
<linearGradient id="paint26_linear_636_2603" x1="12.1439" y1="20.8214" x2="12.1439" y2="25.3878" gradientUnits="userSpaceOnUse">
<stop stop-color="#5E75E8"/>
<stop offset="1" stop-color="#DA88DE"/>
</linearGradient>
<linearGradient id="paint27_linear_636_2603" x1="27.3471" y1="19.3284" x2="27.3471" y2="19.5581" gradientUnits="userSpaceOnUse">
<stop stop-color="#5E75E8"/>
<stop offset="1" stop-color="#DA88DE"/>
</linearGradient>
<linearGradient id="paint28_linear_636_2603" x1="20.0558" y1="16.835" x2="20.0558" y2="23.2739" gradientUnits="userSpaceOnUse">
<stop stop-color="#5E75E8"/>
<stop offset="1" stop-color="#DA88DE"/>
</linearGradient>
<linearGradient id="paint29_linear_636_2603" x1="20.0558" y1="31.4204" x2="20.0558" y2="37.8593" gradientUnits="userSpaceOnUse">
<stop stop-color="#5E75E8"/>
<stop offset="1" stop-color="#DA88DE"/>
</linearGradient>
<linearGradient id="paint30_linear_636_2603" x1="34.6399" y1="31.4204" x2="34.6399" y2="37.8593" gradientUnits="userSpaceOnUse">
<stop stop-color="#5E75E8"/>
<stop offset="1" stop-color="#DA88DE"/>
</linearGradient>
<linearGradient id="paint31_linear_636_2603" x1="34.6395" y1="16.8356" x2="34.6395" y2="23.2738" gradientUnits="userSpaceOnUse">
<stop stop-color="#5E75E8"/>
<stop offset="1" stop-color="#DA88DE"/>
</linearGradient>
<clipPath id="clip0_636_2603">
<rect width="55" height="54.0517" fill="white"/>
</clipPath>
</defs>
</svg>
