<svg xmlns="http://www.w3.org/2000/svg" width="177.143" height="28.371" viewBox="0 0 177.143 28.371"><defs><style>.a,.b{fill:#fff;}.a{fill-rule:evenodd;}</style></defs><g transform="translate(0 0)"><path class="a" d="M9.267,131.335a34.309,34.309,0,0,0,8.257.952,34.309,34.309,0,0,0,8.257-.952c5.515.988,9.267,2.935,9.267,5.175,0,3.239-7.845,5.865-17.523,5.865S0,139.749,0,136.51C0,134.27,3.752,132.323,9.267,131.335Z" transform="translate(0 -114.004)"/><path class="a" d="M34.179,59.344a27.4,27.4,0,0,0,12.29,0c4.684.756,7.912,2.351,7.912,4.195,0,2.575-6.294,4.663-14.057,4.663s-14.057-2.088-14.057-4.663C26.267,61.7,29.5,60.1,34.179,59.344Z" transform="translate(-22.801 -51.513)"/><g transform="translate(7.061 0)"><ellipse class="b" cx="10.527" cy="3.53" rx="10.527" ry="3.53" transform="translate(0)"/></g></g><path class="b" d="M374.533,72.418V47.93h7.81a14.931,14.931,0,0,1,3.888.444,7.529,7.529,0,0,1,2.683,1.265,4.988,4.988,0,0,1,1.555,2.008,6.784,6.784,0,0,1,.5,2.674,5.425,5.425,0,0,1-.282,1.743,5.08,5.08,0,0,1-.854,1.555A6.041,6.041,0,0,1,388.4,58.9a8,8,0,0,1-2.025.923,7.55,7.55,0,0,1,4.05,1.931,5.06,5.06,0,0,1,1.367,3.691,6.879,6.879,0,0,1-.572,2.837,6.078,6.078,0,0,1-1.675,2.2,7.813,7.813,0,0,1-2.7,1.427,12.121,12.121,0,0,1-3.648.5Zm3.315-11.159v8.527h5.3a8.054,8.054,0,0,0,2.435-.325,4.541,4.541,0,0,0,1.675-.914,3.545,3.545,0,0,0,.966-1.4,5,5,0,0,0,.308-1.786,3.676,3.676,0,0,0-1.341-3,6.3,6.3,0,0,0-4.059-1.1Zm0-2.358h4.375a8.493,8.493,0,0,0,2.427-.308,4.912,4.912,0,0,0,1.7-.854,3.341,3.341,0,0,0,1-1.324,4.369,4.369,0,0,0,.325-1.7,3.752,3.752,0,0,0-1.3-3.161,6.563,6.563,0,0,0-4.033-1.008h-4.494ZM409.42,72.418h-1.35a1.611,1.611,0,0,1-.718-.137.756.756,0,0,1-.359-.581l-.342-1.606q-.684.615-1.333,1.1a7.627,7.627,0,0,1-1.367.82,7.085,7.085,0,0,1-1.529.5,8.772,8.772,0,0,1-1.8.171,6.154,6.154,0,0,1-1.888-.282,4.3,4.3,0,0,1-1.529-.846,4.027,4.027,0,0,1-1.034-1.427,4.986,4.986,0,0,1-.385-2.042,3.809,3.809,0,0,1,.564-1.974,4.955,4.955,0,0,1,1.82-1.683,11.857,11.857,0,0,1,3.29-1.2,25.062,25.062,0,0,1,4.973-.538v-1.35a4.66,4.66,0,0,0-.863-3.05,3.138,3.138,0,0,0-2.555-1.034,5.416,5.416,0,0,0-1.871.282,7.083,7.083,0,0,0-1.316.632q-.555.35-.957.632a1.38,1.38,0,0,1-.795.282.912.912,0,0,1-.538-.162,1.237,1.237,0,0,1-.367-.4l-.547-.974a9.885,9.885,0,0,1,3.093-2.068,9.55,9.55,0,0,1,3.674-.684,6.555,6.555,0,0,1,2.58.478,5.292,5.292,0,0,1,1.9,1.333,5.644,5.644,0,0,1,1.162,2.068,8.611,8.611,0,0,1,.393,2.666Zm-7.895-1.863a6.21,6.21,0,0,0,1.47-.162,5.8,5.8,0,0,0,1.256-.461,6.657,6.657,0,0,0,1.128-.726,9.775,9.775,0,0,0,1.051-.974V64.626a25.138,25.138,0,0,0-3.572.333,10.018,10.018,0,0,0-2.392.692,3.332,3.332,0,0,0-1.341,1.008,2.169,2.169,0,0,0-.419,1.3,2.866,2.866,0,0,0,.222,1.179,2.234,2.234,0,0,0,.6.812,2.361,2.361,0,0,0,.889.461A4.062,4.062,0,0,0,401.525,70.556Zm16.431-23.309V72.418h-3.042V47.247Zm18.618,25.172h-1.35a1.611,1.611,0,0,1-.718-.137.756.756,0,0,1-.359-.581l-.342-1.606q-.684.615-1.333,1.1a7.629,7.629,0,0,1-1.367.82,7.085,7.085,0,0,1-1.529.5,8.772,8.772,0,0,1-1.8.171,6.155,6.155,0,0,1-1.888-.282,4.305,4.305,0,0,1-1.529-.846,4.027,4.027,0,0,1-1.034-1.427,4.986,4.986,0,0,1-.384-2.042,3.809,3.809,0,0,1,.564-1.974,4.955,4.955,0,0,1,1.82-1.683,11.856,11.856,0,0,1,3.29-1.2,25.062,25.062,0,0,1,4.973-.538v-1.35a4.66,4.66,0,0,0-.863-3.05,3.138,3.138,0,0,0-2.555-1.034,5.416,5.416,0,0,0-1.871.282,7.081,7.081,0,0,0-1.316.632q-.555.35-.957.632a1.38,1.38,0,0,1-.795.282.912.912,0,0,1-.538-.162,1.237,1.237,0,0,1-.367-.4l-.547-.974a9.885,9.885,0,0,1,3.093-2.068,9.55,9.55,0,0,1,3.674-.684,6.555,6.555,0,0,1,2.58.478,5.292,5.292,0,0,1,1.9,1.333,5.644,5.644,0,0,1,1.162,2.068,8.612,8.612,0,0,1,.393,2.666Zm-7.895-1.863a6.209,6.209,0,0,0,1.47-.162,5.8,5.8,0,0,0,1.256-.461,6.656,6.656,0,0,0,1.128-.726,9.769,9.769,0,0,0,1.051-.974V64.626a25.137,25.137,0,0,0-3.572.333,10.018,10.018,0,0,0-2.392.692,3.333,3.333,0,0,0-1.341,1.008,2.169,2.169,0,0,0-.419,1.3,2.866,2.866,0,0,0,.222,1.179,2.235,2.235,0,0,0,.6.812,2.361,2.361,0,0,0,.889.461A4.062,4.062,0,0,0,428.678,70.556Zm13.047,1.863V55.107h1.811a.775.775,0,0,1,.82.632l.239,1.88a9.729,9.729,0,0,1,2.521-2.016,6.555,6.555,0,0,1,3.221-.769,6.251,6.251,0,0,1,2.5.47,4.844,4.844,0,0,1,1.811,1.333,5.886,5.886,0,0,1,1.1,2.076,9.035,9.035,0,0,1,.376,2.683V72.418H453.09V61.4a4.659,4.659,0,0,0-.9-3.05,3.354,3.354,0,0,0-2.743-1.085,5.113,5.113,0,0,0-2.521.649,8.3,8.3,0,0,0-2.162,1.76V72.418Zm31.349-14.235a1.359,1.359,0,0,1-.273.291.646.646,0,0,1-.393.1.976.976,0,0,1-.555-.214,8.1,8.1,0,0,0-.76-.47,6.366,6.366,0,0,0-1.119-.47,5.938,5.938,0,0,0-3.854.239,4.341,4.341,0,0,0-1.632,1.307,5.916,5.916,0,0,0-.991,2.068,10.259,10.259,0,0,0-.333,2.717,9.927,9.927,0,0,0,.359,2.794A6.054,6.054,0,0,0,464.53,68.6a4.3,4.3,0,0,0,1.581,1.265,4.881,4.881,0,0,0,2.093.436,5.351,5.351,0,0,0,1.828-.265,5.568,5.568,0,0,0,1.2-.59,8.767,8.767,0,0,0,.786-.59.947.947,0,0,1,.615-.265.643.643,0,0,1,.581.291l.854,1.111a6.576,6.576,0,0,1-2.82,2.025,10,10,0,0,1-3.572.641,7.562,7.562,0,0,1-3.016-.6,6.877,6.877,0,0,1-2.418-1.734,8.229,8.229,0,0,1-1.615-2.794,11.232,11.232,0,0,1-.59-3.777,11.4,11.4,0,0,1,.538-3.572,8.092,8.092,0,0,1,1.572-2.828A7.126,7.126,0,0,1,464.7,55.5a8.61,8.61,0,0,1,3.486-.666,8.223,8.223,0,0,1,3.213.59,7.69,7.69,0,0,1,2.478,1.666Zm11.543-3.349a7.727,7.727,0,0,1,2.871.521,6.445,6.445,0,0,1,2.273,1.5,6.855,6.855,0,0,1,1.5,2.427,9.374,9.374,0,0,1,.538,3.29,1.984,1.984,0,0,1-.154.957.639.639,0,0,1-.581.239H479.543a9.557,9.557,0,0,0,.444,2.854,5.835,5.835,0,0,0,1.128,2.025,4.519,4.519,0,0,0,1.709,1.213,5.869,5.869,0,0,0,2.222.4A6.518,6.518,0,0,0,487.019,70a9.393,9.393,0,0,0,1.427-.572,10.879,10.879,0,0,0,1-.572,1.325,1.325,0,0,1,.692-.265.669.669,0,0,1,.581.291l.854,1.111a5.778,5.778,0,0,1-1.35,1.188,8.406,8.406,0,0,1-1.683.829,10.689,10.689,0,0,1-1.854.487,11.324,11.324,0,0,1-1.9.162,8.8,8.8,0,0,1-3.307-.607,7.257,7.257,0,0,1-2.615-1.777,8.153,8.153,0,0,1-1.717-2.9,11.778,11.778,0,0,1-.615-3.965,10.085,10.085,0,0,1,.555-3.384,7.974,7.974,0,0,1,1.6-2.726,7.355,7.355,0,0,1,2.546-1.811A8.358,8.358,0,0,1,484.618,54.834Zm.068,2.239a4.67,4.67,0,0,0-3.469,1.273,5.992,5.992,0,0,0-1.572,3.529h9.416a6.161,6.161,0,0,0-.291-1.94,4.322,4.322,0,0,0-.854-1.521,3.823,3.823,0,0,0-1.376-.991A4.639,4.639,0,0,0,484.687,57.073Zm11.526,15.346V55.107h1.743a.962.962,0,0,1,.684.188,1.153,1.153,0,0,1,.256.649l.205,2.7a7.918,7.918,0,0,1,2.2-2.828,5.174,5.174,0,0,1,4.366-.854,4.525,4.525,0,0,1,1.077.453l-.393,2.273a.514.514,0,0,1-.53.427,2.659,2.659,0,0,1-.735-.162,4.635,4.635,0,0,0-1.384-.162,3.921,3.921,0,0,0-2.657.923,6.927,6.927,0,0,0-1.786,2.683V72.418Z" transform="translate(-329.597 -46.554)"/></svg>