<svg xmlns="http://www.w3.org/2000/svg" width="157.719" height="48.36" viewBox="0 0 157.719 48.36"><defs><style>.a{fill:#00ffaf;}.b,.c{fill:#158ae9;}.c{font-size:26px;font-family:Kefa-Regular, Kefa;}</style></defs><g transform="translate(0 0)"><path class="a" d="M898.654,615.363v3.355a.813.813,0,0,0,.812.812h34.049a.812.812,0,0,0,.415-1.511q-6.138-3.466-15.7-3.468H899.466A.813.813,0,0,0,898.654,615.363Z" transform="translate(-892.577 -611.006)"/><path class="a" d="M898.654,634.511v3.355a.812.812,0,0,0,.812.812h42.356a.818.818,0,0,0,.769-1.084,19.135,19.135,0,0,0-1.581-3.5.815.815,0,0,0-.706-.4H899.466A.812.812,0,0,0,898.654,634.511Z" transform="translate(-892.577 -620.195)"/><path class="a" d="M942.993,652.846H899.466a.813.813,0,0,0-.812.812v3.355a.813.813,0,0,0,.812.812h43.489a.81.81,0,0,0,.811-.745c.048-.661.074-1.333.074-2.017q0-.731-.035-1.437A.816.816,0,0,0,942.993,652.846Z" transform="translate(-892.577 -629.383)"/><path class="a" d="M941.566,671.994h-42.1a.812.812,0,0,0-.812.812v3.355a.812.812,0,0,0,.812.812h40.518a.813.813,0,0,0,.7-.4c.2-.333.388-.674.568-1.024a21.8,21.8,0,0,0,1.075-2.456A.817.817,0,0,0,941.566,671.994Z" transform="translate(-892.577 -638.573)"/><path class="a" d="M933.96,692.652l.023-.014a.812.812,0,0,0-.44-1.5H899.466a.812.812,0,0,0-.812.812v3.355a.813.813,0,0,0,.812.812h17.039a58.838,58.838,0,0,0,10.181-.82A21.144,21.144,0,0,0,933.96,692.652Z" transform="translate(-892.577 -647.762)"/><path class="b" d="M886.969,608.546V611.9a.813.813,0,0,0,.812.812h31.745a.812.812,0,0,0,.415-1.511q-6.138-3.466-15.7-3.468H887.781A.812.812,0,0,0,886.969,608.546Z" transform="translate(-886.969 -607.734)"/><path class="b" d="M886.969,627.694v3.354a.812.812,0,0,0,.812.812h40.053a.818.818,0,0,0,.769-1.084,19.1,19.1,0,0,0-1.581-3.5.815.815,0,0,0-.706-.4H887.781A.812.812,0,0,0,886.969,627.694Z" transform="translate(-886.969 -616.923)"/><path class="b" d="M929,646.029H887.781a.813.813,0,0,0-.812.813V650.2a.812.812,0,0,0,.812.812h41.185a.81.81,0,0,0,.812-.745c.048-.661.074-1.333.074-2.017,0-.487-.013-.965-.035-1.437A.816.816,0,0,0,929,646.029Z" transform="translate(-886.969 -626.112)"/><path class="b" d="M927.578,665.177h-39.8a.812.812,0,0,0-.812.812v3.355a.812.812,0,0,0,.812.812H926a.813.813,0,0,0,.7-.4c.2-.333.388-.674.568-1.025a21.659,21.659,0,0,0,1.075-2.456A.817.817,0,0,0,927.578,665.177Z" transform="translate(-886.969 -635.301)"/><path class="b" d="M919.971,685.835l.022-.014a.812.812,0,0,0-.44-1.5H887.781a.812.812,0,0,0-.812.812v3.355a.813.813,0,0,0,.812.812h14.736a58.854,58.854,0,0,0,10.181-.82A21.149,21.149,0,0,0,919.971,685.835Z" transform="translate(-886.969 -644.49)"/></g><text class="c" transform="translate(61.719 31.495)"><tspan x="0" y="0">Defi.org</tspan></text></svg>