<svg width="987" height="194" viewBox="0 0 987 194" fill="none" xmlns="http://www.w3.org/2000/svg">
<path d="M262.079 68.0575H274.328L292.364 119.611L310.401 68.0575H322.65L297.284 138.274H287.445L262.079 68.0575ZM255.472 68.0575H267.673L269.891 118.309V138.274H255.472V68.0575ZM317.056 68.0575H329.305V138.274H314.838V118.309L317.056 68.0575Z" fill="#222222"/>
<path d="M363.903 139.239C359.852 139.239 356.219 138.596 353.004 137.31C349.789 135.992 347.056 134.175 344.805 131.86C342.587 129.546 340.883 126.861 339.693 123.807C338.504 120.72 337.909 117.441 337.909 113.969V112.04C337.909 108.085 338.472 104.468 339.597 101.189C340.722 97.9093 342.33 95.064 344.419 92.6527C346.541 90.2414 349.113 88.3928 352.136 87.1068C355.158 85.7886 358.566 85.1295 362.359 85.1295C366.057 85.1295 369.336 85.7404 372.198 86.9621C375.059 88.1838 377.454 89.9199 379.383 92.1705C381.344 94.421 382.823 97.1217 383.82 100.272C384.817 103.391 385.315 106.863 385.315 110.689V116.476H343.841V107.217H371.667V106.156C371.667 104.227 371.313 102.507 370.606 100.996C369.931 99.4526 368.902 98.2309 367.52 97.3306C366.137 96.4304 364.369 95.9803 362.215 95.9803C360.382 95.9803 358.807 96.3822 357.489 97.186C356.17 97.9897 355.093 99.115 354.258 100.562C353.454 102.009 352.843 103.713 352.425 105.674C352.039 107.603 351.846 109.725 351.846 112.04V113.969C351.846 116.058 352.136 117.987 352.714 119.756C353.325 121.524 354.177 123.051 355.27 124.337C356.396 125.623 357.746 126.62 359.321 127.327C360.929 128.034 362.745 128.388 364.771 128.388C367.279 128.388 369.609 127.906 371.764 126.941C373.95 125.945 375.831 124.45 377.406 122.456L384.158 129.787C383.064 131.362 381.569 132.873 379.673 134.32C377.808 135.767 375.557 136.956 372.921 137.889C370.285 138.789 367.279 139.239 363.903 139.239Z" fill="#222222"/>
<path d="M425.024 86.094H437.611V136.538C437.611 141.297 436.55 145.331 434.428 148.643C432.338 151.987 429.413 154.51 425.651 156.214C421.889 157.951 417.517 158.819 412.534 158.819C410.347 158.819 408.033 158.529 405.589 157.951C403.178 157.372 400.863 156.472 398.645 155.25C396.458 154.028 394.626 152.485 393.147 150.62L399.272 142.422C400.879 144.287 402.744 145.733 404.866 146.762C406.988 147.823 409.335 148.354 411.907 148.354C414.414 148.354 416.536 147.887 418.273 146.955C420.009 146.055 421.343 144.721 422.275 142.952C423.208 141.216 423.674 139.11 423.674 136.635V98.1505L425.024 86.094ZM389.916 112.811V111.798C389.916 107.812 390.398 104.195 391.363 100.948C392.359 97.6682 393.758 94.855 395.558 92.5081C397.391 90.1611 399.609 88.3446 402.213 87.0585C404.818 85.7725 407.759 85.1295 411.039 85.1295C414.511 85.1295 417.421 85.7725 419.768 87.0585C422.115 88.3446 424.044 90.1771 425.555 92.5563C427.066 94.9033 428.239 97.6843 429.075 100.899C429.943 104.082 430.618 107.571 431.101 111.364V113.583C430.618 117.216 429.895 120.592 428.93 123.71C427.966 126.829 426.696 129.562 425.121 131.909C423.545 134.223 421.584 136.024 419.237 137.31C416.922 138.596 414.157 139.239 410.942 139.239C407.727 139.239 404.818 138.58 402.213 137.262C399.641 135.943 397.439 134.095 395.606 131.716C393.774 129.337 392.359 126.539 391.363 123.324C390.398 120.109 389.916 116.605 389.916 112.811ZM403.805 111.798V112.811C403.805 114.965 404.014 116.975 404.432 118.839C404.85 120.704 405.493 122.36 406.361 123.807C407.261 125.221 408.37 126.33 409.688 127.134C411.039 127.906 412.63 128.292 414.463 128.292C417.003 128.292 419.076 127.761 420.684 126.7C422.291 125.607 423.497 124.112 424.301 122.215C425.105 120.318 425.571 118.132 425.699 115.656V109.339C425.635 107.313 425.362 105.497 424.879 103.889C424.397 102.25 423.722 100.851 422.854 99.6937C421.986 98.5363 420.861 97.6361 419.478 96.9931C418.096 96.35 416.456 96.0285 414.559 96.0285C412.727 96.0285 411.135 96.4465 409.785 97.2824C408.467 98.0862 407.357 99.1954 406.457 100.61C405.589 102.025 404.93 103.696 404.48 105.625C404.03 107.522 403.805 109.58 403.805 111.798Z" fill="#222222"/>
<path d="M475.343 126.507V103.262C475.343 101.591 475.07 100.16 474.523 98.9703C473.977 97.7486 473.125 96.8002 471.967 96.125C470.842 95.4498 469.379 95.1122 467.579 95.1122C466.035 95.1122 464.701 95.3855 463.576 95.9321C462.451 96.4465 461.583 97.202 460.972 98.1987C460.361 99.1632 460.055 100.305 460.055 101.623H446.166C446.166 99.4044 446.681 97.2985 447.71 95.3052C448.738 93.3118 450.233 91.5596 452.195 90.0485C454.156 88.5053 456.487 87.2997 459.187 86.4316C461.92 85.5635 464.974 85.1295 468.35 85.1295C472.401 85.1295 476.002 85.8047 479.153 87.155C482.304 88.5053 484.779 90.5308 486.58 93.2314C488.412 95.9321 489.329 99.3079 489.329 103.359V125.687C489.329 128.549 489.505 130.896 489.859 132.728C490.213 134.529 490.727 136.104 491.402 137.455V138.274H477.369C476.693 136.86 476.179 135.091 475.825 132.97C475.504 130.815 475.343 128.661 475.343 126.507ZM477.176 106.494L477.272 114.354H469.508C467.675 114.354 466.084 114.563 464.733 114.981C463.383 115.399 462.274 115.994 461.406 116.766C460.538 117.505 459.895 118.373 459.477 119.37C459.091 120.367 458.898 121.46 458.898 122.649C458.898 123.839 459.171 124.916 459.718 125.88C460.264 126.813 461.052 127.552 462.081 128.099C463.11 128.613 464.315 128.87 465.698 128.87C467.788 128.87 469.604 128.452 471.147 127.616C472.691 126.781 473.88 125.752 474.716 124.53C475.584 123.308 476.034 122.151 476.066 121.058L479.732 126.941C479.217 128.259 478.51 129.626 477.61 131.041C476.742 132.455 475.632 133.789 474.282 135.043C472.932 136.265 471.308 137.278 469.411 138.082C467.514 138.853 465.264 139.239 462.66 139.239C459.348 139.239 456.342 138.58 453.641 137.262C450.973 135.911 448.851 134.063 447.276 131.716C445.732 129.337 444.961 126.636 444.961 123.614C444.961 120.881 445.475 118.454 446.504 116.332C447.533 114.21 449.044 112.425 451.037 110.979C453.063 109.5 455.587 108.39 458.609 107.651C461.631 106.879 465.135 106.494 469.122 106.494H477.176Z" fill="#222222"/>
<path d="M524.36 86.094V95.9321H493.978V86.094H524.36ZM501.501 73.2177H515.39V122.553C515.39 124.064 515.583 125.221 515.968 126.025C516.386 126.829 516.997 127.391 517.801 127.713C518.605 128.002 519.618 128.147 520.839 128.147C521.707 128.147 522.479 128.115 523.154 128.051C523.861 127.954 524.456 127.858 524.939 127.761L524.987 137.985C523.797 138.371 522.511 138.676 521.129 138.901C519.746 139.126 518.219 139.239 516.547 139.239C513.493 139.239 510.824 138.741 508.542 137.744C506.291 136.715 504.555 135.075 503.333 132.825C502.112 130.574 501.501 127.616 501.501 123.951V73.2177Z" fill="#222222"/>
<path d="M527.562 112.715V111.702C527.562 107.876 528.109 104.356 529.202 101.14C530.295 97.8933 531.886 95.0801 533.976 92.701C536.066 90.3218 538.638 88.4732 541.692 87.155C544.746 85.8047 548.251 85.1295 552.205 85.1295C556.16 85.1295 559.68 85.8047 562.767 87.155C565.853 88.4732 568.441 90.3218 570.531 92.701C572.653 95.0801 574.261 97.8933 575.354 101.14C576.447 104.356 576.994 107.876 576.994 111.702V112.715C576.994 116.508 576.447 120.029 575.354 123.276C574.261 126.491 572.653 129.304 570.531 131.716C568.441 134.095 565.869 135.943 562.815 137.262C559.761 138.58 556.256 139.239 552.302 139.239C548.347 139.239 544.827 138.58 541.74 137.262C538.686 135.943 536.098 134.095 533.976 131.716C531.886 129.304 530.295 126.491 529.202 123.276C528.109 120.029 527.562 116.508 527.562 112.715ZM541.451 111.702V112.715C541.451 114.901 541.644 116.942 542.03 118.839C542.416 120.736 543.026 122.408 543.862 123.855C544.73 125.269 545.856 126.379 547.238 127.182C548.621 127.986 550.309 128.388 552.302 128.388C554.231 128.388 555.887 127.986 557.269 127.182C558.652 126.379 559.761 125.269 560.597 123.855C561.433 122.408 562.043 120.736 562.429 118.839C562.847 116.942 563.056 114.901 563.056 112.715V111.702C563.056 109.58 562.847 107.587 562.429 105.722C562.043 103.825 561.417 102.153 560.548 100.706C559.713 99.2275 558.603 98.0701 557.221 97.2342C555.838 96.3983 554.167 95.9803 552.205 95.9803C550.244 95.9803 548.572 96.3983 547.19 97.2342C545.84 98.0701 544.73 99.2275 543.862 100.706C543.026 102.153 542.416 103.825 542.03 105.722C541.644 107.587 541.451 109.58 541.451 111.702Z" fill="#222222"/>
<path d="M597.895 97.2342V138.274H584.006V86.094H597.027L597.895 97.2342ZM595.869 110.352H592.107C592.107 106.494 592.606 103.021 593.602 99.9348C594.599 96.8162 595.998 94.1638 597.798 91.9776C599.599 89.7592 601.737 88.0713 604.212 86.9139C606.72 85.7243 609.517 85.1295 612.603 85.1295C615.047 85.1295 617.281 85.4831 619.307 86.1905C621.332 86.8978 623.068 88.023 624.515 89.5663C625.994 91.1095 627.119 93.1511 627.891 95.691C628.695 98.2309 629.097 101.333 629.097 104.999V138.274H615.111V104.95C615.111 102.635 614.79 100.835 614.147 99.549C613.504 98.263 612.555 97.3628 611.301 96.8484C610.08 96.3018 608.569 96.0285 606.768 96.0285C604.903 96.0285 603.28 96.3983 601.897 97.1377C600.547 97.8772 599.422 98.906 598.522 100.224C597.653 101.51 596.994 103.021 596.544 104.757C596.094 106.494 595.869 108.358 595.869 110.352Z" fill="#222222"/>
<path d="M671.236 68.0575V138.274H665.305V68.0575H671.236ZM703.934 100.369V105.481H669.259V100.369H703.934ZM708.804 68.0575V73.1695H669.259V68.0575H708.804Z" fill="#222222"/>
<path d="M724.69 86.094V138.274H718.951V86.094H724.69ZM717.938 70.9993C717.938 69.9062 718.276 68.9899 718.951 68.2504C719.658 67.4788 720.623 67.093 721.845 67.093C723.066 67.093 724.031 67.4788 724.738 68.2504C725.478 68.9899 725.847 69.9062 725.847 70.9993C725.847 72.0603 725.478 72.9766 724.738 73.7482C724.031 74.4877 723.066 74.8574 721.845 74.8574C720.623 74.8574 719.658 74.4877 718.951 73.7482C718.276 72.9766 717.938 72.0603 717.938 70.9993Z" fill="#222222"/>
<path d="M744.964 97.2342V138.274H739.225V86.094H744.723L744.964 97.2342ZM743.662 108.953L741.106 107.506C741.299 104.42 741.926 101.526 742.987 98.8256C744.048 96.125 745.479 93.7458 747.279 91.6882C749.112 89.6306 751.25 88.023 753.693 86.8656C756.169 85.7082 758.901 85.1295 761.891 85.1295C764.496 85.1295 766.827 85.4831 768.884 86.1905C770.942 86.8978 772.694 88.023 774.141 89.5663C775.588 91.1095 776.681 93.0868 777.42 95.4981C778.192 97.9093 778.578 100.851 778.578 104.323V138.274H772.791V104.275C772.791 100.674 772.292 97.8611 771.295 95.8356C770.299 93.778 768.884 92.3151 767.052 91.4471C765.219 90.579 763.049 90.145 760.541 90.145C757.776 90.145 755.349 90.7558 753.259 91.9776C751.201 93.1671 749.465 94.7264 748.051 96.6555C746.668 98.5524 745.607 100.594 744.868 102.78C744.128 104.934 743.726 106.992 743.662 108.953Z" fill="#222222"/>
<path d="M824.026 128.919V102.009C824.026 99.533 823.511 97.3949 822.482 95.5945C821.454 93.7941 819.943 92.4116 817.949 91.4471C815.956 90.4826 813.496 90.0003 810.571 90.0003C807.87 90.0003 805.459 90.4826 803.337 91.4471C801.247 92.3794 799.591 93.6494 798.369 95.2569C797.18 96.8323 796.585 98.5845 796.585 100.514L790.798 100.465C790.798 98.5041 791.28 96.6073 792.245 94.7747C793.209 92.9421 794.576 91.3024 796.344 89.8556C798.112 88.4089 800.218 87.2675 802.662 86.4316C805.137 85.5635 807.854 85.1295 810.812 85.1295C814.541 85.1295 817.821 85.7564 820.65 87.0103C823.511 88.2642 825.746 90.145 827.353 92.6527C828.961 95.1605 829.765 98.3112 829.765 102.105V127.327C829.765 129.128 829.893 130.992 830.15 132.921C830.44 134.85 830.842 136.442 831.356 137.696V138.274H825.231C824.845 137.117 824.54 135.67 824.315 133.934C824.122 132.166 824.026 130.494 824.026 128.919ZM825.376 107.892L825.472 112.329H814.139C811.182 112.329 808.529 112.602 806.182 113.149C803.867 113.663 801.906 114.435 800.299 115.464C798.691 116.46 797.453 117.666 796.585 119.081C795.749 120.495 795.331 122.103 795.331 123.903C795.331 125.768 795.797 127.472 796.73 129.015C797.694 130.558 799.045 131.796 800.781 132.728C802.549 133.629 804.639 134.079 807.05 134.079C810.265 134.079 813.094 133.484 815.538 132.294C818.013 131.105 820.055 129.546 821.663 127.616C823.27 125.687 824.347 123.582 824.894 121.299L827.401 124.626C826.984 126.234 826.212 127.89 825.087 129.594C823.994 131.266 822.563 132.841 820.795 134.32C819.026 135.767 816.936 136.956 814.525 137.889C812.146 138.789 809.445 139.239 806.423 139.239C803.015 139.239 800.041 138.596 797.501 137.31C794.994 136.024 793.033 134.272 791.618 132.053C790.235 129.803 789.544 127.263 789.544 124.434C789.544 121.862 790.091 119.563 791.184 117.537C792.277 115.48 793.852 113.744 795.91 112.329C798 110.882 800.508 109.789 803.433 109.05C806.391 108.278 809.703 107.892 813.368 107.892H825.376Z" fill="#222222"/>
<path d="M849.749 97.2342V138.274H844.01V86.094H849.508L849.749 97.2342ZM848.447 108.953L845.891 107.506C846.084 104.42 846.711 101.526 847.772 98.8256C848.833 96.125 850.264 93.7458 852.064 91.6882C853.897 89.6306 856.035 88.023 858.478 86.8656C860.954 85.7082 863.687 85.1295 866.677 85.1295C869.281 85.1295 871.612 85.4831 873.669 86.1905C875.727 86.8978 877.479 88.023 878.926 89.5663C880.373 91.1095 881.466 93.0868 882.205 95.4981C882.977 97.9093 883.363 100.851 883.363 104.323V138.274H877.576V104.275C877.576 100.674 877.077 97.8611 876.081 95.8356C875.084 93.778 873.669 92.3151 871.837 91.4471C870.004 90.579 867.834 90.145 865.326 90.145C862.561 90.145 860.134 90.7558 858.044 91.9776C855.987 93.1671 854.25 94.7264 852.836 96.6555C851.453 98.5524 850.392 100.594 849.653 102.78C848.913 104.934 848.512 106.992 848.447 108.953Z" fill="#222222"/>
<path d="M916.32 134.272C918.764 134.272 921.046 133.822 923.168 132.921C925.322 131.989 927.091 130.623 928.473 128.822C929.888 126.99 930.692 124.755 930.885 122.119H936.382C936.222 125.43 935.209 128.388 933.344 130.992C931.511 133.564 929.1 135.59 926.11 137.069C923.152 138.516 919.889 139.239 916.32 139.239C912.687 139.239 909.472 138.58 906.675 137.262C903.91 135.943 901.595 134.111 899.731 131.764C897.866 129.385 896.451 126.62 895.487 123.469C894.554 120.286 894.088 116.862 894.088 113.197V111.171C894.088 107.506 894.554 104.098 895.487 100.948C896.451 97.7647 897.866 94.9997 899.731 92.6527C901.595 90.2736 903.91 88.4249 906.675 87.1068C909.44 85.7886 912.639 85.1295 916.272 85.1295C920.002 85.1295 923.345 85.885 926.303 87.3961C929.293 88.9072 931.672 91.0452 933.44 93.8102C935.241 96.5751 936.222 99.8545 936.382 103.648H930.885C930.724 100.851 929.984 98.4398 928.666 96.4143C927.348 94.3889 925.612 92.8296 923.458 91.7364C921.304 90.6433 918.908 90.0968 916.272 90.0968C913.314 90.0968 910.79 90.6755 908.701 91.8329C906.611 92.9582 904.907 94.5175 903.589 96.5108C902.303 98.472 901.354 100.723 900.743 103.262C900.132 105.77 899.827 108.407 899.827 111.171V113.197C899.827 115.994 900.116 118.663 900.695 121.202C901.306 123.71 902.254 125.945 903.54 127.906C904.859 129.867 906.563 131.426 908.652 132.584C910.774 133.709 913.33 134.272 916.32 134.272Z" fill="#222222"/>
<path d="M966.929 139.239C963.521 139.239 960.386 138.612 957.524 137.358C954.695 136.104 952.22 134.336 950.098 132.053C948.008 129.771 946.384 127.07 945.227 123.951C944.102 120.801 943.539 117.36 943.539 113.631V111.557C943.539 107.538 944.134 103.905 945.323 100.658C946.513 97.411 948.153 94.63 950.242 92.3151C952.332 90.0003 954.711 88.232 957.38 87.0103C960.08 85.7564 962.91 85.1295 965.868 85.1295C969.179 85.1295 972.121 85.7243 974.693 86.9139C977.265 88.0713 979.419 89.727 981.155 91.8811C982.923 94.0031 984.258 96.5269 985.158 99.4526C986.058 102.346 986.508 105.545 986.508 109.05V112.57H947.011V107.651H980.769V106.976C980.705 104.05 980.11 101.317 978.985 98.7774C977.892 96.2054 976.252 94.1156 974.066 92.5081C971.88 90.9005 969.147 90.0968 965.868 90.0968C963.424 90.0968 961.174 90.6112 959.116 91.64C957.09 92.6688 955.338 94.1477 953.859 96.0768C952.413 97.9737 951.287 100.24 950.484 102.877C949.712 105.481 949.326 108.374 949.326 111.557V113.631C949.326 116.525 949.744 119.225 950.58 121.733C951.448 124.209 952.67 126.395 954.245 128.292C955.853 130.189 957.75 131.667 959.936 132.728C962.122 133.789 964.533 134.32 967.17 134.32C970.256 134.32 972.989 133.757 975.368 132.632C977.747 131.475 979.885 129.658 981.782 127.182L985.399 129.98C984.274 131.651 982.859 133.195 981.155 134.609C979.483 136.024 977.474 137.149 975.127 137.985C972.78 138.821 970.047 139.239 966.929 139.239Z" fill="#222222"/>
<path opacity="0.7" d="M31.8152 66.5228L0 6.03459L56.3039 28.923L55.3445 0L145.862 31.0344C153.676 34.3695 161.12 38.9239 167.905 44.7277C203.629 75.2971 207.607 128.804 176.789 164.238C145.971 199.674 92.0284 203.62 56.3039 173.051C49.5193 167.247 43.8874 160.61 39.4136 153.432L3.0172 60.1693L31.8152 66.5228Z" fill="url(#paint0_linear_111_3144)"/>
<path d="M79.0688 55.51L85.1706 40.5344C87.3364 35.2204 93.6522 32.9931 98.6743 35.7684L134.351 55.51H79.0688Z" fill="#40A6DA"/>
<path d="M134.351 151.271L128.25 166.246C126.084 171.56 119.768 173.787 114.746 171.012L79.0688 151.271H134.351Z" fill="#2391BD"/>
<path d="M51.4294 103.384L41.5116 90.6131C37.9938 86.0838 39.2193 79.4957 44.1345 76.5356L79.069 55.51L51.4294 103.384Z" fill="#2391BD"/>
<path d="M79.0695 151.258L63.0531 153.463C57.3695 154.244 52.2793 149.886 52.1756 144.151L51.4331 103.384L79.0695 151.258V151.258Z" fill="#40A6DA"/>
<path d="M161.991 103.384L171.906 116.155C175.424 120.684 174.195 127.272 169.283 130.229L134.352 151.258L161.991 103.384V103.384Z" fill="#40A6DA"/>
<path d="M134.352 55.5094L150.368 53.3047C156.051 52.5233 161.142 56.8808 161.245 62.6162L161.991 103.383L134.352 55.5094Z" fill="#2391BD"/>
<path d="M79.0695 55.51L51.4331 103.384H161.992L79.0695 55.51Z" fill="#83C7E6"/>
<path d="M51.4331 103.384L134.352 151.258L161.992 103.384H51.4331V103.384Z" fill="#57B4DD"/>
<path d="M134.351 55.51H79.0688L161.991 103.384L134.348 55.51H134.351Z" fill="#65BCDF"/>
<path d="M79.0695 151.271L134.352 151.258L51.4331 103.384L79.0695 151.271Z" fill="#65BCDF"/>
<path d="M79.0695 55.51L51.4331 103.384H161.992L79.0695 55.51Z" fill="url(#paint1_linear_111_3144)" fill-opacity="0.5"/>
<path d="M51.4302 103.384L79.0698 55.51L161.992 103.384L79.929 59.968L51.4302 103.384Z" fill="url(#paint2_linear_111_3144)"/>
<path d="M51.4302 103.384H161.992L134.352 151.258L156.516 107.414L51.4302 103.384Z" fill="url(#paint3_linear_111_3144)"/>
<path d="M134.351 55.51H79.0688L161.991 103.384L88.3772 57.1116L134.351 55.51Z" fill="url(#paint4_linear_111_3144)"/>
<path d="M134.352 151.271L51.4302 103.384L79.0698 151.271L60.8844 112.883L134.352 151.271Z" fill="url(#paint5_linear_111_3144)"/>
<defs>
<linearGradient id="paint0_linear_111_3144" x1="34.5683" y1="34.5683" x2="170.372" y2="170.372" gradientUnits="userSpaceOnUse">
<stop stop-color="#68FEFF" stop-opacity="0.5"/>
<stop offset="1" stop-color="#3FA6B1" stop-opacity="0.2"/>
</linearGradient>
<linearGradient id="paint1_linear_111_3144" x1="71.7162" y1="61.6766" x2="129.554" y2="130.602" gradientUnits="userSpaceOnUse">
<stop stop-color="white"/>
<stop offset="1" stop-color="white" stop-opacity="0.1"/>
</linearGradient>
<linearGradient id="paint2_linear_111_3144" x1="79.0698" y1="55.5068" x2="120.531" y2="127.321" gradientUnits="userSpaceOnUse">
<stop stop-color="white"/>
<stop offset="1" stop-color="white" stop-opacity="0.1"/>
</linearGradient>
<linearGradient id="paint3_linear_111_3144" x1="92.8912" y1="79.4467" x2="134.352" y2="151.258" gradientUnits="userSpaceOnUse">
<stop stop-color="white"/>
<stop offset="1" stop-color="white" stop-opacity="0.1"/>
</linearGradient>
<linearGradient id="paint4_linear_111_3144" x1="99.7994" y1="43.5399" x2="141.26" y2="115.351" gradientUnits="userSpaceOnUse">
<stop stop-color="white"/>
<stop offset="1" stop-color="white" stop-opacity="0.1"/>
</linearGradient>
<linearGradient id="paint5_linear_111_3144" x1="72.1542" y1="91.4169" x2="113.622" y2="163.238" gradientUnits="userSpaceOnUse">
<stop stop-color="white"/>
<stop offset="1" stop-color="white" stop-opacity="0.1"/>
</linearGradient>
</defs>
</svg>
