<svg width="120" height="27" xmlns="http://www.w3.org/2000/svg">
    <defs>
        <radialGradient cx="100%" cy="100%" fx="100%" fy="100%" r="141.623%" gradientTransform="matrix(-.7061 -.7061 .70811 -.7041 .998 2.41)" id="a">
            <stop stop-color="#00AE87" offset="0%"/>
            <stop stop-color="#0767B2" offset="100%"/>
        </radialGradient>
    </defs>
    <g fill="none" fill-rule="evenodd">
        <path d="M1.094 12.503c.604 0 1.094.493 1.094 1.1v.009h.006c0 4.902 3.422 8.995 7.992 10 .701.153 1.43.235 2.176.235H12.413c.604 0 1.093.492 1.093 1.1 0 .607-.49 1.1-1.093 1.1h.132a12.402 12.402 0 0 1-2.97-.317C4.093 24.46.003 19.52 0 13.62v-.017c0-.607.49-1.1 1.094-1.1zm11.568-6.772c4.196 0 7.598 3.411 7.598 7.619s-3.402 7.619-7.598 7.619-7.597-3.411-7.597-7.62c0-4.207 3.401-7.618 7.597-7.618zm0 3.22a4.392 4.392 0 0 0-4.385 4.399 4.392 4.392 0 0 0 4.385 4.398 4.392 4.392 0 0 0 4.386-4.398 4.392 4.392 0 0 0-4.386-4.398zm10.974 6.374c.622 0 1.126.506 1.126 1.129s-.504 1.129-1.126 1.129a1.127 1.127 0 0 1-1.125-1.129c0-.623.504-1.129 1.125-1.129zM12.936.652h.024c6.829 0 12.362 5.564 12.365 12.428v.016c0 .608-.49 1.1-1.094 1.1a1.097 1.097 0 0 1-1.094-1.1v-.016C23.135 7.43 18.58 2.852 12.962 2.852h-.05a1.097 1.097 0 0 1-1.094-1.1 1.097 1.097 0 0 1 1.142-1.1zM1.688 9.117c.622 0 1.126.505 1.126 1.129 0 .623-.504 1.129-1.126 1.129a1.127 1.127 0 0 1-1.125-1.13c0-.623.504-1.128 1.125-1.128z" fill="url(#a)"/>
        <path d="M36.353 6.791a7.01 7.01 0 0 1 2.58.491v3.426a4.044 4.044 0 0 0-2.58-.926 4.076 4.076 0 0 0-4.07 4.026v7.131H29.3v-7.131c.031-3.88 3.177-7.017 7.053-7.017zm7.49-3.911v5.21a7.004 7.004 0 0 1 4.071-1.299c3.896 0 7.054 3.167 7.054 7.074 0 3.908-3.158 7.074-7.054 7.074-3.838 0-6.957-3.074-7.05-6.901h-.004V2.88h2.982zM59.758 6.79V20.94h-2.983V6.791h2.983zm4.964 0v3.336h6.797v2.99h-6.797v.805a4.078 4.078 0 0 0 4.071 4.027c.98 0 2.023-.347 2.726-.925v3.425c-.8.315-1.814.49-2.726.49-3.876 0-7.021-3.136-7.052-7.017V6.791h2.981zM47.914 9.782a4.078 4.078 0 0 0-4.072 4.083 4.078 4.078 0 0 0 4.072 4.084 4.078 4.078 0 0 0 4.072-4.084 4.078 4.078 0 0 0-4.072-4.083zM59.76 2.88v2.991h-2.983V2.88h2.983z" fill="#222"/>
        <path d="M76.696 21.224V9.617h3.054c1.249 0 2.193.254 2.834.762.64.507.96 1.245.96 2.212 0 .701-.178 1.283-.534 1.746-.356.462-.858.757-1.506.885a2.905 2.905 0 0 1 1.833.952c.489.54.733 1.158.733 1.854 0 .988-.32 1.768-.96 2.34-.64.57-1.532.856-2.675.856h-3.739zm.43-5.731v5.301h3.357c.983 0 1.755-.243 2.316-.73.56-.486.841-1.16.841-2.02 0-.734-.271-1.338-.813-1.814-.542-.476-1.268-.721-2.176-.737h-3.524zm0-.43h2.783c1.058 0 1.855-.204 2.392-.61.536-.407.805-1.038.805-1.894 0-1.648-1.087-2.485-3.26-2.511h-2.72v5.014zm12.995-2.153-.558-.048c-.733 0-1.347.238-1.841.713-.495.476-.819 1.142-.973 1.997v5.652h-.43V12.6h.43v1.794c.234-.601.585-1.077 1.052-1.427.468-.351 1.055-.527 1.762-.527.25 0 .452.03.606.088l-.048.383zm2.192 8.314h-.43V12.6h.43v8.625zm-.653-10.32c0-.122.042-.227.127-.315a.417.417 0 0 1 .311-.131.43.43 0 0 1 .315.131.43.43 0 0 1 .132.315.417.417 0 0 1-.132.311.436.436 0 0 1-.315.128.423.423 0 0 1-.31-.128.423.423 0 0 1-.128-.31zm3.085 5.92c0-1.377.29-2.451.869-3.225.58-.773 1.374-1.16 2.383-1.16.649 0 1.221.147 1.718.439.497.292.9.728 1.208 1.307V8.98h.43v12.244h-.43v-1.379a3.004 3.004 0 0 1-1.204 1.136c-.51.269-1.09.403-1.737.403-1 0-1.789-.396-2.368-1.188-.58-.792-.87-1.879-.87-3.26v-.112zm.446.167c0 1.223.242 2.189.726 2.898.483.71 1.169 1.064 2.057 1.064.712 0 1.32-.158 1.825-.474.505-.316.88-.78 1.124-1.391v-4.042c-.494-1.45-1.472-2.176-2.934-2.176-.882 0-1.569.348-2.06 1.044-.492.696-.738 1.722-.738 3.077zm8.482-.167c0-1.377.29-2.451.87-3.225.579-.773 1.373-1.16 2.383-1.16.643 0 1.214.148 1.714.443.5.295.9.727 1.204 1.295V12.6h.438v8.474c0 1.137-.292 2.026-.877 2.667-.584.64-1.379.96-2.383.96-.58 0-1.11-.125-1.59-.374a3.52 3.52 0 0 1-1.232-1.077l.303-.287c.334.426.701.751 1.1.977.398.226.866.339 1.403.339.887 0 1.578-.27 2.072-.81.495-.539.75-1.3.766-2.283V19.86a3.01 3.01 0 0 1-1.208 1.128c-.508.263-1.083.395-1.726.395-1 0-1.788-.396-2.368-1.188-.579-.792-.869-1.879-.869-3.26v-.112zm.439.167c0 1.233.244 2.202.733 2.906.49.704 1.175 1.056 2.057 1.056.728 0 1.347-.168 1.858-.506.51-.337.871-.812 1.084-1.423V15.11c-.468-1.493-1.443-2.24-2.926-2.24-.887 0-1.577.348-2.069 1.044-.491.696-.737 1.722-.737 3.077zm12.022 4.393a3.47 3.47 0 0 1-1.918-.562 3.856 3.856 0 0 1-1.367-1.543c-.33-.653-.494-1.379-.494-2.176v-.359a5 5 0 0 1 .478-2.192c.32-.664.758-1.183 1.316-1.555a3.225 3.225 0 0 1 1.825-.558c.962 0 1.749.343 2.36 1.029.611.685.917 1.586.917 2.702v.455h-6.466v.47c0 .702.148 1.351.443 1.95a3.487 3.487 0 0 0 1.22 1.406c.518.34 1.08.51 1.686.51.579 0 1.072-.097 1.478-.29a3.012 3.012 0 0 0 1.08-.897l.304.215c-.644.93-1.598 1.395-2.862 1.395zm-.16-8.514c-.84 0-1.552.312-2.136.937-.585.624-.928 1.42-1.029 2.387h6.011v-.103c0-.585-.123-1.128-.37-1.63a2.858 2.858 0 0 0-1.02-1.173 2.63 2.63 0 0 0-1.456-.418z" fill="#222" fill-rule="nonzero"/>
    </g>
</svg>
