<svg width="101" height="31" viewBox="0 0 101 31" fill="none" xmlns="http://www.w3.org/2000/svg">
<path d="M13.6221 25.3986C8.93665 25.3986 5.14258 21.6045 5.14258 16.919C5.14258 12.3707 12.7993 4.32547 13.1193 4.00549L13.5078 3.57123L13.8964 4.00549C14.2163 4.32547 22.0559 12.3707 22.0559 16.919C22.1245 21.6045 18.3075 25.3986 13.6221 25.3986ZM13.5764 5.19399C12.8907 5.94823 11.4965 7.47958 10.1023 9.37661C7.63387 12.6679 6.30823 15.2734 6.30823 16.919C6.30823 20.9645 9.59947 24.2558 13.645 24.2558C17.6904 24.2558 20.9817 20.9645 20.9817 16.919C20.9817 15.2734 19.656 12.6679 17.119 9.37661C15.7248 7.54814 14.2621 5.97109 13.5764 5.19399Z" fill="url(#paint0_linear_1106_5490)"/>
<path d="M13.6221 28.1184C7.42816 28.1184 2.42273 23.113 2.42273 16.919C2.42273 10.9079 10.8337 2.47413 11.2222 2.10844C11.4736 1.92559 11.7936 1.92559 12.045 2.10844C12.2279 2.35985 12.2279 2.67984 12.045 2.93125C11.9079 2.99982 3.56552 11.3422 3.56552 16.919C3.56552 22.4959 8.06812 26.9756 13.6221 26.9756C19.1989 26.9756 23.6787 22.473 23.6787 16.919C23.6787 14.6334 22.2159 11.4793 19.4275 7.79955C17.279 4.94257 15.1306 2.79411 15.1306 2.79411C14.8792 2.61127 14.8792 2.22272 15.1306 1.97131C15.3134 1.71989 15.702 1.71989 15.9534 1.97131C16.3419 2.35986 24.89 10.9079 24.89 16.919C24.8443 23.113 19.8389 28.1184 13.6221 28.1184Z" fill="url(#paint1_linear_1106_5490)"/>
<path d="M13.6221 30.8383C6.14822 30.8383 0 24.69 0 17.2162C0 14.1078 1.57705 10.3137 4.61688 5.87967C6.90247 2.65699 9.11948 0.30284 9.23376 0.188561C9.41661 -0.0628536 9.80516 -0.0628536 10.0566 0.188561C10.308 0.371408 10.308 0.759958 10.0566 1.01137C10.0566 1.01137 7.77099 3.34267 5.55397 6.5882C2.65128 10.7708 1.11994 14.4278 1.11994 17.2847C1.11994 24.1872 6.76533 29.764 13.5992 29.764C20.4331 29.764 26.0785 24.0729 26.0785 17.239C26.0785 14.382 24.57 10.7251 21.6445 6.54249C19.4275 3.36553 17.1419 1.03423 17.1419 0.965658C16.959 0.714244 16.959 0.394264 17.1419 0.14285C17.3933 -0.039997 17.7133 -0.039997 17.9647 0.14285C18.2847 0.577111 27.1985 9.83373 27.1985 17.239C27.2442 24.69 21.1645 30.8383 13.6221 30.8383Z" fill="url(#paint2_linear_1106_5490)"/>
<path d="M33.141 19.9589L35.8608 19.7075C36.0437 20.5988 36.3637 21.2845 36.8665 21.7416C37.3693 22.1759 38.0779 22.3816 38.9007 22.3816C39.792 22.3816 40.4777 22.1987 40.9348 21.8102C41.3691 21.4216 41.6205 20.9874 41.6205 20.4846C41.6205 20.1646 41.4834 19.8446 41.3005 19.6617C41.1177 19.4103 40.7977 19.2275 40.2949 19.0903C39.9749 18.9532 39.2206 18.7704 38.0779 18.4504C36.5694 18.0618 35.5409 17.6276 34.9237 17.0562C34.1009 16.3019 33.6667 15.342 33.6667 14.2678C33.6667 13.5821 33.8495 12.8736 34.2381 12.3022C34.6266 11.7308 35.198 11.2279 35.9523 10.9079C36.7065 10.588 37.5979 10.4051 38.6721 10.4051C40.4549 10.4051 41.7119 10.7937 42.6033 11.5479C43.4947 12.3022 43.929 13.3307 43.9975 14.5877L41.2091 14.7249C41.072 14.0392 40.8206 13.5135 40.4549 13.2164C40.0663 12.8964 39.4949 12.7136 38.6721 12.7136C37.8493 12.7136 37.2093 12.8964 36.7751 13.2164C36.4551 13.3992 36.3408 13.7192 36.3408 14.1078C36.3408 14.4277 36.4779 14.7477 36.7751 14.9306C37.1636 15.2506 37.9864 15.5705 39.3806 15.8905C40.7748 16.2105 41.7119 16.5305 42.4205 16.8962C43.0604 17.2162 43.5633 17.719 43.9289 18.2904C44.2946 18.8618 44.5003 19.616 44.5003 20.5074C44.5003 21.3302 44.3175 22.0159 43.8604 22.7244C43.4261 23.4101 42.7862 23.9358 41.9634 24.2329C41.1405 24.5529 40.1349 24.7357 38.9235 24.7357C37.1408 24.7357 35.8151 24.3472 34.878 23.5244C33.8952 22.6787 33.3238 21.5359 33.141 19.9589Z" fill="url(#paint3_linear_1106_5490)"/>
<path d="M46.7402 24.5072V10.588H57.0024V12.9192H49.5286V16.0276H56.4996V18.3589H49.5286V22.153H57.2539V24.4843H46.7402V24.5072Z" fill="url(#paint4_linear_1106_5490)"/>
<path d="M59.7224 24.5072V10.588H65.6192C67.0819 10.588 68.1562 10.7251 68.8418 10.9765C69.5275 11.2279 70.0532 11.6622 70.4189 12.3021C70.8074 12.9421 71.0589 13.6963 71.0589 14.5192C71.0589 15.5248 70.7389 16.4162 70.0989 17.1247C69.4589 17.8104 68.5904 18.199 67.3791 18.3818C68.019 18.7703 68.4533 19.136 68.8875 19.5246C69.2761 19.9589 69.8475 20.736 70.4646 21.8102L72.1788 24.53H68.819L66.7848 21.4902C66.0991 20.416 65.5734 19.7074 65.322 19.456C65.0706 19.2046 64.7506 19.0218 64.4992 18.8846C64.1792 18.7475 63.745 18.7475 63.105 18.7475H62.5336V24.5072H59.7224ZM62.5108 16.4619H64.5907C65.9163 16.4619 66.7391 16.3933 67.1276 16.2791C67.4476 16.1419 67.699 15.9591 67.8819 15.7077C68.0647 15.4562 68.1333 15.0677 68.1333 14.702C68.1333 14.2677 67.9962 13.8792 67.7448 13.5592C67.4933 13.2392 67.1734 13.125 66.6705 12.9878C66.4191 12.9878 65.7792 12.9192 64.6364 12.9192H62.4193L62.5108 16.4619Z" fill="url(#paint5_linear_1106_5490)"/>
<path d="M73.6415 10.588H76.43V18.1304C76.43 19.3417 76.4985 20.096 76.5671 20.4617C76.7042 21.0331 76.9556 21.4673 77.4585 21.8559C77.8927 22.1759 78.5327 22.3587 79.2869 22.3587C80.1097 22.3587 80.6811 22.1759 81.0697 21.8559C81.4582 21.5359 81.7097 21.1702 81.8239 20.6445C81.8925 20.2103 81.9611 19.3875 81.9611 18.3132V10.588H84.7495V17.879C84.7495 19.5246 84.6809 20.7359 84.4981 21.4216C84.3609 22.1073 84.0638 22.6787 83.6753 23.2044C83.2867 23.6386 82.7153 24.0272 82.0296 24.3472C81.344 24.6672 80.4526 24.7814 79.3784 24.7814C78.0527 24.7814 77.0471 24.6443 76.3385 24.3472C75.6529 24.0272 75.1272 23.6615 74.6929 23.1358C74.3044 22.633 74.0529 22.1302 73.9387 21.6273C73.7558 20.8045 73.6873 19.6617 73.6873 18.0847V10.588H73.6415Z" fill="url(#paint6_linear_1106_5490)"/>
<path d="M87.6522 24.5072V10.588H91.8348L94.3718 20.0274L96.8402 10.588H101V24.4615H98.3944V13.5592L95.6746 24.5072H92.9547L90.2349 13.5592V24.5072H87.6522Z" fill="url(#paint7_linear_1106_5490)"/>
<defs>
<linearGradient id="paint0_linear_1106_5490" x1="13.5993" y1="25.3982" x2="13.5993" y2="3.5795" gradientUnits="userSpaceOnUse">
<stop stop-color="#05AAC5"/>
<stop offset="1" stop-color="#71E0EC"/>
</linearGradient>
<linearGradient id="paint1_linear_1106_5490" x1="13.6623" y1="28.1202" x2="13.6623" y2="1.82773" gradientUnits="userSpaceOnUse">
<stop stop-color="#05AAC5"/>
<stop offset="1" stop-color="#71E0EC"/>
</linearGradient>
<linearGradient id="paint2_linear_1106_5490" x1="13.6306" y1="30.842" x2="13.6306" y2="0.0247975" gradientUnits="userSpaceOnUse">
<stop stop-color="#05AAC5"/>
<stop offset="1" stop-color="#71E0EC"/>
</linearGradient>
<linearGradient id="paint3_linear_1106_5490" x1="38.7967" y1="10.3933" x2="38.7967" y2="24.7016" gradientUnits="userSpaceOnUse">
<stop stop-color="#77E3EF"/>
<stop offset="1" stop-color="#05AAC5"/>
</linearGradient>
<linearGradient id="paint4_linear_1106_5490" x1="51.9971" y1="10.5828" x2="51.9971" y2="24.5113" gradientUnits="userSpaceOnUse">
<stop stop-color="#77E3EF"/>
<stop offset="1" stop-color="#05AAC5"/>
</linearGradient>
<linearGradient id="paint5_linear_1106_5490" x1="65.9572" y1="10.5828" x2="65.9572" y2="24.5113" gradientUnits="userSpaceOnUse">
<stop stop-color="#77E3EF"/>
<stop offset="1" stop-color="#05AAC5"/>
</linearGradient>
<linearGradient id="paint6_linear_1106_5490" x1="79.1892" y1="10.5828" x2="79.1892" y2="24.7645" gradientUnits="userSpaceOnUse">
<stop stop-color="#77E3EF"/>
<stop offset="1" stop-color="#05AAC5"/>
</linearGradient>
<linearGradient id="paint7_linear_1106_5490" x1="94.3206" y1="10.5828" x2="94.3206" y2="24.5113" gradientUnits="userSpaceOnUse">
<stop stop-color="#77E3EF"/>
<stop offset="1" stop-color="#05AAC5"/>
</linearGradient>
</defs>
</svg>
