<svg width="472" height="115" viewBox="0 0 472 115" fill="none" xmlns="http://www.w3.org/2000/svg">
<g clip-path="url(#clip0_546_418)">
<g clip-path="url(#clip1_546_418)">
<path d="M116.348 57.1793C116.348 88.599 90.295 114.083 58.1739 114.083C46.5392 114.083 35.6811 110.743 26.603 104.966C10.583 94.8355 0 77.2183 0 57.1793C0 25.7595 26.0367 0.275513 58.1739 0.275513C85.4728 0.275513 108.37 18.6683 114.649 43.4717C115.749 47.8721 116.348 52.4624 116.348 57.1793Z" fill="#47C2FF"/>
<path d="M58.1739 110.68C28.0109 110.68 3.4791 86.6838 3.4791 57.1793C3.4791 27.6748 28.0109 3.67868 58.1739 3.67868C88.337 3.67868 112.869 27.6748 112.869 57.1793C112.869 86.6838 88.3208 110.68 58.1739 110.68ZM58.1739 6.16377C29.4187 6.16377 6.01965 29.0519 6.01965 57.1793C6.01965 85.3067 29.4187 108.195 58.1739 108.195C86.9292 108.195 110.328 85.3067 110.328 57.1793C110.328 29.0519 86.9292 6.16377 58.1739 6.16377Z" fill="white"/>
<path d="M112.869 57.1793C112.869 86.1456 89.2108 109.809 59.8083 110.648C59.2581 110.664 58.7241 110.68 58.1739 110.68C47.3483 110.68 37.2507 107.593 28.7552 102.259C29.6776 101.848 30.5838 101.42 31.4414 100.977C51.9277 90.4985 57.5105 70.0954 74.728 54.4409C82.1879 47.6663 92.253 41.3982 106.153 37.1878C106.962 36.9504 107.771 36.7129 108.597 36.4913C111.202 42.5695 112.707 49.2017 112.836 56.1663C112.853 56.4987 112.869 56.8469 112.869 57.1793Z" fill="white"/>
<path d="M24.645 76.7434C24.5641 76.7434 24.4994 76.7117 24.4509 76.6484C24.3699 76.5376 24.3861 76.3793 24.4832 76.3002L29.9203 71.9315C30.0336 71.8365 30.1954 71.8682 30.2763 71.9631C30.3572 72.0739 30.3411 72.2322 30.244 72.3114L24.8069 76.6801C24.7583 76.7276 24.7098 76.7434 24.645 76.7434Z" fill="white"/>
<path d="M26.5545 92.6512C26.4736 92.6512 26.4089 92.6195 26.3603 92.5562C26.2794 92.4454 26.2794 92.2871 26.3927 92.208L39.1278 81.9985C39.2411 81.9194 39.4029 81.9352 39.4838 82.0302C39.5647 82.141 39.5647 82.2993 39.4515 82.3784L26.7001 92.6037C26.6678 92.6353 26.603 92.6512 26.5545 92.6512Z" fill="white"/>
<path d="M46.3935 82.0301C47.8056 82.0301 48.9502 80.9105 48.9502 79.5292C48.9502 78.148 47.8056 77.0283 46.3935 77.0283C44.9815 77.0283 43.8368 78.148 43.8368 79.5292C43.8368 80.9105 44.9815 82.0301 46.3935 82.0301Z" fill="white"/>
<path d="M58.3843 75.1289C70.6012 75.1289 80.505 65.4414 80.505 53.4913C80.505 41.5411 70.6012 31.8536 58.3843 31.8536C46.1674 31.8536 36.2636 41.5411 36.2636 53.4913C36.2636 65.4414 46.1674 75.1289 58.3843 75.1289Z" fill="#B5D1EE"/>
<path d="M56.6043 73.3086C68.8212 73.3086 78.725 63.6211 78.725 51.6709C78.725 39.7208 68.8212 30.0333 56.6043 30.0333C44.3874 30.0333 34.4836 39.7208 34.4836 51.6709C34.4836 63.6211 44.3874 73.3086 56.6043 73.3086Z" fill="white"/>
<path d="M10.8904 79.8933C10.6639 79.8933 10.4535 79.7983 10.3079 79.6242C10.049 79.3076 10.0975 78.8328 10.4211 78.5795L28.3021 64.223C28.6258 63.9697 29.1112 64.0172 29.3702 64.3338C29.6291 64.6504 29.5805 65.1252 29.2569 65.3785L11.3597 79.7192C11.2141 79.8458 11.0522 79.8933 10.8904 79.8933Z" fill="white"/>
<path d="M18.6092 91.2741C18.3827 91.2741 18.1723 91.1791 18.0266 91.005C17.7677 90.6884 17.8163 90.2135 18.1399 89.9603L33.6098 77.5507C33.9335 77.2974 34.4189 77.3449 34.6778 77.6615C34.9367 77.978 34.8882 78.4529 34.5646 78.7062L19.0947 91.0999C18.949 91.2107 18.7872 91.2741 18.6092 91.2741Z" fill="white"/>
<path d="M84.089 80.3599C87.7379 77.1027 90.2629 74.0423 89.7288 73.5243C89.1947 73.0062 85.8038 75.2266 82.1549 78.4837C78.5061 81.7409 75.9811 84.8013 76.5152 85.3193C77.0492 85.8374 80.4402 83.617 84.089 80.3599Z" fill="#B5D1EE"/>
</g>
</g>
<path d="M147.138 75.0799C145.85 73.4946 145.206 72.1817 145.206 71.1413C145.206 69.6551 146.271 67.8716 148.401 65.7909C149.64 64.6019 150.878 64.0074 152.117 64.0074C153.653 64.0074 155.535 65.122 157.764 67.3514L158.136 67.723C158.334 67.9707 158.631 68.2927 159.028 68.689C159.424 69.0854 160.192 69.6303 161.331 70.3239C162.471 70.9679 163.586 71.29 164.676 71.29C169.283 71.29 171.587 69.4074 171.587 65.6422C171.587 64.5028 170.943 63.5615 169.654 62.8184C168.416 62.0257 166.855 61.456 164.973 61.1092C163.09 60.7624 161.059 60.2174 158.879 59.4743C156.699 58.6816 154.668 57.7651 152.786 56.7247C150.903 55.6844 149.318 54.0495 148.03 51.8201C146.791 49.5412 146.172 46.8164 146.172 43.6458C146.172 39.2861 147.782 35.4962 151.002 32.276C154.272 29.0062 158.706 27.3714 164.304 27.3714C167.276 27.3714 169.976 27.7677 172.404 28.5604C174.881 29.3035 176.59 30.0714 177.532 30.8641L179.018 31.9787L179.389 32.276C180.925 33.7127 181.693 34.9017 181.693 35.843C181.693 36.8834 181.099 38.2705 179.91 40.0045C178.225 42.4815 176.491 43.7201 174.708 43.7201C173.667 43.7201 172.379 43.2247 170.843 42.2338C170.695 42.1348 170.398 41.8871 169.952 41.4907C169.555 41.0944 169.184 40.7971 168.837 40.599C168.49 40.3513 167.896 40.1283 167.054 39.9302C166.261 39.6825 165.32 39.5586 164.23 39.5586C163.041 39.5586 161.901 39.9549 160.811 40.7476C159.771 41.4907 159.251 42.4816 159.251 43.7201C159.251 45.2063 159.87 46.3706 161.109 47.2128C162.397 48.055 163.982 48.6247 165.865 48.922C167.747 49.2192 169.803 49.6898 172.032 50.3339C174.262 50.9284 176.318 51.6715 178.2 52.5633C180.083 53.455 181.643 55.0156 182.882 57.2449C184.17 59.4248 184.814 62.1496 184.814 65.4193C184.814 68.59 184.17 71.4138 182.882 73.8909C181.594 76.3184 179.91 78.201 177.829 79.5386C175.798 80.8763 173.692 81.8671 171.512 82.5111C169.332 83.1552 167.153 83.4772 164.973 83.4772C162.644 83.4772 160.44 83.2047 158.359 82.6598C156.278 82.0653 154.569 81.3717 153.231 80.579C151.943 79.7368 150.804 78.8946 149.813 78.0524C148.872 77.2102 148.203 76.4918 147.807 75.8973L147.138 75.0799ZM211.419 43.5715C216.373 43.5715 220.485 45.4788 223.754 49.2935C227.074 53.0587 228.733 57.666 228.733 63.1156V76.1946C228.733 77.334 228.684 78.201 228.585 78.7955C228.535 79.3405 228.312 79.9845 227.916 80.7276C227.569 81.4212 226.925 81.9166 225.984 82.2139C225.042 82.5111 223.779 82.6598 222.194 82.6598C220.906 82.6598 219.841 82.5359 218.998 82.2882C218.156 82.0405 217.512 81.768 217.066 81.4708C216.62 81.124 216.274 80.6038 216.026 79.9102C215.828 79.2166 215.704 78.6469 215.654 78.201C215.654 77.7551 215.654 77.0616 215.654 76.1203V63.0413C215.654 61.0101 215.06 59.4248 213.871 58.2853C212.731 57.1459 211.171 56.5761 209.189 56.5761C207.257 56.5761 205.672 57.1706 204.433 58.3596C203.244 59.5486 202.65 61.1092 202.65 63.0413V76.1946C202.65 77.334 202.6 78.201 202.501 78.7955C202.452 79.3405 202.229 79.9845 201.832 80.7276C201.485 81.4212 200.841 81.9166 199.9 82.2139C198.959 82.5111 197.696 82.6598 196.11 82.6598C194.574 82.6598 193.336 82.5111 192.395 82.2139C191.453 81.9166 190.784 81.3964 190.388 80.6533C190.041 79.9102 189.818 79.2662 189.719 78.7212C189.67 78.1267 189.645 77.2597 189.645 76.1203V49.8137C189.645 48.7238 189.67 47.9064 189.719 47.3614C189.818 46.7669 190.066 46.1229 190.462 45.4293C190.859 44.7357 191.528 44.265 192.469 44.0173C193.41 43.7201 194.649 43.5715 196.185 43.5715C197.671 43.5715 198.885 43.7201 199.826 44.0173C200.767 44.3146 201.411 44.7605 201.758 45.355C202.105 45.8999 202.303 46.3706 202.352 46.7669C202.452 47.1632 202.501 47.6834 202.501 48.3275C202.6 48.1788 202.724 48.0054 202.873 47.8073C203.071 47.6091 203.442 47.2375 203.987 46.6926C204.582 46.1476 205.201 45.677 205.845 45.2806C206.489 44.8348 207.307 44.4384 208.297 44.0917C209.338 43.7449 210.378 43.5715 211.419 43.5715ZM253.958 42.6797C259.408 42.6797 264.189 44.6118 268.301 48.4761C272.413 52.2908 274.469 57.1706 274.469 63.1156C274.469 67.2276 273.403 70.8936 271.273 74.1138C269.143 77.2845 266.542 79.6377 263.47 81.1735C260.448 82.6598 257.327 83.4029 254.107 83.4029C250.788 83.4029 247.592 82.6102 244.521 81.0249C241.449 79.39 238.848 77.012 236.718 73.8909C234.637 70.7202 233.597 67.1532 233.597 63.1899C233.597 57.2449 235.677 52.3403 239.839 48.4761C244 44.6118 248.707 42.6797 253.958 42.6797ZM249.128 68.5404C250.713 69.7294 252.323 70.3239 253.958 70.3239C255.593 70.3239 257.228 69.7046 258.863 68.4661C260.498 67.2276 261.315 65.3945 261.315 62.967C261.315 60.5394 260.547 58.7312 259.012 57.5422C257.476 56.3532 255.767 55.7587 253.884 55.7587C252.2 55.7587 250.589 56.378 249.054 57.6165C247.518 58.855 246.75 60.6633 246.75 63.0413C246.75 65.4688 247.543 67.3019 249.128 68.5404ZM327.905 43.8687C331.076 45.2559 332.661 46.9651 332.661 48.9963C332.661 49.8385 332.438 50.755 331.992 51.7458C330.853 54.4706 330.01 56.5266 329.465 57.9137L321.291 77.8295C321.242 77.9781 321.167 78.1762 321.068 78.424C321.019 78.6221 320.82 79.0185 320.474 79.613C320.127 80.2075 319.731 80.7276 319.285 81.1735C318.888 81.6194 318.319 82.0405 317.575 82.4368C316.832 82.7836 316.015 82.957 315.123 82.957C313.736 82.957 312.497 82.5359 311.408 81.6937C310.367 80.8019 309.674 79.9102 309.327 79.0185L308.732 77.7551C308.435 77.012 307.667 75.0056 306.429 71.7358C305.19 68.4166 304.497 66.5588 304.348 66.1624C303.852 67.3514 303.109 69.3083 302.119 72.0331C301.177 74.7083 300.459 76.6405 299.963 77.8295C299.914 77.9781 299.84 78.1762 299.741 78.424C299.691 78.6221 299.493 79.0185 299.146 79.613C298.799 80.2075 298.403 80.7276 297.957 81.1735C297.511 81.6194 296.892 82.0405 296.099 82.4368C295.356 82.7836 294.539 82.957 293.647 82.957C292.26 82.957 291.046 82.5359 290.006 81.6937C288.965 80.8019 288.272 79.9102 287.925 79.0185L287.33 77.7551L276.704 51.6715C276.208 50.1853 275.961 49.2192 275.961 48.7733C275.961 46.7917 277.373 45.2311 280.196 44.0917C281.782 43.4476 283.119 43.1256 284.209 43.1256C285.101 43.1256 285.844 43.3485 286.439 43.7944C287.083 44.1907 287.529 44.6118 287.776 45.0577C288.024 45.454 288.296 45.999 288.594 46.6926C288.643 46.8412 289.436 49.021 290.972 53.2321C292.557 57.3936 293.449 59.7468 293.647 60.2917L298.031 48.2531C298.081 48.1045 298.155 47.9311 298.254 47.733C298.353 47.5348 298.576 47.1632 298.923 46.6183C299.319 46.0733 299.716 45.6027 300.112 45.2063C300.558 44.7605 301.152 44.3641 301.896 44.0173C302.639 43.6705 303.407 43.4972 304.199 43.4972C305.586 43.4972 306.8 43.8935 307.841 44.6862C308.93 45.4788 309.674 46.2715 310.07 47.0641L310.664 48.3275C313.142 55.2633 314.603 59.2266 315.049 60.2174L319.582 47.8816C320.771 44.7109 322.554 43.1256 324.932 43.1256C325.874 43.1256 326.865 43.3733 327.905 43.8687ZM358.222 43.6458C362.631 43.6458 366.669 45.6027 370.335 49.5165C374.051 53.4302 375.908 57.9137 375.908 62.967C375.908 68.2679 374.075 72.8753 370.409 76.7891C366.743 80.6533 362.681 82.5854 358.222 82.5854C354.259 82.5854 351.385 81.3964 349.602 79.0185C349.205 81.446 347.075 82.6598 343.211 82.6598C341.675 82.6598 340.437 82.5111 339.495 82.2139C338.554 81.9166 337.885 81.3964 337.489 80.6533C337.142 79.9102 336.919 79.2662 336.82 78.7212C336.771 78.1267 336.746 77.2597 336.746 76.1203V31.7558C336.746 30.6163 336.771 29.7741 336.82 29.2292C336.919 28.6347 337.142 27.9906 337.489 27.2971C337.885 26.5539 338.554 26.0338 339.495 25.7365C340.437 25.4393 341.7 25.2906 343.285 25.2906C344.821 25.2906 346.06 25.4393 347.001 25.7365C347.942 26.0338 348.586 26.5539 348.933 27.2971C349.329 28.0402 349.552 28.709 349.602 29.3035C349.701 29.8485 349.75 30.6907 349.75 31.8301V47.2871C351.732 44.8595 354.556 43.6458 358.222 43.6458ZM351.683 67.6487C352.921 68.9863 354.457 69.6551 356.29 69.6551C358.123 69.6551 359.683 68.9863 360.972 67.6487C362.26 66.311 362.904 64.8248 362.904 63.1899C362.904 61.5551 362.309 60.0688 361.12 58.7312C359.931 57.344 358.346 56.6504 356.364 56.6504C354.383 56.6504 352.797 57.344 351.608 58.7312C350.469 60.1183 349.899 61.6046 349.899 63.1899C349.899 64.8248 350.494 66.311 351.683 67.6487ZM412.604 43.5715C414.139 43.5715 415.378 43.7201 416.319 44.0173C417.26 44.3146 417.904 44.8348 418.251 45.5779C418.648 46.321 418.871 46.9898 418.92 47.5843C419.019 48.1293 419.069 48.9715 419.069 50.111V76.1203C419.069 77.2597 419.019 78.1267 418.92 78.7212C418.871 79.2662 418.648 79.9102 418.251 80.6533C417.904 81.3469 417.26 81.8423 416.319 82.1396C415.378 82.4368 414.115 82.5854 412.529 82.5854C410.3 82.5854 408.715 82.2634 407.773 81.6194C406.881 80.9258 406.361 79.935 406.213 78.6469C404.38 81.2726 401.407 82.5854 397.295 82.5854C392.836 82.5854 388.774 80.6286 385.108 76.7148C381.442 72.801 379.609 68.2184 379.609 62.967C379.609 57.8642 381.442 53.3807 385.108 49.5165C388.824 45.6027 392.886 43.6458 397.295 43.6458C398.98 43.6458 400.515 43.943 401.903 44.5375C403.29 45.132 404.256 45.7018 404.801 46.2467C405.346 46.7421 405.792 47.2375 406.138 47.733C406.287 46.3458 406.807 45.3054 407.699 44.6118C408.64 43.9183 410.275 43.5715 412.604 43.5715ZM399.302 69.5808C401.085 69.5808 402.571 68.912 403.76 67.5744C404.999 66.2367 405.618 64.7505 405.618 63.1156C405.618 61.5303 405.024 60.044 403.835 58.6569C402.695 57.2697 401.135 56.5761 399.153 56.5761C397.221 56.5761 395.636 57.2697 394.397 58.6569C393.208 60.044 392.614 61.5551 392.614 63.1899C392.614 64.8248 393.258 66.311 394.546 67.6487C395.834 68.9367 397.419 69.5808 399.302 69.5808ZM438.665 69.5808C440.3 69.5808 441.514 70.0019 442.306 70.8441C443.099 71.6863 443.495 73.445 443.495 76.1203C443.495 78.6964 443.074 80.4304 442.232 81.3221C441.39 82.1643 440.176 82.5854 438.591 82.5854C433.587 82.5854 430.07 81.3964 428.038 79.0185C426.007 76.5909 424.992 72.578 424.992 66.9799V31.5329C424.992 30.3934 425.016 29.5512 425.066 29.0062C425.165 28.4117 425.388 27.7677 425.735 27.0741C426.131 26.331 426.8 25.8108 427.741 25.5136C428.682 25.2163 429.946 25.0677 431.531 25.0677C433.067 25.0677 434.281 25.2411 435.172 25.5879C436.114 25.8851 436.783 26.4053 437.179 27.1484C437.575 27.842 437.798 28.4861 437.848 29.0806C437.947 29.6255 437.996 30.4677 437.996 31.6072V67.2771C437.996 68.8129 438.219 69.5808 438.665 69.5808ZM460.959 69.5808C463.089 69.5808 464.699 70.0019 465.789 70.8441C466.879 71.6863 467.424 73.445 467.424 76.1203C467.424 78.6964 466.829 80.4304 465.64 81.3221C464.501 82.1643 462.891 82.5854 460.81 82.5854C450.307 82.5854 445.056 77.3836 445.056 66.9799L444.982 31.5329C444.982 30.3934 445.006 29.5512 445.056 29.0062C445.155 28.4117 445.403 27.7677 445.799 27.0741C446.195 26.331 446.864 25.8108 447.806 25.5136C448.747 25.2163 450.01 25.0677 451.595 25.0677C453.131 25.0677 454.345 25.2411 455.237 25.5879C456.178 25.8851 456.822 26.4053 457.169 27.1484C457.565 27.842 457.813 28.4861 457.912 29.0806C458.011 29.6751 458.061 30.5173 458.061 31.6072V67.2771C458.061 68.2184 458.259 68.8377 458.655 69.1349C459.051 69.4322 459.819 69.5808 460.959 69.5808Z" fill="white"/>
<defs>
<clipPath id="clip0_546_418">
<rect width="116.348" height="113.808" fill="white" transform="translate(0 0.275513)"/>
</clipPath>
<clipPath id="clip1_546_418">
<rect width="116.348" height="113.808" fill="white" transform="translate(0 0.275513)"/>
</clipPath>
</defs>
</svg>
