<svg width="157" height="31" viewBox="0 0 157 31" fill="none" xmlns="http://www.w3.org/2000/svg">
<path d="M0 15.5C0 24.0797 6.95558 31 15.5 31C24.0797 31 31 24.0444 31 15.5C31 6.92028 24.0444 0 15.5 0C6.95558 0 0 6.95558 0 15.5Z" fill="#121122"/>
<path fill-rule="evenodd" clip-rule="evenodd" d="M4.69595 11.5808C4.51941 12.7813 4.73126 14.0524 4.9431 15.2528C5.04903 15.4294 5.22556 15.5706 5.47272 15.6412C4.97841 16.7004 4.69595 17.8303 4.69595 19.0307C4.69595 24.0797 9.56839 28.1754 15.606 28.1754C21.6436 28.1754 26.516 24.0797 26.516 19.0307C26.516 17.8656 26.2335 16.7004 25.7392 15.6412C25.9511 15.5706 26.0923 15.4294 26.1629 15.2528C26.4101 14.0524 26.6219 12.7813 26.4454 11.5808C26.2688 9.9567 25.7039 9.42709 24.0092 9.85078C23.1618 10.0626 22.0319 10.5569 21.1493 11.1572C19.5251 10.3451 17.6185 9.88608 15.606 9.88608C13.5581 9.88608 11.6162 10.3804 9.99208 11.1925C9.10939 10.5922 7.97955 10.0626 7.09686 9.85078C5.4021 9.42709 4.87249 9.9567 4.69595 11.5808ZM11.0513 18.7836C9.78023 18.2187 7.59117 18.3599 7.59117 18.3599C7.59117 18.3599 7.69709 20.4077 8.93285 21.1139C10.4158 21.9259 13.2051 21.5376 13.2051 21.5376C13.2051 21.5376 12.9579 19.631 11.0513 18.7836ZM18.1481 21.5729C18.1481 21.5729 20.9021 21.9966 22.4203 21.1492C23.6914 20.443 23.762 18.3952 23.762 18.3952C23.762 18.3952 21.5729 18.254 20.3019 18.8189C18.3953 19.631 18.1481 21.5376 18.1481 21.5729ZM15.0764 23.0205C15.0764 23.1617 15.3588 23.3029 15.7119 23.3029C16.065 23.3029 16.3474 23.197 16.3474 23.0205C16.3474 22.8793 16.065 22.738 15.7119 22.738C15.3588 22.738 15.0764 22.8439 15.0764 23.0205Z" fill="#F2F4F8"/>
<path fill-rule="evenodd" clip-rule="evenodd" d="M28.0695 21.7494C27.0456 21.361 25.9511 21.1492 24.8565 21.1492C24.5741 21.1492 24.5741 20.7255 24.8565 20.7255C25.9864 20.7255 27.1162 20.9373 28.1754 21.361C28.2814 21.3963 28.352 21.5023 28.3167 21.6082C28.2814 21.7141 28.1755 21.7847 28.0695 21.7494ZM3.14242 21.3257C4.20164 20.902 5.33149 20.7255 6.46133 20.6902C6.74379 20.6902 6.74379 21.1139 6.46133 21.1139C5.36679 21.1139 4.27226 21.3257 3.24834 21.7141C3.14242 21.7494 3.00119 21.6788 2.96588 21.5729C2.96588 21.5023 3.0365 21.361 3.14242 21.3257ZM5.33149 22.5615C5.8611 22.3849 6.42602 22.3143 6.95563 22.279C7.23809 22.279 7.23809 22.7027 6.95563 22.7027C6.46133 22.7027 5.93171 22.8086 5.47271 22.9499C5.01372 23.0911 4.51941 23.2676 4.16634 23.5854C3.95449 23.7619 3.67203 23.4795 3.84857 23.2676C4.27226 22.9146 4.83718 22.738 5.33149 22.5615ZM7.44994 23.3736C7.02625 23.5501 6.60255 23.7972 6.21417 24.0444C5.82579 24.2916 5.47272 24.6093 5.19025 24.9624C5.11964 25.0683 5.15495 25.2095 5.26087 25.2449C5.36679 25.3155 5.50802 25.2802 5.54333 25.1742C5.79048 24.8565 6.14356 24.574 6.46133 24.3622C6.84971 24.115 7.23809 23.9032 7.62647 23.7266C7.7324 23.656 7.7677 23.5501 7.69709 23.4442C7.69709 23.3383 7.55586 23.3029 7.44994 23.3736ZM24.3269 22.738C24.8212 22.738 25.3508 22.8439 25.8098 22.9852C26.057 23.0558 26.3042 23.1617 26.5513 23.2676C26.7632 23.3383 26.9397 23.4795 27.1162 23.6207C27.3281 23.7972 27.6105 23.5148 27.434 23.3029C27.0456 22.9499 26.4807 22.738 25.9864 22.5968C25.4568 22.4203 24.8919 22.3496 24.3622 22.3143C24.0798 22.279 24.0798 22.738 24.3269 22.738ZM24.8212 24.3622C24.4329 24.115 24.0445 23.9385 23.6561 23.7619C23.5502 23.6913 23.5149 23.5854 23.5855 23.4795C23.6561 23.3736 23.762 23.3382 23.8679 23.4089C24.7153 23.7619 25.598 24.2562 26.1276 24.9977C26.1982 25.1036 26.1629 25.2449 26.057 25.2802C25.9511 25.3508 25.8098 25.3155 25.7745 25.2095C25.5274 24.8565 25.1743 24.574 24.8212 24.3622Z" fill="#F2F4F8"/>
<path d="M1.51817 16.3474C1.73002 16.0296 3.46009 15.1116 5.61385 14.5467C6.07284 13.205 6.67307 11.9339 7.34391 10.6982L9.07398 7.55581C8.57968 7.34397 8.08537 7.06151 7.62637 6.74374C7.55576 6.67312 7.48514 6.60251 7.41453 6.53189C7.37922 6.46128 7.34391 6.35535 7.34391 6.28474C7.34391 6.21412 7.44984 6.0729 7.48514 6.03759C7.59107 5.89636 7.7323 5.79043 7.87353 5.6492C8.19129 5.36674 8.54437 5.11959 8.93275 4.90775C9.10929 4.80183 9.28583 4.6959 9.46237 4.55467C10.6981 3.77791 11.4043 3.17768 12.5341 2.50684C13.6287 1.8713 14.1583 1.51823 15.394 1.55353C16.9829 1.55353 20.902 6.5672 22.6674 9.14465C23.7266 10.6982 25.1742 13.4875 25.7038 14.5467C25.8097 14.582 25.951 14.6173 26.0569 14.6526C27.681 15.1469 29.2346 15.8531 29.623 16.3121C29.976 16.7005 28.4578 16.877 26.9749 17.1595C25.492 17.4066 20.443 17.5478 15.6059 17.5831C10.7687 17.6185 5.11954 17.4419 3.88378 17.2654C2.64801 17.0888 1.27102 16.7358 1.51817 16.3474Z" fill="#6665DD"/>
<path d="M24.3269 12.0399C24.3269 12.0399 21.1492 11.2278 15.5353 11.2278C9.49772 11.2278 6.6025 12.1458 6.6025 12.1458C6.6025 12.1458 6.24943 12.8167 6.1082 13.1697C5.96697 13.5581 5.61389 14.5467 5.61389 14.5467C5.61389 14.5467 9.99202 13.77 15.6059 13.77C18.9954 13.77 22.3497 14.0524 25.7039 14.6173C25.7039 14.6173 25.2096 13.4169 24.8918 12.9226C24.7153 12.6401 24.5387 12.3223 24.3269 12.0399Z" fill="#FF99A5"/>
<path d="M5.36673 5.29612C5.71981 5.26082 6.21411 6.35535 6.21411 6.35535C6.21411 6.35535 7.34396 6.03758 7.5558 6.35535C7.73234 6.67312 6.74373 7.41458 6.74373 7.41458C6.74373 7.41458 7.34396 8.4738 7.13211 8.68565C6.95557 8.89749 5.89635 8.22665 5.89635 8.22665C5.89635 8.22665 5.08427 9.14464 4.83712 9.00341C4.55466 8.86218 4.87243 7.66173 4.87243 7.66173C4.87243 7.66173 3.70728 7.16742 3.8132 6.88496C3.88382 6.6025 5.08427 6.49658 5.08427 6.49658C5.08427 6.49658 5.01366 5.36674 5.36673 5.29612Z" fill="#FFE600"/>
<path d="M47.1557 17.6642C47.8296 17.6642 48.3069 17.5543 48.5877 17.3343C48.8685 17.0869 49.0369 16.812 49.0369 16.4821C49.0369 16.1797 48.9246 15.9323 48.7 15.7673C48.4754 15.5749 48.1384 15.4099 47.6892 15.2725L46.7064 14.9701C46.1729 14.8051 45.6675 14.6402 45.2463 14.4477C44.797 14.2553 44.432 14.0079 44.1232 13.7604C43.8143 13.4855 43.5616 13.1556 43.3931 12.7982C43.2246 12.4134 43.1404 11.9735 43.1404 11.4512C43.1404 10.4065 43.5335 9.55425 44.3478 8.94944C45.1621 8.34463 46.3133 8.01474 47.7453 8.01474C48.3069 8.01474 48.8123 8.04223 49.2616 8.1247C49.7389 8.20717 50.132 8.31714 50.469 8.48209C50.8059 8.61955 51.0586 8.81199 51.2552 9.05941C51.4517 9.27934 51.536 9.55425 51.536 9.85666C51.536 10.1316 51.4517 10.4065 51.3113 10.6264C51.1709 10.8463 51.0025 11.0113 50.8059 11.1762C50.5251 10.9838 50.132 10.8189 49.6266 10.6814C49.1212 10.5439 48.6158 10.4615 48.0261 10.4615C47.4084 10.4615 46.9591 10.5439 46.6502 10.7364C46.3414 10.9288 46.201 11.1762 46.201 11.4512C46.201 11.6986 46.2852 11.891 46.4818 12.0285C46.6783 12.1659 46.9872 12.2759 47.3803 12.4134L48.4192 12.7433C49.0089 12.9357 49.5424 13.1556 49.9916 13.4031C50.4409 13.623 50.834 13.8979 51.1429 14.2003C51.4517 14.4752 51.6764 14.8326 51.8448 15.2175C51.9852 15.6024 52.0695 16.0147 52.0695 16.5096C52.0695 17.0319 51.9571 17.5268 51.7325 17.9666C51.536 18.4065 51.2271 18.7639 50.7778 19.0663C50.3566 19.3687 49.8512 19.6161 49.2335 19.8085C48.6438 19.9735 47.9419 20.0835 47.1276 20.0835C46.5379 20.0835 46.0044 20.0285 45.499 19.946C44.9936 19.8635 44.5724 19.7261 44.1793 19.5611C43.8143 19.3962 43.5335 19.1762 43.3089 18.9288C43.1123 18.6539 43 18.379 43 18.0491C43 17.7192 43.0842 17.4168 43.2808 17.1969C43.4773 16.9769 43.702 16.7845 43.9547 16.647C44.2916 16.9219 44.7409 17.1694 45.2463 17.3893C45.8921 17.5543 46.4818 17.6642 47.1557 17.6642ZM58.9207 20.0285C58.5837 20.0285 58.2749 20.001 57.9941 19.946C57.7133 19.891 57.4606 19.836 57.236 19.7261V23.1075C57.0956 23.135 56.9271 23.19 56.7025 23.2175C56.4778 23.245 56.2251 23.2725 55.9443 23.2725C55.3547 23.2725 54.9616 23.19 54.6808 22.9976C54.4 22.8051 54.2877 22.4477 54.2877 21.9254V12.6058C54.2877 12.2759 54.3719 12.0285 54.5123 11.8085C54.6527 11.5886 54.8493 11.3962 55.102 11.2312C55.4951 10.9838 55.9724 10.7914 56.5901 10.6539C57.1798 10.489 57.8537 10.4065 58.5837 10.4065C59.3138 10.4065 60.0158 10.489 60.6335 10.6814C61.2512 10.8463 61.8128 11.1488 62.2621 11.5336C62.7113 11.9185 63.0483 12.4134 63.301 13.0182C63.5537 13.623 63.6941 14.3378 63.6941 15.1625C63.6941 15.9598 63.5818 16.647 63.3291 17.2793C63.1044 17.8841 62.7675 18.379 62.3463 18.7914C61.9251 19.2037 61.4197 19.5061 60.8581 19.7261C60.2404 19.946 59.6227 20.0285 58.9207 20.0285ZM58.4995 17.7742C59.2015 17.7742 59.735 17.5543 60.1 17.1419C60.4931 16.702 60.6897 16.0697 60.6897 15.19C60.6897 14.3103 60.4931 13.6505 60.1281 13.2656C59.7631 12.8807 59.2576 12.6883 58.6118 12.6883C58.331 12.6883 58.0502 12.7158 57.8537 12.7982C57.6291 12.8532 57.4325 12.9357 57.264 13.0182V17.4443C57.4325 17.5543 57.6291 17.6367 57.8537 17.6917C57.9941 17.7467 58.2187 17.7742 58.4995 17.7742ZM75.2906 15.2175C75.2906 15.9598 75.1783 16.6195 74.9537 17.2244C74.7291 17.8017 74.3921 18.324 73.9429 18.7364C73.5217 19.1488 73.0163 19.4787 72.3985 19.6986C71.7808 19.9185 71.135 20.0285 70.3768 20.0285C69.6468 20.0285 68.9448 19.9185 68.3271 19.6986C67.7374 19.4787 67.2039 19.1488 66.7828 18.7364C66.3616 18.324 66.0246 17.8292 65.8 17.2244C65.5754 16.6195 65.4631 15.9323 65.4631 15.19C65.4631 14.4752 65.5754 13.8154 65.8 13.2106C66.0527 12.6058 66.3897 12.111 66.8108 11.6986C67.2601 11.2862 67.7655 10.9563 68.3552 10.7364C68.9729 10.5165 69.6468 10.4065 70.3768 10.4065C71.1069 10.4065 71.7808 10.5165 72.3704 10.7364C72.9601 10.9563 73.4936 11.2862 73.9148 11.7261C74.364 12.1384 74.6729 12.6333 74.9256 13.2381C75.1783 13.8429 75.2906 14.5027 75.2906 15.2175ZM70.3768 12.6883C69.7872 12.6883 69.3099 12.9082 68.9729 13.3481C68.636 13.7879 68.4675 14.4202 68.4675 15.2175C68.4675 16.0697 68.636 16.702 68.9448 17.1419C69.2818 17.5817 69.7591 17.7742 70.3768 17.7742C70.9946 17.7742 71.4719 17.5543 71.7808 17.1144C72.1177 16.6745 72.2862 16.0422 72.2862 15.2175C72.2862 14.4202 72.1177 13.7879 71.7808 13.3481C71.4719 12.9082 70.9946 12.6883 70.3768 12.6883ZM86.9153 15.2175C86.9153 15.9598 86.803 16.6195 86.5783 17.2244C86.3537 17.8017 86.0168 18.324 85.5675 18.7364C85.1463 19.1488 84.6409 19.4787 84.0232 19.6986C83.4335 19.9185 82.7596 20.0285 82.0015 20.0285C81.2714 20.0285 80.5695 19.9185 79.9517 19.6986C79.3621 19.4787 78.8286 19.1488 78.4074 18.7364C77.9862 18.324 77.6493 17.8292 77.4246 17.2244C77.2 16.6195 77.0877 15.9323 77.0877 15.19C77.0877 14.4752 77.2 13.8154 77.4246 13.2106C77.6773 12.6058 78.0143 12.111 78.4355 11.6986C78.8847 11.2862 79.3902 10.9563 79.9798 10.7364C80.5975 10.5165 81.2714 10.4065 82.0015 10.4065C82.7315 10.4065 83.4054 10.5165 83.9951 10.7364C84.5847 10.9563 85.1182 11.2862 85.5394 11.7261C85.9887 12.1384 86.2975 12.6333 86.5502 13.2381C86.803 13.8429 86.9153 14.5027 86.9153 15.2175ZM82.0296 12.6883C81.4399 12.6883 80.9626 12.9082 80.6256 13.3481C80.2887 13.7879 80.1202 14.4202 80.1202 15.2175C80.1202 16.0697 80.2887 16.702 80.5975 17.1419C80.9345 17.5817 81.4118 17.7742 82.0296 17.7742C82.6473 17.7742 83.1246 17.5543 83.4335 17.1144C83.7704 16.6745 83.9389 16.0422 83.9389 15.2175C83.9389 14.4202 83.7704 13.7879 83.4335 13.3481C83.0966 12.9082 82.6192 12.6883 82.0296 12.6883ZM94.6369 15.1075L97.9503 18.269C97.8941 18.7914 97.7256 19.2037 97.4448 19.5061C97.1921 19.7811 96.8271 19.9185 96.3217 19.9185C95.9566 19.9185 95.6197 19.836 95.3389 19.6436C95.0581 19.4787 94.7493 19.1762 94.3842 18.7914L92.1099 16.1247V19.7261C91.9695 19.7536 91.801 19.8085 91.5764 19.8085C91.3517 19.836 91.099 19.8635 90.8182 19.8635C90.2286 19.8635 89.8355 19.7811 89.5547 19.5886C89.302 19.3962 89.1616 19.0388 89.1616 18.5164V7.46491C89.302 7.43742 89.4985 7.38243 89.7232 7.35494C89.9478 7.32745 90.2005 7.29996 90.4813 7.29996C91.0709 7.29996 91.464 7.38243 91.7168 7.57487C91.9695 7.76731 92.1099 8.1247 92.1099 8.64704V13.9804L95.5916 10.5165C96.1813 10.5165 96.6867 10.6539 97.0236 10.9013C97.3887 11.1762 97.5571 11.4787 97.5571 11.891C97.5571 12.2209 97.4448 12.5233 97.1921 12.7982C96.9675 13.0457 96.6025 13.3756 96.097 13.8154L94.6369 15.1075ZM101.264 17.4993C100.983 16.867 100.618 16.0697 100.253 15.0525C99.8877 14.0354 99.4946 12.7158 99.0734 11.1213C99.2138 10.9563 99.4384 10.8189 99.7192 10.7089C100 10.5714 100.309 10.5165 100.618 10.5165C101.039 10.5165 101.348 10.5989 101.629 10.7914C101.881 10.9563 102.078 11.2587 102.218 11.7261C102.499 12.6333 102.78 13.5405 103.061 14.4477C103.341 15.3274 103.65 16.2347 103.931 17.1419H104.015C104.156 16.702 104.324 16.2622 104.493 15.7398C104.661 15.2175 104.83 14.6951 104.97 14.1453C105.11 13.5955 105.251 13.0457 105.391 12.4958C105.532 11.9185 105.644 11.3962 105.756 10.8464C106.149 10.6264 106.57 10.5165 107.02 10.5165C107.441 10.5165 107.778 10.5989 108.087 10.7914C108.396 10.9838 108.536 11.2587 108.536 11.6436C108.536 12.0835 108.452 12.6608 108.283 13.3756C108.143 14.0628 107.918 14.8051 107.637 15.5474C107.385 16.2896 107.076 17.0594 106.767 17.8017C106.458 18.5439 106.121 19.2037 105.756 19.7536C105.026 20.9357 104.38 21.8429 103.819 22.4202C103.229 22.9975 102.667 23.3 102.078 23.3C101.6 23.3 101.207 23.1625 100.899 22.8601C100.59 22.5852 100.393 22.2278 100.337 21.7879C100.758 21.4305 101.179 21.0182 101.6 20.5508C102.05 20.0835 102.415 19.6161 102.724 19.1488C102.499 19.0938 102.274 18.9563 102.022 18.7364C101.825 18.5165 101.544 18.1041 101.264 17.4993ZM114.348 17.6642C115.022 17.6642 115.5 17.5543 115.78 17.3343C116.061 17.0869 116.23 16.812 116.23 16.4821C116.23 16.1797 116.117 15.9323 115.893 15.7673C115.668 15.5749 115.331 15.4099 114.882 15.2725L113.899 14.9701C113.366 14.8051 112.86 14.6402 112.439 14.4477C111.99 14.2553 111.625 14.0079 111.316 13.7604C111.007 13.4855 110.754 13.1556 110.586 12.7982C110.417 12.4134 110.333 11.9735 110.333 11.4512C110.333 10.4065 110.726 9.55425 111.54 8.94944C112.355 8.34463 113.506 8.01474 114.938 8.01474C115.5 8.01474 116.005 8.04223 116.454 8.1247C116.932 8.20717 117.325 8.31714 117.662 8.48209C117.999 8.61955 118.251 8.81199 118.448 9.05941C118.644 9.30683 118.729 9.55425 118.729 9.85666C118.729 10.1316 118.644 10.4065 118.504 10.6264C118.364 10.8463 118.195 11.0113 117.999 11.1762C117.718 10.9838 117.325 10.8189 116.819 10.6814C116.314 10.5439 115.808 10.4615 115.219 10.4615C114.601 10.4615 114.152 10.5439 113.843 10.7364C113.534 10.9288 113.394 11.1762 113.394 11.4512C113.394 11.6986 113.478 11.891 113.674 12.0285C113.871 12.1659 114.18 12.2759 114.573 12.4134L115.612 12.7433C116.201 12.9357 116.735 13.1556 117.184 13.4031C117.633 13.623 118.027 13.8979 118.335 14.2003C118.644 14.4752 118.869 14.8326 119.037 15.2175C119.178 15.6024 119.262 16.0147 119.262 16.5096C119.262 17.0319 119.15 17.5268 118.925 17.9666C118.729 18.4065 118.42 18.7639 117.97 19.0663C117.549 19.3687 117.044 19.6161 116.426 19.8085C115.836 19.9735 115.134 20.0835 114.32 20.0835C113.731 20.0835 113.197 20.0285 112.692 19.946C112.186 19.8635 111.765 19.7261 111.372 19.5611C111.007 19.3962 110.726 19.1762 110.501 18.9288C110.305 18.6539 110.193 18.379 110.193 18.0491C110.193 17.7192 110.277 17.4168 110.473 17.1969C110.67 16.9769 110.895 16.7845 111.147 16.647C111.484 16.9219 111.933 17.1694 112.439 17.3893C113.113 17.5543 113.702 17.6642 114.348 17.6642ZM127.854 14.3653C127.742 14.8326 127.601 15.3 127.461 15.7948C127.321 16.2896 127.18 16.757 127.04 17.2244C126.9 17.6917 126.759 18.1041 126.647 18.5164C126.534 18.9288 126.422 19.2312 126.338 19.4786C126.001 19.7811 125.439 19.9185 124.681 19.9185C124.232 19.9185 123.811 19.8635 123.474 19.7261C123.137 19.5886 122.884 19.4237 122.772 19.1488C122.632 18.8463 122.463 18.379 122.267 17.7192C122.07 17.0594 121.873 16.3446 121.677 15.5749C121.508 14.8051 121.312 14.0079 121.171 13.2106C121.003 12.4134 120.863 11.6986 120.778 11.0938C120.919 10.9288 121.143 10.7914 121.424 10.6814C121.705 10.5439 122.014 10.489 122.323 10.489C122.744 10.489 123.053 10.5714 123.334 10.7639C123.586 10.9288 123.755 11.2587 123.811 11.6986C123.951 12.5783 124.035 13.3206 124.148 13.9529C124.26 14.5852 124.344 15.1075 124.429 15.5474C124.513 15.9872 124.569 16.3446 124.625 16.6195C124.681 16.8945 124.737 17.0869 124.766 17.2518H124.85C124.906 17.0594 124.99 16.757 125.074 16.3446C125.159 15.9323 125.299 15.4924 125.439 14.9976C125.58 14.4752 125.72 13.9254 125.889 13.3481C126.057 12.7707 126.226 12.1659 126.366 11.5886C126.591 11.4512 126.815 11.3687 127.04 11.3137C127.293 11.2312 127.573 11.2037 127.91 11.2037C128.332 11.2037 128.668 11.2862 128.949 11.4237C129.23 11.5611 129.427 11.7536 129.511 12.001C129.679 12.5783 129.848 13.1281 129.988 13.678C130.129 14.2278 130.269 14.7226 130.409 15.19C130.55 15.6573 130.634 16.0697 130.746 16.4271C130.859 16.7845 130.915 17.0869 130.971 17.2793H131.055C131.224 16.2896 131.42 15.245 131.561 14.1728C131.729 13.0732 131.869 11.9735 132.01 10.8738C132.206 10.7639 132.431 10.6814 132.656 10.6264C132.88 10.5714 133.105 10.5439 133.358 10.5439C133.751 10.5439 134.088 10.6264 134.34 10.8189C134.621 10.9838 134.734 11.2587 134.734 11.6711C134.734 11.8635 134.705 12.1659 134.621 12.5508C134.565 12.9632 134.481 13.403 134.34 13.8979C134.228 14.3927 134.116 14.9426 133.975 15.4924C133.835 16.0422 133.695 16.5646 133.554 17.0869C133.414 17.6092 133.273 18.0766 133.133 18.489C132.993 18.9288 132.908 19.2312 132.796 19.4786C132.656 19.6161 132.431 19.7261 132.094 19.8085C131.757 19.891 131.392 19.946 131.027 19.946C130.044 19.946 129.483 19.7261 129.314 19.2587C129.23 19.0113 129.118 18.7089 128.977 18.324C128.837 17.9666 128.725 17.5543 128.584 17.1419C128.444 16.702 128.332 16.2622 128.191 15.7948C128.051 15.3 127.967 14.8326 127.854 14.3653ZM140.63 17.9391C140.911 17.9391 141.192 17.9116 141.444 17.8567C141.725 17.8017 141.95 17.7192 142.09 17.6367V15.9048L140.518 16.0422C140.097 16.0697 139.788 16.1797 139.507 16.3171C139.254 16.4546 139.142 16.6745 139.142 16.9494C139.142 17.2518 139.254 17.4993 139.479 17.6642C139.703 17.8292 140.097 17.9391 140.63 17.9391ZM140.518 10.434C141.192 10.434 141.781 10.5165 142.315 10.6539C142.876 10.7914 143.326 10.9838 143.719 11.2587C144.112 11.5336 144.393 11.891 144.589 12.3034C144.814 12.7433 144.926 13.2381 144.926 13.8154V18.0766C144.926 18.4065 144.842 18.6539 144.645 18.8738C144.477 19.0663 144.28 19.2312 144.028 19.3687C143.634 19.6161 143.157 19.7811 142.567 19.9185C141.978 20.056 141.332 20.111 140.602 20.111C139.282 20.111 138.243 19.8635 137.457 19.3687C136.671 18.8738 136.278 18.1041 136.278 17.0869C136.278 16.2347 136.531 15.5749 137.064 15.1075C137.598 14.6677 138.384 14.3652 139.479 14.2553L142.034 13.9804V13.7604C142.034 13.3481 141.866 13.0732 141.529 12.8807C141.192 12.6883 140.714 12.6058 140.097 12.6058C139.619 12.6058 139.142 12.6608 138.665 12.7707C138.215 12.8807 137.794 13.0182 137.401 13.1556C137.261 13.0457 137.12 12.9082 137.008 12.7158C136.896 12.4958 136.867 12.2759 136.867 12.0285C136.867 11.4787 137.148 11.0938 137.738 10.8464C138.103 10.7089 138.552 10.5989 139.03 10.5439C139.563 10.4615 140.04 10.434 140.518 10.434ZM152.199 20.0285C151.862 20.0285 151.553 20.001 151.272 19.946C150.991 19.891 150.738 19.836 150.514 19.7261V23.1075C150.373 23.135 150.205 23.19 149.98 23.2175C149.756 23.245 149.503 23.2725 149.222 23.2725C148.633 23.2725 148.239 23.19 147.987 22.9976C147.734 22.8051 147.594 22.4477 147.594 21.9254V12.6058C147.594 12.2759 147.678 12.0285 147.818 11.8085C147.959 11.5886 148.155 11.3962 148.408 11.2312C148.801 10.9838 149.278 10.7914 149.896 10.6539C150.486 10.489 151.16 10.4065 151.89 10.4065C152.62 10.4065 153.322 10.489 153.939 10.6814C154.557 10.8463 155.119 11.1488 155.568 11.5336C156.017 11.9185 156.354 12.4134 156.607 13.0182C156.86 13.623 157 14.3378 157 15.1625C157 15.9598 156.888 16.647 156.635 17.2793C156.41 17.8841 156.073 18.379 155.652 18.7914C155.231 19.2037 154.726 19.5061 154.164 19.7261C153.49 19.946 152.872 20.0285 152.199 20.0285ZM151.749 17.7742C152.451 17.7742 152.985 17.5543 153.35 17.1419C153.743 16.702 153.939 16.0697 153.939 15.19C153.939 14.3103 153.743 13.6505 153.378 13.2656C153.013 12.8807 152.507 12.6883 151.862 12.6883C151.581 12.6883 151.3 12.7158 151.103 12.7982C150.879 12.8532 150.682 12.9357 150.514 13.0182V17.4443C150.682 17.5543 150.879 17.6367 151.103 17.6917C151.272 17.7467 151.497 17.7742 151.749 17.7742Z" fill="black"/>
</svg>
