<?xml version="1.0" encoding="UTF-8" standalone="no"?>
<svg
   width="129"
   height="36"
   viewBox="0 0 129 36"
   fill="none"
   version="1.1"
   id="svg202"
   sodipodi:docname="ston-fi.svg"
   inkscape:version="1.2.2 (b0a84865, 2022-12-01)"
   xmlns:inkscape="http://www.inkscape.org/namespaces/inkscape"
   xmlns:sodipodi="http://sodipodi.sourceforge.net/DTD/sodipodi-0.dtd"
   xmlns="http://www.w3.org/2000/svg"
   xmlns:svg="http://www.w3.org/2000/svg">
  <defs
     id="defs206" />
  <sodipodi:namedview
     id="namedview204"
     pagecolor="#ffffff"
     bordercolor="#000000"
     borderopacity="0.25"
     inkscape:showpageshadow="2"
     inkscape:pageopacity="0.0"
     inkscape:pagecheckerboard="0"
     inkscape:deskcolor="#d1d1d1"
     showgrid="false"
     inkscape:zoom="6.5555556"
     inkscape:cx="64.601695"
     inkscape:cy="18"
     inkscape:window-width="1309"
     inkscape:window-height="456"
     inkscape:window-x="23"
     inkscape:window-y="47"
     inkscape:window-maximized="0"
     inkscape:current-layer="svg202" />
  <path
     d="M22.0124 25.5779C22.2187 25.4403 22.5042 25.5286 22.5888 25.7563L25.7954 34.3823C25.8985 34.6597 25.6386 34.9357 25.3424 34.8633L13.5366 31.9786C13.2191 31.9011 13.1438 31.4991 13.4131 31.3193L22.0124 25.5779Z"
     fill="white"
     id="path180"
     style="fill:#000000" />
  <path
     d="M24.0834 23.674C24.0686 23.6341 24.0611 23.5921 24.0611 23.5498V14.8563C24.0611 14.6104 23.8158 14.4336 23.5713 14.5033L13.455 17.3866C13.2105 17.4563 12.9653 17.2795 12.9653 17.0336V11.4152C12.9653 11.3004 13.0209 11.1921 13.1156 11.1225L26.2985 1.43376C26.4817 1.29911 26.7459 1.35053 26.8606 1.54317L34.8243 14.9132C34.8807 15.0079 34.8906 15.1219 34.8512 15.2243L28.1465 32.6849C28.0228 33.007 27.5495 33.0046 27.4294 32.6812L24.0834 23.674Z"
     fill="white"
     id="path182"
     style="fill:#000000" />
  <path
     d="M9.58969 2.18729C9.65336 2.12716 9.73684 2.09042 9.82566 2.08343L21.993 1.12637C22.3731 1.09647 22.5586 1.56344 22.2551 1.78611L11.8842 9.39493C11.7882 9.46536 11.6634 9.48787 11.5475 9.45565L4.71821 7.55709C4.43731 7.479 4.34804 7.13776 4.55692 6.94049L9.58969 2.18729Z"
     fill="white"
     id="path184"
     style="fill:#000000" />
  <path
     d="M2.81722 9.46752C2.84631 9.24303 3.07652 9.09677 3.30186 9.1596L10.5396 11.1778C10.7028 11.2233 10.8152 11.3675 10.8152 11.5314V19.7027C10.8152 19.9487 11.0606 20.1255 11.3052 20.0556L21.3513 17.1852C21.5959 17.1153 21.8413 17.2921 21.8413 17.5381V22.7284C21.8413 22.8489 21.7801 22.9618 21.6775 23.0306L10.4095 30.5841C10.2626 30.6826 10.0644 30.6694 9.93286 30.5523L1.24775 22.8191C1.15729 22.7386 1.11268 22.6209 1.12795 22.5031L2.81722 9.46752Z"
     fill="white"
     id="path186"
     style="fill:#000000" />
  <path
     d="M56.0241 14.8914C55.9638 14.2884 55.705 13.8199 55.2476 13.486C54.7902 13.1521 54.1695 12.9851 53.3854 12.9851C52.8526 12.9851 52.4028 13.0599 52.0359 13.2094C51.6689 13.3539 51.3875 13.5558 51.1915 13.8149C51.0005 14.0741 50.905 14.3681 50.905 14.697C50.8949 14.9711 50.9527 15.2103 51.0784 15.4147C51.209 15.619 51.3875 15.7959 51.6137 15.9454C51.8398 16.0899 52.1012 16.217 52.3977 16.3267C52.6943 16.4313 53.0109 16.521 53.3477 16.5958L54.7349 16.9247C55.4084 17.0742 56.0267 17.2736 56.5896 17.5227C57.1525 17.7719 57.6401 18.0784 58.0522 18.4422C58.4644 18.806 58.7835 19.2346 59.0097 19.728C59.2409 20.2214 59.359 20.787 59.3641 21.4249C59.359 22.3619 59.1178 23.1742 58.6403 23.8619C58.1678 24.5447 57.4843 25.0754 56.5896 25.4542C55.7 25.828 54.6269 26.0149 53.3703 26.0149C52.1238 26.0149 51.0382 25.8255 50.1133 25.4467C49.1935 25.068 48.4748 24.5073 47.9571 23.7647C47.4444 23.0172 47.1755 22.0927 47.1504 20.9914H50.3094C50.3445 21.5047 50.4928 21.9333 50.7542 22.2771C51.0206 22.616 51.3749 22.8727 51.8172 23.0471C52.2645 23.2165 52.7697 23.3013 53.3326 23.3013C53.8855 23.3013 54.3655 23.2215 54.7726 23.0621C55.1848 22.9026 55.5039 22.6808 55.7301 22.3967C55.9563 22.1127 56.0694 21.7862 56.0694 21.4175C56.0694 21.0736 55.9663 20.7845 55.7603 20.5503C55.5592 20.3161 55.2627 20.1167 54.8706 19.9523C54.4836 19.7878 54.0086 19.6383 53.4457 19.5037L51.7644 19.0851C50.4627 18.7711 49.4348 18.2803 48.6809 17.6124C47.9269 16.9446 47.5525 16.0451 47.5575 14.9138C47.5525 13.9869 47.8013 13.177 48.3039 12.4843C48.8115 11.7916 49.5077 11.2508 50.3923 10.8621C51.2769 10.4734 52.2821 10.279 53.408 10.279C54.554 10.279 55.5542 10.4734 56.4087 10.8621C57.2681 11.2508 57.9366 11.7916 58.4141 12.4843C58.8916 13.177 59.1379 13.9794 59.153 14.8914H56.0241Z"
     fill="white"
     id="path188"
     style="fill:#000000" />
  <path
     d="M60.9718 13.1571V10.4883H73.6529V13.1571H68.9258V25.7981H65.699V13.1571H60.9718Z"
     fill="white"
     id="path190"
     style="fill:#000000" />
  <path
     d="M89.2253 18.1432C89.2253 19.8127 88.9062 21.2331 88.2679 22.4042C87.6346 23.5754 86.77 24.4699 85.6743 25.0879C84.5836 25.7009 83.3573 26.0074 81.9952 26.0074C80.623 26.0074 79.3916 25.6984 78.3009 25.0804C77.2102 24.4625 76.3482 23.5679 75.7149 22.3967C75.0816 21.2256 74.765 19.8077 74.765 18.1432C74.765 16.4737 75.0816 15.0534 75.7149 13.8822C76.3482 12.711 77.2102 11.819 78.3009 11.206C79.3916 10.588 80.623 10.279 81.9952 10.279C83.3573 10.279 84.5836 10.588 85.6743 11.206C86.77 11.819 87.6346 12.711 88.2679 13.8822C88.9062 15.0534 89.2253 16.4737 89.2253 18.1432ZM85.9156 18.1432C85.9156 17.0618 85.7522 16.1498 85.4255 15.4072C85.1039 14.6646 84.649 14.1015 84.0609 13.7177C83.4729 13.334 82.7843 13.1421 81.9952 13.1421C81.206 13.1421 80.5175 13.334 79.9294 13.7177C79.3413 14.1015 78.8839 14.6646 78.5572 15.4072C78.2356 16.1498 78.0747 17.0618 78.0747 18.1432C78.0747 19.2247 78.2356 20.1367 78.5572 20.8792C78.8839 21.6218 79.3413 22.1849 79.9294 22.5687C80.5175 22.9524 81.206 23.1443 81.9952 23.1443C82.7843 23.1443 83.4729 22.9524 84.0609 22.5687C84.649 22.1849 85.1039 21.6218 85.4255 20.8792C85.7522 20.1367 85.9156 19.2247 85.9156 18.1432Z"
     fill="white"
     id="path192"
     style="fill:#000000" />
  <path
     d="M104.558 10.4883V25.7981H101.739L95.0212 16.1622H94.9081V25.7981H91.6436V10.4883H94.5085L101.173 20.1167H101.309V10.4883H104.558Z"
     fill="white"
     id="path194"
     style="fill:#000000" />
  <path
     d="M109.073 25.9924C108.575 25.9924 108.148 25.818 107.791 25.4692C107.439 25.1153 107.263 24.6917 107.263 24.1983C107.263 23.7099 107.439 23.2913 107.791 22.9424C108.148 22.5936 108.575 22.4192 109.073 22.4192C109.555 22.4192 109.977 22.5936 110.339 22.9424C110.701 23.2913 110.882 23.7099 110.882 24.1983C110.882 24.5272 110.797 24.8288 110.626 25.1029C110.46 25.372 110.241 25.5888 109.97 25.7532C109.698 25.9127 109.399 25.9924 109.073 25.9924Z"
     fill="white"
     id="path196"
     style="fill:#000000" />
  <path
     d="M119.746 14.3158V16.7079H112.599V14.3158H119.746ZM114.235 25.7981V13.486C114.235 12.6537 114.398 11.9635 114.725 11.4153C115.057 10.8671 115.509 10.4559 116.082 10.1818C116.655 9.90774 117.306 9.77069 118.035 9.77069C118.527 9.77069 118.977 9.80807 119.384 9.88283C119.797 9.95758 120.103 10.0249 120.304 10.0847L119.731 12.4768C119.606 12.4369 119.45 12.3996 119.264 12.3647C119.083 12.3298 118.897 12.3123 118.706 12.3123C118.233 12.3123 117.904 12.422 117.718 12.6413C117.532 12.8556 117.439 13.1571 117.439 13.5458V25.7981H114.235Z"
     fill="white"
     id="path198"
     style="fill:#000000" />
  <path
     d="M121.708 25.7981V14.3158H124.92V25.7981H121.708ZM123.322 12.8356C122.844 12.8356 122.435 12.6786 122.093 12.3647C121.756 12.0457 121.588 11.6645 121.588 11.2209C121.588 10.7824 121.756 10.4061 122.093 10.0921C122.435 9.77318 122.844 9.61371 123.322 9.61371C123.799 9.61371 124.206 9.77318 124.543 10.0921C124.885 10.4061 125.056 10.7824 125.056 11.2209C125.056 11.6645 124.885 12.0457 124.543 12.3647C124.206 12.6786 123.799 12.8356 123.322 12.8356Z"
     fill="white"
     id="path200"
     style="fill:#000000" />
</svg>
