<svg xmlns="http://www.w3.org/2000/svg" width="106.536" height="47.598" viewBox="0 0 106.536 47.598"><defs><style>.a{fill:#fff;}</style></defs><g transform="translate(-115.53 -39.711)"><g transform="translate(115.53 39.711)"><path class="a" d="M222.338,106.914l-14.1,0a.928.928,0,0,0,0,1.856h14.1a.927.927,0,0,0,0-1.853Z" transform="translate(-178.203 -85.596)"/><path class="a" d="M133.29,39.711h-.113a.919.919,0,0,0-.918.918v9.513a.052.052,0,0,1-.053.052H117.531a.053.053,0,0,1-.053-.052V40.629a.919.919,0,0,0-.918-.918h-.113a.919.919,0,0,0-.918.918V61.964a.919.919,0,0,0,.918.918h.113a.919.919,0,0,0,.918-.918V52.1a.053.053,0,0,1,.053-.052h14.675a.052.052,0,0,1,.053.052v9.864a.919.919,0,0,0,.918.918h.113a.919.919,0,0,0,.918-.918V40.629A.919.919,0,0,0,133.29,39.711Z" transform="translate(-115.53 -39.711)"/><path class="a" d="M222.338,39.713l-14.1,0a.928.928,0,0,0,0,1.856h14.1a.927.927,0,0,0,0-1.853Z" transform="translate(-178.203 -39.711)"/><path class="a" d="M222.338,72.757l-14.1,0a.928.928,0,0,0,0,1.856h14.1a.927.927,0,0,0,0-1.854Z" transform="translate(-178.203 -62.274)"/><path class="a" d="M301.193,50.945a.053.053,0,0,1,0-.063l7.235-9.7a.918.918,0,0,0-.736-1.467.922.922,0,0,0-.737.37l-6.891,9.256a.05.05,0,0,1-.042.021h0a.05.05,0,0,1-.042-.021l-6.922-9.258a.921.921,0,0,0-.735-.368h-.064a.918.918,0,0,0-.736,1.467l7.235,9.7a.053.053,0,0,1,0,.063l-7.837,10.469a.918.918,0,0,0,.735,1.468h.031a.923.923,0,0,0,.734-.367l7.527-10.026a.05.05,0,0,1,.042-.021.049.049,0,0,1,.042.021l7.5,10.025a.922.922,0,0,0,.735.368h.06a.918.918,0,0,0,.734-1.47Z" transform="translate(-235.162 -39.711)"/><path class="a" d="M403.915,61.579,394.04,40.243a.921.921,0,0,0-.833-.532h-.431a.921.921,0,0,0-.833.532l-4.592,9.869a.919.919,0,0,0,.833,1.3h.108a.921.921,0,0,0,.835-.536l3.832-8.356a.047.047,0,0,1,.048-.03h0a.047.047,0,0,1,.048.03l5.49,11.96a.05.05,0,0,1,0,.05.049.049,0,0,1-.044.024l-13.188.017-3.241,7a.918.918,0,0,0,.833,1.3h.108a.921.921,0,0,0,.835-.535l2.735-5.966a.053.053,0,0,1,.048-.031h12.729a.053.053,0,0,1,.048.03l2.735,5.966a.919.919,0,0,0,.835.536h.108a.918.918,0,0,0,.833-1.3Z" transform="translate(-297.465 -39.711)"/></g><g transform="translate(140.611 77.426)"><path class="a" d="M202.543,163.631a.4.4,0,0,1,.117.295v3.308a.424.424,0,0,1-.206.371,5.015,5.015,0,0,1-1.372.659,5.182,5.182,0,0,1-1.537.233,4.988,4.988,0,0,1-2.526-.645,4.7,4.7,0,0,1-1.771-1.771,5.266,5.266,0,0,1,0-5.051,4.7,4.7,0,0,1,1.771-1.771,4.988,4.988,0,0,1,2.526-.645,5.531,5.531,0,0,1,1.407.179,4.484,4.484,0,0,1,1.215.508.388.388,0,0,1,.192.343.423.423,0,0,1-.117.3.358.358,0,0,1-.267.124.456.456,0,0,1-.247-.069,4.481,4.481,0,0,0-2.183-.563,4.107,4.107,0,0,0-2.093.535A3.8,3.8,0,0,0,196,161.449a4.515,4.515,0,0,0,0,4.214,3.8,3.8,0,0,0,1.448,1.476,4.107,4.107,0,0,0,2.093.535,4.452,4.452,0,0,0,1.187-.165,4.071,4.071,0,0,0,1.064-.453v-2.718h-2.169a.425.425,0,0,1-.3-.117.416.416,0,0,1,0-.59.426.426,0,0,1,.3-.116h2.622A.4.4,0,0,1,202.543,163.631Z" transform="translate(-194.602 -158.614)"/><path class="a" d="M278.461,166.1a4.513,4.513,0,0,1-8.016,0,5.787,5.787,0,0,1,0-5.093,4.391,4.391,0,0,1,1.634-1.757,4.78,4.78,0,0,1,4.749,0A4.391,4.391,0,0,1,278.461,161a5.787,5.787,0,0,1,0,5.093Zm-.762-4.674a3.558,3.558,0,0,0-1.318-1.462,3.827,3.827,0,0,0-3.857,0,3.556,3.556,0,0,0-1.318,1.462,5.047,5.047,0,0,0,0,4.269,3.55,3.55,0,0,0,1.318,1.462,3.825,3.825,0,0,0,3.857,0,3.552,3.552,0,0,0,1.318-1.462,5.047,5.047,0,0,0,0-4.269Z" transform="translate(-245.985 -158.614)"/><path class="a" d="M320.391,159.164a.4.4,0,0,1,.117.3v5.683a3.631,3.631,0,0,1-.48,1.839,3.6,3.6,0,0,1-6.246,0,3.625,3.625,0,0,1-.481-1.839V159.46a.4.4,0,0,1,.117-.3.436.436,0,0,1,.323-.116.405.405,0,0,1,.288.116.388.388,0,0,1,.124.3v5.683a2.808,2.808,0,0,0,1.379,2.436,2.735,2.735,0,0,0,2.773,0,2.828,2.828,0,0,0,1.016-1.023,2.749,2.749,0,0,0,.377-1.414V159.46a.413.413,0,0,1,.11-.3.376.376,0,0,1,.288-.116A.4.4,0,0,1,320.391,159.164Z" transform="translate(-275.65 -158.91)"/><g transform="translate(12.807 0.138)"><path class="a" d="M241.991,167.915a.787.787,0,0,1-.337-.48,4.982,4.982,0,0,1-.116-1.194,2.4,2.4,0,0,0-.4-1.352,2.1,2.1,0,0,0-.989-.79,2.32,2.32,0,0,0,1.2-.913,2.649,2.649,0,0,0,.46-1.544,2.559,2.559,0,0,0-.35-1.331,2.481,2.481,0,0,0-.967-.927,2.881,2.881,0,0,0-1.4-.336h-2.773a1.046,1.046,0,0,1,.016.809h2.688a1.893,1.893,0,0,1,1.379.515,1.736,1.736,0,0,1,.528,1.3,2.255,2.255,0,0,1-.247,1.071,2,2,0,0,1-.659.741,1.879,1.879,0,0,1-.892.316h-4.159v4.447a.37.37,0,0,0,.137.295.489.489,0,0,0,.329.117.377.377,0,0,0,.288-.117.413.413,0,0,0,.11-.295v-3.692h3.047a2.1,2.1,0,0,1,1.277.391,1.567,1.567,0,0,1,.535,1.352,3.942,3.942,0,0,0,.233,1.579,1.547,1.547,0,0,0,.618.713.459.459,0,0,0,.233.055.408.408,0,0,0,.206-.055.4.4,0,0,0,.151-.151.434.434,0,0,0,.055-.179A.4.4,0,0,0,241.991,167.915Z" transform="translate(-234.977 -159.048)"/></g><g transform="translate(50.073 0.138)"><path class="a" d="M358.428,160.372a2.444,2.444,0,0,0-.94-.974,2.66,2.66,0,0,0-1.359-.35h-2.444a1.03,1.03,0,0,1,.116.809h2.328a1.674,1.674,0,0,1,1.29.535,1.963,1.963,0,0,1,.495,1.386,2.137,2.137,0,0,1-.495,1.441,1.618,1.618,0,0,1-1.29.576h-3.665v4.447a.412.412,0,1,0,.823,0v-3.651h2.841a2.538,2.538,0,0,0,2.3-1.386,3.047,3.047,0,0,0,.336-1.427A2.928,2.928,0,0,0,358.428,160.372Z" transform="translate(-352.464 -159.048)"/></g><path class="a" d="M238.489,159.048h-3.167a.38.38,0,0,0-.3.128.443.443,0,0,0-.117.308.344.344,0,0,0,.117.27.431.431,0,0,0,.3.1h3.169A.92.92,0,0,1,238.489,159.048Z" transform="translate(-222.125 -158.91)"/><path class="a" d="M356.047,159.048H352.88a.38.38,0,0,0-.3.128.443.443,0,0,0-.117.308.344.344,0,0,0,.117.27.431.431,0,0,0,.3.1h3.169A.92.92,0,0,1,356.047,159.048Z" transform="translate(-302.394 -158.91)"/></g></g></svg>