<?xml version="1.0" encoding="UTF-8"?>
<svg id="Layer_2" data-name="Layer 2" xmlns="http://www.w3.org/2000/svg" xmlns:xlink="http://www.w3.org/1999/xlink" viewBox="0 0 314.57 273.27">
  <defs>
    <style>
      .cls-1 {
        fill: url(#linear-gradient);
      }

      .cls-2 {
        fill: #303235;
      }
    </style>
    <linearGradient id="linear-gradient" x1="106.04" y1="56.03" x2="208.53" y2="56.03" gradientUnits="userSpaceOnUse">
      <stop offset=".03" stop-color="#ec228c"/>
      <stop offset=".58" stop-color="#0092ff"/>
    </linearGradient>
  </defs>
  <g id="Layer_1-2" data-name="Layer 1">
    <g>
      <g>
        <path class="cls-2" d="M131.41,208.67h-41.34c-1.48,0-2.69,1.2-2.69,2.74s1.21,2.69,2.69,2.69h41.34c1.48,0,2.69-1.21,2.69-2.74s-1.21-2.69-2.69-2.69Z"/>
        <path class="cls-2" d="M54.1,146.18h-.33c-1.48,0-2.69,1.21-2.69,2.69v27.89c0,.09-.07,.15-.15,.15H7.9c-.09,0-.15-.07-.15-.15v-27.89c0-1.48-1.21-2.69-2.69-2.69h-.33c-1.48,0-2.69,1.21-2.69,2.69v62.54c0,1.48,1.21,2.69,2.69,2.69h.33c1.48,0,2.69-1.21,2.69-2.69v-28.91c0-.09,.07-.15,.15-.15H50.92c.09,0,.15,.07,.15,.15v28.91c0,1.48,1.21,2.69,2.69,2.69h.33c1.48,0,2.69-1.21,2.69-2.69v-62.54c0-1.48-1.21-2.69-2.69-2.69Z"/>
        <path class="cls-2" d="M131.41,146.19h-41.34c-1.48,0-2.69,1.2-2.69,2.74s1.21,2.69,2.69,2.69h41.34c1.48,0,2.69-1.21,2.69-2.74s-1.21-2.69-2.69-2.69Z"/>
        <path class="cls-2" d="M131.41,176.91h-41.34c-1.48,0-2.69,1.2-2.69,2.74s1.21,2.69,2.69,2.69h41.34c1.48,0,2.69-1.21,2.69-2.74s-1.21-2.69-2.69-2.69Z"/>
        <path class="cls-2" d="M195.6,179.11c-.04-.05-.04-.13,0-.18l21.21-28.45c.61-.82,.71-1.9,.25-2.82-.46-.92-1.38-1.48-2.41-1.48-.85,0-1.65,.41-2.16,1.08l-20.2,27.13s-.05,.06-.12,.06h0c-.08,0-.11-.05-.12-.06l-20.29-27.14c-.5-.68-1.31-1.08-2.16-1.08h-.19c-1.02,0-1.95,.57-2.41,1.48-.46,.92-.37,1.99,.25,2.82l21.21,28.45c.04,.05,.04,.13,0,.18l-22.97,30.69c-.61,.82-.71,1.9-.25,2.82,.46,.92,1.38,1.49,2.41,1.49h.09c.84,0,1.65-.4,2.15-1.08l22.07-29.39s.05-.06,.12-.06,.11,.05,.12,.06l21.98,29.39c.51,.68,1.31,1.08,2.16,1.08h.18c1.03,0,1.95-.57,2.41-1.49s.36-2-.26-2.82l-23.06-30.69Z"/>
        <path class="cls-2" d="M314.09,210.28l-28.95-62.54c-.44-.95-1.4-1.56-2.44-1.56h-1.26c-1.04,0-2,.61-2.44,1.56l-13.46,28.93c-.39,.84-.32,1.8,.18,2.58,.5,.78,1.34,1.24,2.27,1.24h.32c1.05,0,2.01-.62,2.45-1.57l11.23-24.49s.04-.09,.14-.09h0c.1,0,.13,.06,.14,.09l16.09,35.06s.03,.08-.01,.15c-.05,.07-.11,.07-.13,.07l-38.66,.05-9.5,20.53c-.39,.84-.32,1.8,.18,2.58,.5,.78,1.34,1.24,2.27,1.24h.32c1.05,0,2.01-.62,2.45-1.57l8.02-17.49c.02-.05,.08-.09,.14-.09h37.31c.06,0,.12,.04,.14,.09l8.02,17.49c.44,.95,1.4,1.57,2.45,1.57h.32c.92,0,1.77-.46,2.27-1.24,.5-.78,.56-1.74,.17-2.58Z"/>
      </g>
      <g>
        <path class="cls-2" d="M131.41,208.88h-41.34c-1.48,0-2.69,1.2-2.69,2.74s1.21,2.69,2.69,2.69h41.34c1.48,0,2.69-1.21,2.69-2.74s-1.21-2.69-2.69-2.69Z"/>
        <path class="cls-2" d="M54.1,146.38h-.33c-1.48,0-2.69,1.21-2.69,2.69v27.89c0,.09-.07,.15-.15,.15H7.9c-.09,0-.15-.07-.15-.15v-27.89c0-1.48-1.21-2.69-2.69-2.69h-.33c-1.48,0-2.69,1.21-2.69,2.69v62.54c0,1.48,1.21,2.69,2.69,2.69h.33c1.48,0,2.69-1.21,2.69-2.69v-28.91c0-.09,.07-.15,.15-.15H50.92c.09,0,.15,.07,.15,.15v28.91c0,1.48,1.21,2.69,2.69,2.69h.33c1.48,0,2.69-1.21,2.69-2.69v-62.54c0-1.48-1.21-2.69-2.69-2.69Z"/>
        <path class="cls-2" d="M131.41,146.39h-41.34c-1.48,0-2.69,1.2-2.69,2.74s1.21,2.69,2.69,2.69h41.34c1.48,0,2.69-1.21,2.69-2.74s-1.21-2.69-2.69-2.69Z"/>
        <path class="cls-2" d="M131.41,177.12h-41.34c-1.48,0-2.69,1.2-2.69,2.74s1.21,2.69,2.69,2.69h41.34c1.48,0,2.69-1.21,2.69-2.74s-1.21-2.69-2.69-2.69Z"/>
        <path class="cls-2" d="M195.6,179.31c-.04-.05-.04-.13,0-.18l21.21-28.45c.61-.82,.71-1.9,.25-2.82-.46-.92-1.38-1.48-2.41-1.48-.85,0-1.65,.41-2.16,1.08l-20.2,27.13s-.05,.06-.12,.06h0c-.08,0-.11-.05-.12-.06l-20.29-27.14c-.5-.68-1.31-1.08-2.16-1.08h-.19c-1.02,0-1.95,.57-2.41,1.48-.46,.92-.37,1.99,.25,2.82l21.21,28.45c.04,.05,.04,.13,0,.18l-22.97,30.69c-.61,.82-.71,1.9-.25,2.82,.46,.92,1.38,1.49,2.41,1.49h.09c.84,0,1.65-.4,2.15-1.08l22.07-29.39s.05-.06,.12-.06,.11,.05,.12,.06l21.98,29.39c.51,.68,1.31,1.08,2.16,1.08h.18c1.03,0,1.95-.57,2.41-1.49s.36-2-.26-2.82l-23.06-30.69Z"/>
        <path class="cls-2" d="M314.09,210.49l-28.95-62.54c-.44-.95-1.4-1.56-2.44-1.56h-1.26c-1.04,0-2,.61-2.44,1.56l-13.46,28.93c-.39,.84-.32,1.8,.18,2.58,.5,.78,1.34,1.24,2.27,1.24h.32c1.05,0,2.01-.62,2.45-1.57l11.23-24.49s.04-.09,.14-.09h0c.1,0,.13,.06,.14,.09l16.09,35.06s.03,.08-.01,.15c-.05,.07-.11,.07-.13,.07l-38.66,.05-9.5,20.53c-.39,.84-.32,1.8,.18,2.58,.5,.78,1.34,1.24,2.27,1.24h.32c1.05,0,2.01-.62,2.45-1.57l8.02-17.49c.02-.05,.08-.09,.14-.09h37.31c.06,0,.12,.04,.14,.09l8.02,17.49c.44,.95,1.4,1.57,2.45,1.57h.32c.92,0,1.77-.46,2.27-1.24,.5-.78,.56-1.74,.17-2.58Z"/>
      </g>
      <g>
        <g>
          <path class="cls-2" d="M1.99,247.5v11.69H15.68c.5,0,.9,.4,.9,.9h0c0,.5-.4,.9-.9,.9H1.99v11.09c0,.55-.45,1-1,1h0c-.55,0-1-.45-1-1v-26.38H17.4c.5,0,.9,.4,.9,.9h0c0,.5-.4,.9-.9,.9H1.99Z"/>
          <path class="cls-2" d="M33.99,271.45c-2.16-1.21-3.87-2.88-5.1-4.99-1.24-2.11-1.86-4.47-1.86-7.08s.62-4.97,1.86-7.08c1.24-2.11,2.94-3.77,5.1-4.99,2.16-1.21,4.59-1.82,7.27-1.82s5.11,.6,7.27,1.8c2.16,1.2,3.87,2.86,5.1,4.97,1.24,2.11,1.86,4.49,1.86,7.12s-.62,5.01-1.86,7.12c-1.24,2.11-2.94,3.77-5.1,4.97-2.16,1.2-4.59,1.8-7.27,1.8s-5.11-.61-7.27-1.82Zm13.49-1.58c1.85-1.04,3.31-2.48,4.38-4.32,1.07-1.84,1.6-3.89,1.6-6.16s-.53-4.32-1.6-6.16c-1.07-1.84-2.53-3.28-4.38-4.32-1.85-1.04-3.92-1.56-6.22-1.56s-4.37,.52-6.24,1.56c-1.86,1.04-3.33,2.48-4.4,4.32-1.07,1.84-1.6,3.89-1.6,6.16s.53,4.32,1.6,6.16c1.07,1.84,2.54,3.28,4.4,4.32,1.86,1.04,3.94,1.56,6.24,1.56s4.37-.52,6.22-1.56Z"/>
          <path class="cls-2" d="M70.38,270.26c-1.92-2.01-2.87-4.94-2.87-8.8v-14.76c0-.55,.45-1,1-1h0c.55,0,1,.45,1,1v14.69c0,3.36,.77,5.88,2.31,7.55,1.54,1.67,3.77,2.5,6.69,2.5s5.11-.83,6.65-2.5c1.54-1.67,2.31-4.19,2.31-7.55v-14.69c0-.55,.45-1,1-1h0c.55,0,1,.45,1,1v14.76c0,3.86-.96,6.79-2.89,8.8-1.93,2.01-4.63,3.01-8.1,3.01s-6.16-1-8.08-3.01Z"/>
          <path class="cls-2" d="M126.37,246.7v25.28c0,.61-.49,1.11-1.11,1.11h0c-.34,0-.66-.16-.87-.42l-18.32-23.36v22.78c0,.55-.45,1-1,1h0c-.55,0-1-.45-1-1v-25.25c0-.62,.51-1.13,1.13-1.13h0c.35,0,.68,.16,.89,.43l18.28,23.35v-22.78c0-.55,.45-1,1-1h0c.55,0,1,.45,1,1Z"/>
          <path class="cls-2" d="M141.23,245.7h10.83c2.84,0,5.36,.59,7.57,1.76,2.2,1.17,3.92,2.8,5.14,4.87,1.23,2.07,1.84,4.43,1.84,7.06s-.61,4.99-1.84,7.06c-1.23,2.07-2.94,3.7-5.14,4.87-2.2,1.17-4.73,1.76-7.57,1.76h-10.83v-27.38Zm10.68,25.58c2.53,0,4.76-.5,6.69-1.51s3.42-2.41,4.46-4.21c1.04-1.8,1.56-3.86,1.56-6.18s-.52-4.38-1.56-6.18c-1.04-1.8-2.53-3.2-4.46-4.21-1.93-1-4.16-1.51-6.69-1.51h-8.68v23.78h8.68Z"/>
          <path class="cls-2" d="M215.23,247.5h-8.96c-.5,0-.9-.4-.9-.9h0c0-.5,.4-.9,.9-.9h19.91c.5,0,.9,.4,.9,.9h0c0,.5-.4,.9-.9,.9h-8.96v24.58c0,.55-.45,1-1,1h0c-.55,0-1-.45-1-1v-24.58Z"/>
          <path class="cls-2" d="M238.32,245.7h0c.55,0,1,.45,1,1v25.38c0,.55-.45,1-1,1h0c-.55,0-1-.45-1-1v-25.38c0-.55,.45-1,1-1Z"/>
          <path class="cls-2" d="M258.52,271.45c-2.17-1.21-3.87-2.88-5.1-4.99-1.24-2.11-1.86-4.47-1.86-7.08s.62-4.97,1.86-7.08c1.24-2.11,2.94-3.77,5.1-4.99,2.16-1.21,4.59-1.82,7.27-1.82s5.11,.6,7.27,1.8c2.16,1.2,3.87,2.86,5.1,4.97,1.24,2.11,1.86,4.49,1.86,7.12s-.62,5.01-1.86,7.12c-1.24,2.11-2.94,3.77-5.1,4.97s-4.59,1.8-7.27,1.8-5.11-.61-7.27-1.82Zm13.49-1.58c1.85-1.04,3.31-2.48,4.38-4.32,1.07-1.84,1.6-3.89,1.6-6.16s-.53-4.32-1.6-6.16c-1.07-1.84-2.53-3.28-4.38-4.32-1.85-1.04-3.92-1.56-6.22-1.56s-4.37,.52-6.24,1.56c-1.86,1.04-3.33,2.48-4.4,4.32-1.07,1.84-1.6,3.89-1.6,6.16s.53,4.32,1.6,6.16c1.07,1.84,2.54,3.28,4.4,4.32s3.94,1.56,6.24,1.56,4.37-.52,6.22-1.56Z"/>
          <path class="cls-2" d="M314.57,246.7v25.38c0,.55-.45,1-1,1h-.16c-.31,0-.6-.14-.78-.38l-18.36-23.4v22.78c0,.55-.45,1-1,1h0c-.55,0-1-.45-1-1v-25.25c0-.62,.51-1.13,1.13-1.13h0c.35,0,.68,.16,.89,.43l18.28,23.35v-22.78c0-.55,.45-1,1-1h0c.55,0,1,.45,1,1Z"/>
        </g>
        <path class="cls-2" d="M200.43,271.7l-11.54-25.09c-.25-.55-.81-.91-1.41-.91s-1.16,.35-1.41,.91l-2.81,6.12-2.47,5.37c-.29,.65,.17,1.38,.87,1.38,.38,0,.72-.22,.87-.57l.44-.99,1.94-4.38h0l2.56-5.64,7.2,15.8h-16.45l-3.68,8c-.3,.65,.17,1.38,.89,1.38,.38,0,.73-.22,.89-.57l3.22-7.13h15.88l3.26,7.14c.16,.35,.51,.57,.89,.57h0c.71,0,1.18-.74,.89-1.38Z"/>
      </g>
    </g>
    <path id="Logo" class="cls-1" d="M106.05,2.93c0,9.24,0,18.48,0,27.72,0,4.8,0,9.6,0,14.4,0,3.23-.11,6.49,.34,9.69,1.07,7.66,4.7,14.64,10.13,20.11,2.06,2.08,4.15,4.15,6.22,6.22,7.42,7.42,14.84,14.84,22.26,22.26,1.66,1.66,3.31,3.36,5,5,5.38,5.22,13.53,4.82,18.74-.36,6.56-6.52,13.08-13.08,19.62-19.62,2.26-2.26,4.52-4.5,6.77-6.77,5.81-5.86,10.04-13.12,12.04-21.14,2.21-8.85,1.72-18.35-1.44-26.91-1.56-4.24-3.77-8.24-6.52-11.83-.68-.89-1.4-1.76-2.15-2.6-.65-.73-1.46-1.92-2.36-2.32-.83-.37-1.51-.06-2.14,.49-2.2,1.91-4.18,4.18-6.24,6.24-3.79,3.79-7.57,7.57-11.36,11.36-5.26,5.26-10.51,10.52-15.77,15.77-2.1-2.1-4.2-4.2-6.3-6.3-9.15-9.15-18.29-18.29-27.44-27.44-3.97-3.97-7.93-7.93-11.9-11.9-1.14-1.14-2.28-2.28-3.43-3.43-.8-.8-1.68-1.99-2.99-1.45-1.22,.51-1.08,1.74-1.08,2.8Zm70.58,92.18c4.2-12.32,.83-26.08-8.27-35.29-1.83-1.86-3.69-3.69-5.54-5.54-1.11-1.11-1.38-.94-.36-1.97,3.48-3.48,6.96-6.96,10.44-10.43,7.01-7.01,14.01-14.01,21.02-21.02,3.22,3.5,5.85,7.53,7.72,11.9,6.7,15.63,3.07,34.25-8.94,46.26-5.36,5.36-10.72,10.72-16.08,16.08ZM109.56,44.32c0-12.78,0-25.55,0-38.33,.13,.13,.26,.28,.4,.4,2.95,2.54,5.58,5.58,8.33,8.33,5.03,5.03,10.06,10.06,15.09,15.09,9.69,9.69,19.39,19.39,29.08,29.08,3.58,3.58,7.06,7.06,9.35,11.71,2.96,6.02,3.82,13.01,2.5,19.58-.66,3.3-1.88,6.55-3.61,9.44-1.59,2.65-3.58,5.59-6.17,7.37-3.93,2.7-8.99,1.89-12.29-1.36-1.27-1.25-2.52-2.52-3.78-3.78-5.09-5.09-10.17-10.17-15.26-15.26-4.37-4.37-8.73-8.73-13.1-13.1-1.79-1.79-3.53-3.62-4.98-5.72-3.63-5.26-5.56-11.57-5.56-17.96v-5.49Z"/>
  </g>
</svg>