<svg width="159" height="94" viewBox="0 0 159 94" fill="none" xmlns="http://www.w3.org/2000/svg">
<circle cx="3.15229" cy="3.15229" r="3.15229" fill="#C4C4C4"/>
<circle cx="3.15229" cy="61.4697" r="3.15229" fill="#C4C4C4"/>
<circle cx="3.15229" cy="32.311" r="3.15229" fill="#C4C4C4"/>
<circle cx="3.15229" cy="90.6282" r="3.15229" fill="#C4C4C4"/>
<circle cx="63.8339" cy="3.15229" r="3.15229" fill="#C4C4C4"/>
<circle cx="63.8339" cy="61.4697" r="3.15229" fill="#C4C4C4"/>
<circle cx="63.8339" cy="32.311" r="3.15229" fill="#C4C4C4"/>
<circle cx="63.8339" cy="90.6282" r="3.15229" fill="#C4C4C4"/>
<circle cx="124.515" cy="3.15229" r="3.15229" fill="#C4C4C4"/>
<circle cx="124.515" cy="61.4697" r="3.15229" fill="#C4C4C4"/>
<circle cx="124.515" cy="32.311" r="3.15229" fill="#C4C4C4"/>
<circle cx="124.515" cy="90.6282" r="3.15229" fill="#C4C4C4"/>
<circle cx="33.4931" cy="3.15229" r="3.15229" fill="#C4C4C4"/>
<circle cx="33.4931" cy="61.4697" r="3.15229" fill="#C4C4C4"/>
<circle cx="33.4931" cy="32.311" r="3.15229" fill="#C4C4C4"/>
<circle cx="33.4931" cy="90.6282" r="3.15229" fill="#C4C4C4"/>
<circle cx="94.1747" cy="3.15229" r="3.15229" fill="#C4C4C4"/>
<circle cx="94.1747" cy="61.4697" r="3.15229" fill="#C4C4C4"/>
<circle cx="94.1747" cy="32.311" r="3.15229" fill="#C4C4C4"/>
<circle cx="94.1747" cy="90.6282" r="3.15229" fill="#C4C4C4"/>
<circle cx="154.856" cy="3.15229" r="3.15229" fill="#C4C4C4"/>
<circle cx="154.856" cy="61.4697" r="3.15229" fill="#C4C4C4"/>
<circle cx="154.856" cy="32.311" r="3.15229" fill="#C4C4C4"/>
<circle cx="154.856" cy="90.6282" r="3.15229" fill="#C4C4C4"/>
</svg>
