<svg width="1365" height="801" viewBox="0 0 1365 801" fill="none" xmlns="http://www.w3.org/2000/svg">
<path opacity="0.2" fill-rule="evenodd" clip-rule="evenodd" d="M144.136 1.08365C258.449 -2.08649 336.789 85.4577 406.826 159.625C475.113 231.94 543.602 312.477 523.087 402.383C501.8 495.677 408.944 563.697 305.077 605.545C200.033 647.866 78.5793 664.28 -27.8494 624.354C-136.658 583.535 -220.947 499.954 -235.924 402.591C-249.609 313.621 -164.234 244.436 -97.1848 173.603C-28.3374 100.87 31.9327 4.19527 144.136 1.08365Z" stroke="white"/>
<path opacity="0.2" fill-rule="evenodd" clip-rule="evenodd" d="M981.519 154.084C1095.83 150.914 1174.17 238.458 1244.21 312.625C1312.5 384.94 1380.99 465.477 1360.47 555.383C1339.18 648.677 1246.33 716.697 1142.46 758.545C1037.42 800.866 915.963 817.28 809.534 777.354C700.725 736.535 616.436 652.954 601.459 555.591C587.774 466.621 673.149 397.436 740.198 326.603C809.046 253.87 869.316 157.195 981.519 154.084Z" stroke="white"/>
</svg>
