<svg width="147" height="146" viewBox="0 0 147 146" fill="none" xmlns="http://www.w3.org/2000/svg">
<g clip-path="url(#clip0_118_2622)">
<path d="M42.1943 93.3691C41.7828 94.9822 40.4217 95.3934 39.2188 94.2547L15.4152 72.0827C14.1807 70.9441 14.4656 69.4891 16.0166 68.8882L49.3797 55.5723C50.9307 54.9397 51.8487 55.7621 51.4372 57.3752L42.1943 93.3691Z" fill="white"/>
<path d="M22.5373 114.466C21.2712 115.573 19.9734 115.098 19.6885 113.454L13.1678 77.3964C12.8829 75.7517 13.6426 75.3405 14.8455 76.4791L37.4779 97.6074C38.7124 98.746 38.6807 100.581 37.3829 101.656L22.5373 114.466Z" fill="white"/>
<path d="M49.8544 48.3609C50.9622 49.6261 50.5824 51.1759 48.9997 51.8085L15.8266 65.0295C14.2755 65.662 13.4842 64.8713 14.054 63.3215L27.6967 26.7266C28.2665 25.1452 29.6593 24.9237 30.7355 26.1889L49.8544 48.3609Z" fill="white"/>
<path d="M15.0989 108.33C15.3838 109.974 14.909 110.164 13.991 108.773L1.10792 88.9094C0.189957 87.5178 0.284918 85.2721 1.26618 83.912L7.02717 76.2262C8.04009 74.8977 9.08466 75.1508 9.4012 76.7955L15.0989 108.33Z" fill="white"/>
<path d="M11.0151 61.0758C10.4454 62.6573 9.52742 62.6257 8.98931 61.0442L4.58944 47.8549C4.05132 46.2734 4.65275 44.0594 5.88724 42.9207L21.5558 28.7193C22.7903 27.5806 23.3285 27.9602 22.7587 29.5416L11.0151 61.0758Z" fill="white"/>
<path d="M6.90035 66.1681C7.43846 67.7495 7.05862 70.1533 6.0457 71.4818L1.51921 77.5229C0.50629 78.8513 -0.158438 78.5983 -0.000169576 76.922L2.18394 55.9835C2.34221 54.3071 2.94363 54.2439 3.45009 55.857L6.90035 66.1681Z" fill="white"/>
<path d="M24.5946 19.0408C25.1644 19.6733 24.5946 21.1283 23.3601 22.2669L16.3013 28.6244C15.0668 29.763 14.8769 29.5732 15.8582 28.2132L21.7774 20.2743C22.7587 18.9459 24.0248 18.3765 24.5946 19.0408Z" fill="white"/>
<path d="M69.0682 130.407C68.2136 131.862 66.7575 131.893 65.8079 130.533L47.3854 103.743C46.4358 102.352 47.0372 101.087 48.6832 100.928L85.7181 97.1013C87.3957 96.9432 88.0605 97.9553 87.2058 99.4103L69.0682 130.407Z" fill="white"/>
<path d="M61.3446 130.438C62.2942 131.83 61.7561 132.494 60.1734 131.957L25.4809 120.159C23.8982 119.621 23.645 118.293 24.9111 117.186L39.7884 104.376C41.0545 103.269 42.8588 103.522 43.8084 104.882L61.3446 130.438Z" fill="white"/>
<path d="M86.5097 90.8705C87.6176 92.1356 87.1428 93.3059 85.4651 93.4957L47.8921 97.3861C46.2145 97.5442 45.2016 96.3739 45.6131 94.7609L55.0142 58.1976C55.4257 56.5845 56.6602 56.2998 57.7681 57.565L86.5097 90.8705Z" fill="white"/>
<path d="M113.51 122.183C114.618 123.448 114.143 124.777 112.529 125.125L74.2595 133.159C72.6135 133.506 71.9804 132.589 72.8034 131.166L90.8461 100.328C91.7007 98.8726 93.2834 98.7461 94.3596 100.011L113.51 122.183Z" fill="white"/>
<path d="M51.9754 142.774C50.4877 143.565 48.2719 143.312 47.0058 142.204L29.2797 126.516C28.0135 125.409 28.2984 124.935 29.8811 125.473L60.2687 135.784C61.8514 136.321 61.9463 137.397 60.4586 138.188L51.9754 142.774Z" fill="white"/>
<path d="M93.2517 144.26C91.9539 145.304 89.6748 145.557 88.1871 144.798L75.7788 138.504C74.2911 137.745 74.4177 136.827 76.032 136.511L108.984 129.584C110.63 129.236 110.914 129.837 109.617 130.881L93.2517 144.26Z" fill="white"/>
<path d="M58.7173 145.019C57.0397 144.956 56.8814 144.229 58.3691 143.438L65.0164 139.896C66.5042 139.105 68.9098 139.073 70.3976 139.832L80.0836 144.766C81.5713 145.526 81.4131 146.095 79.7671 146L58.7173 145.019Z" fill="white"/>
<path d="M119.651 129.331C120.221 129.964 119.461 131.166 117.973 131.925L109.237 136.574C107.749 137.365 107.622 137.144 108.92 136.068L116.296 130.059C117.593 129.015 119.113 128.699 119.651 129.331Z" fill="white"/>
<path d="M97.5885 90.4592C96.0375 91.0918 95.0879 90.2695 95.5311 88.6564L104.806 52.6308C105.217 51.0177 106.578 50.6065 107.781 51.7452L131.585 73.9172C132.819 75.0559 132.534 76.5108 130.983 77.1117L97.5885 90.4592Z" fill="white"/>
<path d="M133.832 68.6035C134.117 70.2483 133.357 70.6594 132.154 69.5208L109.49 48.3925C108.256 47.2539 108.287 45.4194 109.585 44.344L124.462 31.5342C125.729 30.4272 127.026 30.9016 127.311 32.5464L133.832 68.6035Z" fill="white"/>
<path d="M119.303 119.273C118.733 120.855 117.34 121.076 116.264 119.811L97.1451 97.639C96.0372 96.3739 96.417 94.824 97.9997 94.1915L131.173 80.9705C132.724 80.3379 133.515 81.1286 132.945 82.6785L119.303 119.273Z" fill="white"/>
<path d="M145.892 57.0905C146.81 58.4822 146.715 60.7279 145.734 62.0879L139.973 69.7738C138.96 71.1022 137.915 70.8492 137.599 69.2045L131.901 37.6386C131.616 35.9939 132.091 35.8041 133.009 37.1958L145.892 57.0905Z" fill="white"/>
<path d="M142.379 98.1451C142.917 99.7266 142.315 101.941 141.081 103.079L125.412 117.281C124.178 118.388 123.639 118.04 124.209 116.458L135.953 84.9242C136.523 83.3427 137.441 83.3744 137.979 84.9558L142.379 98.1451Z" fill="white"/>
<path d="M144.816 90.0165C144.657 91.6928 144.056 91.7561 143.55 90.143L140.099 79.8319C139.561 78.2505 139.941 75.8466 140.954 74.5182L145.449 68.4771C146.462 67.1486 147.126 67.4017 146.968 69.078L144.816 90.0165Z" fill="white"/>
<path d="M125.254 125.694C124.241 127.022 122.975 127.592 122.437 126.959C121.867 126.327 122.437 124.872 123.671 123.733L130.73 117.344C131.964 116.205 132.154 116.395 131.173 117.755L125.254 125.694Z" fill="white"/>
<path d="M99.614 42.2881C100.564 43.6797 99.9622 44.9449 98.3162 45.1031L61.2813 48.9302C59.6037 49.0883 58.9389 48.0762 59.7936 46.6213L77.9312 15.6247C78.7858 14.1698 80.2419 14.1381 81.1915 15.4982L99.614 42.2881Z" fill="white"/>
<path d="M107.211 41.5922C105.945 42.6993 104.14 42.4462 103.191 41.0862L85.6547 15.5931C84.7051 14.2014 85.2432 13.5372 86.8259 14.0749L121.55 25.8726C123.133 26.4103 123.386 27.7387 122.12 28.8457L107.211 41.5922Z" fill="white"/>
<path d="M91.9856 87.8656C91.5741 89.4787 90.3396 89.7634 89.2318 88.4982L60.4902 55.1611C59.3823 53.896 59.8571 52.7257 61.5347 52.5359L99.1077 48.6455C100.785 48.4874 101.798 49.6577 101.387 51.2708L91.9856 87.8656Z" fill="white"/>
<path d="M56.1218 45.6725C55.2672 47.1274 53.6845 47.2539 52.6083 45.9888L33.4894 23.8167C32.3815 22.5516 32.8563 21.2232 34.4707 20.8752L72.7084 12.8414C74.3544 12.4935 74.9875 13.4108 74.1645 14.8341L56.1218 45.6725Z" fill="white"/>
<path d="M86.7313 10.1846C85.1486 9.64687 85.0536 8.57148 86.5413 7.78075L95.0246 3.22616C96.5123 2.43543 98.728 2.68846 99.9942 3.79548L117.752 19.4519C119.018 20.5589 118.733 21.0333 117.151 20.4957L86.7313 10.1846Z" fill="white"/>
<path d="M38.016 16.4471C36.37 16.795 36.0852 16.1941 37.383 15.1503L53.748 1.77121C55.0458 0.727454 57.3248 0.474421 58.8126 1.23352L71.2208 7.49609C72.7086 8.25518 72.5819 9.1408 70.9676 9.48872L38.016 16.4471Z" fill="white"/>
<path d="M81.9829 6.10439C80.4952 6.89512 78.0895 6.92675 76.6017 6.16765L66.9157 1.23351C65.428 0.474407 65.5862 -0.0949169 67.2322 -2.96011e-05L88.2503 0.980473C89.928 1.04373 90.0862 1.7712 88.5985 2.56193L81.9829 6.10439Z" fill="white"/>
<path d="M30.704 15.9094C29.4062 16.9532 27.8868 17.3011 27.3487 16.6685C26.7789 16.036 27.5386 14.8341 29.0264 14.075L37.7628 9.42547C39.2505 8.63475 39.3771 8.85615 38.0793 9.93154L30.704 15.9094Z" fill="white"/>
<path d="M19.4985 121.867C20.1316 121.298 21.5876 121.867 22.7272 123.1L29.1212 130.154C30.2608 131.387 30.0708 131.577 28.7097 130.597L20.7646 124.682C19.4035 123.701 18.8338 122.436 19.4985 121.867Z" fill="white"/>
<path d="M129.875 26.8531C130.508 26.2838 131.711 27.0429 132.471 28.5294L137.124 37.2591C137.915 38.7456 137.694 38.8721 136.617 37.5753L130.603 30.2058C129.559 28.9406 129.242 27.4224 129.875 26.8531Z" fill="white"/>
<path d="M126.235 21.2864C127.564 22.2985 128.134 23.5637 127.501 24.1014C126.868 24.6391 125.412 24.1014 124.272 22.8678L117.878 15.8145C116.739 14.581 116.929 14.3912 118.29 15.3717L126.235 21.2864Z" fill="white"/>
<path d="M16.3649 115.763C17.4095 117.059 17.7577 118.578 17.1246 119.115C16.4915 119.685 15.2887 118.925 14.529 117.439L9.87592 108.709C9.08457 107.223 9.30615 107.096 10.3824 108.393L16.3649 115.763Z" fill="white"/>
</g>
<defs>
<clipPath id="clip0_118_2622">
<rect width="147" height="146" fill="white"/>
</clipPath>
</defs>
</svg>
