<svg width="957" height="432" viewBox="0 0 957 432" fill="none" xmlns="http://www.w3.org/2000/svg">
<path d="M471.613 69.2532L469.962 50.4753L469.893 49.8218C469.48 49.8562 469.102 49.8906 468.689 49.925C463.84 50.3377 459.06 50.9912 454.279 51.8166C453.901 51.8854 453.488 51.9541 453.11 52.0229C448.329 52.8827 443.618 53.9145 438.906 55.1526C438.528 55.2557 438.149 55.3589 437.771 55.4621C433.094 56.7346 428.485 58.179 423.911 59.8298C423.533 59.9674 423.155 60.105 422.776 60.2425C420.094 61.2399 417.411 62.2716 414.763 63.4066C412.94 64.1632 411.152 64.9886 409.329 65.814L407.403 61.7214L407.094 61.0679C408.951 60.2081 410.808 59.3827 412.7 58.5917C415.417 57.4224 418.168 56.3563 420.954 55.3245C421.332 55.1869 421.71 55.0494 422.089 54.9118C426.8 53.2266 431.581 51.7134 436.396 50.4065C436.774 50.3033 437.152 50.2002 437.53 50.097C442.345 48.8245 447.229 47.7583 452.181 46.8642L452.319 47.552C452.697 47.4832 453.11 47.4144 453.488 47.3456C458.372 46.4859 463.29 45.8668 468.277 45.4197C468.689 45.3853 469.068 45.3509 469.48 45.3165C474.398 44.9038 479.385 44.6975 484.406 44.6631C484.613 44.6631 484.819 44.6631 484.991 44.6631C485.163 44.6631 485.404 44.6631 485.576 44.6631C490.597 44.6631 495.584 44.9038 500.502 45.3165C500.914 45.3509 501.293 45.3853 501.705 45.4197C506.692 45.8668 511.645 46.5202 516.494 47.3456C516.907 47.4144 517.285 47.4832 517.663 47.552C522.581 48.4462 527.465 49.5123 532.245 50.7848L531.076 55.1526L530.904 55.8404C526.261 54.6023 521.549 53.5705 516.769 52.7108C516.391 52.642 515.978 52.5732 515.6 52.5044C510.888 51.679 506.108 51.06 501.258 50.6129C500.846 50.5785 500.467 50.5441 500.055 50.5097L498.404 69.2876C494.174 68.9436 489.909 68.7373 485.576 68.7373C485.369 68.7373 485.163 68.7373 484.991 68.7373L471.613 69.2532Z" fill="#2B2B2B"/>
<path d="M631.912 332.9C629.126 336.855 626.169 340.673 623.073 344.387L608.698 332.35C611.449 329.048 614.063 325.643 616.539 322.17L631.912 332.9Z" fill="#2B2B2B"/>
<path d="M590.677 381.22C586.584 384.075 582.388 386.757 578.09 389.268C577.746 389.474 577.402 389.681 577.058 389.853C572.759 392.329 568.322 394.667 563.817 396.8C563.473 396.972 563.095 397.144 562.751 397.316C558.246 399.414 553.637 401.339 548.96 403.059C548.581 403.197 548.203 403.334 547.825 403.472C543.148 405.157 538.401 406.67 533.552 407.977C533.174 408.08 532.796 408.183 532.417 408.287C527.637 409.559 522.753 410.66 517.801 411.519C517.423 411.588 517.01 411.657 516.631 411.726C511.748 412.586 506.795 413.239 501.809 413.686L501.396 409.146C506.245 408.734 511.06 408.08 515.841 407.255C516.219 407.186 516.632 407.117 517.01 407.049C521.79 406.189 526.536 405.157 531.214 403.919C531.592 403.816 531.97 403.713 532.349 403.609L532.177 402.956L527.293 384.797C531.42 383.662 535.513 382.39 539.571 380.911L546.002 398.588L546.243 399.242C546.621 399.104 546.999 398.966 547.378 398.829C550.026 397.866 552.64 396.834 555.253 395.699C557.111 394.908 558.968 394.083 560.825 393.223C561.203 393.051 561.547 392.879 561.891 392.707C566.293 390.644 570.592 388.374 574.822 385.966C575.166 385.76 575.51 385.588 575.854 385.382C580.05 382.94 584.142 380.326 588.132 377.54L590.677 381.22Z" fill="#2B2B2B"/>
<path d="M622.145 113.515L607.769 125.552C605.018 122.32 602.129 119.156 599.103 116.095C598.999 115.991 598.896 115.888 598.793 115.785C598.621 115.613 598.449 115.441 598.277 115.269L597.796 115.751L578.64 134.907C576.163 132.465 573.584 130.092 570.97 127.857L578.674 118.64L579.052 118.193L583.076 113.412L583.489 112.931L588.372 107.118L588.785 106.603L600.822 92.2268C604.502 95.3565 608.079 98.5893 611.484 101.994C611.759 102.269 612.034 102.544 612.343 102.819C615.748 106.293 619.015 109.835 622.145 113.515Z" fill="#2B2B2B"/>
<path d="M407.61 320.691L399.287 330.596C396.639 328.36 394.094 326.022 391.652 323.58C391.377 323.305 391.102 323.03 390.826 322.72C388.385 320.244 386.046 317.699 383.81 315.051C383.57 314.741 383.295 314.432 383.054 314.122C380.853 311.474 378.721 308.723 376.726 305.868C376.485 305.559 376.279 305.215 376.038 304.905C374.078 302.051 372.186 299.127 370.466 296.135C370.26 295.791 370.054 295.447 369.882 295.104C368.162 292.111 366.58 289.016 365.101 285.887C364.929 285.543 364.757 285.164 364.586 284.82C363.141 281.691 361.8 278.492 360.596 275.225C360.459 274.847 360.321 274.469 360.183 274.09C359.014 270.857 357.982 267.556 357.054 264.185L369.572 260.815L370.019 260.677C369.916 260.299 369.813 259.921 369.71 259.508C368.919 256.55 368.265 253.558 367.715 250.532C367.646 250.154 367.578 249.741 367.509 249.363C366.993 246.37 366.615 243.31 366.339 240.214L373.734 239.561C373.974 242.415 374.353 245.236 374.8 248.056C374.869 248.434 374.937 248.847 375.006 249.225C375.522 252.045 376.107 254.831 376.829 257.582C376.932 257.96 377.035 258.339 377.138 258.751C377.895 261.503 378.721 264.254 379.683 266.937L372.736 269.447L372.255 269.619C372.392 269.998 372.53 270.376 372.668 270.754C373.734 273.643 374.903 276.498 376.21 279.318C376.382 279.662 376.554 280.04 376.726 280.384C378.033 283.17 379.443 285.921 380.99 288.603C381.197 288.947 381.403 289.291 381.575 289.635C383.123 292.283 384.773 294.897 386.562 297.442C386.803 297.752 387.009 298.096 387.25 298.405C389.038 300.916 390.895 303.358 392.89 305.731C393.131 306.04 393.406 306.35 393.647 306.625C395.641 308.963 397.705 311.233 399.906 313.434C400.078 313.606 400.25 313.778 400.422 313.95C400.525 314.053 400.628 314.157 400.731 314.26C403.001 316.598 405.271 318.696 407.61 320.691Z" fill="#2B2B2B"/>
<path d="M381.678 126.825C378.961 129.542 376.348 132.396 373.871 135.285C373.631 135.595 373.356 135.904 373.115 136.18C370.639 139.137 368.3 142.164 366.099 145.293C365.858 145.603 365.652 145.947 365.411 146.256C363.21 149.42 361.146 152.653 359.221 155.955C359.014 156.299 358.808 156.643 358.636 156.986C356.71 160.322 354.956 163.727 353.305 167.201C353.133 167.545 352.961 167.923 352.789 168.267C352.101 169.746 351.448 171.259 350.795 172.772C349.935 174.801 349.109 176.83 348.353 178.894C348.215 179.272 348.078 179.651 347.94 180.029C346.633 183.64 345.464 187.32 344.466 191L338.379 189.383L337.829 189.246C337.726 189.624 337.623 190.003 337.519 190.381C336.488 194.301 335.593 198.222 334.906 202.212L327.374 200.87L326.789 200.767L308.252 197.5L307.599 197.397C307.53 197.775 307.461 198.188 307.392 198.566C306.567 203.347 305.948 208.127 305.501 212.976L300.961 212.563C301.408 207.577 302.061 202.624 302.921 197.741C302.99 197.362 303.059 196.95 303.128 196.571C304.022 191.653 305.088 186.77 306.36 181.989L310.728 183.159L311.382 183.331L329.54 188.214L330.125 188.386C330.228 188.008 330.331 187.63 330.435 187.251C331.57 183.124 332.842 179.066 334.287 175.077C334.424 174.698 334.562 174.32 334.699 173.942C336.178 169.918 337.829 165.997 339.617 162.145C339.789 161.801 339.961 161.423 340.133 161.079C341.956 157.227 343.951 153.444 346.048 149.764L352.617 153.547L353.168 153.857C353.374 153.513 353.58 153.169 353.787 152.825C355.816 149.352 357.982 145.981 360.287 142.68C360.527 142.37 360.734 142.026 360.974 141.717C363.313 138.415 365.755 135.251 368.334 132.156C368.575 131.846 368.85 131.537 369.091 131.261C371.705 128.201 374.422 125.243 377.242 122.388L381.678 126.825Z" fill="#2B2B2B"/>
<path d="M644.637 243.894C644.259 248.159 643.708 252.389 642.986 256.585C642.917 256.963 642.849 257.376 642.78 257.754C642.023 261.984 641.095 266.146 640.028 270.238C639.925 270.617 639.822 270.995 639.719 271.408L632.325 269.413C632.428 269.035 632.531 268.656 632.634 268.244L632.084 268.106C631.981 268.484 631.878 268.863 631.774 269.275C630.708 273.196 629.505 277.013 628.163 280.797C628.026 281.175 627.888 281.553 627.751 281.931C626.341 285.715 624.827 289.429 623.142 293.074L617.433 290.426C618.087 289.051 618.671 287.675 619.29 286.265C620.184 284.133 621.044 281.966 621.835 279.765C621.973 279.387 622.11 279.008 622.248 278.63C623.555 275.019 624.69 271.339 625.687 267.625C625.79 267.246 625.893 266.868 625.997 266.455C626.96 262.741 627.785 258.992 628.473 255.209L634.663 256.31L635.248 256.413C635.317 256.035 635.386 255.622 635.454 255.244C636.142 251.254 636.658 247.265 637.002 243.206L644.637 243.894Z" fill="#2B2B2B"/>
<path d="M422.811 361.342L420.163 367.017C416.517 365.297 412.94 363.405 409.432 361.411C409.089 361.204 408.745 360.998 408.401 360.826C404.927 358.797 401.522 356.63 398.221 354.326C397.911 354.085 397.567 353.879 397.258 353.638C393.956 351.3 390.758 348.858 387.697 346.278C387.387 346.038 387.078 345.762 386.803 345.522C383.742 342.908 380.75 340.191 377.895 337.337C377.62 337.061 377.345 336.786 377.07 336.477L371.258 342.289C368.266 339.262 365.377 336.098 362.625 332.866L368.438 327.982L368.919 327.569C368.678 327.26 368.403 326.95 368.162 326.641C365.583 323.545 363.141 320.347 360.803 317.045C360.562 316.736 360.355 316.392 360.115 316.082C357.811 312.781 355.644 309.376 353.615 305.903C353.408 305.559 353.202 305.215 353.03 304.871L352.48 305.18L345.911 308.963C343.779 305.283 341.818 301.5 339.996 297.614L346.908 294.416L347.459 294.175C347.287 293.831 347.115 293.453 346.943 293.109C345.258 289.463 343.71 285.749 342.334 281.966L348.25 279.799C349.041 281.966 349.9 284.133 350.829 286.299C351.414 287.709 352.033 289.085 352.686 290.461C352.858 290.839 353.03 291.183 353.202 291.527C354.853 295 356.607 298.44 358.498 301.776C358.705 302.119 358.911 302.463 359.083 302.807C361.009 306.143 363.072 309.376 365.274 312.54C365.514 312.85 365.721 313.194 365.961 313.503C368.162 316.633 370.535 319.694 372.977 322.651C373.218 322.961 373.493 323.27 373.734 323.58C376.21 326.503 378.824 329.323 381.541 332.075C381.713 332.247 381.885 332.419 382.057 332.59C382.16 332.694 382.263 332.797 382.366 332.9C385.118 335.617 387.938 338.231 390.861 340.707C391.17 340.948 391.48 341.223 391.755 341.464C394.713 343.94 397.774 346.278 400.903 348.514C401.213 348.755 401.557 348.961 401.866 349.202C405.03 351.403 408.263 353.466 411.599 355.427C411.943 355.633 412.287 355.839 412.631 356.011C415.933 357.903 419.337 359.691 422.811 361.342Z" fill="#2B2B2B"/>
<path d="M509.684 372.623C505.935 373.276 502.152 373.757 498.3 374.136C497.888 374.17 497.509 374.205 497.097 374.239C493.314 374.548 489.462 374.72 485.61 374.72C485.403 374.72 485.197 374.72 485.025 374.72C484.853 374.72 484.612 374.72 484.44 374.72C480.589 374.72 476.737 374.548 472.954 374.239C472.541 374.205 472.163 374.17 471.75 374.136C467.898 373.792 464.115 373.276 460.366 372.623L462.464 360.757L462.567 360.241C462.189 360.173 461.776 360.104 461.398 360.035C457.959 359.416 454.588 358.659 451.252 357.8C450.874 357.697 450.496 357.593 450.118 357.49C446.747 356.562 443.446 355.53 440.213 354.361C439.834 354.223 439.456 354.085 439.078 353.948C435.811 352.744 432.612 351.403 429.483 349.958C429.104 349.786 428.76 349.614 428.416 349.442C425.287 347.964 422.191 346.347 419.199 344.628C418.855 344.421 418.512 344.215 418.168 344.043C415.176 342.289 412.252 340.432 409.432 338.437L416.861 327.844C419.406 329.633 421.985 331.284 424.668 332.831C425.012 333.038 425.356 333.244 425.699 333.416C428.382 334.964 431.133 336.374 433.919 337.715C434.263 337.887 434.641 338.059 434.985 338.231C437.805 339.538 440.66 340.707 443.549 341.773C443.927 341.911 444.305 342.048 444.684 342.186C447.573 343.218 450.53 344.146 453.522 344.972C453.901 345.075 454.279 345.178 454.657 345.281C457.649 346.072 460.641 346.726 463.702 347.276C464.081 347.345 464.493 347.413 464.872 347.482C467.898 347.998 470.959 348.411 474.054 348.686L472.919 361.652L472.885 362.133C473.298 362.167 473.676 362.202 474.089 362.236C477.528 362.511 481.001 362.683 484.509 362.683C484.716 362.683 484.922 362.683 485.094 362.683C485.266 362.683 485.507 362.683 485.679 362.683C489.186 362.683 492.66 362.511 496.099 362.236C496.512 362.202 496.89 362.167 497.303 362.133C500.777 361.824 504.25 361.376 507.655 360.792L509.684 372.623Z" fill="#2B2B2B"/>
<path d="M597.589 185.704C598.518 188.352 599.377 191.069 600.134 193.854L595.079 195.196C594.356 192.582 593.565 190.003 592.671 187.492C592.534 187.114 592.396 186.735 592.258 186.357C591.33 183.812 590.298 181.336 589.198 178.894C589.026 178.516 588.854 178.172 588.682 177.828L593.393 175.661C592.19 173.082 590.883 170.571 589.473 168.095L589.851 167.889L596.282 164.209L596.695 163.968C598.208 166.651 599.618 169.368 600.925 172.188L600.512 172.394C600.684 172.738 600.856 173.116 601.028 173.46C602.301 176.246 603.47 179.066 604.536 181.989L597.555 184.5L597.176 184.637C597.348 184.947 597.486 185.325 597.589 185.704Z" fill="#2B2B2B"/>
<path d="M567.703 110.248L560.824 120.084C557.97 118.089 555.047 116.232 552.055 114.478C551.711 114.272 551.367 114.066 551.023 113.894C547.996 112.174 544.935 110.558 541.806 109.079C541.462 108.907 541.084 108.735 540.74 108.563C537.576 107.118 534.377 105.777 531.11 104.573L535.203 93.2586L535.409 92.7427C535.031 92.6051 534.652 92.4676 534.274 92.33C530.663 91.0231 526.983 89.8882 523.303 88.8908C522.925 88.7876 522.546 88.6845 522.168 88.5813C518.454 87.6183 514.705 86.7585 510.922 86.1051C510.544 86.0363 510.131 85.9675 509.753 85.8987L509.65 86.449C505.901 85.7956 502.118 85.3141 498.3 84.9702L498.335 84.4199L498.885 78.1262C502.909 78.5045 506.898 79.0204 510.853 79.7082C511.232 79.777 511.644 79.8458 512.023 79.9146C516.012 80.6368 519.933 81.4966 523.785 82.5284C524.163 82.6315 524.541 82.7347 524.919 82.8379C528.806 83.904 532.658 85.1077 536.406 86.449C536.785 86.5866 537.163 86.7241 537.541 86.8617C541.324 88.2718 545.039 89.785 548.684 91.4702L546.036 97.1792L545.795 97.6951C546.174 97.8671 546.517 98.039 546.861 98.211C550.335 99.8274 553.705 101.616 557.007 103.507C557.351 103.714 557.695 103.886 558.039 104.092C561.34 106.018 564.573 108.081 567.703 110.248Z" fill="#2B2B2B"/>
<path d="M372.461 189.005C371.43 191.894 370.501 194.852 369.676 197.809C369.572 198.188 369.469 198.566 369.366 198.944C368.575 201.902 367.922 204.929 367.371 207.955C367.303 208.333 367.234 208.746 367.165 209.124C366.649 212.151 366.236 215.212 365.961 218.272C365.927 218.685 365.893 219.064 365.858 219.476C365.617 222.537 365.48 225.632 365.445 228.728H351.964C351.964 229.003 351.964 229.243 351.964 229.519V229.931C351.964 233.439 352.136 236.913 352.411 240.352C352.445 240.765 352.48 241.143 352.514 241.556C352.824 245.029 353.271 248.468 353.855 251.908L341.99 254.005C341.337 250.257 340.855 246.474 340.511 242.622C340.477 242.209 340.443 241.831 340.408 241.418C340.099 237.635 339.927 233.818 339.927 229.966C339.927 229.828 339.927 229.691 339.927 229.553C339.927 229.278 339.927 229.037 339.927 228.762C339.961 224.91 340.133 221.093 340.443 217.31L352.48 218.376L352.961 218.41C352.996 217.997 353.03 217.619 353.064 217.206C353.374 213.733 353.855 210.294 354.44 206.923C354.509 206.545 354.578 206.132 354.646 205.754C355.265 202.315 356.022 198.944 356.916 195.643C357.019 195.264 357.123 194.886 357.226 194.508C358.154 191.137 359.186 187.87 360.355 184.603L372.461 189.005Z" fill="#2B2B2B"/>
<path d="M386.802 161.285C385.049 163.83 383.363 166.41 381.816 169.058L370.604 162.592C372.358 159.6 374.215 156.711 376.21 153.857L386.802 161.285Z" fill="#2B2B2B"/>
<path d="M400.147 145.293C397.98 147.494 395.882 149.764 393.887 152.103L383.982 143.78C386.218 141.132 388.557 138.587 390.998 136.145L400.147 145.293Z" fill="#2B2B2B"/>
<path d="M484.441 96.9385V109.939C481.345 109.939 478.285 110.076 475.224 110.317C474.811 110.351 474.433 110.386 474.02 110.42C470.959 110.695 467.898 111.108 464.872 111.589C464.493 111.658 464.081 111.727 463.702 111.796C460.676 112.346 457.649 112.999 454.692 113.79C454.313 113.894 453.935 113.997 453.557 114.1C450.599 114.891 447.641 115.82 444.753 116.851C444.374 116.989 443.996 117.126 443.618 117.264C440.729 118.33 437.874 119.499 435.089 120.806L429.62 109.079L429.379 108.563C429.036 108.735 428.657 108.907 428.313 109.079C425.184 110.558 422.088 112.174 419.096 113.894C418.752 114.1 418.409 114.306 418.065 114.478C415.073 116.232 412.149 118.089 409.295 120.084C408.985 120.325 408.641 120.531 408.332 120.772C405.512 122.767 402.76 124.865 400.078 127.1L392.374 117.883C395.297 115.441 398.324 113.103 401.453 110.901C401.763 110.661 402.107 110.454 402.416 110.214C405.546 108.047 408.779 105.983 412.08 104.058C412.424 103.851 412.768 103.645 413.112 103.473C416.414 101.581 419.819 99.793 423.258 98.1766C423.602 98.0046 423.98 97.8326 424.324 97.6607C427.763 96.0443 431.305 94.5998 434.917 93.2585L439.009 104.573L439.181 105.089C439.559 104.952 439.938 104.814 440.316 104.677C443.549 103.507 446.85 102.476 450.186 101.547C450.565 101.444 450.943 101.341 451.321 101.237C454.657 100.343 458.028 99.621 461.433 99.002C461.811 98.9332 462.224 98.8644 462.602 98.7956C465.972 98.211 469.411 97.7639 472.885 97.4543C473.298 97.4199 473.676 97.3855 474.089 97.3512C477.493 97.076 480.967 96.9385 484.441 96.9385Z" fill="#2B2B2B"/>
<path d="M644.603 214.764L636.968 215.418C636.589 211.394 636.074 207.37 635.386 203.381C635.317 203.002 635.248 202.59 635.179 202.211C634.457 198.222 633.597 194.301 632.531 190.381C632.428 190.002 632.325 189.624 632.222 189.246L631.671 189.383L625.584 191C624.587 187.285 623.417 183.64 622.111 180.029C621.973 179.65 621.835 179.272 621.698 178.894C620.941 176.83 620.116 174.801 619.256 172.772C618.603 171.259 617.949 169.746 617.261 168.267C617.089 167.889 616.917 167.545 616.745 167.201C615.095 163.727 613.341 160.322 611.415 156.986C611.208 156.642 611.002 156.299 610.83 155.955C608.904 152.653 606.806 149.42 604.64 146.256C604.399 145.947 604.192 145.603 603.952 145.293C601.716 142.164 599.378 139.137 596.901 136.179L601.682 132.156C604.261 135.251 606.703 138.415 609.042 141.716C609.282 142.026 609.489 142.37 609.729 142.679C612.034 145.981 614.2 149.351 616.23 152.825C616.436 153.169 616.642 153.513 616.814 153.857C618.809 157.33 620.7 160.907 622.42 164.553C622.592 164.896 622.764 165.275 622.936 165.619C624.621 169.264 626.169 172.978 627.579 176.762C627.716 177.14 627.854 177.518 627.991 177.896L628.542 177.69L635.695 175.076C637.14 179.066 638.447 183.124 639.547 187.251C639.65 187.629 639.753 188.008 639.857 188.386C640.957 192.479 641.886 196.64 642.642 200.87C642.711 201.248 642.78 201.661 642.849 202.039C643.674 206.27 644.224 210.5 644.603 214.764Z" fill="#2B2B2B"/>
<path d="M613.031 264.254C612.137 267.625 611.071 270.926 609.902 274.159L597.727 269.722C598.759 266.834 599.687 263.876 600.478 260.884L613.031 264.254Z" fill="#2B2B2B"/>
<path d="M605.018 285.955C603.539 289.085 601.957 292.18 600.238 295.172L589.026 288.707C590.574 286.024 591.984 283.273 593.29 280.487L605.018 285.955Z" fill="#2B2B2B"/>
<path d="M593.359 305.937C591.365 308.757 589.267 311.508 587.031 314.191L577.126 305.868C579.121 303.495 580.978 301.053 582.767 298.543L593.359 305.937Z" fill="#2B2B2B"/>
<path d="M497.234 362.099C496.822 362.133 496.443 362.167 496.031 362.202L495.996 361.72L494.861 348.755L494.827 348.307L494.174 340.913L494.139 340.501L493.692 335.307L493.658 334.929C494.07 334.895 494.449 334.86 494.861 334.826L494.896 335.239L495.343 340.432L495.377 340.844L496.031 348.239L496.065 348.686L497.2 361.651L497.234 362.099Z" fill="#2B2B2B"/>
<path d="M536.544 372.588C532.761 373.964 528.909 375.167 525.023 376.234L523.407 370.146C527.121 369.149 530.801 367.98 534.412 366.673L536.544 372.588Z" fill="#2B2B2B"/>
<path d="M529.907 354.326C526.674 355.495 523.338 356.561 520.002 357.456L516.631 344.937C519.623 344.112 522.581 343.183 525.47 342.151L529.907 354.326Z" fill="#2B2B2B"/>
<path d="M459.163 86.1051C455.38 86.7929 451.631 87.6183 447.917 88.5813L446.3 82.4939L446.128 81.9437C445.75 82.0469 445.372 82.15 444.993 82.2532C441.107 83.3194 437.255 84.5231 433.438 85.8987C433.059 86.0363 432.681 86.1739 432.303 86.3114C430.067 87.1368 427.832 88.031 425.596 88.9596C424.083 89.613 422.604 90.2665 421.091 90.9543L417.893 84.0416C421.744 82.2532 425.665 80.6024 429.689 79.158C430.067 79.0204 430.446 78.8828 430.824 78.7453C434.813 77.3008 438.872 76.0283 442.999 74.8934C443.377 74.7902 443.755 74.687 444.133 74.5839C448.226 73.4833 452.387 72.5891 456.618 71.8325L457.959 79.3643L458.062 79.949L459.163 86.1051Z" fill="#2B2B2B"/>
<path d="M615.404 360.551C611.862 364.059 608.216 367.429 604.399 370.662L601.51 367.223L601.028 366.638L588.991 352.263L588.544 351.747L583.661 345.934L583.248 345.453C582.938 345.694 582.629 345.969 582.319 346.21C579.224 348.789 576.026 351.265 572.758 353.569C572.449 353.81 572.105 354.017 571.795 354.257C568.494 356.562 565.089 358.728 561.615 360.757C561.272 360.964 560.928 361.17 560.584 361.342C557.11 363.337 553.533 365.228 549.888 366.948L547.24 361.273C550.713 359.622 554.153 357.834 557.454 355.942C557.798 355.736 558.142 355.53 558.486 355.358L558.176 354.842L552.192 344.456C555.184 342.702 558.108 340.81 560.996 338.815L567.875 348.651L568.219 349.133C568.528 348.892 568.872 348.686 569.182 348.445C572.311 346.21 575.372 343.871 578.33 341.395C578.639 341.154 578.949 340.879 579.224 340.638C582.147 338.162 584.967 335.548 587.719 332.831C587.822 332.728 587.925 332.625 588.028 332.522C588.2 332.35 588.372 332.178 588.544 332.006C591.261 329.255 593.875 326.434 596.351 323.511C596.592 323.202 596.867 322.892 597.108 322.583C599.584 319.625 601.923 316.564 604.124 313.434L609.248 317.011C606.909 320.313 604.468 323.511 601.888 326.606C601.647 326.916 601.372 327.225 601.132 327.535C598.518 330.596 595.801 333.588 592.981 336.442C592.706 336.717 592.43 336.993 592.155 337.302L592.602 337.749L597.968 343.114L598.449 343.596L611.724 356.871L612.24 357.387L615.404 360.551Z" fill="#2B2B2B"/>
<path d="M427.557 146.222C427.213 146.462 426.903 146.669 426.594 146.91L426.353 146.566L424.014 143.264L423.774 142.886L420.816 138.656L420.541 138.277L416.311 132.259L416.035 131.846L408.607 121.253L408.297 120.806C408.607 120.566 408.951 120.359 409.26 120.118L409.57 120.565L416.998 131.158L417.308 131.571L421.538 137.589L421.813 137.968L424.771 142.198L425.012 142.576L427.35 145.878L427.557 146.222Z" fill="#2B2B2B"/>
<path d="M579.259 340.707C578.949 340.948 578.64 341.223 578.364 341.464L577.986 341.017L570.282 331.8L569.938 331.387L561.616 321.482L561.306 321.104L556.56 315.463L556.251 315.12L552.949 311.164L552.674 310.821C552.983 310.58 553.293 310.305 553.568 310.064L553.843 310.408L557.145 314.363L557.454 314.707L562.2 320.347L562.51 320.725L570.833 330.63L571.177 331.043L578.88 340.26L579.259 340.707Z" fill="#2B2B2B"/>
<path d="M615.713 386.001L603.986 372.003L603.504 371.419L600.616 367.98L600.134 367.395L588.097 353.019L587.65 352.503L582.766 346.691L582.354 346.21C582.663 345.969 582.973 345.694 583.282 345.453L583.695 345.934L588.578 351.747L589.025 352.263L601.063 366.638L601.544 367.223L604.433 370.662L604.914 371.247L615.713 386.001Z" fill="#2B2B2B"/>
<path d="M386.596 112.931C383.535 115.544 380.543 118.261 377.655 121.116L372.289 115.751L371.808 115.269C371.636 115.441 371.464 115.613 371.292 115.785C371.189 115.888 371.086 115.992 370.983 116.095C367.956 119.156 365.067 122.285 362.316 125.552C362.041 125.862 361.8 126.171 361.559 126.447C358.808 129.748 356.194 133.119 353.718 136.627L338.379 125.862L337.76 125.449C337.519 125.759 337.313 126.103 337.072 126.412C334.287 130.402 331.673 134.46 329.231 138.656L325.345 136.42C327.855 132.121 330.538 127.925 333.392 123.867C333.633 123.558 333.839 123.214 334.08 122.904C336.969 118.846 339.996 114.891 343.194 111.073L346.633 113.962L347.218 114.444C347.459 114.134 347.734 113.825 347.974 113.515C351.104 109.835 354.371 106.293 357.776 102.854C358.051 102.579 358.326 102.304 358.636 102.028C362.041 98.6237 365.617 95.3565 369.297 92.2612L381.334 106.637L381.747 107.153L386.596 112.931Z" fill="#2B2B2B"/>
<path d="M333.427 122.457L334.046 122.904C333.805 123.214 333.599 123.558 333.358 123.867L332.739 123.42L317.572 112.793L318.26 111.83L333.427 122.457Z" fill="#2B2B2B"/>
<path d="M360.975 141.751C360.734 142.06 360.528 142.404 360.287 142.714L359.771 142.336L353.58 138.002L353.03 137.624L337.657 126.859L337.038 126.447C337.279 126.137 337.485 125.793 337.726 125.484L338.345 125.896L353.684 136.661L354.234 137.039L360.424 141.373L360.975 141.751Z" fill="#2B2B2B"/>
<path d="M402.554 170.881C402.313 171.19 402.107 171.534 401.866 171.844L401.522 171.603L398.221 169.264L397.843 169.024L393.612 166.066L393.234 165.791L387.181 161.561L386.768 161.285L376.176 153.857L375.729 153.547L365.893 146.669L365.411 146.325C365.652 146.016 365.858 145.672 366.099 145.362L366.58 145.706L376.416 152.584L376.864 152.894L387.456 160.322L387.869 160.598L393.922 164.828L394.3 165.103L398.53 168.061L398.909 168.301L402.21 170.64L402.554 170.881Z" fill="#2B2B2B"/>
<path d="M658.669 293.177C656.95 297.889 655.024 302.463 652.96 306.969C652.788 307.312 652.616 307.691 652.444 308.035C650.312 312.54 648.008 316.977 645.532 321.275L641.645 319.04L640.992 318.662L624.725 309.273C626.857 305.558 628.817 301.741 630.64 297.855L647.664 305.799L648.317 306.109C648.489 305.765 648.661 305.387 648.833 305.043C649.659 303.289 650.45 301.5 651.206 299.712C652.341 297.029 653.407 294.312 654.405 291.595L658.669 293.177Z" fill="#2B2B2B"/>
<path d="M625.481 266.352L626.031 266.49C625.928 266.868 625.825 267.246 625.722 267.659L625.172 267.521L613.547 264.392L613.031 264.254L600.513 260.884L600.066 260.746L592.912 258.82L592.499 258.717L587.513 257.376L587.1 257.273L583.145 256.207L582.767 256.103L575.2 254.074L574.856 253.971L570.489 252.802L570.145 252.699L567.221 251.908L566.912 251.839L560.515 250.119L560.206 250.05C560.309 249.672 560.412 249.294 560.515 248.881L560.825 248.95L567.256 250.669L567.565 250.738L570.489 251.529L570.833 251.632L575.2 252.802L575.544 252.905L583.11 254.934L583.489 255.037L587.444 256.103L587.857 256.207L592.878 257.548L593.29 257.651L600.444 259.577L600.891 259.714L613.41 263.085L613.925 263.222L625.481 266.352Z" fill="#2B2B2B"/>
<path d="M682.262 281.553L681.952 282.723L664.275 277.977L663.587 277.805L659.219 276.635L658.532 276.463L640.373 271.58L639.788 271.408C639.891 271.029 639.994 270.651 640.098 270.238L640.682 270.41L658.841 275.294L659.495 275.466L663.897 276.635L664.585 276.807L682.262 281.553Z" fill="#2B2B2B"/>
<path d="M630.227 229.553C630.227 229.69 630.227 229.828 630.227 229.966C630.227 233.817 630.055 237.635 629.746 241.418C629.711 241.831 629.677 242.209 629.643 242.622C629.299 246.474 628.817 250.257 628.164 254.005L616.299 251.908L615.817 251.804L603.023 249.534C603.539 246.508 603.918 243.447 604.193 240.352L617.158 241.487L617.64 241.521C617.674 241.109 617.709 240.73 617.743 240.318C618.018 236.878 618.156 233.405 618.19 229.897V229.484C618.19 229.209 618.19 228.968 618.19 228.693C618.156 225.185 618.018 221.712 617.743 218.272C617.709 217.86 617.674 217.481 617.64 217.069C617.33 213.595 616.883 210.156 616.299 206.751L628.164 204.653C628.817 208.402 629.333 212.185 629.677 216.037C629.711 216.45 629.746 216.828 629.78 217.241C630.09 221.024 630.262 224.841 630.296 228.693C630.227 229.003 630.227 229.278 630.227 229.553Z" fill="#2B2B2B"/>
<path d="M669.95 229.553C669.95 229.691 669.95 229.828 669.95 229.966C669.95 234.987 669.743 239.974 669.33 244.892L664.791 244.479C665.203 239.664 665.375 234.815 665.41 229.966C665.41 229.828 665.41 229.691 665.41 229.553C665.41 229.278 665.41 229.037 665.41 228.762C665.375 223.878 665.169 219.029 664.791 214.249C664.756 213.836 664.722 213.458 664.688 213.045L664.034 213.114L645.291 214.765C644.912 210.5 644.328 206.235 643.605 202.04L662.143 198.772L662.83 198.669L667.301 197.878C668.161 202.762 668.815 207.68 669.262 212.701C669.296 213.114 669.33 213.492 669.365 213.905C669.778 218.823 670.018 223.81 670.018 228.831C669.949 229.003 669.95 229.278 669.95 229.553Z" fill="#2B2B2B"/>
<path d="M337.382 268.278L330.022 270.238C328.956 266.146 328.027 261.984 327.271 257.754C327.202 257.376 327.133 256.963 327.064 256.585C326.342 252.423 325.792 248.159 325.413 243.894C325.379 243.482 325.345 243.103 325.31 242.691L324.726 242.725L305.948 244.376C305.535 239.595 305.363 234.78 305.329 229.897H324.76C324.76 229.759 324.76 229.622 324.76 229.484C324.76 229.209 324.76 228.968 324.76 228.693C324.794 224.394 324.966 220.13 325.345 215.899L332.98 216.553L333.53 216.587C333.186 220.577 333.014 224.601 332.98 228.659C332.98 228.934 332.98 229.175 332.98 229.45C332.98 229.587 332.98 229.725 332.98 229.862C332.98 233.921 333.152 237.945 333.495 241.934L332.945 241.968C332.98 242.381 333.014 242.759 333.048 243.172C333.392 247.196 333.908 251.22 334.596 255.209C334.665 255.587 334.734 256 334.802 256.378C335.49 260.437 336.35 264.357 337.382 268.278Z" fill="#2B2B2B"/>
<path d="M370.019 260.781L369.572 260.918L357.054 264.288L356.538 264.426L344.913 267.556L344.363 267.693L338.276 269.31L337.726 269.447L330.366 271.442L329.781 271.614L311.622 276.498L310.934 276.67L306.567 277.839L305.879 278.011L288.133 282.722L287.823 281.553L305.535 276.807L306.223 276.635L310.591 275.466L311.244 275.294L329.403 270.41L329.987 270.238L337.347 268.278L337.898 268.14L343.985 266.524L344.535 266.386L356.16 263.257L356.675 263.119L369.194 259.749L369.641 259.611C369.813 259.99 369.916 260.402 370.019 260.781Z" fill="#2B2B2B"/>
<path d="M572.208 169.024L571.83 169.299L568.528 171.637L568.184 171.878C567.944 171.569 567.737 171.225 567.497 170.915L567.84 170.674L571.142 168.336L571.52 168.095C571.761 168.37 572.002 168.68 572.208 169.024Z" fill="#2B2B2B"/>
<path d="M603.986 145.328C604.227 145.637 604.433 145.981 604.674 146.291L604.192 146.635L594.356 153.513L593.909 153.822L583.317 161.251L582.904 161.561L576.885 165.791L576.507 166.066C576.266 165.756 576.06 165.412 575.819 165.103L576.198 164.828L582.216 160.598L582.629 160.322L593.222 152.894L593.669 152.584L603.505 145.706L603.986 145.328Z" fill="#2B2B2B"/>
<path d="M652.479 112.793L637.312 123.42L636.693 123.867L633.013 126.447L632.394 126.859L617.021 137.624L616.471 138.002L610.246 142.336L609.73 142.714C609.489 142.404 609.283 142.06 609.042 141.751L609.558 141.373L615.748 137.039L616.299 136.661L631.637 125.896L632.256 125.484L635.936 122.904L636.59 122.457L651.756 111.83L652.479 112.793Z" fill="#2B2B2B"/>
<path d="M392.168 360.895L381.403 376.234L380.991 376.853L378.411 380.533C374.353 377.644 370.398 374.617 366.581 371.419C366.271 371.178 365.962 370.903 365.686 370.662C361.869 367.429 358.223 364.059 354.681 360.551C354.406 360.276 354.131 360.001 353.856 359.691C350.348 356.149 346.977 352.469 343.744 348.686C343.504 348.376 343.229 348.067 342.988 347.757C339.789 343.94 336.763 339.985 333.874 335.892L337.554 333.313C340.34 337.268 343.297 341.12 346.427 344.868C346.668 345.178 346.943 345.487 347.184 345.797C350.313 349.477 353.58 353.054 357.02 356.527C357.192 356.699 357.364 356.871 357.536 357.043C357.639 357.146 357.742 357.249 357.845 357.353C361.284 360.792 364.861 364.093 368.575 367.223C368.885 367.464 369.194 367.739 369.504 367.98L369.985 367.395L382.022 353.019C385.29 355.805 388.694 358.419 392.168 360.895Z" fill="#2B2B2B"/>
<path d="M408.435 360.826C408.779 361.032 409.123 361.239 409.467 361.411L409.157 361.961L405.374 368.53L405.03 369.08L395.642 385.347L395.263 386.001L393.028 389.887L392.649 390.54L383.536 406.292L382.504 405.707L391.618 389.921L391.996 389.268L394.232 385.382L394.61 384.728L403.999 368.461L404.308 367.911L408.091 361.342L408.435 360.826Z" fill="#2B2B2B"/>
<path d="M419.165 344.593L418.89 345.075L412.872 355.461L412.562 355.977C412.218 355.771 411.874 355.564 411.53 355.392L411.84 354.876L417.824 344.49L418.099 344.009C418.477 344.215 418.821 344.421 419.165 344.593Z" fill="#2B2B2B"/>
<path d="M590.471 77.7135L587.891 81.3934L587.479 82.0125L576.714 97.3856L576.336 97.9358L572.002 104.161C568.701 101.856 565.262 99.6898 561.788 97.6607L565.571 91.0919L565.915 90.5072L575.304 74.2743L575.682 73.6209L577.918 69.7346C582.217 72.1764 586.413 74.859 590.471 77.7135Z" fill="#2B2B2B"/>
<path d="M456.48 387.858L453.213 406.395C448.432 405.535 443.686 404.469 439.043 403.265C438.665 403.162 438.287 403.059 437.908 402.956C433.231 401.683 428.623 400.205 424.083 398.588L430.514 380.911L430.721 380.326L433.334 373.173L433.541 372.622L435.707 366.707C439.319 368.014 442.998 369.183 446.713 370.181L445.096 376.268L444.924 376.818L442.964 384.178L442.792 384.763C443.17 384.866 443.549 384.969 443.927 385.072C448.054 386.173 452.25 387.101 456.48 387.858Z" fill="#2B2B2B"/>
<path d="M510.888 86.105L510.784 86.6553L503.837 126.997C503.459 126.928 503.046 126.859 502.668 126.79L509.615 86.4489L509.718 85.8987C510.097 85.9675 510.509 86.0362 510.888 86.105Z" fill="#2B2B2B"/>
<path d="M516.803 52.6763L513.536 71.2135L513.433 71.7981L512.092 79.3299L511.989 79.9145C511.61 79.8458 511.198 79.777 510.819 79.7082L510.922 79.1235L512.264 71.5918L512.367 71.0071L515.634 52.47C516.012 52.5388 516.391 52.6075 516.803 52.6763Z" fill="#2B2B2B"/>
<path d="M484.441 382.115V414.443C479.419 414.443 474.433 414.202 469.515 413.789L469.927 409.25L469.996 408.596L471.647 389.853L471.681 389.268L472.335 381.633C476.324 381.943 480.382 382.115 484.441 382.115Z" fill="#2B2B2B"/>
<path opacity="0.8" d="M485.025 339.022C545.502 339.022 594.528 289.995 594.528 229.518C594.528 169.041 545.502 120.015 485.025 120.015C424.548 120.015 375.522 169.041 375.522 229.518C375.522 289.995 424.548 339.022 485.025 339.022Z" fill="url(#paint0_radial_140_2942)"/>
<path d="M485.025 335.342C543.47 335.342 590.849 287.963 590.849 229.518C590.849 171.074 543.47 123.695 485.025 123.695C426.581 123.695 379.202 171.074 379.202 229.518C379.202 287.963 426.581 335.342 485.025 335.342Z" stroke="#121E5B" stroke-width="13.6404" stroke-miterlimit="10"/>
<path d="M485.025 335.342C543.47 335.342 590.849 287.963 590.849 229.518C590.849 171.074 543.47 123.695 485.025 123.695C426.581 123.695 379.202 171.074 379.202 229.518C379.202 287.963 426.581 335.342 485.025 335.342Z" stroke="#17236E" stroke-width="20.4606" stroke-miterlimit="10"/>
<path d="M485.025 335.342C543.47 335.342 590.849 287.963 590.849 229.518C590.849 171.074 543.47 123.695 485.025 123.695C426.581 123.695 379.202 171.074 379.202 229.518C379.202 287.963 426.581 335.342 485.025 335.342Z" stroke="#1D3091" stroke-width="13.6404" stroke-miterlimit="10"/>
<path d="M485.025 335.342C543.47 335.342 590.849 287.963 590.849 229.518C590.849 171.074 543.47 123.695 485.025 123.695C426.581 123.695 379.202 171.074 379.202 229.518C379.202 287.963 426.581 335.342 485.025 335.342Z" stroke="#33D9D4" stroke-width="6.8202" stroke-miterlimit="10"/>
<path d="M485.025 335.342C543.47 335.342 590.849 287.963 590.849 229.518C590.849 171.074 543.47 123.695 485.025 123.695C426.581 123.695 379.202 171.074 379.202 229.518C379.202 287.963 426.581 335.342 485.025 335.342Z" stroke="#53FEF9" stroke-width="3.4101" stroke-miterlimit="10"/>
<path d="M485.025 335.342C543.47 335.342 590.849 287.963 590.849 229.518C590.849 171.074 543.47 123.695 485.025 123.695C426.581 123.695 379.202 171.074 379.202 229.518C379.202 287.963 426.581 335.342 485.025 335.342Z" stroke="#2B2B2B" stroke-width="1.705" stroke-miterlimit="10"/>
<path d="M485.026 268.828C506.736 268.828 524.335 251.229 524.335 229.518C524.335 207.808 506.736 190.209 485.026 190.209C463.315 190.209 445.716 207.808 445.716 229.518C445.716 251.229 463.315 268.828 485.026 268.828Z" stroke="#283374" stroke-width="0.6334" stroke-miterlimit="10"/>
<path d="M485.025 274.331C509.775 274.331 529.838 254.268 529.838 229.518C529.838 204.769 509.775 184.706 485.025 184.706C460.276 184.706 440.213 204.769 440.213 229.518C440.213 254.268 460.276 274.331 485.025 274.331Z" stroke="#283374" stroke-width="0.7223" stroke-miterlimit="10"/>
<path d="M485.025 272.267C508.635 272.267 527.774 253.128 527.774 229.518C527.774 205.909 508.635 186.77 485.025 186.77C461.416 186.77 442.276 205.909 442.276 229.518C442.276 253.128 461.416 272.267 485.025 272.267Z" stroke="#283374" stroke-width="0.689" stroke-miterlimit="10"/>
<path d="M485.025 282.138C514.086 282.138 537.644 258.579 537.644 229.518C537.644 200.458 514.086 176.899 485.025 176.899C455.964 176.899 432.406 200.458 432.406 229.518C432.406 258.579 455.964 282.138 485.025 282.138Z" stroke="#283374" stroke-width="0.8476" stroke-miterlimit="10"/>
<path d="M485.025 289.498C518.151 289.498 545.004 262.644 545.004 229.518C545.004 196.393 518.151 169.539 485.025 169.539C451.899 169.539 425.046 196.393 425.046 229.518C425.046 262.644 451.899 289.498 485.025 289.498Z" stroke="#283374" stroke-width="0.9665" stroke-miterlimit="10"/>
<path d="M485.025 286.746C516.631 286.746 542.253 261.124 542.253 229.518C542.253 197.912 516.631 172.291 485.025 172.291C453.419 172.291 427.797 197.912 427.797 229.518C427.797 261.124 453.419 286.746 485.025 286.746Z" stroke="#283374" stroke-width="0.9219" stroke-miterlimit="10"/>
<path d="M485.025 295.413C521.418 295.413 550.92 265.911 550.92 229.518C550.92 193.126 521.418 163.624 485.025 163.624C448.633 163.624 419.131 193.126 419.131 229.518C419.131 265.911 448.633 295.413 485.025 295.413Z" stroke="#283374" stroke-width="1.062" stroke-miterlimit="10"/>
<path d="M485.026 304.664C526.528 304.664 560.172 271.02 560.172 229.518C560.172 188.016 526.528 154.372 485.026 154.372C443.524 154.372 409.88 188.016 409.88 229.518C409.88 271.02 443.524 304.664 485.026 304.664Z" stroke="#283374" stroke-width="1.211" stroke-miterlimit="10"/>
<path d="M485.025 301.191C524.609 301.191 556.698 269.102 556.698 229.518C556.698 189.935 524.609 157.846 485.025 157.846C445.442 157.846 413.353 189.935 413.353 229.518C413.353 269.102 445.442 301.191 485.025 301.191Z" stroke="#283374" stroke-width="1.1551" stroke-miterlimit="10"/>
<path d="M543.983 288.501C576.552 255.932 576.552 203.127 543.983 170.557C511.413 137.988 458.608 137.988 426.038 170.557C393.469 203.127 393.469 255.932 426.038 288.501C458.608 321.071 511.413 321.071 543.983 288.501Z" stroke="#283374" stroke-width="1.3437" stroke-miterlimit="10"/>
<path d="M485.025 324.611C537.544 324.611 580.118 282.037 580.118 229.518C580.118 177 537.544 134.425 485.025 134.425C432.507 134.425 389.932 177 389.932 229.518C389.932 282.037 432.507 324.611 485.025 324.611Z" stroke="#283374" stroke-width="1.5322" stroke-miterlimit="10"/>
<path d="M549.138 293.657C584.555 258.24 584.555 200.818 549.138 165.402C513.721 129.985 456.3 129.985 420.883 165.402C385.466 200.818 385.466 258.24 420.883 293.657C456.3 329.074 513.721 329.074 549.138 293.657Z" stroke="#283374" stroke-width="1.4615" stroke-miterlimit="10"/>
<g clip-path="url(#clip0_140_2942)">
<path d="M455.194 249.369C454.783 250.982 453.422 251.393 452.219 250.255L428.415 228.083C427.181 226.944 427.466 225.489 429.017 224.888L462.38 211.572C463.931 210.94 464.849 211.762 464.437 213.375L455.194 249.369Z" fill="white"/>
<path d="M435.537 270.466C434.271 271.573 432.973 271.098 432.688 269.454L426.168 233.396C425.883 231.752 426.643 231.34 427.845 232.479L450.478 253.607C451.712 254.746 451.681 256.581 450.383 257.656L435.537 270.466Z" fill="white"/>
<path d="M462.854 204.361C463.962 205.626 463.582 207.176 462 207.808L428.827 221.029C427.276 221.662 426.484 220.871 427.054 219.321L440.697 182.727C441.266 181.145 442.659 180.924 443.735 182.189L462.854 204.361Z" fill="white"/>
<path d="M428.099 264.33C428.384 265.974 427.909 266.164 426.991 264.773L414.108 244.909C413.19 243.518 413.285 241.272 414.266 239.912L420.027 232.226C421.04 230.898 422.085 231.151 422.401 232.795L428.099 264.33Z" fill="white"/>
<path d="M424.015 217.076C423.445 218.657 422.527 218.626 421.989 217.044L417.589 203.855C417.051 202.273 417.653 200.059 418.887 198.921L434.556 184.719C435.79 183.581 436.328 183.96 435.759 185.542L424.015 217.076Z" fill="white"/>
<path d="M419.9 222.168C420.438 223.75 420.059 226.153 419.046 227.482L414.519 233.523C413.506 234.851 412.842 234.598 413 232.922L415.184 211.983C415.342 210.307 415.944 210.244 416.45 211.857L419.9 222.168Z" fill="white"/>
<path d="M437.595 175.041C438.164 175.673 437.595 177.128 436.36 178.267L429.301 184.624C428.067 185.763 427.877 185.573 428.858 184.213L434.777 176.274C435.759 174.946 437.025 174.377 437.595 175.041Z" fill="white"/>
<path d="M482.068 286.407C481.214 287.862 479.757 287.893 478.808 286.533L460.385 259.743C459.436 258.352 460.037 257.087 461.683 256.928L498.718 253.101C500.396 252.943 501.06 253.955 500.206 255.41L482.068 286.407Z" fill="white"/>
<path d="M474.345 286.438C475.294 287.83 474.756 288.494 473.173 287.957L438.481 276.159C436.898 275.621 436.645 274.293 437.911 273.186L452.788 260.376C454.055 259.269 455.859 259.522 456.808 260.882L474.345 286.438Z" fill="white"/>
<path d="M499.51 246.87C500.618 248.136 500.143 249.306 498.465 249.496L460.892 253.386C459.214 253.544 458.202 252.374 458.613 250.761L468.014 214.198C468.426 212.585 469.66 212.3 470.768 213.565L499.51 246.87Z" fill="white"/>
<path d="M526.51 278.183C527.618 279.448 527.143 280.777 525.529 281.125L487.26 289.159C485.614 289.506 484.98 288.589 485.803 287.166L503.846 256.328C504.701 254.873 506.283 254.746 507.36 256.011L526.51 278.183Z" fill="white"/>
<path d="M464.975 298.774C463.488 299.565 461.272 299.312 460.006 298.204L442.28 282.516C441.014 281.409 441.298 280.935 442.881 281.473L473.269 291.784C474.851 292.321 474.946 293.397 473.459 294.188L464.975 298.774Z" fill="white"/>
<path d="M506.252 300.26C504.954 301.304 502.675 301.557 501.187 300.798L488.779 294.504C487.291 293.745 487.418 292.827 489.032 292.511L521.984 285.584C523.63 285.236 523.914 285.837 522.617 286.881L506.252 300.26Z" fill="white"/>
<path d="M471.717 301.019C470.04 300.956 469.881 300.229 471.369 299.438L478.016 295.896C479.504 295.105 481.91 295.073 483.398 295.832L493.084 300.766C494.571 301.526 494.413 302.095 492.767 302L471.717 301.019Z" fill="white"/>
<path d="M532.651 285.331C533.221 285.964 532.461 287.166 530.973 287.925L522.237 292.574C520.749 293.365 520.622 293.144 521.92 292.068L529.296 286.059C530.593 285.015 532.113 284.699 532.651 285.331Z" fill="white"/>
<path d="M510.589 246.459C509.038 247.092 508.088 246.269 508.531 244.656L517.806 208.631C518.217 207.018 519.578 206.607 520.781 207.745L544.585 229.917C545.819 231.056 545.534 232.511 543.983 233.112L510.589 246.459Z" fill="white"/>
<path d="M546.832 224.604C547.117 226.248 546.357 226.659 545.154 225.521L522.49 204.393C521.256 203.254 521.287 201.419 522.585 200.344L537.462 187.534C538.729 186.427 540.026 186.902 540.311 188.546L546.832 224.604Z" fill="white"/>
<path d="M532.303 275.273C531.733 276.855 530.34 277.076 529.264 275.811L510.145 253.639C509.037 252.374 509.417 250.824 511 250.191L544.173 236.97C545.724 236.338 546.515 237.129 545.945 238.678L532.303 275.273Z" fill="white"/>
<path d="M558.892 213.091C559.81 214.482 559.715 216.728 558.734 218.088L552.973 225.774C551.96 227.102 550.915 226.849 550.599 225.204L544.901 193.639C544.616 191.994 545.091 191.804 546.009 193.196L558.892 213.091Z" fill="white"/>
<path d="M555.379 254.145C555.917 255.727 555.315 257.941 554.081 259.079L538.412 273.281C537.178 274.388 536.639 274.04 537.209 272.458L548.953 240.924C549.523 239.343 550.441 239.374 550.979 240.956L555.379 254.145Z" fill="white"/>
<path d="M557.816 246.016C557.657 247.693 557.056 247.756 556.55 246.143L553.099 235.832C552.561 234.25 552.941 231.847 553.954 230.518L558.449 224.477C559.462 223.149 560.126 223.402 559.968 225.078L557.816 246.016Z" fill="white"/>
<path d="M538.254 281.694C537.241 283.022 535.975 283.592 535.437 282.959C534.867 282.327 535.437 280.872 536.671 279.733L543.73 273.344C544.964 272.205 545.154 272.395 544.173 273.755L538.254 281.694Z" fill="white"/>
<path d="M512.614 198.288C513.564 199.68 512.962 200.945 511.316 201.103L474.281 204.93C472.604 205.088 471.939 204.076 472.794 202.621L490.931 171.625C491.786 170.17 493.242 170.138 494.192 171.498L512.614 198.288Z" fill="white"/>
<path d="M520.211 197.592C518.945 198.699 517.14 198.446 516.191 197.086L498.655 171.593C497.705 170.201 498.243 169.537 499.826 170.075L534.55 181.873C536.133 182.41 536.386 183.739 535.12 184.846L520.211 197.592Z" fill="white"/>
<path d="M504.986 243.866C504.574 245.479 503.34 245.763 502.232 244.498L473.49 211.161C472.382 209.896 472.857 208.726 474.535 208.536L512.108 204.646C513.785 204.487 514.798 205.658 514.387 207.271L504.986 243.866Z" fill="white"/>
<path d="M469.122 201.672C468.267 203.127 466.684 203.254 465.608 201.989L446.489 179.817C445.382 178.552 445.856 177.223 447.471 176.875L485.708 168.841C487.354 168.494 487.987 169.411 487.164 170.834L469.122 201.672Z" fill="white"/>
<path d="M499.731 166.185C498.149 165.647 498.054 164.571 499.541 163.781L508.025 159.226C509.512 158.435 511.728 158.688 512.994 159.795L530.752 175.452C532.018 176.559 531.733 177.033 530.151 176.496L499.731 166.185Z" fill="white"/>
<path d="M451.016 172.447C449.37 172.795 449.085 172.194 450.383 171.15L466.748 157.771C468.046 156.727 470.325 156.474 471.813 157.234L484.221 163.496C485.709 164.255 485.582 165.141 483.968 165.489L451.016 172.447Z" fill="white"/>
<path d="M494.983 162.104C493.495 162.895 491.089 162.927 489.602 162.168L479.916 157.234C478.428 156.474 478.586 155.905 480.232 156L501.25 156.98C502.928 157.044 503.086 157.771 501.599 158.562L494.983 162.104Z" fill="white"/>
<path d="M443.704 171.909C442.406 172.953 440.887 173.301 440.349 172.669C439.779 172.036 440.539 170.834 442.026 170.075L450.763 165.425C452.251 164.635 452.377 164.856 451.079 165.932L443.704 171.909Z" fill="white"/>
<path d="M432.498 277.867C433.132 277.298 434.588 277.867 435.727 279.1L442.121 286.154C443.261 287.387 443.071 287.577 441.71 286.597L433.765 280.682C432.404 279.701 431.834 278.436 432.498 277.867Z" fill="white"/>
<path d="M542.875 182.853C543.508 182.284 544.711 183.043 545.471 184.529L550.124 193.259C550.915 194.746 550.694 194.872 549.617 193.575L543.603 186.206C542.559 184.941 542.242 183.422 542.875 182.853Z" fill="white"/>
<path d="M539.235 177.286C540.564 178.299 541.134 179.564 540.501 180.101C539.868 180.639 538.412 180.101 537.272 178.868L530.878 171.815C529.739 170.581 529.929 170.391 531.29 171.372L539.235 177.286Z" fill="white"/>
<path d="M429.365 271.763C430.41 273.059 430.758 274.578 430.125 275.115C429.492 275.685 428.289 274.925 427.529 273.439L422.876 264.709C422.085 263.223 422.306 263.096 423.382 264.393L429.365 271.763Z" fill="white"/>
</g>
<path d="M593 91L683.259 0H898V5.0316H685.648L600.486 90.8562L593 91Z" fill="url(#paint1_linear_140_2942)"/>
<path d="M586 327L692.066 432H957V427.019H694.423L593.497 327.141L586 327Z" fill="url(#paint2_linear_140_2942)"/>
<path d="M386 139L264.351 55H0V59.9894H262L378.519 138.857L386 139Z" fill="url(#paint3_linear_140_2942)"/>
<path d="M373 294L275.484 387H58V381.985H273.128L365.504 294.143L373 294Z" fill="url(#paint4_linear_140_2942)"/>
<defs>
<radialGradient id="paint0_radial_140_2942" cx="0" cy="0" r="1" gradientUnits="userSpaceOnUse" gradientTransform="translate(485.032 229.535) scale(109.498)">
<stop stop-color="#808080"/>
<stop offset="1"/>
</radialGradient>
<linearGradient id="paint1_linear_140_2942" x1="845.561" y1="-52.8726" x2="646.311" y2="144.756" gradientUnits="userSpaceOnUse">
<stop offset="1.02e-06" stop-color="#283374"/>
<stop offset="0.35" stop-color="#53FFFA"/>
<stop offset="0.65" stop-color="#53FFFA"/>
<stop offset="1" stop-color="#191919"/>
</linearGradient>
<linearGradient id="paint2_linear_140_2942" x1="892.02" y1="496.298" x2="655.964" y2="257.764" gradientUnits="userSpaceOnUse">
<stop offset="1.02e-06" stop-color="#1D3091"/>
<stop offset="0.35" stop-color="#53FFFA"/>
<stop offset="0.65" stop-color="#53FFFA"/>
<stop offset="1" stop-color="#283374"/>
</linearGradient>
<linearGradient id="paint3_linear_140_2942" x1="74.2598" y1="-19.2883" x2="309.35" y2="215.693" gradientUnits="userSpaceOnUse">
<stop offset="1.02e-06" stop-color="#1D3091"/>
<stop offset="0.35" stop-color="#4FFDFA"/>
<stop offset="0.65" stop-color="#53FEF9"/>
<stop offset="1" stop-color="#17236E"/>
</linearGradient>
<linearGradient id="paint4_linear_140_2942" x1="112.322" y1="441.543" x2="316.904" y2="237.706" gradientUnits="userSpaceOnUse">
<stop offset="1.02e-06" stop-color="#383838"/>
<stop offset="0.35" stop-color="#53FFFA"/>
<stop offset="0.65" stop-color="#53FFFA"/>
<stop offset="1" stop-color="#383838"/>
</linearGradient>
<clipPath id="clip0_140_2942">
<rect width="147" height="146" fill="white" transform="translate(413 156)"/>
</clipPath>
</defs>
</svg>
