<svg width="38" height="534" viewBox="0 0 38 534" fill="none" xmlns="http://www.w3.org/2000/svg">
<path fill-rule="evenodd" clip-rule="evenodd" d="M9.89872 486.551L9.89872 505.224L36.8095 505.224L36.8095 515.349L9.89872 515.349L9.89872 534L1.213 534L1.213 486.551L9.89872 486.551ZM9.14996 533.253L1.96177 533.253L1.96177 487.298L9.14995 487.298L9.14995 505.972L36.0607 505.972L36.0607 514.602L9.14995 514.602L9.14996 533.253ZM36.0607 423.178L25.0089 429.545L25.0089 448.98L36.0607 448.98L36.0607 457.498L1.96177 457.498L1.96177 427.617C1.96177 424.434 2.11901 421.385 3.69142 418.695C5.73556 415.198 9.62168 413.337 13.4853 413.337C17.8181 413.337 21.9301 415.642 23.7514 419.569C23.8563 419.795 23.9536 420.027 24.043 420.264L36.0607 413.337L36.0607 423.178ZM24.4023 419.194C22.4309 415.008 18.0484 412.59 13.4853 412.59C9.39687 412.59 5.24266 414.558 3.04465 418.318C1.3605 421.199 1.213 424.435 1.213 427.617L1.213 458.245L36.8095 458.245L36.8095 448.233L25.7576 448.233L25.7576 429.976L36.8095 423.61L36.8095 412.043L24.4023 419.194ZM10.4114 424.43C9.92605 425.629 9.89872 427.254 9.89872 428.984L9.89872 448.233L17.0719 448.233L17.0719 428.984C17.0719 427.254 17.0446 425.629 16.5593 424.43C16.3267 423.856 16.0016 423.417 15.5477 423.115C15.0921 422.812 14.4419 422.603 13.4853 422.603C12.5287 422.603 11.8785 422.812 11.423 423.115C10.9691 423.417 10.6439 423.856 10.4114 424.43ZM1.213 385.02L1.213 343.736L9.67409 343.736L9.67409 375.008L14.7807 375.008L14.7807 345.978L23.2418 345.978L23.2418 375.008L28.3484 375.008L28.3484 343.736L36.8095 343.736L36.8095 385.02L1.213 385.02ZM29.0972 344.483L36.0607 344.483L36.0607 384.273L1.96177 384.273L1.96176 344.483L8.92532 344.483L8.92532 375.755L15.5295 375.755L15.5295 346.725L22.493 346.725L22.493 375.755L29.0972 375.755L29.0972 344.483ZM1.19053 277.037L1.19053 267.137L36.8095 267.137L36.8095 276.551L14.4092 304.64L36.8095 304.64L36.8095 314.54L1.19053 314.54L1.19053 305.126L23.5908 277.037L1.19053 277.037ZM25.1436 276.29L1.9393 305.387L1.9393 313.793L36.0607 313.793L36.0607 305.387L12.8564 305.387L36.0607 276.29L36.0607 267.884L1.9393 267.884L1.9393 276.29L25.1436 276.29ZM1.21299 238.843L1.21299 215.455C1.21299 209.541 1.98898 203.271 4.59666 198.455C5.90679 196.036 7.68665 193.97 10.0711 192.512C12.4571 191.053 15.4058 190.229 19.0112 190.229C22.6113 190.229 25.5572 191.053 27.942 192.512C30.3252 193.97 32.1057 196.035 33.4172 198.455C36.0277 203.271 36.8095 209.54 36.8095 215.455L36.8095 238.843L1.21299 238.843ZM36.0607 238.096L36.0607 215.455C36.0607 203.708 32.9383 190.976 19.0112 190.976C5.06166 190.976 1.96176 203.708 1.96176 215.455L1.96176 238.096L36.0607 238.096ZM28.1237 228.83L28.1237 215.455C28.1237 212.084 27.845 208.227 26.5379 205.234C25.8895 203.75 25.0019 202.51 23.7992 201.641C22.6035 200.777 21.0461 200.241 18.9888 200.241C16.9375 200.241 15.3862 200.776 14.196 201.64C12.9986 202.509 12.1156 203.748 11.4712 205.233C10.1719 208.226 9.89871 212.083 9.89871 215.455L9.89871 228.83L28.1237 228.83ZM1.21299 163.393L1.21299 153.381L36.8095 153.381L36.8095 163.393L1.21299 163.393ZM36.0607 162.646L1.96176 162.646L1.96176 154.128L36.0607 154.128L36.0607 162.646ZM1.19052 86.7576L1.19052 76.8568L36.8095 76.8568L36.8095 86.2714L14.4092 114.36L36.8095 114.36L36.8095 124.261L1.19052 124.261L1.19052 114.846L23.5908 86.7576L1.19052 86.7576ZM25.1436 86.0103L1.93929 115.107L1.93929 123.514L36.0607 123.514L36.0607 115.107L12.8563 115.107L36.0607 86.0103L36.0607 77.6041L1.93929 77.6041L1.93929 86.0104L25.1436 86.0103ZM15.7241 22.9697L15.7241 1.06576e-05L33.7803 9.86831e-06L33.9695 0.467253C36.6642 7.12168 38 15.8289 38 23.0071C38 28.4618 36.8449 34.7266 33.9046 39.6555C30.943 44.6202 26.1578 48.2334 19.0112 48.2334C11.8539 48.2334 7.06306 44.6207 4.09833 39.6557C1.1551 34.7267 -2.20978e-05 28.4617 -2.23362e-05 23.0071C-2.26345e-05 16.1837 1.06736 9.24601 3.18151 2.75787L3.34969 2.24169L12.5798 2.24169L12.2117 3.24563C9.88286 9.59814 8.6857 16.2587 8.6857 23.0071C8.6857 26.0867 9.26005 29.9451 10.8584 33.0041C12.4388 36.0288 14.98 38.2206 18.9888 38.2206C23.0097 38.2206 25.5562 36.0278 27.139 33.0036C28.7399 29.9449 29.3143 26.0867 29.3143 23.0071C29.3143 20.5395 29.0903 16.0766 28.478 13.1242C28.4774 13.1215 28.4768 13.1188 28.4763 13.1161L27.7599 10.0128L23.8033 10.0128L23.8033 22.9697L15.7241 22.9697ZM28.3559 9.26562L29.2095 12.9644C29.8384 15.9906 30.063 20.5188 30.063 23.0071C30.063 29.3062 27.7269 38.9678 18.9888 38.9678C10.2731 38.9678 7.93693 29.3062 7.93693 23.0071C7.93693 16.4342 9.058 9.94411 11.2403 3.73613C11.328 3.48662 11.4174 3.23751 11.5086 2.98891L3.89358 2.98891C1.80451 9.40011 0.748746 16.2596 0.748747 23.0071C0.748747 33.7447 5.30875 47.4861 19.0112 47.4861C32.6912 47.4861 37.2512 33.7447 37.2512 23.0071C37.2512 15.901 35.9259 7.29293 33.2753 0.747235L16.4729 0.747235L16.4729 22.2225L23.0546 22.2225L23.0546 9.26562L28.3559 9.26562ZM13.4853 421.856C9.21734 421.856 9.14995 425.599 9.14995 428.984L9.14995 448.98L17.8207 448.98L17.8207 428.984C17.8207 425.599 17.7533 421.856 13.4853 421.856ZM28.8725 215.455C28.8725 208.685 27.7718 199.494 18.9888 199.494C10.2282 199.494 9.14994 208.685 9.14994 215.455L9.14994 229.577L28.8725 229.577L28.8725 215.455Z" fill="#53FFFA"/>
</svg>
