<svg width="167" height="37" viewBox="0 0 167 37" fill="none" xmlns="http://www.w3.org/2000/svg">
<g clip-path="url(#clip0_1401_8547)">
<path d="M52.134 5.78251C51.5226 3.51803 49.7291 1.7388 47.4057 1.0918C43.2887 0 26.6173 0 26.6173 0C26.6173 0 9.98658 0 5.8289 1.0918C3.54625 1.69836 1.71198 3.4776 1.10056 5.78251C0 9.9071 0 18.4798 0 18.4798C0 18.4798 0 27.0929 1.10056 31.2175C1.71198 33.482 3.50549 35.2612 5.8289 35.9082C9.98658 37 26.6173 37 26.6173 37C26.6173 37 43.2887 37 47.4057 35.9082C49.6883 35.3016 51.4818 33.5224 52.134 31.2175C53.2346 27.0929 53.2346 18.5202 53.2346 18.5202C53.2346 18.5202 53.2753 9.9071 52.134 5.78251Z" fill="#FF0000"/>
<path d="M21.3182 26.4055L35.1364 18.4798L21.3182 10.5541V26.4055Z" fill="#171717"/>
<path d="M77.2838 33.6437C76.224 32.9563 75.4903 31.8645 75.042 30.3683C74.5936 28.8721 74.3898 26.8907 74.3898 24.424V21.0678C74.3898 18.5607 74.6343 16.5792 75.1642 15.0426C75.6534 13.5465 76.4686 12.4142 77.5284 11.7268C78.5882 11.0393 80.0149 10.6754 81.7676 10.6754C83.4796 10.6754 84.8655 11.0393 85.9253 11.7268C86.9851 12.4142 87.7188 13.5465 88.2079 15.0426C88.6971 16.5388 88.9416 18.5202 88.9416 21.0273V24.3836C88.9416 26.8503 88.6971 28.8317 88.2487 30.3279C87.8003 31.824 87.0258 32.9159 85.966 33.6033C84.9062 34.2907 83.4796 34.6546 81.6861 34.6546C79.8111 34.6951 78.3436 34.3716 77.2838 33.6437ZM83.1943 30.0044C83.4796 29.2361 83.6426 28.023 83.6426 26.3246V19.0863C83.6426 17.4284 83.4796 16.2153 83.1943 15.447C82.9089 14.6787 82.379 14.3148 81.6453 14.3148C80.9524 14.3148 80.4225 14.7191 80.1371 15.447C79.8518 16.2153 79.6888 17.4284 79.6888 19.0863V26.3246C79.6888 28.023 79.8111 29.2765 80.0964 30.0044C80.3817 30.7727 80.8709 31.1366 81.6046 31.1366C82.4198 31.1366 82.9089 30.7727 83.1943 30.0044Z" fill="#171717"/>
<path d="M158.196 24.4644V25.6371C158.196 27.1333 158.236 28.2251 158.318 28.9934C158.399 29.7212 158.603 30.2874 158.888 30.6109C159.174 30.9344 159.581 31.1365 160.193 31.1365C160.967 31.1365 161.538 30.8535 161.823 30.2469C162.109 29.6404 162.272 28.6294 162.312 27.2141L166.837 27.4568C166.878 27.659 166.878 27.942 166.878 28.3059C166.878 30.4491 166.266 32.0262 165.125 33.118C163.984 34.2098 162.272 34.695 160.111 34.695C157.503 34.695 155.709 33.8863 154.649 32.2688C153.589 30.6513 153.1 28.1846 153.1 24.7879V20.7442C153.1 17.2666 153.63 14.7191 154.731 13.142C155.791 11.565 157.666 10.7562 160.274 10.7562C162.068 10.7562 163.454 11.0797 164.432 11.7267C165.41 12.3737 166.063 13.3846 166.47 14.7999C166.878 16.1748 167.082 18.1158 167.082 20.542V24.5049L158.196 24.4644ZM158.848 14.7191C158.603 15.0426 158.399 15.5682 158.318 16.3366C158.236 17.0644 158.196 18.1967 158.196 19.7333V21.3912H162.027V19.7333C162.027 18.2371 161.986 17.1049 161.864 16.3366C161.783 15.5682 161.579 15.0426 161.293 14.7191C161.049 14.3956 160.6 14.2338 160.071 14.2338C159.541 14.2338 159.133 14.3956 158.848 14.7191Z" fill="#171717"/>
<path d="M64.5255 24.0601L58.5336 2.62842H63.751L65.8299 12.3333C66.3598 14.7191 66.7674 16.7814 67.012 18.4393H67.175C67.3381 17.2262 67.7457 15.2044 68.3571 12.3738L70.5175 2.62842H75.7349L69.7022 24.0601V34.3312H64.5255V24.0601Z" fill="#171717"/>
<path d="M105.899 11.1606V34.3311H101.782L101.333 31.5005H101.211C100.11 33.6437 98.3984 34.6951 96.1973 34.6951C94.6483 34.6951 93.507 34.2098 92.7733 33.1989C92.0396 32.188 91.6727 30.6109 91.6727 28.4677V11.1606H96.931V28.1442C96.931 29.1956 97.0533 29.9235 97.2571 30.3683C97.5016 30.8131 97.8685 31.0153 98.3984 31.0153C98.8468 31.0153 99.2951 30.894 99.7028 30.6109C100.11 30.3279 100.436 29.9639 100.64 29.5595V11.1606H105.899Z" fill="#171717"/>
<path d="M132.883 11.1606V34.3311H128.766L128.317 31.5005H128.195C127.095 33.6437 125.383 34.6951 123.181 34.6951C121.632 34.6951 120.491 34.2098 119.757 33.1989C119.024 32.188 118.657 30.6109 118.657 28.4677V11.1606H123.915V28.1442C123.915 29.1956 124.037 29.9235 124.241 30.3683C124.486 30.8131 124.853 31.0153 125.383 31.0153C125.831 31.0153 126.279 30.894 126.687 30.6109C127.094 30.3279 127.421 29.9639 127.624 29.5595V11.1606H132.883Z" fill="#171717"/>
<path d="M120.206 6.83388H114.988V34.3312H109.852V6.83388H104.635V2.62842H120.206V6.83388Z" fill="#171717"/>
<path d="M150.247 14.8808C149.921 13.4251 149.432 12.3737 148.698 11.6863C148.005 11.0393 147.027 10.7158 145.763 10.7158C144.785 10.7158 143.888 10.9989 143.073 11.5245C142.217 12.0502 141.606 12.7781 141.116 13.6677H141.076V1.45569H136.021V34.3311H140.342L140.872 32.1475H140.994C141.402 32.9158 142.013 33.5628 142.828 34.0076C143.644 34.4524 144.54 34.695 145.519 34.695C147.312 34.695 148.617 33.8863 149.432 32.2688C150.247 30.6513 150.695 28.1038 150.695 24.6666V20.9868C150.736 18.3584 150.573 16.3366 150.247 14.8808ZM145.437 24.3027C145.437 26.001 145.356 27.295 145.233 28.2655C145.111 29.236 144.866 29.9234 144.54 30.3278C144.214 30.7322 143.766 30.9344 143.195 30.9344C142.747 30.9344 142.38 30.8535 141.972 30.6513C141.606 30.4491 141.32 30.1661 141.076 29.7617V16.5792C141.239 15.9322 141.565 15.4469 141.972 15.0426C142.38 14.6382 142.869 14.436 143.399 14.436C143.929 14.436 144.337 14.6382 144.622 15.0426C144.907 15.4469 145.111 16.1748 145.233 17.1453C145.356 18.1158 145.396 19.5311 145.396 21.3508L145.437 24.3027Z" fill="#171717"/>
</g>
<defs>
<clipPath id="clip0_1401_8547">
<rect width="167" height="37" fill="white"/>
</clipPath>
</defs>
</svg>
