<svg xmlns="http://www.w3.org/2000/svg" width="15.304" height="11.42" viewBox="0 0 15.304 11.42"><defs><style>.a{fill:#60e5ff;stroke:#60e5ff;stroke-width:0.2px;}</style></defs><g transform="translate(0.1 0.1)"><path class="a" d="M39.127,61.432h-.641a.216.216,0,0,1,0-.432h.641a.216.216,0,1,1,0,.432Z" transform="translate(-30.444 -50.212)"/><path class="a" d="M16.457,22.22H12.193a.216.216,0,1,1,0-.432h4.264a.216.216,0,0,0,.216-.216V12.942a.216.216,0,0,0-.216-.216H6.907a.645.645,0,0,1-.421-.156L5.217,11.483a.214.214,0,0,0-.14-.052H2.647a.216.216,0,0,0-.216.216v9.925a.216.216,0,0,0,.216.216H6.4a.216.216,0,1,1,0,.432H2.647A.647.647,0,0,1,2,21.573V11.647A.647.647,0,0,1,2.647,11h2.43a.645.645,0,0,1,.421.156l1.268,1.087a.214.214,0,0,0,.14.052h9.55a.647.647,0,0,1,.647.647v8.631A.647.647,0,0,1,16.457,22.22Z" transform="translate(-2 -11)"/><path class="a" d="M29.212,61.432h-.626a.216.216,0,1,1,0-.432h.626a.216.216,0,0,1,0,.432Z" transform="translate(-22.68 -50.212)"/><path class="a" d="M43.514,36.19a.216.216,0,0,1-.153-.367l1.078-1.079-1.078-1.078a.216.216,0,1,1,.305-.305l1.23,1.23a.216.216,0,0,1,0,.305l-1.23,1.23A.216.216,0,0,1,43.514,36.19Z" transform="translate(-34.387 -28.487)"/><path class="a" d="M24.451,36.193a.216.216,0,0,1-.151-.063L23.07,34.9a.216.216,0,0,1,0-.305l1.23-1.23a.216.216,0,1,1,.305.305l-1.079,1.077L24.6,35.826a.216.216,0,0,1-.153.367Z" transform="translate(-18.475 -28.49)"/><path class="a" d="M33.043,32.848a.209.209,0,0,1-.057-.008.216.216,0,0,1-.151-.265l1.369-5a.216.216,0,1,1,.416.114l-1.369,5A.216.216,0,0,1,33.043,32.848Z" transform="translate(-26.176 -23.876)"/></g></svg>