<?xml version="1.0" encoding="utf-8"?>
<!-- Generator: Adobe Illustrator 26.5.3, SVG Export Plug-In . SVG Version: 6.00 Build 0)  -->
<svg version="1.1" id="Layer_1" xmlns="http://www.w3.org/2000/svg" xmlns:xlink="http://www.w3.org/1999/xlink" x="0px" y="0px"
	 viewBox="0 0 240 50" style="enable-background:new 0 0 240 50;" xml:space="preserve">
<style type="text/css">
	.st0{fill:url(#SVGID_1_);}
	.st1{fill:url(#SVGID_00000150086216318250311000000013785121872532050076_);}
	.st2{fill:url(#SVGID_00000028305923489693287070000009703573874727540148_);}
	.st3{fill:url(#SVGID_00000127759071908107059730000008920806517962731924_);}
	.st4{fill:url(#SVGID_00000078011043153439367400000015945617183885919391_);}
	.st5{fill:url(#SVGID_00000034774573357968768930000016136363670732894867_);}
	.st6{fill:url(#SVGID_00000045608074295976738400000003587826019573856669_);}
	.st7{fill:url(#SVGID_00000122000198077208220800000017864067103533925307_);}
</style>
<linearGradient id="SVGID_1_" gradientUnits="userSpaceOnUse" x1="47.5965" y1="26.3457" x2="1.8209" y2="26.3457" gradientTransform="matrix(1 0 0 -1 0 50.9449)">
	<stop  offset="0" style="stop-color:#9E5BF1"/>
	<stop  offset="1" style="stop-color:#356FF4"/>
</linearGradient>
<path class="st0" d="M47.6,24.6L47.6,24.6c0-6.1-2.4-11.8-6.7-16.1c-4.3-4.3-10.1-6.7-16.2-6.7c-6.1,0-11.9,2.4-16.1,6.7
	c-4.3,4.3-6.7,10.1-6.7,16.1c0,6,2.4,11.8,6.7,16.1c4.3,4.3,10.1,6.7,16.1,6.7c6.1,0,11.9-2.4,16.2-6.7
	C45.2,36.5,47.6,30.7,47.6,24.6L47.6,24.6L47.6,24.6z M46.2,24.6c0,1.7-0.3,3.4-1,4.9h-7.8c1.4-0.6,2.7-1.4,3.7-2.6
	c1-1.1,1.7-2.5,2.1-3.9c0.4-1.5,0.4-3,0.1-4.5c-0.3-1.5-0.9-2.9-1.9-4c1.5,1.2,2.6,2.8,3.5,4.5C45.8,20.8,46.2,22.7,46.2,24.6
	L46.2,24.6z M35.7,22.1c0,0.5-0.2,1.1-0.5,1.5c-0.3,0.5-0.7,0.8-1.2,1c-0.5,0.2-1.1,0.3-1.6,0.2c-0.5-0.1-1-0.4-1.4-0.7
	c-0.4-0.4-0.6-0.9-0.8-1.4c-0.1-0.5-0.1-1.1,0.2-1.6c0.2-0.5,0.6-0.9,1-1.2c0.5-0.3,1-0.5,1.5-0.5c0.7,0,1.4,0.3,1.9,0.8
	C35.4,20.7,35.7,21.4,35.7,22.1z M28.8,22.1c0,1.1,0.4,2.1,1.2,2.9c0.8,0.8,1.8,1.2,2.9,1.2c0.4,0,0.8-0.1,1.2-0.2
	c-0.6,0.5-1.3,0.8-2.1,0.9c-0.8,0.1-1.6,0.1-2.3-0.2c-0.7-0.3-1.4-0.7-1.9-1.3c-0.5-0.6-0.9-1.3-1-2.1c-0.2-0.8-0.1-1.6,0.1-2.3
	c0.2-0.7,0.7-1.4,1.2-2c0.6-0.5,1.3-0.9,2-1.1c0.8-0.2,1.6-0.2,2.3,0c-1,0.1-1.9,0.6-2.6,1.4C29.2,20.2,28.9,21.1,28.8,22.1
	L28.8,22.1z M31.3,28.5c1.1,0,2.2-0.3,3.2-0.9s1.7-1.5,2.2-2.5c0.5-1,0.7-2.2,0.6-3.3c-0.1-1.1-0.6-2.2-1.3-3.1
	c-0.7-0.9-1.7-1.5-2.7-1.9c-1.1-0.4-2.2-0.4-3.3-0.2c-1.1,0.3-2.1,0.8-2.9,1.6c-0.8,0.8-1.4,1.8-1.6,2.9c0-0.2,0-0.4,0-0.6
	c0-1.6,0.5-3.3,1.4-4.6s2.2-2.4,3.8-3.1c1.5-0.6,3.2-0.8,4.8-0.5c1.6,0.3,3.1,1.1,4.3,2.3c1.2,1.2,2,2.7,2.3,4.3
	c0.3,1.6,0.2,3.3-0.5,4.8c-0.6,1.5-1.7,2.8-3.1,3.7c-1.4,0.9-3,1.4-4.6,1.4C33,28.9,32.1,28.7,31.3,28.5L31.3,28.5z M24,20.5
	c0,1.9,0.6,3.8,1.7,5.4c1.1,1.6,2.6,2.9,4.4,3.6h-9.2c-0.7-1.6-1-3.4-1-5.2c0-1.8,0.4-3.5,1.2-5.1c0.7-1.6,1.8-3.1,3.1-4.3
	c1.3-1.2,2.9-2.1,4.5-2.7c-1.4,0.9-2.6,2.1-3.4,3.5C24.4,17.2,24,18.9,24,20.5L24,20.5z M32.3,31v6.7c-2.2-0.1-4.4-0.8-6.3-2
	c-1.9-1.2-3.4-2.8-4.5-4.7H32.3z M33.7,31h10.8c-1.1,1.9-2.6,3.6-4.5,4.7c-1.9,1.2-4,1.9-6.3,2V31z M24.7,46c-3.8,0-7.6-1-10.9-2.9
	s-6-4.7-7.9-8c-1.9-3.3-2.8-7.1-2.7-10.9c0.1-3.8,1.2-7.5,3.2-10.8s4.8-5.9,8.2-7.7s7.2-2.6,11-2.5c3.8,0.2,7.5,1.3,10.7,3.4
	c3.2,2.1,5.8,5,7.5,8.4c-2-2.2-4.5-3.7-7.4-4.4c-2.9-0.7-5.9-0.5-8.6,0.5c-2.8,1-5.1,2.9-6.8,5.3c-1.7,2.4-2.6,5.3-2.6,8.2
	c0,2.9,0.9,5.8,2.5,8.2c1.7,2.4,4,4.3,6.8,5.4c2.7,1.1,5.7,1.3,8.6,0.6c2.9-0.7,5.5-2.2,7.4-4.4c-1.8,3.5-4.5,6.4-7.9,8.5
	C32.5,44.9,28.7,46,24.7,46z"/>
<linearGradient id="SVGID_00000064346031993138430670000006397878140522538416_" gradientUnits="userSpaceOnUse" x1="59.3806" y1="24.5594" x2="81.625" y2="24.5594">
	<stop  offset="0" style="stop-color:#9E5BF1"/>
	<stop  offset="1" style="stop-color:#356FF4"/>
</linearGradient>
<path style="fill:url(#SVGID_00000064346031993138430670000006397878140522538416_);" d="M77.2,32.9H63.8c-0.8,0-1.6-0.2-2.2-0.6
	c-0.7-0.4-1.2-0.9-1.6-1.6c-0.4-0.7-0.6-1.4-0.6-2.2v-7.7c0-0.8,0.2-1.6,0.6-2.2c0.4-0.7,1-1.2,1.6-1.6c0.7-0.4,1.4-0.6,2.2-0.6
	h13.3c0.8,0,1.6,0.2,2.2,0.6c0.7,0.4,1.2,0.9,1.6,1.6c0.4,0.7,0.6,1.4,0.6,2.2h-2.2c0-0.3,0-0.6-0.2-0.9c-0.1-0.3-0.3-0.5-0.5-0.7
	c-0.2-0.2-0.5-0.4-0.7-0.5c-0.3-0.1-0.6-0.2-0.9-0.2H63.8c-0.3,0-0.6,0-0.9,0.2c-0.3,0.1-0.5,0.3-0.7,0.5c-0.2,0.2-0.4,0.4-0.5,0.7
	c-0.1,0.3-0.2,0.6-0.2,0.9v7.8c0,0.3,0.1,0.6,0.2,0.9c0.1,0.3,0.3,0.5,0.5,0.7c0.2,0.2,0.5,0.4,0.7,0.5c0.3,0.1,0.6,0.2,0.9,0.2
	h13.3c0.3,0,0.6,0,0.9-0.2c0.3-0.1,0.5-0.3,0.7-0.5c0.2-0.2,0.4-0.5,0.5-0.7c0.1-0.3,0.2-0.6,0.2-0.9h2.2c0,0.8-0.2,1.5-0.6,2.2
	c-0.4,0.7-0.9,1.2-1.6,1.6C78.7,32.7,78,32.9,77.2,32.9z"/>
<linearGradient id="SVGID_00000142166510273253023190000002139672146511793840_" gradientUnits="userSpaceOnUse" x1="85.1677" y1="24.5654" x2="107.393" y2="24.5654">
	<stop  offset="0" style="stop-color:#9E5BF1"/>
	<stop  offset="1" style="stop-color:#356FF4"/>
</linearGradient>
<path style="fill:url(#SVGID_00000142166510273253023190000002139672146511793840_);" d="M107.4,32.9h-2.2v-7.2H87.4v7.2h-2.2V16.3
	h2.2v7.2h17.8v-7.2h2.2V32.9z"/>
<linearGradient id="SVGID_00000081648737298963480640000015745259366270181557_" gradientUnits="userSpaceOnUse" x1="111.568" y1="24.5654" x2="133.248" y2="24.5654">
	<stop  offset="0" style="stop-color:#9E5BF1"/>
	<stop  offset="1" style="stop-color:#356FF4"/>
</linearGradient>
<path style="fill:url(#SVGID_00000081648737298963480640000015745259366270181557_);" d="M133.2,32.9h-2.4l-3-5.5h-14.1v5.5h-2.2
	V16.3h17.2c0.8,0,1.6,0.2,2.2,0.6c0.7,0.4,1.2,0.9,1.6,1.6c0.4,0.7,0.6,1.4,0.6,2.2v2.2c0,0.9-0.3,1.9-0.9,2.6
	c-0.6,0.7-1.3,1.3-2.2,1.6L133.2,32.9z M128.8,25.1c0.3,0,0.6-0.1,0.9-0.2c0.3-0.1,0.5-0.3,0.7-0.5c0.2-0.2,0.4-0.5,0.5-0.7
	c0.1-0.3,0.2-0.6,0.2-0.9v-2.2c0-0.3,0-0.6-0.2-0.9c-0.1-0.3-0.3-0.5-0.5-0.7c-0.2-0.2-0.5-0.4-0.7-0.5c-0.3-0.1-0.6-0.2-0.9-0.2
	h-15v6.6H128.8z"/>
<linearGradient id="SVGID_00000024716588745303155590000016758487152060081305_" gradientUnits="userSpaceOnUse" x1="136.6519" y1="24.5593" x2="160.0421" y2="24.5593">
	<stop  offset="0" style="stop-color:#9E5BF1"/>
	<stop  offset="1" style="stop-color:#356FF4"/>
</linearGradient>
<path style="fill:url(#SVGID_00000024716588745303155590000016758487152060081305_);" d="M155.6,32.9h-14.5c-0.8,0-1.6-0.2-2.2-0.6
	c-0.7-0.4-1.2-0.9-1.6-1.6c-0.4-0.7-0.6-1.4-0.6-2.2v-7.7c0-0.8,0.2-1.6,0.6-2.2c0.4-0.7,0.9-1.2,1.6-1.6c0.7-0.4,1.4-0.6,2.2-0.6
	h14.5c0.8,0,1.6,0.2,2.2,0.6c0.7,0.4,1.2,0.9,1.6,1.6c0.4,0.7,0.6,1.4,0.6,2.2v7.8c0,0.8-0.2,1.6-0.6,2.2c-0.4,0.7-0.9,1.2-1.6,1.6
	C157.1,32.7,156.4,32.9,155.6,32.9z M155.6,30.7c0.3,0,0.6,0,0.9-0.2c0.3-0.1,0.5-0.3,0.7-0.5c0.2-0.2,0.4-0.5,0.5-0.7
	c0.1-0.3,0.2-0.6,0.2-0.9v-7.8c0-0.3,0-0.6-0.2-0.9c-0.1-0.3-0.3-0.5-0.5-0.7c-0.2-0.2-0.5-0.4-0.7-0.5c-0.3-0.1-0.6-0.2-0.9-0.2
	h-14.5c-0.3,0-0.6,0.1-0.9,0.2c-0.3,0.1-0.5,0.3-0.7,0.5c-0.2,0.2-0.4,0.5-0.5,0.7s-0.2,0.6-0.2,0.9v7.8c0,0.3,0.1,0.6,0.2,0.8
	c0.1,0.3,0.3,0.5,0.5,0.7c0.2,0.2,0.5,0.4,0.7,0.5c0.3,0.1,0.6,0.2,0.9,0.2H155.6z"/>
<linearGradient id="SVGID_00000002386294140192595400000007264804011023108785_" gradientUnits="userSpaceOnUse" x1="164.084" y1="24.5654" x2="186.31" y2="24.5654">
	<stop  offset="0" style="stop-color:#9E5BF1"/>
	<stop  offset="1" style="stop-color:#356FF4"/>
</linearGradient>
<path style="fill:url(#SVGID_00000002386294140192595400000007264804011023108785_);" d="M186.3,32.9h-2.2l-17.8-13.8v13.8h-2.2
	V16.3h2.2L184.1,30V16.3h2.2V32.9z"/>
<linearGradient id="SVGID_00000137112743482295353250000008609152526448564887_" gradientUnits="userSpaceOnUse" x1="190.3489" y1="24.5594" x2="213.7023" y2="24.5594">
	<stop  offset="0" style="stop-color:#9E5BF1"/>
	<stop  offset="1" style="stop-color:#356FF4"/>
</linearGradient>
<path style="fill:url(#SVGID_00000137112743482295353250000008609152526448564887_);" d="M209.3,32.9h-14.5c-0.8,0-1.6-0.2-2.2-0.6
	c-0.7-0.4-1.2-0.9-1.6-1.6c-0.4-0.7-0.6-1.4-0.6-2.2v-7.7c0-0.8,0.2-1.6,0.6-2.2c0.4-0.7,0.9-1.2,1.6-1.6c0.7-0.4,1.4-0.6,2.2-0.6
	h14.5c0.8,0,1.6,0.2,2.2,0.6c0.7,0.4,1.2,0.9,1.6,1.6c0.4,0.7,0.6,1.4,0.6,2.2v7.8c0,0.8-0.2,1.5-0.6,2.2c-0.4,0.7-0.9,1.2-1.6,1.6
	C210.8,32.7,210,32.9,209.3,32.9z M209.3,30.7c0.3,0,0.6,0,0.9-0.2c0.3-0.1,0.5-0.3,0.7-0.5c0.2-0.2,0.4-0.5,0.5-0.7
	c0.1-0.3,0.2-0.6,0.2-0.9v-7.8c0-0.3,0-0.6-0.2-0.9c-0.1-0.3-0.3-0.5-0.5-0.7c-0.2-0.2-0.5-0.4-0.7-0.5c-0.3-0.1-0.6-0.2-0.9-0.2
	h-14.5c-0.3,0-0.6,0.1-0.9,0.2c-0.3,0.1-0.5,0.3-0.7,0.5c-0.2,0.2-0.4,0.5-0.5,0.7c-0.1,0.3-0.2,0.6-0.2,0.9v7.8
	c0,0.3,0.1,0.6,0.2,0.9c0.1,0.3,0.3,0.5,0.5,0.7c0.2,0.2,0.5,0.4,0.7,0.5c0.3,0.1,0.6,0.2,0.9,0.2H209.3z"/>
<linearGradient id="SVGID_00000002368821637566339180000012740286598458831236_" gradientUnits="userSpaceOnUse" x1="217.2658" y1="24.5655" x2="238.4043" y2="24.5655">
	<stop  offset="0" style="stop-color:#9E5BF1"/>
	<stop  offset="1" style="stop-color:#356FF4"/>
</linearGradient>
<path style="fill:url(#SVGID_00000002368821637566339180000012740286598458831236_);" d="M234.3,32.9h-12.9c-0.7,0-1.4-0.2-2-0.5
	c-0.6-0.3-1.1-0.8-1.5-1.4c-0.4-0.6-0.6-1.3-0.6-2h2.2c0,0.2,0,0.5,0.1,0.7c0.1,0.2,0.2,0.4,0.4,0.6c0.2,0.2,0.4,0.3,0.6,0.4
	s0.5,0.1,0.7,0.1h12.9c0.2,0,0.5,0,0.7-0.1c0.2-0.1,0.4-0.2,0.6-0.4c0.2-0.2,0.3-0.4,0.4-0.6c0.1-0.2,0.1-0.4,0.1-0.7v-1.4
	c0-0.2,0-0.5-0.1-0.7c-0.1-0.2-0.2-0.4-0.4-0.6c-0.2-0.2-0.4-0.3-0.6-0.4c-0.2-0.1-0.5-0.1-0.7-0.1h-12.9c-0.7,0-1.4-0.2-2-0.5
	c-0.6-0.3-1.1-0.8-1.5-1.4c-0.4-0.6-0.6-1.3-0.6-2v-1.4c0-0.7,0.2-1.4,0.6-2c0.4-0.6,0.9-1.1,1.5-1.4c0.6-0.4,1.3-0.5,2-0.5h12.9
	c0.7,0,1.4,0.2,2,0.5c0.6,0.3,1.1,0.8,1.5,1.4c0.4,0.6,0.6,1.3,0.6,2h-2.2c0-0.2,0-0.5-0.1-0.7c-0.1-0.2-0.2-0.4-0.4-0.6
	c-0.2-0.2-0.4-0.3-0.6-0.4c-0.2-0.1-0.5-0.1-0.7-0.1h-12.9c-0.2,0-0.5,0-0.7,0.1c-0.2,0.1-0.4,0.2-0.6,0.4c-0.2,0.2-0.3,0.4-0.4,0.6
	c-0.1,0.2-0.1,0.4-0.1,0.7v1.4c0,0.2,0,0.5,0.1,0.7c0.1,0.2,0.2,0.4,0.4,0.6c0.2,0.2,0.4,0.3,0.6,0.4c0.2,0.1,0.5,0.1,0.7,0.1h12.9
	c0.7,0,1.4,0.2,2,0.5c0.6,0.3,1.1,0.8,1.5,1.4c0.4,0.6,0.6,1.3,0.6,2v1.4c0,0.7-0.2,1.4-0.6,2c-0.4,0.6-0.9,1.1-1.5,1.4
	C235.7,32.7,235,32.9,234.3,32.9z"/>
</svg>
