<svg xmlns="http://www.w3.org/2000/svg" width="190.224" height="32.713" viewBox="0 0 190.224 32.713"><defs><style>.a{fill:#0073d6;}</style></defs><path class="a" d="M48.222,289.458a1.737,1.737,0,0,1-1.743.127,2.678,2.678,0,0,1-1.014-2.409v-3.582c0-1.712-.666-2.948-1.807-3.265-1.934-.571-3.392,1.807-3.931,2.694L36.3,288.507v-6.752c-.032-1.553-.539-2.472-1.49-2.758-.634-.19-1.585-.1-2.5,1.3L24.67,292.533a13.524,13.524,0,0,1-1.553-6.276,13.188,13.188,0,1,1,26.373,0v.063a3.376,3.376,0,0,1-1.268,3.138Zm4.184-3.2h0v-.063a16.105,16.105,0,1,0-16.1,16.42,15.823,15.823,0,0,0,10.936-4.374,1.481,1.481,0,0,0-2-2.187l-.032.032a13.026,13.026,0,0,1-18.766-.856L33.323,284.2v5.1c0,2.441.951,3.233,1.743,3.455s2,.063,3.3-2l3.772-6.118a3.509,3.509,0,0,1,.349-.507v3.106a5.48,5.48,0,0,0,2.5,5.008,4.606,4.606,0,0,0,4.723-.19A6.281,6.281,0,0,0,52.406,286.257Zm22.443-5.579a1.589,1.589,0,0,1,.729,1.236,1.4,1.4,0,0,1-1.363,1.395,2.4,2.4,0,0,1-.507-.1,5.209,5.209,0,0,0-3.075-1.046,4.912,4.912,0,0,0,0,9.795,4.923,4.923,0,0,0,3.423-1.395,1.387,1.387,0,0,1,.792-.254,1.285,1.285,0,0,1,1.3,1.3,1.349,1.349,0,0,1-.634,1.109,7.524,7.524,0,1,1-4.85-13.313A7.164,7.164,0,0,1,74.849,280.678Zm7.544,3.17a5.265,5.265,0,0,1,5.167,5.325,5.392,5.392,0,0,1-5.167,5.42A5.453,5.453,0,0,1,77,289.173,5.371,5.371,0,0,1,82.393,283.847Zm-.032,8.115a2.531,2.531,0,0,0,2.282-2.758,2.381,2.381,0,0,0-2.282-2.6,2.425,2.425,0,0,0-2.441,2.6A2.606,2.606,0,0,0,82.361,291.962Zm6.974.983v-7.481a1.461,1.461,0,0,1,1.458-1.49,1.482,1.482,0,0,1,1.458,1.49v7.481a1.482,1.482,0,0,1-1.458,1.49A1.5,1.5,0,0,1,89.335,292.945Zm-.222-11.792a1.706,1.706,0,0,1,1.68-1.743,1.732,1.732,0,0,1,1.712,1.743,1.7,1.7,0,1,1-3.392,0Zm8.717,7.734v4.057a1.458,1.458,0,1,1-2.916,0v-7.83a1.125,1.125,0,1,1,2.251,0,4.23,4.23,0,0,1,3.2-1.268c2.916,0,4.216,2.187,4.216,4.691v4.406a1.458,1.458,0,1,1-2.916,0v-4.057c0-1.268-.158-2.346-2-2.346-1.3,0-1.839,1.078-1.839,2.346Zm16.2,1.553a.945.945,0,0,1-.761-.38l-3.392-3.677v6.562a1.458,1.458,0,1,1-2.916,0v-13a.617.617,0,0,1,.539-.38,1.02,1.02,0,0,1,.634.38l5.42,6.086a.707.707,0,0,0,.475.285.779.779,0,0,0,.475-.285l5.42-6.086a.943.943,0,0,1,.634-.38.553.553,0,0,1,.539.38v13a1.461,1.461,0,0,1-1.458,1.49,1.482,1.482,0,0,1-1.458-1.49v-6.562l-3.392,3.677a1.17,1.17,0,0,1-.761.38Zm14.011,1.522a2.583,2.583,0,0,0,2.409-2.758,2.485,2.485,0,0,0-2.409-2.631,2.433,2.433,0,0,0-2.314,2.631A2.552,2.552,0,0,0,128.039,291.962Zm3.106,1.331-.063-.349c-.571,1.109-2.377,1.617-3.519,1.617-2.726,0-4.755-2.473-4.755-5.421a5.058,5.058,0,0,1,4.913-5.325,4.561,4.561,0,0,1,3.392,1.617l.063-.349a1.11,1.11,0,0,1,1.109-1.141,1.157,1.157,0,0,1,1.141,1.141v8.178a1.136,1.136,0,0,1-1.141,1.141,1.091,1.091,0,0,1-1.141-1.109Zm10.3-6.752h-.317c-1.839.1-2.187,1.141-2.187,2.346v4.057a1.458,1.458,0,1,1-2.916,0v-7.83a1.125,1.125,0,1,1,2.251,0,4.043,4.043,0,0,1,2.853-1.268h.285a1.367,1.367,0,0,1,1.331,1.363,1.333,1.333,0,0,1-1.3,1.331Zm11.253,5.706a1.393,1.393,0,0,1,.222.7,1.519,1.519,0,0,1-1.458,1.458,1.8,1.8,0,0,1-1.3-.824l-3.36-3.9v3.233a1.458,1.458,0,1,1-2.916,0V281.026a1.458,1.458,0,1,1,2.916,0v7.417l3.36-3.709a1.907,1.907,0,0,1,1.268-.792,1.457,1.457,0,0,1,1.395,1.426,1.248,1.248,0,0,1-.19.666l-2.663,2.916,2.726,3.3Zm5.706-5.674c-.792,0-2.092.412-2.092,1.648h4.216c-.032-1.236-1.363-1.648-2.124-1.648Zm3.8,3.519h-5.9c0,1.743,1.68,2.029,2.409,2.029a4.732,4.732,0,0,0,1.9-.38,1.435,1.435,0,0,1,.761-.222,1.2,1.2,0,0,1,1.173,1.2,1.284,1.284,0,0,1-.634,1.046,5.238,5.238,0,0,1-3.17.824c-2.948,0-5.389-1.585-5.389-5.294,0-2.916,1.49-5.452,4.977-5.452a4.8,4.8,0,0,1,5.008,5.1,1.157,1.157,0,0,1-1.141,1.141Zm8.115,4.47h-.792c-2.219,0-3.519-.983-3.519-4.438v-3.582h-.761a1.348,1.348,0,0,1,0-2.694h.761V281.09a1.461,1.461,0,0,1,1.458-1.49,1.482,1.482,0,0,1,1.458,1.49v2.758h1.2a1.341,1.341,0,0,1,1.3,1.363,1.378,1.378,0,0,1-1.3,1.331h-1.2v3.011c0,2,.1,2.409.983,2.409h.412a1.305,1.305,0,0,1,1.3,1.3,1.327,1.327,0,0,1-1.3,1.3Zm14.106-13.884a1.59,1.59,0,0,1,.729,1.236,1.4,1.4,0,0,1-1.363,1.395,2.4,2.4,0,0,1-.507-.1,5.209,5.209,0,0,0-3.075-1.046,4.912,4.912,0,0,0,0,9.795,4.923,4.923,0,0,0,3.423-1.395,1.387,1.387,0,0,1,.792-.254,1.285,1.285,0,0,1,1.3,1.3,1.35,1.35,0,0,1-.634,1.109,7.524,7.524,0,1,1-4.85-13.313,7.1,7.1,0,0,1,4.184,1.268Zm7.386,11.285a2.583,2.583,0,0,0,2.409-2.758,2.485,2.485,0,0,0-2.409-2.631A2.414,2.414,0,0,0,189.5,289.2a2.573,2.573,0,0,0,2.314,2.758Zm3.106,1.331-.063-.349c-.571,1.109-2.377,1.617-3.519,1.617-2.726,0-4.755-2.473-4.755-5.421a5.058,5.058,0,0,1,4.913-5.325,4.561,4.561,0,0,1,3.392,1.617l.063-.349a1.11,1.11,0,0,1,1.109-1.141,1.157,1.157,0,0,1,1.141,1.141v8.178a1.136,1.136,0,0,1-1.141,1.141A1.091,1.091,0,0,1,194.923,293.294Zm10.239-1.331a2.552,2.552,0,0,0,2.314-2.758,2.414,2.414,0,0,0-2.314-2.631,2.466,2.466,0,0,0-2.409,2.631A2.583,2.583,0,0,0,205.162,291.962Zm-2.409,1.743v3.709a1.458,1.458,0,1,1-2.916,0v-12.3a1.136,1.136,0,0,1,1.141-1.141,1.166,1.166,0,0,1,1.109,1.268,4.688,4.688,0,0,1,3.423-1.395,5.059,5.059,0,0,1,4.913,5.325c0,2.916-2,5.421-4.755,5.421a5.591,5.591,0,0,1-2.916-.888Z" transform="translate(-20.2 -269.9)"/></svg>