<svg width="148" height="29" viewBox="0 0 148 29" fill="none" xmlns="http://www.w3.org/2000/svg">
<path d="M12.8253 0.732422L0.644043 7.80284V21.9155L12.8253 28.9859L25.0066 21.9155V7.80284L12.8253 0.732422ZM12.8253 0.732422L0.644043 7.80284V21.9155L12.8253 28.9859L25.0066 21.9155V7.80284L12.8253 0.732422Z" fill="white"/>
<path d="M17.6249 23.4366H15.8847L13.8077 21.5212V20.5352L15.9689 18.4789V15.2113L18.7756 13.3803L21.9753 15.8028L17.6249 23.4366ZM10.4396 18.3099L10.7483 15.2395L9.70984 12.5071H15.9128L14.8743 15.2395L15.1549 18.3099H12.7692H10.4396ZM11.871 21.5212L9.79404 23.4648H8.02579L3.64726 15.831L6.87502 13.4366L9.70984 15.2395V18.5071L11.871 20.5634V21.5212ZM7.99772 6.8451H17.5968L18.7476 11.7465H6.87502L7.99772 6.8451ZM12.8253 0.732422L0.644043 7.80284V21.9155L12.8253 28.9859L25.0066 21.9155V7.80284L12.8253 0.732422Z" fill="#03316C"/>
<path d="M38.6755 21.3803C35.4477 21.3803 33.09 18.8451 33.09 15.7465C33.09 12.6479 35.4758 10.0282 38.7035 10.0282C40.7525 10.0282 42.0155 10.7888 43.0259 11.8874L41.4822 13.5493C40.7244 12.7324 39.9104 12.1972 38.6755 12.1972C36.8791 12.1972 35.56 13.7747 35.56 15.6902C35.56 17.662 36.9072 19.2113 38.8158 19.2113C39.9946 19.2113 40.8367 18.6479 41.6226 17.8592L43.1101 19.3521C42.0155 20.5352 40.7805 21.3803 38.6755 21.3803Z" fill="#002E73"/>
<path d="M47.7974 21.3803H45.2994V10.0563H47.7974V12.7042C48.471 11.0986 49.734 9.97183 51.6426 10.0563V12.7042H51.5023C49.3411 12.7042 47.8254 14.1127 47.8254 17.0141L47.7974 21.3803Z" fill="#002E73"/>
<path d="M64.6379 10.0282L59.1648 24.4225H56.6387L57.8456 21.3803L53.1302 10.0282H55.7686L58.9683 18.4226L62.0557 10.0282H64.6379Z" fill="#002E73"/>
<path d="M71.9635 12.1972C70.2794 12.1972 68.8199 13.5775 68.8199 15.6902C68.8199 17.831 70.3075 19.1831 71.9635 19.1831C73.6756 19.1831 75.0509 17.831 75.0509 15.6902C75.0509 13.5493 73.6475 12.1972 71.9635 12.1972ZM72.5248 21.3521C70.7566 21.3521 69.6058 20.4507 68.8761 19.4366V24.4225H66.3781V10.0282H68.8761V12.0564C69.69 10.9296 70.8127 10.0282 72.5248 10.0282C75.079 10.0282 77.577 12.0564 77.577 15.6902C77.577 19.2958 75.107 21.3521 72.5248 21.3521Z" fill="#002E73"/>
<path d="M83.0221 12.3943V17.7464C83.0221 18.7042 83.4993 19.0986 84.3693 19.0986H85.3517V21.3239H83.6396C81.8433 21.3239 80.5522 20.507 80.5522 18.1408V12.3943H79.1769V10.2535H80.5522V7.26758H83.0502V10.2535H85.3798V12.3943H83.0221Z" fill="#002E73"/>
<path d="M93.1825 12.1972C91.1898 12.1972 89.8986 13.7747 89.8986 15.6902C89.8986 17.6338 91.274 19.2113 93.1825 19.2113C95.1753 19.2113 96.4664 17.6338 96.4664 15.7183C96.5226 13.8028 95.1473 12.1972 93.1825 12.1972ZM93.1825 21.3803C89.8987 21.3803 87.4568 18.8451 87.4568 15.7465C87.4568 12.6197 89.9267 10.0282 93.2387 10.0282C96.5506 10.0282 98.9925 12.5634 98.9925 15.6902C98.9925 18.7888 96.5506 21.3803 93.1825 21.3803Z" fill="#002E73"/>
<path d="M122.738 12.1972C120.745 12.1972 119.454 13.7747 119.454 15.6902C119.454 17.6338 120.829 19.2113 122.738 19.2113C124.73 19.2113 126.022 17.6338 126.022 15.7183C126.078 13.8028 124.702 12.1972 122.738 12.1972ZM122.738 21.3803C119.454 21.3803 117.012 18.8451 117.012 15.7465C117.012 12.6197 119.482 10.0282 122.794 10.0282C126.106 10.0282 128.548 12.5634 128.548 15.6902C128.548 18.7888 126.078 21.3803 122.738 21.3803Z" fill="#002E73"/>
<path d="M143.311 10.0282C145.669 10.0282 147.128 11.5212 147.128 14.1972V21.3521H144.63V14.9296C144.63 13.1831 143.816 12.2817 142.441 12.2817C141.094 12.2817 140.111 13.2395 140.111 14.9859V21.3803H137.613V14.9296C137.613 13.2395 136.771 12.2817 135.424 12.2817C134.049 12.2817 133.094 13.324 133.094 15.0141V21.3803H130.596V10.0282H133.094V11.8874C133.796 10.9296 134.722 10.0282 136.378 10.0282C137.95 10.0282 139.017 10.7888 139.606 11.9437C140.532 10.7888 141.655 10.0282 143.311 10.0282Z" fill="#002E73"/>
<path d="M103.567 19.0704V20.3662L103.483 20.4789L102.389 21.0986H102.248L101.154 20.4789L101.098 20.3662V19.0704L101.154 18.9577L102.248 18.338H102.389L103.483 18.9577L103.567 19.0704Z" fill="#002E73"/>
<path d="M111.09 21.3521C107.862 21.2676 105.56 18.7042 105.588 15.6056C105.644 12.507 108.086 9.94365 111.314 10.0282C113.363 10.0845 114.626 10.8732 115.608 12L114.037 13.6338C113.307 12.8169 112.493 12.2253 111.258 12.2253C109.462 12.1972 108.114 13.7183 108.086 15.662C108.03 17.6338 109.349 19.2113 111.258 19.2394C112.437 19.2676 113.307 18.7324 114.093 17.9436L115.552 19.4648C114.486 20.5915 113.223 21.4084 111.09 21.3521Z" fill="#002E73"/>
</svg>
