<?xml version="1.0" encoding="UTF-8"?>
<svg width="115px" height="26px" viewBox="0 0 115 26" version="1.1" xmlns="http://www.w3.org/2000/svg" xmlns:xlink="http://www.w3.org/1999/xlink">
    <title>delta</title>
    <g id="Desktop---DIT-Website" stroke="none" stroke-width="1" fill="none" fill-rule="evenodd">
        <g id="Desktop---Investment-Tracker-Home---Text-Anim" transform="translate(-32.000000, -31.000000)" fill="#FFFFFF" fill-rule="nonzero">
            <g id="header">
                <path d="M48.5603665,31 C49.1059205,31 49.5533072,31.1688156 49.8922161,31.5067917 C50.2311009,31.8447437 50.4003563,32.2908305 50.4003563,32.834805 L50.4003563,47.7435281 C50.4003563,49.4724398 49.9940342,51.0432985 49.1813944,52.4531779 C48.3690753,53.8625009 47.2662282,54.9734218 45.8748009,55.7837788 C44.4826143,56.5945781 42.9288485,57 41.2165706,57 C39.5045917,57 37.9402739,56.5947299 36.5265563,55.7843571 C35.1126405,54.9738708 34.0037338,53.8624591 33.2020755,52.4523148 C32.4006742,51.0426227 32,49.4720849 32,47.7435281 C32,46.0167643 32.372459,44.4478719 33.1176735,43.039189 C33.8637273,41.6289197 34.8898668,40.522182 36.1943817,39.7216131 C37.4998145,38.9204809 38.9564708,38.5197507 40.5608745,38.5197507 C41.8534519,38.5197507 43.0585642,38.7868163 44.1743595,39.320924 C45.151154,39.7884949 46.000135,40.418601 46.7203766,41.2105145 L46.7203766,32.834805 C46.7203766,32.2896694 46.896034,31.8426738 47.2470101,31.504733 C47.5960438,31.1686625 48.0369845,31 48.5603665,31 Z M41.2165706,41.7970258 C40.1539757,41.7970258 39.1951011,42.0558962 38.3365303,42.573849 C37.4766374,43.0925994 36.7978557,43.8012431 36.2983339,44.7021472 C35.798773,45.6031219 35.5488406,46.616009 35.5488406,47.7435281 C35.5488406,48.8712601 35.798874,49.8898619 36.2987331,50.8019803 C36.7982799,51.7135289 37.4769415,52.4273348 38.3365303,52.9459017 C39.1951011,53.4638545 40.1539757,53.7227249 41.2165706,53.7227249 C42.2791654,53.7227249 43.2380401,53.4638545 44.0966109,52.9459017 C44.9557908,52.4275815 45.6287034,51.7142494 46.1172976,50.8033048 C46.6066846,49.8908821 46.8515158,48.8717907 46.8515158,47.7435281 C46.8515158,46.6154758 46.606782,45.6020954 46.1176856,44.7008178 C45.629122,43.8005219 44.9560934,43.0923518 44.0966109,42.573849 C43.2380401,42.0558962 42.2791654,41.7970258 41.2165706,41.7970258 Z M69.8285566,38.5197507 C71.5410829,38.5197507 73.024689,38.8979745 74.2761514,39.6556997 C75.5277639,40.4135158 76.4894885,41.472962 77.1591729,42.8309059 C77.8266746,44.1844237 78.1599375,45.7353698 78.1599375,47.4819715 C78.1599375,47.9409578 77.9997766,48.3279718 77.6822316,48.6324631 C77.3658572,48.935832 76.9632513,49.0879145 76.4838716,49.0879145 L64.2248303,49.0879145 C64.48543,50.4841901 65.1475682,51.6145458 66.2139565,52.4855647 C67.3304284,53.3974915 68.696922,53.8535032 70.3203286,53.8535032 C70.9570363,53.8535032 71.6219597,53.7367988 72.3154951,53.5027098 C73.0095465,53.2684466 73.5781042,52.9823007 74.0195472,52.6469123 C74.3556777,52.3835366 74.7529729,52.2514693 75.2052643,52.2514693 C75.6599146,52.2514693 76.0281756,52.3738851 76.2963826,52.6172486 C76.7260346,52.9743064 76.9468998,53.390348 76.9468998,53.8574123 C76.9468998,54.3041192 76.7459465,54.6798695 76.3588785,54.9692915 C75.5996564,55.5705437 74.6590272,56.0589907 73.5376846,56.4354334 C72.417241,56.8115743 71.3446963,57 70.3203286,57 C68.5006412,57 66.866482,56.6064423 65.4204081,55.8188372 C63.9728612,55.0304299 62.8411868,53.9352267 62.0279438,52.5354104 C61.2149854,51.1360839 60.8086948,49.5486964 60.8086948,47.7762226 C60.8086948,46.0053118 61.1923391,44.4139659 61.9601225,43.0046889 C62.7288819,41.5936204 63.799936,40.4921358 65.1710612,39.7028517 C66.5414443,38.9139948 68.0949327,38.5197507 69.8285566,38.5197507 Z M69.8285566,41.6662475 C68.271986,41.6662475 67.0166131,42.0888358 66.0545023,42.9323195 C65.1343993,43.7389749 64.5370747,44.8055513 64.261767,46.1375851 L74.7814804,46.1375851 C74.5692126,44.8016451 74.0483006,43.7330741 73.2191933,42.9264151 C72.3557682,42.0863677 71.228845,41.6662475 69.8285566,41.6662475 Z M90.0579159,32.8021104 C90.0579159,32.2794592 90.2276085,31.8443078 90.5660562,31.5067917 C90.9045277,31.1692518 91.3409477,31 91.865121,31 C92.3892944,31 92.8257144,31.1692518 93.1641859,31.5067917 C93.5026336,31.8443078 93.6723261,32.2794592 93.6723261,32.8021104 L93.6723261,50.6533446 C93.6723261,51.4320491 93.8186965,52.0680502 94.1084595,52.5634197 C94.3862248,53.0382781 94.7272477,53.265001 95.1436013,53.265001 L95.9632214,53.265001 C96.4473871,53.265001 96.8483894,53.437265 97.1540589,53.7786726 C97.4560197,54.1159378 97.6065025,54.5481354 97.6065025,55.0671113 C97.6065025,55.6009295 97.3726723,56.0427568 96.9153095,56.3788334 C96.4691026,56.7067126 95.8987507,56.8692217 95.209171,56.8692217 L95.1436013,56.8692217 C94.1702772,56.8692217 93.2903385,56.603136 92.5081742,56.0718238 C91.7276197,55.5416051 91.1230595,54.7978452 90.6954346,53.8439486 C90.2701861,52.8953529 90.0579159,51.8313527 90.0579159,50.6533446 L90.0579159,32.8021104 Z M113.545094,50.3590935 C113.545094,51.1937979 113.773175,51.8864991 114.228644,52.4439447 C114.678345,52.994332 115.221178,53.265001 115.868774,53.265001 L116.983457,53.265001 C117.425335,53.265001 117.804025,53.4383474 118.108725,53.7786726 C118.410686,54.1159378 118.561168,54.5481354 118.561168,55.0671113 C118.561168,55.5955313 118.359375,56.0345972 117.960969,56.3717076 C117.568325,56.7039434 117.065202,56.8692217 116.4589,56.8692217 L115.868774,56.8692217 C114.766304,56.8692217 113.757166,56.5824933 112.844994,56.0097434 C111.934432,55.4380047 111.220138,54.6583696 110.703821,53.6733523 C110.188228,52.6897148 109.930683,51.5842054 109.930683,50.3590935 L109.930683,42.4509171 L108.590547,42.4509171 C108.091127,42.4509171 107.678648,42.3057369 107.361893,42.0141524 C107.043162,41.7207494 106.881697,41.3491628 106.881697,40.9103633 C106.881697,40.4292622 107.042064,40.035599 107.361893,39.7411851 C107.678648,39.4496006 108.091127,39.3044203 108.590547,39.3044203 L109.930683,39.3044203 L109.930683,34.7637845 C109.930683,34.2411332 110.100376,33.8059819 110.438824,33.4684658 C110.777295,33.1309259 111.213715,32.9616741 111.737889,32.9616741 C112.262062,32.9616741 112.698482,33.1309259 113.036953,33.4684658 C113.375401,33.8059819 113.545094,34.2411332 113.545094,34.7637845 L113.545094,39.3044203 L116.163837,39.3044203 C116.663258,39.3044203 117.075737,39.4496006 117.392492,39.7411851 C117.712321,40.035599 117.872688,40.4292622 117.872688,40.9103633 C117.872688,41.3491628 117.711222,41.7207494 117.392492,42.0141524 C117.075737,42.3057369 116.663258,42.4509171 116.163837,42.4509171 L113.545094,42.4509171 L113.545094,50.3590935 Z M137.816214,38.5197507 C139.528492,38.5197507 141.082258,38.9251726 142.474445,39.7359718 C143.865872,40.5463288 144.968719,41.6572498 145.781038,43.0665728 C146.593678,44.4764522 147,46.0473109 147,47.7762226 L147,55.0671113 C147,55.5901576 146.824508,56.0306973 146.475467,56.3787774 C146.126403,56.7268809 145.684581,56.9019163 145.16001,56.9019163 C144.63544,56.9019163 144.193617,56.7268809 143.844553,56.3787774 C143.495512,56.0306973 143.32002,55.5901576 143.32002,55.0671113 L143.32002,54.3092362 C142.599779,55.1011497 141.750798,55.7312558 140.774003,56.1988267 C139.658208,56.7329344 138.453096,57 137.160518,57 C135.556114,57 134.099458,56.5992698 132.794025,55.7981376 C131.48951,54.9975687 130.463371,53.890831 129.717317,52.4805617 C128.972103,51.0718788 128.599644,49.5029864 128.599644,47.7762226 C128.599644,46.0476658 129.000318,44.477128 129.801719,43.0674359 C130.603377,41.6572916 131.712284,40.5458799 133.1262,39.7353936 C134.539918,38.9250208 136.104235,38.5197507 137.816214,38.5197507 Z M137.816214,41.7970258 C136.753619,41.7970258 135.794745,42.0558962 134.936174,42.573849 C134.076585,43.0924159 133.397924,43.8062218 132.898377,44.7177704 C132.398518,45.6298888 132.148484,46.6484905 132.148484,47.7762226 C132.148484,48.9037417 132.398417,49.9166288 132.897978,50.8176035 C133.397499,51.7185076 134.076281,52.4271513 134.936174,52.9459017 C135.794745,53.4638545 136.753619,53.7227249 137.816214,53.7227249 C138.878809,53.7227249 139.837684,53.4638545 140.696255,52.9459017 C141.555737,52.4273989 142.228766,51.7192288 142.717329,50.8189329 C143.206426,49.9176553 143.451159,48.9042749 143.451159,47.7762226 C143.451159,46.64796 143.206328,45.6288686 142.716941,44.7164459 C142.228347,43.8055013 141.555434,43.0921692 140.696255,42.573849 C139.837684,42.0558962 138.878809,41.7970258 137.816214,41.7970258 Z" id="delta"></path>
            </g>
        </g>
    </g>
</svg>