<svg xmlns="http://www.w3.org/2000/svg" viewBox="0 0 120.32 31.62"><defs><style>.cls-1{fill:#031333;}</style></defs><g><g><path class="cls-1" d="M94.27,27.58c0,2.12-1.33,3.58-3.19,3.61a3.5,3.5,0,0,1-3.35-3.65c0-3,0-12.92,0-14.85a3.41,3.41,0,0,1,2.54-3.5,3.15,3.15,0,0,1,4,2.93c.06,2.68,0,5.36,0,8C94.26,20.16,94.29,25.11,94.27,27.58Z"/><path class="cls-1" d="M77.3,27.52a3.28,3.28,0,0,1-3.25,3.65,3.43,3.43,0,0,1-3.31-3.67q0-6.36,0-12.71A17.37,17.37,0,0,1,71,11.56a3.21,3.21,0,0,1,6.35.7C77.34,14.87,77.24,25.05,77.3,27.52Z"/><path class="cls-1" d="M74.05,0a3.24,3.24,0,0,1,3.44,3.42A3.39,3.39,0,0,1,74.13,7a3.44,3.44,0,0,1-3.4-3.54A3.22,3.22,0,0,1,74.05,0Z"/><path class="cls-1" d="M91.05,0a3.24,3.24,0,0,1,3.43,3.43A3.39,3.39,0,0,1,91.1,7a3.44,3.44,0,0,1-3.39-3.55A3.24,3.24,0,0,1,91.05,0Z"/><path class="cls-1" d="M82.61,25.1a3,3,0,0,1,3.07,3.09,3.09,3.09,0,0,1-3.25,3,3.06,3.06,0,1,1,.18-6.12Z"/><path class="cls-1" d="M119.29,9.23a3.18,3.18,0,0,0-4.71,0l-1,1h0l-2.34,2.33-.36-.37L113.14,10h0l-.21-.12a11.82,11.82,0,0,0-7.36-1.17A11.63,11.63,0,0,0,96.41,20a11.37,11.37,0,1,0,22.21-3.49,2.1,2.1,0,0,1,.58-2.57A3.1,3.1,0,0,0,119.29,9.23ZM107.74,26.28c-3.3,0-5.83-2.53-5.88-6.48a5.93,5.93,0,0,1,5.9-6.31c3,0,6,2.1,5.95,6.35C113.69,23.85,111.27,26.28,107.74,26.28Z"/><path class="cls-1" d="M43.84,9.34c-1.47-.6-2.88.06-3.6,1.71-1.26,2.89-4.11,9.28-4.38,9.76-.29-.61-3.08-7-4.3-9.8a2.69,2.69,0,0,0-3.44-1.73,3,3,0,0,0-1.75,3.49,14.77,14.77,0,0,1,.15,4.54,10.4,10.4,0,0,1-11.84,8.56,10.85,10.85,0,0,1-3.46-1.06l5-5h0c1.36-1.36,2.73-2.72,4.09-4.09A3.29,3.29,0,0,0,19.09,10a3.14,3.14,0,0,0-3.31,1q-4.06,4.08-8.14,8.14c-.26.25-.54.49-.87.79C4.82,16.82,5.54,11.21,8.09,8.78c1.35-1.28,2.73-2.55,4.06-3.85a2.8,2.8,0,0,0,.12-4,2.8,2.8,0,0,0-4-.13c-.67.58-1.32,1.18-2,1.74-4.77,4-6.91,9-6.1,15.23A16.07,16.07,0,0,0,12.23,31.14a16.62,16.62,0,0,0,16.12-5h0l0,0a14.48,14.48,0,0,0,1-1.21c.06-.08.11-.16.16-.24.3-.42.62-.9.9-1.38l-.69-1.6h0c-.45-1-.58-1.27-1-2.35l-.25-.58c-.2-.44-.44-1-.59-1.35a1.85,1.85,0,0,1,.24-.11l.24-.1h0l.45,1,1.27,2.92h0l.65,1.52h0l.48,1.1,2.59,6A2.45,2.45,0,0,0,36,31.21a2.41,2.41,0,0,0,2.24-1.77c.23-.61,4.82-11.48,6.87-16.32A2.73,2.73,0,0,0,43.84,9.34Z"/><path class="cls-1" d="M68.64,20.08c0-2.61,0-5.22,0-7.83A3.1,3.1,0,0,0,65.92,9,2.93,2.93,0,0,0,63,11.55c-.06.37-.1.75-.13,1.14v.8h-.52V11.33a4.17,4.17,0,0,0-.82-.88h0l-.24-.18h0l0,0a9.61,9.61,0,0,0-11.39.31A12.3,12.3,0,0,0,49,28.31a9.48,9.48,0,0,0,12.3,1.24h0l0,0,0,0c.13-.1.26-.2.37-.3a6.38,6.38,0,0,0,.65-.63v-2h.52v1.59c.25,1.76,1.43,3.06,2.87,3s2.93-1,2.87-3.65S68.64,22.56,68.64,20.08ZM61.7,24l0,0a2.56,2.56,0,0,1-.2.26v0a5.51,5.51,0,0,1-.73.72l0,0-.23.18,0,0a5.8,5.8,0,0,1-.59.36h0l-.29.14-.07,0-.24.1-.09,0-.26.09-.06,0-.34.09h0a1.7,1.7,0,0,1-.31.06l-.11,0-.24,0h-.13l-.25,0h-.49c-3.29,0-5.82-2.53-5.87-6.48A5.93,5.93,0,0,1,57,13.49h.68l.15,0,.14,0,.13,0,.15,0,.11,0,.17,0,.1,0,.17.05.09,0,.18.05.07,0,.19.07.06,0,.19.08.06,0,.19.1,0,0,.2.11,0,0,.2.13h0l.2.14h0a1.56,1.56,0,0,1,.2.16h0l.21.17h0a6.31,6.31,0,0,1,2,4.92A7.07,7.07,0,0,1,61.7,24Z"/></g></g></svg>