<svg width="192" height="34" viewBox="0 0 192 34" fill="none" xmlns="http://www.w3.org/2000/svg">
<path d="M3.456 20.4L0 17L17.28 0L20.736 3.4L3.456 20.4Z" fill="url(#paint0_linear_5141_35001)"/>
<path d="M31.104 20.4L13.824 3.4L17.28 0L34.56 17L31.104 20.4Z" fill="url(#paint1_linear_5141_35001)"/>
<path d="M17.28 34.0004L6.91199 23.8004L10.368 20.4004L20.736 30.6004L17.28 34.0004Z" fill="url(#paint2_linear_5141_35001)"/>
<path d="M10.368 27.1996L6.91199 23.7996L17.28 13.5996L20.736 16.9996L10.368 27.1996Z" fill="url(#paint3_linear_5141_35001)"/>
<path d="M17.28 33.9996L13.824 30.5996L31.104 13.5996L34.56 16.9996L17.28 33.9996Z" fill="url(#paint4_linear_5141_35001)"/>
<path d="M49.272 24.0596H45.32V11.9393H40.704V8.90918H53.88V11.9393H49.264V24.0596H49.272Z" fill="black"/>
<path d="M66.496 20.8092C66.496 21.8953 66.184 22.7374 65.56 23.3513C64.936 23.9652 64.08 24.2721 62.976 24.2721H57.928C56.832 24.2721 55.968 23.9652 55.344 23.3513C54.72 22.7374 54.408 21.8874 54.408 20.8092V15.8272C54.408 14.7411 54.72 13.899 55.344 13.2851C55.968 12.6712 56.824 12.3643 57.928 12.3643H62.976C64.072 12.3643 64.936 12.6712 65.56 13.2851C66.184 13.899 66.496 14.749 66.496 15.8272V20.8092ZM62.656 16.1578C62.656 15.5832 62.36 15.292 61.776 15.292H59.144C58.56 15.292 58.264 15.5832 58.264 16.1578V20.4865C58.264 21.061 58.56 21.3522 59.144 21.3522H61.776C62.36 21.3522 62.656 21.061 62.656 20.4865V16.1578Z" fill="black"/>
<path d="M72.856 19.5106V24.0597H69.016V8.90137H72.856V16.5828H74.616L77.032 12.5768H81.096L77.8 18.1018L81.096 24.0518H77.032L74.504 19.5028H72.856V19.5106Z" fill="black"/>
<path d="M93.272 23.8393C90.448 24.1305 87.88 24.2721 85.584 24.2721C84.592 24.2721 83.792 23.9731 83.192 23.3828C82.592 22.7925 82.288 22.0055 82.288 21.0217V15.8272C82.288 14.7411 82.6 13.899 83.224 13.2851C83.848 12.6712 84.704 12.3643 85.808 12.3643H90.2C91.296 12.3643 92.16 12.6712 92.784 13.2851C93.408 13.899 93.72 14.749 93.72 15.8272V19.8332H86.144V20.699C86.144 20.9115 86.216 21.0925 86.36 21.242C86.504 21.3837 86.688 21.4545 86.912 21.4545C88.36 21.4545 90.488 21.3444 93.28 21.1319V23.8393H93.272ZM87.008 15.0717C86.424 15.0717 86.128 15.3629 86.128 15.9374V17.1258H89.864V15.9374C89.864 15.3629 89.568 15.0717 88.984 15.0717H87.008Z" fill="black"/>
<path d="M102.696 15.5045C101.92 15.5045 101.04 15.6461 100.064 15.9373V24.0517H96.224V12.5846H99.632L99.848 13.6707C100.536 13.2221 101.24 12.8915 101.968 12.6869C102.696 12.4744 103.304 12.3721 103.8 12.3721H104.792C105.784 12.3721 106.584 12.6711 107.184 13.2614C107.784 13.8517 108.088 14.6387 108.088 15.6225V24.0674H104.248V16.2758C104.248 16.0554 104.176 15.8823 104.032 15.7327C103.888 15.5911 103.704 15.5123 103.48 15.5123H102.696V15.5045Z" fill="black"/>
<path d="M118.064 24.0596H110.16V21.0295H112.136V11.9393H110.16V8.90918H118.064V11.9393H116.088V21.0295H118.064V24.0596Z" fill="black"/>
<path d="M126.832 15.5045C126.056 15.5045 125.176 15.6461 124.2 15.9373V24.0517H120.36V12.5846H123.768L123.984 13.6707C124.672 13.2221 125.376 12.8915 126.104 12.6869C126.832 12.4744 127.44 12.3721 127.936 12.3721H128.928C129.92 12.3721 130.72 12.6711 131.32 13.2614C131.92 13.8517 132.224 14.6387 132.224 15.6225V24.0674H128.384V16.2758C128.384 16.0554 128.312 15.8823 128.168 15.7327C128.024 15.5911 127.84 15.5123 127.616 15.5123H126.832V15.5045Z" fill="black"/>
<path d="M134.288 21.0289C137.264 21.2493 139.6 21.3516 141.32 21.3516C141.536 21.3516 141.72 21.2807 141.872 21.1391C142.016 20.9974 142.088 20.8164 142.088 20.596V19.8405H137.368C136.368 19.8405 135.576 19.5414 134.976 18.9511C134.376 18.3608 134.072 17.5738 134.072 16.59V15.8344C134.072 14.8507 134.368 14.0636 134.976 13.4733C135.576 12.8831 136.376 12.584 137.368 12.584H144.832V15.4016H138.68C138.464 15.4016 138.28 15.4724 138.128 15.6141C137.984 15.7557 137.912 15.9368 137.912 16.1571C137.912 16.3775 137.984 16.5506 138.128 16.7002C138.272 16.8419 138.456 16.9206 138.68 16.9206H142.632C143.624 16.9206 144.424 17.2196 145.024 17.8099C145.624 18.4002 145.928 19.1872 145.928 20.171V21.0368C145.928 22.0206 145.624 22.8076 145.024 23.3979C144.424 23.9881 143.624 24.2872 142.632 24.2872C140.04 24.2872 137.256 24.1456 134.288 23.8544V21.0289Z" fill="black"/>
<path d="M152.616 13.0172V24.0593H148.776V15.9371H147.128V13.0172H152.616ZM148.768 8.68848H152.608V11.7186H148.768V8.68848Z" fill="black"/>
<path d="M162.928 23.1932C161.504 23.4844 160.264 23.6261 159.192 23.6261H158.424C157.432 23.6261 156.632 23.327 156.032 22.7368C155.432 22.1465 155.128 21.3594 155.128 20.3756V16.0469C155.128 14.9608 155.44 14.1187 156.064 13.5048C156.688 12.8909 157.544 12.584 158.648 12.584H166.776V24.7044C166.776 25.6881 166.472 26.4752 165.872 27.0655C165.272 27.6557 164.472 27.9548 163.48 27.9548C161.184 27.9548 158.616 27.8132 155.792 27.5219V24.7044C158.592 24.9247 160.712 25.027 162.16 25.027C162.376 25.027 162.56 24.9562 162.712 24.8067C162.856 24.665 162.928 24.484 162.928 24.2636V23.1932ZM160.288 20.7062C161.208 20.7062 162.088 20.6354 162.92 20.4858V15.5039H159.848C159.264 15.5039 158.968 15.7951 158.968 16.3696V19.9428C158.968 20.1632 159.04 20.3363 159.184 20.4858C159.328 20.6275 159.512 20.7062 159.736 20.7062H160.288Z" fill="black"/>
<path d="M173.344 12.8051C174.768 12.5139 176.008 12.3722 177.08 12.3722H178.072C179.064 12.3722 179.864 12.6713 180.464 13.2616C181.064 13.8518 181.368 14.6389 181.368 15.6227V24.0676H177.528V16.0477C177.528 15.8352 177.456 15.6541 177.312 15.5046C177.168 15.3629 176.984 15.2921 176.76 15.2921H175.992C175.432 15.2921 174.928 15.3236 174.464 15.3787C174 15.4338 173.632 15.481 173.352 15.5125V24.0597H169.512V8.90137H173.352V12.8051H173.344Z" fill="black"/>
<path d="M192 24.0595C190.576 24.2012 189.192 24.272 187.824 24.272C186.832 24.272 186.032 23.973 185.432 23.3827C184.832 22.7924 184.528 22.0054 184.528 21.0216V15.5044H183.208V12.5845H184.528L184.968 9.9873H188.376V12.5845H191.12V15.5044H188.376V20.4864C188.376 20.7067 188.448 20.8799 188.592 21.0294C188.736 21.1711 188.92 21.2498 189.144 21.2498H192V24.0595Z" fill="black"/>
<defs>
<linearGradient id="paint0_linear_5141_35001" x1="1.728" y1="18.7" x2="18.7257" y2="1.42231" gradientUnits="userSpaceOnUse">
<stop/>
<stop offset="1" stop-opacity="0"/>
</linearGradient>
<linearGradient id="paint1_linear_5141_35001" x1="13.824" y1="10.2" x2="34.56" y2="10.2" gradientUnits="userSpaceOnUse">
<stop/>
<stop offset="1" stop-opacity="0"/>
</linearGradient>
<linearGradient id="paint2_linear_5141_35001" x1="18" y1="32.2689" x2="7.78221" y2="21.0839" gradientUnits="userSpaceOnUse">
<stop/>
<stop offset="1" stop-opacity="0"/>
</linearGradient>
<linearGradient id="paint3_linear_5141_35001" x1="8.79998" y1="25.9718" x2="18.6303" y2="15.5799" gradientUnits="userSpaceOnUse">
<stop/>
<stop offset="1" stop-opacity="0"/>
</linearGradient>
<linearGradient id="paint4_linear_5141_35001" x1="24.192" y1="13.5996" x2="24.192" y2="33.9996" gradientUnits="userSpaceOnUse">
<stop/>
<stop offset="1" stop-opacity="0"/>
</linearGradient>
</defs>
</svg>
