<svg xmlns="http://www.w3.org/2000/svg" width="105" height="25.988" viewBox="0 0 105 25.988"><defs><style>.a{fill:#fff;}</style></defs><path class="a" d="M33.23,266.918c-4.392-1.505-6.23-3.448-6.23-7.123,0-3.8,2.748-6.965,7.98-6.965A9.532,9.532,0,0,1,39.688,254a2.615,2.615,0,0,0,.84.35c.35,0,.63-.14.735-1.033.035-.28.1-.315.315-.315s.245.07.245.245c0,.385-.035,1.925-.035,3.22,0,1.435.035,2.607.035,3.185,0,.245-.035.315-.28.315-.21,0-.245-.07-.28-.385A7.039,7.039,0,0,0,39.32,255a6.249,6.249,0,0,0-4.358-1.61c-3.517,0-5.635,1.61-5.635,4.148,0,1.82.56,2.975,4.393,4.323l2.642.962c4.673,1.68,7,3.325,7,7.4,0,4.113-2.817,7.263-8.26,7.263a12.541,12.541,0,0,1-5.635-1.33,2.778,2.778,0,0,0-1.12-.35c-.385,0-.665.14-.735,1.068,0,.315-.1.35-.28.35-.21,0-.28-.07-.28-.245,0-.35.07-2.083.07-3.5,0-1.54-.07-2.747-.07-3.36,0-.28.1-.35.315-.35.175,0,.21.07.245.4.35,2.467.91,3.675,2.083,4.83a9.362,9.362,0,0,0,5.46,1.925c3.833,0,5.81-2.03,5.81-4.427,0-1.925-.77-3.15-4.812-4.55ZM47.2,271.275c0,.717,0,1.96.07,2.677.175,2.152,1.225,3.5,4.673,3.5a5.2,5.2,0,0,0,3.693-1.3.964.964,0,0,0,.385-.578.263.263,0,0,0-.245-.245c-.1,0-.175.07-.245.175a3.352,3.352,0,0,1-.91.822,2.62,2.62,0,0,1-1.26.35,1.263,1.263,0,0,1-1.4-1.068,14.026,14.026,0,0,1-.175-2.852v-11.55h3.272c.14,0,.21-.07.21-.28s-.07-.28-.21-.28H51.78V256.4a.869.869,0,0,0-.035-.315c-.035-.07-.175-.1-.385-.1-.28,0-.385.1-.49.385-.8,2.153-1.295,2.853-2.467,3.57a7.572,7.572,0,0,1-3.483.822c-.14,0-.21.035-.21.21s.035.245.14.245h2.327v10.063Zm18.637-2.363a7.388,7.388,0,0,0-3.167.473c-.735.4-1.295,1.365-1.295,3.535,0,2.712.8,3.728,2.118,3.728a2.911,2.911,0,0,0,2.817-2.03,9.953,9.953,0,0,0,.49-3.29v-2.4C66.655,268.948,66.34,268.913,65.832,268.913Zm-3.377,8.557c-4.147,0-5.495-2.258-5.495-4.55a3.508,3.508,0,0,1,1.873-3.5c1.26-.648,3.342-.962,7.945-.962V264.59a8.158,8.158,0,0,0-.28-2.643,2.28,2.28,0,0,0-2.4-1.26,3.533,3.533,0,0,0-2.4.682c-.7.577-.875,1.505-.875,3.36,0,1.207-.7,1.435-1.47,1.435a1.224,1.224,0,0,1-1.365-1.4c0-2.432,1.873-4.55,6.825-4.55,3.063,0,5.215.892,5.985,2.4a6.776,6.776,0,0,1,.56,3.045c0,1.47-.07,8.435-.07,9.117,0,1.33.245,1.785,1.015,1.785a1.616,1.616,0,0,0,1.05-.385c.21-.21.28-.315.455-.315a.271.271,0,0,1,.245.28.464.464,0,0,1-.28.4,6.545,6.545,0,0,1-3.132.822c-2.677,0-3.552-.857-3.868-2.573A4.429,4.429,0,0,1,62.455,277.47Zm19.338-3.115v-6h.595a1.187,1.187,0,0,1,1.085.612l3.762,6A1.932,1.932,0,0,1,87.69,276a.468.468,0,0,1-.385.473,5.533,5.533,0,0,1-1.295.1c-.175,0-.21.035-.21.245,0,.175.07.21.21.21.875-.035,3.587-.035,4.5-.035s3.482.035,4.533.035c.14,0,.175-.035.175-.21,0-.21-.07-.245-.315-.245-.77,0-1.365-.175-2.293-1.575l-6.09-9.117L89.51,262.7a6.445,6.445,0,0,1,1.61-1.3,3.905,3.905,0,0,1,1.365-.35c.21,0,.315-.035.315-.21s-.07-.21-.21-.21c-.385,0-1.5.035-2.713.035-1.54,0-2.713-.035-3.238-.035-.14,0-.21.035-.21.21,0,.14.035.21.245.21a9.771,9.771,0,0,1,1.12.14c.56.14.805.4.805.752a2.641,2.641,0,0,1-.805,1.645,38.245,38.245,0,0,1-3.377,3.693,2.075,2.075,0,0,1-1.575.577H81.827V257.135c0-2.783.14-5.075.14-5.338,0-.245-.1-.28-.245-.28-.35,0-3.062.175-6.65.175-.1,0-.14.1-.14.21,0,.175.035.245.175.245,1.12,0,1.575.035,1.8.245.245.245.315.473.315,2.258v19.705a5.009,5.009,0,0,1-.21,1.75c-.21.4-.63.473-1.978.473-.1,0-.175.035-.175.245,0,.175.035.21.175.21.875,0,3.448-.035,4.463-.035,1.155,0,4.112.035,4.6.035.14,0,.175-.07.175-.21,0-.21-.035-.245-.175-.245-1.5,0-1.942-.21-2.082-.473C81.793,275.737,81.793,275.353,81.793,274.355Zm23.327-6.405c1.085,0,1.26-.4,1.26-1.435,0-4.007-.42-5.827-2.678-5.827-2.082,0-3.412,1.173-3.622,7.262Zm-.507,8.943a5.057,5.057,0,0,0,4.988-4.427c.07-.508.21-.788.735-.788a.559.559,0,0,1,.595.543,3.592,3.592,0,0,1-.35,1.435c-.91,1.995-3.028,3.8-6.825,3.8-5.5,0-8.523-3.605-8.523-8.33,0-4.9,3.028-8.942,8.558-8.942,4.183,0,7.105,2.432,7.105,6.65,0,.682-.07,1.067-.35,1.33-.14.14-.49.28-1.365.28H100.1C100.08,276.14,102.092,276.892,104.612,276.892Zm19.9-13.125c-.56-1.82-1.575-2.94-3.272-2.94-2.048,0-3.273,1.47-3.273,8.19,0,6.755,1.4,7.8,3.027,7.8,1.505,0,3.132-1.137,3.622-4.077a24.564,24.564,0,0,0,.35-4.462A14.246,14.246,0,0,0,124.51,263.767Zm-4.218,13.7c-4.112,0-7.28-2.94-7.28-8.4,0-5.215,3.2-8.872,7.7-8.872a4.163,4.163,0,0,1,4.253,2.94v-8.5c0-1.785-.035-2.03-.315-2.257a3.893,3.893,0,0,0-1.8-.245c-.14,0-.175-.07-.175-.245,0-.1.035-.21.14-.21,3.063,0,6.3-.175,6.685-.175.14,0,.21.07.21.28,0,.14-.14,2.852-.14,4.69v17.885a4.156,4.156,0,0,0,.175,1.75c.14.28.455.473,2.083.473.14,0,.175.035.175.245,0,.14-.035.21-.175.21-3.062,0-5.775.175-6.51.175a.314.314,0,0,1-.35-.35c0-.385.035-1.365.07-2.905A4.729,4.729,0,0,1,120.292,277.47Z" transform="translate(-27 -251.5)"/></svg>