<svg width="189" height="104" viewBox="0 0 189 104" fill="none" xmlns="http://www.w3.org/2000/svg">
<path d="M100.802 34.2426C101.583 35.14 101.245 35.9558 100.056 36.084L73.0992 38.7994C71.8988 38.9276 71.1762 38.0885 71.4792 36.9581L78.2271 11.3533C78.5301 10.2228 79.4042 10.0247 80.185 10.8988L100.802 34.2426Z" fill="#2CEDFC"/>
<path d="M108.216 27.4591C107.913 28.5895 107.039 28.7877 106.258 27.9136L85.6533 4.56982C84.8725 3.67243 85.2104 2.8566 86.3992 2.7284L113.356 0.0129462C114.556 -0.115252 115.279 0.723884 114.976 1.85436L108.216 27.4591Z" fill="#DB89DF"/>
<path d="M26.1058 67.0029V103.33H22.7727V98.2367C20.6632 101.71 17.0969 103.574 12.8314 103.574C5.48916 103.574 0 98.2367 0 90.4516C0 82.6664 5.48916 77.3754 12.8314 77.3754C16.9454 77.3754 20.4651 79.1352 22.6211 82.4683V67.0029H26.0941H26.1058ZM22.6794 90.4632C22.6794 84.4379 18.5654 80.4288 13.1345 80.4288C7.70351 80.4288 3.54291 84.4379 3.54291 90.4632C3.54291 96.4886 7.65689 100.498 13.1345 100.498C18.612 100.498 22.6794 96.4886 22.6794 90.4632Z" fill="#7A89E9"/>
<path d="M41.4336 69.0654H45.0581V100.206H64.2528V103.341H41.4336V69.0654Z" fill="#7A89E9"/>
<path d="M75.1562 69.0654H78.7807V103.341H75.1562V69.0654Z" fill="#7A89E9"/>
<path d="M130.436 69.0654V103.341H126.963V75.9298L113.502 98.9939H111.789L98.3285 76.0813V103.353H94.8555V69.0771H97.839L112.722 94.4837L127.453 69.0771H130.436V69.0654Z" fill="#7A89E9"/>
<path d="M146.485 69.0654H150.109V103.341H146.485V69.0654Z" fill="#7A89E9"/>
<path d="M172.824 72.2005H160.785V69.0654H188.499V72.2005H176.46V103.341H172.836V72.2005H172.824Z" fill="#7A89E9"/>
</svg>
