<svg width="199" height="118" viewBox="0 0 199 118" fill="none" xmlns="http://www.w3.org/2000/svg">
<path d="M118.524 54.6742C119.305 55.5715 118.967 56.3874 117.778 56.5156L90.8218 59.2311C89.6214 59.3593 88.8988 58.5201 89.2018 57.3897L95.9497 31.7849C96.2527 30.6544 97.1268 30.4564 97.9076 31.3304L118.524 54.6742Z" fill="#7A89E9"/>
<path d="M96.7414 23.0432C96.147 24.0455 95.0049 24.1504 94.224 23.2647L80.5185 7.74104C79.7376 6.84365 80.0523 5.93462 81.2294 5.67822L108.652 0.0491316C109.829 -0.183956 110.295 0.433741 109.678 1.44767L96.753 23.0432H96.7414Z" fill="#7A89E9"/>
<path d="M26.1058 80.6855V117.012H22.7727V111.919C20.6632 115.392 17.0969 117.257 12.8314 117.257C5.48916 117.257 0 111.919 0 104.134C0 96.349 5.48916 91.058 12.8314 91.058C16.9454 91.058 20.4651 92.8178 22.6211 96.151V80.6855H26.0941H26.1058ZM22.6794 104.146C22.6794 98.1205 18.5654 94.1114 13.1345 94.1114C7.70351 94.1114 3.54291 98.1205 3.54291 104.146C3.54291 110.171 7.65689 114.18 13.1345 114.18C18.612 114.18 22.6794 110.171 22.6794 104.146Z" fill="#7A89E9"/>
<path d="M48.0839 85.8831H36.0449V82.748H63.759V85.8831H51.7201V117.024H48.0955V85.8831H48.0839Z" fill="#7A89E9"/>
<path d="M121.229 82.748L109.679 117.024H105.857L95.8224 87.7943L85.7414 117.024H81.977L70.4275 82.748H74.1452L84.0398 112.222L94.2723 82.748H97.6521L107.733 112.373L117.768 82.748H121.241H121.229Z" fill="#7A89E9"/>
<path d="M153.196 107.863H134.107L129.993 117.024H126.228L141.892 82.748H145.47L161.133 117.024H157.311L153.196 107.863ZM151.88 104.926L143.652 86.5241L135.424 104.926H151.88Z" fill="#7A89E9"/>
<path d="M198.532 94.4956C198.532 101.791 193.24 106.197 184.535 106.197H175.328V117.012H171.703V82.7363H184.535C193.252 82.7363 198.532 87.1417 198.532 94.484V94.4956ZM194.907 94.4956C194.907 89.0064 191.283 85.883 184.43 85.883H175.328V103.015H184.43C191.283 103.015 194.907 99.8799 194.907 94.4956Z" fill="#7A89E9"/>
</svg>
