<?xml version="1.0" encoding="UTF-8" standalone="no"?>
<!-- Created with Inkscape (http://www.inkscape.org/) -->

<svg
   width="200"
   height="200"
   viewBox="0 0 52.916665 52.916666"
   version="1.1"
   id="svg5"
   xml:space="preserve"
   inkscape:export-filename="how-item2.svg"
   inkscape:export-xdpi="96"
   inkscape:export-ydpi="96"
   xmlns:inkscape="http://www.inkscape.org/namespaces/inkscape"
   xmlns:sodipodi="http://sodipodi.sourceforge.net/DTD/sodipodi-0.dtd"
   xmlns="http://www.w3.org/2000/svg"
   xmlns:svg="http://www.w3.org/2000/svg"><sodipodi:namedview
     id="namedview7"
     pagecolor="#ffffff"
     bordercolor="#000000"
     borderopacity="0.25"
     inkscape:showpageshadow="2"
     inkscape:pageopacity="0.0"
     inkscape:pagecheckerboard="0"
     inkscape:deskcolor="#d1d1d1"
     inkscape:document-units="mm"
     showgrid="false" /><defs
     id="defs2"><linearGradient
       id="paint0_linear_648_1768"
       x1="127.263"
       y1="57.0732"
       x2="93.1623"
       y2="25.343599"
       gradientUnits="userSpaceOnUse"><stop
         stop-color="#7988E8"
         id="stop2142" /><stop
         offset="1"
         stop-color="#DB89DF"
         id="stop2144" /></linearGradient><linearGradient
       id="paint1_linear_648_1768"
       x1="246.341"
       y1="114.873"
       x2="208.72701"
       y2="179.752"
       gradientUnits="userSpaceOnUse"><stop
         stop-color="#7988E8"
         id="stop2147" /><stop
         offset="1"
         stop-color="#DB89DF"
         id="stop2149" /></linearGradient><linearGradient
       id="paint0_linear_648_1773"
       x1="21.6019"
       y1="82"
       x2="3.05146"
       y2="82.213097"
       gradientUnits="userSpaceOnUse"><stop
         stop-color="#7988E8"
         id="stop2342" /><stop
         offset="1"
         stop-color="#DB89DF"
         id="stop2344" /></linearGradient><linearGradient
       id="paint1_linear_648_1773"
       x1="21.645"
       y1="33.656898"
       x2="4.3592701"
       y2="34.181198"
       gradientUnits="userSpaceOnUse"><stop
         stop-color="#7988E8"
         id="stop2347" /><stop
         offset="1"
         stop-color="#DB89DF"
         id="stop2349" /></linearGradient><linearGradient
       id="paint2_linear_648_1773"
       x1="53.601898"
       y1="71.25"
       x2="35.0504"
       y2="71.410797"
       gradientUnits="userSpaceOnUse"><stop
         stop-color="#7988E8"
         id="stop2352" /><stop
         offset="1"
         stop-color="#DB89DF"
         id="stop2354" /></linearGradient><linearGradient
       id="paint3_linear_648_1773"
       x1="53.145"
       y1="11.6569"
       x2="35.859299"
       y2="12.1812"
       gradientUnits="userSpaceOnUse"><stop
         stop-color="#7988E8"
         id="stop2357" /><stop
         offset="1"
         stop-color="#DB89DF"
         id="stop2359" /></linearGradient><linearGradient
       id="paint4_linear_648_1773"
       x1="85.601898"
       y1="82"
       x2="67.051498"
       y2="82.213097"
       gradientUnits="userSpaceOnUse"><stop
         stop-color="#7988E8"
         id="stop2362" /><stop
         offset="1"
         stop-color="#DB89DF"
         id="stop2364" /></linearGradient><linearGradient
       id="paint5_linear_648_1773"
       x1="85.144997"
       y1="33.656898"
       x2="67.859299"
       y2="34.181198"
       gradientUnits="userSpaceOnUse"><stop
         stop-color="#7988E8"
         id="stop2367" /><stop
         offset="1"
         stop-color="#DB89DF"
         id="stop2369" /></linearGradient><linearGradient
       id="paint6_linear_648_1773"
       x1="117.602"
       y1="71.25"
       x2="99.0504"
       y2="71.410797"
       gradientUnits="userSpaceOnUse"><stop
         stop-color="#7988E8"
         id="stop2372" /><stop
         offset="1"
         stop-color="#DB89DF"
         id="stop2374" /></linearGradient><linearGradient
       id="paint7_linear_648_1773"
       x1="117.145"
       y1="11.6569"
       x2="99.859299"
       y2="12.1812"
       gradientUnits="userSpaceOnUse"><stop
         stop-color="#7988E8"
         id="stop2377" /><stop
         offset="1"
         stop-color="#DB89DF"
         id="stop2379" /></linearGradient><linearGradient
       id="paint0_linear_648_1786"
       x1="60.1996"
       y1="68.219498"
       x2="9.3920002"
       y2="69.580597"
       gradientUnits="userSpaceOnUse"><stop
         stop-color="#7988E8"
         id="stop2428" /><stop
         offset="1"
         stop-color="#DB89DF"
         id="stop2430" /></linearGradient><linearGradient
       id="paint1_linear_648_1786"
       x1="40.433201"
       y1="70.158401"
       x2="29.884001"
       y2="70.343597"
       gradientUnits="userSpaceOnUse"><stop
         stop-color="#7988E8"
         id="stop2433" /><stop
         offset="1"
         stop-color="#DB89DF"
         id="stop2435" /></linearGradient><linearGradient
       id="paint2_linear_648_1786"
       x1="52.846001"
       y1="21.682899"
       x2="18.3505"
       y2="22.8599"
       gradientUnits="userSpaceOnUse"><stop
         stop-color="#7988E8"
         id="stop2438" /><stop
         offset="1"
         stop-color="#DB89DF"
         id="stop2440" /></linearGradient></defs><g
     inkscape:label="Layer 1"
     inkscape:groupmode="layer"
     id="layer1"><g
       style="display:none;fill:none"
       id="g2166"
       transform="matrix(0.39924044,0,0,0.39924044,0.64721884,1.736963)"><path
         d="m 125.229,24.4007 c 1.432,-0.3653 2.734,0.9362 2.369,2.369 L 114.91,76.543 c -0.373,1.4635 -2.197,1.9643 -3.265,0.8964 L 74.5589,40.3533 C 73.491,39.2854 73.9918,37.461 75.4553,37.088 Z"
         stroke="url(#paint0_linear_648_1768)"
         stroke-width="2"
         id="path2138"
         style="stroke:url(#paint0_linear_648_1768)" /><path
         d="M 1.64453,99.5 29.07,71.3888 c 1.136,-1.1643 3.0003,-1.1886 4.1662,-0.0542 l 23.0759,22.4523 c 1.1557,1.1244 3.0004,1.1118 4.1406,-0.0284 L 93.7742,60.437"
         stroke="url(#paint1_linear_648_1768)"
         stroke-width="2"
         stroke-linecap="round"
         stroke-linejoin="round"
         id="path2140"
         style="stroke:url(#paint1_linear_648_1768)" /></g><g
       style="display:none;fill:none"
       id="g2420"
       transform="matrix(0.42669366,0,0,0.42669366,0.6433669,1.9234479)"><rect
         x="1"
         y="50"
         width="23"
         height="64"
         rx="1"
         stroke="url(#paint0_linear_648_1773)"
         stroke-width="2"
         id="rect2326"
         style="stroke:url(#paint0_linear_648_1773)" /><circle
         cx="13.1569"
         cy="33.656898"
         r="11.6569"
         fill="url(#paint1_linear_648_1773)"
         id="circle2328"
         style="fill:url(#paint1_linear_648_1773)" /><path
         d="m 33,29.5 c 0,-0.5523 0.4477,-1 1,-1 h 21 c 0.5523,0 1,0.4477 1,1 V 113 c 0,0.552 -0.4477,1 -1,1 H 34 c -0.5523,0 -1,-0.448 -1,-1 z"
         stroke="url(#paint2_linear_648_1773)"
         stroke-width="2"
         id="path2330"
         style="stroke:url(#paint2_linear_648_1773)" /><circle
         cx="44.656898"
         cy="11.6569"
         r="11.6569"
         fill="url(#paint3_linear_648_1773)"
         id="circle2332"
         style="fill:url(#paint3_linear_648_1773)" /><rect
         x="65"
         y="50"
         width="23"
         height="64"
         rx="1"
         stroke="url(#paint4_linear_648_1773)"
         stroke-width="2"
         id="rect2334"
         style="stroke:url(#paint4_linear_648_1773)" /><circle
         cx="76.656898"
         cy="33.656898"
         r="11.6569"
         fill="url(#paint5_linear_648_1773)"
         id="circle2336"
         style="fill:url(#paint5_linear_648_1773)" /><path
         d="m 97,29.5 c 0,-0.5523 0.4477,-1 1,-1 h 21 c 0.552,0 1,0.4477 1,1 V 113 c 0,0.552 -0.448,1 -1,1 H 98 c -0.5523,0 -1,-0.448 -1,-1 z"
         stroke="url(#paint6_linear_648_1773)"
         stroke-width="2"
         id="path2338"
         style="stroke:url(#paint6_linear_648_1773)" /><circle
         cx="108.657"
         cy="11.6569"
         r="11.6569"
         fill="url(#paint7_linear_648_1773)"
         id="circle2340"
         style="fill:url(#paint7_linear_648_1773)" /></g><g
       style="display:inline;fill:none"
       id="g2461"
       transform="matrix(0.4786437,0,0,0.4786437,9.5833534,0.57589374)"><path
         d="M 0.999756,48.8292 V 87.6097 L 35.2598,107 69.5119,87.6097 V 48.8292 L 35.2598,29.439 Z"
         stroke="url(#paint0_linear_648_1786)"
         stroke-width="2"
         stroke-miterlimit="10"
         id="path2422"
         style="stroke:url(#paint0_linear_648_1786)" /><path
         fill-rule="evenodd"
         clip-rule="evenodd"
         d="m 39.7812,70.4719 c 1.5787,-1.3041 2.5848,-3.2767 2.5848,-5.4842 0,-3.9266 -3.1832,-7.1098 -7.1098,-7.1098 -3.9266,0 -7.1097,3.1832 -7.1097,7.1098 0,2.2081 1.0066,4.1811 2.5859,5.4851 v 11.9661 h 9.0488 z"
         fill="url(#paint1_linear_648_1786)"
         id="path2424"
         style="fill:url(#paint1_linear_648_1786)" /><path
         d="M 59.1714,42.3659 V 24.2683 C 59.1714,11.4176 48.7538,1 35.9031,1 23.0523,1 12.6348,11.4176 12.6348,24.2683 v 18.0976"
         stroke="url(#paint2_linear_648_1786)"
         stroke-width="2"
         id="path2426"
         style="stroke:url(#paint2_linear_648_1786)" /></g></g></svg>
