<svg width="117" height="141" viewBox="0 0 117 141" fill="none" xmlns="http://www.w3.org/2000/svg">
<path d="M45.2033 67.6232C44.7022 68.4623 43.8164 68.5089 43.257 67.7048L32.232 52.0645C31.6726 51.2604 32.0105 50.5145 33.0128 50.4213L55.1445 48.1837C56.1351 48.0788 56.543 48.6848 56.0302 49.5356L45.1916 67.6232H45.2033Z" fill="#2CEDFC"/>
<path d="M55.6263 44.5598C56.279 45.3056 55.9993 45.9816 55.0086 46.0981L32.5506 48.3591C31.56 48.464 30.9423 47.7647 31.1987 46.8207L36.8161 25.4816C37.0609 24.5376 37.7951 24.3744 38.4478 25.0969L55.638 44.5482L55.6263 44.5598Z" fill="#2CEDFC"/>
<path d="M71.7585 62.8457C72.4112 63.5915 72.1431 64.3491 71.1641 64.5589L48.3099 69.2556C47.3309 69.4537 46.9347 68.9409 47.4591 68.0901L58.2278 50.1074C58.7289 49.2683 59.6729 49.1868 60.3256 49.921L71.7469 62.8457H71.7585Z" fill="#2CEDFC"/>
<path d="M62.2331 44.3265C61.3008 44.6878 60.753 44.2099 60.9977 43.2659L66.5336 22.253C66.7783 21.309 67.5941 21.0876 68.3284 21.7519L82.5351 34.6883C83.2693 35.3526 83.1178 36.1917 82.1738 36.553L62.2214 44.3265H62.2331Z" fill="#2CEDFC"/>
<path d="M75.2161 61.1444C74.8782 62.0534 74.0507 62.2049 73.398 61.459L61.9767 48.5226C61.3241 47.7767 61.5572 46.8794 62.4779 46.5181L82.3136 38.7912C83.246 38.4299 83.7122 38.8845 83.3742 39.7935L75.2278 61.1444H75.2161Z" fill="#2CEDFC"/>
<path d="M63.4618 16.2166C64.0212 17.0207 63.6832 17.7666 62.681 17.8598L40.5493 20.0975C39.5587 20.2024 39.1507 19.5964 39.6635 18.7456L50.5021 0.657939C51.0032 -0.181177 51.889 -0.227768 52.4484 0.576386L63.4735 16.2166H63.4618Z" fill="#2CEDFC"/>
<path d="M58.8916 42.8002C58.6468 43.7442 57.9126 43.9073 57.2599 43.1847L40.093 23.7336C39.4404 22.9877 39.7201 22.3117 40.7107 22.1952L63.1687 19.9342C64.1593 19.8294 64.777 20.5286 64.5206 21.4726L58.8799 42.8118L58.8916 42.8002Z" fill="#2CEDFC"/>
<path d="M28.6834 106.2V140.367H25.1168V124.602H3.75221V140.367H0.13916V106.2H3.75221V121.431H25.1284V106.2H28.695H28.6834Z" fill="#7A89E9"/>
<path d="M44.4027 125.764V106.2H48.0158V125.625C48.0158 133.722 51.8263 137.44 58.4599 137.44C65.0935 137.44 68.9505 133.734 68.9505 125.625V106.2H72.459V125.764C72.459 135.569 67.1847 140.646 58.4483 140.646C49.7119 140.646 44.3911 135.569 44.3911 125.764H44.4027Z" fill="#7A89E9"/>
<path d="M116.766 131.236C116.766 137.045 112.467 140.367 103.928 140.367H88.2097V106.2H102.952C110.562 106.2 114.953 109.418 114.953 114.983C114.953 118.887 112.85 121.477 109.737 122.744C114.128 123.719 116.766 126.601 116.766 131.236ZM91.8344 109.174V121.57H102.72C108.192 121.57 111.363 119.467 111.363 115.378C111.363 111.289 108.192 109.186 102.72 109.186H91.8344V109.174ZM113.164 130.945C113.164 126.508 109.9 124.556 103.893 124.556H91.8344V137.393H103.893C109.9 137.393 113.164 135.441 113.164 130.957V130.945Z" fill="#7A89E9"/>
<path d="M0.000488281 91.8408H1.8012V100.031H6.87806V101.553H0.000488281V91.8408Z" fill="#7A89E9"/>
<path d="M13.9414 91.8408H15.7421V101.553H13.9414V91.8408Z" fill="#7A89E9"/>
<path d="M34.2602 102.529C33.6213 103.284 32.75 103.679 31.716 103.679C30.4032 103.679 29.4157 103.168 27.9868 101.669C25.2683 101.437 23.3049 99.392 23.3049 96.6967C23.3049 93.8272 25.5239 91.7012 28.5328 91.7012C31.5417 91.7012 33.7607 93.8156 33.7607 96.6967C33.7607 99.0434 32.2853 100.879 30.1244 101.483C30.6821 102.076 31.1816 102.308 31.7509 102.308C32.3898 102.308 32.9475 102.041 33.4122 101.53L34.2486 102.529H34.2602ZM28.5444 100.112C30.4962 100.112 31.96 98.6833 31.96 96.6967C31.96 94.7101 30.5078 93.2812 28.5444 93.2812C26.5811 93.2812 25.1289 94.7101 25.1289 96.6967C25.1289 98.6833 26.5811 100.112 28.5444 100.112Z" fill="#7A89E9"/>
<path d="M41.2423 97.3243V91.8408H43.043V97.2546C43.043 99.2528 43.9492 100.112 45.5176 100.112C47.0859 100.112 47.9689 99.2528 47.9689 97.2546V91.8408H49.7463V97.3243C49.7463 100.159 48.1547 101.692 45.4943 101.692C42.8339 101.692 41.2307 100.147 41.2307 97.3243H41.2423Z" fill="#7A89E9"/>
<path d="M57.9026 91.8408H59.7033V101.553H57.9026V91.8408Z" fill="#7A89E9"/>
<path d="M67.9624 91.8408H72.2144C75.3628 91.8408 77.512 93.7809 77.512 96.6969C77.512 99.6129 75.3628 101.553 72.2144 101.553H67.9624V91.8408ZM72.1331 100.031C74.2939 100.031 75.6997 98.7184 75.6997 96.6969C75.6997 94.6755 74.2939 93.3627 72.1331 93.3627H69.7747V100.02H72.1331V100.031Z" fill="#7A89E9"/>
<path d="M85.0601 91.8408H86.8608V101.553H85.0601V91.8408Z" fill="#7A89E9"/>
<path d="M97.0867 93.3627H93.8687V91.8408H102.117V93.3627H98.899V101.553H97.0983V93.3627H97.0867Z" fill="#7A89E9"/>
<path d="M113.165 98.1259V101.553H111.365V98.1491L107.542 91.8408H109.471L112.317 96.5691L115.187 91.8408H116.964L113.165 98.1259Z" fill="#7A89E9"/>
</svg>
