<svg width="519" height="504" viewBox="0 0 519 504" fill="none" xmlns="http://www.w3.org/2000/svg">
  <path
    d="M148.924 321.955C147.452 327.519 142.669 328.866 138.437 324.917L54.4472 248.45C50.1235 244.501 51.0434 239.565 56.563 237.411L174.406 191.46C179.926 189.306 183.146 192.178 181.674 197.742L148.924 321.955Z"
    fill="url(#paint0_linear_648_1559)" />
  <path
    d="M79.5613 394.652C75.0537 398.421 70.546 396.895 69.5341 391.152L46.5358 266.849C45.5239 261.195 48.1917 259.759 52.5153 263.708L132.457 336.494C136.781 340.443 136.689 346.726 132.181 350.495L79.5613 394.652Z"
    fill="url(#paint1_linear_648_1559)" />
  <path
    d="M175.97 166.689C179.834 171.087 178.454 176.382 173.026 178.536L55.8271 224.218C50.3075 226.372 47.5477 223.68 49.5715 218.295L97.684 92.1073C99.7078 86.7223 104.583 85.8248 108.447 90.2225L175.97 166.689Z"
    fill="url(#paint2_linear_648_1559)" />
  <path
    d="M53.2513 373.471C54.2632 379.125 52.5153 379.843 49.2956 374.997L3.85093 306.518C0.631165 301.672 0.907143 293.953 4.40288 289.286L24.7334 262.72C28.2291 258.143 32.0009 258.951 33.1048 264.605L53.2513 373.471Z"
    fill="url(#paint3_linear_648_1559)" />
  <path
    d="M38.9003 210.576C36.8765 215.961 33.6567 215.961 31.7249 210.486L16.178 165.073C14.3381 159.599 16.362 151.97 20.7777 148.111L76.1576 99.1974C80.5733 95.3382 82.4131 96.5947 80.3893 101.98L38.9003 210.576Z"
    fill="url(#paint4_linear_648_1559)" />
  <path
    d="M24.2734 228.077C26.1133 233.552 24.8254 241.809 21.2376 246.386L5.41481 267.208C1.91907 271.785 -0.472753 270.888 0.079206 265.144L7.71464 192.985C8.35859 187.241 10.3824 187.062 12.2223 192.537L24.2734 228.077Z"
    fill="url(#paint5_linear_648_1559)" />
  <path
    d="M86.7368 65.6313C88.6686 67.875 86.7368 72.8112 82.3211 76.7602L57.483 98.7487C53.0673 102.608 52.4233 101.98 55.9191 97.4025L76.8015 70.029C80.2973 65.362 84.8049 63.3875 86.7368 65.6313Z"
    fill="url(#paint6_linear_648_1559)" />
  <path
    d="M243.861 449.578C240.917 454.514 235.674 454.784 232.362 450.027L167.231 357.585C163.919 352.829 165.943 348.431 171.83 347.892L302.645 334.699C308.532 334.071 310.924 337.661 307.888 342.687L243.861 449.578Z"
    fill="url(#paint7_linear_648_1559)" />
  <path
    d="M216.631 449.668C219.943 454.425 218.103 456.758 212.583 454.963L89.9565 414.307C84.345 412.422 83.425 407.845 87.9327 404.075L140.461 359.919C144.968 356.149 151.316 356.957 154.72 361.714L216.631 449.668Z"
    fill="url(#paint8_linear_648_1559)" />
  <path
    d="M305.405 313.249C309.268 317.647 307.612 321.686 301.725 322.314L168.979 335.687C163.091 336.315 159.503 332.186 160.975 326.622L194.185 200.524C195.657 194.96 199.98 193.973 203.844 198.281L305.405 313.249Z"
    fill="url(#paint9_linear_648_1559)" />
  <path
    d="M400.71 421.307C404.573 425.705 403.009 430.192 397.214 431.449L262.168 459.181C256.372 460.348 254.072 457.297 257.108 452.271L320.767 346.008C323.711 341.072 329.323 340.533 333.187 344.931L400.71 421.307Z"
    fill="url(#paint10_linear_648_1559)" />
  <path
    d="M183.514 492.209C178.27 494.902 170.451 494.004 166.035 490.235L103.296 436.206C98.8799 432.346 99.7998 430.821 105.411 432.616L212.675 468.156C218.287 470.041 218.563 473.721 213.411 476.503L183.514 492.209Z"
    fill="url(#paint11_linear_648_1559)" />
  <path
    d="M329.139 497.325C324.539 501.005 316.536 501.812 311.2 499.21L267.503 477.49C262.26 474.888 262.628 471.746 268.423 470.579L384.795 446.706C390.59 445.54 391.602 447.514 387.003 451.194L329.139 497.325Z"
    fill="url(#paint12_linear_648_1559)" />
  <path
    d="M207.34 499.927C201.452 499.658 200.9 497.235 206.052 494.453L229.51 482.157C234.754 479.465 243.309 479.375 248.553 481.978L282.774 498.94C288.018 501.543 287.558 503.517 281.578 503.248L207.34 499.927Z"
    fill="url(#paint13_linear_648_1559)" />
  <path
    d="M422.512 445.899C424.444 448.142 421.868 452.181 416.624 454.873L385.807 470.939C380.563 473.631 380.103 472.913 384.611 469.233L410.645 448.501C415.152 444.822 420.488 443.655 422.512 445.899Z"
    fill="url(#paint14_linear_648_1559)" />
  <path
    d="M344.502 311.903C338.982 314.057 335.762 311.185 337.234 305.621L369.984 181.408C371.456 175.843 376.239 174.497 380.563 178.446L464.553 254.912C468.876 258.861 467.957 263.797 462.437 265.951L344.502 311.903Z"
    fill="url(#paint15_linear_648_1559)" />
  <path
    d="M472.464 236.514C473.476 242.168 470.808 243.604 466.485 239.655L386.543 166.868C382.219 162.919 382.311 156.637 386.819 152.867L439.347 108.711C443.854 104.941 448.362 106.467 449.374 112.211L472.464 236.514Z"
    fill="url(#paint16_linear_648_1559)" />
  <path
    d="M421.224 411.255C419.2 416.64 414.325 417.538 410.461 413.14L342.938 336.674C339.074 332.276 340.454 326.981 345.882 324.827L463.081 279.145C468.601 276.991 471.36 279.683 469.337 285.068L421.224 411.255Z"
    fill="url(#paint17_linear_648_1559)" />
  <path
    d="M515.057 196.845C518.277 201.691 518.001 209.409 514.505 214.076L494.175 240.552C490.679 245.13 486.907 244.322 485.803 238.668L465.657 129.892C464.645 124.237 466.393 123.519 469.612 128.366L515.057 196.845Z"
    fill="url(#paint18_linear_648_1559)" />
  <path
    d="M502.638 338.379C504.478 343.854 502.454 351.482 498.038 355.342L442.658 404.255C438.243 408.114 436.403 406.858 438.427 401.473L479.916 292.786C481.94 287.402 485.159 287.401 487.091 292.876L502.638 338.379Z"
    fill="url(#paint19_linear_648_1559)" />
  <path
    d="M511.285 310.288C510.641 316.031 508.618 316.211 506.778 310.736L494.635 275.196C492.795 269.721 494.175 261.464 497.67 256.887L513.585 236.065C517.081 231.488 519.473 232.385 518.921 238.129L511.285 310.288Z"
    fill="url(#paint20_linear_648_1559)" />
  <path
    d="M442.107 433.334C438.611 438.001 434.103 439.885 432.079 437.731C430.147 435.488 432.079 430.551 436.495 426.602L461.425 404.614C465.841 400.755 466.485 401.383 462.989 405.96L442.107 433.334Z"
    fill="url(#paint21_linear_648_1559)" />
  <path
    d="M351.677 145.777C354.989 150.534 352.965 154.932 347.078 155.47L216.263 168.663C210.376 169.292 207.984 165.702 211.02 160.676L275.047 53.7843C277.991 48.8481 283.234 48.5789 286.546 53.3356L351.677 145.777Z"
    fill="url(#paint22_linear_648_1559)" />
  <path
    d="M378.447 143.444C373.94 147.213 367.592 146.406 364.188 141.649L302.277 53.6946C298.965 48.9379 300.805 46.6044 306.325 48.3994L428.952 89.0558C434.563 90.9405 435.483 95.5177 430.975 99.2872L378.447 143.444Z"
    fill="url(#paint23_linear_648_1559)" />
  <path
    d="M324.723 302.838C323.251 308.403 318.928 309.39 315.064 305.082L213.595 190.113C209.732 185.716 211.388 181.677 217.275 181.049L350.021 167.676C355.909 167.048 359.497 171.176 358.025 176.741L324.723 302.838Z"
    fill="url(#paint24_linear_648_1559)" />
  <path
    d="M198.141 157.445C195.197 162.381 189.585 162.919 185.721 158.522L118.198 82.0553C114.335 77.6576 115.899 73.1702 121.694 71.9137L256.74 44.1812C262.536 43.0145 264.836 46.0659 261.8 51.0919L198.141 157.445Z"
    fill="url(#paint25_linear_648_1559)" />
  <path
    d="M306.233 35.2063C300.621 33.3215 300.345 29.6418 305.497 26.8596L335.394 11.2432C340.638 8.55077 348.457 9.44826 352.965 13.2177L415.612 67.2467C420.028 71.1059 419.108 72.6317 413.497 70.8367L306.233 35.2063Z"
    fill="url(#paint26_linear_648_1559)" />
  <path
    d="M134.113 56.6563C128.318 57.8231 127.306 55.8486 131.905 52.1689L189.677 6.03779C194.277 2.35807 202.28 1.55033 207.616 4.15306L251.405 25.8724C256.648 28.4751 256.28 31.6163 250.485 32.783L134.113 56.6563Z"
    fill="url(#paint27_linear_648_1559)" />
  <path
    d="M289.49 21.1157C284.246 23.8081 275.691 23.8979 270.447 21.2951L236.226 4.33255C230.982 1.72983 231.442 -0.244654 237.422 0.024593L311.66 3.34531C317.548 3.61456 318.1 6.03779 312.948 8.82001L289.49 21.1157Z"
    fill="url(#paint28_linear_648_1559)" />
  <path
    d="M108.355 54.8613C103.756 58.5411 98.4199 59.7078 96.4881 57.4641C94.5562 55.2203 97.132 51.1816 102.376 48.4891L133.193 32.424C138.437 29.7316 138.897 30.4496 134.389 34.1293L108.355 54.8613Z"
    fill="url(#paint29_linear_648_1559)" />
  <path
    d="M68.7981 420.141C71.0979 418.256 76.1576 420.141 80.2053 424.448L102.744 448.771C106.699 453.079 106.055 453.707 101.364 450.296L73.2138 429.923C68.5221 426.513 66.4983 422.115 68.7981 420.141Z"
    fill="url(#paint30_linear_648_1559)" />
  <path
    d="M458.481 92.6457C460.781 90.761 464.921 93.274 467.681 98.3897L484.147 128.456C486.907 133.571 486.171 134.02 482.4 129.622L461.149 104.223C457.469 99.8257 456.273 94.5305 458.481 92.6457Z"
    fill="url(#paint31_linear_648_1559)" />
  <path
    d="M445.694 73.4394C450.478 76.8499 452.41 81.2476 450.202 83.2221C447.902 85.1068 442.842 83.2221 438.795 78.9141L416.256 54.5921C412.301 50.2841 412.945 49.6559 417.636 53.0664L445.694 73.4394Z"
    fill="url(#paint32_linear_648_1559)" />
  <path
    d="M57.7589 399.139C61.5306 403.627 62.7266 408.832 60.4267 410.717C58.1269 412.602 53.9872 410.089 51.2274 404.973L34.7606 374.907C32.0008 369.791 32.7368 369.343 36.5085 373.74L57.7589 399.139Z"
    fill="url(#paint33_linear_648_1559)" />
  <defs>
    <linearGradient id="paint0_linear_648_1559" x1="259.5" y1="2.22254e-08" x2="259.986"
      y2="613.036" gradientUnits="userSpaceOnUse">
      <stop stop-color="#DA88DE" />
      <stop offset="0.373617" stop-color="#5E75E8" />
      <stop offset="1" stop-color="#80C6EB" />
    </linearGradient>
    <linearGradient id="paint1_linear_648_1559" x1="259.5" y1="2.22254e-08" x2="259.986"
      y2="613.036" gradientUnits="userSpaceOnUse">
      <stop stop-color="#DA88DE" />
      <stop offset="0.373617" stop-color="#5E75E8" />
      <stop offset="1" stop-color="#80C6EB" />
    </linearGradient>
    <linearGradient id="paint2_linear_648_1559" x1="259.5" y1="2.22254e-08" x2="259.986"
      y2="613.036" gradientUnits="userSpaceOnUse">
      <stop stop-color="#DA88DE" />
      <stop offset="0.373617" stop-color="#5E75E8" />
      <stop offset="1" stop-color="#80C6EB" />
    </linearGradient>
    <linearGradient id="paint3_linear_648_1559" x1="259.5" y1="2.22254e-08" x2="259.986"
      y2="613.036" gradientUnits="userSpaceOnUse">
      <stop stop-color="#DA88DE" />
      <stop offset="0.373617" stop-color="#5E75E8" />
      <stop offset="1" stop-color="#80C6EB" />
    </linearGradient>
    <linearGradient id="paint4_linear_648_1559" x1="259.5" y1="2.22254e-08" x2="259.986"
      y2="613.036" gradientUnits="userSpaceOnUse">
      <stop stop-color="#DA88DE" />
      <stop offset="0.373617" stop-color="#5E75E8" />
      <stop offset="1" stop-color="#80C6EB" />
    </linearGradient>
    <linearGradient id="paint5_linear_648_1559" x1="259.5" y1="2.22254e-08" x2="259.986"
      y2="613.036" gradientUnits="userSpaceOnUse">
      <stop stop-color="#DA88DE" />
      <stop offset="0.373617" stop-color="#5E75E8" />
      <stop offset="1" stop-color="#80C6EB" />
    </linearGradient>
    <linearGradient id="paint6_linear_648_1559" x1="259.5" y1="2.22254e-08" x2="259.986"
      y2="613.036" gradientUnits="userSpaceOnUse">
      <stop stop-color="#DA88DE" />
      <stop offset="0.373617" stop-color="#5E75E8" />
      <stop offset="1" stop-color="#80C6EB" />
    </linearGradient>
    <linearGradient id="paint7_linear_648_1559" x1="259.5" y1="2.22254e-08" x2="259.986"
      y2="613.036" gradientUnits="userSpaceOnUse">
      <stop stop-color="#DA88DE" />
      <stop offset="0.373617" stop-color="#5E75E8" />
      <stop offset="1" stop-color="#80C6EB" />
    </linearGradient>
    <linearGradient id="paint8_linear_648_1559" x1="259.5" y1="2.22254e-08" x2="259.986"
      y2="613.036" gradientUnits="userSpaceOnUse">
      <stop stop-color="#DA88DE" />
      <stop offset="0.373617" stop-color="#5E75E8" />
      <stop offset="1" stop-color="#80C6EB" />
    </linearGradient>
    <linearGradient id="paint9_linear_648_1559" x1="259.5" y1="2.22254e-08" x2="259.986"
      y2="613.036" gradientUnits="userSpaceOnUse">
      <stop stop-color="#DA88DE" />
      <stop offset="0.373617" stop-color="#5E75E8" />
      <stop offset="1" stop-color="#80C6EB" />
    </linearGradient>
    <linearGradient id="paint10_linear_648_1559" x1="259.5" y1="2.22254e-08" x2="259.986"
      y2="613.036" gradientUnits="userSpaceOnUse">
      <stop stop-color="#DA88DE" />
      <stop offset="0.373617" stop-color="#5E75E8" />
      <stop offset="1" stop-color="#80C6EB" />
    </linearGradient>
    <linearGradient id="paint11_linear_648_1559" x1="259.5" y1="2.22254e-08" x2="259.986"
      y2="613.036" gradientUnits="userSpaceOnUse">
      <stop stop-color="#DA88DE" />
      <stop offset="0.373617" stop-color="#5E75E8" />
      <stop offset="1" stop-color="#80C6EB" />
    </linearGradient>
    <linearGradient id="paint12_linear_648_1559" x1="259.5" y1="2.22254e-08" x2="259.986"
      y2="613.036" gradientUnits="userSpaceOnUse">
      <stop stop-color="#DA88DE" />
      <stop offset="0.373617" stop-color="#5E75E8" />
      <stop offset="1" stop-color="#80C6EB" />
    </linearGradient>
    <linearGradient id="paint13_linear_648_1559" x1="259.5" y1="2.22254e-08" x2="259.986"
      y2="613.036" gradientUnits="userSpaceOnUse">
      <stop stop-color="#DA88DE" />
      <stop offset="0.373617" stop-color="#5E75E8" />
      <stop offset="1" stop-color="#80C6EB" />
    </linearGradient>
    <linearGradient id="paint14_linear_648_1559" x1="259.5" y1="2.22254e-08" x2="259.986"
      y2="613.036" gradientUnits="userSpaceOnUse">
      <stop stop-color="#DA88DE" />
      <stop offset="0.373617" stop-color="#5E75E8" />
      <stop offset="1" stop-color="#80C6EB" />
    </linearGradient>
    <linearGradient id="paint15_linear_648_1559" x1="259.5" y1="2.22254e-08" x2="259.986"
      y2="613.036" gradientUnits="userSpaceOnUse">
      <stop stop-color="#DA88DE" />
      <stop offset="0.373617" stop-color="#5E75E8" />
      <stop offset="1" stop-color="#80C6EB" />
    </linearGradient>
    <linearGradient id="paint16_linear_648_1559" x1="259.5" y1="2.22254e-08" x2="259.986"
      y2="613.036" gradientUnits="userSpaceOnUse">
      <stop stop-color="#DA88DE" />
      <stop offset="0.373617" stop-color="#5E75E8" />
      <stop offset="1" stop-color="#80C6EB" />
    </linearGradient>
    <linearGradient id="paint17_linear_648_1559" x1="259.5" y1="2.22254e-08" x2="259.986"
      y2="613.036" gradientUnits="userSpaceOnUse">
      <stop stop-color="#DA88DE" />
      <stop offset="0.373617" stop-color="#5E75E8" />
      <stop offset="1" stop-color="#80C6EB" />
    </linearGradient>
    <linearGradient id="paint18_linear_648_1559" x1="259.5" y1="2.22254e-08" x2="259.986"
      y2="613.036" gradientUnits="userSpaceOnUse">
      <stop stop-color="#DA88DE" />
      <stop offset="0.373617" stop-color="#5E75E8" />
      <stop offset="1" stop-color="#80C6EB" />
    </linearGradient>
    <linearGradient id="paint19_linear_648_1559" x1="259.5" y1="2.22254e-08" x2="259.986"
      y2="613.036" gradientUnits="userSpaceOnUse">
      <stop stop-color="#DA88DE" />
      <stop offset="0.373617" stop-color="#5E75E8" />
      <stop offset="1" stop-color="#80C6EB" />
    </linearGradient>
    <linearGradient id="paint20_linear_648_1559" x1="259.5" y1="2.22254e-08" x2="259.986"
      y2="613.036" gradientUnits="userSpaceOnUse">
      <stop stop-color="#DA88DE" />
      <stop offset="0.373617" stop-color="#5E75E8" />
      <stop offset="1" stop-color="#80C6EB" />
    </linearGradient>
    <linearGradient id="paint21_linear_648_1559" x1="259.5" y1="2.22254e-08" x2="259.986"
      y2="613.036" gradientUnits="userSpaceOnUse">
      <stop stop-color="#DA88DE" />
      <stop offset="0.373617" stop-color="#5E75E8" />
      <stop offset="1" stop-color="#80C6EB" />
    </linearGradient>
    <linearGradient id="paint22_linear_648_1559" x1="259.5" y1="2.22254e-08" x2="259.986"
      y2="613.036" gradientUnits="userSpaceOnUse">
      <stop stop-color="#DA88DE" />
      <stop offset="0.373617" stop-color="#5E75E8" />
      <stop offset="1" stop-color="#80C6EB" />
    </linearGradient>
    <linearGradient id="paint23_linear_648_1559" x1="259.5" y1="2.22254e-08" x2="259.986"
      y2="613.036" gradientUnits="userSpaceOnUse">
      <stop stop-color="#DA88DE" />
      <stop offset="0.373617" stop-color="#5E75E8" />
      <stop offset="1" stop-color="#80C6EB" />
    </linearGradient>
    <linearGradient id="paint24_linear_648_1559" x1="259.5" y1="2.22254e-08" x2="259.986"
      y2="613.036" gradientUnits="userSpaceOnUse">
      <stop stop-color="#DA88DE" />
      <stop offset="0.373617" stop-color="#5E75E8" />
      <stop offset="1" stop-color="#80C6EB" />
    </linearGradient>
    <linearGradient id="paint25_linear_648_1559" x1="259.5" y1="2.22254e-08" x2="259.986"
      y2="613.036" gradientUnits="userSpaceOnUse">
      <stop stop-color="#DA88DE" />
      <stop offset="0.373617" stop-color="#5E75E8" />
      <stop offset="1" stop-color="#80C6EB" />
    </linearGradient>
    <linearGradient id="paint26_linear_648_1559" x1="259.5" y1="2.22254e-08" x2="259.986"
      y2="613.036" gradientUnits="userSpaceOnUse">
      <stop stop-color="#DA88DE" />
      <stop offset="0.373617" stop-color="#5E75E8" />
      <stop offset="1" stop-color="#80C6EB" />
    </linearGradient>
    <linearGradient id="paint27_linear_648_1559" x1="259.5" y1="2.22254e-08" x2="259.986"
      y2="613.036" gradientUnits="userSpaceOnUse">
      <stop stop-color="#DA88DE" />
      <stop offset="0.373617" stop-color="#5E75E8" />
      <stop offset="1" stop-color="#80C6EB" />
    </linearGradient>
    <linearGradient id="paint28_linear_648_1559" x1="259.5" y1="2.22254e-08" x2="259.986"
      y2="613.036" gradientUnits="userSpaceOnUse">
      <stop stop-color="#DA88DE" />
      <stop offset="0.373617" stop-color="#5E75E8" />
      <stop offset="1" stop-color="#80C6EB" />
    </linearGradient>
    <linearGradient id="paint29_linear_648_1559" x1="259.5" y1="2.22254e-08" x2="259.986"
      y2="613.036" gradientUnits="userSpaceOnUse">
      <stop stop-color="#DA88DE" />
      <stop offset="0.373617" stop-color="#5E75E8" />
      <stop offset="1" stop-color="#80C6EB" />
    </linearGradient>
    <linearGradient id="paint30_linear_648_1559" x1="259.5" y1="2.22254e-08" x2="259.986"
      y2="613.036" gradientUnits="userSpaceOnUse">
      <stop stop-color="#DA88DE" />
      <stop offset="0.373617" stop-color="#5E75E8" />
      <stop offset="1" stop-color="#80C6EB" />
    </linearGradient>
    <linearGradient id="paint31_linear_648_1559" x1="259.5" y1="2.22254e-08" x2="259.986"
      y2="613.036" gradientUnits="userSpaceOnUse">
      <stop stop-color="#DA88DE" />
      <stop offset="0.373617" stop-color="#5E75E8" />
      <stop offset="1" stop-color="#80C6EB" />
    </linearGradient>
    <linearGradient id="paint32_linear_648_1559" x1="259.5" y1="2.22254e-08" x2="259.986"
      y2="613.036" gradientUnits="userSpaceOnUse">
      <stop stop-color="#DA88DE" />
      <stop offset="0.373617" stop-color="#5E75E8" />
      <stop offset="1" stop-color="#80C6EB" />
    </linearGradient>
    <linearGradient id="paint33_linear_648_1559" x1="259.5" y1="2.22254e-08" x2="259.986"
      y2="613.036" gradientUnits="userSpaceOnUse">
      <stop stop-color="#DA88DE" />
      <stop offset="0.373617" stop-color="#5E75E8" />
      <stop offset="1" stop-color="#80C6EB" />
    </linearGradient>
  </defs>
</svg>