<svg width="117" height="131" viewBox="0 0 117 131" fill="none" xmlns="http://www.w3.org/2000/svg">
<path d="M51.5519 23.6984C52.3328 24.5958 52.0531 25.668 50.9576 26.0992L27.1593 35.3761C26.0405 35.819 25.4811 35.2712 25.889 34.1757L35.6554 8.54767C36.0633 7.45216 37.0539 7.27736 37.8464 8.16309L51.5519 23.6867V23.6984Z" fill="#DA88DE"/>
<path d="M77.8485 53.4632C78.6293 54.3606 78.2914 55.1764 77.1026 55.3046L50.146 58.0201C48.9456 58.1483 48.223 57.3092 48.5261 56.1787L55.2739 30.574C55.5769 29.4435 56.451 29.2454 57.2319 30.1195L77.8485 53.4632Z" fill="#DA88DE"/>
<path d="M87.2375 19.4566C87.9135 20.4239 87.494 21.3097 86.3052 21.4262L59.7449 24.1067C58.5445 24.2349 58.0666 23.5007 58.6843 22.4868L71.6906 0.786299C72.285 -0.215979 73.3572 -0.274236 74.0215 0.693079L87.2492 19.4683L87.2375 19.4566Z" fill="#DA88DE"/>
<g clip-path="url(#clip0_648_1721)">
<path d="M28.7175 96.0811V130.29H25.1466V114.505H3.75609V130.29H0.138672V96.0811H3.75609V111.33H25.1582V96.0811H28.7291H28.7175Z" fill="#7A89E9"/>
<path d="M44.4569 115.68V96.0811H48.0744V115.529C48.0744 123.636 51.8895 127.358 58.5311 127.358C65.1728 127.358 69.0345 123.648 69.0345 115.529V96.0811H72.5472V115.669C72.5472 125.486 67.2665 130.569 58.5195 130.569C49.7726 130.569 44.4453 125.486 44.4453 115.669L44.4569 115.68Z" fill="#7A89E9"/>
<path d="M116.907 121.147C116.907 126.963 112.603 130.29 104.054 130.29H88.3164V96.0811H103.077C110.696 96.0811 115.092 99.303 115.092 104.875C115.092 108.783 112.987 111.377 109.87 112.644C114.266 113.621 116.907 116.506 116.907 121.147ZM91.9455 99.0587V111.47H102.844C108.323 111.47 111.498 109.364 111.498 105.27C111.498 101.176 108.323 99.0704 102.844 99.0704H91.9455V99.0587ZM113.289 120.856C113.289 116.413 110.021 114.459 104.007 114.459H91.9338V127.312H104.007C110.021 127.312 113.289 125.358 113.289 120.868V120.856Z" fill="#7A89E9"/>
<path d="M8.14015 85.1587C8.14015 87.2989 6.55826 88.6249 3.99931 88.6249H1.80094V91.4281H-0.00195312V81.7041H3.99931C6.55826 81.7041 8.14015 83.0068 8.14015 85.1587ZM6.32562 85.1587C6.32562 83.9374 5.49978 83.2278 3.91789 83.2278H1.80094V87.0895H3.91789C5.49978 87.0895 6.32562 86.38 6.32562 85.1587Z" fill="#7A89E9"/>
<path d="M21.2344 89.916V91.4281H13.9414V81.7041H21.0483V83.2162H15.7559V85.7403H20.4551V87.2291H15.7559V89.916H21.246H21.2344Z" fill="#7A89E9"/>
<path d="M33.6261 91.4281L31.6371 88.5784C31.5092 88.59 31.3929 88.59 31.2649 88.59H29.0666V91.4281H27.2637V81.7041H31.2649C33.8239 81.7041 35.4058 83.0068 35.4058 85.1587C35.4058 86.6359 34.6614 87.7176 33.3354 88.2294L35.5686 91.4281H33.6261ZM31.1719 83.2278H29.0549V87.1012H31.1719C32.7538 87.1012 33.5796 86.38 33.5796 85.1587C33.5796 83.9374 32.7538 83.2278 31.1719 83.2278Z" fill="#7A89E9"/>
<path d="M49.5601 85.1587C49.5601 87.2989 47.9782 88.6249 45.4192 88.6249H43.2209V91.4281H41.418V81.7041H45.4192C47.9782 81.7041 49.5601 83.0068 49.5601 85.1587ZM47.7339 85.1587C47.7339 83.9374 46.9081 83.2278 45.3262 83.2278H43.2092V87.0895H45.3262C46.9081 87.0895 47.7339 86.38 47.7339 85.1587Z" fill="#7A89E9"/>
<path d="M62.6582 89.916V91.4281H55.3652V81.7041H62.4721V83.2162H57.1798V85.7403H61.8789V87.2291H57.1798V89.916H62.6699H62.6582Z" fill="#7A89E9"/>
<path d="M70.6458 83.2278H67.4238V81.7041H75.6822V83.2278H72.4603V91.4281H70.6574V83.2278H70.6458Z" fill="#7A89E9"/>
<path d="M80.7812 87.1942V81.7041H82.5841V87.1244C82.5841 89.125 83.4913 89.9858 85.0616 89.9858C86.6318 89.9858 87.5158 89.125 87.5158 87.1244V81.7041H89.2955V87.1942C89.2955 90.0323 87.7019 91.5677 85.0383 91.5677C82.3747 91.5677 80.7695 90.0207 80.7695 87.1942H80.7812Z" fill="#7A89E9"/>
<path d="M101.913 89.1833H97.0512L96.0974 91.4398H94.2363L98.6098 81.7158H100.389L104.786 91.4398H102.902L101.925 89.1833H101.913ZM101.32 87.7642L99.4822 83.5071L97.6676 87.7642H101.32Z" fill="#7A89E9"/>
<path d="M110.019 81.7041H111.822V89.9044H116.905V91.4281H110.008V81.7041H110.019Z" fill="#7A89E9"/>
</g>
<defs>
<clipPath id="clip0_648_1721">
<rect width="116.909" height="48.8759" fill="white" transform="translate(0 81.7041)"/>
</clipPath>
</defs>
</svg>
