<svg xmlns="http://www.w3.org/2000/svg" width="24.999" height="22.487" viewBox="0 0 24.999 22.487"><defs><style>.a{fill:#53fffa;}</style></defs><path class="a" d="M21.923,28.757V28.44a2.71,2.71,0,0,0-5.42,0v.317H15.21V28.44a2.71,2.71,0,0,0-5.42,0v.317H8.5V28.44a2.71,2.71,0,0,0-5.42,0v.317H0V48.217H25V28.757Zm-3.955-.317a1.245,1.245,0,0,1,2.49,0v.317h-2.49Zm-6.714,0a1.245,1.245,0,0,1,2.49,0v.317h-2.49Zm-6.714,0a1.245,1.245,0,0,1,2.49,0v.317H4.541Zm2.49,1.782v1.367H5.371v1.465H8.5V30.222h5.249v1.367h-1.66v1.465H15.21V30.222h5.249v1.367H18.8v1.465h3.125V30.222h1.611v4.321H1.465V30.222ZM1.465,46.752V36.008h22.07V46.752Z" transform="translate(0 -25.73)"/><path class="a" d="M69.958,273.98h1.465v1.477H69.958Z" transform="translate(-66.542 -261.859)"/><path class="a" d="M138.375,273.98h1.465v1.477h-1.465Z" transform="translate(-131.619 -261.859)"/><path class="a" d="M206.792,273.98h1.465v1.477h-1.465Z" transform="translate(-196.695 -261.859)"/><path class="a" d="M275.208,273.98h1.465v1.477h-1.465Z" transform="translate(-261.77 -261.859)"/><path class="a" d="M343.625,273.98h1.465v1.477h-1.465Z" transform="translate(-326.847 -261.859)"/><path class="a" d="M412.042,273.98h1.465v1.477h-1.465Z" transform="translate(-391.923 -261.859)"/><path class="a" d="M69.958,329.661h1.465v1.477H69.958Z" transform="translate(-66.542 -314.821)"/><path class="a" d="M138.375,329.661h1.465v1.477h-1.465Z" transform="translate(-131.619 -314.821)"/><path class="a" d="M206.792,329.661h1.465v1.477h-1.465Z" transform="translate(-196.695 -314.821)"/><path class="a" d="M275.208,329.661h1.465v1.477h-1.465Z" transform="translate(-261.77 -314.821)"/><path class="a" d="M343.625,329.661h1.465v1.477h-1.465Z" transform="translate(-326.847 -314.821)"/><path class="a" d="M412.042,329.661h1.465v1.477h-1.465Z" transform="translate(-391.923 -314.821)"/><path class="a" d="M69.958,385.343h1.465v1.477H69.958Z" transform="translate(-66.542 -367.784)"/><path class="a" d="M138.375,385.343h1.465v1.477h-1.465Z" transform="translate(-131.619 -367.784)"/><path class="a" d="M206.792,385.343h1.465v1.477h-1.465Z" transform="translate(-196.695 -367.784)"/><path class="a" d="M275.208,385.343h1.465v1.477h-1.465Z" transform="translate(-261.77 -367.784)"/><path class="a" d="M343.625,385.343h1.465v1.477h-1.465Z" transform="translate(-326.847 -367.784)"/></svg>