<svg xmlns="http://www.w3.org/2000/svg" width="24.997" height="20.947" viewBox="0 0 24.997 20.947"><defs><style>.a{fill:#53fffa;}</style></defs><path class="a" d="M174.979,340.487h10.84v1.465h-10.84Z" transform="translate(-166.435 -325.887)"/><path class="a" d="M23.532,46.4v-2.93H12.752l-2.553-2H0v18.75a2.2,2.2,0,0,0,2.2,2.2H22.8a2.2,2.2,0,0,0,2.2-2.2V46.4ZM2.93,60.221a.732.732,0,0,1-1.465,0V42.936H9.693l2.553,2h9.822V46.4H2.93Zm20.6,0a.733.733,0,0,1-.732.732H4.269a2.188,2.188,0,0,0,.125-.732V47.868H23.532Z" transform="translate(0 -41.471)"/></svg>