<svg width="64" height="69" viewBox="0 0 64 69" fill="none" xmlns="http://www.w3.org/2000/svg">
<g clip-path="url(#clip0_5557_39533)">
<path d="M61.2437 47.2626C63.4724 42.1009 64.3719 36.4729 63.8618 30.8828C63.3516 25.2927 61.4477 19.9151 58.3206 15.2317C55.1935 10.5483 50.9408 6.70534 45.9435 4.04707C40.9462 1.38881 35.3604 -0.00173753 29.6864 1.62937e-06C29.3225 1.62937e-06 28.9734 0.143021 28.7161 0.397601C28.4587 0.65218 28.3141 0.997465 28.3141 1.3575V4.0707C28.3141 4.43073 28.4587 4.77601 28.7161 5.03059C28.9734 5.28517 29.3225 5.42819 29.6864 5.42819C30.0504 5.42819 30.3994 5.28517 30.6568 5.03059C30.9141 4.77601 31.0587 4.43073 31.0587 4.0707V2.74977C36.1096 2.9671 41.0338 4.38124 45.4172 6.87323C49.8005 9.36521 53.5147 12.8621 56.2473 17.0698C58.9798 21.2775 60.6509 26.0729 61.1198 31.0525C61.5887 36.032 60.8418 41.0502 58.9418 45.6848C57.1135 44.8135 55.0394 44.5857 53.0625 45.039C51.0855 45.4923 49.3242 46.5996 48.0699 48.1776C46.8155 49.7557 46.1432 51.71 46.1642 53.7173C46.1852 55.7247 46.8982 57.6648 48.1853 59.2169C43.1951 62.8178 37.2352 64.8696 31.0632 65.1116V63.8094C31.0632 63.4493 30.9186 63.104 30.6613 62.8495C30.4039 62.5949 30.0549 62.4519 29.6909 62.4519C29.327 62.4519 28.9779 62.5949 28.7206 62.8495C28.4632 63.104 28.3186 63.4493 28.3186 63.8094V66.5243C28.3186 66.8844 28.4632 67.2297 28.7206 67.4842C28.9779 67.7388 29.327 67.8818 29.6909 67.8818C37.128 67.9014 44.3657 65.5042 50.2915 61.0587C52.1565 62.2402 54.3994 62.6922 56.583 62.3265C58.7666 61.9608 60.7341 60.8036 62.102 59.0806C63.4698 57.3577 64.1398 55.1925 63.9813 53.0073C63.8227 50.8222 62.8471 48.7738 61.2446 47.2617L61.2437 47.2626ZM55.0801 59.736C53.8586 59.736 52.6645 59.3777 51.6488 58.7063C50.6331 58.035 49.8415 57.0808 49.374 55.9644C48.9066 54.848 48.7843 53.6196 49.0226 52.4344C49.2609 51.2493 49.8491 50.1607 50.7129 49.3062C51.5766 48.4518 52.6771 47.8699 53.8752 47.6342C55.0733 47.3984 56.3151 47.5194 57.4436 47.9818C58.5722 48.4442 59.5368 49.2273 60.2154 50.232C60.8941 51.2368 61.2563 52.418 61.2563 53.6264C61.2547 55.2462 60.6034 56.7993 59.4455 57.9447C58.2876 59.0901 56.7176 59.7343 55.0801 59.736Z" fill="url(#paint0_linear_5557_39533)"/>
<path d="M28.3186 34.3655C28.3186 34.7256 28.4632 35.0709 28.7205 35.3254C28.9779 35.58 29.3269 35.723 29.6909 35.723C30.0549 35.723 30.4039 35.58 30.6613 35.3254C30.9186 35.0709 31.0632 34.7256 31.0632 34.3655V32.5496C33.6737 32.3889 36.1241 31.2498 37.9153 29.3643C39.7064 27.4788 40.7036 24.9888 40.7036 22.4014C40.7036 19.814 39.7064 17.324 37.9153 15.4385C36.1241 13.553 33.6737 12.4139 31.0632 12.2532V10.3516C31.0632 9.99161 30.9186 9.64632 30.6613 9.39174C30.4039 9.13716 30.0549 8.99414 29.6909 8.99414C29.3269 8.99414 28.9779 9.13716 28.7205 9.39174C28.4632 9.64632 28.3186 9.99161 28.3186 10.3516V12.4236C25.9941 12.8933 23.905 14.1428 22.4047 15.9608C20.9044 17.7788 20.0849 20.0536 20.0849 22.4005C20.0849 24.7474 20.9044 27.0222 22.4047 28.8402C23.905 30.6582 25.9941 31.9078 28.3186 32.3775V34.3655ZM22.8285 22.4014C22.8285 20.9245 23.2713 19.4809 24.1007 18.2529C24.9301 17.0249 26.109 16.0679 27.4884 15.5027C28.8677 14.9375 30.3854 14.7896 31.8497 15.0778C33.314 15.3659 34.659 16.0771 35.7147 17.1214C36.7703 18.1656 37.4892 19.4962 37.7805 20.9446C38.0718 22.3931 37.9223 23.8945 37.351 25.2589C36.7796 26.6234 35.8121 27.7896 34.5708 28.6101C33.3294 29.4306 31.87 29.8685 30.377 29.8685C28.3752 29.8669 26.4559 29.0795 25.0403 27.6794C23.6248 26.2793 22.8286 24.3807 22.8267 22.4005L22.8285 22.4014Z" fill="url(#paint1_linear_5557_39533)"/>
<path d="M29.6891 50.6733C29.3251 50.6733 28.9761 50.8164 28.7187 51.0709C28.4614 51.3255 28.3168 51.6708 28.3168 52.0308V57.9175C28.3168 58.2775 28.4614 58.6228 28.7187 58.8774C28.9761 59.132 29.3251 59.275 29.6891 59.275C30.0531 59.275 30.4021 59.132 30.6595 58.8774C30.9168 58.6228 31.0614 58.2775 31.0614 57.9175V52.0308C31.0614 51.6708 30.9168 51.3255 30.6595 51.0709C30.4021 50.8164 30.0531 50.6733 29.6891 50.6733Z" fill="url(#paint2_linear_5557_39533)"/>
<path d="M31.0614 40.254C31.0614 39.8939 30.9168 39.5487 30.6595 39.2941C30.4021 39.0395 30.0531 38.8965 29.6891 38.8965C29.3251 38.8965 28.9761 39.0395 28.7187 39.2941C28.4614 39.5487 28.3168 39.8939 28.3168 40.254V46.1406C28.3168 46.5006 28.4614 46.8459 28.7187 47.1005C28.9761 47.3551 29.3251 47.4981 29.6891 47.4981C30.0531 47.4981 30.4021 47.3551 30.6595 47.1005C30.9168 46.8459 31.0614 46.5006 31.0614 46.1406V40.254Z" fill="url(#paint3_linear_5557_39533)"/>
<path d="M9.10292 1.35742C8.01709 1.35742 6.95564 1.67594 6.0528 2.27269C5.14997 2.86944 4.4463 3.71762 4.03077 4.70998C3.61524 5.70235 3.50651 6.79431 3.71835 7.8478C3.93018 8.90128 4.45306 9.86897 5.22086 10.6285C5.98866 11.388 6.96689 11.9053 8.03186 12.1148C9.09683 12.3244 10.2007 12.2168 11.2039 11.8058C12.2071 11.3947 13.0645 10.6986 13.6677 9.80552C14.271 8.91242 14.593 7.86241 14.593 6.78829C14.5904 5.34873 14.0111 3.96887 12.9821 2.95095C11.9531 1.93303 10.5582 1.36002 9.10292 1.35742ZM9.10292 9.50328C8.56017 9.50292 8.02972 9.34339 7.57861 9.04485C7.1275 8.74631 6.776 8.32216 6.56855 7.82603C6.36109 7.3299 6.307 6.78407 6.4131 6.25753C6.51921 5.73099 6.78075 5.24739 7.16466 4.86787C7.54856 4.48835 8.0376 4.22995 8.56995 4.12534C9.1023 4.02073 9.65405 4.07459 10.1554 4.28014C10.6568 4.48568 11.0854 4.83367 11.3869 5.28011C11.6884 5.72655 11.8493 6.25139 11.8493 6.78829C11.8486 7.50844 11.559 8.19887 11.044 8.70792C10.5291 9.21698 9.83092 9.50304 9.10292 9.50328Z" fill="url(#paint4_linear_5557_39533)"/>
<path d="M11.1614 57.5205C10.8539 57.5205 10.5534 57.6107 10.2978 57.7797C10.0421 57.9486 9.84291 58.1888 9.72526 58.4697C9.60761 58.7507 9.57682 59.0599 9.6368 59.3582C9.69678 59.6564 9.84482 59.9304 10.0622 60.1455C10.2796 60.3605 10.5566 60.507 10.8581 60.5663C11.1596 60.6256 11.4722 60.5952 11.7562 60.4788C12.0402 60.3624 12.283 60.1653 12.4538 59.9125C12.6246 59.6596 12.7158 59.3623 12.7158 59.0582C12.7158 58.6504 12.552 58.2593 12.2605 57.9709C11.969 57.6825 11.5736 57.5205 11.1614 57.5205Z" fill="url(#paint5_linear_5557_39533)"/>
<path d="M1.55442 65.6663C1.24699 65.6663 0.946456 65.7565 0.690832 65.9254C0.435209 66.0944 0.235973 66.3345 0.118322 66.6155C0.000671543 66.8965 -0.0301086 67.2056 0.0298692 67.5039C0.0898469 67.8022 0.23789 68.0762 0.45528 68.2912C0.67267 68.5063 0.949642 68.6527 1.25117 68.712C1.5527 68.7714 1.86524 68.7409 2.14928 68.6245C2.43331 68.5082 2.67607 68.3111 2.84688 68.0582C3.01768 67.8053 3.10884 67.508 3.10884 67.2039C3.10884 66.7961 2.94507 66.405 2.65356 66.1166C2.36205 65.8283 1.96668 65.6663 1.55442 65.6663Z" fill="url(#paint6_linear_5557_39533)"/>
<path d="M2.92674 50.7322C2.6193 50.7322 2.31877 50.8224 2.06315 50.9913C1.80752 51.1603 1.60829 51.4004 1.49064 51.6814C1.37299 51.9624 1.34221 52.2716 1.40218 52.5698C1.46216 52.8681 1.6102 53.1421 1.82759 53.3571C2.04498 53.5722 2.32196 53.7186 2.62349 53.778C2.92501 53.8373 3.23756 53.8068 3.52159 53.6905C3.80562 53.5741 4.04839 53.377 4.21919 53.1241C4.38999 52.8713 4.48116 52.574 4.48116 52.2698C4.48116 51.862 4.31739 51.4709 4.02588 51.1826C3.73437 50.8942 3.33899 50.7322 2.92674 50.7322Z" fill="url(#paint7_linear_5557_39533)"/>
</g>
<defs>
<linearGradient id="paint0_linear_5557_39533" x1="46.1591" y1="0" x2="46.1591" y2="67.882" gradientUnits="userSpaceOnUse">
<stop stop-color="#5E75E8"/>
<stop offset="1" stop-color="#DA88DE"/>
</linearGradient>
<linearGradient id="paint1_linear_5557_39533" x1="30.3942" y1="8.99414" x2="30.3942" y2="35.723" gradientUnits="userSpaceOnUse">
<stop stop-color="#5E75E8"/>
<stop offset="1" stop-color="#DA88DE"/>
</linearGradient>
<linearGradient id="paint2_linear_5557_39533" x1="29.6891" y1="50.6733" x2="29.6891" y2="59.275" gradientUnits="userSpaceOnUse">
<stop stop-color="#5E75E8"/>
<stop offset="1" stop-color="#DA88DE"/>
</linearGradient>
<linearGradient id="paint3_linear_5557_39533" x1="29.6891" y1="38.8965" x2="29.6891" y2="47.4981" gradientUnits="userSpaceOnUse">
<stop stop-color="#5E75E8"/>
<stop offset="1" stop-color="#DA88DE"/>
</linearGradient>
<linearGradient id="paint4_linear_5557_39533" x1="9.10292" y1="1.35742" x2="9.10292" y2="12.2192" gradientUnits="userSpaceOnUse">
<stop stop-color="#5E75E8"/>
<stop offset="1" stop-color="#DA88DE"/>
</linearGradient>
<linearGradient id="paint5_linear_5557_39533" x1="11.1614" y1="57.5205" x2="11.1614" y2="60.5958" gradientUnits="userSpaceOnUse">
<stop stop-color="#5E75E8"/>
<stop offset="1" stop-color="#DA88DE"/>
</linearGradient>
<linearGradient id="paint6_linear_5557_39533" x1="1.55442" y1="65.6663" x2="1.55442" y2="68.7416" gradientUnits="userSpaceOnUse">
<stop stop-color="#5E75E8"/>
<stop offset="1" stop-color="#DA88DE"/>
</linearGradient>
<linearGradient id="paint7_linear_5557_39533" x1="2.92674" y1="50.7322" x2="2.92674" y2="53.8075" gradientUnits="userSpaceOnUse">
<stop stop-color="#5E75E8"/>
<stop offset="1" stop-color="#DA88DE"/>
</linearGradient>
<clipPath id="clip0_5557_39533">
<rect width="64" height="68.7407" fill="white"/>
</clipPath>
</defs>
</svg>
