<svg width="68" height="67" viewBox="0 0 68 67" fill="none" xmlns="http://www.w3.org/2000/svg">
<g clip-path="url(#clip0_5557_39519)">
<path d="M67.85 60.8344C67.9518 60.6516 68.0036 60.4448 68 60.2352C67.9965 60.0256 67.9377 59.8208 67.8298 59.6416L35.0025 5.2935C34.8907 5.12987 34.7411 4.99608 34.5666 4.90366C34.3921 4.81123 34.1979 4.76294 34.0008 4.76294C33.8037 4.76294 33.6095 4.81123 33.435 4.90366C33.2605 4.99608 33.1109 5.12987 32.9991 5.2935L0.170258 59.6424C0.0615812 59.8216 0.0022782 60.0268 -0.00154245 60.2368C-0.00536311 60.4468 0.0464374 60.654 0.148522 60.8371C0.250606 61.0202 0.399284 61.1726 0.579242 61.2785C0.759199 61.3845 0.963928 61.4401 1.17234 61.4398H66.8277C67.0361 61.4395 67.2406 61.3833 67.4203 61.2769C67.6 61.1705 67.7483 61.0178 67.85 60.8344ZM34.0004 57.983L19.6728 34.2633H48.3272L34.0004 57.983ZM34.0004 8.18003L48.328 31.9005H19.672L34.0004 8.18003ZM3.2584 59.0705L17.586 35.3541L31.9144 59.0705H3.2584ZM36.0857 59.0705L50.414 35.3541L64.7416 59.0705H36.0857Z" fill="url(#paint0_linear_5557_39519)"/>
<path d="M46.8962 9.45201C47.8236 9.45201 48.7302 9.17487 49.5014 8.65565C50.2725 8.13642 50.8736 7.39843 51.2285 6.53498C51.5835 5.67153 51.6764 4.72141 51.4955 3.80475C51.3146 2.88809 50.8681 2.04605 50.2124 1.38513C49.5566 0.724204 48.7211 0.274068 47.8115 0.0916356C46.9019 -0.0907963 45.9591 0.00267163 45.1022 0.360218C44.2453 0.717765 43.5129 1.32333 42.9975 2.10035C42.4821 2.87737 42.207 3.79095 42.2068 4.72555C42.2081 5.97855 42.7025 7.17986 43.5817 8.06594C44.4608 8.95201 45.6528 9.45049 46.8962 9.45201ZM46.8962 2.36355C47.3599 2.36355 47.8132 2.50213 48.1988 2.76176C48.5844 3.02139 48.8849 3.39041 49.0624 3.82216C49.2399 4.25391 49.2863 4.72899 49.1958 5.18733C49.1054 5.64567 48.882 6.06669 48.5541 6.39713C48.2262 6.72758 47.8084 6.95262 47.3536 7.04379C46.8988 7.13496 46.4273 7.08817 45.9989 6.90933C45.5705 6.73049 45.2043 6.42764 44.9467 6.03908C44.689 5.65052 44.5515 5.19369 44.5515 4.72637C44.553 4.1001 44.8005 3.4999 45.2398 3.05698C45.6792 2.61407 46.2747 2.36446 46.8962 2.36273V2.36355Z" fill="url(#paint1_linear_5557_39519)"/>
<path d="M60.3798 6.65458C60.6424 6.65458 60.8992 6.57607 61.1176 6.42898C61.3361 6.2819 61.5063 6.07284 61.6068 5.82825C61.7072 5.58367 61.7335 5.31454 61.6822 5.05492C61.6309 4.7953 61.5043 4.55684 61.3185 4.36971C61.1327 4.18258 60.896 4.05519 60.6383 4.00364C60.3807 3.9521 60.1136 3.97872 59.871 4.08013C59.6283 4.18155 59.421 4.35321 59.2752 4.57339C59.1293 4.79358 59.0516 5.0524 59.0518 5.31712C59.052 5.67191 59.192 6.0121 59.441 6.2629C59.69 6.5137 60.0277 6.65458 60.3798 6.65458Z" fill="url(#paint2_linear_5557_39519)"/>
<path d="M56.8627 17.2874C57.1254 17.2874 57.3822 17.2089 57.6006 17.0618C57.819 16.9147 57.9892 16.7057 58.0897 16.4611C58.1902 16.2165 58.2165 15.9474 58.1652 15.6877C58.1139 15.4281 57.9873 15.1897 57.8015 15.0025C57.6157 14.8154 57.379 14.688 57.1213 14.6365C56.8637 14.5849 56.5966 14.6115 56.354 14.7129C56.1113 14.8144 55.904 14.986 55.7581 15.2062C55.6123 15.4264 55.5346 15.6852 55.5347 15.9499C55.5349 16.3047 55.675 16.6449 55.924 16.8957C56.173 17.1465 56.5107 17.2874 56.8627 17.2874Z" fill="url(#paint3_linear_5557_39519)"/>
<path d="M3.51703 63.7993H1.17234C0.861418 63.7993 0.563228 63.9238 0.343371 64.1453C0.123514 64.3669 0 64.6674 0 64.9807C0 65.2941 0.123514 65.5945 0.343371 65.8161C0.563228 66.0377 0.861418 66.1621 1.17234 66.1621H3.51703C3.82796 66.1621 4.12615 66.0377 4.346 65.8161C4.56586 65.5945 4.68938 65.2941 4.68938 64.9807C4.68938 64.6674 4.56586 64.3669 4.346 64.1453C4.12615 63.9238 3.82796 63.7993 3.51703 63.7993Z" fill="url(#paint4_linear_5557_39519)"/>
<path d="M12.8966 63.7993H8.20722C7.89629 63.7993 7.5981 63.9238 7.37825 64.1453C7.15839 64.3669 7.03487 64.6674 7.03487 64.9807C7.03487 65.2941 7.15839 65.5945 7.37825 65.8161C7.5981 66.0377 7.89629 66.1621 8.20722 66.1621H12.8966C13.2075 66.1621 13.5057 66.0377 13.7256 65.8161C13.9454 65.5945 14.0689 65.2941 14.0689 64.9807C14.0689 64.6674 13.9454 64.3669 13.7256 64.1453C13.5057 63.9238 13.2075 63.7993 12.8966 63.7993Z" fill="url(#paint5_linear_5557_39519)"/>
<path d="M50.4132 63.7993H45.7238C45.4129 63.7993 45.1147 63.9238 44.8949 64.1453C44.675 64.3669 44.5515 64.6674 44.5515 64.9807C44.5515 65.2941 44.675 65.5945 44.8949 65.8161C45.1147 66.0377 45.4129 66.1621 45.7238 66.1621H50.4132C50.7241 66.1621 51.0223 66.0377 51.2422 65.8161C51.462 65.5945 51.5856 65.2941 51.5856 64.9807C51.5856 64.6674 51.462 64.3669 51.2422 64.1453C51.0223 63.9238 50.7241 63.7993 50.4132 63.7993Z" fill="url(#paint6_linear_5557_39519)"/>
<path d="M41.0345 63.7993H36.3451C36.0342 63.7993 35.736 63.9238 35.5161 64.1453C35.2963 64.3669 35.1727 64.6674 35.1727 64.9807C35.1727 65.2941 35.2963 65.5945 35.5161 65.8161C35.736 66.0377 36.0342 66.1621 36.3451 66.1621H41.0345C41.3454 66.1621 41.6436 66.0377 41.8634 65.8161C42.0833 65.5945 42.2068 65.2941 42.2068 64.9807C42.2068 64.6674 42.0833 64.3669 41.8634 64.1453C41.6436 63.9238 41.3454 63.7993 41.0345 63.7993Z" fill="url(#paint7_linear_5557_39519)"/>
<path d="M59.7928 63.7993H55.1034C54.7925 63.7993 54.4943 63.9238 54.2744 64.1453C54.0546 64.3669 53.9311 64.6674 53.9311 64.9807C53.9311 65.2941 54.0546 65.5945 54.2744 65.8161C54.4943 66.0377 54.7925 66.1621 55.1034 66.1621H59.7928C60.1037 66.1621 60.4019 66.0377 60.6217 65.8161C60.8416 65.5945 60.9651 65.2941 60.9651 64.9807C60.9651 64.6674 60.8416 64.3669 60.6217 64.1453C60.4019 63.9238 60.1037 63.7993 59.7928 63.7993Z" fill="url(#paint8_linear_5557_39519)"/>
<path d="M22.2754 63.7993H17.586C17.275 63.7993 16.9769 63.9238 16.757 64.1453C16.5371 64.3669 16.4136 64.6674 16.4136 64.9807C16.4136 65.2941 16.5371 65.5945 16.757 65.8161C16.9769 66.0377 17.275 66.1621 17.586 66.1621H22.2754C22.5863 66.1621 22.8845 66.0377 23.1043 65.8161C23.3242 65.5945 23.4477 65.2941 23.4477 64.9807C23.4477 64.6674 23.3242 64.3669 23.1043 64.1453C22.8845 63.9238 22.5863 63.7993 22.2754 63.7993Z" fill="url(#paint9_linear_5557_39519)"/>
<path d="M31.6549 63.7993H26.9655C26.6546 63.7993 26.3564 63.9238 26.1366 64.1453C25.9167 64.3669 25.7932 64.6674 25.7932 64.9807C25.7932 65.2941 25.9167 65.5945 26.1366 65.8161C26.3564 66.0377 26.6546 66.1621 26.9655 66.1621H31.6549C31.9658 66.1621 32.264 66.0377 32.4839 65.8161C32.7037 65.5945 32.8272 65.2941 32.8272 64.9807C32.8272 64.6674 32.7037 64.3669 32.4839 64.1453C32.264 63.9238 31.9658 63.7993 31.6549 63.7993Z" fill="url(#paint10_linear_5557_39519)"/>
<path d="M66.8277 63.7993H64.483C64.172 63.7993 63.8739 63.9238 63.654 64.1453C63.4341 64.3669 63.3106 64.6674 63.3106 64.9807C63.3106 65.2941 63.4341 65.5945 63.654 65.8161C63.8739 66.0377 64.172 66.1621 64.483 66.1621H66.8277C67.1386 66.1621 67.4368 66.0377 67.6566 65.8161C67.8765 65.5945 68 65.2941 68 64.9807C68 64.6674 67.8765 64.3669 67.6566 64.1453C67.4368 63.9238 67.1386 63.7993 66.8277 63.7993Z" fill="url(#paint11_linear_5557_39519)"/>
</g>
<defs>
<linearGradient id="paint0_linear_5557_39519" x1="33.9992" y1="4.76294" x2="33.9992" y2="61.4398" gradientUnits="userSpaceOnUse">
<stop stop-color="#5E75E8"/>
<stop offset="1" stop-color="#DA88DE"/>
</linearGradient>
<linearGradient id="paint1_linear_5557_39519" x1="46.8962" y1="0.000732422" x2="46.8962" y2="9.45201" gradientUnits="userSpaceOnUse">
<stop stop-color="#5E75E8"/>
<stop offset="1" stop-color="#DA88DE"/>
</linearGradient>
<linearGradient id="paint2_linear_5557_39519" x1="60.3798" y1="3.97803" x2="60.3798" y2="6.65458" gradientUnits="userSpaceOnUse">
<stop stop-color="#5E75E8"/>
<stop offset="1" stop-color="#DA88DE"/>
</linearGradient>
<linearGradient id="paint3_linear_5557_39519" x1="56.8627" y1="14.6108" x2="56.8627" y2="17.2874" gradientUnits="userSpaceOnUse">
<stop stop-color="#5E75E8"/>
<stop offset="1" stop-color="#DA88DE"/>
</linearGradient>
<linearGradient id="paint4_linear_5557_39519" x1="2.34469" y1="63.7993" x2="2.34469" y2="66.1621" gradientUnits="userSpaceOnUse">
<stop stop-color="#5E75E8"/>
<stop offset="1" stop-color="#DA88DE"/>
</linearGradient>
<linearGradient id="paint5_linear_5557_39519" x1="10.5519" y1="63.7993" x2="10.5519" y2="66.1621" gradientUnits="userSpaceOnUse">
<stop stop-color="#5E75E8"/>
<stop offset="1" stop-color="#DA88DE"/>
</linearGradient>
<linearGradient id="paint6_linear_5557_39519" x1="48.0685" y1="63.7993" x2="48.0685" y2="66.1621" gradientUnits="userSpaceOnUse">
<stop stop-color="#5E75E8"/>
<stop offset="1" stop-color="#DA88DE"/>
</linearGradient>
<linearGradient id="paint7_linear_5557_39519" x1="38.6898" y1="63.7993" x2="38.6898" y2="66.1621" gradientUnits="userSpaceOnUse">
<stop stop-color="#5E75E8"/>
<stop offset="1" stop-color="#DA88DE"/>
</linearGradient>
<linearGradient id="paint8_linear_5557_39519" x1="57.4481" y1="63.7993" x2="57.4481" y2="66.1621" gradientUnits="userSpaceOnUse">
<stop stop-color="#5E75E8"/>
<stop offset="1" stop-color="#DA88DE"/>
</linearGradient>
<linearGradient id="paint9_linear_5557_39519" x1="19.9307" y1="63.7993" x2="19.9307" y2="66.1621" gradientUnits="userSpaceOnUse">
<stop stop-color="#5E75E8"/>
<stop offset="1" stop-color="#DA88DE"/>
</linearGradient>
<linearGradient id="paint10_linear_5557_39519" x1="29.3102" y1="63.7993" x2="29.3102" y2="66.1621" gradientUnits="userSpaceOnUse">
<stop stop-color="#5E75E8"/>
<stop offset="1" stop-color="#DA88DE"/>
</linearGradient>
<linearGradient id="paint11_linear_5557_39519" x1="65.6553" y1="63.7993" x2="65.6553" y2="66.1621" gradientUnits="userSpaceOnUse">
<stop stop-color="#5E75E8"/>
<stop offset="1" stop-color="#DA88DE"/>
</linearGradient>
<clipPath id="clip0_5557_39519">
<rect width="68" height="66.1622" fill="white"/>
</clipPath>
</defs>
</svg>
