<svg width="60" height="54" viewBox="0 0 60 54" fill="none" xmlns="http://www.w3.org/2000/svg">
<path d="M25.8553 18.5515C25.8553 18.3554 25.7874 18.1637 25.6601 18.0007C25.5328 17.8377 25.3519 17.7106 25.1403 17.6355C24.9286 17.5605 24.6957 17.5409 24.471 17.5791C24.2463 17.6174 24.0399 17.7118 23.878 17.8505C23.716 17.9891 23.6056 18.1658 23.561 18.3581C23.5163 18.5504 23.5392 18.7498 23.6269 18.931C23.7145 19.1121 23.863 19.267 24.0535 19.3759C24.244 19.4849 24.4679 19.543 24.697 19.543C25.0041 19.5429 25.2987 19.4384 25.5158 19.2525C25.733 19.0665 25.8551 18.8145 25.8553 18.5515Z" fill="url(#paint0_linear_5557_39506)"/>
<path d="M15.4847 2.90085C15.714 2.90096 15.9382 2.84286 16.1289 2.7339C16.3196 2.62493 16.4682 2.47 16.556 2.28871C16.6438 2.10741 16.6668 1.90789 16.6221 1.7154C16.5774 1.52291 16.4671 1.34609 16.3049 1.20731C16.1428 1.06854 15.9362 0.974043 15.7114 0.935783C15.4865 0.897522 15.2534 0.917216 15.0416 0.992373C14.8298 1.06753 14.6488 1.19477 14.5215 1.358C14.3942 1.52123 14.3263 1.71311 14.3264 1.90937C14.3266 2.17228 14.4487 2.42438 14.6659 2.61029C14.8831 2.79619 15.1776 2.9007 15.4847 2.90085Z" fill="url(#paint1_linear_5557_39506)"/>
<path d="M1.15964 22.8154C0.930386 22.8153 0.706245 22.8734 0.515566 22.9823C0.324886 23.0913 0.176236 23.2462 0.0884137 23.4274C0.000591711 23.6087 -0.0224553 23.8082 0.0221885 24.0007C0.0668322 24.1931 0.177161 24.37 0.339219 24.5088C0.501278 24.6476 0.707785 24.7421 0.932621 24.7804C1.15746 24.8188 1.39052 24.7991 1.60233 24.7241C1.81415 24.649 1.99519 24.5219 2.12257 24.3587C2.24995 24.1955 2.31794 24.0037 2.31794 23.8075C2.31794 23.5445 2.19593 23.2922 1.97872 23.1062C1.76152 22.9202 1.4669 22.8156 1.15964 22.8154Z" fill="url(#paint2_linear_5557_39506)"/>
<path d="M10.881 34.7556C12.0953 34.7556 13.2823 34.4474 14.292 33.8699C15.3016 33.2924 16.0886 32.4717 16.5533 31.5114C17.018 30.5511 17.1395 29.4944 16.9026 28.475C16.6657 27.4555 16.081 26.5191 15.2224 25.7841C14.3637 25.0492 13.2697 24.5486 12.0788 24.3459C10.8878 24.1431 9.65334 24.2471 8.53148 24.6449C7.40961 25.0427 6.45073 25.7163 5.7761 26.5805C5.10148 27.4448 4.74139 28.4608 4.74139 29.5002C4.74316 30.8936 5.39058 32.2294 6.54159 33.2147C7.69261 34.1999 9.25322 34.7541 10.881 34.7556ZM10.881 25.9967C11.6905 25.9967 12.4819 26.2021 13.155 26.5871C13.8281 26.9721 14.3527 27.5193 14.6625 28.1595C14.9723 28.7997 15.0534 29.5041 14.8954 30.1838C14.7375 30.8634 14.3477 31.4877 13.7752 31.9776C13.2028 32.4676 12.4735 32.8013 11.6795 32.9365C10.8855 33.0717 10.0626 33.0023 9.31465 32.7371C8.56674 32.4719 7.92749 32.0229 7.47774 31.4467C7.02798 30.8706 6.78793 30.1932 6.78793 29.5002C6.78899 28.5713 7.22056 27.6807 7.98793 27.0238C8.7553 26.367 9.79578 25.9976 10.881 25.9967Z" fill="url(#paint3_linear_5557_39506)"/>
<path d="M53.8604 24.2449C52.6461 24.2449 51.4591 24.5531 50.4494 25.1306C49.4398 25.708 48.6528 26.5288 48.1881 27.4891C47.7235 28.4494 47.6019 29.5061 47.8388 30.5255C48.0757 31.545 48.6604 32.4814 49.519 33.2163C50.3777 33.9513 51.4717 34.4518 52.6626 34.6546C53.8536 34.8574 55.0881 34.7533 56.2099 34.3556C57.3318 33.9578 58.2907 33.2842 58.9653 32.42C59.6399 31.5557 60 30.5396 60 29.5002C59.9982 28.1069 59.3508 26.771 58.1998 25.7858C57.0488 24.8006 55.4882 24.2464 53.8604 24.2449ZM53.8604 33.0038C53.0509 33.0038 52.2595 32.7983 51.5864 32.4134C50.9133 32.0284 50.3887 31.4812 50.0789 30.841C49.7691 30.2008 49.688 29.4964 49.846 28.8167C50.0039 28.1371 50.3937 27.5128 50.9662 27.0228C51.5386 26.5328 52.2679 26.1992 53.0619 26.064C53.8559 25.9288 54.6788 25.9982 55.4268 26.2634C56.1747 26.5285 56.8139 26.9776 57.2637 27.5538C57.7134 28.1299 57.9535 28.8073 57.9535 29.5002C57.9524 30.4292 57.5208 31.3198 56.7535 31.9766C55.9861 32.6335 54.9456 33.0029 53.8604 33.0038Z" fill="url(#paint4_linear_5557_39506)"/>
<path d="M53.859 42.6385C52.4094 42.6405 51.0072 43.0813 49.9006 43.8828C48.7939 44.6842 48.0539 45.7949 47.8114 47.0183H38.417C38.173 45.7966 37.4322 44.6882 36.3255 43.8891C35.2188 43.0899 33.8176 42.6516 32.3697 42.6516C30.9219 42.6516 29.5206 43.0899 28.4139 43.8891C27.3072 44.6882 26.5664 45.7966 26.3225 47.0183H16.9287C16.7753 46.2381 16.4169 45.498 15.8804 44.8538L28.8171 33.7802C29.998 34.5026 31.44 34.8428 32.8864 34.7404C34.3329 34.6381 35.69 34.0997 36.7162 33.2212C37.7425 32.3427 38.3713 31.181 38.4908 29.9429C38.6103 28.7047 38.2126 27.4705 37.3687 26.4597L50.3054 15.3862C51.3906 16.0464 52.6972 16.3864 54.0281 16.3551C55.3589 16.3238 56.6417 15.9227 57.6829 15.2125C58.7241 14.5022 59.467 13.5214 59.7997 12.4179C60.1324 11.3145 60.0367 10.1483 59.5271 9.09554C59.0174 8.04274 58.1215 7.16042 56.9746 6.58175C55.8277 6.00308 54.492 5.75947 53.1691 5.8877C51.8462 6.01593 50.6079 6.50904 49.6412 7.29259C48.6745 8.07613 48.0318 9.1076 47.8101 10.2313H38.417C38.173 9.00965 37.4322 7.90122 36.3255 7.10209C35.2188 6.30296 33.8176 5.86462 32.3697 5.86462C30.9219 5.86462 29.5206 6.30296 28.4139 7.10209C27.3072 7.90122 26.5664 9.00965 26.3225 10.2313H16.9287C16.6721 8.93199 15.8547 7.76261 14.6383 6.95488C13.422 6.14715 11.8956 5.76003 10.3615 5.87023C8.82747 5.98042 7.39776 6.5799 6.35572 7.54985C5.31368 8.51981 4.73535 9.78945 4.73535 11.1072C4.73535 12.4249 5.31368 13.6946 6.35572 14.6645C7.39776 15.6345 8.82747 16.2339 10.3615 16.3441C11.8956 16.4543 13.422 16.0672 14.6383 15.2595C15.8547 14.4518 16.6721 13.2824 16.9287 11.9831H26.3225C26.5664 13.2047 27.3072 14.3131 28.4139 15.1123C29.5206 15.9114 30.9219 16.3497 32.3697 16.3497C33.8176 16.3497 35.2188 15.9114 36.3255 15.1123C37.4322 14.3131 38.173 13.2047 38.417 11.9831H47.8114C47.9648 12.7632 48.3232 13.5033 48.8597 14.1476L35.923 25.2211C34.7422 24.4994 33.3006 24.1596 31.8547 24.2621C30.4087 24.3647 29.0522 24.9029 28.0262 25.781C27.0002 26.6592 26.3713 27.8203 26.2515 29.058C26.1316 30.2957 26.5284 31.5297 27.3714 32.5405L14.4347 43.614C13.3495 42.9538 12.0429 42.6137 10.712 42.6451C9.3812 42.6764 8.09839 43.0775 7.05723 43.7877C6.01608 44.498 5.27309 45.4788 4.94041 46.5823C4.60774 47.6857 4.70344 48.8518 5.21307 49.9046C5.7227 50.9574 6.61859 51.8398 7.76552 52.4184C8.91245 52.9971 10.2482 53.2407 11.5711 53.1125C12.8939 52.9843 14.1322 52.4912 15.0989 51.7076C16.0656 50.9241 16.7083 49.8926 16.93 48.7689H26.3231C26.5671 49.9905 27.3079 51.099 28.4146 51.8981C29.5213 52.6972 30.9225 53.1356 32.3704 53.1356C33.8183 53.1356 35.2195 52.6972 36.3262 51.8981C37.4329 51.099 38.1737 49.9905 38.4176 48.7689H47.8121C48.0081 49.7558 48.5296 50.6742 49.3151 51.4158C50.1006 52.1575 51.1174 52.6915 52.2456 52.955C53.3739 53.2184 54.5667 53.2004 55.6833 52.9029C56.8 52.6054 57.7941 52.0409 58.5484 51.2759C59.3027 50.511 59.7859 49.5773 59.941 48.5851C60.0961 47.5929 59.9166 46.5834 59.4238 45.6756C58.9309 44.7678 58.1451 43.9995 57.1591 43.4612C56.1731 42.9229 55.0278 42.637 53.8583 42.6374L53.859 42.6385ZM10.8811 14.6099C10.0716 14.6099 9.28022 14.4044 8.60712 14.0194C7.93402 13.6345 7.4094 13.0873 7.0996 12.4471C6.78981 11.8069 6.70875 11.1024 6.86668 10.4228C7.02462 9.74318 7.41444 9.11891 7.98687 8.62892C8.5593 8.13894 9.28861 7.80525 10.0826 7.67007C10.8766 7.53488 11.6995 7.60426 12.4475 7.86944C13.1954 8.13462 13.8346 8.58368 14.2844 9.15984C14.7341 9.736 14.9742 10.4134 14.9742 11.1063C14.9731 12.0353 14.5415 12.9259 13.7742 13.5827C13.0068 14.2396 11.9663 14.609 10.8811 14.6099ZM32.3701 14.6099C31.5605 14.6099 30.7692 14.4044 30.0961 14.0194C29.423 13.6345 28.8984 13.0873 28.5886 12.4471C28.2788 11.8069 28.1977 11.1024 28.3556 10.4228C28.5136 9.74318 28.9034 9.11891 29.4758 8.62892C30.0483 8.13894 30.7776 7.80525 31.5715 7.67007C32.3655 7.53488 33.1885 7.60426 33.9364 7.86944C34.6843 8.13462 35.3236 8.58368 35.7733 9.15984C36.2231 9.736 36.4631 10.4134 36.4631 11.1063C36.4621 12.0349 36.0309 12.9251 35.2641 13.5819C34.4973 14.2387 33.4575 14.6084 32.3727 14.6099H32.3701ZM53.859 7.60275C54.6685 7.60275 55.4599 7.80823 56.133 8.19321C56.8061 8.57818 57.3307 9.12537 57.6405 9.76556C57.9503 10.4058 58.0314 11.1102 57.8734 11.7898C57.7155 12.4695 57.3257 13.0937 56.7533 13.5837C56.1808 14.0737 55.4515 14.4074 54.6575 14.5426C53.8636 14.6778 53.0406 14.6084 52.2927 14.3432C51.5448 14.078 50.9055 13.629 50.4557 13.0528C50.006 12.4766 49.7659 11.7993 49.7659 11.1063C49.767 10.1774 50.1986 9.28677 50.966 8.62992C51.7333 7.97307 52.7738 7.60365 53.859 7.60275ZM32.3727 25.9968C33.1821 25.9973 33.9731 26.2031 34.6458 26.5883C35.3185 26.9734 35.8427 27.5207 36.1521 28.1608C36.4616 28.8009 36.5424 29.5052 36.3843 30.1847C36.2262 30.8641 35.8364 31.4882 35.2641 31.978C34.6917 32.4678 33.9626 32.8014 33.1688 32.9366C32.3751 33.0718 31.5523 33.0025 30.8045 32.7375C30.0567 32.4726 29.4175 32.0238 28.9676 31.4479C28.5177 30.872 28.2774 30.1949 28.277 29.5021C28.2775 28.5725 28.7092 27.6811 29.4772 27.0238C30.2452 26.3665 31.2867 25.9971 32.3727 25.9968ZM10.8838 51.3974C10.0742 51.3974 9.28289 51.192 8.60979 50.807C7.93669 50.422 7.41207 49.8748 7.10227 49.2346C6.79248 48.5944 6.71142 47.89 6.86935 47.2104C7.02728 46.5307 7.41711 45.9064 7.98954 45.4165C8.56196 44.9265 9.29128 44.5928 10.0853 44.4576C10.8792 44.3224 11.7022 44.3918 12.4501 44.657C13.198 44.9222 13.8373 45.3712 14.287 45.9474C14.7368 46.5235 14.9768 47.2009 14.9768 47.8939C14.9758 48.8232 14.5438 49.7142 13.7759 50.3711C13.008 51.028 11.9668 51.3971 10.8811 51.3974H10.8838ZM32.3727 51.3974C31.5632 51.3974 30.7718 51.192 30.0987 50.807C29.4256 50.422 28.901 49.8748 28.5912 49.2346C28.2814 48.5944 28.2004 47.89 28.3583 47.2104C28.5162 46.5307 28.9061 45.9064 29.4785 45.4165C30.0509 44.9265 30.7802 44.5928 31.5742 44.4576C32.3682 44.3224 33.1912 44.3918 33.9391 44.657C34.687 44.9222 35.3262 45.3712 35.776 45.9474C36.2257 46.5235 36.4658 47.2009 36.4658 47.8939C36.4647 48.8228 36.0332 49.7134 35.2658 50.3703C34.4984 51.0271 33.458 51.3965 32.3727 51.3974ZM53.8617 51.3974C53.0522 51.3974 52.2608 51.192 51.5877 50.807C50.9146 50.422 50.39 49.8748 50.0802 49.2346C49.7704 48.5944 49.6893 47.89 49.8473 47.2104C50.0052 46.5307 50.395 45.9064 50.9674 45.4165C51.5399 44.9265 52.2692 44.5928 53.0632 44.4576C53.8571 44.3224 54.6801 44.3918 55.428 44.657C56.1759 44.9222 56.8152 45.3712 57.2649 45.9474C57.7147 46.5235 57.9548 47.2009 57.9548 47.8939C57.9537 48.8228 57.5221 49.7134 56.7548 50.3703C55.9874 51.0271 54.9469 51.3965 53.8617 51.3974Z" fill="url(#paint5_linear_5557_39506)"/>
<defs>
<linearGradient id="paint0_linear_5557_39506" x1="24.697" y1="17.5601" x2="24.697" y2="19.543" gradientUnits="userSpaceOnUse">
<stop stop-color="#5E75E8"/>
<stop offset="1" stop-color="#DA88DE"/>
</linearGradient>
<linearGradient id="paint1_linear_5557_39506" x1="15.4854" y1="0.916748" x2="15.4854" y2="2.90085" gradientUnits="userSpaceOnUse">
<stop stop-color="#5E75E8"/>
<stop offset="1" stop-color="#DA88DE"/>
</linearGradient>
<linearGradient id="paint2_linear_5557_39506" x1="1.15897" y1="22.8154" x2="1.15897" y2="24.7995" gradientUnits="userSpaceOnUse">
<stop stop-color="#5E75E8"/>
<stop offset="1" stop-color="#DA88DE"/>
</linearGradient>
<linearGradient id="paint3_linear_5557_39506" x1="10.881" y1="24.2449" x2="10.881" y2="34.7556" gradientUnits="userSpaceOnUse">
<stop stop-color="#5E75E8"/>
<stop offset="1" stop-color="#DA88DE"/>
</linearGradient>
<linearGradient id="paint4_linear_5557_39506" x1="53.8604" y1="24.2449" x2="53.8604" y2="34.7556" gradientUnits="userSpaceOnUse">
<stop stop-color="#5E75E8"/>
<stop offset="1" stop-color="#DA88DE"/>
</linearGradient>
<linearGradient id="paint5_linear_5557_39506" x1="32.3653" y1="5.85181" x2="32.3653" y2="53.1458" gradientUnits="userSpaceOnUse">
<stop stop-color="#5E75E8"/>
<stop offset="1" stop-color="#DA88DE"/>
</linearGradient>
</defs>
</svg>
