<svg width="63" height="63" viewBox="0 0 63 63" fill="none" xmlns="http://www.w3.org/2000/svg">
<g clip-path="url(#clip0_5557_39544)">
<path d="M3.505 23.0965C3.65518 23.176 3.82182 23.2173 3.99088 23.2171C4.1875 23.2174 4.38038 23.162 4.54814 23.057C4.7159 22.952 4.85199 22.8016 4.94133 22.6222C5.55389 21.4007 6.25866 20.2299 7.04924 19.1207C7.21623 18.8865 7.28554 18.5941 7.24192 18.3077C7.19829 18.0213 7.04531 17.7643 6.81662 17.5934C6.58793 17.4224 6.30227 17.3515 6.02249 17.3961C5.7427 17.4408 5.4917 17.5974 5.32471 17.8315C4.46842 19.0334 3.70511 20.3019 3.04175 21.6254C2.97746 21.7531 2.93843 21.8925 2.92693 22.0356C2.91542 22.1787 2.93166 22.3228 2.97471 22.4595C3.01775 22.5962 3.08676 22.7229 3.17777 22.8322C3.26877 22.9415 3.37998 23.0313 3.505 23.0965Z" fill="url(#paint0_linear_5557_39544)"/>
<path d="M1.54628 39.8674C1.68495 39.8459 1.81811 39.7965 1.9381 39.7222C2.05809 39.6478 2.16256 39.5499 2.24549 39.4341C2.32843 39.3184 2.3882 39.1869 2.42138 39.0474C2.45456 38.9079 2.46048 38.763 2.43883 38.6212C2.23699 37.281 2.13552 35.9271 2.13532 34.5711V34.5159C2.13481 34.374 2.10674 34.2337 2.05274 34.1031C1.99874 33.9725 1.91988 33.8541 1.82077 33.755C1.72165 33.6559 1.60426 33.578 1.47543 33.5258C1.3466 33.4735 1.20891 33.4481 1.07038 33.4509C0.784833 33.4577 0.513286 33.5789 0.314138 33.7885C0.11499 33.9981 0.00414597 34.2794 0.00544339 34.5718C0.00549129 36.0393 0.115189 37.5047 0.333577 38.955C0.37181 39.213 0.499156 39.4484 0.692489 39.6184C0.885821 39.7885 1.13232 39.8819 1.3872 39.8817C1.44049 39.8808 1.49364 39.876 1.54628 39.8674Z" fill="url(#paint1_linear_5557_39544)"/>
<path d="M1.23132 31.3236C1.28722 31.3328 1.34376 31.3374 1.40038 31.3372C1.65436 31.3374 1.90006 31.2447 2.09314 31.0758C2.28622 30.9069 2.41397 30.6729 2.45334 30.416C2.66484 29.06 2.97996 27.7232 3.39581 26.4177C3.48407 26.1423 3.46185 25.8423 3.33403 25.5836C3.20621 25.325 2.98327 25.1289 2.71424 25.0386C2.44522 24.9482 2.15216 24.971 1.89952 25.1018C1.64688 25.2327 1.45536 25.4609 1.3671 25.7363C0.915361 27.1507 0.573736 28.5996 0.345427 30.0692C0.323046 30.211 0.328249 30.3559 0.360737 30.4956C0.393226 30.6353 0.452359 30.7671 0.53474 30.8833C0.617122 30.9996 0.721129 31.098 0.840785 31.173C0.96044 31.2479 1.09339 31.298 1.23199 31.3202L1.23132 31.3236Z" fill="url(#paint2_linear_5557_39544)"/>
<path d="M15.6692 11.2957C15.8375 11.2955 16.0033 11.2544 16.1531 11.1758C17.3488 10.5525 18.5909 10.0271 19.8677 9.60457C20.001 9.56041 20.1246 9.4898 20.2313 9.39677C20.3379 9.30373 20.4257 9.1901 20.4895 9.06235C20.5532 8.93461 20.5918 8.79525 20.603 8.65225C20.6142 8.50924 20.5977 8.36537 20.5546 8.22887C20.5114 8.09237 20.4425 7.9659 20.3516 7.85669C20.2607 7.74748 20.1497 7.65766 20.0249 7.59237C19.9001 7.52707 19.764 7.48758 19.6243 7.47614C19.4846 7.4647 19.3441 7.48153 19.2108 7.52569C17.8265 7.9838 16.4798 8.55339 15.1833 9.22913C14.9673 9.33894 14.794 9.52058 14.6919 9.74432C14.5899 9.96806 14.565 10.2206 14.6215 10.4607C14.6779 10.7008 14.8123 10.9142 15.0027 11.0659C15.193 11.2176 15.428 11.2986 15.6692 11.2957Z" fill="url(#paint3_linear_5557_39544)"/>
<path d="M48.4912 19.1603C48.6577 19.3946 48.9083 19.5517 49.1879 19.597C49.4675 19.6422 49.7532 19.5719 49.9821 19.4015C50.2111 19.231 50.3645 18.9745 50.4087 18.6883C50.4529 18.402 50.3842 18.1096 50.2178 17.8752C49.3623 16.6717 48.4165 15.5384 47.389 14.4853C47.2899 14.3839 47.1722 14.3034 47.0427 14.2485C46.9132 14.1935 46.7744 14.1653 46.6342 14.1653C46.4941 14.1653 46.3553 14.1935 46.2258 14.2485C46.0963 14.3034 45.9786 14.3839 45.8795 14.4853C45.7803 14.5868 45.7017 14.7073 45.6481 14.8398C45.5944 14.9724 45.5668 15.1145 45.5668 15.258C45.5668 15.4015 45.5944 15.5436 45.6481 15.6762C45.7017 15.8088 45.7803 15.9292 45.8795 16.0307C46.8279 17.0031 47.7011 18.0494 48.4912 19.1603Z" fill="url(#paint4_linear_5557_39544)"/>
<path d="M3.36522 42.6222C3.27837 42.3462 3.088 42.1169 2.83598 41.9846C2.58397 41.8524 2.29095 41.828 2.0214 41.9169C1.75185 42.0058 1.52784 42.2007 1.39865 42.4587C1.26946 42.7167 1.24567 43.0167 1.33252 43.2926C1.77922 44.7095 2.33426 46.0881 2.99249 47.4156C3.12056 47.6741 3.34366 47.8698 3.61271 47.9598C3.88177 48.0499 4.17473 48.0268 4.42716 47.8957C4.67959 47.7646 4.87081 47.5362 4.95874 47.2607C5.04668 46.9853 5.02413 46.6854 4.89606 46.427C4.28923 45.2017 3.77738 43.9295 3.36522 42.6222Z" fill="url(#paint5_linear_5557_39544)"/>
<path d="M23.6097 8.66903C23.6651 8.66885 23.7205 8.66453 23.7754 8.65609C25.0927 8.4463 26.4238 8.34106 27.7569 8.34129H27.7842C27.9235 8.34103 28.0613 8.31256 28.1897 8.25754C28.3182 8.20252 28.4347 8.12202 28.5327 8.02068C28.6306 7.91935 28.708 7.79918 28.7604 7.6671C28.8127 7.53502 28.8391 7.39364 28.8378 7.25109C28.8342 6.96029 28.7186 6.68271 28.5162 6.4786C28.3138 6.27449 28.041 6.16033 27.7569 6.16089C26.3135 6.16076 24.8722 6.27466 23.4459 6.50158C23.1708 6.53208 22.9181 6.67103 22.7413 6.889C22.5645 7.10696 22.4775 7.38682 22.4988 7.66929C22.5201 7.95176 22.6479 8.21466 22.8553 8.40229C23.0626 8.58992 23.3332 8.68755 23.6097 8.67449V8.66903Z" fill="url(#paint6_linear_5557_39544)"/>
<path d="M52.132 26.4686C52.1753 26.6051 52.2444 26.7316 52.3354 26.8407C52.4264 26.9499 52.5375 27.0396 52.6623 27.1048C52.7872 27.17 52.9234 27.2094 53.0632 27.2207C53.2029 27.232 53.3435 27.2151 53.4768 27.1708C53.6102 27.1265 53.7337 27.0557 53.8403 26.9626C53.9469 26.8694 54.0346 26.7557 54.0983 26.6278C54.162 26.5 54.2004 26.3606 54.2115 26.2175C54.2225 26.0744 54.206 25.9306 54.1627 25.7941C53.7143 24.3788 53.1579 23.0018 52.4987 21.6758C52.3701 21.4177 52.1466 21.2224 51.8774 21.1329C51.6082 21.0435 51.3152 21.0672 51.0631 21.1989C50.8109 21.3305 50.6201 21.5593 50.5328 21.8349C50.4454 22.1106 50.4686 22.4104 50.5972 22.6686C51.2051 23.8922 51.7182 25.1628 52.132 26.4686Z" fill="url(#paint7_linear_5557_39544)"/>
<path d="M39.406 11.2024C40.6001 11.8271 41.7443 12.5473 42.8278 13.3562C43.0567 13.5269 43.3425 13.5975 43.6223 13.5525C43.9021 13.5074 44.1529 13.3504 44.3197 13.116C44.4864 12.8817 44.5554 12.5891 44.5114 12.3027C44.4674 12.0162 44.314 11.7594 44.0851 11.5887C42.9104 10.7137 41.6708 9.93362 40.3777 9.25571C40.2529 9.19039 40.1167 9.15089 39.9769 9.13946C39.8371 9.12803 39.6965 9.14489 39.5631 9.18908C39.4297 9.23328 39.3061 9.30394 39.1994 9.39703C39.0927 9.49013 39.0049 9.60383 38.9411 9.73165C38.8773 9.85948 38.8387 9.99891 38.8275 10.142C38.8164 10.2851 38.8328 10.429 38.876 10.5656C38.9192 10.7022 38.9882 10.8287 39.0791 10.938C39.1701 11.0472 39.2811 11.1371 39.406 11.2024Z" fill="url(#paint8_linear_5557_39544)"/>
<path d="M31.789 8.66372C33.1138 8.87862 34.4199 9.20008 35.6953 9.62514C35.9646 9.71486 36.2577 9.6914 36.5101 9.55991C36.7625 9.42842 36.9535 9.19968 37.0412 8.924C37.1288 8.64833 37.1059 8.3483 36.9774 8.08992C36.849 7.83154 36.6256 7.63598 36.3563 7.54626C34.9739 7.08629 33.5582 6.73839 32.1225 6.5058C31.843 6.46062 31.5573 6.53097 31.3285 6.70137C31.0996 6.87177 30.9463 7.12826 30.9021 7.41441C30.858 7.70057 30.9267 7.99296 31.0932 8.22725C31.2596 8.46154 31.5102 8.61854 31.7897 8.66372H31.789Z" fill="url(#paint9_linear_5557_39544)"/>
<path d="M8.91487 16.3182C9.05508 16.3183 9.19393 16.2901 9.32345 16.2352C9.45297 16.1802 9.57062 16.0996 9.66965 15.998C10.6192 15.0277 11.6416 14.1351 12.7273 13.3284C12.841 13.2441 12.9373 13.1378 13.0108 13.0154C13.0843 12.8931 13.1335 12.7571 13.1556 12.6153C13.1778 12.4735 13.1724 12.3286 13.1399 12.1889C13.1074 12.0492 13.0483 11.9174 12.966 11.8011C12.8837 11.6847 12.7798 11.5861 12.6603 11.5109C12.5408 11.4357 12.408 11.3853 12.2694 11.3626C12.1309 11.3399 11.9893 11.3454 11.8529 11.3787C11.7164 11.412 11.5877 11.4725 11.474 11.5568C10.2972 12.4309 9.1891 13.3983 8.1601 14.4499C8.0086 14.6021 7.90497 14.7971 7.86252 15.01C7.82007 15.2229 7.84073 15.4439 7.92184 15.6447C8.00296 15.8455 8.14083 16.0169 8.31777 16.1369C8.4947 16.2569 8.70263 16.3201 8.91487 16.3182Z" fill="url(#paint10_linear_5557_39544)"/>
<path d="M6.99 49.9373C6.90771 49.821 6.80385 49.7224 6.68433 49.6471C6.56482 49.5719 6.432 49.5215 6.29347 49.4988C6.15493 49.4762 6.01339 49.4816 5.87692 49.5149C5.74045 49.5483 5.61172 49.6088 5.49809 49.693C5.38447 49.7773 5.28816 49.8836 5.21467 50.0059C5.14119 50.1283 5.09196 50.2643 5.0698 50.4061C5.04765 50.5479 5.05299 50.6928 5.08554 50.8325C5.11808 50.9722 5.17719 51.104 5.25948 51.2203C6.11208 52.4252 7.05495 53.5604 8.07957 54.6156C8.27948 54.8211 8.55094 54.9368 8.83422 54.9374C9.1175 54.938 9.38941 54.8233 9.59012 54.6187C9.79082 54.414 9.90389 54.1361 9.90446 53.8461C9.90502 53.5561 9.79302 53.2778 9.59311 53.0723C8.64684 52.0984 7.77648 51.0502 6.99 49.9373Z" fill="url(#paint11_linear_5557_39544)"/>
<path d="M51.9882 46.0943C51.7364 45.962 51.4438 45.9372 51.1741 46.0252C50.9045 46.1131 50.6798 46.3068 50.5492 46.5638C49.9336 47.7837 49.2264 48.9528 48.434 50.0606C48.351 50.1763 48.291 50.3077 48.2576 50.4472C48.2241 50.5866 48.2178 50.7315 48.2391 50.8734C48.2603 51.0154 48.3086 51.1516 48.3813 51.2745C48.454 51.3973 48.5496 51.5043 48.6626 51.5893C48.7757 51.6743 48.904 51.7357 49.0402 51.7699C49.1764 51.8041 49.3179 51.8106 49.4566 51.7888C49.5953 51.7671 49.7284 51.7176 49.8484 51.6432C49.9683 51.5688 50.0728 51.471 50.1559 51.3552C51.0138 50.1556 51.7795 48.8897 52.4461 47.5688C52.5107 47.4412 52.5501 47.3019 52.562 47.1587C52.5739 47.0155 52.5582 46.8713 52.5157 46.7344C52.4731 46.5975 52.4047 46.4705 52.3142 46.3606C52.2237 46.2508 52.1129 46.1603 51.9882 46.0943Z" fill="url(#paint12_linear_5557_39544)"/>
<path d="M39.3148 57.9852C38.1177 58.6058 36.8745 59.1287 35.5969 59.5489C35.3273 59.6376 35.1032 59.8322 34.9738 60.09C34.8444 60.3478 34.8204 60.6477 34.907 60.9236C34.9936 61.1995 35.1837 61.429 35.4355 61.5614C35.6873 61.6939 35.9803 61.7185 36.2498 61.6298C37.635 61.1741 38.9827 60.6071 40.2806 59.9339C40.4056 59.869 40.5169 59.7795 40.6081 59.6706C40.6993 59.5616 40.7686 59.4353 40.8122 59.299C40.8557 59.1626 40.8726 59.0188 40.8618 58.8757C40.8511 58.7326 40.8129 58.5931 40.7495 58.4652C40.6861 58.3372 40.5987 58.2233 40.4923 58.13C40.3858 58.0366 40.2625 57.9656 40.1293 57.921C39.996 57.8764 39.8556 57.8592 39.7158 57.8702C39.5761 57.8812 39.4398 57.9202 39.3148 57.9852Z" fill="url(#paint13_linear_5557_39544)"/>
<path d="M54.2732 37.873C54.1347 37.8498 53.9932 37.8548 53.8566 37.8877C53.7201 37.9207 53.5912 37.9809 53.4775 38.065C53.3637 38.1491 53.2673 38.2554 53.1938 38.3777C53.1203 38.5 53.0712 38.636 53.0492 38.7779C52.8353 40.1331 52.5177 41.4691 52.0994 42.7735C52.0557 42.9098 52.0386 43.0537 52.0492 43.1968C52.0598 43.3399 52.0979 43.4794 52.1611 43.6075C52.2244 43.7356 52.3117 43.8496 52.4181 43.9431C52.5244 44.0367 52.6477 44.1078 52.7809 44.1526C52.9141 44.1973 53.0547 44.2147 53.1944 44.2039C53.3342 44.193 53.4706 44.1541 53.5957 44.0893C53.7208 44.0245 53.8322 43.9351 53.9235 43.8263C54.0149 43.7174 54.0844 43.5912 54.1281 43.4548C54.581 42.0409 54.925 40.5929 55.1571 39.124C55.1798 38.9823 55.1749 38.8374 55.1427 38.6976C55.1105 38.5578 55.0516 38.4259 54.9695 38.3094C54.8874 38.193 54.7836 38.0943 54.6641 38.0191C54.5446 37.9438 54.4117 37.8935 54.2732 37.871V37.873Z" fill="url(#paint14_linear_5557_39544)"/>
<path d="M53.955 29.2181C53.6753 29.2632 53.4245 29.4202 53.2577 29.6545C53.091 29.8889 53.022 30.1814 53.0658 30.4678C53.2737 31.8249 53.3779 33.1966 53.3773 34.5704V34.6801C53.3773 34.9699 53.4898 35.2479 53.69 35.4529C53.8902 35.6578 54.1618 35.773 54.4449 35.773C54.728 35.773 54.9996 35.6578 55.1998 35.4529C55.4 35.2479 55.5125 34.9699 55.5125 34.6801V34.5683C55.5126 33.081 55.4 31.5959 55.1757 30.1264C55.1301 29.841 54.9762 29.5855 54.7477 29.4155C54.5192 29.2454 54.2343 29.1745 53.955 29.2181Z" fill="url(#paint15_linear_5557_39544)"/>
<path d="M45.8109 53.182C44.8595 54.1498 43.8358 55.0401 42.7492 55.8448C42.5197 56.0147 42.3656 56.2709 42.3206 56.5572C42.2757 56.8434 42.3437 57.1362 42.5096 57.3711C42.6755 57.606 42.9258 57.7639 43.2054 57.8099C43.485 57.8559 43.771 57.7863 44.0005 57.6164C45.1786 56.7449 46.2881 55.7803 47.3191 54.7315C47.4185 54.6303 47.4974 54.51 47.5514 54.3776C47.6054 54.2452 47.6334 54.1031 47.6338 53.9596C47.6341 53.8161 47.6069 53.674 47.5536 53.5412C47.5003 53.4085 47.422 53.2879 47.3231 53.1861C47.2243 53.0844 47.1068 53.0036 46.9774 52.9483C46.8481 52.893 46.7093 52.8644 46.5692 52.864C46.429 52.8636 46.2901 52.8915 46.1605 52.9461C46.0308 53.0007 45.913 53.0808 45.8136 53.182H45.8109Z" fill="url(#paint16_linear_5557_39544)"/>
<path d="M23.6722 60.4674C22.3485 60.2512 21.0436 59.9279 19.7699 59.5005C19.5009 59.4102 19.2078 59.4329 18.9552 59.5637C18.7025 59.6946 18.511 59.9228 18.4227 60.1982C18.3345 60.4736 18.3567 60.7737 18.4845 61.0323C18.6123 61.2909 18.8353 61.487 19.1043 61.5773C20.4856 62.0407 21.9006 62.3912 23.3361 62.6253C23.392 62.6345 23.4485 62.6391 23.5051 62.6389C23.7806 62.6508 24.0498 62.5528 24.2562 62.3656C24.4625 62.1784 24.5899 61.9166 24.6116 61.6353C24.6332 61.3539 24.5474 61.0749 24.3722 60.8569C24.197 60.639 23.9461 60.4991 23.6722 60.4667V60.4674Z" fill="url(#paint17_linear_5557_39544)"/>
<path d="M31.6859 60.4917C30.3864 60.6964 29.0736 60.7992 27.7589 60.799H27.6784C27.5404 60.7997 27.404 60.8286 27.2771 60.8841C27.1502 60.9396 27.0355 61.0205 26.9396 61.1221C26.8438 61.2237 26.7688 61.344 26.7191 61.4757C26.6693 61.6075 26.6459 61.748 26.65 61.8892C26.6597 62.1829 26.7809 62.4611 26.9879 62.6647C27.1949 62.8683 27.4712 62.9812 27.7582 62.9794C29.1844 62.9798 30.6085 62.8684 32.018 62.6462C32.2978 62.6019 32.5489 62.4455 32.7161 62.2116C32.8833 61.9777 32.9529 61.6854 32.9095 61.399C32.8662 61.1126 32.7135 60.8555 32.485 60.6843C32.2565 60.5131 31.971 60.4419 31.6912 60.4863L31.6859 60.4917Z" fill="url(#paint18_linear_5557_39544)"/>
<path d="M16.0612 57.9128C14.8686 57.2854 13.7258 56.5632 12.6435 55.7529C12.415 55.5812 12.1293 55.5094 11.8492 55.5534C11.5691 55.5974 11.3176 55.7534 11.1499 55.9873C10.9822 56.2211 10.9121 56.5136 10.955 56.8003C10.998 57.0871 11.1504 57.3446 11.3788 57.5163C12.5516 58.3946 13.7898 59.1774 15.0822 59.8575C15.3341 59.9904 15.6272 60.0154 15.8971 59.9271C16.1671 59.8387 16.3917 59.6442 16.5215 59.3863C16.6513 59.1284 16.6758 58.8283 16.5895 58.552C16.5031 58.2757 16.3131 58.0458 16.0612 57.9128Z" fill="url(#paint19_linear_5557_39544)"/>
<path d="M58.716 2.87671C57.8714 2.87671 57.0457 3.13311 56.3434 3.61347C55.6412 4.09384 55.0938 4.77661 54.7706 5.57544C54.4474 6.37426 54.3628 7.25327 54.5276 8.10129C54.6924 8.94932 55.0991 9.72828 55.6963 10.3397C56.2936 10.9511 57.0545 11.3674 57.8828 11.5361C58.7112 11.7048 59.5699 11.6182 60.3502 11.2873C61.1305 10.9565 61.7974 10.3961 62.2667 9.6772C62.7359 8.95828 62.9864 8.11306 62.9864 7.24841C62.9853 6.0893 62.535 4.97797 61.7344 4.15835C60.9338 3.33873 59.8482 2.87779 58.716 2.87671ZM58.716 9.43427C58.2937 9.43427 57.8808 9.30607 57.5297 9.06589C57.1786 8.8257 56.9049 8.48432 56.7433 8.08491C56.5817 7.68549 56.5394 7.24599 56.6218 6.82198C56.7042 6.39796 56.9075 6.00848 57.2061 5.70278C57.5048 5.39709 57.8852 5.1889 58.2994 5.10456C58.7136 5.02022 59.1429 5.06351 59.5331 5.22895C59.9232 5.39439 60.2567 5.67456 60.4913 6.03402C60.7259 6.39348 60.8512 6.81609 60.8512 7.24841C60.8504 7.82792 60.6253 8.38348 60.225 8.79325C59.8247 9.20302 59.282 9.43355 58.716 9.43427Z" fill="url(#paint20_linear_5557_39544)"/>
<path d="M48.5738 7.94009C48.8128 7.94009 49.0465 7.86752 49.2453 7.73156C49.444 7.59559 49.599 7.40234 49.6904 7.17623C49.7819 6.95013 49.8059 6.70134 49.7592 6.46131C49.7126 6.22128 49.5975 6.0008 49.4284 5.82775C49.2594 5.6547 49.044 5.53685 48.8096 5.48911C48.5751 5.44136 48.3321 5.46587 48.1112 5.55952C47.8903 5.65318 47.7016 5.81177 47.5688 6.01526C47.4359 6.21875 47.3651 6.45798 47.3651 6.70271C47.3652 7.03083 47.4926 7.34546 47.7193 7.57747C47.9459 7.80948 48.2532 7.93991 48.5738 7.94009Z" fill="url(#paint21_linear_5557_39544)"/>
<path d="M44.3034 2.47549C44.5424 2.47549 44.7761 2.40292 44.9749 2.26696C45.1737 2.13099 45.3286 1.93774 45.4201 1.71164C45.5115 1.48553 45.5355 1.23674 45.4888 0.996711C45.4422 0.756683 45.3271 0.536204 45.158 0.363154C44.989 0.190103 44.7736 0.0722535 44.5392 0.024509C44.3047 -0.0232355 44.0617 0.00126821 43.8408 0.0949224C43.62 0.188577 43.4312 0.347175 43.2984 0.550661C43.1656 0.754146 43.0947 0.99338 43.0947 1.23811C43.0948 1.56623 43.2222 1.88086 43.4489 2.11287C43.6755 2.34488 43.9829 2.47531 44.3034 2.47549Z" fill="url(#paint22_linear_5557_39544)"/>
<path d="M24.5541 15.9918V20.3635H20.2811C19.9986 20.3635 19.7278 20.4784 19.528 20.6828C19.3283 20.8873 19.2161 21.1646 19.2161 21.4537V25.8247C19.2161 26.1139 19.3283 26.3912 19.528 26.5956C19.7278 26.8001 19.9986 26.9149 20.2811 26.9149H24.5515V31.2867C24.5515 31.5758 24.6637 31.8531 24.8634 32.0575C25.0631 32.262 25.334 32.3769 25.6164 32.3769H29.8868C30.1692 32.3769 30.4401 32.262 30.6398 32.0575C30.8395 31.8531 30.9517 31.5758 30.9517 31.2867V26.9149H35.2221C35.5046 26.9149 35.7754 26.8001 35.9751 26.5956C36.1749 26.3912 36.2871 26.1139 36.2871 25.8247V21.4564C36.2871 21.1673 36.1749 20.89 35.9751 20.6856C35.7754 20.4811 35.5046 20.3662 35.2221 20.3662H30.9517V15.9918C30.9517 15.7027 30.8395 15.4254 30.6398 15.2209C30.4401 15.0165 30.1692 14.9016 29.8868 14.9016H25.6164C25.3344 14.9023 25.0642 15.0175 24.8651 15.2219C24.666 15.4263 24.5541 15.7031 24.5541 15.9918ZM26.6893 21.4564V17.0847H28.8245V21.4564C28.8245 21.7456 28.9367 22.0229 29.1364 22.2273C29.3361 22.4318 29.607 22.5466 29.8895 22.5466H34.1599V24.7345H29.8895C29.607 24.7345 29.3361 24.8494 29.1364 25.0539C28.9367 25.2583 28.8245 25.5356 28.8245 25.8247V30.1965H26.6893V25.8247C26.6893 25.5356 26.5771 25.2583 26.3774 25.0539C26.1777 24.8494 25.9068 24.7345 25.6244 24.7345H21.354V22.5487H25.6244C25.7644 22.5487 25.903 22.5204 26.0324 22.4655C26.1617 22.4106 26.2792 22.3301 26.3781 22.2287C26.477 22.1272 26.5554 22.0068 26.6088 21.8743C26.6622 21.7418 26.6896 21.5998 26.6893 21.4564Z" fill="url(#paint23_linear_5557_39544)"/>
<path d="M30.959 53.1494V48.7777H35.2295C35.5119 48.7777 35.7828 48.6628 35.9825 48.4584C36.1822 48.2539 36.2944 47.9766 36.2944 47.6875V43.3158C36.2944 43.0266 36.1822 42.7493 35.9825 42.5449C35.7828 42.3404 35.5119 42.2256 35.2295 42.2256H30.959V37.8539C30.959 37.5647 30.8469 37.2874 30.6471 37.083C30.4474 36.8785 30.1766 36.7637 29.8941 36.7637H25.6237C25.3413 36.7637 25.0704 36.8785 24.8707 37.083C24.671 37.2874 24.5588 37.5647 24.5588 37.8539V42.2256H20.2811C19.9986 42.2256 19.7278 42.3404 19.528 42.5449C19.3283 42.7493 19.2161 43.0266 19.2161 43.3158V47.682C19.2161 47.9712 19.3283 48.2485 19.528 48.4529C19.7278 48.6574 19.9986 48.7722 20.2811 48.7722H24.5515V53.1439C24.5515 53.4331 24.6637 53.7104 24.8634 53.9148C25.0631 54.1193 25.334 54.2341 25.6164 54.2341H29.8868C30.0268 54.2351 30.1656 54.2078 30.2953 54.1538C30.425 54.0998 30.5431 54.0202 30.6427 53.9194C30.7423 53.8187 30.8215 53.6988 30.8758 53.5667C30.9301 53.4345 30.9584 53.2927 30.959 53.1494ZM28.8238 47.6848V52.0565H26.6887V47.682C26.6887 47.3929 26.5765 47.1156 26.3767 46.9111C26.177 46.7067 25.9062 46.5918 25.6237 46.5918H21.3533V44.406H25.6237C25.9062 44.406 26.177 44.2911 26.3767 44.0867C26.5765 43.8822 26.6887 43.6049 26.6887 43.3158V38.9441H28.8238V43.3158C28.8238 43.6049 28.936 43.8822 29.1358 44.0867C29.3355 44.2911 29.6064 44.406 29.8888 44.406H34.1592V46.5918H29.8888C29.6064 46.5918 29.3355 46.7067 29.1358 46.9111C28.936 47.1156 28.8238 47.3929 28.8238 47.682V47.6848Z" fill="url(#paint24_linear_5557_39544)"/>
</g>
<defs>
<linearGradient id="paint0_linear_5557_39544" x1="5.089" y1="17.3831" x2="5.089" y2="23.2171" gradientUnits="userSpaceOnUse">
<stop stop-color="#5E75E8"/>
<stop offset="1" stop-color="#DA88DE"/>
</linearGradient>
<linearGradient id="paint1_linear_5557_39544" x1="1.22852" y1="33.4507" x2="1.22852" y2="39.8817" gradientUnits="userSpaceOnUse">
<stop stop-color="#5E75E8"/>
<stop offset="1" stop-color="#DA88DE"/>
</linearGradient>
<linearGradient id="paint2_linear_5557_39544" x1="1.8904" y1="24.9841" x2="1.8904" y2="31.3372" gradientUnits="userSpaceOnUse">
<stop stop-color="#5E75E8"/>
<stop offset="1" stop-color="#DA88DE"/>
</linearGradient>
<linearGradient id="paint3_linear_5557_39544" x1="17.5992" y1="7.47266" x2="17.5992" y2="11.2958" gradientUnits="userSpaceOnUse">
<stop stop-color="#5E75E8"/>
<stop offset="1" stop-color="#DA88DE"/>
</linearGradient>
<linearGradient id="paint4_linear_5557_39544" x1="47.9943" y1="14.1653" x2="47.9943" y2="19.6104" gradientUnits="userSpaceOnUse">
<stop stop-color="#5E75E8"/>
<stop offset="1" stop-color="#DA88DE"/>
</linearGradient>
<linearGradient id="paint5_linear_5557_39544" x1="3.14631" y1="41.8643" x2="3.14631" y2="48.0139" gradientUnits="userSpaceOnUse">
<stop stop-color="#5E75E8"/>
<stop offset="1" stop-color="#DA88DE"/>
</linearGradient>
<linearGradient id="paint6_linear_5557_39544" x1="25.6668" y1="6.16089" x2="25.6668" y2="8.67565" gradientUnits="userSpaceOnUse">
<stop stop-color="#5E75E8"/>
<stop offset="1" stop-color="#DA88DE"/>
</linearGradient>
<linearGradient id="paint7_linear_5557_39544" x1="52.3477" y1="21.0796" x2="52.3477" y2="27.2241" gradientUnits="userSpaceOnUse">
<stop stop-color="#5E75E8"/>
<stop offset="1" stop-color="#DA88DE"/>
</linearGradient>
<linearGradient id="paint8_linear_5557_39544" x1="41.6742" y1="9.13599" x2="41.6742" y2="13.5657" gradientUnits="userSpaceOnUse">
<stop stop-color="#5E75E8"/>
<stop offset="1" stop-color="#DA88DE"/>
</linearGradient>
<linearGradient id="paint9_linear_5557_39544" x1="33.9913" y1="6.49243" x2="33.9913" y2="9.67881" gradientUnits="userSpaceOnUse">
<stop stop-color="#5E75E8"/>
<stop offset="1" stop-color="#DA88DE"/>
</linearGradient>
<linearGradient id="paint10_linear_5557_39544" x1="10.505" y1="11.3489" x2="10.505" y2="16.3183" gradientUnits="userSpaceOnUse">
<stop stop-color="#5E75E8"/>
<stop offset="1" stop-color="#DA88DE"/>
</linearGradient>
<linearGradient id="paint11_linear_5557_39544" x1="7.48043" y1="49.4851" x2="7.48043" y2="54.9374" gradientUnits="userSpaceOnUse">
<stop stop-color="#5E75E8"/>
<stop offset="1" stop-color="#DA88DE"/>
</linearGradient>
<linearGradient id="paint12_linear_5557_39544" x1="50.3963" y1="45.9734" x2="50.3963" y2="51.8014" gradientUnits="userSpaceOnUse">
<stop stop-color="#5E75E8"/>
<stop offset="1" stop-color="#DA88DE"/>
</linearGradient>
<linearGradient id="paint13_linear_5557_39544" x1="37.8604" y1="57.8669" x2="37.8604" y2="61.6822" gradientUnits="userSpaceOnUse">
<stop stop-color="#5E75E8"/>
<stop offset="1" stop-color="#DA88DE"/>
</linearGradient>
<linearGradient id="paint14_linear_5557_39544" x1="53.6086" y1="37.8586" x2="53.6086" y2="44.207" gradientUnits="userSpaceOnUse">
<stop stop-color="#5E75E8"/>
<stop offset="1" stop-color="#DA88DE"/>
</linearGradient>
<linearGradient id="paint15_linear_5557_39544" x1="54.2827" y1="29.2056" x2="54.2827" y2="35.773" gradientUnits="userSpaceOnUse">
<stop stop-color="#5E75E8"/>
<stop offset="1" stop-color="#DA88DE"/>
</linearGradient>
<linearGradient id="paint16_linear_5557_39544" x1="44.9704" y1="52.864" x2="44.9704" y2="57.8237" gradientUnits="userSpaceOnUse">
<stop stop-color="#5E75E8"/>
<stop offset="1" stop-color="#DA88DE"/>
</linearGradient>
<linearGradient id="paint17_linear_5557_39544" x1="21.4922" y1="59.446" x2="21.4922" y2="62.6399" gradientUnits="userSpaceOnUse">
<stop stop-color="#5E75E8"/>
<stop offset="1" stop-color="#DA88DE"/>
</linearGradient>
<linearGradient id="paint18_linear_5557_39544" x1="29.7858" y1="60.4734" x2="29.7858" y2="62.9794" gradientUnits="userSpaceOnUse">
<stop stop-color="#5E75E8"/>
<stop offset="1" stop-color="#DA88DE"/>
</linearGradient>
<linearGradient id="paint19_linear_5557_39544" x1="13.7915" y1="55.5408" x2="13.7915" y2="59.979" gradientUnits="userSpaceOnUse">
<stop stop-color="#5E75E8"/>
<stop offset="1" stop-color="#DA88DE"/>
</linearGradient>
<linearGradient id="paint20_linear_5557_39544" x1="58.716" y1="2.87671" x2="58.716" y2="11.6201" gradientUnits="userSpaceOnUse">
<stop stop-color="#5E75E8"/>
<stop offset="1" stop-color="#DA88DE"/>
</linearGradient>
<linearGradient id="paint21_linear_5557_39544" x1="48.5738" y1="5.46533" x2="48.5738" y2="7.94009" gradientUnits="userSpaceOnUse">
<stop stop-color="#5E75E8"/>
<stop offset="1" stop-color="#DA88DE"/>
</linearGradient>
<linearGradient id="paint22_linear_5557_39544" x1="44.3034" y1="0.000732422" x2="44.3034" y2="2.47549" gradientUnits="userSpaceOnUse">
<stop stop-color="#5E75E8"/>
<stop offset="1" stop-color="#DA88DE"/>
</linearGradient>
<linearGradient id="paint23_linear_5557_39544" x1="27.7516" y1="14.9016" x2="27.7516" y2="32.3769" gradientUnits="userSpaceOnUse">
<stop stop-color="#5E75E8"/>
<stop offset="1" stop-color="#DA88DE"/>
</linearGradient>
<linearGradient id="paint24_linear_5557_39544" x1="27.7553" y1="36.7637" x2="27.7553" y2="54.2342" gradientUnits="userSpaceOnUse">
<stop stop-color="#5E75E8"/>
<stop offset="1" stop-color="#DA88DE"/>
</linearGradient>
<clipPath id="clip0_5557_39544">
<rect width="62.9857" height="62.9857" fill="white"/>
</clipPath>
</defs>
</svg>
