<svg width="61" height="63" viewBox="0 0 61 63" fill="none" xmlns="http://www.w3.org/2000/svg">
<g clip-path="url(#clip0_5557_39570)">
<path d="M52.8116 11.5904C53.6655 11.5904 54.5003 11.3378 55.2103 10.8644C55.9203 10.3911 56.4737 9.71829 56.8005 8.93115C57.1272 8.144 57.2127 7.27785 57.0461 6.44223C56.8796 5.6066 56.4684 4.83903 55.8645 4.23657C55.2607 3.63412 54.4914 3.22384 53.6539 3.05763C52.8164 2.89141 51.9483 2.97672 51.1594 3.30277C50.3704 3.62881 49.6961 4.18095 49.2217 4.88936C48.7473 5.59777 48.4941 6.43063 48.4941 7.28263C48.4955 8.42469 48.9509 9.51956 49.7602 10.3271C50.5696 11.1347 51.667 11.589 52.8116 11.5904ZM52.8116 5.12874C53.2386 5.12874 53.6559 5.25507 54.0109 5.49174C54.3659 5.72841 54.6426 6.0648 54.806 6.45837C54.9694 6.85194 55.0122 7.28502 54.9289 7.70283C54.8456 8.12065 54.64 8.50443 54.3381 8.80566C54.0362 9.10689 53.6515 9.31202 53.2328 9.39513C52.814 9.47824 52.3799 9.43559 51.9855 9.27256C51.591 9.10954 51.2539 8.83347 51.0167 8.47927C50.7795 8.12506 50.6529 7.70863 50.6529 7.28263C50.6528 6.99971 50.7085 6.71955 50.817 6.45814C50.9254 6.19673 51.0844 5.95919 51.2849 5.75911C51.4853 5.55902 51.7233 5.40029 51.9853 5.292C52.2473 5.18371 52.5281 5.12797 52.8116 5.12797V5.12874Z" fill="url(#paint0_linear_5557_39570)"/>
<path d="M15.5716 5.80936C15.8132 5.80921 16.0494 5.73757 16.2503 5.6035C16.4511 5.46944 16.6076 5.27896 16.7 5.05616C16.7924 4.83336 16.8165 4.58823 16.7692 4.35177C16.722 4.11531 16.6055 3.89813 16.4346 3.72769C16.2637 3.55725 16.0459 3.4412 15.8089 3.39422C15.5719 3.34724 15.3262 3.37143 15.103 3.46373C14.8797 3.55604 14.6889 3.71231 14.5547 3.9128C14.4204 4.11329 14.3488 4.34899 14.3488 4.5901C14.349 4.91354 14.4779 5.22366 14.7072 5.45229C14.9365 5.68093 15.2474 5.80936 15.5716 5.80936Z" fill="url(#paint1_linear_5557_39570)"/>
<path d="M6.93577 9.04032C7.17743 9.04016 7.41361 8.96852 7.61447 8.83446C7.81533 8.70039 7.97183 8.50992 8.06421 8.28712C8.15658 8.06431 8.18067 7.81919 8.13343 7.58272C8.08619 7.34626 7.96975 7.12908 7.79882 6.95865C7.62789 6.78821 7.41014 6.67216 7.17312 6.62518C6.93609 6.5782 6.69043 6.60238 6.46718 6.69469C6.24393 6.78699 6.05312 6.94327 5.91888 7.14376C5.78464 7.34425 5.71299 7.57995 5.71299 7.82106C5.71319 8.1445 5.84211 8.45462 6.07141 8.68325C6.3007 8.91188 6.6116 9.04032 6.93577 9.04032Z" fill="url(#paint2_linear_5557_39570)"/>
<path d="M60.2839 30.9736C60.287 29.8847 60.0736 28.8059 59.6559 27.7999C59.2382 26.7938 58.6246 25.8805 57.8506 25.1127L36.0148 3.32613C35.2435 2.55639 34.3277 1.94579 33.3198 1.5292C32.3119 1.11261 31.2317 0.898193 30.1407 0.898193C29.0498 0.898193 27.9695 1.11261 26.9616 1.5292C25.9537 1.94579 25.0379 2.55639 24.2666 3.32613L2.4308 25.1127C1.65931 25.8823 1.04733 26.796 0.629801 27.8016C0.21227 28.8073 -0.00263214 29.8851 -0.00263214 30.9736C-0.00263214 32.0621 0.21227 33.1399 0.629801 34.1455C1.04733 35.1511 1.65931 36.0649 2.4308 36.8345L21.9621 56.3225C17.8073 57.0018 17.1882 58.0326 17.1882 58.9764C17.1882 61.8926 26.2465 62.2073 30.1407 62.2073C41.8319 62.2073 43.0932 59.9472 43.0932 58.9764C43.0932 58.0795 42.4919 57.0079 38.3193 56.3218L57.8499 36.836C58.6242 36.0681 59.238 35.1546 59.6558 34.1482C60.0737 33.1419 60.2871 32.0628 60.2839 30.9736ZM23.8757 58.2303L24.2674 58.621C24.7712 59.1207 25.3371 59.554 25.9512 59.9103C23.9436 59.8242 21.9522 59.5125 20.0146 58.981C21.2734 58.6034 22.5669 58.3519 23.8757 58.2303ZM40.2691 58.9795C38.3317 59.5115 36.3402 59.8235 34.3326 59.9095C34.9467 59.5532 35.5125 59.1199 36.0164 58.6203L36.4065 58.231C37.7157 58.3523 39.0096 58.603 40.2691 58.9795ZM34.4868 57.0972C33.9159 57.6669 33.2381 58.1188 32.4921 58.4271C31.7461 58.7355 30.9466 58.8942 30.1392 58.8942C29.3317 58.8942 28.5322 58.7355 27.7862 58.4271C27.0403 58.1188 26.3625 57.6669 25.7916 57.0972L3.95811 35.3114C3.38711 34.7418 2.93416 34.0655 2.62513 33.3212C2.3161 32.5769 2.15705 31.7792 2.15705 30.9736C2.15705 30.168 2.3161 29.3702 2.62513 28.626C2.93416 27.8817 3.38711 27.2054 3.95811 26.6358L25.7931 4.85001C26.364 4.28029 27.0418 3.82837 27.7878 3.52004C28.5337 3.2117 29.3333 3.053 30.1407 3.053C30.9482 3.053 31.7477 3.2117 32.4937 3.52004C33.2396 3.82837 33.9174 4.28029 34.4883 4.85001L56.3233 26.6358C56.8943 27.2054 57.3473 27.8817 57.6563 28.626C57.9653 29.3702 58.1244 30.168 58.1244 30.9736C58.1244 31.7792 57.9653 32.5769 57.6563 33.3212C57.3473 34.0655 56.8943 34.7418 56.3233 35.3114L34.4868 57.0972Z" fill="url(#paint3_linear_5557_39570)"/>
<path d="M37.698 18.052C36.1547 18.0534 34.6399 18.4673 33.3112 19.2505C31.9825 20.0338 30.8883 21.1579 30.1424 22.5059C29.4066 21.1754 28.3311 20.0628 27.0252 19.2808C25.7192 18.4989 24.2292 18.0755 22.7063 18.0537C21.1834 18.0318 19.6818 18.4122 18.3538 19.1563C17.0258 19.9004 15.9187 20.9817 15.1448 22.2905C14.3709 23.5993 13.9577 25.0891 13.9472 26.6087C13.9366 28.1283 14.3291 29.6236 15.0848 30.943C15.8404 32.2624 16.9324 33.3589 18.25 34.1212C19.5675 34.8836 21.0637 35.2847 22.5867 35.2839C22.8766 35.2839 23.1627 35.2685 23.4448 35.2408C22.4144 36.5043 21.7641 38.0334 21.5694 39.6507C21.3747 41.268 21.6434 42.9073 22.3446 44.3784C23.0457 45.8495 24.1505 47.0921 25.5307 47.9621C26.911 48.8322 28.5101 49.294 30.1428 49.294C31.7754 49.294 33.3746 48.8322 34.7548 47.9621C36.1351 47.0921 37.2398 45.8495 37.941 44.3784C38.6421 42.9073 38.9109 41.268 38.7161 39.6507C38.5214 38.0334 37.8711 36.5043 36.8407 35.2408C37.1229 35.2685 37.4089 35.2839 37.6988 35.2839C39.9889 35.2839 42.1853 34.3762 43.8047 32.7604C45.424 31.1447 46.3338 28.9533 46.3338 26.6683C46.3338 24.3833 45.424 22.1919 43.8047 20.5762C42.1853 18.9605 39.9889 18.0528 37.6988 18.0528L37.698 18.052ZM16.1105 26.6676C16.1105 25.3896 16.4903 24.1403 17.2019 23.0776C17.9135 22.015 18.925 21.1868 20.1084 20.6978C21.2918 20.2087 22.5939 20.0807 23.8502 20.33C25.1065 20.5794 26.2604 21.1948 27.1661 22.0985C28.0719 23.0021 28.6887 24.1535 28.9386 25.4069C29.1885 26.6604 29.0602 27.9596 28.57 29.1403C28.0799 30.321 27.2498 31.3302 26.1848 32.0402C25.1197 32.7502 23.8676 33.1292 22.5867 33.1292C20.8699 33.1272 19.2239 32.4459 18.0099 31.2347C16.7958 30.0235 16.1127 28.3813 16.1105 26.6683V26.6676ZM30.1424 30.8292C30.3904 31.2757 30.6775 31.6994 31.0005 32.0954C30.7183 32.0677 30.4323 32.0523 30.1424 32.0523C29.8525 32.0523 29.5665 32.0677 29.2843 32.0954C29.6072 31.6996 29.8943 31.2762 30.1424 30.8299V30.8292ZM30.1424 47.1303C28.8615 47.1303 27.6094 46.7513 26.5444 46.0413C25.4793 45.3313 24.6493 44.3221 24.1591 43.1414C23.6689 41.9607 23.5407 40.6614 23.7906 39.408C24.0404 38.1545 24.6572 37.0032 25.563 36.0995C26.4687 35.1958 27.6227 34.5804 28.8789 34.3311C30.1352 34.0818 31.4374 34.2097 32.6207 34.6988C33.8041 35.1879 34.8156 36.0161 35.5272 37.0787C36.2388 38.1413 36.6186 39.3906 36.6186 40.6686C36.6168 42.3818 35.9339 44.0244 34.7198 45.2359C33.5057 46.4474 31.8595 47.129 30.1424 47.131V47.1303ZM37.698 33.13C36.4171 33.13 35.165 32.751 34.1 32.041C33.035 31.331 32.2049 30.3218 31.7147 29.1411C31.2246 27.9604 31.0963 26.6612 31.3462 25.4077C31.5961 24.1543 32.2129 23.0029 33.1186 22.0992C34.0243 21.1956 35.1783 20.5801 36.4346 20.3308C37.6908 20.0815 38.993 20.2095 40.1764 20.6985C41.3598 21.1876 42.3712 22.0158 43.0828 23.0784C43.7945 24.141 44.1743 25.3903 44.1743 26.6683C44.1722 28.3814 43.4893 30.0238 42.2752 31.2352C41.0611 32.4465 39.415 33.1279 37.698 33.13Z" fill="url(#paint4_linear_5557_39570)"/>
</g>
<defs>
<linearGradient id="paint0_linear_5557_39570" x1="52.8116" y1="2.97485" x2="52.8116" y2="11.5904" gradientUnits="userSpaceOnUse">
<stop stop-color="#5E75E8"/>
<stop offset="1" stop-color="#DA88DE"/>
</linearGradient>
<linearGradient id="paint1_linear_5557_39570" x1="15.5708" y1="3.37085" x2="15.5708" y2="5.80936" gradientUnits="userSpaceOnUse">
<stop stop-color="#5E75E8"/>
<stop offset="1" stop-color="#DA88DE"/>
</linearGradient>
<linearGradient id="paint2_linear_5557_39570" x1="6.935" y1="6.60181" x2="6.935" y2="9.04032" gradientUnits="userSpaceOnUse">
<stop stop-color="#5E75E8"/>
<stop offset="1" stop-color="#DA88DE"/>
</linearGradient>
<linearGradient id="paint3_linear_5557_39570" x1="30.1406" y1="0.898193" x2="30.1406" y2="62.2073" gradientUnits="userSpaceOnUse">
<stop stop-color="#5E75E8"/>
<stop offset="1" stop-color="#DA88DE"/>
</linearGradient>
<linearGradient id="paint4_linear_5557_39570" x1="30.1404" y1="18.052" x2="30.1404" y2="49.294" gradientUnits="userSpaceOnUse">
<stop stop-color="#5E75E8"/>
<stop offset="1" stop-color="#DA88DE"/>
</linearGradient>
<clipPath id="clip0_5557_39570">
<rect width="60.2863" height="61.3081" fill="white" transform="translate(0 0.900879)"/>
</clipPath>
</defs>
</svg>
