<svg width="59" height="57" viewBox="0 0 59 57" fill="none" xmlns="http://www.w3.org/2000/svg">
<path d="M57.9267 30.0949H45.4932L28.2817 0.496097C28.1796 0.343415 28.0416 0.218294 27.8799 0.131775C27.7182 0.0452562 27.5377 0 27.3544 0C27.1712 0 26.9907 0.0452562 26.829 0.131775C26.6673 0.218294 26.5293 0.343415 26.4272 0.496097L18.8844 13.4699C17.5467 12.6645 16.0629 12.1336 14.5191 11.9079C12.9754 11.6822 11.4023 11.7663 9.89113 12.1552C8.37997 12.5441 6.96081 13.2301 5.71594 14.1735C4.47108 15.1168 3.42528 16.2988 2.63921 17.6507C1.85313 19.0027 1.34241 20.4977 1.13667 22.0492C0.930934 23.6007 1.03427 25.1777 1.44068 26.6888C1.84709 28.2 2.54849 29.6151 3.50421 30.8522C4.45993 32.0892 5.65095 33.1237 7.00819 33.8954L0.145913 45.6958C0.0509094 45.8594 0.000582271 46.0452 5.02219e-06 46.2346C-0.000572227 46.4239 0.0486217 46.61 0.142626 46.7742C0.236631 46.9384 0.372123 47.0748 0.535438 47.1697C0.698753 47.2645 0.884115 47.3145 1.07284 47.3146H27.356C27.6405 47.3146 27.9133 47.2012 28.1145 46.9994C28.3156 46.7976 28.4286 46.5239 28.4286 46.2385C28.4286 45.953 28.3156 45.6793 28.1145 45.4775C27.9133 45.2757 27.6405 45.1623 27.356 45.1623H2.94132L8.96875 34.7966C11.5536 35.7123 14.3758 35.6951 16.9494 34.7478C19.5229 33.8006 21.6866 31.9826 23.0678 29.607C24.4491 27.2315 24.9613 24.4471 24.5164 21.7333C24.0715 19.0196 22.6972 16.5465 20.6303 14.74L27.3547 3.177L43.0069 30.0961H33.2547C32.9702 30.0961 32.6974 30.2095 32.4962 30.4113C32.2951 30.6132 32.1821 30.8869 32.1821 31.1723V55.9238C32.1821 56.2093 32.2951 56.483 32.4962 56.6848C32.6974 56.8866 32.9702 57 33.2547 57H57.9273C58.2118 57 58.4847 56.8866 58.6858 56.6848C58.887 56.483 59 56.2093 59 55.9238V31.1717C59.0001 31.0303 58.9724 30.8903 58.9185 30.7597C58.8647 30.629 58.7857 30.5103 58.686 30.4103C58.5864 30.3103 58.4682 30.231 58.338 30.1769C58.2078 30.1228 58.0683 30.0949 57.9273 30.0949H57.9267ZM22.5274 23.638C22.5274 25.5537 21.9612 27.4264 20.9003 29.0192C19.8395 30.6121 18.3316 31.8536 16.5675 32.5867C14.8033 33.3198 12.8621 33.5116 10.9893 33.1379C9.11646 32.7641 7.39617 31.8416 6.04595 30.487C4.69573 29.1324 3.77621 27.4065 3.40369 25.5276C3.03116 23.6487 3.22235 21.7012 3.95309 19.9313C4.68383 18.1614 5.92128 16.6487 7.50898 15.5844C9.09668 14.5201 10.9633 13.952 12.8728 13.952C15.4325 13.9548 17.8866 14.9761 19.6966 16.792C21.5066 18.6079 22.5247 21.07 22.5274 23.638ZM56.8541 54.8477H34.3274V32.2478H56.8541V54.8477Z" fill="url(#paint0_linear_5557_39577)"/>
<defs>
<linearGradient id="paint0_linear_5557_39577" x1="29.5" y1="0" x2="29.5" y2="57" gradientUnits="userSpaceOnUse">
<stop stop-color="#5E75E8"/>
<stop offset="1" stop-color="#DA88DE"/>
</linearGradient>
</defs>
</svg>
