<svg width="55" height="50" viewBox="0 0 55 50" fill="none" xmlns="http://www.w3.org/2000/svg">
<g clip-path="url(#clip0_5827_29628)">
<path d="M12.5908 8.78208C12.4969 8.65891 12.3759 8.55907 12.2372 8.49034C12.0984 8.42162 11.9457 8.38586 11.7909 8.38586C11.636 8.38586 11.4833 8.42162 11.3445 8.49034C11.2058 8.55907 11.0848 8.65891 10.9909 8.78208L3.72761 19.4319C3.6284 19.5774 3.57074 19.7472 3.56085 19.9231C3.55096 20.0989 3.58921 20.2741 3.67149 20.4299C3.75376 20.5856 3.87694 20.716 4.02777 20.8069C4.1786 20.8979 4.35138 20.946 4.52751 20.946H19.0535C19.2297 20.9461 19.4026 20.8981 19.5535 20.8072C19.7044 20.7163 19.8277 20.5859 19.9101 20.4302C19.9924 20.2744 20.0307 20.0991 20.0209 19.9232C20.011 19.7473 19.9533 19.5774 19.8541 19.4319L12.5908 8.78208ZM6.36281 19.0115L11.7934 11.0462L17.2215 19.0115H6.36281Z" fill="url(#paint0_linear_5827_29628)"/>
<path d="M21.9593 20.9486H36.4853C36.6615 20.9485 36.8342 20.9004 36.9851 20.8095C37.1359 20.7185 37.2591 20.5882 37.3414 20.4324C37.4236 20.2767 37.4619 20.1015 37.452 19.9256C37.4421 19.7498 37.3844 19.5799 37.2852 19.4344L30.0193 8.78202C29.9304 8.6517 29.8111 8.54506 29.6716 8.47136C29.5321 8.39766 29.3768 8.35913 29.2191 8.35913C29.0613 8.35913 28.906 8.39766 28.7665 8.47136C28.6271 8.54506 28.5077 8.6517 28.4188 8.78202L21.1529 19.4344C21.0537 19.5799 20.996 19.7498 20.9861 19.9256C20.9763 20.1015 21.0145 20.2767 21.0968 20.4324C21.1791 20.5882 21.3022 20.7185 21.4531 20.8095C21.6039 20.9004 21.7767 20.9485 21.9528 20.9486H21.9593ZM29.2252 11.0468L34.6552 19.0114H23.7913L29.2252 11.0468Z" fill="url(#paint1_linear_5827_29628)"/>
<path d="M39.3905 20.9486H53.9166C54.0927 20.9486 54.2655 20.9005 54.4163 20.8095C54.5671 20.7186 54.6903 20.5882 54.7726 20.4325C54.8549 20.2767 54.8931 20.1015 54.8832 19.9257C54.8733 19.7498 54.8157 19.58 54.7165 19.4345L47.4505 8.78208C47.3567 8.65891 47.2357 8.55907 47.097 8.49034C46.9582 8.42162 46.8055 8.38586 46.6506 8.38586C46.4958 8.38586 46.3431 8.42162 46.2043 8.49034C46.0656 8.55907 45.9445 8.65891 45.8507 8.78208L38.5848 19.4345C38.4856 19.58 38.4279 19.7498 38.418 19.9257C38.4081 20.1015 38.4464 20.2767 38.5287 20.4325C38.6109 20.5882 38.7341 20.7186 38.885 20.8095C39.0358 20.9005 39.2086 20.9486 39.3847 20.9486H39.3905ZM46.6565 11.0468L52.0865 19.0115H41.2232L46.6565 11.0468Z" fill="url(#paint2_linear_5827_29628)"/>
<path d="M12.5908 23.3081C12.4969 23.1849 12.3759 23.0851 12.2372 23.0163C12.0984 22.9476 11.9457 22.9119 11.7909 22.9119C11.636 22.9119 11.4833 22.9476 11.3445 23.0163C11.2058 23.0851 11.0848 23.1849 10.9909 23.3081L3.72761 33.9579C3.6284 34.1034 3.57074 34.2732 3.56085 34.4491C3.55096 34.6249 3.58921 34.8001 3.67149 34.9559C3.75376 35.1116 3.87694 35.242 4.02777 35.3329C4.1786 35.4239 4.35138 35.472 4.52751 35.472H19.0535C19.2297 35.472 19.4024 35.4239 19.5533 35.3329C19.7041 35.242 19.8273 35.1116 19.9096 34.9559C19.9918 34.8001 20.0301 34.6249 20.0202 34.4491C20.0103 34.2732 19.9527 34.1034 19.8534 33.9579L12.5908 23.3081ZM6.36281 33.5375L11.7934 25.5722L17.2241 33.5375H6.36281Z" fill="url(#paint3_linear_5827_29628)"/>
<path d="M21.9593 35.474H36.4853C36.6615 35.4739 36.8342 35.4258 36.9851 35.3348C37.1359 35.2439 37.2591 35.1135 37.3414 34.9578C37.4236 34.8021 37.4619 34.6268 37.452 34.451C37.4421 34.2751 37.3844 34.1053 37.2852 33.9598L30.0193 23.3074C29.9304 23.1771 29.8111 23.0704 29.6716 22.9967C29.5321 22.923 29.3768 22.8845 29.2191 22.8845C29.0613 22.8845 28.906 22.923 28.7665 22.9967C28.6271 23.0704 28.5077 23.1771 28.4188 23.3074L21.1529 33.9598C21.0537 34.1053 20.996 34.2751 20.9861 34.451C20.9763 34.6268 21.0145 34.8021 21.0968 34.9578C21.1791 35.1135 21.3022 35.2439 21.4531 35.3348C21.6039 35.4258 21.7767 35.4739 21.9528 35.474H21.9593ZM29.2252 25.5722L34.6552 33.5375H23.7913L29.2252 25.5722Z" fill="url(#paint4_linear_5827_29628)"/>
<path d="M47.4537 23.3081C47.3599 23.1849 47.2389 23.0851 47.1001 23.0163C46.9614 22.9476 46.8086 22.9119 46.6538 22.9119C46.499 22.9119 46.3462 22.9476 46.2075 23.0163C46.0687 23.0851 45.9477 23.1849 45.8539 23.3081L38.588 33.9605C38.4888 34.106 38.4311 34.2758 38.4212 34.4517C38.4113 34.6275 38.4496 34.8027 38.5318 34.9585C38.6141 35.1142 38.7373 35.2446 38.8881 35.3355C39.039 35.4265 39.2117 35.4746 39.3879 35.4746H53.9139C54.09 35.4746 54.2628 35.4265 54.4136 35.3355C54.5645 35.2446 54.6876 35.1142 54.7699 34.9585C54.8522 34.8027 54.8904 34.6275 54.8806 34.4517C54.8707 34.2758 54.813 34.106 54.7138 33.9605L47.4537 23.3081ZM41.2258 33.5375L46.6557 25.5722L52.0857 33.5375H41.2258Z" fill="url(#paint5_linear_5827_29628)"/>
<path d="M12.5908 37.8335C12.4969 37.7103 12.3759 37.6105 12.2372 37.5417C12.0984 37.473 11.9457 37.4373 11.7909 37.4373C11.636 37.4373 11.4833 37.473 11.3445 37.5417C11.2058 37.6105 11.0848 37.7103 10.9909 37.8335L3.72761 48.4832C3.6284 48.6288 3.57074 48.7986 3.56085 48.9745C3.55096 49.1503 3.58921 49.3255 3.67149 49.4813C3.75376 49.637 3.87694 49.7674 4.02777 49.8583C4.1786 49.9493 4.35138 49.9973 4.52751 49.9974H19.0535C19.2297 49.9973 19.4024 49.9493 19.5533 49.8583C19.7041 49.7674 19.8273 49.637 19.9096 49.4813C19.9918 49.3255 20.0301 49.1503 20.0202 48.9745C20.0103 48.7986 19.9527 48.6288 19.8534 48.4832L12.5908 37.8335ZM6.36281 48.0629L11.7934 40.0982L17.2241 48.0629H6.36281Z" fill="url(#paint6_linear_5827_29628)"/>
<path d="M30.0225 37.8341C29.9336 37.7038 29.8142 37.5972 29.6748 37.5235C29.5353 37.4498 29.38 37.4113 29.2222 37.4113C29.0645 37.4113 28.9092 37.4498 28.7697 37.5235C28.6302 37.5972 28.5109 37.7038 28.422 37.8341L21.1561 48.4865C21.0569 48.632 20.9992 48.8019 20.9893 48.9777C20.9794 49.1536 21.0177 49.3288 21.1 49.4845C21.1822 49.6403 21.3054 49.7706 21.4562 49.8616C21.6071 49.9525 21.7798 50.0006 21.956 50.0007H36.482C36.6581 50.0006 36.8309 49.9525 36.9818 49.8616C37.1326 49.7706 37.2558 49.6403 37.338 49.4845C37.4203 49.3288 37.4585 49.1536 37.4487 48.9777C37.4388 48.8019 37.3811 48.632 37.2819 48.4865L30.0225 37.8341ZM23.7945 48.0635L29.2258 40.0989L34.6558 48.0635H23.7945Z" fill="url(#paint7_linear_5827_29628)"/>
<path d="M47.4537 37.8335C47.3599 37.7103 47.2389 37.6105 47.1001 37.5417C46.9614 37.473 46.8086 37.4373 46.6538 37.4373C46.499 37.4373 46.3462 37.473 46.2075 37.5417C46.0687 37.6105 45.9477 37.7103 45.8539 37.8335L38.588 48.4859C38.4888 48.6314 38.4311 48.8012 38.4212 48.9771C38.4113 49.1529 38.4496 49.3281 38.5318 49.4839C38.6141 49.6396 38.7373 49.77 38.8881 49.8609C39.039 49.9518 39.2117 49.9999 39.3879 50H53.9139C54.09 49.9999 54.2628 49.9518 54.4136 49.8609C54.5645 49.77 54.6876 49.6396 54.7699 49.4839C54.8522 49.3281 54.8904 49.1529 54.8806 48.9771C54.8707 48.8012 54.813 48.6314 54.7138 48.4859L47.4537 37.8335ZM41.2258 48.0629L46.6557 40.0982L52.0857 48.0629H41.2258Z" fill="url(#paint8_linear_5827_29628)"/>
<path d="M17.5595 4.12989C17.7764 4.12989 17.9883 4.06559 18.1686 3.94512C18.3489 3.82464 18.4894 3.65341 18.5724 3.45308C18.6554 3.25274 18.6771 3.0323 18.6348 2.81962C18.5925 2.60694 18.4881 2.41159 18.3348 2.25826C18.1814 2.10493 17.9861 2.00051 17.7734 1.9582C17.5607 1.9159 17.3403 1.93761 17.1399 2.02059C16.9396 2.10357 16.7684 2.2441 16.6479 2.4244C16.5274 2.6047 16.4631 2.81667 16.4631 3.03351C16.4633 3.32423 16.5789 3.603 16.7844 3.80858C16.99 4.01415 17.2688 4.12972 17.5595 4.12989Z" fill="url(#paint9_linear_5827_29628)"/>
<path d="M7.87567 2.19337C8.09251 2.19337 8.30449 2.12906 8.48479 2.00859C8.66509 1.88812 8.80561 1.71689 8.88859 1.51655C8.97157 1.31622 8.99329 1.09577 8.95098 0.883095C8.90868 0.670419 8.80426 0.475064 8.65093 0.321733C8.4976 0.168402 8.30224 0.0639818 8.08956 0.0216778C7.87689 -0.0206262 7.65644 0.00108434 7.4561 0.0840666C7.25577 0.167049 7.08454 0.307575 6.96407 0.487873C6.8436 0.668172 6.7793 0.880144 6.7793 1.09699C6.77947 1.38771 6.89503 1.66648 7.10061 1.87205C7.30618 2.07763 7.58495 2.19319 7.87567 2.19337Z" fill="url(#paint10_linear_5827_29628)"/>
<path d="M1.09638 23.2412C0.879536 23.2412 0.667561 23.3055 0.487263 23.426C0.306965 23.5465 0.166438 23.7177 0.0834562 23.918C0.000473985 24.1184 -0.0212365 24.3388 0.0210674 24.5515C0.0633714 24.7642 0.167791 24.9595 0.321122 25.1128C0.474454 25.2662 0.669809 25.3706 0.882485 25.4129C1.09516 25.4552 1.31561 25.4335 1.51594 25.3505C1.71628 25.2675 1.88751 25.127 2.00798 24.9467C2.12845 24.7664 2.19276 24.5544 2.19276 24.3376C2.19258 24.0469 2.07702 23.7681 1.87144 23.5625C1.66587 23.357 1.3871 23.2414 1.09638 23.2412Z" fill="url(#paint11_linear_5827_29628)"/>
<path d="M38.9921 39.8316C38.9921 39.6148 38.9278 39.4028 38.8073 39.2225C38.6868 39.0422 38.5156 38.9017 38.3153 38.8187C38.1149 38.7357 37.8945 38.714 37.6818 38.7563C37.4691 38.7986 37.2738 38.903 37.1204 39.0564C36.9671 39.2097 36.8627 39.405 36.8204 39.6177C36.7781 39.8304 36.7998 40.0508 36.8828 40.2512C36.9658 40.4515 37.1063 40.6227 37.2866 40.7432C37.4669 40.8637 37.6789 40.928 37.8957 40.928C38.1865 40.928 38.4653 40.8125 38.671 40.6069C38.8766 40.4013 38.9921 40.1224 38.9921 39.8316Z" fill="url(#paint12_linear_5827_29628)"/>
</g>
<defs>
<linearGradient id="paint0_linear_5827_29628" x1="11.7909" y1="8.38586" x2="11.7909" y2="20.946" gradientUnits="userSpaceOnUse">
<stop stop-color="#5E75E8"/>
<stop offset="1" stop-color="#DA88DE"/>
</linearGradient>
<linearGradient id="paint1_linear_5827_29628" x1="29.2191" y1="8.35913" x2="29.2191" y2="20.9486" gradientUnits="userSpaceOnUse">
<stop stop-color="#5E75E8"/>
<stop offset="1" stop-color="#DA88DE"/>
</linearGradient>
<linearGradient id="paint2_linear_5827_29628" x1="46.6506" y1="8.38586" x2="46.6506" y2="20.9486" gradientUnits="userSpaceOnUse">
<stop stop-color="#5E75E8"/>
<stop offset="1" stop-color="#DA88DE"/>
</linearGradient>
<linearGradient id="paint3_linear_5827_29628" x1="11.7905" y1="22.9119" x2="11.7905" y2="35.472" gradientUnits="userSpaceOnUse">
<stop stop-color="#5E75E8"/>
<stop offset="1" stop-color="#DA88DE"/>
</linearGradient>
<linearGradient id="paint4_linear_5827_29628" x1="29.2191" y1="22.8845" x2="29.2191" y2="35.474" gradientUnits="userSpaceOnUse">
<stop stop-color="#5E75E8"/>
<stop offset="1" stop-color="#DA88DE"/>
</linearGradient>
<linearGradient id="paint5_linear_5827_29628" x1="46.6509" y1="22.9119" x2="46.6509" y2="35.4746" gradientUnits="userSpaceOnUse">
<stop stop-color="#5E75E8"/>
<stop offset="1" stop-color="#DA88DE"/>
</linearGradient>
<linearGradient id="paint6_linear_5827_29628" x1="11.7905" y1="37.4373" x2="11.7905" y2="49.9974" gradientUnits="userSpaceOnUse">
<stop stop-color="#5E75E8"/>
<stop offset="1" stop-color="#DA88DE"/>
</linearGradient>
<linearGradient id="paint7_linear_5827_29628" x1="29.219" y1="37.4113" x2="29.219" y2="50.0007" gradientUnits="userSpaceOnUse">
<stop stop-color="#5E75E8"/>
<stop offset="1" stop-color="#DA88DE"/>
</linearGradient>
<linearGradient id="paint8_linear_5827_29628" x1="46.6509" y1="37.4373" x2="46.6509" y2="50" gradientUnits="userSpaceOnUse">
<stop stop-color="#5E75E8"/>
<stop offset="1" stop-color="#DA88DE"/>
</linearGradient>
<linearGradient id="paint9_linear_5827_29628" x1="17.5595" y1="1.93713" x2="17.5595" y2="4.12989" gradientUnits="userSpaceOnUse">
<stop stop-color="#5E75E8"/>
<stop offset="1" stop-color="#DA88DE"/>
</linearGradient>
<linearGradient id="paint10_linear_5827_29628" x1="7.87567" y1="0.000610352" x2="7.87567" y2="2.19337" gradientUnits="userSpaceOnUse">
<stop stop-color="#5E75E8"/>
<stop offset="1" stop-color="#DA88DE"/>
</linearGradient>
<linearGradient id="paint11_linear_5827_29628" x1="1.09638" y1="23.2412" x2="1.09638" y2="25.434" gradientUnits="userSpaceOnUse">
<stop stop-color="#5E75E8"/>
<stop offset="1" stop-color="#DA88DE"/>
</linearGradient>
<linearGradient id="paint12_linear_5827_29628" x1="37.8957" y1="38.7352" x2="37.8957" y2="40.928" gradientUnits="userSpaceOnUse">
<stop stop-color="#5E75E8"/>
<stop offset="1" stop-color="#DA88DE"/>
</linearGradient>
<clipPath id="clip0_5827_29628">
<rect width="54.885" height="50" fill="white"/>
</clipPath>
</defs>
</svg>
