<svg xmlns="http://www.w3.org/2000/svg" width="112.808" height="38.553" viewBox="0 0 112.808 38.553"><defs><style>.a{fill:#40b9e3;}.b{fill:#abddf3;}</style></defs><g transform="translate(0 0)"><g transform="translate(0 0)"><path class="a" d="M-179-2283.123a3.849,3.849,0,0,0-.72-.141,6.75,6.75,0,0,1-1.915-.808c-.953-.567-1.917-1.117-2.875-1.675q-1.4-.82-2.806-1.643c-.951-.555-1.907-1.1-2.854-1.665-1.087-.647-2.208-1.239-3.266-1.935a5.446,5.446,0,0,1-2.209-2.951,5.145,5.145,0,0,1-.257-1.664c.009-1.138.008-2.277.014-3.416q.021-4.395.044-8.79a19.312,19.312,0,0,1,.053-2.193,5.636,5.636,0,0,1,1.094-2.685,8.641,8.641,0,0,1,2.533-1.991,2.118,2.118,0,0,1,2.135.014,4.086,4.086,0,0,1,2.559,3.212,2.89,2.89,0,0,1,.061.945c-.006.005-.016.011-.016.016a.229.229,0,0,0,.011.042c0,3.391.011,6.782-.005,10.172a6.033,6.033,0,0,0,.719,2.971,6.833,6.833,0,0,0,.922,1.268,9.211,9.211,0,0,0,3.106,2.264,8.812,8.812,0,0,0,2.721.756,9.373,9.373,0,0,0,4.381-.5,9.6,9.6,0,0,0,2.8-1.626,9.184,9.184,0,0,0,2.854-4.132,9.517,9.517,0,0,0,.482-2.527,9.223,9.223,0,0,0-1.195-5.14,6.226,6.226,0,0,0-2.95-2.815,16.253,16.253,0,0,0-2.118-.646c-.726-.208-1.453-.411-2.184-.6-.8-.2-1.589-.482-2.409-.627a.922.922,0,0,0-1.02.826q-.023,1.507-.006,3.014a1.335,1.335,0,0,0,.938,1.151c1.29.354,2.584.7,3.87,1.066a2.663,2.663,0,0,1,1.546,1.273,4.148,4.148,0,0,1,.583,2.563,4.081,4.081,0,0,1-1.043,2.407,4.184,4.184,0,0,1-2.805,1.42,4.071,4.071,0,0,1-2.879-.817,3.232,3.232,0,0,1-1.206-1.522,2.471,2.471,0,0,1-.153-.825c0-5.023-.016-10.047.015-15.07a8.391,8.391,0,0,1,1.769-4.958.426.426,0,0,1,.2-.142,5.476,5.476,0,0,1,4.931.32q5.928,3.417,11.82,6.9a5.511,5.511,0,0,1,2.768,4.174,11.687,11.687,0,0,1,.029,2.1c-.034.836-.011,1.674-.013,2.511,0,2.227.014,4.454-.021,6.681-.017,1.1.032,2.211-.038,3.312a5.466,5.466,0,0,1-2.874,4.632c-3.6,2.069-7.212,4.115-10.82,6.167a10.363,10.363,0,0,1-2.06,1.033,5,5,0,0,1-1.2.24c-.049,0-.1,0-.136.046Z" transform="translate(195.903 2321.676)"/><path class="a" d="M1829.367-2037.041a13.85,13.85,0,0,0-.492,1.621c-.783,2.72-1.551,5.444-2.329,8.166-.379,1.325-.751,2.652-1.158,3.968a6.769,6.769,0,0,1-1.491,2.673,3.916,3.916,0,0,1-2.76,1.2c-.652.036-1.307.013-1.96.011-.3,0-.441-.116-.452-.419-.018-.493-.019-.988,0-1.481.012-.308.158-.421.48-.419a10.244,10.244,0,0,0,1.751-.106,2.335,2.335,0,0,0,1.792-1.553c.127-.291.219-.6.34-.889.078-.19.01-.233-.17-.225-.234.01-.469,0-.7,0a.629.629,0,0,1-.722-.521c-.178-.583-.346-1.169-.519-1.753q-.97-3.279-1.941-6.557-.548-1.85-1.1-3.7c-.117-.4-.005-.55.413-.556.553-.008,1.106-.006,1.659,0a.554.554,0,0,1,.63.488q1.1,3.945,2.195,7.891c.231.828.465,1.656.7,2.484.018.064.015.157.088.165.1.011.1-.1.117-.163q.43-1.531.855-3.064,1.022-3.68,2.044-7.36a.507.507,0,0,1,.583-.439c.561-.012,1.123-.006,1.684,0a.556.556,0,0,1,.47.238Z" transform="translate(-1716.559 2051.881)"/><path class="a" d="M726.721-2100.18a3.013,3.013,0,0,1,1.247.531,2.644,2.644,0,0,1,1.079,2.065,25.236,25.236,0,0,1,0,2.71,3.615,3.615,0,0,1-3.326,3.546,7.313,7.313,0,0,1-.927.045h-6.51c-.419,0-.535-.116-.535-.538q0-8.136,0-16.272c0-.461.113-.573.579-.573,2.162,0,4.324,0,6.485,0a4.263,4.263,0,0,1,2.6.787,3.461,3.461,0,0,1,1.381,2.417,11.952,11.952,0,0,1,.019,2.853,2.665,2.665,0,0,1-1.8,2.3C726.935-2100.273,726.859-2100.24,726.721-2100.18Zm-6.325,3.855c0,.82,0,1.641,0,2.461,0,.217.078.327.308.326,1.349,0,2.7.011,4.048-.012a1.6,1.6,0,0,0,1.7-1.507,14.456,14.456,0,0,0,.028-2.332,1.613,1.613,0,0,0-.6-1.276,2.111,2.111,0,0,0-1.343-.41c-1.257,0-2.514,0-3.772,0-.32,0-.363.042-.363.363Q720.4-2097.518,720.4-2096.325Zm0-7.529c0,.752,0,1.505,0,2.258,0,.2.057.321.283.321,1.289,0,2.579.013,3.868-.011a1.6,1.6,0,0,0,1.653-1.471,8.978,8.978,0,0,0,.024-2.027,1.528,1.528,0,0,0-1.233-1.542,2.7,2.7,0,0,0-.695-.085c-1.18,0-2.361,0-3.541,0-.311,0-.357.05-.358.373Q720.4-2104.945,720.4-2103.854Z" transform="translate(-671.774 2119.386)"/><path class="a" d="M1302.583-2025.136a.357.357,0,0,0-.062.069,2.4,2.4,0,0,1-2.124,1.307,10.071,10.071,0,0,1-3.024-.122,3.589,3.589,0,0,1-2.733-3.031,9.053,9.053,0,0,1-.088-1.273c0-1.724,0-3.449,0-5.173a4.89,4.89,0,0,1,.4-2.05,3.5,3.5,0,0,1,2.8-2.035,7.826,7.826,0,0,1,1.324-.092q2.765,0,5.53,0a2.036,2.036,0,0,1,.373.033.366.366,0,0,1,.325.384c0,.067,0,.134,0,.2q0,6.291,0,12.581c0,.505-.1.6-.6.6h-1.559c-.378,0-.507-.13-.51-.515,0-.29,0-.58,0-.87Zm.06-6.29c0-1.147,0-2.294,0-3.441,0-.233-.083-.336-.323-.334-1.131.006-2.263-.01-3.394.008a1.606,1.606,0,0,0-1.713,1.678c-.027,1.917-.031,3.835,0,5.751a1.559,1.559,0,0,0,1.462,1.682,10.9,10.9,0,0,0,2.23.005,1.789,1.789,0,0,0,1.13-.487,2.179,2.179,0,0,0,.6-1.648C1302.648-2029.283,1302.643-2030.354,1302.643-2031.426Z" transform="translate(-1219.553 2051.836)"/><path class="a" d="M1575.671-2023.773c-.344,0-.687-.008-1.031,0a.659.659,0,0,1-.663-.4q-1.047-2.169-2.087-4.342c-.054-.113-.1-.229-.161-.34-.029-.056-.039-.142-.126-.137s-.093.087-.12.145c-.7,1.48-1.419,2.956-2.1,4.445a.907.907,0,0,1-.976.639c-.626-.039-1.257-.008-1.885-.01-.373,0-.456-.14-.278-.465,1.137-2.077,2.271-4.155,3.421-6.225a.6.6,0,0,0,0-.68c-1.1-1.943-2.186-3.9-3.276-5.846-.037-.066-.075-.131-.107-.2-.108-.228-.066-.332.186-.367a4.92,4.92,0,0,1,.651-.022c.486,0,.972,0,1.458,0a.823.823,0,0,1,.828.523c.671,1.459,1.362,2.908,2.051,4.359.039.082.043.227.168.22.1-.006.1-.137.139-.217q.971-2.19,1.939-4.381a.762.762,0,0,1,.74-.5c.662-.005,1.324-.008,1.986,0,.428.006.492.149.282.532q-1.353,2.478-2.7,4.96c-.192.353-.376.71-.578,1.057a.345.345,0,0,0,0,.391c.779,1.385,1.551,2.775,2.325,4.163.416.745.835,1.489,1.25,2.234.181.326.1.463-.274.464C1576.375-2023.772,1576.023-2023.773,1575.671-2023.773Z" transform="translate(-1477.484 2051.877)"/><path class="a" d="M1164.172-2131.232q0-4.456,0-8.914c0-.486.078-.563.57-.563.528,0,1.056,0,1.583,0,.325,0,.454.128.473.452,0,.067,0,.134,0,.2q0,8.851,0,17.7a1.721,1.721,0,0,1-.02.324.353.353,0,0,1-.366.314c-.628,0-1.257.007-1.885,0a.335.335,0,0,1-.351-.35c-.006-.083,0-.167,0-.251Q1164.172-2126.774,1164.172-2131.232Z" transform="translate(-1095.734 2149.816)"/><path class="a" d="M1025.234-2030.109q0-3.176,0-6.352c0-.469.073-.543.534-.543.536,0,1.072,0,1.608,0,.353,0,.483.129.484.487,0,1.079,0,2.159,0,3.239q0,4.707,0,9.414a2.562,2.562,0,0,1-.011.326.319.319,0,0,1-.353.312c-.62,0-1.24,0-1.86,0-.279,0-.4-.132-.4-.43,0-.728,0-1.456,0-2.184Z" transform="translate(-963.787 2051.329)"/><path class="a" d="M1027.305-2138.852c0,.4,0,.8,0,1.2,0,.354-.133.482-.488.484q-.841.006-1.682,0c-.327,0-.472-.12-.477-.447q-.019-1.241,0-2.482c0-.3.158-.433.466-.435q.853-.006,1.707,0c.339,0,.471.135.475.473C1027.308-2139.654,1027.305-2139.253,1027.305-2138.852Z" transform="translate(-963.231 2149.646)"/><path class="b" d="M-27.406-2099.644a.224.224,0,0,1-.011-.042s.01-.011.016-.016Z" transform="translate(35.894 2110.872)"/></g></g></svg>