<svg xmlns="http://www.w3.org/2000/svg" width="82" height="24" fill="none" viewBox="0 0 82 24"><rect width="24" height="24" fill="#9B2AD6" rx="12"/><path fill="#FF8500" d="M17.19 15.91c0-.8.62-1.32 1.4-1.32.8 0 1.42.52 1.42 1.32s-.63 1.35-1.41 1.35c-.79 0-1.41-.57-1.41-1.35Z"/><path fill="#fff" d="M16.82 12.68c0 2.86-2.1 4.69-4.8 4.69-1.3 0-2.34-.4-3.04-1.19v1.05H6.67V4.67H9.1v4.42c.72-.75 1.7-1.1 2.9-1.1 2.7 0 4.8 1.82 4.8 4.69Zm-2.27 0c0-1.58-1.05-2.53-2.45-2.53-1.4 0-2.46.95-2.46 2.53 0 1.57 1.06 2.52 2.46 2.52s2.45-.95 2.45-2.52ZM35.25 6.05c1.26 0 2.25.26 2.98.77s1.09 1.2 1.09 2.09c0 .6-.18 1.14-.54 1.6-.35.44-.82.74-1.43.9.74.15 1.32.48 1.74 1 .43.51.64 1.14.64 1.89 0 .98-.39 1.75-1.16 2.31-.77.57-1.82.85-3.14.85H30V6.06h5.25Zm-.13 4.6c.48 0 .87-.1 1.14-.33.28-.22.42-.54.42-.94 0-.4-.14-.7-.42-.91a1.72 1.72 0 0 0-1.14-.31h-2.55v2.49h2.55Zm0 4.7c.6 0 1.08-.11 1.43-.35.35-.25.52-.6.52-1.03 0-.4-.17-.74-.52-.97a2.42 2.42 0 0 0-1.43-.35h-2.55v2.7h2.55ZM41.55 8.7h2.51v8.76h-2.5V8.69Zm1.24-3.9c.4 0 .73.13.98.4.26.25.39.59.39 1 0 .41-.13.75-.4 1.01-.24.26-.57.4-.97.4s-.72-.14-.98-.4c-.25-.27-.37-.6-.37-1 0-.42.12-.76.37-1.02.26-.26.59-.39.98-.39ZM51.9 16.97a4.28 4.28 0 0 1-2.29.6c-.81 0-1.48-.23-1.99-.7-.5-.46-.76-1.13-.76-2V10.8h-1.22V9.1h1.22V6.67h2.5V9.1h2.37v1.74h-2.38v3.62c0 .67.27 1 .8 1 .37 0 .78-.1 1.22-.32l.52 1.84ZM58.77 8.61c.81 0 1.53.2 2.15.57.63.37 1.11.9 1.45 1.58.34.69.52 1.48.52 2.37 0 .88-.17 1.65-.5 2.33A3.73 3.73 0 0 1 60.94 17c-.6.37-1.32.56-2.14.56-.6 0-1.15-.12-1.62-.34a3.36 3.36 0 0 1-1.2-1.03v1.27h-2.5V5.37h2.5v4.61c.32-.44.71-.78 1.18-1a3.52 3.52 0 0 1 1.6-.37Zm-.6 6.86c.65 0 1.17-.22 1.57-.67.4-.45.6-1.04.6-1.76 0-.7-.2-1.28-.6-1.72-.4-.46-.92-.69-1.56-.69s-1.17.23-1.58.69c-.4.44-.6 1.02-.6 1.72 0 .73.2 1.32.6 1.76.41.45.94.67 1.58.67ZM70.08 8.6c.98 0 1.76.3 2.33.9.59.62.88 1.43.88 2.45v5.51h-2.5v-4.77c0-.56-.16-1-.48-1.3-.3-.33-.72-.5-1.25-.5-.62.01-1.11.23-1.47.66-.36.4-.54.94-.54 1.6v4.31h-2.5V8.69h2.5v1.54c.61-1.07 1.62-1.61 3.03-1.63ZM80.98 11.27a6.94 6.94 0 0 0-1.42-.62 4.1 4.1 0 0 0-1.25-.23c-.3 0-.55.06-.73.16a.53.53 0 0 0-.28.5c0 .23.13.42.38.55.24.13.65.27 1.22.44.62.18 1.13.37 1.53.55.4.17.75.44 1.04.8.3.35.44.8.44 1.38 0 .87-.34 1.55-1 2.04-.67.48-1.52.72-2.57.72-.71 0-1.4-.1-2.07-.31a5.46 5.46 0 0 1-1.72-.91l.81-1.7a4.96 4.96 0 0 0 3.05 1.1c.33 0 .6-.06.8-.17.2-.12.3-.3.3-.52 0-.25-.12-.45-.38-.59-.25-.14-.66-.3-1.23-.45-.6-.18-1.1-.35-1.5-.53a2.7 2.7 0 0 1-1-.78 2.17 2.17 0 0 1-.43-1.38c0-.87.33-1.54.98-2.02a4.08 4.08 0 0 1 2.47-.72 6.39 6.39 0 0 1 3.43.98l-.87 1.7Z"/></svg>