<svg xmlns="http://www.w3.org/2000/svg" width="120.49" height="19.978" viewBox="0 0 120.49 19.978"><defs><style>.a{fill:#7d7f80;}.b{fill:#007fae;}</style></defs><g transform="translate(0 0)"><g transform="translate(0.141 16.906)"><path class="a" d="M26.3,363.691h.442V360.8H26.3Z" transform="translate(-26.3 -360.8)"/></g><g transform="translate(2.811 16.705)"><path class="a" d="M39.6,362.892h0V359.8l2.088,2.209V360h.442v3.072l-2.088-2.209v2.028Z" transform="translate(-39.6 -359.8)"/></g><g transform="translate(7.569 16.926)"><path class="a" d="M63.3,363.771h0V360.9h.6a2.039,2.039,0,0,1,.683.08,1.78,1.78,0,0,1,.5.281,1.366,1.366,0,0,1,.442,1.064,1.382,1.382,0,0,1-.462,1.064,1.149,1.149,0,0,1-.5.281,1.908,1.908,0,0,1-.663.08h-.6Zm.442-.4h.2a1.658,1.658,0,0,0,.482-.06,1.391,1.391,0,0,0,.341-.2,1.067,1.067,0,0,0,0-1.526,1.149,1.149,0,0,0-.843-.261h-.2v2.048Z" transform="translate(-63.3 -360.9)"/></g><g transform="translate(11.746 16.846)"><path class="a" d="M84.1,361.986h0a1.491,1.491,0,0,1,2.55-1.044,1.382,1.382,0,0,1,.442,1.044,1.352,1.352,0,0,1-.442,1.044,1.438,1.438,0,0,1-1.084.442,1.5,1.5,0,0,1-1-.382A1.478,1.478,0,0,1,84.1,361.986Zm.442.02h0a1.048,1.048,0,0,0,.341.783,1,1,0,0,0,.743.3,1.017,1.017,0,0,0,.763-.321,1.117,1.117,0,0,0,0-1.526.987.987,0,0,0-.763-.321.946.946,0,0,0-.743.321A.975.975,0,0,0,84.542,362.006Z" transform="translate(-84.1 -360.5)"/></g><g transform="translate(16.866 16.705)"><path class="a" d="M109.6,362.892h0V359.8l2.088,2.209V360h.442v3.072l-2.088-2.209v2.028Z" transform="translate(-109.6 -359.8)"/></g><g transform="translate(21.624 16.906)"><path class="a" d="M134.886,361.2h-1.144v.7h1.124v.4h-1.124v.984h1.144v.4H133.3V360.8h1.586Z" transform="translate(-133.3 -360.8)"/></g><g transform="translate(25.178 16.785)"><path class="a" d="M152.787,360.742h0l-.361.221a.53.53,0,0,0-.181-.221.428.428,0,0,0-.241-.06.452.452,0,0,0-.3.1.286.286,0,0,0-.12.241c0,.141.1.241.3.341l.3.12a.968.968,0,0,1,.5.341.753.753,0,0,1,.161.5.893.893,0,0,1-.261.663.962.962,0,0,1-.663.241.88.88,0,0,1-.622-.221.966.966,0,0,1-.3-.622l.442-.1a.864.864,0,0,0,.1.341.489.489,0,0,0,.723.04.524.524,0,0,0,.141-.341.372.372,0,0,0-.04-.14.982.982,0,0,1-.06-.141.848.848,0,0,0-.141-.1,1.448,1.448,0,0,0-.181-.1l-.261-.12a.809.809,0,0,1-.6-.743.688.688,0,0,1,.241-.542.832.832,0,0,1,.622-.241A1.079,1.079,0,0,1,152.787,360.742Z" transform="translate(-151 -360.2)"/></g><g transform="translate(29.113 16.906)"><path class="a" d="M170.6,363.691h.442V360.8H170.6Z" transform="translate(-170.6 -360.8)"/></g><g transform="translate(31.443 16.745)"><path class="a" d="M184.228,362.349h-1.245l-.321.7H182.2L183.626,360l1.385,3.052h-.482Zm-.181-.4h0l-.422-.984-.462.984Z" transform="translate(-182.2 -360)"/></g><g transform="translate(38.892 16.926)"><path class="a" d="M219.3,363.771h0V360.9h.6a2.115,2.115,0,0,1,.683.08,1.449,1.449,0,0,1,.482.281,1.457,1.457,0,0,1,0,2.128,1.207,1.207,0,0,1-.482.281,1.964,1.964,0,0,1-.683.08h-.6Zm.422-.4h.181a1.807,1.807,0,0,0,.5-.06,1.9,1.9,0,0,0,.341-.2,1.028,1.028,0,0,0,.321-.763.959.959,0,0,0-.321-.763,1.181,1.181,0,0,0-.843-.261h-.181Z" transform="translate(-219.3 -360.9)"/></g><g transform="translate(43.188 16.906)"><path class="a" d="M240.7,363.691h.442V360.8H240.7Z" transform="translate(-240.7 -360.8)"/></g><g transform="translate(45.738 16.866)"><path class="a" d="M255.026,362.026h1.185v.1a2.473,2.473,0,0,1-.06.582,1.607,1.607,0,0,1-.261.422,1.282,1.282,0,0,1-1.024.442,1.413,1.413,0,0,1-1.044-.442,1.44,1.44,0,0,1-.422-1.044,1.352,1.352,0,0,1,.442-1.044,1.4,1.4,0,0,1,1.064-.442,1.291,1.291,0,0,1,.622.141,1.606,1.606,0,0,1,.562.442l-.3.3a1.027,1.027,0,0,0-.863-.462.987.987,0,0,0-.763.321,1.045,1.045,0,0,0-.3.763,1.06,1.06,0,0,0,.341.8,1.079,1.079,0,0,0,.7.281.786.786,0,0,0,.582-.221.8.8,0,0,0,.281-.522h-.723v-.422Z" transform="translate(-253.4 -360.6)"/></g><g transform="translate(50.637 16.906)"><path class="a" d="M277.8,363.691h.422V360.8H277.8Z" transform="translate(-277.8 -360.8)"/></g><g transform="translate(53.007 16.906)"><path class="a" d="M290.7,361.2h0v2.49h-.442V361.2H289.6v-.4h1.747v.4Z" transform="translate(-289.6 -360.8)"/></g><g transform="translate(56.199 16.745)"><path class="a" d="M307.528,362.349h-1.245l-.321.7H305.5L306.926,360l1.385,3.052h-.482Zm-.181-.4h0l-.422-.984-.462.984Z" transform="translate(-305.5 -360)"/></g><g transform="translate(60.917 16.906)"><path class="a" d="M329.442,360.8h0v2.49h.843v.4H329V360.8Z" transform="translate(-329 -360.8)"/></g><g transform="translate(66.559 16.745)"><path class="a" d="M359.108,362.349h-1.225l-.321.7H357.1L358.526,360l1.365,3.052h-.462Zm-.181-.4h0l-.422-.984-.442.984Z" transform="translate(-357.1 -360)"/></g><g transform="translate(71.097 16.785)"><path class="a" d="M381.487,360.742h0l-.361.221a.747.747,0,0,0-.181-.221.5.5,0,0,0-.261-.06.493.493,0,0,0-.3.1.286.286,0,0,0-.121.241c0,.141.1.241.321.341l.281.12a1.13,1.13,0,0,1,.522.341.879.879,0,0,1,.161.5.893.893,0,0,1-.261.663.962.962,0,0,1-.663.241.88.88,0,0,1-.622-.221.922.922,0,0,1-.3-.622l.442-.1a.624.624,0,0,0,.1.341.506.506,0,0,0,.4.181.44.44,0,0,0,.341-.141.524.524,0,0,0,.14-.341.342.342,0,0,0-.02-.14,1.152,1.152,0,0,0-.08-.141.637.637,0,0,0-.12-.1,1.448,1.448,0,0,0-.181-.1l-.281-.12a.809.809,0,0,1-.6-.743.648.648,0,0,1,.261-.542.864.864,0,0,1,.622-.241A1.047,1.047,0,0,1,381.487,360.742Z" transform="translate(-379.7 -360.2)"/></g><g transform="translate(74.872 16.785)"><path class="a" d="M400.287,360.742h0l-.361.221a.548.548,0,0,0-.2-.221.386.386,0,0,0-.241-.06.493.493,0,0,0-.3.1.286.286,0,0,0-.121.241c0,.141.1.241.321.341l.281.12a1.129,1.129,0,0,1,.522.341.879.879,0,0,1,.161.5.893.893,0,0,1-.261.663.928.928,0,0,1-.663.241.848.848,0,0,1-.622-.221.965.965,0,0,1-.3-.622l.442-.1a.625.625,0,0,0,.1.341.479.479,0,0,0,.4.181.44.44,0,0,0,.341-.141.524.524,0,0,0,.141-.341.341.341,0,0,0-.02-.14,1.153,1.153,0,0,0-.08-.141.638.638,0,0,0-.12-.1,1.86,1.86,0,0,0-.2-.1l-.261-.12a.809.809,0,0,1-.6-.743.648.648,0,0,1,.261-.542.832.832,0,0,1,.622-.241A1.047,1.047,0,0,1,400.287,360.742Z" transform="translate(-398.5 -360.2)"/></g><g transform="translate(78.807 16.906)"><path class="a" d="M419.686,361.2h-1.165v.7h1.124v.4h-1.124v.984h1.165v.4H418.1V360.8h1.586Z" transform="translate(-418.1 -360.8)"/></g><g transform="translate(82.22 16.906)"><path class="a" d="M436.184,361.2h0v2.49h-.442V361.2H435.1v-.4h1.747v.4Z" transform="translate(-435.1 -360.8)"/></g><g transform="translate(88.625 16.906)"><path class="a" d="M468.586,361.2h-1.144v.7h1.124v.4h-1.124v.984h1.144v.4H467V360.8h1.586Z" transform="translate(-467 -360.8)"/></g><g transform="translate(92.019 16.906)"><path class="a" d="M484.824,362.185h0l-.8-1.385h.5l.542.984.582-.984h.5l-.843,1.385.883,1.506h-.5l-.642-1.1-.643,1.1h-.5Z" transform="translate(-483.9 -360.8)"/></g><g transform="translate(96.014 16.863)"><path class="a" d="M506.069,360.789h0v.522a1.154,1.154,0,0,0-.763-.321.918.918,0,0,0-.743.321,1.091,1.091,0,0,0-.3.783,1,1,0,0,0,.3.743.974.974,0,0,0,.743.321,1.9,1.9,0,0,0,.381-.06.941.941,0,0,0,.181-.12,1.215,1.215,0,0,0,.2-.141v.542a1.569,1.569,0,0,1-.783.2,1.473,1.473,0,0,1-1.044-.422,1.493,1.493,0,0,1-.442-1.044,1.6,1.6,0,0,1,.361-.984,1.488,1.488,0,0,1,1.144-.542A1.285,1.285,0,0,1,506.069,360.789Z" transform="translate(-503.8 -360.585)"/></g><g transform="translate(100.451 16.906)"><path class="a" d="M526.342,361.924h1.245V360.8h.442v2.891h-.442v-1.345h-1.245v1.345H525.9V360.8h.442Z" transform="translate(-525.9 -360.8)"/></g><g transform="translate(104.487 16.745)"><path class="a" d="M548.028,362.349h-1.245l-.321.7H546L547.426,360l1.385,3.052h-.482Zm-.2-.4h0l-.422-.984-.462.984Z" transform="translate(-546 -360)"/></g><g transform="translate(109.185 16.705)"><path class="a" d="M569.4,362.892h0V359.8l2.108,2.209V360h.422v3.072l-2.088-2.209v2.028Z" transform="translate(-569.4 -359.8)"/></g><g transform="translate(113.823 16.866)"><path class="a" d="M594.146,362.026h1.185v.1a2.393,2.393,0,0,1-.08.582,1.51,1.51,0,0,1-.241.422,1.282,1.282,0,0,1-1.024.442,1.412,1.412,0,0,1-1.044-.442,1.458,1.458,0,0,1-.442-1.044,1.352,1.352,0,0,1,.442-1.044,1.4,1.4,0,0,1,1.064-.442,1.291,1.291,0,0,1,.622.141,2.07,2.07,0,0,1,.562.442l-.3.3a1.052,1.052,0,0,0-.863-.462.987.987,0,0,0-.763.321,1.044,1.044,0,0,0-.3.763.994.994,0,0,0,.341.8,1.12,1.12,0,0,0,.7.281.817.817,0,0,0,.582-.221.8.8,0,0,0,.281-.522h-.723v-.422Z" transform="translate(-592.5 -360.6)"/></g><g transform="translate(118.763 16.906)"><path class="a" d="M618.686,361.2h-1.165v.7h1.124v.4h-1.124v.984h1.165v.4H617.1V360.8h1.586Z" transform="translate(-617.1 -360.8)"/></g><g transform="translate(0 0.482)"><path class="b" d="M25.6,279h3.694v13.272H25.6Zm2.952.743H26.343v11.806h2.209ZM26.7,290.425h0a.8.8,0,0,1,.361-.643V281.47a.724.724,0,0,1-.361-.643.7.7,0,0,1,.221-.542.729.729,0,0,1,.522-.221.776.776,0,0,1,.542.221.727.727,0,0,1,.2.542.747.747,0,0,1-.361.643v8.312a.724.724,0,0,1,.361.643.711.711,0,0,1-.2.522.671.671,0,0,1-.542.221.657.657,0,0,1-.522-.221A.7.7,0,0,1,26.7,290.425Z" transform="translate(-25.6 -279)"/></g><g transform="translate(6.084 0.381)"><path class="b" d="M57,290.125h0a.715.715,0,0,1,.361-.622v-9.336h3.213l9.577,9.577H72.3v-10.32h-.743V289H70.477l-9.6-9.577H56.643V291.23h2.209v-9.6h1.084l9.617,9.6H73.79V279.885a.7.7,0,0,1-.361-.642.692.692,0,0,1,.743-.743.711.711,0,0,1,.522.2.762.762,0,0,1-.141,1.185v12.087H69.272l-9.557-9.6h-.1v9.6H55.9V278.7h5.26l9.577,9.577h.08V278.7h2.209v11.806H69.834l-9.6-9.6H58.109V289.5a.671.671,0,0,1,.361.622.758.758,0,0,1-.2.542.742.742,0,0,1-.542.221.729.729,0,0,1-.522-.221A.792.792,0,0,1,57,290.125Z" transform="translate(-55.9 -278.5)"/></g><g transform="translate(26.905 0.241)"><path class="b" d="M163.656,287.819h0a.692.692,0,0,1,.743-.743.715.715,0,0,1,.622.361h7.108c.161,0,.3-.02.4-.02a.378.378,0,0,0,.221-.1.326.326,0,0,0,.1-.221,2.312,2.312,0,0,0,.02-.4v-4.437c0-.361-.04-.562-.12-.643a1.166,1.166,0,0,0-.622-.1h-8.834v7.369h9.577a3.765,3.765,0,0,0,.763-.06.824.824,0,0,0,.442-.2.612.612,0,0,0,.2-.442,3.9,3.9,0,0,0,.06-.763v-5.9a4.129,4.129,0,0,0-.06-.783.75.75,0,0,0-.2-.462.824.824,0,0,0-.442-.2,4.143,4.143,0,0,0-.763-.04H161.809v11.043H159.6V277.8h13.272a9.053,9.053,0,0,1,1.827.161,2.4,2.4,0,0,1,1.124.582,2.491,2.491,0,0,1,.582,1.124,8.911,8.911,0,0,1,.161,1.827v5.9a9.053,9.053,0,0,1-.161,1.827,2.683,2.683,0,0,1-.582,1.144,2.382,2.382,0,0,1-1.124.562,9.242,9.242,0,0,1-1.827.141h-9.316a.724.724,0,0,1-.643.361.743.743,0,0,1-.522-.2.776.776,0,0,1-.221-.542.729.729,0,0,1,.221-.522.765.765,0,0,1,.522-.221.724.724,0,0,1,.643.361h9.316a7.278,7.278,0,0,0,1.466-.12,1.911,1.911,0,0,0,.9-.442,1.743,1.743,0,0,0,.442-.9,7.276,7.276,0,0,0,.12-1.466v-5.9a7.14,7.14,0,0,0-.12-1.466,1.911,1.911,0,0,0-.442-.9,1.488,1.488,0,0,0-.9-.442,7.091,7.091,0,0,0-1.466-.141H160.343v11.806h.743V279.266h11.806a8.392,8.392,0,0,1,1.124.08,1.107,1.107,0,0,1,.663.341,1.374,1.374,0,0,1,.341.683,5.741,5.741,0,0,1,.08,1.124v5.9a5.741,5.741,0,0,1-.08,1.124,1.06,1.06,0,0,1-.341.663,1.227,1.227,0,0,1-.663.341,8.149,8.149,0,0,1-1.124.08h-10.32v-8.834h10.32a.659.659,0,0,1,.743.743v5.9a.668.668,0,0,1-.743.743h-7.851a.715.715,0,0,1-.622.361.7.7,0,0,1-.542-.221A.583.583,0,0,1,163.656,287.819Z" transform="translate(-159.6 -277.8)"/></g><g transform="translate(65.114 0.241)"><path class="b" d="M353.936,287.819h0a.692.692,0,0,1,.743-.743.693.693,0,0,1,.622.361h7.128c.161,0,.3-.02.4-.02a.346.346,0,0,0,.321-.321,2.312,2.312,0,0,0,.02-.4v-4.437c0-.361-.04-.562-.12-.643a1.115,1.115,0,0,0-.622-.1h-8.834v7.369h9.577a3.765,3.765,0,0,0,.763-.06.824.824,0,0,0,.442-.2.714.714,0,0,0,.221-.442,7.279,7.279,0,0,0,.04-.763v-5.9a7.719,7.719,0,0,0-.04-.783.905.905,0,0,0-.221-.462.824.824,0,0,0-.442-.2,4.143,4.143,0,0,0-.763-.04H352.109v11.043H349.9V277.8h13.272a9.052,9.052,0,0,1,1.827.161,2.4,2.4,0,0,1,1.124.582,2.309,2.309,0,0,1,.582,1.124,8.914,8.914,0,0,1,.161,1.827v5.9a9.056,9.056,0,0,1-.161,1.827,2.477,2.477,0,0,1-.582,1.144,2.382,2.382,0,0,1-1.124.562,9.241,9.241,0,0,1-1.827.141h-9.316a.715.715,0,0,1-.622.361.692.692,0,0,1-.743-.743.711.711,0,0,1,.2-.522.776.776,0,0,1,.542-.221.715.715,0,0,1,.622.361h9.316a7.141,7.141,0,0,0,1.466-.12,1.91,1.91,0,0,0,.9-.442,1.488,1.488,0,0,0,.442-.9,7.091,7.091,0,0,0,.141-1.466v-5.9a5.822,5.822,0,0,0-.141-1.466,1.605,1.605,0,0,0-.442-.9,1.488,1.488,0,0,0-.9-.442,6.943,6.943,0,0,0-1.466-.141H350.643v11.806h.743V279.266h11.806a8.139,8.139,0,0,1,1.124.08,1.228,1.228,0,0,1,.683.341,1.356,1.356,0,0,1,.321.683,5.74,5.74,0,0,1,.08,1.124v5.9a5.74,5.74,0,0,1-.08,1.124,1.041,1.041,0,0,1-.321.663,1.373,1.373,0,0,1-.683.341,7.906,7.906,0,0,1-1.124.08h-10.32v-8.834h10.32a.659.659,0,0,1,.743.743v5.9a.668.668,0,0,1-.743.743h-7.851a.741.741,0,0,1-1.165.141A.507.507,0,0,1,353.936,287.819Z" transform="translate(-349.9 -277.8)"/></g><g transform="translate(84.228 0.482)"><path class="b" d="M460.6,287.854h0V289.8a.686.686,0,0,1,.361.643.711.711,0,0,1-.2.522.671.671,0,0,1-.542.221.754.754,0,0,1-.743-.743.747.747,0,0,1,.361-.643v-1.2H448.774v3.674H445.1v-9.577a9.241,9.241,0,0,1,.141-1.827,2.4,2.4,0,0,1,.582-1.124,2.223,2.223,0,0,1,1.124-.582,9.053,9.053,0,0,1,1.827-.161h9.6a9.052,9.052,0,0,1,1.827.161,2.091,2.091,0,0,1,1.707,1.707,9.242,9.242,0,0,1,.141,1.827v9.577h-3.674v-2.209h-7.851a.671.671,0,0,1-.622.361.7.7,0,0,1-.542-.221.711.711,0,0,1-.2-.522.758.758,0,0,1,.2-.542.727.727,0,0,1,.542-.2.715.715,0,0,1,.622.361h8.593v2.209h2.209v-8.834a7.143,7.143,0,0,0-.12-1.466,1.762,1.762,0,0,0-.462-.9,1.624,1.624,0,0,0-.9-.462,7.088,7.088,0,0,0-1.466-.141h-9.6a7.086,7.086,0,0,0-1.466.141,1.567,1.567,0,0,0-.9.462,1.929,1.929,0,0,0-.462.9,7.143,7.143,0,0,0-.12,1.466v8.834h2.209v-3.674H460.6Zm-2.57-2.59h0a.715.715,0,0,1,.361-.622v-1.225a1.106,1.106,0,0,0-.12-.643,1.166,1.166,0,0,0-.622-.1h-8.112a2.443,2.443,0,0,0-.422.02.565.565,0,0,0-.221.08.32.32,0,0,0-.08.241,2.068,2.068,0,0,0-.04.4v2.951h11.063v-3.674a6.966,6.966,0,0,0-.04-.763.661.661,0,0,0-.2-.462.824.824,0,0,0-.442-.2,7.614,7.614,0,0,0-.763-.04h-9.6a7.279,7.279,0,0,0-.763.04.9.9,0,0,0-.462.2.98.98,0,0,0-.2.462,4.143,4.143,0,0,0-.04.763V289.8a.724.724,0,0,1,.361.643.711.711,0,0,1-.2.522.7.7,0,0,1-.542.221.657.657,0,0,1-.522-.221.729.729,0,0,1-.221-.522.747.747,0,0,1,.361-.643v-7.108a8.14,8.14,0,0,1,.08-1.124,1.228,1.228,0,0,1,.341-.683,1.48,1.48,0,0,1,.663-.341,5.743,5.743,0,0,1,1.124-.08h9.6a8.4,8.4,0,0,1,1.124.08,1.107,1.107,0,0,1,.663.341,1.374,1.374,0,0,1,.341.683,5.742,5.742,0,0,1,.08,1.124v4.417H448.051v-4.417a.651.651,0,0,1,.743-.743h9.6a.659.659,0,0,1,.743.743v1.948a.741.741,0,0,1,.141,1.165.711.711,0,0,1-.522.2.681.681,0,0,1-.522-.2A.758.758,0,0,1,458.03,285.264Z" transform="translate(-445.1 -279)"/></g><g transform="translate(102.76)"><path class="b" d="M550.411,284.792h0a.711.711,0,0,1,.2-.522.742.742,0,0,1,.542-.221.754.754,0,0,1,.743.743c0,.08-.02.141-.02.181l3.253,3.253-2.61,2.61-5.261-5.26h-1.988l-5.26,5.26-2.61-2.61,4.518-4.518L537.4,279.19l2.61-2.59,3.433,3.453a.447.447,0,0,1,.181-.02.711.711,0,0,1,.522.2.7.7,0,0,1,.221.542.657.657,0,0,1-.221.522.729.729,0,0,1-.522.221.7.7,0,0,1-.542-.221.711.711,0,0,1-.2-.522.5.5,0,0,1,.02-.2l-2.911-2.931-1.566,1.566,4.518,4.518-4.518,4.518,1.566,1.566,4.959-4.979h2.57l4.979,4.979,1.566-1.566-2.731-2.731a.5.5,0,0,1-.2.02.758.758,0,0,1-.542-.2A.841.841,0,0,1,550.411,284.792Zm1.365-5.582h0a.755.755,0,0,1,.743-.743.7.7,0,0,1,.542.221.729.729,0,0,1,.221.522.776.776,0,0,1-.221.542.758.758,0,0,1-.542.2.559.559,0,0,1-.2-.02l-4.156,4.156h-3.534l-3.955,4a.4.4,0,0,1,.06.161.754.754,0,0,1-.763.763.765.765,0,0,1-.522-.221.741.741,0,0,1-.221-.542.765.765,0,0,1,.221-.522.729.729,0,0,1,.522-.221.884.884,0,0,1,.2.04l4.2-4.216h3.474l3.955-3.935C551.8,279.351,551.776,279.29,551.776,279.21Zm0,9.015h0c0-.08.02-.141.02-.181l-3.273-3.293,5.562-5.542-1.566-1.566-4.979,4.979h-4.658l-2.69-2.69a.5.5,0,0,1-.181.02.758.758,0,0,1-.542-.2.776.776,0,0,1-.221-.542.729.729,0,0,1,.221-.522.776.776,0,0,1,.542-.221.657.657,0,0,1,.522.221.729.729,0,0,1,.221.522.181.181,0,0,1-.02.1c0,.04-.02.06-.02.1l2.49,2.47h4.056l5.261-5.261,2.61,2.59-5.562,5.562,2.751,2.771a.4.4,0,0,1,.2-.04.776.776,0,0,1,.542.221.729.729,0,0,1,.221.522.754.754,0,0,1-.763.763.729.729,0,0,1-.522-.221A.863.863,0,0,1,551.776,288.225Z" transform="translate(-537.4 -276.6)"/></g><g transform="translate(0 0.482)"><path class="b" d="M25.6,279h3.694v13.272H25.6Zm2.952.743H26.343v11.806h2.209ZM26.7,290.425h0a.8.8,0,0,1,.361-.643V281.47a.724.724,0,0,1-.361-.643.7.7,0,0,1,.221-.542.729.729,0,0,1,.522-.221.776.776,0,0,1,.542.221.727.727,0,0,1,.2.542.747.747,0,0,1-.361.643v8.312a.724.724,0,0,1,.361.643.711.711,0,0,1-.2.522.671.671,0,0,1-.542.221.657.657,0,0,1-.522-.221A.7.7,0,0,1,26.7,290.425Z" transform="translate(-25.6 -279)"/></g><g transform="translate(6.084 0.381)"><path class="b" d="M57,290.125h0a.715.715,0,0,1,.361-.622v-9.336h3.213l9.577,9.577H72.3v-10.32h-.743V289H70.477l-9.6-9.577H56.643V291.23h2.209v-9.6h1.084l9.617,9.6H73.79V279.885a.7.7,0,0,1-.361-.642.692.692,0,0,1,.743-.743.711.711,0,0,1,.522.2.762.762,0,0,1-.141,1.185v12.087H69.272l-9.557-9.6h-.1v9.6H55.9V278.7h5.26l9.577,9.577h.08V278.7h2.209v11.806H69.834l-9.6-9.6H58.109V289.5a.671.671,0,0,1,.361.622.758.758,0,0,1-.2.542.742.742,0,0,1-.542.221.729.729,0,0,1-.522-.221A.792.792,0,0,1,57,290.125Z" transform="translate(-55.9 -278.5)"/></g><g transform="translate(26.905 0.241)"><path class="b" d="M163.656,287.819h0a.692.692,0,0,1,.743-.743.715.715,0,0,1,.622.361h7.108c.161,0,.3-.02.4-.02a.378.378,0,0,0,.221-.1.326.326,0,0,0,.1-.221,2.312,2.312,0,0,0,.02-.4v-4.437c0-.361-.04-.562-.12-.643a1.166,1.166,0,0,0-.622-.1h-8.834v7.369h9.577a3.765,3.765,0,0,0,.763-.06.824.824,0,0,0,.442-.2.612.612,0,0,0,.2-.442,3.9,3.9,0,0,0,.06-.763v-5.9a4.129,4.129,0,0,0-.06-.783.75.75,0,0,0-.2-.462.824.824,0,0,0-.442-.2,4.143,4.143,0,0,0-.763-.04H161.809v11.043H159.6V277.8h13.272a9.053,9.053,0,0,1,1.827.161,2.4,2.4,0,0,1,1.124.582,2.491,2.491,0,0,1,.582,1.124,8.911,8.911,0,0,1,.161,1.827v5.9a9.053,9.053,0,0,1-.161,1.827,2.683,2.683,0,0,1-.582,1.144,2.382,2.382,0,0,1-1.124.562,9.242,9.242,0,0,1-1.827.141h-9.316a.724.724,0,0,1-.643.361.743.743,0,0,1-.522-.2.776.776,0,0,1-.221-.542.729.729,0,0,1,.221-.522.765.765,0,0,1,.522-.221.724.724,0,0,1,.643.361h9.316a7.278,7.278,0,0,0,1.466-.12,1.911,1.911,0,0,0,.9-.442,1.743,1.743,0,0,0,.442-.9,7.276,7.276,0,0,0,.12-1.466v-5.9a7.14,7.14,0,0,0-.12-1.466,1.911,1.911,0,0,0-.442-.9,1.488,1.488,0,0,0-.9-.442,7.091,7.091,0,0,0-1.466-.141H160.343v11.806h.743V279.266h11.806a8.392,8.392,0,0,1,1.124.08,1.107,1.107,0,0,1,.663.341,1.374,1.374,0,0,1,.341.683,5.741,5.741,0,0,1,.08,1.124v5.9a5.741,5.741,0,0,1-.08,1.124,1.06,1.06,0,0,1-.341.663,1.227,1.227,0,0,1-.663.341,8.149,8.149,0,0,1-1.124.08h-10.32v-8.834h10.32a.659.659,0,0,1,.743.743v5.9a.668.668,0,0,1-.743.743h-7.851a.715.715,0,0,1-.622.361.7.7,0,0,1-.542-.221A.583.583,0,0,1,163.656,287.819Z" transform="translate(-159.6 -277.8)"/></g><g transform="translate(65.114 0.241)"><path class="b" d="M353.936,287.819h0a.692.692,0,0,1,.743-.743.693.693,0,0,1,.622.361h7.128c.161,0,.3-.02.4-.02a.346.346,0,0,0,.321-.321,2.312,2.312,0,0,0,.02-.4v-4.437c0-.361-.04-.562-.12-.643a1.115,1.115,0,0,0-.622-.1h-8.834v7.369h9.577a3.765,3.765,0,0,0,.763-.06.824.824,0,0,0,.442-.2.714.714,0,0,0,.221-.442,7.279,7.279,0,0,0,.04-.763v-5.9a7.719,7.719,0,0,0-.04-.783.905.905,0,0,0-.221-.462.824.824,0,0,0-.442-.2,4.143,4.143,0,0,0-.763-.04H352.109v11.043H349.9V277.8h13.272a9.052,9.052,0,0,1,1.827.161,2.4,2.4,0,0,1,1.124.582,2.309,2.309,0,0,1,.582,1.124,8.914,8.914,0,0,1,.161,1.827v5.9a9.056,9.056,0,0,1-.161,1.827,2.477,2.477,0,0,1-.582,1.144,2.382,2.382,0,0,1-1.124.562,9.241,9.241,0,0,1-1.827.141h-9.316a.715.715,0,0,1-.622.361.692.692,0,0,1-.743-.743.711.711,0,0,1,.2-.522.776.776,0,0,1,.542-.221.715.715,0,0,1,.622.361h9.316a7.141,7.141,0,0,0,1.466-.12,1.91,1.91,0,0,0,.9-.442,1.488,1.488,0,0,0,.442-.9,7.091,7.091,0,0,0,.141-1.466v-5.9a5.822,5.822,0,0,0-.141-1.466,1.605,1.605,0,0,0-.442-.9,1.488,1.488,0,0,0-.9-.442,6.943,6.943,0,0,0-1.466-.141H350.643v11.806h.743V279.266h11.806a8.139,8.139,0,0,1,1.124.08,1.228,1.228,0,0,1,.683.341,1.356,1.356,0,0,1,.321.683,5.74,5.74,0,0,1,.08,1.124v5.9a5.74,5.74,0,0,1-.08,1.124,1.041,1.041,0,0,1-.321.663,1.373,1.373,0,0,1-.683.341,7.906,7.906,0,0,1-1.124.08h-10.32v-8.834h10.32a.659.659,0,0,1,.743.743v5.9a.668.668,0,0,1-.743.743h-7.851a.741.741,0,0,1-1.165.141A.507.507,0,0,1,353.936,287.819Z" transform="translate(-349.9 -277.8)"/></g><g transform="translate(84.228 0.482)"><path class="b" d="M460.6,287.854h0V289.8a.686.686,0,0,1,.361.643.711.711,0,0,1-.2.522.671.671,0,0,1-.542.221.754.754,0,0,1-.743-.743.747.747,0,0,1,.361-.643v-1.2H448.774v3.674H445.1v-9.577a9.241,9.241,0,0,1,.141-1.827,2.4,2.4,0,0,1,.582-1.124,2.223,2.223,0,0,1,1.124-.582,9.053,9.053,0,0,1,1.827-.161h9.6a9.052,9.052,0,0,1,1.827.161,2.091,2.091,0,0,1,1.707,1.707,9.242,9.242,0,0,1,.141,1.827v9.577h-3.674v-2.209h-7.851a.671.671,0,0,1-.622.361.7.7,0,0,1-.542-.221.711.711,0,0,1-.2-.522.758.758,0,0,1,.2-.542.727.727,0,0,1,.542-.2.715.715,0,0,1,.622.361h8.593v2.209h2.209v-8.834a7.143,7.143,0,0,0-.12-1.466,1.762,1.762,0,0,0-.462-.9,1.624,1.624,0,0,0-.9-.462,7.088,7.088,0,0,0-1.466-.141h-9.6a7.086,7.086,0,0,0-1.466.141,1.567,1.567,0,0,0-.9.462,1.929,1.929,0,0,0-.462.9,7.143,7.143,0,0,0-.12,1.466v8.834h2.209v-3.674H460.6Zm-2.57-2.59h0a.715.715,0,0,1,.361-.622v-1.225a1.106,1.106,0,0,0-.12-.643,1.166,1.166,0,0,0-.622-.1h-8.112a2.443,2.443,0,0,0-.422.02.565.565,0,0,0-.221.08.32.32,0,0,0-.08.241,2.068,2.068,0,0,0-.04.4v2.951h11.063v-3.674a6.966,6.966,0,0,0-.04-.763.661.661,0,0,0-.2-.462.824.824,0,0,0-.442-.2,7.614,7.614,0,0,0-.763-.04h-9.6a7.279,7.279,0,0,0-.763.04.9.9,0,0,0-.462.2.98.98,0,0,0-.2.462,4.143,4.143,0,0,0-.04.763V289.8a.724.724,0,0,1,.361.643.711.711,0,0,1-.2.522.7.7,0,0,1-.542.221.657.657,0,0,1-.522-.221.729.729,0,0,1-.221-.522.747.747,0,0,1,.361-.643v-7.108a8.14,8.14,0,0,1,.08-1.124,1.228,1.228,0,0,1,.341-.683,1.48,1.48,0,0,1,.663-.341,5.743,5.743,0,0,1,1.124-.08h9.6a8.4,8.4,0,0,1,1.124.08,1.107,1.107,0,0,1,.663.341,1.374,1.374,0,0,1,.341.683,5.742,5.742,0,0,1,.08,1.124v4.417H448.051v-4.417a.651.651,0,0,1,.743-.743h9.6a.659.659,0,0,1,.743.743v1.948a.741.741,0,0,1,.141,1.165.711.711,0,0,1-.522.2.681.681,0,0,1-.522-.2A.758.758,0,0,1,458.03,285.264Z" transform="translate(-445.1 -279)"/></g><g transform="translate(102.76)"><path class="b" d="M550.411,284.792h0a.711.711,0,0,1,.2-.522.742.742,0,0,1,.542-.221.754.754,0,0,1,.743.743c0,.08-.02.141-.02.181l3.253,3.253-2.61,2.61-5.261-5.26h-1.988l-5.26,5.26-2.61-2.61,4.518-4.518L537.4,279.19l2.61-2.59,3.433,3.453a.447.447,0,0,1,.181-.02.711.711,0,0,1,.522.2.7.7,0,0,1,.221.542.657.657,0,0,1-.221.522.729.729,0,0,1-.522.221.7.7,0,0,1-.542-.221.711.711,0,0,1-.2-.522.5.5,0,0,1,.02-.2l-2.911-2.931-1.566,1.566,4.518,4.518-4.518,4.518,1.566,1.566,4.959-4.979h2.57l4.979,4.979,1.566-1.566-2.731-2.731a.5.5,0,0,1-.2.02.758.758,0,0,1-.542-.2A.841.841,0,0,1,550.411,284.792Zm1.365-5.582h0a.755.755,0,0,1,.743-.743.7.7,0,0,1,.542.221.729.729,0,0,1,.221.522.776.776,0,0,1-.221.542.758.758,0,0,1-.542.2.559.559,0,0,1-.2-.02l-4.156,4.156h-3.534l-3.955,4a.4.4,0,0,1,.06.161.754.754,0,0,1-.763.763.765.765,0,0,1-.522-.221.741.741,0,0,1-.221-.542.765.765,0,0,1,.221-.522.729.729,0,0,1,.522-.221.884.884,0,0,1,.2.04l4.2-4.216h3.474l3.955-3.935C551.8,279.351,551.776,279.29,551.776,279.21Zm0,9.015h0c0-.08.02-.141.02-.181l-3.273-3.293,5.562-5.542-1.566-1.566-4.979,4.979h-4.658l-2.69-2.69a.5.5,0,0,1-.181.02.758.758,0,0,1-.542-.2.776.776,0,0,1-.221-.542.729.729,0,0,1,.221-.522.776.776,0,0,1,.542-.221.657.657,0,0,1,.522.221.729.729,0,0,1,.221.522.181.181,0,0,1-.02.1c0,.04-.02.06-.02.1l2.49,2.47h4.056l5.261-5.261,2.61,2.59-5.562,5.562,2.751,2.771a.4.4,0,0,1,.2-.04.776.776,0,0,1,.542.221.729.729,0,0,1,.221.522.754.754,0,0,1-.763.763.729.729,0,0,1-.522-.221A.863.863,0,0,1,551.776,288.225Z" transform="translate(-537.4 -276.6)"/></g><g transform="translate(45.999 0.321)"><path class="b" d="M271.626,282.316h0l-4.1-4.116h-8.915l-3.915,4V288l3.875,3.634,8.734-.1,2.751-4.076v-4.518l-3.172-3.172-7.63-.02-2.992,3.213.1,4.437,2.891,2.65,7.228-.02,2.048-3.233v-3.213l-2.269-2.269H259.94l-2.008,2.269.141,3.172L260,288.52l4.718-.04a.7.7,0,0,0,.642.381.759.759,0,0,0,.763-.743.759.759,0,0,0-1.466-.281l-4.337.04-1.526-1.426-.06-2.55,1.546-1.827,5.682.02,1.807,1.807v2.69l-1.747,2.63-6.345.04-2.429-2.189-.161-3.835,2.53-2.731h6.987l2.711,2.731-.04,3.755-2.289,3.674-8.011.141-3.413-3.172V282.5L259,278.963l8.272.02,3.634,3.634-.1,5.08-1.566,2.409h-.02a.753.753,0,0,0,0,1.506.763.763,0,0,0,.763-.763.708.708,0,0,0-.06-.281l1.666-2.55Z" transform="translate(-254.7 -278.2)"/></g></g></svg>