<svg xmlns="http://www.w3.org/2000/svg" width="109.622" height="34.115" viewBox="0 0 109.622 34.115"><defs><style>.a{fill:#cafafc;}.b{fill:#00a8c5;}.c{fill:#1ecce0;}.d{fill:#98ecf5;}.e{fill:#1ccfe3;}</style></defs><path class="a" d="M1401.139-583.865c-2.286,0-4.415-.012-6.543.009-.468,0-.63-.311-.826-.6-1.333-1.981-2.658-3.969-4.039-6.034-1.287,1.964-2.541,3.859-3.773,5.768a1.6,1.6,0,0,1-1.575.887c-1.923-.082-3.851-.027-5.916-.027,1.457-2.019,2.832-3.926,4.209-5.832,1.043-1.444,2.073-2.9,3.144-4.32a.883.883,0,0,0,.023-1.246c-2.31-3.2-4.586-6.43-6.871-9.651a1.057,1.057,0,0,1-.055-.266h4.767c2.01,0,2,.009,3.106,1.68.907,1.367,1.857,2.705,2.775,4.065.413.611.581.057.738-.17q1.759-2.538,3.473-5.106a.987.987,0,0,1,.954-.481c1.907.03,3.815.013,5.879.013-.786,1.1-1.5,2.108-2.221,3.105q-2.452,3.372-4.92,6.733a.675.675,0,0,0,.033.935C1396.024-590.949,1398.526-587.478,1401.139-583.865Z" transform="translate(-1291.517 613.429)"/><path class="b" d="M1163.495-630.1c4.411,0,8.821.013,13.232-.015.627,0,.805.151.8.786-.038,2.518-.031,5.037,0,7.555.006.558-.106.768-.725.766q-13.316-.03-26.632,0c-.548,0-.71-.146-.7-.7q.043-3.861,0-7.723c-.007-.58.2-.681.724-.679C1154.617-630.095,1159.056-630.1,1163.495-630.1Z" transform="translate(-1138.177 630.117)"/><path class="a" d="M1262.371-594.523c0-3.3.02-6.6-.017-9.9-.007-.645.177-.775.794-.772q7.625.039,15.25,0c.607,0,.84.106.8.767a32.175,32.175,0,0,0,0,3.272c.026.578-.183.684-.714.68-3.117-.023-6.235,0-9.352-.025-.563,0-.786.093-.754.713.057,1.116.043,2.238,0,3.356-.018.515.124.657.65.652,2.724-.028,5.449,0,8.173-.026.55-.006.714.139.69.69a29.954,29.954,0,0,0,0,3.188c.044.688-.238.756-.817.75-2.64-.028-5.28.011-7.92-.029-.642-.01-.8.164-.785.789.043,1.958-.006,3.917.029,5.874.01.559-.156.7-.7.692-1.544-.036-3.09-.046-4.634,0-.634.02-.716-.22-.712-.768C1262.383-587.921,1262.371-591.223,1262.371-594.523Z" transform="translate(-1213.77 613.433)"/><path class="a" d="M1329.417-605.18c2.95,0,5.9.014,8.851-.013.551-.005.716.14.7.693-.043,1.174-.04,2.351,0,3.526.017.516-.125.666-.652.656-1.713-.035-3.429.027-5.141-.032-.7-.024-.8.219-.8.836.024,4.954,0,9.908.032,14.862,0,.688-.207.823-.839.8-1.46-.045-2.923-.055-4.382,0-.666.027-.77-.2-.767-.8.025-4.954,0-9.908.028-14.862,0-.629-.112-.868-.811-.844-1.684.057-3.371,0-5.057.029-.514.008-.748-.078-.723-.67.05-1.173.049-2.352,0-3.525-.024-.58.19-.678.713-.674C1323.516-605.169,1326.467-605.18,1329.417-605.18Z" transform="translate(-1252.269 613.429)"/><path class="c" d="M1124.45-587.716c0,1.26-.021,2.52.01,3.779.013.519-.1.741-.687.734q-3.877-.046-7.755,0c-.574.006-.7-.193-.693-.727q.039-3.862,0-7.725c0-.523.1-.74.685-.733q3.878.044,7.755,0c.577-.006.707.2.694.727C1124.428-590.347,1124.45-589.031,1124.45-587.716Z" transform="translate(-1115.325 604.856)"/><path class="d" d="M1149.517-549.875c0-1.286.014-2.573-.008-3.858-.007-.463.14-.643.624-.64q3.916.025,7.833,0c.446,0,.662.1.658.6-.018,2.628-.014,5.257,0,7.885,0,.424-.132.6-.579.6q-3.959-.021-7.917,0c-.491,0-.624-.19-.617-.646C1149.531-547.246,1149.517-548.561,1149.517-549.875Z" transform="translate(-1138.214 579.402)"/><path class="e" d="M1149.549-583.36c-.145-2.847-.022-5.7-.066-8.544-.006-.357.131-.517.492-.489.167.013.337,0,.5,0,6.089,0,12.178.018,18.266-.021.839-.005,1.012.242,1,1.029-.052,2.486-.017,4.974-.022,7.462,0,.34.121.812-.525.638q-9.495.017-18.989,0A1.115,1.115,0,0,1,1149.549-583.36Z" transform="translate(-1138.192 604.872)"/><path class="c" d="M1149.7-565.041q9.41,0,18.819,0a1.692,1.692,0,0,1,.826.074c-.307.017-.614.049-.921.049q-8.923,0-17.847,0C1150.285-564.92,1149.959-564.787,1149.7-565.041Z" transform="translate(-1138.34 586.552)"/><path class="c" d="M1159.913-582.912c-3.032,0-6.065-.017-9.1.013-.639.006-.812-.2-.8-.815q.049-3.481,0-6.963c-.009-.618.164-.817.8-.815q9.1.033,18.193,0c.6,0,.766.194.76.771-.027,2.321-.032,4.643,0,6.963.01.651-.165.867-.846.859C1165.922-582.933,1162.918-582.912,1159.913-582.912Z" transform="translate(-1138.551 604.255)"/></svg>