<svg xmlns="http://www.w3.org/2000/svg" width="129.982" height="45.221" viewBox="0 0 129.982 45.221"><defs><style>.a{fill:#de5959;}</style></defs><g transform="translate(0)"><path class="a" d="M-299.376,574.968l-.392-.394a.472.472,0,0,0-.806.333v5.63a.474.474,0,0,0,.474.472h5.631a.471.471,0,0,0,.333-.8.47.47,0,0,1,0-.666l5.989-6.008a.47.47,0,0,0,0-.666l-.546-.544a.472.472,0,0,1,.333-.8h5.628a.473.473,0,0,1,.473.471v5.629a.473.473,0,0,1-.807.333l-.379-.379a.46.46,0,0,0-.665,0l-10.1,10.093a.472.472,0,0,1-.667,0l-12.354-12.354a.471.471,0,0,1,0-.669l17.1-17.1a.474.474,0,0,0,0-.668l-4.021-4.021a.473.473,0,0,0-.667,0l-22.14,22.141a.474.474,0,0,0,0,.668l22.138,22.138a.475.475,0,0,0,.668,0l22.137-22.138a.473.473,0,0,0,0-.666l-13.024-13.024a.472.472,0,0,0-.666,0l-13,13a.473.473,0,0,1-.67,0Z" transform="translate(317.091 -552.714)"/><g transform="translate(50.683 10.845)"><path class="a" d="M196.442,668.874a1.714,1.714,0,0,0-1.705,1.692A1.8,1.8,0,0,0,195.8,672.2a1.771,1.771,0,0,0,1.861-.4,1.65,1.65,0,0,0,.5-1.214,1.606,1.606,0,0,0-.5-1.2,1.66,1.66,0,0,0-1.216-.5v0h0ZM169.015,655.9h-1.272a1,1,0,0,0-1,.993v.71a6.228,6.228,0,0,0-4.6-2.112,6.367,6.367,0,0,0-4.942,2.2,7.924,7.924,0,0,0-1.975,5.5,8.2,8.2,0,0,0,1.972,5.609,6.511,6.511,0,0,0,9.544.237v1.4a1.236,1.236,0,0,0,1.234,1.236h2.172V657.038a1.139,1.139,0,0,0-1.138-1.137ZM165.8,666.679a3.9,3.9,0,0,1-3.047,1.3,3.7,3.7,0,0,1-2.925-1.341,5.113,5.113,0,0,1-1.13-3.439,4.9,4.9,0,0,1,1.16-3.317,3.744,3.744,0,0,1,2.925-1.325,3.824,3.824,0,0,1,3.014,1.316,5.567,5.567,0,0,1,0,6.811h0v0Zm-10.57-8.3v-1.451A1.024,1.024,0,0,0,154.2,655.9h-1.341a1.022,1.022,0,0,0-1.025,1.024v.632a5.923,5.923,0,0,0-4.614-2.067,6.244,6.244,0,0,0-5.1,2.383,8.461,8.461,0,0,0-1.795,5.458,8.042,8.042,0,0,0,1.932,5.5,6.244,6.244,0,0,0,4.915,2.171,6.332,6.332,0,0,0,4.658-2.063v2.051q0,4.571-3.723,4.57a3.64,3.64,0,0,1-3.075-1.374,2.965,2.965,0,0,1-.447-.867,1.2,1.2,0,0,0-1.139-.808h-1.285a1,1,0,0,0-.966,1.244,6.158,6.158,0,0,0,2.041,3.263,7.306,7.306,0,0,0,4.84,1.584,6.878,6.878,0,0,0,5.474-2.29,6.217,6.217,0,0,0,1.416-2.85,12.308,12.308,0,0,0,.188-1.4q.066-.789.066-1.831v-2.134A8.389,8.389,0,0,1,153.8,663.2a8.12,8.12,0,0,1,1.427-4.818h0Zm-4.3,8.183a3.724,3.724,0,0,1-3.076,1.412,3.653,3.653,0,0,1-3.047-1.4,5.907,5.907,0,0,1,0-6.6,3.659,3.659,0,0,1,3.047-1.431,3.789,3.789,0,0,1,2.969,1.31,4.941,4.941,0,0,1,1.148,3.424,5.058,5.058,0,0,1-1.042,3.288v0Zm32.5-10.652V655.9h-7.036v-4.309a1,1,0,0,0-1-1h-1.374A1.015,1.015,0,0,0,173,651.6v4.3h-1.449v3.163H173v12.618h1.935a1.453,1.453,0,0,0,1.456-1.456V659.066h3.479a7.126,7.126,0,0,1,1-1.451,6.254,6.254,0,0,1,2.554-1.7h0Zm17.311-5.322a2.221,2.221,0,0,0-2.2,2.189,2.213,2.213,0,0,0,2.218,2.231,2.067,2.067,0,0,0,1.549-.649,2.14,2.14,0,0,0,.651-1.568,2.077,2.077,0,0,0-.65-1.552,2.136,2.136,0,0,0-1.57-.654l0,0Zm.687,6.975H200.2a1.143,1.143,0,0,0-1.145,1.145v10.769a1.719,1.719,0,0,1,0,2.166v.606h2.184a1.211,1.211,0,0,0,1.21-1.212V658.578a1.017,1.017,0,0,0-1.019-1.015v0Zm15.944,2.078a8.033,8.033,0,0,0-11.128-.011,7.29,7.29,0,0,0-2.277,5.41,7.608,7.608,0,0,0,2.231,5.61,7.469,7.469,0,0,0,5.533,2.26,7.781,7.781,0,0,0,5.624-2.216,7.87,7.87,0,0,0,.016-11.054Zm-2.4,8.957a4.574,4.574,0,0,1-6.362-.017,4.955,4.955,0,0,1-1.177-3.482,4.722,4.722,0,0,1,1.207-3.346,4.511,4.511,0,0,1,6.332,0,5.5,5.5,0,0,1,0,6.843v0Z" transform="translate(-140.332 -650.588)"/><path class="a" d="M502.812,716.086a4.416,4.416,0,0,1-1.18-2.88h9.723a.814.814,0,0,0,.816-.8,8.123,8.123,0,0,0-1.869-5.684,7.354,7.354,0,0,0-10.283.061,8.135,8.135,0,0,0-1.93,5.639,7.93,7.93,0,0,0,1.988,5.638,6.472,6.472,0,0,0,3.408,1.919,7.15,7.15,0,0,0,1.742.195c2.415.05,4.517.1,6.932.149l0-.355a1.657,1.657,0,0,1-.444-1.16,1.63,1.63,0,0,1,.457-1.144l0-.43c-1.9-.048-6.522-.093-6.706-.093a3.56,3.56,0,0,1-2.662-1.056v0Zm-.472-6.782a3.423,3.423,0,0,1,.763-.851,3.249,3.249,0,0,1,.988-.543,3.521,3.521,0,0,1,1.164-.188,3.254,3.254,0,0,1,3.423,2.712h-6.82a4.036,4.036,0,0,1,.482-1.132v0Z" transform="translate(-458.451 -698.667)"/></g></g></svg>