<svg width="85" height="20" viewBox="0 0 85 20" fill="none" xmlns="http://www.w3.org/2000/svg">
<g clip-path="url(#clip0_3185_23187)">
<path fill-rule="evenodd" clip-rule="evenodd" d="M26.24 0C22.06 0 18.79 3.23 18.79 7.35C18.79 11.47 22.03 14.63 26.16 14.63C30.29 14.63 33.61 11.4 33.61 7.28C33.61 3.16 30.44 0 26.24 0ZM26.2 12.04C23.55 12.04 21.56 10.01 21.56 7.32C21.56 4.63 23.56 2.6 26.2 2.6C28.84 2.6 30.84 4.63 30.84 7.32C30.84 10.01 28.84 12.04 26.2 12.04Z" fill="black"/>
<path fill-rule="evenodd" clip-rule="evenodd" d="M44.94 0H39.17C39.04 0 38.93 0.11 38.93 0.24V14.43C38.93 14.56 39.04 14.67 39.17 14.67H41.45C41.58 14.67 41.69 14.56 41.69 14.43L41.71 9.77C41.71 9.64 41.82 9.53 41.95 9.53H44.87C47.93 9.53 50.53 7.52 50.53 4.74C50.53 1.96 48 0 44.94 0ZM41.71 6.92V2.68C41.71 2.55 41.82 2.44 41.95 2.44H44.71C46.3 2.44 47.7 3.39 47.7 4.81C47.7 6.23 46.31 7.16 44.71 7.16H41.95C41.82 7.16 41.71 7.05 41.71 6.92Z" fill="black"/>
<path fill-rule="evenodd" clip-rule="evenodd" d="M14.7 6.51H9.60001C9.53001 6.51 9.46 6.54 9.41 6.6L8.11 8.33C7.99 8.49 8.11 8.71 8.3 8.71H11.67C11.83 8.71 11.95 8.87 11.89 9.03C11.24 10.82 9.59 12.04 7.54 12.04C6.84 12.04 6.19 11.9 5.61 11.64C3.98 10.92 2.89001 9.3 2.89001 7.32C2.89001 4.63 4.89 2.6 7.53 2.6C8.91 2.6 10.12 3.15 10.95 4.07C11.05 4.18 11.23 4.17 11.32 4.05L12.69 2.24C12.76 2.14 12.75 2.01 12.66 1.93C11.37 0.72 9.59 0 7.58 0C3.4 0 0.130005 3.23 0.130005 7.35C0.130005 10.17 1.68 12.57 4 13.78C5.04 14.32 6.23 14.63 7.5 14.63C11.68 14.63 14.95 11.4 14.95 7.28C14.95 7.09 14.95 6.91 14.93 6.73C14.93 6.61 14.82 6.51 14.69 6.51" fill="black"/>
<path fill-rule="evenodd" clip-rule="evenodd" d="M58.73 8.39L60.36 4.28C60.44 4.08 60.72 4.08 60.8 4.28L62.44 8.39C62.5 8.55 62.39 8.72 62.22 8.72H58.95C58.78 8.72 58.67 8.55 58.73 8.4M65.11 14.68H67.6C67.77 14.68 67.88 14.51 67.82 14.35L61.93 0.15C61.89 0.06 61.81 0 61.71 0H59.59C59.49 0 59.41 0.06 59.37 0.15L53.48 14.34C53.42 14.5 53.53 14.67 53.7 14.67H56.07C56.17 14.67 56.25 14.61 56.29 14.52L57.66 11.07C57.7 10.98 57.78 10.92 57.88 10.92H63.29C63.39 10.92 63.47 10.98 63.51 11.07L64.89 14.52C64.93 14.61 65.01 14.67 65.11 14.67" fill="black"/>
<path fill-rule="evenodd" clip-rule="evenodd" d="M82.15 0.100002L69.28 17.2C69.24 17.26 69.17 17.29 69.09 17.29H1.47998C1.40998 17.29 1.33998 17.33 1.28998 17.38L0.0499804 19.03C-0.0700196 19.19 0.0499804 19.41 0.23998 19.41H70.4C70.47 19.41 70.54 19.38 70.59 19.32L84.85 0.390002C84.97 0.230002 84.85 0.0100021 84.66 0.0100021H82.34C82.27 0.0100021 82.2 0.0400021 82.15 0.100002Z" fill="#FFBA00"/>
<path fill-rule="evenodd" clip-rule="evenodd" d="M74.06 0H71.74C71.54 0 71.43 0.22 71.55 0.38L76.29 6.68L77.75 4.75L74.25 0.1C74.21 0.04 74.14 0.01 74.06 0.01" fill="black"/>
<path fill-rule="evenodd" clip-rule="evenodd" d="M82.43 14.67H84.75C84.95 14.67 85.06 14.45 84.94 14.29L80.11 7.87L78.65 9.8L82.24 14.57C82.28 14.63 82.35 14.66 82.43 14.66" fill="black"/>
</g>
<defs>
<clipPath id="clip0_3185_23187">
<rect width="84.98" height="19.41" fill="white"/>
</clipPath>
</defs>
</svg>
