<svg xmlns="http://www.w3.org/2000/svg" width="110.207" height="42.225" viewBox="0 0 110.207 42.225"><defs><style>.a{fill:#fff;}</style></defs><path class="a" d="M379.381-463.46c0,2.832-.092,5.668.036,8.494a3.351,3.351,0,0,1-1.958,3.368c-5.227,2.949-10.441,5.921-15.666,8.873-1.2.68-2.187-.047-3.156-.6-5.1-2.908-10.191-5.844-15.293-8.756a2.437,2.437,0,0,1-1.294-2.376q.048-9.093,0-18.186a2.391,2.391,0,0,1,1.316-2.343c4.733-2.68,9.417-5.447,14.162-8.1,3.71-2.078,2.577-2.169,6.537.065,4.694,2.648,9.328,5.4,14.025,8.042a2.385,2.385,0,0,1,1.292,2.363C379.374-469.566,379.38-466.513,379.381-463.46Zm-35.231-.116c0,2.566.086,5.136-.033,7.7a2.951,2.951,0,0,0,1.792,3.021c4.551,2.55,9.062,5.173,13.573,7.8a2.206,2.206,0,0,0,2.378.074c4.708-2.718,9.4-5.471,14.123-8.158a2.7,2.7,0,0,0,1.5-2.666c-.041-5.044-.074-10.089.016-15.131a3.252,3.252,0,0,0-1.913-3.247c-3.367-1.868-6.658-3.875-10.03-5.733-2.481-1.367-4.618-3.53-7.99-1.064-3.8,2.778-8.139,4.816-12.257,7.151a2.176,2.176,0,0,0-1.169,2.162C344.178-468.975,344.15-466.275,344.149-463.576Z" transform="translate(-342.049 484.674)"/><path class="a" d="M581.033-419.091c-.9,0-1.516-.035-2.122.01a1.183,1.183,0,0,1-1.34-.794c-.313-.727-.722-1.414-1.1-2.115a.777.777,0,0,0-.858-.472c-.487.074-.474.445-.482.8a6.3,6.3,0,0,0,0,1.059c.179,1.2-.271,1.624-1.506,1.548-.886-.054-1.238-.236-1.217-1.194.06-2.648.053-5.3,0-7.948-.017-.882.286-1.166,1.14-1.13,1.278.054,2.561,0,3.841.026a3.061,3.061,0,0,1,2.928,2.1,2.857,2.857,0,0,1-.619,3.419c-.781.694-.562,1.207-.166,1.9C580.024-421.051,580.454-420.184,581.033-419.091Zm-5.883-6.844c-.168.866.075,1.307,1.078,1.245.91-.056,1.635-.283,1.6-1.3-.03-.934-.734-1.14-1.584-1.19C575.258-427.241,574.983-426.817,575.15-425.936Z" transform="translate(-511.227 444.03)"/><path class="a" d="M622.955-424.607a5.251,5.251,0,0,1-5.317,5.265,5.325,5.325,0,0,1-5.238-5.243,5.325,5.325,0,0,1,5.282-5.333A5.257,5.257,0,0,1,622.955-424.607Zm-5.241-2.722a2.581,2.581,0,0,0-2.612,2.712,2.563,2.563,0,0,0,2.509,2.675,2.54,2.54,0,0,0,2.668-2.638A2.569,2.569,0,0,0,617.714-427.33Z" transform="translate(-540.592 444.462)"/><path class="a" d="M531.927-424.223c0-1.371.038-2.743-.015-4.112-.029-.766.253-1,.99-.979,1.281.045,2.566-.022,3.847.03a3.25,3.25,0,0,1,3.109,3.186,3.35,3.35,0,0,1-2.984,3.468c-.728.088-1.715-.35-2.12.262a3.67,3.67,0,0,0-.137,2.189c.136,1.212-.619,1.079-1.393,1.113-.872.038-1.415-.059-1.323-1.18C532.01-421.563,531.926-422.9,531.927-424.223Zm2.684-1.858c-.075.728-.1,1.36.948,1.275.762-.061,1.475-.134,1.514-1.081.041-.99-.593-1.214-1.475-1.242C534.769-427.155,534.446-426.874,534.611-426.081Z" transform="translate(-481.467 444.019)"/><path class="a" d="M663.746-424.249c0-1.325.028-2.651-.011-3.975-.023-.765.185-1.149,1.036-1.1,1.1.058,2.21-.024,3.312.031a2.545,2.545,0,0,1,2.076,4.155c-.39.559-.278.744.136,1.132a2.681,2.681,0,0,1,.7,3.254,2.683,2.683,0,0,1-2.753,1.668c-1.192-.027-2.386-.03-3.578,0-.682.019-.944-.234-.927-.924C663.771-421.422,663.746-422.836,663.746-424.249Zm3.091.284v-.006c-.442,0-.886.035-1.323-.008-.769-.076-.951.272-.974.995-.1,3.085-.118,3.084,2.978,3.08.309,0,.619.01.927-.007a1.958,1.958,0,0,0,1.99-2.013,2.057,2.057,0,0,0-2.009-2.037C667.9-423.99,667.367-423.965,666.837-423.965Zm-.1-4.529v-.019c-.485,0-.97-.008-1.454,0-.308.007-.679,0-.69.426-.026.967-.022,1.936,0,2.9.008.327.295.406.575.4a25.3,25.3,0,0,0,3.166-.068,1.714,1.714,0,0,0,1.555-1.965,1.667,1.667,0,0,0-1.7-1.677C667.71-428.524,667.223-428.493,666.739-428.493Z" transform="translate(-578.291 444.031)"/><path class="a" d="M731.565-423.856c0-1.1-.06-2.214.018-3.313.067-.953-.178-1.409-1.22-1.269a10.642,10.642,0,0,1-1.721,0c-.288-.008-.536-.123-.5-.469.032-.277.281-.313.5-.314q3.315-.011,6.63-.007c.279,0,.549.072.521.434-.02.267-.236.345-.469.362-.176.012-.353.006-.53.011-2.423.074-2.422.074-2.423,2.555,0,1.989.007,3.978-.009,5.967,0,.318.128.806-.4.821-.583.016-.381-.495-.386-.8C731.553-421.2,731.565-422.53,731.565-423.856Z" transform="translate(-625.592 443.958)"/><path class="a" d="M710.046-423.86c0,1.454,0,2.908,0,4.362,0,.3.046.674-.433.638-.354-.027-.367-.321-.368-.59q0-4.428,0-8.857c0-.338.05-.662.469-.636.479.03.33.452.333.72C710.055-426.768,710.046-425.314,710.046-423.86Z" transform="translate(-611.708 443.746)"/><path class="a" d="M369.037-443.5c0-1.768.012-3.536,0-5.3a1.98,1.98,0,0,1,.98-1.888q4.714-2.77,9.434-5.529a2.042,2.042,0,0,1,2.036-.063c3.24,1.848,6.439,3.767,9.661,5.647.9.523.284.823-.156,1.088-1.828,1.1-3.676,2.171-5.51,3.262-1.081.644-2.154,1.3-3.224,1.964a3.02,3.02,0,0,1-3.451-.012c-1.729-1.078-3.471-2.136-5.246-3.137-1.008-.569-1.214.093-1.213.946q.007,4.906,0,9.811c0,1.736-.036,1.715-1.619,1.012a2.558,2.558,0,0,1-1.707-2.763C369.1-440.142,369.037-441.825,369.037-443.5Zm11.315-3.588a.886.886,0,0,0,.264,0,19.832,19.832,0,0,0,4.733-2.67c.338-.228.223-.675-.137-.891-1.266-.759-2.513-1.563-3.838-2.205a2.539,2.539,0,0,0-2.41.3c-.932.558-1.836,1.161-2.754,1.743-.935.593-.96.992.037,1.525a30.388,30.388,0,0,1,3.364,2A1.287,1.287,0,0,0,380.352-447.093Z" transform="translate(-361.849 464.005)"/></svg>