<svg xmlns="http://www.w3.org/2000/svg" width="136.216" height="40.606" viewBox="0 0 136.216 40.606"><defs><style>.a{fill:#fff;}.b{fill:#2ca6e0;}</style></defs><path class="a" d="M105.317,26.739V38.2H93.935V28.219a1.485,1.485,0,0,0-1.485-1.485H88.6V54.16a1.485,1.485,0,0,0,1.485,1.485h3.853V42.852h11.388v11.3a1.486,1.486,0,0,0,1.462,1.508h3.876V28.219a1.485,1.485,0,0,0-1.485-1.485h-3.859Zm22.6,7.168V47.652a3.52,3.52,0,0,1-1.72,3.056A3.981,3.981,0,0,1,120.06,47.4V35.392a1.485,1.485,0,0,0-1.485-1.485h-3.853V47.893a8.2,8.2,0,0,0,8.166,8.177h2.19a8.206,8.206,0,0,0,8.183-8.183V35.392a1.485,1.485,0,0,0-1.485-1.485Z" transform="translate(-55.08 -16.618)"/><path class="b" d="M344.17,68.758h3.853V49.284a1.485,1.485,0,0,0-1.485-1.485h-3.853V67.261a1.486,1.486,0,0,0,1.474,1.5Z" transform="translate(-213.028 -29.713)"/><circle class="b" cx="2.976" cy="2.976" r="2.976" transform="translate(128.439 14.663) rotate(-67.5)"/><g transform="translate(0 0)"><path class="a" d="M226.338,45.662c-5.591,0-10.167,4-10.167,9.588v3.022c0,5.591,4.576,9.565,10.167,9.565S236.5,63.863,236.5,58.272V55.25C236.51,49.659,231.934,45.662,226.338,45.662Zm4.805,12.971c0,2.643-2.162,4.4-4.811,4.4s-4.805-1.76-4.805-4.4V54.86c0-2.643,2.162-4.4,4.805-4.4s4.811,1.76,4.811,4.4Z" transform="translate(-134.383 -28.384)"/><path class="b" d="M289.6,33.943a10.943,10.943,0,0,0-4.834,1.1V28.294a1.485,1.485,0,0,0-1.485-1.485h-3.853V46.552c0,5.591,4.576,9.565,10.167,9.565s10.167-3.974,10.167-9.565V43.53c.006-5.591-4.559-9.588-10.161-9.588Zm4.811,12.971c0,2.643-2.162,4.4-4.811,4.4s-4.805-1.76-4.805-4.4V43.14c0-2.643,2.162-4.4,4.805-4.4s4.811,1.76,4.811,4.4Z" transform="translate(-173.706 -16.665)"/><path class="a" d="M17.4,12.488c0-5.826-2.838-10.843-5-12.472,0,0-.166-.092-.149.143-.178,11.256-5.929,14.307-9.089,18.413-7.294,9.484-.516,19.881,6.4,21.8,3.853,1.078-.895-1.9-1.508-8.194C7.3,24.588,17.4,18.785,17.4,12.488Z" transform="translate(-0.016 0.001)"/><path class="b" d="M43.112,43.1c-.046-.029-.109-.052-.149.023-.12,1.416-1.565,4.444-3.4,7.231-6.222,9.439-2.678,13.992-.682,16.44,1.158,1.416,0,0,2.89-1.451A13.049,13.049,0,0,0,48,55.264,14.6,14.6,0,0,0,43.112,43.1Z" transform="translate(-22.417 -26.776)"/></g></svg>