<svg width="366" height="63" viewBox="0 0 366 63" fill="none" xmlns="http://www.w3.org/2000/svg">
<g clip-path="url(#clip0)">
<path d="M32.4296 24.9968C32.3513 24.9968 32.247 24.9186 32.1818 24.9968C31.9862 27.1614 29.5739 31.8035 26.6269 36.0674C16.4561 50.5283 22.2456 57.4915 25.5055 61.2338C27.3963 63.4114 25.5055 61.2338 30.2389 59.0171C33.0438 57.4511 35.4323 55.2356 37.2042 52.5561C38.9762 49.8766 40.0799 46.8114 40.4228 43.6173C40.6984 40.0983 40.1149 36.5649 38.7225 33.3213C37.3301 30.0777 35.1705 27.221 32.4296 24.9968Z" fill="#2596E0"/>
<path d="M182.776 25.7663C180.134 25.7558 177.525 26.349 175.148 27.5005V16.8602C175.145 16.2388 174.896 15.6438 174.457 15.2043C174.017 14.7649 173.422 14.5165 172.801 14.5131H166.724V45.6386C166.724 54.4664 173.948 60.7384 182.776 60.7384C191.604 60.7384 198.828 54.4664 198.828 45.6386V40.9183C198.828 32.0905 191.604 25.7663 182.776 25.7663ZM190.378 46.2645C190.378 50.4372 186.962 53.2146 182.789 53.2146C178.616 53.2146 175.2 50.4372 175.2 46.2645V40.3054C175.2 36.1327 178.616 33.3553 182.789 33.3553C186.962 33.3553 190.378 36.1327 190.378 40.3054V46.2645Z" fill="#2596E0"/>
<path d="M210.576 27.057H204.5V57.7783C204.5 58.4008 204.747 58.9978 205.187 59.438C205.628 59.8781 206.225 60.1254 206.847 60.1254H212.924V29.3911C212.92 28.7709 212.671 28.1772 212.232 27.7399C211.792 27.3025 211.197 27.057 210.576 27.057Z" fill="#2596E0"/>
<path d="M208.712 23.8104C209.643 23.8129 210.555 23.5391 211.331 23.0234C212.106 22.5077 212.712 21.7734 213.07 20.9135C213.428 20.0536 213.523 19.1067 213.343 18.1927C213.163 17.2787 212.716 16.4388 212.058 15.7791C211.4 15.1195 210.562 14.6699 209.648 14.4872C208.735 14.3045 207.787 14.397 206.926 14.7529C206.066 15.1088 205.33 15.7121 204.812 16.4865C204.294 17.2609 204.018 18.1715 204.018 19.1031C204.018 20.3493 204.512 21.5446 205.392 22.427C206.272 23.3094 207.466 23.8069 208.712 23.8104Z" fill="#2596E0"/>
<path d="M85.1617 14.4739H79.0983V32.5989H61.1167V16.821C61.1167 16.1985 60.8694 15.6015 60.4292 15.1613C59.9891 14.7212 59.3921 14.4739 58.7696 14.4739H52.6931V57.7784C52.6931 58.4009 52.9404 58.9978 53.3806 59.438C53.8207 59.8782 54.4177 60.1255 55.0402 60.1255H61.1167V39.9141H79.0983V57.7784C79.0983 58.4009 79.3456 58.9978 79.7857 59.438C80.2259 59.8782 80.8229 60.1255 81.4454 60.1255H87.5088V16.821C87.5106 16.5123 87.451 16.2063 87.3337 15.9208C87.2163 15.6352 87.0435 15.3758 86.8252 15.1575C86.6069 14.9392 86.3475 14.7664 86.0619 14.649C85.7764 14.5317 85.4704 14.4722 85.1617 14.4739Z" fill="#1B2143"/>
<path d="M18.9726 -0.00137518C18.9726 -0.00137518 18.7118 -0.144811 18.7379 0.220298C18.4511 17.4847 9.64933 22.1659 4.81164 28.451C-6.36328 43.0293 4.02927 58.8984 14.6044 61.8324C20.5243 63.4884 13.3004 58.9245 12.2964 49.2883C11.1619 37.657 26.6399 28.764 26.6399 19.1277C26.6269 10.2086 22.2717 2.52831 18.9726 -0.00137518Z" fill="#1B2143"/>
<path d="M120.877 25.7922H114.749V47.4901C114.77 48.4531 114.54 49.4052 114.083 50.2531C113.626 51.1011 112.957 51.8159 112.141 52.3278C111.196 52.9396 110.104 53.2865 108.98 53.3323C107.855 53.3782 106.739 53.1212 105.748 52.5882C104.757 52.0553 103.927 51.2659 103.345 50.3026C102.763 49.3393 102.45 48.2374 102.439 47.1119V28.1393C102.439 27.8311 102.379 27.5259 102.261 27.2411C102.143 26.9564 101.97 26.6976 101.752 26.4797C101.534 26.2617 101.275 26.0888 100.99 25.9709C100.706 25.8529 100.4 25.7922 100.092 25.7922H93.8853V47.8813C93.8921 49.5856 94.235 51.2718 94.8943 52.8435C95.5536 54.4151 96.5164 55.8413 97.7276 57.0403C98.9388 58.2394 100.375 59.1878 101.953 59.8313C103.531 60.4748 105.221 60.8008 106.925 60.7905H110.315C113.735 60.7767 117.01 59.4122 119.428 56.9943C121.846 54.5763 123.211 51.3008 123.224 47.8813V28.1393C123.224 27.5168 122.977 26.9198 122.537 26.4797C122.097 26.0395 121.5 25.7922 120.877 25.7922Z" fill="#1B2143"/>
<path d="M253.125 25.5314C246.487 25.5314 241.48 29.6519 241.48 35.1024C241.48 40.553 246.487 44.6605 253.125 44.6605H256.593C263.243 44.6605 268.25 40.553 268.25 35.1024C268.25 29.6519 263.243 25.5314 256.593 25.5314H253.125ZM261.457 35.1024C261.457 37.2279 259.605 38.7666 257.036 38.7666H252.707C250.099 38.7666 248.287 37.2279 248.287 35.1024C248.287 32.977 250.139 31.4253 252.707 31.4253H257.036C259.605 31.4253 261.457 32.9639 261.457 35.1024Z" fill="#1B2143"/>
<path d="M239.407 23.2236H272.527V20.2245C272.527 19.9066 272.465 19.5918 272.343 19.2983C272.22 19.0047 272.042 18.7382 271.816 18.5141C271.591 18.2899 271.323 18.1125 271.029 17.992C270.735 17.8715 270.42 17.8104 270.102 17.8121H258.184V16.3517C258.184 15.0477 257.102 14.3958 255.758 14.3958H251.416V17.8121H237.073V20.8634C237.089 21.4798 237.339 22.0669 237.773 22.5053C238.206 22.9437 238.791 23.2006 239.407 23.2236Z" fill="#1B2143"/>
<path d="M350.165 17.0946H345.862V30.9036H335.509V19.5591C335.509 18.9159 335.253 18.299 334.798 17.8441C334.344 17.3893 333.727 17.1338 333.083 17.1338H328.78V48.9764C328.78 49.6197 329.036 50.2366 329.491 50.6914C329.945 51.1463 330.562 51.4018 331.206 51.4018H350.165C350.809 51.4018 351.425 51.1463 351.88 50.6914C352.335 50.2366 352.591 49.6197 352.591 48.9764V19.5591C352.596 19.2373 352.537 18.9177 352.417 18.619C352.298 18.3202 352.12 18.0482 351.894 17.8188C351.669 17.5894 351.399 17.4072 351.103 17.2829C350.806 17.1586 350.487 17.0946 350.165 17.0946ZM345.862 45.2993H335.509V37.5798H345.862V45.2993Z" fill="#1B2143"/>
<path d="M363.439 14.1088H359.149V58.6781C359.149 58.9966 359.212 59.312 359.334 59.6063C359.456 59.9005 359.635 60.1679 359.86 60.3931C360.085 60.6183 360.352 60.797 360.647 60.9188C360.941 61.0407 361.256 61.1035 361.575 61.1035H365.865V16.5342C365.865 16.2157 365.802 15.9003 365.68 15.606C365.558 15.3118 365.38 15.0444 365.154 14.8192C364.929 14.594 364.662 14.4153 364.368 14.2934C364.073 14.1715 363.758 14.1088 363.439 14.1088Z" fill="#1B2143"/>
<path d="M273.831 47.0075H233.409V50.6847C233.409 51.3279 233.664 51.9448 234.119 52.3997C234.574 52.8545 235.191 53.1101 235.834 53.1101H251.482V58.5476C251.482 58.8661 251.544 59.1815 251.666 59.4757C251.788 59.77 251.967 60.0373 252.192 60.2626C252.417 60.4878 252.685 60.6664 252.979 60.7883C253.273 60.9102 253.588 60.9729 253.907 60.9729H258.184V53.1492H276.257V49.4329C276.257 49.1144 276.194 48.799 276.072 48.5048C275.95 48.2105 275.772 47.9431 275.546 47.7179C275.321 47.4927 275.054 47.314 274.76 47.1922C274.465 47.0703 274.15 47.0075 273.831 47.0075Z" fill="#1B2143"/>
<path d="M319.118 52.1584H305.127V43.4871C308.512 43.3282 311.702 41.8578 314.021 39.3873C316.341 36.9168 317.608 33.6403 317.553 30.2519C317.573 28.4775 317.234 26.7174 316.557 25.0774C315.879 23.4374 314.877 21.9515 313.61 20.709C312.343 19.4665 310.838 18.4931 309.185 17.8473C307.532 17.2016 305.766 16.8969 303.992 16.9515H299.559C297.783 16.8932 296.015 17.1953 294.36 17.8396C292.704 18.4839 291.197 19.4569 289.928 20.7C288.66 21.943 287.656 23.4304 286.978 25.0721C286.3 26.7138 285.962 28.4759 285.984 30.2519C285.93 33.6403 287.197 36.9168 289.516 39.3873C291.836 41.8578 295.026 43.3282 298.411 43.4871V52.1584H280.351V54.1143C280.355 55.2084 280.792 56.2564 281.567 57.0288C282.341 57.8011 283.391 58.2348 284.485 58.2348H323.252V56.2659C323.245 55.1741 322.806 54.1294 322.032 53.3598C321.257 52.5903 320.21 52.1584 319.118 52.1584ZM299.037 37.1629C298.125 37.1826 297.219 37.0171 296.373 36.6764C295.527 36.3357 294.759 35.827 294.116 35.1809C293.472 34.5348 292.966 33.7649 292.629 32.9177C292.291 32.0704 292.129 31.1636 292.152 30.2519C292.129 29.3402 292.291 28.4333 292.629 27.5861C292.966 26.7389 293.472 25.969 294.116 25.3229C294.759 24.6768 295.527 24.168 296.373 23.8274C297.219 23.4867 298.125 23.3212 299.037 23.3409H304.553C305.465 23.3212 306.371 23.4867 307.217 23.8274C308.063 24.168 308.831 24.6768 309.474 25.3229C310.118 25.969 310.624 26.7389 310.961 27.5861C311.299 28.4333 311.461 29.3402 311.438 30.2519C311.461 31.1636 311.299 32.0704 310.961 32.9177C310.624 33.7649 310.118 34.5348 309.474 35.1809C308.831 35.827 308.063 36.3357 307.217 36.6764C306.371 37.0171 305.465 37.1826 304.553 37.1629H299.037Z" fill="#1B2143"/>
<path d="M144.974 25.7661C136.147 25.7661 128.923 32.0903 128.923 40.9181V45.6384C128.923 54.4662 136.147 60.7383 144.974 60.7383C153.802 60.7383 161.026 54.4662 161.026 45.6384V40.9181C161.026 32.0903 153.867 25.7661 144.974 25.7661ZM152.563 46.2643C152.563 50.437 149.147 53.2144 144.974 53.2144C140.802 53.2144 137.385 50.437 137.385 46.2643V40.3052C137.385 36.1326 140.802 33.3551 144.974 33.3551C149.147 33.3551 152.563 36.1326 152.563 40.3052V46.2643Z" fill="#1B2143"/>
</g>
<defs>
<clipPath id="clip0">
<rect width="365.865" height="62.1728" fill="white"/>
</clipPath>
</defs>
</svg>
