<svg xmlns="http://www.w3.org/2000/svg" width="112.808" height="39.911" viewBox="0 0 112.808 39.911"><defs><style>.a{fill:#fff;}.b{fill:#88bdf3;}.c{fill:#3075ee;}.d{fill:#5795f1;}.e{fill:#205fec;}.f{fill:#134bef;}.g{fill:#0932e8;}.h{fill:#164bea;}.i{fill:#3170f1;}</style></defs><path class="a" d="M1003.561,235.147a10.739,10.739,0,0,1-.641,3.763,9.061,9.061,0,0,1-1.846,3.086A8.773,8.773,0,0,1,998.1,244.1a9.788,9.788,0,0,1-4.029.772,10.09,10.09,0,0,1-4.029-.772A8.774,8.774,0,0,1,987.068,242a9.062,9.062,0,0,1-1.846-3.086,11.684,11.684,0,0,1,0-7.527,8.9,8.9,0,0,1,1.846-3.1,9,9,0,0,1,2.974-2.107,9.788,9.788,0,0,1,4.029-.772,10.09,10.09,0,0,1,4.029.772,8.773,8.773,0,0,1,2.974,2.107,9.258,9.258,0,0,1,1.846,3.1A10.884,10.884,0,0,1,1003.561,235.147Zm-9.471,6.647a5.358,5.358,0,0,0,2.41-.51,4.987,4.987,0,0,0,1.733-1.394,6.014,6.014,0,0,0,1.033-2.107,10.428,10.428,0,0,0,0-5.27,5.976,5.976,0,0,0-1.033-2.107,4.754,4.754,0,0,0-1.733-1.394,5.412,5.412,0,0,0-2.41-.51,5.358,5.358,0,0,0-2.41.51,4.987,4.987,0,0,0-1.733,1.394,6.012,6.012,0,0,0-1.033,2.107,10.428,10.428,0,0,0,0,5.27,5.974,5.974,0,0,0,1.033,2.107,4.754,4.754,0,0,0,1.733,1.394A5.358,5.358,0,0,0,994.089,241.793Zm11.958,2.766V225.734H1010v9.038l6.534-9.038h4.576l-6.926,9.3,7.4,9.525h-4.9l-6.7-9.246v9.246Zm17.111-18.825h11.317v3.145h-7.341v4.557h7v3.127h-7v4.855h7.436v3.141H1023.18V225.734Zm25.418,0h4.291l-6.2,9.359,6.308,9.467h-4.332l-4.066-6.421-4.066,6.421h-4.332l6.308-9.471-6.2-9.359h4.291l3.993,6.362Z" transform="translate(-940.172 -215.229)"/><circle class="b" cx="9.038" cy="9.038" r="9.038" transform="translate(10.92 0)"/><circle class="c" cx="9.038" cy="9.038" r="9.038" transform="translate(10.92 21.835)"/><circle class="d" cx="9.038" cy="9.038" r="9.038" transform="translate(21.835 10.92)"/><circle class="e" cx="9.038" cy="9.038" r="9.038" transform="translate(0 10.92)"/><path class="f" d="M254.447,254.447A9.035,9.035,0,0,1,247.8,247.8,9.1,9.1,0,0,1,254.447,254.447Z" transform="translate(-236.618 -236.618)"/><path class="g" d="M247.4,496.447a9.035,9.035,0,0,1,6.647-6.647A9.092,9.092,0,0,1,247.4,496.447Z" transform="translate(-236.237 -467.699)"/><path class="h" d="M489.4,489.4a9.035,9.035,0,0,1,6.647,6.647A9.092,9.092,0,0,1,489.4,489.4Z" transform="translate(-467.317 -467.317)"/><path class="i" d="M496.447,247.4a9.036,9.036,0,0,1-6.647,6.647A9.1,9.1,0,0,1,496.447,247.4Z" transform="translate(-467.699 -236.237)"/></svg>