<svg xmlns="http://www.w3.org/2000/svg" width="113.725" height="43.573" viewBox="0 0 113.725 43.573"><defs><style>.a{fill:#4927d0;}</style></defs><path class="a" d="M380.572-462.783c0,2.922-.095,5.849.037,8.765a3.458,3.458,0,0,1-2.021,3.476c-5.394,3.043-10.775,6.11-16.167,9.157-1.242.7-2.257-.049-3.257-.619-5.266-3-10.516-6.031-15.781-9.035a2.515,2.515,0,0,1-1.335-2.452q.05-9.383,0-18.767a2.467,2.467,0,0,1,1.358-2.418c4.884-2.766,9.717-5.62,14.614-8.363,3.828-2.144,2.659-2.238,6.746.067,4.843,2.732,9.626,5.572,14.472,8.3a2.462,2.462,0,0,1,1.333,2.438C380.565-469.084,380.572-465.934,380.572-462.783Zm-36.356-.12c0,2.648.089,5.3-.034,7.943a3.046,3.046,0,0,0,1.849,3.118c4.7,2.632,9.352,5.338,14.006,8.044a2.277,2.277,0,0,0,2.454.077c4.859-2.8,9.7-5.646,14.574-8.419a2.788,2.788,0,0,0,1.544-2.751c-.043-5.2-.076-10.411.017-15.614a3.356,3.356,0,0,0-1.974-3.351c-3.475-1.928-6.87-4-10.35-5.916-2.56-1.41-4.765-3.643-8.245-1.1-3.919,2.866-8.4,4.969-12.649,7.379a2.245,2.245,0,0,0-1.207,2.231C344.246-468.473,344.217-465.688,344.216-462.9Z" transform="translate(-342.049 484.674)"/><path class="a" d="M581.309-418.765c-.934,0-1.565-.036-2.19.01a1.22,1.22,0,0,1-1.383-.819c-.323-.751-.746-1.459-1.13-2.183a.8.8,0,0,0-.886-.487c-.5.076-.489.459-.5.826a6.5,6.5,0,0,0,0,1.093c.185,1.236-.279,1.676-1.555,1.6-.914-.056-1.278-.244-1.256-1.232.062-2.733.055-5.469,0-8.2-.017-.91.3-1.2,1.177-1.166,1.319.056,2.643,0,3.964.027a3.159,3.159,0,0,1,3.022,2.166,2.948,2.948,0,0,1-.638,3.528c-.806.716-.58,1.246-.171,1.958C580.267-420.786,580.711-419.892,581.309-418.765Zm-6.071-7.063c-.173.894.077,1.348,1.112,1.285.939-.058,1.687-.292,1.653-1.344-.031-.964-.758-1.176-1.635-1.228C575.349-427.174,575.065-426.736,575.238-425.828Z" transform="translate(-509.273 444.499)"/><path class="a" d="M623.292-424.438A5.418,5.418,0,0,1,617.805-419a5.5,5.5,0,0,1-5.406-5.41,5.5,5.5,0,0,1,5.451-5.5A5.425,5.425,0,0,1,623.292-424.438Zm-5.408-2.809a2.664,2.664,0,0,0-2.7,2.8,2.644,2.644,0,0,0,2.589,2.761,2.621,2.621,0,0,0,2.753-2.722A2.651,2.651,0,0,0,617.884-427.247Z" transform="translate(-538.3 444.926)"/><path class="a" d="M531.928-424.06c0-1.415.039-2.831-.015-4.243-.03-.79.261-1.037,1.021-1.01,1.322.047,2.648-.023,3.969.031a3.354,3.354,0,0,1,3.208,3.288,3.457,3.457,0,0,1-3.08,3.579c-.751.091-1.77-.361-2.187.27a3.788,3.788,0,0,0-.141,2.259c.14,1.25-.639,1.113-1.437,1.148-.9.039-1.461-.061-1.365-1.217C532.013-421.315,531.927-422.691,531.928-424.06Zm2.77-1.917c-.077.751-.1,1.4.978,1.316.787-.063,1.522-.138,1.563-1.116.042-1.022-.612-1.253-1.522-1.282C534.861-427.086,534.528-426.8,534.7-425.978Z" transform="translate(-479.857 444.488)"/><path class="a" d="M663.746-424.087c0-1.367.029-2.736-.012-4.1-.024-.789.19-1.186,1.069-1.14,1.137.06,2.281-.025,3.418.032a2.627,2.627,0,0,1,2.143,4.287c-.4.577-.287.768.141,1.168a2.766,2.766,0,0,1,.721,3.358,2.769,2.769,0,0,1-2.84,1.722c-1.23-.028-2.462-.03-3.692,0-.7.02-.975-.241-.957-.954C663.772-421.169,663.747-422.628,663.746-424.087Zm3.19.294v-.006c-.456,0-.915.036-1.366-.008-.794-.078-.982.281-1,1.027-.1,3.183-.122,3.182,3.073,3.178.319,0,.638.011.956-.007a2.02,2.02,0,0,0,2.054-2.077,2.123,2.123,0,0,0-2.073-2.1C668.031-423.82,667.483-423.793,666.936-423.793Zm-.1-4.673v-.019c-.5,0-1-.008-1.5,0-.317.007-.7,0-.712.439-.026,1-.023,2,0,3,.008.338.3.419.594.416a26.1,26.1,0,0,0,3.267-.07,1.769,1.769,0,0,0,1.6-2.028,1.721,1.721,0,0,0-1.756-1.731C667.837-428.5,667.334-428.467,666.834-428.467Z" transform="translate(-575.563 444.501)"/><path class="a" d="M731.674-423.684c0-1.14-.061-2.285.018-3.419.069-.984-.184-1.454-1.259-1.31a10.983,10.983,0,0,1-1.776,0c-.3-.009-.553-.127-.512-.483.033-.286.289-.323.517-.324q3.421-.012,6.841-.007c.287,0,.566.074.537.448-.021.275-.243.357-.484.373-.182.013-.365.006-.547.011-2.5.076-2.5.077-2.5,2.636,0,2.052.007,4.105-.01,6.157,0,.328.132.832-.417.847-.6.017-.393-.51-.4-.821C731.661-420.947,731.675-422.316,731.674-423.684Z" transform="translate(-622.318 444.428)"/><path class="a" d="M710.071-423.7c0,1.5,0,3,0,4.5,0,.306.047.7-.447.658-.365-.028-.379-.331-.379-.609q0-4.57,0-9.139c0-.349.052-.683.483-.656.494.031.34.466.344.743C710.081-426.7,710.072-425.2,710.071-423.7Z" transform="translate(-608.595 444.218)"/><path class="a" d="M369.038-443.089c0-1.824.012-3.649,0-5.473a2.043,2.043,0,0,1,1.011-1.948q4.865-2.858,9.735-5.706a2.107,2.107,0,0,1,2.1-.065c3.343,1.907,6.644,3.888,9.969,5.827.925.54.293.849-.161,1.123-1.886,1.137-3.793,2.24-5.686,3.367-1.116.664-2.223,1.344-3.327,2.027a3.117,3.117,0,0,1-3.561-.012c-1.784-1.112-3.582-2.2-5.413-3.237-1.04-.587-1.253.1-1.251.977q.007,5.062,0,10.125c0,1.791-.037,1.77-1.67,1.045a2.639,2.639,0,0,1-1.761-2.851C369.107-439.619,369.038-441.356,369.038-443.089Zm11.676-3.7a.914.914,0,0,0,.273,0,20.465,20.465,0,0,0,4.884-2.755c.348-.235.23-.7-.142-.92-1.306-.784-2.594-1.613-3.961-2.276a2.62,2.62,0,0,0-2.487.306c-.962.576-1.895,1.2-2.841,1.8-.965.612-.991,1.023.038,1.574A31.36,31.36,0,0,1,379.949-447,1.328,1.328,0,0,0,380.714-446.792Z" transform="translate(-361.62 464.244)"/></svg>