<svg xmlns="http://www.w3.org/2000/svg" xmlns:xlink="http://www.w3.org/1999/xlink" width="112.808" height="25.718" viewBox="0 0 112.808 25.718"><defs><style>.a{fill:#3464af;}.b{clip-path:url(#a);}.c{clip-path:url(#b);}.d{clip-path:url(#c);}.e{fill:#243d83;}.f{clip-path:url(#d);}.g{clip-path:url(#e);}</style><clipPath id="a"><path d="M0,0H31.019V25.718H0ZM0,0"/></clipPath><clipPath id="b"><path d="M124,0h30.6V25.718H124Zm0,0" transform="translate(-124)"/></clipPath><clipPath id="c"><path d="M259,0h28.1V25.718H259Zm0,0" transform="translate(-259)"/></clipPath><clipPath id="d"><path d="M392,49h13.948V64.517H392Zm0,0" transform="translate(-392 -49)"/></clipPath><clipPath id="e"><path d="M462,0h16.629V25.718H462Zm0,0" transform="translate(-462)"/></clipPath></defs><g transform="translate(0 0)"><path class="a" d="M68.382,101.078a.069.069,0,0,0,0,.01" transform="translate(-54.144 -80.036)"/><path class="a" d="M68.373,101.125v0l0,0" transform="translate(-54.138 -80.073)"/><path class="a" d="M68.364,101.152v0a0,0,0,0,0,0,0s0,0,0,0" transform="translate(-54.131 -80.095)"/><path class="a" d="M68.353,101.18a.012.012,0,0,0,0,.006l0-.006" transform="translate(-54.122 -80.116)"/><path class="a" d="M68.36,101.172v0" transform="translate(-54.128 -80.11)"/><path class="a" d="M68.354,101.163v0a.085.085,0,0,0,0,.01.012.012,0,0,1,0-.006v0" transform="translate(-54.122 -80.101)"/><g class="b"><path class="a" d="M21.179.234c-6.042,18.276-6.854,20.731-6.94,20.994l0,.01,0,0v0s0,0,0,.006v0s0,0,0,0v0l0,.006H10.237A1.414,1.414,0,0,1,8.9,19.4l.01-.028a.062.062,0,0,1,0,.009L15.272.234H6.715L.241,19.755A4.676,4.676,0,0,0,4.588,25.9v0H21.265l6.4-19.409-3.45.9,6.8-7.16" transform="translate(-0.001 -0.186)"/></g><path class="a" d="M68.379,101.078a.051.051,0,0,0,0,.011v0a.069.069,0,0,1,0-.01" transform="translate(-54.141 -80.036)"/><path class="a" d="M42.809,92.056h0" transform="translate(-33.897 -72.89)"/><path class="a" d="M42.781,92.1l0-.012,0,.012" transform="translate(-33.875 -72.916)"/><path class="a" d="M42.8,92.067l0,0s0,0,0,0" transform="translate(-33.891 -72.897)"/><g class="c" transform="translate(25.814)"><path class="a" d="M144.489,4.859a1.413,1.413,0,0,1,1.34,1.86l-1.54,4.621a2.835,2.835,0,0,1-2.69,1.939h-4.765l2.806-8.419ZM149.6.324,131.277.359l2.188,7.107-2.949-.9-6.4,19.3h8.507l2.746-8.047h8.543a9.529,9.529,0,0,0,9.057-6.568l.889-2.719C156.432.756,150.974.324,149.6.324" transform="translate(-124.093 -0.257)"/></g><g class="d" transform="translate(53.918)"><path class="e" d="M278.595,14.912l-1.526,4.558a2.8,2.8,0,0,1-2.653,1.912l-4.788,0L272.372,13l5.068-.011c.74,0,1.687.3,1.155,1.919m4.116-6.376h-8.839L276.606.289h-8.668L259.48,25.906h16.954a9.811,9.811,0,0,0,9.313-6.725l1.287-3.883c.638-1.9.96-6.763-4.322-6.763" transform="translate(-259.38 -0.229)"/></g><path class="e" d="M424.9.367h8.616l-2.17,6.561-8.616.021Zm0,0" transform="translate(-334.727 -0.291)"/><g class="f" transform="translate(81.606 10.201)"><path class="e" d="M397.656,49.145h8.63L401.2,64.586h-8.629Zm0,0" transform="translate(-392.455 -49.114)"/></g><g class="g" transform="translate(96.179)"><path class="e" d="M472.048,18.709l1.947-5.883h3.912l1.505-4.464-3.925-.015L478.283,0l-8.705.074L463.228,19.5a4.741,4.741,0,0,0,4.544,6.21l8.026-.068,1.5-4.542h-3.519a1.82,1.82,0,0,1-1.727-2.391" transform="translate(-462.784)"/></g></g></svg>