<?xml version="1.0" encoding="utf-8"?>
<!-- Generator: Adobe Illustrator 25.2.0, SVG Export Plug-In . SVG Version: 6.00 Build 0)  -->
<svg version="1.1" id="Layer_1" xmlns="http://www.w3.org/2000/svg" xmlns:xlink="http://www.w3.org/1999/xlink" x="0px" y="0px"
	 viewBox="0 0 205 228" style="enable-background:new 0 0 205 228;" xml:space="preserve">
<style type="text/css">
	.st0{fill:#FFFFFF;}
</style>
<path class="st0" d="M119.6,106.3c-5.4,0-9.6,4.6-9.6,10.4c0,5.7,4.3,10.4,9.6,10.4c5.4,0,9.6-4.6,9.6-10.4
	C129.2,111,124.9,106.3,119.6,106.3z M85.2,106.3c-5.4,0-9.6,4.6-9.6,10.4c0,5.7,4.3,10.4,9.6,10.4c5.4,0,9.6-4.6,9.6-10.4
	C94.9,111,90.6,106.3,85.2,106.3z"/>
<path class="st0" d="M165.4,28H39.2c-10.6,0-19.3,8.7-19.3,19.3v126.2c0,10.6,8.7,19.3,19.3,19.3H146l-5-17.2l12.1,11.1l11.4,10.5
	l20.3,17.6V47.3C184.7,36.7,176,28,165.4,28z M129,149.9c0,0-3.4-4-6.2-7.5c12.3-3.5,17-11.1,17-11.1c-3.9,2.5-7.5,4.3-10.8,5.6
	c-4.7,2-9.2,3.2-13.7,4c-9,1.7-17.3,1.2-24.4-0.1c-5.4-1-10-2.4-13.8-4c-2.2-0.8-4.5-1.9-6.9-3.2c-0.3-0.2-0.6-0.3-0.8-0.5
	c-0.2-0.1-0.3-0.2-0.4-0.2c-1.7-0.9-2.6-1.6-2.6-1.6s4.5,7.4,16.5,11c-2.8,3.6-6.3,7.7-6.3,7.7c-20.8-0.7-28.7-14.2-28.7-14.2
	c0-30,13.6-54.4,13.6-54.4c13.6-10.1,26.4-9.8,26.4-9.8l0.9,1.1C71.8,77.5,64.1,85,64.1,85s2.1-1.1,5.6-2.6
	c10.1-4.4,18.1-5.6,21.4-5.9c0.6-0.1,1-0.2,1.6-0.2c5.7-0.8,12.2-0.9,19-0.2c8.9,1,18.5,3.7,28.3,8.9c0,0-7.4-7.1-23.4-11.9l1.3-1.5
	c0,0,12.9-0.3,26.4,9.8c0,0,13.6,24.4,13.6,54.4C157.7,135.7,149.8,149.3,129,149.9L129,149.9z"/>
</svg>
