<svg width="22" height="22" viewBox="0 0 22 22" fill="none" xmlns="http://www.w3.org/2000/svg">
<path d="M5.73243 14.8784C9.8295 16.4773 13.3161 16.7888 17.2672 14.3C17.2382 14.3435 16.4567 15.5014 14.4014 16.0948C14.8356 16.6882 15.429 17.3684 15.429 17.3684C16.7461 17.3684 18.0343 16.9921 19.1487 16.2684C20.0172 15.6895 20.5092 14.6908 20.4079 13.6487C20.2342 11.8684 19.8145 10.1316 19.1632 8.46716C18.3382 6.29612 16.3553 4.79084 14.054 4.57371C13.8514 4.55923 13.7067 4.55923 13.6198 4.55923L13.3883 4.79079C16.0369 5.54343 17.3541 6.71579 17.383 6.75923C13.3159 4.70395 8.51061 4.67503 4.41453 6.67239C4.41453 6.67239 5.71717 5.38423 8.59741 4.70395L8.42373 4.53027C8.11977 4.53027 7.83029 4.55923 7.52637 4.60263C5.39873 4.96447 3.61849 6.42631 2.85137 8.43815C2.18557 10.175 1.75137 11.9987 1.59217 13.8513C1.50533 14.8355 1.96849 15.8053 2.77901 16.3698C3.85005 17.079 5.12373 17.4553 6.41189 17.4553C6.41189 17.4553 6.93293 16.775 7.45401 16.1671C5.50005 15.5882 4.70401 14.4303 4.68953 14.3868L5.05726 14.5746C5.27709 14.6869 5.50246 14.7887 5.73243 14.8784ZM8.00401 13.6198C7.06321 13.5908 6.32505 12.7948 6.35401 11.8395C6.38297 10.9421 7.10665 10.2184 8.00401 10.1895C8.94481 10.2184 9.68297 11.0145 9.65401 11.9698C9.61057 12.8672 8.90137 13.5908 8.00401 13.6198ZM13.9092 13.6198C12.9684 13.5908 12.2303 12.7948 12.2592 11.8395C12.2882 10.9421 13.0119 10.2184 13.9092 10.1895C14.85 10.2184 15.5882 11.0145 15.5592 11.9698C15.5303 12.8672 14.8066 13.5908 13.9092 13.6198Z" fill="#FF8293"/>
</svg>
