<svg xmlns="http://www.w3.org/2000/svg" xmlns:xlink="http://www.w3.org/1999/xlink" viewBox="0 0 265.86 248.73"><defs><style>.cls-1{isolation:isolate;}.cls-2{fill:#303235;}.cls-3{fill:#ec228c;}.cls-4{fill:url(#linear-gradient);}.cls-5,.cls-6,.cls-7{mix-blend-mode:multiply;}.cls-5{fill:url(#linear-gradient-2);}.cls-6{fill:url(#linear-gradient-3);}.cls-7{fill:url(#linear-gradient-4);}</style><linearGradient id="linear-gradient" x1="79.33" y1="55.08" x2="153.92" y2="55.08" gradientUnits="userSpaceOnUse"><stop offset="0.03" stop-color="#69f988"/><stop offset="0.58" stop-color="#0092ff"/></linearGradient><linearGradient id="linear-gradient-2" x1="-914.7" y1="193.25" x2="-873.79" y2="23.21" gradientTransform="matrix(-1, 0, 0, 1, -721.2, 0)" gradientUnits="userSpaceOnUse"><stop offset="0" stop-color="#0099cd"/><stop offset="0.11" stop-color="#1ea5d3"/><stop offset="0.55" stop-color="#96d5ea"/><stop offset="0.86" stop-color="#e1f3f9"/><stop offset="1" stop-color="#fff"/></linearGradient><linearGradient id="linear-gradient-3" x1="-860.16" y1="131.64" x2="-870.12" y2="38.88" xlink:href="#linear-gradient-2"/><linearGradient id="linear-gradient-4" x1="-859.6" y1="129.81" x2="-868.91" y2="43.16" xlink:href="#linear-gradient-2"/></defs><title>hexa foundationAsset 21</title><g class="cls-1"><g id="Layer_2" data-name="Layer 2"><g id="Layer_1-2" data-name="Layer 1"><path class="cls-2" d="M111.07,194.13H76.13a2.3,2.3,0,0,0,0,4.6h34.94a2.3,2.3,0,0,0,0-4.59Z"/><path class="cls-2" d="M45.72,141.31h-.28a2.28,2.28,0,0,0-2.27,2.28v23.57a.13.13,0,0,1-.13.13H6.68a.13.13,0,0,1-.13-.13V143.59a2.28,2.28,0,0,0-2.28-2.28H4a2.28,2.28,0,0,0-2.27,2.28v52.86A2.27,2.27,0,0,0,4,198.72h.28a2.28,2.28,0,0,0,2.28-2.27V172a.13.13,0,0,1,.13-.13H43a.13.13,0,0,1,.13.13v24.44a2.27,2.27,0,0,0,2.27,2.27h.28A2.28,2.28,0,0,0,48,196.45V143.59A2.28,2.28,0,0,0,45.72,141.31Z"/><path class="cls-2" d="M111.07,141.32H76.13a2.3,2.3,0,0,0,0,4.6h34.94a2.3,2.3,0,0,0,0-4.59Z"/><path class="cls-2" d="M111.07,167.29H76.13a2.3,2.3,0,0,0,0,4.6h34.94a2.3,2.3,0,0,0,0-4.59Z"/><path class="cls-2" d="M165.32,169.14a.12.12,0,0,1,0-.15l17.93-24a2.28,2.28,0,1,0-3.65-2.72l-17.07,22.93a.13.13,0,0,1-.1.05h0a.13.13,0,0,1-.1-.05l-17.15-22.94a2.28,2.28,0,0,0-1.82-.91h-.16a2.28,2.28,0,0,0-1.82,3.64l17.92,24a.12.12,0,0,1,0,.16l-19.41,25.93a2.27,2.27,0,0,0,1.82,3.64h.07a2.29,2.29,0,0,0,1.82-.91L162.23,173a.14.14,0,0,1,.11-.05.13.13,0,0,1,.1.05L181,197.81a2.3,2.3,0,0,0,1.83.91H183a2.27,2.27,0,0,0,1.82-3.64Z"/><path class="cls-2" d="M265.46,195.49,241,142.63a2.28,2.28,0,0,0-2.06-1.32h-1.07a2.31,2.31,0,0,0-2.07,1.32l-11.37,24.45a2.28,2.28,0,0,0,2.06,3.23h.27a2.28,2.28,0,0,0,2.07-1.32l9.49-20.71a.12.12,0,0,1,.12-.07h0a.12.12,0,0,1,.12.07l13.6,29.64a.1.1,0,0,1,0,.12.12.12,0,0,1-.11.06l-32.67,0-8,17.35a2.28,2.28,0,0,0,2.06,3.23h.27a2.28,2.28,0,0,0,2.07-1.33l6.78-14.78a.13.13,0,0,1,.12-.07h31.53a.14.14,0,0,1,.12.07l6.78,14.78a2.28,2.28,0,0,0,2.07,1.33h.26a2.28,2.28,0,0,0,2.07-3.23Z"/><path class="cls-2" d="M111.07,194.3H76.13a2.3,2.3,0,0,0,0,4.59h34.94a2.3,2.3,0,0,0,0-4.59Z"/><path class="cls-2" d="M45.72,141.48h-.28a2.28,2.28,0,0,0-2.27,2.28v23.57a.13.13,0,0,1-.13.13H6.68a.13.13,0,0,1-.13-.13V143.76a2.28,2.28,0,0,0-2.28-2.28H4a2.28,2.28,0,0,0-2.27,2.28v52.86A2.27,2.27,0,0,0,4,198.89h.28a2.28,2.28,0,0,0,2.28-2.27V172.18a.13.13,0,0,1,.13-.13H43a.13.13,0,0,1,.13.13v24.44a2.27,2.27,0,0,0,2.27,2.27h.28A2.28,2.28,0,0,0,48,196.62V143.76A2.28,2.28,0,0,0,45.72,141.48Z"/><path class="cls-2" d="M111.07,141.49H76.13a2.3,2.3,0,0,0,0,4.6h34.94a2.3,2.3,0,0,0,0-4.59Z"/><path class="cls-2" d="M111.07,167.46H76.13a2.3,2.3,0,0,0,0,4.6h34.94a2.3,2.3,0,0,0,0-4.59Z"/><path class="cls-2" d="M165.32,169.32a.14.14,0,0,1,0-.16l17.93-24a2.28,2.28,0,0,0-1.82-3.64,2.31,2.31,0,0,0-1.83.92l-17.07,22.93a.11.11,0,0,1-.1.06h0a.11.11,0,0,1-.1-.06L145.16,142.4a2.26,2.26,0,0,0-1.82-.92h-.16a2.28,2.28,0,0,0-1.82,3.64l17.92,24a.12.12,0,0,1,0,.16l-19.41,25.93a2.27,2.27,0,0,0,1.82,3.64h.07a2.29,2.29,0,0,0,1.82-.91l18.65-24.84a.14.14,0,0,1,.11,0,.13.13,0,0,1,.1,0L181,198a2.3,2.3,0,0,0,1.83.91H183a2.27,2.27,0,0,0,1.82-3.64Z"/><path class="cls-2" d="M265.46,195.66,241,142.8a2.28,2.28,0,0,0-2.06-1.32h-1.07a2.31,2.31,0,0,0-2.07,1.32l-11.37,24.46a2.28,2.28,0,0,0,2.06,3.23h.27a2.29,2.29,0,0,0,2.07-1.33l9.49-20.7a.12.12,0,0,1,.12-.08h0a.12.12,0,0,1,.12.08l13.6,29.63a.11.11,0,0,1,0,.12.12.12,0,0,1-.11.06l-32.67,0-8,17.34a2.28,2.28,0,0,0,2.06,3.23h.27a2.28,2.28,0,0,0,2.07-1.32l6.78-14.79a.13.13,0,0,1,.12-.07h31.53a.14.14,0,0,1,.12.07l6.78,14.78a2.28,2.28,0,0,0,2.07,1.33h.26a2.28,2.28,0,0,0,2.07-3.23Z"/><path class="cls-2" d="M1.69,226.94v9.89H13.26a.76.76,0,0,1,.76.76h0a.76.76,0,0,1-.76.76H1.69v9.37a.85.85,0,0,1-.85.84h0a.85.85,0,0,1-.84-.84v-22.3H14.71a.76.76,0,0,1,.76.76h0a.76.76,0,0,1-.76.76Z"/><path class="cls-2" d="M28.73,247.19A11.42,11.42,0,0,1,24.41,243a12.19,12.19,0,0,1,0-12,11.37,11.37,0,0,1,4.32-4.22,12.35,12.35,0,0,1,6.14-1.53A12.41,12.41,0,0,1,41,226.78a11.18,11.18,0,0,1,4.32,4.2,12.31,12.31,0,0,1,0,12,11.32,11.32,0,0,1-4.32,4.2,12.52,12.52,0,0,1-6.15,1.52A12.36,12.36,0,0,1,28.73,247.19Zm11.4-1.34a9.75,9.75,0,0,0,3.7-3.65,10.64,10.64,0,0,0,0-10.41,9.71,9.71,0,0,0-3.7-3.66,11.16,11.16,0,0,0-10.53,0,9.76,9.76,0,0,0-3.72,3.66,10.71,10.71,0,0,0,0,10.41,9.8,9.8,0,0,0,3.72,3.65,11.16,11.16,0,0,0,10.53,0Z"/><path class="cls-2" d="M59.48,246.18q-2.43-2.53-2.43-7.44V226.27a.85.85,0,0,1,.85-.85h0a.85.85,0,0,1,.84.85v12.41q0,4.26,1.95,6.38a7.3,7.3,0,0,0,5.65,2.11A7.26,7.26,0,0,0,72,245.06q2-2.12,2-6.38V226.27a.85.85,0,0,1,.84-.85h0a.85.85,0,0,1,.85.85v12.47q0,4.9-2.45,7.44a9,9,0,0,1-6.84,2.55A9,9,0,0,1,59.48,246.18Z"/><path class="cls-2" d="M106.8,226.27v21.36a.93.93,0,0,1-.93.93h0a.93.93,0,0,1-.74-.36L89.65,228.46v19.26a.85.85,0,0,1-.85.84h0a.85.85,0,0,1-.84-.84V226.38a1,1,0,0,1,1-1h0a1,1,0,0,1,.75.37l15.45,19.73V226.27a.84.84,0,0,1,.84-.85h0A.84.84,0,0,1,106.8,226.27Z"/><path class="cls-2" d="M119.36,225.42h9.16a13.46,13.46,0,0,1,6.4,1.49,10.78,10.78,0,0,1,4.34,4.12,12.18,12.18,0,0,1,0,11.93,10.82,10.82,0,0,1-4.34,4.11,13.35,13.35,0,0,1-6.4,1.49h-9.16Zm9,21.62a12.06,12.06,0,0,0,5.65-1.27,9.07,9.07,0,0,0,3.77-3.56,11,11,0,0,0,0-10.44,9,9,0,0,0-3.77-3.55,12.07,12.07,0,0,0-5.65-1.28h-7.34V247Z"/><path class="cls-2" d="M181.9,226.94h-7.57a.76.76,0,0,1-.76-.76h0a.76.76,0,0,1,.76-.76h16.83a.76.76,0,0,1,.76.76h0a.76.76,0,0,1-.76.76h-7.57v20.78a.85.85,0,0,1-.84.84h0a.85.85,0,0,1-.85-.84Z"/><path class="cls-2" d="M201.42,225.42h0a.85.85,0,0,1,.85.85v21.45a.85.85,0,0,1-.85.84h0a.85.85,0,0,1-.84-.84V226.27A.85.85,0,0,1,201.42,225.42Z"/><path class="cls-2" d="M218.5,247.19a11.42,11.42,0,0,1-4.32-4.21,12.19,12.19,0,0,1,0-12,11.37,11.37,0,0,1,4.32-4.22,13.14,13.14,0,0,1,12.29,0,11.18,11.18,0,0,1,4.32,4.2,12.31,12.31,0,0,1,0,12,11.32,11.32,0,0,1-4.32,4.2,12.52,12.52,0,0,1-6.15,1.52A12.36,12.36,0,0,1,218.5,247.19Zm11.4-1.34a9.75,9.75,0,0,0,3.7-3.65,10.64,10.64,0,0,0,0-10.41,9.71,9.71,0,0,0-3.7-3.66,11.16,11.16,0,0,0-10.53,0,9.76,9.76,0,0,0-3.72,3.66,10.71,10.71,0,0,0,0,10.41,9.8,9.8,0,0,0,3.72,3.65,11.16,11.16,0,0,0,10.53,0Z"/><path class="cls-2" d="M265.86,226.27v21.45a.84.84,0,0,1-.84.84h-.13a.86.86,0,0,1-.67-.32l-15.51-19.78v19.26a.85.85,0,0,1-.85.84h0a.85.85,0,0,1-.84-.84V226.38a1,1,0,0,1,1-1h0a1,1,0,0,1,.75.37l15.45,19.73V226.27a.85.85,0,0,1,.84-.85h0A.84.84,0,0,1,265.86,226.27Z"/><path class="cls-2" d="M169.4,247.39l-9.75-21.2a1.33,1.33,0,0,0-1.2-.77,1.31,1.31,0,0,0-1.19.77l-2.38,5.17-2.09,4.54a.81.81,0,0,0,.73,1.16.8.8,0,0,0,.74-.48l.37-.84,1.64-3.7h0l2.16-4.77,6.09,13.36H150.61l-3.11,6.76a.83.83,0,0,0,1.5.69l2.72-6h13.42l2.76,6a.83.83,0,0,0,.75.48h0A.83.83,0,0,0,169.4,247.39Z"/><path class="cls-3" d="M146,62.66a33.44,33.44,0,0,0-2.42-2.5L135,52.1l37.66-35.25c18.52,17.33,18.52,45.44,0,62.77l-29,27.2A31.47,31.47,0,0,0,146,62.66Z"/><path class="cls-4" d="M79.33,0,108.1,26.93l35.49,33.23a31.52,31.52,0,0,1,0,46.66h0a12.76,12.76,0,0,1-17.21,0L90,72.72a32.89,32.89,0,0,1-10.62-24Z"/><path class="cls-5" d="M172.64,79.62l-29,27.2a31.68,31.68,0,0,0,10.09-27.06h0c32.62-27.89,19-62.91,19-62.91C191.16,34.18,191.16,62.29,172.64,79.62Z"/><path class="cls-6" d="M145.07,105.33A31.4,31.4,0,0,0,146,62.66a33.44,33.44,0,0,0-2.42-2.5L135,52.1l5.62-5.26h0c27.49,28.24,13.13,49.45,6.94,56.28l-2.42,2.27Z"/><path class="cls-7" d="M145.07,105.33A31.4,31.4,0,0,0,146,62.66a33.44,33.44,0,0,0-2.42-2.5L135,52.1l2-1.82c28.13,22.07,16.8,46,10.61,52.84l-2.42,2.27Z"/></g></g></g></svg>