<svg xmlns="http://www.w3.org/2000/svg" xmlns:xlink="http://www.w3.org/1999/xlink" width="23.975" height="23.043" viewBox="0 0 23.975 23.043"><defs><style>.a{fill:none;}.b{clip-path:url(#a);}.c{clip-path:url(#b);}.d{fill:#fff;}</style><clipPath id="a"><path class="a" d="M78.1-.86V8.361H72.866v-8.6c0-2.161-.757-3.636-2.652-3.636a2.871,2.871,0,0,0-2.686,1.956,3.73,3.73,0,0,0-.174,1.3V8.361H62.117s.071-14.571,0-16.081h5.236v2.279c-.011.017-.024.035-.034.052h.034v-.052A5.184,5.184,0,0,1,72.072-8.1C75.518-8.1,78.1-5.8,78.1-.86ZM57.342-14.682c-1.944,0-3.216,1.066-3.216,2.468,0,1.371,1.235,2.47,3.141,2.47H57.3c1.982,0,3.215-1.1,3.215-2.47C60.482-13.616,59.286-14.682,57.342-14.682ZM54.126,8.361h4.795V-6.452H54.126Z" transform="translate(-54.126 14.682)"/></clipPath><clipPath id="b"><path class="a" d="M-174,788.962H3027.71V-1012H-174Z" transform="translate(174 1012)"/></clipPath></defs><g class="b"><g class="c" transform="translate(-380.413 -1663.085)"><path class="d" d="M49.126-19.682h40.65V20.036H49.126Z" transform="translate(322.949 1674.429)"/></g></g></svg>