<svg width="154" height="153" viewBox="0 0 154 153" fill="none" xmlns="http://www.w3.org/2000/svg">
<path d="M137.36 153H16.6405C7.45036 153 0 145.598 0 136.468V16.5324C0 7.40198 7.45036 0 16.6405 0H137.359C146.55 0 154 7.40198 154 16.5324V136.467C154 145.598 146.55 153 137.36 153Z" fill="#BABABA"/>
<path d="M137.36 153H16.6405C7.45036 153 0 145.598 0 136.468V16.5324C0 7.40198 7.45036 0 16.6405 0H137.359C146.55 0 154 7.40198 154 16.5324V136.467C154 145.598 146.55 153 137.36 153Z" fill="#BABABA"/>
<path d="M84.4861 76.4998C84.4861 94.7088 69.7296 109.47 51.5263 109.47C33.3232 109.47 18.5664 94.7088 18.5664 76.4998C18.5664 58.2908 33.3229 43.5295 51.5263 43.5295C69.7293 43.5295 84.4861 58.2908 84.4861 76.4998Z" fill="#E5E5E5"/>
<path d="M120.644 76.4998C120.644 93.6406 113.265 107.536 104.164 107.536C95.0623 107.536 87.6841 93.6406 87.6841 76.4998C87.6841 59.3591 95.0623 45.464 104.164 45.464C113.265 45.464 120.644 59.3594 120.644 76.4998Z" fill="#E5E5E5"/>
<path d="M135.433 76.4998C135.433 91.8571 132.838 104.307 129.637 104.307C126.436 104.307 123.841 91.8571 123.841 76.4998C123.841 61.1424 126.436 48.6929 129.637 48.6929C132.839 48.6929 135.433 61.1424 135.433 76.4998Z" fill="#E5E5E5"/>
</svg>
