<svg xmlns="http://www.w3.org/2000/svg" xmlns:xlink="http://www.w3.org/1999/xlink" width="26.795" height="27.363" viewBox="0 0 26.795 27.363"><defs><style>.a{fill:none;}.b{clip-path:url(#a);}.c{clip-path:url(#b);}.d{fill:#fff;}</style><clipPath id="a"><path class="a" d="M174.083-17.273a13.542,13.542,0,0,0-13.4,13.682,13.542,13.542,0,0,0,13.4,13.682,13.542,13.542,0,0,0,13.4-13.682A13.542,13.542,0,0,0,174.083-17.273Zm0,21.37a9.444,9.444,0,0,1-4.338-1.038c-.342.279-1.888,1.438-3.422.9a3.475,3.475,0,0,0,1.074-2.67,7.157,7.157,0,0,1-1.962-4.876c0-4.246,3.872-7.689,8.649-7.689s8.649,3.442,8.649,7.689S178.86,4.1,174.083,4.1Z" transform="translate(-160.686 17.273)"/></clipPath><clipPath id="b"><path class="a" d="M-174,788.962H3027.71V-1012H-174Z" transform="translate(174 1012)"/></clipPath></defs><g class="b"><g class="c" transform="translate(-558.108 -1658.765)"><path class="d" d="M155.686-22.273h43.471V21.766H155.686Z" transform="translate(394.084 1672.7)"/></g></g></svg>