<svg xmlns="http://www.w3.org/2000/svg" xmlns:xlink="http://www.w3.org/1999/xlink" width="36.667" height="28.803" viewBox="0 0 36.667 28.803"><defs><style>.a{fill:none;}.b{clip-path:url(#a);}.c{clip-path:url(#b);}.d{fill:#fff;}</style><clipPath id="a"><path class="a" d="M251.479-3.979a4.5,4.5,0,0,0-4.563-4.431,4.594,4.594,0,0,0-2.743.9,19.572,19.572,0,0,0-9.43-3l1.914-4.36,5.57,1.263a3.379,3.379,0,0,0,3.388,2.984,3.378,3.378,0,0,0,3.423-3.323,3.378,3.378,0,0,0-3.423-3.324,3.441,3.441,0,0,0-2.859,1.507l-6.51-1.478a1.149,1.149,0,0,0-1.312.645l-2.647,6.027a19.983,19.983,0,0,0-10.238,3,4.561,4.561,0,0,0-2.674-.84,4.5,4.5,0,0,0-4.563,4.431,4.369,4.369,0,0,0,2.307,3.835c-.018.195-.025.394-.025.6,0,6.108,7.165,11.078,15.972,11.078S249.037,6.561,249.037.452c0-.173-.007-.343-.018-.514A4.376,4.376,0,0,0,251.479-3.979ZM245.837-15.9a1.394,1.394,0,0,1,1.41,1.372,1.394,1.394,0,0,1-1.41,1.372,1.394,1.394,0,0,1-1.41-1.372A1.394,1.394,0,0,1,245.837-15.9ZM224.683-.128A2.09,2.09,0,0,1,226.8-2.185a2.09,2.09,0,0,1,2.115,2.057A2.089,2.089,0,0,1,226.8,1.929,2.089,2.089,0,0,1,224.683-.128Zm13.639,7.052a8.123,8.123,0,0,1-10.354,0,1.333,1.333,0,0,1-.251-1.737,1.054,1.054,0,0,1,1.565-.279,6.057,6.057,0,0,0,7.726,0,1.051,1.051,0,0,1,1.565.279A1.335,1.335,0,0,1,238.322,6.924Zm-.241-4.995a2.088,2.088,0,0,1-2.115-2.057,2.089,2.089,0,0,1,2.115-2.057A2.089,2.089,0,0,1,240.2-.128,2.088,2.088,0,0,1,238.081,1.929Z" transform="translate(-214.811 17.273)"/></clipPath><clipPath id="b"><path class="a" d="M-174,788.962H3027.71V-1012H-174Z" transform="translate(174 1012)"/></clipPath></defs><g class="b"><g class="c" transform="translate(-648.365 -1658.765)"><path class="d" d="M209.811-22.273h53.343V23.206H209.811Z" transform="translate(430.216 1672.7)"/></g></g></svg>