<svg xmlns="http://www.w3.org/2000/svg" xmlns:xlink="http://www.w3.org/1999/xlink" width="25.07" height="23.043" viewBox="0 0 25.07 23.043"><defs><style>.a,.b{fill:none;}.a{clip-rule:evenodd;}.c{clip-path:url(#a);}.d{clip-path:url(#b);}.e{fill:#fff;}</style><clipPath id="a"><path class="a" d="M114.655-2.568l11.29-7.34c.2-.132.412.158.237.329L116.865-.437a2.079,2.079,0,0,0-.6,1.22l-.317,2.483a.289.289,0,0,1-.57.044l-1.221-4.528a1.231,1.231,0,0,1,.5-1.35M107-3.633l5.777,2.276,2.236,7.591a.667.667,0,0,0,1.08.343l3.22-2.771a.921.921,0,0,1,1.171-.034l5.808,4.451a.672.672,0,0,0,1.067-.435l4.254-21.6a.694.694,0,0,0-.912-.817L107-4.978A.734.734,0,0,0,107-3.633" transform="translate(-106.56 14.682)"/></clipPath><clipPath id="b"><path class="b" d="M-174,788.962H3027.71V-1012H-174Z" transform="translate(174 1012)"/></clipPath></defs><g class="c"><g class="d" transform="translate(-467.85 -1663.085)"><path class="e" d="M101.56-19.682h41.746V20.036H101.56Z" transform="translate(357.952 1674.429)"/></g></g></svg>