<svg width="20" height="19" viewBox="0 0 20 19" fill="none" xmlns="http://www.w3.org/2000/svg">
<path d="M17.98 4.78795C17.38 5.03495 16.76 5.20595 16.1 5.28195C16.78 4.90195 17.3 4.29395 17.54 3.55295C16.9 3.91395 16.2 4.16095 15.46 4.31295C14.86 3.70495 14 3.32495 13.06 3.32495C11.24 3.32495 9.77998 4.73095 9.77998 6.44095C9.77998 6.68795 9.79998 6.91595 9.85998 7.14395C7.13998 7.02995 4.73998 5.77595 3.11998 3.89495C1.95998 5.87095 3.25998 7.50495 4.11998 8.05595C3.59998 8.05595 3.07998 7.90395 2.63998 7.67595C2.63998 9.21495 3.77998 10.488 5.25998 10.773C4.93998 10.868 4.21998 10.925 3.77998 10.83C4.19998 12.0649 5.41998 12.977 6.83998 12.996C5.71998 13.832 4.07998 14.4969 1.97998 14.2879C3.43998 15.1809 5.15998 15.6939 7.01998 15.6939C13.06 15.6939 16.34 10.944 16.34 6.83995C16.34 6.70695 16.34 6.57395 16.32 6.44095C17 5.96595 17.56 5.41495 17.98 4.78795Z" fill="#FF8293"/>
</svg>
