<svg xmlns="http://www.w3.org/2000/svg" xmlns:xlink="http://www.w3.org/1999/xlink" width="26.795" height="23.043" viewBox="0 0 26.795 23.043"><defs><style>.a{fill:none;}.b{clip-path:url(#a);}.c{clip-path:url(#b);}.d{fill:#fff;}</style><clipPath id="a"><path class="a" d="M26.8-11.954a10.525,10.525,0,0,1-3.157.916,5.789,5.789,0,0,0,2.417-3.218,10.646,10.646,0,0,1-3.491,1.412,5.354,5.354,0,0,0-4.013-1.837,5.664,5.664,0,0,0-5.5,5.817A6.164,6.164,0,0,0,13.2-7.539,15.341,15.341,0,0,1,1.866-13.617a6.049,6.049,0,0,0-.744,2.924A5.91,5.91,0,0,0,3.567-5.851a5.248,5.248,0,0,1-2.49-.728c0,.024,0,.049,0,.073A5.748,5.748,0,0,0,5.486-.8a5.224,5.224,0,0,1-1.448.2A5.2,5.2,0,0,1,3-.7a5.552,5.552,0,0,0,5.135,4.04,10.651,10.651,0,0,1-6.827,2.49A10.523,10.523,0,0,1,0,5.747,14.945,14.945,0,0,0,8.427,8.361C18.539,8.361,24.068-.5,24.068-8.19q0-.378-.016-.753A11.551,11.551,0,0,0,26.8-11.954Z" transform="translate(0 14.682)"/></clipPath><clipPath id="b"><path class="a" d="M-174,788.962H3027.71V-1012H-174Z" transform="translate(174 1012)"/></clipPath></defs><g class="b"><g class="c" transform="translate(-290.155 -1663.085)"><path class="d" d="M-5-19.682H38.471V20.036H-5Z" transform="translate(286.817 1674.429)"/></g></g></svg>