<svg width="747" height="470" viewBox="0 0 747 470" fill="none" xmlns="http://www.w3.org/2000/svg">
<g clip-path="url(#clip0_5552_39165)">
<path d="M570.786 79.0723H493.7" stroke="#D9D9D9" stroke-width="2" stroke-linecap="round" stroke-linejoin="round"/>
<path d="M354.096 27.7009H344.293C338.905 27.7009 334.49 22.1069 334.49 15.2698V2.04102" stroke="#B2B1B5" stroke-width="2" stroke-miterlimit="10"/>
<path d="M370.448 27.4937H382.251C388.748 27.4937 394.054 33.0877 394.054 39.9248V66.4756C394.054 73.3127 399.65 78.9067 406.489 78.9067H455.773C462.612 78.9067 468.208 84.5007 468.208 91.3378V111.466C468.208 118.303 473.804 123.897 480.643 123.897H539.46C546.3 123.897 551.895 129.491 551.895 136.328V177.154" stroke="#B2B1B5" stroke-width="2" stroke-miterlimit="10"/>
<path d="M355.609 24.158H368.946C369.775 24.158 370.459 24.8313 370.459 25.6704V29.6898C370.459 30.5185 369.785 31.2023 368.946 31.2023H355.609C354.78 31.2023 354.096 30.5289 354.096 29.6898V25.6704C354.096 24.8417 354.77 24.158 355.609 24.158Z" stroke="#D9D9D9" stroke-width="2" stroke-miterlimit="10"/>
<path d="M522.549 120.82H509.222C508.387 120.82 507.709 121.497 507.709 122.333V126.352C507.709 127.187 508.387 127.865 509.222 127.865H522.549C523.384 127.865 524.061 127.187 524.061 126.352V122.333C524.061 121.497 523.384 120.82 522.549 120.82Z" fill="#B2B1B5"/>
<path d="M468.042 105.768C471.218 105.768 473.793 103.194 473.793 100.019C473.793 96.8436 471.218 94.2695 468.042 94.2695C464.865 94.2695 462.291 96.8436 462.291 100.019C462.291 103.194 464.865 105.768 468.042 105.768Z" fill="#B2B1B5"/>
<path d="M551.895 182.417C553.692 182.417 555.149 180.96 555.149 179.164C555.149 177.367 553.692 175.911 551.895 175.911C550.098 175.911 548.641 177.367 548.641 179.164C548.641 180.96 550.098 182.417 551.895 182.417Z" stroke="#B2B1B5" stroke-width="2" stroke-miterlimit="10"/>
<path d="M520.113 317.615V287.812C520.113 280.974 514.518 275.38 507.678 275.38H336.573C329.734 275.38 324.138 269.786 324.138 262.949V80.3154C324.138 73.4783 329.734 67.8843 336.573 67.8843H349.557" stroke="#D9D9D9" stroke-width="2" stroke-linecap="round" stroke-linejoin="round"/>
<path d="M452.902 338.976L452.851 372.944C452.851 378.973 457.762 383.904 463.793 383.904H485.378" stroke="#D9D9D9" stroke-width="2" stroke-linecap="round" stroke-linejoin="round"/>
<path d="M325.942 145.372H322.335C321.591 145.372 320.988 145.975 320.988 146.718V158.642C320.988 159.386 321.591 159.989 322.335 159.989H325.942C326.686 159.989 327.289 159.386 327.289 158.642V146.718C327.289 145.975 326.686 145.372 325.942 145.372Z" fill="#D9D9D9"/>
<path d="M446.032 271.123H461.887C462.881 271.123 463.679 271.931 463.679 272.915V277.701C463.679 278.695 462.871 279.493 461.887 279.493H446.032C445.037 279.493 444.239 278.685 444.239 277.701V272.915C444.239 271.92 445.048 271.123 446.032 271.123Z" fill="#D9D9D9"/>
<path d="M324.138 152.685H409.38" stroke="#D9D9D9" stroke-width="2" stroke-linecap="round" stroke-linejoin="round"/>
<path d="M445.11 329.642C445.11 325.333 448.602 321.842 452.913 321.842C457.224 321.842 460.716 325.333 460.716 329.642C460.716 333.952 457.224 337.443 452.913 337.443C448.602 337.443 445.11 333.952 445.11 329.642Z" stroke="#D9D9D9" stroke-width="1.46" stroke-miterlimit="10"/>
<path d="M319.465 197.966C319.465 195.386 321.558 193.283 324.149 193.283C326.739 193.283 328.833 195.376 328.833 197.966C328.833 200.555 326.739 202.648 324.149 202.648C321.558 202.648 319.465 200.555 319.465 197.966Z" fill="#D9D9D9"/>
<path d="M412.769 156.083C414.646 156.083 416.167 154.562 416.167 152.685C416.167 150.809 414.646 149.287 412.769 149.287C410.891 149.287 409.37 150.809 409.37 152.685C409.37 154.562 410.891 156.083 412.769 156.083Z" stroke="#D9D9D9" stroke-width="2" stroke-miterlimit="10"/>
<path d="M523.513 321.013C523.513 322.888 521.989 324.411 520.114 324.411C518.238 324.411 516.715 322.888 516.715 321.013C516.715 319.138 518.238 317.615 520.114 317.615C521.989 317.615 523.513 319.138 523.513 321.013Z" fill="#D9D9D9"/>
<path d="M489.865 383.894C489.865 385.541 488.529 386.888 486.871 386.888C485.213 386.888 483.876 385.551 483.876 383.894C483.876 382.236 485.213 380.9 486.871 380.9C488.529 380.9 489.865 382.236 489.865 383.894Z" fill="#D9D9D9"/>
<path d="M349.879 71.282C351.756 71.282 353.278 69.7607 353.278 67.8842C353.278 66.0076 351.756 64.4863 349.879 64.4863C348.002 64.4863 346.48 66.0076 346.48 67.8842C346.48 69.7607 348.002 71.282 349.879 71.282Z" fill="#D9D9D9"/>
<path d="M452.84 319.552V279.493" stroke="#D9D9D9" stroke-width="2" stroke-linecap="round" stroke-linejoin="round"/>
<path d="M250.129 192.195H261.632C267.963 192.195 273.134 186.601 273.134 179.764V166.235" stroke="#D9D9D9" stroke-width="2" stroke-linecap="round" stroke-linejoin="round"/>
<path d="M1.03613 217.544H97.7181C104.557 217.544 110.153 211.961 110.153 205.144C110.153 198.328 115.749 192.734 122.588 192.724L240.565 192.454" stroke="#D9D9D9" stroke-width="2" stroke-linecap="round" stroke-linejoin="round"/>
<path d="M26.6727 222.455C29.9577 222.455 32.6207 219.793 32.6207 216.509C32.6207 213.225 29.9577 210.562 26.6727 210.562C23.3876 210.562 20.7246 213.225 20.7246 216.509C20.7246 219.793 23.3876 222.455 26.6727 222.455Z" fill="#D9D9D9"/>
<path d="M269.331 166.494C269.331 164.888 270.637 163.594 272.233 163.594C273.828 163.594 275.134 164.899 275.134 166.494C275.134 168.089 273.828 169.395 272.233 169.395C270.637 169.395 269.331 168.089 269.331 166.494Z" fill="#D9D9D9"/>
<path d="M285.414 57.7942C338.749 57.732 429.006 57.732 429.006 57.732C435.846 57.732 441.441 52.138 441.441 45.3009V41.1572C441.441 34.3201 447.037 28.7261 453.876 28.7261H474.622" stroke="#D9D9D9" stroke-width="2" stroke-linecap="round" stroke-linejoin="round"/>
<path d="M28.5796 71.8828C30.0511 81.5584 29.6987 87.7843 29.6987 87.7843C29.3153 94.611 34.6002 100.35 41.4394 100.537L129.52 99.1588C136.36 99.1588 141.955 93.5647 141.955 86.7276V70.1528C141.955 63.3157 147.551 57.7217 154.39 57.7217C154.39 57.7217 231.125 57.7217 275.994 57.7838" stroke="#D9D9D9" stroke-width="2" stroke-linecap="round" stroke-linejoin="round"/>
<path d="M410.851 53.5781H423.867C424.685 53.5781 425.338 54.2411 425.338 55.0491V58.9753C425.338 59.7937 424.675 60.4463 423.867 60.4463H410.851C410.033 60.4463 409.38 59.7833 409.38 58.9753V55.0491C409.38 54.2308 410.043 53.5781 410.851 53.5781Z" fill="#D9D9D9"/>
<path d="M132.598 96.5899C132.598 93.4199 135.168 90.8508 138.339 90.8508C141.51 90.8508 144.08 93.4199 144.08 96.5899C144.08 99.7598 141.51 102.329 138.339 102.329C135.168 102.329 132.598 99.7598 132.598 96.5899Z" fill="#D9D9D9"/>
<path d="M276.004 58.2812C276.004 55.6811 278.108 53.5781 280.709 53.5781C283.31 53.5781 285.414 55.6811 285.414 58.2812C285.414 60.8814 283.31 62.9843 280.709 62.9843C278.108 62.9843 276.004 60.8814 276.004 58.2812Z" stroke="#D9D9D9" stroke-width="2" stroke-miterlimit="10"/>
<path d="M28.5795 71.8724C33.4899 71.8724 37.4705 67.893 37.4705 62.9842C37.4705 58.0754 33.4899 54.0959 28.5795 54.0959C23.6691 54.0959 19.6885 58.0754 19.6885 62.9842C19.6885 67.893 23.6691 71.8724 28.5795 71.8724Z" stroke="#D9D9D9" stroke-width="2" stroke-miterlimit="10"/>
<path d="M477.876 31.9688C479.673 31.9688 481.13 30.5124 481.13 28.7159C481.13 26.9195 479.673 25.4631 477.876 25.4631C476.079 25.4631 474.622 26.9195 474.622 28.7159C474.622 30.5124 476.079 31.9688 477.876 31.9688Z" stroke="#D9D9D9" stroke-width="2" stroke-miterlimit="10"/>
<path d="M28.5796 54.096V1.78174" stroke="#D9D9D9" stroke-width="2" stroke-linecap="round" stroke-linejoin="round"/>
<path d="M40.2271 128.486V151.867C40.2271 158.704 45.8228 164.298 52.662 164.298H213.187C220.026 164.298 225.622 158.704 225.622 151.867V145.517C225.622 138.68 231.218 133.086 238.057 133.086H279.932C286.771 133.086 292.367 138.68 292.367 145.517V262.97C292.367 269.807 286.771 275.401 279.932 275.401H248.658C241.819 275.401 236.223 280.995 236.223 287.832V307.038C236.223 313.876 241.819 319.47 248.658 319.47H252.388C259.228 319.47 264.823 325.064 264.823 331.901V382.816" stroke="#D9D9D9" stroke-width="2" stroke-linecap="round" stroke-linejoin="round"/>
<path d="M137.842 167.789C140.16 167.789 142.039 165.911 142.039 163.594C142.039 161.277 140.16 159.398 137.842 159.398C135.524 159.398 133.645 161.277 133.645 163.594C133.645 165.911 135.524 167.789 137.842 167.789Z" fill="#D9D9D9"/>
<path d="M40.2271 128.704C42.4419 128.704 44.2374 126.909 44.2374 124.695C44.2374 122.48 42.4419 120.686 40.2271 120.686C38.0123 120.686 36.2168 122.48 36.2168 124.695C36.2168 126.909 38.0123 128.704 40.2271 128.704Z" stroke="#D9D9D9" stroke-width="2" stroke-miterlimit="10"/>
<path d="M265.311 390.834C267.525 390.834 269.321 389.04 269.321 386.825C269.321 384.611 267.525 382.816 265.311 382.816C263.096 382.816 261.3 384.611 261.3 386.825C261.3 389.04 263.096 390.834 265.311 390.834Z" stroke="#D9D9D9" stroke-width="2" stroke-miterlimit="10"/>
<path d="M240.565 133.075C240.565 130.195 242.896 127.865 245.777 127.865C248.658 127.865 250.99 130.195 250.99 133.075C250.99 135.955 248.658 138.286 245.777 138.286C242.896 138.286 240.565 135.955 240.565 133.075Z" fill="#D9D9D9"/>
<path d="M287.144 214.779C287.144 211.899 289.476 209.568 292.356 209.568C295.237 209.568 297.569 211.899 297.569 214.779C297.569 217.659 295.237 219.99 292.356 219.99C289.476 219.99 287.144 217.659 287.144 214.779Z" fill="#D9D9D9"/>
<path d="M234.244 290.36H238.171C238.99 290.36 239.643 291.023 239.643 291.831V304.842C239.643 305.661 238.98 306.313 238.171 306.313H234.244C233.425 306.313 232.772 305.65 232.772 304.842V291.831C232.772 291.023 233.436 290.36 234.244 290.36Z" fill="#D9D9D9"/>
<path d="M362.272 240.262V231.996C362.272 227.448 367.868 223.729 374.707 223.729H513.502C520.342 223.729 525.937 218.135 525.937 211.298V205.176C525.937 198.338 531.533 192.744 538.372 192.744H593.47" stroke="#D9D9D9" stroke-width="2" stroke-linecap="round" stroke-linejoin="round"/>
<path d="M387.163 219.482H374.935C374.174 219.482 373.557 220.099 373.557 220.859V224.558C373.557 225.319 374.174 225.936 374.935 225.936H387.163C387.924 225.936 388.541 225.319 388.541 224.558V220.859C388.541 220.099 387.924 219.482 387.163 219.482Z" fill="#D9D9D9"/>
<path d="M505.751 222.704C505.751 220.383 507.627 218.508 509.948 218.508C512.269 218.508 514.145 220.383 514.145 222.704C514.145 225.024 512.269 226.899 509.948 226.899C507.627 226.899 505.751 225.024 505.751 222.704Z" fill="#D9D9D9"/>
<path d="M590.91 192.755C590.91 190.434 592.786 188.559 595.107 188.559C597.428 188.559 599.304 190.434 599.304 192.755C599.304 195.075 597.428 196.95 595.107 196.95C592.786 196.95 590.91 195.075 590.91 192.755Z" stroke="#D9D9D9" stroke-width="2" stroke-miterlimit="10"/>
<path d="M333.672 336.024V252.704C333.672 245.867 339.268 240.273 346.107 240.273H438.551" stroke="#D9D9D9" stroke-width="2" stroke-linecap="round" stroke-linejoin="round"/>
<path d="M331.268 293.955H336.086C337.081 293.955 337.889 294.763 337.889 295.757V311.7C337.889 312.695 337.081 313.503 336.086 313.503H331.278C330.283 313.503 329.475 312.695 329.475 311.7V295.757C329.475 294.763 330.283 293.955 331.278 293.955H331.268Z" fill="#D9D9D9"/>
<path d="M329.547 340.571C329.547 338.292 331.392 336.448 333.672 336.448C335.951 336.448 337.796 338.292 337.796 340.571C337.796 342.851 335.951 344.694 333.672 344.694C331.392 344.694 329.547 342.851 329.547 340.571Z" fill="#D9D9D9"/>
<path d="M442.789 244.572C445.17 244.572 447.1 242.643 447.1 240.263C447.1 237.883 445.17 235.953 442.789 235.953C440.408 235.953 438.478 237.883 438.478 240.263C438.478 242.643 440.408 244.572 442.789 244.572Z" fill="white" stroke="#D9D9D9" stroke-width="2" stroke-linecap="round" stroke-linejoin="round"/>
<path d="M280.709 53.3194V1.03613" stroke="#BDBDBD" stroke-width="2" stroke-linecap="round" stroke-linejoin="round"/>
<path d="M280.709 62.9846V100.444C280.709 107.281 286.305 112.864 293.144 112.844L368.22 112.657C375.059 112.637 380.645 118.22 380.624 125.057L380.323 243.215C380.303 250.052 385.888 255.646 392.727 255.646H425.846" stroke="#BDBDBD" stroke-width="2" stroke-linecap="round" stroke-linejoin="round"/>
<path d="M380.417 245.96C383.564 245.96 386.116 243.409 386.116 240.263C386.116 237.116 383.564 234.565 380.417 234.565C377.269 234.565 374.717 237.116 374.717 240.263C374.717 243.409 377.269 245.96 380.417 245.96Z" fill="#D9D9D9"/>
<path d="M380.417 156.995C382.798 156.995 384.728 155.065 384.728 152.685C384.728 150.305 382.798 148.376 380.417 148.376C378.036 148.376 376.106 150.305 376.106 152.685C376.106 155.065 378.036 156.995 380.417 156.995Z" fill="#D9D9D9"/>
<path d="M426.436 259.956C428.817 259.956 430.747 258.026 430.747 255.646C430.747 253.266 428.817 251.337 426.436 251.337C424.055 251.337 422.125 253.266 422.125 255.646C422.125 258.026 424.055 259.956 426.436 259.956Z" fill="white" stroke="#D9D9D9" stroke-width="2" stroke-linecap="round" stroke-linejoin="round"/>
<path d="M219.498 77.9844H233.311C240.15 77.9844 245.746 83.5784 245.746 90.4155V184.768" stroke="#BDBDBD" stroke-width="2" stroke-linecap="round" stroke-linejoin="round"/>
<path d="M222.71 21.0603C222.71 19.4546 224.016 18.1597 225.611 18.1597C227.207 18.1597 228.513 19.4649 228.513 21.0603C228.513 22.6556 227.207 23.9609 225.611 23.9609C224.016 23.9609 222.71 22.6556 222.71 21.0603Z" fill="#D9D9D9"/>
<path d="M275.134 247.99C276.736 247.99 278.035 246.692 278.035 245.09C278.035 243.488 276.736 242.189 275.134 242.189C273.531 242.189 272.232 243.488 272.232 245.09C272.232 246.692 273.531 247.99 275.134 247.99Z" fill="#D9D9D9"/>
<path d="M243.808 184.768H247.736C248.544 184.768 249.207 185.431 249.207 186.239V199.25C249.207 200.068 248.544 200.721 247.736 200.721H243.808C242.99 200.721 242.337 200.058 242.337 199.25V186.239C242.337 185.42 243 184.768 243.808 184.768Z" stroke="#D9D9D9" stroke-width="2" stroke-linecap="round" stroke-linejoin="round"/>
<path d="M212.068 86.4997C216.171 86.4997 219.498 83.1743 219.498 79.0721C219.498 74.97 216.171 71.6445 212.068 71.6445C207.965 71.6445 204.638 74.97 204.638 79.0721C204.638 83.1743 207.965 86.4997 212.068 86.4997Z" stroke="#D9D9D9" stroke-width="2" stroke-linecap="round" stroke-linejoin="round"/>
<path d="M204.638 79.0721H197.073C192.918 79.0721 189.509 73.4781 189.509 66.641V33.5017C189.509 26.6646 195.105 21.0706 201.944 21.0706H222.7" stroke="#BDBDBD" stroke-width="2" stroke-linecap="round" stroke-linejoin="round"/>
<path d="M245.777 200.731V232.141C245.777 238.978 251.373 244.572 258.212 244.572H272.232" stroke="#BDBDBD" stroke-width="2" stroke-linecap="round" stroke-linejoin="round"/>
<path d="M583.594 79.0723H728.814C735.653 79.0723 741.249 73.4783 741.249 66.6412V33.4397" stroke="#D9D9D9" stroke-width="2" stroke-linecap="round" stroke-linejoin="round"/>
<path d="M490.798 81.9728C492.4 81.9728 493.699 80.6742 493.699 79.0722C493.699 77.4703 492.4 76.1716 490.798 76.1716C489.196 76.1716 487.896 77.4703 487.896 79.0722C487.896 80.6742 489.196 81.9728 490.798 81.9728Z" fill="#D9D9D9"/>
<path d="M741.249 33.4398C743.858 33.4398 745.974 31.3249 745.974 28.716C745.974 26.1071 743.858 23.9922 741.249 23.9922C738.639 23.9922 736.523 26.1071 736.523 28.716C736.523 31.3249 738.639 33.4398 741.249 33.4398Z" stroke="#D9D9D9" stroke-width="2" stroke-linecap="round" stroke-linejoin="round"/>
<path d="M682.649 75.55H669.323C668.487 75.55 667.81 76.2272 667.81 77.0625V81.0819C667.81 81.9172 668.487 82.5944 669.323 82.5944H682.649C683.485 82.5944 684.162 81.9172 684.162 81.0819V77.0625C684.162 76.2272 683.485 75.55 682.649 75.55Z" fill="#D9D9D9"/>
<path d="M570.786 79.0722C570.786 75.5397 573.657 72.6702 577.19 72.6702C580.724 72.6702 583.594 75.5397 583.594 79.0722C583.594 82.6047 580.724 85.4742 577.19 85.4742C573.657 85.4742 570.786 82.6047 570.786 79.0722Z" stroke="#D9D9D9" stroke-width="2" stroke-linecap="round" stroke-linejoin="round"/>
<path d="M741.249 22.5003V1.29492" stroke="#D9D9D9" stroke-width="2" stroke-linecap="round" stroke-linejoin="round"/>
<path d="M576.278 41.8721V71.4478" stroke="#D9D9D9" stroke-width="2" stroke-linecap="round" stroke-linejoin="round"/>
<path d="M621.407 133.438C624.017 133.438 626.132 131.323 626.132 128.714C626.132 126.105 624.017 123.99 621.407 123.99C618.797 123.99 616.682 126.105 616.682 128.714C616.682 131.323 618.797 133.438 621.407 133.438Z" fill="#D9D9D9"/>
<path d="M577.19 85.1636V116.283C577.19 123.12 582.786 128.714 589.625 128.714H621.407" stroke="#D9D9D9" stroke-width="2" stroke-linecap="round" stroke-linejoin="round"/>
<path d="M575.18 25.2662H579.201C580.03 25.2662 580.714 25.9396 580.714 26.7787V40.1111C580.714 40.9398 580.04 41.6131 579.211 41.6131H575.18C574.351 41.6131 573.667 40.9398 573.667 40.1007V26.7683C573.667 25.9396 574.341 25.2559 575.18 25.2559V25.2662Z" stroke="#D9D9D9" stroke-width="2" stroke-linecap="round" stroke-linejoin="round"/>
<path d="M577.19 23.9921V1.29492" stroke="#D9D9D9" stroke-width="2" stroke-linecap="round" stroke-linejoin="round"/>
<path d="M184.307 350.889V432.386" stroke="#D9D9D9" stroke-width="2" stroke-miterlimit="10"/>
<path d="M184.307 308.489V336.023" stroke="#D9D9D9" stroke-width="1.95" stroke-miterlimit="10"/>
<path d="M184.307 290.95V136.11C184.307 129.273 178.711 123.679 171.872 123.679H120.899" stroke="#D9D9D9" stroke-width="2" stroke-miterlimit="10"/>
<path d="M184.307 440.414C186.522 440.414 188.317 438.619 188.317 436.405C188.317 434.191 186.522 432.396 184.307 432.396C182.092 432.396 180.297 434.191 180.297 436.405C180.297 438.619 182.092 440.414 184.307 440.414Z" fill="#D9D9D9"/>
<path d="M116.878 127.688C119.093 127.688 120.889 125.893 120.889 123.679C120.889 121.465 119.093 119.67 116.878 119.67C114.664 119.67 112.868 121.465 112.868 123.679C112.868 125.893 114.664 127.688 116.878 127.688Z" fill="#D9D9D9"/>
<path d="M179.095 192.755C179.095 189.875 181.426 187.544 184.307 187.544C187.188 187.544 189.519 189.875 189.519 192.755C189.519 195.635 187.188 197.966 184.307 197.966C181.426 197.966 179.095 195.635 179.095 192.755Z" fill="#D9D9D9"/>
<path d="M187.646 307.806C192.123 305.963 194.258 300.841 192.415 296.365C190.571 291.89 185.448 289.756 180.971 291.598C176.494 293.441 174.359 298.564 176.202 303.039C178.046 307.515 183.169 309.649 187.646 307.806Z" stroke="#D9D9D9" stroke-width="2" stroke-miterlimit="10"/>
<path d="M194.079 158.435H174.525C173.306 158.435 172.318 159.422 172.318 160.641V166.546C172.318 167.765 173.306 168.752 174.525 168.752H194.079C195.298 168.752 196.286 167.765 196.286 166.546V160.641C196.286 159.422 195.298 158.435 194.079 158.435Z" fill="#D9D9D9"/>
<path d="M186.141 336.023H182.473C181.717 336.023 181.105 336.636 181.105 337.391V349.522C181.105 350.277 181.717 350.889 182.473 350.889H186.141C186.897 350.889 187.509 350.277 187.509 349.522V337.391C187.509 336.636 186.897 336.023 186.141 336.023Z" stroke="#D9D9D9" stroke-width="2" stroke-miterlimit="10"/>
<path d="M83.6665 45.8501V267.663C83.6665 274.5 89.2622 280.094 96.1015 280.094H113.604C120.443 280.094 126.039 285.688 126.039 292.525V448.246C126.039 455.083 131.634 460.677 138.474 460.677H153.955" stroke="#D9D9D9" stroke-width="2" stroke-linecap="round" stroke-linejoin="round"/>
<path d="M83.6665 45.8501C85.8813 45.8501 87.6768 44.0552 87.6768 41.8411C87.6768 39.6269 85.8813 37.832 83.6665 37.832C81.4517 37.832 79.6562 39.6269 79.6562 41.8411C79.6562 44.0552 81.4517 45.8501 83.6665 45.8501Z" stroke="#D9D9D9" stroke-width="2" stroke-linecap="round" stroke-linejoin="round"/>
<path d="M79.5317 216.509C79.5317 214.23 81.3763 212.375 83.6664 212.375C85.9565 212.375 87.801 214.219 87.801 216.509C87.801 218.798 85.9565 220.642 83.6664 220.642C81.3763 220.642 79.5317 218.798 79.5317 216.509Z" fill="#D9D9D9"/>
<path d="M90.1846 96.5898H77.159C76.3463 96.5898 75.6875 97.2484 75.6875 98.0609V101.997C75.6875 102.81 76.3463 103.468 77.159 103.468H90.1846C90.9973 103.468 91.6561 102.81 91.6561 101.997V98.0609C91.6561 97.2484 90.9973 96.5898 90.1846 96.5898Z" fill="#D9D9D9"/>
<path d="M123.635 382.216H128.453C129.448 382.216 130.256 383.024 130.256 384.018V399.961C130.256 400.955 129.448 401.764 128.453 401.764H123.645C122.65 401.764 121.842 400.955 121.842 399.961V384.018C121.842 383.024 122.65 382.216 123.645 382.216H123.635Z" fill="#D9D9D9"/>
<path d="M235.529 460.677C235.529 458.398 237.373 456.554 239.653 456.554C241.933 456.554 243.777 458.398 243.777 460.677C243.777 462.956 241.933 464.8 239.653 464.8C237.373 464.8 235.529 462.956 235.529 460.677Z" stroke="#D9D9D9" stroke-width="2" stroke-linecap="round" stroke-linejoin="round"/>
<path d="M153.955 460.677C153.955 456.098 157.665 452.389 162.245 452.389C166.825 452.389 170.535 456.098 170.535 460.677C170.535 465.255 166.825 468.964 162.245 468.964C157.665 468.964 153.955 465.255 153.955 460.677Z" stroke="#D9D9D9" stroke-width="2" stroke-linecap="round" stroke-linejoin="round"/>
<path d="M192.162 299.973H207.135" stroke="#D9D9D9" stroke-width="2" stroke-linecap="round" stroke-linejoin="round"/>
<path d="M126.039 289.769V240.428C126.039 233.384 131.801 227.624 138.847 227.624H153.489C160.536 227.624 166.297 233.384 166.297 240.428V286.91C166.297 293.954 168.38 299.714 170.919 299.714H175.541" stroke="#D9D9D9" stroke-width="2" stroke-linecap="round" stroke-linejoin="round"/>
<path d="M212.068 303.723C214.283 303.723 216.078 301.928 216.078 299.714C216.078 297.5 214.283 295.705 212.068 295.705C209.853 295.705 208.058 297.5 208.058 299.714C208.058 301.928 209.853 303.723 212.068 303.723Z" fill="#D9D9D9"/>
<path d="M139.324 224.164H152.463C153.282 224.164 153.955 224.827 153.955 225.656V229.624C153.955 230.442 153.292 231.105 152.474 231.105H139.334C138.515 231.105 137.842 230.442 137.842 229.613V225.646C137.842 224.827 138.505 224.154 139.334 224.154L139.324 224.164Z" fill="#D9D9D9"/>
<path d="M126.039 292.743C128.265 292.743 130.07 290.938 130.07 288.713C130.07 286.487 128.265 284.683 126.039 284.683C123.813 284.683 122.008 286.487 122.008 288.713C122.008 290.938 123.813 292.743 126.039 292.743Z" fill="#D9D9D9"/>
<path d="M1.03613 177.144H53.2216C60.0608 177.144 65.6565 182.738 65.6565 189.575V232.649C65.6565 239.486 60.0608 245.08 53.2216 245.08H30.4241C23.5849 245.08 17.9891 250.674 17.9891 257.511V370.365C17.9891 377.202 23.5849 382.796 30.4241 382.796H83.6665" stroke="#E9E9E9" stroke-width="2" stroke-linecap="round" stroke-linejoin="round"/>
<path d="M12.0825 282.197C12.0825 278.913 14.7457 276.251 18.0306 276.251C21.3155 276.251 23.9786 278.913 23.9786 282.197C23.9786 285.481 21.3155 288.143 18.0306 288.143C14.7457 288.143 12.0825 285.481 12.0825 282.197Z" fill="#E9E9E9"/>
<path d="M63.7083 209.568H67.6357C68.4439 209.568 69.1071 210.231 69.1071 211.039V224.05C69.1071 224.869 68.4439 225.521 67.6357 225.521H63.7083C62.9 225.521 62.2368 224.858 62.2368 224.05V211.039C62.2368 210.231 62.9 209.568 63.7083 209.568Z" fill="#E9E9E9"/>
<path d="M1.03613 414.94H16.1446C22.9839 414.94 28.5796 409.346 28.5796 402.509V353.002C28.5796 346.165 34.1753 340.571 41.0146 340.571H136.909C143.748 340.571 149.344 346.165 149.344 353.002V398.832C149.344 405.669 154.94 411.263 161.779 411.263H202.586C209.426 411.263 215.021 416.857 215.021 423.694V443.397" stroke="#D9D9D9" stroke-width="2" stroke-linecap="round" stroke-linejoin="round"/>
<path d="M30.3514 375.772C31.0249 375.772 31.5638 376.414 31.5638 377.202V389.798C31.5638 390.586 31.0249 391.228 30.3514 391.228H27.1079C26.4344 391.228 25.8955 390.586 25.8955 389.798V377.202C25.8955 376.414 26.4344 375.772 27.1079 375.772H30.3514Z" fill="#D9D9D9"/>
<path d="M83.6668 298.337H54.7865C47.9473 298.337 42.3516 303.931 42.3516 310.768V419.955C42.3516 426.792 47.9473 432.386 54.7865 432.386H77.3146" stroke="#D9D9D9" stroke-width="2" stroke-linecap="round" stroke-linejoin="round"/>
<path d="M87.6773 302.346C89.8921 302.346 91.6876 300.551 91.6876 298.337C91.6876 296.123 89.8921 294.328 87.6773 294.328C85.4625 294.328 83.667 296.123 83.667 298.337C83.667 300.551 85.4625 302.346 87.6773 302.346Z" stroke="#D9D9D9" stroke-width="2" stroke-miterlimit="10"/>
<path d="M81.8638 436.395C84.0786 436.395 85.8741 434.6 85.8741 432.386C85.8741 430.171 84.0786 428.376 81.8638 428.376C79.649 428.376 77.8535 430.171 77.8535 432.386C77.8535 434.6 79.649 436.395 81.8638 436.395Z" stroke="#D9D9D9" stroke-width="2" stroke-miterlimit="10"/>
<path d="M42.3517 343.565C44.0056 343.565 45.3464 342.225 45.3464 340.571C45.3464 338.918 44.0056 337.578 42.3517 337.578C40.6977 337.578 39.3569 338.918 39.3569 340.571C39.3569 342.225 40.6977 343.565 42.3517 343.565Z" fill="#D9D9D9"/>
<path d="M42.3517 385.8C44.0056 385.8 45.3464 384.46 45.3464 382.806C45.3464 381.153 44.0056 379.812 42.3517 379.812C40.6977 379.812 39.3569 381.153 39.3569 382.806C39.3569 384.46 40.6977 385.8 42.3517 385.8Z" fill="#D9D9D9"/>
<path d="M417.359 1.78174V82.0868C417.359 88.9239 422.126 94.5179 427.95 94.5179C433.774 94.5179 438.54 100.112 438.54 106.949V192.258C438.54 199.095 444.136 204.741 450.975 204.803L474.591 205.031C481.431 205.093 487.026 199.551 487.026 192.713V173.393" stroke="#D9D9D9" stroke-width="2" stroke-linecap="round" stroke-linejoin="round"/>
<path d="M436.509 144.698H440.436C441.255 144.698 441.908 145.361 441.908 146.169V159.181C441.908 159.989 441.245 160.652 440.436 160.652H436.509C435.69 160.652 435.038 159.989 435.038 159.181V146.169C435.038 145.351 435.701 144.698 436.509 144.698Z" fill="#D9D9D9"/>
<path d="M487.037 175.911C488.834 175.911 490.29 174.454 490.29 172.658C490.29 170.861 488.834 169.405 487.037 169.405C485.24 169.405 483.783 170.861 483.783 172.658C483.783 174.454 485.24 175.911 487.037 175.911Z" fill="url(#paint0_radial_5552_39165)" stroke="#D9D9D9" stroke-width="2" stroke-miterlimit="10"/>
<path d="M457.576 205.155C457.576 202.265 459.918 199.923 462.809 199.923C465.7 199.923 468.042 202.265 468.042 205.155C468.042 208.045 465.7 210.386 462.809 210.386C459.918 210.386 457.576 208.045 457.576 205.155Z" fill="#D9D9D9"/>
<path d="M413.421 79.0723C413.421 76.8968 415.183 75.1357 417.359 75.1357C419.535 75.1357 421.297 76.8968 421.297 79.0723C421.297 81.2477 419.535 83.0088 417.359 83.0088C415.183 83.0088 413.421 81.2477 413.421 79.0723Z" fill="#D9D9D9"/>
</g>
<defs>
<radialGradient id="paint0_radial_5552_39165" cx="0" cy="0" r="1" gradientUnits="userSpaceOnUse" gradientTransform="translate(487.037 172.658) scale(3.25383 3.25281)">
<stop stop-color="white"/>
<stop offset="0.46" stop-color="#F1F1F3"/>
<stop offset="1" stop-color="#DCDDE1"/>
</radialGradient>
<clipPath id="clip0_5552_39165">
<rect width="747" height="470" fill="white"/>
</clipPath>
</defs>
</svg>
