<svg width="190" height="130" viewBox="0 0 190 130" fill="none" xmlns="http://www.w3.org/2000/svg">
<path d="M41.8215 104.082C83.1033 120.164 118.234 123.296 158.045 98.2645C157.753 98.7015 149.878 110.347 129.169 116.316C133.544 122.285 139.524 129.127 139.524 129.127C152.795 129.127 165.774 125.342 177.003 118.063C185.754 112.24 190.712 102.195 189.691 91.7135C187.941 73.8074 183.711 56.3382 177.149 39.5973C168.837 17.7609 148.857 2.62075 125.669 0.436936C123.627 0.291291 122.169 0.291291 121.294 0.291291L118.961 2.62031C145.649 10.1904 158.92 21.982 159.212 22.4189C118.232 1.74687 69.8144 1.45602 28.5425 21.5455C28.5425 21.5455 41.6679 8.58916 70.6889 1.74688L68.9389 0C65.8763 0 62.9595 0.291289 59.8972 0.727792C38.4593 4.36719 20.5217 19.0704 12.7922 39.3056C6.08368 56.7747 1.70872 75.1174 0.104642 93.7513C-0.77035 103.65 3.89642 113.404 12.0632 119.082C22.8549 126.215 35.6884 130 48.6678 130C48.6678 130 53.9177 123.158 59.1681 117.044C39.4802 111.22 31.4593 99.5745 31.3134 99.1375L35.0186 101.026C37.2336 102.156 39.5044 103.179 41.8215 104.082V104.082ZM64.7099 91.4222C55.2304 91.131 47.7928 83.1244 48.0846 73.5161C48.3764 64.4905 55.6682 57.2117 64.7099 56.9204C74.1893 57.2117 81.627 65.2183 81.3352 74.8265C80.8975 83.8526 73.7516 91.1314 64.7099 91.4222V91.4222ZM124.211 91.4222C114.731 91.131 107.294 83.1244 107.585 73.5161C107.877 64.4905 115.169 57.2117 124.211 56.9204C133.69 57.2117 141.128 65.2183 140.836 74.8265C140.545 83.8526 133.252 91.1314 124.211 91.4222V91.4222Z" fill="white"/>
</svg>
