<svg width="17" height="17" viewBox="0 0 17 17" fill="none" xmlns="http://www.w3.org/2000/svg">
<path d="M8.49894 0.177002C3.80588 0.177002 0 3.99775 0 8.711C0 12.4808 2.43525 15.6789 5.814 16.8083C6.239 16.8869 6.39412 16.6234 6.39412 16.3971C6.39412 16.1942 6.38669 15.6576 6.38244 14.9458C4.01837 15.4611 3.519 13.8014 3.519 13.8014C3.13331 12.8154 2.5755 12.553 2.5755 12.553C1.80306 12.0239 2.63287 12.0345 2.63287 12.0345C3.48606 12.0951 3.93444 12.9143 3.93444 12.9143C4.69306 14.2179 5.9245 13.8418 6.409 13.6229C6.4855 13.0715 6.70544 12.6954 6.94875 12.4818C5.06175 12.2661 3.077 11.5341 3.077 8.26475C3.077 7.33294 3.4085 6.57113 3.9525 5.974C3.86431 5.75831 3.57319 4.89025 4.03538 3.71619C4.03538 3.71619 4.74938 3.48669 6.37288 4.59063C7.05075 4.4015 7.7775 4.30694 8.50106 4.30375C9.2225 4.308 9.95031 4.4015 10.6292 4.59169C12.2517 3.48775 12.9646 3.71725 12.9646 3.71725C13.4279 4.89238 13.1367 5.75938 13.0496 5.97506C13.5947 6.57219 13.923 7.334 13.923 8.26581C13.923 11.5436 11.9361 12.2651 10.0427 12.4765C10.3477 12.74 10.6197 13.2606 10.6197 14.0564C10.6197 15.1976 10.6091 16.1177 10.6091 16.3971C10.6091 16.6256 10.7621 16.8912 11.1934 16.8073C14.5669 15.6768 17 12.4797 17 8.711C17 3.99775 13.1941 0.177002 8.49894 0.177002Z" fill="white"/>
</svg>
