<svg width="146" height="130" viewBox="0 0 146 130" fill="none" xmlns="http://www.w3.org/2000/svg">
<path d="M72.9909 0C32.6858 0 0 29.8386 0 66.6474C0 96.0877 20.9145 121.064 49.932 129.884C53.582 130.498 54.9143 128.441 54.9143 126.673C54.9143 125.088 54.8504 120.898 54.8139 115.338C34.5108 119.363 30.222 106.402 30.222 106.402C26.9096 98.7015 22.119 96.652 22.119 96.652C15.4851 92.5197 22.6117 92.6027 22.6117 92.6027C29.9391 93.0757 33.7899 99.4732 33.7899 99.4732C40.3051 109.655 50.881 106.717 55.042 105.008C55.699 100.701 57.5879 97.7639 59.6775 96.096C43.4715 94.4116 26.426 88.6945 26.426 63.1623C26.426 55.8852 29.273 49.9358 33.945 45.2724C33.1876 43.588 30.6874 36.8087 34.6568 27.6397C34.6568 27.6397 40.7888 25.8474 54.7318 34.4688C60.5535 32.9918 66.795 32.2533 73.0091 32.2284C79.205 32.2616 85.4556 32.9918 91.2865 34.4771C105.22 25.8557 111.343 27.648 111.343 27.648C115.322 36.8253 112.821 43.5963 112.073 45.2807C116.754 49.9441 119.574 55.8935 119.574 63.1706C119.574 88.7692 102.51 94.4033 86.2495 96.0546C88.8684 98.1124 91.2044 102.178 91.2044 108.393C91.2044 117.305 91.1131 124.491 91.1131 126.673C91.1131 128.457 92.4271 130.532 96.1319 129.876C125.104 121.047 146 96.0794 146 66.6474C146 29.8386 113.314 0 72.9909 0Z" fill="white"/>
</svg>
