<svg width="156" height="130" viewBox="0 0 156 130" fill="none" xmlns="http://www.w3.org/2000/svg">
<path d="M78 0C34.9245 0 0 24.8633 0 55.5348C0 75.364 14.599 92.7648 36.5625 102.585C28.119 128.878 27.898 128.996 29.328 129.758C31.122 130.71 33.449 129.729 64.1485 110.195C68.6465 110.768 73.2745 111.07 78 111.07C121.075 111.07 156 86.2063 156 55.5348C156 24.8633 121.075 0 78 0ZM39.377 71.0389C39.377 73.1778 37.3555 74.9209 34.879 74.9209C32.4025 74.9209 30.381 73.1778 30.381 71.0389V46.8964H23.361C20.9235 46.8964 18.9475 45.112 18.9475 42.92C18.9475 40.7279 20.917 38.9376 23.3545 38.9376H46.397C48.8345 38.9376 50.8105 40.722 50.8105 42.914C50.8105 45.1061 48.828 46.8964 46.397 46.8964H39.377V71.0389ZM74.334 74.8677C69.654 74.8677 70.5185 71.5293 68.3605 67.8069H54.639C52.5005 71.4998 53.339 74.8677 48.6655 74.8677C44.161 74.8736 43.368 72.3802 44.7395 68.5396L55.5035 42.9554C56.264 41.0056 58.565 39.0026 61.4965 38.9435C64.4345 39.0026 66.742 41.0056 67.496 42.9554C74.6005 62.9855 84.747 74.8736 74.334 74.8677V74.8677ZM99.9375 74.3241H85.501C77.9675 74.3241 82.55 65.0772 81.1915 43.0027C81.1915 40.7633 83.252 38.9376 85.787 38.9376C88.322 38.9376 90.3825 40.7574 90.3825 43.0027V66.8734H99.944C102.323 66.8734 104.253 68.5455 104.253 70.5958C104.247 72.652 102.316 74.3241 99.9375 74.3241V74.3241ZM135.161 71.2634C134.999 72.3329 134.368 73.296 133.412 73.9459C127.205 78.206 122.616 65.7862 116.558 60.5275L114.998 61.9397V70.8026C114.998 73.0478 112.983 74.8677 110.494 74.8677C108.011 74.8677 105.995 73.0478 105.995 70.8026V43.0027C105.995 40.7633 108.011 38.9376 110.494 38.9376C112.977 38.9376 114.991 40.7574 114.991 43.0027V51.7356C123.292 46.0751 127.894 35.9596 133.139 40.6924C138.287 45.3366 127.627 49.4017 123.214 55.003C133.64 68.0728 135.623 68.3978 135.161 71.2634V71.2634Z" fill="white"/>
</svg>
