<svg width="156" height="141" viewBox="0 0 156 141" fill="none" xmlns="http://www.w3.org/2000/svg">
<path d="M78 0.375C34.9245 0.375 0 27.201 0 60.2936C0 81.6881 14.599 100.462 36.5625 111.058C28.119 139.426 27.898 139.554 29.328 140.376C31.122 141.403 33.449 140.344 64.1485 119.269C68.6465 119.887 73.2745 120.212 78 120.212C121.076 120.212 156 93.3863 156 60.2936C156 27.201 121.076 0.375 78 0.375ZM39.377 77.0216C39.377 79.3294 37.3555 81.21 34.879 81.21C32.4025 81.21 30.381 79.3294 30.381 77.0216V50.9734H23.361C20.9235 50.9734 18.9475 49.0481 18.9475 46.683C18.9475 44.3179 20.917 42.3862 23.3545 42.3862H46.397C48.8345 42.3862 50.8105 44.3115 50.8105 46.6766C50.8105 49.0417 48.828 50.9734 46.397 50.9734H39.377V77.0216ZM74.334 81.1526C69.654 81.1526 70.5185 77.5508 68.3605 73.5345H54.639C52.5005 77.5189 53.339 81.1526 48.6655 81.1526C44.161 81.159 43.368 78.4688 44.7395 74.325L55.5035 46.7213C56.264 44.6175 58.565 42.4564 61.4965 42.3926C64.4345 42.4564 66.742 44.6175 67.496 46.7213C74.6005 68.3325 84.747 81.159 74.334 81.1526ZM99.9375 80.5661H85.501C77.9675 80.5661 82.55 70.5892 81.1915 46.7722C81.1915 44.3561 83.252 42.3862 85.787 42.3862C88.322 42.3862 90.3825 44.3498 90.3825 46.7722V72.5273H99.944C102.323 72.5273 104.253 74.3314 104.253 76.5435C104.247 78.762 102.316 80.5661 99.9375 80.5661ZM135.161 77.2639C134.999 78.4177 134.368 79.4569 133.412 80.1581C127.205 84.7545 122.616 71.3543 116.558 65.6805L114.998 67.2041V76.7666C114.998 79.1891 112.983 81.1526 110.493 81.1526C108.011 81.1526 105.995 79.1891 105.995 76.7666V46.7722C105.995 44.3561 108.011 42.3862 110.493 42.3862C112.977 42.3862 114.992 44.3498 114.992 46.7722V56.1945C123.292 50.0872 127.894 39.1733 133.139 44.2796C138.288 49.2904 127.627 53.6764 123.214 59.7199C133.64 73.8214 135.622 74.172 135.161 77.2639Z" fill="white"/>
</svg>
