<svg width="17" height="13" viewBox="0 0 17 13" fill="none" xmlns="http://www.w3.org/2000/svg">
<path d="M16.98 1.78795C16.38 2.03495 15.76 2.20595 15.1 2.28195C15.78 1.90195 16.3 1.29395 16.54 0.552951C15.9 0.913951 15.2 1.16095 14.46 1.31295C13.86 0.704951 13 0.324951 12.06 0.324951C10.24 0.324951 8.77998 1.73095 8.77998 3.44095C8.77998 3.68795 8.79998 3.91595 8.85998 4.14395C6.13998 4.02995 3.73998 2.77595 2.11998 0.894951C0.959981 2.87095 2.25998 4.50495 3.11998 5.05595C2.59998 5.05595 2.07998 4.90395 1.63998 4.67595C1.63998 6.21495 2.77998 7.48795 4.25998 7.77295C3.93998 7.86795 3.21998 7.92495 2.77998 7.82995C3.19998 9.06495 4.41998 9.97695 5.83998 9.99595C4.71998 10.832 3.07998 11.4969 0.97998 11.2879C2.43998 12.1809 4.15998 12.6939 6.01998 12.6939C12.06 12.6939 15.34 7.94395 15.34 3.83995C15.34 3.70695 15.34 3.57395 15.32 3.44095C16 2.96595 16.56 2.41495 16.98 1.78795Z" fill="white"/>
</svg>
