<svg xmlns="http://www.w3.org/2000/svg" width="136.134" height="26.907" viewBox="0 0 136.134 26.907"><defs><style>.a,.b{fill:#fff;}.a{fill-rule:evenodd;}.b{opacity:0.7;}</style></defs><path class="a" d="M86.7,13.945v9.313H84.414V13.945h-2.09v-2h2.093V10.041A3.588,3.588,0,0,1,88.133,6.16a2.793,2.793,0,0,1,1.322.241V8.371a2.568,2.568,0,0,0-.961-.142,1.7,1.7,0,0,0-1.787,1.929v1.789h2.728v2ZM27.37,23.258V6.231h2.211V23.258ZM16.066,6.584c3.176,0,5.032,1.881,5.032,4.515a3.713,3.713,0,0,1-2.492,3.6,4.009,4.009,0,0,1,3.01,4.021c0,2.634-2.093,4.539-5.151,4.539H10.634V6.584Zm-.258,7.285a2.647,2.647,0,0,0,2.963-2.657c0-1.575-1.151-2.611-3.057-2.611H12.938v5.268Zm.329,7.366c1.858,0,3.123-1.036,3.123-2.657,0-1.6-1.011-2.729-3.033-2.729H12.938v5.386ZM40.4,23.614a5.713,5.713,0,0,0,5.785-6.021,5.789,5.789,0,1,0-11.57,0A5.714,5.714,0,0,0,40.4,23.614Zm0-10.042c1.882,0,3.527,1.411,3.527,4.021,0,2.63-1.647,4.046-3.527,4.046s-3.527-1.411-3.527-4.046c0-2.614,1.645-4.021,3.527-4.021Zm13.074,4.021c0,2.587,1.623,3.975,3.457,3.975a3.074,3.074,0,0,0,3.151-2.328l1.952.841a5.2,5.2,0,0,1-5.1,3.526,5.717,5.717,0,0,1-5.715-6.014,5.672,5.672,0,0,1,5.691-6,4.917,4.917,0,0,1,5.033,3.6l-2,.84a2.969,2.969,0,0,0-3.034-2.4c-1.788,0-3.434,1.318-3.434,3.955Zm23.82,5.665L72.374,16.72,77.2,11.947H74.138l-4.892,5.008V6.231H67.058V23.258h2.188V19.848l1.576-1.575,3.693,4.986Zm22.974.356a5.713,5.713,0,0,0,5.785-6.021,5.789,5.789,0,1,0-11.57,0A5.714,5.714,0,0,0,100.263,23.614Zm0-10.042c1.881,0,3.527,1.411,3.527,4.021,0,2.63-1.644,4.046-3.525,4.046s-3.528-1.411-3.528-4.046c0-2.614,1.645-4.021,3.526-4.021Zm10.816,9.687V6.231h2.21V23.258Zm9.431-16.85a1.093,1.093,0,1,0,.293,1.5,1.093,1.093,0,0,0-.293-1.5ZM121,11.946h-2.188V23.258H121Zm11.31,11.668a5.713,5.713,0,0,0,5.785-6.021,5.788,5.788,0,1,0-11.569,0A5.714,5.714,0,0,0,132.312,23.614Zm0-10.042c1.882,0,3.528,1.411,3.528,4.021,0,2.63-1.647,4.046-3.528,4.046s-3.526-1.411-3.526-4.046c0-2.61,1.644-4.021,3.526-4.021Z" transform="translate(-1.963 -1.137)"/><path class="b" d="M25.226,26.907H1.682A1.681,1.681,0,0,1,0,25.225V1.681A1.681,1.681,0,0,1,1.682,0H25.226a1.682,1.682,0,0,1,1.681,1.681V2.74h-.6V1.681A1.081,1.081,0,0,0,25.225.6H1.681A1.081,1.081,0,0,0,.6,1.681V25.225a1.081,1.081,0,0,0,1.08,1.081H25.225a1.081,1.081,0,0,0,1.081-1.081V24.64h.6v.585a1.681,1.681,0,0,1-1.682,1.682Z" transform="translate(0 0)"/></svg>