<svg xmlns="http://www.w3.org/2000/svg" width="149.212" height="32.404" viewBox="0 0 149.212 32.404"><defs><style>.a{fill:#0081c9;}</style></defs><g transform="translate(0 0)"><path class="a" d="M11.471,184.306c-4.876,0-9.649-3.509-9.649-11.429,0-7.946,4.773-11.4,9.649-11.4a10.192,10.192,0,0,1,5.624,1.5l-1.471,3.225a6.4,6.4,0,0,0-3.586-1.058c-2.941,0-5.624,2.322-5.624,7.688s2.761,7.74,5.624,7.74a6.4,6.4,0,0,0,3.586-1.058l1.471,3.3a9.9,9.9,0,0,1-5.624,1.5" transform="translate(-1.822 -151.901)"/><path class="a" d="M292.538,184.306c-6.218,0-9.649-4.928-9.649-11.429s3.406-11.4,9.649-11.4c6.218,0,9.649,4.876,9.649,11.4,0,6.5-3.431,11.429-9.649,11.429Zm0-19.3c-3.457,0-5.16,3.1-5.16,7.817s1.7,7.843,5.16,7.843,5.16-3.122,5.16-7.843-1.7-7.817-5.16-7.817Z" transform="translate(-266.093 -151.901)"/><path class="a" d="M664.187,22.759a2.531,2.531,0,1,1,2.657-2.528A2.6,2.6,0,0,1,664.187,22.759Zm-2.245,3.973h4.489v21.93h-4.489Z" transform="translate(-622.108 -16.722)"/><path class="a" d="M832.6,183.841V169.213c0-2.554-1.548-4.154-4.592-4.154a11.68,11.68,0,0,0-4.025.645v18.163h-4.437V163.021a22.085,22.085,0,0,1,8.437-1.548c6.14,0,9.107,2.683,9.107,7.327v15.067H832.6" transform="translate(-770.684 -151.901)"/><path class="a" d="M1194.344,33.7a17.913,17.913,0,0,1-7.379-1.548V1.295h4.438V11.873a11.166,11.166,0,0,1,4.283-.9c5.65,0,9.494,4.076,9.494,10.784,0,8.282-4.283,11.945-10.836,11.945Zm.568-19.247a8.582,8.582,0,0,0-3.509.722v14.4a8.844,8.844,0,0,0,3.173.568c3.534,0,6.14-2.451,6.14-8.049.026-4.8-2.245-7.637-5.8-7.637Z" transform="translate(-1116.145 -1.295)"/><path class="a" d="M1544.446,184.306c-6.295,0-9.494-2.554-9.494-6.888,0-6.115,6.5-7.2,13.132-7.559v-1.393c0-2.761-1.832-3.741-4.644-3.741a16.009,16.009,0,0,0-6.063,1.342l-1.135-3.044a20.5,20.5,0,0,1,7.663-1.548c5.237,0,8.437,2.038,8.437,7.456v13.829a19.044,19.044,0,0,1-7.895,1.548Zm3.664-11.481c-4.489.232-8.952.619-8.952,4.515,0,2.322,1.78,3.741,5.16,3.741a11.072,11.072,0,0,0,3.792-.568Z" transform="translate(-1443.337 -151.901)"/><path class="a" d="M1885.891,184.306a15.832,15.832,0,0,1-6.837-1.548l1.5-3.406a12.066,12.066,0,0,0,5.212,1.419c2.4,0,4-1.187,4-3.019,0-1.987-1.677-2.761-3.9-3.586-2.941-1.109-6.218-2.451-6.218-6.553,0-3.612,2.812-6.14,7.688-6.14a12.781,12.781,0,0,1,6.4,1.548l-1.393,3.1a9.794,9.794,0,0,0-4.515-1.29c-2.322,0-3.612,1.213-3.612,2.812,0,1.987,1.625,2.683,3.793,3.509,3.044,1.135,6.424,2.4,6.424,6.682-.026,3.9-3.044,6.476-8.54,6.476" transform="translate(-1766.877 -151.901)"/><path class="a" d="M2199.807,172.367l-14.577,2.038c.439,3.947,3.019,5.934,6.708,5.934A13.922,13.922,0,0,0,2198,179l1.29,3.328a17.8,17.8,0,0,1-7.662,1.548c-6.914,0-10.784-4.438-10.784-11.429,0-6.708,3.741-11.4,9.881-11.4,5.7,0,9.082,3.741,9.082,9.649A9.074,9.074,0,0,1,2199.807,172.367Zm-9.107-8.05c-3.406,0-5.65,2.606-5.727,7.172l10.629-1.471c-.051-3.818-1.986-5.7-4.9-5.7Z" transform="translate(-2050.633 -151.495)"/></g></svg>