<svg width="141" height="22" viewBox="0 0 141 22" fill="none" xmlns="http://www.w3.org/2000/svg">
<g clip-path="url(#clip0_1106_5473)">
<path d="M31.2079 0.77152C32.2419 14.6822 23.2649 21.2519 15.2044 21.9532C7.70793 22.6079 0.657936 18.0255 0.0469362 10.9883C-0.470064 5.16684 3.14894 2.71201 5.99244 2.45483C8.90644 2.19766 11.3504 4.20829 11.5619 6.61636C11.7734 8.9543 10.3164 10.0064 9.28244 10.0999C8.48344 10.17 7.47294 9.67906 7.37894 8.65037C7.30844 7.76195 7.63744 7.62168 7.56694 6.6865C7.42594 5.00319 5.92194 4.79277 5.12294 4.86291C4.13594 4.95643 2.34994 6.10202 2.60844 8.93092C2.86694 11.8066 5.61644 14.0744 9.25894 13.7471C13.1599 13.3964 15.8859 10.3804 16.0974 6.1254C16.0974 5.8916 16.1444 5.68119 16.2384 5.47077C16.2854 5.37726 16.3324 5.30712 16.3794 5.2136C16.4734 5.0967 16.5674 4.95643 16.7084 4.79277C16.8024 4.67588 16.9199 4.55898 17.0609 4.4187C18.7764 2.80553 24.9334 -0.958554 30.7379 0.233794C31.0199 0.303932 31.2079 0.514346 31.2079 0.77152Z" fill="url(#paint0_linear_1106_5473)"/>
<path d="M43.5455 6.73326H46.201C46.248 6.73326 46.295 6.78002 46.295 6.82678V20.0595C46.295 20.1063 46.248 20.153 46.201 20.153H43.5455C43.4985 20.153 43.4515 20.1063 43.4515 20.0595V6.82678C43.4515 6.78002 43.4985 6.73326 43.5455 6.73326Z" fill="#11293B"/>
<path d="M84.083 1.98725V4.06801C84.083 4.11477 84.036 4.16153 83.989 4.16153H78.584C78.537 4.16153 78.49 4.20829 78.49 4.25505V20.0595C78.49 20.1063 78.443 20.153 78.396 20.153H75.623C75.576 20.153 75.529 20.1063 75.529 20.0595V4.25505C75.529 4.20829 75.482 4.16153 75.435 4.16153H69.56C69.513 4.16153 69.466 4.11477 69.466 4.06801V1.98725C69.466 1.94049 69.513 1.89373 69.56 1.89373H83.989C84.0125 1.89373 84.036 1.89373 84.0595 1.91711C84.083 1.94049 84.083 1.96387 84.083 1.98725ZM70.312 11.5962H70.3355V20.0595C70.3355 20.1063 70.2885 20.153 70.2415 20.153H67.633C67.586 20.153 67.539 20.1063 67.539 20.0595V13.56C67.539 13.2795 67.539 12.9989 67.539 12.7418C67.539 12.6015 67.539 12.4612 67.539 12.3209C67.539 11.9235 67.5155 11.526 67.4685 11.152C67.2805 9.7492 66.693 8.72051 64.6485 8.74389C64.061 8.76727 63.4735 8.93092 62.9565 9.21147C62.3455 9.56217 61.664 10.0531 61.288 10.7311C61.3585 11.1753 61.382 11.6429 61.382 12.0871V12.1105C61.382 12.1807 61.382 12.2508 61.382 12.3209V20.2465C61.382 20.2933 61.335 20.3401 61.288 20.3401H58.75C58.703 20.3401 58.656 20.2933 58.656 20.2465V13.56C58.656 12.0871 58.7265 10.5441 57.998 9.60892C57.5515 9.04782 56.917 8.76727 55.695 8.76727C55.2015 8.76727 54.5435 8.9543 54.0265 9.18809C53.674 9.35175 53.3685 9.53879 53.063 9.79596C52.64 10.17 52.358 10.6376 52.358 11.152V20.0595C52.358 20.1063 52.311 20.153 52.264 20.153H49.679C49.632 20.153 49.585 20.1063 49.585 20.0595V6.9203C49.585 6.87354 49.632 6.82678 49.679 6.82678H50.76C51.2065 6.82678 51.5825 7.10733 51.7235 7.50478L51.888 8.04251C51.888 8.08926 51.9115 8.11264 51.935 8.11264C51.9585 8.13602 52.0055 8.11264 52.029 8.08926C53.1805 7.01381 54.8255 6.49947 56.4235 6.49947C58.092 6.49947 59.1495 6.99043 59.8545 7.76195L59.784 7.66844C59.9955 7.90223 60.1835 8.1594 60.348 8.43995C60.3715 8.48671 60.442 8.51009 60.4655 8.48671L60.489 8.46334C61.5465 7.20085 63.6145 6.49947 65.283 6.49947C69.137 6.49947 70.312 9.0712 70.312 11.5962ZM112.8 20.153H109.98C109.957 20.153 109.933 20.1296 109.91 20.1063C108.852 18.7035 108.053 17.3475 107.701 16.9267L107.63 16.8565C107.043 16.1318 105.868 14.6355 104.223 14.3549C104.199 14.3549 104.152 14.3549 104.152 14.3783L102.954 15.6174C102.93 15.6408 102.93 15.6642 102.93 15.6876V20.0595C102.93 20.1063 102.883 20.153 102.836 20.153H100.204C100.157 20.153 100.11 20.1063 100.11 20.0595V1.70669C100.11 1.65994 100.157 1.61318 100.204 1.61318H102.836C102.883 1.61318 102.93 1.65994 102.93 1.70669V12.2742C102.93 12.2976 102.954 12.3443 102.977 12.3443C103.001 12.3677 103.048 12.3443 103.071 12.3209L108.852 6.54623C108.876 6.52285 108.899 6.52285 108.923 6.52285H112.025C112.072 6.52285 112.095 6.54623 112.095 6.5696C112.119 6.59298 112.095 6.63974 112.072 6.66312L106.173 12.508C106.149 12.5313 106.15 12.5547 106.15 12.5781C106.15 12.6015 106.173 12.6249 106.197 12.6482C107.889 13.4198 109.087 14.8693 109.628 15.5473L109.698 15.6174C110.168 16.2019 111.743 18.4463 112.894 19.9894C112.918 20.0127 112.918 20.0595 112.894 20.0829C112.871 20.153 112.847 20.153 112.8 20.153Z" fill="#11293B"/>
<path d="M44.8615 4.60574C45.8089 4.60574 46.577 3.87303 46.577 2.96918C46.577 2.06534 45.8089 1.33262 44.8615 1.33262C43.9141 1.33262 43.146 2.06534 43.146 2.96918C43.146 3.87303 43.9141 4.60574 44.8615 4.60574Z" fill="#11293B"/>
<path d="M90.522 6.14878C86.4095 6.14878 83.7305 8.74389 83.7305 13.186C83.7305 17.6281 86.433 20.2232 90.522 20.2232C94.611 20.2232 97.3135 17.6281 97.3135 13.186C97.3135 8.76727 94.611 6.14878 90.522 6.14878ZM90.522 18.0255C87.749 18.0255 86.4095 16.2253 86.4095 13.0691C86.4095 9.93624 87.749 8.36982 90.522 8.36982C93.295 8.36982 94.611 10.0531 94.611 13.2094C94.611 16.3188 93.295 18.0255 90.522 18.0255ZM120.955 18.1892C119.474 18.3762 117.993 17.7683 117.147 16.5994C116.701 16.0149 116.442 15.3369 116.278 14.4485C116.278 14.4251 116.278 14.4017 116.301 14.3783C116.325 14.3549 116.349 14.3549 116.372 14.3549L123.868 13.3496C125.913 13.0691 126.783 11.2922 126.007 9.58555C125.302 8.1594 124.08 7.06057 122.576 6.49947C120.532 5.70457 117.806 6.17216 116.349 7.34113C114.398 8.88417 113.74 10.7311 113.622 12.7184C113.599 12.9288 113.599 13.1626 113.599 13.373C113.599 13.8406 113.646 14.2848 113.716 14.729C114.233 17.6982 116.419 20.4102 120.085 20.4102C124.221 20.4336 126.195 18.0255 126.524 16.2253C126.524 16.2019 126.524 16.1785 126.5 16.1552C126.477 16.1318 126.453 16.1318 126.43 16.1318L123.845 16.5058C123.821 16.5058 123.798 16.5292 123.775 16.5526C123.046 17.5579 122.224 18.0021 120.955 18.1892ZM117.077 9.81934C117.806 8.93092 118.863 8.3932 120.015 8.32306C121.19 8.22954 122.13 8.3932 122.952 9.16472C123.258 9.44527 123.492 9.77258 123.704 10.0999C124.009 10.6142 123.68 11.3624 122.999 11.4559L116.16 12.3677C116.137 12.3677 116.113 12.3677 116.09 12.3443C116.067 12.3209 116.066 12.2976 116.066 12.2742C116.184 11.2689 116.513 10.5207 117.077 9.81934ZM141 11.83V20.0361C141 20.0829 140.953 20.1296 140.906 20.1296H138.321C138.274 20.1296 138.227 20.0829 138.227 20.0361V13.2327C138.227 13.2327 138.251 12.0871 138.157 11.0117C138.086 10.2635 137.828 9.51541 137.217 9.04782C136.347 8.36982 135.148 8.5101 135.148 8.5101C133.644 8.67375 132.329 9.56217 131.53 10.474L131.482 10.5207L131.53 10.4973V20.0361C131.53 20.0829 131.482 20.1296 131.435 20.1296H128.85C128.803 20.1296 128.757 20.0829 128.757 20.0361V6.63974C128.757 6.59299 128.803 6.54623 128.85 6.54623H130.965C131.012 6.54623 131.06 6.59299 131.06 6.63974V7.94899C131.06 7.97237 131.083 8.01913 131.107 8.01913C131.13 8.04251 131.177 8.01913 131.2 7.99575C132.305 6.87354 133.95 6.19554 135.689 6.19554C137.146 6.21892 141 6.26567 141 11.83Z" fill="#11293B"/>
</g>
<defs>
<linearGradient id="paint0_linear_1106_5473" x1="29.4108" y1="-0.080721" x2="9.29606" y2="28.5381" gradientUnits="userSpaceOnUse">
<stop stop-color="#11C4D1"/>
<stop offset="1" stop-color="#0062AD"/>
</linearGradient>
<clipPath id="clip0_1106_5473">
<rect width="141" height="22" fill="white"/>
</clipPath>
</defs>
</svg>
