<svg xmlns="http://www.w3.org/2000/svg" width="137" height="41.785" viewBox="0 0 137 41.785"><defs><style>.a{fill:#2c94af;}.b{fill:#ffd01f;}.b,.c,.d,.e,.f,.g,.h,.i{fill-rule:evenodd;}.c{fill:#ddc017;}.d{fill:#003243;}.e{fill:#0a4b61;}.f{fill:#91c45d;}.g{fill:#2ca7ad;}.h{fill:#17708d;}.i{fill:#3fa3c4;}</style></defs><g transform="translate(-0.08 300.196)"><g transform="translate(45.147 -297.412)"><path class="a" d="M199.621-257.092V-265.3h.065l5.335,8.212H211.2l-6.412-8.778,5.584-7.251,1.86-2.432h-6.118l-1.791,2.423L199.686-266h-.065v-22.188l-5.156,1.318v29.777Z" transform="translate(-194.465 288.187)"/><path class="a" d="M275.233-209.07V-217a5.334,5.334,0,0,1,.942-3.332,3.111,3.111,0,0,1,2.614-1.224h6.459v-4.118h-5.532a4.22,4.22,0,0,0-4.418,3.08h-.063v-3.079H270.1v16.6h5.131Z" transform="translate(-252.566 240.165)"/><path class="a" d="M322.2-201.164q4.9,0,7.342-6.5l6.76-18.01h-5.085l-3.136,10.178a15.485,15.485,0,0,0-.537,2.2h-.064a13.26,13.26,0,0,0-.456-2.231l-2.987-9.769a.533.533,0,0,0-.509-.376H318.24L325-209.029l-.877,2.069a2.781,2.781,0,0,1-2.762,1.874,4.311,4.311,0,0,1-2.225-.6v4.1a9.382,9.382,0,0,0,3.07.423Zm17.958-6.851a13.957,13.957,0,0,0,2.94-.3,7.93,7.93,0,0,0,2.5-.97,5.217,5.217,0,0,0,1.739-1.727,4.771,4.771,0,0,0,.654-2.557,4.763,4.763,0,0,0-.323-1.841,3.94,3.94,0,0,0-.928-1.348,6.017,6.017,0,0,0-1.449-1,15.182,15.182,0,0,0-1.887-.789c-.387-.132-.776-.261-1.168-.386a7.767,7.767,0,0,1-1.069-.428,2.587,2.587,0,0,1-.779-.567.847.847,0,0,1-.3-.658.922.922,0,0,1,.2-.582,1.466,1.466,0,0,1,.546-.446,3.24,3.24,0,0,1,.8-.262,4.936,4.936,0,0,1,.968-.091h4.357v-3.7H342.4a12.43,12.43,0,0,0-2.774.3,7.594,7.594,0,0,0-2.369.953,5.054,5.054,0,0,0-1.657,1.669,4.588,4.588,0,0,0-.62,2.433,5.3,5.3,0,0,0,.272,1.792,3.987,3.987,0,0,0,.795,1.332,5.127,5.127,0,0,0,1.292,1.01,12.529,12.529,0,0,0,1.781.814q.628.247,1.308.443a11.111,11.111,0,0,1,1.251.444,3.414,3.414,0,0,1,.937.576,1.065,1.065,0,0,1,.363.823,1.219,1.219,0,0,1-.8,1.149,5.222,5.222,0,0,1-2.2.379,8.612,8.612,0,0,1-2.427-.379,11.159,11.159,0,0,1-2.575-1.151v4.209a15.259,15.259,0,0,0,5.184.854Z" transform="translate(-289.544 240.165)"/><path class="a" d="M446.8-236.481a7.744,7.744,0,0,0,3.469-.6v-3.809a3.535,3.535,0,0,1-1.693.472q-2.089,0-2.089-2.6v-6.891h3.783v-3.694h-3.783v-5.008l-5.179,1.463v3.542h-2.729v3.7H441.3v7.785q0,5.646,5.492,5.646Zm9.224-.265a5.234,5.234,0,0,1-3.827-1.367,4.884,4.884,0,0,1-1.4-3.652q0-4.827,5.76-5.57l4.537-.6q0-2.721-2.97-2.72a10.2,10.2,0,0,0-5.679,1.765v-3.854a12.832,12.832,0,0,1,2.946-.972,15.645,15.645,0,0,1,3.4-.42q7.149,0,7.149,7.077v9.911h-4.88v-2.38H461a5.456,5.456,0,0,1-4.978,2.785Zm1.8-3.627a3.065,3.065,0,0,0,2.367-1,3.585,3.585,0,0,0,.913-2.518V-245l-3.036.389q-2.512.325-2.513,2.252a1.856,1.856,0,0,0,.611,1.433A2.367,2.367,0,0,0,457.815-240.373Zm13.888,3.891a7.491,7.491,0,0,0,2.21-.256v-4.219h-.144a9.15,9.15,0,0,1-1.464.085c-.316,0-.516-.311-.516-.68v-20.492h-5.051v21.059C466.738-238.04,468.317-236.481,471.7-236.481Z" transform="translate(-381.98 268.104)"/></g><g transform="translate(0.08 -300.196)"><path class="b" d="M36.423-277.194l12.343-7.112a.916.916,0,0,1,1.251.337.906.906,0,0,1,.123.457v11.8a.916.916,0,0,1-.916.917.922.922,0,0,1-.326-.06l-12.343-4.692a.919.919,0,0,1-.532-1.182A.923.923,0,0,1,36.423-277.194Z" transform="translate(-27.645 288.084)"/><path class="c" d="M103.955-299.279v13.011a.916.916,0,0,0,.916.916.916.916,0,0,0,.713-.341l8.182-10.126a.916.916,0,0,0-.137-1.289.923.923,0,0,0-.271-.152l-8.182-2.885a.918.918,0,0,0-1.17.559A.934.934,0,0,0,103.955-299.279Z" transform="translate(-79.873 300.196)"/><path class="d" d="M1.225-237.727l18.309-4.718a.917.917,0,0,0,.658-1.117.911.911,0,0,0-.562-.628L2.243-250.784a.918.918,0,0,0-1.182.532A.891.891,0,0,0,1-250l-.92,11.311a.915.915,0,0,0,.838.987A.912.912,0,0,0,1.225-237.727Z" transform="translate(-0.08 262.285)"/><path class="e" d="M37.364-203.24l-4,11.207a.916.916,0,0,1-1.171.556.928.928,0,0,1-.328-.2l-8.313-8.02a.916.916,0,0,1-.023-1.3.9.9,0,0,1,.43-.251l12.312-3.188a.918.918,0,0,1,1.118.658A.905.905,0,0,1,37.364-203.24Z" transform="translate(-17.895 226.659)"/><path class="f" d="M110.527-262.221l8.62-10.674a.917.917,0,0,1,1.289-.137.92.92,0,0,1,.323.532l2.615,12.962a.917.917,0,0,1-.718,1.08.9.9,0,0,1-.363,0l-11.235-2.288a.916.916,0,0,1-.715-1.081.906.906,0,0,1,.185-.393Z" transform="translate(-84.764 279.486)"/><path class="g" d="M114.64-210.88l12.57,2.57a.915.915,0,0,1,.724,1.023l-1.341,9.663a.915.915,0,0,1-1.033.781.915.915,0,0,1-.549-.287l-11.229-12.231a.917.917,0,0,1,.056-1.3A.916.916,0,0,1,114.64-210.88Z" transform="translate(-87.236 231.601)"/><path class="h" d="M72.345-194.989,67.41-181.228a.918.918,0,0,0,.553,1.172.918.918,0,0,0,.489.035l5.171-1.029a.917.917,0,0,0,.738-.917L74.125-194.7a.917.917,0,0,0-.933-.9A.918.918,0,0,0,72.345-194.989Z" transform="translate(-51.759 219.847)"/><path class="i" d="M104.151-194.239l.192,10.33a.918.918,0,0,0,.934.9.8.8,0,0,0,.147-.015l8.03-1.462a.917.917,0,0,0,.737-1.066.907.907,0,0,0-.229-.46l-8.223-8.868a.916.916,0,0,0-1.3-.048A.914.914,0,0,0,104.151-194.239Z" transform="translate(-80.023 219.521)"/></g></g></svg>