<svg xmlns="http://www.w3.org/2000/svg" width="149.087" height="36.621" viewBox="0 0 149.087 36.621"><defs><style>.a{fill:#bcc6e2;}</style></defs><path class="a" d="M25.752,0H11.7V18.958H30.662V4.909A4.9,4.9,0,0,0,25.752,0ZM7.325,0H4.909A4.9,4.9,0,0,0,0,4.909V7.325H7.325ZM0,11.7H7.325V19.03H0ZM23.414,30.662H25.83a4.9,4.9,0,0,0,4.909-4.909V23.414H23.414ZM11.7,23.414H19.03V30.74H11.7Zm-11.7,0V25.83A4.9,4.9,0,0,0,4.909,30.74H7.325V23.414ZM49.393,1.963H46.524V28.771H61.706V26.206H49.393Zm21.523,7.1c-5.59,0-9.515,4.152-9.515,10.117v.686A9.795,9.795,0,0,0,71.143,29.3h.376a11.012,11.012,0,0,0,7.1-2.643l.078-.078L77.413,24.47l-.149.078A8.39,8.39,0,0,1,71.6,26.814c-3.472,0-7.021-2.267-7.248-7.325h14.5V19.34s.078-.907.078-1.36c-.018-5.44-3.186-8.918-8.017-8.918Zm-6.5,8.006a6.345,6.345,0,0,1,6.341-5.59c2.416,0,5.059,1.438,5.285,5.59Zm31.115-5.739v.984A6.846,6.846,0,0,0,89.719,8.99h-.227c-5.136,0-8.686,4.08-8.686,10.046,0,6.043,3.4,10.117,8.459,10.117a7.055,7.055,0,0,0,6.419-3.472v2.947H98.4V1.963H95.613v9.366ZM89.642,26.659c-3.549,0-5.888-3.018-5.888-7.552,0-4.379,2.494-7.475,5.965-7.475,2.947,0,5.888,2.338,5.888,7.475C95.607,24.7,92.511,26.659,89.642,26.659Zm25.3-14.955v.149c-.531-.907-2.189-2.869-6.192-2.869-5.059,0-8.381,3.854-8.381,9.741s3.472,9.891,8.608,9.891a6.424,6.424,0,0,0,5.965-3.018V28.24c0,3.7-2.338,5.816-6.5,5.816a11.27,11.27,0,0,1-5.136-1.283l-.149-.078L102.1,35.035l.149.078a14.141,14.141,0,0,0,6.27,1.509c4.456,0,9.211-2.267,9.211-8.536V9.515h-2.792Zm-5.59,14.424c-3.7,0-6.115-2.869-6.115-7.325,0-4.534,2.112-7.1,5.739-7.1,4,0,5.888,2.338,5.888,7.1.078,4.683-1.885,7.325-5.512,7.325ZM129.138,9.061c-5.59,0-9.437,4.152-9.437,10.046v.68a9.795,9.795,0,0,0,9.741,9.437h.376a11.012,11.012,0,0,0,7.1-2.643l.078-.078-1.36-2.112-.149.078a8.39,8.39,0,0,1-5.661,2.267c-3.472,0-7.021-2.267-7.248-7.325h14.567v-.149s.078-.907.078-1.36c0-5.363-3.174-8.841-8.083-8.841Zm-6.419,8.006a6.345,6.345,0,0,1,6.341-5.59c2.416,0,5.059,1.438,5.285,5.59ZM149,9.437c-.376-.078-.68-.078-1.056-.149-2.643,0-4.832,1.664-5.965,4.456V9.437H139.19l.078,19.107v.149h2.869V20.616a11.587,11.587,0,0,1,.531-3.627c.907-2.947,2.947-4.832,5.363-4.832a3.587,3.587,0,0,1,.907.078h.149V9.443Z"/></svg>