<svg xmlns="http://www.w3.org/2000/svg" width="129.203" height="49.57" viewBox="0 0 129.203 49.57"><defs><style>.a{fill:#4360df;}.a,.b{fill-rule:evenodd;}.b,.c{fill:#fff;}</style></defs><path class="a" d="M24.759-188.266A24.772,24.772,0,0,0,0-163.481,24.772,24.772,0,0,0,24.759-138.7a24.772,24.772,0,0,0,24.759-24.785A24.772,24.772,0,0,0,24.759-188.266Z" transform="translate(0 188.266)"/><path class="b" d="M80.858-115.363a23.718,23.718,0,0,0,4.015.174c4.141-.231,6.65-2.359,6.472-5.54-.181-3.236-3.519-5.23-6.858-5.043-5.442.3-9.444,5.086-9.894,10.553a13.238,13.238,0,0,1,2.251-.318A23.7,23.7,0,0,1,80.858-115.363ZM70.19-108.288c.172,2.966,3.334,4.794,6.5,4.623,5.155-.278,8.947-4.662,9.374-9.673a12.913,12.913,0,0,1-2.132.291,23.192,23.192,0,0,1-3.8-.159,23.213,23.213,0,0,0-3.8-.159C72.4-113.154,70.021-111.2,70.19-108.288Z" transform="translate(-55.267 139.061)"/><path class="c" d="M278.36-81.847h3.579a1.551,1.551,0,0,0,.513,1.307,2.091,2.091,0,0,0,1.317.4,2.133,2.133,0,0,0,1.084-.245.891.891,0,0,0,.431-.829.8.8,0,0,0-.186-.548,1.4,1.4,0,0,0-.548-.385,7.158,7.158,0,0,0-.956-.35q-.583-.175-1.4-.443-.734-.233-1.387-.479a4.778,4.778,0,0,1-1.131-.63,2.71,2.71,0,0,1-.769-.91,2.961,2.961,0,0,1-.268-1.33A3.252,3.252,0,0,1,279-87.868a3.044,3.044,0,0,1,1.014-1.1,4.744,4.744,0,0,1,1.562-.642,8.458,8.458,0,0,1,2.005-.222,7.765,7.765,0,0,1,2.308.3,4.5,4.5,0,0,1,1.585.829,3.2,3.2,0,0,1,.909,1.237,3.864,3.864,0,0,1,.3,1.529h-3.6a1.555,1.555,0,0,0-.373-1.109,1.426,1.426,0,0,0-1.107-.4,1.8,1.8,0,0,0-.979.256.813.813,0,0,0-.408.747.8.8,0,0,0,.186.548,1.857,1.857,0,0,0,.571.362,9.7,9.7,0,0,0,.921.338q.548.164,1.259.4a14.743,14.743,0,0,1,1.434.467,4.888,4.888,0,0,1,1.166.63,2.555,2.555,0,0,1,.8.922,2.875,2.875,0,0,1,.3,1.4,3.319,3.319,0,0,1-.42,1.715,3.385,3.385,0,0,1-1.131,1.144,4.765,4.765,0,0,1-1.632.63,9.4,9.4,0,0,1-1.959.2,6.473,6.473,0,0,1-3.963-1.062A3.676,3.676,0,0,1,278.36-81.847Z" transform="translate(-219.207 110.747)"/><path class="c" d="M332.066-98.3v-2.719h1.807v-3.419h3.637v3.419h2.623V-98.3H337.51v4.119a3.654,3.654,0,0,0,.116,1.027,1.5,1.5,0,0,0,.326.6,1.111,1.111,0,0,0,.525.28,3.852,3.852,0,0,0,.7.058q.233,0,.595-.012a5.907,5.907,0,0,0,.629-.07v2.8q-.408.07-1.026.128t-1.434.058a10.436,10.436,0,0,1-1.352-.093,3.118,3.118,0,0,1-1.317-.49,2.93,2.93,0,0,1-1-1.214,5.331,5.331,0,0,1-.4-2.264V-98.3Z" transform="translate(-261.5 122.25)"/><path class="b" d="M376.634-86.077a6.908,6.908,0,0,0-.408,2.4,6.908,6.908,0,0,0,.408,2.4,5.914,5.914,0,0,0,1.154,1.914,5.6,5.6,0,0,0,1.737,1.272,5.018,5.018,0,0,0,2.145.467,4.442,4.442,0,0,0,2.285-.56,3.586,3.586,0,0,0,1.388-1.354v1.622h3.648V-89.426h-3.648v1.646a3.746,3.746,0,0,0-1.434-1.389,4.38,4.38,0,0,0-2.238-.548,4.97,4.97,0,0,0-2.145.467,5.6,5.6,0,0,0-1.737,1.272A5.774,5.774,0,0,0,376.634-86.077Zm3.416,3.548a3.336,3.336,0,0,1-.2-1.143,3.144,3.144,0,0,1,.2-1.12,3.308,3.308,0,0,1,.559-.934,2.613,2.613,0,0,1,.863-.642,2.621,2.621,0,0,1,1.119-.233,2.649,2.649,0,0,1,1.131.233,2.488,2.488,0,0,1,.851.642,2.976,2.976,0,0,1,.559.934,3,3,0,0,1,.21,1.12,3.117,3.117,0,0,1-.21,1.143,2.812,2.812,0,0,1-.559.934,2.752,2.752,0,0,1-.863.63,2.617,2.617,0,0,1-1.119.234,2.617,2.617,0,0,1-1.119-.234,2.945,2.945,0,0,1-.863-.63A3.1,3.1,0,0,1,380.05-82.53Z" transform="translate(-296.276 110.66)"/><path class="c" d="M445.511-98.3v-2.719h1.806v-3.419h3.638v3.419h2.622V-98.3h-2.622v4.119a3.687,3.687,0,0,0,.116,1.027,1.5,1.5,0,0,0,.327.6,1.109,1.109,0,0,0,.524.28,3.85,3.85,0,0,0,.7.058q.234,0,.594-.012a5.885,5.885,0,0,0,.63-.07v2.8q-.407.07-1.026.128t-1.434.058a10.436,10.436,0,0,1-1.352-.093,3.118,3.118,0,0,1-1.318-.49,2.92,2.92,0,0,1-1-1.214,5.321,5.321,0,0,1-.4-2.264V-98.3Z" transform="translate(-350.838 122.25)"/><path class="c" d="M493.239-81.507v-6.839h3.625v5.905a4.066,4.066,0,0,0,.443,2.019,1.671,1.671,0,0,0,1.586.77,1.891,1.891,0,0,0,1.678-.782,3.7,3.7,0,0,0,.548-2.135v-5.777h3.648v11.518h-3.648v-1.645a3.356,3.356,0,0,1-1.457,1.424,4.984,4.984,0,0,1-2.343.514,4.487,4.487,0,0,1-1.959-.373,3.731,3.731,0,0,1-1.235-.945,3.439,3.439,0,0,1-.723-1.54A11.746,11.746,0,0,1,493.239-81.507Z" transform="translate(-388.424 109.579)"/><path class="c" d="M558.574-81.847h3.579a1.55,1.55,0,0,0,.513,1.307,2.086,2.086,0,0,0,1.316.4,2.138,2.138,0,0,0,1.085-.245.891.891,0,0,0,.431-.829.79.79,0,0,0-.187-.548,1.386,1.386,0,0,0-.547-.385,7.143,7.143,0,0,0-.955-.35q-.583-.175-1.4-.443-.735-.233-1.388-.479a4.772,4.772,0,0,1-1.13-.63,2.71,2.71,0,0,1-.77-.91,2.964,2.964,0,0,1-.268-1.33,3.249,3.249,0,0,1,.361-1.575,3.048,3.048,0,0,1,1.013-1.1,4.754,4.754,0,0,1,1.563-.642,8.45,8.45,0,0,1,2-.222,7.766,7.766,0,0,1,2.308.3,4.5,4.5,0,0,1,1.586.829,3.206,3.206,0,0,1,.909,1.237,3.849,3.849,0,0,1,.3,1.529h-3.6a1.55,1.55,0,0,0-.373-1.109,1.426,1.426,0,0,0-1.107-.4,1.8,1.8,0,0,0-.979.256.812.812,0,0,0-.408.747.794.794,0,0,0,.186.548,1.855,1.855,0,0,0,.572.362,9.662,9.662,0,0,0,.92.338c.367.109.785.241,1.259.4a14.722,14.722,0,0,1,1.434.467,4.857,4.857,0,0,1,1.165.63,2.557,2.557,0,0,1,.805.922,2.879,2.879,0,0,1,.3,1.4,3.319,3.319,0,0,1-.42,1.715,3.388,3.388,0,0,1-1.131,1.144,4.758,4.758,0,0,1-1.631.63,9.4,9.4,0,0,1-1.958.2,6.474,6.474,0,0,1-3.963-1.062A3.675,3.675,0,0,1,558.574-81.847Z" transform="translate(-439.875 110.747)"/></svg>