<svg xmlns="http://www.w3.org/2000/svg" width="157.612" height="48.717" viewBox="0 0 157.612 48.717"><defs><style>.a{fill:#03fcf5;}.b{opacity:0.12;}.c{fill:#7289b7;}</style></defs><g transform="translate(57.141 17.522)"><g transform="translate(0 0.715)"><path class="a" d="M868.518,597.427h6.169v16.318h1.975V597.427h6.169v-1.975H868.518Z" transform="translate(-868.518 -595.451)"/></g><g transform="translate(41.601 0.715)"><path class="a" d="M1331.822,597.427h6.169v16.318h1.975V597.427h6.169v-1.975h-14.313Z" transform="translate(-1331.822 -595.451)"/></g><g transform="translate(64.106 0.805)"><path class="a" d="M1592.612,606.353a5.365,5.365,0,0,0,2.151-4.34,5.467,5.467,0,0,0-.817-3.006,5.157,5.157,0,0,0-2.255-1.925,7.618,7.618,0,0,0-3.165-.63h-6.074v18.294h1.975v-7.251h4.83l4.5,7.251h1.711v-1.029l-4.154-6.653A5.292,5.292,0,0,0,1592.612,606.353Zm.175-4.34a3.7,3.7,0,0,1-.423,1.736,3.222,3.222,0,0,1-1.237,1.276,3.93,3.93,0,0,1-2.03.493h-4.669v-7.092h4.1a5.558,5.558,0,0,1,2.331.45,3.258,3.258,0,0,1,1.429,1.22A3.538,3.538,0,0,1,1592.787,602.013Z" transform="translate(-1582.452 -596.451)"/></g><g transform="translate(85.073 0)"><path class="a" d="M1824.509,588.184h-.569l-.2-.7-.261.7h-.667l-6.848,18.294h2.126l2.049-5.5.232-.627,3.264-8.737c1.446,4.023,4.79,12.749,5.44,14.435l.166.431h2.12Z" transform="translate(-1815.959 -587.485)"/></g><g transform="translate(21.958 17.174)"><rect class="a" width="11.659" height="1.835"/></g><g transform="translate(21.958 0.715)"><rect class="a" width="11.659" height="1.974"/></g><g transform="translate(21.958 8.617)"><rect class="a" width="11.659" height="1.974"/></g></g><g transform="translate(0 0)"><g class="b" transform="translate(0.612 27.402)"><path class="a" d="M238.969,697.511v20.413a.348.348,0,0,0,.429.339l44.791-10.635Z" transform="translate(-238.969 -697.511)"/></g><g transform="translate(0.199 26.838)"><path class="c" d="M282.573,704.448a.15.15,0,0,1-.031,0l-1.354-.3a.143.143,0,1,1,.062-.28l1.354.3a.143.143,0,0,1-.031.284Zm-3.035-.668a.149.149,0,0,1-.031,0l-1.681-.37a.143.143,0,1,1,.062-.28l1.681.37a.143.143,0,0,1-.031.284Zm-3.362-.741a.149.149,0,0,1-.031,0l-1.681-.37a.143.143,0,1,1,.062-.28l1.681.37a.143.143,0,0,1-.031.283Zm-3.362-.74a.154.154,0,0,1-.031,0l-1.681-.37a.143.143,0,1,1,.062-.28l1.681.37a.143.143,0,0,1-.031.284Zm-3.362-.741a.152.152,0,0,1-.031,0l-1.681-.37a.143.143,0,1,1,.062-.28l1.681.37a.143.143,0,0,1-.031.284Zm-3.362-.741a.139.139,0,0,1-.031,0l-1.681-.37a.143.143,0,0,1,.062-.28l1.681.37a.143.143,0,0,1-.031.283Zm-3.362-.74a.155.155,0,0,1-.031,0l-1.681-.37a.143.143,0,0,1,.062-.28l1.681.37a.143.143,0,0,1-.031.284Zm-3.362-.741a.145.145,0,0,1-.031,0l-1.681-.37a.143.143,0,1,1,.062-.28l1.681.37a.143.143,0,0,1-.031.284ZM256,698.6a.149.149,0,0,1-.031,0l-1.681-.37a.143.143,0,1,1,.062-.28l1.681.37a.143.143,0,0,1-.031.284Zm-3.362-.74a.146.146,0,0,1-.031,0l-1.681-.37a.143.143,0,1,1,.062-.28l1.681.37a.143.143,0,0,1-.031.284Zm-3.362-.741a.146.146,0,0,1-.031,0l-1.681-.37a.143.143,0,1,1,.062-.28l1.681.37a.143.143,0,0,1-.031.284Zm-3.362-.741a.149.149,0,0,1-.031,0l-1.681-.37a.143.143,0,1,1,.062-.28l1.681.37a.143.143,0,0,1-.031.283Zm-3.362-.74a.142.142,0,0,1-.031,0l-1.681-.37a.143.143,0,1,1,.062-.28l1.681.37a.143.143,0,0,1-.031.283Zm-3.362-.741a.146.146,0,0,1-.031,0l-1.681-.37a.143.143,0,1,1,.062-.28l1.681.37a.143.143,0,0,1-.031.284Z" transform="translate(-237.101 -693.966)"/><path class="c" d="M279.842,701.987a.412.412,0,0,1-.089-.01l-1.354-.3a.413.413,0,0,1,.174-.807l1.358.3a.413.413,0,0,1-.089.816Zm-3.035-.669a.422.422,0,0,1-.089-.01l-1.681-.37a.413.413,0,0,1,.175-.807l1.684.371a.413.413,0,0,1-.089.816Zm-3.362-.741a.41.41,0,0,1-.091-.01l-1.679-.37a.413.413,0,0,1-.314-.492.414.414,0,0,1,.491-.315l1.682.371a.413.413,0,0,1-.089.816Zm.026-.536h0Zm-3.388-.2a.426.426,0,0,1-.086-.009l-1.683-.371a.413.413,0,1,1,.179-.806l1.68.37a.413.413,0,0,1-.089.816Zm-.027-.29h0Zm-1.681-.37h0Zm-1.654-.081a.41.41,0,0,1-.089-.01l-1.681-.37a.413.413,0,1,1,.178-.806l1.68.37a.413.413,0,0,1-.089.816Zm-3.362-.741a.422.422,0,0,1-.086-.009l-1.683-.371a.413.413,0,0,1-.314-.492.413.413,0,0,1,.485-.315l1.688.372a.413.413,0,0,1-.089.816Zm-1.655-.906h0Zm-1.707.166a.424.424,0,0,1-.086-.009l-1.683-.371a.413.413,0,0,1-.314-.492.415.415,0,0,1,.489-.315l1.684.371a.413.413,0,0,1-.089.816Zm-3.362-.741a.412.412,0,0,1-.089-.01l-1.681-.37a.413.413,0,0,1-.314-.492.415.415,0,0,1,.49-.315l1.683.371a.413.413,0,0,1-.089.816Zm-3.362-.741a.417.417,0,0,1-.087-.009l-1.683-.371a.413.413,0,0,1,.174-.807l1.684.371a.413.413,0,0,1-.089.816Zm-1.655-.906h0Zm-1.707.166a.42.42,0,0,1-.089-.009l-1.681-.371a.413.413,0,0,1-.314-.492.414.414,0,0,1,.491-.314l1.682.371a.413.413,0,0,1-.089.816Zm-1.655-.906h0Zm-1.707.166a.417.417,0,0,1-.086-.009l-1.683-.371a.413.413,0,1,1,.179-.806l1.68.37a.413.413,0,0,1-.089.816Zm-.027-.29h0Zm-1.681-.37h0Zm-1.654-.081a.415.415,0,0,1-.087-.009l-1.683-.371a.413.413,0,0,1-.314-.492.414.414,0,0,1,.492-.314l1.681.371a.413.413,0,0,1-.089.816Zm-3.362-.74a.411.411,0,0,1-.089-.01l-1.681-.37a.413.413,0,0,1,.173-.807l1.686.371a.413.413,0,0,1-.089.816Zm-1.655-.906h0Zm-1.707.166a.411.411,0,0,1-.087-.009l-1.682-.371a.413.413,0,0,1-.314-.492.416.416,0,0,1,.487-.315l1.686.371a.413.413,0,0,1-.089.816Z" transform="translate(-234.369 -691.236)"/></g><g transform="translate(0)"><g transform="translate(0.146 0.146)"><g transform="translate(0.18 0.18)"><path class="a" d="M236.061,444.043a.277.277,0,0,1-.043,0,.286.286,0,0,1-.245-.284V422.9a.287.287,0,0,1,.035-.137l14.459-26.637a.287.287,0,0,1,.527.22L236.335,443.84A.287.287,0,0,1,236.061,444.043Zm.287-21.068v18.854l13.072-42.936Z" transform="translate(-235.774 -395.977)"/></g><path class="a" d="M234.241,442.4a.467.467,0,0,1-.467-.466V421.076a.467.467,0,0,1,.056-.222l14.459-26.638a.466.466,0,0,1,.856.358l-14.459,47.492A.464.464,0,0,1,234.241,442.4ZM248.7,394.332a.107.107,0,0,0-.094.056l-14.459,26.638a.108.108,0,0,0-.013.051V441.93a.106.106,0,0,0,.091.106h.016a.108.108,0,0,0,.1-.076L248.8,394.47a.107.107,0,0,0-.061-.13A.1.1,0,0,0,248.7,394.332Zm-14.352,46.878V421.1l13.94-25.682Zm.359-20.015v17.6l12.2-40.085Z" transform="translate(-233.774 -393.971)"/></g><g transform="translate(0.18 0.18)"><path class="a" d="M234.582,442.705a.419.419,0,0,1-.065-.005.429.429,0,0,1-.368-.428V421.418a.435.435,0,0,1,.052-.206l14.459-26.638a.433.433,0,0,1,.794.332L235,442.4A.431.431,0,0,1,234.582,442.705Zm14.459-48.065a.141.141,0,0,0-.124.074l-14.459,26.638a.141.141,0,0,0-.017.067v20.854a.14.14,0,0,0,.12.139l.021,0a.142.142,0,0,0,.135-.1l14.459-47.492a.14.14,0,0,0-.08-.171A.138.138,0,0,0,249.041,394.64Zm-14.318,46.685V421.454l.018-.033L248.5,396.073Zm.292-19.8v17.837l12.367-40.62Z" transform="translate(-234.149 -394.348)"/></g><path class="a" d="M232.762,441.062a.6.6,0,0,1-.093-.007.607.607,0,0,1-.519-.605V419.6a.614.614,0,0,1,.074-.292l14.459-26.638a.612.612,0,0,1,1.124.47l-14.459,47.492A.609.609,0,0,1,232.762,441.062Zm.612-21.311v16.585l11.5-37.769Z" transform="translate(-232.149 -392.345)"/></g><g transform="translate(0 0.001)"><g transform="translate(0.146 0.146)"><g transform="translate(0.179 0.18)"><path class="a" d="M236.06,444.042a.287.287,0,0,1-.275-.37l14.459-47.492a.287.287,0,0,1,.495-.1L281.5,432.833a.287.287,0,0,1-.154.463l-45.22,10.737A.3.3,0,0,1,236.06,444.042Zm14.579-47.188L236.48,443.36l44.282-10.515Z" transform="translate(-235.773 -395.976)"/></g><path class="a" d="M234.241,442.4a.466.466,0,0,1-.447-.6l14.459-47.492a.467.467,0,0,1,.8-.164L279.819,430.9a.469.469,0,0,1,.085.447.463.463,0,0,1-.335.307l-45.22,10.737A.479.479,0,0,1,234.241,442.4ZM248.7,394.335l-.021,0a.108.108,0,0,0-.082.074L234.138,441.9a.109.109,0,0,0,.025.105.1.1,0,0,0,.1.03L279.486,431.3a.106.106,0,0,0,.077-.07.108.108,0,0,0-.019-.1l-30.761-36.755A.107.107,0,0,0,248.7,394.335Zm-14.3,47.452,14.347-47.123,30.523,36.469ZM248.9,395.4l-13.971,45.89,43.695-10.375Z" transform="translate(-233.775 -393.976)"/></g><g transform="translate(0.179 0.18)"><path class="a" d="M234.583,442.709a.433.433,0,0,1-.414-.559l14.459-47.492a.433.433,0,0,1,.746-.152l30.761,36.755a.435.435,0,0,1,.079.414.43.43,0,0,1-.31.285L234.683,442.7A.452.452,0,0,1,234.583,442.709Zm14.459-48.066-.028,0a.142.142,0,0,0-.107.1l-14.459,47.492a.141.141,0,0,0,.135.182.156.156,0,0,0,.034,0l45.219-10.737a.14.14,0,0,0,.1-.093.142.142,0,0,0-.026-.135l-30.761-36.754A.141.141,0,0,0,249.042,394.643Zm-14.252,47.439L249.1,395.075l30.448,36.379Zm14.434-46.407-14.006,46.006,43.805-10.4Z" transform="translate(-234.15 -394.351)"/></g><path class="a" d="M232.763,441.068a.612.612,0,0,1-.586-.79l14.459-47.492a.612.612,0,0,1,1.055-.215l30.761,36.755a.615.615,0,0,1,.112.586.608.608,0,0,1-.439.4L232.9,441.052A.632.632,0,0,1,232.763,441.068Zm14.715-46.844L233.66,439.614l43.218-10.262Z" transform="translate(-232.151 -392.352)"/></g></g></svg>