<svg xmlns="http://www.w3.org/2000/svg" width="196.509" height="50.343" viewBox="0 0 196.509 50.343"><defs><style>.a{fill:#3375bb;}.b,.c{fill:#fff;}.b{stroke:#dfe5ec;}.d{fill:none;stroke:#3375bb;stroke-linecap:round;stroke-linejoin:round;stroke-width:6.063px;}</style></defs><g transform="translate(0.5 0.5)"><path class="a" d="M178.011,111.459h-5.357V108.3h14.587v3.157h-5.357v13.583h-3.873Zm12.9,2.415a4.159,4.159,0,0,1,1.793-1.411,6.8,6.8,0,0,1,2.63-.478v3.444q-.621-.048-.837-.048a3.393,3.393,0,0,0-2.511.909,3.582,3.582,0,0,0-.909,2.678v6.074h-3.73V112.176h3.563Zm18.262-1.7v12.866h-3.54v-1.531a5.08,5.08,0,0,1-1.77,1.291,5.7,5.7,0,0,1-2.224.431,5.479,5.479,0,0,1-4.017-1.459,5.815,5.815,0,0,1-1.483-4.328v-7.27h3.73v6.72q0,3.109,2.606,3.109a2.822,2.822,0,0,0,2.153-.861,3.729,3.729,0,0,0,.813-2.606v-6.361Zm6.35,13.057a12.874,12.874,0,0,1-3.133-.383,8.4,8.4,0,0,1-2.439-1l1.244-2.678a8.086,8.086,0,0,0,2.08.908,9.006,9.006,0,0,0,2.391.335q2.367,0,2.368-1.172a.829.829,0,0,0-.646-.789,9.584,9.584,0,0,0-1.985-.407,19.2,19.2,0,0,1-2.606-.55,4.131,4.131,0,0,1-1.793-1.1,3.16,3.16,0,0,1-.741-2.248,3.512,3.512,0,0,1,.693-2.152,4.583,4.583,0,0,1,2.056-1.483,8.887,8.887,0,0,1,3.2-.526,11.909,11.909,0,0,1,2.7.311,7.384,7.384,0,0,1,2.248.813l-1.244,2.655a7.425,7.425,0,0,0-3.707-.956,3.775,3.775,0,0,0-1.793.334.985.985,0,0,0-.6.861.855.855,0,0,0,.646.837,11.474,11.474,0,0,0,2.056.454,20.2,20.2,0,0,1,2.583.574,3.786,3.786,0,0,1,1.746,1.076,3.086,3.086,0,0,1,.741,2.2,3.4,3.4,0,0,1-.717,2.128,4.655,4.655,0,0,1-2.1,1.459A9.416,9.416,0,0,1,215.522,125.233Zm15.239-.813a3.992,3.992,0,0,1-1.363.622,7.1,7.1,0,0,1-1.674.191,5.053,5.053,0,0,1-3.563-1.172,4.508,4.508,0,0,1-1.244-3.443v-5.285h-1.985v-2.87h1.985v-3.132h3.73v3.132h3.2v2.87h-3.2v5.237a1.835,1.835,0,0,0,.407,1.268,1.616,1.616,0,0,0,1.2.431,2.4,2.4,0,0,0,1.506-.479Zm31.56-16.118-5.476,16.74h-4.161L249,113.707l-3.8,11.335h-4.137l-5.5-16.74h4.017l3.778,11.766L247.3,108.3h3.587l3.826,11.861,3.9-11.861Zm4.7,3.683a6.657,6.657,0,0,1,4.592,1.435,5.406,5.406,0,0,1,1.6,4.28v7.342H269.72v-1.6q-1.051,1.794-3.922,1.794a6.167,6.167,0,0,1-2.583-.5,3.842,3.842,0,0,1-1.65-1.387,3.61,3.61,0,0,1-.574-2.009,3.363,3.363,0,0,1,1.339-2.822,6.941,6.941,0,0,1,4.185-1.028h2.965a2.339,2.339,0,0,0-.741-1.865,3.224,3.224,0,0,0-2.224-.67,6.386,6.386,0,0,0-2.033.335,5.186,5.186,0,0,0-1.674.861l-1.339-2.606a8.092,8.092,0,0,1,2.511-1.148A11.42,11.42,0,0,1,267.017,111.985Zm-.287,10.737a3.32,3.32,0,0,0,1.7-.43,2.477,2.477,0,0,0,1.052-1.315v-1.316h-2.559q-2.3,0-2.3,1.507a1.384,1.384,0,0,0,.55,1.148A2.645,2.645,0,0,0,266.731,122.722Zm8.422-15.424h3.73v17.744h-3.73Zm5.758,0h3.731v17.744H280.91Zm18.361,11.358q0,.072-.072,1h-9.733a3.033,3.033,0,0,0,1.243,1.889,4.121,4.121,0,0,0,2.44.693,5.025,5.025,0,0,0,1.77-.287,4.44,4.44,0,0,0,1.458-.956l1.985,2.152a6.671,6.671,0,0,1-5.309,2.081,8.5,8.5,0,0,1-3.85-.837,6.3,6.3,0,0,1-2.583-2.368,6.49,6.49,0,0,1-.909-3.42,6.58,6.58,0,0,1,.885-3.4,6.28,6.28,0,0,1,2.463-2.367,7.6,7.6,0,0,1,6.935-.048,5.838,5.838,0,0,1,2.391,2.343A6.814,6.814,0,0,1,299.271,118.656Zm-6.672-3.85a3.21,3.21,0,0,0-2.128.718,3.052,3.052,0,0,0-1.052,1.961h6.337a3.034,3.034,0,0,0-1.052-1.937A3.113,3.113,0,0,0,292.6,114.807Zm16.018,9.613a3.993,3.993,0,0,1-1.363.622,7.106,7.106,0,0,1-1.674.191,5.054,5.054,0,0,1-3.563-1.172,4.507,4.507,0,0,1-1.243-3.443v-5.285h-1.985v-2.87h1.985v-3.132h3.73v3.132h3.2v2.87h-3.2v5.237a1.835,1.835,0,0,0,.406,1.268,1.616,1.616,0,0,0,1.2.431,2.4,2.4,0,0,0,1.507-.479Z" transform="translate(-112.608 -91.894)"/><path class="b" d="M24.672,0h0A24.672,24.672,0,0,1,49.343,24.672v0A24.672,24.672,0,0,1,24.672,49.343h0A24.672,24.672,0,0,1,0,24.672v0A24.672,24.672,0,0,1,24.672,0Z" transform="translate(0 0)"/><path class="c" d="M60.146,104.49a22.927,22.927,0,1,1,22.927,22.928A22.928,22.928,0,0,1,60.146,104.49Z" transform="translate(-58.261 -79.462)"/><path class="d" d="M93.84,99.407a16.934,16.934,0,0,0,11.448,3.626c-.331,21.976-2.858,17.618-11.448,23.78-8.59-6.162-11.1-1.8-11.432-23.78A16.918,16.918,0,0,0,93.84,99.407Z" transform="translate(-69.015 -88.082)"/></g></svg>