<svg width="146" height="39" viewBox="0 0 146 39" fill="none" xmlns="http://www.w3.org/2000/svg">
<mask id="mask0_398_138281" style="mask-type:luminance" maskUnits="userSpaceOnUse" x="0" y="0" width="146" height="39">
<path d="M145.081 0H0V38.2635H145.081V0Z" fill="white"/>
</mask>
<g mask="url(#mask0_398_138281)">
<path d="M17.3431 0.238281C21.8747 2.45294 26.7811 3.44107 31.892 3.64551C32.6756 3.84995 33.2552 4.42934 33.2552 5.24707V12.5049C33.255 32.8077 17.4026 38.4467 17.3431 38.4678C17.3431 38.4678 1.43128 32.8458 1.43103 12.5049V5.24707C1.43103 4.4634 2.01064 3.64551 2.79431 3.64551C7.90506 3.4751 12.8116 2.24851 17.3431 0.238281ZM14.1742 11.8574H10.4261V13.8672H12.7777V23.748H10.8011V25.9629H13.9359V29.2002H15.7074V25.9629H17.0707V28.9951H19.0463V25.9629C22.1809 25.7585 24.3622 24.9404 24.5326 22.1465C24.9412 20.3408 23.9526 18.7399 22.181 18.3311H21.9769C23.2375 17.7178 24.0209 16.5253 23.8168 15.2988C23.6123 13.0841 21.8406 12.266 19.4896 12.0615V8.82422H17.5131V11.8574H15.9457V8.82422H14.1742V11.8574ZM15.9457 19.9326C17.3426 19.7282 21.0569 19.353 21.057 21.9424C21.057 24.3615 17.1382 23.9531 15.9457 23.9531V19.9326ZM15.9457 14.1055C17.1382 14.1055 20.2728 13.9015 20.2728 16.1162C20.2727 18.1264 17.1382 17.9219 15.9457 17.9219V14.1055Z" fill="white"/>
<path d="M64.9082 25.5884C64.9082 26.9854 64.7038 28.4165 63.9201 29.609C63.3409 30.6312 62.5572 31.6193 61.3647 32.2326C60.1721 32.8459 59.0136 33.4251 57.8211 33.6296C56.4582 33.834 55.0612 34.0384 53.6983 34.0384H42.1136V4.63379H53.6983C54.8909 4.63379 56.0493 4.83822 57.2419 5.04266C58.4344 5.24709 59.3884 5.65597 60.3765 6.2352C61.3647 6.84851 62.1483 7.63218 62.7276 8.44992C63.3068 9.64246 63.7157 10.8691 63.5112 12.266C63.5112 13.663 63.1024 15.0941 62.1483 16.2866C61.1602 17.3088 60.0018 18.0925 58.6048 18.5013C59.3885 18.7058 60.1721 18.9102 60.9558 19.3191C61.7395 19.7279 62.3187 20.1368 62.932 20.716C63.5112 21.3294 63.9201 21.9086 64.1245 22.7263C64.7038 23.7826 64.9082 24.5662 64.9082 25.5884ZM57.0374 13.0838C57.0374 12.0616 56.6286 11.2779 55.8449 10.8691C54.8568 10.2558 53.6983 10.0513 52.5058 10.2558H49.1667V16.2866H52.9147C53.9028 16.2866 55.0612 16.0822 55.879 15.4689C56.4582 14.9237 57.0374 14.106 57.0374 13.0838ZM57.8211 24.9751C58.0255 23.9529 57.4122 22.9648 56.4582 22.3515C55.2657 21.7382 54.1072 21.5338 52.9147 21.5338H48.9963V28.3824H52.9147C53.4939 28.3824 54.1072 28.3824 54.6864 28.1779C55.2657 28.1779 55.879 27.9735 56.2538 27.5646C57.2419 27.1898 58.0255 26.2017 57.8211 24.9751Z" fill="white"/>
<path d="M74.1419 6.64365C74.1419 7.25696 73.9375 7.66583 73.733 8.04063C73.5286 8.4495 73.3242 8.85838 72.9494 9.23317C72.5405 9.64204 72.1657 9.84648 71.7568 10.0509C71.3479 10.2553 70.7687 10.2554 70.1895 10.2554C69.2014 10.2554 68.2133 9.84648 67.4296 9.23317C66.6459 8.61987 66.2371 7.63176 66.2371 6.60959C66.2371 6.20071 66.4415 5.58741 66.6459 5.21261C66.8504 4.80374 67.0548 4.39487 67.4296 4.02007C67.8385 3.6112 68.2133 3.40676 68.6221 3.20233C69.031 2.99789 69.6102 2.79346 70.1895 2.79346C70.7687 2.79346 71.1776 2.79345 71.7568 2.99789C72.1657 3.20232 72.5405 3.40676 72.9494 3.81563C73.3582 4.22451 73.5286 4.63338 73.733 5.00817C74.1419 5.65555 74.1419 6.23478 74.1419 6.64365ZM66.8504 34.2424V13.2878H73.5286V34.2424H66.8504Z" fill="white"/>
<path d="M85.9309 18.5352V26.5763C85.9309 27.3941 86.1354 28.1778 86.5102 28.7911C87.0894 29.4044 87.7027 29.6088 88.4864 29.6088C88.8953 29.6088 89.2701 29.6088 89.4745 29.6088C89.8834 29.6088 90.0537 29.4044 90.4626 29.4044V34.4471C89.8834 34.6516 89.2701 34.856 88.6908 34.856C87.9072 35.0604 87.3279 35.0604 86.5443 35.0604C85.3517 35.0604 84.1932 34.856 83.0007 34.4471C82.217 34.0382 81.4334 33.6294 80.8541 32.8457C80.2749 32.2324 79.866 31.4487 79.6616 30.4265C79.4572 29.4044 79.4572 28.2118 79.4572 27.1897V18.3308H76.118V13.288H79.2527V7.83643H85.9309V13.288H90.633V18.3308H85.9309V18.5352Z" fill="white"/>
<path d="M114.825 34.2429C112.848 34.6518 110.702 35.0607 108.521 34.8562C106.375 34.8562 104.194 34.4474 102.218 33.6637C100.241 33.0504 98.6741 31.8578 97.1068 30.4268C95.7439 29.0298 94.5513 27.3943 93.7677 25.384C92.2003 21.159 92.2003 16.7296 93.7677 12.5046C94.5513 10.6988 95.7439 8.89292 97.1068 7.46187C98.4697 6.06489 100.241 5.04271 102.218 4.4294C104.194 3.61166 106.34 3.40723 108.317 3.40723C110.463 3.40723 112.644 3.8161 114.62 4.4294C116.392 5.04271 117.959 6.03082 119.322 7.25743L115.199 12.9135C114.416 12.0957 113.428 11.3121 112.439 10.9032C111.247 10.2899 110.088 10.0855 108.691 10.0855C107.499 10.0855 106.34 10.2899 105.352 10.6988C103.206 11.7209 101.604 13.3224 100.821 15.5371C100.412 16.7296 100.241 17.9562 100.241 19.1488C100.241 20.3413 100.446 21.7724 100.821 22.9649C101.23 23.9871 101.809 24.9752 102.592 25.9974C103.376 26.8151 104.364 27.5988 105.352 28.0076C106.545 28.4165 107.908 28.8254 109.1 28.6209C109.884 28.6209 110.668 28.6209 111.451 28.4165C112.031 28.2121 112.814 28.0076 113.428 27.8032V22.3516H107.942V16.5252H119.935V32.2326C118.334 33.2207 116.562 33.834 114.825 34.2429Z" fill="white"/>
<path d="M145.081 23.7822C145.081 25.3837 144.877 27.0191 144.093 28.4161C143.514 29.8131 142.73 31.0397 141.742 32.0278C140.754 33.05 139.391 33.8337 138.198 34.2425C135.439 35.2647 132.304 35.2647 129.544 34.2425C128.181 33.6292 126.989 33.05 126 32.0278C125.012 31.0056 124.024 29.8131 123.649 28.4161C122.457 25.3837 122.457 22.1808 123.649 19.1484C124.229 17.7514 125.012 16.7292 126 15.7411C126.989 14.7189 128.351 14.1397 129.544 13.5264C132.304 12.5042 135.439 12.5042 138.198 13.5264C139.561 13.9353 140.754 14.7189 141.742 15.7411C142.73 16.7633 143.718 17.7514 144.093 19.1484C144.877 20.5454 145.081 22.1468 145.081 23.7822ZM138.573 23.7822C138.573 23.1689 138.369 22.3853 138.164 21.772C137.96 21.1587 137.585 20.5794 137.176 20.1706C136.767 19.7617 136.188 19.3528 135.609 18.978C134.246 18.3647 132.849 18.3647 131.486 18.978C130.907 19.1824 130.294 19.5913 129.919 20.1706C129.51 20.5794 129.135 21.1927 128.931 21.772C128.726 22.3853 128.522 23.1689 128.522 23.7822C128.522 24.3955 128.726 25.1792 128.931 25.7925C129.135 26.4058 129.51 26.9851 129.919 27.5984C130.328 28.2117 130.907 28.6205 131.486 28.7909C132.849 29.4042 134.246 29.4042 135.609 28.7909C136.188 28.5865 136.801 27.9732 137.176 27.5984C137.585 26.9851 137.96 26.4058 138.164 25.7925C138.573 24.9748 138.573 24.3615 138.573 23.7822Z" fill="white"/>
</g>
</svg>
