<svg width="158" height="46" viewBox="0 0 158 46" fill="none" xmlns="http://www.w3.org/2000/svg">
<path d="M78.0487 21.3201C76.423 20.6672 74.4375 20.123 72.0922 19.6864H72.0424C69.7638 19.2847 68.0544 18.916 66.9152 18.5801C65.7759 18.2461 64.8798 17.7936 64.226 17.2235C63.5721 16.6544 63.2462 15.8669 63.2462 14.8612C63.2462 13.3871 63.7994 12.2647 64.9048 11.4943C66.0111 10.7238 67.4684 10.338 69.2774 10.338C71.255 10.338 72.8537 10.8404 74.0777 11.8461C75.1761 12.7491 75.8489 13.8964 76.0961 15.2858C76.145 15.5629 76.3792 15.7673 76.6603 15.7703L82.2221 15.8121C82.5629 15.8151 82.8361 15.5221 82.8022 15.1822C82.6158 13.3233 82.0028 11.6328 80.9642 10.1118C79.808 8.42031 78.2162 7.10462 76.1888 6.16569C74.1614 5.22776 71.858 4.7583 69.2774 4.7583C66.8314 4.7583 64.6287 5.21082 62.6681 6.11586C60.7085 7.0209 59.1835 8.27678 58.094 9.88552C57.0046 11.4943 56.4604 13.3033 56.4604 15.3137C56.4604 17.5255 56.9458 19.3017 57.9176 20.6413C58.8894 21.9819 60.1623 22.9956 61.7371 23.6824C63.312 24.3691 65.2048 24.9133 67.4165 25.316L67.6677 25.3658C70.012 25.8014 71.7643 26.1872 72.9205 26.5221C74.0767 26.858 74.9887 27.3264 75.6595 27.9294C76.3293 28.5325 76.6643 29.3538 76.6643 30.3924C76.6643 31.8676 76.0612 33.0228 74.8552 33.86C73.6491 34.6983 72.0902 35.1169 70.1805 35.1169C67.9009 35.1169 66.059 34.5388 64.6516 33.3826C63.3708 32.331 62.6172 30.9805 62.391 29.3319C62.3521 29.0468 62.1149 28.8305 61.8278 28.8265L56.273 28.7428C55.9351 28.7378 55.662 29.0229 55.6879 29.3598C55.8454 31.3871 56.4793 33.2141 57.5897 34.8408C58.8127 36.634 60.4962 38.0413 62.6412 39.063C64.7851 40.0857 67.2481 40.596 70.03 40.596C72.6095 40.596 74.922 40.1275 76.9663 39.1886C79.0096 38.2507 80.6103 36.9519 81.7666 35.2933C82.9228 33.6348 83.5009 31.7669 83.5009 29.6887C83.5009 27.4769 82.9975 25.6928 81.9928 24.3352C80.9881 22.9777 79.6724 21.9729 78.0477 21.3191L78.0487 21.3201Z" fill="white"/>
<path d="M112.204 34.8667H111.336C110.833 34.8667 110.439 34.7331 110.155 34.464C109.869 34.1969 109.727 33.7603 109.727 33.1573V23.5567C109.727 20.5077 108.755 18.1873 106.812 16.5955C104.869 15.0047 102.58 14.1934 98.9951 14.1934C95.6101 14.1934 92.9658 14.929 90.8886 16.3692C88.9948 17.6829 87.8535 19.482 87.4628 21.7696C87.402 22.1254 87.6711 22.4513 88.031 22.4513H93.1392C93.3954 22.4513 93.6247 22.2829 93.6924 22.0357C93.9257 21.1895 94.44 20.4987 95.2354 19.9635C96.1564 19.3435 97.2508 19.0335 98.6921 19.0335C101.41 19.0335 103.343 20.709 103.343 23.2049V23.9853C103.343 24.3043 103.085 24.5624 102.766 24.5624H98.1389C94.3862 24.5624 91.5375 25.3 89.5948 26.7742C87.6512 28.2493 86.6794 30.3435 86.6794 33.0566C86.6794 35.4029 87.5675 37.2459 89.3437 38.5855C90.6763 39.5902 92.2691 40.1703 93.9087 40.4245C95.1616 40.6189 96.4484 40.6896 97.7043 40.4883C99.02 40.278 100.088 39.7357 101.158 38.9623C102.119 38.2685 102.92 37.3795 103.652 36.295C104.009 35.682 104.945 35.9282 104.945 36.6369V37.4891C104.944 39.038 106.198 40.2939 107.747 40.2939H112.204C112.523 40.2939 112.781 40.0358 112.781 39.7168V35.4428C112.781 35.1238 112.523 34.8657 112.204 34.8657V34.8667ZM103.344 29.6896C103.344 30.9296 103.084 32.01 102.564 32.931C101.476 34.8627 99.5283 35.8714 97.3365 35.8714C96.0627 35.8714 95.041 35.5704 94.2705 34.9674C93.4991 34.3643 93.1143 33.56 93.1143 32.5543C93.1143 31.416 93.5419 30.5359 94.3961 29.9159C95.2503 29.2969 96.4644 28.9859 98.0402 28.9859H102.767C103.086 28.9859 103.344 29.2441 103.344 29.563V29.6896Z" fill="white"/>
<path d="M130.826 5.12646H124.179C120.672 5.12646 117.829 7.96916 117.829 11.4757V14.2655C117.829 14.5845 117.571 14.8427 117.252 14.8427H113.457C113.138 14.8427 112.88 15.1008 112.88 15.4198V19.7436C112.88 20.0626 113.138 20.3207 113.457 20.3207H117.252C117.571 20.3207 117.829 20.5789 117.829 20.8978V39.7182C117.829 40.0372 118.088 40.2953 118.407 40.2953H123.586C123.905 40.2953 124.163 40.0372 124.163 39.7182V20.8978C124.163 20.5789 124.421 20.3207 124.74 20.3207H130.775C131.094 20.3207 131.352 20.0626 131.352 19.7436V15.4198C131.352 15.1008 131.094 14.8427 130.775 14.8427H124.74C124.421 14.8427 124.163 14.5845 124.163 14.2655V11.7588C124.163 11.1208 124.68 10.6045 125.317 10.6045H130.825C131.144 10.6045 131.402 10.3464 131.402 10.0274V5.70358C131.402 5.38462 131.144 5.12646 130.825 5.12646H130.826Z" fill="white"/>
<path d="M156.199 20.0397C155.077 18.1638 153.543 16.7225 151.6 15.7168C149.656 14.7121 147.411 14.1948 144.865 14.1948C142.319 14.1948 140.122 14.754 138.18 15.8424C136.236 16.9319 134.728 18.4728 133.657 20.4663C132.584 22.4608 132.048 24.7971 132.048 27.4783C132.048 30.1596 132.601 32.3962 133.706 34.3897C134.813 36.3832 136.396 37.9162 138.456 38.9887C140.516 40.0611 142.937 40.5974 145.719 40.5974C147.863 40.5974 149.782 40.2037 151.474 39.4163C153.166 38.6298 154.531 37.5484 155.57 36.1749C156.459 34.9987 157.066 33.7109 157.391 32.3125C157.476 31.9497 157.202 31.6008 156.829 31.6008H151.626C151.377 31.6008 151.158 31.7623 151.079 31.9985C150.712 33.082 150.065 33.9382 149.137 34.5661C148.097 35.2698 146.808 35.6217 145.267 35.6217C143.993 35.6217 142.879 35.3536 141.925 34.8173C140.97 34.2821 140.216 33.5275 139.663 32.5557C139.445 32.172 139.266 31.7663 139.124 31.3487C138.971 30.9001 138.862 30.4377 138.786 29.9692C138.76 29.8057 138.736 29.6403 138.716 29.4748C138.677 29.1339 138.947 28.8359 139.29 28.8359H157.232C157.524 28.8359 157.773 28.6206 157.806 28.3306C157.831 28.1182 157.847 27.902 157.856 27.6797C157.873 27.278 157.881 26.9092 157.881 26.5743C157.881 24.0954 157.32 21.9175 156.198 20.0407L156.199 20.0397ZM150.808 24.4622H139.57C139.201 24.4622 138.923 24.1203 139.005 23.7605C139.185 22.9721 139.496 22.2604 139.938 21.6225C140.507 20.8022 141.245 20.1733 142.15 19.7377C143.055 19.3021 144.043 19.0838 145.115 19.0838C146.857 19.0838 148.299 19.5533 149.438 20.4912C150.416 21.2966 151.06 22.385 151.372 23.7575C151.453 24.1183 151.177 24.4622 150.808 24.4622Z" fill="white"/>
<path d="M42.766 22.7017H37.8401C36.3689 22.7017 35.1768 23.8938 35.1768 25.3649V32.5145C35.1768 33.9857 33.9847 35.1778 32.5135 35.1778H12.9167C11.4455 35.1778 10.2534 36.3699 10.2534 37.8411V42.767C10.2534 44.2382 11.4455 45.4303 12.9167 45.4303H33.6478C35.119 45.4303 36.2942 44.2382 36.2942 42.767V38.8149C36.2942 37.3437 37.4863 36.3001 38.9575 36.3001H42.765C44.2362 36.3001 45.4283 35.108 45.4283 33.6369V25.334C45.4283 23.8629 44.2362 22.7017 42.765 22.7017H42.766Z" fill="white"/>
<path d="M10.2524 12.9157C10.2524 11.4445 11.4445 10.2524 12.9157 10.2524H32.5006C33.9718 10.2524 35.1639 9.06034 35.1639 7.58916V2.66328C35.1639 1.1921 33.9718 0 32.5006 0H11.7804C10.3093 0 9.11715 1.1921 9.11715 2.66328V6.45886C9.11715 7.93004 7.92506 9.12214 6.45387 9.12214H2.66328C1.1921 9.12214 0 10.3142 0 11.7854V20.0972C0 21.5684 1.19708 22.7007 2.66827 22.7007H7.59414C9.06532 22.7007 10.2574 21.5086 10.2574 20.0374L10.2524 12.9167V12.9157Z" fill="white"/>
<path d="M20.3962 17.5239H25.1277C26.6697 17.5239 27.9206 18.7758 27.9206 20.3168V25.0483C27.9206 26.5902 26.6687 27.8412 25.1277 27.8412H20.3962C18.8542 27.8412 17.6033 26.5892 17.6033 25.0483V20.3168C17.6033 18.7748 18.8552 17.5239 20.3962 17.5239Z" fill="white"/>
</svg>
