<svg width="227" height="35" viewBox="0 0 227 35" fill="none" xmlns="http://www.w3.org/2000/svg">
<path fill-rule="evenodd" clip-rule="evenodd" d="M122.703 6.5738V14.2391H122.771C124.022 12.5746 125.81 11.7419 128.132 11.7419C129.169 11.7419 130.15 11.9132 131.073 12.2551C131.996 12.597 132.817 13.1125 133.534 13.8024C134.25 14.4915 134.811 15.3527 135.215 16.3868C135.621 17.4201 135.822 18.6139 135.822 19.9675C135.822 21.4932 135.546 22.9108 134.99 24.2204C134.435 25.5307 133.571 26.5795 132.398 27.3689C131.225 28.1576 129.77 28.5535 128.031 28.5535C125.521 28.5535 123.734 27.744 122.668 26.1265H122.601V28.1345H117.833V6.5738H122.703ZM104.41 11.2918C113.674 11.2918 112.882 21.3625 112.882 21.3625H100.199C100.713 23.3666 102.417 24.6839 104.766 24.6839C107.596 24.6839 109.121 22.9538 109.121 22.9538L111.814 25.7381C110.428 27.131 108.566 28.4035 104.726 28.4035C98.7865 28.4035 95.6194 24.4254 95.6194 20.2088C95.6194 15.9922 97.9955 11.2918 104.41 11.2918ZM179.829 11.179C183.115 11.179 185.992 12.8343 187.582 15.3154L183.666 17.6459C182.932 16.2352 181.488 15.276 179.829 15.276C177.423 15.276 175.473 17.2886 175.473 19.7712C175.473 22.253 177.423 24.2664 179.829 24.2664C181.412 24.2664 182.793 23.392 183.556 22.0878L187.489 24.3644C185.882 26.7675 183.054 28.3641 179.829 28.3641C174.821 28.3641 170.762 24.5164 170.762 19.7712C170.762 15.0252 174.821 11.179 179.829 11.179ZM219.768 11.2844C223.753 11.2844 226.287 12.8224 226.287 12.8224L224.65 16.3761C219.345 13.5918 216.943 15.5543 216.943 16.5351C216.943 17.5167 217.893 17.5962 221.588 18.2861C225.284 18.976 227 20.5395 227 23.0591C227 25.5787 224.861 28.3638 219.636 28.3638C214.745 28.3638 212.352 26.8781 212.063 26.6863L212.047 26.6752C212.038 26.6692 212.034 26.6661 212.034 26.6661L213.617 23.1386C217.709 25.7647 222.354 24.9151 222.354 23.3516C222.354 22.1495 220.734 21.9176 219.026 21.7184L218.832 21.6959C218.38 21.6436 217.926 21.5911 217.497 21.5211C215.386 21.1761 212.245 20.0363 212.245 16.7473C212.245 13.4591 215.782 11.2844 219.768 11.2844ZM196.432 5.4505V18.4722L203.36 11.7353H209.022L202.156 18.4121L209.695 28.364H204.073L198.918 21.5606L196.432 23.9768V28.364H191.799V5.4505H196.432ZM158.3 11.1782C163.306 11.1782 167.367 15.026 167.367 19.7704C167.367 24.5164 163.306 28.3633 158.3 28.3633C153.291 28.3633 149.234 24.5164 149.234 19.7704C149.234 15.026 153.291 11.1782 158.3 11.1782ZM75.9779 11.6559V28.2051H70.9495V11.6559H75.9779ZM66.4342 6.6434V10.7805H55.1897V16.2704H65.1269V20.3682H55.1897V28.2048H50.1605V6.6434H66.4342ZM86.7094 13.7239C86.7094 13.7239 88.4913 10.8995 92.1731 11.3378V15.9519L92.1683 15.9507C92.0141 15.9126 88.1448 15.0013 86.7094 19.095V28.2042H81.9187V11.6558H86.4987L86.7094 13.6051V13.7239ZM144.44 5.3704V28.0848H139.373V5.3704H144.44ZM126.668 15.3782C123.889 15.3782 122.499 17.0898 122.499 20.5146C122.499 21.8126 122.857 22.9015 123.572 23.7813C124.288 24.6602 125.367 25.1001 126.811 25.1001C127.774 25.1001 128.554 24.8462 129.155 24.3384C129.754 23.8299 130.18 23.2087 130.431 22.4732C130.684 21.7386 130.809 21.0047 130.809 20.2723C130.809 18.8647 130.48 17.6987 129.821 16.7703C129.162 15.842 128.11 15.3782 126.668 15.3782ZM158.3 15.276C155.893 15.276 153.944 17.2878 153.944 19.7704C153.944 22.2538 155.893 24.2664 158.3 24.2664C160.705 24.2664 162.654 22.2538 162.654 19.7704C162.654 17.2878 160.705 15.276 158.3 15.276ZM104.489 14.8979C102.038 14.8979 100.676 16.4267 100.216 18.4185H108.428C108.388 17.9006 107.577 14.8979 104.489 14.8979ZM73.4638 3.8584C75.0952 3.8584 76.4194 5.08772 76.4194 6.60335C76.4194 8.11898 75.0952 9.34831 73.4638 9.34831C71.8316 9.34831 70.5074 8.11898 70.5074 6.60335C70.5074 5.08772 71.8316 3.8584 73.4638 3.8584Z" fill="white"/>
<path fill-rule="evenodd" clip-rule="evenodd" d="M34.4194 0C34.5891 0 34.7267 0.13759 34.7267 0.307316V34.4194C34.7267 34.5891 34.5891 34.7267 34.4194 34.7267H0.307316C0.13759 34.7267 0 34.5891 0 34.4194V0.307316C0 0.13759 0.13759 0 0.307316 0H34.4194ZM17.3633 9.64631L7.71697 25.0804H27.0096L17.3633 9.64631Z" fill="white"/>
</svg>
