<svg width="160" height="54" viewBox="0 0 160 54" fill="none" xmlns="http://www.w3.org/2000/svg">
<path d="M136.115 49.8855V53.237H159.119V38.1211H155.767V49.8855H136.115ZM136.115 0V3.35167H155.767V15.1167H159.119V0H136.115ZM124.252 25.9289V18.1407H129.51C132.074 18.1407 132.994 18.9949 132.994 21.3285V22.7085C132.994 25.1073 132.106 25.9289 129.51 25.9289H124.252ZM132.599 27.3089C134.997 26.6845 136.673 24.4495 136.673 21.7882C136.673 20.1124 136.016 18.6004 134.768 17.3843C133.19 15.8723 131.086 15.1167 128.359 15.1167H120.965V38.1203H124.252V28.9521H129.182C131.712 28.9521 132.731 30.0036 132.731 32.6331V38.1211H136.082V33.1588C136.082 29.5439 135.228 28.1639 132.599 27.7694V27.3089ZM104.929 28.0645H115.051V25.0413H104.929V18.1399H116.037V15.1167H101.577V38.1203H116.53V35.0971H104.929V28.0645ZM93.9198 29.2806V30.8578C93.9198 34.1769 92.7037 35.2617 89.6479 35.2617H88.925C85.8684 35.2617 84.3898 34.2755 84.3898 29.7077V23.5293C84.3898 18.9289 85.9346 17.9753 88.9903 17.9753H89.6471C92.6379 17.9753 93.5908 19.0927 93.6233 22.1819H97.2384C96.9099 17.6468 93.8865 14.7883 89.3513 14.7883C87.1499 14.7883 85.3094 15.4786 83.9294 16.7926C81.8589 18.7317 80.7089 22.0181 80.7089 26.6185C80.7089 31.0551 81.6951 34.3415 83.7322 36.3784C85.1123 37.7258 87.0184 38.4488 88.8917 38.4488C90.8632 38.4488 92.6712 37.6598 93.5908 35.9513H94.0504V38.1203H97.0737V26.2574H88.168V29.2806H93.9198ZM64.936 18.1399H68.5183C71.9035 18.1399 73.7439 18.9941 73.7439 23.5953V29.6417C73.7439 34.2421 71.9035 35.0971 68.5183 35.0971H64.936V18.1399ZM68.8136 38.1211C75.0907 38.1211 77.4232 33.3561 77.4232 26.6193C77.4232 19.7839 74.926 15.1175 68.7475 15.1175H61.649V38.1211H68.8136ZM45.7774 28.0645H55.8993V25.0413H45.7774V18.1399H56.8846V15.1167H42.4247V38.1203H57.3779V35.0971H45.7774V28.0645ZM26.3886 15.1167H23.037V38.1203H38.1537V35.0971H26.3886V15.1167ZM0 38.1211V53.2378H23.0036V49.8855H3.35167V38.1211H0ZM0 0V15.1167H3.35167V3.35167H23.0036V0H0Z" fill="white"/>
</svg>
