<svg width="208" height="53" viewBox="0 0 208 53" fill="none" xmlns="http://www.w3.org/2000/svg">
<path fill-rule="evenodd" clip-rule="evenodd" d="M104.572 26.0361C104.572 23.1751 102.689 21.1723 100.161 21.1723C97.6341 21.1723 95.7506 23.1751 95.7506 26.0361C95.7506 28.8972 97.6341 30.9 100.161 30.9C102.665 30.9 104.572 28.8734 104.572 26.0361ZM92.0073 26.0361C92.0073 21.3869 95.5598 17.8105 100.161 17.8105C104.763 17.8105 108.315 21.3869 108.315 26.0361C108.315 30.6854 104.763 34.2617 100.161 34.2617C95.5598 34.2617 92.0073 30.6854 92.0073 26.0361Z" fill="white"/>
<path fill-rule="evenodd" clip-rule="evenodd" d="M113.489 25.9882C113.489 28.897 115.42 30.8997 117.876 30.8997C120.332 30.8997 122.263 28.9208 122.263 25.9882C122.263 23.0556 120.332 21.0767 117.876 21.0767C115.42 21.1005 113.489 23.0794 113.489 25.9882ZM113.608 32.1633H113.537V39.8406H109.937V18.0249H113.537V19.8369H113.608C114.634 18.8117 116.183 17.7388 118.592 17.7388C122.74 17.7388 125.983 21.0528 125.983 26.012C125.983 30.9712 122.74 34.2853 118.592 34.2853C116.207 34.2615 114.634 33.1886 113.608 32.1633Z" fill="white"/>
<path fill-rule="evenodd" clip-rule="evenodd" d="M131.347 25.9882C131.347 28.897 133.278 30.8997 135.734 30.8997C138.19 30.8997 140.121 28.9208 140.121 25.9882C140.121 23.0556 138.19 21.0767 135.734 21.0767C133.278 21.0767 131.347 23.0794 131.347 25.9882ZM131.466 32.1633H131.395V39.8406H127.795V18.0249H131.395V19.8369H131.466C132.491 18.8117 134.041 17.7388 136.449 17.7388C140.598 17.7388 143.84 21.0528 143.84 26.012C143.84 30.9712 140.598 34.2853 136.449 34.2853C134.065 34.2615 132.491 33.1886 131.466 32.1633Z" fill="white"/>
<path fill-rule="evenodd" clip-rule="evenodd" d="M149.014 24.3907H156.834C156.453 22.3879 154.832 20.9336 152.924 20.9336C151.017 20.9336 149.396 22.3879 149.014 24.3907ZM156.715 28.8492L160.482 29.3499C158.98 32.9977 156.358 34.2614 153.139 34.2614C148.537 34.2614 145.152 30.9473 145.152 25.9881C145.152 21.0289 148.537 17.7148 152.877 17.7148C157.216 17.7148 160.84 20.719 160.84 27.1564H149.062C149.324 29.7075 151.136 31.0665 153.187 31.0665C154.832 31.0665 156.095 30.232 156.715 28.8492Z" fill="white"/>
<path fill-rule="evenodd" clip-rule="evenodd" d="M166.157 18.025V19.837H166.228C167.039 18.8118 168.207 17.9058 170.353 17.9058C170.615 17.9058 171.164 17.9773 171.521 18.0965V21.6967C171.044 21.5775 170.401 21.5059 169.995 21.5059C167.301 21.5059 166.181 22.6742 166.181 25.273V33.9516H162.58V18.025H166.157Z" fill="white"/>
<path fill-rule="evenodd" clip-rule="evenodd" d="M86.3567 28.5156C85.6891 30.0415 84.4017 30.9475 82.7089 30.9713C81.1829 30.9475 79.967 30.1845 79.2517 28.897C79.1087 28.6109 78.9656 28.2771 78.8702 27.9195H78.8464C78.6795 27.3473 78.5841 26.7035 78.5841 25.9883C78.5841 25.273 78.6795 24.6293 78.8464 24.0571H78.8702C78.9656 23.6994 79.1087 23.3895 79.2517 23.0795C79.967 21.792 81.1829 21.0291 82.7089 21.0052C84.3778 21.0291 85.6891 21.9589 86.3567 23.4848C86.4283 23.6517 86.4998 23.8425 86.5475 24.0571C86.5475 24.0809 86.5475 24.1047 86.5713 24.1047H90.3861C90.2907 23.5802 90.1476 23.0557 89.9569 22.5788C88.8363 19.6224 86.2375 17.7627 82.8758 17.7627H82.542C79.5855 17.7627 77.2251 19.2171 75.9376 21.6251C75.2462 22.8649 74.8647 24.3432 74.8647 26.036C74.8647 27.7288 75.2462 29.207 75.9376 30.4468C77.2251 32.8549 79.5855 34.3092 82.542 34.3092H82.8758C86.2375 34.3092 88.8125 32.4257 89.9331 29.4454C90.0523 29.1593 90.1476 28.8494 90.2192 28.5632H86.3567V28.5156Z" fill="white"/>
<path fill-rule="evenodd" clip-rule="evenodd" d="M168.875 31.8055C168.875 30.5657 169.995 29.3975 171.283 29.3975C172.57 29.3975 173.691 30.5657 173.691 31.8055C173.691 33.0453 172.547 34.2136 171.283 34.2136C170.019 34.2136 168.875 33.0692 168.875 31.8055Z" fill="white"/>
<path fill-rule="evenodd" clip-rule="evenodd" d="M204.281 26.0361C204.281 23.1751 202.397 21.1723 199.87 21.1723C197.343 21.1723 195.459 23.1751 195.459 26.0361C195.459 28.8972 197.343 30.9 199.87 30.9C202.397 30.9 204.281 28.8734 204.281 26.0361ZM191.692 26.0361C191.692 21.3869 195.244 17.8105 199.846 17.8105C204.448 17.8105 208 21.3869 208 26.0361C208 30.6854 204.448 34.2617 199.846 34.2617C195.244 34.2617 191.692 30.6854 191.692 26.0361Z" fill="white"/>
<path fill-rule="evenodd" clip-rule="evenodd" d="M185.946 28.5156C185.278 30.0415 183.991 30.9475 182.298 30.9713C180.772 30.9475 179.556 30.1845 178.841 28.897C178.698 28.6109 178.555 28.2771 178.459 27.9195H178.436C178.269 27.3473 178.173 26.7035 178.173 25.9883C178.173 25.273 178.269 24.6293 178.436 24.0571H178.459C178.555 23.6994 178.698 23.3895 178.841 23.0795C179.556 21.792 180.772 21.0291 182.298 21.0052C183.967 21.0291 185.278 21.9589 185.946 23.4848C186.017 23.6517 186.089 23.8425 186.137 24.0571C186.137 24.0809 186.137 24.1047 186.161 24.1047H189.975C189.88 23.5802 189.737 23.0557 189.546 22.5788C188.402 19.6224 185.827 17.7627 182.465 17.7627H182.131C179.175 17.7627 176.814 19.2171 175.527 21.6251C174.835 22.8649 174.454 24.3432 174.454 26.036C174.454 27.7288 174.835 29.207 175.527 30.4468C176.814 32.8549 179.175 34.3092 182.131 34.3092H182.465C185.827 34.3092 188.402 32.4257 189.522 29.4454C189.642 29.1593 189.737 28.8494 189.808 28.5632H185.946V28.5156Z" fill="white"/>
<path fill-rule="evenodd" clip-rule="evenodd" d="M50.1641 42.4869C47.613 45.3718 44.7758 46.8501 42.8446 47.5892C37.4562 49.6158 31.9963 49.5442 26.6557 47.3508C21.1958 45.1096 16.3081 40.4603 13.9239 35.2389C12.851 32.9023 12.2788 30.4466 12.2072 27.9431C12.1834 27.4186 12.1834 26.8226 12.1834 26.7033V25.9166C12.2549 22.3402 13.6855 18.8831 16.1651 16.2127C17.2856 15.0206 18.5731 14.0908 20.0514 13.447C21.5057 12.8033 23.1032 12.4695 24.8198 12.4218C24.2237 12.8987 23.6754 13.3994 23.1508 13.9716C20.1706 17.1664 18.5254 21.5534 18.5254 26.3457C18.5254 31.138 20.1706 35.525 23.1508 38.7199C24.8675 40.5557 26.9179 41.9147 29.2545 42.7254C30.8996 43.2976 32.6878 43.5837 34.5475 43.5837C37.6708 43.5837 42.177 42.7492 45.8725 38.7437C47.1362 37.3847 48.1614 35.7873 48.9243 34.0229H55.028C53.9789 37.1939 52.3338 40.1027 50.1641 42.4869ZM9.48922 42.4869C5.53141 38.2668 3.33792 32.5209 3.33792 26.298C3.33792 20.0752 5.53141 14.2815 9.48922 10.0138C13.4947 5.6983 19.05 3.33792 25.0821 3.33792C26.5841 3.33792 28.0862 3.48097 29.5167 3.76708C37.1463 5.31683 43.1545 10.9198 45.5864 18.6208H39.4828C38.7199 16.8565 37.6946 15.2829 36.431 13.9C34.7382 12.0642 32.7116 10.729 30.3989 9.91839C28.7538 9.34617 26.9656 9.06006 25.1059 9.06006C22.8171 9.06006 20.6713 9.48922 18.6923 10.3714C16.8088 11.2059 15.1398 12.398 13.7093 13.9239C13.3517 14.3054 13.0179 14.6868 12.7079 15.0922C10.7052 17.3095 9.4177 20.2421 8.98854 23.8661C8.89317 24.5099 8.84548 25.1536 8.84548 25.7973V26.298V26.4649V26.5603V26.608C8.84548 27.0133 8.84548 27.4186 8.86933 27.8001V27.967C8.94085 30.9234 9.60844 33.8322 10.8721 36.574C13.1371 41.5332 17.3572 46.0156 22.2687 48.8528C17.3095 48.2806 12.851 46.0633 9.48922 42.4869ZM48.2568 8.20174C51.4993 10.9198 53.7405 14.4961 54.8372 18.6447H49.0436C47.2792 12.1834 43.3453 6.91426 38.0761 3.64787C41.8909 4.22008 45.3718 5.76983 48.2568 8.20174ZM36.4072 38.696C37.6708 37.337 38.696 35.7396 39.459 33.9752H45.1811C44.6804 34.8812 44.0844 35.6919 43.3929 36.431C40.6034 39.4351 37.2178 40.1504 34.7859 40.1981C35.3581 39.7689 35.9065 39.2444 36.4072 38.696ZM58.8666 30.6612H37.1463L36.7409 31.7818C36.0972 33.5699 35.1674 35.1435 33.9514 36.4548C32.7354 37.7662 31.3287 38.7437 29.7313 39.3636C28.1339 38.7199 26.7272 37.7423 25.5351 36.4548C23.127 33.8799 21.8157 30.2797 21.8157 26.3457C21.8157 22.4117 23.127 18.8354 25.5351 16.2366C26.6557 15.0445 27.9431 14.1146 29.4214 13.4709C29.5406 13.4232 29.6836 13.3517 29.8028 13.304C31.3764 13.9477 32.7593 14.9014 33.9514 16.1889C35.1674 17.5002 36.0972 19.0738 36.7409 20.862L37.1463 21.9826H58.8904C58.8904 15.426 54.718 9.2508 50.4264 5.65062C46.0156 1.95507 40.508 0.0238423 34.4998 0.0238423C32.9262 0.0238423 31.3764 0.166896 29.8505 0.453003C28.3008 0.166896 26.7033 0 25.0821 0C18.1201 0 11.7066 2.74186 7.05731 7.74874C2.50344 12.6364 0 19.2169 0 26.298C0 33.3792 2.50344 39.9358 7.05731 44.7519C11.6827 49.6635 18.0724 52.3815 25.0582 52.3815C26.6557 52.3815 28.9922 52.3815 30.7327 52C32.1632 52.2623 33.5938 52.3815 35.0243 52.3815C38.0284 52.3815 41.0087 51.8093 44.0128 50.6887C46.3017 49.8304 49.6396 48.0899 52.6199 44.7043L52.6437 44.6804C55.6479 41.414 58.5089 36.5502 58.8666 30.6612Z" fill="white"/>
</svg>
