<svg width="140" height="42" viewBox="0 0 140 42" fill="none" xmlns="http://www.w3.org/2000/svg">
<path d="M12.3299 26.6557C12.208 27.1164 11.812 27.2278 11.4616 26.9009L4.50785 20.57C4.14988 20.243 4.22605 19.8343 4.68303 19.656L14.4396 15.8515C14.8966 15.6732 15.1632 15.911 15.0413 16.3717L12.3299 26.6557Z" fill="url(#paint0_linear_341_24426)"/>
<path d="M6.58713 32.6744C6.21393 32.9865 5.84072 32.8602 5.75694 32.3846L3.85284 22.0933C3.76906 21.6251 3.98994 21.5062 4.34791 21.8332L10.9666 27.8594C11.3245 28.1864 11.3169 28.7065 10.9437 29.0186L6.58713 32.6744Z" fill="url(#paint1_linear_341_24426)"/>
<path d="M14.5691 13.8007C14.889 14.1648 14.7748 14.6032 14.3254 14.7815L4.6221 18.5637C4.16511 18.742 3.93662 18.5191 4.10418 18.0733L8.08756 7.62585C8.25513 7.18001 8.65879 7.1057 8.97868 7.4698L14.5691 13.8007Z" fill="url(#paint2_linear_341_24426)"/>
<path d="M4.40884 30.9208C4.49262 31.389 4.34791 31.4484 4.08133 31.0471L0.31883 25.3776C0.0522561 24.9763 0.0751053 24.3373 0.364529 23.9509L2.04775 21.7514C2.33718 21.3725 2.64945 21.4394 2.74085 21.9075L4.40884 30.9208Z" fill="url(#paint3_linear_341_24426)"/>
<path d="M3.22068 17.4343C3.05312 17.8801 2.78655 17.8801 2.6266 17.4268L1.33943 13.6669C1.1871 13.2137 1.35466 12.5821 1.72025 12.2625L6.30533 8.21286C6.67091 7.89335 6.82324 7.99738 6.65568 8.44321L3.22068 17.4343Z" fill="url(#paint4_linear_341_24426)"/>
<path d="M2.00967 18.8832C2.162 19.3365 2.05537 20.0201 1.75833 20.3991L0.448309 22.123C0.158886 22.5019 -0.0391407 22.4276 0.00655771 21.9521L0.638719 15.9779C0.692034 15.5023 0.859595 15.4874 1.01192 15.9407L2.00967 18.8832Z" fill="url(#paint5_linear_341_24426)"/>
<path d="M7.18121 5.43382C7.34115 5.61958 7.18121 6.02827 6.81562 6.35521L4.75919 8.17571C4.39361 8.49523 4.34029 8.44321 4.62971 8.06425L6.35864 5.79792C6.64806 5.41152 7.02127 5.24805 7.18121 5.43382Z" fill="url(#paint6_linear_341_24426)"/>
<path d="M20.19 37.222C19.9463 37.6307 19.5122 37.653 19.238 37.2591L13.8456 29.6056C13.5714 29.2118 13.7389 28.8477 14.2264 28.8031L25.0569 27.7108C25.5444 27.6588 25.7424 27.956 25.4911 28.3721L20.19 37.222Z" fill="url(#paint7_linear_341_24426)"/>
<path d="M17.9356 37.2294C18.2098 37.6232 18.0574 37.8164 17.6005 37.6678L7.44779 34.3018C6.98318 34.1457 6.90702 33.7668 7.28022 33.4547L11.6292 29.7988C12.0024 29.4867 12.5279 29.5536 12.8097 29.9474L17.9356 37.2294Z" fill="url(#paint8_linear_341_24426)"/>
<path d="M25.2854 25.9349C25.6053 26.299 25.4682 26.6334 24.9808 26.6854L13.9903 27.7925C13.5028 27.8445 13.2058 27.5027 13.3277 27.042L16.0772 16.602C16.199 16.1413 16.557 16.0596 16.8769 16.4163L25.2854 25.9349Z" fill="url(#paint9_linear_341_24426)"/>
<path d="M33.176 34.8813C33.4959 35.2454 33.3664 35.617 32.8866 35.721L21.7057 38.0171C21.2259 38.1137 21.0355 37.861 21.2868 37.4449L26.5573 28.6471C26.8011 28.2384 27.2657 28.1938 27.5856 28.5579L33.176 34.8813Z" fill="url(#paint10_linear_341_24426)"/>
<path d="M15.1937 40.7515C14.7595 40.9744 14.1121 40.9001 13.7466 40.588L8.55216 36.1148C8.18658 35.7953 8.26274 35.669 8.72734 35.8176L17.6081 38.7601C18.0727 38.9162 18.0955 39.2208 17.669 39.4512L15.1937 40.7515Z" fill="url(#paint11_linear_341_24426)"/>
<path d="M27.2504 41.1751C26.8696 41.4797 26.207 41.5466 25.7652 41.3311L22.1474 39.5329C21.7133 39.3174 21.7438 39.0573 22.2236 38.9607L31.8584 36.9842C32.3382 36.8876 32.422 37.0511 32.0412 37.3557L27.2504 41.1751Z" fill="url(#paint12_linear_341_24426)"/>
<path d="M17.1663 41.3906C16.6789 41.3683 16.6332 41.1676 17.0597 40.9373L19.0019 39.9193C19.436 39.6964 20.1443 39.6889 20.5785 39.9044L23.4118 41.3088C23.8459 41.5243 23.8078 41.6878 23.3128 41.6655L17.1663 41.3906Z" fill="url(#paint13_linear_341_24426)"/>
<path d="M34.9811 36.9173C35.141 37.1031 34.9278 37.4375 34.4936 37.6604L31.9421 38.9905C31.508 39.2134 31.4699 39.1539 31.8431 38.8493L33.9986 37.1328C34.3718 36.8282 34.8135 36.7316 34.9811 36.9173Z" fill="url(#paint14_linear_341_24426)"/>
<path d="M28.5224 25.8234C28.0654 26.0018 27.7988 25.764 27.9207 25.3033L30.6321 15.0193C30.754 14.5586 31.15 14.4471 31.508 14.7741L38.4618 21.105C38.8198 21.4319 38.7436 21.8406 38.2866 22.0189L28.5224 25.8234Z" fill="url(#paint15_linear_341_24426)"/>
<path d="M39.1168 19.5817C39.2006 20.0498 38.9797 20.1687 38.6217 19.8418L32.0031 13.8155C31.6451 13.4886 31.6527 12.9685 32.0259 12.6564L36.3749 9.00051C36.7481 8.68842 37.1213 8.81474 37.2051 9.2903L39.1168 19.5817Z" fill="url(#paint16_linear_341_24426)"/>
<path d="M34.8745 34.0491C34.7069 34.4949 34.3032 34.5693 33.9833 34.2052L28.3929 27.8743C28.073 27.5102 28.1873 27.0718 28.6366 26.8934L38.3399 23.1112C38.7969 22.9329 39.0254 23.1558 38.8578 23.6017L34.8745 34.0491Z" fill="url(#paint17_linear_341_24426)"/>
<path d="M42.6432 16.2974C42.9098 16.6986 42.8869 17.3377 42.5975 17.7241L40.9143 19.9161C40.6248 20.295 40.3126 20.2282 40.2212 19.76L38.5532 10.7541C38.4694 10.286 38.6141 10.2266 38.8807 10.6278L42.6432 16.2974Z" fill="url(#paint18_linear_341_24426)"/>
<path d="M41.615 28.0155C41.7673 28.4687 41.5998 29.1003 41.2342 29.4198L36.6491 33.4695C36.2835 33.789 36.1312 33.685 36.2987 33.2392L39.7337 24.2407C39.9013 23.7949 40.1679 23.7949 40.3278 24.2481L41.615 28.0155Z" fill="url(#paint19_linear_341_24426)"/>
<path d="M42.3309 25.6897C42.2776 26.1652 42.11 26.1801 41.9577 25.7268L40.9524 22.7843C40.8 22.331 40.9143 21.6474 41.2037 21.2685L42.5213 19.5446C42.8108 19.1656 43.0088 19.2399 42.9631 19.7155L42.3309 25.6897Z" fill="url(#paint20_linear_341_24426)"/>
<path d="M36.6034 35.877C36.314 36.2634 35.9408 36.4195 35.7732 36.2411C35.6133 36.0554 35.7732 35.6467 36.1388 35.3197L38.2028 33.4992C38.5684 33.1797 38.6217 33.2317 38.3323 33.6107L36.6034 35.877Z" fill="url(#paint21_linear_341_24426)"/>
<path d="M29.1165 12.0694C29.3906 12.4632 29.2231 12.8273 28.7356 12.8719L17.9051 13.9642C17.4177 14.0162 17.2196 13.7189 17.471 13.3028L22.772 4.45297C23.0157 4.04429 23.4499 4.022 23.724 4.41582L29.1165 12.0694Z" fill="url(#paint22_linear_341_24426)"/>
<path d="M31.3328 11.8762C30.9596 12.1882 30.4341 12.1214 30.1523 11.7275L25.0265 4.44554C24.7523 4.05172 24.9046 3.85852 25.3616 4.00714L35.5142 7.37321C35.9788 7.52925 36.055 7.90821 35.6818 8.22029L31.3328 11.8762Z" fill="url(#paint23_linear_341_24426)"/>
<path d="M26.8849 25.0729C26.763 25.5336 26.405 25.6154 26.0851 25.2587L17.6842 15.7401C17.3643 15.376 17.5014 15.0416 17.9889 14.9896L28.9794 13.8824C29.4668 13.8304 29.7638 14.1722 29.642 14.6329L26.8849 25.0729Z" fill="url(#paint24_linear_341_24426)"/>
<path d="M16.4047 13.0353C16.161 13.444 15.6964 13.4886 15.3765 13.1245L9.78602 6.79362C9.46613 6.42952 9.59561 6.05799 10.0754 5.95396L21.2563 3.6579C21.7362 3.5613 21.9266 3.81394 21.6752 4.23006L16.4047 13.0353Z" fill="url(#paint25_linear_341_24426)"/>
<path d="M25.354 2.91484C24.8894 2.75879 24.8665 2.45414 25.293 2.22379L27.7684 0.930863C28.2025 0.707945 28.8499 0.782251 29.2231 1.09434L34.4099 5.56757C34.7754 5.88708 34.6993 6.0134 34.2347 5.86479L25.354 2.91484Z" fill="url(#paint26_linear_341_24426)"/>
<path d="M11.1037 4.69075C10.6238 4.78735 10.54 4.62388 10.9209 4.31922L15.704 0.499887C16.0848 0.195232 16.7474 0.128357 17.1892 0.343844L20.8146 2.14205C21.2487 2.35754 21.2182 2.61761 20.7384 2.71421L11.1037 4.69075Z" fill="url(#paint27_linear_341_24426)"/>
<path d="M23.9678 1.74823C23.5336 1.97115 22.8253 1.97858 22.3912 1.76309L19.5579 0.358706C19.1237 0.143218 19.1618 -0.0202557 19.6569 0.00203613L25.8033 0.276969C26.2908 0.299261 26.3365 0.499887 25.91 0.730236L23.9678 1.74823Z" fill="url(#paint28_linear_341_24426)"/>
<path d="M8.97107 4.54214C8.59025 4.8468 8.1485 4.94339 7.98855 4.75763C7.82861 4.57186 8.04187 4.23749 8.476 4.01457L11.0275 2.68449C11.4616 2.46157 11.4997 2.52101 11.1265 2.82567L8.97107 4.54214Z" fill="url(#paint29_linear_341_24426)"/>
<path d="M5.69601 34.7847C5.88642 34.6287 6.30532 34.7847 6.64045 35.1414L8.50647 37.1551C8.83397 37.5118 8.78066 37.5638 8.39222 37.2814L6.0616 35.5947C5.67316 35.3123 5.5056 34.9482 5.69601 34.7847Z" fill="url(#paint30_linear_341_24426)"/>
<path d="M37.9591 7.67043C38.1495 7.51439 38.4923 7.72244 38.7207 8.14599L40.0841 10.6352C40.3126 11.0588 40.2516 11.0959 39.9394 10.7318L38.18 8.62898C37.8753 8.26488 37.7763 7.82647 37.9591 7.67043Z" fill="url(#paint31_linear_341_24426)"/>
<path d="M36.9004 6.08028C37.2965 6.36264 37.4564 6.72674 37.2736 6.89021C37.0832 7.04626 36.6643 6.89021 36.3292 6.53355L34.4632 4.51985C34.1357 4.16318 34.189 4.11117 34.5774 4.39353L36.9004 6.08028Z" fill="url(#paint32_linear_341_24426)"/>
<path d="M4.78204 33.046C5.09432 33.4175 5.19333 33.8485 5.00292 34.0045C4.81251 34.1606 4.46977 33.9525 4.24128 33.529L2.87794 31.0397C2.64945 30.6162 2.71038 30.579 3.02265 30.9431L4.78204 33.046Z" fill="url(#paint33_linear_341_24426)"/>
<path d="M68.2596 12.577C69.7708 13.4274 70.9666 14.5793 71.8472 16.0219C72.7278 17.4752 73.1735 19.0685 73.1735 20.8017C73.1735 22.5349 72.7278 24.1389 71.8472 25.603C70.9666 27.0671 69.7599 28.2297 68.2596 29.0909C66.7485 29.9521 65.096 30.3828 63.2805 30.3828C61.4758 30.3828 59.8125 29.9521 58.3013 29.0909C56.7902 28.2297 55.5943 27.0671 54.7137 25.603C53.8331 24.1389 53.3874 22.5349 53.3874 20.8017C53.3874 19.0685 53.8331 17.4752 54.7137 16.0219C55.5943 14.5686 56.801 13.4274 58.3013 12.577C59.8125 11.7265 61.4649 11.3067 63.2805 11.3067C65.096 11.2959 66.7485 11.7265 68.2596 12.577ZM59.3015 14.0088C58.073 14.7085 57.0946 15.6559 56.3771 16.8508C55.6487 18.0458 55.2899 19.3699 55.2899 20.8017C55.2899 22.2334 55.6487 23.5576 56.3771 24.7741C57.0946 25.9905 58.073 26.9486 59.3015 27.6591C60.53 28.3696 61.8672 28.7249 63.3131 28.7249C64.7372 28.7249 66.0636 28.3696 67.2812 27.6591C68.4988 26.9486 69.4772 25.9905 70.1947 24.7741C70.9123 23.5576 71.2819 22.2334 71.2819 20.8017C71.2819 19.0577 70.7383 17.4752 69.662 16.0757C69.1402 15.3975 68.4988 14.7946 67.7813 14.321C66.4223 13.4167 64.9329 12.9645 63.3131 12.9645C61.8672 12.9645 60.53 13.309 59.3015 14.0088Z" fill="#F6F6F6"/>
<path d="M93.2206 29.8337L89.3938 24.1066C88.8176 24.1389 88.3719 24.1604 88.0675 24.1604H82.8601V29.3493C82.8601 29.8337 82.4687 30.2213 81.9795 30.2213H81.8707C81.3815 30.2213 80.9902 29.8337 80.9902 29.3493V11.4574H88.0675C90.4375 11.4574 92.2639 11.9957 93.5576 13.083C94.8513 14.1703 95.4927 15.6989 95.4927 17.6905C95.4927 19.2515 95.1122 20.5433 94.3512 21.5875C93.5902 22.621 92.5031 23.353 91.1007 23.7621L94.6883 28.8541C95.1014 29.4354 94.6774 30.232 93.9599 30.232C93.6663 30.232 93.3837 30.0813 93.2206 29.8337ZM88.0675 22.4918C89.8722 22.4918 91.2637 22.0827 92.2422 21.2753C93.2206 20.4572 93.7098 19.2838 93.7098 17.7443C93.7098 16.2372 93.2206 15.0961 92.2422 14.3102C91.2637 13.5243 89.8722 13.126 88.0675 13.126H82.8601V22.4918H88.0675Z" fill="#F6F6F6"/>
<path d="M116.681 12.6846C117.758 13.5136 118.29 14.6655 118.29 16.1295C118.29 17.2384 117.975 18.1749 117.355 18.9177C116.736 19.6713 115.855 20.1665 114.735 20.3926C116.127 20.5756 117.214 21.0816 117.986 21.9213C118.758 22.7609 119.149 23.8267 119.149 25.1185C119.149 26.7333 118.54 27.9821 117.334 28.8756C116.127 29.7691 114.442 30.2213 112.289 30.2213H104.266V11.4359H112.213C114.116 11.4359 115.605 11.845 116.681 12.6846ZM115.257 18.8532C115.996 18.2718 116.366 17.4429 116.366 16.3664C116.366 15.3329 115.996 14.5255 115.257 13.955C114.518 13.3844 113.474 13.1045 112.137 13.126H106.147V19.7251H112.137C113.474 19.7251 114.518 19.4345 115.257 18.8532ZM115.92 27.6053C116.812 26.9702 117.258 26.0767 117.258 24.9355C117.258 23.8052 116.801 22.9332 115.899 22.3088C114.996 21.6844 113.735 21.3722 112.126 21.3722H106.136V28.5634H112.126C113.768 28.5634 115.029 28.2405 115.92 27.6053Z" fill="#F6F6F6"/>
<path d="M135.435 13.4059C134.511 13.1475 133.641 13.0184 132.836 13.0184C131.532 13.0184 130.488 13.2767 129.705 13.7827C128.923 14.2887 128.531 14.9884 128.531 15.8604C128.531 16.6355 128.749 17.2599 129.184 17.7443C129.618 18.2288 130.151 18.6055 130.782 18.8854C131.412 19.1653 132.282 19.4668 133.38 19.8113C134.663 20.188 135.696 20.5541 136.489 20.9201C137.272 21.2861 137.946 21.8244 138.5 22.5133C139.055 23.2131 139.327 24.1389 139.327 25.28C139.327 26.2812 139.044 27.1639 138.468 27.939C137.902 28.7141 137.098 29.3062 136.065 29.7261C135.032 30.1459 133.847 30.3612 132.51 30.3612C131.195 30.3612 129.901 30.1029 128.651 29.5861C127.64 29.1663 126.737 28.6388 125.955 28.0036C125.629 27.7345 125.552 27.2824 125.748 26.9163C126.009 26.4534 126.618 26.335 127.031 26.658C127.694 27.1747 128.423 27.5946 129.227 27.9283C130.347 28.3912 131.445 28.628 132.532 28.628C133.978 28.628 135.13 28.3374 135.978 27.756C136.826 27.1747 137.25 26.3888 137.25 25.4092C137.25 24.6233 137.033 23.9774 136.598 23.4714C136.163 22.9655 135.63 22.5887 135 22.3196C134.369 22.0504 133.478 21.7382 132.347 21.383C131.064 20.9847 130.032 20.6186 129.26 20.2742C128.477 19.9297 127.825 19.4022 127.281 18.7132C126.737 18.0242 126.466 17.1199 126.466 16.0111C126.466 15.0638 126.737 14.2348 127.281 13.5136C127.825 12.8031 128.586 12.2433 129.564 11.8665C130.542 11.4789 131.673 11.2852 132.956 11.2852C133.989 11.2852 135.022 11.4359 136.065 11.7373C136.783 11.9526 137.446 12.211 138.055 12.5124C138.49 12.7277 138.664 13.2444 138.446 13.6751L138.424 13.7289C138.207 14.1595 137.674 14.321 137.239 14.0949C136.652 13.815 136.054 13.5889 135.435 13.4059Z" fill="#F6F6F6"/>
<defs>
<linearGradient id="paint0_linear_341_24426" x1="21.4848" y1="1.84011e-09" x2="21.5251" y2="50.7552" gradientUnits="userSpaceOnUse">
<stop stop-color="#DA88DE"/>
<stop offset="0.373617" stop-color="#5E75E8"/>
<stop offset="1" stop-color="#80C6EB"/>
</linearGradient>
<linearGradient id="paint1_linear_341_24426" x1="21.4848" y1="1.84011e-09" x2="21.5251" y2="50.7552" gradientUnits="userSpaceOnUse">
<stop stop-color="#DA88DE"/>
<stop offset="0.373617" stop-color="#5E75E8"/>
<stop offset="1" stop-color="#80C6EB"/>
</linearGradient>
<linearGradient id="paint2_linear_341_24426" x1="21.4848" y1="1.84011e-09" x2="21.5251" y2="50.7552" gradientUnits="userSpaceOnUse">
<stop stop-color="#DA88DE"/>
<stop offset="0.373617" stop-color="#5E75E8"/>
<stop offset="1" stop-color="#80C6EB"/>
</linearGradient>
<linearGradient id="paint3_linear_341_24426" x1="21.4848" y1="1.84011e-09" x2="21.5251" y2="50.7552" gradientUnits="userSpaceOnUse">
<stop stop-color="#DA88DE"/>
<stop offset="0.373617" stop-color="#5E75E8"/>
<stop offset="1" stop-color="#80C6EB"/>
</linearGradient>
<linearGradient id="paint4_linear_341_24426" x1="21.4848" y1="1.84011e-09" x2="21.5251" y2="50.7552" gradientUnits="userSpaceOnUse">
<stop stop-color="#DA88DE"/>
<stop offset="0.373617" stop-color="#5E75E8"/>
<stop offset="1" stop-color="#80C6EB"/>
</linearGradient>
<linearGradient id="paint5_linear_341_24426" x1="21.4848" y1="1.84011e-09" x2="21.5251" y2="50.7552" gradientUnits="userSpaceOnUse">
<stop stop-color="#DA88DE"/>
<stop offset="0.373617" stop-color="#5E75E8"/>
<stop offset="1" stop-color="#80C6EB"/>
</linearGradient>
<linearGradient id="paint6_linear_341_24426" x1="21.4848" y1="1.84011e-09" x2="21.5251" y2="50.7552" gradientUnits="userSpaceOnUse">
<stop stop-color="#DA88DE"/>
<stop offset="0.373617" stop-color="#5E75E8"/>
<stop offset="1" stop-color="#80C6EB"/>
</linearGradient>
<linearGradient id="paint7_linear_341_24426" x1="21.4848" y1="1.84011e-09" x2="21.5251" y2="50.7552" gradientUnits="userSpaceOnUse">
<stop stop-color="#DA88DE"/>
<stop offset="0.373617" stop-color="#5E75E8"/>
<stop offset="1" stop-color="#80C6EB"/>
</linearGradient>
<linearGradient id="paint8_linear_341_24426" x1="21.4848" y1="1.84011e-09" x2="21.5251" y2="50.7552" gradientUnits="userSpaceOnUse">
<stop stop-color="#DA88DE"/>
<stop offset="0.373617" stop-color="#5E75E8"/>
<stop offset="1" stop-color="#80C6EB"/>
</linearGradient>
<linearGradient id="paint9_linear_341_24426" x1="21.4848" y1="1.84011e-09" x2="21.5251" y2="50.7552" gradientUnits="userSpaceOnUse">
<stop stop-color="#DA88DE"/>
<stop offset="0.373617" stop-color="#5E75E8"/>
<stop offset="1" stop-color="#80C6EB"/>
</linearGradient>
<linearGradient id="paint10_linear_341_24426" x1="21.4848" y1="1.84011e-09" x2="21.5251" y2="50.7552" gradientUnits="userSpaceOnUse">
<stop stop-color="#DA88DE"/>
<stop offset="0.373617" stop-color="#5E75E8"/>
<stop offset="1" stop-color="#80C6EB"/>
</linearGradient>
<linearGradient id="paint11_linear_341_24426" x1="21.4848" y1="1.84011e-09" x2="21.5251" y2="50.7552" gradientUnits="userSpaceOnUse">
<stop stop-color="#DA88DE"/>
<stop offset="0.373617" stop-color="#5E75E8"/>
<stop offset="1" stop-color="#80C6EB"/>
</linearGradient>
<linearGradient id="paint12_linear_341_24426" x1="21.4848" y1="1.84011e-09" x2="21.5251" y2="50.7552" gradientUnits="userSpaceOnUse">
<stop stop-color="#DA88DE"/>
<stop offset="0.373617" stop-color="#5E75E8"/>
<stop offset="1" stop-color="#80C6EB"/>
</linearGradient>
<linearGradient id="paint13_linear_341_24426" x1="21.4848" y1="1.84011e-09" x2="21.5251" y2="50.7552" gradientUnits="userSpaceOnUse">
<stop stop-color="#DA88DE"/>
<stop offset="0.373617" stop-color="#5E75E8"/>
<stop offset="1" stop-color="#80C6EB"/>
</linearGradient>
<linearGradient id="paint14_linear_341_24426" x1="21.4848" y1="1.84011e-09" x2="21.5251" y2="50.7552" gradientUnits="userSpaceOnUse">
<stop stop-color="#DA88DE"/>
<stop offset="0.373617" stop-color="#5E75E8"/>
<stop offset="1" stop-color="#80C6EB"/>
</linearGradient>
<linearGradient id="paint15_linear_341_24426" x1="21.4848" y1="1.84011e-09" x2="21.5251" y2="50.7552" gradientUnits="userSpaceOnUse">
<stop stop-color="#DA88DE"/>
<stop offset="0.373617" stop-color="#5E75E8"/>
<stop offset="1" stop-color="#80C6EB"/>
</linearGradient>
<linearGradient id="paint16_linear_341_24426" x1="21.4848" y1="1.84011e-09" x2="21.5251" y2="50.7552" gradientUnits="userSpaceOnUse">
<stop stop-color="#DA88DE"/>
<stop offset="0.373617" stop-color="#5E75E8"/>
<stop offset="1" stop-color="#80C6EB"/>
</linearGradient>
<linearGradient id="paint17_linear_341_24426" x1="21.4848" y1="1.84011e-09" x2="21.5251" y2="50.7552" gradientUnits="userSpaceOnUse">
<stop stop-color="#DA88DE"/>
<stop offset="0.373617" stop-color="#5E75E8"/>
<stop offset="1" stop-color="#80C6EB"/>
</linearGradient>
<linearGradient id="paint18_linear_341_24426" x1="21.4848" y1="1.84011e-09" x2="21.5251" y2="50.7552" gradientUnits="userSpaceOnUse">
<stop stop-color="#DA88DE"/>
<stop offset="0.373617" stop-color="#5E75E8"/>
<stop offset="1" stop-color="#80C6EB"/>
</linearGradient>
<linearGradient id="paint19_linear_341_24426" x1="21.4848" y1="1.84011e-09" x2="21.5251" y2="50.7552" gradientUnits="userSpaceOnUse">
<stop stop-color="#DA88DE"/>
<stop offset="0.373617" stop-color="#5E75E8"/>
<stop offset="1" stop-color="#80C6EB"/>
</linearGradient>
<linearGradient id="paint20_linear_341_24426" x1="21.4848" y1="1.84011e-09" x2="21.5251" y2="50.7552" gradientUnits="userSpaceOnUse">
<stop stop-color="#DA88DE"/>
<stop offset="0.373617" stop-color="#5E75E8"/>
<stop offset="1" stop-color="#80C6EB"/>
</linearGradient>
<linearGradient id="paint21_linear_341_24426" x1="21.4848" y1="1.84011e-09" x2="21.5251" y2="50.7552" gradientUnits="userSpaceOnUse">
<stop stop-color="#DA88DE"/>
<stop offset="0.373617" stop-color="#5E75E8"/>
<stop offset="1" stop-color="#80C6EB"/>
</linearGradient>
<linearGradient id="paint22_linear_341_24426" x1="21.4848" y1="1.84011e-09" x2="21.5251" y2="50.7552" gradientUnits="userSpaceOnUse">
<stop stop-color="#DA88DE"/>
<stop offset="0.373617" stop-color="#5E75E8"/>
<stop offset="1" stop-color="#80C6EB"/>
</linearGradient>
<linearGradient id="paint23_linear_341_24426" x1="21.4848" y1="1.84011e-09" x2="21.5251" y2="50.7552" gradientUnits="userSpaceOnUse">
<stop stop-color="#DA88DE"/>
<stop offset="0.373617" stop-color="#5E75E8"/>
<stop offset="1" stop-color="#80C6EB"/>
</linearGradient>
<linearGradient id="paint24_linear_341_24426" x1="21.4848" y1="1.84011e-09" x2="21.5251" y2="50.7552" gradientUnits="userSpaceOnUse">
<stop stop-color="#DA88DE"/>
<stop offset="0.373617" stop-color="#5E75E8"/>
<stop offset="1" stop-color="#80C6EB"/>
</linearGradient>
<linearGradient id="paint25_linear_341_24426" x1="21.4848" y1="1.84011e-09" x2="21.5251" y2="50.7552" gradientUnits="userSpaceOnUse">
<stop stop-color="#DA88DE"/>
<stop offset="0.373617" stop-color="#5E75E8"/>
<stop offset="1" stop-color="#80C6EB"/>
</linearGradient>
<linearGradient id="paint26_linear_341_24426" x1="21.4848" y1="1.84011e-09" x2="21.5251" y2="50.7552" gradientUnits="userSpaceOnUse">
<stop stop-color="#DA88DE"/>
<stop offset="0.373617" stop-color="#5E75E8"/>
<stop offset="1" stop-color="#80C6EB"/>
</linearGradient>
<linearGradient id="paint27_linear_341_24426" x1="21.4848" y1="1.84011e-09" x2="21.5251" y2="50.7552" gradientUnits="userSpaceOnUse">
<stop stop-color="#DA88DE"/>
<stop offset="0.373617" stop-color="#5E75E8"/>
<stop offset="1" stop-color="#80C6EB"/>
</linearGradient>
<linearGradient id="paint28_linear_341_24426" x1="21.4848" y1="1.84011e-09" x2="21.5251" y2="50.7552" gradientUnits="userSpaceOnUse">
<stop stop-color="#DA88DE"/>
<stop offset="0.373617" stop-color="#5E75E8"/>
<stop offset="1" stop-color="#80C6EB"/>
</linearGradient>
<linearGradient id="paint29_linear_341_24426" x1="21.4848" y1="1.84011e-09" x2="21.5251" y2="50.7552" gradientUnits="userSpaceOnUse">
<stop stop-color="#DA88DE"/>
<stop offset="0.373617" stop-color="#5E75E8"/>
<stop offset="1" stop-color="#80C6EB"/>
</linearGradient>
<linearGradient id="paint30_linear_341_24426" x1="21.4848" y1="1.84011e-09" x2="21.5251" y2="50.7552" gradientUnits="userSpaceOnUse">
<stop stop-color="#DA88DE"/>
<stop offset="0.373617" stop-color="#5E75E8"/>
<stop offset="1" stop-color="#80C6EB"/>
</linearGradient>
<linearGradient id="paint31_linear_341_24426" x1="21.4848" y1="1.84011e-09" x2="21.5251" y2="50.7552" gradientUnits="userSpaceOnUse">
<stop stop-color="#DA88DE"/>
<stop offset="0.373617" stop-color="#5E75E8"/>
<stop offset="1" stop-color="#80C6EB"/>
</linearGradient>
<linearGradient id="paint32_linear_341_24426" x1="21.4848" y1="1.84011e-09" x2="21.5251" y2="50.7552" gradientUnits="userSpaceOnUse">
<stop stop-color="#DA88DE"/>
<stop offset="0.373617" stop-color="#5E75E8"/>
<stop offset="1" stop-color="#80C6EB"/>
</linearGradient>
<linearGradient id="paint33_linear_341_24426" x1="21.4848" y1="1.84011e-09" x2="21.5251" y2="50.7552" gradientUnits="userSpaceOnUse">
<stop stop-color="#DA88DE"/>
<stop offset="0.373617" stop-color="#5E75E8"/>
<stop offset="1" stop-color="#80C6EB"/>
</linearGradient>
</defs>
</svg>
