<svg width="206" height="62" viewBox="0 0 206 62" fill="none" xmlns="http://www.w3.org/2000/svg">
<path d="M18.1844 39.3123C18.0047 39.9917 17.4206 40.1561 16.9038 39.6739L6.64827 30.337C6.12033 29.8548 6.23266 29.2521 6.90663 28.9891L21.2959 23.3782C21.9699 23.1151 22.363 23.4658 22.1833 24.1453L18.1844 39.3123Z" fill="#121214"/>
<path d="M9.71484 48.1889C9.16443 48.6492 8.61402 48.4629 8.49046 47.7615L5.68225 32.5836C5.55869 31.8932 5.88444 31.7178 6.41238 32.2L16.1737 41.0876C16.7017 41.5698 16.6904 42.3369 16.14 42.7972L9.71484 48.1889Z" fill="#121214"/>
<path d="M21.4868 20.3535C21.9586 20.8905 21.7901 21.5371 21.1274 21.8001L6.81676 27.3781C6.1428 27.6411 5.80581 27.3124 6.05293 26.6549L11.9277 11.2468C12.1748 10.5892 12.7702 10.4796 13.2419 11.0166L21.4868 20.3535Z" fill="#121214"/>
<path d="M6.50225 45.6027C6.62581 46.2931 6.41238 46.3807 6.01923 45.7889L0.470217 37.4274C0.0770684 36.8356 0.110767 35.8931 0.537614 35.3233L3.02007 32.0795C3.44692 31.5206 3.90746 31.6192 4.04226 32.3096L6.50225 45.6027Z" fill="#121214"/>
<path d="M4.74992 25.7124C4.5028 26.3699 4.10965 26.3699 3.87376 25.7014L1.97542 20.1563C1.75076 19.4878 1.99788 18.5563 2.53706 18.0851L9.29922 12.1125C9.8384 11.6413 10.0631 11.7947 9.81593 12.4522L4.74992 25.7124Z" fill="#121214"/>
<path d="M2.9639 27.8494C3.18856 28.5178 3.0313 29.5261 2.59322 30.085L0.661176 32.6274C0.234328 33.1863 -0.0577255 33.0767 0.00967145 32.3754L0.941996 23.5645C1.02063 22.8631 1.26775 22.8412 1.4924 23.5097L2.9639 27.8494Z" fill="#121214"/>
<path d="M10.591 8.0139C10.8269 8.28787 10.591 8.89061 10.0518 9.3728L7.01896 12.0577C6.47978 12.5289 6.40115 12.4522 6.828 11.8933L9.37785 8.55088C9.8047 7.98102 10.3551 7.73993 10.591 8.0139Z" fill="#121214"/>
<path d="M29.7767 54.8957C29.4172 55.4985 28.7769 55.5313 28.3726 54.9505L20.4197 43.6629C20.0153 43.0821 20.2625 42.5451 20.9814 42.4794L36.9544 40.8684C37.6733 40.7917 37.9654 41.2301 37.5947 41.8438L29.7767 54.8957Z" fill="#121214"/>
<path d="M26.4517 54.9067C26.8561 55.4875 26.6315 55.7724 25.9575 55.5533L10.9841 50.5889C10.2989 50.3588 10.1866 49.7999 10.737 49.3396L17.151 43.9479C17.7014 43.4876 18.4764 43.5862 18.8921 44.167L26.4517 54.9067Z" fill="#121214"/>
<path d="M37.2914 38.2493C37.7632 38.7863 37.561 39.2794 36.8421 39.3561L20.6331 40.989C19.9142 41.0657 19.4762 40.5616 19.6559 39.8821L23.7109 24.485C23.8907 23.8056 24.4186 23.685 24.8904 24.211L37.2914 38.2493Z" fill="#121214"/>
<path d="M48.9286 51.4437C49.4004 51.9807 49.2094 52.5286 48.5018 52.682L32.012 56.0683C31.3043 56.2108 31.0235 55.8382 31.3942 55.2245L39.1673 42.2492C39.5268 41.6465 40.212 41.5808 40.6837 42.1177L48.9286 51.4437Z" fill="#121214"/>
<path d="M22.4079 60.1012C21.7677 60.4299 20.8129 60.3203 20.2737 59.8601L12.6129 53.2629C12.0737 52.7916 12.1861 52.6053 12.8713 52.8245L25.9687 57.1642C26.6539 57.3943 26.6876 57.8437 26.0586 58.1834L22.4079 60.1012Z" fill="#121214"/>
<path d="M40.1895 60.7258C39.6278 61.1751 38.6506 61.2738 37.9991 60.956L32.6635 58.3039C32.0232 57.9861 32.0682 57.6025 32.7758 57.4601L46.9854 54.545C47.693 54.4026 47.8166 54.6437 47.2549 55.093L40.1895 60.7258Z" fill="#121214"/>
<path d="M25.3172 61.0436C24.5983 61.0107 24.5309 60.7149 25.16 60.3751L28.0243 58.8738C28.6646 58.545 29.7093 58.5341 30.3495 58.8519L34.5281 60.9231C35.1684 61.2409 35.1123 61.482 34.3821 61.4491L25.3172 61.0436Z" fill="#121214"/>
<path d="M51.5908 54.4464C51.8267 54.7204 51.5122 55.2135 50.8719 55.5423L47.1089 57.5039C46.4686 57.8327 46.4125 57.745 46.9629 57.2957L50.1418 54.7642C50.6922 54.3149 51.3437 54.1724 51.5908 54.4464Z" fill="#121214"/>
<path d="M42.0654 38.0849C41.3914 38.3479 40.9983 37.9972 41.178 37.3178L45.1769 22.1508C45.3566 21.4713 45.9407 21.3069 46.4686 21.7891L56.7242 31.126C57.2522 31.6082 57.1398 32.211 56.4659 32.474L42.0654 38.0849Z" fill="#121214"/>
<path d="M57.6902 28.8795C57.8138 29.5699 57.4881 29.7452 56.9601 29.2631L47.1988 20.3754C46.6708 19.8933 46.6821 19.1261 47.2325 18.6659L53.6464 13.2741C54.1968 12.8139 54.7472 13.0002 54.8708 13.7015L57.6902 28.8795Z" fill="#121214"/>
<path d="M51.4336 50.2163C51.1864 50.8738 50.5911 50.9834 50.1193 50.4464L41.8744 41.1095C41.4026 40.5726 41.5711 39.926 42.2339 39.663L56.5445 34.0849C57.2185 33.8219 57.5555 34.1507 57.3083 34.8082L51.4336 50.2163Z" fill="#121214"/>
<path d="M62.891 24.0357C63.2842 24.6275 63.2505 25.5699 62.8236 26.1398L60.3412 29.3726C59.9143 29.9315 59.4538 29.8329 59.319 29.1425L56.859 15.8604C56.7354 15.17 56.9489 15.0823 57.342 15.6741L62.891 24.0357Z" fill="#121214"/>
<path d="M61.3746 41.3177C61.5993 41.9862 61.3521 42.9177 60.813 43.389L54.0508 49.3615C53.5116 49.8327 53.287 49.6793 53.5341 49.0218L58.6001 35.7507C58.8472 35.0931 59.2404 35.0931 59.4763 35.7616L61.3746 41.3177Z" fill="#121214"/>
<path d="M62.4305 37.8876C62.3519 38.589 62.1047 38.6109 61.8801 37.9424L60.3973 33.6027C60.1727 32.9343 60.3412 31.926 60.768 31.3671L62.7113 28.8247C63.1382 28.2658 63.4302 28.3754 63.3628 29.0767L62.4305 37.8876Z" fill="#121214"/>
<path d="M53.9834 52.9122C53.5566 53.482 53.0062 53.7122 52.759 53.4492C52.5231 53.1752 52.759 52.5725 53.2982 52.0903L56.3423 49.4054C56.8815 48.9341 56.9601 49.0108 56.5333 49.5697L53.9834 52.9122Z" fill="#121214"/>
<path d="M42.9415 17.8001C43.3459 18.3809 43.0988 18.9179 42.3799 18.9837L26.4068 20.5946C25.6879 20.6713 25.3959 20.233 25.7665 19.6193L33.5846 6.56733C33.944 5.9646 34.5843 5.93172 34.9887 6.51254L42.9415 17.8001Z" fill="#121214"/>
<path d="M46.2103 17.5152C45.6599 17.9755 44.8848 17.8768 44.4692 17.296L36.9095 6.55638C36.5051 5.97556 36.7298 5.69063 37.4038 5.90981L52.3771 10.8742C53.0623 11.1043 53.1746 11.6632 52.6242 12.1235L46.2103 17.5152Z" fill="#121214"/>
<path d="M39.6503 36.9781C39.4706 37.6575 38.9426 37.7781 38.4709 37.252L26.0811 23.2138C25.6093 22.6768 25.8115 22.1837 26.5304 22.1069L42.7393 20.4741C43.4582 20.3974 43.8963 20.9015 43.7166 21.5809L39.6503 36.9781Z" fill="#121214"/>
<path d="M24.1939 19.2248C23.8345 19.8275 23.1493 19.8933 22.6775 19.3563L14.4326 10.0194C13.9608 9.48238 14.1518 8.93444 14.8595 8.78102L31.3493 5.39474C32.0569 5.25228 32.3377 5.62488 31.9671 6.23857L24.1939 19.2248Z" fill="#121214"/>
<path d="M37.3925 4.29886C36.7073 4.06872 36.6736 3.61941 37.3027 3.27969L40.9533 1.37286C41.5936 1.04409 42.5484 1.15368 43.0988 1.61395L50.7484 8.21116C51.2875 8.68239 51.1752 8.86869 50.49 8.64951L37.3925 4.29886Z" fill="#121214"/>
<path d="M16.3759 6.91802C15.6682 7.06048 15.5447 6.81939 16.1063 6.37008L23.1605 0.737244C23.7222 0.287932 24.6994 0.189303 25.3509 0.507109L30.6978 3.15914C31.338 3.47695 31.2931 3.86051 30.5854 4.00297L16.3759 6.91802Z" fill="#121214"/>
<path d="M35.3481 2.57833C34.7079 2.90709 33.6632 2.91805 33.023 2.60024L28.8443 0.529026C28.2041 0.21122 28.2602 -0.0298735 28.9904 0.00300293L38.0553 0.408479C38.7742 0.441356 38.8416 0.737244 38.2125 1.07697L35.3481 2.57833Z" fill="#121214"/>
<path d="M13.2307 6.69884C12.6691 7.14815 12.0176 7.29062 11.7817 7.01665C11.5458 6.74268 11.8603 6.24953 12.5006 5.92076L16.2636 3.95914C16.9038 3.63037 16.96 3.71804 16.4096 4.16735L13.2307 6.69884Z" fill="#121214"/>
<path d="M8.40059 51.3012C8.68141 51.0711 9.29922 51.3012 9.79346 51.8273L12.5455 54.7971C13.0285 55.3231 12.9499 55.3998 12.377 54.9834L8.93977 52.4957C8.36689 52.0793 8.11977 51.5423 8.40059 51.3012Z" fill="#121214"/>
<path d="M55.9828 11.3125C56.2637 11.0824 56.7691 11.3892 57.1061 12.0139L59.1168 15.6851C59.4538 16.3097 59.3639 16.3645 58.9034 15.8275L56.3086 12.7262C55.8593 12.1892 55.7133 11.5426 55.9828 11.3125Z" fill="#121214"/>
<path d="M54.4215 8.96732C55.0056 9.38375 55.2415 9.92073 54.9719 10.1618C54.6911 10.392 54.0733 10.1618 53.579 9.6358L50.827 6.66597C50.344 6.13994 50.4226 6.06323 50.9955 6.47966L54.4215 8.96732Z" fill="#121214"/>
<path d="M7.05265 48.7369C7.5132 49.2848 7.65922 49.9204 7.3784 50.1506C7.09758 50.3807 6.59211 50.0739 6.25512 49.4492L4.24445 45.778C3.90746 45.1533 3.99733 45.0985 4.45787 45.6355L7.05265 48.7369Z" fill="#121214"/>
<path d="M100.671 18.5483C102.899 19.8026 104.663 21.5014 105.962 23.6289C107.26 25.7723 107.918 28.122 107.918 30.6782C107.918 33.2344 107.26 35.6 105.962 37.7593C104.663 39.9185 102.883 41.6332 100.671 42.9034C98.442 44.1735 96.0049 44.8086 93.3273 44.8086C90.6658 44.8086 88.2126 44.1735 85.984 42.9034C83.7553 41.6332 81.9916 39.9185 80.6929 37.7593C79.3942 35.6 78.7368 33.2344 78.7368 30.6782C78.7368 28.122 79.3942 25.7723 80.6929 23.6289C81.9916 21.4855 83.7713 19.8026 85.984 18.5483C88.2126 17.294 90.6497 16.6748 93.3273 16.6748C96.0049 16.659 98.442 17.294 100.671 18.5483ZM87.4591 20.6599C85.6473 21.6919 84.2042 23.0891 83.146 24.8514C82.0718 26.6137 81.5427 28.5666 81.5427 30.6782C81.5427 32.7898 82.0718 34.7427 83.146 36.5368C84.2042 38.3309 85.6473 39.7439 87.4591 40.7917C89.2708 41.8396 91.243 42.3636 93.3754 42.3636C95.4758 42.3636 97.4319 41.8396 99.2277 40.7917C101.023 39.7439 102.466 38.3309 103.525 36.5368C104.583 34.7427 105.128 32.7898 105.128 30.6782C105.128 28.1062 104.326 25.7723 102.739 23.7083C101.969 22.708 101.023 21.8189 99.9652 21.1204C97.961 19.7867 95.7644 19.1199 93.3754 19.1199C91.243 19.1199 89.2708 19.6279 87.4591 20.6599Z" fill="#121214"/>
<path d="M137.484 43.9989L131.84 35.5524C130.99 35.6 130.333 35.6318 129.884 35.6318H122.204V43.2844C122.204 43.9989 121.626 44.5704 120.905 44.5704H120.745C120.023 44.5704 119.446 43.9989 119.446 43.2844V16.8971H129.884C133.379 16.8971 136.073 17.6909 137.981 19.2945C139.889 20.8981 140.835 23.1526 140.835 26.0898C140.835 28.3919 140.273 30.2972 139.151 31.8372C138.029 33.3614 136.425 34.441 134.357 35.0443L139.648 42.5541C140.257 43.4114 139.632 44.5863 138.574 44.5863C138.141 44.5863 137.724 44.364 137.484 43.9989ZM129.884 33.1709C132.545 33.1709 134.598 32.5676 136.041 31.3768C137.484 30.1702 138.205 28.4396 138.205 26.1692C138.205 23.9464 137.484 22.2635 136.041 21.1045C134.598 19.9455 132.545 19.358 129.884 19.358H122.204V33.1709H129.884Z" fill="#121214"/>
<path d="M172.084 18.7071C173.671 19.9296 174.457 21.6284 174.457 23.7877C174.457 25.423 173.992 26.8043 173.078 27.8998C172.164 29.0111 170.865 29.7415 169.214 30.0749C171.266 30.3448 172.87 31.091 174.008 32.3294C175.146 33.5678 175.724 35.1396 175.724 37.0448C175.724 39.4263 174.826 41.2681 173.046 42.5858C171.266 43.9036 168.781 44.5704 165.606 44.5704H153.774V16.8653H165.494C168.3 16.8653 170.497 17.4687 172.084 18.7071ZM169.984 27.8045C171.074 26.9471 171.619 25.7246 171.619 24.1369C171.619 22.6128 171.074 21.422 169.984 20.5805C168.893 19.7391 167.354 19.3263 165.382 19.358H156.547V29.0905H165.382C167.354 29.0905 168.893 28.6618 169.984 27.8045ZM170.962 40.7124C172.276 39.7756 172.934 38.4579 172.934 36.7749C172.934 35.1078 172.26 33.8218 170.93 32.901C169.599 31.9801 167.739 31.5197 165.366 31.5197H156.531V42.1254H165.366C167.787 42.1254 169.647 41.6491 170.962 40.7124Z" fill="#121214"/>
<path d="M199.742 19.7708C198.379 19.3898 197.096 19.1992 195.91 19.1992C193.986 19.1992 192.447 19.5803 191.292 20.3265C190.138 21.0727 189.561 22.1047 189.561 23.3907C189.561 24.5339 189.881 25.4547 190.523 26.1692C191.164 26.8836 191.95 27.4393 192.879 27.8521C193.809 28.2649 195.092 28.7095 196.711 29.2175C198.603 29.7732 200.127 30.313 201.297 30.8528C202.451 31.3927 203.446 32.1865 204.263 33.2026C205.081 34.2346 205.482 35.6 205.482 37.283C205.482 38.7595 205.065 40.0614 204.215 41.2046C203.381 42.3477 202.195 43.2209 200.672 43.8401C199.149 44.4593 197.401 44.7768 195.429 44.7768C193.489 44.7768 191.581 44.3958 189.737 43.6337C188.246 43.0145 186.915 42.2366 185.761 41.2998C185.28 40.9029 185.167 40.2361 185.456 39.6963C185.841 39.0136 186.739 38.8389 187.348 39.3152C188.326 40.0773 189.4 40.6965 190.587 41.1887C192.238 41.8714 193.857 42.2207 195.461 42.2207C197.593 42.2207 199.293 41.792 200.543 40.9347C201.794 40.0773 202.419 38.9183 202.419 37.4735C202.419 36.3145 202.099 35.3619 201.457 34.6157C200.816 33.8694 200.03 33.3138 199.1 32.9168C198.171 32.5199 196.856 32.0595 195.188 31.5356C193.296 30.9481 191.773 30.4083 190.635 29.9002C189.48 29.3922 188.518 28.6142 187.717 27.5981C186.915 26.582 186.514 25.2483 186.514 23.613C186.514 22.2158 186.915 20.9933 187.717 19.9296C188.518 18.8817 189.641 18.0561 191.084 17.5004C192.527 16.9288 194.194 16.6431 196.086 16.6431C197.609 16.6431 199.133 16.8653 200.672 17.3099C201.73 17.6274 202.708 18.0085 203.606 18.453C204.247 18.7706 204.504 19.5327 204.183 20.1677L204.151 20.2471C203.83 20.8822 203.045 21.1203 202.403 20.7869C201.538 20.3741 200.656 20.0407 199.742 19.7708Z" fill="#121214"/>
</svg>
