<svg width="109" height="20" viewBox="0 0 109 20" fill="none" xmlns="http://www.w3.org/2000/svg">
<path d="M33.53 19.2737C33.53 19.9903 33.0524 20.2292 32.4553 19.7515L19.3177 10.3163C18.7206 9.95804 18.7206 9.24145 19.3177 8.88315L32.4553 0.164612C33.0524 -0.193684 33.53 0.0451803 33.53 0.761773V19.2737Z" fill="#3346F2"/>
<path d="M14.6603 19.2737C14.6603 19.9903 14.1826 20.2292 13.5854 19.7515L0.44787 10.3163C-0.14929 9.95804 -0.14929 9.24145 0.44787 8.88315L13.5854 0.164612C14.1826 -0.193684 14.6603 0.0451803 14.6603 0.761773V19.2737Z" fill="#3346F2"/>
<path d="M52.6068 3.90899V16.2105H51.0542V14.7773C50.6959 15.255 50.2182 15.6133 49.7404 15.8522C49.2627 16.0911 48.6655 16.2105 47.949 16.2105C47.2324 16.2105 46.3963 15.9716 45.6797 15.6133C44.9631 15.255 44.4855 14.6579 44.1272 14.0607C43.7689 13.3441 43.53 12.6275 43.53 11.6721C43.53 10.7166 43.7689 10 44.1272 9.28343C44.4855 8.56684 45.0826 8.08911 45.6797 7.73081C46.3963 7.37252 47.1129 7.13365 47.949 7.13365C48.785 7.13365 49.1433 7.25309 49.7404 7.49195C50.2182 7.73082 50.6959 8.0891 51.0542 8.56683V3.78955H52.6068V3.90899ZM48.0684 14.8967C48.6655 14.8967 49.1433 14.7773 49.621 14.5384C50.0988 14.2996 50.4571 13.9413 50.6959 13.4636C50.9348 12.9858 51.0542 12.3887 51.0542 11.7915C51.0542 11.1943 51.0542 10.5972 50.6959 10.2389C50.4571 9.76116 50.0988 9.40286 49.621 9.16399C49.1433 8.92513 48.6655 8.80569 48.0684 8.80569C47.4712 8.80569 46.9936 8.92513 46.5158 9.16399C46.0381 9.40286 45.6798 9.76116 45.4409 10.2389C45.202 10.7166 45.0826 11.1943 45.0826 11.7915C45.0826 12.3887 45.202 12.9858 45.4409 13.4636C45.6798 13.9413 46.0381 14.2996 46.5158 14.5384C46.9936 14.7773 47.4712 14.8967 48.0684 14.8967ZM57.6229 4.62557H59.295V14.7773H65.625V16.2105H57.7425V4.62557H57.6229ZM69.3273 4.62557H70.9994V16.2105H69.3273V4.62557ZM87.0033 16.2105V7.73081L82.8232 14.7773H82.1065L77.9264 7.85025V16.2105H76.3738V4.62557H77.6876L82.4648 12.747L87.2421 4.62557H88.5558V16.2105H87.0033ZM93.9303 4.62557H95.6024V16.2105H93.9303V4.62557ZM103.127 6.05877H99.1853V4.62557H108.74V6.05877H104.799V16.2105H103.127V6.05877Z" fill="#F6F6F6"/>
</svg>
