<svg width="140" height="34" viewBox="0 0 140 34" fill="none" xmlns="http://www.w3.org/2000/svg">
<path d="M16.3253 32.3685C16.6505 32.9105 16.4337 33.344 15.7833 33.344H0.825604C0.175267 33.344 -0.149897 32.8021 0.0668815 32.2601L5.26957 18.6031C5.48635 17.9527 6.0283 17.9527 6.35347 18.4947L16.3253 32.4769V32.3685Z" fill="#2CEDFC"/>
<path d="M35.2935 32.3685C35.6187 32.9105 35.4019 33.344 34.7515 33.344H19.7938C19.1435 33.344 18.8183 32.8021 19.0351 32.2601L24.2378 18.6031C24.4546 17.9527 24.9965 17.9527 25.3217 18.4947L35.2935 32.4769V32.3685Z" fill="#2CEDFC"/>
<path d="M23.2622 14.2677C23.5874 14.8096 23.3706 15.2432 22.7203 15.2432H7.76255C7.11222 15.2432 6.78705 14.7012 7.00383 14.1593L12.2065 0.502229C12.4233 -0.148107 12.9652 -0.148113 13.2904 0.393833L23.2622 14.3761V14.2677Z" fill="#2CEDFC"/>
<path d="M42.2304 14.2677C42.5555 14.8096 42.3388 15.2432 41.6884 15.2432H26.7307C26.0804 15.2432 25.7552 14.7012 25.972 14.1593L31.1747 0.502229C31.3914 -0.148107 31.9334 -0.148113 32.2585 0.393833L42.2304 14.3761V14.2677Z" fill="#2CEDFC"/>
<path d="M49.3799 2.25634H50.8974V11.4694H56.642V12.7701H49.4883V2.25634H49.3799ZM60.0021 2.25634H61.5195V12.7701H60.0021V2.25634ZM77.1276 13.7456C76.8024 14.1792 76.3689 14.5043 75.9353 14.6127C75.5018 14.7211 74.9598 14.9379 74.5263 14.9379C74.0927 14.9379 73.2256 14.8295 72.6837 14.5043C72.1417 14.1792 71.4914 13.6372 70.7326 12.8785C69.7571 12.8785 68.89 12.5533 68.0229 12.1198C67.2642 11.6862 66.6139 11.0359 66.1803 10.1688C65.7467 9.41003 65.53 8.43452 65.53 7.45902C65.53 6.48351 65.7467 5.50801 66.2887 4.74928C66.8306 3.88217 67.481 3.34024 68.3481 2.79829C69.2152 2.36473 70.1907 2.03955 71.1662 2.03955C72.1417 2.03955 73.1172 2.25634 73.9843 2.79829C74.8514 3.23185 75.5018 3.88217 75.9353 4.74928C76.3689 5.50801 76.6941 6.48351 76.6941 7.45902C76.6941 8.43452 76.4773 9.08487 76.1521 9.8436C75.8269 10.6023 75.285 11.1443 74.743 11.6862C74.0927 12.2282 73.4424 12.5533 72.5753 12.6617C72.9004 12.9869 73.2256 13.312 73.5508 13.4204C73.8759 13.6372 74.2011 13.6372 74.5263 13.6372C75.285 13.6372 75.9353 13.3121 76.4773 12.7701L77.236 13.6372L77.1276 13.7456ZM66.939 7.56742C66.939 8.32614 67.1558 8.97647 67.481 9.62681C67.8061 10.2771 68.3481 10.7107 68.9984 11.0359C69.6487 11.361 70.2991 11.5778 71.0578 11.5778C71.8165 11.5778 72.4669 11.361 73.1172 11.0359C73.7675 10.7107 74.2011 10.1688 74.5263 9.62681C74.8514 8.97647 75.0682 8.32614 75.0682 7.56742C75.0682 6.80869 74.8514 6.15836 74.5263 5.50802C74.2011 4.85769 73.6592 4.42413 73.1172 4.09896C72.4669 3.77379 71.8165 3.55701 71.0578 3.55701C70.2991 3.55701 69.5404 3.77379 68.9984 4.09896C68.3481 4.42413 67.9145 4.96608 67.481 5.50802C67.1558 6.15836 66.939 6.80869 66.939 7.56742ZM84.9317 12.8785C83.5226 12.8785 82.4387 12.4449 81.68 11.6862C80.9213 10.9275 80.4877 9.73521 80.4877 8.21776V2.25634H82.0051V8.21776C82.0051 10.4939 82.9807 11.5778 84.9317 11.5778C86.8827 11.5778 86.6659 11.2526 87.0994 10.7107C87.6414 10.1688 87.8582 9.30164 87.8582 8.10936V2.14795H89.2672V8.10936C89.2672 9.62681 88.8337 10.8191 88.0749 11.5778C87.3162 12.3365 86.2323 12.7701 84.8233 12.7701L84.9317 12.8785ZM94.1448 2.25634H95.6622V12.7701H94.1448V2.25634ZM100.431 2.25634H104.875C105.959 2.25634 106.935 2.47311 107.802 2.90667C108.669 3.34023 109.319 3.99056 109.753 4.74928C110.186 5.50801 110.512 6.48351 110.512 7.45902C110.512 8.43452 110.295 9.41003 109.753 10.1688C109.319 10.9275 108.669 11.5778 107.802 12.0114C106.935 12.4449 105.959 12.6617 104.875 12.6617H100.431V2.14795V2.25634ZM104.767 11.4694C105.634 11.4694 106.393 11.2527 107.043 10.9275C107.693 10.6023 108.235 10.1688 108.561 9.51843C108.886 8.86809 109.102 8.21774 109.102 7.45902C109.102 6.70029 108.886 5.94157 108.561 5.39963C108.235 4.74929 107.693 4.31573 107.043 3.99056C106.393 3.66539 105.634 3.44862 104.767 3.44862H101.949V11.361H104.767V11.4694ZM114.522 2.25634H116.039V12.7701H114.522V2.25634ZM122.868 3.55701H119.291V2.25634H127.962V3.55701H124.385V12.7701H122.868V3.55701ZM135.224 9.19326V12.8785H133.707V9.19326L129.48 2.36472H131.106L134.466 7.89259L137.826 2.36472H139.343L135.116 9.19326H135.224ZM58.4846 20.6825V31.1963H56.9672V26.5356H50.8974V31.1963H49.3799V20.6825H50.8974V25.2349H56.9672V20.6825H58.4846ZM67.5894 31.3047C66.1803 31.3047 65.0964 30.8711 64.3377 30.1124C63.579 29.3537 63.1454 28.1614 63.1454 26.6439V20.6825H64.6628V26.6439C64.6628 28.9201 65.6384 30.004 67.5894 30.004C69.5404 30.004 69.3236 29.6788 69.7571 29.1369C70.2991 28.5949 70.5159 27.7278 70.5159 26.5356V20.5741H71.9249V26.5356C71.9249 28.053 71.4914 29.2453 70.7326 30.004C69.9739 30.7627 68.89 31.1963 67.481 31.1963L67.5894 31.3047ZM83.8478 25.7768C84.4981 25.9936 84.9316 26.2104 85.2568 26.7523C85.582 27.1859 85.7988 27.7278 85.7988 28.4866C85.7988 29.2453 85.4736 30.1124 84.7149 30.546C84.0645 31.0879 83.089 31.3047 81.68 31.3047H76.6941V20.7909H81.4632C82.6555 20.7909 83.631 21.0077 84.2813 21.5496C84.9317 21.9832 85.2568 22.7419 85.2568 23.5006C85.2568 24.2594 85.1484 24.4762 84.8233 24.9097C84.6065 25.3433 84.2813 25.6684 83.8478 25.7768ZM78.3199 21.8748V25.2349H81.3548C82.1135 25.2349 82.7639 25.1265 83.089 24.8013C83.5226 24.4761 83.7394 24.0426 83.7394 23.5006C83.7394 22.9587 83.5226 22.5251 83.089 22.2C82.6555 21.8748 82.1135 21.7664 81.3548 21.7664H78.3199V21.8748ZM81.7884 30.004C82.6555 30.004 83.3058 29.8956 83.7394 29.5705C84.1729 29.2453 84.3897 28.8117 84.3897 28.2698C84.3897 27.0775 83.5226 26.5356 81.7884 26.5356H78.3199V30.004H81.7884Z" fill="#F6F6F6"/>
</svg>
