<svg width="43" height="34" viewBox="0 0 43 34" fill="none" xmlns="http://www.w3.org/2000/svg">
<path d="M16.3253 32.3685C16.6505 32.9105 16.4337 33.344 15.7833 33.344H0.825604C0.175267 33.344 -0.149897 32.8021 0.0668815 32.2601L5.26957 18.6031C5.48635 17.9527 6.0283 17.9527 6.35347 18.4947L16.3253 32.4769V32.3685Z" fill="#2CEDFC"/>
<path d="M35.2935 32.3685C35.6187 32.9105 35.4019 33.344 34.7515 33.344H19.7938C19.1435 33.344 18.8183 32.8021 19.0351 32.2601L24.2378 18.6031C24.4546 17.9527 24.9965 17.9527 25.3217 18.4947L35.2935 32.4769V32.3685Z" fill="#2CEDFC"/>
<path d="M23.2622 14.2677C23.5874 14.8096 23.3706 15.2432 22.7203 15.2432H7.76255C7.11222 15.2432 6.78705 14.7012 7.00383 14.1593L12.2065 0.502229C12.4233 -0.148107 12.9652 -0.148113 13.2904 0.393833L23.2622 14.3761V14.2677Z" fill="#2CEDFC"/>
<path d="M42.2304 14.2677C42.5555 14.8096 42.3388 15.2432 41.6884 15.2432H26.7307C26.0804 15.2432 25.7552 14.7012 25.972 14.1593L31.1747 0.502229C31.3914 -0.148107 31.9334 -0.148113 32.2585 0.393833L42.2304 14.3761V14.2677Z" fill="#2CEDFC"/>
</svg>
