<svg width="49" height="32" viewBox="0 0 49 32" fill="none" xmlns="http://www.w3.org/2000/svg">
<path d="M14.9157 14.5284C14.2055 14.5284 13.9688 14.055 14.4422 13.4632L23.7925 0.44384C24.1475 -0.147947 24.8577 -0.147947 25.2128 0.44384L33.8529 13.4632C34.2079 14.055 33.9712 14.5284 33.2611 14.5284L14.9157 14.5284Z" fill="#F27272"/>
<path d="M14.9157 14.5284C14.2055 14.5284 13.9688 14.055 14.4422 13.4632L23.7925 0.44384C24.1475 -0.147947 24.8577 -0.147947 25.2128 0.44384L33.8529 13.4632C34.2079 14.055 33.9712 14.5284 33.2611 14.5284L14.9157 14.5284Z" fill="#F27272"/>
<path d="M33.4611 17.4716C34.1712 17.4716 34.4079 17.945 33.9345 18.5368L24.5842 31.5562C24.2292 32.1479 23.519 32.1479 23.164 31.5562L14.5239 18.5368C14.1688 17.945 14.4055 17.4716 15.1156 17.4716L33.4611 17.4716Z" fill="#F27272"/>
<path d="M48.0933 0.000150324C48.8034 0.000150417 49.0401 0.47361 48.5667 1.0654L39.2164 14.0847C38.8614 14.6765 38.1512 14.6765 37.7962 14.0847L29.1561 1.06539C28.801 0.473607 29.0377 0.000147825 29.7478 0.000147919L48.0933 0.000150324Z" fill="#F27272"/>
<path d="M19.1003 0.000150324C19.8105 0.000150417 20.0472 0.47361 19.5738 1.0654L10.2235 14.0847C9.86845 14.6765 9.15831 14.6765 8.80324 14.0847L0.163133 1.06539C-0.191939 0.473607 0.0447758 0.000147825 0.754921 0.000147919L19.1003 0.000150324Z" fill="#F27272"/>
</svg>
