<svg width="112" height="20" viewBox="0 0 112 20" fill="none" xmlns="http://www.w3.org/2000/svg">
<path d="M0 0.726265C0 0.00967318 0.477757 -0.229184 1.07492 0.248545L14.2124 9.68367C14.8096 10.042 14.8096 10.7586 14.2124 11.1168L1.07492 19.8354C0.477757 20.1937 0 19.9548 0 19.2382V0.726265Z" fill="#7A89E9"/>
<path d="M18.8704 0.726265C18.8704 0.00967318 19.3481 -0.229184 19.9453 0.248545L33.0828 9.68367C33.68 10.042 33.68 10.7586 33.0828 11.1168L19.9453 19.8354C19.3481 20.1937 18.8704 19.9548 18.8704 19.2382V0.726265Z" fill="#7A89E9"/>
<path d="M51.6074 3.90897V16.2105H50.0548V14.7773C49.6965 15.255 49.2188 15.6133 48.7411 15.8522C48.144 16.091 47.5468 16.2105 46.9496 16.2105C46.3525 16.2105 45.397 15.9716 44.6804 15.6133C43.9638 15.255 43.4861 14.6579 43.1278 14.0607C42.7695 13.3441 42.5306 12.6275 42.5306 11.6721C42.5306 10.7166 42.7695 10 43.1278 9.28341C43.4861 8.56682 44.0832 8.08911 44.6804 7.73081C45.397 7.37251 46.1136 7.13365 46.9496 7.13365C47.7857 7.13365 48.144 7.25307 48.7411 7.49193C49.2188 7.7308 49.6965 8.0891 50.0548 8.56683V3.78955H51.6074V3.90897ZM47.069 14.8967C47.6662 14.8967 48.1439 14.7773 48.6216 14.5384C49.0994 14.2996 49.4577 13.9413 49.6966 13.4635C49.9354 12.9858 50.0548 12.3887 50.0548 11.7915C50.0548 11.1943 49.9354 10.5972 49.6966 10.2389C49.4577 9.76114 49.0994 9.40286 48.6216 9.16399C48.1439 8.92513 47.6662 8.80569 47.069 8.80569C46.4719 8.80569 45.9942 8.92513 45.5164 9.16399C45.0387 9.40286 44.6804 9.76114 44.4415 10.2389C44.2027 10.7166 44.0832 11.1943 44.0832 11.7915C44.0832 12.3887 44.2027 12.9858 44.4415 13.4635C44.6804 13.9413 45.0387 14.2996 45.5164 14.5384C45.9942 14.7773 46.4719 14.8967 47.069 14.8967ZM58.8928 6.05875H54.9516V4.62557H64.5062V6.05875H60.5648V16.2105H58.8928V6.05875ZM84.4513 4.62557L80.6295 16.2105H78.838L75.7327 7.01421L72.6275 16.2105H70.836L67.0142 4.62557H68.6863L71.7915 14.0607L75.0162 4.62557H76.5688L79.7934 14.0607L83.0181 4.62557H84.5707H84.4513ZM95.3196 13.3441H89.1091L87.7954 16.2105H86.1233L91.3784 4.62557H93.0504L98.3054 16.2105H96.5139L95.2001 13.3441H95.3196ZM94.7225 12.0304L92.2143 6.29761L89.7063 12.0304H94.7225ZM106.307 4.62557C107.86 4.62557 108.935 4.98386 109.89 5.70045C110.726 6.41704 111.204 7.3725 111.204 8.68625C111.204 10 110.726 10.9555 109.89 11.6721C109.054 12.3886 107.86 12.747 106.307 12.747H103.441V16.2105H101.769V4.62557H106.307ZM106.307 11.1943C107.382 11.1943 108.099 10.9555 108.696 10.4777C109.293 10 109.532 9.40286 109.532 8.56683C109.532 7.73081 109.293 7.13364 108.696 6.65591C108.099 6.17818 107.382 5.93933 106.307 5.93933H103.441V11.1943H106.307Z" fill="#F6F6F6"/>
</svg>
