<svg width="124" height="32" viewBox="0 0 124 32" fill="none" xmlns="http://www.w3.org/2000/svg">
<path d="M14.9157 14.5284C14.2055 14.5284 13.9688 14.055 14.4422 13.4632L23.7925 0.44384C24.1475 -0.147947 24.8577 -0.147947 25.2128 0.44384L33.8529 13.4632C34.2079 14.055 33.9712 14.5284 33.2611 14.5284L14.9157 14.5284Z" fill="#F27272"/>
<path d="M14.9157 14.5284C14.2055 14.5284 13.9688 14.055 14.4422 13.4632L23.7925 0.44384C24.1475 -0.147947 24.8577 -0.147947 25.2128 0.44384L33.8529 13.4632C34.2079 14.055 33.9712 14.5284 33.2611 14.5284L14.9157 14.5284Z" fill="#F27272"/>
<path d="M33.4611 17.4716C34.1712 17.4716 34.4079 17.945 33.9345 18.5368L24.5842 31.5562C24.2292 32.1479 23.519 32.1479 23.164 31.5562L14.5239 18.5368C14.1688 17.945 14.4055 17.4716 15.1156 17.4716L33.4611 17.4716Z" fill="#F27272"/>
<path d="M48.0933 0.000150324C48.8034 0.000150417 49.0401 0.47361 48.5667 1.0654L39.2164 14.0847C38.8614 14.6765 38.1512 14.6765 37.7962 14.0847L29.1561 1.06539C28.801 0.473607 29.0377 0.000147825 29.7478 0.000147919L48.0933 0.000150324Z" fill="#F27272"/>
<path d="M19.1003 0.000150324C19.8105 0.000150417 20.0472 0.47361 19.5738 1.0654L10.2235 14.0847C9.86845 14.6765 9.15831 14.6765 8.80324 14.0847L0.163133 1.06539C-0.191939 0.473607 0.0447758 0.000147825 0.754921 0.000147919L19.1003 0.000150324Z" fill="#F27272"/>
<path d="M61.0073 21.7268C60.1472 21.7268 59.3764 21.5369 58.695 21.1571C58.0248 20.7773 57.4942 20.2467 57.1033 19.5653C56.7123 18.8839 56.5168 18.0908 56.5168 17.1861C56.5168 16.2813 56.7123 15.4938 57.1033 14.8236C57.4942 14.1422 58.0248 13.6116 58.695 13.2318C59.3764 12.852 60.1472 12.6621 61.0073 12.6621C61.7557 12.6621 62.4315 12.8297 63.0347 13.1648C63.6379 13.4999 64.1182 14.0025 64.4756 14.6728C64.8442 15.343 65.0285 16.1807 65.0285 17.1861C65.0285 18.1914 64.8498 19.0291 64.4924 19.6994C64.1461 20.3696 63.6714 20.8778 63.0682 21.2241C62.465 21.5592 61.778 21.7268 61.0073 21.7268ZM61.1413 20.3193C61.6998 20.3193 62.2025 20.1908 62.6493 19.9339C63.1073 19.677 63.4647 19.314 63.7216 18.8448C63.9897 18.3645 64.1238 17.8116 64.1238 17.1861C64.1238 16.5494 63.9897 16.002 63.7216 15.544C63.4647 15.0749 63.1073 14.7118 62.6493 14.4549C62.2025 14.198 61.6998 14.0696 61.1413 14.0696C60.5716 14.0696 60.0634 14.198 59.6166 14.4549C59.1698 14.7118 58.8123 15.0749 58.5442 15.544C58.2761 16.002 58.1421 16.5494 58.1421 17.1861C58.1421 17.8116 58.2761 18.3645 58.5442 18.8448C58.8123 19.314 59.1698 19.677 59.6166 19.9339C60.0634 20.1908 60.5716 20.3193 61.1413 20.3193ZM64.174 21.6262V19.2302L64.2746 17.1693L64.107 15.1084V9.19376H65.7155V21.6262H64.174ZM74.2547 21.7603C73.3611 21.7603 72.5066 21.6262 71.6912 21.3581C70.8757 21.0789 70.2334 20.7214 69.7643 20.2858L70.3842 18.9789C70.831 19.3698 71.4007 19.6938 72.0933 19.9507C72.7858 20.2076 73.5063 20.3361 74.2547 20.3361C74.9361 20.3361 75.489 20.2579 75.9135 20.1015C76.338 19.9451 76.6507 19.7329 76.8518 19.4648C77.0529 19.1855 77.1534 18.8728 77.1534 18.5265C77.1534 18.1244 77.0194 17.8004 76.7513 17.5547C76.4943 17.3089 76.1537 17.1134 75.7292 16.9682C75.3159 16.8119 74.8579 16.6778 74.3553 16.5661C73.8526 16.4544 73.3443 16.3259 72.8305 16.1807C72.3279 16.0244 71.8643 15.8289 71.4398 15.5943C71.0265 15.3597 70.6914 15.047 70.4345 14.656C70.1776 14.2539 70.0491 13.74 70.0491 13.1145C70.0491 12.5113 70.2055 11.9584 70.5183 11.4557C70.8422 10.9419 71.3337 10.5342 71.9927 10.2326C72.663 9.91982 73.5119 9.76344 74.5396 9.76344C75.2209 9.76344 75.8967 9.8528 76.567 10.0315C77.2372 10.2102 77.818 10.4672 78.3095 10.8023L77.7566 12.1427C77.2539 11.8076 76.7233 11.5674 76.1648 11.4222C75.6063 11.2658 75.0646 11.1876 74.5396 11.1876C73.8805 11.1876 73.3388 11.2714 72.9143 11.439C72.4898 11.6065 72.1771 11.8299 71.976 12.1092C71.7861 12.3884 71.6912 12.7012 71.6912 13.0475C71.6912 13.4608 71.8196 13.7903 72.0765 14.0361C72.3446 14.2818 72.6853 14.4773 73.0986 14.6225C73.5231 14.7677 73.9866 14.9017 74.4893 15.0246C74.992 15.1363 75.4946 15.2648 75.9973 15.41C76.5111 15.5552 76.9747 15.7451 77.388 15.9797C77.8124 16.2142 78.1531 16.527 78.41 16.918C78.667 17.3089 78.7954 17.8116 78.7954 18.426C78.7954 19.018 78.6334 19.5709 78.3095 20.0847C77.9856 20.5874 77.4829 20.9951 76.8015 21.3079C76.1313 21.6095 75.2824 21.7603 74.2547 21.7603ZM83.0864 21.6262V9.89748H84.7619V20.1685H91.1122V21.6262H83.0864ZM95.9306 21.6262V11.3552H91.9093V9.89748H101.611V11.3552H97.5894V21.6262H95.9306ZM105.279 21.6262V9.89748H109.853C110.881 9.89748 111.757 10.0595 112.483 10.3834C113.21 10.7073 113.768 11.1765 114.159 11.7908C114.55 12.4052 114.745 13.1368 114.745 13.9858C114.745 14.8347 114.55 15.5664 114.159 16.1807C113.768 16.7839 113.21 17.2531 112.483 17.5882C111.757 17.9121 110.881 18.0741 109.853 18.0741H106.2L106.954 17.2866V21.6262H105.279ZM106.954 17.4541L106.2 16.6164H109.803C110.875 16.6164 111.685 16.3874 112.232 15.9294C112.791 15.4714 113.07 14.8236 113.07 13.9858C113.07 13.148 112.791 12.5001 112.232 12.0422C111.685 11.5842 110.875 11.3552 109.803 11.3552H106.2L106.954 10.5174V17.4541Z" fill="#F6F6F6"/>
</svg>
