<svg width="698" height="754" viewBox="0 0 698 754" fill="none" xmlns="http://www.w3.org/2000/svg">
<g filter="url(#filter0_f_351_21866)">
<path d="M102.066 376.651L254.975 322.246C343.539 290.736 425.615 243.34 497.176 182.385L620.517 77.323L620.517 675.978L486.812 562.027C407.932 494.802 316.342 444.119 217.487 412.993L102.066 376.651Z" fill="url(#paint0_linear_351_21866)"/>
</g>
<path d="M26.7728 388.909C26.5082 389.91 25.6482 390.152 24.8874 389.442L9.78821 375.695C9.01093 374.985 9.1763 374.098 10.1686 373.71L31.3538 365.45C32.3461 365.062 32.9249 365.579 32.6603 366.579L26.7728 388.909Z" fill="url(#paint1_linear_351_21866)"/>
<path d="M14.3031 401.978C13.4927 402.656 12.6824 402.382 12.5005 401.349L8.36594 379.003C8.18403 377.986 8.66363 377.728 9.44092 378.438L23.8125 391.523C24.5897 392.233 24.5732 393.362 23.7628 394.04L14.3031 401.978Z" fill="url(#paint2_linear_351_21866)"/>
<path d="M31.6349 360.996C32.3295 361.787 32.0815 362.739 31.1057 363.126L10.0363 371.339C9.044 371.726 8.54786 371.242 8.9117 370.274L17.5611 347.589C17.9249 346.62 18.8014 346.459 19.496 347.25L31.6349 360.996Z" fill="url(#paint3_linear_351_21866)"/>
<path d="M9.57322 398.171C9.75514 399.187 9.44091 399.316 8.86208 398.445L0.692298 386.134C0.113467 385.263 0.163081 383.875 0.791526 383.036L4.44643 378.26C5.07487 377.438 5.75294 377.583 5.95139 378.599L9.57322 398.171Z" fill="url(#paint4_linear_351_21866)"/>
<path d="M6.99329 368.886C6.62945 369.854 6.05062 369.854 5.70332 368.87L2.90839 360.706C2.57763 359.722 2.94147 358.35 3.7353 357.657L13.6912 348.863C14.485 348.169 14.8158 348.395 14.4519 349.363L6.99329 368.886Z" fill="url(#paint5_linear_351_21866)"/>
<path d="M4.36374 372.032C4.6945 373.017 4.46297 374.501 3.81798 375.324L0.973445 379.067C0.345 379.89 -0.0849889 379.729 0.0142392 378.696L1.3869 365.724C1.50266 364.691 1.8665 364.659 2.19726 365.643L4.36374 372.032Z" fill="url(#paint6_linear_351_21866)"/>
<path d="M15.5931 342.829C15.9404 343.232 15.5931 344.12 14.7992 344.83L10.334 348.783C9.54014 349.476 9.42438 349.363 10.0528 348.541L13.807 343.619C14.4354 342.78 15.2458 342.425 15.5931 342.829Z" fill="url(#paint7_linear_351_21866)"/>
<path d="M43.84 411.853C43.3108 412.74 42.3681 412.789 41.7728 411.933L30.0638 395.315C29.4685 394.46 29.8323 393.669 30.8907 393.572L54.4078 391.2C55.4663 391.087 55.8962 391.733 55.3505 392.636L43.84 411.853Z" fill="url(#paint8_linear_351_21866)"/>
<path d="M38.9448 411.869C39.5401 412.724 39.2094 413.143 38.2171 412.821L16.1719 405.512C15.1631 405.173 14.9977 404.35 15.8081 403.672L25.2513 395.734C26.0616 395.057 27.2028 395.202 27.8147 396.057L38.9448 411.869Z" fill="url(#paint9_linear_351_21866)"/>
<path d="M54.9039 387.344C55.5985 388.135 55.3009 388.861 54.2424 388.974L30.3781 391.378C29.3196 391.491 28.6746 390.749 28.9392 389.748L34.9095 367.079C35.1741 366.079 35.9514 365.901 36.646 366.676L54.9039 387.344Z" fill="url(#paint10_linear_351_21866)"/>
<path d="M72.0373 406.77C72.7319 407.561 72.4508 408.368 71.4089 408.594L47.1311 413.579C46.0892 413.789 45.6757 413.24 46.2215 412.337L57.6658 393.233C58.195 392.346 59.2038 392.249 59.8984 393.04L72.0373 406.77Z" fill="url(#paint11_linear_351_21866)"/>
<path d="M32.9911 419.517C32.0484 420.001 30.6427 419.839 29.8488 419.162L18.5699 409.449C17.7761 408.755 17.9415 408.481 18.9503 408.803L38.2336 415.193C39.2424 415.531 39.2921 416.193 38.3659 416.693L32.9911 419.517Z" fill="url(#paint12_linear_351_21866)"/>
<path d="M59.1708 420.436C58.3439 421.098 56.905 421.243 55.9458 420.775L48.0903 416.871C47.1476 416.403 47.2138 415.838 48.2557 415.628L69.1763 411.336C70.2182 411.127 70.4001 411.482 69.5732 412.143L59.1708 420.436Z" fill="url(#paint13_linear_351_21866)"/>
<path d="M37.2744 420.904C36.216 420.856 36.1168 420.42 37.0429 419.92L41.2601 417.71C42.2027 417.226 43.7408 417.209 44.6834 417.677L50.8356 420.727C51.7783 421.195 51.6956 421.55 50.6206 421.501L37.2744 420.904Z" fill="url(#paint14_linear_351_21866)"/>
<path d="M75.9569 411.191C76.3042 411.595 75.8411 412.321 74.8984 412.805L69.3582 415.693C68.4155 416.177 68.3328 416.048 69.1432 415.386L73.8234 411.659C74.6338 410.998 75.593 410.788 75.9569 411.191Z" fill="url(#paint15_linear_351_21866)"/>
<path d="M61.9326 387.102C60.9403 387.489 60.3615 386.973 60.6261 385.973L66.5136 363.642C66.7782 362.642 67.6382 362.4 68.4155 363.11L83.5147 376.857C84.292 377.567 84.1266 378.454 83.1344 378.841L61.9326 387.102Z" fill="url(#paint16_linear_351_21866)"/>
<path d="M84.937 373.549C85.1189 374.566 84.6393 374.824 83.862 374.114L69.4905 361.029C68.7132 360.319 68.7298 359.189 69.5401 358.512L78.9833 350.573C79.7937 349.896 80.604 350.17 80.7859 351.203L84.937 373.549Z" fill="url(#paint17_linear_351_21866)"/>
<path d="M75.7253 404.963C75.3615 405.931 74.485 406.093 73.7904 405.302L61.6515 391.555C60.9569 390.765 61.2049 389.813 62.1807 389.426L83.2501 381.213C84.2424 380.826 84.7386 381.31 84.3747 382.278L75.7253 404.963Z" fill="url(#paint18_linear_351_21866)"/>
<path d="M92.5941 366.418C93.173 367.289 93.1233 368.676 92.4949 369.515L88.84 374.275C88.2115 375.098 87.5335 374.953 87.335 373.936L83.7132 354.381C83.5313 353.365 83.8455 353.236 84.4243 354.107L92.5941 366.418Z" fill="url(#paint19_linear_351_21866)"/>
<path d="M90.3615 391.862C90.6922 392.846 90.3284 394.218 89.5346 394.911L79.5787 403.705C78.7849 404.399 78.4541 404.173 78.8179 403.205L86.2766 383.666C86.6404 382.697 87.2193 382.697 87.5666 383.682L90.3615 391.862Z" fill="url(#paint20_linear_351_21866)"/>
<path d="M91.916 386.812C91.8003 387.844 91.4364 387.877 91.1057 386.892L88.9227 380.503C88.5919 379.519 88.84 378.035 89.4684 377.212L92.3295 373.468C92.9579 372.646 93.3879 372.807 93.2887 373.84L91.916 386.812Z" fill="url(#paint21_linear_351_21866)"/>
<path d="M79.4795 408.932C78.851 409.771 78.0406 410.11 77.6768 409.723C77.3295 409.32 77.6768 408.432 78.4706 407.722L82.9524 403.769C83.7463 403.075 83.862 403.188 83.2336 404.011L79.4795 408.932Z" fill="url(#paint22_linear_351_21866)"/>
<path d="M63.2226 357.237C63.8179 358.092 63.4541 358.883 62.3957 358.98L38.8786 361.351C37.8202 361.464 37.3902 360.819 37.9359 359.915L49.4464 340.699C49.9756 339.812 50.9183 339.763 51.5137 340.618L63.2226 357.237Z" fill="url(#paint23_linear_351_21866)"/>
<path d="M68.0351 356.818C67.2248 357.495 66.0836 357.35 65.4717 356.495L54.3417 340.683C53.7463 339.828 54.077 339.408 55.0693 339.731L77.1145 347.04C78.1233 347.379 78.2887 348.202 77.4783 348.879L68.0351 356.818Z" fill="url(#paint24_linear_351_21866)"/>
<path d="M58.3769 385.473C58.1123 386.473 57.335 386.65 56.6404 385.876L38.399 365.208C37.7044 364.417 38.0021 363.691 39.0605 363.578L62.9249 361.174C63.9833 361.061 64.6283 361.803 64.3637 362.803L58.3769 385.473Z" fill="url(#paint25_linear_351_21866)"/>
<path d="M35.6206 359.335C35.0914 360.222 34.0826 360.319 33.388 359.528L21.2491 345.781C20.5545 344.991 20.8356 344.184 21.8775 343.958L46.1553 338.973C47.1972 338.763 47.6107 339.312 47.0649 340.215L35.6206 359.335Z" fill="url(#paint26_linear_351_21866)"/>
<path d="M55.0528 337.359C54.044 337.02 53.9944 336.359 54.9205 335.859L60.2953 333.051C61.238 332.567 62.6437 332.729 63.4541 333.406L74.7165 343.119C75.5103 343.813 75.3449 344.087 74.3361 343.765L55.0528 337.359Z" fill="url(#paint27_linear_351_21866)"/>
<path d="M24.1101 341.215C23.0682 341.425 22.8863 341.07 23.7132 340.409L34.0991 332.115C34.926 331.454 36.3648 331.309 37.324 331.777L45.1961 335.681C46.1388 336.149 46.0726 336.714 45.0307 336.924L24.1101 341.215Z" fill="url(#paint28_linear_351_21866)"/>
<path d="M52.0429 334.826C51.1002 335.31 49.5622 335.326 48.6195 334.858L42.4674 331.809C41.5247 331.341 41.6074 330.986 42.6823 331.034L56.0285 331.631C57.087 331.68 57.1862 332.115 56.2601 332.616L52.0429 334.826Z" fill="url(#paint29_linear_351_21866)"/>
<path d="M19.4795 340.893C18.6526 341.554 17.6934 341.764 17.3461 341.361C16.9988 340.957 17.4619 340.231 18.4045 339.747L23.9448 336.859C24.8874 336.375 24.9701 336.504 24.1598 337.166L19.4795 340.893Z" fill="url(#paint30_linear_351_21866)"/>
<path d="M12.3681 406.561C12.7816 406.222 13.6912 406.561 14.4189 407.335L18.4707 411.707C19.1818 412.482 19.066 412.595 18.2226 411.982L13.162 408.319C12.3185 407.706 11.9547 406.916 12.3681 406.561Z" fill="url(#paint31_linear_351_21866)"/>
<path d="M82.4232 347.685C82.8367 347.347 83.5809 347.798 84.077 348.718L87.0373 354.123C87.5335 355.043 87.4012 355.123 86.7231 354.333L82.9028 349.767C82.2413 348.976 82.0263 348.024 82.4232 347.685Z" fill="url(#paint32_linear_351_21866)"/>
<path d="M80.1244 344.233C80.9844 344.846 81.3317 345.636 80.9348 345.991C80.5213 346.33 79.6117 345.991 78.8841 345.217L74.8323 340.844C74.1211 340.07 74.2369 339.957 75.0803 340.57L80.1244 344.233Z" fill="url(#paint33_linear_351_21866)"/>
<path d="M10.3836 402.785C11.0616 403.592 11.2766 404.528 10.8632 404.866C10.4497 405.205 9.70552 404.753 9.20938 403.834L6.24907 398.429C5.75293 397.509 5.88524 397.428 6.5633 398.219L10.3836 402.785Z" fill="url(#paint34_linear_351_21866)"/>
<defs>
<filter id="filter0_f_351_21866" x="24.7433" y="3.05176e-05" width="673.096" height="753.301" filterUnits="userSpaceOnUse" color-interpolation-filters="sRGB">
<feFlood flood-opacity="0" result="BackgroundImageFix"/>
<feBlend mode="normal" in="SourceGraphic" in2="BackgroundImageFix" result="shape"/>
<feGaussianBlur stdDeviation="38.6615" result="effect1_foregroundBlur_351_21866"/>
</filter>
<linearGradient id="paint0_linear_351_21866" x1="793.334" y1="376.651" x2="102.066" y2="376.651" gradientUnits="userSpaceOnUse">
<stop offset="0.0576923" stop-color="#121214"/>
<stop offset="0.745192" stop-color="#3346F2"/>
</linearGradient>
<linearGradient id="paint1_linear_351_21866" x1="46.6515" y1="331.03" x2="46.7389" y2="441.238" gradientUnits="userSpaceOnUse">
<stop stop-color="#DA88DE"/>
<stop offset="0.373617" stop-color="#5E75E8"/>
<stop offset="1" stop-color="#80C6EB"/>
</linearGradient>
<linearGradient id="paint2_linear_351_21866" x1="46.6515" y1="331.03" x2="46.7389" y2="441.238" gradientUnits="userSpaceOnUse">
<stop stop-color="#DA88DE"/>
<stop offset="0.373617" stop-color="#5E75E8"/>
<stop offset="1" stop-color="#80C6EB"/>
</linearGradient>
<linearGradient id="paint3_linear_351_21866" x1="46.6515" y1="331.03" x2="46.7389" y2="441.238" gradientUnits="userSpaceOnUse">
<stop stop-color="#DA88DE"/>
<stop offset="0.373617" stop-color="#5E75E8"/>
<stop offset="1" stop-color="#80C6EB"/>
</linearGradient>
<linearGradient id="paint4_linear_351_21866" x1="46.6515" y1="331.03" x2="46.7389" y2="441.238" gradientUnits="userSpaceOnUse">
<stop stop-color="#DA88DE"/>
<stop offset="0.373617" stop-color="#5E75E8"/>
<stop offset="1" stop-color="#80C6EB"/>
</linearGradient>
<linearGradient id="paint5_linear_351_21866" x1="46.6515" y1="331.03" x2="46.7389" y2="441.238" gradientUnits="userSpaceOnUse">
<stop stop-color="#DA88DE"/>
<stop offset="0.373617" stop-color="#5E75E8"/>
<stop offset="1" stop-color="#80C6EB"/>
</linearGradient>
<linearGradient id="paint6_linear_351_21866" x1="46.6515" y1="331.03" x2="46.7389" y2="441.238" gradientUnits="userSpaceOnUse">
<stop stop-color="#DA88DE"/>
<stop offset="0.373617" stop-color="#5E75E8"/>
<stop offset="1" stop-color="#80C6EB"/>
</linearGradient>
<linearGradient id="paint7_linear_351_21866" x1="46.6515" y1="331.03" x2="46.7389" y2="441.238" gradientUnits="userSpaceOnUse">
<stop stop-color="#DA88DE"/>
<stop offset="0.373617" stop-color="#5E75E8"/>
<stop offset="1" stop-color="#80C6EB"/>
</linearGradient>
<linearGradient id="paint8_linear_351_21866" x1="46.6515" y1="331.03" x2="46.7389" y2="441.238" gradientUnits="userSpaceOnUse">
<stop stop-color="#DA88DE"/>
<stop offset="0.373617" stop-color="#5E75E8"/>
<stop offset="1" stop-color="#80C6EB"/>
</linearGradient>
<linearGradient id="paint9_linear_351_21866" x1="46.6515" y1="331.03" x2="46.7389" y2="441.238" gradientUnits="userSpaceOnUse">
<stop stop-color="#DA88DE"/>
<stop offset="0.373617" stop-color="#5E75E8"/>
<stop offset="1" stop-color="#80C6EB"/>
</linearGradient>
<linearGradient id="paint10_linear_351_21866" x1="46.6515" y1="331.03" x2="46.7389" y2="441.238" gradientUnits="userSpaceOnUse">
<stop stop-color="#DA88DE"/>
<stop offset="0.373617" stop-color="#5E75E8"/>
<stop offset="1" stop-color="#80C6EB"/>
</linearGradient>
<linearGradient id="paint11_linear_351_21866" x1="46.6515" y1="331.03" x2="46.7389" y2="441.238" gradientUnits="userSpaceOnUse">
<stop stop-color="#DA88DE"/>
<stop offset="0.373617" stop-color="#5E75E8"/>
<stop offset="1" stop-color="#80C6EB"/>
</linearGradient>
<linearGradient id="paint12_linear_351_21866" x1="46.6515" y1="331.03" x2="46.7389" y2="441.238" gradientUnits="userSpaceOnUse">
<stop stop-color="#DA88DE"/>
<stop offset="0.373617" stop-color="#5E75E8"/>
<stop offset="1" stop-color="#80C6EB"/>
</linearGradient>
<linearGradient id="paint13_linear_351_21866" x1="46.6515" y1="331.03" x2="46.7389" y2="441.238" gradientUnits="userSpaceOnUse">
<stop stop-color="#DA88DE"/>
<stop offset="0.373617" stop-color="#5E75E8"/>
<stop offset="1" stop-color="#80C6EB"/>
</linearGradient>
<linearGradient id="paint14_linear_351_21866" x1="46.6515" y1="331.03" x2="46.7389" y2="441.238" gradientUnits="userSpaceOnUse">
<stop stop-color="#DA88DE"/>
<stop offset="0.373617" stop-color="#5E75E8"/>
<stop offset="1" stop-color="#80C6EB"/>
</linearGradient>
<linearGradient id="paint15_linear_351_21866" x1="46.6515" y1="331.03" x2="46.7389" y2="441.238" gradientUnits="userSpaceOnUse">
<stop stop-color="#DA88DE"/>
<stop offset="0.373617" stop-color="#5E75E8"/>
<stop offset="1" stop-color="#80C6EB"/>
</linearGradient>
<linearGradient id="paint16_linear_351_21866" x1="46.6515" y1="331.03" x2="46.7389" y2="441.238" gradientUnits="userSpaceOnUse">
<stop stop-color="#DA88DE"/>
<stop offset="0.373617" stop-color="#5E75E8"/>
<stop offset="1" stop-color="#80C6EB"/>
</linearGradient>
<linearGradient id="paint17_linear_351_21866" x1="46.6515" y1="331.03" x2="46.7389" y2="441.238" gradientUnits="userSpaceOnUse">
<stop stop-color="#DA88DE"/>
<stop offset="0.373617" stop-color="#5E75E8"/>
<stop offset="1" stop-color="#80C6EB"/>
</linearGradient>
<linearGradient id="paint18_linear_351_21866" x1="46.6515" y1="331.03" x2="46.7389" y2="441.238" gradientUnits="userSpaceOnUse">
<stop stop-color="#DA88DE"/>
<stop offset="0.373617" stop-color="#5E75E8"/>
<stop offset="1" stop-color="#80C6EB"/>
</linearGradient>
<linearGradient id="paint19_linear_351_21866" x1="46.6515" y1="331.03" x2="46.7389" y2="441.238" gradientUnits="userSpaceOnUse">
<stop stop-color="#DA88DE"/>
<stop offset="0.373617" stop-color="#5E75E8"/>
<stop offset="1" stop-color="#80C6EB"/>
</linearGradient>
<linearGradient id="paint20_linear_351_21866" x1="46.6515" y1="331.03" x2="46.7389" y2="441.238" gradientUnits="userSpaceOnUse">
<stop stop-color="#DA88DE"/>
<stop offset="0.373617" stop-color="#5E75E8"/>
<stop offset="1" stop-color="#80C6EB"/>
</linearGradient>
<linearGradient id="paint21_linear_351_21866" x1="46.6515" y1="331.03" x2="46.7389" y2="441.238" gradientUnits="userSpaceOnUse">
<stop stop-color="#DA88DE"/>
<stop offset="0.373617" stop-color="#5E75E8"/>
<stop offset="1" stop-color="#80C6EB"/>
</linearGradient>
<linearGradient id="paint22_linear_351_21866" x1="46.6515" y1="331.03" x2="46.7389" y2="441.238" gradientUnits="userSpaceOnUse">
<stop stop-color="#DA88DE"/>
<stop offset="0.373617" stop-color="#5E75E8"/>
<stop offset="1" stop-color="#80C6EB"/>
</linearGradient>
<linearGradient id="paint23_linear_351_21866" x1="46.6515" y1="331.03" x2="46.7389" y2="441.238" gradientUnits="userSpaceOnUse">
<stop stop-color="#DA88DE"/>
<stop offset="0.373617" stop-color="#5E75E8"/>
<stop offset="1" stop-color="#80C6EB"/>
</linearGradient>
<linearGradient id="paint24_linear_351_21866" x1="46.6515" y1="331.03" x2="46.7389" y2="441.238" gradientUnits="userSpaceOnUse">
<stop stop-color="#DA88DE"/>
<stop offset="0.373617" stop-color="#5E75E8"/>
<stop offset="1" stop-color="#80C6EB"/>
</linearGradient>
<linearGradient id="paint25_linear_351_21866" x1="46.6515" y1="331.03" x2="46.7389" y2="441.238" gradientUnits="userSpaceOnUse">
<stop stop-color="#DA88DE"/>
<stop offset="0.373617" stop-color="#5E75E8"/>
<stop offset="1" stop-color="#80C6EB"/>
</linearGradient>
<linearGradient id="paint26_linear_351_21866" x1="46.6515" y1="331.03" x2="46.7389" y2="441.238" gradientUnits="userSpaceOnUse">
<stop stop-color="#DA88DE"/>
<stop offset="0.373617" stop-color="#5E75E8"/>
<stop offset="1" stop-color="#80C6EB"/>
</linearGradient>
<linearGradient id="paint27_linear_351_21866" x1="46.6515" y1="331.03" x2="46.7389" y2="441.238" gradientUnits="userSpaceOnUse">
<stop stop-color="#DA88DE"/>
<stop offset="0.373617" stop-color="#5E75E8"/>
<stop offset="1" stop-color="#80C6EB"/>
</linearGradient>
<linearGradient id="paint28_linear_351_21866" x1="46.6515" y1="331.03" x2="46.7389" y2="441.238" gradientUnits="userSpaceOnUse">
<stop stop-color="#DA88DE"/>
<stop offset="0.373617" stop-color="#5E75E8"/>
<stop offset="1" stop-color="#80C6EB"/>
</linearGradient>
<linearGradient id="paint29_linear_351_21866" x1="46.6515" y1="331.03" x2="46.7389" y2="441.238" gradientUnits="userSpaceOnUse">
<stop stop-color="#DA88DE"/>
<stop offset="0.373617" stop-color="#5E75E8"/>
<stop offset="1" stop-color="#80C6EB"/>
</linearGradient>
<linearGradient id="paint30_linear_351_21866" x1="46.6515" y1="331.03" x2="46.7389" y2="441.238" gradientUnits="userSpaceOnUse">
<stop stop-color="#DA88DE"/>
<stop offset="0.373617" stop-color="#5E75E8"/>
<stop offset="1" stop-color="#80C6EB"/>
</linearGradient>
<linearGradient id="paint31_linear_351_21866" x1="46.6515" y1="331.03" x2="46.7389" y2="441.238" gradientUnits="userSpaceOnUse">
<stop stop-color="#DA88DE"/>
<stop offset="0.373617" stop-color="#5E75E8"/>
<stop offset="1" stop-color="#80C6EB"/>
</linearGradient>
<linearGradient id="paint32_linear_351_21866" x1="46.6515" y1="331.03" x2="46.7389" y2="441.238" gradientUnits="userSpaceOnUse">
<stop stop-color="#DA88DE"/>
<stop offset="0.373617" stop-color="#5E75E8"/>
<stop offset="1" stop-color="#80C6EB"/>
</linearGradient>
<linearGradient id="paint33_linear_351_21866" x1="46.6515" y1="331.03" x2="46.7389" y2="441.238" gradientUnits="userSpaceOnUse">
<stop stop-color="#DA88DE"/>
<stop offset="0.373617" stop-color="#5E75E8"/>
<stop offset="1" stop-color="#80C6EB"/>
</linearGradient>
<linearGradient id="paint34_linear_351_21866" x1="46.6515" y1="331.03" x2="46.7389" y2="441.238" gradientUnits="userSpaceOnUse">
<stop stop-color="#DA88DE"/>
<stop offset="0.373617" stop-color="#5E75E8"/>
<stop offset="1" stop-color="#80C6EB"/>
</linearGradient>
</defs>
</svg>
