<svg width="131" height="33" viewBox="0 0 131 33" fill="none" xmlns="http://www.w3.org/2000/svg">
<path d="M1.40357 32.8886C0.46718 32.8886 0 32.4204 0 31.485V10.9707C0 10.0343 0.468195 9.56714 1.40357 9.56714H21.9168C22.8532 9.56714 23.3204 10.0353 23.3204 10.9707V31.484C23.3204 32.4204 22.8522 32.8875 21.9168 32.8875H1.40357V32.8886Z" fill="#F6F6F6"/>
<path d="M45.4756 32.8631C42.9142 32.8631 40.4443 31.9267 38.9889 29.4567H38.1439V32.1603H32.3204V0H38.1439V11.6998H38.9889C40.4839 9.13844 43.2788 8.15127 45.8006 8.15127C52.0923 8.15127 56.3436 13.1826 56.3436 20.2675C56.3436 27.3524 51.6769 32.8509 45.4756 32.8509V32.8641V32.8631ZM44.2152 27.651C47.8034 27.651 50.3637 24.7128 50.3637 20.5143C50.3637 16.3157 47.7506 13.3776 44.2152 13.3776C40.6799 13.3776 38.1571 16.1725 38.1571 20.5143C38.1571 24.856 40.7185 27.651 44.2152 27.651ZM67.107 32.8631C62.6353 32.8631 58.9954 30.1595 58.9954 25.7264C58.9954 21.2932 62.9989 18.8233 67.8484 18.3165L74.6997 17.6147V16.3147C74.6997 14.313 73.0616 12.9084 70.1762 12.9084C67.2909 12.9084 65.8345 14.117 65.3277 15.9369H59.7378C60.2964 11.5038 63.9759 8.15026 70.1762 8.15026C76.3765 8.15026 80.1079 11.0366 80.1079 16.6783V28.0531C80.1079 29.4963 80.2511 31.4981 80.3414 32.0567V32.1481H74.7515C74.6997 31.3549 74.6997 30.6145 74.6997 29.8213H73.8548C72.4116 32.1481 69.8898 32.8499 67.0949 32.8499L67.1081 32.8631H67.107ZM68.6934 28.4827C72.5152 28.4827 74.7119 25.5964 74.7119 22.6592V21.4893L69.577 22.1007C66.4053 22.4774 64.8707 23.4006 64.8707 25.4542C64.8707 27.5078 66.4571 28.4827 68.6924 28.4827H68.6934ZM94.108 32.8631C88.2317 32.8631 84.0332 29.9249 83.3832 25.31H89.1163C89.7663 27.3635 91.9113 28.2481 94.1476 28.2481C96.384 28.2481 98.2943 27.2731 98.2943 25.5446C98.2943 23.816 96.5262 23.3478 94.0958 22.9314L91.6259 22.515C86.9591 21.7218 84.0728 19.7587 84.0728 15.5733C84.0728 11.388 88.0763 8.16346 93.6276 8.16346C99.1789 8.16346 102.624 10.6852 103.599 15.0666H98.009C97.359 13.338 95.6304 12.6484 93.6672 12.6484C91.7041 12.6484 89.7541 13.6752 89.7541 15.1183C89.7541 16.5615 90.9627 17.0815 93.4855 17.4969L95.9554 17.9133C100.479 18.6547 103.924 20.5265 103.924 25.05C103.924 29.5735 99.8157 32.8884 94.0826 32.8884L94.109 32.862L94.108 32.8631ZM118.534 32.8631C111.358 32.8631 106.601 27.9617 106.601 20.4615C106.601 12.9612 111.632 8.15026 118.587 8.15026C125.542 8.15026 130.053 13.5584 130.053 20.6951V21.7218H112.296C112.582 25.5954 115.285 27.8703 118.549 27.8703C121.812 27.8703 122.89 26.9339 123.684 25.309H129.65C128.442 29.6903 124.099 32.862 118.549 32.862H118.535L118.534 32.8631ZM124.359 17.8615C123.891 14.7416 121.421 12.9216 118.535 12.9216C115.65 12.9216 112.946 14.6898 112.387 17.8615H124.373H124.36H124.359Z" fill="#F6F6F6"/>
</svg>
