<svg width="117" height="24" viewBox="0 0 117 24" fill="none" xmlns="http://www.w3.org/2000/svg">
<path d="M11.2061 7.63124L5.15047 11.6372C4.97504 11.7567 4.97504 12.0168 5.15047 12.1362L11.2623 16.1774C11.571 16.3812 11.7605 16.7326 11.7605 17.1051V23.4514C11.7605 23.7044 11.4728 23.859 11.2623 23.7115L0.449087 16.1563C0.168408 15.9595 0 15.6432 0 15.2989V8.48164C0 8.13726 0.168408 7.821 0.449087 7.62421L11.2623 0.0620134C11.4728 -0.0855759 11.7605 0.0620134 11.7605 0.322052V6.60514C11.7605 7.0198 11.55 7.40634 11.2061 7.63827V7.63124Z" fill="#F6F6F6"/>
<path d="M27.528 8.47709V15.2943C27.528 15.6387 27.3595 15.955 27.0789 16.1517L16.2587 23.7139C16.0482 23.8615 15.7605 23.7139 15.7605 23.4539V17.1076C15.7605 16.7351 15.9499 16.3837 16.2587 16.1798L22.3705 12.1387C22.5459 12.0192 22.5459 11.7592 22.3705 11.6397L16.3148 7.63372C15.971 7.4018 15.7605 7.01525 15.7605 6.6006V0.317506C15.7605 0.0644961 16.0482 -0.0901212 16.2587 0.0574681L27.0789 7.61967C27.3595 7.81645 27.528 8.13271 27.528 8.47709Z" fill="#F6F6F6"/>
<path d="M36.6433 16.1804H41.0079C41.3237 16.1804 41.5763 16.4334 41.5763 16.7497V19.4907C41.5763 19.8069 41.3237 20.0599 41.0079 20.0599H32.0963C31.7806 20.0599 31.528 19.8069 31.528 19.4907V4.28192C31.528 3.96566 31.7806 3.71265 32.0963 3.71265H36.075C36.3907 3.71265 36.6433 3.96566 36.6433 4.28192V16.1804Z" fill="#F6F6F6"/>
<path d="M61.6188 4.54196L56.1876 15.0981V19.4907C56.1876 19.8069 55.935 20.0599 55.6193 20.0599H51.6406C51.3249 20.0599 51.0723 19.8069 51.0723 19.4907V15.0981L45.6411 4.54196C45.4446 4.16244 45.7183 3.71265 46.1463 3.71265H50.7004C50.9249 3.71265 51.1284 3.84618 51.2196 4.04999L53.6756 9.5108L56.1315 4.04999C56.2227 3.84618 56.4262 3.71265 56.6508 3.71265H61.1136C61.5416 3.71265 61.8153 4.16244 61.6188 4.54196Z" fill="#F6F6F6"/>
<path d="M80.7701 20.0565H76.5248C76.3354 20.0565 76.1529 19.9581 76.0477 19.8035L70.799 11.8407V19.4943C70.799 19.8105 70.5464 20.0635 70.2306 20.0635H66.252C65.9362 20.0635 65.6836 19.8105 65.6836 19.4943V4.2785C65.6836 3.96224 65.9362 3.70923 66.252 3.70923H70.4902C70.6867 3.70923 70.8621 3.80762 70.9674 3.96927L76.2161 12.0726V4.2785C76.2161 3.96224 76.4687 3.70923 76.7845 3.70923H80.7631C81.0789 3.70923 81.3315 3.96224 81.3315 4.2785V19.4872C81.3315 19.8035 81.0789 20.0565 80.7631 20.0565H80.7701Z" fill="#F6F6F6"/>
<path d="M90.4539 7.79937V9.8094H94.9588C95.2746 9.8094 95.5272 10.0624 95.5272 10.3787V13.0915C95.5272 13.4078 95.2746 13.6608 94.9588 13.6608H90.4539V15.973H95.6465C95.9622 15.973 96.2148 16.226 96.2148 16.5423V19.487C96.2148 19.8033 95.9622 20.0563 95.6465 20.0563H85.8999C85.5841 20.0563 85.3315 19.8033 85.3315 19.487V4.28534C85.3315 3.96907 85.5841 3.71606 85.8999 3.71606H95.6465C95.9622 3.71606 96.2148 3.96907 96.2148 4.28534V7.2301C96.2148 7.54636 95.9622 7.79937 95.6465 7.79937H90.4539Z" fill="#F6F6F6"/>
<path d="M111.064 19.8209L108.236 15.8149L105.913 19.7858C105.808 19.9615 105.626 20.0669 105.422 20.0669H100.952C100.503 20.0669 100.23 19.5679 100.475 19.1884L105.289 11.6332L100.321 4.61219C100.054 4.23267 100.321 3.71259 100.784 3.71259H105.45C105.633 3.71259 105.808 3.80396 105.913 3.95155L108.629 7.7959L110.86 3.98669C110.966 3.81099 111.148 3.70557 111.352 3.70557H115.821C116.27 3.70557 116.544 4.20456 116.298 4.58407L111.576 11.9776L116.656 19.1603C116.923 19.5398 116.656 20.0599 116.193 20.0599H111.527C111.344 20.0599 111.169 19.9685 111.064 19.8209Z" fill="#F6F6F6"/>
</svg>
