<svg width="167" height="40" viewBox="0 0 167 40" fill="none" xmlns="http://www.w3.org/2000/svg">
<path d="M53.7546 22.2734C54.4545 22.2734 54.9497 22.1546 55.2402 21.9169C55.5439 21.666 55.6957 21.3689 55.6957 21.0256C55.6957 20.7087 55.5769 20.4578 55.3392 20.2729C55.1147 20.0748 54.7714 19.9032 54.3092 19.7579L53.2991 19.441C52.7444 19.2693 52.2427 19.0845 51.7937 18.8864C51.3447 18.6751 50.9618 18.4308 50.6449 18.1535C50.3279 17.863 50.077 17.5263 49.8922 17.1433C49.7205 16.7472 49.6347 16.2718 49.6347 15.7172C49.6347 14.608 50.0506 13.7298 50.8825 13.0828C51.7277 12.4358 52.8963 12.1122 54.3885 12.1122C54.9563 12.1122 55.4779 12.1519 55.9532 12.2311C56.4418 12.3103 56.8578 12.4358 57.2011 12.6074C57.5444 12.7659 57.8151 12.964 58.0132 13.2016C58.2113 13.4393 58.3103 13.7166 58.3103 14.0336C58.3103 14.3373 58.2311 14.608 58.0726 14.8457C57.9274 15.0701 57.7557 15.2616 57.5576 15.4201C57.2539 15.2088 56.8512 15.0305 56.3494 14.8853C55.8476 14.74 55.2996 14.6674 54.7054 14.6674C54.0715 14.6674 53.6028 14.7664 53.2991 14.9645C52.9953 15.1626 52.8435 15.4135 52.8435 15.7172C52.8435 15.9813 52.9425 16.186 53.1406 16.3312C53.3387 16.4633 53.649 16.6019 54.0715 16.7472L55.1411 17.1037C55.7618 17.315 56.3032 17.5461 56.7654 17.797C57.2407 18.0347 57.6369 18.312 57.9538 18.6289C58.2707 18.9326 58.5084 19.2891 58.6669 19.6985C58.8253 20.0946 58.9046 20.5502 58.9046 21.0652C58.9046 21.6198 58.7923 22.1282 58.5678 22.5904C58.3565 23.0393 58.033 23.4289 57.5973 23.759C57.1747 24.0891 56.6465 24.3466 56.0127 24.5315C55.392 24.7164 54.6724 24.8088 53.8537 24.8088C53.2462 24.8088 52.685 24.756 52.17 24.6503C51.655 24.5579 51.2061 24.4193 50.8231 24.2344C50.4534 24.0495 50.1563 23.825 49.9318 23.5609C49.7205 23.2836 49.6149 22.9733 49.6149 22.63C49.6149 22.2734 49.7139 21.9763 49.912 21.7386C50.1233 21.501 50.3543 21.3095 50.6052 21.1642C50.9618 21.4547 51.4041 21.7122 51.9323 21.9367C52.4737 22.1612 53.0812 22.2734 53.7546 22.2734ZM65.8959 24.7692C65.5526 24.7692 65.2357 24.7362 64.9452 24.6701C64.6546 24.6173 64.3906 24.5447 64.1529 24.4523V27.9978C64.0208 28.0374 63.8359 28.077 63.5983 28.1166C63.3606 28.1563 63.0965 28.1761 62.806 28.1761C62.2117 28.1761 61.7826 28.077 61.5185 27.879C61.2544 27.6809 61.1223 27.3045 61.1223 26.7499V16.9453C61.1223 16.6019 61.195 16.3246 61.3402 16.1133C61.4855 15.8889 61.6901 15.6908 61.9542 15.5191C62.3504 15.2682 62.8588 15.0635 63.4794 14.9051C64.1 14.7334 64.7867 14.6476 65.5394 14.6476C66.3053 14.6476 67.0051 14.7466 67.639 14.9447C68.286 15.1296 68.8406 15.4267 69.3028 15.836C69.765 16.2454 70.1215 16.767 70.3724 17.4008C70.6365 18.0347 70.7685 18.7873 70.7685 19.6589C70.7685 20.4908 70.6431 21.2303 70.3922 21.8773C70.1545 22.5111 69.8178 23.0459 69.382 23.4817C68.9463 23.9043 68.4313 24.2278 67.837 24.4523C67.2428 24.6635 66.5958 24.7692 65.8959 24.7692ZM65.4403 22.3725C66.1534 22.3725 66.7014 22.148 67.0844 21.699C67.4805 21.2501 67.6786 20.57 67.6786 19.6589C67.6786 18.7213 67.4871 18.0479 67.1042 17.6385C66.7344 17.2292 66.2128 17.0245 65.5394 17.0245C65.2357 17.0245 64.9716 17.0641 64.7471 17.1433C64.5226 17.2093 64.3179 17.2886 64.1331 17.381V22.0358C64.3179 22.1414 64.516 22.2272 64.7273 22.2933C64.9386 22.3461 65.1762 22.3725 65.4403 22.3725ZM82.7546 19.6985C82.7546 20.4776 82.6357 21.184 82.398 21.8179C82.1603 22.4385 81.817 22.9667 81.368 23.4025C80.9323 23.8382 80.4041 24.175 79.7834 24.4127C79.1628 24.6503 78.4696 24.7692 77.7037 24.7692C76.9378 24.7692 76.2379 24.6569 75.6041 24.4325C74.9835 24.1948 74.4487 23.858 73.9997 23.4223C73.5639 22.9865 73.2272 22.4583 72.9895 21.8377C72.7518 21.2038 72.633 20.4908 72.633 19.6985C72.633 18.9326 72.7518 18.2393 72.9895 17.6187C73.2404 16.9849 73.5837 16.4501 74.0195 16.0143C74.4685 15.5785 75.0033 15.2418 75.6239 15.0041C76.2577 14.7664 76.951 14.6476 77.7037 14.6476C78.4564 14.6476 79.143 14.7664 79.7636 15.0041C80.3843 15.2418 80.9125 15.5851 81.3482 16.0341C81.7972 16.4699 82.1405 16.9981 82.3782 17.6187C82.6291 18.2393 82.7546 18.9326 82.7546 19.6985ZM77.7037 17.0245C77.083 17.0245 76.6011 17.2556 76.2577 17.7177C75.9144 18.1799 75.7427 18.8402 75.7427 19.6985C75.7427 20.5832 75.9078 21.2567 76.2379 21.7188C76.5812 22.1678 77.0698 22.3923 77.7037 22.3923C78.3375 22.3923 78.8195 22.1612 79.1496 21.699C79.4929 21.2369 79.6646 20.57 79.6646 19.6985C79.6646 18.8534 79.4929 18.1997 79.1496 17.7375C78.8063 17.2622 78.3243 17.0245 77.7037 17.0245ZM94.7396 19.6985C94.7396 20.4776 94.6208 21.184 94.3831 21.8179C94.1454 22.4385 93.8021 22.9667 93.3531 23.4025C92.9173 23.8382 92.3891 24.175 91.7685 24.4127C91.1479 24.6503 90.4546 24.7692 89.6887 24.7692C88.9228 24.7692 88.223 24.6569 87.5891 24.4325C86.9685 24.1948 86.4337 23.858 85.9847 23.4223C85.549 22.9865 85.2122 22.4583 84.9745 21.8377C84.7368 21.2038 84.618 20.4908 84.618 19.6985C84.618 18.9326 84.7368 18.2393 84.9745 17.6187C85.2254 16.9849 85.5688 16.4501 86.0045 16.0143C86.4535 15.5785 86.9883 15.2418 87.6089 15.0041C88.2428 14.7664 88.936 14.6476 89.6887 14.6476C90.4414 14.6476 91.128 14.7664 91.7487 15.0041C92.3693 15.2418 92.8975 15.5851 93.3333 16.0341C93.7822 16.4699 94.1256 16.9981 94.3633 17.6187C94.6142 18.2393 94.7396 18.9326 94.7396 19.6985ZM89.6887 17.0245C89.0681 17.0245 88.5861 17.2556 88.2428 17.7177C87.8994 18.1799 87.7278 18.8402 87.7278 19.6985C87.7278 20.5832 87.8928 21.2567 88.223 21.7188C88.5663 22.1678 89.0549 22.3923 89.6887 22.3923C90.3225 22.3923 90.8045 22.1612 91.1346 21.699C91.478 21.2369 91.6496 20.57 91.6496 19.6985C91.6496 18.8534 91.478 18.1997 91.1346 17.7375C90.7913 17.2622 90.3093 17.0245 89.6887 17.0245ZM102.684 19.5796L106.111 22.9073C106.045 23.4619 105.873 23.8911 105.596 24.1948C105.332 24.4853 104.949 24.6305 104.447 24.6305C104.064 24.6305 103.727 24.5381 103.437 24.3532C103.146 24.1684 102.823 23.8646 102.466 23.4421L100.109 20.6492V24.4523C99.9769 24.4919 99.792 24.5249 99.5543 24.5513C99.3167 24.5909 99.0526 24.6107 98.7621 24.6107C98.1678 24.6107 97.7387 24.5183 97.4746 24.3334C97.2105 24.1353 97.0784 23.759 97.0784 23.2044V11.5774C97.2237 11.5378 97.4151 11.4982 97.6528 11.4586C97.8905 11.419 98.1546 11.3992 98.4451 11.3992C99.0394 11.3992 99.4619 11.4982 99.7128 11.6963C99.9769 11.8944 100.109 12.2707 100.109 12.8253V18.4308L103.694 14.7862C104.315 14.7862 104.81 14.9249 105.18 15.2022C105.549 15.4795 105.734 15.8228 105.734 16.2322C105.734 16.5887 105.609 16.9056 105.358 17.1829C105.12 17.447 104.744 17.8036 104.229 18.2525L102.684 19.5796ZM109.525 22.0952C109.221 21.4349 108.872 20.5766 108.475 19.5202C108.092 18.4506 107.69 17.0707 107.267 15.3805C107.426 15.2088 107.643 15.0635 107.921 14.9447C108.211 14.8127 108.522 14.7466 108.852 14.7466C109.274 14.7466 109.618 14.8391 109.882 15.0239C110.146 15.1956 110.35 15.5191 110.496 15.9945C110.787 16.9585 111.077 17.9092 111.368 18.8468C111.672 19.7843 111.975 20.7285 112.279 21.6792H112.358C112.517 21.2303 112.682 20.7417 112.853 20.2135C113.025 19.6721 113.19 19.1175 113.349 18.5497C113.507 17.9686 113.652 17.3876 113.784 16.8066C113.93 16.2124 114.055 15.638 114.161 15.0834C114.57 14.8589 114.999 14.7466 115.448 14.7466C115.871 14.7466 116.234 14.8391 116.538 15.0239C116.841 15.2088 116.993 15.5125 116.993 15.9351C116.993 16.4104 116.907 17.0179 116.736 17.7574C116.577 18.4836 116.359 19.2495 116.082 20.055C115.818 20.8473 115.514 21.6396 115.171 22.4319C114.841 23.211 114.497 23.8977 114.141 24.4919C113.401 25.7464 112.735 26.6773 112.14 27.2847C111.546 27.9054 110.945 28.2157 110.337 28.2157C109.849 28.2157 109.446 28.0638 109.129 27.7601C108.812 27.4696 108.621 27.0933 108.555 26.6311C108.977 26.2613 109.413 25.8256 109.862 25.3238C110.324 24.8352 110.714 24.34 111.031 23.8382C110.807 23.7722 110.569 23.627 110.317 23.4025C110.08 23.1648 109.816 22.729 109.525 22.0952ZM122.996 22.2734C123.696 22.2734 124.191 22.1546 124.481 21.9169C124.785 21.666 124.937 21.3689 124.937 21.0256C124.937 20.7087 124.818 20.4578 124.58 20.2729C124.356 20.0748 124.013 19.9032 123.55 19.7579L122.54 19.441C121.986 19.2693 121.484 19.0845 121.035 18.8864C120.586 18.6751 120.203 18.4308 119.886 18.1535C119.569 17.863 119.318 17.5263 119.133 17.1433C118.962 16.7472 118.876 16.2718 118.876 15.7172C118.876 14.608 119.292 13.7298 120.124 13.0828C120.969 12.4358 122.138 12.1122 123.63 12.1122C124.198 12.1122 124.719 12.1519 125.195 12.2311C125.683 12.3103 126.099 12.4358 126.442 12.6074C126.786 12.7659 127.056 12.964 127.254 13.2016C127.453 13.4393 127.552 13.7166 127.552 14.0336C127.552 14.3373 127.472 14.608 127.314 14.8457C127.169 15.0701 126.997 15.2616 126.799 15.4201C126.495 15.2088 126.092 15.0305 125.591 14.8853C125.089 14.74 124.541 14.6674 123.947 14.6674C123.313 14.6674 122.844 14.7664 122.54 14.9645C122.237 15.1626 122.085 15.4135 122.085 15.7172C122.085 15.9813 122.184 16.186 122.382 16.3312C122.58 16.4633 122.89 16.6019 123.313 16.7472L124.382 17.1037C125.003 17.315 125.544 17.5461 126.007 17.797C126.482 18.0347 126.878 18.312 127.195 18.6289C127.512 18.9326 127.75 19.2891 127.908 19.6985C128.067 20.0946 128.146 20.5502 128.146 21.0652C128.146 21.6198 128.034 22.1282 127.809 22.5904C127.598 23.0393 127.274 23.4289 126.839 23.759C126.416 24.0891 125.888 24.3466 125.254 24.5315C124.633 24.7164 123.914 24.8088 123.095 24.8088C122.488 24.8088 121.926 24.756 121.411 24.6503C120.896 24.5579 120.447 24.4193 120.064 24.2344C119.695 24.0495 119.398 23.825 119.173 23.5609C118.962 23.2836 118.856 22.9733 118.856 22.63C118.856 22.2734 118.955 21.9763 119.153 21.7386C119.365 21.501 119.596 21.3095 119.847 21.1642C120.203 21.4547 120.645 21.7122 121.174 21.9367C121.715 22.1612 122.322 22.2734 122.996 22.2734ZM136.923 18.8071C136.804 19.2957 136.672 19.7975 136.527 20.3125C136.381 20.8275 136.236 21.3293 136.091 21.8179C135.946 22.3065 135.807 22.7554 135.675 23.1648C135.543 23.5741 135.437 23.9109 135.358 24.175C135.001 24.4919 134.434 24.6503 133.654 24.6503C133.179 24.6503 132.763 24.5843 132.407 24.4523C132.05 24.3202 131.812 24.1221 131.694 23.858C131.548 23.5411 131.377 23.0393 131.179 22.3527C130.98 21.666 130.782 20.9133 130.584 20.0946C130.399 19.2759 130.221 18.444 130.05 17.5989C129.878 16.7538 129.739 16.0143 129.634 15.3805C129.792 15.2088 130.01 15.0635 130.287 14.9447C130.578 14.8127 130.888 14.7466 131.218 14.7466C131.641 14.7466 131.984 14.8457 132.248 15.0437C132.512 15.2286 132.677 15.5521 132.743 16.0143C132.875 16.9386 132.988 17.7309 133.08 18.3912C133.186 19.0514 133.278 19.6126 133.357 20.0748C133.437 20.537 133.503 20.9133 133.555 21.2038C133.621 21.4812 133.668 21.699 133.694 21.8575H133.773C133.826 21.6462 133.905 21.3293 134.011 20.9067C134.117 20.4842 134.242 20.0088 134.387 19.4806C134.533 18.9392 134.684 18.3648 134.843 17.7574C135.015 17.1367 135.18 16.5161 135.338 15.8955C135.563 15.7634 135.794 15.6644 136.031 15.5983C136.282 15.5191 136.579 15.4795 136.923 15.4795C137.345 15.4795 137.702 15.5521 137.992 15.6974C138.296 15.8294 138.487 16.0341 138.567 16.3114C138.738 16.9056 138.903 17.4933 139.062 18.0743C139.22 18.6421 139.366 19.1703 139.498 19.6589C139.63 20.1475 139.742 20.5832 139.834 20.9662C139.94 21.3491 140.019 21.6462 140.072 21.8575H140.171C140.356 20.8143 140.534 19.7249 140.706 18.5893C140.878 17.4404 141.036 16.2784 141.181 15.1032C141.393 14.9843 141.617 14.8985 141.855 14.8457C142.092 14.7796 142.33 14.7466 142.568 14.7466C142.977 14.7466 143.314 14.8391 143.578 15.0239C143.855 15.1956 143.994 15.4993 143.994 15.9351C143.994 16.1331 143.954 16.4435 143.875 16.866C143.809 17.2886 143.717 17.764 143.598 18.2922C143.492 18.8204 143.367 19.3816 143.221 19.9758C143.076 20.5568 142.931 21.118 142.786 21.6594C142.64 22.2008 142.495 22.696 142.35 23.145C142.218 23.5939 142.106 23.9373 142.013 24.175C141.868 24.3202 141.624 24.4325 141.28 24.5117C140.937 24.6041 140.567 24.6503 140.171 24.6503C139.168 24.6503 138.58 24.406 138.408 23.9175C138.316 23.6534 138.204 23.3298 138.072 22.9469C137.939 22.564 137.801 22.148 137.656 21.699C137.524 21.2369 137.391 20.7615 137.259 20.2729C137.127 19.7711 137.015 19.2825 136.923 18.8071ZM150.081 22.5508C150.372 22.5508 150.656 22.5243 150.933 22.4715C151.224 22.4055 151.442 22.3263 151.587 22.2338V20.4115L149.963 20.5502C149.54 20.5898 149.197 20.6889 148.933 20.8473C148.682 20.9926 148.556 21.2171 148.556 21.5208C148.556 21.8377 148.675 22.0886 148.913 22.2734C149.15 22.4583 149.54 22.5508 150.081 22.5508ZM149.963 14.6476C150.649 14.6476 151.27 14.7202 151.824 14.8655C152.392 14.9975 152.874 15.2088 153.27 15.4993C153.667 15.7898 153.97 16.1596 154.182 16.6085C154.406 17.0575 154.518 17.5857 154.518 18.1931V22.6696C154.518 23.0129 154.426 23.2902 154.241 23.5015C154.069 23.6996 153.858 23.8712 153.607 24.0165C153.198 24.2674 152.696 24.4589 152.102 24.5909C151.508 24.723 150.834 24.789 150.081 24.789C148.721 24.789 147.639 24.5315 146.833 24.0165C146.028 23.4883 145.625 22.6894 145.625 21.6198C145.625 20.7087 145.895 20.0154 146.437 19.54C146.978 19.0646 147.81 18.7675 148.933 18.6487L151.567 18.3714V18.1535C151.567 17.7309 151.395 17.4206 151.052 17.2226C150.709 17.0245 150.213 16.9254 149.566 16.9254C149.065 16.9254 148.569 16.9849 148.081 17.1037C147.606 17.2226 147.176 17.3612 146.793 17.5197C146.635 17.414 146.496 17.2556 146.377 17.0443C146.272 16.8198 146.219 16.5821 146.219 16.3312C146.219 15.7502 146.523 15.3342 147.13 15.0834C147.513 14.9381 147.955 14.8325 148.457 14.7664C148.972 14.6872 149.474 14.6476 149.963 14.6476ZM161.989 24.7692C161.646 24.7692 161.329 24.7362 161.038 24.6701C160.748 24.6173 160.484 24.5447 160.246 24.4523V27.9978C160.114 28.0374 159.929 28.077 159.691 28.1166C159.454 28.1563 159.19 28.1761 158.899 28.1761C158.305 28.1761 157.876 28.077 157.612 27.879C157.347 27.6809 157.215 27.3045 157.215 26.7499V16.9453C157.215 16.6019 157.288 16.3246 157.433 16.1133C157.579 15.8889 157.783 15.6908 158.047 15.5191C158.443 15.2682 158.952 15.0635 159.572 14.9051C160.193 14.7334 160.88 14.6476 161.632 14.6476C162.398 14.6476 163.098 14.7466 163.732 14.9447C164.379 15.1296 164.934 15.4267 165.396 15.836C165.858 16.2454 166.215 16.767 166.465 17.4008C166.73 18.0347 166.862 18.7873 166.862 19.6589C166.862 20.4908 166.736 21.2303 166.485 21.8773C166.248 22.5111 165.911 23.0459 165.475 23.4817C165.039 23.9043 164.524 24.2278 163.93 24.4523C163.336 24.6635 162.689 24.7692 161.989 24.7692ZM161.533 22.3725C162.246 22.3725 162.795 22.148 163.177 21.699C163.574 21.2501 163.772 20.57 163.772 19.6589C163.772 18.7213 163.58 18.0479 163.197 17.6385C162.828 17.2292 162.306 17.0245 161.632 17.0245C161.329 17.0245 161.065 17.0641 160.84 17.1433C160.616 17.2093 160.411 17.2886 160.226 17.381V22.0358C160.411 22.1414 160.609 22.2272 160.82 22.2933C161.032 22.3461 161.269 22.3725 161.533 22.3725Z" fill="#F6F6F6"/>
<path fill-rule="evenodd" clip-rule="evenodd" d="M5.98867 14.7887C5.74608 16.3469 6.03168 17.9502 6.3283 19.4907C6.44263 19.7369 6.69319 19.9027 7.002 20.0088C6.3689 21.3426 6.02087 22.7969 6.02087 24.3193C6.02087 30.7667 12.2754 35.998 19.9898 35.998C27.7042 35.998 33.9631 30.7788 33.9631 24.3193C33.9631 22.7809 33.6079 21.3122 32.9628 19.9677C33.2208 19.8614 33.4267 19.7071 33.5274 19.4907C33.8241 17.9502 34.1086 16.3469 33.866 14.7887C33.6388 12.6979 32.9199 12.0596 30.7608 12.5955C29.6625 12.8501 28.2149 13.497 27.1016 14.2579C25.018 13.2261 22.5863 12.6341 19.9898 12.6341C17.3633 12.6341 14.9061 13.2404 12.8073 14.295C11.6874 13.518 10.2102 12.8543 9.09495 12.5955C6.93478 12.0596 6.21693 12.6979 5.98867 14.7887ZM14.1224 24.0068C12.4849 23.2861 9.68622 23.4687 9.68622 23.4687C9.68622 23.4687 9.81744 26.0976 11.4241 26.99C13.3296 28.0475 16.8725 27.5237 16.8725 27.5237C16.8725 27.5237 16.5715 25.0786 14.1224 24.0013V24.0068ZM23.2207 27.5282C23.2207 27.5282 26.7636 28.0519 28.6691 26.9944C30.2757 26.102 30.4069 23.4731 30.4069 23.4731C30.4069 23.4731 27.6083 23.2905 25.9708 24.0112C23.5217 25.0786 23.2207 27.5182 23.2207 27.5182V27.5282ZM19.2907 29.3812C19.2907 29.5749 19.6513 29.7323 20.0957 29.7323C20.5401 29.7323 20.9006 29.5749 20.9006 29.3812C20.9006 29.1876 20.5401 29.0313 20.0957 29.0313C19.6513 29.0313 19.2907 29.1821 19.2907 29.3812Z" fill="#F6F6F6"/>
<path fill-rule="evenodd" clip-rule="evenodd" d="M35.9086 27.7623C34.6012 27.2586 33.2125 26.9975 31.811 26.9921H31.8132C31.4582 26.9921 31.4582 26.4419 31.8132 26.4419C33.2646 26.4466 34.7028 26.7155 36.0575 27.2353C36.1261 27.2562 36.184 27.3025 36.2195 27.3647C36.2549 27.4269 36.2652 27.5003 36.2483 27.5697C36.2284 27.64 36.1817 27.6996 36.1181 27.7356C36.0545 27.7717 35.9792 27.7813 35.9086 27.7623ZM4.01235 27.2473C5.36742 26.7276 6.80604 26.4587 8.25771 26.4539V26.4572C8.61278 26.4572 8.61168 27.0074 8.25771 27.0074C6.85582 27.0123 5.46668 27.2734 4.15901 27.7777C4.08856 27.7963 4.01359 27.7866 3.95026 27.7505C3.88693 27.7145 3.84033 27.6551 3.82048 27.5851C3.80294 27.515 3.81306 27.4408 3.84878 27.3779C3.88448 27.3151 3.94305 27.2683 4.01235 27.2473ZM6.82333 28.8242C7.50146 28.6087 8.20679 28.4905 8.91822 28.4731C9.27131 28.4751 9.27065 29.0234 8.91624 29.0234C8.26737 29.0403 7.62411 29.148 7.00528 29.3436C6.42967 29.5119 5.77138 29.7496 5.35125 30.1381C5.09102 30.3791 4.70066 29.9906 4.962 29.7496C5.47255 29.2786 6.17496 29.019 6.82333 28.8242ZM9.5467 29.8477C8.99374 30.0838 8.46212 30.367 7.95772 30.6939C7.44822 31.0073 6.99989 31.4104 6.63449 31.8834C6.59782 31.9464 6.58757 32.0212 6.60595 32.0917C6.62433 32.1622 6.66986 32.2226 6.73263 32.2598C6.79622 32.295 6.87096 32.3045 6.94137 32.2862C7.01176 32.268 7.07245 32.2235 7.11085 32.1618C7.42071 31.7349 7.86509 31.4037 8.30506 31.1208C8.788 30.815 9.29464 30.5483 9.82016 30.3231C9.88291 30.2859 9.92848 30.2256 9.94705 30.1551C9.96562 30.0847 9.95569 30.0099 9.9194 29.9467C9.8812 29.8852 9.82079 29.8405 9.75063 29.8221C9.68047 29.8038 9.60591 29.8129 9.54228 29.8477H9.5467ZM31.1508 29.0125C31.7998 29.0285 32.4431 29.1359 33.0618 29.3316C33.3816 29.4221 33.6939 29.5374 33.9958 29.676C34.2564 29.7897 34.4984 29.9418 34.7136 30.1272C34.9739 30.3671 35.3642 29.9797 35.104 29.7376C34.5968 29.2678 33.8988 29.007 33.246 28.8122C32.5678 28.5967 31.8624 28.4789 31.1508 28.4623C30.7958 28.4623 30.7947 29.0125 31.1508 29.0125ZM31.7596 31.1043C31.2827 30.81 30.784 30.5525 30.2677 30.3341V30.3286C30.2052 30.2911 30.1599 30.2308 30.1413 30.1605C30.1227 30.0902 30.1325 30.0154 30.1685 29.9522C30.2073 29.8909 30.2679 29.8468 30.3382 29.8285C30.4085 29.8104 30.4831 29.8195 30.5467 29.8543C31.6207 30.3219 32.751 30.9228 33.4534 31.89C33.4898 31.953 33.4999 32.0278 33.4815 32.0982C33.4632 32.1686 33.4179 32.229 33.3552 32.2664C33.2917 32.3014 33.2171 32.3107 33.1468 32.2922C33.0766 32.2738 33.0162 32.2291 32.9781 32.1673C32.6605 31.7305 32.2117 31.3916 31.7596 31.1043Z" fill="#F6F6F6"/>
<path d="M19.6611 2.5835H19.6865C19.8201 2.58363 20.0345 2.64026 20.3398 2.80518C20.6376 2.96598 20.9822 3.20774 21.3643 3.52197C22.1279 4.15004 22.9977 5.03237 23.8877 6.02979C25.4433 7.7732 27.0259 9.83303 28.1514 11.4165L28.6045 12.064C29.9426 14.0118 31.7541 17.5467 32.4297 18.894L32.5312 19.0962L32.751 19.1519C32.909 19.1918 33.0474 19.2282 33.1729 19.2651C34.1854 19.5686 35.1854 19.9426 35.9883 20.3081C36.3902 20.4911 36.7364 20.6686 37.0068 20.8315C37.0777 20.8743 37.141 20.9149 37.1973 20.9526C37.1296 20.9725 37.0522 20.9945 36.9639 21.0161C36.3214 21.1733 35.3999 21.3068 34.4258 21.4761C33.5165 21.6341 31.4673 21.7574 28.835 21.8452C26.2179 21.9325 23.0629 21.9845 19.9688 22.0054C16.878 22.0262 13.5277 21.985 10.7549 21.9077C7.965 21.8299 5.80008 21.7159 5.05176 21.5981C4.27503 21.4759 3.46456 21.3062 2.89746 21.1138C2.76381 21.0684 2.6539 21.0244 2.56641 20.9849C2.61153 20.9545 2.66238 20.922 2.71875 20.8872C2.98681 20.7216 3.35918 20.5231 3.81543 20.311C4.72733 19.8871 5.95051 19.4223 7.30371 19.0767L7.56055 19.0112L7.64844 18.7622C8.23714 17.0938 8.96379 15.4767 9.82031 13.9282L10.2266 13.1929H10.2236C10.4221 12.8348 10.6717 12.3845 10.9219 11.9341C11.1988 11.4356 11.4762 10.9365 11.6836 10.562C11.7872 10.3749 11.8742 10.2181 11.9346 10.1079C11.9646 10.0532 11.9881 10.0082 12.0049 9.97705C12.013 9.96193 12.0214 9.94754 12.0273 9.93604C12.0299 9.93109 12.0345 9.9223 12.0391 9.9126C12.0406 9.90943 12.0469 9.89514 12.0537 9.87744C12.0556 9.87253 12.0668 9.84433 12.0752 9.80713C12.08 9.78311 12.0869 9.71175 12.0859 9.66455C12.0698 9.57447 11.9402 9.37939 11.7871 9.26807L11.7969 9.24756C11.1906 8.97222 10.6083 8.64692 10.0557 8.27588C10.007 8.23797 9.96244 8.19538 9.9209 8.1499C9.92556 8.14351 9.93052 8.13703 9.93555 8.13037C9.94822 8.11361 9.96108 8.09796 9.97266 8.0835C10.1025 7.93114 10.2454 7.79035 10.4004 7.66357C10.8086 7.32999 11.2375 7.0223 11.6846 6.74268H11.6855L11.6953 6.73682C11.9108 6.59491 12.1316 6.45765 12.3633 6.31104H12.3643C13.1703 5.7988 13.7961 5.34842 14.3896 4.93115C14.8356 4.61767 15.2654 4.32079 15.751 4.021L16.2568 3.72021C16.9767 3.30858 17.4455 3.01578 17.9443 2.82178C18.4162 2.63831 18.9179 2.54542 19.6611 2.5835Z" fill="#F6F6F6" stroke="#F6F6F6" stroke-width="0.990371"/>
<path d="M6.86205 6.75994C7.32959 6.69171 7.96474 8.12005 7.96474 8.12005C7.96474 8.12005 9.43573 7.725 9.66509 8.12005C9.89445 8.5151 8.63077 9.46365 8.63077 9.46365C8.63077 9.46365 9.39383 10.8029 9.15234 11.0812C8.91085 11.3596 7.55013 10.5145 7.55013 10.5145C7.55013 10.5145 6.5125 11.681 6.17397 11.5049C5.83545 11.3288 6.21918 9.80918 6.21918 9.80918C6.21918 9.80918 4.7515 9.18635 4.85184 8.81661C4.95219 8.44687 6.48162 8.33463 6.48162 8.33463C6.48162 8.33463 6.39561 6.82816 6.86205 6.75994Z" fill="#F6F6F6"/>
<path d="M31.145 15.3663C31.145 15.3663 27.0651 14.3462 19.8766 14.3462C12.1578 14.3462 8.44061 15.5346 8.44061 15.5346C8.44061 15.5346 7.99953 16.371 7.80766 16.8551C7.6158 17.3393 7.18134 18.5971 7.18134 18.5971C7.18134 18.5971 12.7973 17.5935 19.9847 17.5935C24.3126 17.6113 28.6321 17.9757 32.9016 18.6829C32.9016 18.6829 32.2499 17.161 31.8596 16.5118C31.4692 15.8626 31.145 15.3663 31.145 15.3663Z" fill="#F6F6F6"/>
</svg>
