<svg width="128" height="30" viewBox="0 0 128 30" fill="none" xmlns="http://www.w3.org/2000/svg">
<path d="M124.286 17.893C122.698 15.6948 121.041 13.4729 119.453 11.2747C120.678 9.62017 121.858 8.03652 123.061 6.38196C124.15 4.86922 125.285 3.38012 126.419 1.86738L127.758 0.0473633L125.58 0.0946364H121.472C120.497 0.0946364 119.702 0.0946364 118.954 0.0473633H118.749C117.456 0.0473633 116.525 0.591004 115.777 1.72556C114.982 2.90739 114.188 4.04194 113.258 5.2474C112.872 5.74377 112.509 6.24014 112.123 6.76014L111.624 7.4456L112.123 8.13106C113.122 9.54926 114.143 10.9202 115.141 12.2911L116.979 14.8438C116.276 15.8129 115.504 16.8057 114.755 17.8221L114.256 18.5075L114.755 19.193C114.914 19.4293 115.096 19.6421 115.255 19.8784C115.709 20.5166 116.185 21.1548 116.594 21.7457C117.025 22.3366 117.569 22.6675 118.227 22.6675H125.534L127.599 22.6203L126.306 20.8475L124.286 17.9166V17.893ZM104.294 0.969189C103.84 0.331002 103.296 0.0473633 102.57 0.0473633H92.9027L94.2416 1.86738C95.8754 4.06558 97.4866 6.24014 99.075 8.39107C100.618 10.4947 102.184 12.5984 103.75 14.702C100.595 19.0275 97.4412 23.3294 94.2643 27.7021L92.9708 29.5221H102.502C103.387 29.5221 103.886 29.0258 104.181 28.6003L104.272 28.5058C107.335 24.3457 110.489 20.0675 113.598 15.8602C114.029 15.3166 114.302 14.442 113.598 13.4493C110.194 8.98198 107.176 4.86922 104.317 0.945552L104.294 0.969189Z" fill="#F6F6F6"/>
<path d="M4.13001 22.5493C3.38116 22.5493 2.70039 22.3602 2.065 21.9584C1.42962 21.5565 0.930386 20.9893 0.544616 20.3038C0.158846 19.6183 0 18.8383 0 18.0111V16.0965H4.1527V17.7747C4.1527 17.822 4.1527 17.8692 4.19808 17.9165C4.24347 17.9638 4.24347 17.9638 4.28885 17.9638H16.3385C16.3839 17.9638 16.4293 17.9638 16.4746 17.9165C16.52 17.8692 16.52 17.822 16.52 17.7747V13.6619C16.52 13.6147 16.52 13.5674 16.4746 13.5674C16.4293 13.5201 16.3839 13.5201 16.3385 13.5201H4.13001C3.38116 13.5201 2.70039 13.331 2.065 12.9292C1.42962 12.5274 0.930386 11.9601 0.544616 11.2746C0.158846 10.5892 0.0226923 9.80917 0.0226923 8.98189V4.46731C0.0226923 3.64003 0.181539 2.86002 0.567309 2.17456C0.953079 1.4891 1.45231 0.945462 2.0877 0.520004C2.72308 0.236366 3.40385 0 4.1527 0H16.6335C17.3823 0 18.0631 0.189092 18.6985 0.590914C19.3339 0.992735 19.8331 1.56001 20.2189 2.24547C20.6047 2.93093 20.8089 3.66367 20.8089 4.53822V6.45278H16.6108V4.77458C16.6108 4.72731 16.6108 4.68004 16.5654 4.63276C16.4746 4.58549 16.4293 4.58549 16.4066 4.58549H4.31155C4.26616 4.58549 4.22078 4.58549 4.22078 4.63276C4.17539 4.68004 4.17539 4.72731 4.17539 4.77458V8.88734C4.17539 8.93462 4.17539 8.98189 4.22078 8.98189C4.24347 9.00553 4.28885 9.02916 4.31155 9.02916H16.6108C17.3596 9.02916 18.0404 9.21826 18.6758 9.62008C19.3112 10.0219 19.8104 10.5892 20.1962 11.2746C20.582 11.9601 20.7862 12.7401 20.7862 13.5201V18.0347C20.7862 18.862 20.582 19.642 20.1962 20.3274C19.8104 21.0129 19.3112 21.5565 18.6758 21.982C18.0404 22.3838 17.3823 22.5729 16.6108 22.5729H4.13001V22.6202V22.5493Z" fill="#F6F6F6"/>
<path d="M29.0919 22.5491L22.5338 4.37256H26.9134L30.7258 14.3708L34.7196 4.37256H38.8042L43.0931 14.5126L46.6558 4.37256H51.0354L44.7723 22.5491H41.6181L36.7846 11.0853L32.2461 22.5491H29.0919Z" fill="#F6F6F6"/>
<path d="M56.7766 22.5493C56.0732 22.5493 55.3924 22.3602 54.757 21.9584C54.1216 21.5565 53.6224 20.9893 53.282 20.3511C52.8962 19.6656 52.7374 18.9329 52.7374 18.1529V11.2037H65.5586V9.00552C65.5586 8.95825 65.5586 8.91098 65.5132 8.8637C65.4678 8.81643 65.4224 8.81643 65.377 8.81643H52.692V4.34912H65.5586C66.3074 4.34912 66.9882 4.53821 67.6236 4.94003C68.259 5.34186 68.7128 5.90913 69.0986 6.54732C69.4844 7.23278 69.6432 7.96551 69.6432 8.74552V22.4784H56.7766V22.5256V22.5493ZM56.9582 18.082H65.5813V15.151H56.8447V17.8929C56.8447 17.9401 56.8447 17.9874 56.8901 18.0347C56.9355 18.082 56.9582 18.082 56.9809 18.082H56.9582Z" fill="#F6F6F6"/>
<path d="M72.7516 29.7109V4.37256H85.6182C86.367 4.37256 87.0478 4.56165 87.6831 4.96347C88.3185 5.36529 88.7724 5.93257 89.1582 6.57076C89.5439 7.25622 89.7028 7.98895 89.7028 8.76896V18.0818C89.7028 18.8618 89.5439 19.5945 89.1582 20.28C88.7724 20.9654 88.3185 21.4618 87.6831 21.8872C87.0478 22.2891 86.3897 22.4782 85.6182 22.4782H76.8362V29.6873H72.7516V29.7346V29.7109ZM76.9951 18.0818H85.3912C85.4366 18.0818 85.482 18.0818 85.5274 18.0345C85.5728 17.9872 85.5728 17.9399 85.5728 17.8927V9.02896C85.5728 8.98169 85.5728 8.93441 85.5274 8.88714C85.482 8.83987 85.4366 8.83987 85.3912 8.83987H76.9951C76.9497 8.83987 76.9043 8.83987 76.8589 8.88714C76.8135 8.93441 76.8135 8.98169 76.8135 9.02896V17.9399C76.8135 17.9872 76.8135 18.0345 76.8589 18.0818H76.9951Z" fill="#F6F6F6"/>
</svg>
