<svg width="154" height="35" viewBox="0 0 154 35" fill="none" xmlns="http://www.w3.org/2000/svg">
<path d="M34.0764 13.615C32.2946 5.30226 24.7236 -0.46502 16.2363 0.0295267C9.11633 0.4368 2.97813 5.19317 0.810857 11.9932C-0.367327 15.6659 -0.258236 19.7314 1.11631 23.3387C3.02904 28.3641 7.18178 32.2187 12.3382 33.7532C16.0982 34.8732 20.2436 34.6623 23.8582 33.1423C29.1673 30.9169 33.0291 26.2041 34.1418 20.5532C34.5855 18.2623 34.5709 15.9059 34.0837 13.6223L34.0764 13.615ZM8.70906 7.73136C9.51633 7.0259 10.4182 6.42954 11.3782 5.94954C11.3854 5.94954 11.4 5.94227 11.4072 5.93499C11.4218 5.93499 11.4291 5.92045 11.4436 5.92045C11.8582 5.69499 12.2945 5.53499 12.7309 5.36772C12.7527 5.36045 12.7745 5.35317 12.7963 5.3459C12.7963 5.3459 12.7963 5.3459 12.8036 5.3459C13.0945 5.24408 13.3927 5.15681 13.6836 5.06954C13.6909 5.06954 13.6982 5.06954 13.7127 5.06954C13.7272 5.06954 13.7418 5.06226 13.7563 5.05499C13.9818 4.97499 14.2218 4.93863 14.4545 4.88045C14.4691 4.88045 14.4763 4.88044 14.4909 4.87317C14.4982 4.87317 14.5127 4.87317 14.52 4.8659C14.7527 4.80772 14.9927 4.79317 15.2327 4.74954C15.2473 4.74954 15.2618 4.74954 15.2691 4.74226C15.2763 4.74226 15.2909 4.74226 15.2982 4.74226C15.5163 4.7059 15.7418 4.68408 15.9673 4.66226C15.9963 4.65499 16.0254 4.64772 16.0545 4.64044C16.1054 4.63317 16.1563 4.63317 16.2 4.64044C16.2509 4.64044 16.2945 4.64044 16.3382 4.64044C16.3454 4.64044 16.36 4.64044 16.3673 4.64044C16.3673 4.64044 16.3818 4.64044 16.3891 4.64044C16.44 4.64044 16.4909 4.64044 16.5491 4.6259C16.5491 4.6259 16.5636 4.6259 16.5709 4.6259C16.6073 4.6259 16.6363 4.61863 16.6727 4.61135C16.8473 4.59681 17.0218 4.61863 17.1963 4.61135C17.1963 4.61135 17.2109 4.61135 17.2182 4.61135C17.2473 4.61135 17.2763 4.61135 17.2982 4.61135C17.3418 4.61135 17.3782 4.61135 17.4218 4.61135C17.4727 4.61135 17.5163 4.61135 17.5673 4.61135C17.5673 4.61135 17.5745 4.61135 17.5818 4.61135C17.6545 4.61135 17.72 4.61135 17.7927 4.63317C17.8509 4.64045 17.9091 4.64772 17.9673 4.64772C17.9818 4.64772 17.9963 4.64772 18.0109 4.64772H18.0182C18.1491 4.64045 18.28 4.66954 18.4109 4.67681C18.4182 4.67681 18.4327 4.67681 18.44 4.67681C18.44 4.67681 18.44 4.67681 18.4473 4.67681C18.6363 4.67681 18.8182 4.72772 19.0073 4.74226C19.0073 4.74226 19.0145 4.74226 19.0218 4.74226C19.0291 4.74226 19.0364 4.74226 19.0509 4.74226C19.1745 4.74226 19.2909 4.76408 19.4073 4.79317C19.4582 4.80045 19.5164 4.80045 19.5309 4.85863C19.5454 4.90954 19.4945 4.93863 19.4582 4.97499C19.4364 4.99681 19.4073 5.0259 19.3782 5.04772C19.0945 5.28772 18.8109 5.52772 18.5273 5.77499C18.4763 5.8259 18.3818 5.85499 18.3891 5.94954C18.3236 5.81863 18.2582 5.68772 18.2 5.55681C18.2 5.55681 18.2 5.55681 18.2 5.54954C18.1782 5.51317 18.1491 5.48408 18.12 5.44772C18.0691 5.36772 18.0254 5.38954 17.9963 5.46226C17.7054 6.08772 17.2109 6.51681 16.6654 6.90227C16.0545 7.33136 15.4 7.68772 14.7091 7.97136C14.3818 8.12409 14.0545 8.26227 13.7127 8.37136C13.2763 8.53863 12.8691 8.74227 12.5418 9.09864C12.3891 9.27318 12.2872 9.46954 12.1782 9.66591C12.1418 9.83318 12.0909 10.0005 12.0982 10.175C12.0982 10.175 12.0982 10.175 12.0909 10.1823C12.0909 10.1823 12.0982 10.1823 12.1054 10.1823C12.1054 10.335 12.1272 10.4805 12.1782 10.6259L12.2872 10.8441C12.1563 10.8805 12.0982 11.0114 11.9963 11.0841C11.9672 11.1059 11.9091 11.1277 11.9745 11.1786C11.4436 11.7677 10.8472 12.2623 10.0981 12.5459C10.0545 12.5605 10.0109 12.5677 9.95997 12.5823C9.74906 12.6623 9.53815 12.6914 9.32724 12.6041C9.19633 12.5823 9.07996 12.4877 9.03633 12.3641C9.03633 12.3641 9.03633 12.3641 9.03633 12.3568C8.91269 12.1677 8.94178 11.9641 8.97087 11.7605C8.97087 11.7605 8.97087 11.7605 8.97087 11.7532L9.07269 11.295C9.07269 11.295 9.07269 11.2877 9.07269 11.2805C8.83996 11.3095 8.70905 11.5059 8.54178 11.6368C8.26542 11.8332 8.05451 12.1023 7.80723 12.3205C7.80723 12.3205 7.80724 12.3205 7.79996 12.3205C7.50905 12.6841 7.23269 13.0623 7.02178 13.4841C7.02178 13.4841 7.02178 13.4841 7.01451 13.4841C7.01451 13.4841 7.02178 13.4841 7.02905 13.4841C6.91269 13.7677 6.81814 14.0586 6.73814 14.3496C6.73814 14.3568 6.73814 14.3641 6.73814 14.3714C6.70178 14.5168 6.68723 14.6623 6.65814 14.8077H6.65087L6.63632 15.3459C6.63632 15.3459 6.63632 15.3459 6.6436 15.3459L6.67269 15.9714C6.59269 15.8768 6.54178 15.9714 6.49814 16.0005C5.98178 16.4441 5.46541 16.8805 4.94905 17.3168C4.79632 17.4477 4.64359 17.5787 4.49086 17.7096C4.43996 17.7459 4.39632 17.8114 4.33086 17.7823C4.27996 17.7605 4.30177 17.6877 4.30177 17.6296C4.30177 17.5132 4.30177 17.3896 4.30177 17.2732C4.30177 17.2732 4.30177 17.2587 4.30177 17.2441C4.30905 17.0623 4.28723 16.8732 4.32359 16.6987C4.32359 16.6914 4.32359 16.6841 4.32359 16.6696C4.33814 16.5314 4.32359 16.4005 4.35268 16.2696C4.35268 16.2696 4.35268 16.2623 4.35268 16.255C4.35268 16.255 4.35268 16.2477 4.35268 16.2405C4.36723 16.0296 4.38905 15.8259 4.42541 15.6223C4.42541 15.6223 4.42541 15.615 4.42541 15.6077V15.5932C4.4545 15.3968 4.48359 15.1932 4.51996 15.0041C4.51996 15.0041 4.51996 14.9896 4.51996 14.9823C4.51996 14.9823 4.51996 14.975 4.51996 14.9677C4.54177 14.8586 4.56359 14.7423 4.58541 14.6332C4.58541 14.6332 4.58541 14.6186 4.58541 14.6114C4.58541 14.6114 4.58541 14.5968 4.58541 14.5896C4.60723 14.5096 4.62177 14.4296 4.64359 14.3496C4.64359 14.3423 4.64359 14.335 4.65087 14.3205V14.3059C4.71632 14.0659 4.76723 13.8114 4.8545 13.5714C4.8545 13.5641 4.8545 13.5568 4.86177 13.5423C4.86177 13.5277 4.86177 13.5205 4.86905 13.5059C4.94177 13.2732 5.0145 13.0477 5.10178 12.8296C5.10178 12.8223 5.10178 12.815 5.10905 12.8077C5.10905 12.8005 5.10905 12.7932 5.11632 12.7859C5.19632 12.5532 5.30541 12.335 5.39996 12.1096C5.39996 12.1096 5.39996 12.095 5.40723 12.095C5.40723 12.0877 5.40723 12.0805 5.4145 12.0732C5.54541 11.7896 5.68359 11.5059 5.83632 11.2295C5.84359 11.2077 5.85814 11.1932 5.86541 11.1714C6.09087 10.7495 6.35269 10.3495 6.62905 9.96409C6.62905 9.96409 6.62905 9.95682 6.63632 9.94955C6.65087 9.935 6.65814 9.91318 6.67269 9.89864C7.25451 9.09863 7.93087 8.37136 8.67996 7.72409L8.70906 7.73136Z" fill="white"/>
<path d="M19.531 4.84415C19.5237 4.79324 19.4582 4.79324 19.4073 4.77869C19.291 4.7496 19.1673 4.73506 19.051 4.72779C19.0437 4.72779 19.0364 4.72779 19.0219 4.72779C19.0219 4.72779 19.0146 4.72779 19.0073 4.72779C18.8182 4.70597 18.6364 4.66233 18.4473 4.66233C18.4473 4.66233 18.4473 4.66233 18.44 4.66233C18.4328 4.66233 18.4182 4.66233 18.4109 4.66233C18.28 4.64779 18.1491 4.62597 18.0182 4.63324H18.0109C18.0109 4.63324 17.9819 4.63324 17.9673 4.63324C17.9091 4.63324 17.8509 4.63324 17.7928 4.61869C17.72 4.59688 17.6546 4.5896 17.5819 4.59688C17.5819 4.59688 17.5746 4.59688 17.5673 4.59688C17.5164 4.59688 17.4655 4.59688 17.4219 4.59688C17.3782 4.59688 17.3419 4.59688 17.2982 4.59688C17.2691 4.59688 17.2473 4.59688 17.2182 4.59688C17.2182 4.59688 17.2037 4.59688 17.1964 4.59688C17.0219 4.60415 16.8473 4.58233 16.6728 4.59688C16.6364 4.59688 16.6073 4.59688 16.5709 4.61142C16.5709 4.61142 16.5564 4.61142 16.5491 4.61142C16.4982 4.61869 16.4473 4.62596 16.3891 4.62596C16.3891 4.62596 16.3746 4.62596 16.3673 4.62596C16.36 4.62596 16.3455 4.62596 16.3382 4.62596C16.2946 4.62596 16.2437 4.62596 16.2 4.62596C16.1491 4.62596 16.1055 4.62596 16.0546 4.62596C16.0255 4.62596 15.9964 4.64051 15.9673 4.64779C15.7419 4.6696 15.5164 4.68415 15.2982 4.72779C15.2909 4.72779 15.2764 4.72779 15.2691 4.72779C15.2546 4.72779 15.24 4.72778 15.2328 4.73506C14.9928 4.77869 14.7528 4.79324 14.52 4.85142C14.5128 4.85142 14.4982 4.85142 14.4909 4.8587C14.4764 4.8587 14.4691 4.85869 14.4546 4.86597C14.2218 4.92415 13.9818 4.96051 13.7564 5.04051C13.7418 5.04051 13.7273 5.04778 13.7128 5.05506C13.7055 5.05506 13.6982 5.05506 13.6837 5.05506C13.3855 5.13506 13.0946 5.2296 12.8037 5.33142C12.8037 5.33142 12.8037 5.33142 12.7964 5.33142C12.7746 5.33869 12.7528 5.34597 12.7309 5.35324C12.2946 5.52051 11.8582 5.68779 11.4437 5.90597C11.4291 5.90597 11.4218 5.92052 11.4073 5.92052C11.4 5.92052 11.3855 5.92779 11.3782 5.93506C10.4182 6.40779 9.51638 7.01142 8.70911 7.71688C7.96002 8.36415 7.28365 9.09143 6.70183 9.89143C6.68729 9.90598 6.68001 9.9278 6.66547 9.94234C6.66547 9.94234 6.66547 9.94961 6.6582 9.95689C6.38183 10.3423 6.12001 10.7496 5.89456 11.1642C5.88729 11.1787 5.87274 11.2005 5.86547 11.2223C5.71274 11.4987 5.57456 11.7751 5.44365 12.066C5.44365 12.0733 5.43638 12.0805 5.43638 12.0878C5.43638 12.0878 5.43638 12.1023 5.4291 12.1023C5.33456 12.3278 5.21819 12.546 5.14547 12.7787C5.14547 12.786 5.14546 12.7933 5.13819 12.8005C5.13819 12.8078 5.13819 12.8151 5.13092 12.8223C5.04365 13.0478 4.97092 13.2733 4.89819 13.4987C4.89819 13.5133 4.89819 13.5205 4.89092 13.5351C4.89092 13.5423 4.89092 13.5496 4.88365 13.5642C4.79637 13.8042 4.74546 14.0587 4.68001 14.2987V14.3133C4.68001 14.3205 4.68001 14.3278 4.67274 14.3424C4.65092 14.4224 4.63637 14.5024 4.61456 14.5824C4.61456 14.5824 4.61456 14.5969 4.61456 14.6042C4.61456 14.6042 4.61456 14.6187 4.61456 14.626C4.58546 14.7351 4.57092 14.8514 4.5491 14.9605C4.5491 14.9605 4.5491 14.9678 4.5491 14.9751C4.5491 14.9751 4.5491 14.9896 4.5491 14.9969C4.51274 15.1933 4.48365 15.3896 4.45456 15.586C4.45456 15.586 4.45456 15.6005 4.45456 15.6078C4.45456 15.6078 4.45456 15.6151 4.45456 15.6224C4.41819 15.826 4.39637 16.0369 4.38183 16.2405C4.38183 16.2405 4.38183 16.2478 4.38183 16.2551C4.38183 16.2551 4.38183 16.2624 4.38183 16.2696C4.35274 16.4005 4.37455 16.5387 4.35274 16.6696C4.35274 16.6696 4.35274 16.6842 4.35274 16.6987C4.31637 16.8733 4.33819 17.0624 4.33092 17.2369C4.33092 17.2369 4.33092 17.2587 4.33092 17.2733C4.33092 17.3896 4.32365 17.5133 4.33092 17.6296C4.33092 17.6805 4.3091 17.7605 4.36001 17.7824C4.42546 17.8114 4.4691 17.746 4.52001 17.7096C4.68001 17.586 4.82546 17.4478 4.97819 17.3169C5.49456 16.8733 6.01092 16.4369 6.52729 16.0005C6.57092 15.9714 6.62183 15.8769 6.70183 15.9714C6.76729 16.2842 6.81092 16.6042 6.87638 16.9242C6.92002 17.1133 6.9782 17.0696 7.08001 16.9896C7.26911 16.8296 7.45093 16.6624 7.66183 16.5314C7.66183 16.5314 7.66911 16.5314 7.67638 16.5314C7.72729 16.546 7.75638 16.5896 7.78547 16.6333C8.34547 17.3605 9.08729 17.8115 9.96729 18.0514C10.3673 18.1678 10.7891 18.2405 11.2037 18.2842C11.0728 18.1387 10.9637 17.9714 10.8764 17.7969C10.7309 17.4842 10.7818 17.2005 11.0218 16.9533C11.3128 16.6478 11.6909 16.5242 12.0764 16.4224C12.8837 16.2114 13.7128 16.1896 14.5418 16.2478C15.2109 16.2914 15.8655 16.4078 16.5128 16.5896C17.0509 16.7424 17.5746 16.9169 18.0546 17.2224C18.0619 17.2224 18.0691 17.2369 18.0837 17.2442C18.1055 17.266 18.1346 17.2951 18.1564 17.3169C18.1782 17.346 18.2073 17.3751 18.2364 17.3969C18.8473 18.0514 19.211 18.8296 19.2328 19.7242C19.2473 20.3424 19.0728 20.9387 18.7673 21.4769C18.2073 22.4587 17.3855 23.1715 16.4109 23.7169C15.4219 24.2696 14.3237 24.6115 13.1964 24.7351C11.1746 24.9533 9.2982 24.5169 7.57456 23.4406C6.14183 22.546 5.03637 21.3242 4.14183 19.9133C3.72728 19.2442 3.35637 18.5387 3.03637 17.8114C3.00001 17.7242 2.98546 17.6224 2.9491 17.5496C2.97092 17.6369 3.02182 17.7314 2.92728 17.826C2.89819 17.4551 2.92728 17.0987 2.9491 16.7351C3.00001 15.7314 3.15273 14.7351 3.41455 13.7678C4.60001 9.39689 7.76365 5.84051 11.9746 4.16051C13.24 3.65869 14.5709 3.33869 15.9237 3.22233C18.0619 3.02596 20.1346 3.30233 22.1564 4.02233C21.8437 4.60415 20.0982 6.16779 18.731 7.07688C18.6946 6.68415 18.6073 6.2987 18.4691 5.92779C18.4691 5.82597 18.5491 5.79688 18.6073 5.75324C18.891 5.50597 19.1746 5.26597 19.4582 5.02597C19.4873 5.00415 19.5164 4.97506 19.5382 4.95324C19.5746 4.91688 19.6255 4.88778 19.611 4.83688L19.531 4.84415Z" fill="white"/>
<path d="M17.9745 17.266C17.3636 16.9024 16.7018 16.6987 16.0254 16.5387C15.1309 16.3278 14.2072 16.2405 13.2909 16.2915C12.6436 16.3278 12.0036 16.4151 11.4 16.6987C11.3272 16.7351 11.2545 16.7715 11.1963 16.8151C10.709 17.1424 10.6363 17.5715 10.9927 18.0369C11.0654 18.1315 11.1454 18.226 11.24 18.3424C10.9272 18.3424 10.6436 18.2842 10.3745 18.226C9.63268 18.0806 8.9345 17.826 8.33813 17.346C8.04722 17.1133 7.7854 16.8587 7.59631 16.5387C7.67631 16.4078 7.80722 16.3496 7.93086 16.2769C8.16359 16.1824 8.38177 16.0369 8.6145 15.9278C9.66177 15.4478 10.7745 15.1496 11.9236 15.0478C12.3818 15.0042 12.8327 14.9605 13.2981 14.9824C14.6509 15.0333 15.9963 15.2733 17.2836 15.6805C17.6182 15.7824 17.9454 15.8987 18.2945 16.0151C18.2945 15.9205 18.2436 15.8551 18.2 15.7969C18.0618 15.5642 17.9018 15.3387 17.7272 15.1278C17.6618 15.0478 17.5672 14.9824 17.5745 14.866C17.7563 14.9096 17.9454 14.946 18.1272 14.9969C18.1782 15.0042 18.2363 15.0333 18.2654 14.9969C18.3091 14.946 18.2436 14.9024 18.2145 14.8587C17.9454 14.4587 17.6109 14.1096 17.2472 13.7969C17.4363 13.6805 17.6327 13.7751 17.8218 13.7969C19.7273 14.0442 21.4654 14.7205 22.9854 15.906C24.9927 17.4842 26.2873 19.5133 26.8327 22.0151C27.0073 22.8515 27.0654 23.7097 27 24.5533C26.8909 26.0297 26.4254 27.3969 25.5527 28.6042C25.4945 28.6842 25.4145 28.7497 25.3782 28.8369C25.1818 29.1278 24.8909 29.3315 24.6218 29.5497C23.1745 30.7279 21.48 31.3388 19.6618 31.6224C18.2436 31.8479 16.8036 31.8697 15.3781 31.6951C13.1381 31.4188 10.9927 30.6115 9.13086 29.3388C8.67268 29.0333 8.22904 28.7133 7.82904 28.3278C7.8145 28.3206 7.8145 28.2988 7.82904 28.2842C7.90904 28.2478 7.96722 28.306 8.02541 28.3497C8.97813 29.0624 10.0618 29.5933 11.2109 29.8988C11.5963 29.9933 11.989 30.0733 12.3818 30.1315C12.469 30.1679 12.5709 30.146 12.6581 30.1679C12.68 30.1679 12.6945 30.1679 12.7091 30.1751C13.6036 30.2842 14.4981 30.2188 15.3781 30.0588C17.3127 29.7169 19.0436 28.9097 20.5127 27.5933C21.5163 26.706 22.3163 25.6588 22.7382 24.3642C23.16 23.0697 23.1018 21.8115 22.5054 20.5606C22.3818 21.1206 22.0909 21.5787 21.7273 22.0006C21.3563 22.4151 20.9272 22.7642 20.4472 23.0406C20.3963 23.0769 20.3309 23.1351 20.2654 23.0842C20.2145 23.0406 20.2436 22.9678 20.2654 22.9097C20.3818 22.5242 20.4618 22.1242 20.5054 21.7242C20.68 20.0296 20.0254 18.7133 18.6727 17.7169C18.4472 17.5496 18.2145 17.4042 17.9745 17.2733V17.266Z" fill="#929497"/>
<path d="M12.3818 30.1534C11.8873 30.1025 11.3927 30.0007 10.9127 29.8552C10.0109 29.5789 9.15998 29.1861 8.36725 28.6625C8.17816 28.5389 8.01816 28.3716 7.81452 28.2771C7.69816 28.2625 7.64725 28.1461 7.5527 28.0952C5.57452 26.3352 4.21451 24.1679 3.4436 21.6443C3.06542 20.4152 2.86178 19.1425 2.83997 17.8552C2.83997 17.7607 2.84724 17.6661 2.86178 17.5134C2.95633 17.7316 3.03633 17.8988 3.10906 18.0661C3.82179 19.6298 4.73088 21.0552 5.98906 22.2407C7.31997 23.4989 8.87634 24.3425 10.7091 24.6407C12.8545 24.9898 14.8618 24.6189 16.7018 23.4552C17.6255 22.8734 18.3745 22.1389 18.8109 21.1207C19.3345 19.8916 19.1382 18.7498 18.3382 17.6952C18.2727 17.6007 18.1927 17.5134 18.12 17.4261C18.2145 17.3461 18.2655 17.4407 18.3236 17.4843C18.7964 17.8843 19.1745 18.3788 19.4291 18.9534C19.6764 19.4988 19.8073 20.0807 19.8145 20.677C19.8218 21.2879 19.6836 21.8916 19.4218 22.437C19.48 22.437 19.5382 22.4152 19.5818 22.3789C19.8364 22.2334 20.0764 22.0589 20.3018 21.8698C20.3673 21.8116 20.4327 21.717 20.5491 21.7316C20.4909 22.1898 20.3891 22.6479 20.2509 23.0989C20.5418 22.9316 20.8327 22.7425 21.1018 22.5316C21.3127 22.3643 21.4873 22.1607 21.6982 21.9861C21.7855 22.0225 21.7855 22.117 21.8073 22.1898C22.1491 23.4189 21.9018 24.5607 21.2982 25.637C20.5636 26.9461 19.48 27.9207 18.2291 28.7134C17.2109 29.3534 16.0982 29.8043 14.9273 30.0589C14.1927 30.2261 13.4364 30.2698 12.6873 30.1898C12.5927 30.1389 12.4836 30.1898 12.3963 30.1534H12.3818Z" fill="#595A5C"/>
<path d="M30.92 21.055C30.8545 19.6514 30.5054 18.2769 29.9018 17.0114C29.5018 16.1896 29.0073 15.4187 28.4109 14.7205C27.8727 14.0878 27.2618 13.5496 26.6145 13.0332C26.6727 12.975 26.7527 12.9823 26.8182 12.9969C27.72 13.0987 28.6073 13.3096 29.4582 13.6223C29.6691 13.7023 29.8727 13.7969 30.0691 13.9059C30.1345 13.9423 30.2073 13.9787 30.2727 14.0223C30.2873 14.0296 30.2945 14.0587 30.3236 14.0514C30.3091 14.0296 30.3018 14.0078 30.3164 13.9859C29.7345 13.2296 29.0291 12.5969 28.2945 12.0005C27.4145 11.2878 26.4618 10.6841 25.4363 10.1896C24.0254 9.49139 22.5054 9.04048 20.9418 8.84412C20.8036 8.8223 20.6581 8.84412 20.5272 8.79321C20.52 8.69866 20.5927 8.66957 20.6509 8.62593C21.5672 7.86229 22.3018 6.96048 22.8254 5.88411C22.9854 5.55684 23.1163 5.22229 23.2254 4.88047C23.2545 4.78593 23.2763 4.67683 23.3709 4.61865C25.0145 5.41138 26.4836 6.50957 27.7127 7.85502C30.9709 11.4332 32.1927 16.415 30.9782 21.0987C30.9418 21.1132 30.9418 21.0769 30.92 21.055Z" fill="#929497"/>
<path d="M25.3637 28.8223C25.3637 28.6769 25.4801 28.5969 25.5528 28.4951C26.2219 27.5351 26.6292 26.4805 26.8401 25.3314C26.971 24.6187 26.9856 23.906 26.9346 23.1932C26.8619 22.1023 26.5783 21.0478 26.1419 20.0369C25.8146 19.295 25.4146 18.5969 24.9274 17.9496C24.411 17.2659 23.8146 16.6478 23.1528 16.1023C22.1346 15.2587 20.9565 14.6259 19.691 14.2332C19.0219 14.015 18.3237 13.8768 17.6183 13.8041C17.4874 13.7968 17.371 13.7605 17.2328 13.7678C16.7892 13.4405 16.331 13.1205 15.8219 12.8878V12.8368C16.011 12.8368 16.1928 12.8368 16.3746 12.8368C18.9419 12.7932 21.3201 13.4187 23.3856 14.9823C25.531 16.6041 26.8765 18.7496 27.371 21.3969C27.8001 23.6514 27.4656 25.7896 26.2146 27.746C25.9674 28.146 25.6983 28.5096 25.3492 28.8151L25.3637 28.8223Z" fill="#595A5C"/>
<path d="M23.3855 4.6188C23.131 5.41153 22.8037 6.16062 22.3382 6.85881C21.8728 7.55699 21.3055 8.17517 20.6509 8.70608C20.6146 8.73517 20.5782 8.77154 20.5419 8.80063C20.3164 8.91699 20.1273 9.09154 19.9237 9.22972C19.16 9.73154 18.3455 10.1534 17.5018 10.4806C17.48 10.4806 17.4582 10.4879 17.4364 10.4952C17.4 10.4443 17.4364 10.4224 17.4655 10.4006C17.9455 9.94245 18.2437 9.37517 18.4473 8.74972C18.4691 8.66972 18.5273 8.59699 18.6073 8.57517C20.1055 7.97881 21.2982 6.99699 22.2728 5.73153C22.36 5.61516 22.4473 5.4988 22.5564 5.35335C22.251 5.35335 22.0182 5.4988 21.7637 5.54244C21.7128 5.54244 21.6473 5.58607 21.64 5.49153C22.5637 4.40789 23.2691 3.14243 23.691 1.78243C23.7128 1.69516 23.691 1.57879 23.8146 1.53516C23.8219 1.53516 23.8291 1.5497 23.8219 1.55697C23.8219 1.56425 23.8219 1.57152 23.8219 1.57152C23.8073 2.54607 23.6691 3.50607 23.4146 4.44425C23.4 4.49516 23.3928 4.56062 23.3782 4.6188H23.3855Z" fill="#595A5C"/>
<path d="M17.5674 14.8518C17.8728 15.1863 18.1346 15.5573 18.3601 15.9573C18.3819 15.9936 18.4328 16.0373 18.3819 16.0882C18.3455 16.1245 18.3019 16.0809 18.2655 16.0663C17.2692 15.6954 16.2437 15.4118 15.1964 15.23C14.6655 15.1354 14.1346 15.0991 13.5964 15.0554C13.1164 15.0263 12.6292 15.0336 12.1492 15.0773C11.051 15.1645 9.98189 15.4045 8.96371 15.8409C8.65098 15.9791 8.33098 16.1027 8.04007 16.2845C8.00371 16.3063 7.96734 16.3354 7.92371 16.2845C8.80371 15.6591 9.78553 15.1936 10.8255 14.8882C12.2583 14.4591 13.7128 14.3573 15.2037 14.4736C15.9601 14.5318 16.7092 14.6482 17.4437 14.8154C17.4946 14.8154 17.531 14.8373 17.5746 14.8518H17.5674Z" fill="#97999C"/>
<path d="M18.0109 4.62609C18.0109 4.62609 17.9818 4.62609 17.9673 4.62609C17.9091 4.62609 17.8509 4.62609 17.7927 4.61155C17.72 4.58973 17.6545 4.58245 17.5818 4.58973C17.5818 4.58973 17.5745 4.58973 17.5673 4.58973C17.5163 4.58973 17.4654 4.58973 17.4218 4.58973C17.3782 4.58973 17.3418 4.58973 17.2982 4.58973C17.2691 4.58973 17.2473 4.58973 17.2182 4.58973C17.2182 4.57518 17.2182 4.56064 17.2036 4.54609C17.2036 4.54609 17.2036 4.54609 17.2036 4.53882H17.4218H17.4363C17.5382 4.57518 17.6545 4.52427 17.7636 4.56064C17.7709 4.56064 17.7782 4.56064 17.7854 4.56791H18.0036C18.0036 4.56791 18.0036 4.60427 18.0036 4.61882L18.0109 4.62609Z" fill="#929497"/>
<path d="M30.1055 13.9641C29.2401 13.5496 28.3237 13.2878 27.3855 13.135C27.131 13.0987 26.8837 13.0405 26.6219 13.0405C26.2946 12.8369 25.9674 12.6114 25.6328 12.415C24.5419 11.7823 23.3419 11.3532 22.091 11.1496C22.0619 11.1423 22.0401 11.1278 22.011 11.1205C22.3819 11.055 23.6619 11.2441 24.5492 11.4914C25.371 11.7169 26.171 12.0296 26.9274 12.4223C26.8474 12.1823 26.7019 12.0223 26.6146 11.8332C26.6074 11.7823 26.5346 11.7387 26.5783 11.6878C26.6219 11.6369 26.6801 11.6878 26.7237 11.7096C26.8546 11.7678 26.971 11.8405 27.1019 11.8987C28.171 12.4514 29.1819 13.1205 30.1128 13.8841C30.1468 13.9278 30.1443 13.9544 30.1055 13.9641Z" fill="#595A5C"/>
<path d="M17.2981 4.58965C17.2981 4.58965 17.2472 4.58965 17.2181 4.58965C17.2181 4.58965 17.2036 4.58965 17.1963 4.58965C17.0218 4.59693 16.8472 4.57511 16.6727 4.58965C16.6363 4.58965 16.6072 4.58965 16.5709 4.6042C16.5636 4.6042 16.5418 4.58965 16.5272 4.58238C16.7454 4.50238 16.9709 4.56056 17.1963 4.54602C17.1963 4.54602 17.1963 4.54602 17.1963 4.55329C17.2181 4.58238 17.2618 4.57511 17.2909 4.58965H17.2981Z" fill="#929497"/>
<path d="M4.57831 14.6042C4.57831 14.6042 4.57831 14.6188 4.57831 14.6261C4.57831 14.6261 4.57831 14.6406 4.57831 14.6479C4.54922 14.757 4.53467 14.8733 4.51286 14.9824C4.51286 14.9824 4.51286 14.9897 4.51286 14.997C4.51286 14.997 4.51286 15.0115 4.51286 15.0188C4.50558 15.0188 4.49104 15.0188 4.48376 15.0042C4.48376 14.8733 4.50558 14.7497 4.55649 14.6333C4.57104 14.6333 4.57831 14.6188 4.59286 14.6115L4.57831 14.6042Z" fill="#929497"/>
<path d="M16.6728 4.58958C16.6728 4.58958 16.6073 4.58958 16.571 4.60413C16.571 4.60413 16.5564 4.60413 16.5492 4.60413C16.4983 4.6114 16.4473 4.61867 16.3892 4.61867C16.3892 4.61867 16.3746 4.61867 16.3673 4.61867C16.3601 4.61867 16.3455 4.61867 16.3383 4.61867L16.3746 4.58231H16.5201C16.5637 4.58958 16.6146 4.56776 16.6583 4.58958H16.6728Z" fill="#929497"/>
<path d="M19.0509 4.72774C19.0509 4.72774 19.0363 4.72774 19.0218 4.72774C19.0218 4.72774 19.0145 4.72774 19.0073 4.72774C18.8182 4.70593 18.6363 4.66229 18.4473 4.66229C18.4473 4.66229 18.4473 4.66229 18.44 4.66229C18.4327 4.66229 18.4182 4.66229 18.4109 4.66229C18.4254 4.64774 18.44 4.6332 18.4473 4.61865C18.6509 4.61865 18.84 4.66956 19.0363 4.69138C19.0363 4.70592 19.0436 4.7132 19.0436 4.72774H19.0509Z" fill="#929497"/>
<path d="M18.4473 4.61896C18.4473 4.61896 18.4473 4.64806 18.44 4.6626C18.4327 4.6626 18.4182 4.6626 18.4109 4.6626C18.28 4.64806 18.1491 4.62624 18.0182 4.63351H18.0109C18.0109 4.63351 17.9818 4.63351 17.9673 4.63351C17.9818 4.61897 17.9891 4.60442 17.9964 4.5826C18.1491 4.57533 18.2946 4.61896 18.44 4.62624L18.4473 4.61896Z" fill="#929497"/>
<path d="M15.8365 9.04045C16.2219 8.85135 16.6292 8.68408 16.971 8.40771C17.0365 8.40771 17.0365 8.44408 17.0147 8.48772C16.7019 9.78226 15.7201 10.6332 14.3892 10.7568C14.1347 10.7786 13.8801 10.8077 13.6183 10.7859C13.6546 10.6914 13.7419 10.6986 13.8147 10.6768C14.1056 10.5968 14.3892 10.5168 14.6583 10.3786C15.1601 10.1168 15.5237 9.73863 15.7347 9.20772C15.7492 9.14226 15.7856 9.07681 15.8292 9.03317L15.8365 9.04045Z" fill="#929497"/>
<path d="M15.8364 9.04077C15.6764 9.65895 15.2837 10.088 14.7383 10.3935C14.3892 10.5899 14.0037 10.6844 13.6183 10.7935C13.5237 10.5171 13.6255 10.2917 13.7928 10.0808C13.9819 9.8335 14.251 9.68077 14.5274 9.55714C14.9564 9.36077 15.3928 9.1935 15.8364 9.04804V9.04077Z" fill="#929497"/>
<path d="M4.50542 14.9751C4.50542 14.9751 4.50542 14.9824 4.50542 14.9896C4.50542 14.9896 4.50542 15.0042 4.50542 15.0115C4.46906 15.2078 4.43997 15.4042 4.41087 15.6006C4.41087 15.6006 4.41087 15.6151 4.41087 15.6224C4.41087 15.6224 4.41087 15.6296 4.41087 15.6369C4.4036 15.6369 4.38906 15.6296 4.37451 15.6224C4.38178 15.4187 4.41815 15.2078 4.4836 14.9969C4.4836 14.9969 4.50542 14.9896 4.51997 14.9824L4.50542 14.9751Z" fill="#929497"/>
<path d="M19.4582 4.96075C19.4582 4.96075 19.4073 5.01166 19.3782 5.03348C19.0945 5.27348 18.8109 5.51348 18.5273 5.76075C18.4763 5.81166 18.3818 5.84075 18.3891 5.9353C18.3236 5.80439 18.2582 5.67348 18.2 5.54257C18.2 5.54257 18.2 5.54257 18.2 5.53529C18.1782 5.49893 18.1491 5.46984 18.12 5.43348C18.0691 5.35348 18.0254 5.37529 17.9963 5.44802C17.7054 6.07348 17.2109 6.50257 16.6654 6.88802C16.0545 7.31712 15.4 7.67348 14.7091 7.95712C14.3818 8.10985 14.0545 8.24803 13.7127 8.35712C13.2763 8.52439 12.8691 8.72803 12.5418 9.08439C12.3891 9.25894 12.2872 9.45531 12.1781 9.65167C12.1418 9.81894 12.0909 9.98621 12.0981 10.1608C12.0981 10.1608 12.0981 10.1608 12.0909 10.168C12.0909 10.168 12.0981 10.168 12.1054 10.168C12.1054 10.3208 12.1272 10.4662 12.1781 10.6117L12.2872 10.8299C12.1563 10.8662 12.0981 10.9971 11.9963 11.0699C11.9672 11.0917 11.9091 11.1135 11.9745 11.1644C11.4436 11.7535 10.8472 12.248 10.0981 12.5317C10.0545 12.5462 10.0109 12.5535 9.95996 12.568C9.74905 12.648 9.53814 12.6771 9.32723 12.5899C9.19632 12.568 9.07996 12.4735 9.03632 12.3499C9.03632 12.3499 9.03632 12.3499 9.03632 12.3426C8.91269 12.1535 8.94178 11.9499 8.97087 11.7462C8.97087 11.7462 8.97087 11.7462 8.97087 11.7389L9.07269 11.2808C9.07269 11.2808 9.07269 11.2735 9.07269 11.2662C8.83996 11.2953 8.70905 11.4917 8.54178 11.6226C8.26541 11.8189 8.0545 12.088 7.80723 12.3062C7.80723 12.3062 7.80723 12.3062 7.79996 12.3062C7.50905 12.6699 7.23268 13.048 7.02177 13.4699C7.02177 13.4699 7.02177 13.4699 7.0145 13.4699C7.0145 13.4699 7.02177 13.4699 7.02905 13.4699C6.91268 13.7535 6.81814 14.0444 6.73814 14.3353C6.73814 14.3426 6.73814 14.3499 6.73814 14.3571C6.70177 14.5026 6.68723 14.648 6.65813 14.7935H6.65086L6.63632 15.3317C6.63632 15.3317 6.63632 15.3317 6.64359 15.3317L6.67268 15.9571C6.59268 15.8626 6.54177 15.9571 6.49814 15.9862C5.98177 16.4299 5.46541 16.8662 4.94904 17.3026C4.79631 17.4335 4.64359 17.5644 4.49086 17.6953C4.43995 17.7317 4.39631 17.7971 4.33086 17.7681C4.27995 17.7462 4.30177 17.6735 4.30177 17.6153C4.30177 17.499 4.30177 17.3753 4.30177 17.259C4.30177 17.259 4.30177 17.2444 4.30177 17.2299C4.30904 17.048 4.28722 16.859 4.32359 16.6844C4.32359 16.6771 4.32359 16.6699 4.32359 16.6553C4.33813 16.5171 4.32358 16.3862 4.35268 16.2553C4.35268 16.2553 4.35268 16.248 4.35268 16.2408C4.35268 16.2408 4.35268 16.2335 4.35268 16.2262C4.36722 16.0153 4.38904 15.8117 4.4254 15.608C4.4254 15.608 4.4254 15.6008 4.4254 15.5935V15.579C4.45449 15.3826 4.48359 15.179 4.51995 14.9899C4.51995 14.9899 4.51995 14.9753 4.51995 14.968C4.51995 14.968 4.51995 14.9608 4.51995 14.9535C4.54177 14.8444 4.56359 14.728 4.5854 14.619C4.5854 14.619 4.5854 14.6044 4.5854 14.5971C4.5854 14.5971 4.5854 14.5826 4.5854 14.5753C4.60722 14.4953 4.62177 14.4153 4.64359 14.3353C4.64359 14.328 4.64359 14.3208 4.65086 14.3062V14.2917C4.71631 14.0517 4.76722 13.7971 4.8545 13.5571C4.8545 13.5499 4.8545 13.5426 4.86177 13.528C4.86177 13.5135 4.86177 13.5062 4.86904 13.4917C4.94177 13.2589 5.0145 13.0335 5.10177 12.8153C5.10177 12.808 5.10177 12.8008 5.10904 12.7935C5.10904 12.7862 5.10904 12.7789 5.11631 12.7717C5.19631 12.5389 5.30541 12.3208 5.39995 12.0953C5.39995 12.0953 5.39995 12.0808 5.40722 12.0808C5.40722 12.0735 5.40722 12.0662 5.4145 12.0589C5.54541 11.7753 5.68359 11.4917 5.83632 11.2153C5.84359 11.1935 5.85813 11.1789 5.86541 11.1571C6.09086 10.7353 6.35268 10.3353 6.62904 9.94985C6.62904 9.94985 6.62905 9.94258 6.63632 9.93531C6.65086 9.92076 6.65814 9.89894 6.67268 9.8844C7.2545 9.0844 7.93087 8.35712 8.67996 7.70985C9.48723 7.00439 10.3891 6.40802 11.3491 5.92802C11.3563 5.92802 11.3709 5.92075 11.3781 5.91348C11.3927 5.91348 11.4 5.89893 11.4145 5.89893C11.8291 5.67348 12.2654 5.51348 12.7018 5.3462C12.7236 5.33893 12.7454 5.33166 12.7672 5.32439C12.7672 5.32439 12.7672 5.32439 12.7745 5.32439C13.0654 5.22257 13.3636 5.13529 13.6545 5.04802C13.6618 5.04802 13.6691 5.04802 13.6836 5.04802C13.6982 5.04802 13.7127 5.04075 13.7272 5.03348C13.9527 4.95348 14.1927 4.91711 14.4254 4.85893C14.44 4.85893 14.4472 4.85893 14.4618 4.85166C14.4691 4.85166 14.4836 4.85166 14.4909 4.84439C14.7236 4.7862 14.9636 4.77166 15.2036 4.72802C15.2182 4.72802 15.2327 4.72802 15.24 4.72075C15.2472 4.72075 15.2618 4.72075 15.2691 4.72075C15.4872 4.68438 15.7127 4.66257 15.9382 4.64075C15.9672 4.63347 15.9963 4.6262 16.0254 4.61893C16.0763 4.61166 16.1272 4.61166 16.1709 4.61893C16.2218 4.61893 16.2654 4.61893 16.3091 4.61893C16.3163 4.61893 16.3309 4.61893 16.3382 4.61893C16.3382 4.61893 16.3527 4.61893 16.36 4.61893C16.4109 4.61893 16.4618 4.61893 16.52 4.60438C16.52 4.60438 16.5345 4.60438 16.5418 4.60438C16.5782 4.60438 16.6072 4.59711 16.6436 4.58984C16.8182 4.57529 16.9927 4.59711 17.1672 4.58984C17.1672 4.58984 17.1818 4.58984 17.1891 4.58984C17.2182 4.58984 17.2472 4.58984 17.2691 4.58984C17.3127 4.58984 17.3491 4.58984 17.3927 4.58984C17.4436 4.58984 17.4872 4.58984 17.5382 4.58984C17.5382 4.58984 17.5454 4.58984 17.5527 4.58984C17.6254 4.58984 17.6909 4.58984 17.7636 4.61166C17.8218 4.61893 17.88 4.6262 17.9382 4.6262C17.9527 4.6262 17.9672 4.6262 17.9818 4.6262H17.9891C18.12 4.61893 18.2509 4.64802 18.3818 4.65529C18.3891 4.65529 18.4036 4.65529 18.4109 4.65529C18.4109 4.65529 18.4109 4.65529 18.4182 4.65529C18.6073 4.65529 18.7891 4.7062 18.9782 4.72075C18.9782 4.72075 18.9854 4.72075 18.9927 4.72075C19 4.72075 19.0073 4.72075 19.0218 4.72075C19.1454 4.72075 19.2618 4.74257 19.3782 4.77166C19.4291 4.77893 19.4873 4.77893 19.5018 4.83711C19.5163 4.88802 19.4654 4.91711 19.4291 4.95348L19.4582 4.96075Z" fill="#929497"/>
<path d="M6.62919 15.9788C6.45465 15.9934 6.38192 16.1461 6.25828 16.2406C5.77101 16.6334 5.30555 17.0334 4.83282 17.4406C4.67282 17.5788 4.52737 17.717 4.3601 17.8406C4.251 17.9206 4.20737 17.8915 4.21464 17.7606V17.3024C4.21464 17.3024 4.24373 17.2661 4.26555 17.2515C4.26555 17.2515 4.26555 17.2734 4.26555 17.2879C4.26555 17.4043 4.25828 17.5279 4.26555 17.6443C4.26555 17.6952 4.24373 17.7752 4.29464 17.797C4.3601 17.8261 4.40373 17.7606 4.45464 17.7243C4.61464 17.6006 4.7601 17.4625 4.91282 17.3315C5.42919 16.8879 5.94555 16.4515 6.46192 16.0152C6.50556 15.9861 6.55646 15.8915 6.63646 15.9861L6.62919 15.9788Z" fill="#929497"/>
<path d="M4.4036 15.6006V15.6151C4.4036 15.6151 4.4036 15.6224 4.4036 15.6297C4.36723 15.8333 4.34542 16.0442 4.33087 16.2479C4.33087 16.2479 4.33087 16.2551 4.33087 16.2624C4.33087 16.2624 4.33087 16.2697 4.33087 16.277C4.3236 16.277 4.31632 16.277 4.30178 16.277C4.29451 16.0515 4.31632 15.8333 4.36723 15.6151C4.36723 15.6151 4.36723 15.6151 4.37451 15.6151C4.38905 15.6151 4.4036 15.6079 4.41087 15.6006H4.4036Z" fill="#929497"/>
<path d="M4.28724 16.6843C4.28724 16.6843 4.28724 16.6989 4.28724 16.7134C4.25088 16.888 4.27269 17.0771 4.26542 17.2516C4.26542 17.2516 4.26542 17.2734 4.26542 17.288C4.26542 17.288 4.23633 17.3025 4.21451 17.3098C4.23633 17.1134 4.17815 16.9098 4.25088 16.7207C4.25088 16.7207 4.25088 16.7207 4.25815 16.7134C4.27269 16.6989 4.27997 16.6916 4.29451 16.6843H4.28724Z" fill="#929497"/>
<path d="M4.32355 16.2551C4.32355 16.2551 4.32355 16.2623 4.32355 16.2696C4.32355 16.2696 4.32355 16.2769 4.32355 16.2842C4.29446 16.4151 4.31627 16.5533 4.29446 16.6842C4.29446 16.6842 4.29446 16.6987 4.29446 16.7133C4.28718 16.7133 4.27264 16.7133 4.25809 16.7133C4.27264 16.5678 4.22173 16.4151 4.29446 16.2769C4.30173 16.2696 4.31627 16.2623 4.32355 16.2478V16.2551Z" fill="#929497"/>
<path d="M12.2581 10.8369C12.1781 10.9678 12.04 11.0478 11.9381 11.1641C11.8727 11.1132 11.9381 11.0987 11.96 11.0696C12.0618 10.9969 12.12 10.866 12.2509 10.8296L12.2581 10.8369Z" fill="#929497"/>
<path d="M19.5601 4.92414C19.3564 5.09868 19.1601 5.2805 18.9564 5.45505C18.7673 5.61505 18.5783 5.77505 18.3892 5.93505C18.3892 5.83323 18.4692 5.80414 18.5273 5.7605C18.811 5.51323 19.0946 5.27323 19.3783 5.03323C19.4073 5.01141 19.4364 4.98232 19.4583 4.9605C19.4946 4.92414 19.5455 4.89505 19.531 4.84414C19.5237 4.79323 19.4583 4.79323 19.4073 4.77868C19.291 4.74959 19.1673 4.73504 19.051 4.72777C19.0437 4.72777 19.0364 4.72777 19.0219 4.72777C19.0219 4.7205 19.0364 4.70595 19.0364 4.69141C19.1964 4.69141 19.3492 4.73504 19.5019 4.76414C19.6328 4.78595 19.6473 4.84414 19.5528 4.93141L19.5601 4.92414Z" fill="#929497"/>
<path d="M9.1018 13.935C9.13816 14.015 9.03635 14.0587 9.05089 14.1314C8.99998 13.9059 8.87635 13.8259 8.65089 13.8696C8.41089 13.9205 8.19271 14.0441 8.03271 14.2332C7.98907 14.2841 7.93816 14.3278 7.88725 14.3714C7.85089 14.3205 7.88725 14.2769 7.9018 14.2332C7.99634 13.9132 8.21452 13.6878 8.48362 13.5059C8.5418 13.4623 8.61453 13.4332 8.68725 13.4114C8.99998 13.3387 9.17453 13.4914 9.13089 13.8114C9.13089 13.855 9.13089 13.8987 9.10907 13.9423L9.1018 13.935Z" fill="#929497"/>
<path d="M9.10188 13.9351C9.10188 13.8842 9.10188 13.8405 9.10188 13.7896C9.10188 13.4696 8.92734 13.346 8.62916 13.4841C8.28734 13.6441 8.06915 13.9205 7.91643 14.2623C7.88006 14.2623 7.86552 14.2623 7.87279 14.2187C7.98188 13.8187 8.19279 13.4914 8.54188 13.2514C8.62916 13.1932 8.73097 13.1569 8.82552 13.1351C8.98552 13.0987 9.15279 13.2005 9.18916 13.3605C9.24007 13.5496 9.21097 13.7605 9.10188 13.9351Z" fill="#929497"/>
<path d="M13.1672 11.3753C12.7381 11.4917 12.3744 11.4408 12.0326 11.2153C12.0108 11.1863 11.9744 11.1717 11.9308 11.1717C11.8654 11.1208 11.9308 11.1063 11.9526 11.0772C12.0544 11.0044 12.1126 10.8735 12.2435 10.8372C12.4108 11.099 12.6726 11.2153 12.949 11.3172C12.9999 11.339 13.0654 11.3535 13.1526 11.3753H13.1672Z" fill="#929497"/>
<path d="M27.1019 11.8916C26.9637 11.877 26.8692 11.7825 26.7456 11.7389C26.6946 11.717 26.651 11.6589 26.6001 11.7025C26.5637 11.7389 26.6219 11.7825 26.6074 11.8334C26.5346 11.768 26.5056 11.6734 26.4619 11.5789C26.6801 11.6661 26.8983 11.7534 27.0946 11.8916H27.1019Z" fill="#929497"/>
<path d="M30.1056 13.964C30.142 13.9422 30.1056 13.9131 30.1056 13.884L30.3165 14.0004L30.4329 14.1458C30.2947 14.1095 30.2001 14.0295 30.1056 13.964Z" fill="#929497"/>
<path d="M21.6545 11.0625C21.7491 11.048 21.8582 11.0625 21.9455 11.0843C21.8291 11.1498 21.7491 11.1425 21.6545 11.0625Z" fill="#F6F6F6"/>
<path d="M7.56006 28.0879C7.67642 28.1097 7.72733 28.2188 7.82188 28.2697V28.3133C7.71279 28.2624 7.62551 28.1824 7.56006 28.0879Z" fill="#929497"/>
<path d="M30.9202 21.0552L30.9856 21.0915C30.9929 21.1643 30.9638 21.2297 30.9202 21.317V21.0552Z" fill="#929497"/>
<path d="M21.6474 5.49902C21.6692 5.54993 21.7274 5.53539 21.7711 5.54993L21.5747 5.62993C21.5601 5.54993 21.6111 5.52811 21.6474 5.49902Z" fill="#929497"/>
<path d="M7.8801 14.2117L7.92374 14.2553C7.92374 14.2553 7.90192 14.328 7.88737 14.3644L7.80737 14.4662C7.82919 14.3426 7.82919 14.2699 7.87283 14.2117H7.8801Z" fill="#929497"/>
<path d="M17.0149 8.48908C17.0149 8.48908 17.0149 8.42309 16.9709 8.40842C16.9783 8.37909 17.0149 8.34243 17.0296 8.3571C17.0736 8.40109 17.0516 8.45242 17.0149 8.49641V8.48908Z" fill="#929497"/>
<path d="M4.8763 13.5205C4.8763 13.5205 4.8763 13.5423 4.86903 13.5569C4.86903 13.5641 4.86903 13.5714 4.86176 13.586C4.77448 13.826 4.72357 14.0805 4.65812 14.3205V14.3351C4.65812 14.3423 4.65812 14.3496 4.65085 14.3641C4.64357 14.3569 4.6363 14.3423 4.62903 14.3278C4.67994 14.066 4.73085 13.8041 4.84721 13.5641C4.84721 13.5641 4.84721 13.5641 4.84721 13.5569C4.86176 13.5496 4.8763 13.5351 4.88357 13.5278L4.8763 13.5205Z" fill="#929497"/>
<path d="M16.0618 4.62592C16.0327 4.62592 16.0036 4.64047 15.9745 4.64774C15.7491 4.66956 15.5236 4.6841 15.3054 4.72774C15.2982 4.72774 15.2836 4.72774 15.2764 4.72774C15.2618 4.72774 15.2473 4.72774 15.24 4.73501C15.2545 4.72047 15.2764 4.70592 15.2909 4.6841C15.5236 4.63319 15.7491 4.6041 15.9891 4.61138C15.9891 4.61138 15.9891 4.61137 15.9964 4.6041C16.0182 4.58956 16.04 4.59683 16.0618 4.6041C16.0618 4.6041 16.0618 4.6041 16.0618 4.61138C16.0618 4.61138 16.0618 4.61137 16.0618 4.61865V4.62592Z" fill="#929497"/>
<path d="M5.13093 12.8005C5.13093 12.8005 5.13093 12.8151 5.12366 12.8224C5.12366 12.8296 5.12365 12.8369 5.11638 12.8442C5.02911 13.0696 4.95638 13.2951 4.88365 13.5205C4.88365 13.5351 4.88365 13.5424 4.87638 13.5569C4.87638 13.5642 4.87638 13.5714 4.86911 13.586C4.86184 13.586 4.85456 13.5787 4.84729 13.5642C4.8982 13.3096 4.98547 13.0624 5.10184 12.8296C5.11638 12.8224 5.12365 12.8151 5.1382 12.8078L5.13093 12.8005Z" fill="#929497"/>
<path d="M15.2836 4.69135C15.2836 4.69135 15.2763 4.72045 15.269 4.72772C15.2545 4.72772 15.2399 4.72772 15.2327 4.73499C14.9927 4.77863 14.7527 4.79317 14.5199 4.85135C14.5126 4.85135 14.4981 4.85136 14.4908 4.85863C14.4763 4.85863 14.469 4.85863 14.4545 4.8659C14.4545 4.85863 14.4617 4.85136 14.469 4.84408C14.469 4.84408 14.4836 4.84408 14.4908 4.83681C14.7526 4.73499 15.029 4.74226 15.2908 4.68408L15.2836 4.69135Z" fill="#929497"/>
<path d="M5.43648 12.0808C5.43648 12.0808 5.4292 12.0953 5.4292 12.1026C5.4292 12.1026 5.4292 12.1171 5.42193 12.1171C5.32738 12.3426 5.21102 12.5608 5.13829 12.7935C5.13829 12.8008 5.13829 12.808 5.13102 12.8153C5.13102 12.8226 5.13102 12.8299 5.12375 12.8371C5.12375 12.8371 5.1092 12.8226 5.10193 12.8153C5.15284 12.568 5.28375 12.3426 5.39284 12.1171C5.39284 12.1171 5.40011 12.1099 5.40738 12.1026C5.42193 12.0953 5.4292 12.0808 5.44375 12.0735L5.43648 12.0808Z" fill="#929497"/>
<path d="M14.52 4.85165C14.52 4.85165 14.4981 4.85165 14.4909 4.85893C14.4763 4.85893 14.4691 4.85892 14.4545 4.8662C14.2218 4.92438 13.9818 4.96074 13.7563 5.04074C13.7418 5.04074 13.7272 5.04801 13.7127 5.05529C13.7054 5.05529 13.6981 5.05529 13.6836 5.05529C13.6981 5.04074 13.72 5.0262 13.7418 5.01165C13.9745 4.90256 14.229 4.87347 14.4763 4.82983C14.4763 4.82983 14.4763 4.82983 14.4836 4.82983C14.4981 4.82983 14.5127 4.83711 14.52 4.84438V4.85165Z" fill="#929497"/>
<path d="M5.88737 11.1787C5.88737 11.1787 5.86555 11.2151 5.85828 11.2369C5.70555 11.5133 5.56737 11.7896 5.43646 12.0805C5.43646 12.0878 5.42919 12.0951 5.42919 12.1023C5.42191 12.1023 5.41464 12.1023 5.40737 12.1023C5.40737 12.1023 5.4001 12.1023 5.39282 12.1023C5.50919 11.7896 5.65464 11.4987 5.83646 11.2223C5.83646 11.2223 5.83646 11.2223 5.84373 11.2223C5.85828 11.2078 5.8801 11.1933 5.90191 11.1787H5.88737Z" fill="#929497"/>
<path d="M13.7419 5.01875C13.7419 5.01875 13.72 5.04784 13.7128 5.05511C13.7055 5.05511 13.6982 5.05511 13.6837 5.05511C13.3855 5.13511 13.0946 5.22966 12.8037 5.33147C12.8037 5.33147 12.8037 5.33147 12.7964 5.33147C12.7746 5.33875 12.7528 5.34602 12.731 5.35329C12.7455 5.33875 12.7673 5.3242 12.7819 5.30238C13.0873 5.17875 13.4073 5.0842 13.7346 5.01147L13.7419 5.01875Z" fill="#929497"/>
<path d="M6.70183 9.90601C6.70183 9.90601 6.68001 9.94237 6.66547 9.95691C6.66547 9.95691 6.66547 9.96419 6.65819 9.97146C6.38183 10.3569 6.12001 10.7642 5.89456 11.1787C5.88728 11.1933 5.87274 11.2151 5.86546 11.2369C5.85819 11.2369 5.84365 11.2369 5.8291 11.2369C5.8291 11.2369 5.8291 11.2224 5.83637 11.2224C6.06183 10.7715 6.33092 10.3496 6.63638 9.95691C6.65819 9.94237 6.68001 9.92782 6.70183 9.90601Z" fill="#929497"/>
<path d="M12.789 5.33866C12.789 5.33866 12.7454 5.35321 12.7236 5.36048C12.2872 5.52775 11.8509 5.69502 11.4363 5.91321C11.4218 5.91321 11.4145 5.92775 11.3999 5.92775C11.3927 5.92775 11.3781 5.93503 11.3708 5.9423C11.3854 5.92775 11.3927 5.91321 11.4072 5.89866C11.8363 5.62957 12.309 5.47684 12.7745 5.30957C12.7745 5.30957 12.7818 5.32411 12.7818 5.33139L12.789 5.33866Z" fill="#929497"/>
<path d="M20.5419 21.7243C20.171 22.0297 19.8073 22.3352 19.3128 22.5461C19.4582 22.2625 19.5601 21.9643 19.6401 21.6516C19.931 20.3788 19.6619 19.2152 18.9128 18.1606C18.7237 17.8988 18.4764 17.7025 18.2582 17.4697C18.2219 17.4334 18.1855 17.3897 18.1201 17.4188C18.0546 17.3825 18.0255 17.3243 17.9746 17.2734C18.0037 17.237 18.0401 17.2516 18.0692 17.2734C18.9564 17.7752 19.6982 18.4297 20.1564 19.3679C20.3746 19.8261 20.5128 20.3279 20.5564 20.837C20.5855 21.1279 20.5783 21.4334 20.5492 21.7243H20.5419Z" fill="#97999C"/>
<path d="M4.64367 14.3352C4.64367 14.3352 4.64367 14.3498 4.6364 14.3643C4.61458 14.4443 4.60003 14.5243 4.57822 14.6043C4.57822 14.6043 4.57822 14.6188 4.57822 14.6261C4.57822 14.6261 4.57822 14.6407 4.57822 14.6479C4.57094 14.6479 4.56367 14.6407 4.5564 14.6334C4.5564 14.5388 4.57821 14.437 4.62912 14.3425C4.6364 14.3425 4.65094 14.3425 4.65821 14.3498L4.64367 14.3352Z" fill="#929497"/>
<path d="M16.3892 4.58252C16.3892 4.59707 16.3892 4.60434 16.3746 4.61888C16.3673 4.61888 16.3528 4.61888 16.3455 4.61888C16.3019 4.61888 16.251 4.61888 16.2073 4.61888C16.1564 4.61888 16.1128 4.61888 16.0619 4.61888C16.0619 4.61888 16.0619 4.61888 16.0619 4.61161C16.0983 4.57525 16.1564 4.61161 16.1928 4.58979C16.1928 4.58979 16.1928 4.58979 16.2001 4.58979H16.3892V4.58252Z" fill="#929497"/>
<path d="M11.4219 5.89868C11.4219 5.89868 11.4219 5.89868 11.4219 5.90596C11.4219 5.91323 11.4219 5.92777 11.4146 5.93505C11.4074 5.93505 11.3928 5.94232 11.3856 5.94959C10.4256 6.42232 9.52373 7.02596 8.71646 7.73141C7.96737 8.37869 7.291 9.10596 6.70918 9.90596C6.69464 9.92051 6.68736 9.94233 6.67282 9.95687C6.67282 9.95687 6.67282 9.96415 6.66555 9.97142C6.66555 9.97142 6.651 9.96415 6.651 9.95687C6.84009 9.66596 7.05827 9.38233 7.291 9.12051C8.15646 8.11687 9.13828 7.24414 10.2656 6.53868C10.6437 6.30596 11.0146 6.06596 11.4292 5.90596L11.4219 5.89868Z" fill="#929497"/>
<path d="M17.7855 4.58226C17.72 4.57498 17.6546 4.58226 17.5818 4.58226C17.5818 4.58226 17.5746 4.58226 17.5673 4.58226C17.5164 4.58226 17.4655 4.57498 17.4146 4.54589H17.4291C17.5382 4.55316 17.6546 4.5168 17.7564 4.56771C17.7636 4.56771 17.7709 4.57498 17.7782 4.58226H17.7855Z" fill="#929497"/>
<path d="M16.2 4.5823C16.1636 4.63321 16.1054 4.61139 16.0545 4.61866H15.9818C16.0473 4.55321 16.1273 4.59684 16.2 4.5823Z" fill="#929497"/>
<path d="M12.6728 30.1897C13.8728 30.2406 15.0728 30.0515 16.1928 29.637C17.2837 29.237 18.3092 28.6624 19.211 27.9351C20.0983 27.2151 20.8619 26.3933 21.371 25.3533C21.6474 24.8006 21.8146 24.2042 21.8728 23.586C21.9237 23.0333 21.8292 22.5097 21.6765 21.986C21.691 21.8551 21.8074 21.797 21.8801 21.7097C22.1419 21.3606 22.3383 20.9897 22.4183 20.5606C22.4328 20.5024 22.4546 20.4442 22.4765 20.3933C22.6437 20.7279 22.7746 21.0769 22.8692 21.4333C23.0001 21.9351 23.0728 22.4515 23.0292 22.9751C22.9637 23.877 22.6874 24.757 22.2365 25.5424C21.7855 26.3351 21.2037 27.0115 20.5419 27.6224C19.9528 28.1461 19.3055 28.6042 18.6074 28.9679C17.771 29.4261 16.8764 29.7606 15.9455 29.9861C15.3637 30.1242 14.7746 30.2042 14.1783 30.2406C13.8873 30.2552 13.6037 30.277 13.3201 30.2624C13.1092 30.2406 12.8837 30.2624 12.6655 30.1897H12.6728Z" fill="#97999C"/>
<path d="M121.757 16.3861C121.633 16.7351 121.502 17.077 121.378 17.4261C120.571 19.6952 119.764 21.957 118.957 24.2261C118.891 24.4079 118.862 24.6043 118.593 24.6115C118.317 24.6115 118.251 24.437 118.178 24.2333C116.862 20.5533 115.546 16.8733 114.222 13.1933C114.098 12.8515 113.953 12.5242 113.8 12.1897C113.582 11.7097 113.197 11.4333 112.666 11.3751C112.52 11.3606 112.389 11.346 112.397 11.157C112.397 10.9388 112.564 10.9606 112.709 10.9606C114.164 10.9606 115.618 10.9606 117.073 10.9606C117.211 10.9606 117.378 10.9315 117.386 11.157C117.386 11.3751 117.226 11.3606 117.087 11.3751C116.957 11.3897 116.818 11.4115 116.687 11.4406C116.2 11.5715 115.997 11.877 116.12 12.3715C116.331 13.2151 116.658 14.0297 116.949 14.8442C117.611 16.7133 118.273 18.5752 118.942 20.4442C118.986 20.5679 119.007 20.7061 119.109 20.8079C119.233 20.7642 119.233 20.6479 119.262 20.5533C119.917 18.7279 120.557 16.8951 121.211 15.0697C121.255 14.9388 121.284 14.8224 121.233 14.677C120.978 13.9933 120.738 13.3097 120.484 12.6333C120.215 11.9133 119.757 11.4042 118.927 11.3606C118.789 11.3533 118.724 11.2806 118.731 11.1424C118.731 10.9315 118.884 10.9533 119.015 10.9533C120.171 10.9533 121.32 10.9533 122.477 10.9533C122.884 10.9533 123.284 10.9533 123.691 10.9533C123.815 10.9533 123.953 10.9533 123.96 11.1279C123.967 11.3024 123.873 11.3679 123.713 11.3679C123.633 11.3679 123.546 11.3751 123.466 11.3897C122.746 11.5206 122.549 11.797 122.687 12.5097C122.833 13.266 123.138 13.9788 123.386 14.6988C124.062 16.6842 124.753 18.6552 125.437 20.6406C125.458 20.7061 125.487 20.7715 125.517 20.8442C125.64 20.8224 125.633 20.7279 125.655 20.6552C126.506 18.2261 127.349 15.797 128.193 13.3679C128.317 13.0115 128.411 12.6551 128.404 12.277C128.397 11.8333 128.215 11.5788 127.786 11.4551C127.618 11.4042 127.444 11.3824 127.269 11.3606C127.138 11.346 127.022 11.3315 127.022 11.157C127.022 10.9606 127.146 10.946 127.291 10.946C128.047 10.946 128.811 10.946 129.567 10.946C129.96 10.946 130.36 10.946 130.753 10.946C130.891 10.946 131.029 10.946 131.037 11.1424C131.037 11.3097 130.935 11.346 130.797 11.3606C130.142 11.4333 129.764 11.8406 129.538 12.4224C129.087 13.5715 128.717 14.7497 128.317 15.9133C127.371 18.677 126.433 21.4479 125.487 24.2188C125.422 24.4006 125.386 24.597 125.117 24.597C124.833 24.597 124.782 24.4006 124.717 24.2043C123.8 21.6806 122.877 19.157 121.96 16.6333C121.931 16.5461 121.887 16.4661 121.851 16.3788C121.822 16.3788 121.793 16.3715 121.771 16.3642L121.757 16.3861Z" fill="white"/>
<path d="M52.2947 17.4988C52.2292 20.1534 51.1601 22.277 48.8983 23.7461C48.4983 24.008 48.0474 24.1898 47.582 24.2989C47.3638 24.3498 47.342 24.4443 47.422 24.6261C48.2947 26.5025 49.7129 27.6589 51.7929 27.9643C51.8656 27.9716 51.9383 27.9789 52.0111 27.9861C52.1492 28.0007 52.2438 28.0516 52.2365 28.2189C52.2365 28.3934 52.1201 28.4225 51.982 28.4152C51.3347 28.4007 50.6947 28.3207 50.0765 28.1607C47.6692 27.528 45.5674 26.3789 43.931 24.4661C43.851 24.3716 43.7638 24.2843 43.6401 24.248C41.8074 23.6734 40.6438 22.357 39.8365 20.6989C38.4619 17.8916 38.9928 14.4516 41.2983 12.3207C42.4692 11.2443 43.851 10.7134 45.4438 10.6334C49.1092 10.437 51.9601 13.3607 52.2947 16.6916C52.3238 16.9607 52.2947 17.2298 52.2947 17.4988ZM41.4583 17.5207C41.451 18.1243 41.5019 18.7207 41.5892 19.317C41.771 20.5389 42.1347 21.6879 42.971 22.6334C43.7783 23.557 44.8038 24.0007 46.0329 23.7898C47.771 23.4916 48.8547 22.3861 49.422 20.7861C50.1856 18.6479 50.1565 16.4661 49.4656 14.3134C49.1311 13.2588 48.5347 12.3643 47.531 11.8116C46.0765 11.0043 43.5674 11.077 42.3383 13.4334C41.6692 14.7207 41.4874 16.1025 41.4583 17.5279V17.5207Z" fill="white"/>
<path d="M91.7056 17.6079C91.7056 17.9425 91.7056 18.197 91.7056 18.4516C91.7056 19.6443 91.7056 20.837 91.7056 22.0298C91.7056 22.2988 91.7346 22.5679 91.7783 22.837C91.8874 23.4843 92.2801 23.7825 93.0728 23.8479C93.1892 23.8552 93.2983 23.8552 93.4147 23.8698C93.5528 23.8843 93.5674 23.9861 93.5674 24.0952C93.5674 24.2043 93.5237 24.277 93.4074 24.2843C93.3128 24.2916 93.2183 24.2989 93.131 24.2989C91.4874 24.2989 89.851 24.2989 88.2074 24.2989C88.1274 24.2989 88.0401 24.2989 87.9601 24.2916C87.8146 24.2843 87.7346 24.2116 87.7419 24.0516C87.7492 23.8989 87.8437 23.8625 87.9674 23.8552C88.1128 23.8479 88.2583 23.8479 88.4037 23.8189C89.2692 23.6661 89.5528 23.3461 89.6037 22.4661C89.611 22.3352 89.6037 22.197 89.6037 22.0588C89.6037 19.0916 89.6037 16.1243 89.6037 13.157C89.6037 13.0625 89.6037 12.9679 89.6037 12.8734C89.5819 11.8406 89.211 11.4479 88.1855 11.3679C88.091 11.3606 87.9965 11.3679 87.9092 11.3534C87.7783 11.3388 87.7419 11.2588 87.7419 11.1352C87.7419 11.0261 87.7928 10.9606 87.9092 10.9534C87.9746 10.9534 88.0328 10.9534 88.0983 10.9534C89.8001 10.9534 91.5019 10.9534 93.211 10.9534C93.2401 10.9534 93.2765 10.9534 93.3056 10.9534C93.451 10.9534 93.5819 10.9606 93.5747 11.1643C93.5747 11.3388 93.4583 11.3534 93.3201 11.3679C93.1165 11.3897 92.9056 11.4043 92.7019 11.4479C92.1201 11.5643 91.8437 11.8697 91.7637 12.4588C91.7201 12.757 91.6983 13.0552 91.6983 13.3606C91.6983 14.3861 91.6983 15.4116 91.6983 16.4443C91.6983 16.5316 91.6401 16.6552 91.7565 16.6916C91.8365 16.7207 91.8947 16.6188 91.9528 16.5607C93.2328 15.4043 94.5128 14.2552 95.7928 13.0988C96.091 12.8297 96.3892 12.5461 96.6147 12.2116C96.8983 11.7897 96.7892 11.5352 96.3019 11.4334C96.1565 11.4043 96.0183 11.3897 95.8728 11.3825C95.7201 11.3679 95.5383 11.4043 95.5456 11.1643C95.5528 10.917 95.7492 10.9752 95.8947 10.9752C97.0656 10.9752 98.2438 10.9752 99.4147 10.9752C99.7056 10.9752 99.9965 10.9752 100.287 10.9752C100.418 10.9752 100.513 11.0116 100.52 11.157C100.527 11.317 100.44 11.3825 100.295 11.3825C99.1819 11.397 98.3165 11.9497 97.5383 12.6697C96.2219 13.8916 94.9128 15.1207 93.5965 16.3425C93.4001 16.5243 93.4074 16.6261 93.5965 16.8079C95.4656 18.6552 97.3201 20.5098 99.1892 22.357C99.4801 22.6479 99.8074 22.9098 100.12 23.1861C100.644 23.6516 101.262 23.8479 101.946 23.8698C102.098 23.8698 102.28 23.8407 102.287 24.0807C102.287 24.3352 102.091 24.3134 101.931 24.3134C100.069 24.3134 98.2147 24.3134 96.3528 24.3134C96.2147 24.3134 96.0474 24.3352 96.0328 24.117C96.0183 23.8843 96.171 23.8843 96.331 23.8625C96.9274 23.7607 97.1238 23.3243 96.7965 22.8152C96.651 22.597 96.491 22.3934 96.3092 22.2116C94.8401 20.7279 93.3638 19.2588 91.8874 17.7825C91.851 17.7461 91.8147 17.717 91.7128 17.6225L91.7056 17.6079Z" fill="white"/>
<path d="M146.578 10.9607C147.531 10.9607 148.491 10.9316 149.444 10.968C150.724 11.0189 151.887 11.4335 152.738 12.4225C154.564 14.5462 153.349 17.768 150.549 18.2771C149.582 18.4516 148.607 18.3789 147.64 18.2262C147.24 18.1607 147.24 18.1607 147.24 18.5535C147.24 19.7244 147.24 20.8953 147.24 22.0662C147.24 22.1826 147.24 22.2917 147.24 22.408C147.262 23.3608 147.611 23.7389 148.564 23.8335C148.637 23.8408 148.709 23.8335 148.782 23.8408C148.942 23.8408 149.109 23.8408 149.102 24.0735C149.095 24.3062 148.913 24.2844 148.76 24.2917C147.502 24.2917 146.244 24.2917 144.993 24.2917C144.513 24.2917 144.04 24.2917 143.56 24.2917C143.415 24.2917 143.255 24.2917 143.247 24.0808C143.24 23.848 143.407 23.848 143.567 23.848C143.618 23.848 143.669 23.848 143.72 23.848C144.709 23.7753 145.095 23.4044 145.102 22.4153C145.117 19.2226 145.117 16.0226 145.102 12.8298C145.102 11.8044 144.717 11.4407 143.684 11.3753C143.633 11.3753 143.582 11.3753 143.531 11.3753C143.386 11.3753 143.255 11.3607 143.247 11.1716C143.247 10.9753 143.378 10.9607 143.524 10.968C143.866 10.968 144.207 10.968 144.549 10.968C145.226 10.968 145.902 10.968 146.571 10.968L146.578 10.9607ZM147.24 14.6335C147.24 15.4335 147.247 16.2262 147.24 17.0262C147.24 17.2662 147.32 17.3898 147.56 17.4335C147.858 17.4844 148.149 17.5789 148.44 17.6007C149.393 17.6735 150.237 17.4626 150.818 16.6262C151.247 16.0153 151.32 15.3244 151.284 14.6116C151.189 12.5607 149.524 11.3389 147.538 11.8553C147.313 11.9135 147.233 12.0153 147.24 12.2407C147.247 13.0407 147.24 13.8335 147.24 14.6335Z" fill="white"/>
<path d="M64.3165 16.3789C64.3165 15.3607 64.3165 14.3425 64.3165 13.3316C64.3165 13.1789 64.3165 13.0189 64.3165 12.8662C64.2874 11.7898 63.9165 11.4262 62.8329 11.3753C62.782 11.3753 62.7311 11.3753 62.6801 11.3753C62.5492 11.3753 62.462 11.3171 62.462 11.1716C62.462 11.0262 62.5347 10.9607 62.6729 10.968C62.7165 10.968 62.7529 10.968 62.7965 10.968C64.1492 10.968 65.4947 10.968 66.8474 10.968C67.0001 10.968 67.1892 10.9316 67.182 11.1716C67.182 11.4116 66.9856 11.368 66.8402 11.3753C66.8111 11.3753 66.7747 11.3753 66.7456 11.3753C65.6983 11.4625 65.3347 11.8189 65.3274 12.8662C65.3129 15.0334 65.3274 17.2007 65.3129 19.368C65.3129 20.0735 65.2547 20.7789 65.0292 21.4553C64.5347 22.9244 63.5456 23.8916 62.062 24.3062C60.5783 24.7207 59.0729 24.7571 57.6329 24.1462C55.8801 23.3971 54.9638 21.9935 54.8401 20.1316C54.6947 17.8407 54.811 15.5498 54.7819 13.2589C54.7819 12.9462 54.7819 12.6407 54.7238 12.328C54.6219 11.8116 54.3019 11.5353 53.8001 11.448C53.6038 11.4116 53.4074 11.3898 53.211 11.3753C53.0583 11.3607 52.9056 11.3753 52.9128 11.1571C52.9201 10.9316 53.0874 10.968 53.2328 10.968C53.8219 10.968 54.4183 10.968 55.0074 10.968C56.1492 10.968 57.291 10.968 58.4329 10.968C58.5856 10.968 58.7674 10.9316 58.7601 11.1789C58.7601 11.3971 58.5856 11.368 58.4401 11.3825C58.3892 11.3825 58.3383 11.3825 58.2874 11.3898C57.2692 11.4916 56.9056 11.8625 56.9056 12.888C56.8983 15.2444 56.8838 17.6007 56.9056 19.9498C56.9201 21.5571 57.9892 23.0626 59.4001 23.4844C62.062 24.2771 64.1056 22.5462 64.2729 20.088C64.3529 18.8589 64.2874 17.6225 64.2874 16.3862C64.2874 16.3862 64.2947 16.3862 64.302 16.3862L64.3165 16.3789Z" fill="white"/>
<path d="M139.982 24.2986C139.189 24.2986 138.404 24.2986 137.611 24.2986C137.458 24.2986 137.255 24.3568 137.24 24.095C137.226 23.8332 137.422 23.8696 137.582 23.855C137.735 23.8405 137.895 23.8186 138.04 23.775C138.557 23.6296 138.789 23.2732 138.637 22.7568C138.346 21.8041 137.895 20.9095 137.509 19.9932C137.458 19.8695 137.349 19.8477 137.226 19.8477C135.669 19.8477 134.106 19.8477 132.549 19.8477C132.397 19.8477 132.295 19.8986 132.237 20.0441C131.909 20.8077 131.553 21.5568 131.248 22.3277C130.855 23.3168 131.189 23.8041 132.266 23.855C132.338 23.855 132.411 23.855 132.484 23.8696C132.6 23.8841 132.637 23.9714 132.637 24.0732C132.637 24.175 132.608 24.2623 132.498 24.2841C132.397 24.2986 132.295 24.3059 132.186 24.3059C131.051 24.3059 129.924 24.3059 128.789 24.3059C128.695 24.3059 128.6 24.3059 128.513 24.2914C128.389 24.2768 128.331 24.2114 128.331 24.0805C128.331 23.9641 128.375 23.8768 128.498 23.8623C129.262 23.8041 129.669 23.2805 129.968 22.6623C130.724 21.0986 131.364 19.4914 132.055 17.9059C133.058 15.5932 134.048 13.2732 135.044 10.9604C135.124 10.7786 135.197 10.6477 135.444 10.6477C135.691 10.6477 135.764 10.7859 135.837 10.9677C137.415 14.6913 138.993 18.415 140.571 22.1459C140.673 22.3932 140.804 22.6332 140.92 22.8732C141.233 23.5059 141.749 23.8332 142.455 23.8696C142.586 23.8696 142.738 23.8477 142.76 24.0514C142.789 24.2986 142.629 24.3205 142.448 24.3205C141.626 24.3205 140.804 24.3205 139.982 24.3205V24.2986ZM134.92 13.8695C134.862 13.9495 134.833 13.9713 134.826 13.9932C134.135 15.6004 133.444 17.2077 132.746 18.815C132.644 19.0477 132.768 19.0477 132.935 19.0477C134.208 19.0477 135.488 19.0477 136.76 19.0477C137.022 19.0477 137.022 18.9604 136.935 18.7568C136.469 17.6368 136.011 16.5168 135.553 15.3968C135.349 14.9023 135.146 14.4077 134.92 13.8623V13.8695Z" fill="white"/>
<path d="M111.211 12.9897C111.211 13.6661 111.211 14.3352 111.211 15.0115C111.211 15.157 111.218 15.3097 111.007 15.3315C110.789 15.3461 110.76 15.2152 110.738 15.0406C110.622 14.2406 110.404 13.4843 109.946 12.8006C109.102 11.5497 107.502 11.2079 106.36 11.5643C105.48 11.8406 104.956 12.4661 104.818 13.3824C104.767 13.7461 104.891 14.0806 105.087 14.3861C105.509 15.0334 106.12 15.4625 106.767 15.8406C107.8 16.4443 108.833 17.0334 109.873 17.6225C110.462 17.957 110.956 18.3861 111.378 18.9097C112.375 20.1388 112.302 21.9207 111.233 23.1425C110.44 24.0516 109.422 24.4588 108.251 24.5679C107.204 24.6625 106.207 24.5025 105.24 24.0879C105 23.9861 104.76 23.8916 104.498 23.877C104.105 23.8552 103.953 23.9497 103.807 24.3134C103.793 24.3425 103.785 24.3716 103.778 24.4007C103.742 24.5461 103.655 24.6116 103.509 24.597C103.335 24.5825 103.335 24.4516 103.335 24.3207C103.335 23.6443 103.335 22.9752 103.335 22.2988C103.335 21.6443 103.335 20.9897 103.335 20.3352C103.335 20.2043 103.32 20.0588 103.524 20.0443C103.72 20.037 103.735 20.1534 103.749 20.3061C103.953 22.2043 105.225 23.477 107.153 23.7316C107.778 23.8116 108.375 23.7825 108.949 23.5279C110.331 22.917 110.68 21.3752 109.698 20.2261C109.313 19.7825 108.855 19.4261 108.346 19.1352C107.291 18.5316 106.215 17.957 105.182 17.3315C104.273 16.7788 103.553 16.037 103.276 14.9679C102.833 13.2079 103.916 11.3752 105.72 10.8297C106.804 10.5024 107.873 10.5752 108.927 10.9679C109.211 11.0697 109.487 11.1934 109.771 11.2879C110.215 11.4334 110.556 11.2879 110.731 10.8588C110.796 10.6988 110.869 10.6115 111.044 10.6406C111.24 10.677 111.204 10.8297 111.204 10.9606C111.204 11.637 111.204 12.3061 111.204 12.9824L111.211 12.9897Z" fill="white"/>
<path d="M81.8074 10.6477C82.7092 10.5677 83.6474 10.9095 84.571 11.3313C85.1601 11.6077 85.3638 11.5204 85.6256 10.924C85.691 10.7713 85.7419 10.604 85.9674 10.6477C86.171 10.6913 86.1347 10.8659 86.1492 10.9968C86.2438 12.2768 86.331 13.5568 86.4183 14.844C86.4256 14.9968 86.5274 15.1931 86.2437 15.215C85.9892 15.2368 85.9092 15.1204 85.8656 14.8804C85.6765 13.8186 85.1383 12.9459 84.3092 12.2622C82.7528 10.9677 80.491 11.084 78.9783 12.5313C78.1492 13.324 77.6328 14.2913 77.3637 15.3968C76.9565 17.055 76.8765 18.7277 77.4656 20.3641C78.1201 22.175 79.3783 23.3459 81.3201 23.695C82.8256 23.9713 84.0765 23.4695 85.1601 22.4441C85.5674 22.0586 85.9237 21.6295 86.2437 21.1641C86.331 21.0332 86.4038 20.895 86.6074 21.0186C86.8183 21.1422 86.731 21.2659 86.6438 21.4041C85.771 22.8077 84.6437 23.9423 83.0147 24.3641C80.7819 24.9459 78.7383 24.4441 76.9565 22.9532C73.5237 20.0732 73.7346 14.255 78.1419 11.5786C79.2256 10.9168 80.2946 10.6477 81.8147 10.6477H81.8074Z" fill="white"/>
<path d="M70.6509 10.9535C71.5018 10.9535 72.3527 10.9535 73.2037 10.9535C73.3491 10.9535 73.5673 10.8807 73.5673 11.1571C73.5673 11.4044 73.3709 11.3462 73.2255 11.368C73.0437 11.3898 72.8546 11.4116 72.6727 11.448C72.12 11.5716 71.8436 11.8626 71.7709 12.4153C71.7273 12.6989 71.7055 12.9898 71.7055 13.2807C71.7055 16.1607 71.7055 19.048 71.7055 21.928C71.7055 22.2189 71.7273 22.5098 71.7709 22.7935C71.8655 23.448 72.2509 23.7535 73.0437 23.8262C73.1455 23.8335 73.2546 23.8335 73.3564 23.8408C73.4873 23.8408 73.5673 23.8989 73.5746 24.0444C73.5746 24.2117 73.4946 24.2699 73.3491 24.2699C73.2691 24.2699 73.1818 24.2699 73.1018 24.2699C71.48 24.2699 69.8582 24.2699 68.2436 24.2699C68.1491 24.2699 68.0545 24.2698 67.96 24.2626C67.8291 24.2553 67.7418 24.2044 67.7418 24.0517C67.7418 23.8917 67.8218 23.8335 67.9745 23.8262C68.1418 23.8189 68.3091 23.8117 68.4691 23.7753C69.2618 23.6298 69.5455 23.3099 69.6036 22.4953C69.6182 22.328 69.6109 22.1608 69.6109 22.0008C69.6109 19.0553 69.6109 16.1098 69.6109 13.1644C69.6109 13.0626 69.6109 12.9535 69.6109 12.8516C69.5964 11.8262 69.2255 11.4262 68.2 11.3462C68.1345 11.3462 68.0764 11.3462 68.0109 11.3462C67.8582 11.3462 67.7418 11.3171 67.7491 11.1207C67.7491 10.9389 67.88 10.9316 68.0109 10.9316C68.1564 10.9316 68.3018 10.9316 68.4473 10.9316C69.1818 10.9316 69.9236 10.9316 70.6582 10.9316L70.6509 10.9535Z" fill="white"/>
</svg>
