<svg width="129" height="30" viewBox="0 0 129 30" fill="none" xmlns="http://www.w3.org/2000/svg">
<path d="M27.1533 0C28.4041 0 29.4189 1.02223 29.4189 2.2832V27.375C29.4189 28.636 28.4041 29.6582 27.1533 29.6582H2.26465C1.01391 29.6582 0 28.6359 0 27.375V2.2832C0 1.02225 1.01391 2.92089e-05 2.26465 0H27.1533ZM4.48633 6.36914V8.65039H6.72656C7.96556 8.65039 8.97057 9.6731 8.9707 10.9336V22.3379H11.2129V8.65039H13.4561V24.6191H15.6982V8.65039H17.9404V22.3379H20.1826V10.9336C20.1828 9.67313 21.1878 8.65044 22.4268 8.65039H24.667V6.36914H4.48633Z" fill="#F6F6F6"/>
<path d="M38.4386 7.41586H32.4189V3.88159H48.2115V7.41586H42.1918V25.7765H38.4386V7.41586Z" fill="#F6F6F6"/>
<path d="M51.2115 3.88159H54.9665V12.8905H64.5542V3.88159H68.3074V25.7765H64.5542V16.4248H54.9665V25.7765H51.2115V3.88159Z" fill="#F6F6F6"/>
<path d="M71.3073 3.88159H84.4308V7.41586H75.0604V12.8886H83.1276V16.3925H75.0604V22.2423H84.7406V25.7765H71.3073V3.88159Z" fill="#F6F6F6"/>
<path d="M87.7425 3.88159H94.0719L101.083 22.0861H101.331V3.88159H105.054V25.7765H98.6618L91.7751 7.60438H91.4956V25.7765H87.7406V3.88159H87.7425Z" fill="#F6F6F6"/>
<path d="M122.914 21.0845H113.514L111.931 25.7765H108.054L115.654 3.88159H120.928L128.466 25.7765H124.495L122.913 21.0845H122.914ZM121.737 17.613L118.355 7.60439H118.046L114.665 17.613H121.738H121.737Z" fill="#F6F6F6"/>
</svg>
