<svg xmlns="http://www.w3.org/2000/svg" width="142.893" height="28.243" viewBox="0 0 142.893 28.243"><defs><style>.a,.b{fill:#fff;}.a{fill-rule:evenodd;}.b{opacity:0.7;}</style></defs><path class="a" d="M90.473,14.332v9.776h-2.4V14.332H85.884v-2.1h2.2v-2a3.766,3.766,0,0,1,3.9-4.074,2.932,2.932,0,0,1,1.387.252V8.481a2.7,2.7,0,0,0-1.009-.149,1.78,1.78,0,0,0-1.876,2.025v1.878h2.864v2.1ZM28.2,24.107V6.234h2.321V24.107ZM16.336,6.605c3.334,0,5.282,1.974,5.282,4.74A3.9,3.9,0,0,1,19,15.128a4.208,4.208,0,0,1,3.159,4.221c0,2.764-2.2,4.765-5.406,4.765H10.634V6.605Zm-.271,7.647c1.95,0,3.11-1.16,3.11-2.789,0-1.654-1.208-2.74-3.209-2.74H13.053v5.53Zm.346,7.732c1.95,0,3.278-1.087,3.278-2.789,0-1.679-1.061-2.865-3.184-2.865H13.053v5.654Zm25.463,2.5a6,6,0,0,0,6.072-6.32,6.076,6.076,0,1,0-12.145,0,6,6,0,0,0,6.072,6.32Zm0-10.541c1.975,0,3.7,1.481,3.7,4.221,0,2.761-1.729,4.247-3.7,4.247s-3.7-1.481-3.7-4.247C38.171,15.417,39.9,13.94,41.874,13.94ZM55.6,18.161c0,2.716,1.7,4.172,3.629,4.172a3.227,3.227,0,0,0,3.307-2.443l2.049.882a5.454,5.454,0,0,1-5.356,3.7,6,6,0,0,1-6-6.313A5.954,5.954,0,0,1,59.2,11.867a5.161,5.161,0,0,1,5.283,3.783l-2.1.882A3.117,3.117,0,0,0,59.2,14.01C57.324,14.01,55.6,15.394,55.6,18.161Zm25,5.946-5.16-6.863L80.5,12.235H77.291l-5.135,5.257V6.234h-2.3V24.107h2.3v-3.58l1.654-1.654,3.876,5.234Zm24.115.373a6,6,0,0,0,6.072-6.32,6.076,6.076,0,1,0-12.145,0,6,6,0,0,0,6.072,6.32Zm0-10.541c1.974,0,3.7,1.481,3.7,4.221,0,2.761-1.725,4.247-3.7,4.247s-3.7-1.481-3.7-4.247C101.013,15.417,102.739,13.94,104.714,13.94Zm11.353,10.168V6.234h2.32V24.107Zm9.9-17.686a1.147,1.147,0,1,0,.308,1.57,1.147,1.147,0,0,0-.308-1.57Zm.516,5.812h-2.3V24.107h2.3ZM138.354,24.48a6,6,0,0,0,6.072-6.32,6.076,6.076,0,1,0-12.144,0A6,6,0,0,0,138.354,24.48Zm0-10.541c1.975,0,3.7,1.481,3.7,4.221,0,2.761-1.729,4.247-3.7,4.247s-3.7-1.481-3.7-4.247c0-2.74,1.725-4.221,3.7-4.221Z" transform="translate(-1.533 -0.888)"/><path class="b" d="M26.478,28.243H1.766A1.765,1.765,0,0,1,0,26.478V1.765A1.765,1.765,0,0,1,1.766,0H26.478a1.766,1.766,0,0,1,1.765,1.765V2.876h-.631V1.765A1.135,1.135,0,0,0,26.478.631H1.765A1.135,1.135,0,0,0,.631,1.765V26.478a1.135,1.135,0,0,0,1.134,1.135H26.478a1.135,1.135,0,0,0,1.135-1.135v-.615h.631v.615a1.765,1.765,0,0,1-1.766,1.766Z" transform="translate(0 0)"/></svg>